mtllib retribution.mtl
v 0.017730 -0.015865 0.000552
v 0.017730 0.090476 0.000552
v -0.046081 0.090476 0.000552
v -0.046081 -0.015865 0.000552
v 0.017730 -0.015865 0.000552
v -0.046081 0.090476 0.000552
v -0.021872 -0.001076 0.016064
v -0.021872 -0.001076 -0.014956
v -0.021872 -0.044802 0.016064
v -0.021872 -0.044802 -0.014956
v -0.021872 -0.044802 0.016064
v -0.021872 -0.001076 -0.014956
v -0.006360 -0.030551 0.000552
v -0.037380 -0.030551 0.000552
v -0.006360 -0.074277 0.000552
v -0.037380 -0.074277 0.000552
v -0.006360 -0.074277 0.000552
v -0.037380 -0.030551 0.000552
v -0.021872 -0.060572 0.016064
v -0.021872 -0.060572 -0.014955
v -0.021872 -0.104299 0.016064
v -0.021872 -0.104299 -0.014955
v -0.021872 -0.104299 0.016064
v -0.021872 -0.060572 -0.014955
v -0.006360 -0.090944 0.000552
v -0.037380 -0.090944 0.000552
v -0.006360 -0.134669 0.000552
v -0.037380 -0.134669 0.000552
v -0.006360 -0.134669 0.000552
v -0.037380 -0.090944 0.000552
v -0.021868 -0.121673 0.016064
v -0.021868 -0.121673 -0.014955
v -0.021868 -0.165401 0.016064
v -0.021868 -0.121673 -0.014955
v -0.021868 -0.165401 -0.014955
v -0.021868 -0.165401 0.016064
v -0.037380 -0.196039 0.000552
v -0.006360 -0.196039 0.000552
v -0.037380 -0.152315 0.000552
v -0.006360 -0.152315 0.000552
v -0.037380 -0.152315 0.000552
v -0.006360 -0.196039 0.000552
v -0.021868 -0.182972 0.016064
v -0.021868 -0.182972 -0.014955
v -0.021868 -0.226700 0.016064
v -0.021868 -0.226700 -0.014955
v -0.021868 -0.226700 0.016064
v -0.021868 -0.182972 -0.014955
v -0.021868 -0.306141 0.000552
v 0.025632 -0.291141 0.000552
v -0.021868 -0.206141 0.000552
v -0.021868 -0.306141 0.000552
v -0.021868 -0.206141 0.000552
v -0.069368 -0.291141 0.000552
v -0.069368 -0.291141 0.000552
v -0.021868 -0.206141 0.000552
v -0.071868 -0.211484 0.000552
v -0.021868 -0.206141 0.000552
v 0.025632 -0.291141 0.000552
v 0.028132 -0.211141 0.000552
v 0.017730 0.090476 0.000552
v 0.017730 -0.015865 0.000552
v -0.046081 0.090476 0.000552
v 0.017730 -0.015865 0.000552
v -0.046081 -0.015865 0.000552
v -0.046081 0.090476 0.000552
v -0.021872 -0.001076 -0.014956
v -0.021872 -0.001076 0.016064
v -0.021872 -0.044802 0.016064
v -0.021872 -0.044802 0.016064
v -0.021872 -0.044802 -0.014956
v -0.021872 -0.001076 -0.014956
v -0.037380 -0.030551 0.000552
v -0.006360 -0.030551 0.000552
v -0.006360 -0.074277 0.000552
v -0.006360 -0.074277 0.000552
v -0.037380 -0.074277 0.000552
v -0.037380 -0.030551 0.000552
v -0.021872 -0.060572 -0.014955
v -0.021872 -0.060572 0.016064
v -0.021872 -0.104299 0.016064
v -0.021872 -0.104299 0.016064
v -0.021872 -0.104299 -0.014955
v -0.021872 -0.060572 -0.014955
v -0.037380 -0.090944 0.000552
v -0.006360 -0.090944 0.000552
v -0.006360 -0.134669 0.000552
v -0.006360 -0.134669 0.000552
v -0.037380 -0.134669 0.000552
v -0.037380 -0.090944 0.000552
v -0.021868 -0.121673 -0.014955
v -0.021868 -0.121673 0.016064
v -0.021868 -0.165401 0.016064
v -0.021868 -0.165401 -0.014955
v -0.021868 -0.121673 -0.014955
v -0.021868 -0.165401 0.016064
v -0.006360 -0.196039 0.000552
v -0.037380 -0.196039 0.000552
v -0.037380 -0.152315 0.000552
v -0.037380 -0.152315 0.000552
v -0.006360 -0.152315 0.000552
v -0.006360 -0.196039 0.000552
v -0.021868 -0.182972 -0.014955
v -0.021868 -0.182972 0.016064
v -0.021868 -0.226700 0.016064
v -0.021868 -0.226700 0.016064
v -0.021868 -0.226700 -0.014955
v -0.021868 -0.182972 -0.014955
v 0.025632 -0.291141 0.000552
v -0.021868 -0.306141 0.000552
v -0.021868 -0.206141 0.000552
v -0.021868 -0.206141 0.000552
v -0.021868 -0.306141 0.000552
v -0.069368 -0.291141 0.000552
v -0.021868 -0.206141 0.000552
v -0.069368 -0.291141 0.000552
v -0.071868 -0.211484 0.000552
v 0.025632 -0.291141 0.000552
v -0.021868 -0.206141 0.000552
v 0.028132 -0.211141 0.000552
vt 0.631104 0.617920
vt 0.631104 0.189453
vt 0.502441 0.189453
vt 0.502441 0.617920
vt 0.759766 0.510986
vt 0.759766 0.684570
vt 0.634277 0.510986
vt 0.634277 0.684570
vt 0.998047 0.837402
vt 0.857666 0.758545
vt 0.998047 0.253662
vt 0.846191 0.277832
vn -0.0000 -0.0000 1.0000
vn -1.0000 -0.0000 -0.0000
vn -0.0000 -0.0000 -1.0000
vn 1.0000 -0.0000 -0.0000
o keychain
usemtl Texture1.002
f 1/1/1 2/2/1 3/3/1
f 4/4/1 5/1/1 6/3/1
f 7/5/2 8/6/2 9/7/2
f 10/8/2 11/7/2 12/6/2
f 13/5/1 14/6/1 15/7/1
f 16/8/1 17/7/1 18/6/1
f 19/5/2 20/6/2 21/7/2
f 22/8/2 23/7/2 24/6/2
f 25/5/1 26/6/1 27/7/1
f 28/8/1 29/7/1 30/6/1
f 31/5/2 32/6/2 33/7/2
f 34/6/2 35/8/2 36/7/2
f 37/8/1 38/7/1 39/6/1
f 40/5/1 41/6/1 42/7/1
f 43/5/2 44/6/2 45/7/2
f 46/8/2 47/7/2 48/6/2
f 49/9/1 50/10/1 51/11/1
f 52/9/1 53/11/1 54/10/1
f 55/10/1 56/11/1 57/12/1
f 58/11/1 59/10/1 60/12/1
f 61/2/3 62/1/3 63/3/3
f 64/1/3 65/4/3 66/3/3
f 67/6/4 68/5/4 69/7/4
f 70/7/4 71/8/4 72/6/4
f 73/6/3 74/5/3 75/7/3
f 76/7/3 77/8/3 78/6/3
f 79/6/4 80/5/4 81/7/4
f 82/7/4 83/8/4 84/6/4
f 85/6/3 86/5/3 87/7/3
f 88/7/3 89/8/3 90/6/3
f 91/6/4 92/5/4 93/7/4
f 94/8/4 95/6/4 96/7/4
f 97/7/3 98/8/3 99/6/3
f 100/6/3 101/5/3 102/7/3
f 103/6/4 104/5/4 105/7/4
f 106/7/4 107/8/4 108/6/4
f 109/10/3 110/9/3 111/11/3
f 112/11/3 113/9/3 114/10/3
f 115/11/3 116/10/3 117/12/3
f 118/10/3 119/11/3 120/12/3
