mtllib retribution.mtl
v -0.048140 0.409038 0.015843
v -0.021868 0.439039 0.031013
v -0.048140 0.439038 0.015843
v -0.048140 0.409038 0.015843
v -0.048140 0.439038 0.015843
v -0.048140 0.439039 -0.014739
v -0.048140 0.409038 -0.014739
v -0.048140 0.409038 0.015843
v -0.048140 0.439039 -0.014739
v -0.048140 0.439039 -0.014739
v -0.021868 0.439039 -0.029909
v -0.021868 0.409038 -0.029909
v 0.004404 0.439039 -0.014739
v -0.021868 0.409038 -0.029909
v -0.021868 0.439039 -0.029909
v -0.021868 0.439039 0.031013
v -0.048140 0.409038 0.015843
v -0.021868 0.409038 0.031013
v 0.004404 0.439039 0.015843
v -0.021868 0.439039 0.031013
v 0.004404 0.409038 0.015843
v 0.004404 0.439039 -0.014739
v 0.004404 0.439039 0.015843
v 0.004404 0.409038 0.015843
v 0.004404 0.439039 -0.014739
v 0.004404 0.409038 0.015843
v 0.004404 0.409038 -0.014739
v 0.004404 0.439039 -0.014739
v 0.004404 0.409038 -0.014739
v -0.021868 0.409038 -0.029909
v -0.021868 0.589038 -0.029909
v 0.007030 0.739040 -0.016267
v 0.004404 0.589039 -0.014739
v -0.021868 0.409038 0.031013
v 0.004404 0.409038 0.015843
v -0.021868 0.439039 0.031013
v -0.021868 0.165216 -0.023448
v -0.042541 0.332420 -0.011519
v -0.021868 0.332420 -0.023448
v -0.021868 0.165216 -0.023448
v -0.021868 0.332420 -0.023448
v -0.001199 0.332420 -0.011519
v -0.001199 0.165216 -0.011519
v -0.021868 0.165216 -0.023448
v -0.001199 0.332420 -0.011519
v -0.001199 0.165216 -0.011519
v -0.001199 0.332420 -0.011519
v -0.001199 0.332420 0.012623
v -0.001199 0.165216 0.012623
v -0.001199 0.165216 -0.011519
v -0.001199 0.332420 0.012623
v -0.001199 0.165216 0.012623
v -0.001199 0.332420 0.012623
v -0.021868 0.332420 0.024552
v -0.021868 0.165216 0.024552
v -0.001199 0.165216 0.012623
v -0.021868 0.332420 0.024552
v -0.021868 0.165216 0.024552
v -0.021868 0.332420 0.024552
v -0.042541 0.332420 0.012623
v -0.042541 0.165216 0.012623
v -0.021868 0.165216 0.024552
v -0.042541 0.332420 0.012623
v 0.015289 0.102524 -0.020869
v -0.022081 0.102528 0.043363
v -0.022081 0.102524 -0.042279
v 0.004404 0.589038 0.015843
v -0.021868 0.439039 0.031013
v 0.004404 0.439039 0.015843
v -0.048140 0.589038 0.015843
v -0.048140 0.439039 -0.014739
v -0.048140 0.439038 0.015843
v 0.000549 0.409038 0.013623
v -0.021868 0.409038 0.026564
v 0.000514 0.372010 0.013603
v 0.000549 0.409038 -0.012519
v 0.000549 0.409038 0.013623
v 0.000514 0.372010 0.013603
v 0.000549 0.409038 -0.012519
v 0.000514 0.372010 0.013603
v 0.000514 0.372010 -0.012507
v -0.021868 0.409038 -0.025456
v 0.000549 0.409038 -0.012519
v 0.000514 0.372010 -0.012507
v -0.021868 0.409038 -0.025456
v 0.000514 0.372010 -0.012507
v -0.021868 0.372010 -0.025428
v -0.044250 0.372010 -0.012507
v -0.021868 0.409038 -0.025456
v -0.021868 0.372010 -0.025428
v -0.141947 0.331047 0.017052
v -0.161447 0.174584 0.017603
v -0.111541 0.314231 0.017052
v -0.121002 0.336199 0.017052
v -0.141947 0.331047 0.017052
v -0.111541 0.314231 0.017052
v -0.121002 0.336199 0.017052
v -0.111541 0.314231 0.017052
v -0.100636 0.325079 0.017052
v -0.108565 0.352781 0.017052
v -0.121002 0.336199 0.017052
v -0.100636 0.325079 0.017052
v -0.108565 0.352781 0.017052
v -0.100636 0.325079 0.017052
v -0.048266 0.332420 0.015804
v -0.048266 0.372010 0.015804
v -0.108565 0.352781 0.017052
v -0.048266 0.332420 0.015804
v -0.108565 0.352781 -0.016098
v -0.048266 0.372010 -0.014696
v -0.048266 0.332420 -0.014696
v -0.108565 0.352781 -0.016098
v -0.048266 0.332420 -0.014696
v -0.100636 0.325079 -0.016098
v -0.121002 0.336199 -0.016098
v -0.108565 0.352781 -0.016098
v -0.100636 0.325079 -0.016098
v -0.121002 0.336199 -0.016098
v -0.100636 0.325079 -0.016098
v -0.111541 0.314231 -0.016098
v -0.141947 0.331047 -0.016098
v -0.121002 0.336199 -0.016098
v -0.111541 0.314231 -0.016098
v -0.141947 0.331047 -0.016098
v -0.111541 0.314231 -0.016098
v -0.161447 0.174584 -0.016649
v 0.097789 0.331047 -0.016098
v 0.117289 0.174584 -0.016649
v 0.067384 0.314231 -0.016098
v 0.076845 0.336199 -0.016098
v 0.097789 0.331047 -0.016098
v 0.067384 0.314231 -0.016098
v 0.076845 0.336199 -0.016098
v 0.067384 0.314231 -0.016098
v 0.056478 0.325079 -0.016098
v 0.064408 0.352781 -0.016098
v 0.076845 0.336199 -0.016098
v 0.056478 0.325079 -0.016098
v 0.064408 0.352781 -0.016098
v 0.056478 0.325079 -0.016098
v 0.004108 0.332420 -0.014696
v 0.004108 0.372010 -0.014696
v 0.064408 0.352781 -0.016098
v 0.004108 0.332420 -0.014696
v 0.064408 0.352781 0.017052
v 0.004108 0.372010 0.015804
v 0.004108 0.332420 0.015804
v 0.064408 0.352781 0.017052
v 0.004108 0.332420 0.015804
v 0.056478 0.325079 0.017052
v 0.076845 0.336199 0.017052
v 0.064408 0.352781 0.017052
v 0.056478 0.325079 0.017052
v 0.076845 0.336199 0.017052
v 0.056478 0.325079 0.017052
v 0.067384 0.314231 0.017052
v 0.097789 0.331047 0.017052
v 0.076845 0.336199 0.017052
v 0.067384 0.314231 0.017052
v 0.097789 0.331047 0.017052
v 0.067384 0.314231 0.017052
v 0.117289 0.174584 0.017603
v 0.124223 0.135171 -0.016649
v 0.128801 0.160411 0.017603
v 0.124223 0.135171 0.017603
v 0.124223 0.135171 -0.016649
v 0.124223 0.135171 0.017603
v 0.102321 0.121822 0.017603
v 0.102321 0.121822 -0.016649
v 0.124223 0.135171 -0.016649
v 0.102321 0.121822 0.017603
v 0.102321 0.121822 -0.016649
v 0.102321 0.121822 0.017603
v 0.085179 0.126887 0.017603
v 0.085179 0.126887 -0.016649
v 0.102321 0.121822 -0.016649
v 0.085179 0.126887 0.017603
v -0.044289 0.409038 -0.012519
v -0.021868 0.409038 -0.025456
v -0.044250 0.372010 -0.012507
v -0.044289 0.409038 -0.012519
v -0.044250 0.372010 -0.012507
v -0.044250 0.372010 0.013603
v -0.044289 0.409038 0.013623
v -0.044289 0.409038 -0.012519
v -0.044250 0.372010 0.013603
v -0.044289 0.409038 0.013623
v -0.044250 0.372010 0.013603
v -0.021868 0.409038 0.026564
v -0.059447 0.165222 -0.020869
v -0.059447 0.165222 0.021954
v -0.022081 0.165216 0.043363
v -0.022081 0.165222 -0.042279
v -0.059447 0.165222 -0.020869
v -0.022081 0.165216 0.043363
v -0.022081 0.165216 0.043363
v 0.015289 0.165222 0.021954
v 0.015289 0.165222 -0.020869
v 0.004108 0.372010 -0.014696
v -0.022081 0.372010 0.030922
v 0.004108 0.372010 0.015804
v -0.172958 0.160410 0.017603
v -0.161447 0.174584 -0.016649
v -0.172959 0.160410 -0.016649
v -0.172958 0.160410 0.017603
v -0.172959 0.160410 -0.016649
v -0.168380 0.135171 -0.016649
v -0.168380 0.135171 0.017603
v -0.172958 0.160410 0.017603
v -0.168380 0.135171 -0.016649
v -0.168380 0.135171 0.017603
v -0.168380 0.135171 -0.016649
v -0.146478 0.121822 0.017603
v -0.022081 0.102524 -0.042279
v -0.059447 0.102524 -0.020869
v -0.059447 0.165222 -0.020869
v -0.022081 0.102524 -0.042279
v -0.059447 0.165222 -0.020869
v -0.022081 0.165222 -0.042279
v 0.015289 0.102524 -0.020869
v -0.022081 0.102524 -0.042279
v -0.022081 0.165222 -0.042279
v 0.015289 0.102524 -0.020869
v -0.022081 0.165222 -0.042279
v 0.015289 0.165222 -0.020869
v 0.004108 0.372010 -0.014696
v -0.022081 0.372010 -0.029818
v -0.022081 0.372010 0.030922
v -0.022081 0.372010 0.030922
v -0.022081 0.372010 -0.029818
v -0.048266 0.372010 -0.014696
v -0.021868 0.409038 -0.029909
v -0.048140 0.409038 0.015843
v -0.048140 0.409038 -0.014739
v 0.015289 0.102524 -0.020869
v 0.015289 0.102524 0.021954
v -0.022081 0.102528 0.043363
v -0.022081 0.165216 0.043363
v 0.015289 0.165222 -0.020869
v -0.022081 0.165222 -0.042279
v -0.059447 0.102524 -0.020869
v -0.022081 0.102524 -0.042279
v -0.022081 0.102528 0.043363
v -0.059447 0.102524 -0.020869
v -0.022081 0.102528 0.043363
v -0.059447 0.102524 0.021954
v -0.022081 0.372010 0.030922
v -0.048266 0.372010 0.015804
v -0.048266 0.332420 0.015804
v -0.022081 0.372010 0.030922
v -0.048266 0.332420 0.015804
v -0.022081 0.332420 0.030922
v 0.004108 0.372010 0.015804
v -0.022081 0.372010 0.030922
v -0.022081 0.332420 0.030922
v 0.004108 0.372010 0.015804
v -0.022081 0.332420 0.030922
v 0.004108 0.332420 0.015804
v 0.064408 0.352781 -0.016098
v 0.064408 0.352781 0.017052
v 0.076845 0.336199 0.017052
v 0.076845 0.336199 -0.016098
v 0.064408 0.352781 -0.016098
v 0.076845 0.336199 0.017052
v 0.076845 0.336199 -0.016098
v 0.076845 0.336199 0.017052
v 0.097789 0.331047 0.017052
v 0.097789 0.331047 -0.016098
v 0.076845 0.336199 -0.016098
v 0.097789 0.331047 0.017052
v -0.059447 0.102524 0.021954
v -0.059447 0.165222 0.021954
v -0.122947 0.169907 0.017603
v -0.129337 0.126887 0.017603
v -0.059447 0.102524 0.021954
v -0.122947 0.169907 0.017603
v -0.129337 0.126887 0.017603
v -0.122947 0.169907 0.017603
v -0.146478 0.121822 0.017603
v -0.168380 0.135171 0.017603
v -0.146478 0.121822 0.017603
v -0.122947 0.169907 0.017603
v -0.172958 0.160410 0.017603
v -0.168380 0.135171 0.017603
v -0.122947 0.169907 0.017603
v -0.172958 0.160410 0.017603
v -0.122947 0.169907 0.017603
v -0.161447 0.174584 0.017603
v -0.172959 0.160410 -0.016649
v -0.161447 0.174584 -0.016649
v -0.122947 0.169907 -0.016649
v -0.168380 0.135171 -0.016649
v -0.172959 0.160410 -0.016649
v -0.122947 0.169907 -0.016649
v -0.168380 0.135171 -0.016649
v -0.122947 0.169907 -0.016649
v -0.146478 0.121822 -0.016649
v -0.129337 0.126887 -0.016649
v -0.146478 0.121822 -0.016649
v -0.122947 0.169907 -0.016649
v -0.059447 0.102524 -0.020869
v -0.129337 0.126887 -0.016649
v -0.122947 0.169907 -0.016649
v -0.059447 0.102524 -0.020869
v -0.122947 0.169907 -0.016649
v -0.059447 0.165222 -0.020869
v 0.015289 0.102524 -0.020869
v 0.015289 0.165222 -0.020869
v 0.078789 0.169907 -0.016649
v 0.085179 0.126887 -0.016649
v 0.015289 0.102524 -0.020869
v 0.078789 0.169907 -0.016649
v 0.085179 0.126887 -0.016649
v 0.078789 0.169907 -0.016649
v 0.102321 0.121822 -0.016649
v 0.124223 0.135171 -0.016649
v 0.102321 0.121822 -0.016649
v 0.078789 0.169907 -0.016649
v 0.128801 0.160410 -0.016649
v 0.124223 0.135171 -0.016649
v 0.078789 0.169907 -0.016649
v 0.128801 0.160410 -0.016649
v 0.078789 0.169907 -0.016649
v 0.117289 0.174584 -0.016649
v 0.128801 0.160411 0.017603
v 0.117289 0.174584 0.017603
v 0.078789 0.169907 0.017603
v 0.124223 0.135171 0.017603
v 0.128801 0.160411 0.017603
v 0.078789 0.169907 0.017603
v 0.124223 0.135171 0.017603
v 0.078789 0.169907 0.017603
v 0.102321 0.121822 0.017603
v 0.085179 0.126887 0.017603
v 0.102321 0.121822 0.017603
v 0.078789 0.169907 0.017603
v 0.015289 0.102524 0.021954
v 0.085179 0.126887 0.017603
v 0.078789 0.169907 0.017603
v 0.015289 0.102524 0.021954
v 0.078789 0.169907 0.017603
v 0.015289 0.165222 0.021954
v -0.022081 0.332420 -0.029818
v -0.048266 0.332420 -0.014696
v -0.022081 0.372010 -0.029818
v 0.004108 0.332420 -0.014696
v -0.022081 0.332420 -0.029818
v -0.022081 0.372010 -0.029818
v 0.004108 0.332420 -0.014696
v -0.022081 0.372010 -0.029818
v 0.004108 0.372010 -0.014696
v -0.022081 0.332420 0.030922
v -0.048266 0.332420 0.015804
v -0.022081 0.332420 -0.029818
v 0.004108 0.332420 0.015804
v -0.022081 0.332420 0.030922
v -0.022081 0.332420 -0.029818
v 0.004108 0.332420 0.015804
v -0.022081 0.332420 -0.029818
v 0.004108 0.332420 -0.014696
v -0.121002 0.336199 -0.016098
v -0.141947 0.331047 -0.016098
v -0.141947 0.331047 0.017052
v -0.121002 0.336199 -0.016098
v -0.141947 0.331047 0.017052
v -0.121002 0.336199 0.017052
v -0.108565 0.352781 0.017052
v -0.121002 0.336199 -0.016098
v -0.121002 0.336199 0.017052
v -0.129337 0.126887 -0.016649
v -0.129337 0.126887 0.017603
v -0.146478 0.121822 0.017603
v -0.146478 0.121822 -0.016649
v -0.129337 0.126887 -0.016649
v -0.146478 0.121822 0.017603
v -0.146478 0.121822 -0.016649
v -0.146478 0.121822 0.017603
v -0.168380 0.135171 -0.016649
v -0.022081 0.165216 0.043363
v -0.059447 0.102524 0.021954
v -0.022081 0.102528 0.043363
v -0.022081 0.165216 0.043363
v -0.022081 0.102528 0.043363
v 0.015289 0.102524 0.021954
v 0.015289 0.165222 0.021954
v -0.022081 0.165216 0.043363
v 0.015289 0.102524 0.021954
v 0.128801 0.160410 -0.016649
v 0.117289 0.174584 -0.016649
v 0.117289 0.174584 0.017603
v 0.128801 0.160410 -0.016649
v 0.117289 0.174584 0.017603
v 0.128801 0.160411 0.017603
v 0.124223 0.135171 -0.016649
v 0.128801 0.160410 -0.016649
v 0.128801 0.160411 0.017603
v -0.042541 0.165216 -0.011519
v -0.042541 0.165216 0.012623
v -0.042541 0.332420 0.012623
v -0.042541 0.165216 -0.011519
v -0.042541 0.332420 0.012623
v -0.042541 0.332420 -0.011519
v -0.021868 0.165216 -0.023448
v -0.042541 0.165216 -0.011519
v -0.042541 0.332420 -0.011519
v -0.021868 0.409038 0.026564
v -0.044250 0.372010 0.013603
v -0.021868 0.372010 0.026532
v -0.021868 0.409038 0.026564
v -0.021868 0.372010 0.026532
v 0.000514 0.372010 0.013603
v -0.111541 0.314231 -0.016098
v -0.111541 0.314231 0.017052
v -0.122947 0.169907 0.017603
v -0.122947 0.169907 -0.016649
v -0.111541 0.314231 -0.016098
v -0.122947 0.169907 0.017603
v -0.059447 0.165222 -0.020869
v -0.122947 0.169907 -0.016649
v -0.122947 0.169907 0.017603
v -0.059447 0.165222 0.021954
v -0.059447 0.165222 -0.020869
v -0.122947 0.169907 0.017603
v -0.059447 0.102524 -0.020869
v -0.059447 0.102524 0.021954
v -0.129337 0.126887 0.017603
v -0.129337 0.126887 -0.016649
v -0.059447 0.102524 -0.020869
v -0.129337 0.126887 0.017603
v -0.161447 0.174584 -0.016649
v -0.161447 0.174584 0.017603
v -0.141947 0.331047 0.017052
v -0.141947 0.331047 -0.016098
v -0.161447 0.174584 -0.016649
v -0.141947 0.331047 0.017052
v -0.111541 0.314231 -0.016098
v -0.100636 0.325079 -0.016098
v -0.100636 0.325079 0.017052
v -0.111541 0.314231 0.017052
v -0.111541 0.314231 -0.016098
v -0.100636 0.325079 0.017052
v -0.048266 0.332420 -0.014696
v -0.048266 0.332420 0.015804
v -0.100636 0.325079 0.017052
v -0.100636 0.325079 -0.016098
v -0.048266 0.332420 -0.014696
v -0.100636 0.325079 0.017052
v -0.048266 0.372010 -0.014696
v -0.108565 0.352781 -0.016098
v -0.108565 0.352781 0.017052
v -0.048266 0.372010 0.015804
v -0.048266 0.372010 -0.014696
v -0.108565 0.352781 0.017052
v 0.004108 0.372010 -0.014696
v 0.004108 0.372010 0.015804
v 0.064408 0.352781 0.017052
v 0.064408 0.352781 -0.016098
v 0.004108 0.372010 -0.014696
v 0.064408 0.352781 0.017052
v 0.004108 0.332420 -0.014696
v 0.056478 0.325079 -0.016098
v 0.056478 0.325079 0.017052
v 0.004108 0.332420 0.015804
v 0.004108 0.332420 -0.014696
v 0.056478 0.325079 0.017052
v 0.067384 0.314231 -0.016098
v 0.067384 0.314231 0.017052
v 0.056478 0.325079 0.017052
v 0.056478 0.325079 -0.016098
v 0.067384 0.314231 -0.016098
v 0.056478 0.325079 0.017052
v 0.097789 0.331047 -0.016098
v 0.097789 0.331047 0.017052
v 0.117289 0.174584 0.017603
v 0.117289 0.174584 -0.016649
v 0.097789 0.331047 -0.016098
v 0.117289 0.174584 0.017603
v 0.015289 0.102524 -0.020869
v 0.085179 0.126887 -0.016649
v 0.085179 0.126887 0.017603
v 0.015289 0.102524 0.021954
v 0.015289 0.102524 -0.020869
v 0.085179 0.126887 0.017603
v 0.015289 0.165222 -0.020869
v 0.015289 0.165222 0.021954
v 0.078789 0.169907 0.017603
v 0.078789 0.169907 -0.016649
v 0.015289 0.165222 -0.020869
v 0.078789 0.169907 0.017603
v 0.067384 0.314231 -0.016098
v 0.078789 0.169907 -0.016649
v 0.078789 0.169907 0.017603
v 0.067384 0.314231 0.017052
v 0.067384 0.314231 -0.016098
v 0.078789 0.169907 0.017603
v -0.161447 0.174584 -0.016649
v -0.111541 0.314231 -0.016098
v -0.122947 0.169907 -0.016649
v 0.117289 0.174584 0.017603
v 0.067384 0.314231 0.017052
v 0.078789 0.169907 0.017603
v -0.022081 0.372010 -0.029818
v -0.048266 0.332420 -0.014696
v -0.048266 0.372010 -0.014696
v -0.022081 0.332420 -0.029818
v -0.048266 0.332420 0.015804
v -0.048266 0.332420 -0.014696
v -0.111541 0.314231 0.017052
v -0.161447 0.174584 0.017603
v -0.122947 0.169907 0.017603
v -0.161447 0.174584 -0.016649
v -0.172958 0.160410 0.017603
v -0.161447 0.174584 0.017603
v -0.121002 0.336199 -0.016098
v -0.108565 0.352781 0.017052
v -0.108565 0.352781 -0.016098
v -0.059447 0.102524 0.021954
v -0.022081 0.165216 0.043363
v -0.059447 0.165222 0.021954
v 0.067384 0.314231 -0.016098
v 0.117289 0.174584 -0.016649
v 0.078789 0.169907 -0.016649
v -0.048140 0.439039 -0.014739
v -0.021868 0.589038 -0.029909
v -0.021868 0.439039 -0.029909
v -0.021868 0.889040 -0.042090
v 0.007030 0.739040 -0.016267
v -0.021868 0.739040 -0.032952
v -0.058651 0.889040 0.021958
v -0.021868 0.739040 0.034060
v -0.021868 0.889040 0.043198
v 0.133132 1.049040 -0.064448
v 0.093132 0.829040 -0.064448
v 0.093132 1.049040 -0.064448
v 0.133132 0.829040 0.065552
v 0.093132 1.049040 0.065552
v 0.093132 0.829040 0.065552
v 0.133132 1.049040 -0.064448
v 0.093132 1.049040 0.065552
v 0.133132 1.049039 0.065552
v 0.158132 0.819040 -0.074448
v 0.158132 1.059040 -0.074448
v 0.158132 0.819040 0.075552
v 0.093132 0.829040 -0.064448
v 0.133132 0.829040 0.065552
v 0.093132 0.829040 0.065552
v 0.028132 0.889040 0.050552
v 0.068132 1.059040 0.075552
v 0.028132 0.989040 0.050552
v 0.068132 0.819040 -0.074448
v 0.028132 0.889040 0.050552
v 0.028132 0.889040 -0.049448
v 0.028132 0.989040 -0.049448
v 0.068132 0.819040 -0.074448
v 0.028132 0.889040 -0.049448
v 0.028132 0.989040 -0.049448
v 0.068132 1.059040 0.075552
v 0.068132 1.059040 -0.074448
v 0.138132 1.059039 0.075552
v 0.158132 1.059040 -0.074448
v 0.138132 1.059040 -0.074448
v 0.158132 1.059040 -0.074448
v 0.138132 0.819040 -0.074448
v 0.138132 1.059040 -0.074448
v 0.138132 0.819040 -0.074448
v 0.158132 0.819040 0.075552
v 0.138132 0.819040 0.075552
v 0.138132 1.059039 0.075552
v 0.158132 0.819040 0.075552
v 0.158132 1.059039 0.075552
v 0.068132 1.059040 0.075552
v 0.088132 1.059040 -0.074448
v 0.068132 1.059040 -0.074448
v 0.088132 1.059040 -0.074448
v 0.068132 0.819040 -0.074448
v 0.068132 1.059040 -0.074448
v 0.068132 0.819040 -0.074448
v 0.088132 0.819040 0.075552
v 0.068132 0.819040 0.075552
v 0.068132 1.059040 0.075552
v 0.088132 0.819040 0.075552
v 0.088132 1.059040 0.075552
v 0.093132 1.049040 0.065552
v 0.088132 0.819040 0.075552
v 0.093132 0.829040 0.065552
v 0.093132 0.829040 -0.064448
v 0.088132 0.819040 0.075552
v 0.088132 0.819040 -0.074448
v 0.093132 0.829040 -0.064448
v 0.088132 1.059040 -0.074448
v 0.093132 1.049040 -0.064448
v 0.088132 1.059040 -0.074448
v 0.093132 1.049040 0.065552
v 0.093132 1.049040 -0.064448
v 0.133132 0.829040 0.065552
v 0.138132 1.059039 0.075552
v 0.133132 1.049039 0.065552
v 0.138132 0.819040 -0.074448
v 0.133132 0.829040 0.065552
v 0.133132 0.829040 -0.064448
v 0.133132 1.049040 -0.064448
v 0.138132 0.819040 -0.074448
v 0.133132 0.829040 -0.064448
v 0.133132 1.049040 -0.064448
v 0.138132 1.059039 0.075552
v 0.138132 1.059040 -0.074448
v -0.191868 0.949040 -0.014448
v -0.211868 0.914040 0.010552
v -0.191868 0.949040 0.015552
v -0.071868 0.989040 0.050552
v -0.121868 0.989040 -0.039448
v -0.121868 0.989040 0.040552
v -0.191868 0.904040 -0.009448
v -0.161868 0.916540 0.013052
v -0.191868 0.904040 0.010552
v -0.071868 0.989040 -0.049448
v -0.096868 0.909040 -0.026948
v -0.121868 0.989040 -0.039448
v -0.191868 0.904040 0.010552
v -0.191868 0.949040 0.015552
v -0.211868 0.914040 0.010552
v -0.121868 0.989040 -0.039448
v -0.161868 0.974040 0.025552
v -0.121868 0.989040 0.040552
v -0.161868 0.974040 0.025552
v -0.191868 0.949040 -0.014448
v -0.191868 0.949040 0.015552
v -0.131868 0.919040 -0.016948
v -0.096868 0.909040 0.028052
v -0.131868 0.919040 0.018052
v -0.096868 0.909040 0.028052
v -0.071868 0.889040 -0.049448
v -0.071868 0.889040 0.050552
v -0.161868 0.916540 0.013052
v -0.131868 0.919040 -0.016948
v -0.131868 0.919040 0.018052
v -0.211868 0.914040 0.010552
v -0.191868 0.904040 -0.009448
v -0.191868 0.904040 0.010552
v -0.161868 0.916540 0.013052
v -0.161868 0.974040 0.025552
v -0.191868 0.949040 0.015552
v -0.131868 0.919040 0.018052
v -0.121868 0.989040 0.040552
v -0.161868 0.974040 0.025552
v -0.096868 0.909040 0.028052
v -0.071868 0.989040 0.050552
v -0.121868 0.989040 0.040552
v -0.131868 0.919040 -0.016948
v -0.121868 0.989040 -0.039448
v -0.096868 0.909040 -0.026948
v -0.161868 0.916540 -0.011948
v -0.161868 0.974040 -0.024448
v -0.131868 0.919040 -0.016948
v -0.191868 0.904040 -0.009448
v -0.191868 0.949040 -0.014448
v -0.161868 0.916540 -0.011948
v -0.071868 0.989040 -0.049448
v -0.071868 0.889040 -0.049448
v -0.096868 0.909040 -0.026948
v -0.096868 0.909040 0.028052
v -0.071868 0.889040 0.050552
v -0.071868 0.989040 0.050552
v -0.071868 0.889040 -0.049448
v 0.028132 0.889040 0.050552
v -0.071868 0.889040 0.050552
v 0.028132 0.889040 -0.049448
v -0.071868 0.989040 -0.049448
v 0.028132 0.989040 -0.049448
v 0.028132 0.889040 0.050552
v -0.071868 0.989040 0.050552
v -0.071868 0.889040 0.050552
v 0.028132 0.989040 -0.049448
v -0.071868 0.989040 0.050552
v 0.028132 0.989040 0.050552
v -0.000655 0.960252 0.050552
v -0.021868 0.969040 0.050552
v -0.021868 0.939040 0.090552
v 0.008132 0.939040 0.050552
v -0.000655 0.960252 0.050552
v -0.021868 0.939040 0.090552
v -0.000655 0.917823 0.050552
v 0.008132 0.939040 0.050552
v -0.021868 0.939040 0.090552
v -0.021868 0.909040 0.050552
v -0.000655 0.917823 0.050552
v -0.021868 0.939040 0.090552
v -0.043084 0.917823 0.050552
v -0.021868 0.909040 0.050552
v -0.021868 0.939040 0.090552
v -0.051868 0.939040 0.050552
v -0.043084 0.917823 0.050552
v -0.021868 0.939040 0.090552
v -0.043084 0.960252 0.050552
v -0.051868 0.939040 0.050552
v -0.021868 0.939040 0.090552
v -0.021868 0.969040 0.050552
v -0.043084 0.960252 0.050552
v -0.021868 0.939040 0.090552
v -0.021868 0.939040 -0.089448
v -0.021868 0.969040 -0.049448
v -0.000655 0.960252 -0.049448
v -0.021868 0.939040 -0.089448
v -0.000655 0.960252 -0.049448
v 0.008132 0.939040 -0.049448
v -0.021868 0.939040 -0.089448
v 0.008132 0.939040 -0.049448
v -0.000655 0.917823 -0.049448
v -0.021868 0.939040 -0.089448
v -0.000655 0.917823 -0.049448
v -0.021868 0.909040 -0.049448
v -0.021868 0.939040 -0.089448
v -0.021868 0.909040 -0.049448
v -0.043085 0.917823 -0.049448
v -0.021868 0.939040 -0.089448
v -0.043085 0.917823 -0.049448
v -0.051868 0.939040 -0.049448
v -0.021868 0.939040 -0.089448
v -0.051868 0.939040 -0.049448
v -0.043085 0.960252 -0.049448
v -0.021868 0.939040 -0.089448
v -0.043085 0.960252 -0.049448
v -0.021868 0.969040 -0.049448
v -0.131868 0.919040 0.018052
v -0.096868 0.909040 0.028052
v -0.121868 0.989040 0.040552
v -0.161868 0.916540 0.013052
v -0.131868 0.919040 0.018052
v -0.161868 0.974040 0.025552
v -0.191868 0.904040 0.010552
v -0.161868 0.916540 0.013052
v -0.191868 0.949040 0.015552
v -0.191868 0.904040 -0.009448
v -0.211868 0.914040 -0.009448
v -0.191868 0.949040 -0.014448
v -0.161868 0.916540 -0.011948
v -0.191868 0.949040 -0.014448
v -0.161868 0.974040 -0.024448
v -0.131868 0.919040 -0.016948
v -0.161868 0.974040 -0.024448
v -0.121868 0.989040 -0.039448
v -0.021868 0.409038 -0.029909
v 0.004404 0.409038 -0.014739
v 0.004404 0.409038 0.015843
v -0.021868 0.409038 -0.029909
v 0.004404 0.409038 0.015843
v -0.021868 0.409038 0.031013
v 0.014912 0.889040 0.021958
v 0.007030 0.739040 -0.016267
v 0.014912 0.889040 -0.020854
v 0.004404 0.589038 0.015843
v 0.004404 0.439039 -0.014739
v 0.004404 0.589039 -0.014739
v 0.004404 0.589038 0.015843
v -0.021868 0.739040 0.034060
v -0.021868 0.589039 0.031013
v -0.048140 0.589038 0.015843
v -0.021868 0.439039 0.031013
v -0.021868 0.589039 0.031013
v -0.021868 0.589038 -0.029909
v -0.050770 0.739040 -0.016267
v -0.021868 0.739040 -0.032952
v -0.021868 0.589038 -0.029909
v 0.004404 0.439039 -0.014739
v -0.021868 0.439039 -0.029909
v 0.007030 0.739040 -0.016267
v 0.004404 0.589038 0.015843
v 0.004404 0.589039 -0.014739
v -0.050770 0.739040 -0.016267
v -0.021868 0.889040 -0.042090
v -0.021868 0.739040 -0.032952
v -0.048140 0.589038 0.015843
v -0.050770 0.739040 -0.016267
v -0.048140 0.589039 -0.014739
v -0.058651 0.889040 0.021958
v -0.050770 0.739040 -0.016267
v -0.050770 0.739040 0.017371
v -0.021868 0.589038 -0.029909
v -0.021868 0.739040 -0.032952
v 0.007030 0.739040 -0.016267
v 0.014912 0.889040 0.021958
v -0.021868 0.739040 0.034060
v 0.007030 0.739040 0.017371
v -0.021868 0.739040 0.034060
v -0.048140 0.589038 0.015843
v -0.021868 0.589039 0.031013
v -0.021868 0.409038 -0.029909
v -0.021868 0.409038 0.031013
v -0.048140 0.409038 0.015843
v -0.022081 0.372010 0.030922
v -0.048266 0.372010 -0.014696
v -0.048266 0.372010 0.015804
v -0.058651 0.889040 0.021958
v -0.050770 0.739040 0.017371
v -0.021868 0.739040 0.034060
v 0.014912 0.889040 0.021958
v -0.021868 0.889040 0.043198
v -0.021868 0.739040 0.034060
v 0.014912 0.889040 0.021958
v 0.007030 0.739040 0.017371
v 0.007030 0.739040 -0.016267
v -0.021868 0.889040 -0.042090
v 0.014912 0.889040 -0.020854
v 0.007030 0.739040 -0.016267
v 0.007030 0.739040 -0.016267
v 0.007030 0.739040 0.017371
v 0.004404 0.589038 0.015843
v 0.004404 0.589038 0.015843
v 0.007030 0.739040 0.017371
v -0.021868 0.739040 0.034060
v -0.021868 0.739040 0.034060
v -0.050770 0.739040 0.017371
v -0.048140 0.589038 0.015843
v -0.048140 0.589038 0.015843
v -0.048140 0.439038 0.015843
v -0.021868 0.439039 0.031013
v 0.004404 0.589038 0.015843
v -0.021868 0.589039 0.031013
v -0.021868 0.439039 0.031013
v 0.004404 0.589038 0.015843
v 0.004404 0.439039 0.015843
v 0.004404 0.439039 -0.014739
v -0.021868 0.589038 -0.029909
v 0.004404 0.589039 -0.014739
v 0.004404 0.439039 -0.014739
v -0.048140 0.439039 -0.014739
v -0.048140 0.589039 -0.014739
v -0.021868 0.589038 -0.029909
v -0.048140 0.589038 0.015843
v -0.048140 0.589039 -0.014739
v -0.048140 0.439039 -0.014739
v -0.048140 0.589038 0.015843
v -0.050770 0.739040 0.017371
v -0.050770 0.739040 -0.016267
v -0.021868 0.589038 -0.029909
v -0.048140 0.589039 -0.014739
v -0.050770 0.739040 -0.016267
v -0.050770 0.739040 -0.016267
v -0.058651 0.889040 -0.020854
v -0.021868 0.889040 -0.042090
v -0.058651 0.889040 0.021958
v -0.058651 0.889040 -0.020854
v -0.050770 0.739040 -0.016267
v -0.048140 0.439039 -0.014739
v -0.021868 0.409038 -0.029909
v -0.048140 0.409038 -0.014739
v 0.138132 0.819040 -0.074448
v 0.158132 0.819040 -0.074448
v 0.158132 0.819040 0.075552
v 0.138132 0.819040 -0.074448
v 0.138132 0.819040 0.075552
v 0.133132 0.829040 0.065552
v 0.093132 0.829040 -0.064448
v 0.133132 0.829040 -0.064448
v 0.133132 0.829040 0.065552
v 0.093132 0.829040 -0.064448
v 0.093132 0.829040 0.065552
v 0.088132 0.819040 0.075552
v 0.068132 0.819040 -0.074448
v 0.088132 0.819040 -0.074448
v 0.088132 0.819040 0.075552
v 0.093132 1.049040 0.065552
v 0.088132 1.059040 0.075552
v 0.088132 0.819040 0.075552
v 0.068132 1.059040 0.075552
v 0.068132 0.819040 0.075552
v 0.088132 0.819040 0.075552
v 0.028132 0.889040 0.050552
v 0.068132 0.819040 0.075552
v 0.068132 1.059040 0.075552
v 0.133132 0.829040 0.065552
v 0.133132 1.049039 0.065552
v 0.093132 1.049040 0.065552
v 0.133132 0.829040 0.065552
v 0.138132 0.819040 0.075552
v 0.138132 1.059039 0.075552
v 0.138132 1.059039 0.075552
v 0.138132 0.819040 0.075552
v 0.158132 0.819040 0.075552
v 0.138132 1.059039 0.075552
v 0.158132 1.059039 0.075552
v 0.158132 1.059040 -0.074448
v 0.133132 1.049040 -0.064448
v 0.133132 1.049039 0.065552
v 0.138132 1.059039 0.075552
v 0.133132 1.049040 -0.064448
v 0.093132 1.049040 -0.064448
v 0.093132 1.049040 0.065552
v 0.088132 1.059040 -0.074448
v 0.088132 1.059040 0.075552
v 0.093132 1.049040 0.065552
v 0.068132 1.059040 0.075552
v 0.088132 1.059040 0.075552
v 0.088132 1.059040 -0.074448
v 0.028132 0.989040 -0.049448
v 0.028132 0.989040 0.050552
v 0.068132 1.059040 0.075552
v 0.028132 0.989040 -0.049448
v 0.068132 1.059040 -0.074448
v 0.068132 0.819040 -0.074448
v 0.088132 1.059040 -0.074448
v 0.088132 0.819040 -0.074448
v 0.068132 0.819040 -0.074448
v 0.093132 0.829040 -0.064448
v 0.088132 0.819040 -0.074448
v 0.088132 1.059040 -0.074448
v 0.133132 1.049040 -0.064448
v 0.133132 0.829040 -0.064448
v 0.093132 0.829040 -0.064448
v 0.133132 1.049040 -0.064448
v 0.138132 1.059040 -0.074448
v 0.138132 0.819040 -0.074448
v 0.158132 1.059040 -0.074448
v 0.158132 0.819040 -0.074448
v 0.138132 0.819040 -0.074448
v 0.068132 0.819040 -0.074448
v 0.068132 0.819040 0.075552
v 0.028132 0.889040 0.050552
v -0.071868 0.889040 -0.049448
v 0.028132 0.889040 -0.049448
v 0.028132 0.889040 0.050552
v -0.096868 0.909040 0.028052
v -0.096868 0.909040 -0.026948
v -0.071868 0.889040 -0.049448
v -0.131868 0.919040 -0.016948
v -0.096868 0.909040 -0.026948
v -0.096868 0.909040 0.028052
v -0.161868 0.916540 0.013052
v -0.161868 0.916540 -0.011948
v -0.131868 0.919040 -0.016948
v -0.191868 0.904040 -0.009448
v -0.161868 0.916540 -0.011948
v -0.161868 0.916540 0.013052
v -0.211868 0.914040 0.010552
v -0.211868 0.914040 -0.009448
v -0.191868 0.904040 -0.009448
v 0.028132 0.989040 -0.049448
v -0.071868 0.989040 -0.049448
v -0.071868 0.989040 0.050552
v -0.071868 0.989040 0.050552
v -0.071868 0.989040 -0.049448
v -0.121868 0.989040 -0.039448
v -0.121868 0.989040 -0.039448
v -0.161868 0.974040 -0.024448
v -0.161868 0.974040 0.025552
v -0.161868 0.974040 0.025552
v -0.161868 0.974040 -0.024448
v -0.191868 0.949040 -0.014448
v -0.191868 0.949040 -0.014448
v -0.211868 0.914040 -0.009448
v -0.211868 0.914040 0.010552
v 0.028132 0.889040 0.050552
v 0.028132 0.989040 0.050552
v -0.071868 0.989040 0.050552
v 0.028132 0.889040 -0.049448
v -0.071868 0.889040 -0.049448
v -0.071868 0.989040 -0.049448
v 0.158132 0.819040 0.075552
v 0.158132 1.059040 -0.074448
v 0.158132 1.059039 0.075552
v -0.014581 0.060028 0.013052
v -0.029581 0.060028 0.013052
v -0.014581 0.060028 -0.011948
v -0.029581 0.075028 0.028052
v -0.029581 0.060028 0.013052
v -0.014581 0.075028 0.028052
v -0.014581 0.102528 -0.026948
v -0.014581 0.075028 -0.026948
v -0.029581 0.102528 -0.026948
v -0.014581 0.070028 0.008052
v -0.014581 0.070028 -0.006948
v -0.029581 0.070028 0.008052
v -0.029581 0.070028 0.008052
v -0.029581 0.080028 0.018052
v -0.014581 0.070028 0.008052
v -0.014581 0.080028 -0.016948
v -0.014581 0.102528 -0.016948
v -0.029581 0.080028 -0.016948
v -0.014581 0.075028 -0.026948
v -0.014581 0.102528 -0.026948
v -0.014581 0.080028 -0.016948
v -0.029581 0.075028 -0.026948
v -0.029581 0.080028 -0.016948
v -0.029581 0.102528 -0.026948
v -0.029581 0.070028 -0.006948
v -0.029581 0.060028 -0.011948
v -0.029581 0.070028 0.008052
v -0.029581 0.075028 0.028052
v -0.029581 0.080028 0.018052
v -0.029581 0.060028 0.013052
v -0.014581 0.075028 0.028052
v -0.014581 0.060028 0.013052
v -0.014581 0.080028 0.018052
v -0.014581 0.060028 0.013052
v -0.014581 0.060028 -0.011948
v -0.014581 0.070028 0.008052
v -0.014581 0.060028 -0.011948
v -0.029581 0.060028 -0.011948
v -0.014581 0.075028 -0.026948
v -0.029581 0.102528 0.028052
v -0.029581 0.075028 0.028052
v -0.014581 0.102528 0.028052
v -0.029581 0.102528 0.018052
v -0.014581 0.102528 0.018052
v -0.029581 0.080028 0.018052
v -0.029581 0.070028 -0.006948
v -0.014581 0.070028 -0.006948
v -0.029581 0.080028 -0.016948
v -0.014581 0.060028 -0.011948
v -0.014581 0.075028 -0.026948
v -0.014581 0.070028 -0.006948
v -0.014581 0.102528 0.018052
v -0.014581 0.102528 0.028052
v -0.014581 0.080028 0.018052
v -0.029581 0.060028 -0.011948
v -0.029581 0.070028 -0.006948
v -0.029581 0.075028 -0.026948
v -0.029581 0.075028 0.028052
v -0.029581 0.102528 0.028052
v -0.029581 0.080028 0.018052
v -0.014581 0.060028 -0.011948
v -0.029581 0.060028 0.013052
v -0.029581 0.060028 -0.011948
v -0.014581 0.075028 0.028052
v -0.029581 0.060028 0.013052
v -0.014581 0.060028 0.013052
v -0.029581 0.102528 -0.026948
v -0.014581 0.075028 -0.026948
v -0.029581 0.075028 -0.026948
v -0.029581 0.070028 0.008052
v -0.014581 0.070028 -0.006948
v -0.029581 0.070028 -0.006948
v -0.014581 0.070028 0.008052
v -0.029581 0.080028 0.018052
v -0.014581 0.080028 0.018052
v -0.029581 0.080028 -0.016948
v -0.014581 0.102528 -0.016948
v -0.029581 0.102528 -0.016948
v -0.014581 0.080028 -0.016948
v -0.014581 0.102528 -0.026948
v -0.014581 0.102528 -0.016948
v -0.029581 0.102528 -0.026948
v -0.029581 0.080028 -0.016948
v -0.029581 0.102528 -0.016948
v -0.029581 0.070028 0.008052
v -0.029581 0.060028 -0.011948
v -0.029581 0.060028 0.013052
v -0.029581 0.060028 0.013052
v -0.029581 0.080028 0.018052
v -0.029581 0.070028 0.008052
v -0.014581 0.080028 0.018052
v -0.014581 0.060028 0.013052
v -0.014581 0.070028 0.008052
v -0.014581 0.070028 0.008052
v -0.014581 0.060028 -0.011948
v -0.014581 0.070028 -0.006948
v -0.014581 0.075028 -0.026948
v -0.029581 0.060028 -0.011948
v -0.029581 0.075028 -0.026948
v -0.014581 0.102528 0.028052
v -0.029581 0.075028 0.028052
v -0.014581 0.075028 0.028052
v -0.029581 0.080028 0.018052
v -0.014581 0.102528 0.018052
v -0.014581 0.080028 0.018052
v -0.029581 0.080028 -0.016948
v -0.014581 0.070028 -0.006948
v -0.014581 0.080028 -0.016948
v -0.014581 0.070028 -0.006948
v -0.014581 0.075028 -0.026948
v -0.014581 0.080028 -0.016948
v -0.014581 0.080028 0.018052
v -0.014581 0.102528 0.028052
v -0.014581 0.075028 0.028052
v -0.029581 0.075028 -0.026948
v -0.029581 0.070028 -0.006948
v -0.029581 0.080028 -0.016948
v -0.029581 0.080028 0.018052
v -0.029581 0.102528 0.028052
v -0.029581 0.102528 0.018052
v 0.004404 0.589039 -0.014739
v 0.007030 0.739040 -0.016267
v -0.021868 0.589038 -0.029909
v -0.021868 0.739040 -0.032952
v 0.007030 0.739040 -0.016267
v -0.021868 0.889040 -0.042090
v -0.021868 0.889040 0.043198
v -0.021868 0.739040 0.034060
v -0.058651 0.889040 0.021958
v 0.014912 0.889040 -0.020854
v 0.007030 0.739040 -0.016267
v 0.014912 0.889040 0.021958
v -0.021868 0.589039 0.031013
v -0.021868 0.739040 0.034060
v 0.004404 0.589038 0.015843
v -0.021868 0.739040 -0.032952
v -0.050770 0.739040 -0.016267
v -0.021868 0.589038 -0.029909
v 0.004404 0.589039 -0.014739
v 0.004404 0.589038 0.015843
v 0.007030 0.739040 -0.016267
v -0.021868 0.739040 -0.032952
v -0.021868 0.889040 -0.042090
v -0.050770 0.739040 -0.016267
v -0.048140 0.589039 -0.014739
v -0.050770 0.739040 -0.016267
v -0.048140 0.589038 0.015843
v -0.050770 0.739040 0.017371
v -0.050770 0.739040 -0.016267
v -0.058651 0.889040 0.021958
v 0.007030 0.739040 -0.016267
v -0.021868 0.739040 -0.032952
v -0.021868 0.589038 -0.029909
v 0.007030 0.739040 0.017371
v -0.021868 0.739040 0.034060
v 0.014912 0.889040 0.021958
v -0.021868 0.589039 0.031013
v -0.048140 0.589038 0.015843
v -0.021868 0.739040 0.034060
v -0.021868 0.739040 0.034060
v -0.050770 0.739040 0.017371
v -0.058651 0.889040 0.021958
v -0.021868 0.739040 0.034060
v -0.021868 0.889040 0.043198
v 0.014912 0.889040 0.021958
v 0.007030 0.739040 -0.016267
v 0.007030 0.739040 0.017371
v 0.014912 0.889040 0.021958
v 0.007030 0.739040 -0.016267
v 0.014912 0.889040 -0.020854
v -0.021868 0.889040 -0.042090
v 0.004404 0.589038 0.015843
v 0.007030 0.739040 0.017371
v 0.007030 0.739040 -0.016267
v -0.021868 0.739040 0.034060
v 0.007030 0.739040 0.017371
v 0.004404 0.589038 0.015843
v -0.048140 0.589038 0.015843
v -0.050770 0.739040 0.017371
v -0.021868 0.739040 0.034060
v -0.050770 0.739040 -0.016267
v -0.050770 0.739040 0.017371
v -0.048140 0.589038 0.015843
v -0.050770 0.739040 -0.016267
v -0.048140 0.589039 -0.014739
v -0.021868 0.589038 -0.029909
v -0.021868 0.889040 -0.042090
v -0.058651 0.889040 -0.020854
v -0.050770 0.739040 -0.016267
v -0.050770 0.739040 -0.016267
v -0.058651 0.889040 -0.020854
v -0.058651 0.889040 0.021958
vt 0.359131 0.271484
vt 0.389404 0.354980
vt 0.359131 0.354980
vt 0.328613 0.354980
vt 0.328613 0.271484
vt 0.298096 0.354980
vt 0.298096 0.271484
vt 0.389404 0.271484
vt 0.332031 0.995361
vt 0.167236 0.922119
vt 0.332031 0.922119
vt 0.394287 0.531738
vt 0.427734 0.007080
vt 0.394287 0.007080
vt 0.427734 0.531738
vt 0.461426 0.007080
vt 0.461426 0.531738
vt 0.495361 0.007080
vt 0.495361 0.531738
vt 0.635498 0.313721
vt 0.690918 0.492432
vt 0.690918 0.255371
vt 0.332031 0.848145
vt 0.497070 0.774902
vt 0.497070 0.848145
vt 0.497070 0.922119
vt 0.953613 0.162354
vt 0.953613 0.240234
vt 0.997314 0.162354
vt 0.953613 0.083740
vt 0.997314 0.083740
vt 0.953613 0.005615
vt 0.997314 0.005615
vt 0.997314 0.240234
vt 0.793457 0.845215
vt 0.753418 0.274902
vt 0.849365 0.774902
vt 0.831055 0.864014
vt 0.883545 0.821289
vt 0.854492 0.927002
vt 0.966797 0.843750
vt 0.969727 0.995605
vt 0.707031 0.809570
vt 0.663574 0.697266
vt 0.707031 0.697266
vt 0.747070 0.697266
vt 0.747070 0.809570
vt 0.777344 0.697266
vt 0.777344 0.809570
vt 0.635498 0.432861
vt 0.751221 0.433350
vt 0.695801 0.255371
vt 0.751221 0.314697
vt 0.632568 0.809570
vt 0.663574 0.809570
vt 0.627197 0.629395
vt 0.627197 0.808594
vt 0.503906 0.808594
vt 0.503906 0.629395
vt 0.695801 0.492432
vt 0.583496 0.906006
vt 0.583496 0.997559
vt 0.611084 0.997559
vt 0.611084 0.906006
vt 0.643555 0.997559
vt 0.643555 0.906006
vt 0.946289 0.006104
vt 0.946045 0.240723
vt 0.837891 0.259277
vt 0.817627 0.095703
vt 0.785889 0.076904
vt 0.743896 0.129639
vt 0.735352 0.222412
vt 0.632568 0.697266
vt 0.688721 0.822754
vt 0.688721 0.891602
vt 0.502441 0.891602
vt 0.502441 0.822754
vt 0.710938 0.822754
vt 0.771729 0.822754
vt 0.771729 0.891602
vt 0.710938 0.891602
vt 0.760742 0.906006
vt 0.760742 0.997559
vt 0.651123 0.997559
vt 0.651123 0.906006
vt 0.839600 0.906006
vt 0.839600 0.997559
vt 0.717773 0.822754
vt 0.717773 0.891602
vt 0.785889 0.822754
vt 0.785889 0.891602
vt 0.502441 0.906006
vt 0.502441 0.997559
vt 0.332031 0.774902
vt 0.002441 0.995361
vt 0.167236 0.995361
vt 0.002441 0.922119
vt 0.496094 0.660156
vt 0.208252 0.763428
vt 0.496094 0.763428
vt 0.458984 0.651855
vt 0.245361 0.548584
vt 0.245361 0.651855
vt 0.202881 0.766846
vt 0.202881 0.004150
vt 0.001709 0.766846
vt 0.458984 0.548584
vt 0.283203 0.573730
vt 0.496094 0.677002
vt 0.420898 0.573730
vt 0.446045 0.677002
vt 0.283203 0.548584
vt 0.420898 0.548584
vt 0.258301 0.677002
vt 0.295410 0.004150
vt 0.253174 0.536865
vt 0.295410 0.536865
vt 0.206543 0.536865
vt 0.249512 0.004150
vt 0.249512 0.536865
vt 0.206543 0.004150
vt 0.388672 0.004150
vt 0.345703 0.267090
vt 0.388672 0.267090
vt 0.299316 0.267090
vt 0.342285 0.004150
vt 0.342285 0.267090
vt 0.299316 0.004150
vt 0.678711 0.842773
vt 0.512451 0.842773
vt 0.704590 0.119141
vt 0.736572 0.074951
vt 0.704590 0.065918
vt 0.590576 0.003174
vt 0.635742 0.163330
vt 0.635742 0.021729
vt 0.651855 0.074951
vt 0.632568 0.114746
vt 0.651855 0.110352
vt 0.618164 0.174316
vt 0.635010 0.036621
vt 0.659668 0.166016
vt 0.713867 0.174316
vt 0.716309 0.100586
vt 0.730713 0.160156
vt 0.674316 0.052002
vt 0.613281 0.061523
vt 0.590576 0.141357
vt 0.613281 0.123535
vt 0.568115 0.003174
vt 0.568115 0.182129
vt 0.704590 0.110352
vt 0.689453 0.074951
vt 0.689453 0.110352
vt 0.690186 0.150391
vt 0.692627 0.054443
vt 0.665527 0.142090
vt 0.659668 0.021240
vt 0.635010 0.150635
vt 0.618164 0.012939
vt 0.665527 0.045166
vt 0.690186 0.036865
vt 0.692627 0.132812
vt 0.713867 0.012939
vt 0.716309 0.086914
vt 0.605225 0.012939
vt 0.605225 0.174316
vt 0.501221 0.003174
vt 0.590576 0.182129
vt 0.501221 0.182129
vt 0.388428 0.537354
vt 0.299072 0.358398
vt 0.388428 0.358398
vt 0.299072 0.537354
vt 0.362793 0.409912
vt 0.343750 0.394287
vt 0.343750 0.447754
vt 0.370605 0.447754
vt 0.362793 0.485840
vt 0.343750 0.501465
vt 0.324707 0.485840
vt 0.316895 0.447754
vt 0.324707 0.409912
vt 0.730713 0.027100
vt 0.002441 0.848145
vt 0.167236 0.774902
vt 0.497070 0.995361
vt 0.167236 0.848145
vt 0.002441 0.774902
vt 0.253174 0.004150
vt 0.345703 0.004150
vt 0.208252 0.677002
vt 0.208252 0.660156
vt 0.590576 0.043945
vt 0.632568 0.070557
vt 0.704590 0.074951
vt 0.674316 0.133057
vt 0.736572 0.110352
vt 0.001709 0.004150
vt 0.578369 0.839844
vt 0.578369 0.874268
vt 0.612793 0.839844
vt 0.554199 0.874268
vt 0.554199 0.839844
vt 0.677002 0.839844
vt 0.636963 0.839844
vt 0.677002 0.874268
vt 0.612793 0.874268
vt 0.636963 0.874268
vt 0.514160 0.839844
vt 0.717529 0.290527
vt 0.737305 0.290527
vt 0.724609 0.318359
vt 0.710693 0.346191
vt 0.696777 0.332275
vt 0.710693 0.401855
vt 0.717529 0.457275
vt 0.724609 0.429688
vt 0.696777 0.415771
vt 0.514160 0.874268
vt 0.750000 0.429688
vt 0.737305 0.457275
vt 0.750000 0.318359
vn -0.5000 -0.0000 0.8660
vn -1.0000 -0.0000 -0.0000
vn -0.5000 -0.0000 -0.8660
vn 0.5000 -0.0000 -0.8660
vn 0.5000 -0.0000 0.8660
vn 1.0000 -0.0000 -0.0000
vn 0.5000 -0.0176 -0.8659
vn -0.4998 -0.0000 -0.8661
vn 0.4999 -0.0000 -0.8661
vn 0.4999 -0.0000 0.8661
vn -0.4998 -0.0000 0.8661
vn -0.0000 -1.0000 -0.0000
vn 0.4999 -0.0009 0.8661
vn 1.0000 -0.0010 -0.0000
vn 0.4998 -0.0008 -0.8661
vn 0.5000 -0.0006 -0.8660
vn -0.5000 -0.0006 -0.8660
vn 0.0018 0.0033 1.0000
vn -0.0000 -0.0000 1.0000
vn 0.0229 0.0066 0.9997
vn 0.0207 -0.0000 0.9998
vn 0.0232 -0.0000 -0.9997
vn 0.0257 0.0074 -0.9996
vn -0.0000 -0.0000 -1.0000
vn 0.0018 0.0033 -1.0000
vn -0.0018 0.0033 -1.0000
vn -0.0257 0.0074 -0.9996
vn -0.0232 -0.0000 -0.9997
vn -0.0207 -0.0000 0.9998
vn -0.0229 0.0066 0.9997
vn -0.0018 0.0033 1.0000
vn 0.9839 -0.1785 -0.0000
vn 0.5204 -0.8539 -0.0000
vn -0.2834 -0.9590 -0.0000
vn -0.4998 -0.0008 -0.8662
vn -1.0000 -0.0011 -0.0000
vn -0.4999 -0.0010 0.8661
vn 0.0002 1.0000 -0.0000
vn -0.0000 1.0000 0.0001
vn -0.0002 1.0000 -0.0000
vn -0.0000 1.0000 -0.0000
vn -0.7762 0.6304 -0.0000
vn -0.9839 -0.1785 -0.0000
vn -0.5204 -0.8539 -0.0000
vn -0.4971 -0.0000 -0.8677
vn 0.4971 -0.0000 -0.8677
vn -0.0001 -1.0000 -0.0000
vn 0.0001 -1.0000 -0.0000
vn 0.8000 0.6000 -0.0000
vn 0.2389 0.9711 -0.0000
vn -0.0684 -0.0000 0.9977
vn -0.0591 0.0088 0.9982
vn -0.0573 0.0085 -0.9983
vn -0.0663 -0.0000 -0.9978
vn 0.0663 -0.0000 -0.9978
vn 0.0573 0.0085 -0.9983
vn 0.0591 0.0088 0.9982
vn 0.0684 -0.0000 0.9977
vn -0.5001 -0.0000 -0.8660
vn -0.2389 0.9711 -0.0000
vn -0.8000 0.6000 -0.0000
vn 0.2834 -0.9590 -0.0000
vn -0.4971 -0.0000 0.8677
vn 0.4971 -0.0000 0.8677
vn 0.7762 0.6304 -0.0000
vn 0.7762 0.6305 -0.0000
vn -0.5002 -0.0007 0.8659
vn 0.5002 -0.0007 0.8659
vn 0.9969 -0.0788 -0.0000
vn 0.0736 0.9973 -0.0000
vn -0.3292 -0.9443 -0.0000
vn -0.9923 0.1237 -0.0000
vn 0.7052 -0.7090 -0.0000
vn 0.1388 -0.9903 -0.0000
vn -0.3038 0.9527 -0.0000
vn 0.3038 0.9527 -0.0000
vn -0.1388 -0.9903 -0.0000
vn -0.7052 -0.7090 -0.0000
vn 0.9923 0.1237 -0.0000
vn 0.3292 -0.9443 -0.0000
vn -0.0736 0.9973 -0.0000
vn -0.9969 -0.0788 -0.0000
vn 0.0005 0.0038 -1.0000
vn -0.0005 0.0038 1.0000
vn 0.0005 0.0038 1.0000
vn -0.0005 0.0038 -1.0000
vn 0.4993 -0.0527 -0.8648
vn -0.4994 -0.0527 0.8648
vn -0.5300 -0.0000 0.8480
vn -0.8682 -0.4961 -0.0000
vn -0.5300 -0.0000 -0.8480
vn -0.8682 0.4961 -0.0000
vn 0.8944 -0.0000 0.4472
vn 0.8944 -0.4472 -0.0000
vn 0.8944 -0.0000 -0.4472
vn 0.8944 0.4472 -0.0000
vn -0.8944 -0.0000 0.4472
vn -0.8944 -0.4472 -0.0000
vn -0.8944 -0.0000 -0.4472
vn -0.8944 0.4472 -0.0000
vn 0.3846 -0.9231 -0.0000
vn -0.1918 -0.2097 -0.9588
vn -0.0551 -0.1103 0.9924
vn -0.3511 0.9363 -0.0000
vn -0.6402 0.7682 -0.0000
vn -0.2747 -0.9615 -0.0000
vn -0.6247 -0.7809 -0.0000
vn 0.0830 -0.9965 -0.0000
vn -0.4472 -0.8944 -0.0000
vn -0.1471 -0.2101 0.9665
vn -0.2505 -0.2636 0.9315
vn -0.1918 -0.2097 0.9588
vn -0.3305 -0.2457 -0.9113
vn -0.1437 -0.2102 -0.9670
vn -0.0368 -0.1104 -0.9932
vn -0.6690 -0.0000 -0.7433
vn -0.6690 -0.0000 0.7433
vn 0.3146 0.7594 0.5695
vn 0.7594 0.3146 0.5695
vn 0.7594 -0.3145 0.5696
vn 0.3145 -0.7594 0.5696
vn -0.3144 -0.7594 0.5696
vn -0.7594 -0.3144 0.5696
vn -0.7594 0.3145 0.5696
vn -0.3145 0.7594 0.5696
vn 0.3146 0.7594 -0.5695
vn 0.7594 0.3146 -0.5695
vn 0.7594 -0.3145 -0.5696
vn 0.3144 -0.7594 -0.5696
vn -0.3144 -0.7594 -0.5696
vn -0.7594 -0.3144 -0.5696
vn -0.7594 0.3145 -0.5696
vn -0.3145 0.7594 -0.5696
vn -0.3306 -0.2457 0.9113
vn -0.1437 -0.2102 0.9670
vn -0.0368 -0.1104 0.9932
vn -0.0551 -0.1103 -0.9924
vn -0.1471 -0.2101 -0.9665
vn -0.2505 -0.2636 -0.9315
vn 0.9986 -0.0525 -0.0000
vn 0.5000 -0.0176 0.8659
vn -0.4999 -0.0176 -0.8659
vn 0.9998 -0.0175 -0.0000
vn -0.4993 -0.0527 -0.8648
vn -0.9998 -0.0175 -0.0000
vn -0.9986 -0.0525 -0.0000
vn 0.4999 -0.0176 -0.8659
vn 0.4994 -0.0527 0.8648
vn -0.5000 -0.0176 0.8659
vn 0.5000 -0.0176 0.8658
vn -0.5000 -0.0176 -0.8659
vn -0.0000 -0.7071 0.7071
vn -0.0000 0.7071 -0.7071
vn -0.0000 -0.7071 -0.7071
vn -0.0000 0.7071 0.7071
vn -0.5000 0.0176 0.8659
vn -0.4993 0.0527 0.8648
vn 0.4994 0.0527 -0.8648
vn -0.9986 0.0525 -0.0000
vn -0.5000 0.0176 -0.8659
vn 0.4999 0.0176 0.8659
vn -0.9998 0.0175 -0.0000
vn 0.4993 0.0527 0.8648
vn 0.9998 0.0175 -0.0000
vn 0.9986 0.0525 -0.0000
vn -0.4999 0.0176 0.8659
vn -0.4994 0.0527 -0.8648
vn 0.5000 0.0176 -0.8659
vn -0.5000 0.0176 -0.8658
vn 0.5000 0.0176 0.8659
o base
usemtl Material.001
f 1/1/1 2/2/1 3/3/1
f 4/1/2 5/3/2 6/4/2
f 7/5/2 8/1/2 9/4/2
f 10/4/3 11/6/3 12/7/3
f 13/3/4 14/8/4 15/2/4
f 16/2/1 17/1/1 18/8/1
f 19/4/5 20/6/5 21/5/5
f 22/3/6 23/4/6 24/5/6
f 25/3/6 26/5/6 27/1/6
f 28/3/4 29/1/4 30/8/4
f 31/9/7 32/10/7 33/11/7
f 34/7/5 35/5/5 36/6/5
f 37/12/8 38/13/8 39/14/8
f 40/12/9 41/14/9 42/13/9
f 43/15/9 44/12/9 45/13/9
f 46/15/6 47/13/6 48/16/6
f 49/17/6 50/15/6 51/16/6
f 52/17/10 53/16/10 54/18/10
f 55/19/10 56/17/10 57/18/10
f 58/19/11 59/18/11 60/16/11
f 61/17/11 62/19/11 63/16/11
f 64/20/12 65/21/12 66/22/12
f 67/23/5 68/24/5 69/25/5
f 70/11/2 71/25/2 72/26/2
f 73/27/13 74/28/13 75/29/13
f 76/30/14 77/27/14 78/29/14
f 79/30/14 80/29/14 81/31/14
f 82/32/15 83/30/15 84/31/15
f 85/32/16 86/31/16 87/33/16
f 88/29/17 89/28/17 90/34/17
f 91/35/18 92/36/18 93/37/18
f 94/38/19 95/35/19 96/37/19
f 97/38/19 98/37/19 99/39/19
f 100/40/19 101/38/19 102/39/19
f 103/40/20 104/39/20 105/41/20
f 106/42/21 107/40/21 108/41/21
f 109/40/22 110/42/22 111/41/22
f 112/40/23 113/41/23 114/39/23
f 115/38/24 116/40/24 117/39/24
f 118/38/24 119/39/24 120/37/24
f 121/35/24 122/38/24 123/37/24
f 124/35/25 125/37/25 126/36/25
f 127/35/26 128/36/26 129/37/26
f 130/38/24 131/35/24 132/37/24
f 133/38/24 134/37/24 135/39/24
f 136/40/24 137/38/24 138/39/24
f 139/40/27 140/39/27 141/41/27
f 142/42/28 143/40/28 144/41/28
f 145/40/29 146/42/29 147/41/29
f 148/40/30 149/41/30 150/39/30
f 151/38/19 152/40/19 153/39/19
f 154/38/19 155/39/19 156/37/19
f 157/35/19 158/38/19 159/37/19
f 160/35/31 161/37/31 162/36/31
f 163/43/32 164/44/32 165/45/32
f 166/43/33 167/45/33 168/46/33
f 169/47/33 170/43/33 171/46/33
f 172/47/34 173/46/34 174/48/34
f 175/49/34 176/47/34 177/48/34
f 178/27/35 179/28/35 180/29/35
f 181/27/36 182/29/36 183/31/36
f 184/30/36 185/27/36 186/31/36
f 187/30/37 188/31/37 189/32/37
f 190/20/38 191/50/38 192/21/38
f 193/22/39 194/20/39 195/21/39
f 196/21/40 197/50/40 198/20/40
f 199/51/41 200/52/41 201/53/41
f 202/44/42 203/54/42 204/55/42
f 205/44/43 206/55/43 207/43/43
f 208/45/43 209/44/43 210/43/43
f 211/45/44 212/43/44 213/46/44
f 214/56/45 215/57/45 216/58/45
f 217/56/45 218/58/45 219/59/45
f 220/57/46 221/56/46 222/59/46
f 223/57/46 224/59/46 225/58/46
f 226/51/41 227/60/41 228/52/41
f 229/52/41 230/60/41 231/51/41
f 232/52/12 233/51/12 234/53/12
f 235/20/47 236/50/47 237/21/47
f 238/21/39 239/20/39 240/22/39
f 241/20/12 242/22/12 243/21/12
f 244/20/48 245/21/48 246/50/48
f 247/59/1 248/58/1 249/57/1
f 250/59/1 251/57/1 252/56/1
f 253/58/10 254/59/10 255/56/10
f 256/58/10 257/56/10 258/57/10
f 259/61/49 260/62/49 261/63/49
f 262/64/49 263/61/49 264/63/49
f 265/64/50 266/63/50 267/65/50
f 268/66/50 269/64/50 270/65/50
f 271/67/51 272/68/51 273/69/51
f 274/70/52 275/67/52 276/69/52
f 277/70/19 278/69/19 279/71/19
f 280/72/19 281/71/19 282/69/19
f 283/73/19 284/72/19 285/69/19
f 286/73/19 287/69/19 288/36/19
f 289/73/24 290/36/24 291/69/24
f 292/72/24 293/73/24 294/69/24
f 295/72/24 296/69/24 297/71/24
f 298/70/24 299/71/24 300/69/24
f 301/67/53 302/70/53 303/69/53
f 304/67/54 305/69/54 306/68/54
f 307/67/55 308/68/55 309/69/55
f 310/70/56 311/67/56 312/69/56
f 313/70/24 314/69/24 315/71/24
f 316/72/24 317/71/24 318/69/24
f 319/73/24 320/72/24 321/69/24
f 322/73/24 323/69/24 324/36/24
f 325/73/19 326/36/19 327/69/19
f 328/72/19 329/73/19 330/69/19
f 331/72/19 332/69/19 333/71/19
f 334/70/19 335/71/19 336/69/19
f 337/67/57 338/70/57 339/69/57
f 340/67/58 341/69/58 342/68/58
f 343/56/59 344/57/59 345/59/59
f 346/57/4 347/56/4 348/59/4
f 349/57/4 350/59/4 351/58/4
f 352/60/12 353/51/12 354/52/12
f 355/51/12 356/60/12 357/52/12
f 358/51/12 359/52/12 360/53/12
f 361/64/60 362/66/60 363/65/60
f 364/64/60 365/65/60 366/63/60
f 367/62/61 368/64/61 369/63/61
f 370/49/62 371/48/62 372/46/62
f 373/47/62 374/49/62 375/46/62
f 376/47/44 377/46/44 378/43/44
f 379/59/63 380/57/63 381/56/63
f 382/59/64 383/56/64 384/57/64
f 385/58/64 386/59/64 387/57/64
f 388/55/65 389/54/65 390/74/65
f 391/55/66 392/74/66 393/44/66
f 394/43/32 395/55/32 396/44/32
f 397/15/2 398/17/2 399/16/2
f 400/15/2 401/16/2 402/13/2
f 403/12/8 404/15/8 405/13/8
f 406/32/67 407/31/67 408/33/67
f 409/28/68 410/34/68 411/29/68
f 412/75/69 413/76/69 414/77/69
f 415/78/69 416/75/69 417/77/69
f 418/79/70 419/80/70 420/81/70
f 421/82/70 422/79/70 423/81/70
f 424/83/71 425/84/71 426/85/71
f 427/86/71 428/83/71 429/85/71
f 430/87/72 431/88/72 432/65/72
f 433/66/72 434/87/72 435/65/72
f 436/75/73 437/89/73 438/90/73
f 439/76/73 440/75/73 441/90/73
f 442/91/74 443/92/74 444/90/74
f 445/89/74 446/91/74 447/90/74
f 448/93/75 449/61/75 450/62/75
f 451/94/75 452/93/75 453/62/75
f 454/93/76 455/94/76 456/62/76
f 457/61/76 458/93/76 459/62/76
f 460/91/77 461/89/77 462/90/77
f 463/92/77 464/91/77 465/90/77
f 466/75/78 467/76/78 468/90/78
f 469/89/78 470/75/78 471/90/78
f 472/66/79 473/65/79 474/88/79
f 475/87/79 476/66/79 477/88/79
f 478/83/80 479/86/80 480/85/80
f 481/84/80 482/83/80 483/85/80
f 484/79/81 485/82/81 486/81/81
f 487/80/81 488/79/81 489/81/81
f 490/75/82 491/78/82 492/77/82
f 493/76/82 494/75/82 495/77/82
f 496/36/83 497/37/83 498/69/83
f 499/36/84 500/37/84 501/69/84
f 502/59/59 503/57/59 504/58/59
f 505/52/12 506/51/12 507/53/12
f 508/37/85 509/36/85 510/69/85
f 511/54/42 512/44/42 513/74/42
f 514/64/61 515/62/61 516/61/61
f 517/57/63 518/59/63 519/58/63
f 520/37/86 521/36/86 522/69/86
f 523/25/3 524/95/3 525/24/3
f 526/96/87 527/10/87 528/97/87
f 529/98/88 530/97/88 531/96/88
f 532/99/24 533/100/24 534/101/24
f 535/99/19 536/100/19 537/101/19
f 538/102/41 539/103/41 540/104/41
f 541/105/6 542/106/6 543/107/6
f 544/103/12 545/102/12 546/108/12
f 547/109/89 548/110/89 549/111/89
f 550/112/90 551/113/90 552/114/90
f 553/109/91 554/110/91 555/111/91
f 556/113/92 557/112/92 558/115/92
f 559/116/41 560/117/41 561/118/41
f 562/119/24 563/120/24 564/121/24
f 565/116/12 566/117/12 567/118/12
f 568/120/19 569/119/19 570/122/19
f 571/123/41 572/124/41 573/125/41
f 574/126/24 575/127/24 576/128/24
f 577/123/12 578/124/12 579/125/12
f 580/127/19 581/126/19 582/129/19
f 583/130/93 584/78/93 585/131/93
f 586/131/94 587/75/94 588/78/94
f 589/130/95 590/78/95 591/131/95
f 592/75/96 593/131/96 594/130/96
f 595/131/97 596/75/97 597/130/97
f 598/78/98 599/130/98 600/131/98
f 601/131/99 602/75/99 603/130/99
f 604/130/100 605/78/100 606/75/100
f 607/132/92 608/133/92 609/134/92
f 610/135/41 611/136/41 612/137/41
f 613/138/101 614/139/101 615/140/101
f 616/141/102 617/142/102 618/143/102
f 619/144/103 620/145/103 621/146/103
f 622/136/104 623/147/104 624/137/104
f 625/147/105 626/132/105 627/134/105
f 628/148/106 629/149/106 630/150/106
f 631/149/107 632/151/107 633/152/107
f 634/139/108 635/148/108 636/150/108
f 637/153/109 638/154/109 639/155/109
f 640/156/110 641/157/110 642/145/110
f 643/158/111 644/159/111 645/157/111
f 646/160/112 647/161/112 648/159/112
f 649/162/113 650/143/113 651/142/113
f 652/163/114 653/164/114 654/162/114
f 655/165/115 656/166/115 657/163/115
f 658/141/116 659/167/116 660/142/116
f 661/160/117 662/168/117 663/161/117
f 664/169/12 665/170/12 666/171/12
f 667/172/24 668/173/24 669/174/24
f 670/172/19 671/173/19 672/175/19
f 673/171/41 674/135/41 675/169/41
f 676/176/118 677/177/118 678/178/118
f 679/179/119 680/176/119 681/178/119
f 682/180/120 683/179/120 684/178/120
f 685/181/121 686/180/121 687/178/121
f 688/182/122 689/181/122 690/178/122
f 691/183/123 692/182/123 693/178/123
f 694/184/124 695/183/124 696/178/124
f 697/177/125 698/184/125 699/178/125
f 700/178/126 701/177/126 702/176/126
f 703/178/127 704/176/127 705/179/127
f 706/178/128 707/179/128 708/180/128
f 709/178/129 710/180/129 711/181/129
f 712/178/130 713/181/130 714/182/130
f 715/178/131 716/182/131 717/183/131
f 718/178/132 719/183/132 720/184/132
f 721/178/133 722/184/133 723/177/133
f 724/158/134 725/160/134 726/159/134
f 727/156/135 728/158/135 729/157/135
f 730/144/136 731/156/136 732/145/136
f 733/165/137 734/185/137 735/166/137
f 736/163/138 737/166/138 738/164/138
f 739/162/139 740/164/139 741/143/139
f 742/52/12 743/53/12 744/51/12
f 745/52/12 746/51/12 747/60/12
f 748/186/140 749/10/140 750/98/140
f 751/23/6 752/26/6 753/11/6
f 754/23/141 755/187/141 756/95/141
f 757/11/1 758/188/1 759/9/1
f 760/95/142 761/189/142 762/187/142
f 763/9/4 764/26/4 765/188/4
f 766/10/143 767/23/143 768/11/143
f 769/189/144 770/190/144 771/187/144
f 772/11/145 773/189/145 774/23/145
f 775/98/146 776/189/146 777/10/146
f 778/9/147 779/97/147 780/10/147
f 781/186/148 782/187/148 783/189/148
f 784/97/149 785/11/149 786/9/149
f 787/52/12 788/60/12 789/51/12
f 790/52/41 791/51/41 792/53/41
f 793/98/88 794/10/88 795/97/88
f 796/186/148 797/190/148 798/187/148
f 799/186/140 800/189/140 801/10/140
f 802/96/87 803/98/87 804/10/87
f 805/10/143 806/189/143 807/23/143
f 808/23/150 809/189/150 810/187/150
f 811/97/149 812/10/149 813/11/149
f 814/11/1 815/26/1 816/188/1
f 817/23/5 818/95/5 819/24/5
f 820/23/6 821/25/6 822/26/6
f 823/9/4 824/11/4 825/26/4
f 826/25/3 827/23/3 828/95/3
f 829/11/2 830/23/2 831/25/2
f 832/11/145 833/10/145 834/189/145
f 835/95/151 836/23/151 837/189/151
f 838/189/144 839/186/144 840/190/144
f 841/98/146 842/186/146 843/189/146
f 844/4/3 845/7/3 846/5/3
f 847/116/12 848/191/12 849/117/12
f 850/78/98 851/75/98 852/130/98
f 853/103/12 854/104/12 855/102/12
f 856/131/94 857/130/94 858/75/94
f 859/123/12 860/192/12 861/124/12
f 862/130/93 863/75/93 864/78/93
f 865/127/19 866/128/19 867/126/19
f 868/109/89 869/193/89 870/110/89
f 871/99/19 872/194/19 873/100/19
f 874/131/97 875/78/97 876/75/97
f 877/120/19 878/121/19 879/119/19
f 880/116/41 881/191/41 882/117/41
f 883/130/100 884/131/100 885/78/100
f 886/102/41 887/108/41 888/103/41
f 889/75/96 890/78/96 891/131/96
f 892/123/41 893/192/41 894/124/41
f 895/113/92 896/114/92 897/112/92
f 898/109/91 899/193/91 900/110/91
f 901/126/24 902/129/24 903/127/24
f 904/130/95 905/75/95 906/78/95
f 907/99/24 908/194/24 909/100/24
f 910/131/99 911/78/99 912/75/99
f 913/119/24 914/122/24 915/120/24
f 916/112/90 917/115/90 918/113/90
f 919/169/12 920/135/12 921/170/12
f 922/149/107 923/195/107 924/151/107
f 925/148/106 926/195/106 927/149/106
f 928/139/108 929/196/108 930/148/108
f 931/138/101 932/196/101 933/139/101
f 934/153/109 935/197/109 936/154/109
f 937/171/41 938/170/41 939/135/41
f 940/135/41 941/170/41 942/136/41
f 943/136/104 944/198/104 945/147/104
f 946/147/105 947/198/105 948/132/105
f 949/132/92 950/199/92 951/133/92
f 952/172/19 953/174/19 954/173/19
f 955/172/24 956/175/24 957/173/24
f 958/107/6 959/106/6 960/200/6
f 961/201/12 962/202/12 963/203/12
f 964/204/152 965/202/152 966/205/152
f 967/206/24 968/207/24 969/208/24
f 970/203/41 971/201/41 972/209/41
f 973/209/153 974/210/153 975/203/153
f 976/205/19 977/211/19 978/204/19
f 979/212/6 980/213/6 981/214/6
f 982/212/2 983/214/2 984/213/2
f 985/215/2 986/216/2 987/217/2
f 988/218/2 989/219/2 990/220/2
f 991/218/6 992/220/6 993/219/6
f 994/220/6 995/216/6 996/217/6
f 997/203/154 998/209/154 999/207/154
f 1000/221/19 1001/204/19 1002/211/19
f 1003/208/24 1004/206/24 1005/210/24
f 1006/202/155 1007/201/155 1008/204/155
f 1009/216/6 1010/212/6 1011/215/6
f 1012/222/6 1013/223/6 1014/219/6
f 1015/216/2 1016/215/2 1017/212/2
f 1018/218/2 1019/223/2 1020/219/2
f 1021/203/12 1022/202/12 1023/209/12
f 1024/205/152 1025/202/152 1026/201/152
f 1027/208/24 1028/207/24 1029/210/24
f 1030/209/41 1031/201/41 1032/202/41
f 1033/203/153 1034/210/153 1035/207/153
f 1036/204/19 1037/211/19 1038/221/19
f 1039/214/6 1040/213/6 1041/224/6
f 1042/213/2 1043/214/2 1044/224/2
f 1045/217/2 1046/216/2 1047/220/2
f 1048/220/2 1049/219/2 1050/217/2
f 1051/219/6 1052/220/6 1053/217/6
f 1054/217/6 1055/216/6 1056/215/6
f 1057/207/154 1058/209/154 1059/210/154
f 1060/211/19 1061/204/19 1062/205/19
f 1063/210/24 1064/206/24 1065/207/24
f 1066/204/155 1067/201/155 1068/205/155
f 1069/215/6 1070/212/6 1071/214/6
f 1072/219/6 1073/223/6 1074/218/6
f 1075/212/2 1076/215/2 1077/214/2
f 1078/219/2 1079/223/2 1080/222/2
f 1081/11/156 1082/10/156 1083/9/156
f 1084/97/157 1085/10/157 1086/96/157
f 1087/96/158 1088/97/158 1089/98/158
f 1090/98/159 1091/10/159 1092/186/159
f 1093/95/160 1094/187/160 1095/23/160
f 1096/187/161 1097/189/161 1098/95/161
f 1099/11/162 1100/23/162 1101/10/162
f 1102/187/163 1103/190/163 1104/189/163
f 1105/23/164 1106/189/164 1107/11/164
f 1108/10/165 1109/189/165 1110/98/165
f 1111/10/166 1112/97/166 1113/9/166
f 1114/189/167 1115/187/167 1116/186/167
f 1117/9/168 1118/11/168 1119/97/168
f 1120/97/158 1121/10/158 1122/98/158
f 1123/187/167 1124/190/167 1125/186/167
f 1126/10/159 1127/189/159 1128/186/159
f 1129/10/157 1130/98/157 1131/96/157
f 1132/23/162 1133/189/162 1134/10/162
f 1135/187/169 1136/189/169 1137/23/169
f 1138/11/168 1139/10/168 1140/97/168
f 1141/189/164 1142/10/164 1143/11/164
f 1144/189/170 1145/23/170 1146/95/170
f 1147/190/163 1148/186/163 1149/189/163
f 1150/189/165 1151/186/165 1152/98/165
