mtllib retribution.mtl
o MeshNode0002.001
v 0.017730 0.090476 0.000552
v -0.046081 0.090476 0.000552
v 0.017730 -0.015865 0.000552
v 0.017730 -0.015865 0.000552
v -0.046081 0.090476 0.000552
v -0.046081 -0.015865 0.000552
v -0.021872 -0.001076 -0.014956
v -0.021872 -0.044802 0.016064
v -0.021872 -0.001076 0.016064
v -0.021872 -0.044802 0.016064
v -0.021872 -0.001076 -0.014956
v -0.021872 -0.044802 -0.014956
v -0.037380 -0.030551 0.000552
v -0.006360 -0.074277 0.000552
v -0.006360 -0.030551 0.000552
v -0.006360 -0.074277 0.000552
v -0.037380 -0.030551 0.000552
v -0.037380 -0.074277 0.000552
v -0.021872 -0.060572 -0.014955
v -0.021872 -0.104299 0.016064
v -0.021872 -0.060572 0.016064
v -0.021872 -0.104299 0.016064
v -0.021872 -0.060572 -0.014955
v -0.021872 -0.104299 -0.014955
v -0.037380 -0.090944 0.000552
v -0.006360 -0.134669 0.000552
v -0.006360 -0.090944 0.000552
v -0.006360 -0.134669 0.000552
v -0.037380 -0.090944 0.000552
v -0.037380 -0.134669 0.000552
v -0.021868 -0.121673 -0.014955
v -0.021868 -0.165401 0.016064
v -0.021868 -0.121673 0.016064
v -0.021868 -0.165401 -0.014955
v -0.021868 -0.165401 0.016064
v -0.021868 -0.121673 -0.014955
v -0.006360 -0.196039 0.000552
v -0.037380 -0.152315 0.000552
v -0.037380 -0.196039 0.000552
v -0.037380 -0.152315 0.000552
v -0.006360 -0.196039 0.000552
v -0.006360 -0.152315 0.000552
v -0.021868 -0.182972 -0.014955
v -0.021868 -0.226700 0.016064
v -0.021868 -0.182972 0.016064
v -0.021868 -0.226700 0.016064
v -0.021868 -0.182972 -0.014955
v -0.021868 -0.226700 -0.014955
v 0.025632 -0.291141 0.000552
v -0.021868 -0.206141 0.000552
v -0.021868 -0.306141 0.000552
v -0.021868 -0.206141 0.000552
v -0.069368 -0.291141 0.000552
v -0.021868 -0.306141 0.000552
v -0.021868 -0.206141 0.000552
v -0.071868 -0.211484 0.000552
v -0.069368 -0.291141 0.000552
v 0.025632 -0.291141 0.000552
v 0.028132 -0.211141 0.000552
v -0.021868 -0.206141 0.000552
v 0.017730 -0.015865 0.000552
v -0.046081 0.090476 0.000552
v 0.017730 0.090476 0.000552
v -0.046081 -0.015865 0.000552
v -0.046081 0.090476 0.000552
v 0.017730 -0.015865 0.000552
v -0.021872 -0.001076 0.016064
v -0.021872 -0.044802 0.016064
v -0.021872 -0.001076 -0.014956
v -0.021872 -0.044802 -0.014956
v -0.021872 -0.001076 -0.014956
v -0.021872 -0.044802 0.016064
v -0.006360 -0.030551 0.000552
v -0.006360 -0.074277 0.000552
v -0.037380 -0.030551 0.000552
v -0.037380 -0.074277 0.000552
v -0.037380 -0.030551 0.000552
v -0.006360 -0.074277 0.000552
v -0.021872 -0.060572 0.016064
v -0.021872 -0.104299 0.016064
v -0.021872 -0.060572 -0.014955
v -0.021872 -0.104299 -0.014955
v -0.021872 -0.060572 -0.014955
v -0.021872 -0.104299 0.016064
v -0.006360 -0.090944 0.000552
v -0.006360 -0.134669 0.000552
v -0.037380 -0.090944 0.000552
v -0.037380 -0.134669 0.000552
v -0.037380 -0.090944 0.000552
v -0.006360 -0.134669 0.000552
v -0.021868 -0.121673 0.016064
v -0.021868 -0.165401 0.016064
v -0.021868 -0.121673 -0.014955
v -0.021868 -0.121673 -0.014955
v -0.021868 -0.165401 0.016064
v -0.021868 -0.165401 -0.014955
v -0.037380 -0.196039 0.000552
v -0.037380 -0.152315 0.000552
v -0.006360 -0.196039 0.000552
v -0.006360 -0.152315 0.000552
v -0.006360 -0.196039 0.000552
v -0.037380 -0.152315 0.000552
v -0.021868 -0.182972 0.016064
v -0.021868 -0.226700 0.016064
v -0.021868 -0.182972 -0.014955
v -0.021868 -0.226700 -0.014955
v -0.021868 -0.182972 -0.014955
v -0.021868 -0.226700 0.016064
v -0.021868 -0.306141 0.000552
v -0.021868 -0.206141 0.000552
v 0.025632 -0.291141 0.000552
v -0.021868 -0.306141 0.000552
v -0.069368 -0.291141 0.000552
v -0.021868 -0.206141 0.000552
v -0.069368 -0.291141 0.000552
v -0.071868 -0.211484 0.000552
v -0.021868 -0.206141 0.000552
v -0.021868 -0.206141 0.000552
v 0.028132 -0.211141 0.000552
v 0.025632 -0.291141 0.000552
vn -0.0000 -0.0000 1.0000
vn -1.0000 -0.0000 -0.0000
vn -0.0000 -0.0000 -1.0000
vn 1.0000 -0.0000 -0.0000
vt 0.631104 0.617920
vt 0.631104 0.189453
vt 0.502441 0.189453
vt 0.502441 0.617920
vt 0.759766 0.510986
vt 0.759766 0.684570
vt 0.634277 0.510986
vt 0.634277 0.684570
vt 0.998047 0.837402
vt 0.857666 0.758545
vt 0.998047 0.253662
vt 0.846191 0.277832
s 1
usemtl Texture1.002
f 3/1/1 1/2/1 2/3/1
f 6/4/1 4/1/1 5/3/1
f 9/5/2 7/6/2 8/7/2
f 12/8/2 10/7/2 11/6/2
f 15/5/1 13/6/1 14/7/1
f 18/8/1 16/7/1 17/6/1
f 21/5/2 19/6/2 20/7/2
f 24/8/2 22/7/2 23/6/2
f 27/5/1 25/6/1 26/7/1
f 30/8/1 28/7/1 29/6/1
f 33/5/2 31/6/2 32/7/2
f 36/6/2 34/8/2 35/7/2
f 39/8/1 37/7/1 38/6/1
f 42/5/1 40/6/1 41/7/1
f 45/5/2 43/6/2 44/7/2
f 48/8/2 46/7/2 47/6/2
f 51/9/1 49/10/1 50/11/1
f 54/9/1 52/11/1 53/10/1
f 57/10/1 55/11/1 56/12/1
f 60/11/1 58/10/1 59/12/1
f 63/2/3 61/1/3 62/3/3
f 66/1/3 64/4/3 65/3/3
f 69/6/4 67/5/4 68/7/4
f 72/7/4 70/8/4 71/6/4
f 75/6/3 73/5/3 74/7/3
f 78/7/3 76/8/3 77/6/3
f 81/6/4 79/5/4 80/7/4
f 84/7/4 82/8/4 83/6/4
f 87/6/3 85/5/3 86/7/3
f 90/7/3 88/8/3 89/6/3
f 93/6/4 91/5/4 92/7/4
f 96/8/4 94/6/4 95/7/4
f 99/7/3 97/8/3 98/6/3
f 102/6/3 100/5/3 101/7/3
f 105/6/4 103/5/4 104/7/4
f 108/7/4 106/8/4 107/6/4
f 111/10/3 109/9/3 110/11/3
f 114/11/3 112/9/3 113/10/3
f 117/11/3 115/10/3 116/12/3
f 120/10/3 118/11/3 119/12/3
o MeshNode0000.001
v -0.021868 0.439039 0.031013
v -0.048140 0.439038 0.015843
v -0.048140 0.409038 0.015843
v -0.048140 0.439038 0.015843
v -0.048140 0.439039 -0.014739
v -0.048140 0.409038 0.015843
v -0.048140 0.409038 0.015843
v -0.048140 0.439039 -0.014739
v -0.048140 0.409038 -0.014739
v -0.021868 0.439039 -0.029909
v -0.021868 0.409038 -0.029909
v -0.048140 0.439039 -0.014739
v -0.021868 0.409038 -0.029909
v -0.021868 0.439039 -0.029909
v 0.004404 0.439039 -0.014739
v -0.048140 0.409038 0.015843
v -0.021868 0.409038 0.031013
v -0.021868 0.439039 0.031013
v -0.021868 0.439039 0.031013
v 0.004404 0.409038 0.015843
v 0.004404 0.439039 0.015843
v 0.004404 0.439039 0.015843
v 0.004404 0.409038 0.015843
v 0.004404 0.439039 -0.014739
v 0.004404 0.409038 0.015843
v 0.004404 0.409038 -0.014739
v 0.004404 0.439039 -0.014739
v 0.004404 0.409038 -0.014739
v -0.021868 0.409038 -0.029909
v 0.004404 0.439039 -0.014739
v 0.007030 0.739040 -0.016267
v 0.004404 0.589039 -0.014739
v -0.021868 0.589038 -0.029909
v 0.004404 0.409038 0.015843
v -0.021868 0.439039 0.031013
v -0.021868 0.409038 0.031013
v -0.042541 0.332420 -0.011519
v -0.021868 0.332420 -0.023448
v -0.021868 0.165216 -0.023448
v -0.021868 0.332420 -0.023448
v -0.001199 0.332420 -0.011519
v -0.021868 0.165216 -0.023448
v -0.021868 0.165216 -0.023448
v -0.001199 0.332420 -0.011519
v -0.001199 0.165216 -0.011519
v -0.001199 0.332420 -0.011519
v -0.001199 0.332420 0.012623
v -0.001199 0.165216 -0.011519
v -0.001199 0.165216 -0.011519
v -0.001199 0.332420 0.012623
v -0.001199 0.165216 0.012623
v -0.001199 0.332420 0.012623
v -0.021868 0.332420 0.024552
v -0.001199 0.165216 0.012623
v -0.001199 0.165216 0.012623
v -0.021868 0.332420 0.024552
v -0.021868 0.165216 0.024552
v -0.021868 0.332420 0.024552
v -0.042541 0.332420 0.012623
v -0.021868 0.165216 0.024552
v -0.021868 0.165216 0.024552
v -0.042541 0.332420 0.012623
v -0.042541 0.165216 0.012623
v -0.022081 0.102528 0.043363
v -0.022081 0.102524 -0.042279
v 0.015289 0.102524 -0.020869
v -0.021868 0.439039 0.031013
v 0.004404 0.439039 0.015843
v 0.004404 0.589038 0.015843
v -0.048140 0.439039 -0.014739
v -0.048140 0.439038 0.015843
v -0.048140 0.589038 0.015843
v -0.021868 0.409038 0.026564
v 0.000514 0.372010 0.013603
v 0.000549 0.409038 0.013623
v 0.000549 0.409038 0.013623
v 0.000514 0.372010 0.013603
v 0.000549 0.409038 -0.012519
v 0.000514 0.372010 0.013603
v 0.000514 0.372010 -0.012507
v 0.000549 0.409038 -0.012519
v 0.000549 0.409038 -0.012519
v 0.000514 0.372010 -0.012507
v -0.021868 0.409038 -0.025456
v 0.000514 0.372010 -0.012507
v -0.021868 0.372010 -0.025428
v -0.021868 0.409038 -0.025456
v -0.021868 0.409038 -0.025456
v -0.021868 0.372010 -0.025428
v -0.044250 0.372010 -0.012507
v -0.161447 0.174584 0.017603
v -0.111541 0.314231 0.017052
v -0.141947 0.331047 0.017052
v -0.141947 0.331047 0.017052
v -0.111541 0.314231 0.017052
v -0.121002 0.336199 0.017052
v -0.111541 0.314231 0.017052
v -0.100636 0.325079 0.017052
v -0.121002 0.336199 0.017052
v -0.121002 0.336199 0.017052
v -0.100636 0.325079 0.017052
v -0.108565 0.352781 0.017052
v -0.100636 0.325079 0.017052
v -0.048266 0.332420 0.015804
v -0.108565 0.352781 0.017052
v -0.108565 0.352781 0.017052
v -0.048266 0.332420 0.015804
v -0.048266 0.372010 0.015804
v -0.048266 0.372010 -0.014696
v -0.048266 0.332420 -0.014696
v -0.108565 0.352781 -0.016098
v -0.048266 0.332420 -0.014696
v -0.100636 0.325079 -0.016098
v -0.108565 0.352781 -0.016098
v -0.108565 0.352781 -0.016098
v -0.100636 0.325079 -0.016098
v -0.121002 0.336199 -0.016098
v -0.100636 0.325079 -0.016098
v -0.111541 0.314231 -0.016098
v -0.121002 0.336199 -0.016098
v -0.121002 0.336199 -0.016098
v -0.111541 0.314231 -0.016098
v -0.141947 0.331047 -0.016098
v -0.111541 0.314231 -0.016098
v -0.161447 0.174584 -0.016649
v -0.141947 0.331047 -0.016098
v 0.117289 0.174584 -0.016649
v 0.067384 0.314231 -0.016098
v 0.097789 0.331047 -0.016098
v 0.097789 0.331047 -0.016098
v 0.067384 0.314231 -0.016098
v 0.076845 0.336199 -0.016098
v 0.067384 0.314231 -0.016098
v 0.056478 0.325079 -0.016098
v 0.076845 0.336199 -0.016098
v 0.076845 0.336199 -0.016098
v 0.056478 0.325079 -0.016098
v 0.064408 0.352781 -0.016098
v 0.056478 0.325079 -0.016098
v 0.004108 0.332420 -0.014696
v 0.064408 0.352781 -0.016098
v 0.064408 0.352781 -0.016098
v 0.004108 0.332420 -0.014696
v 0.004108 0.372010 -0.014696
v 0.004108 0.372010 0.015804
v 0.004108 0.332420 0.015804
v 0.064408 0.352781 0.017052
v 0.004108 0.332420 0.015804
v 0.056478 0.325079 0.017052
v 0.064408 0.352781 0.017052
v 0.064408 0.352781 0.017052
v 0.056478 0.325079 0.017052
v 0.076845 0.336199 0.017052
v 0.056478 0.325079 0.017052
v 0.067384 0.314231 0.017052
v 0.076845 0.336199 0.017052
v 0.076845 0.336199 0.017052
v 0.067384 0.314231 0.017052
v 0.097789 0.331047 0.017052
v 0.067384 0.314231 0.017052
v 0.117289 0.174584 0.017603
v 0.097789 0.331047 0.017052
v 0.128801 0.160411 0.017603
v 0.124223 0.135171 0.017603
v 0.124223 0.135171 -0.016649
v 0.124223 0.135171 0.017603
v 0.102321 0.121822 0.017603
v 0.124223 0.135171 -0.016649
v 0.124223 0.135171 -0.016649
v 0.102321 0.121822 0.017603
v 0.102321 0.121822 -0.016649
v 0.102321 0.121822 0.017603
v 0.085179 0.126887 0.017603
v 0.102321 0.121822 -0.016649
v 0.102321 0.121822 -0.016649
v 0.085179 0.126887 0.017603
v 0.085179 0.126887 -0.016649
v -0.021868 0.409038 -0.025456
v -0.044250 0.372010 -0.012507
v -0.044289 0.409038 -0.012519
v -0.044250 0.372010 -0.012507
v -0.044250 0.372010 0.013603
v -0.044289 0.409038 -0.012519
v -0.044289 0.409038 -0.012519
v -0.044250 0.372010 0.013603
v -0.044289 0.409038 0.013623
v -0.044250 0.372010 0.013603
v -0.021868 0.409038 0.026564
v -0.044289 0.409038 0.013623
v -0.059447 0.165222 0.021954
v -0.022081 0.165216 0.043363
v -0.059447 0.165222 -0.020869
v -0.059447 0.165222 -0.020869
v -0.022081 0.165216 0.043363
v -0.022081 0.165222 -0.042279
v 0.015289 0.165222 0.021954
v 0.015289 0.165222 -0.020869
v -0.022081 0.165216 0.043363
v -0.022081 0.372010 0.030922
v 0.004108 0.372010 0.015804
v 0.004108 0.372010 -0.014696
v -0.161447 0.174584 -0.016649
v -0.172959 0.160410 -0.016649
v -0.172958 0.160410 0.017603
v -0.172959 0.160410 -0.016649
v -0.168380 0.135171 -0.016649
v -0.172958 0.160410 0.017603
v -0.172958 0.160410 0.017603
v -0.168380 0.135171 -0.016649
v -0.168380 0.135171 0.017603
v -0.168380 0.135171 -0.016649
v -0.146478 0.121822 0.017603
v -0.168380 0.135171 0.017603
v -0.059447 0.102524 -0.020869
v -0.059447 0.165222 -0.020869
v -0.022081 0.102524 -0.042279
v -0.059447 0.165222 -0.020869
v -0.022081 0.165222 -0.042279
v -0.022081 0.102524 -0.042279
v -0.022081 0.102524 -0.042279
v -0.022081 0.165222 -0.042279
v 0.015289 0.102524 -0.020869
v -0.022081 0.165222 -0.042279
v 0.015289 0.165222 -0.020869
v 0.015289 0.102524 -0.020869
v -0.022081 0.372010 -0.029818
v -0.022081 0.372010 0.030922
v 0.004108 0.372010 -0.014696
v -0.022081 0.372010 -0.029818
v -0.048266 0.372010 -0.014696
v -0.022081 0.372010 0.030922
v -0.048140 0.409038 0.015843
v -0.048140 0.409038 -0.014739
v -0.021868 0.409038 -0.029909
v 0.015289 0.102524 0.021954
v -0.022081 0.102528 0.043363
v 0.015289 0.102524 -0.020869
v 0.015289 0.165222 -0.020869
v -0.022081 0.165222 -0.042279
v -0.022081 0.165216 0.043363
v -0.022081 0.102524 -0.042279
v -0.022081 0.102528 0.043363
v -0.059447 0.102524 -0.020869
v -0.022081 0.102528 0.043363
v -0.059447 0.102524 0.021954
v -0.059447 0.102524 -0.020869
v -0.048266 0.372010 0.015804
v -0.048266 0.332420 0.015804
v -0.022081 0.372010 0.030922
v -0.048266 0.332420 0.015804
v -0.022081 0.332420 0.030922
v -0.022081 0.372010 0.030922
v -0.022081 0.372010 0.030922
v -0.022081 0.332420 0.030922
v 0.004108 0.372010 0.015804
v -0.022081 0.332420 0.030922
v 0.004108 0.332420 0.015804
v 0.004108 0.372010 0.015804
v 0.064408 0.352781 0.017052
v 0.076845 0.336199 0.017052
v 0.064408 0.352781 -0.016098
v 0.064408 0.352781 -0.016098
v 0.076845 0.336199 0.017052
v 0.076845 0.336199 -0.016098
v 0.076845 0.336199 0.017052
v 0.097789 0.331047 0.017052
v 0.076845 0.336199 -0.016098
v 0.076845 0.336199 -0.016098
v 0.097789 0.331047 0.017052
v 0.097789 0.331047 -0.016098
v -0.059447 0.165222 0.021954
v -0.122947 0.169907 0.017603
v -0.059447 0.102524 0.021954
v -0.059447 0.102524 0.021954
v -0.122947 0.169907 0.017603
v -0.129337 0.126887 0.017603
v -0.122947 0.169907 0.017603
v -0.146478 0.121822 0.017603
v -0.129337 0.126887 0.017603
v -0.146478 0.121822 0.017603
v -0.122947 0.169907 0.017603
v -0.168380 0.135171 0.017603
v -0.168380 0.135171 0.017603
v -0.122947 0.169907 0.017603
v -0.172958 0.160410 0.017603
v -0.122947 0.169907 0.017603
v -0.161447 0.174584 0.017603
v -0.172958 0.160410 0.017603
v -0.161447 0.174584 -0.016649
v -0.122947 0.169907 -0.016649
v -0.172959 0.160410 -0.016649
v -0.172959 0.160410 -0.016649
v -0.122947 0.169907 -0.016649
v -0.168380 0.135171 -0.016649
v -0.122947 0.169907 -0.016649
v -0.146478 0.121822 -0.016649
v -0.168380 0.135171 -0.016649
v -0.146478 0.121822 -0.016649
v -0.122947 0.169907 -0.016649
v -0.129337 0.126887 -0.016649
v -0.129337 0.126887 -0.016649
v -0.122947 0.169907 -0.016649
v -0.059447 0.102524 -0.020869
v -0.122947 0.169907 -0.016649
v -0.059447 0.165222 -0.020869
v -0.059447 0.102524 -0.020869
v 0.015289 0.165222 -0.020869
v 0.078789 0.169907 -0.016649
v 0.015289 0.102524 -0.020869
v 0.015289 0.102524 -0.020869
v 0.078789 0.169907 -0.016649
v 0.085179 0.126887 -0.016649
v 0.078789 0.169907 -0.016649
v 0.102321 0.121822 -0.016649
v 0.085179 0.126887 -0.016649
v 0.102321 0.121822 -0.016649
v 0.078789 0.169907 -0.016649
v 0.124223 0.135171 -0.016649
v 0.124223 0.135171 -0.016649
v 0.078789 0.169907 -0.016649
v 0.128801 0.160410 -0.016649
v 0.078789 0.169907 -0.016649
v 0.117289 0.174584 -0.016649
v 0.128801 0.160410 -0.016649
v 0.117289 0.174584 0.017603
v 0.078789 0.169907 0.017603
v 0.128801 0.160411 0.017603
v 0.128801 0.160411 0.017603
v 0.078789 0.169907 0.017603
v 0.124223 0.135171 0.017603
v 0.078789 0.169907 0.017603
v 0.102321 0.121822 0.017603
v 0.124223 0.135171 0.017603
v 0.102321 0.121822 0.017603
v 0.078789 0.169907 0.017603
v 0.085179 0.126887 0.017603
v 0.085179 0.126887 0.017603
v 0.078789 0.169907 0.017603
v 0.015289 0.102524 0.021954
v 0.078789 0.169907 0.017603
v 0.015289 0.165222 0.021954
v 0.015289 0.102524 0.021954
v -0.048266 0.332420 -0.014696
v -0.022081 0.372010 -0.029818
v -0.022081 0.332420 -0.029818
v -0.022081 0.332420 -0.029818
v -0.022081 0.372010 -0.029818
v 0.004108 0.332420 -0.014696
v -0.022081 0.372010 -0.029818
v 0.004108 0.372010 -0.014696
v 0.004108 0.332420 -0.014696
v -0.048266 0.332420 0.015804
v -0.022081 0.332420 -0.029818
v -0.022081 0.332420 0.030922
v -0.022081 0.332420 0.030922
v -0.022081 0.332420 -0.029818
v 0.004108 0.332420 0.015804
v -0.022081 0.332420 -0.029818
v 0.004108 0.332420 -0.014696
v 0.004108 0.332420 0.015804
v -0.141947 0.331047 -0.016098
v -0.141947 0.331047 0.017052
v -0.121002 0.336199 -0.016098
v -0.141947 0.331047 0.017052
v -0.121002 0.336199 0.017052
v -0.121002 0.336199 -0.016098
v -0.121002 0.336199 -0.016098
v -0.121002 0.336199 0.017052
v -0.108565 0.352781 0.017052
v -0.129337 0.126887 0.017603
v -0.146478 0.121822 0.017603
v -0.129337 0.126887 -0.016649
v -0.129337 0.126887 -0.016649
v -0.146478 0.121822 0.017603
v -0.146478 0.121822 -0.016649
v -0.146478 0.121822 0.017603
v -0.168380 0.135171 -0.016649
v -0.146478 0.121822 -0.016649
v -0.059447 0.102524 0.021954
v -0.022081 0.102528 0.043363
v -0.022081 0.165216 0.043363
v -0.022081 0.102528 0.043363
v 0.015289 0.102524 0.021954
v -0.022081 0.165216 0.043363
v -0.022081 0.165216 0.043363
v 0.015289 0.102524 0.021954
v 0.015289 0.165222 0.021954
v 0.117289 0.174584 -0.016649
v 0.117289 0.174584 0.017603
v 0.128801 0.160410 -0.016649
v 0.117289 0.174584 0.017603
v 0.128801 0.160411 0.017603
v 0.128801 0.160410 -0.016649
v 0.128801 0.160410 -0.016649
v 0.128801 0.160411 0.017603
v 0.124223 0.135171 -0.016649
v -0.042541 0.165216 0.012623
v -0.042541 0.332420 0.012623
v -0.042541 0.165216 -0.011519
v -0.042541 0.332420 0.012623
v -0.042541 0.332420 -0.011519
v -0.042541 0.165216 -0.011519
v -0.042541 0.165216 -0.011519
v -0.042541 0.332420 -0.011519
v -0.021868 0.165216 -0.023448
v -0.044250 0.372010 0.013603
v -0.021868 0.372010 0.026532
v -0.021868 0.409038 0.026564
v -0.021868 0.372010 0.026532
v 0.000514 0.372010 0.013603
v -0.021868 0.409038 0.026564
v -0.111541 0.314231 0.017052
v -0.122947 0.169907 0.017603
v -0.111541 0.314231 -0.016098
v -0.111541 0.314231 -0.016098
v -0.122947 0.169907 0.017603
v -0.122947 0.169907 -0.016649
v -0.122947 0.169907 -0.016649
v -0.122947 0.169907 0.017603
v -0.059447 0.165222 -0.020869
v -0.059447 0.165222 -0.020869
v -0.122947 0.169907 0.017603
v -0.059447 0.165222 0.021954
v -0.059447 0.102524 0.021954
v -0.129337 0.126887 0.017603
v -0.059447 0.102524 -0.020869
v -0.059447 0.102524 -0.020869
v -0.129337 0.126887 0.017603
v -0.129337 0.126887 -0.016649
v -0.161447 0.174584 0.017603
v -0.141947 0.331047 0.017052
v -0.161447 0.174584 -0.016649
v -0.161447 0.174584 -0.016649
v -0.141947 0.331047 0.017052
v -0.141947 0.331047 -0.016098
v -0.100636 0.325079 -0.016098
v -0.100636 0.325079 0.017052
v -0.111541 0.314231 -0.016098
v -0.111541 0.314231 -0.016098
v -0.100636 0.325079 0.017052
v -0.111541 0.314231 0.017052
v -0.048266 0.332420 0.015804
v -0.100636 0.325079 0.017052
v -0.048266 0.332420 -0.014696
v -0.048266 0.332420 -0.014696
v -0.100636 0.325079 0.017052
v -0.100636 0.325079 -0.016098
v -0.108565 0.352781 -0.016098
v -0.108565 0.352781 0.017052
v -0.048266 0.372010 -0.014696
v -0.048266 0.372010 -0.014696
v -0.108565 0.352781 0.017052
v -0.048266 0.372010 0.015804
v 0.004108 0.372010 0.015804
v 0.064408 0.352781 0.017052
v 0.004108 0.372010 -0.014696
v 0.004108 0.372010 -0.014696
v 0.064408 0.352781 0.017052
v 0.064408 0.352781 -0.016098
v 0.056478 0.325079 -0.016098
v 0.056478 0.325079 0.017052
v 0.004108 0.332420 -0.014696
v 0.004108 0.332420 -0.014696
v 0.056478 0.325079 0.017052
v 0.004108 0.332420 0.015804
v 0.067384 0.314231 0.017052
v 0.056478 0.325079 0.017052
v 0.067384 0.314231 -0.016098
v 0.067384 0.314231 -0.016098
v 0.056478 0.325079 0.017052
v 0.056478 0.325079 -0.016098
v 0.097789 0.331047 0.017052
v 0.117289 0.174584 0.017603
v 0.097789 0.331047 -0.016098
v 0.097789 0.331047 -0.016098
v 0.117289 0.174584 0.017603
v 0.117289 0.174584 -0.016649
v 0.085179 0.126887 -0.016649
v 0.085179 0.126887 0.017603
v 0.015289 0.102524 -0.020869
v 0.015289 0.102524 -0.020869
v 0.085179 0.126887 0.017603
v 0.015289 0.102524 0.021954
v 0.015289 0.165222 0.021954
v 0.078789 0.169907 0.017603
v 0.015289 0.165222 -0.020869
v 0.015289 0.165222 -0.020869
v 0.078789 0.169907 0.017603
v 0.078789 0.169907 -0.016649
v 0.078789 0.169907 -0.016649
v 0.078789 0.169907 0.017603
v 0.067384 0.314231 -0.016098
v 0.067384 0.314231 -0.016098
v 0.078789 0.169907 0.017603
v 0.067384 0.314231 0.017052
v -0.111541 0.314231 -0.016098
v -0.122947 0.169907 -0.016649
v -0.161447 0.174584 -0.016649
v 0.067384 0.314231 0.017052
v 0.078789 0.169907 0.017603
v 0.117289 0.174584 0.017603
v -0.048266 0.332420 -0.014696
v -0.048266 0.372010 -0.014696
v -0.022081 0.372010 -0.029818
v -0.048266 0.332420 0.015804
v -0.048266 0.332420 -0.014696
v -0.022081 0.332420 -0.029818
v -0.161447 0.174584 0.017603
v -0.122947 0.169907 0.017603
v -0.111541 0.314231 0.017052
v -0.172958 0.160410 0.017603
v -0.161447 0.174584 0.017603
v -0.161447 0.174584 -0.016649
v -0.108565 0.352781 0.017052
v -0.108565 0.352781 -0.016098
v -0.121002 0.336199 -0.016098
v -0.022081 0.165216 0.043363
v -0.059447 0.165222 0.021954
v -0.059447 0.102524 0.021954
v 0.117289 0.174584 -0.016649
v 0.078789 0.169907 -0.016649
v 0.067384 0.314231 -0.016098
v -0.021868 0.589038 -0.029909
v -0.021868 0.439039 -0.029909
v -0.048140 0.439039 -0.014739
v 0.007030 0.739040 -0.016267
v -0.021868 0.739040 -0.032952
v -0.021868 0.889040 -0.042090
v -0.021868 0.739040 0.034060
v -0.021868 0.889040 0.043198
v -0.058651 0.889040 0.021958
v 0.093132 0.829040 -0.064448
v 0.093132 1.049040 -0.064448
v 0.133132 1.049040 -0.064448
v 0.093132 1.049040 0.065552
v 0.093132 0.829040 0.065552
v 0.133132 0.829040 0.065552
v 0.093132 1.049040 0.065552
v 0.133132 1.049039 0.065552
v 0.133132 1.049040 -0.064448
v 0.158132 1.059040 -0.074448
v 0.158132 0.819040 0.075552
v 0.158132 0.819040 -0.074448
v 0.133132 0.829040 0.065552
v 0.093132 0.829040 0.065552
v 0.093132 0.829040 -0.064448
v 0.068132 1.059040 0.075552
v 0.028132 0.989040 0.050552
v 0.028132 0.889040 0.050552
v 0.028132 0.889040 0.050552
v 0.028132 0.889040 -0.049448
v 0.068132 0.819040 -0.074448
v 0.068132 0.819040 -0.074448
v 0.028132 0.889040 -0.049448
v 0.028132 0.989040 -0.049448
v 0.068132 1.059040 0.075552
v 0.068132 1.059040 -0.074448
v 0.028132 0.989040 -0.049448
v 0.158132 1.059040 -0.074448
v 0.138132 1.059040 -0.074448
v 0.138132 1.059039 0.075552
v 0.138132 0.819040 -0.074448
v 0.138132 1.059040 -0.074448
v 0.158132 1.059040 -0.074448
v 0.158132 0.819040 0.075552
v 0.138132 0.819040 0.075552
v 0.138132 0.819040 -0.074448
v 0.158132 0.819040 0.075552
v 0.158132 1.059039 0.075552
v 0.138132 1.059039 0.075552
v 0.088132 1.059040 -0.074448
v 0.068132 1.059040 -0.074448
v 0.068132 1.059040 0.075552
v 0.068132 0.819040 -0.074448
v 0.068132 1.059040 -0.074448
v 0.088132 1.059040 -0.074448
v 0.088132 0.819040 0.075552
v 0.068132 0.819040 0.075552
v 0.068132 0.819040 -0.074448
v 0.088132 0.819040 0.075552
v 0.088132 1.059040 0.075552
v 0.068132 1.059040 0.075552
v 0.088132 0.819040 0.075552
v 0.093132 0.829040 0.065552
v 0.093132 1.049040 0.065552
v 0.088132 0.819040 0.075552
v 0.088132 0.819040 -0.074448
v 0.093132 0.829040 -0.064448
v 0.088132 1.059040 -0.074448
v 0.093132 1.049040 -0.064448
v 0.093132 0.829040 -0.064448
v 0.093132 1.049040 0.065552
v 0.093132 1.049040 -0.064448
v 0.088132 1.059040 -0.074448
v 0.138132 1.059039 0.075552
v 0.133132 1.049039 0.065552
v 0.133132 0.829040 0.065552
v 0.133132 0.829040 0.065552
v 0.133132 0.829040 -0.064448
v 0.138132 0.819040 -0.074448
v 0.138132 0.819040 -0.074448
v 0.133132 0.829040 -0.064448
v 0.133132 1.049040 -0.064448
v 0.138132 1.059039 0.075552
v 0.138132 1.059040 -0.074448
v 0.133132 1.049040 -0.064448
v -0.211868 0.914040 0.010552
v -0.191868 0.949040 0.015552
v -0.191868 0.949040 -0.014448
v -0.121868 0.989040 -0.039448
v -0.121868 0.989040 0.040552
v -0.071868 0.989040 0.050552
v -0.161868 0.916540 0.013052
v -0.191868 0.904040 0.010552
v -0.191868 0.904040 -0.009448
v -0.096868 0.909040 -0.026948
v -0.121868 0.989040 -0.039448
v -0.071868 0.989040 -0.049448
v -0.191868 0.949040 0.015552
v -0.211868 0.914040 0.010552
v -0.191868 0.904040 0.010552
v -0.161868 0.974040 0.025552
v -0.121868 0.989040 0.040552
v -0.121868 0.989040 -0.039448
v -0.191868 0.949040 -0.014448
v -0.191868 0.949040 0.015552
v -0.161868 0.974040 0.025552
v -0.096868 0.909040 0.028052
v -0.131868 0.919040 0.018052
v -0.131868 0.919040 -0.016948
v -0.071868 0.889040 -0.049448
v -0.071868 0.889040 0.050552
v -0.096868 0.909040 0.028052
v -0.131868 0.919040 -0.016948
v -0.131868 0.919040 0.018052
v -0.161868 0.916540 0.013052
v -0.191868 0.904040 -0.009448
v -0.191868 0.904040 0.010552
v -0.211868 0.914040 0.010552
v -0.161868 0.974040 0.025552
v -0.191868 0.949040 0.015552
v -0.161868 0.916540 0.013052
v -0.121868 0.989040 0.040552
v -0.161868 0.974040 0.025552
v -0.131868 0.919040 0.018052
v -0.071868 0.989040 0.050552
v -0.121868 0.989040 0.040552
v -0.096868 0.909040 0.028052
v -0.121868 0.989040 -0.039448
v -0.096868 0.909040 -0.026948
v -0.131868 0.919040 -0.016948
v -0.161868 0.974040 -0.024448
v -0.131868 0.919040 -0.016948
v -0.161868 0.916540 -0.011948
v -0.191868 0.949040 -0.014448
v -0.161868 0.916540 -0.011948
v -0.191868 0.904040 -0.009448
v -0.071868 0.889040 -0.049448
v -0.096868 0.909040 -0.026948
v -0.071868 0.989040 -0.049448
v -0.071868 0.889040 0.050552
v -0.071868 0.989040 0.050552
v -0.096868 0.909040 0.028052
v 0.028132 0.889040 0.050552
v -0.071868 0.889040 0.050552
v -0.071868 0.889040 -0.049448
v -0.071868 0.989040 -0.049448
v 0.028132 0.989040 -0.049448
v 0.028132 0.889040 -0.049448
v -0.071868 0.989040 0.050552
v -0.071868 0.889040 0.050552
v 0.028132 0.889040 0.050552
v -0.071868 0.989040 0.050552
v 0.028132 0.989040 0.050552
v 0.028132 0.989040 -0.049448
v -0.021868 0.969040 0.050552
v -0.021868 0.939040 0.090552
v -0.000655 0.960252 0.050552
v -0.000655 0.960252 0.050552
v -0.021868 0.939040 0.090552
v 0.008132 0.939040 0.050552
v 0.008132 0.939040 0.050552
v -0.021868 0.939040 0.090552
v -0.000655 0.917823 0.050552
v -0.000655 0.917823 0.050552
v -0.021868 0.939040 0.090552
v -0.021868 0.909040 0.050552
v -0.021868 0.909040 0.050552
v -0.021868 0.939040 0.090552
v -0.043084 0.917823 0.050552
v -0.043084 0.917823 0.050552
v -0.021868 0.939040 0.090552
v -0.051868 0.939040 0.050552
v -0.051868 0.939040 0.050552
v -0.021868 0.939040 0.090552
v -0.043084 0.960252 0.050552
v -0.043084 0.960252 0.050552
v -0.021868 0.939040 0.090552
v -0.021868 0.969040 0.050552
v -0.021868 0.969040 -0.049448
v -0.000655 0.960252 -0.049448
v -0.021868 0.939040 -0.089448
v -0.000655 0.960252 -0.049448
v 0.008132 0.939040 -0.049448
v -0.021868 0.939040 -0.089448
v 0.008132 0.939040 -0.049448
v -0.000655 0.917823 -0.049448
v -0.021868 0.939040 -0.089448
v -0.000655 0.917823 -0.049448
v -0.021868 0.909040 -0.049448
v -0.021868 0.939040 -0.089448
v -0.021868 0.909040 -0.049448
v -0.043085 0.917823 -0.049448
v -0.021868 0.939040 -0.089448
v -0.043085 0.917823 -0.049448
v -0.051868 0.939040 -0.049448
v -0.021868 0.939040 -0.089448
v -0.051868 0.939040 -0.049448
v -0.043085 0.960252 -0.049448
v -0.021868 0.939040 -0.089448
v -0.043085 0.960252 -0.049448
v -0.021868 0.969040 -0.049448
v -0.021868 0.939040 -0.089448
v -0.096868 0.909040 0.028052
v -0.121868 0.989040 0.040552
v -0.131868 0.919040 0.018052
v -0.131868 0.919040 0.018052
v -0.161868 0.974040 0.025552
v -0.161868 0.916540 0.013052
v -0.161868 0.916540 0.013052
v -0.191868 0.949040 0.015552
v -0.191868 0.904040 0.010552
v -0.211868 0.914040 -0.009448
v -0.191868 0.949040 -0.014448
v -0.191868 0.904040 -0.009448
v -0.191868 0.949040 -0.014448
v -0.161868 0.974040 -0.024448
v -0.161868 0.916540 -0.011948
v -0.161868 0.974040 -0.024448
v -0.121868 0.989040 -0.039448
v -0.131868 0.919040 -0.016948
v 0.004404 0.409038 -0.014739
v 0.004404 0.409038 0.015843
v -0.021868 0.409038 -0.029909
v 0.004404 0.409038 0.015843
v -0.021868 0.409038 0.031013
v -0.021868 0.409038 -0.029909
v 0.007030 0.739040 -0.016267
v 0.014912 0.889040 -0.020854
v 0.014912 0.889040 0.021958
v 0.004404 0.439039 -0.014739
v 0.004404 0.589039 -0.014739
v 0.004404 0.589038 0.015843
v -0.021868 0.739040 0.034060
v -0.021868 0.589039 0.031013
v 0.004404 0.589038 0.015843
v -0.021868 0.439039 0.031013
v -0.021868 0.589039 0.031013
v -0.048140 0.589038 0.015843
v -0.050770 0.739040 -0.016267
v -0.021868 0.739040 -0.032952
v -0.021868 0.589038 -0.029909
v 0.004404 0.439039 -0.014739
v -0.021868 0.439039 -0.029909
v -0.021868 0.589038 -0.029909
v 0.004404 0.589038 0.015843
v 0.004404 0.589039 -0.014739
v 0.007030 0.739040 -0.016267
v -0.021868 0.889040 -0.042090
v -0.021868 0.739040 -0.032952
v -0.050770 0.739040 -0.016267
v -0.050770 0.739040 -0.016267
v -0.048140 0.589039 -0.014739
v -0.048140 0.589038 0.015843
v -0.050770 0.739040 -0.016267
v -0.050770 0.739040 0.017371
v -0.058651 0.889040 0.021958
v -0.021868 0.739040 -0.032952
v 0.007030 0.739040 -0.016267
v -0.021868 0.589038 -0.029909
v -0.021868 0.739040 0.034060
v 0.007030 0.739040 0.017371
v 0.014912 0.889040 0.021958
v -0.048140 0.589038 0.015843
v -0.021868 0.589039 0.031013
v -0.021868 0.739040 0.034060
v -0.021868 0.409038 0.031013
v -0.048140 0.409038 0.015843
v -0.021868 0.409038 -0.029909
v -0.048266 0.372010 -0.014696
v -0.048266 0.372010 0.015804
v -0.022081 0.372010 0.030922
v -0.050770 0.739040 0.017371
v -0.021868 0.739040 0.034060
v -0.058651 0.889040 0.021958
v -0.021868 0.889040 0.043198
v -0.021868 0.739040 0.034060
v 0.014912 0.889040 0.021958
v 0.007030 0.739040 0.017371
v 0.007030 0.739040 -0.016267
v 0.014912 0.889040 0.021958
v 0.014912 0.889040 -0.020854
v 0.007030 0.739040 -0.016267
v -0.021868 0.889040 -0.042090
v 0.007030 0.739040 0.017371
v 0.004404 0.589038 0.015843
v 0.007030 0.739040 -0.016267
v 0.007030 0.739040 0.017371
v -0.021868 0.739040 0.034060
v 0.004404 0.589038 0.015843
v -0.050770 0.739040 0.017371
v -0.048140 0.589038 0.015843
v -0.021868 0.739040 0.034060
v -0.048140 0.439038 0.015843
v -0.021868 0.439039 0.031013
v -0.048140 0.589038 0.015843
v -0.021868 0.589039 0.031013
v -0.021868 0.439039 0.031013
v 0.004404 0.589038 0.015843
v 0.004404 0.439039 0.015843
v 0.004404 0.439039 -0.014739
v 0.004404 0.589038 0.015843
v 0.004404 0.589039 -0.014739
v 0.004404 0.439039 -0.014739
v -0.021868 0.589038 -0.029909
v -0.048140 0.589039 -0.014739
v -0.021868 0.589038 -0.029909
v -0.048140 0.439039 -0.014739
v -0.048140 0.589039 -0.014739
v -0.048140 0.439039 -0.014739
v -0.048140 0.589038 0.015843
v -0.050770 0.739040 0.017371
v -0.050770 0.739040 -0.016267
v -0.048140 0.589038 0.015843
v -0.048140 0.589039 -0.014739
v -0.050770 0.739040 -0.016267
v -0.021868 0.589038 -0.029909
v -0.058651 0.889040 -0.020854
v -0.021868 0.889040 -0.042090
v -0.050770 0.739040 -0.016267
v -0.058651 0.889040 -0.020854
v -0.050770 0.739040 -0.016267
v -0.058651 0.889040 0.021958
v -0.021868 0.409038 -0.029909
v -0.048140 0.409038 -0.014739
v -0.048140 0.439039 -0.014739
v 0.158132 0.819040 -0.074448
v 0.158132 0.819040 0.075552
v 0.138132 0.819040 -0.074448
v 0.138132 0.819040 0.075552
v 0.133132 0.829040 0.065552
v 0.138132 0.819040 -0.074448
v 0.133132 0.829040 -0.064448
v 0.133132 0.829040 0.065552
v 0.093132 0.829040 -0.064448
v 0.093132 0.829040 0.065552
v 0.088132 0.819040 0.075552
v 0.093132 0.829040 -0.064448
v 0.088132 0.819040 -0.074448
v 0.088132 0.819040 0.075552
v 0.068132 0.819040 -0.074448
v 0.088132 1.059040 0.075552
v 0.088132 0.819040 0.075552
v 0.093132 1.049040 0.065552
v 0.068132 0.819040 0.075552
v 0.088132 0.819040 0.075552
v 0.068132 1.059040 0.075552
v 0.068132 0.819040 0.075552
v 0.068132 1.059040 0.075552
v 0.028132 0.889040 0.050552
v 0.133132 1.049039 0.065552
v 0.093132 1.049040 0.065552
v 0.133132 0.829040 0.065552
v 0.138132 0.819040 0.075552
v 0.138132 1.059039 0.075552
v 0.133132 0.829040 0.065552
v 0.138132 0.819040 0.075552
v 0.158132 0.819040 0.075552
v 0.138132 1.059039 0.075552
v 0.158132 1.059039 0.075552
v 0.158132 1.059040 -0.074448
v 0.138132 1.059039 0.075552
v 0.133132 1.049039 0.065552
v 0.138132 1.059039 0.075552
v 0.133132 1.049040 -0.064448
v 0.093132 1.049040 -0.064448
v 0.093132 1.049040 0.065552
v 0.133132 1.049040 -0.064448
v 0.088132 1.059040 0.075552
v 0.093132 1.049040 0.065552
v 0.088132 1.059040 -0.074448
v 0.088132 1.059040 0.075552
v 0.088132 1.059040 -0.074448
v 0.068132 1.059040 0.075552
v 0.028132 0.989040 0.050552
v 0.068132 1.059040 0.075552
v 0.028132 0.989040 -0.049448
v 0.068132 1.059040 -0.074448
v 0.068132 0.819040 -0.074448
v 0.028132 0.989040 -0.049448
v 0.088132 0.819040 -0.074448
v 0.068132 0.819040 -0.074448
v 0.088132 1.059040 -0.074448
v 0.088132 0.819040 -0.074448
v 0.088132 1.059040 -0.074448
v 0.093132 0.829040 -0.064448
v 0.133132 0.829040 -0.064448
v 0.093132 0.829040 -0.064448
v 0.133132 1.049040 -0.064448
v 0.138132 1.059040 -0.074448
v 0.138132 0.819040 -0.074448
v 0.133132 1.049040 -0.064448
v 0.158132 0.819040 -0.074448
v 0.138132 0.819040 -0.074448
v 0.158132 1.059040 -0.074448
v 0.068132 0.819040 0.075552
v 0.028132 0.889040 0.050552
v 0.068132 0.819040 -0.074448
v 0.028132 0.889040 -0.049448
v 0.028132 0.889040 0.050552
v -0.071868 0.889040 -0.049448
v -0.096868 0.909040 -0.026948
v -0.071868 0.889040 -0.049448
v -0.096868 0.909040 0.028052
v -0.096868 0.909040 -0.026948
v -0.096868 0.909040 0.028052
v -0.131868 0.919040 -0.016948
v -0.161868 0.916540 -0.011948
v -0.131868 0.919040 -0.016948
v -0.161868 0.916540 0.013052
v -0.161868 0.916540 -0.011948
v -0.161868 0.916540 0.013052
v -0.191868 0.904040 -0.009448
v -0.211868 0.914040 -0.009448
v -0.191868 0.904040 -0.009448
v -0.211868 0.914040 0.010552
v -0.071868 0.989040 -0.049448
v -0.071868 0.989040 0.050552
v 0.028132 0.989040 -0.049448
v -0.071868 0.989040 -0.049448
v -0.121868 0.989040 -0.039448
v -0.071868 0.989040 0.050552
v -0.161868 0.974040 -0.024448
v -0.161868 0.974040 0.025552
v -0.121868 0.989040 -0.039448
v -0.161868 0.974040 -0.024448
v -0.191868 0.949040 -0.014448
v -0.161868 0.974040 0.025552
v -0.211868 0.914040 -0.009448
v -0.211868 0.914040 0.010552
v -0.191868 0.949040 -0.014448
v 0.028132 0.989040 0.050552
v -0.071868 0.989040 0.050552
v 0.028132 0.889040 0.050552
v -0.071868 0.889040 -0.049448
v -0.071868 0.989040 -0.049448
v 0.028132 0.889040 -0.049448
v 0.158132 1.059040 -0.074448
v 0.158132 1.059039 0.075552
v 0.158132 0.819040 0.075552
v -0.029581 0.060028 0.013052
v -0.014581 0.060028 -0.011948
v -0.014581 0.060028 0.013052
v -0.029581 0.060028 0.013052
v -0.014581 0.075028 0.028052
v -0.029581 0.075028 0.028052
v -0.014581 0.075028 -0.026948
v -0.029581 0.102528 -0.026948
v -0.014581 0.102528 -0.026948
v -0.014581 0.070028 -0.006948
v -0.029581 0.070028 0.008052
v -0.014581 0.070028 0.008052
v -0.029581 0.080028 0.018052
v -0.014581 0.070028 0.008052
v -0.029581 0.070028 0.008052
v -0.014581 0.102528 -0.016948
v -0.029581 0.080028 -0.016948
v -0.014581 0.080028 -0.016948
v -0.014581 0.102528 -0.026948
v -0.014581 0.080028 -0.016948
v -0.014581 0.075028 -0.026948
v -0.029581 0.080028 -0.016948
v -0.029581 0.102528 -0.026948
v -0.029581 0.075028 -0.026948
v -0.029581 0.060028 -0.011948
v -0.029581 0.070028 0.008052
v -0.029581 0.070028 -0.006948
v -0.029581 0.080028 0.018052
v -0.029581 0.060028 0.013052
v -0.029581 0.075028 0.028052
v -0.014581 0.060028 0.013052
v -0.014581 0.080028 0.018052
v -0.014581 0.075028 0.028052
v -0.014581 0.060028 -0.011948
v -0.014581 0.070028 0.008052
v -0.014581 0.060028 0.013052
v -0.029581 0.060028 -0.011948
v -0.014581 0.075028 -0.026948
v -0.014581 0.060028 -0.011948
v -0.029581 0.075028 0.028052
v -0.014581 0.102528 0.028052
v -0.029581 0.102528 0.028052
v -0.014581 0.102528 0.018052
v -0.029581 0.080028 0.018052
v -0.029581 0.102528 0.018052
v -0.014581 0.070028 -0.006948
v -0.029581 0.080028 -0.016948
v -0.029581 0.070028 -0.006948
v -0.014581 0.075028 -0.026948
v -0.014581 0.070028 -0.006948
v -0.014581 0.060028 -0.011948
v -0.014581 0.102528 0.028052
v -0.014581 0.080028 0.018052
v -0.014581 0.102528 0.018052
v -0.029581 0.070028 -0.006948
v -0.029581 0.075028 -0.026948
v -0.029581 0.060028 -0.011948
v -0.029581 0.102528 0.028052
v -0.029581 0.080028 0.018052
v -0.029581 0.075028 0.028052
v -0.029581 0.060028 0.013052
v -0.029581 0.060028 -0.011948
v -0.014581 0.060028 -0.011948
v -0.029581 0.060028 0.013052
v -0.014581 0.060028 0.013052
v -0.014581 0.075028 0.028052
v -0.014581 0.075028 -0.026948
v -0.029581 0.075028 -0.026948
v -0.029581 0.102528 -0.026948
v -0.014581 0.070028 -0.006948
v -0.029581 0.070028 -0.006948
v -0.029581 0.070028 0.008052
v -0.029581 0.080028 0.018052
v -0.014581 0.080028 0.018052
v -0.014581 0.070028 0.008052
v -0.014581 0.102528 -0.016948
v -0.029581 0.102528 -0.016948
v -0.029581 0.080028 -0.016948
v -0.014581 0.102528 -0.026948
v -0.014581 0.102528 -0.016948
v -0.014581 0.080028 -0.016948
v -0.029581 0.080028 -0.016948
v -0.029581 0.102528 -0.016948
v -0.029581 0.102528 -0.026948
v -0.029581 0.060028 -0.011948
v -0.029581 0.060028 0.013052
v -0.029581 0.070028 0.008052
v -0.029581 0.080028 0.018052
v -0.029581 0.070028 0.008052
v -0.029581 0.060028 0.013052
v -0.014581 0.060028 0.013052
v -0.014581 0.070028 0.008052
v -0.014581 0.080028 0.018052
v -0.014581 0.060028 -0.011948
v -0.014581 0.070028 -0.006948
v -0.014581 0.070028 0.008052
v -0.029581 0.060028 -0.011948
v -0.029581 0.075028 -0.026948
v -0.014581 0.075028 -0.026948
v -0.029581 0.075028 0.028052
v -0.014581 0.075028 0.028052
v -0.014581 0.102528 0.028052
v -0.014581 0.102528 0.018052
v -0.014581 0.080028 0.018052
v -0.029581 0.080028 0.018052
v -0.014581 0.070028 -0.006948
v -0.014581 0.080028 -0.016948
v -0.029581 0.080028 -0.016948
v -0.014581 0.075028 -0.026948
v -0.014581 0.080028 -0.016948
v -0.014581 0.070028 -0.006948
v -0.014581 0.102528 0.028052
v -0.014581 0.075028 0.028052
v -0.014581 0.080028 0.018052
v -0.029581 0.070028 -0.006948
v -0.029581 0.080028 -0.016948
v -0.029581 0.075028 -0.026948
v -0.029581 0.102528 0.028052
v -0.029581 0.102528 0.018052
v -0.029581 0.080028 0.018052
v 0.007030 0.739040 -0.016267
v -0.021868 0.589038 -0.029909
v 0.004404 0.589039 -0.014739
v 0.007030 0.739040 -0.016267
v -0.021868 0.889040 -0.042090
v -0.021868 0.739040 -0.032952
v -0.021868 0.739040 0.034060
v -0.058651 0.889040 0.021958
v -0.021868 0.889040 0.043198
v 0.007030 0.739040 -0.016267
v 0.014912 0.889040 0.021958
v 0.014912 0.889040 -0.020854
v -0.021868 0.739040 0.034060
v 0.004404 0.589038 0.015843
v -0.021868 0.589039 0.031013
v -0.050770 0.739040 -0.016267
v -0.021868 0.589038 -0.029909
v -0.021868 0.739040 -0.032952
v 0.004404 0.589038 0.015843
v 0.007030 0.739040 -0.016267
v 0.004404 0.589039 -0.014739
v -0.021868 0.889040 -0.042090
v -0.050770 0.739040 -0.016267
v -0.021868 0.739040 -0.032952
v -0.050770 0.739040 -0.016267
v -0.048140 0.589038 0.015843
v -0.048140 0.589039 -0.014739
v -0.050770 0.739040 -0.016267
v -0.058651 0.889040 0.021958
v -0.050770 0.739040 0.017371
v -0.021868 0.739040 -0.032952
v -0.021868 0.589038 -0.029909
v 0.007030 0.739040 -0.016267
v -0.021868 0.739040 0.034060
v 0.014912 0.889040 0.021958
v 0.007030 0.739040 0.017371
v -0.048140 0.589038 0.015843
v -0.021868 0.739040 0.034060
v -0.021868 0.589039 0.031013
v -0.050770 0.739040 0.017371
v -0.058651 0.889040 0.021958
v -0.021868 0.739040 0.034060
v -0.021868 0.889040 0.043198
v 0.014912 0.889040 0.021958
v -0.021868 0.739040 0.034060
v 0.007030 0.739040 0.017371
v 0.014912 0.889040 0.021958
v 0.007030 0.739040 -0.016267
v 0.014912 0.889040 -0.020854
v -0.021868 0.889040 -0.042090
v 0.007030 0.739040 -0.016267
v 0.007030 0.739040 0.017371
v 0.007030 0.739040 -0.016267
v 0.004404 0.589038 0.015843
v 0.007030 0.739040 0.017371
v 0.004404 0.589038 0.015843
v -0.021868 0.739040 0.034060
v -0.050770 0.739040 0.017371
v -0.021868 0.739040 0.034060
v -0.048140 0.589038 0.015843
v -0.050770 0.739040 0.017371
v -0.048140 0.589038 0.015843
v -0.050770 0.739040 -0.016267
v -0.048140 0.589039 -0.014739
v -0.021868 0.589038 -0.029909
v -0.050770 0.739040 -0.016267
v -0.058651 0.889040 -0.020854
v -0.050770 0.739040 -0.016267
v -0.021868 0.889040 -0.042090
v -0.058651 0.889040 -0.020854
v -0.058651 0.889040 0.021958
v -0.050770 0.739040 -0.016267
vn -0.5000 -0.0000 0.8660
vn -1.0000 -0.0000 -0.0000
vn -0.5000 -0.0000 -0.8660
vn 0.5000 -0.0000 -0.8660
vn 0.5000 -0.0000 0.8660
vn 1.0000 -0.0000 -0.0000
vn 0.5000 -0.0176 -0.8659
vn -0.4998 -0.0000 -0.8661
vn 0.4999 -0.0000 -0.8661
vn 0.4999 -0.0000 0.8661
vn -0.4998 -0.0000 0.8661
vn -0.0000 -1.0000 -0.0000
vn 0.4999 -0.0009 0.8661
vn 1.0000 -0.0010 -0.0000
vn 0.4998 -0.0008 -0.8661
vn 0.5000 -0.0006 -0.8660
vn -0.5000 -0.0006 -0.8660
vn 0.0018 0.0033 1.0000
vn -0.0000 -0.0000 1.0000
vn 0.0229 0.0066 0.9997
vn 0.0207 -0.0000 0.9998
vn 0.0232 -0.0000 -0.9997
vn 0.0257 0.0074 -0.9996
vn -0.0000 -0.0000 -1.0000
vn 0.0018 0.0033 -1.0000
vn -0.0018 0.0033 -1.0000
vn -0.0257 0.0074 -0.9996
vn -0.0232 -0.0000 -0.9997
vn -0.0207 -0.0000 0.9998
vn -0.0229 0.0066 0.9997
vn -0.0018 0.0033 1.0000
vn 0.9839 -0.1785 -0.0000
vn 0.5204 -0.8539 -0.0000
vn -0.2834 -0.9590 -0.0000
vn -0.4998 -0.0008 -0.8662
vn -1.0000 -0.0011 -0.0000
vn -0.4999 -0.0010 0.8661
vn 0.0002 1.0000 -0.0000
vn -0.0000 1.0000 0.0001
vn -0.0002 1.0000 -0.0000
vn -0.0000 1.0000 -0.0000
vn -0.7762 0.6304 -0.0000
vn -0.9839 -0.1785 -0.0000
vn -0.5204 -0.8539 -0.0000
vn -0.4971 -0.0000 -0.8677
vn 0.4971 -0.0000 -0.8677
vn -0.0001 -1.0000 -0.0000
vn 0.0001 -1.0000 -0.0000
vn 0.8000 0.6000 -0.0000
vn 0.2389 0.9711 -0.0000
vn -0.0684 -0.0000 0.9977
vn -0.0591 0.0088 0.9982
vn -0.0573 0.0085 -0.9983
vn -0.0663 -0.0000 -0.9978
vn 0.0663 -0.0000 -0.9978
vn 0.0573 0.0085 -0.9983
vn 0.0591 0.0088 0.9982
vn 0.0684 -0.0000 0.9977
vn -0.5001 -0.0000 -0.8660
vn -0.2389 0.9711 -0.0000
vn -0.8000 0.6000 -0.0000
vn 0.2834 -0.9590 -0.0000
vn -0.4971 -0.0000 0.8677
vn 0.4971 -0.0000 0.8677
vn 0.7762 0.6304 -0.0000
vn 0.7762 0.6305 -0.0000
vn -0.5002 -0.0007 0.8659
vn 0.5002 -0.0007 0.8659
vn 0.9969 -0.0788 -0.0000
vn 0.0736 0.9973 -0.0000
vn -0.3292 -0.9443 -0.0000
vn -0.9923 0.1237 -0.0000
vn 0.7052 -0.7090 -0.0000
vn 0.1388 -0.9903 -0.0000
vn -0.3038 0.9527 -0.0000
vn 0.3038 0.9527 -0.0000
vn -0.1388 -0.9903 -0.0000
vn -0.7052 -0.7090 -0.0000
vn 0.9923 0.1237 -0.0000
vn 0.3292 -0.9443 -0.0000
vn -0.0736 0.9973 -0.0000
vn -0.9969 -0.0788 -0.0000
vn 0.0005 0.0038 -1.0000
vn -0.0005 0.0038 1.0000
vn 0.0005 0.0038 1.0000
vn -0.0005 0.0038 -1.0000
vn 0.4993 -0.0527 -0.8648
vn -0.4994 -0.0527 0.8648
vn -0.5300 -0.0000 0.8480
vn -0.8682 -0.4961 -0.0000
vn -0.5300 -0.0000 -0.8480
vn -0.8682 0.4961 -0.0000
vn 0.8944 -0.0000 0.4472
vn 0.8944 -0.4472 -0.0000
vn 0.8944 -0.0000 -0.4472
vn 0.8944 0.4472 -0.0000
vn -0.8944 -0.0000 0.4472
vn -0.8944 -0.4472 -0.0000
vn -0.8944 -0.0000 -0.4472
vn -0.8944 0.4472 -0.0000
vn 0.3846 -0.9231 -0.0000
vn -0.1918 -0.2097 -0.9588
vn -0.0551 -0.1103 0.9924
vn -0.3511 0.9363 -0.0000
vn -0.6402 0.7682 -0.0000
vn -0.2747 -0.9615 -0.0000
vn -0.6247 -0.7809 -0.0000
vn 0.0830 -0.9965 -0.0000
vn -0.4472 -0.8944 -0.0000
vn -0.1471 -0.2101 0.9665
vn -0.2505 -0.2636 0.9315
vn -0.1918 -0.2097 0.9588
vn -0.3305 -0.2457 -0.9113
vn -0.1437 -0.2102 -0.9670
vn -0.0368 -0.1104 -0.9932
vn -0.6690 -0.0000 -0.7433
vn -0.6690 -0.0000 0.7433
vn 0.3146 0.7594 0.5695
vn 0.7594 0.3146 0.5695
vn 0.7594 -0.3145 0.5696
vn 0.3145 -0.7594 0.5696
vn -0.3144 -0.7594 0.5696
vn -0.7594 -0.3144 0.5696
vn -0.7594 0.3145 0.5696
vn -0.3145 0.7594 0.5696
vn 0.3146 0.7594 -0.5695
vn 0.7594 0.3146 -0.5695
vn 0.7594 -0.3145 -0.5696
vn 0.3144 -0.7594 -0.5696
vn -0.3144 -0.7594 -0.5696
vn -0.7594 -0.3144 -0.5696
vn -0.7594 0.3145 -0.5696
vn -0.3145 0.7594 -0.5696
vn -0.3306 -0.2457 0.9113
vn -0.1437 -0.2102 0.9670
vn -0.0368 -0.1104 0.9932
vn -0.0551 -0.1103 -0.9924
vn -0.1471 -0.2101 -0.9665
vn -0.2505 -0.2636 -0.9315
vn 0.9986 -0.0525 -0.0000
vn 0.5000 -0.0176 0.8659
vn -0.4999 -0.0176 -0.8659
vn 0.9998 -0.0175 -0.0000
vn -0.4993 -0.0527 -0.8648
vn -0.9998 -0.0175 -0.0000
vn -0.9986 -0.0525 -0.0000
vn 0.4999 -0.0176 -0.8659
vn 0.4994 -0.0527 0.8648
vn -0.5000 -0.0176 0.8659
vn 0.5000 -0.0176 0.8658
vn -0.5000 -0.0176 -0.8659
vn -0.0000 -0.7071 0.7071
vn -0.0000 0.7071 -0.7071
vn -0.0000 -0.7071 -0.7071
vn -0.0000 0.7071 0.7071
vn -0.5000 0.0176 0.8659
vn -0.4993 0.0527 0.8648
vn 0.4994 0.0527 -0.8648
vn -0.9986 0.0525 -0.0000
vn -0.5000 0.0176 -0.8659
vn 0.4999 0.0176 0.8659
vn -0.9998 0.0175 -0.0000
vn 0.4993 0.0527 0.8648
vn 0.9998 0.0175 -0.0000
vn 0.9986 0.0525 -0.0000
vn -0.4999 0.0176 0.8659
vn -0.4994 0.0527 -0.8648
vn 0.5000 0.0176 -0.8659
vn -0.5000 0.0176 -0.8658
vn 0.5000 0.0176 0.8659
vt 0.359131 0.271484
vt 0.389404 0.354980
vt 0.359131 0.354980
vt 0.328613 0.354980
vt 0.328613 0.271484
vt 0.298096 0.354980
vt 0.298096 0.271484
vt 0.389404 0.271484
vt 0.332031 0.995361
vt 0.167236 0.922119
vt 0.332031 0.922119
vt 0.394287 0.531738
vt 0.427734 0.007080
vt 0.394287 0.007080
vt 0.427734 0.531738
vt 0.461426 0.007080
vt 0.461426 0.531738
vt 0.495361 0.007080
vt 0.495361 0.531738
vt 0.635498 0.313721
vt 0.690918 0.492432
vt 0.690918 0.255371
vt 0.332031 0.848145
vt 0.497070 0.774902
vt 0.497070 0.848145
vt 0.497070 0.922119
vt 0.953613 0.162354
vt 0.953613 0.240234
vt 0.997314 0.162354
vt 0.953613 0.083740
vt 0.997314 0.083740
vt 0.953613 0.005615
vt 0.997314 0.005615
vt 0.997314 0.240234
vt 0.793457 0.845215
vt 0.753418 0.274902
vt 0.849365 0.774902
vt 0.831055 0.864014
vt 0.883545 0.821289
vt 0.854492 0.927002
vt 0.966797 0.843750
vt 0.969727 0.995605
vt 0.707031 0.809570
vt 0.663574 0.697266
vt 0.707031 0.697266
vt 0.747070 0.697266
vt 0.747070 0.809570
vt 0.777344 0.697266
vt 0.777344 0.809570
vt 0.635498 0.432861
vt 0.751221 0.433350
vt 0.695801 0.255371
vt 0.751221 0.314697
vt 0.632568 0.809570
vt 0.663574 0.809570
vt 0.627197 0.629395
vt 0.627197 0.808594
vt 0.503906 0.808594
vt 0.503906 0.629395
vt 0.695801 0.492432
vt 0.583496 0.906006
vt 0.583496 0.997559
vt 0.611084 0.997559
vt 0.611084 0.906006
vt 0.643555 0.997559
vt 0.643555 0.906006
vt 0.946289 0.006104
vt 0.946045 0.240723
vt 0.837891 0.259277
vt 0.817627 0.095703
vt 0.785889 0.076904
vt 0.743896 0.129639
vt 0.735352 0.222412
vt 0.632568 0.697266
vt 0.688721 0.822754
vt 0.688721 0.891602
vt 0.502441 0.891602
vt 0.502441 0.822754
vt 0.710938 0.822754
vt 0.771729 0.822754
vt 0.771729 0.891602
vt 0.710938 0.891602
vt 0.760742 0.906006
vt 0.760742 0.997559
vt 0.651123 0.997559
vt 0.651123 0.906006
vt 0.839600 0.906006
vt 0.839600 0.997559
vt 0.717773 0.822754
vt 0.717773 0.891602
vt 0.785889 0.822754
vt 0.785889 0.891602
vt 0.502441 0.906006
vt 0.502441 0.997559
vt 0.332031 0.774902
vt 0.002441 0.995361
vt 0.167236 0.995361
vt 0.002441 0.922119
vt 0.496094 0.660156
vt 0.208252 0.763428
vt 0.496094 0.763428
vt 0.458984 0.651855
vt 0.245361 0.548584
vt 0.245361 0.651855
vt 0.202881 0.766846
vt 0.202881 0.004150
vt 0.001709 0.766846
vt 0.458984 0.548584
vt 0.283203 0.573730
vt 0.496094 0.677002
vt 0.420898 0.573730
vt 0.446045 0.677002
vt 0.283203 0.548584
vt 0.420898 0.548584
vt 0.258301 0.677002
vt 0.295410 0.004150
vt 0.253174 0.536865
vt 0.295410 0.536865
vt 0.206543 0.536865
vt 0.249512 0.004150
vt 0.249512 0.536865
vt 0.206543 0.004150
vt 0.388672 0.004150
vt 0.345703 0.267090
vt 0.388672 0.267090
vt 0.299316 0.267090
vt 0.342285 0.004150
vt 0.342285 0.267090
vt 0.299316 0.004150
vt 0.678711 0.842773
vt 0.512451 0.842773
vt 0.704590 0.119141
vt 0.736572 0.074951
vt 0.704590 0.065918
vt 0.590576 0.003174
vt 0.635742 0.163330
vt 0.635742 0.021729
vt 0.651855 0.074951
vt 0.632568 0.114746
vt 0.651855 0.110352
vt 0.618164 0.174316
vt 0.635010 0.036621
vt 0.659668 0.166016
vt 0.713867 0.174316
vt 0.716309 0.100586
vt 0.730713 0.160156
vt 0.674316 0.052002
vt 0.613281 0.061523
vt 0.590576 0.141357
vt 0.613281 0.123535
vt 0.568115 0.003174
vt 0.568115 0.182129
vt 0.704590 0.110352
vt 0.689453 0.074951
vt 0.689453 0.110352
vt 0.690186 0.150391
vt 0.692627 0.054443
vt 0.665527 0.142090
vt 0.659668 0.021240
vt 0.635010 0.150635
vt 0.618164 0.012939
vt 0.665527 0.045166
vt 0.690186 0.036865
vt 0.692627 0.132812
vt 0.713867 0.012939
vt 0.716309 0.086914
vt 0.605225 0.012939
vt 0.605225 0.174316
vt 0.501221 0.003174
vt 0.590576 0.182129
vt 0.501221 0.182129
vt 0.388428 0.537354
vt 0.299072 0.358398
vt 0.388428 0.358398
vt 0.299072 0.537354
vt 0.362793 0.409912
vt 0.343750 0.394287
vt 0.343750 0.447754
vt 0.370605 0.447754
vt 0.362793 0.485840
vt 0.343750 0.501465
vt 0.324707 0.485840
vt 0.316895 0.447754
vt 0.324707 0.409912
vt 0.730713 0.027100
vt 0.002441 0.848145
vt 0.167236 0.774902
vt 0.497070 0.995361
vt 0.167236 0.848145
vt 0.002441 0.774902
vt 0.253174 0.004150
vt 0.345703 0.004150
vt 0.208252 0.677002
vt 0.208252 0.660156
vt 0.590576 0.043945
vt 0.632568 0.070557
vt 0.704590 0.074951
vt 0.674316 0.133057
vt 0.736572 0.110352
vt 0.001709 0.004150
vt 0.578369 0.839844
vt 0.578369 0.874268
vt 0.612793 0.839844
vt 0.554199 0.874268
vt 0.554199 0.839844
vt 0.677002 0.839844
vt 0.636963 0.839844
vt 0.677002 0.874268
vt 0.612793 0.874268
vt 0.636963 0.874268
vt 0.514160 0.839844
vt 0.717529 0.290527
vt 0.737305 0.290527
vt 0.724609 0.318359
vt 0.710693 0.346191
vt 0.696777 0.332275
vt 0.710693 0.401855
vt 0.717529 0.457275
vt 0.724609 0.429688
vt 0.696777 0.415771
vt 0.514160 0.874268
vt 0.750000 0.429688
vt 0.737305 0.457275
vt 0.750000 0.318359
s 1
usemtl Material.001
f 123/13/5 121/14/5 122/15/5
f 126/13/6 124/15/6 125/16/6
f 129/17/6 127/13/6 128/16/6
f 132/16/7 130/18/7 131/19/7
f 135/15/8 133/20/8 134/14/8
f 138/14/5 136/13/5 137/20/5
f 141/16/9 139/18/9 140/17/9
f 144/15/10 142/16/10 143/17/10
f 147/15/10 145/17/10 146/13/10
f 150/15/8 148/13/8 149/20/8
f 153/21/11 151/22/11 152/23/11
f 156/19/9 154/17/9 155/18/9
f 159/24/12 157/25/12 158/26/12
f 162/24/13 160/26/13 161/25/13
f 165/27/13 163/24/13 164/25/13
f 168/27/10 166/25/10 167/28/10
f 171/29/10 169/27/10 170/28/10
f 174/29/14 172/28/14 173/30/14
f 177/31/14 175/29/14 176/30/14
f 180/31/15 178/30/15 179/28/15
f 183/29/15 181/31/15 182/28/15
f 186/32/16 184/33/16 185/34/16
f 189/35/9 187/36/9 188/37/9
f 192/23/6 190/37/6 191/38/6
f 195/39/17 193/40/17 194/41/17
f 198/42/18 196/39/18 197/41/18
f 201/42/18 199/41/18 200/43/18
f 204/44/19 202/42/19 203/43/19
f 207/44/20 205/43/20 206/45/20
f 210/41/21 208/40/21 209/46/21
f 213/47/22 211/48/22 212/49/22
f 216/50/23 214/47/23 215/49/23
f 219/50/23 217/49/23 218/51/23
f 222/52/23 220/50/23 221/51/23
f 225/52/24 223/51/24 224/53/24
f 228/54/25 226/52/25 227/53/25
f 231/52/26 229/54/26 230/53/26
f 234/52/27 232/53/27 233/51/27
f 237/50/28 235/52/28 236/51/28
f 240/50/28 238/51/28 239/49/28
f 243/47/28 241/50/28 242/49/28
f 246/47/29 244/49/29 245/48/29
f 249/47/30 247/48/30 248/49/30
f 252/50/28 250/47/28 251/49/28
f 255/50/28 253/49/28 254/51/28
f 258/52/28 256/50/28 257/51/28
f 261/52/31 259/51/31 260/53/31
f 264/54/32 262/52/32 263/53/32
f 267/52/33 265/54/33 266/53/33
f 270/52/34 268/53/34 269/51/34
f 273/50/23 271/52/23 272/51/23
f 276/50/23 274/51/23 275/49/23
f 279/47/23 277/50/23 278/49/23
f 282/47/35 280/49/35 281/48/35
f 285/55/36 283/56/36 284/57/36
f 288/55/37 286/57/37 287/58/37
f 291/59/37 289/55/37 290/58/37
f 294/59/38 292/58/38 293/60/38
f 297/61/38 295/59/38 296/60/38
f 300/39/39 298/40/39 299/41/39
f 303/39/40 301/41/40 302/43/40
f 306/42/40 304/39/40 305/43/40
f 309/42/41 307/43/41 308/44/41
f 312/32/42 310/62/42 311/33/42
f 315/34/43 313/32/43 314/33/43
f 318/33/44 316/62/44 317/32/44
f 321/63/45 319/64/45 320/65/45
f 324/56/46 322/66/46 323/67/46
f 327/56/47 325/67/47 326/55/47
f 330/57/47 328/56/47 329/55/47
f 333/57/48 331/55/48 332/58/48
f 336/68/49 334/69/49 335/70/49
f 339/68/49 337/70/49 338/71/49
f 342/69/50 340/68/50 341/71/50
f 345/69/50 343/71/50 344/70/50
f 348/63/45 346/72/45 347/64/45
f 351/64/45 349/72/45 350/63/45
f 354/64/16 352/63/16 353/65/16
f 357/32/51 355/62/51 356/33/51
f 360/33/43 358/32/43 359/34/43
f 363/32/16 361/34/16 362/33/16
f 366/32/52 364/33/52 365/62/52
f 369/71/5 367/70/5 368/69/5
f 372/71/5 370/69/5 371/68/5
f 375/70/14 373/71/14 374/68/14
f 378/70/14 376/68/14 377/69/14
f 381/73/53 379/74/53 380/75/53
f 384/76/53 382/73/53 383/75/53
f 387/76/54 385/75/54 386/77/54
f 390/78/54 388/76/54 389/77/54
f 393/79/55 391/80/55 392/81/55
f 396/82/56 394/79/56 395/81/56
f 399/82/23 397/81/23 398/83/23
f 402/84/23 400/83/23 401/81/23
f 405/85/23 403/84/23 404/81/23
f 408/85/23 406/81/23 407/48/23
f 411/85/28 409/48/28 410/81/28
f 414/84/28 412/85/28 413/81/28
f 417/84/28 415/81/28 416/83/28
f 420/82/28 418/83/28 419/81/28
f 423/79/57 421/82/57 422/81/57
f 426/79/58 424/81/58 425/80/58
f 429/79/59 427/80/59 428/81/59
f 432/82/60 430/79/60 431/81/60
f 435/82/28 433/81/28 434/83/28
f 438/84/28 436/83/28 437/81/28
f 441/85/28 439/84/28 440/81/28
f 444/85/28 442/81/28 443/48/28
f 447/85/23 445/48/23 446/81/23
f 450/84/23 448/85/23 449/81/23
f 453/84/23 451/81/23 452/83/23
f 456/82/23 454/83/23 455/81/23
f 459/79/61 457/82/61 458/81/61
f 462/79/62 460/81/62 461/80/62
f 465/68/63 463/69/63 464/71/63
f 468/69/8 466/68/8 467/71/8
f 471/69/8 469/71/8 470/70/8
f 474/72/16 472/63/16 473/64/16
f 477/63/16 475/72/16 476/64/16
f 480/63/16 478/64/16 479/65/16
f 483/76/64 481/78/64 482/77/64
f 486/76/64 484/77/64 485/75/64
f 489/74/65 487/76/65 488/75/65
f 492/61/66 490/60/66 491/58/66
f 495/59/66 493/61/66 494/58/66
f 498/59/48 496/58/48 497/55/48
f 501/71/67 499/69/67 500/68/67
f 504/71/68 502/68/68 503/69/68
f 507/70/68 505/71/68 506/69/68
f 510/67/69 508/66/69 509/86/69
f 513/67/70 511/86/70 512/56/70
f 516/55/36 514/67/36 515/56/36
f 519/27/6 517/29/6 518/28/6
f 522/27/6 520/28/6 521/25/6
f 525/24/12 523/27/12 524/25/12
f 528/44/71 526/43/71 527/45/71
f 531/40/72 529/46/72 530/41/72
f 534/87/73 532/88/73 533/89/73
f 537/90/73 535/87/73 536/89/73
f 540/91/74 538/92/74 539/93/74
f 543/94/74 541/91/74 542/93/74
f 546/95/75 544/96/75 545/97/75
f 549/98/75 547/95/75 548/97/75
f 552/99/76 550/100/76 551/77/76
f 555/78/76 553/99/76 554/77/76
f 558/87/77 556/101/77 557/102/77
f 561/88/77 559/87/77 560/102/77
f 564/103/78 562/104/78 563/102/78
f 567/101/78 565/103/78 566/102/78
f 570/105/79 568/73/79 569/74/79
f 573/106/79 571/105/79 572/74/79
f 576/105/80 574/106/80 575/74/80
f 579/73/80 577/105/80 578/74/80
f 582/103/81 580/101/81 581/102/81
f 585/104/81 583/103/81 584/102/81
f 588/87/82 586/88/82 587/102/82
f 591/101/82 589/87/82 590/102/82
f 594/78/83 592/77/83 593/100/83
f 597/99/83 595/78/83 596/100/83
f 600/95/84 598/98/84 599/97/84
f 603/96/84 601/95/84 602/97/84
f 606/91/85 604/94/85 605/93/85
f 609/92/85 607/91/85 608/93/85
f 612/87/86 610/90/86 611/89/86
f 615/88/86 613/87/86 614/89/86
f 618/48/87 616/49/87 617/81/87
f 621/48/88 619/49/88 620/81/88
f 624/71/63 622/69/63 623/70/63
f 627/64/16 625/63/16 626/65/16
f 630/49/89 628/48/89 629/81/89
f 633/66/46 631/56/46 632/86/46
f 636/76/65 634/74/65 635/73/65
f 639/69/67 637/71/67 638/70/67
f 642/49/90 640/48/90 641/81/90
f 645/37/7 643/107/7 644/36/7
f 648/108/91 646/22/91 647/109/91
f 651/110/92 649/109/92 650/108/92
f 654/111/28 652/112/28 653/113/28
f 657/111/23 655/112/23 656/113/23
f 660/114/45 658/115/45 659/116/45
f 663/117/10 661/118/10 662/119/10
f 666/115/16 664/114/16 665/120/16
f 669/121/93 667/122/93 668/123/93
f 672/124/94 670/125/94 671/126/94
f 675/121/95 673/122/95 674/123/95
f 678/125/96 676/124/96 677/127/96
f 681/128/45 679/129/45 680/130/45
f 684/131/28 682/132/28 683/133/28
f 687/128/16 685/129/16 686/130/16
f 690/132/23 688/131/23 689/134/23
f 693/135/45 691/136/45 692/137/45
f 696/138/28 694/139/28 695/140/28
f 699/135/16 697/136/16 698/137/16
f 702/139/23 700/138/23 701/141/23
f 705/142/97 703/90/97 704/143/97
f 708/143/98 706/87/98 707/90/98
f 711/142/99 709/90/99 710/143/99
f 714/87/100 712/143/100 713/142/100
f 717/143/101 715/87/101 716/142/101
f 720/90/102 718/142/102 719/143/102
f 723/143/103 721/87/103 722/142/103
f 726/142/104 724/90/104 725/87/104
f 729/144/96 727/145/96 728/146/96
f 732/147/45 730/148/45 731/149/45
f 735/150/105 733/151/105 734/152/105
f 738/153/106 736/154/106 737/155/106
f 741/156/107 739/157/107 740/158/107
f 744/148/108 742/159/108 743/149/108
f 747/159/109 745/144/109 746/146/109
f 750/160/110 748/161/110 749/162/110
f 753/161/111 751/163/111 752/164/111
f 756/151/112 754/160/112 755/162/112
f 759/165/113 757/166/113 758/167/113
f 762/168/114 760/169/114 761/157/114
f 765/170/115 763/171/115 764/169/115
f 768/172/116 766/173/116 767/171/116
f 771/174/117 769/155/117 770/154/117
f 774/175/118 772/176/118 773/174/118
f 777/177/119 775/178/119 776/175/119
f 780/153/120 778/179/120 779/154/120
f 783/172/121 781/180/121 782/173/121
f 786/181/16 784/182/16 785/183/16
f 789/184/28 787/185/28 788/186/28
f 792/184/23 790/185/23 791/187/23
f 795/183/45 793/147/45 794/181/45
f 798/188/122 796/189/122 797/190/122
f 801/191/123 799/188/123 800/190/123
f 804/192/124 802/191/124 803/190/124
f 807/193/125 805/192/125 806/190/125
f 810/194/126 808/193/126 809/190/126
f 813/195/127 811/194/127 812/190/127
f 816/196/128 814/195/128 815/190/128
f 819/189/129 817/196/129 818/190/129
f 822/190/130 820/189/130 821/188/130
f 825/190/131 823/188/131 824/191/131
f 828/190/132 826/191/132 827/192/132
f 831/190/133 829/192/133 830/193/133
f 834/190/134 832/193/134 833/194/134
f 837/190/135 835/194/135 836/195/135
f 840/190/136 838/195/136 839/196/136
f 843/190/137 841/196/137 842/189/137
f 846/170/138 844/172/138 845/171/138
f 849/168/139 847/170/139 848/169/139
f 852/156/140 850/168/140 851/157/140
f 855/177/141 853/197/141 854/178/141
f 858/175/142 856/178/142 857/176/142
f 861/174/143 859/176/143 860/155/143
f 864/64/16 862/65/16 863/63/16
f 867/64/16 865/63/16 866/72/16
f 870/198/144 868/22/144 869/110/144
f 873/35/10 871/38/10 872/23/10
f 876/35/145 874/199/145 875/107/145
f 879/23/5 877/200/5 878/21/5
f 882/107/146 880/201/146 881/199/146
f 885/21/8 883/38/8 884/200/8
f 888/22/147 886/35/147 887/23/147
f 891/201/148 889/202/148 890/199/148
f 894/23/149 892/201/149 893/35/149
f 897/110/150 895/201/150 896/22/150
f 900/21/151 898/109/151 899/22/151
f 903/198/152 901/199/152 902/201/152
f 906/109/153 904/23/153 905/21/153
f 909/64/16 907/72/16 908/63/16
f 912/64/45 910/63/45 911/65/45
f 915/110/92 913/22/92 914/109/92
f 918/198/152 916/202/152 917/199/152
f 921/198/144 919/201/144 920/22/144
f 924/108/91 922/110/91 923/22/91
f 927/22/147 925/201/147 926/35/147
f 930/35/154 928/201/154 929/199/154
f 933/109/153 931/22/153 932/23/153
f 936/23/5 934/38/5 935/200/5
f 939/35/9 937/107/9 938/36/9
f 942/35/10 940/37/10 941/38/10
f 945/21/8 943/23/8 944/38/8
f 948/37/7 946/35/7 947/107/7
f 951/23/6 949/35/6 950/37/6
f 954/23/149 952/22/149 953/201/149
f 957/107/155 955/35/155 956/201/155
f 960/201/148 958/198/148 959/202/148
f 963/110/150 961/198/150 962/201/150
f 966/16/7 964/19/7 965/17/7
f 969/128/16 967/203/16 968/129/16
f 972/90/102 970/87/102 971/142/102
f 975/115/16 973/116/16 974/114/16
f 978/143/98 976/142/98 977/87/98
f 981/135/16 979/204/16 980/136/16
f 984/142/97 982/87/97 983/90/97
f 987/139/23 985/140/23 986/138/23
f 990/121/93 988/205/93 989/122/93
f 993/111/23 991/206/23 992/112/23
f 996/143/101 994/90/101 995/87/101
f 999/132/23 997/133/23 998/131/23
f 1002/128/45 1000/203/45 1001/129/45
f 1005/142/104 1003/143/104 1004/90/104
f 1008/114/45 1006/120/45 1007/115/45
f 1011/87/100 1009/90/100 1010/143/100
f 1014/135/45 1012/204/45 1013/136/45
f 1017/125/96 1015/126/96 1016/124/96
f 1020/121/95 1018/205/95 1019/122/95
f 1023/138/28 1021/141/28 1022/139/28
f 1026/142/99 1024/87/99 1025/90/99
f 1029/111/28 1027/206/28 1028/112/28
f 1032/143/103 1030/90/103 1031/87/103
f 1035/131/28 1033/134/28 1034/132/28
f 1038/124/94 1036/127/94 1037/125/94
f 1041/181/16 1039/147/16 1040/182/16
f 1044/161/111 1042/207/111 1043/163/111
f 1047/160/110 1045/207/110 1046/161/110
f 1050/151/112 1048/208/112 1049/160/112
f 1053/150/105 1051/208/105 1052/151/105
f 1056/165/113 1054/209/113 1055/166/113
f 1059/183/45 1057/182/45 1058/147/45
f 1062/147/45 1060/182/45 1061/148/45
f 1065/148/108 1063/210/108 1064/159/108
f 1068/159/109 1066/210/109 1067/144/109
f 1071/144/96 1069/211/96 1070/145/96
f 1074/184/23 1072/186/23 1073/185/23
f 1077/184/28 1075/187/28 1076/185/28
f 1080/119/10 1078/118/10 1079/212/10
f 1083/213/16 1081/214/16 1082/215/16
f 1086/216/156 1084/214/156 1085/217/156
f 1089/218/28 1087/219/28 1088/220/28
f 1092/215/45 1090/213/45 1091/221/45
f 1095/221/157 1093/222/157 1094/215/157
f 1098/217/23 1096/223/23 1097/216/23
f 1101/224/10 1099/225/10 1100/226/10
f 1104/224/6 1102/226/6 1103/225/6
f 1107/227/6 1105/228/6 1106/229/6
f 1110/230/6 1108/231/6 1109/232/6
f 1113/230/10 1111/232/10 1112/231/10
f 1116/232/10 1114/228/10 1115/229/10
f 1119/215/158 1117/221/158 1118/219/158
f 1122/233/23 1120/216/23 1121/223/23
f 1125/220/28 1123/218/28 1124/222/28
f 1128/214/159 1126/213/159 1127/216/159
f 1131/228/10 1129/224/10 1130/227/10
f 1134/234/10 1132/235/10 1133/231/10
f 1137/228/6 1135/227/6 1136/224/6
f 1140/230/6 1138/235/6 1139/231/6
f 1143/215/16 1141/214/16 1142/221/16
f 1146/217/156 1144/214/156 1145/213/156
f 1149/220/28 1147/219/28 1148/222/28
f 1152/221/45 1150/213/45 1151/214/45
f 1155/215/157 1153/222/157 1154/219/157
f 1158/216/23 1156/223/23 1157/233/23
f 1161/226/10 1159/225/10 1160/236/10
f 1164/225/6 1162/226/6 1163/236/6
f 1167/229/6 1165/228/6 1166/232/6
f 1170/232/6 1168/231/6 1169/229/6
f 1173/231/10 1171/232/10 1172/229/10
f 1176/229/10 1174/228/10 1175/227/10
f 1179/219/158 1177/221/158 1178/222/158
f 1182/223/23 1180/216/23 1181/217/23
f 1185/222/28 1183/218/28 1184/219/28
f 1188/216/159 1186/213/159 1187/217/159
f 1191/227/10 1189/224/10 1190/226/10
f 1194/231/10 1192/235/10 1193/230/10
f 1197/224/6 1195/227/6 1196/226/6
f 1200/231/6 1198/235/6 1199/234/6
f 1203/23/160 1201/22/160 1202/21/160
f 1206/109/161 1204/22/161 1205/108/161
f 1209/108/162 1207/109/162 1208/110/162
f 1212/110/163 1210/22/163 1211/198/163
f 1215/107/164 1213/199/164 1214/35/164
f 1218/199/165 1216/201/165 1217/107/165
f 1221/23/166 1219/35/166 1220/22/166
f 1224/199/167 1222/202/167 1223/201/167
f 1227/35/168 1225/201/168 1226/23/168
f 1230/22/169 1228/201/169 1229/110/169
f 1233/22/170 1231/109/170 1232/21/170
f 1236/201/171 1234/199/171 1235/198/171
f 1239/21/172 1237/23/172 1238/109/172
f 1242/109/162 1240/22/162 1241/110/162
f 1245/199/171 1243/202/171 1244/198/171
f 1248/22/163 1246/201/163 1247/198/163
f 1251/22/161 1249/110/161 1250/108/161
f 1254/35/166 1252/201/166 1253/22/166
f 1257/199/173 1255/201/173 1256/35/173
f 1260/23/172 1258/22/172 1259/109/172
f 1263/201/168 1261/22/168 1262/23/168
f 1266/201/174 1264/35/174 1265/107/174
f 1269/202/167 1267/198/167 1268/201/167
f 1272/201/169 1270/198/169 1271/110/169
