mtllib bondofflame.mtl
v -1.251167 -14.799414 -0.203152
v -3.036079 -19.117989 -0.203144
v -1.251167 -19.117973 2.224045
v -1.251167 -19.117973 2.224045
v -3.036079 -19.117989 -0.203144
v -1.251167 -23.130104 -0.203144
v -3.036079 -19.117989 -0.203144
v -1.251167 -19.117971 -2.630333
v -1.251167 -23.130104 -0.203144
v -1.251167 -19.117973 2.224045
v 0.534981 -19.117971 -0.203144
v -1.251167 -14.799414 -0.203152
v -1.251167 -14.799414 -0.203152
v 0.534981 -19.117971 -0.203144
v -1.251167 -19.117971 -2.630333
v 0.534981 -19.117971 -0.203144
v -1.251167 -23.130104 -0.203144
v -1.251167 -19.117971 -2.630333
v 0.534981 -19.117971 -0.203144
v -1.251167 -19.117973 2.224045
v -1.251167 -23.130104 -0.203144
v -3.036079 -19.117989 -0.203144
v -1.251167 -14.799414 -0.203152
v -1.251167 -19.117971 -2.630333
v -1.260445 -42.418640 -1.159653
v -1.260445 -42.418640 0.749489
v -1.249832 -44.327778 -1.159653
v -1.260445 -42.418640 0.749489
v -1.249832 -44.327778 0.749489
v -1.249832 -44.327778 -1.159653
v -1.254921 -36.529610 0.749458
v -1.244308 -38.438744 0.749458
v -1.254921 -36.529610 -1.159676
v -1.244308 -38.438744 0.749458
v -1.244308 -38.438744 -1.159676
v -1.254921 -36.529610 -1.159676
v -1.257950 -30.252838 -1.159676
v -1.257950 -30.252838 0.749458
v -1.247337 -32.161972 -1.159676
v -1.257950 -30.252838 0.749458
v -1.247337 -32.161972 0.749458
v -1.247337 -32.161972 -1.159676
v -1.249718 -48.680309 0.749500
v -1.239098 -50.589443 0.749500
v -1.249718 -48.680309 -1.159634
v -1.239098 -50.589443 0.749500
v -1.239098 -50.589443 -1.159634
v -1.249718 -48.680309 -1.159634
v -1.249825 -50.872982 0.118408
v -1.249825 -50.905205 -0.206688
v -1.249718 -49.996025 0.118416
v -1.249718 -49.996025 0.118416
v -1.249825 -50.905205 -0.206688
v -1.249718 -49.996025 -0.531784
v -1.249825 -50.905205 -0.206688
v -1.249825 -50.872982 -0.531784
v -1.249718 -49.996025 -0.531784
v -1.249817 -60.601402 5.687065
v -1.249817 -60.601398 -0.206688
v -1.249825 -50.905205 -0.206688
v -1.249817 -60.601398 -0.206688
v -1.249817 -60.601395 -6.100449
v -1.249825 -50.905205 -0.206688
v -1.249825 -50.905205 -0.206688
v -1.249817 -60.601395 -6.100449
v -1.249825 -50.321022 -6.100449
v -1.250015 -34.219360 1.317463
v -1.249146 -37.058945 -0.203178
v -1.250877 -31.379707 -0.203175
v -1.250877 -31.379707 -0.203175
v -1.249146 -37.058945 -0.203178
v -1.250015 -34.219360 -1.723415
v -1.250015 -40.243248 -1.723408
v -1.250877 -37.403595 -0.203175
v -1.249138 -43.082832 -0.203178
v -1.250877 -37.403595 -0.203175
v -1.250015 -40.243248 1.317463
v -1.249138 -43.082832 -0.203178
v -1.250008 -46.385162 -1.723408
v -1.250870 -43.545509 -0.203175
v -1.249138 -49.224747 -0.203178
v -1.250870 -43.545509 -0.203175
v -1.250008 -46.385162 1.317463
v -1.249138 -49.224747 -0.203178
v -1.260460 -20.894783 2.807758
v -1.249840 -30.981827 2.807755
v -1.260460 -20.894781 -3.222263
v -1.249840 -30.981827 2.807755
v -1.249840 -30.981827 -3.222267
v -1.260460 -20.894781 -3.222263
v -1.249817 -60.601402 5.687065
v -1.249825 -50.905205 -0.206688
v -1.249825 -50.321030 5.687073
v -1.249832 -44.327778 0.749489
v -1.260445 -42.418640 0.749489
v -1.249832 -44.327778 -1.159653
v -1.260445 -42.418640 0.749489
v -1.260445 -42.418640 -1.159653
v -1.249832 -44.327778 -1.159653
v -1.244308 -38.438744 -1.159676
v -1.244308 -38.438744 0.749458
v -1.254921 -36.529610 -1.159676
v -1.244308 -38.438744 0.749458
v -1.254921 -36.529610 0.749458
v -1.254921 -36.529610 -1.159676
v -1.247337 -32.161972 0.749458
v -1.257950 -30.252838 0.749458
v -1.247337 -32.161972 -1.159676
v -1.257950 -30.252838 0.749458
v -1.257950 -30.252838 -1.159676
v -1.247337 -32.161972 -1.159676
v -1.239098 -50.589443 0.749500
v -1.249718 -48.680309 0.749500
v -1.239098 -50.589443 -1.159634
v -1.249718 -48.680309 0.749500
v -1.249718 -48.680309 -1.159634
v -1.239098 -50.589443 -1.159634
v -1.249825 -50.872982 0.118408
v -1.249718 -49.996025 0.118416
v -1.249825 -50.905205 -0.206688
v -1.249718 -49.996025 0.118416
v -1.249718 -49.996025 -0.531784
v -1.249825 -50.905205 -0.206688
v -1.249825 -50.905205 -0.206688
v -1.249718 -49.996025 -0.531784
v -1.249825 -50.872982 -0.531784
v -1.249825 -50.321030 5.687073
v -1.249825 -50.905205 -0.206688
v -1.249817 -60.601402 5.687065
v -1.249817 -60.601402 5.687065
v -1.249825 -50.905205 -0.206688
v -1.249817 -60.601398 -0.206688
v -1.249825 -50.905205 -0.206688
v -1.249817 -60.601395 -6.100449
v -1.249817 -60.601398 -0.206688
v -1.250015 -34.219360 1.317463
v -1.250877 -31.379707 -0.203175
v -1.249146 -37.058945 -0.203178
v -1.249146 -37.058945 -0.203178
v -1.250877 -31.379707 -0.203175
v -1.250015 -34.219360 -1.723415
v -1.250015 -40.243248 -1.723408
v -1.249138 -43.082832 -0.203178
v -1.250877 -37.403595 -0.203175
v -1.249138 -43.082832 -0.203178
v -1.250015 -40.243248 1.317463
v -1.250877 -37.403595 -0.203175
v -1.250008 -46.385162 -1.723408
v -1.249138 -49.224747 -0.203178
v -1.250870 -43.545509 -0.203175
v -1.249138 -49.224747 -0.203178
v -1.250008 -46.385162 1.317463
v -1.250870 -43.545509 -0.203175
v -1.249840 -30.981827 -3.222267
v -1.249840 -30.981827 2.807755
v -1.260460 -20.894781 -3.222263
v -1.249840 -30.981827 2.807755
v -1.260460 -20.894783 2.807758
v -1.260460 -20.894781 -3.222263
v -1.249817 -60.601395 -6.100449
v -1.249825 -50.905205 -0.206688
v -1.249825 -50.321022 -6.100449
vt 0.604004 0.522462
vt 0.604004 0.382569
vt 0.650146 0.382569
vt 0.650146 0.382569
vt 0.604004 0.382569
vt 0.604004 0.252686
vt 0.604004 0.382569
vt 0.557861 0.382569
vt 0.604004 0.252686
vt 0.557861 0.382569
vt 0.604004 0.382569
vt 0.604004 0.522462
vt 0.604004 0.522462
vt 0.604004 0.382569
vt 0.650146 0.382569
vt 0.604004 0.382569
vt 0.604004 0.252686
vt 0.650146 0.382569
vt 0.604004 0.382569
vt 0.557861 0.382569
vt 0.604004 0.252686
vt 0.604004 0.382569
vt 0.604004 0.522462
vt 0.557861 0.382569
vt 0.005859 0.253175
vt 0.083984 0.253175
vt 0.005859 0.095948
vt 0.083984 0.253175
vt 0.083984 0.095948
vt 0.005859 0.095948
vt 0.083984 0.253175
vt 0.083984 0.095948
vt 0.005859 0.253175
vt 0.083984 0.095948
vt 0.005859 0.095948
vt 0.005859 0.253175
vt 0.005859 0.253175
vt 0.083984 0.253175
vt 0.005859 0.095948
vt 0.083984 0.253175
vt 0.083984 0.095948
vt 0.005859 0.095948
vt 0.083984 0.253175
vt 0.083984 0.095948
vt 0.005859 0.253175
vt 0.083984 0.095948
vt 0.005859 0.095948
vt 0.005859 0.253175
vt 0.106445 0.588136
vt 0.101318 0.587159
vt 0.106445 0.616456
vt 0.106445 0.616456
vt 0.101318 0.587159
vt 0.095947 0.616456
vt 0.101318 0.587159
vt 0.095947 0.588136
vt 0.095947 0.616456
vt 0.196533 0.272706
vt 0.101318 0.272706
vt 0.101318 0.586671
vt 0.101318 0.272706
vt 0.005859 0.272706
vt 0.101318 0.586671
vt 0.101318 0.586671
vt 0.005859 0.272706
vt 0.005859 0.605470
vt 0.183838 0.746583
vt 0.150635 0.621339
vt 0.150635 0.871583
vt 0.150635 0.871583
vt 0.150635 0.621339
vt 0.116943 0.746583
vt 0.116943 0.746583
vt 0.150635 0.871583
vt 0.150635 0.621339
vt 0.150635 0.871583
vt 0.183838 0.746583
vt 0.150635 0.621339
vt 0.116943 0.746583
vt 0.150635 0.871583
vt 0.150635 0.621339
vt 0.150635 0.871583
vt 0.183838 0.746583
vt 0.150635 0.621339
vt 0.099854 0.987794
vt 0.099854 0.671143
vt 0.005127 0.987794
vt 0.099854 0.671143
vt 0.005127 0.671143
vt 0.005127 0.987794
vt 0.196533 0.272706
vt 0.101318 0.586671
vt 0.196533 0.605470
vt 0.083984 0.095948
vt 0.083984 0.253175
vt 0.005859 0.095948
vt 0.083984 0.253175
vt 0.005859 0.253175
vt 0.005859 0.095948
vt 0.005859 0.095948
vt 0.083984 0.095948
vt 0.005859 0.253175
vt 0.083984 0.095948
vt 0.083984 0.253175
vt 0.005859 0.253175
vt 0.083984 0.095948
vt 0.083984 0.253175
vt 0.005859 0.095948
vt 0.083984 0.253175
vt 0.005859 0.253175
vt 0.005859 0.095948
vt 0.083984 0.095948
vt 0.083984 0.253175
vt 0.005859 0.095948
vt 0.083984 0.253175
vt 0.005859 0.253175
vt 0.005859 0.095948
vt 0.106445 0.588136
vt 0.106445 0.616456
vt 0.101318 0.587159
vt 0.106445 0.616456
vt 0.095947 0.616456
vt 0.101318 0.587159
vt 0.101318 0.587159
vt 0.095947 0.616456
vt 0.095947 0.588136
vt 0.196533 0.605470
vt 0.101318 0.586671
vt 0.196533 0.272706
vt 0.196533 0.272706
vt 0.101318 0.586671
vt 0.101318 0.272706
vt 0.101318 0.586671
vt 0.005859 0.272706
vt 0.101318 0.272706
vt 0.183838 0.746583
vt 0.150635 0.871583
vt 0.150635 0.621339
vt 0.150635 0.621339
vt 0.150635 0.871583
vt 0.116943 0.746583
vt 0.116943 0.746583
vt 0.150635 0.621339
vt 0.150635 0.871583
vt 0.150635 0.621339
vt 0.183838 0.746583
vt 0.150635 0.871583
vt 0.116943 0.746583
vt 0.150635 0.621339
vt 0.150635 0.871583
vt 0.150635 0.621339
vt 0.183838 0.746583
vt 0.150635 0.871583
vt 0.005127 0.671143
vt 0.099854 0.671143
vt 0.005127 0.987794
vt 0.099854 0.671143
vt 0.099854 0.987794
vt 0.005127 0.987794
vt 0.005859 0.272706
vt 0.101318 0.586671
vt 0.005859 0.605470
vn -0.7644 0.3159 0.5621
vn -0.7584 -0.3374 0.5577
vn -0.7584 -0.3374 -0.5577
vn 0.7641 0.3160 0.5623
vn 0.7641 0.3160 -0.5623
vn 0.7582 -0.3375 -0.5579
vn 0.7582 -0.3375 0.5579
vn -0.7644 0.3159 -0.5621
vn 1.0000 0.0056 0.0000
vn 1.0000 -0.0001 0.0000
vn 1.0000 0.0000 0.0000
vn 1.0000 0.0003 0.0000
vn 1.0000 0.0011 0.0000
vn -1.0000 -0.0056 0.0000
vn -1.0000 0.0001 -0.0000
vn -1.0000 -0.0000 0.0000
vn -1.0000 -0.0003 -0.0000
vn -1.0000 -0.0011 0.0000
o keychain
usemtl Brush.004
f 1/1/1 2/2/1 3/3/1
f 4/4/2 5/5/2 6/6/2
f 7/7/3 8/8/3 9/9/3
f 10/10/4 11/11/4 12/12/4
f 13/13/5 14/14/5 15/15/5
f 16/16/6 17/17/6 18/18/6
f 19/19/7 20/20/7 21/21/7
f 22/22/8 23/23/8 24/24/8
f 25/25/9 26/26/9 27/27/9
f 28/28/9 29/29/9 30/30/9
f 31/31/9 32/32/9 33/33/9
f 34/34/9 35/35/9 36/36/9
f 37/37/9 38/38/9 39/39/9
f 40/40/9 41/41/9 42/42/9
f 43/43/9 44/44/9 45/45/9
f 46/46/9 47/47/9 48/48/9
f 49/49/10 50/50/10 51/51/10
f 52/52/10 53/53/10 54/54/10
f 55/55/10 56/56/10 57/57/10
f 58/58/11 59/59/11 60/60/11
f 61/61/11 62/62/11 63/63/11
f 64/64/11 65/65/11 66/66/11
f 67/67/12 68/68/12 69/69/12
f 70/70/12 71/71/12 72/72/12
f 73/73/12 74/74/12 75/75/12
f 76/76/12 77/77/12 78/78/12
f 79/79/12 80/80/12 81/81/12
f 82/82/12 83/83/12 84/84/12
f 85/85/13 86/86/13 87/87/13
f 88/88/13 89/89/13 90/90/13
f 91/91/11 92/92/11 93/93/11
f 94/94/14 95/95/14 96/96/14
f 97/97/14 98/98/14 99/99/14
f 100/100/14 101/101/14 102/102/14
f 103/103/14 104/104/14 105/105/14
f 106/106/14 107/107/14 108/108/14
f 109/109/14 110/110/14 111/111/14
f 112/112/14 113/113/14 114/114/14
f 115/115/14 116/116/14 117/117/14
f 118/118/15 119/119/15 120/120/15
f 121/121/15 122/122/15 123/123/15
f 124/124/15 125/125/15 126/126/15
f 127/127/16 128/128/16 129/129/16
f 130/130/16 131/131/16 132/132/16
f 133/133/16 134/134/16 135/135/16
f 136/136/17 137/137/17 138/138/17
f 139/139/17 140/140/17 141/141/17
f 142/142/17 143/143/17 144/144/17
f 145/145/17 146/146/17 147/147/17
f 148/148/17 149/149/17 150/150/17
f 151/151/17 152/152/17 153/153/17
f 154/154/18 155/155/18 156/156/18
f 157/157/18 158/158/18 159/159/18
f 160/160/16 161/161/16 162/162/16
