mtllib bondoftheblaze.mtl
v 1.116980 -28.449402 -0.000004
v -1.116980 -28.449402 -0.000004
v -1.116980 -24.964100 -0.000003
v -1.116980 -24.964100 -0.000003
v 1.116980 -24.964100 -0.000003
v 1.116980 -28.449402 -0.000004
v 1.116980 -33.756500 -0.000004
v -1.116980 -33.756500 -0.000003
v -1.116980 -30.454401 -0.000004
v -1.116980 -30.454401 -0.000004
v 1.116980 -30.454401 -0.000004
v 1.116980 -33.756500 -0.000004
v -1.116980 -39.323101 -0.000005
v 1.116980 -39.323101 -0.000005
v -1.116980 -36.024002 -0.000005
v -1.116980 -36.024002 -0.000005
v 1.116980 -36.024002 -0.000005
v 1.116980 -39.323101 -0.000005
v 1.116980 -44.892700 -0.000006
v -1.116980 -44.892700 -0.000006
v -1.116980 -41.590603 -0.000006
v -1.116980 -41.590603 -0.000006
v 1.116980 -41.590603 -0.000006
v 1.116980 -44.892700 -0.000006
v 0.000000 -41.407497 -0.000006
v 0.000000 -59.755199 -0.000008
v 0.000000 -50.581402 9.173853
v 0.000000 -41.407497 -0.000006
v 0.000000 -50.581402 -9.173867
v 0.000000 -59.755199 -0.000008
v 0.000000 -29.319099 -3.808714
v 0.000000 -32.105499 -0.000004
v 0.000000 -26.535801 -0.000003
v 0.000000 -32.105499 -0.000004
v 0.000000 -29.319099 3.808706
v 0.000000 -26.535801 -0.000003
v 0.000000 -37.672001 -0.000005
v 0.000000 -34.888802 3.808706
v 0.000000 -32.105499 -0.000004
v 0.000000 -32.105499 -0.000004
v 0.000000 -34.888802 -3.808715
v 0.000000 -37.672001 -0.000005
v 0.000000 -43.241699 -0.000006
v 0.000000 -40.458401 3.808704
v 0.000000 -37.672001 -0.000005
v 0.000000 -37.672001 -0.000005
v 0.000000 -40.458401 -3.808716
v 0.000000 -43.241699 -0.000006
v 1.116980 -28.449402 -0.000004
v -1.116980 -24.964100 -0.000003
v -1.116980 -28.449402 -0.000004
v -1.116980 -24.964100 -0.000003
v 1.116980 -28.449402 -0.000004
v 1.116980 -24.964100 -0.000003
v 1.116980 -33.756500 -0.000004
v -1.116980 -30.454401 -0.000004
v -1.116980 -33.756500 -0.000003
v -1.116980 -30.454401 -0.000004
v 1.116980 -33.756500 -0.000004
v 1.116980 -30.454401 -0.000004
v -1.116980 -39.323101 -0.000005
v -1.116980 -36.024002 -0.000005
v 1.116980 -39.323101 -0.000005
v -1.116980 -36.024002 -0.000005
v 1.116980 -39.323101 -0.000005
v 1.116980 -36.024002 -0.000005
v 1.116980 -44.892700 -0.000006
v -1.116980 -41.590603 -0.000006
v -1.116980 -44.892700 -0.000006
v -1.116980 -41.590603 -0.000006
v 1.116980 -44.892700 -0.000006
v 1.116980 -41.590603 -0.000006
v 0.000000 -41.407497 -0.000006
v 0.000000 -50.581402 9.173853
v 0.000000 -59.755199 -0.000008
v 0.000000 -41.407497 -0.000006
v 0.000000 -59.755199 -0.000008
v 0.000000 -50.581402 -9.173867
v 0.000000 -29.319099 -3.808714
v 0.000000 -26.535801 -0.000003
v 0.000000 -32.105499 -0.000004
v 0.000000 -32.105499 -0.000004
v 0.000000 -26.535801 -0.000003
v 0.000000 -29.319099 3.808706
v 0.000000 -37.672001 -0.000005
v 0.000000 -32.105499 -0.000004
v 0.000000 -34.888802 3.808706
v 0.000000 -32.105499 -0.000004
v 0.000000 -37.672001 -0.000005
v 0.000000 -34.888802 -3.808715
v 0.000000 -43.241699 -0.000006
v 0.000000 -37.672001 -0.000005
v 0.000000 -40.458401 3.808704
v 0.000000 -37.672001 -0.000005
v 0.000000 -43.241699 -0.000006
v 0.000000 -40.458401 -3.808716
vt 0.126465 0.627441
vt 0.017578 0.627441
vt 0.017578 0.305176
vt 0.126465 0.305176
vt 0.977539 0.022949
vt 0.011231 0.022949
vt 0.494629 0.968262
vt 0.204102 0.471680
vt 0.389160 0.970215
vt 0.018555 0.970215
vn -0.0000 -0.0000 -1.0000
vn -0.0000 -0.0000 1.0000
vn -1.0000 -0.0000 -0.0000
vn 1.0000 -0.0000 -0.0000
o keychain
usemtl Brush.054
f 1/1/1 2/2/1 3/3/1
f 4/3/1 5/4/1 6/1/1
f 7/1/1 8/2/1 9/3/1
f 10/3/1 11/4/1 12/1/1
f 13/2/2 14/1/2 15/3/2
f 16/3/1 17/4/1 18/1/1
f 19/1/1 20/2/1 21/3/1
f 22/3/1 23/4/1 24/1/1
f 25/5/3 26/6/3 27/7/3
f 28/5/3 29/7/3 30/6/3
f 31/8/3 32/9/3 33/10/3
f 34/9/3 35/8/3 36/10/3
f 37/9/3 38/8/3 39/10/3
f 40/10/3 41/8/3 42/9/3
f 43/9/3 44/8/3 45/10/3
f 46/10/3 47/8/3 48/9/3
f 49/1/2 50/3/2 51/2/2
f 52/3/2 53/1/2 54/4/2
f 55/1/2 56/3/2 57/2/2
f 58/3/2 59/1/2 60/4/2
f 61/2/1 62/3/1 63/1/1
f 64/3/2 65/1/2 66/4/2
f 67/1/2 68/3/2 69/2/2
f 70/3/2 71/1/2 72/4/2
f 73/5/4 74/7/4 75/6/4
f 76/5/4 77/6/4 78/7/4
f 79/8/4 80/10/4 81/9/4
f 82/9/4 83/10/4 84/8/4
f 85/9/4 86/10/4 87/8/4
f 88/10/4 89/9/4 90/8/4
f 91/9/4 92/10/4 93/8/4
f 94/10/4 95/9/4 96/8/4
