mtllib combinedkeyblade.mtl
v 0.000000 -11.887000 -0.741602
v 0.000000 -10.522799 0.741599
v 0.000000 -10.522799 -0.741602
v 0.491348 -23.841099 -0.000003
v -0.491348 -23.841099 -0.000003
v 0.491348 -22.840101 -0.000003
v 0.000000 -11.887000 -0.741602
v 0.000000 -11.887000 0.741599
v 0.000000 -10.522799 0.741599
v -0.491348 -22.840101 -0.000003
v 0.491348 -22.840101 -0.000003
v -0.491348 -23.841099 -0.000003
v 0.000000 -25.104500 -2.227853
v 0.000000 -27.414799 -1.065103
v 0.000000 -23.249001 -0.000003
v 0.000000 -16.962200 -0.393692
v 0.000000 -18.793301 -0.393692
v 0.000000 -16.962200 0.393686
v 0.000000 -18.793301 -0.393692
v 0.000000 -18.793301 0.393686
v 0.000000 -16.962200 0.393686
v 0.000000 -18.793301 -0.393692
v 0.000000 -20.624401 -0.393691
v 0.000000 -18.793301 0.393686
v 0.000000 -20.624401 -0.393691
v 0.000000 -20.624401 0.393687
v 0.000000 -18.793301 0.393686
v 0.000000 -22.455500 -0.393692
v 0.000000 -22.455500 0.393686
v 0.000000 -20.624401 0.393687
v 0.000000 -22.455500 -0.393692
v 0.000000 -23.188000 -0.000003
v 0.000000 -22.455500 0.393686
v 0.000000 -22.455500 -0.393692
v 0.000000 -20.624401 0.393687
v 0.000000 -20.624401 -0.393691
v 0.000000 -16.962200 0.393686
v 0.000000 -15.131100 0.393687
v 0.000000 -16.962200 -0.393692
v 0.000000 -13.098500 0.393687
v 0.000000 -11.887000 0.741599
v 0.000000 -13.098500 -0.393691
v 0.000000 -11.887000 0.741599
v 0.000000 -11.887000 -0.741602
v 0.000000 -13.098500 -0.393691
v 0.000000 -16.962200 -0.393692
v 0.000000 -15.131100 0.393687
v 0.000000 -15.131100 -0.393691
v 0.000000 -15.131100 -0.393691
v 0.000000 -15.131100 0.393687
v 0.000000 -13.098500 0.393687
v 0.000000 -15.131100 -0.393691
v 0.000000 -13.098500 0.393687
v 0.000000 -13.098500 -0.393691
v 0.000000 -23.249001 -0.000003
v 0.000000 -27.124899 -0.000003
v 0.000000 -27.414799 1.065097
v 0.000000 -27.414799 -1.065103
v 0.000000 -27.124899 -0.000003
v 0.000000 -23.249001 -0.000003
v 0.000000 -23.249001 -0.000003
v 0.000000 -27.414799 1.065097
v 0.000000 -25.104500 2.227847
v 0.000000 -11.887000 -0.741602
v 0.000000 -10.522799 -0.741602
v 0.000000 -10.522799 0.741599
v 0.491348 -23.841099 -0.000003
v 0.491348 -22.840101 -0.000003
v -0.491348 -23.841099 -0.000003
v 0.000000 -11.887000 -0.741602
v 0.000000 -10.522799 0.741599
v 0.000000 -11.887000 0.741599
v -0.491348 -22.840101 -0.000003
v -0.491348 -23.841099 -0.000003
v 0.491348 -22.840101 -0.000003
v 0.000000 -25.104500 -2.227853
v 0.000000 -23.249001 -0.000003
v 0.000000 -27.414799 -1.065103
v 0.000000 -16.962200 -0.393692
v 0.000000 -16.962200 0.393686
v 0.000000 -18.793301 -0.393692
v 0.000000 -18.793301 -0.393692
v 0.000000 -16.962200 0.393686
v 0.000000 -18.793301 0.393686
v 0.000000 -18.793301 -0.393692
v 0.000000 -18.793301 0.393686
v 0.000000 -20.624401 -0.393691
v 0.000000 -20.624401 -0.393691
v 0.000000 -18.793301 0.393686
v 0.000000 -20.624401 0.393687
v 0.000000 -22.455500 -0.393692
v 0.000000 -20.624401 0.393687
v 0.000000 -22.455500 0.393686
v 0.000000 -22.455500 -0.393692
v 0.000000 -22.455500 0.393686
v 0.000000 -23.188000 -0.000003
v 0.000000 -22.455500 -0.393692
v 0.000000 -20.624401 -0.393691
v 0.000000 -20.624401 0.393687
v 0.000000 -16.962200 0.393686
v 0.000000 -16.962200 -0.393692
v 0.000000 -15.131100 0.393687
v 0.000000 -13.098500 0.393687
v 0.000000 -13.098500 -0.393691
v 0.000000 -11.887000 0.741599
v 0.000000 -11.887000 0.741599
v 0.000000 -13.098500 -0.393691
v 0.000000 -11.887000 -0.741602
v 0.000000 -16.962200 -0.393692
v 0.000000 -15.131100 -0.393691
v 0.000000 -15.131100 0.393687
v 0.000000 -15.131100 -0.393691
v 0.000000 -13.098500 0.393687
v 0.000000 -15.131100 0.393687
v 0.000000 -15.131100 -0.393691
v 0.000000 -13.098500 -0.393691
v 0.000000 -13.098500 0.393687
v 0.000000 -23.249001 -0.000003
v 0.000000 -27.414799 1.065097
v 0.000000 -27.124899 -0.000003
v 0.000000 -27.414799 -1.065103
v 0.000000 -23.249001 -0.000003
v 0.000000 -27.124899 -0.000003
v 0.000000 -23.249001 -0.000003
v 0.000000 -25.104500 2.227847
v 0.000000 -27.414799 1.065097
vt 0.859863 0.013199
vt 0.976562 0.267594
vt 0.976562 0.013199
vt 0.914551 0.343277
vt 0.750000 0.343277
vt 0.914551 0.703629
vt 0.859863 0.267594
vt 0.750000 0.703629
vt 0.014160 0.442886
vt 0.143066 0.956070
vt 0.267578 0.045426
vt 0.989258 0.837418
vt 0.832520 0.837418
vt 0.989258 0.972672
vt 0.832520 0.972672
vt 0.675781 0.837418
vt 0.675781 0.972672
vt 0.519043 0.837418
vt 0.519043 0.972672
vt 0.456543 0.905289
vt 0.425293 0.208023
vt 0.582031 0.208023
vt 0.425293 0.072769
vt 0.756348 0.208023
vt 0.756348 0.072769
vt 0.582031 0.072769
vt 0.261719 0.892105
vt 0.379883 0.956070
vt 0.508789 0.442886
vn -1.0000 -0.0000 -0.0000
vn -0.0000 -0.0000 -1.0000
vn 1.0000 -0.0000 -0.0000
vn -0.0000 -0.0000 1.0000
o keychain
usemtl Brush.067
f 1/1/1 2/2/1 3/3/1
f 4/4/2 5/5/2 6/6/2
f 7/1/1 8/7/1 9/2/1
f 10/8/2 11/6/2 12/5/2
f 13/9/1 14/10/1 15/11/1
f 16/12/1 17/13/1 18/14/1
f 19/13/1 20/15/1 21/14/1
f 22/13/1 23/16/1 24/15/1
f 25/16/1 26/17/1 27/15/1
f 28/18/1 29/19/1 30/17/1
f 31/18/1 32/20/1 33/19/1
f 34/18/1 35/17/1 36/16/1
f 37/21/1 38/22/1 39/23/1
f 40/24/1 41/7/1 42/25/1
f 43/7/1 44/1/1 45/25/1
f 46/23/1 47/22/1 48/26/1
f 49/26/1 50/22/1 51/24/1
f 52/26/1 53/24/1 54/25/1
f 55/11/1 56/27/1 57/28/1
f 58/10/1 59/27/1 60/11/1
f 61/11/1 62/28/1 63/29/1
f 64/1/3 65/3/3 66/2/3
f 67/4/4 68/6/4 69/5/4
f 70/1/3 71/2/3 72/7/3
f 73/8/4 74/5/4 75/6/4
f 76/9/3 77/11/3 78/10/3
f 79/12/3 80/14/3 81/13/3
f 82/13/3 83/14/3 84/15/3
f 85/13/3 86/15/3 87/16/3
f 88/16/3 89/15/3 90/17/3
f 91/18/3 92/17/3 93/19/3
f 94/18/3 95/19/3 96/20/3
f 97/18/3 98/16/3 99/17/3
f 100/21/3 101/23/3 102/22/3
f 103/24/3 104/25/3 105/7/3
f 106/7/3 107/25/3 108/1/3
f 109/23/3 110/26/3 111/22/3
f 112/26/3 113/24/3 114/22/3
f 115/26/3 116/25/3 117/24/3
f 118/11/3 119/28/3 120/27/3
f 121/10/3 122/11/3 123/27/3
f 124/11/3 125/29/3 126/28/3
