mtllib destinysembrace.mtl
v 0.041483 -52.426636 -1.846615
v 0.041483 -55.849686 -2.958836
v 0.041482 -53.077984 -5.634315
v 0.041482 -53.077984 -5.634315
v 0.041483 -55.849686 -2.958836
v 0.041483 -52.426636 -1.846615
v 0.041483 -55.849686 -2.958836
v 0.041483 -52.426636 1.752609
v 0.041483 -52.426636 -1.846615
v 0.041483 -52.426636 -1.846615
v 0.041483 -52.426636 1.752609
v 0.041483 -55.849686 -2.958836
v 0.041483 -52.426636 1.752609
v 0.041483 -55.849686 -2.958836
v 0.041483 -55.849686 2.864830
v 0.041483 -55.849686 -2.958836
v 0.041483 -55.849686 2.864830
v 0.041483 -58.257065 -0.047009
v 0.041483 -55.849686 2.864830
v 0.041483 -55.849686 -2.958836
v 0.041483 -58.257065 -0.047009
v 0.041483 -58.257065 -0.047009
v 0.041483 -55.849686 -2.958836
v 0.041475 -59.646252 -3.500153
v 0.041483 -55.849686 -2.958836
v 0.041483 -58.257065 -0.047009
v 0.041475 -59.646252 -3.500153
v 0.041483 -59.646252 3.406143
v 0.041483 -58.257065 -0.047009
v 0.041483 -55.849686 2.864830
v 0.041483 -55.849686 2.864830
v 0.041483 -58.257065 -0.047009
v 0.041483 -59.646252 3.406143
v 0.041483 -55.849686 2.864830
v 0.041483 -53.077984 5.540306
v 0.041483 -52.426636 1.752609
v 0.041483 -52.426636 1.752609
v 0.041483 -53.077984 5.540306
v 0.041483 -55.849686 2.864830
v 0.041483 -55.849686 -2.958836
v 0.041483 -52.426636 1.752609
v 0.041483 -55.849686 2.864830
v 0.041498 -16.344168 1.732323
v 0.041498 -16.344170 -1.826324
v 0.041498 -21.666513 -1.826328
v 0.041498 -16.344170 -1.826324
v 0.041498 -16.344168 1.732323
v 0.041498 -21.666513 -1.826328
v 0.041498 -21.666513 -1.826328
v 0.041498 -16.344168 1.732323
v 0.041498 -21.666515 1.732319
v 0.041498 -16.344168 1.732323
v 0.041498 -21.666513 -1.826328
v 0.041498 -21.666515 1.732319
v 0.041498 -21.666515 1.732319
v 0.041498 -21.666513 -1.826328
v 0.041490 -27.637287 -1.312374
v 0.041498 -21.666513 -1.826328
v 0.041498 -21.666515 1.732319
v 0.041490 -27.637287 -1.312374
v 0.041490 -27.637287 -1.312374
v 0.041498 -21.666515 1.732319
v 0.041491 -27.637287 1.218365
v 0.041498 -21.666515 1.732319
v 0.041490 -27.637287 -1.312374
v 0.041491 -27.637287 1.218365
v 0.041491 -27.637287 1.218365
v 0.041490 -27.637287 -1.312374
v 0.041490 -30.591103 -1.312374
v 0.041490 -27.637287 -1.312374
v 0.041491 -27.637287 1.218365
v 0.041490 -30.591103 -1.312374
v 0.041490 -30.591103 -1.312374
v 0.041491 -27.637287 1.218365
v 0.041491 -30.591103 1.218365
v 0.041491 -27.637287 1.218365
v 0.041490 -30.591103 -1.312374
v 0.041491 -30.591103 1.218365
v 0.041491 -30.591103 1.218365
v 0.041490 -30.591103 -1.312374
v 0.041490 -33.498638 -1.312374
v 0.041490 -30.591103 -1.312374
v 0.041491 -30.591103 1.218365
v 0.041490 -33.498638 -1.312374
v 0.041490 -33.498638 -1.312374
v 0.041491 -33.498638 1.218365
v 0.041491 -30.591103 1.218365
v 0.041491 -30.591103 1.218365
v 0.041491 -33.498638 1.218365
v 0.041490 -33.498638 -1.312374
v 0.041491 -33.498638 1.218365
v 0.041490 -36.614986 -1.312374
v 0.041490 -33.498638 -1.312374
v 0.041490 -33.498638 -1.312374
v 0.041490 -36.614986 -1.312374
v 0.041491 -33.498638 1.218365
v 0.041490 -36.614986 -1.312374
v 0.041491 -36.614986 1.218365
v 0.041491 -33.498638 1.218365
v 0.041491 -33.498638 1.218365
v 0.041491 -36.614986 1.218365
v 0.041490 -36.614986 -1.312374
v 0.041491 -36.614986 1.218365
v 0.041490 -39.594280 -1.312374
v 0.041490 -36.614986 -1.312374
v 0.041490 -36.614986 -1.312374
v 0.041490 -39.594280 -1.312374
v 0.041491 -36.614986 1.218365
v 0.041490 -39.594280 -1.312374
v 0.041491 -39.594280 1.218365
v 0.041491 -36.614986 1.218365
v 0.041491 -36.614986 1.218365
v 0.041491 -39.594280 1.218365
v 0.041490 -39.594280 -1.312374
v 0.041491 -39.594280 1.218365
v 0.041483 -42.756905 -1.312374
v 0.041490 -39.594280 -1.312374
v 0.041490 -39.594280 -1.312374
v 0.041483 -42.756905 -1.312374
v 0.041491 -39.594280 1.218365
v 0.041483 -42.756905 -1.312374
v 0.041483 -42.756905 1.218365
v 0.041491 -39.594280 1.218365
v 0.041491 -39.594280 1.218365
v 0.041483 -42.756905 1.218365
v 0.041483 -42.756905 -1.312374
v 0.041483 -42.756905 1.218365
v 0.041483 -45.756607 -1.312374
v 0.041483 -42.756905 -1.312374
v 0.041483 -42.756905 -1.312374
v 0.041483 -45.756607 -1.312374
v 0.041483 -42.756905 1.218365
v 0.041483 -45.756607 -1.312374
v 0.041483 -42.756905 1.218365
v 0.041483 -45.756607 1.218365
v 0.041483 -42.756905 1.218365
v 0.041483 -45.756607 -1.312374
v 0.041483 -45.756607 1.218365
v 0.041483 -49.018570 1.218365
v 0.041483 -49.018570 -0.047005
v 0.041483 -51.669086 1.352589
v 0.041483 -51.669086 1.352589
v 0.041483 -49.018570 -0.047005
v 0.041483 -49.018570 1.218365
v 0.041483 -49.018570 -0.047005
v 0.041483 -49.018570 1.218365
v 0.041483 -45.756607 1.218365
v 0.041483 -49.018570 1.218365
v 0.041483 -49.018570 -0.047005
v 0.041483 -45.756607 1.218365
v 0.041483 -45.756607 1.218365
v 0.041483 -49.018570 -0.047005
v 0.041483 -45.756607 -1.312374
v 0.041483 -49.018570 -0.047005
v 0.041483 -45.756607 -1.312374
v 0.041483 -49.018570 -1.312374
v 0.041483 -45.756607 -1.312374
v 0.041483 -49.018570 -0.047005
v 0.041483 -49.018570 -1.312374
v 0.041483 -49.018570 -1.312374
v 0.041483 -51.669086 -1.446594
v 0.041483 -49.018570 -0.047005
v 0.041483 -49.018570 -0.047005
v 0.041483 -51.669086 -1.446594
v 0.041483 -49.018570 -1.312374
v 0.041483 -49.018570 -0.047005
v 0.041483 -52.426636 -1.846615
v 0.041483 -52.426636 1.752609
v 0.041483 -52.426636 1.752609
v 0.041483 -52.426636 -1.846615
v 0.041483 -49.018570 -0.047005
v 0.041483 -45.756607 1.218365
v 0.041483 -45.756607 -1.312374
v 0.041483 -49.018570 -0.047005
v 0.041483 -52.752308 -3.740463
v 0.041482 -51.182175 -7.772125
v 0.041482 -53.578667 -8.545837
v 0.041482 -53.578667 -8.545837
v 0.041482 -51.182175 -7.772125
v 0.041483 -52.752308 -3.740463
v 0.041482 -51.182175 -7.772125
v 0.041482 -50.863132 -4.440865
v 0.041483 -52.752308 -3.740463
v 0.041483 -52.752308 -3.740463
v 0.041482 -50.863132 -4.440865
v 0.041482 -51.182175 -7.772125
v 0.041484 -51.182175 7.678108
v 0.041483 -52.752308 3.646458
v 0.041491 -53.578667 8.451828
v 0.041491 -53.578667 8.451828
v 0.041483 -52.752308 3.646458
v 0.041484 -51.182175 7.678108
v 0.041483 -52.752308 3.646458
v 0.041483 -50.863132 4.346859
v 0.041484 -51.182175 7.678108
v 0.041484 -51.182175 7.678108
v 0.041483 -50.863132 4.346859
v 0.041483 -52.752308 3.646458
vt 0.888428 0.668457
vt 0.833740 0.597168
vt 0.877930 0.426025
vt 0.877930 0.426025
vt 0.833740 0.597168
vt 0.888428 0.668457
vt 0.833740 0.597168
vt 0.888428 0.898681
vt 0.888428 0.668457
vt 0.888428 0.668457
vt 0.888428 0.898681
vt 0.833740 0.597168
vt 0.888428 0.898681
vt 0.833740 0.597168
vt 0.833740 0.969970
vt 0.833740 0.597168
vt 0.833740 0.969970
vt 0.795166 0.783691
vt 0.833740 0.969970
vt 0.833740 0.597168
vt 0.795166 0.783691
vt 0.795166 0.783691
vt 0.833740 0.597168
vt 0.772949 0.562500
vt 0.833740 0.597168
vt 0.795166 0.783691
vt 0.772949 0.562500
vt 0.772949 0.562500
vt 0.795166 0.783691
vt 0.833740 0.597168
vt 0.833740 0.597168
vt 0.795166 0.783691
vt 0.772949 0.562500
vt 0.833740 0.597168
vt 0.877930 0.426025
vt 0.888428 0.668457
vt 0.888428 0.668457
vt 0.877930 0.426025
vt 0.833740 0.597168
vt 0.833740 0.597168
vt 0.888428 0.898681
vt 0.833740 0.969970
vt 0.004883 0.746277
vt 0.004883 0.466003
vt 0.109619 0.466003
vt 0.004883 0.466003
vt 0.004883 0.746277
vt 0.109619 0.466003
vt 0.109619 0.466003
vt 0.004883 0.746277
vt 0.109619 0.746277
vt 0.004883 0.746277
vt 0.109619 0.466003
vt 0.109619 0.746277
vt 0.109619 0.746277
vt 0.109619 0.466003
vt 0.227295 0.506531
vt 0.109619 0.466003
vt 0.109619 0.746277
vt 0.227295 0.506531
vt 0.227295 0.506531
vt 0.109619 0.746277
vt 0.227295 0.705994
vt 0.109619 0.746277
vt 0.227295 0.506531
vt 0.227295 0.705994
vt 0.227295 0.705994
vt 0.227295 0.506531
vt 0.285400 0.506531
vt 0.227295 0.506531
vt 0.227295 0.705994
vt 0.285400 0.506531
vt 0.285400 0.506531
vt 0.227295 0.705994
vt 0.285400 0.705994
vt 0.227295 0.705994
vt 0.285400 0.506531
vt 0.285400 0.705994
vt 0.285400 0.705994
vt 0.285400 0.506531
vt 0.342773 0.506531
vt 0.285400 0.506531
vt 0.285400 0.705994
vt 0.342773 0.506531
vt 0.342773 0.506531
vt 0.342773 0.705994
vt 0.285400 0.705994
vt 0.285400 0.705994
vt 0.342773 0.705994
vt 0.342773 0.506531
vt 0.342773 0.705994
vt 0.404053 0.506531
vt 0.342773 0.506531
vt 0.342773 0.506531
vt 0.404053 0.506531
vt 0.342773 0.705994
vt 0.404053 0.506531
vt 0.404053 0.705994
vt 0.342773 0.705994
vt 0.342773 0.705994
vt 0.404053 0.705994
vt 0.404053 0.506531
vt 0.404053 0.705994
vt 0.462646 0.506531
vt 0.404053 0.506531
vt 0.404053 0.506531
vt 0.462646 0.506531
vt 0.404053 0.705994
vt 0.462646 0.506531
vt 0.462646 0.705994
vt 0.404053 0.705994
vt 0.404053 0.705994
vt 0.462646 0.705994
vt 0.462646 0.506531
vt 0.462646 0.705994
vt 0.524902 0.506531
vt 0.462646 0.506531
vt 0.462646 0.506531
vt 0.524902 0.506531
vt 0.462646 0.705994
vt 0.524902 0.506531
vt 0.524902 0.705994
vt 0.462646 0.705994
vt 0.462646 0.705994
vt 0.524902 0.705994
vt 0.524902 0.506531
vt 0.524902 0.705994
vt 0.583984 0.506531
vt 0.524902 0.506531
vt 0.524902 0.506531
vt 0.583984 0.506531
vt 0.524902 0.705994
vt 0.583984 0.506531
vt 0.524902 0.705994
vt 0.583984 0.705994
vt 0.524902 0.705994
vt 0.583984 0.506531
vt 0.583984 0.705994
vt 0.942871 0.872253
vt 0.942871 0.788513
vt 0.903320 0.872253
vt 0.903320 0.872253
vt 0.942871 0.788513
vt 0.942871 0.872253
vt 0.942871 0.788513
vt 0.942871 0.872253
vt 0.995117 0.872253
vt 0.942871 0.872253
vt 0.942871 0.788513
vt 0.995117 0.872253
vt 0.995117 0.872253
vt 0.942871 0.788513
vt 0.995117 0.704529
vt 0.942871 0.788513
vt 0.995117 0.704529
vt 0.942871 0.704529
vt 0.995117 0.704529
vt 0.942871 0.788513
vt 0.942871 0.704529
vt 0.942871 0.704529
vt 0.903320 0.704529
vt 0.942871 0.788513
vt 0.942871 0.788513
vt 0.903320 0.704529
vt 0.942871 0.704529
vt 0.942871 0.788513
vt 0.888428 0.673279
vt 0.888428 0.903503
vt 0.888428 0.903503
vt 0.888428 0.673279
vt 0.942871 0.788513
vt 0.995117 0.872253
vt 0.995117 0.704529
vt 0.942871 0.788513
vt 0.851794 0.262926
vt 0.796619 0.324449
vt 0.779529 0.262926
vt 0.779529 0.262926
vt 0.796619 0.324449
vt 0.851794 0.262926
vt 0.796619 0.324449
vt 0.846179 0.324449
vt 0.851794 0.262926
vt 0.851794 0.262926
vt 0.846179 0.324449
vt 0.796619 0.324449
vt 0.796619 0.324449
vt 0.851794 0.262926
vt 0.779529 0.262926
vt 0.779529 0.262926
vt 0.851794 0.262926
vt 0.796619 0.324449
vt 0.851794 0.262926
vt 0.846179 0.324449
vt 0.796619 0.324449
vt 0.796619 0.324449
vt 0.846179 0.324449
vt 0.851794 0.262926
vn 1.0000 0.0000 -0.0000
vn -1.0000 0.0000 0.0000
o keychain
usemtl Brush.015
f 1/1/1 2/2/1 3/3/1
f 4/4/2 5/5/2 6/6/2
f 7/7/2 8/8/2 9/9/2
f 10/10/1 11/11/1 12/12/1
f 13/13/2 14/14/2 15/15/2
f 16/16/1 17/17/1 18/18/1
f 19/19/2 20/20/2 21/21/2
f 22/22/2 23/23/2 24/24/2
f 25/25/1 26/26/1 27/27/1
f 28/28/1 29/29/1 30/30/1
f 31/31/2 32/32/2 33/33/2
f 34/34/2 35/35/2 36/36/2
f 37/37/1 38/38/1 39/39/1
f 40/40/1 41/41/1 42/42/1
f 43/43/2 44/44/2 45/45/2
f 46/46/1 47/47/1 48/48/1
f 49/49/1 50/50/1 51/51/1
f 52/52/2 53/53/2 54/54/2
f 55/55/2 56/56/2 57/57/2
f 58/58/1 59/59/1 60/60/1
f 61/61/1 62/62/1 63/63/1
f 64/64/2 65/65/2 66/66/2
f 67/67/2 68/68/2 69/69/2
f 70/70/1 71/71/1 72/72/1
f 73/73/1 74/74/1 75/75/1
f 76/76/2 77/77/2 78/78/2
f 79/79/2 80/80/2 81/81/2
f 82/82/1 83/83/1 84/84/1
f 85/85/2 86/86/2 87/87/2
f 88/88/1 89/89/1 90/90/1
f 91/91/1 92/92/1 93/93/1
f 94/94/2 95/95/2 96/96/2
f 97/97/2 98/98/2 99/99/2
f 100/100/1 101/101/1 102/102/1
f 103/103/1 104/104/1 105/105/1
f 106/106/2 107/107/2 108/108/2
f 109/109/2 110/110/2 111/111/2
f 112/112/1 113/113/1 114/114/1
f 115/115/1 116/116/1 117/117/1
f 118/118/2 119/119/2 120/120/2
f 121/121/2 122/122/2 123/123/2
f 124/124/1 125/125/1 126/126/1
f 127/127/1 128/128/1 129/129/1
f 130/130/2 131/131/2 132/132/2
f 133/133/1 134/134/1 135/135/1
f 136/136/2 137/137/2 138/138/2
f 139/139/2 140/140/2 141/141/2
f 142/142/1 143/143/1 144/144/1
f 145/145/2 146/146/2 147/147/2
f 148/148/1 149/149/1 150/150/1
f 151/151/1 152/152/1 153/153/1
f 154/154/2 155/155/2 156/156/2
f 157/157/1 158/158/1 159/159/1
f 160/160/2 161/161/2 162/162/2
f 163/163/1 164/164/1 165/165/1
f 166/166/2 167/167/2 168/168/2
f 169/169/1 170/170/1 171/171/1
f 172/172/2 173/173/2 174/174/2
usemtl Brush.017
f 175/175/2 176/176/2 177/177/2
f 178/178/1 179/179/1 180/180/1
f 181/181/1 182/182/1 183/183/1
f 184/184/2 185/185/2 186/186/2
f 187/187/2 188/188/2 189/189/2
f 190/190/1 191/191/1 192/192/1
f 193/193/1 194/194/1 195/195/1
f 196/196/2 197/197/2 198/198/2
