mtllib earthshaker.mtl
v 1.151400 10.072901 -13.012799
v 1.634700 0.314000 -13.012799
v 1.634700 9.250900 -15.712699
v 1.634700 0.314000 -13.012799
v 1.634700 1.262200 -15.712699
v 1.634700 9.250900 -15.712699
v 0.000001 16.713200 -10.685500
v 0.000001 16.208300 -5.184200
v 0.000001 26.167301 -5.830700
v 0.000001 21.013901 -11.901500
v 0.000001 16.713200 -10.685500
v 0.000001 26.167301 -5.830700
v -1.634701 -12.092401 -7.757800
v 1.634700 -9.038500 -7.819400
v 1.634700 -12.092401 -7.757800
v 1.634700 -9.038500 -7.819400
v -1.634701 -12.092401 -7.757800
v -1.634700 -9.038500 -7.819400
v 1.634700 1.262200 -15.712699
v -1.634700 0.314000 -13.012799
v -1.634700 1.262200 -15.712699
v -1.634700 0.314000 -13.012799
v 1.634700 1.262200 -15.712699
v 1.634700 0.314000 -13.012799
v 0.000003 63.066204 -3.192400
v 0.000001 26.167301 -3.192400
v 0.000001 26.167301 -5.830700
v 0.000001 26.167301 -5.830700
v 0.000003 65.498199 -6.126200
v 0.000003 63.066204 -3.192400
v 0.000001 21.013901 11.901500
v 0.000001 16.713200 10.685500
v 0.000001 26.167301 5.830700
v 0.000001 16.713200 10.685500
v 0.000001 16.208300 5.184200
v 0.000001 26.167301 5.830700
v -0.000000 -7.394600 3.355600
v -0.000000 -6.147800 1.776300
v -0.000000 -7.493100 1.714700
v -0.000000 -6.147800 1.776300
v -0.000000 -7.394600 3.355600
v -0.000000 -7.493100 1.714700
v -1.634700 -9.038500 7.819400
v 1.634700 -12.092401 7.757800
v 1.634700 -9.038500 7.819400
v 1.634700 -12.092401 7.757800
v -1.634700 -9.038500 7.819400
v -1.634701 -12.092401 7.757800
v 0.000003 63.066204 3.192400
v 0.000001 26.167301 3.192400
v 0.000001 26.167301 5.830700
v 0.000001 26.167301 5.830700
v 0.000003 65.498199 6.126200
v 0.000003 63.066204 3.192400
v 0.000001 12.427900 8.191900
v 0.000000 9.583400 7.188300
v -1.151399 10.072901 13.012799
v 0.000000 9.583400 7.188300
v 0.000001 12.427900 8.191900
v 1.151400 10.072901 13.012799
v 1.634700 0.314000 13.012799
v -1.634700 1.262200 15.712699
v -1.634700 0.314000 13.012799
v -1.634700 1.262200 15.712699
v 1.634700 0.314000 13.012799
v 1.634700 1.262200 15.712699
v 0.000001 13.933299 7.114400
v 0.000001 13.945601 4.306800
v 0.000001 16.208300 5.184200
v 0.000001 16.208300 5.184200
v 0.000001 16.713200 10.685500
v 0.000001 13.933299 7.114400
v -0.000001 -12.511000 1.625400
v -0.000001 -15.312500 0.778900
v -0.000001 -15.312500 0.003100
v -0.000000 -11.094900 2.444300
v -0.000001 -12.252400 2.444300
v -0.000001 -12.511000 1.625400
v -0.000000 -11.094900 -2.444300
v -2.746001 -11.094900 0.000000
v -1.921000 -7.493100 0.000000
v -0.000001 -15.312500 0.778900
v -0.000001 -12.511000 1.625400
v -0.000001 -15.312500 0.003100
v -0.000000 -11.094900 -2.444300
v -0.000001 -12.252400 -2.444300
v -0.000001 -12.511000 -1.625400
v -0.000000 -6.147800 -1.776300
v -0.000000 -7.394600 -3.355600
v -0.000000 -7.493100 -1.714700
v 0.000000 9.583400 -7.188300
v 0.000000 4.725500 -9.066200
v 1.151400 10.072901 -13.012799
v -0.000001 -12.252400 2.444300
v -0.000000 -11.094900 2.444300
v -0.000001 -12.511000 1.625400
v -0.000000 -7.493100 -1.714700
v -0.000000 -7.394600 -3.355600
v -0.000000 -11.094900 -2.444300
v 1.634700 -12.092401 -7.757800
v -0.000001 -16.396099 -2.444300
v -1.634701 -12.092401 -7.757800
v 1.151400 10.072901 -13.012799
v 0.000001 16.713200 -10.685500
v 0.000001 12.427900 -8.191900
v 1.634700 0.314000 -13.012799
v -1.634700 -5.356600 -11.907599
v -1.634700 0.314000 -13.012799
v -1.634700 1.262200 -15.712699
v -1.634700 9.250900 -15.712699
v 1.634700 1.262200 -15.712699
v -1.634700 1.262200 -15.712699
v -1.634700 0.314000 -13.012799
v -1.634700 9.250900 -15.712699
v -0.000000 -7.493100 -1.714700
v -0.000000 -11.094900 -2.444300
v -1.921000 -7.493100 0.000000
v -0.000000 -7.493100 -1.714700
v 1.921000 -7.493100 0.000000
v -0.000000 -11.094900 -2.444300
v -0.000001 -12.511000 -1.625400
v -0.000001 -15.312500 -0.778900
v -0.000001 -15.312500 -0.003100
v -0.000001 -12.252400 -2.444300
v -0.000000 -11.094900 -2.444300
v -0.000001 -12.511000 -1.625400
v -0.000000 -7.394600 -3.355600
v -0.000000 -6.147800 -1.776300
v -0.000000 -7.493100 -1.714700
v -0.000000 -7.394600 -3.355600
v -0.000000 -7.493100 -1.714700
v -0.000000 -11.094900 -2.444300
v -0.000001 -15.312500 -0.778900
v -0.000001 -12.511000 -1.625400
v -0.000001 -15.312500 -0.003100
v 2.216501 9.290900 0.000000
v 0.000000 9.290900 -2.499700
v 1.640801 26.167301 0.000000
v -1.151399 10.072901 13.012799
v 0.000001 16.713200 10.685500
v 0.000001 12.427900 8.191900
v 1.634700 1.262200 15.712699
v 1.634700 0.314000 13.012799
v 1.634700 9.250900 15.712699
v -0.000000 -7.394600 3.355600
v -0.000000 -7.493100 1.714700
v -0.000000 -11.094900 2.444300
v -0.000001 -16.396099 2.444300
v 1.634700 -12.092401 7.757800
v -1.634701 -12.092401 7.757800
v 0.000001 13.945601 4.306800
v 0.000001 13.933299 7.114400
v 0.000001 16.208300 5.184200
v -1.634700 0.314000 13.012799
v 1.634700 -5.356600 11.907599
v 1.634700 0.314000 13.012799
v -1.634700 -5.356600 11.907599
v -1.634700 0.314000 13.012799
v 0.000000 4.725500 9.066200
v -0.000000 -7.493100 1.714700
v -0.000000 -7.394600 3.355600
v -0.000000 -11.094900 2.444300
v 2.746000 -11.094900 0.000000
v -0.000000 -11.094900 2.444300
v -0.000001 -15.312500 0.000000
v -0.000000 -11.094900 2.444300
v -0.000000 -7.493100 1.714700
v -1.921000 -7.493100 0.000000
v 1.921000 -7.493100 0.000000
v -0.000000 -7.493100 1.714700
v -0.000000 -11.094900 2.444300
v 0.000003 63.066204 -3.192400
v 0.000001 26.167301 -3.192400
v -1.640797 63.066204 0.000000
v -1.634700 9.250900 -15.712699
v -1.634700 0.314000 -13.012799
v -1.151399 10.072901 -13.012799
v 0.000000 4.725500 -9.066200
v -1.151399 10.072901 -13.012799
v -1.634700 0.314000 -13.012799
v -1.634700 0.314000 -13.012799
v -1.634700 -5.356600 -11.907599
v 0.000000 4.725500 -9.066200
v -0.000000 -3.931200 -7.237600
v 0.000000 4.725500 -9.066200
v -1.634700 -5.356600 -11.907599
v -1.634700 -5.356600 -11.907599
v -1.634700 -9.038500 -7.819400
v -0.000000 -3.931200 -7.237600
v -0.000000 -7.394600 -3.355600
v -0.000000 -3.931200 -7.237600
v -1.634700 -9.038500 -7.819400
v 1.634700 9.250900 15.712699
v 1.634700 0.314000 13.012799
v 1.151400 10.072901 13.012799
v 0.000000 4.725500 9.066200
v 1.151400 10.072901 13.012799
v 1.634700 0.314000 13.012799
v 1.634700 0.314000 13.012799
v 1.634700 -5.356600 11.907599
v 0.000000 4.725500 9.066200
v -0.000000 -3.931200 7.237600
v 0.000000 4.725500 9.066200
v 1.634700 -5.356600 11.907599
v 1.634700 -5.356600 11.907599
v 1.634700 -9.038500 7.819400
v -0.000000 -3.931200 7.237600
v -0.000000 -7.394600 3.355600
v -0.000000 -3.931200 7.237600
v 1.634700 -9.038500 7.819400
v -1.921000 -7.493100 0.000000
v -2.746001 -11.094900 0.000000
v -0.000000 -11.094900 2.444300
v -0.000001 -15.312500 0.000000
v -0.000000 -11.094900 2.444300
v -2.746001 -11.094900 0.000000
v -2.746001 -11.094900 0.000000
v -0.000000 -11.094900 -2.444300
v -0.000001 -15.312500 0.000000
v 2.746000 -11.094900 0.000000
v -0.000001 -15.312500 0.000000
v -0.000000 -11.094900 -2.444300
v -0.000000 -11.094900 -2.444300
v 1.921000 -7.493100 0.000000
v 2.746000 -11.094900 0.000000
v -0.000000 -11.094900 2.444300
v 2.746000 -11.094900 0.000000
v 1.921000 -7.493100 0.000000
v 1.151400 10.072901 -13.012799
v 0.000000 4.725500 -9.066200
v 1.634700 0.314000 -13.012799
v 1.634700 -5.356600 -11.907599
v 1.634700 0.314000 -13.012799
v 0.000000 4.725500 -9.066200
v 0.000000 4.725500 -9.066200
v -0.000000 -3.931200 -7.237600
v 1.634700 -5.356600 -11.907599
v 1.634700 -9.038500 -7.819400
v 1.634700 -5.356600 -11.907599
v -0.000000 -3.931200 -7.237600
v -0.000000 -3.931200 -7.237600
v -0.000000 -7.394600 -3.355600
v 1.634700 -9.038500 -7.819400
v 1.151400 10.072901 13.012799
v 0.000000 4.725500 9.066200
v 0.000000 9.583400 7.188300
v -1.151399 10.072901 13.012799
v 0.000000 9.583400 7.188300
v 0.000000 4.725500 9.066200
v 0.000000 4.725500 9.066200
v -1.634700 0.314000 13.012799
v -1.151399 10.072901 13.012799
v -1.634700 9.250900 15.712699
v -1.151399 10.072901 13.012799
v -1.634700 0.314000 13.012799
v -1.634700 0.314000 13.012799
v -1.634700 1.262200 15.712699
v -1.634700 9.250900 15.712699
v 0.000001 16.713200 10.685500
v -1.151399 10.072901 13.012799
v 1.151400 10.072901 13.012799
v 1.634700 9.250900 15.712699
v 1.151400 10.072901 13.012799
v -1.151399 10.072901 13.012799
v -1.151399 10.072901 13.012799
v -1.634700 9.250900 15.712699
v 1.634700 9.250900 15.712699
v 1.634700 1.262200 15.712699
v 1.634700 9.250900 15.712699
v -1.634700 9.250900 15.712699
v -1.634700 9.250900 15.712699
v -1.634700 1.262200 15.712699
v 1.634700 1.262200 15.712699
v -1.921000 -7.493100 0.000000
v 0.000000 9.290900 -2.499700
v -0.000000 -7.493100 -1.714700
v 1.921000 -7.493100 0.000000
v -0.000000 -7.493100 -1.714700
v 0.000000 9.290900 -2.499700
v 0.000000 9.290900 -2.499700
v 2.216501 9.290900 0.000000
v 1.921000 -7.493100 0.000000
v 0.000000 9.290900 2.499700
v 1.921000 -7.493100 0.000000
v 2.216501 9.290900 0.000000
v -1.151399 10.072901 -13.012799
v 0.000001 12.427900 -8.191900
v 0.000001 16.713200 -10.685500
v 0.000001 13.933299 -7.114400
v 0.000001 16.713200 -10.685500
v 0.000001 12.427900 -8.191900
v 0.000001 12.427900 -8.191900
v 0.000001 16.713200 -10.685500
v 0.000001 13.933299 -7.114400
v 0.000001 16.208300 -5.184200
v 0.000001 13.933299 -7.114400
v 0.000001 16.713200 -10.685500
v 0.000001 16.713200 -10.685500
v 1.151400 10.072901 -13.012799
v -1.151399 10.072901 -13.012799
v -1.634700 9.250900 -15.712699
v -1.151399 10.072901 -13.012799
v 1.151400 10.072901 -13.012799
v 1.151400 10.072901 -13.012799
v 1.634700 9.250900 -15.712699
v -1.634700 9.250900 -15.712699
v 1.634700 1.262200 -15.712699
v -1.634700 9.250900 -15.712699
v 1.634700 9.250900 -15.712699
v 0.000003 65.498199 -6.126200
v 0.000001 26.167301 -5.830700
v 0.000003 63.066204 -3.192400
v 0.000001 26.167301 -3.192400
v 0.000003 63.066204 -3.192400
v 0.000001 26.167301 -5.830700
v 0.000001 26.167301 -5.830700
v 0.000001 16.208300 -5.184200
v 0.000001 26.167301 -3.192400
v 0.000000 9.290900 -2.499700
v 0.000001 26.167301 -3.192400
v 0.000001 16.208300 -5.184200
v 2.216501 9.290900 0.000000
v 1.640801 26.167301 0.000000
v 0.000000 9.290900 2.499700
v 0.000001 26.167301 3.192400
v 0.000000 9.290900 2.499700
v 1.640801 26.167301 0.000000
v 1.640801 26.167301 0.000000
v 1.640803 63.066204 0.000000
v 0.000001 26.167301 3.192400
v 0.000003 63.066204 3.192400
v 0.000001 26.167301 3.192400
v 1.640803 63.066204 0.000000
v 0.000000 9.290900 -2.499700
v -1.921000 -7.493100 0.000000
v -2.216500 9.290900 0.000000
v 0.000000 9.290900 2.499700
v -2.216500 9.290900 0.000000
v -1.921000 -7.493100 0.000000
v -1.921000 -7.493100 0.000000
v -0.000000 -7.493100 1.714700
v 0.000000 9.290900 2.499700
v 1.921000 -7.493100 0.000000
v 0.000000 9.290900 2.499700
v -0.000000 -7.493100 1.714700
v 0.000000 9.290900 2.499700
v 0.000001 26.167301 3.192400
v 0.000001 16.208300 5.184200
v 0.000001 26.167301 5.830700
v 0.000001 16.208300 5.184200
v 0.000001 26.167301 3.192400
v 0.000001 26.167301 3.192400
v 0.000003 63.066204 3.192400
v 0.000001 26.167301 5.830700
v 0.000003 65.498199 6.126200
v 0.000001 26.167301 5.830700
v 0.000003 63.066204 3.192400
v 0.000001 21.013901 -11.901500
v 0.000001 26.167301 -5.830700
v 0.000001 16.713200 -10.685500
v 0.000001 16.208300 -5.184200
v 0.000001 16.713200 -10.685500
v 0.000001 26.167301 -5.830700
v 0.000001 26.167301 -5.830700
v 0.000001 26.167301 -3.192400
v 0.000001 16.208300 -5.184200
v 0.000000 9.290900 -2.499700
v 0.000001 16.208300 -5.184200
v 0.000001 26.167301 -3.192400
v 0.000001 21.013901 11.901500
v 0.000001 26.167301 5.830700
v 0.000001 16.713200 10.685500
v 0.000001 16.208300 5.184200
v 0.000001 16.713200 10.685500
v 0.000001 26.167301 5.830700
v 0.000001 26.167301 5.830700
v 0.000001 26.167301 3.192400
v 0.000001 16.208300 5.184200
v 0.000000 9.290900 2.499700
v 0.000001 16.208300 5.184200
v 0.000001 26.167301 3.192400
v 0.000001 16.208300 5.184200
v 0.000001 13.933299 7.114400
v 0.000001 16.713200 10.685500
v 0.000001 12.427900 8.191900
v 0.000001 16.713200 10.685500
v 0.000001 13.933299 7.114400
v 0.000001 13.933299 7.114400
v 0.000001 16.713200 10.685500
v 0.000001 12.427900 8.191900
v 1.151400 10.072901 13.012799
v 0.000001 12.427900 8.191900
v 0.000001 16.713200 10.685500
v 0.000000 9.290900 -2.499700
v -1.640799 26.167301 0.000000
v 0.000001 26.167301 -3.192400
v -1.640797 63.066204 0.000000
v 0.000001 26.167301 -3.192400
v -1.640799 26.167301 0.000000
v -1.640799 26.167301 0.000000
v 0.000001 26.167301 3.192400
v -1.640797 63.066204 0.000000
v 0.000003 63.066204 3.192400
v -1.640797 63.066204 0.000000
v 0.000001 26.167301 3.192400
v -1.634700 -9.038500 -7.819400
v -1.634701 -12.092401 -7.757800
v -0.000000 -7.394600 -3.355600
v -0.000000 -11.094900 -2.444300
v -0.000000 -7.394600 -3.355600
v -1.634701 -12.092401 -7.757800
v -1.634701 -12.092401 -7.757800
v -0.000001 -16.396099 -2.444300
v -0.000000 -11.094900 -2.444300
v 0.000000 4.725500 -9.066200
v 0.000000 9.583400 -7.188300
v -1.151399 10.072901 -13.012799
v 0.000001 12.427900 -8.191900
v -1.151399 10.072901 -13.012799
v 0.000000 9.583400 -7.188300
v 0.000000 9.583400 -7.188300
v 1.151400 10.072901 -13.012799
v 0.000001 12.427900 -8.191900
v 0.000001 16.713200 -10.685500
v 0.000001 13.933299 -7.114400
v 0.000001 16.208300 -5.184200
v 0.000001 13.945601 -4.306800
v 0.000001 16.208300 -5.184200
v 0.000001 13.933299 -7.114400
v 0.000001 13.933299 -7.114400
v 0.000001 16.208300 -5.184200
v 0.000001 13.945601 -4.306800
v 1.634700 0.314000 -13.012799
v 1.634700 -5.356600 -11.907599
v -1.634700 -5.356600 -11.907599
v -1.634700 -9.038500 -7.819400
v -1.634700 -5.356600 -11.907599
v 1.634700 -5.356600 -11.907599
v 1.634700 -5.356600 -11.907599
v 1.634700 -9.038500 -7.819400
v -1.634700 -9.038500 -7.819400
v 0.000000 9.290900 -2.499700
v 0.000001 26.167301 -3.192400
v 1.640801 26.167301 0.000000
v 1.640803 63.066204 0.000000
v 1.640801 26.167301 0.000000
v 0.000001 26.167301 -3.192400
v 0.000001 26.167301 -3.192400
v 0.000003 63.066204 -3.192400
v 1.640803 63.066204 0.000000
v -0.000001 -16.396099 -2.444300
v 1.634700 -12.092401 -7.757800
v -0.000000 -11.094900 -2.444300
v -0.000000 -7.394600 -3.355600
v -0.000000 -11.094900 -2.444300
v 1.634700 -12.092401 -7.757800
v 1.634700 -12.092401 -7.757800
v 1.634700 -9.038500 -7.819400
v -0.000000 -7.394600 -3.355600
v -0.000001 -16.396099 2.444300
v -1.634701 -12.092401 7.757800
v -0.000000 -11.094900 2.444300
v -0.000000 -7.394600 3.355600
v -0.000000 -11.094900 2.444300
v -1.634701 -12.092401 7.757800
v -1.634701 -12.092401 7.757800
v -1.634700 -9.038500 7.819400
v -0.000000 -7.394600 3.355600
v 0.000000 4.725500 9.066200
v -0.000000 -3.931200 7.237600
v -1.634700 -5.356600 11.907599
v -1.634700 -9.038500 7.819400
v -1.634700 -5.356600 11.907599
v -0.000000 -3.931200 7.237600
v -0.000000 -3.931200 7.237600
v -0.000000 -7.394600 3.355600
v -1.634700 -9.038500 7.819400
v 1.634700 -9.038500 7.819400
v 1.634700 -12.092401 7.757800
v -0.000000 -7.394600 3.355600
v -0.000000 -11.094900 2.444300
v -0.000000 -7.394600 3.355600
v 1.634700 -12.092401 7.757800
v 1.634700 -12.092401 7.757800
v -0.000001 -16.396099 2.444300
v -0.000000 -11.094900 2.444300
v -1.634700 0.314000 13.012799
v -1.634700 -5.356600 11.907599
v 1.634700 -5.356600 11.907599
v 1.634700 -9.038500 7.819400
v 1.634700 -5.356600 11.907599
v -1.634700 -5.356600 11.907599
v -1.634700 -5.356600 11.907599
v -1.634700 -9.038500 7.819400
v 1.634700 -9.038500 7.819400
v 0.000001 26.167301 3.192400
v -1.640799 26.167301 0.000000
v 0.000000 9.290900 2.499700
v -2.216500 9.290900 0.000000
v 0.000000 9.290900 2.499700
v -1.640799 26.167301 0.000000
v -1.640799 26.167301 0.000000
v 0.000000 9.290900 -2.499700
v -2.216500 9.290900 0.000000
v 0.000004 82.944099 11.134900
v 0.000004 85.739395 7.917900
v 0.000003 78.535698 7.770100
v 0.000003 78.535698 7.770100
v 0.000004 85.739395 7.917900
v 0.000003 78.560295 6.366300
v 0.000004 98.154999 -3.192400
v 1.640804 98.096504 0.000000
v 0.000003 63.066204 -3.192400
v -1.640796 98.096504 0.000000
v 0.000004 98.154999 -3.192400
v 0.000003 63.066204 -3.192400
v 0.000004 98.154999 -3.192400
v -1.640796 98.096504 0.000000
v 1.640804 98.096504 0.000000
v 1.640804 98.096504 0.000000
v -1.640796 98.096504 0.000000
v 0.000004 97.834801 3.192400
v 0.000004 92.121101 13.643900
v 0.000004 97.000496 7.637800
v 0.000004 88.026703 9.097000
v 0.000004 98.173401 -15.075400
v 0.000004 89.932297 -15.075400
v 0.000004 87.235497 -10.605400
v 0.000004 85.914902 -5.082600
v 0.000004 85.914902 -3.192400
v 0.000004 89.707603 -5.082600
v 0.000003 78.717300 -7.917900
v 0.000003 78.717300 -3.192400
v 0.000004 85.914902 -7.917900
v 1.640804 98.096504 0.000000
v 1.640803 63.066204 0.000000
v 0.000003 63.066204 -3.192400
v 0.000003 74.198105 3.192400
v 0.000003 74.198105 5.082600
v 0.000003 78.560295 6.366300
v 0.000003 74.198105 -3.192400
v 0.000003 74.198105 -5.082600
v 0.000003 78.717300 -5.082600
v 0.000004 89.707603 -3.192400
v 0.000004 89.707603 -10.605400
v 0.000004 98.398201 -10.605400
v 0.000003 78.905098 -11.088799
v 0.000004 85.727104 -11.088799
v 0.000003 76.670097 -7.917900
v 0.000003 78.560295 3.192400
v 0.000004 85.739395 3.192400
v 0.000004 85.739395 7.917900
v 0.000004 85.739395 5.082600
v 0.000004 85.739395 3.192400
v 0.000004 89.550606 6.366300
v -1.640796 98.096504 0.000000
v -1.640797 63.066204 0.000000
v 0.000003 63.066204 3.192400
v -1.640796 98.096504 0.000000
v 0.000003 63.066204 -3.192400
v -1.640797 63.066204 0.000000
v 0.000004 85.739395 3.192400
v 0.000003 78.560295 3.192400
v 0.000004 85.739395 7.917900
v 0.000003 78.560295 6.366300
v 0.000004 85.739395 7.917900
v 0.000003 78.560295 3.192400
v 0.000003 78.560295 3.192400
v 0.000004 85.739395 7.917900
v 0.000003 78.560295 6.366300
v 0.000003 78.535698 7.770100
v 0.000003 78.560295 6.366300
v 0.000004 85.739395 7.917900
v 0.000004 85.739395 7.917900
v 0.000004 82.944099 11.134900
v 0.000003 78.535698 7.770100
v 0.000004 88.026703 9.097000
v 0.000004 97.000496 7.637800
v 0.000004 89.550606 6.366300
v 0.000004 89.550606 3.192400
v 0.000004 89.550606 6.366300
v 0.000004 97.000496 7.637800
v 0.000004 97.000496 7.637800
v 0.000004 97.834801 3.192400
v 0.000004 89.550606 3.192400
v 0.000004 97.000496 7.637800
v 0.000004 89.550606 3.192400
v 0.000004 97.834801 3.192400
v 0.000003 73.185196 8.324300
v 0.000003 63.066204 3.192400
v 0.000003 74.198105 5.082600
v 0.000003 74.198105 3.192400
v 0.000003 74.198105 5.082600
v 0.000003 63.066204 3.192400
v 0.000003 63.066204 3.192400
v 0.000003 74.198105 5.082600
v 0.000003 74.198105 3.192400
v 0.000003 66.421799 -7.243701
v 0.000003 63.066204 -3.192400
v 0.000003 73.185196 -8.324300
v 0.000003 74.198105 -5.082600
v 0.000003 73.185196 -8.324300
v 0.000003 63.066204 -3.192400
v 0.000003 63.066204 -3.192400
v 0.000003 74.198105 -3.192400
v 0.000003 74.198105 -5.082600
v 0.000003 74.198105 -5.082600
v 0.000003 74.198105 -3.192400
v 0.000003 78.717300 -5.082600
v 0.000003 78.717300 -3.192400
v 0.000003 78.717300 -5.082600
v 0.000003 74.198105 -3.192400
v 0.000003 74.198105 -3.192400
v 0.000003 78.717300 -5.082600
v 0.000003 78.717300 -3.192400
v 0.000004 98.173401 -15.075400
v 0.000004 87.235497 -10.605400
v 0.000004 100.873306 -10.605400
v 0.000004 98.173401 -15.075400
v 0.000004 100.873306 -10.605400
v 0.000004 87.235497 -10.605400
v 0.000004 87.235497 -10.605400
v 0.000004 89.932297 -15.075400
v 0.000004 98.173401 -15.075400
v 0.000004 89.707603 -10.605400
v 0.000004 89.707603 -3.192400
v 0.000004 98.398201 -10.605400
v 0.000004 98.154999 -3.192400
v 0.000004 98.398201 -10.605400
v 0.000004 89.707603 -3.192400
v 0.000004 89.707603 -3.192400
v 0.000004 98.398201 -10.605400
v 0.000004 98.154999 -3.192400
v 0.000004 89.707603 -5.082600
v 0.000004 85.914902 -3.192400
v 0.000004 89.707603 -3.192400
v 0.000004 89.707603 -5.082600
v 0.000004 89.707603 -3.192400
v 0.000004 85.914902 -3.192400
v 0.000004 85.914902 -3.192400
v 0.000004 85.914902 -5.082600
v 0.000004 89.707603 -5.082600
v 0.000004 85.914902 -7.917900
v 0.000003 78.717300 -3.192400
v 0.000004 85.914902 -3.192400
v 0.000004 85.914902 -7.917900
v 0.000004 85.914902 -3.192400
v 0.000003 78.717300 -3.192400
v 0.000003 78.717300 -3.192400
v 0.000003 78.717300 -7.917900
v 0.000004 85.914902 -7.917900
v 0.000003 78.905098 -11.088799
v 0.000003 76.670097 -7.917900
v 0.000004 85.727104 -11.088799
v 0.000004 87.961998 -7.917900
v 0.000004 85.727104 -11.088799
v 0.000003 76.670097 -7.917900
v 0.000003 76.670097 -7.917900
v 0.000004 85.727104 -11.088799
v 0.000004 87.961998 -7.917900
v 0.000003 74.198105 5.082600
v 0.000003 63.066204 3.192400
v 0.000003 73.185196 8.324300
v 0.000003 66.421799 7.243701
v 0.000003 73.185196 8.324300
v 0.000003 63.066204 3.192400
v 0.000003 63.066204 3.192400
v 0.000003 73.185196 8.324300
v 0.000003 66.421799 7.243701
v 0.000003 74.198105 -3.192400
v 0.000003 63.066204 -3.192400
v 0.000003 74.198105 -5.082600
v 0.000003 73.185196 -8.324300
v 0.000003 74.198105 -5.082600
v 0.000003 63.066204 -3.192400
v 0.000003 63.066204 -3.192400
v 0.000003 66.421799 -7.243701
v 0.000003 73.185196 -8.324300
v 0.000004 89.550606 3.192400
v 0.000004 97.000496 7.637800
v 0.000004 89.550606 6.366300
v 0.000004 88.026703 9.097000
v 0.000004 89.550606 6.366300
v 0.000004 97.000496 7.637800
v 0.000004 97.000496 7.637800
v 0.000004 92.121101 13.643900
v 0.000004 88.026703 9.097000
v 0.000003 74.198105 5.082600
v 0.000003 74.198105 3.192400
v 0.000003 78.560295 6.366300
v 0.000003 78.560295 3.192400
v 0.000003 78.560295 6.366300
v 0.000003 74.198105 3.192400
v 0.000003 74.198105 3.192400
v 0.000003 78.560295 6.366300
v 0.000003 78.560295 3.192400
v 0.000004 89.550606 6.366300
v 0.000004 85.739395 3.192400
v 0.000004 89.550606 3.192400
v 0.000004 89.550606 6.366300
v 0.000004 89.550606 3.192400
v 0.000004 85.739395 3.192400
v 0.000004 85.739395 3.192400
v 0.000004 85.739395 5.082600
v 0.000004 89.550606 6.366300
v -1.640796 98.096504 0.000000
v 0.000003 63.066204 3.192400
v 0.000004 97.834801 3.192400
v 1.640804 98.096504 0.000000
v 0.000004 97.834801 3.192400
v 0.000003 63.066204 3.192400
v 0.000003 63.066204 3.192400
v 1.640803 63.066204 0.000000
v 1.640804 98.096504 0.000000
vt 0.565502 0.335236
vt 0.691486 0.492716
vt 0.549754 0.421850
vt 0.691486 0.492716
vt 0.652116 0.547834
vt 0.549754 0.421850
vt 0.880463 0.634448
vt 0.888337 0.807677
vt 0.730856 0.791929
vt 0.809597 0.595078
vt 0.880463 0.634448
vt 0.730856 0.791929
vt 0.171801 0.854921
vt 0.234793 0.988779
vt 0.171801 0.988779
vt 0.234793 0.988779
vt 0.171801 0.854921
vt 0.234793 0.854921
vt 0.974951 0.768307
vt 0.904085 0.602952
vt 0.974951 0.602952
vt 0.904085 0.602952
vt 0.974951 0.768307
vt 0.904085 0.768307
vt 0.478888 0.870669
vt 0.730856 0.870669
vt 0.730856 0.791929
vt 0.730856 0.791929
vt 0.455266 0.776181
vt 0.478888 0.870669
vt 0.809597 0.595078
vt 0.880463 0.634448
vt 0.730856 0.791929
vt 0.880463 0.634448
vt 0.888337 0.807677
vt 0.730856 0.791929
vt 0.565502 0.532086
vt 0.534006 0.595078
vt 0.565502 0.602952
vt 0.534006 0.595078
vt 0.565502 0.532086
vt 0.565502 0.602952
vt 0.234793 0.854921
vt 0.171801 0.988779
vt 0.234793 0.988779
vt 0.171801 0.988779
vt 0.234793 0.854921
vt 0.171801 0.854921
vt 0.478888 0.870669
vt 0.730856 0.870669
vt 0.730856 0.791929
vt 0.730856 0.791929
vt 0.455266 0.776181
vt 0.478888 0.870669
vt 0.573376 0.169881
vt 0.612746 0.185629
vt 0.565502 0.335236
vt 0.612746 0.185629
vt 0.573376 0.169881
vt 0.565502 0.335236
vt 0.904085 0.768307
vt 0.974951 0.602952
vt 0.904085 0.602952
vt 0.974951 0.602952
vt 0.904085 0.768307
vt 0.974951 0.768307
vt 0.557628 0.114763
vt 0.581250 0.043897
vt 0.549754 0.028149
vt 0.549754 0.028149
vt 0.494636 0.162007
vt 0.557628 0.114763
vt 0.683612 0.610826
vt 0.754479 0.626574
vt 0.754479 0.658070
vt 0.644242 0.579330
vt 0.675738 0.571456
vt 0.683612 0.610826
vt 0.644242 0.579330
vt 0.652116 0.752558
vt 0.565502 0.721062
vt 0.754479 0.626574
vt 0.683612 0.610826
vt 0.754479 0.658070
vt 0.644242 0.579330
vt 0.675738 0.571456
vt 0.683612 0.610826
vt 0.683612 0.610826
vt 0.754479 0.626574
vt 0.754479 0.658070
vt 0.612746 0.185629
vt 0.667864 0.311614
vt 0.565502 0.335236
vt 0.675738 0.571456
vt 0.644242 0.579330
vt 0.683612 0.610826
vt 0.565502 0.602952
vt 0.565502 0.532086
vt 0.644242 0.579330
vt 0.171801 0.988779
vt 0.030069 0.925787
vt 0.171801 0.854921
vt 0.565502 0.335236
vt 0.494636 0.162007
vt 0.573376 0.169881
vt 0.455266 0.988779
vt 0.345030 0.854921
vt 0.455266 0.854921
vt 0.982825 0.028149
vt 0.809597 0.028149
vt 0.982825 0.169881
vt 0.652116 0.547834
vt 0.691486 0.492716
vt 0.549754 0.421850
vt 0.565502 0.602952
vt 0.644242 0.579330
vt 0.565502 0.721062
vt 0.565502 0.602952
vt 0.565502 0.721062
vt 0.644242 0.579330
vt 0.683612 0.610826
vt 0.754479 0.626574
vt 0.754479 0.658070
vt 0.675738 0.571456
vt 0.644242 0.579330
vt 0.683612 0.610826
vt 0.565502 0.532086
vt 0.534006 0.595078
vt 0.565502 0.602952
vt 0.565502 0.532086
vt 0.565502 0.602952
vt 0.644242 0.579330
vt 0.754479 0.626574
vt 0.683612 0.610826
vt 0.754479 0.658070
vt 0.990699 0.988779
vt 0.990699 0.870669
vt 0.730856 0.988779
vt 0.565502 0.335236
vt 0.494636 0.162007
vt 0.573376 0.169881
vt 0.652116 0.547834
vt 0.691486 0.492716
vt 0.549754 0.421850
vt 0.565502 0.532086
vt 0.565502 0.602952
vt 0.644242 0.579330
vt 0.030069 0.925787
vt 0.171801 0.988779
vt 0.171801 0.854921
vt 0.754479 0.658070
vt 0.754479 0.626574
vt 0.683612 0.610826
vt 0.455266 0.854921
vt 0.345030 0.988779
vt 0.455266 0.988779
vt 0.770227 0.555708
vt 0.691486 0.492716
vt 0.667864 0.311614
vt 0.565502 0.602952
vt 0.565502 0.532086
vt 0.644242 0.579330
vt 0.652116 0.752558
vt 0.644242 0.579330
vt 0.754479 0.658070
vt 0.644242 0.579330
vt 0.565502 0.602952
vt 0.565502 0.721062
vt 0.565502 0.721062
vt 0.565502 0.602952
vt 0.644242 0.579330
vt 0.478888 0.870669
vt 0.730856 0.870669
vt 0.478888 0.988779
vt 0.549754 0.421850
vt 0.691486 0.492716
vt 0.565502 0.335236
vt 0.667864 0.311614
vt 0.565502 0.335236
vt 0.691486 0.492716
vt 0.691486 0.492716
vt 0.770227 0.555708
vt 0.667864 0.311614
vt 0.785975 0.398228
vt 0.667864 0.311614
vt 0.770227 0.555708
vt 0.770227 0.555708
vt 0.848967 0.508464
vt 0.785975 0.398228
vt 0.864715 0.358858
vt 0.785975 0.398228
vt 0.848967 0.508464
vt 0.549754 0.421850
vt 0.691486 0.492716
vt 0.565502 0.335236
vt 0.667864 0.311614
vt 0.565502 0.335236
vt 0.691486 0.492716
vt 0.691486 0.492716
vt 0.770227 0.555708
vt 0.667864 0.311614
vt 0.785975 0.398228
vt 0.667864 0.311614
vt 0.770227 0.555708
vt 0.770227 0.555708
vt 0.848967 0.508464
vt 0.785975 0.398228
vt 0.864715 0.358858
vt 0.785975 0.398228
vt 0.848967 0.508464
vt 0.565502 0.721062
vt 0.652116 0.752558
vt 0.644242 0.579330
vt 0.754479 0.658070
vt 0.644242 0.579330
vt 0.652116 0.752558
vt 0.652116 0.752558
vt 0.644242 0.579330
vt 0.754479 0.658070
vt 0.652116 0.752558
vt 0.754479 0.658070
vt 0.644242 0.579330
vt 0.644242 0.579330
vt 0.565502 0.721062
vt 0.652116 0.752558
vt 0.644242 0.579330
vt 0.652116 0.752558
vt 0.565502 0.721062
vt 0.565502 0.335236
vt 0.667864 0.311614
vt 0.691486 0.492716
vt 0.770227 0.555708
vt 0.691486 0.492716
vt 0.667864 0.311614
vt 0.667864 0.311614
vt 0.785975 0.398228
vt 0.770227 0.555708
vt 0.848967 0.508464
vt 0.770227 0.555708
vt 0.785975 0.398228
vt 0.785975 0.398228
vt 0.864715 0.358858
vt 0.848967 0.508464
vt 0.565502 0.335236
vt 0.667864 0.311614
vt 0.612746 0.185629
vt 0.565502 0.335236
vt 0.612746 0.185629
vt 0.667864 0.311614
vt 0.667864 0.311614
vt 0.691486 0.492716
vt 0.565502 0.335236
vt 0.549754 0.421850
vt 0.565502 0.335236
vt 0.691486 0.492716
vt 0.691486 0.492716
vt 0.652116 0.547834
vt 0.549754 0.421850
vt 0.589124 0.099015
vt 0.746605 0.043897
vt 0.746605 0.146259
vt 0.809597 0.169881
vt 0.746605 0.146259
vt 0.746605 0.043897
vt 0.746605 0.043897
vt 0.809597 0.028149
vt 0.809597 0.169881
vt 0.982825 0.169881
vt 0.809597 0.169881
vt 0.809597 0.028149
vt 0.809597 0.028149
vt 0.982825 0.028149
vt 0.982825 0.169881
vt 0.982825 0.217125
vt 0.722982 0.311614
vt 0.982825 0.311614
vt 0.982825 0.217125
vt 0.982825 0.311614
vt 0.722982 0.311614
vt 0.722982 0.311614
vt 0.722982 0.217125
vt 0.982825 0.217125
vt 0.722982 0.311614
vt 0.982825 0.217125
vt 0.722982 0.217125
vt 0.565502 0.335236
vt 0.573376 0.169881
vt 0.494636 0.162007
vt 0.557628 0.114763
vt 0.494636 0.162007
vt 0.573376 0.169881
vt 0.573376 0.169881
vt 0.494636 0.162007
vt 0.557628 0.114763
vt 0.549754 0.028149
vt 0.557628 0.114763
vt 0.494636 0.162007
vt 0.589124 0.099015
vt 0.746605 0.146259
vt 0.746605 0.043897
vt 0.809597 0.028149
vt 0.746605 0.043897
vt 0.746605 0.146259
vt 0.746605 0.146259
vt 0.809597 0.169881
vt 0.809597 0.028149
vt 0.982825 0.169881
vt 0.809597 0.028149
vt 0.809597 0.169881
vt 0.455266 0.776181
vt 0.730856 0.791929
vt 0.478888 0.870669
vt 0.730856 0.870669
vt 0.478888 0.870669
vt 0.730856 0.791929
vt 0.730856 0.791929
vt 0.888337 0.807677
vt 0.730856 0.870669
vt 0.990699 0.870669
vt 0.730856 0.870669
vt 0.888337 0.807677
vt 0.990699 0.988779
vt 0.730856 0.988779
vt 0.990699 0.870669
vt 0.730856 0.870669
vt 0.990699 0.870669
vt 0.730856 0.988779
vt 0.730856 0.988779
vt 0.478888 0.988779
vt 0.730856 0.870669
vt 0.478888 0.870669
vt 0.730856 0.870669
vt 0.478888 0.988779
vt 0.722982 0.311614
vt 0.982825 0.217125
vt 0.722982 0.217125
vt 0.722982 0.311614
vt 0.722982 0.217125
vt 0.982825 0.217125
vt 0.982825 0.217125
vt 0.982825 0.311614
vt 0.722982 0.311614
vt 0.982825 0.217125
vt 0.722982 0.311614
vt 0.982825 0.311614
vt 0.990699 0.870669
vt 0.730856 0.870669
vt 0.888337 0.807677
vt 0.730856 0.791929
vt 0.888337 0.807677
vt 0.730856 0.870669
vt 0.730856 0.870669
vt 0.478888 0.870669
vt 0.730856 0.791929
vt 0.455266 0.776181
vt 0.730856 0.791929
vt 0.478888 0.870669
vt 0.809597 0.595078
vt 0.730856 0.791929
vt 0.880463 0.634448
vt 0.888337 0.807677
vt 0.880463 0.634448
vt 0.730856 0.791929
vt 0.730856 0.791929
vt 0.730856 0.870669
vt 0.888337 0.807677
vt 0.990699 0.870669
vt 0.888337 0.807677
vt 0.730856 0.870669
vt 0.809597 0.595078
vt 0.730856 0.791929
vt 0.880463 0.634448
vt 0.888337 0.807677
vt 0.880463 0.634448
vt 0.730856 0.791929
vt 0.730856 0.791929
vt 0.730856 0.870669
vt 0.888337 0.807677
vt 0.990699 0.870669
vt 0.888337 0.807677
vt 0.730856 0.870669
vt 0.549754 0.028149
vt 0.557628 0.114763
vt 0.494636 0.162007
vt 0.573376 0.169881
vt 0.494636 0.162007
vt 0.557628 0.114763
vt 0.557628 0.114763
vt 0.494636 0.162007
vt 0.573376 0.169881
vt 0.565502 0.335236
vt 0.573376 0.169881
vt 0.494636 0.162007
vt 0.990699 0.870669
vt 0.730856 0.988779
vt 0.730856 0.870669
vt 0.478888 0.988779
vt 0.730856 0.870669
vt 0.730856 0.988779
vt 0.730856 0.988779
vt 0.730856 0.870669
vt 0.478888 0.988779
vt 0.478888 0.870669
vt 0.478888 0.988779
vt 0.730856 0.870669
vt 0.848967 0.508464
vt 0.888337 0.555708
vt 0.864715 0.358858
vt 0.919833 0.398228
vt 0.864715 0.358858
vt 0.888337 0.555708
vt 0.888337 0.555708
vt 0.990699 0.476968
vt 0.919833 0.398228
vt 0.667864 0.311614
vt 0.612746 0.185629
vt 0.565502 0.335236
vt 0.573376 0.169881
vt 0.565502 0.335236
vt 0.612746 0.185629
vt 0.612746 0.185629
vt 0.565502 0.335236
vt 0.573376 0.169881
vt 0.494636 0.162007
vt 0.557628 0.114763
vt 0.549754 0.028149
vt 0.581250 0.043897
vt 0.549754 0.028149
vt 0.557628 0.114763
vt 0.557628 0.114763
vt 0.549754 0.028149
vt 0.581250 0.043897
vt 0.455266 0.988779
vt 0.345030 0.988779
vt 0.345030 0.854921
vt 0.234793 0.854921
vt 0.345030 0.854921
vt 0.345030 0.988779
vt 0.345030 0.988779
vt 0.234793 0.988779
vt 0.234793 0.854921
vt 0.990699 0.870669
vt 0.730856 0.870669
vt 0.730856 0.988779
vt 0.478888 0.988779
vt 0.730856 0.988779
vt 0.730856 0.870669
vt 0.730856 0.870669
vt 0.478888 0.870669
vt 0.478888 0.988779
vt 0.990699 0.476968
vt 0.888337 0.555708
vt 0.919833 0.398228
vt 0.864715 0.358858
vt 0.919833 0.398228
vt 0.888337 0.555708
vt 0.888337 0.555708
vt 0.848967 0.508464
vt 0.864715 0.358858
vt 0.990699 0.476968
vt 0.888337 0.555708
vt 0.919833 0.398228
vt 0.864715 0.358858
vt 0.919833 0.398228
vt 0.888337 0.555708
vt 0.888337 0.555708
vt 0.848967 0.508464
vt 0.864715 0.358858
vt 0.667864 0.311614
vt 0.785975 0.398228
vt 0.770227 0.555708
vt 0.848967 0.508464
vt 0.770227 0.555708
vt 0.785975 0.398228
vt 0.785975 0.398228
vt 0.864715 0.358858
vt 0.848967 0.508464
vt 0.848967 0.508464
vt 0.888337 0.555708
vt 0.864715 0.358858
vt 0.919833 0.398228
vt 0.864715 0.358858
vt 0.888337 0.555708
vt 0.888337 0.555708
vt 0.990699 0.476968
vt 0.919833 0.398228
vt 0.455266 0.854921
vt 0.345030 0.854921
vt 0.345030 0.988779
vt 0.234793 0.988779
vt 0.345030 0.988779
vt 0.345030 0.854921
vt 0.345030 0.854921
vt 0.234793 0.854921
vt 0.234793 0.988779
vt 0.730856 0.870669
vt 0.730856 0.988779
vt 0.990699 0.870669
vt 0.990699 0.988779
vt 0.990699 0.870669
vt 0.730856 0.988779
vt 0.730856 0.988779
vt 0.990699 0.870669
vt 0.990699 0.988779
vt 0.250542 0.083267
vt 0.211171 0.177755
vt 0.305660 0.177755
vt 0.305660 0.177755
vt 0.211171 0.177755
vt 0.305660 0.217125
vt 0.037943 0.516338
vt 0.037943 0.413976
vt 0.526132 0.516338
vt 0.037943 0.413976
vt 0.037943 0.516338
vt 0.526132 0.516338
vt 0.313534 0.083267
vt 0.423770 0.012401
vt 0.423770 0.146259
vt 0.423770 0.146259
vt 0.423770 0.012401
vt 0.313534 0.083267
vt 0.124557 0.012401
vt 0.053691 0.185629
vt 0.179675 0.138385
vt 0.226919 0.831299
vt 0.400148 0.831299
vt 0.447392 0.673818
vt 0.211171 0.563582
vt 0.211171 0.516338
vt 0.156053 0.563582
vt 0.305660 0.642322
vt 0.305660 0.516338
vt 0.211171 0.642322
vt 0.037943 0.413976
vt 0.526132 0.413976
vt 0.526132 0.516338
vt 0.368652 0.311614
vt 0.368652 0.256496
vt 0.305660 0.217125
vt 0.368652 0.516338
vt 0.368652 0.563582
vt 0.305660 0.563582
vt 0.156053 0.516338
vt 0.156053 0.721062
vt 0.037943 0.721062
vt 0.392274 0.831299
vt 0.226919 0.831299
vt 0.439518 0.673818
vt 0.305660 0.311614
vt 0.211171 0.311614
vt 0.211171 0.177755
vt 0.211171 0.256496
vt 0.211171 0.311614
vt 0.163927 0.217125
vt 0.037943 0.413976
vt 0.526132 0.413976
vt 0.526132 0.311614
vt 0.037943 0.413976
vt 0.526132 0.516338
vt 0.526132 0.413976
vt 0.211171 0.311614
vt 0.305660 0.311614
vt 0.211171 0.177755
vt 0.305660 0.217125
vt 0.211171 0.177755
vt 0.305660 0.311614
vt 0.305660 0.311614
vt 0.211171 0.177755
vt 0.305660 0.217125
vt 0.305660 0.177755
vt 0.305660 0.217125
vt 0.211171 0.177755
vt 0.211171 0.177755
vt 0.250542 0.083267
vt 0.305660 0.177755
vt 0.179675 0.138385
vt 0.053691 0.185629
vt 0.163927 0.217125
vt 0.156053 0.311614
vt 0.163927 0.217125
vt 0.053691 0.185629
vt 0.053691 0.185629
vt 0.037943 0.311614
vt 0.156053 0.311614
vt 0.053691 0.185629
vt 0.156053 0.311614
vt 0.037943 0.311614
vt 0.368652 0.177755
vt 0.526132 0.311614
vt 0.368652 0.256496
vt 0.368652 0.311614
vt 0.368652 0.256496
vt 0.526132 0.311614
vt 0.526132 0.311614
vt 0.368652 0.256496
vt 0.368652 0.311614
vt 0.463140 0.642322
vt 0.526132 0.516338
vt 0.368652 0.642322
vt 0.368652 0.563582
vt 0.368652 0.642322
vt 0.526132 0.516338
vt 0.526132 0.516338
vt 0.368652 0.516338
vt 0.368652 0.563582
vt 0.368652 0.563582
vt 0.368652 0.516338
vt 0.305660 0.563582
vt 0.305660 0.516338
vt 0.305660 0.563582
vt 0.368652 0.516338
vt 0.368652 0.516338
vt 0.305660 0.563582
vt 0.305660 0.516338
vt 0.226919 0.831299
vt 0.447392 0.673818
vt 0.179675 0.673818
vt 0.226919 0.831299
vt 0.179675 0.673818
vt 0.447392 0.673818
vt 0.447392 0.673818
vt 0.400148 0.831299
vt 0.226919 0.831299
vt 0.156053 0.721062
vt 0.156053 0.516338
vt 0.037943 0.721062
vt 0.037943 0.516338
vt 0.037943 0.721062
vt 0.156053 0.516338
vt 0.156053 0.516338
vt 0.037943 0.721062
vt 0.037943 0.516338
vt 0.156053 0.563582
vt 0.211171 0.516338
vt 0.156053 0.516338
vt 0.156053 0.563582
vt 0.156053 0.516338
vt 0.211171 0.516338
vt 0.211171 0.516338
vt 0.211171 0.563582
vt 0.156053 0.563582
vt 0.211171 0.642322
vt 0.305660 0.516338
vt 0.211171 0.516338
vt 0.211171 0.642322
vt 0.211171 0.516338
vt 0.305660 0.516338
vt 0.305660 0.516338
vt 0.305660 0.642322
vt 0.211171 0.642322
vt 0.392274 0.831299
vt 0.439518 0.673818
vt 0.226919 0.831299
vt 0.171801 0.673818
vt 0.226919 0.831299
vt 0.439518 0.673818
vt 0.439518 0.673818
vt 0.226919 0.831299
vt 0.171801 0.673818
vt 0.368652 0.256496
vt 0.526132 0.311614
vt 0.368652 0.177755
vt 0.463140 0.177755
vt 0.368652 0.177755
vt 0.526132 0.311614
vt 0.526132 0.311614
vt 0.368652 0.177755
vt 0.463140 0.177755
vt 0.368652 0.516338
vt 0.526132 0.516338
vt 0.368652 0.563582
vt 0.368652 0.642322
vt 0.368652 0.563582
vt 0.526132 0.516338
vt 0.526132 0.516338
vt 0.463140 0.642322
vt 0.368652 0.642322
vt 0.156053 0.311614
vt 0.053691 0.185629
vt 0.163927 0.217125
vt 0.179675 0.138385
vt 0.163927 0.217125
vt 0.053691 0.185629
vt 0.053691 0.185629
vt 0.124557 0.012401
vt 0.179675 0.138385
vt 0.368652 0.256496
vt 0.368652 0.311614
vt 0.305660 0.217125
vt 0.305660 0.311614
vt 0.305660 0.217125
vt 0.368652 0.311614
vt 0.368652 0.311614
vt 0.305660 0.217125
vt 0.305660 0.311614
vt 0.163927 0.217125
vt 0.211171 0.311614
vt 0.156053 0.311614
vt 0.163927 0.217125
vt 0.156053 0.311614
vt 0.211171 0.311614
vt 0.211171 0.311614
vt 0.211171 0.256496
vt 0.163927 0.217125
vt 0.037943 0.413976
vt 0.526132 0.311614
vt 0.037943 0.311614
vt 0.037943 0.413976
vt 0.037943 0.311614
vt 0.526132 0.311614
vt 0.526132 0.311614
vt 0.526132 0.413976
vt 0.037943 0.413976
vn 0.9857 0.0488 0.1616
vn 1.0000 -0.0000 0.0000
vn -1.0000 0.0000 0.0000
vn 0.0000 -0.0202 -0.9998
vn -0.0000 -0.9435 -0.3314
vn 0.0000 -0.0202 0.9998
vn -0.9775 0.0703 -0.1991
vn 0.9775 0.0703 -0.1991
vn 0.0000 -0.9435 0.3314
vn -0.6573 0.1506 -0.7384
vn 0.9796 -0.0725 0.1876
vn 0.0000 -0.7771 -0.6294
vn 0.9776 0.1058 0.1818
vn 0.0000 -0.1913 -0.9815
vn 0.0000 0.0000 -1.0000
vn -0.6584 0.1494 -0.7377
vn 0.6584 0.1494 -0.7377
vn 0.7480 0.0255 -0.6632
vn -0.9776 0.1058 -0.1818
vn 0.0000 -0.7771 0.6294
vn 0.0000 -0.1913 0.9815
vn -0.9449 0.0626 -0.3214
vn 0.6102 -0.3973 0.6855
vn -0.6584 0.1494 0.7377
vn 0.6584 0.1494 0.7377
vn -0.8894 0.0000 -0.4571
vn -0.9857 0.0488 0.1616
vn -0.9402 0.0466 0.3374
vn -0.9449 0.0626 0.3214
vn -0.9479 0.0658 0.3117
vn -0.9314 0.2704 0.2435
vn -0.9319 0.2707 0.2415
vn 0.9857 0.0488 -0.1616
vn 0.9402 0.0466 -0.3374
vn 0.9449 0.0626 -0.3214
vn 0.9479 0.0658 -0.3117
vn 0.9314 0.2704 -0.2435
vn 0.9319 0.2707 -0.2415
vn -0.6573 0.1506 0.7384
vn -0.6102 -0.3973 0.6855
vn -0.6102 -0.3973 -0.6855
vn 0.6102 -0.3973 -0.6855
vn 0.6573 0.1506 -0.7384
vn 0.6573 0.1506 0.7384
vn 0.9402 0.0466 0.3374
vn 0.9449 0.0626 0.3214
vn 0.9479 0.0658 0.3117
vn 0.9314 0.2704 0.2435
vn 0.9319 0.2707 0.2415
vn 0.9796 -0.0725 -0.1876
vn -0.9796 -0.0725 -0.1876
vn -0.9402 0.0466 -0.3374
vn -0.9857 0.0488 -0.1616
vn 0.0000 0.3308 0.9437
vn 0.0000 0.9566 0.2913
vn 0.0000 0.0000 1.0000
vn -0.6655 -0.0349 -0.7456
vn 0.6655 -0.0349 -0.7456
vn 0.7482 -0.0132 -0.6634
vn 0.7482 -0.0132 0.6634
vn -0.9776 0.1058 0.1818
vn 0.0000 0.3308 -0.9437
vn 0.0000 0.9566 -0.2913
vn 0.7480 0.0255 0.6632
vn 0.8892 -0.0188 0.4570
vn 0.8894 -0.0000 0.4571
vn -0.7482 -0.0132 -0.6634
vn -0.7482 -0.0132 0.6634
vn -0.6655 -0.0349 0.7456
vn 0.6655 -0.0349 0.7456
vn 0.9776 0.1058 -0.1818
vn -0.8892 -0.0188 -0.4570
vn -0.8894 0.0000 0.4571
vn -0.9398 0.0069 0.3416
vn -0.9571 0.0693 0.2814
vn -0.9558 0.0000 0.2940
vn -0.9796 -0.0725 0.1876
vn -0.9775 0.0703 0.1991
vn 0.9775 0.0703 0.1991
vn 0.0000 -0.7431 -0.6692
vn 0.8892 -0.0188 -0.4570
vn 0.8894 -0.0000 -0.4571
vn 0.9558 -0.0000 0.2940
vn 0.9571 0.0693 0.2814
vn 0.9398 0.0069 0.3416
vn -0.9558 0.0000 -0.2940
vn -0.9571 0.0693 -0.2814
vn -0.9398 0.0069 -0.3416
vn -0.9479 0.0658 -0.3117
vn -0.9314 0.2704 -0.2435
vn -0.9319 0.2707 -0.2415
vn 0.9398 0.0069 -0.3416
vn 0.9571 0.0693 -0.2814
vn 0.9558 -0.0000 -0.2940
vn 0.0000 -0.7431 0.6692
vn -0.8892 -0.0188 0.4570
vn -0.7480 0.0255 0.6632
vn -0.7480 0.0255 -0.6632
vn 0.0000 0.9998 0.0183
vn 0.0000 0.9967 0.0817
o base
usemtl Brush.026
f 1/1/1 2/2/1 3/3/1
f 4/4/2 5/5/2 6/6/2
f 7/7/3 8/8/3 9/9/3
f 10/10/3 11/11/3 12/12/3
f 13/13/4 14/14/4 15/15/4
f 16/16/4 17/17/4 18/18/4
f 19/19/5 20/20/5 21/21/5
f 22/22/5 23/23/5 24/24/5
f 25/25/2 26/26/2 27/27/2
f 28/28/2 29/29/2 30/30/2
f 31/31/2 32/32/2 33/33/2
f 34/34/2 35/35/2 36/36/2
f 37/37/3 38/38/3 39/39/3
f 40/40/2 41/41/2 42/42/2
f 43/43/6 44/44/6 45/45/6
f 46/46/6 47/47/6 48/48/6
f 49/49/3 50/50/3 51/51/3
f 52/52/3 53/53/3 54/54/3
f 55/55/7 56/56/7 57/57/7
f 58/58/8 59/59/8 60/60/8
f 61/61/9 62/62/9 63/63/9
f 64/64/9 65/65/9 66/66/9
f 67/67/2 68/68/2 69/69/2
f 70/70/2 71/71/2 72/72/2
f 73/73/2 74/74/2 75/75/2
f 76/76/2 77/77/2 78/78/2
f 79/79/10 80/80/10 81/81/10
f 82/82/3 83/83/3 84/84/3
f 85/85/3 86/86/3 87/87/3
f 88/88/3 89/89/3 90/90/3
f 91/91/11 92/92/11 93/93/11
f 94/94/3 95/95/3 96/96/3
f 97/97/3 98/98/3 99/99/3
f 100/100/12 101/101/12 102/102/12
f 103/103/13 104/104/13 105/105/13
f 106/106/14 107/107/14 108/108/14
f 109/109/15 110/110/15 111/111/15
f 112/112/3 113/113/3 114/114/3
f 115/115/16 116/116/16 117/117/16
f 118/118/17 119/119/17 120/120/17
f 121/121/3 122/122/3 123/123/3
f 124/124/2 125/125/2 126/126/2
f 127/127/2 128/128/2 129/129/2
f 130/130/2 131/131/2 132/132/2
f 133/133/2 134/134/2 135/135/2
f 136/136/18 137/137/18 138/138/18
f 139/139/19 140/140/19 141/141/19
f 142/142/2 143/143/2 144/144/2
f 145/145/3 146/146/3 147/147/3
f 148/148/20 149/149/20 150/150/20
f 151/151/3 152/152/3 153/153/3
f 154/154/21 155/155/21 156/156/21
f 157/157/22 158/158/22 159/159/22
f 160/160/2 161/161/2 162/162/2
f 163/163/23 164/164/23 165/165/23
f 166/166/24 167/167/24 168/168/24
f 169/169/25 170/170/25 171/171/25
f 172/172/26 173/173/26 174/174/26
f 175/175/27 176/176/27 177/177/27
f 178/178/28 179/179/28 180/180/28
f 181/181/29 182/182/29 183/183/29
f 184/184/30 185/185/30 186/186/30
f 187/187/31 188/188/31 189/189/31
f 190/190/32 191/191/32 192/192/32
f 193/193/33 194/194/33 195/195/33
f 196/196/34 197/197/34 198/198/34
f 199/199/35 200/200/35 201/201/35
f 202/202/36 203/203/36 204/204/36
f 205/205/37 206/206/37 207/207/37
f 208/208/38 209/209/38 210/210/38
f 211/211/39 212/212/39 213/213/39
f 214/214/40 215/215/40 216/216/40
f 217/217/41 218/218/41 219/219/41
f 220/220/42 221/221/42 222/222/42
f 223/223/43 224/224/43 225/225/43
f 226/226/44 227/227/44 228/228/44
f 229/229/45 230/230/45 231/231/45
f 232/232/46 233/233/46 234/234/46
f 235/235/47 236/236/47 237/237/47
f 238/238/48 239/239/48 240/240/48
f 241/241/49 242/242/49 243/243/49
f 244/244/50 245/245/50 246/246/50
f 247/247/51 248/248/51 249/249/51
f 250/250/52 251/251/52 252/252/52
f 253/253/53 254/254/53 255/255/53
f 256/256/3 257/257/3 258/258/3
f 259/259/54 260/260/54 261/261/54
f 262/262/55 263/263/55 264/264/55
f 265/265/55 266/266/55 267/267/55
f 268/268/56 269/269/56 270/270/56
f 271/271/56 272/272/56 273/273/56
f 274/274/57 275/275/57 276/276/57
f 277/277/58 278/278/58 279/279/58
f 280/280/59 281/281/59 282/282/59
f 283/283/60 284/284/60 285/285/60
f 286/286/61 287/287/61 288/288/61
f 289/289/3 290/290/3 291/291/3
f 292/292/2 293/293/2 294/294/2
f 295/295/2 296/296/2 297/297/2
f 298/298/62 299/299/62 300/300/62
f 301/301/63 302/302/63 303/303/63
f 304/304/63 305/305/63 306/306/63
f 307/307/15 308/308/15 309/309/15
f 310/310/3 311/311/3 312/312/3
f 313/313/3 314/314/3 315/315/3
f 316/316/3 317/317/3 318/318/3
f 319/319/3 320/320/3 321/321/3
f 322/322/64 323/323/64 324/324/64
f 325/325/65 326/326/65 327/327/65
f 328/328/66 329/329/66 330/330/66
f 331/331/66 332/332/66 333/333/66
f 334/334/67 335/335/67 336/336/67
f 337/337/68 338/338/68 339/339/68
f 340/340/69 341/341/69 342/342/69
f 343/343/70 344/344/70 345/345/70
f 346/346/2 347/347/2 348/348/2
f 349/349/2 350/350/2 351/351/2
f 352/352/2 353/353/2 354/354/2
f 355/355/2 356/356/2 357/357/2
f 358/358/2 359/359/2 360/360/2
f 361/361/2 362/362/2 363/363/2
f 364/364/2 365/365/2 366/366/2
f 367/367/2 368/368/2 369/369/2
f 370/370/3 371/371/3 372/372/3
f 373/373/3 374/374/3 375/375/3
f 376/376/3 377/377/3 378/378/3
f 379/379/3 380/380/3 381/381/3
f 382/382/3 383/383/3 384/384/3
f 385/385/3 386/386/3 387/387/3
f 388/388/2 389/389/2 390/390/2
f 391/391/71 392/392/71 393/393/71
f 394/394/72 395/395/72 396/396/72
f 397/397/26 398/398/26 399/399/26
f 400/400/73 401/401/73 402/402/73
f 403/403/73 404/404/73 405/405/73
f 406/406/74 407/407/74 408/408/74
f 409/409/75 410/410/75 411/411/75
f 412/412/76 413/413/76 414/414/76
f 415/415/77 416/416/77 417/417/77
f 418/418/78 419/419/78 420/420/78
f 421/421/79 422/422/79 423/423/79
f 424/424/3 425/425/3 426/426/3
f 427/427/3 428/428/3 429/429/3
f 430/430/2 431/431/2 432/432/2
f 433/433/14 434/434/14 435/435/14
f 436/436/80 437/437/80 438/438/80
f 439/439/80 440/440/80 441/441/80
f 442/442/81 443/443/81 444/444/81
f 445/445/82 446/446/82 447/447/82
f 448/448/82 449/449/82 450/450/82
f 451/451/83 452/452/83 453/453/83
f 454/454/84 455/455/84 456/456/84
f 457/457/85 458/458/85 459/459/85
f 460/460/86 461/461/86 462/462/86
f 463/463/87 464/464/87 465/465/87
f 466/466/88 467/467/88 468/468/88
f 469/469/89 470/470/89 471/471/89
f 472/472/90 473/473/90 474/474/90
f 475/475/91 476/476/91 477/477/91
f 478/478/92 479/479/92 480/480/92
f 481/481/93 482/482/93 483/483/93
f 484/484/94 485/485/94 486/486/94
f 487/487/21 488/488/21 489/489/21
f 490/490/95 491/491/95 492/492/95
f 493/493/95 494/494/95 495/495/95
f 496/496/96 497/497/96 498/498/96
f 499/499/97 500/500/97 501/501/97
f 502/502/98 503/503/98 504/504/98
f 505/505/3 506/506/3 507/507/3
f 508/508/3 509/509/3 510/510/3
f 511/511/82 512/512/82 513/513/82
f 514/514/26 515/515/26 516/516/26
f 517/517/99 518/518/99 519/519/99
f 520/520/100 521/521/100 522/522/100
f 523/523/3 524/524/3 525/525/3
f 526/526/3 527/527/3 528/528/3
f 529/529/3 530/530/3 531/531/3
f 532/532/3 533/533/3 534/534/3
f 535/535/82 536/536/82 537/537/82
f 538/538/3 539/539/3 540/540/3
f 541/541/2 542/542/2 543/543/2
f 544/544/2 545/545/2 546/546/2
f 547/547/2 548/548/2 549/549/2
f 550/550/2 551/551/2 552/552/2
f 553/553/2 554/554/2 555/555/2
f 556/556/73 557/557/73 558/558/73
f 559/559/26 560/560/26 561/561/26
f 562/562/3 563/563/3 564/564/3
f 565/565/3 566/566/3 567/567/3
f 568/568/2 569/569/2 570/570/2
f 571/571/2 572/572/2 573/573/2
f 574/574/2 575/575/2 576/576/2
f 577/577/3 578/578/3 579/579/3
f 580/580/3 581/581/3 582/582/3
f 583/583/3 584/584/3 585/585/3
f 586/586/2 587/587/2 588/588/2
f 589/589/2 590/590/2 591/591/2
f 592/592/2 593/593/2 594/594/2
f 595/595/3 596/596/3 597/597/3
f 598/598/3 599/599/3 600/600/3
f 601/601/3 602/602/3 603/603/3
f 604/604/3 605/605/3 606/606/3
f 607/607/3 608/608/3 609/609/3
f 610/610/3 611/611/3 612/612/3
f 613/613/2 614/614/2 615/615/2
f 616/616/3 617/617/3 618/618/3
f 619/619/2 620/620/2 621/621/2
f 622/622/2 623/623/2 624/624/2
f 625/625/3 626/626/3 627/627/3
f 628/628/3 629/629/3 630/630/3
f 631/631/2 632/632/2 633/633/2
f 634/634/3 635/635/3 636/636/3
f 637/637/2 638/638/2 639/639/2
f 640/640/2 641/641/2 642/642/2
f 643/643/3 644/644/3 645/645/3
f 646/646/2 647/647/2 648/648/2
f 649/649/2 650/650/2 651/651/2
f 652/652/3 653/653/3 654/654/3
f 655/655/3 656/656/3 657/657/3
f 658/658/2 659/659/2 660/660/2
f 661/661/3 662/662/3 663/663/3
f 664/664/3 665/665/3 666/666/3
f 667/667/2 668/668/2 669/669/2
f 670/670/2 671/671/2 672/672/2
f 673/673/2 674/674/2 675/675/2
f 676/676/2 677/677/2 678/678/2
f 679/679/2 680/680/2 681/681/2
f 682/682/2 683/683/2 684/684/2
f 685/685/2 686/686/2 687/687/2
f 688/688/2 689/689/2 690/690/2
f 691/691/2 692/692/2 693/693/2
f 694/694/3 695/695/3 696/696/3
f 697/697/2 698/698/2 699/699/2
f 700/700/3 701/701/3 702/702/3
f 703/703/3 704/704/3 705/705/3
f 706/706/73 707/707/73 708/708/73
f 709/709/66 710/710/66 711/711/66
f 712/712/66 713/713/66 714/714/66
