mtllib earthshaker.mtl
v -0.000005 -29.465502 2.391600
v -0.000004 -23.995501 2.391600
v -0.000004 -23.995501 -2.391600
v -0.000004 -23.995501 2.391600
v -0.000005 -29.465502 2.391600
v -0.000004 -23.995501 -2.391600
v -0.000005 -29.465502 -2.391600
v -0.000005 -29.465502 2.391600
v -0.000004 -23.995501 -2.391600
v -0.000005 -29.465502 2.391600
v -0.000005 -29.465502 -2.391600
v -0.000004 -23.995501 -2.391600
v -1.951106 -37.506504 0.000000
v -1.951105 -33.048100 0.000000
v 1.951095 -33.048100 0.000000
v -1.951105 -33.048100 0.000000
v -1.951106 -37.506504 0.000000
v 1.951095 -33.048100 0.000000
v 1.951094 -37.506504 0.000000
v -1.951106 -37.506504 0.000000
v 1.951095 -33.048100 0.000000
v -1.951106 -37.506504 0.000000
v 1.951094 -37.506504 0.000000
v 1.951095 -33.048100 0.000000
v -1.951105 -26.059099 0.000000
v -1.951104 -21.600700 0.000000
v 1.951096 -21.600700 0.000000
v -1.951104 -21.600700 0.000000
v -1.951105 -26.059099 0.000000
v 1.951096 -21.600700 0.000000
v 1.951095 -26.059099 0.000000
v -1.951105 -26.059099 0.000000
v 1.951096 -21.600700 0.000000
v -1.951105 -26.059099 0.000000
v 1.951095 -26.059099 0.000000
v 1.951096 -21.600700 0.000000
v -1.951105 -31.782801 0.000000
v -1.951105 -27.324402 0.000000
v 1.951095 -27.324402 0.000000
v -1.951105 -27.324402 0.000000
v -1.951105 -31.782801 0.000000
v 1.951095 -27.324402 0.000000
v 1.951095 -31.782801 0.000000
v -1.951105 -31.782801 0.000000
v 1.951095 -27.324402 0.000000
v -1.951105 -31.782801 0.000000
v 1.951095 -31.782801 0.000000
v 1.951095 -27.324402 0.000000
v -0.000005 -35.190201 2.391600
v -0.000005 -29.721302 2.391600
v -0.000005 -29.721302 -2.391600
v -0.000005 -29.721302 2.391600
v -0.000005 -35.190201 2.391600
v -0.000005 -29.721302 -2.391600
v -0.000005 -35.190201 -2.391600
v -0.000005 -35.190201 2.391600
v -0.000005 -29.721302 -2.391600
v -0.000005 -35.190201 2.391600
v -0.000005 -35.190201 -2.391600
v -0.000005 -29.721302 -2.391600
v -0.000006 -35.705101 -1.576400
v -0.000006 -38.353600 -1.576400
v -0.000006 -35.705101 0.000000
v -0.000004 -19.417200 0.398100
v -0.000003 -18.270700 0.578500
v -0.000003 -18.270700 2.391600
v -0.000006 -35.705101 1.576400
v -0.000006 -38.353600 1.576400
v -0.000006 -35.705101 0.000000
v -0.000003 -18.270700 0.578500
v -0.000004 -19.417200 0.398100
v -0.000003 -18.270700 2.391600
v -0.000004 -19.417200 0.398100
v -0.000003 -18.270700 0.578500
v -0.000004 -19.417200 -0.398100
v -0.000003 -18.270700 -0.578500
v -0.000004 -19.417200 -0.398100
v -0.000003 -18.270700 0.578500
v -0.000003 -18.270700 0.578500
v -0.000003 -15.694401 2.141100
v -0.000003 -18.270700 -0.578500
v -0.000003 -15.694401 -1.798200
v -0.000003 -18.270700 -0.578500
v -0.000003 -15.694401 2.141100
v -0.000003 -15.694401 2.141100
v -0.000003 -14.333601 1.336400
v -0.000003 -15.694401 -1.798200
v -0.000003 -14.333601 -1.336400
v -0.000003 -15.694401 -1.798200
v -0.000003 -14.333601 1.336400
v -0.000003 -14.333601 1.336400
v -0.000003 -13.795402 0.000000
v -0.000003 -14.333601 -1.336400
v -0.000003 -13.795402 0.000000
v -0.000003 -14.333601 1.336400
v -0.000003 -14.333601 -1.336400
v -0.000003 -15.694401 -1.798200
v -0.000003 -14.333601 -1.336400
v -0.000003 -14.333601 1.336400
v -0.000003 -14.333601 1.336400
v -0.000003 -15.694401 2.141100
v -0.000003 -15.694401 -1.798200
v -0.000003 -18.270700 -0.578500
v -0.000003 -15.694401 -1.798200
v -0.000003 -15.694401 2.141100
v -0.000003 -15.694401 2.141100
v -0.000003 -18.270700 0.578500
v -0.000003 -18.270700 -0.578500
v -0.000004 -19.417200 -0.398100
v -0.000003 -18.270700 -0.578500
v -0.000003 -18.270700 0.578500
v -0.000003 -18.270700 0.578500
v -0.000004 -19.417200 0.398100
v -0.000004 -19.417200 -0.398100
v -0.000003 -18.270700 -0.578500
v -0.000004 -19.417200 -0.398100
v -0.000003 -18.270700 -2.391600
v -0.000004 -23.740700 -2.391600
v -0.000003 -18.270700 -2.391600
v -0.000004 -19.417200 -0.398100
v -0.000004 -19.417200 -0.398100
v -0.000004 -19.417200 0.398100
v -0.000004 -23.740700 -2.391600
v -0.000004 -23.740700 2.391600
v -0.000004 -23.740700 -2.391600
v -0.000004 -19.417200 0.398100
v -0.000004 -19.417200 0.398100
v -0.000003 -18.270700 2.391600
v -0.000004 -23.740700 2.391600
v -0.000003 -18.270700 2.391600
v -0.000004 -19.417200 0.398100
v -0.000004 -23.740700 2.391600
v -0.000004 -23.740700 -2.391600
v -0.000004 -23.740700 2.391600
v -0.000004 -19.417200 0.398100
v -0.000004 -19.417200 0.398100
v -0.000004 -19.417200 -0.398100
v -0.000004 -23.740700 -2.391600
v -0.000003 -18.270700 -2.391600
v -0.000004 -23.740700 -2.391600
v -0.000004 -19.417200 -0.398100
v -0.000004 -19.417200 -0.398100
v -0.000003 -18.270700 -0.578500
v -0.000003 -18.270700 -2.391600
v -0.000006 -35.705101 -1.576400
v -0.000006 -35.705101 0.000000
v -0.000006 -38.353600 -1.576400
v -0.000006 -38.353600 0.000000
v -0.000006 -38.353600 -1.576400
v -0.000006 -35.705101 0.000000
v -0.000006 -35.705101 0.000000
v -0.000006 -38.353600 1.576400
v -0.000006 -38.353600 0.000000
v -0.000006 -43.348999 3.884100
v -0.000006 -38.353600 0.000000
v -0.000006 -38.353600 1.576400
v -0.000006 -38.353600 1.576400
v -0.000006 -38.353600 0.000000
v -0.000006 -43.348999 3.884100
v -0.000007 -49.575901 0.000000
v -0.000006 -43.348999 3.884100
v -0.000006 -38.353600 0.000000
v -0.000006 -38.353600 0.000000
v -0.000006 -43.348999 -3.884100
v -0.000007 -49.575901 0.000000
v -0.000006 -35.705101 1.576400
v -0.000006 -35.705101 0.000000
v -0.000006 -38.353600 1.576400
v -0.000006 -38.353600 0.000000
v -0.000006 -38.353600 1.576400
v -0.000006 -35.705101 0.000000
v -0.000006 -35.705101 0.000000
v -0.000006 -38.353600 -1.576400
v -0.000006 -38.353600 0.000000
v -0.000006 -43.348999 -3.884100
v -0.000006 -38.353600 0.000000
v -0.000006 -38.353600 -1.576400
v -0.000006 -38.353600 -1.576400
v -0.000006 -38.353600 0.000000
v -0.000006 -43.348999 -3.884100
v -0.000007 -49.575901 0.000000
v -0.000006 -43.348999 -3.884100
v -0.000006 -38.353600 0.000000
v -0.000006 -38.353600 0.000000
v -0.000006 -43.348999 3.884100
v -0.000007 -49.575901 0.000000
vt 0.294291 0.990221
vt 0.010826 0.990221
vt 0.010826 0.572898
vt 0.010826 0.990221
vt 0.294291 0.990221
vt 0.010826 0.572898
vt 0.294291 0.572898
vt 0.294291 0.990221
vt 0.010826 0.572898
vt 0.294291 0.990221
vt 0.294291 0.572898
vt 0.010826 0.572898
vt 0.987204 0.029591
vt 0.798228 0.029591
vt 0.798228 0.328804
vt 0.798228 0.029591
vt 0.987204 0.029591
vt 0.798228 0.328804
vt 0.987204 0.328804
vt 0.987204 0.029591
vt 0.798228 0.328804
vt 0.987204 0.029591
vt 0.987204 0.328804
vt 0.798228 0.328804
vt 0.987204 0.029591
vt 0.798228 0.029591
vt 0.798228 0.328804
vt 0.798228 0.029591
vt 0.987204 0.029591
vt 0.798228 0.328804
vt 0.987204 0.328804
vt 0.987204 0.029591
vt 0.798228 0.328804
vt 0.987204 0.029591
vt 0.987204 0.328804
vt 0.798228 0.328804
vt 0.987204 0.029591
vt 0.798228 0.029591
vt 0.798228 0.328804
vt 0.798228 0.029591
vt 0.987204 0.029591
vt 0.798228 0.328804
vt 0.987204 0.328804
vt 0.987204 0.029591
vt 0.798228 0.328804
vt 0.987204 0.029591
vt 0.987204 0.328804
vt 0.798228 0.328804
vt 0.294291 0.990221
vt 0.010826 0.990221
vt 0.010826 0.572898
vt 0.010826 0.990221
vt 0.294291 0.990221
vt 0.010826 0.572898
vt 0.294291 0.572898
vt 0.294291 0.990221
vt 0.010826 0.572898
vt 0.294291 0.990221
vt 0.294291 0.572898
vt 0.010826 0.572898
vt 0.995078 0.446914
vt 0.869094 0.446914
vt 0.995078 0.604394
vt 0.065944 0.816993
vt 0.010826 0.832741
vt 0.010826 0.990221
vt 0.995078 0.754000
vt 0.869094 0.754000
vt 0.995078 0.604394
vt 0.010826 0.832741
vt 0.065944 0.816993
vt 0.010826 0.990221
vt 0.640747 0.147701
vt 0.522637 0.218567
vt 0.609251 0.045339
vt 0.475393 0.076835
vt 0.609251 0.045339
vt 0.522637 0.218567
vt 0.522637 0.218567
vt 0.294291 0.525654
vt 0.475393 0.076835
vt 0.152558 0.029591
vt 0.475393 0.076835
vt 0.294291 0.525654
vt 0.294291 0.525654
vt 0.121062 0.486284
vt 0.152558 0.029591
vt 0.018700 0.147701
vt 0.152558 0.029591
vt 0.121062 0.486284
vt 0.121062 0.486284
vt 0.010826 0.344552
vt 0.018700 0.147701
vt 0.010826 0.344552
vt 0.121062 0.486284
vt 0.018700 0.147701
vt 0.152558 0.029591
vt 0.018700 0.147701
vt 0.121062 0.486284
vt 0.121062 0.486284
vt 0.294291 0.525654
vt 0.152558 0.029591
vt 0.475393 0.076835
vt 0.152558 0.029591
vt 0.294291 0.525654
vt 0.294291 0.525654
vt 0.522637 0.218567
vt 0.475393 0.076835
vt 0.609251 0.045339
vt 0.475393 0.076835
vt 0.522637 0.218567
vt 0.522637 0.218567
vt 0.640747 0.147701
vt 0.609251 0.045339
vt 0.010826 0.730378
vt 0.065944 0.746126
vt 0.010826 0.572898
vt 0.294291 0.572898
vt 0.010826 0.572898
vt 0.065944 0.746126
vt 0.065944 0.746126
vt 0.065944 0.816993
vt 0.294291 0.572898
vt 0.294291 0.990221
vt 0.294291 0.572898
vt 0.065944 0.816993
vt 0.065944 0.816993
vt 0.010826 0.990221
vt 0.294291 0.990221
vt 0.010826 0.990221
vt 0.065944 0.816993
vt 0.294291 0.990221
vt 0.294291 0.572898
vt 0.294291 0.990221
vt 0.065944 0.816993
vt 0.065944 0.816993
vt 0.065944 0.746126
vt 0.294291 0.572898
vt 0.010826 0.572898
vt 0.294291 0.572898
vt 0.065944 0.746126
vt 0.065944 0.746126
vt 0.010826 0.730378
vt 0.010826 0.572898
vt 0.995078 0.446914
vt 0.995078 0.604394
vt 0.869094 0.446914
vt 0.869094 0.604394
vt 0.869094 0.446914
vt 0.995078 0.604394
vt 0.995078 0.604394
vt 0.869094 0.754000
vt 0.869094 0.604394
vt 0.617125 0.982347
vt 0.869094 0.604394
vt 0.869094 0.754000
vt 0.869094 0.754000
vt 0.869094 0.604394
vt 0.617125 0.982347
vt 0.310039 0.604394
vt 0.617125 0.982347
vt 0.869094 0.604394
vt 0.869094 0.604394
vt 0.617125 0.218567
vt 0.310039 0.604394
vt 0.995078 0.754000
vt 0.995078 0.604394
vt 0.869094 0.754000
vt 0.869094 0.604394
vt 0.869094 0.754000
vt 0.995078 0.604394
vt 0.995078 0.604394
vt 0.869094 0.446914
vt 0.869094 0.604394
vt 0.617125 0.218567
vt 0.869094 0.604394
vt 0.869094 0.446914
vt 0.869094 0.446914
vt 0.869094 0.604394
vt 0.617125 0.218567
vt 0.310039 0.604394
vt 0.617125 0.218567
vt 0.869094 0.604394
vt 0.869094 0.604394
vt 0.617125 0.982347
vt 0.310039 0.604394
vn -1.0000 0.0000 0.0000
vn 1.0000 -0.0000 0.0000
vn 0.0000 0.0000 -1.0000
vn 0.0000 0.0000 1.0000
o keychain
usemtl Brush.025
f 1/1/1 2/2/1 3/3/1
f 4/4/2 5/5/2 6/6/2
f 7/7/1 8/8/1 9/9/1
f 10/10/2 11/11/2 12/12/2
f 13/13/3 14/14/3 15/15/3
f 16/16/4 17/17/4 18/18/4
f 19/19/3 20/20/3 21/21/3
f 22/22/4 23/23/4 24/24/4
f 25/25/3 26/26/3 27/27/3
f 28/28/4 29/29/4 30/30/4
f 31/31/3 32/32/3 33/33/3
f 34/34/4 35/35/4 36/36/4
f 37/37/3 38/38/3 39/39/3
f 40/40/4 41/41/4 42/42/4
f 43/43/3 44/44/3 45/45/3
f 46/46/4 47/47/4 48/48/4
f 49/49/1 50/50/1 51/51/1
f 52/52/2 53/53/2 54/54/2
f 55/55/1 56/56/1 57/57/1
f 58/58/2 59/59/2 60/60/2
f 61/61/1 62/62/1 63/63/1
f 64/64/2 65/65/2 66/66/2
f 67/67/2 68/68/2 69/69/2
f 70/70/1 71/71/1 72/72/1
f 73/73/1 74/74/1 75/75/1
f 76/76/1 77/77/1 78/78/1
f 79/79/1 80/80/1 81/81/1
f 82/82/1 83/83/1 84/84/1
f 85/85/1 86/86/1 87/87/1
f 88/88/1 89/89/1 90/90/1
f 91/91/1 92/92/1 93/93/1
f 94/94/2 95/95/2 96/96/2
f 97/97/2 98/98/2 99/99/2
f 100/100/2 101/101/2 102/102/2
f 103/103/2 104/104/2 105/105/2
f 106/106/2 107/107/2 108/108/2
f 109/109/2 110/110/2 111/111/2
f 112/112/2 113/113/2 114/114/2
f 115/115/2 116/116/2 117/117/2
f 118/118/2 119/119/2 120/120/2
f 121/121/2 122/122/2 123/123/2
f 124/124/2 125/125/2 126/126/2
f 127/127/2 128/128/2 129/129/2
f 130/130/1 131/131/1 132/132/1
f 133/133/1 134/134/1 135/135/1
f 136/136/1 137/137/1 138/138/1
f 139/139/1 140/140/1 141/141/1
f 142/142/1 143/143/1 144/144/1
f 145/145/2 146/146/2 147/147/2
f 148/148/2 149/149/2 150/150/2
f 151/151/2 152/152/2 153/153/2
f 154/154/2 155/155/2 156/156/2
f 157/157/1 158/158/1 159/159/1
f 160/160/1 161/161/1 162/162/1
f 163/163/1 164/164/1 165/165/1
f 166/166/1 167/167/1 168/168/1
f 169/169/1 170/170/1 171/171/1
f 172/172/1 173/173/1 174/174/1
f 175/175/1 176/176/1 177/177/1
f 178/178/2 179/179/2 180/180/2
f 181/181/2 182/182/2 183/183/2
f 184/184/2 185/185/2 186/186/2
