mtllib endsoftheearth.mtl
v -0.000003 -16.077011 0.000000
v -0.000003 -16.617111 1.336100
v -0.000003 -16.617111 -1.336100
v -0.000004 -17.977011 -1.798100
v -0.000003 -16.617111 -1.336100
v -0.000003 -16.617111 1.336100
v -0.000003 -16.617111 1.336100
v -0.000004 -17.977011 2.141200
v -0.000004 -17.977011 -1.798100
v -0.000004 -20.587011 -0.574100
v -0.000004 -17.977011 -1.798100
v -0.000004 -17.977011 2.141200
v -0.000004 -17.977011 2.141200
v -0.000004 -20.587011 0.574100
v -0.000004 -20.587011 -0.574100
v -0.000004 -21.700010 -0.397400
v -0.000004 -20.587011 -0.574100
v -0.000004 -20.587011 0.574100
v -0.000004 -20.587011 0.574100
v -0.000004 -21.700010 0.397400
v -0.000004 -21.700010 -0.397400
v -0.000004 -20.587011 0.574100
v -0.000004 -21.700010 -0.397400
v -0.000004 -21.700010 0.397400
v -0.000003 -16.617111 -1.336100
v -0.000004 -17.977011 -1.798100
v -0.000003 -16.617111 1.336100
v -0.000004 -17.977011 2.141200
v -0.000003 -16.617111 1.336100
v -0.000004 -17.977011 -1.798100
v -0.000004 -17.977011 -1.798100
v -0.000004 -20.587011 -0.574100
v -0.000004 -17.977011 2.141200
v -0.000004 -20.587011 0.574100
v -0.000004 -17.977011 2.141200
v -0.000004 -20.587011 -0.574100
v -0.000004 -20.587011 -0.574100
v -0.000004 -21.700010 -0.397400
v -0.000004 -20.587011 0.574100
v -0.000004 -21.700010 0.397400
v -0.000005 -27.294811 -2.779800
v -0.000004 -21.700010 -0.397400
v -0.000004 -20.587011 -2.779800
v -0.000004 -21.700010 -0.397400
v -0.000005 -27.294811 -2.779800
v -0.000005 -27.294811 -2.779800
v -0.000004 -21.700010 -0.397400
v -0.000004 -20.587011 -2.779800
v -0.000004 -20.587011 -0.574100
v -0.000004 -20.587011 -2.779800
v -0.000004 -21.700010 -0.397400
v -0.000007 -43.500412 -2.166100
v -0.000007 -45.077713 -0.593300
v -0.000006 -41.334312 0.000000
v -0.000007 -45.077713 -0.002300
v -0.000006 -41.334312 0.000000
v -0.000007 -45.077713 -0.593300
v -0.000007 -45.077713 -0.593300
v -0.000008 -52.281414 -2.750400
v -0.000007 -45.077713 -0.002300
v -0.000008 -54.178013 -0.002300
v -0.000007 -45.077713 -0.002300
v -0.000008 -52.281414 -2.750400
v -0.000007 -43.500412 2.166100
v -0.000007 -45.077713 0.588800
v -0.000006 -41.334312 0.000000
v -0.000007 -45.077713 -0.002300
v -0.000006 -41.334312 0.000000
v -0.000007 -45.077713 0.588800
v -0.000007 -45.077713 0.588800
v -0.000008 -52.281414 2.750400
v -0.000007 -45.077713 -0.002300
v -0.000008 -54.178013 -0.002300
v -0.000007 -45.077713 -0.002300
v -0.000008 -52.281414 2.750400
v -0.000006 -41.334312 0.000000
v -0.000007 -45.077713 -0.002300
v -0.000007 -45.077713 0.588800
v -0.000008 -52.281414 2.750400
v -0.000007 -45.077713 0.588800
v -0.000007 -45.077713 -0.002300
v -0.000007 -45.077713 -0.002300
v -0.000008 -54.178013 -0.002300
v -0.000008 -52.281414 2.750400
v -0.000008 -54.178013 -0.002300
v -0.000008 -52.281414 -2.750400
v -0.000007 -45.077713 -0.002300
v -0.000007 -45.077713 -0.593300
v -0.000007 -45.077713 -0.002300
v -0.000008 -52.281414 -2.750400
v -0.000008 -52.281414 -2.750400
v -0.000007 -47.552910 -4.337900
v -0.000007 -45.077713 -0.593300
v -0.000005 -27.778313 -2.779800
v -0.000006 -34.486111 2.779800
v -0.000006 -34.486111 -2.779800
v -0.000005 -27.778313 -2.779800
v -0.000006 -34.486111 -2.779800
v -0.000006 -34.486111 2.779800
v -0.000006 -34.486111 2.779800
v -0.000005 -27.778313 2.779800
v -0.000005 -27.778313 -2.779800
v -0.000006 -35.072613 -2.779800
v -0.000006 -41.780411 2.779800
v -0.000006 -35.072613 2.779800
v -0.000006 -35.072613 -2.779800
v -0.000006 -35.072613 2.779800
v -0.000006 -41.780411 2.779800
v -0.000006 -41.780411 2.779800
v -0.000006 -41.780411 -2.779800
v -0.000006 -35.072613 -2.779800
v -0.000005 -27.294811 2.779800
v -0.000005 -27.294811 -2.779800
v -0.000004 -21.700010 0.397400
v -0.000005 -27.294811 -2.779800
v -0.000005 -27.294811 2.779800
v -0.000004 -21.700010 0.397400
v -0.000004 -20.587011 2.779800
v -0.000005 -27.294811 2.779800
v -0.000004 -21.700010 0.397400
v -0.000005 -27.294811 2.779800
v -0.000004 -20.587011 2.779800
v -0.000004 -21.700010 0.397400
v -1.932907 -44.031410 0.000000
v -1.932906 -40.095512 0.000000
v 1.932794 -40.095512 0.000000
v -1.932906 -40.095512 0.000000
v -1.932907 -44.031410 0.000000
v 1.932794 -40.095512 0.000000
v 1.932793 -44.031410 0.000000
v -1.932907 -44.031410 0.000000
v 1.932794 -40.095512 0.000000
v -1.932907 -44.031410 0.000000
v 1.932793 -44.031410 0.000000
v 1.932794 -40.095512 0.000000
v -1.932905 -29.498312 0.000000
v -1.932904 -25.562309 0.000000
v 1.932796 -25.562309 0.000000
v -1.932904 -25.562309 0.000000
v -1.932905 -29.498312 0.000000
v 1.932796 -25.562309 0.000000
v 1.932795 -29.498312 0.000000
v -1.932905 -29.498312 0.000000
v 1.932796 -25.562309 0.000000
v -1.932905 -29.498312 0.000000
v 1.932795 -29.498312 0.000000
v 1.932796 -25.562309 0.000000
v -1.932906 -36.739410 0.000000
v -1.932905 -32.802315 0.000000
v 1.932795 -32.802315 0.000000
v -1.932905 -32.802315 0.000000
v -1.932906 -36.739410 0.000000
v 1.932795 -32.802315 0.000000
v 1.932794 -36.739410 0.000000
v -1.932906 -36.739410 0.000000
v 1.932795 -32.802315 0.000000
v -1.932906 -36.739410 0.000000
v 1.932794 -36.739410 0.000000
v 1.932795 -32.802315 0.000000
v -0.000006 -41.334312 0.000000
v -0.000007 -45.077713 -0.002300
v -0.000007 -45.077713 -0.593300
v -0.000007 -45.077713 -0.593300
v -0.000007 -43.500412 -2.166100
v -0.000006 -41.334312 0.000000
v -0.000007 -45.077713 0.588800
v -0.000007 -43.500412 2.166100
v -0.000006 -41.334312 0.000000
v -0.000007 -45.077713 0.588800
v -0.000008 -52.281414 2.750400
v -0.000007 -47.552910 4.333300
v -0.000008 -52.281414 -2.750400
v -0.000007 -45.077713 -0.593300
v -0.000007 -47.552910 -4.337900
v -0.000005 -27.778313 2.779800
v -0.000006 -34.486111 2.779800
v -0.000005 -27.778313 -2.779800
v -0.000006 -41.780411 -2.779800
v -0.000006 -41.780411 2.779800
v -0.000006 -35.072613 -2.779800
v -0.000008 -52.281414 2.750400
v -0.000007 -45.077713 0.588800
v -0.000007 -47.552910 4.333300
v -0.000004 -20.587011 0.574100
v -0.000004 -20.587011 2.779800
v -0.000004 -21.700010 0.397400
v -0.000004 -20.587011 -0.574100
v -0.000004 -21.700010 -0.397400
v -0.000004 -20.587011 -2.779800
v -0.000003 -16.617111 1.336100
v -0.000003 -16.077011 0.000000
v -0.000003 -16.617111 -1.336100
v -0.000004 -21.700010 0.397400
v -0.000004 -21.700010 -0.397400
v -0.000005 -27.294811 -2.779800
v -0.000004 -20.587011 2.779800
v -0.000004 -20.587011 0.574100
v -0.000004 -21.700010 0.397400
v -0.000001 -18.014200 -1.158800
v -0.000001 -18.014200 1.143200
v -0.000001 -13.460900 3.172100
v -0.000001 -13.460900 -3.187700
v -0.000001 -18.014200 -1.158800
v -0.000001 -13.460900 3.172100
v -0.000001 -18.014200 -1.158800
v -0.000001 -13.460900 -3.187700
v -0.000001 -13.460900 3.172100
v -0.000001 -18.014200 1.143200
v -0.000001 -18.014200 -1.158800
v -0.000001 -13.460900 3.172100
vt 0.992188 0.685039
vt 0.929196 0.551181
vt 0.984313 0.866142
vt 0.913447 0.976378
vt 0.984313 0.866142
vt 0.929196 0.551181
vt 0.929196 0.551181
vt 0.834707 0.511811
vt 0.913447 0.976378
vt 0.740219 0.944882
vt 0.913447 0.976378
vt 0.834707 0.511811
vt 0.834707 0.511811
vt 0.708722 0.811024
vt 0.740219 0.944882
vt 0.669352 0.968504
vt 0.740219 0.944882
vt 0.708722 0.811024
vt 0.708722 0.811024
vt 0.653605 0.874016
vt 0.669352 0.968504
vt 0.708722 0.811024
vt 0.669352 0.968504
vt 0.653605 0.874016
vt 0.984313 0.866142
vt 0.913447 0.976378
vt 0.929196 0.551181
vt 0.834707 0.511811
vt 0.929196 0.551181
vt 0.913447 0.976378
vt 0.913447 0.976378
vt 0.740219 0.944882
vt 0.834707 0.511811
vt 0.708722 0.811024
vt 0.834707 0.511811
vt 0.740219 0.944882
vt 0.740219 0.944882
vt 0.669352 0.968504
vt 0.708722 0.811024
vt 0.291400 0.732283
vt 0.000062 0.401575
vt 0.291400 0.653543
vt 0.346518 0.401575
vt 0.291400 0.653543
vt 0.000062 0.401575
vt 0.000062 0.401575
vt 0.291400 0.653543
vt 0.346518 0.401575
vt 0.346518 0.637795
vt 0.346518 0.401575
vt 0.291400 0.653543
vt 0.181164 0.338583
vt 0.299275 0.102362
vt 0.015810 0.007874
vt 0.299275 0.007874
vt 0.015810 0.007874
vt 0.299275 0.102362
vt 0.299275 0.102362
vt 0.842582 0.425197
vt 0.299275 0.007874
vt 0.984313 0.007874
vt 0.299275 0.007874
vt 0.842582 0.425197
vt 0.181164 0.338583
vt 0.299275 0.102362
vt 0.015810 0.007874
vt 0.299275 0.007874
vt 0.015810 0.007874
vt 0.299275 0.102362
vt 0.299275 0.102362
vt 0.842582 0.425197
vt 0.299275 0.007874
vt 0.984313 0.007874
vt 0.299275 0.007874
vt 0.842582 0.425197
vt 0.015810 0.007874
vt 0.299275 0.007874
vt 0.299275 0.102362
vt 0.842582 0.425197
vt 0.299275 0.102362
vt 0.299275 0.007874
vt 0.299275 0.007874
vt 0.984313 0.007874
vt 0.842582 0.425197
vt 0.984313 0.007874
vt 0.842582 0.425197
vt 0.299275 0.007874
vt 0.299275 0.102362
vt 0.299275 0.007874
vt 0.842582 0.425197
vt 0.842582 0.425197
vt 0.488250 0.669291
vt 0.299275 0.102362
vt 0.346518 0.401575
vt 0.000062 0.984252
vt 0.000062 0.401575
vt 0.346518 0.401575
vt 0.000062 0.401575
vt 0.000062 0.984252
vt 0.000062 0.984252
vt 0.346518 0.984252
vt 0.346518 0.401575
vt 0.346518 0.401575
vt 0.000062 0.984252
vt 0.346518 0.984252
vt 0.346518 0.401575
vt 0.346518 0.984252
vt 0.000062 0.984252
vt 0.000062 0.984252
vt 0.000062 0.401575
vt 0.346518 0.401575
vt 0.000062 0.984252
vt 0.000062 0.401575
vt 0.291400 0.732283
vt 0.000062 0.401575
vt 0.000062 0.984252
vt 0.291400 0.732283
vt 0.346518 0.984252
vt 0.000062 0.984252
vt 0.291400 0.732283
vt 0.000062 0.984252
vt 0.346518 0.984252
vt 0.291400 0.732283
vt 0.385888 0.984252
vt 0.622109 0.984252
vt 0.622109 0.724409
vt 0.622109 0.984252
vt 0.385888 0.984252
vt 0.622109 0.724409
vt 0.385888 0.724409
vt 0.385888 0.984252
vt 0.622109 0.724409
vt 0.385888 0.984252
vt 0.385888 0.724409
vt 0.622109 0.724409
vt 0.385888 0.984252
vt 0.622109 0.984252
vt 0.622109 0.724409
vt 0.622109 0.984252
vt 0.385888 0.984252
vt 0.622109 0.724409
vt 0.385888 0.724409
vt 0.385888 0.984252
vt 0.622109 0.724409
vt 0.385888 0.984252
vt 0.385888 0.724409
vt 0.622109 0.724409
vt 0.385888 0.984252
vt 0.622109 0.984252
vt 0.622109 0.724409
vt 0.622109 0.984252
vt 0.385888 0.984252
vt 0.622109 0.724409
vt 0.385888 0.724409
vt 0.385888 0.984252
vt 0.622109 0.724409
vt 0.385888 0.984252
vt 0.385888 0.724409
vt 0.622109 0.724409
vt 0.015810 0.007874
vt 0.299275 0.007874
vt 0.299275 0.102362
vt 0.299275 0.102362
vt 0.181164 0.338583
vt 0.015810 0.007874
vt 0.299275 0.102362
vt 0.181164 0.338583
vt 0.015810 0.007874
vt 0.299275 0.102362
vt 0.842582 0.425197
vt 0.488250 0.669291
vt 0.842582 0.425197
vt 0.299275 0.102362
vt 0.488250 0.669291
vt 0.346518 0.984252
vt 0.000062 0.984252
vt 0.346518 0.401575
vt 0.000062 0.401575
vt 0.000062 0.984252
vt 0.346518 0.401575
vt 0.842582 0.425197
vt 0.299275 0.102362
vt 0.488250 0.669291
vt 0.346518 0.755906
vt 0.346518 0.984252
vt 0.291400 0.732283
vt 0.346518 0.637795
vt 0.291400 0.653543
vt 0.346518 0.401575
vt 0.929196 0.551181
vt 0.992188 0.685039
vt 0.984313 0.866142
vt 0.291400 0.732283
vt 0.291400 0.653543
vt 0.000062 0.401575
vt 0.346518 0.984252
vt 0.346518 0.755906
vt 0.291400 0.732283
vt 0.927042 0.863547
vt 0.966412 0.863547
vt 0.990034 0.997405
vt 0.895546 0.997405
vt 0.927042 0.863547
vt 0.990034 0.997405
vt 0.966412 0.863547
vt 0.990034 0.997405
vt 0.895546 0.997405
vt 0.927042 0.863547
vt 0.966412 0.863547
vt 0.895546 0.997405
vn 1.0000 -0.0000 0.0000
vn -1.0000 0.0000 0.0000
vn 0.0000 0.0000 -1.0000
vn 0.0000 0.0000 1.0000
o keychain
usemtl Brush.029
f 1/1/1 2/2/1 3/3/1
f 4/4/1 5/5/1 6/6/1
f 7/7/1 8/8/1 9/9/1
f 10/10/1 11/11/1 12/12/1
f 13/13/1 14/14/1 15/15/1
f 16/16/1 17/17/1 18/18/1
f 19/19/1 20/20/1 21/21/1
f 22/22/2 23/23/2 24/24/2
f 25/25/2 26/26/2 27/27/2
f 28/28/2 29/29/2 30/30/2
f 31/31/2 32/32/2 33/33/2
f 34/34/2 35/35/2 36/36/2
f 37/37/2 38/38/2 39/39/2
f 40/40/1 41/41/1 42/42/1
f 43/43/1 44/44/1 45/45/1
f 46/46/2 47/47/2 48/48/2
f 49/49/2 50/50/2 51/51/2
f 52/52/2 53/53/2 54/54/2
f 55/55/2 56/56/2 57/57/2
f 58/58/2 59/59/2 60/60/2
f 61/61/2 62/62/2 63/63/2
f 64/64/1 65/65/1 66/66/1
f 67/67/1 68/68/1 69/69/1
f 70/70/1 71/71/1 72/72/1
f 73/73/1 74/74/1 75/75/1
f 76/76/2 77/77/2 78/78/2
f 79/79/2 80/80/2 81/81/2
f 82/82/2 83/83/2 84/84/2
f 85/85/1 86/86/1 87/87/1
f 88/88/1 89/89/1 90/90/1
f 91/91/1 92/92/1 93/93/1
f 94/94/1 95/95/1 96/96/1
f 97/97/2 98/98/2 99/99/2
f 100/100/2 101/101/2 102/102/2
f 103/103/2 104/104/2 105/105/2
f 106/106/1 107/107/1 108/108/1
f 109/109/1 110/110/1 111/111/1
f 112/112/1 113/113/1 114/114/1
f 115/115/2 116/116/2 117/117/2
f 118/118/1 119/119/1 120/120/1
f 121/121/2 122/122/2 123/123/2
f 124/124/3 125/125/3 126/126/3
f 127/127/4 128/128/4 129/129/4
f 130/130/3 131/131/3 132/132/3
f 133/133/4 134/134/4 135/135/4
f 136/136/3 137/137/3 138/138/3
f 139/139/4 140/140/4 141/141/4
f 142/142/3 143/143/3 144/144/3
f 145/145/4 146/146/4 147/147/4
f 148/148/3 149/149/3 150/150/3
f 151/151/4 152/152/4 153/153/4
f 154/154/3 155/155/3 156/156/3
f 157/157/4 158/158/4 159/159/4
f 160/160/1 161/161/1 162/162/1
f 163/163/1 164/164/1 165/165/1
f 166/166/2 167/167/2 168/168/2
f 169/169/2 170/170/2 171/171/2
f 172/172/2 173/173/2 174/174/2
f 175/175/1 176/176/1 177/177/1
f 178/178/2 179/179/2 180/180/2
f 181/181/1 182/182/1 183/183/1
f 184/184/1 185/185/1 186/186/1
f 187/187/1 188/188/1 189/189/1
f 190/190/2 191/191/2 192/192/2
f 193/193/2 194/194/2 195/195/2
f 196/196/2 197/197/2 198/198/2
usemtl Brush.030
f 199/199/2 200/200/2 201/201/2
f 202/202/2 203/203/2 204/204/2
f 205/205/1 206/206/1 207/207/1
f 208/208/1 209/209/1 210/210/1
