mtllib endsoftheearth.mtl
v -0.000001 -13.457001 -3.336000
v -0.000001 -13.457001 3.320400
v -3.644201 -13.457001 -0.003900
v -0.000001 -13.457001 3.320400
v -0.000001 -13.457001 -3.336000
v 3.648100 -13.457001 -0.003900
v -0.000000 -8.279500 -1.939200
v 2.216205 126.961990 0.000000
v 2.216199 -8.279500 0.000000
v 0.000006 126.961990 1.939200
v 2.216199 -8.279500 0.000000
v 2.216205 126.961990 0.000000
v 0.000001 15.446899 -1.939200
v 0.000002 36.079201 -1.939200
v 0.000002 36.094799 -5.918900
v 0.000002 36.079201 -1.939200
v 0.000001 15.446899 -1.939200
v 0.000002 36.094799 -5.918900
v 0.000002 36.079201 1.939200
v 0.000002 36.094799 5.918900
v 0.000001 15.446899 1.939200
v 0.000002 36.094799 5.918900
v 0.000002 36.079201 1.939200
v 0.000001 15.446899 1.939200
v 0.000003 70.816200 -1.939200
v 0.000002 36.079201 -1.939200
v 0.000002 36.094799 -5.918900
v 0.000002 36.079201 -1.939200
v 0.000003 70.816200 -1.939200
v 0.000002 36.094799 -5.918900
v 0.000003 70.816200 1.939200
v 0.000002 36.079201 1.939200
v 0.000002 36.094799 5.918900
v 0.000002 36.079201 1.939200
v 0.000003 70.816200 1.939200
v 0.000002 36.094799 5.918900
v 0.000003 70.816200 5.918900
v 0.000002 36.094799 5.918900
v 0.000003 70.816200 1.939200
v 0.000003 70.816200 5.918900
v 0.000003 70.816200 1.939200
v 0.000002 36.094799 5.918900
v 0.000003 70.816200 -5.918900
v 0.000002 36.094799 -5.918900
v 0.000003 70.816200 -1.939200
v 0.000003 70.816200 -5.918900
v 0.000003 70.816200 -1.939200
v 0.000002 36.094799 -5.918900
v 0.000004 93.426697 -21.139500
v 0.000004 93.426697 -9.020801
v 0.000004 83.797302 -9.020801
v 0.000004 93.426697 -9.020801
v 0.000004 93.426697 -21.139500
v 0.000004 83.797302 -9.020801
v 0.000004 83.797302 -21.139500
v 0.000004 93.426697 -21.139500
v 0.000004 83.797302 -9.020801
v 0.000004 93.426697 -21.139500
v 0.000004 83.797302 -21.139500
v 0.000004 83.797302 -9.020801
v 0.000004 83.797302 -1.939200
v 0.000004 83.797302 -9.020801
v 0.000004 93.426697 -9.020801
v 0.000004 83.797302 -9.020801
v 0.000004 83.797302 -1.939200
v 0.000004 93.426697 -9.020801
v 0.000004 93.426697 -1.939200
v 0.000004 83.797302 -1.939200
v 0.000004 93.426697 -9.020801
v 0.000004 83.797302 -1.939200
v 0.000004 93.426697 -1.939200
v 0.000004 93.426697 -9.020801
v 0.000005 103.274704 -17.226101
v 0.000005 103.274704 -9.020801
v 0.000004 93.426697 -9.020801
v 0.000005 103.274704 -9.020801
v 0.000005 103.274704 -17.226101
v 0.000004 93.426697 -9.020801
v 0.000004 93.426697 -17.226101
v 0.000005 103.274704 -17.226101
v 0.000004 93.426697 -9.020801
v 0.000005 103.274704 -17.226101
v 0.000004 93.426697 -17.226101
v 0.000004 93.426697 -9.020801
v 0.000004 93.426697 -1.939200
v 0.000004 93.426697 -9.020801
v 0.000005 103.274704 -9.020801
v 0.000004 93.426697 -9.020801
v 0.000004 93.426697 -1.939200
v 0.000005 103.274704 -9.020801
v 0.000005 103.274704 -1.939200
v 0.000004 93.426697 -1.939200
v 0.000005 103.274704 -9.020801
v 0.000004 93.426697 -1.939200
v 0.000005 103.274704 -1.939200
v 0.000005 103.274704 -9.020801
v 0.000005 113.130402 -22.899200
v 0.000005 113.130402 -9.020801
v 0.000005 103.274704 -9.020801
v 0.000005 113.130402 -9.020801
v 0.000005 113.130402 -22.899200
v 0.000005 103.274704 -9.020801
v 0.000005 103.274704 -22.899200
v 0.000005 113.130402 -22.899200
v 0.000005 103.274704 -9.020801
v 0.000005 113.130402 -22.899200
v 0.000005 103.274704 -22.899200
v 0.000005 103.274704 -9.020801
v 0.000005 103.274704 -1.939200
v 0.000005 103.274704 -9.020801
v 0.000005 113.130402 -9.020801
v 0.000005 103.274704 -9.020801
v 0.000005 103.274704 -1.939200
v 0.000005 113.130402 -9.020801
v 0.000005 113.130402 -1.939200
v 0.000005 103.274704 -1.939200
v 0.000005 113.130402 -9.020801
v 0.000005 103.274704 -1.939200
v 0.000005 113.130402 -1.939200
v 0.000005 113.130402 -9.020801
v 0.000004 93.426697 9.020801
v 0.000004 93.426697 14.935801
v 0.000004 83.797302 9.020801
v 0.000004 93.426697 14.935801
v 0.000004 93.426697 9.020801
v 0.000004 83.797302 9.020801
v 0.000004 93.426697 14.935801
v 0.000004 83.797302 14.935801
v 0.000004 83.797302 9.020801
v 0.000004 83.797302 14.935801
v 0.000004 93.426697 14.935801
v 0.000004 83.797302 9.020801
v 0.000004 83.797302 9.020801
v 0.000004 83.797302 1.939200
v 0.000004 93.426697 9.020801
v 0.000004 83.797302 1.939200
v 0.000004 83.797302 9.020801
v 0.000004 93.426697 9.020801
v 0.000004 83.797302 1.939200
v 0.000004 93.426697 1.939200
v 0.000004 93.426697 9.020801
v 0.000004 93.426697 1.939200
v 0.000004 83.797302 1.939200
v 0.000004 93.426697 9.020801
v 0.000005 103.274704 9.020801
v 0.000005 103.274704 10.355200
v 0.000004 93.426697 9.020801
v 0.000005 103.274704 10.355200
v 0.000005 103.274704 9.020801
v 0.000004 93.426697 9.020801
v 0.000005 103.274704 10.355200
v 0.000004 93.426697 10.355200
v 0.000004 93.426697 9.020801
v 0.000004 93.426697 10.355200
v 0.000005 103.274704 10.355200
v 0.000004 93.426697 9.020801
v 0.000004 93.426697 9.020801
v 0.000004 93.426697 1.939200
v 0.000005 103.274704 9.020801
v 0.000004 93.426697 1.939200
v 0.000004 93.426697 9.020801
v 0.000005 103.274704 9.020801
v 0.000004 93.426697 1.939200
v 0.000005 103.274704 1.939200
v 0.000005 103.274704 9.020801
v 0.000005 103.274704 1.939200
v 0.000004 93.426697 1.939200
v 0.000005 103.274704 9.020801
v 0.000005 113.130402 9.020801
v 0.000005 113.130402 14.459801
v 0.000005 103.274704 9.020801
v 0.000005 113.130402 14.459801
v 0.000005 113.130402 9.020801
v 0.000005 103.274704 9.020801
v 0.000005 113.130402 14.459801
v 0.000005 103.274704 14.459801
v 0.000005 103.274704 9.020801
v 0.000005 103.274704 14.459801
v 0.000005 113.130402 14.459801
v 0.000005 103.274704 9.020801
v 0.000005 103.274704 9.020801
v 0.000005 103.274704 1.939200
v 0.000005 113.130402 9.020801
v 0.000005 103.274704 1.939200
v 0.000005 103.274704 9.020801
v 0.000005 113.130402 9.020801
v 0.000005 103.274704 1.939200
v 0.000005 113.130402 1.939200
v 0.000005 113.130402 9.020801
v 0.000005 113.130402 1.939200
v 0.000005 103.274704 1.939200
v 0.000005 113.130402 9.020801
v 0.000003 70.816200 -8.970099
v 0.000004 83.789497 -8.970099
v 0.000004 83.789497 -1.939200
v 0.000004 83.789497 -8.970099
v 0.000003 70.816200 -8.970099
v 0.000004 83.789497 -1.939200
v 0.000003 70.816200 -1.939200
v 0.000003 70.816200 -8.970099
v 0.000004 83.789497 -1.939200
v 0.000003 70.816200 -8.970099
v 0.000003 70.816200 -1.939200
v 0.000004 83.789497 -1.939200
v 0.000004 83.789497 8.970099
v 0.000003 70.816200 8.970099
v 0.000004 83.789497 1.939200
v 0.000003 70.816200 8.970099
v 0.000004 83.789497 8.970099
v 0.000004 83.789497 1.939200
v 0.000003 70.816200 8.970099
v 0.000003 70.816200 1.939200
v 0.000004 83.789497 1.939200
v 0.000003 70.816200 1.939200
v 0.000003 70.816200 8.970099
v 0.000004 83.789497 1.939200
v 0.000006 127.137604 -1.939200
v 0.000005 113.130402 -1.939200
v 0.000005 124.874603 -9.586499
v 0.000005 113.130402 -1.939200
v 0.000006 127.137604 -1.939200
v 0.000005 124.874603 -9.586499
v 0.000005 124.874603 -9.586499
v 0.000005 113.130402 -1.939200
v 0.000005 113.130402 -9.020801
v 0.000005 113.130402 -1.939200
v 0.000005 124.874603 -9.586499
v 0.000005 113.130402 -9.020801
v 0.000005 118.573296 -14.174999
v 0.000005 124.874603 -9.586499
v 0.000005 113.130402 -9.020801
v 0.000005 124.874603 -9.586499
v 0.000005 118.573296 -14.174999
v 0.000005 113.130402 -9.020801
v 0.000005 113.130402 1.939200
v 0.000006 127.137604 1.939200
v 0.000005 124.874603 9.586499
v 0.000006 127.137604 1.939200
v 0.000005 113.130402 1.939200
v 0.000005 124.874603 9.586499
v 0.000005 113.130402 1.939200
v 0.000005 124.874603 9.586499
v 0.000005 113.130402 9.020801
v 0.000005 124.874603 9.586499
v 0.000005 113.130402 1.939200
v 0.000005 113.130402 9.020801
v 0.000005 124.874603 9.586499
v 0.000005 118.573296 14.174999
v 0.000005 113.130402 9.020801
v 0.000005 118.573296 14.174999
v 0.000005 124.874603 9.586499
v 0.000005 113.130402 9.020801
v -0.000000 -8.279500 1.939200
v -0.000000 -4.822500 9.972800
v -0.000001 -13.457001 3.320400
v -0.000000 -4.822500 9.972800
v -0.000000 -8.279500 1.939200
v -0.000001 -13.457001 3.320400
v -0.000000 -8.279500 -1.939200
v -0.000001 -13.457001 -3.336000
v -0.000000 -4.822500 -9.972800
v -0.000000 -8.279500 -1.939200
v -0.000000 -4.822500 -9.972800
v -0.000001 -13.457001 -3.336000
v -0.000001 -13.457001 -3.336000
v -0.000001 -12.372400 -13.363400
v -0.000000 -4.822500 -9.972800
v -0.000001 -12.372400 -13.363400
v -0.000001 -13.457001 -3.336000
v -0.000000 -4.822500 -9.972800
v 0.000000 11.240900 8.853000
v -1.630899 13.023899 13.628700
v -1.630899 19.625700 9.910400
v 0.000001 14.358300 6.945100
v 0.000000 11.240900 8.853000
v -1.630899 19.625700 9.910400
v 0.000000 11.240900 -8.853000
v -1.630899 13.023899 -13.628700
v -1.630900 0.737400 -13.628700
v -0.000000 -1.084700 -8.291200
v 0.000000 11.240900 -8.853000
v -1.630900 0.737400 -13.628700
v -0.000001 -12.372400 13.363400
v -0.000001 -13.457001 3.320400
v -0.000000 -4.822500 9.972800
v -0.000001 -12.372400 13.363400
v -0.000000 -4.822500 9.972800
v -0.000001 -13.457001 3.320400
v -1.630900 0.737400 -13.628700
v 1.634800 0.737400 -13.628700
v -1.630900 -9.387500 -17.705999
v 1.634800 -9.387500 -17.705999
v -1.630900 -9.387500 -17.705999
v 1.634800 0.737400 -13.628700
v 1.634799 -13.886200 -18.185900
v 1.634800 -9.387500 -17.705999
v -0.000001 -12.372400 -13.363400
v 1.634800 -9.387500 -17.705999
v 1.634800 0.737400 -13.628700
v -0.000001 -12.372400 -13.363400
v -2.212295 126.961990 0.000000
v 0.000006 127.847694 0.000000
v 0.000006 126.961990 -1.939200
v 0.000001 24.190701 -10.167900
v 0.000002 36.094799 -5.918900
v 0.000001 15.446899 -1.939200
v 0.000001 24.190701 10.171800
v 0.000002 36.094799 5.918900
v 0.000001 15.446899 1.939200
v 0.000001 24.190701 10.167900
v 0.000001 15.446899 1.939200
v 0.000002 36.094799 5.918900
v 0.000001 24.190701 -10.171800
v 0.000001 15.446899 -1.939200
v 0.000002 36.094799 -5.918900
v -1.630900 -9.387500 -17.705999
v -1.630900 -3.101900 -15.177700
v -1.630900 -6.164700 -20.605000
v 0.000000 8.685200 -1.939200
v 0.000000 4.077300 -8.525300
v 0.000000 9.859600 -8.790600
v 0.000000 4.077300 8.525300
v 0.000000 8.685200 1.939200
v 0.000000 9.859600 8.790600
v -1.630900 -3.101900 15.177700
v -1.630900 -9.387500 17.705999
v -1.630900 -6.164700 20.605000
v 1.634800 -9.387500 17.705999
v 1.634800 -3.101900 15.177700
v 1.634800 -6.164700 20.605000
v -1.630901 -13.886200 -18.185900
v -0.000001 -12.372400 -13.363400
v -1.630900 -9.387500 -17.705999
v 1.634800 -3.101900 -15.177700
v 1.634800 -9.387500 -17.705999
v 1.634800 -6.164700 -20.605000
v -1.630900 -9.387500 17.705999
v 1.634800 -9.387500 17.705999
v -1.630900 -6.164700 20.605000
v 1.634800 -9.387500 17.705999
v 1.634800 0.737400 13.628700
v -1.630900 -9.387500 17.705999
v -3.644201 -13.457001 -0.003900
v -0.000001 -13.457001 3.320400
v -2.212301 -8.279500 0.000000
v -0.000000 -8.279500 1.939200
v -2.212301 -8.279500 0.000000
v -0.000001 -13.457001 3.320400
v -0.000001 -13.457001 3.320400
v 3.648100 -13.457001 -0.003900
v -0.000000 -8.279500 1.939200
v 2.216199 -8.279500 0.000000
v -0.000000 -8.279500 1.939200
v 3.648100 -13.457001 -0.003900
v 3.648100 -13.457001 -0.003900
v -0.000001 -13.457001 -3.336000
v 2.216199 -8.279500 0.000000
v -0.000000 -8.279500 -1.939200
v 2.216199 -8.279500 0.000000
v -0.000001 -13.457001 -3.336000
v -0.000001 -13.457001 -3.336000
v -3.644201 -13.457001 -0.003900
v -0.000000 -8.279500 -1.939200
v -2.212301 -8.279500 0.000000
v -0.000000 -8.279500 -1.939200
v -3.644201 -13.457001 -0.003900
v 2.216205 126.961990 0.000000
v -0.000000 -8.279500 -1.939200
v 0.000006 126.961990 -1.939200
v -2.212295 126.961990 0.000000
v 0.000006 126.961990 -1.939200
v -0.000000 -8.279500 -1.939200
v -0.000000 -8.279500 -1.939200
v -2.212301 -8.279500 0.000000
v -2.212295 126.961990 0.000000
v 0.000006 126.961990 1.939200
v -2.212295 126.961990 0.000000
v -2.212301 -8.279500 0.000000
v -2.212301 -8.279500 0.000000
v -0.000000 -8.279500 1.939200
v 0.000006 126.961990 1.939200
v 2.216199 -8.279500 0.000000
v 0.000006 126.961990 1.939200
v -0.000000 -8.279500 1.939200
v 1.634799 -13.886200 18.185900
v -0.000001 -12.372400 13.363400
v 1.634800 -9.387500 17.705999
v 1.634800 0.737400 13.628700
v 1.634800 -9.387500 17.705999
v -0.000001 -12.372400 13.363400
v -0.000001 -12.372400 13.363400
v -0.000000 -1.084700 8.291200
v 1.634800 0.737400 13.628700
v 0.000000 11.240900 8.853000
v 1.634800 0.737400 13.628700
v -0.000000 -1.084700 8.291200
v -0.000000 -1.084700 8.291200
v -1.630900 0.737400 13.628700
v 0.000000 11.240900 8.853000
v -1.630899 13.023899 13.628700
v 0.000000 11.240900 8.853000
v -1.630900 0.737400 13.628700
v -1.630900 -9.387500 17.705999
v 1.634800 0.737400 13.628700
v -1.630900 0.737400 13.628700
v -1.630899 13.023899 13.628700
v -1.630900 0.737400 13.628700
v 1.634800 0.737400 13.628700
v 1.634800 0.737400 13.628700
v 1.634801 13.023899 13.628700
v -1.630899 13.023899 13.628700
v -1.630899 19.625700 9.910400
v -1.630899 13.023899 13.628700
v 1.634801 13.023899 13.628700
v 1.634801 13.023899 13.628700
v 1.634801 19.625700 9.910400
v -1.630899 19.625700 9.910400
v 0.000001 14.358300 6.945100
v -1.630899 19.625700 9.910400
v 1.634801 19.625700 9.910400
v 1.634801 19.625700 -9.910400
v 0.000000 11.240900 -8.853000
v 1.634801 13.023899 -13.628700
v 1.634800 0.737400 -13.628700
v 1.634801 13.023899 -13.628700
v 0.000000 11.240900 -8.853000
v 0.000000 11.240900 -8.853000
v -0.000000 -1.084700 -8.291200
v 1.634800 0.737400 -13.628700
v -0.000001 -12.372400 -13.363400
v 1.634800 0.737400 -13.628700
v -0.000000 -1.084700 -8.291200
v -0.000000 -1.084700 -8.291200
v -1.630900 0.737400 -13.628700
v -0.000001 -12.372400 -13.363400
v -1.630900 -9.387500 -17.705999
v -0.000001 -12.372400 -13.363400
v -1.630900 0.737400 -13.628700
v -1.630900 0.737400 -13.628700
v -1.630899 13.023899 -13.628700
v 1.634800 0.737400 -13.628700
v 1.634801 13.023899 -13.628700
v 1.634800 0.737400 -13.628700
v -1.630899 13.023899 -13.628700
v -1.630899 13.023899 -13.628700
v -1.630899 19.625700 -9.910400
v 1.634801 13.023899 -13.628700
v 1.634801 19.625700 -9.910400
v 1.634801 13.023899 -13.628700
v -1.630899 19.625700 -9.910400
v -1.630899 19.625700 -9.910400
v 0.000001 14.358300 -6.945100
v 1.634801 19.625700 -9.910400
v 1.634800 -3.101900 -15.177700
v 1.634800 -6.164700 -20.605000
v -1.630900 -3.101900 -15.177700
v -1.630900 -6.164700 -20.605000
v -1.630900 -3.101900 -15.177700
v 1.634800 -6.164700 -20.605000
v 1.634800 -6.164700 -20.605000
v 1.634800 -9.387500 -17.705999
v -1.630900 -6.164700 -20.605000
v -1.630900 -9.387500 -17.705999
v -1.630900 -6.164700 -20.605000
v 1.634800 -9.387500 -17.705999
v 0.000006 126.961990 -1.939200
v 0.000006 127.847694 0.000000
v 2.216205 126.961990 0.000000
v 0.000006 126.961990 1.939200
v 2.216205 126.961990 0.000000
v 0.000006 127.847694 0.000000
v 0.000006 127.847694 0.000000
v -2.212295 126.961990 0.000000
v 0.000006 126.961990 1.939200
v 0.000000 9.859600 8.790600
v 0.000000 8.685200 1.939200
v 0.000001 15.446899 1.939200
v 0.000000 9.859600 8.790600
v 0.000001 15.446899 1.939200
v 0.000000 8.685200 1.939200
v 0.000000 8.685200 1.939200
v 0.000000 4.077300 8.529200
v 0.000000 9.859600 8.790600
v -1.630900 -3.101900 15.177700
v -1.630900 -6.164700 20.605000
v 1.634800 -3.101900 15.177700
v 1.634800 -6.164700 20.605000
v 1.634800 -3.101900 15.177700
v -1.630900 -6.164700 20.605000
v -1.630900 -6.164700 20.605000
v 1.634800 -9.387500 17.705999
v 1.634800 -6.164700 20.605000
v 0.000000 4.077300 -8.529200
v 0.000000 8.685200 -1.939200
v 0.000000 9.859600 -8.790600
v 0.000001 15.446899 -1.939200
v 0.000000 9.859600 -8.790600
v 0.000000 8.685200 -1.939200
v 0.000000 8.685200 -1.939200
v 0.000000 9.859600 -8.790600
v 0.000001 15.446899 -1.939200
v -0.000000 -1.084700 8.291200
v -0.000001 -12.372400 13.363400
v -1.630900 0.737400 13.628700
v -1.630900 -9.387500 17.705999
v -1.630900 0.737400 13.628700
v -0.000001 -12.372400 13.363400
v -0.000001 -12.372400 13.363400
v -1.630901 -13.886200 18.185900
v -1.630900 -9.387500 17.705999
v 1.634800 0.737400 13.628700
v 0.000000 11.240900 8.853000
v 1.634801 13.023899 13.628700
v 1.634801 19.625700 9.910400
v 1.634801 13.023899 13.628700
v 0.000000 11.240900 8.853000
v 0.000000 11.240900 8.853000
v 0.000001 14.358300 6.945100
v 1.634801 19.625700 9.910400
v -1.630899 13.023899 -13.628700
v 0.000000 11.240900 -8.853000
v -1.630899 19.625700 -9.910400
v 0.000001 14.358300 -6.945100
v -1.630899 19.625700 -9.910400
v 0.000000 11.240900 -8.853000
v 0.000000 11.240900 -8.853000
v 1.634801 19.625700 -9.910400
v 0.000001 14.358300 -6.945100
v -0.000001 -12.372400 13.363400
v 1.634799 -13.886200 18.185900
v -1.630901 -13.886200 18.185900
v -1.630900 -9.387500 17.705999
v -1.630901 -13.886200 18.185900
v 1.634799 -13.886200 18.185900
v 1.634799 -13.886200 18.185900
v 1.634800 -9.387500 17.705999
v -1.630900 -9.387500 17.705999
v 1.634800 -9.387500 -17.705999
v 1.634799 -13.886200 -18.185900
v -1.630900 -9.387500 -17.705999
v -1.630901 -13.886200 -18.185900
v -1.630900 -9.387500 -17.705999
v 1.634799 -13.886200 -18.185900
v 1.634799 -13.886200 -18.185900
v -0.000001 -12.372400 -13.363400
v -1.630901 -13.886200 -18.185900
vt 0.234128 0.430476
vt 0.234128 0.241499
vt 0.179010 0.335988
vt 0.234128 0.241499
vt 0.234128 0.430476
vt 0.289247 0.335988
vt 0.005782 0.989531
vt 0.659325 0.910791
vt 0.005782 0.910791
vt 0.659325 0.989531
vt 0.005782 0.910791
vt 0.659325 0.910791
vt 1.005782 0.005279
vt 0.738065 0.005279
vt 0.738065 0.123389
vt 0.738065 0.005279
vt 1.005782 0.005279
vt 0.738065 0.123389
vt 0.738065 0.005279
vt 0.738065 0.123389
vt 1.005782 0.005279
vt 0.738065 0.123389
vt 0.738065 0.005279
vt 1.005782 0.005279
vt 0.320743 0.005279
vt 0.738065 0.005279
vt 0.738065 0.123389
vt 0.738065 0.005279
vt 0.320743 0.005279
vt 0.738065 0.123389
vt 0.320743 0.005279
vt 0.738065 0.005279
vt 0.738065 0.123389
vt 0.738065 0.005279
vt 0.320743 0.005279
vt 0.738065 0.123389
vt 0.320743 0.123389
vt 0.738065 0.123389
vt 0.320743 0.005279
vt 0.320743 0.123389
vt 0.320743 0.005279
vt 0.738065 0.123389
vt 0.320743 0.123389
vt 0.738065 0.123389
vt 0.320743 0.005279
vt 0.320743 0.123389
vt 0.320743 0.005279
vt 0.738065 0.123389
vt 0.013656 0.540712
vt 0.013656 0.233625
vt 0.131766 0.233625
vt 0.013656 0.233625
vt 0.013656 0.540712
vt 0.131766 0.233625
vt 0.131766 0.540712
vt 0.013656 0.540712
vt 0.131766 0.233625
vt 0.013656 0.540712
vt 0.131766 0.540712
vt 0.131766 0.233625
vt 0.131766 0.005279
vt 0.131766 0.233625
vt 0.013656 0.233625
vt 0.131766 0.233625
vt 0.131766 0.005279
vt 0.013656 0.233625
vt 0.013656 0.005279
vt 0.131766 0.005279
vt 0.013656 0.233625
vt 0.131766 0.005279
vt 0.013656 0.005279
vt 0.013656 0.233625
vt 0.013656 0.540712
vt 0.013656 0.233625
vt 0.131766 0.233625
vt 0.013656 0.233625
vt 0.013656 0.540712
vt 0.131766 0.233625
vt 0.131766 0.540712
vt 0.013656 0.540712
vt 0.131766 0.233625
vt 0.013656 0.540712
vt 0.131766 0.540712
vt 0.131766 0.233625
vt 0.131766 0.005279
vt 0.131766 0.233625
vt 0.013656 0.233625
vt 0.131766 0.233625
vt 0.131766 0.005279
vt 0.013656 0.233625
vt 0.013656 0.005279
vt 0.131766 0.005279
vt 0.013656 0.233625
vt 0.131766 0.005279
vt 0.013656 0.005279
vt 0.013656 0.233625
vt 0.013656 0.540712
vt 0.013656 0.233625
vt 0.131766 0.233625
vt 0.013656 0.233625
vt 0.013656 0.540712
vt 0.131766 0.233625
vt 0.131766 0.540712
vt 0.013656 0.540712
vt 0.131766 0.233625
vt 0.013656 0.540712
vt 0.131766 0.540712
vt 0.131766 0.233625
vt 0.131766 0.005279
vt 0.131766 0.233625
vt 0.013656 0.233625
vt 0.131766 0.233625
vt 0.131766 0.005279
vt 0.013656 0.233625
vt 0.013656 0.005279
vt 0.131766 0.005279
vt 0.013656 0.233625
vt 0.131766 0.005279
vt 0.013656 0.005279
vt 0.013656 0.233625
vt 0.013656 0.233625
vt 0.013656 0.540712
vt 0.131766 0.233625
vt 0.013656 0.540712
vt 0.013656 0.233625
vt 0.131766 0.233625
vt 0.013656 0.540712
vt 0.131766 0.540712
vt 0.131766 0.233625
vt 0.131766 0.540712
vt 0.013656 0.540712
vt 0.131766 0.233625
vt 0.131766 0.233625
vt 0.131766 0.005279
vt 0.013656 0.233625
vt 0.131766 0.005279
vt 0.131766 0.233625
vt 0.013656 0.233625
vt 0.131766 0.005279
vt 0.013656 0.005279
vt 0.013656 0.233625
vt 0.013656 0.005279
vt 0.131766 0.005279
vt 0.013656 0.233625
vt 0.013656 0.233625
vt 0.013656 0.540712
vt 0.131766 0.233625
vt 0.013656 0.540712
vt 0.013656 0.233625
vt 0.131766 0.233625
vt 0.013656 0.540712
vt 0.131766 0.540712
vt 0.131766 0.233625
vt 0.131766 0.540712
vt 0.013656 0.540712
vt 0.131766 0.233625
vt 0.131766 0.233625
vt 0.131766 0.005279
vt 0.013656 0.233625
vt 0.131766 0.005279
vt 0.131766 0.233625
vt 0.013656 0.233625
vt 0.131766 0.005279
vt 0.013656 0.005279
vt 0.013656 0.233625
vt 0.013656 0.005279
vt 0.131766 0.005279
vt 0.013656 0.233625
vt 0.013656 0.233625
vt 0.013656 0.540712
vt 0.131766 0.233625
vt 0.013656 0.540712
vt 0.013656 0.233625
vt 0.131766 0.233625
vt 0.013656 0.540712
vt 0.131766 0.540712
vt 0.131766 0.233625
vt 0.131766 0.540712
vt 0.013656 0.540712
vt 0.131766 0.233625
vt 0.131766 0.233625
vt 0.131766 0.005279
vt 0.013656 0.233625
vt 0.131766 0.005279
vt 0.131766 0.233625
vt 0.013656 0.233625
vt 0.131766 0.005279
vt 0.013656 0.005279
vt 0.013656 0.233625
vt 0.013656 0.005279
vt 0.131766 0.005279
vt 0.013656 0.233625
vt 0.320743 0.233625
vt 0.131766 0.233625
vt 0.131766 0.005279
vt 0.131766 0.233625
vt 0.320743 0.233625
vt 0.131766 0.005279
vt 0.320743 0.005279
vt 0.320743 0.233625
vt 0.131766 0.005279
vt 0.320743 0.233625
vt 0.320743 0.005279
vt 0.131766 0.005279
vt 0.131766 0.233625
vt 0.320743 0.233625
vt 0.131766 0.005279
vt 0.320743 0.233625
vt 0.131766 0.233625
vt 0.131766 0.005279
vt 0.320743 0.233625
vt 0.320743 0.005279
vt 0.131766 0.005279
vt 0.320743 0.005279
vt 0.320743 0.233625
vt 0.131766 0.005279
vt 0.997908 0.769059
vt 0.997908 0.335988
vt 0.895546 0.690318
vt 0.997908 0.335988
vt 0.997908 0.769059
vt 0.895546 0.690318
vt 0.895546 0.690318
vt 0.997908 0.335988
vt 0.903420 0.335988
vt 0.997908 0.335988
vt 0.895546 0.690318
vt 0.903420 0.335988
vt 0.816806 0.517090
vt 0.895546 0.690318
vt 0.903420 0.335988
vt 0.895546 0.690318
vt 0.816806 0.517090
vt 0.903420 0.335988
vt 0.997908 0.335988
vt 0.997908 0.769059
vt 0.895546 0.690318
vt 0.997908 0.769059
vt 0.997908 0.335988
vt 0.895546 0.690318
vt 0.997908 0.335988
vt 0.895546 0.690318
vt 0.903420 0.335988
vt 0.895546 0.690318
vt 0.997908 0.335988
vt 0.903420 0.335988
vt 0.895546 0.690318
vt 0.816806 0.517090
vt 0.903420 0.335988
vt 0.816806 0.517090
vt 0.895546 0.690318
vt 0.903420 0.335988
vt 0.714443 0.997405
vt 0.635703 0.635200
vt 0.856176 0.934413
vt 0.635703 0.635200
vt 0.714443 0.997405
vt 0.856176 0.934413
vt 0.714443 0.997405
vt 0.856176 0.934413
vt 0.635703 0.635200
vt 0.714443 0.997405
vt 0.635703 0.635200
vt 0.856176 0.934413
vt 0.856176 0.934413
vt 0.801058 0.517090
vt 0.635703 0.635200
vt 0.801058 0.517090
vt 0.856176 0.934413
vt 0.635703 0.635200
vt 0.265625 0.698192
vt 0.218380 0.477720
vt 0.084522 0.643074
vt 0.202632 0.769059
vt 0.265625 0.698192
vt 0.084522 0.643074
vt 0.265625 0.698192
vt 0.218380 0.477720
vt 0.509719 0.477720
vt 0.541215 0.698192
vt 0.265625 0.698192
vt 0.509719 0.477720
vt 0.801058 0.517090
vt 0.856176 0.934413
vt 0.635703 0.635200
vt 0.801058 0.517090
vt 0.635703 0.635200
vt 0.856176 0.934413
vt 0.328617 0.776933
vt 0.328617 0.887169
vt 0.525467 0.776933
vt 0.525467 0.887169
vt 0.525467 0.776933
vt 0.328617 0.887169
vt 0.840428 0.272996
vt 0.745939 0.280870
vt 0.801058 0.517090
vt 0.745939 0.280870
vt 0.509719 0.477720
vt 0.801058 0.517090
vt 0.879798 0.895043
vt 0.879798 0.800555
vt 0.934916 0.800555
vt 0.927042 0.249373
vt 0.738065 0.123389
vt 1.005782 0.005279
vt 0.927042 0.249373
vt 0.738065 0.123389
vt 1.005782 0.005279
vt 0.927042 0.249373
vt 1.005782 0.005279
vt 0.738065 0.123389
vt 0.927042 0.249373
vt 1.005782 0.005279
vt 0.738065 0.123389
vt 0.745939 0.280870
vt 0.596333 0.398980
vt 0.667199 0.154885
vt 0.360113 0.217877
vt 0.470349 0.217877
vt 0.407357 0.406854
vt 0.470349 0.217877
vt 0.360113 0.217877
vt 0.407357 0.406854
vt 0.596333 0.398980
vt 0.745939 0.280870
vt 0.667199 0.154885
vt 0.745939 0.280870
vt 0.596333 0.398980
vt 0.667199 0.154885
vt 0.840428 0.272996
vt 0.801058 0.517090
vt 0.745939 0.280870
vt 0.596333 0.398980
vt 0.745939 0.280870
vt 0.667199 0.154885
vt 0.525467 0.887169
vt 0.525467 0.776933
vt 0.454601 0.887169
vt 0.525467 0.887169
vt 0.328617 0.887169
vt 0.525467 0.776933
vt 0.517593 0.162759
vt 0.517593 0.328114
vt 0.580585 0.162759
vt 0.580585 0.328114
vt 0.580585 0.162759
vt 0.517593 0.328114
vt 0.517593 0.328114
vt 0.517593 0.162759
vt 0.580585 0.328114
vt 0.580585 0.162759
vt 0.580585 0.328114
vt 0.517593 0.162759
vt 0.517593 0.162759
vt 0.517593 0.328114
vt 0.580585 0.162759
vt 0.580585 0.328114
vt 0.580585 0.162759
vt 0.517593 0.328114
vt 0.517593 0.328114
vt 0.517593 0.162759
vt 0.580585 0.328114
vt 0.580585 0.162759
vt 0.580585 0.328114
vt 0.517593 0.162759
vt 0.659325 0.910791
vt 0.005782 0.989531
vt 0.659325 0.989531
vt 0.659325 0.910791
vt 0.659325 0.989531
vt 0.005782 0.989531
vt 0.005782 0.989531
vt 0.005782 0.910791
vt 0.659325 0.910791
vt 0.659325 0.989531
vt 0.659325 0.910791
vt 0.005782 0.910791
vt 0.005782 0.910791
vt 0.005782 0.989531
vt 0.659325 0.989531
vt 0.005782 0.910791
vt 0.659325 0.989531
vt 0.005782 0.989531
vt 0.840428 0.272996
vt 0.801058 0.517090
vt 0.745939 0.280870
vt 0.509719 0.477720
vt 0.745939 0.280870
vt 0.801058 0.517090
vt 0.801058 0.517090
vt 0.541215 0.698192
vt 0.509719 0.477720
vt 0.265625 0.698192
vt 0.509719 0.477720
vt 0.541215 0.698192
vt 0.541215 0.698192
vt 0.509719 0.477720
vt 0.265625 0.698192
vt 0.218380 0.477720
vt 0.265625 0.698192
vt 0.509719 0.477720
vt 0.525467 0.776933
vt 0.328617 0.887169
vt 0.328617 0.776933
vt 0.179010 0.776933
vt 0.328617 0.776933
vt 0.328617 0.887169
vt 0.328617 0.887169
vt 0.179010 0.887169
vt 0.179010 0.776933
vt 0.076648 0.776933
vt 0.179010 0.776933
vt 0.179010 0.887169
vt 0.179010 0.887169
vt 0.076648 0.887169
vt 0.076648 0.776933
vt -0.002092 0.839925
vt 0.076648 0.776933
vt 0.076648 0.887169
vt 0.084522 0.643074
vt 0.265625 0.698192
vt 0.218380 0.477720
vt 0.509719 0.477720
vt 0.218380 0.477720
vt 0.265625 0.698192
vt 0.265625 0.698192
vt 0.541215 0.698192
vt 0.509719 0.477720
vt 0.801058 0.517090
vt 0.509719 0.477720
vt 0.541215 0.698192
vt 0.541215 0.698192
vt 0.509719 0.477720
vt 0.801058 0.517090
vt 0.745939 0.280870
vt 0.801058 0.517090
vt 0.509719 0.477720
vt 0.328617 0.776933
vt 0.179010 0.776933
vt 0.328617 0.887169
vt 0.179010 0.887169
vt 0.328617 0.887169
vt 0.179010 0.776933
vt 0.179010 0.776933
vt 0.076648 0.776933
vt 0.179010 0.887169
vt 0.076648 0.887169
vt 0.179010 0.887169
vt 0.076648 0.776933
vt 0.076648 0.776933
vt -0.002092 0.839925
vt 0.076648 0.887169
vt 0.383735 0.776933
vt 0.454601 0.776933
vt 0.383735 0.887169
vt 0.454601 0.887169
vt 0.383735 0.887169
vt 0.454601 0.776933
vt 0.454601 0.776933
vt 0.525467 0.776933
vt 0.454601 0.887169
vt 0.525467 0.887169
vt 0.454601 0.887169
vt 0.525467 0.776933
vt 0.934916 0.800555
vt 0.879798 0.800555
vt 0.879798 0.690318
vt 0.934916 0.800555
vt 0.879798 0.690318
vt 0.879798 0.800555
vt 0.879798 0.800555
vt 0.879798 0.895043
vt 0.934916 0.800555
vt 0.407357 0.406854
vt 0.360113 0.217877
vt 0.304995 0.406854
vt 0.407357 0.406854
vt 0.304995 0.406854
vt 0.360113 0.217877
vt 0.360113 0.217877
vt 0.470349 0.217877
vt 0.407357 0.406854
vt 0.375861 0.887169
vt 0.454601 0.887169
vt 0.375861 0.776933
vt 0.454601 0.776933
vt 0.375861 0.776933
vt 0.454601 0.887169
vt 0.454601 0.887169
vt 0.525467 0.776933
vt 0.454601 0.776933
vt 0.470349 0.217877
vt 0.360113 0.217877
vt 0.407357 0.406854
vt 0.304995 0.406854
vt 0.407357 0.406854
vt 0.360113 0.217877
vt 0.360113 0.217877
vt 0.407357 0.406854
vt 0.304995 0.406854
vt 0.541215 0.698192
vt 0.801058 0.517090
vt 0.509719 0.477720
vt 0.745939 0.280870
vt 0.509719 0.477720
vt 0.801058 0.517090
vt 0.801058 0.517090
vt 0.840428 0.272996
vt 0.745939 0.280870
vt 0.509719 0.477720
vt 0.265625 0.698192
vt 0.218380 0.477720
vt 0.084522 0.643074
vt 0.218380 0.477720
vt 0.265625 0.698192
vt 0.265625 0.698192
vt 0.202632 0.769059
vt 0.084522 0.643074
vt 0.218380 0.477720
vt 0.265625 0.698192
vt 0.084522 0.643074
vt 0.202632 0.769059
vt 0.084522 0.643074
vt 0.265625 0.698192
vt 0.265625 0.698192
vt 0.084522 0.643074
vt 0.202632 0.769059
vt 0.643577 0.832051
vt 0.580585 0.776933
vt 0.580585 0.887169
vt 0.525467 0.887169
vt 0.580585 0.887169
vt 0.580585 0.776933
vt 0.580585 0.776933
vt 0.525467 0.776933
vt 0.525467 0.887169
vt 0.525467 0.776933
vt 0.580585 0.776933
vt 0.525467 0.887169
vt 0.580585 0.887169
vt 0.525467 0.887169
vt 0.580585 0.776933
vt 0.580585 0.776933
vt 0.643577 0.832051
vt 0.580585 0.887169
vn 0.0000 -1.0000 0.0000
vn 0.6585 -0.0000 -0.7526
vn 0.6585 -0.0000 0.7526
vn -1.0000 0.0000 0.0000
vn 1.0000 -0.0000 0.0000
vn -0.9514 -0.1512 -0.2684
vn -0.9554 -0.1541 -0.2518
vn -0.9463 0.0000 0.3232
vn -0.9550 0.0135 0.2964
vn 0.0000 0.3735 -0.9276
vn 0.9431 -0.0353 0.3308
vn 0.9530 -0.1132 0.2810
vn -0.3422 0.8547 -0.3904
vn -0.9433 -0.0352 0.3301
vn 0.0000 -0.6688 0.7435
vn 0.0000 0.3735 0.9276
vn -0.6626 0.1827 0.7264
vn -0.6463 0.1967 0.7373
vn 0.6608 0.1935 0.7252
vn 0.6479 0.1786 0.7405
vn 0.6629 0.1839 -0.7258
vn 0.6453 0.1990 -0.7375
vn -0.6618 0.1953 -0.7238
vn -0.6484 0.1799 -0.7397
vn -0.6592 0.0000 -0.7520
vn -0.6592 0.0000 0.7520
vn 0.9431 -0.0353 -0.3308
vn 0.9530 -0.1132 -0.2810
vn 0.9601 -0.1146 -0.2550
vn 0.9548 0.0135 -0.2971
vn -0.9550 0.0135 -0.2964
vn -0.9463 0.0000 -0.3232
vn 0.0000 0.0000 1.0000
vn 0.0000 0.4907 0.8713
vn 0.0000 0.4906 -0.8714
vn 0.9511 -0.1515 0.2690
vn 0.9461 -0.0000 0.3239
vn 0.9548 0.0135 0.2971
vn 0.9601 -0.1146 0.2550
vn -0.9603 -0.1143 0.2544
vn -0.9532 -0.1129 0.2804
vn 0.0000 0.0000 -1.0000
vn 0.0000 0.4907 -0.8713
vn 0.0000 0.4906 0.8714
vn 0.0000 0.8709 -0.4915
vn 0.0000 -0.6688 -0.7435
vn 0.3417 0.8549 -0.3905
vn 0.3417 0.8549 0.3905
vn -0.3422 0.8547 0.3904
vn 0.0000 0.8709 0.4915
vn -0.9603 -0.1143 -0.2544
vn -0.9532 -0.1129 -0.2804
vn -0.9433 -0.0352 -0.3301
vn 0.9461 -0.0000 -0.3239
vn 0.9511 -0.1515 -0.2690
vn 0.9552 -0.1544 -0.2523
vn -0.9514 -0.1512 0.2684
vn -0.9554 -0.1541 0.2518
vn 0.9552 -0.1544 0.2523
vn 0.0000 -0.9541 -0.2995
vn 0.0000 0.1061 0.9944
vn 0.0000 0.1061 -0.9944
vn 0.0000 -0.9541 0.2995
o base
usemtl Brush.030
f 1/1/1 2/2/1 3/3/1
f 4/4/1 5/5/1 6/6/1
f 7/7/2 8/8/2 9/9/2
f 10/10/3 11/11/3 12/12/3
f 13/13/4 14/14/4 15/15/4
f 16/16/5 17/17/5 18/18/5
f 19/19/5 20/20/5 21/21/5
f 22/22/4 23/23/4 24/24/4
f 25/25/5 26/26/5 27/27/5
f 28/28/4 29/29/4 30/30/4
f 31/31/4 32/32/4 33/33/4
f 34/34/5 35/35/5 36/36/5
f 37/37/5 38/38/5 39/39/5
f 40/40/4 41/41/4 42/42/4
f 43/43/4 44/44/4 45/45/4
f 46/46/5 47/47/5 48/48/5
f 49/49/5 50/50/5 51/51/5
f 52/52/4 53/53/4 54/54/4
f 55/55/5 56/56/5 57/57/5
f 58/58/4 59/59/4 60/60/4
f 61/61/5 62/62/5 63/63/5
f 64/64/4 65/65/4 66/66/4
f 67/67/5 68/68/5 69/69/5
f 70/70/4 71/71/4 72/72/4
f 73/73/5 74/74/5 75/75/5
f 76/76/4 77/77/4 78/78/4
f 79/79/5 80/80/5 81/81/5
f 82/82/4 83/83/4 84/84/4
f 85/85/5 86/86/5 87/87/5
f 88/88/4 89/89/4 90/90/4
f 91/91/5 92/92/5 93/93/5
f 94/94/4 95/95/4 96/96/4
f 97/97/5 98/98/5 99/99/5
f 100/100/4 101/101/4 102/102/4
f 103/103/5 104/104/5 105/105/5
f 106/106/4 107/107/4 108/108/4
f 109/109/5 110/110/5 111/111/5
f 112/112/4 113/113/4 114/114/4
f 115/115/5 116/116/5 117/117/5
f 118/118/4 119/119/4 120/120/4
f 121/121/5 122/122/5 123/123/5
f 124/124/4 125/125/4 126/126/4
f 127/127/5 128/128/5 129/129/5
f 130/130/4 131/131/4 132/132/4
f 133/133/5 134/134/5 135/135/5
f 136/136/4 137/137/4 138/138/4
f 139/139/5 140/140/5 141/141/5
f 142/142/4 143/143/4 144/144/4
f 145/145/5 146/146/5 147/147/5
f 148/148/4 149/149/4 150/150/4
f 151/151/5 152/152/5 153/153/5
f 154/154/4 155/155/4 156/156/4
f 157/157/5 158/158/5 159/159/5
f 160/160/4 161/161/4 162/162/4
f 163/163/5 164/164/5 165/165/5
f 166/166/4 167/167/4 168/168/4
f 169/169/5 170/170/5 171/171/5
f 172/172/4 173/173/4 174/174/4
f 175/175/5 176/176/5 177/177/5
f 178/178/4 179/179/4 180/180/4
f 181/181/5 182/182/5 183/183/5
f 184/184/4 185/185/4 186/186/4
f 187/187/5 188/188/5 189/189/5
f 190/190/4 191/191/4 192/192/4
f 193/193/5 194/194/5 195/195/5
f 196/196/4 197/197/4 198/198/4
f 199/199/5 200/200/5 201/201/5
f 202/202/4 203/203/4 204/204/4
f 205/205/5 206/206/5 207/207/5
f 208/208/4 209/209/4 210/210/4
f 211/211/5 212/212/5 213/213/5
f 214/214/4 215/215/4 216/216/4
f 217/217/5 218/218/5 219/219/5
f 220/220/4 221/221/4 222/222/4
f 223/223/5 224/224/5 225/225/5
f 226/226/4 227/227/4 228/228/4
f 229/229/5 230/230/5 231/231/5
f 232/232/4 233/233/4 234/234/4
f 235/235/5 236/236/5 237/237/5
f 238/238/4 239/239/4 240/240/4
f 241/241/5 242/242/5 243/243/5
f 244/244/4 245/245/4 246/246/4
f 247/247/5 248/248/5 249/249/5
f 250/250/4 251/251/4 252/252/4
f 253/253/5 254/254/5 255/255/5
f 256/256/4 257/257/4 258/258/4
f 259/259/5 260/260/5 261/261/5
f 262/262/4 263/263/4 264/264/4
f 265/265/5 266/266/5 267/267/5
f 268/268/4 269/269/4 270/270/4
f 271/271/6 272/272/6 273/273/6
f 274/274/7 275/275/7 276/276/7
f 277/277/8 278/278/8 279/279/8
f 280/280/9 281/281/9 282/282/9
f 283/283/5 284/284/5 285/285/5
f 286/286/4 287/287/4 288/288/4
f 289/289/10 290/290/10 291/291/10
f 292/292/10 293/293/10 294/294/10
f 295/295/11 296/296/11 297/297/11
f 298/298/12 299/299/12 300/300/12
f 301/301/13 302/302/13 303/303/13
f 304/304/5 305/305/5 306/306/5
f 307/307/4 308/308/4 309/309/4
f 310/310/5 311/311/5 312/312/5
f 313/313/4 314/314/4 315/315/4
f 316/316/4 317/317/4 318/318/4
f 319/319/5 320/320/5 321/321/5
f 322/322/5 323/323/5 324/324/5
f 325/325/4 326/326/4 327/327/4
f 328/328/5 329/329/5 330/330/5
f 331/331/14 332/332/14 333/333/14
f 334/334/5 335/335/5 336/336/5
f 337/337/15 338/338/15 339/339/15
f 340/340/16 341/341/16 342/342/16
f 343/343/17 344/344/17 345/345/17
f 346/346/18 347/347/18 348/348/18
f 349/349/19 350/350/19 351/351/19
f 352/352/20 353/353/20 354/354/20
f 355/355/21 356/356/21 357/357/21
f 358/358/22 359/359/22 360/360/22
f 361/361/23 362/362/23 363/363/23
f 364/364/24 365/365/24 366/366/24
f 367/367/2 368/368/2 369/369/2
f 370/370/25 371/371/25 372/372/25
f 373/373/25 374/374/25 375/375/25
f 376/376/26 377/377/26 378/378/26
f 379/379/26 380/380/26 381/381/26
f 382/382/3 383/383/3 384/384/3
f 385/385/27 386/386/27 387/387/27
f 388/388/28 389/389/28 390/390/28
f 391/391/29 392/392/29 393/393/29
f 394/394/30 395/395/30 396/396/30
f 397/397/31 398/398/31 399/399/31
f 400/400/32 401/401/32 402/402/32
f 403/403/16 404/404/16 405/405/16
f 406/406/33 407/407/33 408/408/33
f 409/409/33 410/410/33 411/411/33
f 412/412/34 413/413/34 414/414/34
f 415/415/34 416/416/34 417/417/34
f 418/418/35 419/419/35 420/420/35
f 421/421/36 422/422/36 423/423/36
f 424/424/37 425/425/37 426/426/37
f 427/427/38 428/428/38 429/429/38
f 430/430/39 431/431/39 432/432/39
f 433/433/40 434/434/40 435/435/40
f 436/436/41 437/437/41 438/438/41
f 439/439/42 440/440/42 441/441/42
f 442/442/42 443/443/42 444/444/42
f 445/445/43 446/446/43 447/447/43
f 448/448/43 449/449/43 450/450/43
f 451/451/44 452/452/44 453/453/44
f 454/454/45 455/455/45 456/456/45
f 457/457/45 458/458/45 459/459/45
f 460/460/46 461/461/46 462/462/46
f 463/463/46 464/464/46 465/465/46
f 466/466/47 467/467/47 468/468/47
f 469/469/48 470/470/48 471/471/48
f 472/472/49 473/473/49 474/474/49
f 475/475/5 476/476/5 477/477/5
f 478/478/4 479/479/4 480/480/4
f 481/481/4 482/482/4 483/483/4
f 484/484/50 485/485/50 486/486/50
f 487/487/50 488/488/50 489/489/50
f 490/490/15 491/491/15 492/492/15
f 493/493/4 494/494/4 495/495/4
f 496/496/4 497/497/4 498/498/4
f 499/499/5 500/500/5 501/501/5
f 502/502/51 503/503/51 504/504/51
f 505/505/52 506/506/52 507/507/52
f 508/508/53 509/509/53 510/510/53
f 511/511/54 512/512/54 513/513/54
f 514/514/55 515/515/55 516/516/55
f 517/517/56 518/518/56 519/519/56
f 520/520/57 521/521/57 522/522/57
f 523/523/58 524/524/58 525/525/58
f 526/526/59 527/527/59 528/528/59
f 529/529/60 530/530/60 531/531/60
f 532/532/61 533/533/61 534/534/61
f 535/535/61 536/536/61 537/537/61
f 538/538/62 539/539/62 540/540/62
f 541/541/62 542/542/62 543/543/62
f 544/544/63 545/545/63 546/546/63
