mtllib fenrir.mtl
v -0.019331 -61.172535 5.452194
v -0.019338 -48.865685 5.452202
v -0.019338 -48.865681 1.665241
v -0.019338 -48.865685 5.452202
v -0.019331 -61.172535 5.452194
v -0.019338 -48.865681 1.665241
v -0.019338 -48.865681 1.665241
v -0.019331 -61.172535 5.452194
v -0.019331 -61.172535 -1.650440
v -0.019331 -61.172535 5.452194
v -0.019338 -48.865681 1.665241
v -0.019331 -61.172535 -1.650440
v -0.019331 -61.172535 -1.650440
v -0.019338 -48.865681 1.665241
v -0.019338 -48.865681 -1.650440
v -0.019338 -48.865681 1.665241
v -0.019338 -46.166080 1.665241
v -0.019338 -48.865681 -1.650440
v -0.019338 -48.865681 -1.650440
v -0.019338 -46.166080 1.665241
v -0.019338 -46.166080 -1.650440
v -0.019338 -46.166080 1.665241
v -0.019338 -48.865681 1.665241
v -0.019338 -46.166080 -1.650440
v -0.019338 -46.166080 -1.650440
v -0.019338 -48.865681 1.665241
v -0.019338 -48.865681 -1.650440
v -0.019338 -48.865681 1.665241
v -0.019331 -61.172535 -1.650440
v -0.019338 -48.865681 -1.650440
v -0.019338 -48.865681 -1.650440
v -0.019331 -61.172535 -1.650440
v -0.019331 -61.172535 -3.628029
v -0.019331 -61.172535 -1.650440
v -0.019338 -48.865681 -1.650440
v -0.019331 -61.172535 -3.628029
v -0.019331 -61.172535 -3.628029
v -0.019338 -48.865677 -5.437393
v -0.019338 -48.865681 -1.650440
v -0.019338 -48.865681 -1.650440
v -0.019338 -48.865677 -5.437393
v -0.019331 -61.172535 -3.628029
v -0.019338 -48.865677 -5.437393
v -0.019331 -61.172535 -3.628029
v -0.019331 -61.172535 -5.437393
v -0.019331 -61.172535 -3.628029
v -0.019338 -48.865677 -5.437393
v -0.019331 -61.172535 -5.437393
v -0.019346 -26.901718 2.058277
v -0.019346 -26.901720 -2.043476
v -0.019354 -19.176355 -2.552891
v -0.019346 -26.901720 -2.043476
v -0.019346 -26.901718 2.058277
v -0.019354 -19.176355 -2.552891
v -0.019354 -19.176355 -2.552891
v -0.019354 -16.221823 2.058277
v -0.019346 -26.901718 2.058277
v -0.019346 -26.901718 2.058277
v -0.019354 -16.221823 2.058277
v -0.019354 -19.176355 -2.552891
v -0.019354 -16.221823 2.058277
v -0.019354 -19.176355 -2.552891
v -0.019354 -16.221825 -2.043476
v -0.019354 -19.176355 -2.552891
v -0.019354 -16.221823 2.058277
v -0.019354 -16.221825 -2.043476
v 2.099917 -29.962448 0.007401
v -2.138609 -24.778158 0.007401
v 2.099917 -24.778156 0.007401
v 2.099917 -24.778156 0.007401
v -2.138609 -24.778158 0.007401
v -2.138609 -29.962448 0.007401
v -2.138609 -24.778158 0.007401
v 2.099917 -29.962448 0.007401
v -2.138609 -29.962448 0.007401
v -2.138609 -29.962448 0.007401
v 2.099917 -29.962448 0.007401
v 2.099917 -24.778156 0.007401
v 2.099917 -35.903576 0.007401
v -2.138609 -30.982922 0.007401
v 2.099917 -30.982922 0.007401
v 2.099917 -30.982922 0.007401
v -2.138609 -30.982922 0.007401
v -2.138609 -35.903576 0.007401
v -2.138609 -30.982922 0.007401
v 2.099917 -35.903576 0.007401
v -2.138609 -35.903576 0.007401
v -2.138609 -35.903576 0.007401
v 2.099917 -35.903576 0.007401
v 2.099917 -30.982922 0.007401
v -2.138601 -42.100224 0.007401
v 2.099917 -36.956608 0.007401
v 2.099924 -42.100224 0.007401
v 2.099924 -42.100224 0.007401
v 2.099917 -36.956608 0.007401
v -2.138609 -36.956608 0.007401
v 2.099917 -36.956608 0.007401
v -2.138601 -42.100224 0.007401
v -2.138609 -36.956608 0.007401
v -2.138609 -36.956608 0.007401
v -2.138601 -42.100224 0.007401
v 2.099924 -42.100224 0.007401
v -2.138601 -48.136318 0.007401
v 2.099924 -43.109409 0.007401
v 2.099924 -48.136318 0.007401
v 2.099924 -43.109409 0.007401
v 2.099924 -43.109409 0.007401
v 2.099924 -48.136318 0.007401
v 2.099924 -48.136318 0.007401
v 2.099924 -43.109409 0.007401
v -2.138601 -43.109409 0.007401
v 2.099924 -43.109409 0.007401
v -2.138601 -48.136318 0.007401
v -2.138601 -43.109409 0.007401
v -2.138601 -43.109409 0.007401
v -2.138601 -48.136318 0.007401
v 2.099924 -48.136318 0.007401
v -0.019346 -33.055439 -2.767548
v -0.019346 -27.753574 2.782349
v -0.019346 -27.753574 -2.767548
v -0.019346 -27.753574 -2.767548
v -0.019346 -27.753574 2.782349
v -0.019346 -33.055439 2.782349
v -0.019346 -27.753574 2.782349
v -0.019346 -33.055439 -2.767548
v -0.019346 -33.055439 2.782349
v -0.019346 -33.055439 2.782349
v -0.019346 -33.055439 -2.767548
v -0.019346 -27.753574 -2.767548
v -0.019346 -39.142193 -2.767548
v -0.019346 -33.875935 2.782349
v -0.019346 -33.875935 -2.767548
v -0.019346 -33.875935 -2.767548
v -0.019346 -33.875935 2.782349
v -0.019346 -39.142193 2.782349
v -0.019346 -33.875935 2.782349
v -0.019346 -39.142193 -2.767548
v -0.019346 -39.142193 2.782349
v -0.019346 -39.142193 2.782349
v -0.019346 -39.142193 -2.767548
v -0.019346 -33.875935 -2.767548
v -0.019338 -45.237103 -2.767548
v -0.019338 -39.935238 2.782349
v -0.019338 -39.935238 -2.767548
v -0.019338 -39.935238 -2.767548
v -0.019338 -39.935238 2.782349
v -0.019338 -45.237103 2.782349
v -0.019338 -39.935238 2.782349
v -0.019338 -45.237103 -2.767548
v -0.019338 -45.237103 2.782349
v -0.019338 -45.237103 2.782349
v -0.019338 -45.237103 -2.767548
v -0.019338 -39.935238 -2.767548
vt 0.698242 0.761231
vt 0.513672 0.761231
vt 0.513672 0.647461
vt 0.513672 0.761231
vt 0.698242 0.761231
vt 0.513672 0.647461
vt 0.513672 0.647461
vt 0.698242 0.761231
vt 0.698242 0.548096
vt 0.698242 0.761231
vt 0.513672 0.647461
vt 0.698242 0.548096
vt 0.698242 0.548096
vt 0.513672 0.647461
vt 0.513672 0.548096
vt 0.513672 0.647461
vt 0.473145 0.647461
vt 0.513672 0.548096
vt 0.513672 0.548096
vt 0.473145 0.647461
vt 0.473145 0.548096
vt 0.473145 0.647461
vt 0.513672 0.647461
vt 0.473145 0.548096
vt 0.473145 0.548096
vt 0.513672 0.647461
vt 0.513672 0.548096
vt 0.513672 0.647461
vt 0.698242 0.548096
vt 0.513672 0.548096
vt 0.513672 0.548096
vt 0.698242 0.548096
vt 0.698242 0.488770
vt 0.698242 0.548096
vt 0.513672 0.548096
vt 0.698242 0.488770
vt 0.698242 0.488770
vt 0.513672 0.434570
vt 0.513672 0.548096
vt 0.513672 0.548096
vt 0.513672 0.434570
vt 0.698242 0.488770
vt 0.513672 0.434570
vt 0.698242 0.488770
vt 0.698242 0.434570
vt 0.698242 0.488770
vt 0.513672 0.434570
vt 0.698242 0.434570
vt 0.076172 0.665528
vt 0.014404 0.665528
vt 0.008057 0.889404
vt 0.014404 0.665528
vt 0.076172 0.665528
vt 0.008057 0.889404
vt 0.008057 0.889404
vt 0.074951 0.978028
vt 0.076172 0.665528
vt 0.076172 0.665528
vt 0.074951 0.978028
vt 0.008057 0.889404
vt 0.074951 0.978028
vt 0.008057 0.889404
vt 0.014404 0.978028
vt 0.008057 0.889404
vt 0.074951 0.978028
vt 0.014404 0.978028
vt 0.194580 0.851319
vt 0.247070 0.762451
vt 0.247070 0.851319
vt 0.247070 0.851319
vt 0.247070 0.762451
vt 0.194580 0.762451
vt 0.247070 0.762451
vt 0.194580 0.851319
vt 0.194580 0.762451
vt 0.194580 0.762451
vt 0.194580 0.851319
vt 0.247070 0.851319
vt 0.194580 0.851319
vt 0.247070 0.762451
vt 0.247070 0.851319
vt 0.247070 0.851319
vt 0.247070 0.762451
vt 0.194580 0.762451
vt 0.247070 0.762451
vt 0.194580 0.851319
vt 0.194580 0.762451
vt 0.194580 0.762451
vt 0.194580 0.851319
vt 0.247070 0.851319
vt 0.194580 0.762451
vt 0.247070 0.851319
vt 0.194580 0.851319
vt 0.194580 0.851319
vt 0.247070 0.851319
vt 0.247070 0.762451
vt 0.247070 0.851319
vt 0.194580 0.762451
vt 0.247070 0.762451
vt 0.247070 0.762451
vt 0.194580 0.762451
vt 0.194580 0.851319
vt 0.194580 0.762451
vt 0.247070 0.851319
vt 0.194580 0.851319
vt 0.247070 0.851319
vt 0.247070 0.851319
vt 0.194580 0.851319
vt 0.194580 0.851319
vt 0.247070 0.851319
vt 0.247070 0.762451
vt 0.247070 0.851319
vt 0.194580 0.762451
vt 0.247070 0.762451
vt 0.247070 0.762451
vt 0.194580 0.762451
vt 0.194580 0.851319
vt 0.097900 0.862061
vt 0.157959 0.976807
vt 0.097900 0.976807
vt 0.097900 0.976807
vt 0.157959 0.976807
vt 0.157959 0.862061
vt 0.157959 0.976807
vt 0.097900 0.862061
vt 0.157959 0.862061
vt 0.157959 0.862061
vt 0.097900 0.862061
vt 0.097900 0.976807
vt 0.097900 0.862061
vt 0.157959 0.976807
vt 0.097900 0.976807
vt 0.097900 0.976807
vt 0.157959 0.976807
vt 0.157959 0.862061
vt 0.157959 0.976807
vt 0.097900 0.862061
vt 0.157959 0.862061
vt 0.157959 0.862061
vt 0.097900 0.862061
vt 0.097900 0.976807
vt 0.097900 0.862061
vt 0.157959 0.976807
vt 0.097900 0.976807
vt 0.097900 0.976807
vt 0.157959 0.976807
vt 0.157959 0.862061
vt 0.157959 0.976807
vt 0.097900 0.862061
vt 0.157959 0.862061
vt 0.157959 0.862061
vt 0.097900 0.862061
vt 0.097900 0.976807
vn -1.0000 -0.0000 -0.0000
vn 1.0000 0.0000 0.0000
vn 0.0000 0.0000 -1.0000
vn 0.0000 0.0000 1.0000
o keychain
usemtl Brush.034
f 1/1/1 2/2/1 3/3/1
f 4/4/2 5/5/2 6/6/2
f 7/7/2 8/8/2 9/9/2
f 10/10/1 11/11/1 12/12/1
f 13/13/1 14/14/1 15/15/1
f 16/16/1 17/17/1 18/18/1
f 19/19/1 20/20/1 21/21/1
f 22/22/2 23/23/2 24/24/2
f 25/25/2 26/26/2 27/27/2
f 28/28/2 29/29/2 30/30/2
f 31/31/2 32/32/2 33/33/2
f 34/34/1 35/35/1 36/36/1
f 37/37/2 38/38/2 39/39/2
f 40/40/1 41/41/1 42/42/1
f 43/43/2 44/44/2 45/45/2
f 46/46/1 47/47/1 48/48/1
f 49/49/2 50/50/2 51/51/2
f 52/52/1 53/53/1 54/54/1
f 55/55/2 56/56/2 57/57/2
f 58/58/1 59/59/1 60/60/1
f 61/61/2 62/62/2 63/63/2
f 64/64/1 65/65/1 66/66/1
f 67/67/3 68/68/3 69/69/3
f 70/70/4 71/71/4 72/72/4
f 73/73/3 74/74/3 75/75/3
f 76/76/4 77/77/4 78/78/4
f 79/79/3 80/80/3 81/81/3
f 82/82/4 83/83/4 84/84/4
f 85/85/3 86/86/3 87/87/3
f 88/88/4 89/89/4 90/90/4
f 91/91/3 92/92/3 93/93/3
f 94/94/4 95/95/4 96/96/4
f 97/97/3 98/98/3 99/99/3
f 100/100/4 101/101/4 102/102/4
f 103/103/3 104/104/3 105/105/3
f 106/106/4 107/107/4 108/108/4
f 109/109/4 110/110/4 111/111/4
f 112/112/3 113/113/3 114/114/3
f 115/115/4 116/116/4 117/117/4
f 118/118/1 119/119/1 120/120/1
f 121/121/2 122/122/2 123/123/2
f 124/124/1 125/125/1 126/126/1
f 127/127/2 128/128/2 129/129/2
f 130/130/1 131/131/1 132/132/1
f 133/133/2 134/134/2 135/135/2
f 136/136/1 137/137/1 138/138/1
f 139/139/2 140/140/2 141/141/2
f 142/142/1 143/143/1 144/144/1
f 145/145/2 146/146/2 147/147/2
f 148/148/1 149/149/1 150/150/1
f 151/151/2 152/152/2 153/153/2
