mtllib ferrisgear.mtl
o mesh_mesh.017
v 2.261420 84.215805 4.794458
v 2.261420 74.626900 4.794458
v 2.261420 79.421402 6.778157
v 2.261420 74.626900 4.794458
v 2.261420 84.215805 4.794458
v 2.261420 72.640198 -0.000002
v 2.261420 72.640198 -0.000002
v 2.261420 74.626900 -4.794463
v -2.056950 72.640198 -0.000002
v -2.056950 72.640198 -0.000002
v 2.261420 74.626900 4.794458
v 2.261420 72.640198 -0.000002
v 2.209540 -12.439300 7.754750
v -2.206490 -4.687640 10.766900
v -2.212590 -12.439300 7.754750
v -2.212590 -12.439300 7.754750
v 2.209540 -13.260301 3.750720
v 2.209540 -12.439300 7.754750
v -2.056950 84.215805 -4.794462
v 2.261420 86.202599 -0.000003
v -2.056950 86.202599 -0.000003
v 2.261420 86.202599 -0.000003
v -2.056950 84.215805 4.794458
v -2.056950 86.202599 -0.000003
v -1.873840 44.471600 3.247169
v -1.727350 72.594398 -0.000002
v -1.031530 73.354301 1.788378
v -1.873840 44.471600 3.247169
v -3.750720 44.471600 -0.000001
v -1.727350 72.594398 -0.000002
v 2.832120 37.565197 -4.904322
v 9.048739 33.017998 -0.000001
v 5.664240 37.565197 -0.000002
v 9.048739 33.017998 -0.000001
v 2.832120 37.565197 -4.904322
v 4.522840 33.017998 -7.837152
v 5.957210 30.906099 -0.000001
v 2.978610 30.906099 5.157629
v 4.522840 33.017998 7.837150
v 2.978610 30.906099 5.157629
v -4.522840 33.017998 7.837150
v 4.522840 33.017998 7.837150
v 2.371290 29.093302 4.104740
v -2.371290 29.093302 4.104740
v -2.978610 30.906099 5.157629
v -2.371290 29.093302 4.104740
v -5.957210 30.906099 -0.000000
v -2.978610 30.906099 5.157629
v 2.209540 10.928700 -2.224801
v 2.209540 13.064999 -8.874780
v 2.209540 7.275609 -1.950131
v 2.209540 13.064999 -8.874780
v 2.209540 10.928700 -2.224801
v 2.209540 13.443400 -5.160680
v 5.941951 27.771801 7.238989
v -6.002990 20.526699 10.238999
v -6.002990 27.771801 7.238990
v 5.941951 27.771801 7.238989
v 5.941951 20.526699 10.238999
v -6.002990 20.526699 10.238999
v -6.002991 13.281699 -7.238990
v -6.002991 27.771801 -7.238990
v -6.002990 10.281700 0.003052
v -6.002991 27.771801 -7.238990
v -6.002991 13.281699 -7.238990
v -6.002991 20.526699 -10.239001
v 5.941951 13.281701 7.238989
v 5.941951 20.526699 10.238999
v 5.941951 27.771801 7.238989
v 5.941951 27.771801 7.238989
v 5.941950 10.281700 0.003051
v 5.941951 13.281701 7.238989
v 2.209540 -22.174700 0.000001
v 2.209540 -13.260301 3.750720
v 2.209540 -11.615300 -0.000000
v 2.209540 -13.260301 -3.750719
v 2.209540 -22.174700 0.000001
v 2.209540 -11.615300 -0.000000
v -2.212590 -11.615300 0.000001
v -2.212590 -13.260301 3.750720
v -2.212590 -22.174700 0.000001
v -2.212590 -11.615300 0.000001
v -2.212590 -22.174700 0.000001
v -2.212590 -13.260301 -3.750719
v 2.209540 -4.687641 -10.766900
v 2.209540 -13.498301 -12.543100
v 2.209540 -12.439301 -7.754749
v 2.209540 -4.687641 -10.766900
v 2.209539 -6.106751 -15.183001
v 2.209540 -13.498301 -12.543100
v -2.209540 10.928700 2.224800
v -2.209540 13.065001 8.874780
v -2.209540 7.275609 1.950130
v -2.209540 13.065001 8.874780
v -2.209540 10.928700 2.224800
v -2.209540 13.443400 5.160679
v -2.716151 77.474304 -15.131102
v -2.716151 74.773399 -12.430202
v -2.716151 75.939201 -15.222603
v 2.261420 74.626900 4.794458
v -2.056950 72.640198 -0.000002
v -2.056950 74.626900 4.794458
v -2.716150 88.973701 0.021360
v -2.716150 84.090698 -7.071142
v -2.716150 90.032700 -1.037633
v -2.716151 73.622902 -11.407803
v -2.716151 64.925095 -9.768972
v -2.716151 64.925095 -11.267402
v 2.209541 4.709010 12.741500
v 2.209540 3.872801 7.718130
v 2.209541 1.470991 9.387490
v -2.768030 72.225098 2.121037
v -2.768030 79.522095 4.077267
v -2.768030 71.312599 3.701898
v -2.768031 87.734596 -24.741402
v -2.768031 86.822098 -23.160501
v -2.768031 79.522095 -25.116701
v 2.209540 10.928700 2.224800
v 2.209541 13.065001 8.874780
v 2.209540 13.443400 5.160679
v 2.209541 -13.498302 12.543100
v 2.209541 -4.687640 10.766900
v 2.209540 -12.439300 7.754750
v -2.716151 68.965698 -19.919401
v -2.716151 70.024696 -20.978401
v -2.716151 75.939201 -15.222603
v -2.209540 13.065001 8.874780
v 2.209541 10.174900 11.267399
v -2.209540 10.174900 11.267399
v -2.209540 3.872801 7.718130
v -2.206490 4.709010 12.741500
v -2.206490 1.470991 9.387490
v 3.750720 44.471600 -0.000001
v 1.873840 44.471600 3.247169
v 1.727350 72.594398 -0.000002
v -2.832120 37.565197 4.904319
v -9.048739 33.017998 -0.000000
v -5.664240 37.565197 -0.000001
v -2.832120 37.565197 -4.904322
v -9.048739 33.017998 -0.000000
v -4.522840 33.017998 -7.837152
v -2.209540 10.928700 -2.224801
v -2.209541 13.064999 -8.874780
v -2.209540 13.443400 -5.160680
v 5.664240 37.565197 -0.000002
v 1.873840 44.471600 -3.247171
v 2.832120 37.565197 -4.904322
v -2.206489 4.010130 18.549200
v -2.206490 4.709010 12.741500
v -2.206489 5.569631 14.310101
v 5.941951 20.526699 10.238999
v -6.002990 13.281701 7.238990
v -6.002990 20.526699 10.238999
v 5.941950 20.526699 -10.239001
v -6.002991 20.526699 -10.239001
v -6.002991 13.281699 -7.238990
v 0.000000 4.931790 -2.984710
v -2.288890 6.103700 -0.000000
v -2.984710 4.931790 -0.000000
v 0.000000 4.931790 2.984710
v -1.632740 3.180030 -0.000000
v -2.984710 4.931790 -0.000000
v -1.632740 -9.811700 0.000001
v 0.000000 3.180030 -1.632740
v -1.632740 3.180030 -0.000000
v -2.072210 -11.548201 0.000001
v 0.000000 -9.811700 -1.632739
v -1.632740 -9.811700 0.000001
v 2.209540 -22.174700 0.000001
v 2.209540 -20.612200 -3.686639
v -2.212590 -20.612200 -3.686639
v 2.209540 3.872800 -7.718131
v 2.209540 4.709009 -12.741500
v 2.209540 1.470989 -9.387490
v -2.206491 4.709009 -12.741500
v -2.209540 3.872800 -7.718131
v -2.206491 1.470989 -9.387490
v -2.203439 -13.498302 12.543100
v -2.212590 -15.897099 11.920500
v -2.212590 -12.439300 7.754750
v -2.206490 -4.687640 10.766900
v -2.209540 4.364150 -4.235970
v 2.209540 3.872800 -7.718131
v -2.209540 3.872800 -7.718131
v -2.716151 80.135498 -25.147303
v -2.716151 80.275902 -16.281603
v -2.716151 78.637001 -25.147303
v -2.716151 94.119102 -11.267403
v -2.716151 94.119102 -9.768973
v -2.716151 85.149696 -11.407803
v -2.768031 71.312599 -24.741402
v -2.768031 79.522095 -25.116701
v -2.768031 72.225098 -23.160501
v -2.716150 75.939201 -5.813782
v -2.716150 70.030800 -0.027469
v -2.716150 68.971802 -1.089512
v -2.203439 -13.498302 12.543100
v -2.206489 -6.106749 15.183001
v 2.209541 -6.106749 15.183001
v 2.209541 -6.106749 15.183001
v -2.206489 -6.106749 15.183001
v -2.206489 -4.223760 18.964199
v 2.209541 -6.106749 15.183001
v -2.206489 -4.223760 18.964199
v 2.209541 -4.223760 18.964199
v 2.209541 -4.223760 18.964199
v -2.206489 -4.223760 18.964199
v -2.206489 -0.036621 20.389400
v 2.209541 -4.223760 18.964199
v -2.206489 -0.036621 20.389400
v 2.209541 -0.036621 20.389400
v 2.209541 -0.036621 20.389400
v -2.206489 -0.036621 20.389400
v -2.206489 4.010130 18.549200
v 2.209541 -0.036621 20.389400
v -2.206489 4.010130 18.549200
v 2.209541 4.010130 18.549200
v 2.209541 4.010130 18.549200
v -2.206489 4.010130 18.549200
v -2.206489 5.569631 14.310101
v 2.209541 4.010130 18.549200
v -2.206489 5.569631 14.310101
v 2.209541 5.569631 14.310101
v 2.209541 5.569631 14.310101
v -2.206489 5.569631 14.310101
v 2.209541 4.709010 12.741500
v 2.209541 -6.106749 15.183001
v 2.209541 -13.498302 12.543100
v -2.203439 -13.498302 12.543100
v -2.203439 -13.498302 12.543100
v 2.209541 -13.498302 12.543100
v 2.209541 -15.897099 11.920500
v -2.203439 -13.498302 12.543100
v 2.209541 -15.897099 11.920500
v -2.212590 -15.897099 11.920500
v -2.212590 -15.897099 11.920500
v 2.209541 -15.897099 11.920500
v 2.209540 -17.941799 4.937901
v -2.212590 -15.897099 11.920500
v 2.209540 -17.941799 4.937901
v -2.212590 -17.941799 4.937901
v -2.212590 -17.941799 4.937901
v 2.209540 -17.941799 4.937901
v 2.209540 -20.612200 3.686641
v -2.212590 -17.941799 4.937901
v 2.209540 -20.612200 3.686641
v -2.212590 -20.612200 3.686641
v -2.212590 -20.612200 3.686641
v 2.209540 -20.612200 3.686641
v 2.209540 -22.174700 0.000001
v -2.212590 -20.612200 3.686641
v 2.209540 -22.174700 0.000001
v -2.212590 -22.174700 0.000001
v -2.212590 -22.174700 0.000001
v 2.209540 -22.174700 0.000001
v -2.212590 -20.612200 -3.686639
v 2.209539 5.569630 -14.310101
v -2.206491 5.569630 -14.310101
v 2.209539 4.010129 -18.549200
v 2.209539 4.010129 -18.549200
v -2.206491 5.569630 -14.310101
v -2.206491 4.010129 -18.549200
v 2.209539 4.010129 -18.549200
v -2.206491 4.010129 -18.549200
v 2.209539 -0.036623 -20.389400
v 2.209539 -0.036623 -20.389400
v -2.206491 4.010129 -18.549200
v -2.206491 -0.036623 -20.389400
v 2.209539 -0.036623 -20.389400
v -2.206491 -0.036623 -20.389400
v 2.209539 -4.223761 -18.964199
v 2.209539 -4.223761 -18.964199
v -2.206491 -0.036623 -20.389400
v -2.206491 -4.223761 -18.964199
v 2.209539 -4.223761 -18.964199
v -2.206491 -4.223761 -18.964199
v 2.209539 -6.106751 -15.183001
v 2.209539 -6.106751 -15.183001
v -2.206491 -4.223761 -18.964199
v -2.206491 -6.106751 -15.183001
v 2.209539 -6.106751 -15.183001
v -2.206491 -6.106751 -15.183001
v -2.203440 -13.498301 -12.543100
v -2.716151 80.275902 -16.281603
v -2.716151 77.474304 -15.131102
v -2.716151 78.499695 -16.281603
v -2.716151 80.275902 -16.281603
v -2.716151 81.298294 -15.131102
v -2.716151 77.474304 -15.131102
v -2.716151 81.298294 -15.131102
v -2.716151 84.002205 -12.430202
v -2.716151 77.474304 -15.131102
v -2.716151 82.833305 -15.222603
v -2.716151 88.952301 -21.057804
v -2.716151 84.090698 -13.965302
v -2.716151 88.952301 -21.057804
v -2.716151 90.014305 -19.998802
v -2.716151 84.090698 -13.965302
v -2.768031 92.165901 -17.816704
v -2.768030 95.944099 -10.519704
v -2.768030 94.119102 -10.519703
v -2.768030 95.944099 -10.519704
v -2.768030 93.743698 -2.307203
v -2.768030 92.165901 -3.219703
v -2.768030 93.743698 -2.307203
v -2.768030 86.822098 2.121037
v -2.768030 92.165901 -3.219703
v -2.768030 87.734596 3.701897
v -2.768030 79.522095 4.077267
v -2.768030 86.822098 2.121037
v -2.768030 63.100098 -10.519702
v -2.768031 66.881302 -17.816702
v -2.768030 64.925095 -10.519702
v -2.768030 63.100098 -10.519702
v -2.768031 65.300499 -18.729204
v -2.768031 66.881302 -17.816702
v -2.768031 71.312599 -24.741402
v -2.768031 79.522095 -26.941700
v -2.768031 79.522095 -25.116701
v 2.209540 -12.439300 7.754750
v 2.209541 -4.687640 10.766900
v -2.206490 -4.687640 10.766900
v -2.206490 -4.687640 10.766900
v 2.209541 -4.687640 10.766900
v 2.209541 -0.738547 8.941920
v -2.206490 -4.687640 10.766900
v 2.209541 -0.738547 8.941920
v -2.206490 -0.738547 8.941920
v -2.206490 -0.738547 8.941920
v 2.209541 -0.738547 8.941920
v 2.209541 1.470991 9.387490
v -2.206490 -0.738547 8.941920
v 2.209541 1.470991 9.387490
v -2.206490 1.470991 9.387490
v -2.206490 1.470991 9.387490
v 2.209541 1.470991 9.387490
v 2.209540 3.872801 7.718130
v -2.206490 1.470991 9.387490
v 2.209540 3.872801 7.718130
v -2.209540 3.872801 7.718130
v -2.209540 3.872801 7.718130
v 2.209540 3.872801 7.718130
v -2.209540 4.364151 4.235970
v 2.209541 -13.498302 12.543100
v 2.209541 -6.106749 15.183001
v 2.209541 -4.687640 10.766900
v 2.209541 -4.687640 10.766900
v 2.209541 -6.106749 15.183001
v 2.209541 -4.223760 18.964199
v 2.209541 -4.687640 10.766900
v 2.209541 -4.223760 18.964199
v 2.209541 -0.738547 8.941920
v 2.209541 -0.738547 8.941920
v 2.209541 -4.223760 18.964199
v 2.209541 -0.036621 20.389400
v 2.209541 -0.738547 8.941920
v 2.209541 -0.036621 20.389400
v 2.209541 1.470991 9.387490
v 2.209541 1.470991 9.387490
v 2.209541 -0.036621 20.389400
v 2.209541 4.010130 18.549200
v 2.209541 1.470991 9.387490
v 2.209541 4.010130 18.549200
v 2.209541 4.709010 12.741500
v 2.209541 4.709010 12.741500
v 2.209541 4.010130 18.549200
v 2.209541 5.569631 14.310101
v -2.203440 -13.498301 -12.543100
v -2.206491 -6.106751 -15.183001
v -2.206491 -4.687641 -10.766900
v -2.206491 -4.687641 -10.766900
v -2.206491 -6.106751 -15.183001
v -2.206491 -4.223761 -18.964199
v -2.206491 -4.687641 -10.766900
v -2.206491 -4.223761 -18.964199
v -2.206491 -0.738549 -8.941920
v -2.206491 -0.738549 -8.941920
v -2.206491 -4.223761 -18.964199
v -2.206491 -0.036623 -20.389400
v -2.206491 -0.738549 -8.941920
v -2.206491 -0.036623 -20.389400
v -2.206491 1.470989 -9.387490
v -2.206491 1.470989 -9.387490
v -2.206491 -0.036623 -20.389400
v -2.206491 4.010129 -18.549200
v -2.206491 1.470989 -9.387490
v -2.206491 4.010129 -18.549200
v -2.206491 4.709009 -12.741500
v -2.206491 4.709009 -12.741500
v -2.206491 4.010129 -18.549200
v -2.206491 5.569630 -14.310101
v -2.768030 92.165901 -3.219703
v -2.768030 94.119102 -10.519703
v -2.768030 95.944099 -10.519704
v -2.768031 93.743698 -18.729204
v -2.768031 92.165901 -17.816704
v -2.768031 86.822098 -23.160501
v -2.768031 93.743698 -18.729204
v -2.768031 86.822098 -23.160501
v -2.768031 87.734596 -24.741402
v -2.768031 87.734596 -24.741402
v -2.768031 79.522095 -25.116701
v -2.768031 79.522095 -26.941700
v -2.768030 87.734596 3.701897
v -2.768030 79.522095 5.899227
v -2.768030 79.522095 4.077267
v -2.768030 79.522095 4.077267
v -2.768030 79.522095 5.899227
v -2.768030 71.312599 3.701898
v -2.768030 66.881302 -3.219702
v -2.768030 65.300499 -2.307202
v -2.768030 63.100098 -10.519702
v -2.768030 66.881302 -3.219702
v -2.768030 63.100098 -10.519702
v -2.768030 64.925095 -10.519702
v -2.224800 81.212799 -7.330553
v -2.224800 77.559700 0.021360
v -2.224800 77.559700 -7.330553
v -2.224801 83.419296 -8.865633
v -2.224800 77.559700 -7.330553
v -2.224801 75.353302 -8.865633
v -2.224801 83.419296 -8.865633
v -2.224801 75.353302 -8.865633
v -2.224801 83.263603 -13.464803
v -2.224801 83.263603 -13.464803
v -2.224801 75.466194 -13.464803
v -2.224801 77.806900 -15.289802
v 2.209540 3.872801 7.718130
v 2.209540 4.364151 4.235970
v -2.209540 4.364151 4.235970
v -2.209540 4.364151 4.235970
v 2.209540 4.364151 4.235970
v 2.209540 7.275609 1.950129
v -2.209540 4.364151 4.235970
v 2.209540 7.275609 1.950129
v -2.209540 7.275609 1.950130
v -2.209540 7.275609 1.950130
v 2.209540 7.275609 1.950129
v 2.209540 10.928700 2.224800
v -2.209540 7.275609 1.950130
v 2.209540 10.928700 2.224800
v -2.209540 10.928700 2.224800
v -2.209540 10.928700 2.224800
v 2.209540 10.928700 2.224800
v 2.209540 13.443400 5.160679
v -2.209540 10.928700 2.224800
v 2.209540 13.443400 5.160679
v -2.209540 13.443400 5.160679
v -2.212590 -20.612200 -3.686639
v 2.209540 -20.612200 -3.686639
v -2.212590 -17.941799 -4.937900
v -2.212590 -17.941799 -4.937900
v 2.209540 -20.612200 -3.686639
v 2.209540 -17.941799 -4.937900
v -2.212590 -17.941799 -4.937900
v 2.209540 -17.941799 -4.937900
v -2.212590 -15.897099 -11.920500
v -2.212590 -15.897099 -11.920500
v 2.209540 -17.941799 -4.937900
v 2.209540 -15.897099 -11.920500
v -2.212590 -15.897099 -11.920500
v 2.209540 -15.897099 -11.920500
v -2.203440 -13.498301 -12.543100
v -2.203440 -13.498301 -12.543100
v 2.209540 -15.897099 -11.920500
v 2.209540 -13.498301 -12.543100
v -2.203440 -13.498301 -12.543100
v 2.209540 -13.498301 -12.543100
v 2.209539 -6.106751 -15.183001
v -2.206490 4.709010 12.741500
v -2.206489 4.010130 18.549200
v -2.206490 1.470991 9.387490
v -2.206490 1.470991 9.387490
v -2.206489 4.010130 18.549200
v -2.206489 -0.036621 20.389400
v -2.206490 1.470991 9.387490
v -2.206489 -0.036621 20.389400
v -2.206490 -0.738547 8.941920
v -2.206490 -0.738547 8.941920
v -2.206489 -0.036621 20.389400
v -2.206489 -4.223760 18.964199
v -2.206490 -0.738547 8.941920
v -2.206489 -4.223760 18.964199
v -2.206490 -4.687640 10.766900
v -2.206490 -4.687640 10.766900
v -2.206489 -4.223760 18.964199
v -2.206489 -6.106749 15.183001
v -2.206490 -4.687640 10.766900
v -2.206489 -6.106749 15.183001
v -2.203439 -13.498302 12.543100
v 4.522840 33.017998 7.837150
v 9.048739 33.017998 -0.000001
v 5.957210 30.906099 -0.000001
v 5.957210 30.906099 -0.000001
v 9.048739 33.017998 -0.000001
v 4.522840 33.017998 -7.837152
v 5.957210 30.906099 -0.000001
v 4.522840 33.017998 -7.837152
v 2.978610 30.906099 -5.157631
v 2.978610 30.906099 -5.157631
v 4.522840 33.017998 -7.837152
v -4.522840 33.017998 -7.837152
v 2.978610 30.906099 -5.157631
v -4.522840 33.017998 -7.837152
v -2.978610 30.906099 -5.157631
v -2.978610 30.906099 -5.157631
v -4.522840 33.017998 -7.837152
v -5.957210 30.906099 -0.000000
v -2.978610 30.906099 -5.157631
v -5.957210 30.906099 -0.000000
v -2.371290 29.093302 -4.104742
v -2.288890 6.103700 -0.000000
v 0.000000 4.931790 -2.984710
v 0.131230 6.103700 -2.288890
v 0.131230 6.103700 -2.288890
v 0.000000 4.931790 -2.984710
v 2.984710 4.931790 -0.000000
v 0.131230 6.103700 -2.288890
v 2.984710 4.931790 -0.000000
v 2.288890 6.103700 -0.000000
v 2.288890 6.103700 -0.000000
v 2.984710 4.931790 -0.000000
v 0.000000 4.931790 2.984710
v 2.288890 6.103700 -0.000000
v 0.000000 4.931790 2.984710
v 0.131230 6.103700 2.288889
v 0.131230 6.103700 2.288889
v 0.000000 4.931790 2.984710
v -2.984710 4.931790 -0.000000
v 0.131230 6.103700 2.288889
v -2.984710 4.931790 -0.000000
v -2.288890 6.103700 -0.000000
v -2.984710 4.931790 -0.000000
v -1.632740 3.180030 -0.000000
v 0.000000 4.931790 -2.984710
v 0.000000 4.931790 -2.984710
v -1.632740 3.180030 -0.000000
v 0.000000 3.180030 -1.632740
v 0.000000 4.931790 -2.984710
v 0.000000 3.180030 -1.632740
v 2.984710 4.931790 -0.000000
v 2.984710 4.931790 -0.000000
v 0.000000 3.180030 -1.632740
v 1.632740 3.180030 -0.000000
v 2.984710 4.931790 -0.000000
v 1.632740 3.180030 -0.000000
v 0.000000 4.931790 2.984710
v 0.000000 4.931790 2.984710
v 1.632740 3.180030 -0.000000
v 0.000000 3.180030 1.632740
v 0.000000 4.931790 2.984710
v 0.000000 3.180030 1.632740
v -1.632740 3.180030 -0.000000
v -2.209540 3.872800 -7.718131
v 2.209540 3.872800 -7.718131
v -2.206491 1.470989 -9.387490
v -2.206491 1.470989 -9.387490
v 2.209540 3.872800 -7.718131
v 2.209540 1.470989 -9.387490
v -2.206491 1.470989 -9.387490
v 2.209540 1.470989 -9.387490
v -2.206491 -0.738549 -8.941920
v -2.206491 -0.738549 -8.941920
v 2.209540 1.470989 -9.387490
v 2.209540 -0.738549 -8.941920
v -2.206491 -0.738549 -8.941920
v 2.209540 -0.738549 -8.941920
v -2.206491 -4.687641 -10.766900
v -2.206491 -4.687641 -10.766900
v 2.209540 -0.738549 -8.941920
v 2.209540 -4.687641 -10.766900
v -2.206491 -4.687641 -10.766900
v 2.209540 -4.687641 -10.766900
v 2.209540 -12.439301 -7.754749
v 2.209539 -6.106751 -15.183001
v 2.209540 -4.687641 -10.766900
v 2.209539 -4.223761 -18.964199
v 2.209539 -4.223761 -18.964199
v 2.209540 -4.687641 -10.766900
v 2.209540 -0.738549 -8.941920
v 2.209539 -4.223761 -18.964199
v 2.209540 -0.738549 -8.941920
v 2.209539 -0.036623 -20.389400
v 2.209539 -0.036623 -20.389400
v 2.209540 -0.738549 -8.941920
v 2.209540 1.470989 -9.387490
v 2.209539 -0.036623 -20.389400
v 2.209540 1.470989 -9.387490
v 2.209539 4.010129 -18.549200
v 2.209539 4.010129 -18.549200
v 2.209540 1.470989 -9.387490
v 2.209540 4.709009 -12.741500
v 2.209539 4.010129 -18.549200
v 2.209540 4.709009 -12.741500
v 2.209539 5.569630 -14.310101
v -2.209540 13.443400 -5.160680
v 2.209540 13.443400 -5.160680
v -2.209540 10.928700 -2.224801
v -2.209540 10.928700 -2.224801
v 2.209540 13.443400 -5.160680
v 2.209540 10.928700 -2.224801
v -2.209540 10.928700 -2.224801
v 2.209540 10.928700 -2.224801
v -2.209540 7.275609 -1.950131
v -2.209540 7.275609 -1.950131
v 2.209540 10.928700 -2.224801
v 2.209540 7.275609 -1.950131
v -2.209540 7.275609 -1.950131
v 2.209540 7.275609 -1.950131
v -2.209540 4.364150 -4.235970
v -2.209540 4.364150 -4.235970
v 2.209540 7.275609 -1.950131
v 2.209540 4.364150 -4.235970
v -2.209540 4.364150 -4.235970
v 2.209540 4.364150 -4.235970
v 2.209540 3.872800 -7.718131
v -2.209541 13.064999 -8.874780
v -2.209541 10.174900 -11.267401
v 2.209540 10.174900 -11.267401
v 2.209540 10.174900 -11.267401
v -2.209541 10.174900 -11.267401
v -2.209541 6.595049 -11.056901
v 2.209540 10.174900 -11.267401
v -2.209541 6.595049 -11.056901
v 2.209540 6.595049 -11.056901
v 2.209540 6.595049 -11.056901
v -2.209541 6.595049 -11.056901
v -2.206491 4.709009 -12.741500
v 2.209540 6.595049 -11.056901
v -2.206491 4.709009 -12.741500
v 2.209540 4.709009 -12.741500
v 2.209540 4.709009 -12.741500
v -2.206491 4.709009 -12.741500
v -2.206491 5.569630 -14.310101
v 2.209540 4.709009 -12.741500
v -2.206491 5.569630 -14.310101
v 2.209539 5.569630 -14.310101
v -2.716151 82.833305 -15.222603
v -2.716151 84.090698 -13.965302
v -2.716151 84.002205 -12.430202
v -2.716151 82.833305 -15.222603
v -2.716151 84.002205 -12.430202
v -2.716151 81.298294 -15.131102
v -2.716151 80.275902 -16.281603
v -2.716151 78.499695 -16.281603
v -2.716151 78.637001 -25.147303
v 2.261420 86.202599 -0.000003
v -2.056950 84.215805 -4.794462
v 2.261420 84.215805 -4.794462
v 2.261420 84.215805 -4.794462
v -2.056950 84.215805 -4.794462
v -2.056950 79.421402 -6.778162
v 2.261420 84.215805 -4.794462
v -2.056950 79.421402 -6.778162
v 2.261420 79.421402 -6.778162
v 2.261420 79.421402 -6.778162
v -2.056950 79.421402 -6.778162
v -2.056950 74.626900 -4.794463
v 2.261420 79.421402 -6.778162
v -2.056950 74.626900 -4.794463
v 2.261420 74.626900 -4.794463
v 2.261420 74.626900 -4.794463
v -2.056950 74.626900 -4.794463
v -2.056950 72.640198 -0.000002
v 2.209541 4.709010 12.741500
v 2.209541 6.595050 11.056899
v 2.209540 3.872801 7.718130
v 2.209540 3.872801 7.718130
v 2.209541 6.595050 11.056899
v 2.209541 10.174900 11.267399
v 2.209540 3.872801 7.718130
v 2.209541 10.174900 11.267399
v 2.209540 4.364151 4.235970
v 2.209540 4.364151 4.235970
v 2.209541 10.174900 11.267399
v 2.209541 13.065001 8.874780
v 2.209540 4.364151 4.235970
v 2.209541 13.065001 8.874780
v 2.209540 7.275609 1.950129
v 2.209540 7.275609 1.950129
v 2.209541 13.065001 8.874780
v 2.209540 10.928700 2.224800
v 1.031530 73.354301 -1.788383
v -1.031530 73.354301 -1.788383
v 1.873840 44.471600 -3.247171
v 1.873840 44.471600 -3.247171
v -1.031530 73.354301 -1.788383
v -1.873840 44.471600 -3.247171
v 1.873840 44.471600 -3.247171
v -1.873840 44.471600 -3.247171
v 2.832120 37.565197 -4.904322
v 2.832120 37.565197 -4.904322
v -1.873840 44.471600 -3.247171
v -2.832120 37.565197 -4.904322
v 2.832120 37.565197 -4.904322
v -2.832120 37.565197 -4.904322
v 4.522840 33.017998 -7.837152
v 4.522840 33.017998 -7.837152
v -2.832120 37.565197 -4.904322
v -4.522840 33.017998 -7.837152
v -4.522840 33.017998 -7.837152
v -9.048739 33.017998 -0.000000
v -5.957210 30.906099 -0.000000
v -5.957210 30.906099 -0.000000
v -9.048739 33.017998 -0.000000
v -4.522840 33.017998 7.837150
v -5.957210 30.906099 -0.000000
v -4.522840 33.017998 7.837150
v -2.978610 30.906099 5.157629
v -2.978610 30.906099 5.157629
v -4.522840 33.017998 7.837150
v 2.978610 30.906099 5.157629
v -2.978610 30.906099 5.157629
v 2.978610 30.906099 5.157629
v 2.371290 29.093302 4.104740
v 2.371290 29.093302 4.104740
v 2.978610 30.906099 5.157629
v 5.957210 30.906099 -0.000001
v -2.209540 10.928700 -2.224801
v -2.209540 7.275609 -1.950131
v -2.209541 13.064999 -8.874780
v -2.209541 13.064999 -8.874780
v -2.209540 7.275609 -1.950131
v -2.209540 4.364150 -4.235970
v -2.209541 13.064999 -8.874780
v -2.209540 4.364150 -4.235970
v -2.209541 10.174900 -11.267401
v -2.209541 10.174900 -11.267401
v -2.209540 4.364150 -4.235970
v -2.209540 3.872800 -7.718131
v -2.209541 10.174900 -11.267401
v -2.209540 3.872800 -7.718131
v -2.209541 6.595049 -11.056901
v -2.209541 6.595049 -11.056901
v -2.209540 3.872800 -7.718131
v -2.206491 4.709009 -12.741500
v 3.750720 44.471600 -0.000001
v 5.664240 37.565197 -0.000002
v 1.873840 44.471600 3.247169
v 1.873840 44.471600 3.247169
v 5.664240 37.565197 -0.000002
v 2.832120 37.565197 4.904319
v 1.873840 44.471600 3.247169
v 2.832120 37.565197 4.904319
v -1.873840 44.471600 3.247169
v -1.873840 44.471600 3.247169
v 2.832120 37.565197 4.904319
v -2.832120 37.565197 4.904319
v -1.873840 44.471600 3.247169
v -2.832120 37.565197 4.904319
v -3.750720 44.471600 -0.000001
v -3.750720 44.471600 -0.000001
v -2.832120 37.565197 4.904319
v -5.664240 37.565197 -0.000001
v -2.716150 68.971802 -1.089512
v -2.716150 74.681801 -7.071142
v -2.716150 75.939201 -5.813782
v -2.716150 75.939201 -5.813782
v -2.716150 74.681801 -7.071142
v -2.716151 74.773399 -8.606223
v -2.716150 77.474304 -5.905333
v -2.716151 74.773399 -8.606223
v -2.716151 84.002205 -8.606223
v -2.716150 77.474304 -5.905333
v -2.716151 84.002205 -8.606223
v -2.716150 81.298294 -5.905333
v -2.716151 85.149696 -11.407803
v -2.716151 84.002205 -8.606223
v -2.716151 84.002205 -12.430202
v -2.716151 84.002205 -12.430202
v -2.716151 84.002205 -8.606223
v -2.716151 74.773399 -8.606223
v -2.716150 88.973701 0.021360
v -2.716150 82.833305 -5.813782
v -2.716150 84.090698 -7.071142
v -2.716150 82.833305 -5.813782
v -2.716150 81.298294 -5.905333
v -2.716151 84.002205 -8.606223
v -2.716150 81.298294 -5.905333
v -2.716150 78.499695 -4.754782
v -2.716150 77.474304 -5.905333
v -2.716151 64.925095 -9.768972
v -2.716151 73.622902 -11.407803
v -2.716151 73.622902 -9.631642
v -2.716151 73.622902 -11.407803
v -2.716151 74.773399 -12.430202
v -2.716151 74.773399 -8.606223
v -2.716151 74.773399 -12.430202
v -2.716151 84.002205 -12.430202
v -2.716151 74.773399 -8.606223
v -2.716151 74.773399 -12.430202
v -2.716151 77.474304 -15.131102
v -2.716151 84.002205 -12.430202
v -2.209540 10.174900 11.267399
v 2.209541 10.174900 11.267399
v -2.209540 6.595050 11.056899
v -2.209540 6.595050 11.056899
v 2.209541 10.174900 11.267399
v 2.209541 6.595050 11.056899
v -2.209540 6.595050 11.056899
v 2.209541 6.595050 11.056899
v -2.206490 4.709010 12.741500
v -2.206490 4.709010 12.741500
v 2.209541 6.595050 11.056899
v 2.209541 4.709010 12.741500
v -2.206490 4.709010 12.741500
v 2.209541 4.709010 12.741500
v -2.206489 5.569631 14.310101
v 2.209540 -13.498301 -12.543100
v 2.209540 -15.897099 -11.920500
v 2.209540 -12.439301 -7.754749
v 2.209540 -12.439301 -7.754749
v 2.209540 -15.897099 -11.920500
v 2.209540 -17.941799 -4.937900
v 2.209540 -12.439301 -7.754749
v 2.209540 -17.941799 -4.937900
v 2.209540 -13.260301 -3.750719
v 2.209540 -13.260301 -3.750719
v 2.209540 -17.941799 -4.937900
v 2.209540 -20.612200 -3.686639
v 2.209540 -13.260301 -3.750719
v 2.209540 -20.612200 -3.686639
v 2.209540 -22.174700 0.000001
v -2.212590 -12.439300 7.754750
v -2.212590 -15.897099 11.920500
v -2.212590 -17.941799 4.937901
v -2.212590 -12.439300 7.754750
v -2.212590 -17.941799 4.937901
v -2.212590 -13.260301 3.750720
v -2.212590 -13.260301 3.750720
v -2.212590 -17.941799 4.937901
v -2.212590 -20.612200 3.686641
v -2.212590 -13.260301 3.750720
v -2.212590 -20.612200 3.686641
v -2.212590 -22.174700 0.000001
v 2.261420 74.626900 4.794458
v -2.056950 74.626900 4.794458
v 2.261420 79.421402 6.778157
v 2.261420 79.421402 6.778157
v -2.056950 74.626900 4.794458
v -2.056950 79.421402 6.778157
v 2.261420 79.421402 6.778157
v -2.056950 79.421402 6.778157
v 2.261420 84.215805 4.794458
v 2.261420 84.215805 4.794458
v -2.056950 79.421402 6.778157
v -2.056950 84.215805 4.794458
v 2.261420 84.215805 4.794458
v -2.056950 84.215805 4.794458
v 2.261420 86.202599 -0.000003
v -2.209540 7.275609 1.950130
v -2.209540 13.065001 8.874780
v -2.209540 4.364151 4.235970
v -2.209540 4.364151 4.235970
v -2.209540 13.065001 8.874780
v -2.209540 10.174900 11.267399
v -2.209540 4.364151 4.235970
v -2.209540 10.174900 11.267399
v -2.209540 3.872801 7.718130
v -2.209540 3.872801 7.718130
v -2.209540 10.174900 11.267399
v -2.209540 6.595050 11.056899
v -2.209540 3.872801 7.718130
v -2.209540 6.595050 11.056899
v -2.206490 4.709010 12.741500
v -1.031530 73.354301 -1.788383
v -1.727350 72.594398 -0.000002
v -1.873840 44.471600 -3.247171
v -1.873840 44.471600 -3.247171
v -1.727350 72.594398 -0.000002
v -3.750720 44.471600 -0.000001
v -1.873840 44.471600 -3.247171
v -3.750720 44.471600 -0.000001
v -2.832120 37.565197 -4.904322
v -2.832120 37.565197 -4.904322
v -3.750720 44.471600 -0.000001
v -5.664240 37.565197 -0.000001
v -2.832120 37.565197 -4.904322
v -5.664240 37.565197 -0.000001
v -9.048739 33.017998 -0.000000
v 5.664240 37.565197 -0.000002
v 9.048739 33.017998 -0.000001
v 2.832120 37.565197 4.904319
v 2.832120 37.565197 4.904319
v 9.048739 33.017998 -0.000001
v 4.522840 33.017998 7.837150
v 2.832120 37.565197 4.904319
v 4.522840 33.017998 7.837150
v -2.832120 37.565197 4.904319
v -2.832120 37.565197 4.904319
v 4.522840 33.017998 7.837150
v -4.522840 33.017998 7.837150
v -2.832120 37.565197 4.904319
v -4.522840 33.017998 7.837150
v -9.048739 33.017998 -0.000000
v 2.209540 7.275609 -1.950131
v 2.209540 13.064999 -8.874780
v 2.209540 4.364150 -4.235970
v 2.209540 4.364150 -4.235970
v 2.209540 13.064999 -8.874780
v 2.209540 10.174900 -11.267401
v 2.209540 4.364150 -4.235970
v 2.209540 10.174900 -11.267401
v 2.209540 3.872800 -7.718131
v 2.209540 3.872800 -7.718131
v 2.209540 10.174900 -11.267401
v 2.209540 6.595049 -11.056901
v 2.209540 3.872800 -7.718131
v 2.209540 6.595049 -11.056901
v 2.209540 4.709009 -12.741500
v 2.209540 -22.174700 0.000001
v 2.209540 -20.612200 3.686641
v 2.209540 -13.260301 3.750720
v 2.209540 -13.260301 3.750720
v 2.209540 -20.612200 3.686641
v 2.209540 -17.941799 4.937901
v 2.209540 -13.260301 3.750720
v 2.209540 -17.941799 4.937901
v 2.209540 -12.439300 7.754750
v 2.209540 -12.439300 7.754750
v 2.209540 -17.941799 4.937901
v 2.209541 -15.897099 11.920500
v 2.209540 -12.439300 7.754750
v 2.209541 -15.897099 11.920500
v 2.209541 -13.498302 12.543100
v -2.212590 -22.174700 0.000001
v -2.212590 -20.612200 -3.686639
v -2.212590 -13.260301 -3.750719
v -2.212590 -13.260301 -3.750719
v -2.212590 -20.612200 -3.686639
v -2.212590 -17.941799 -4.937900
v -2.212590 -13.260301 -3.750719
v -2.212590 -17.941799 -4.937900
v -2.212590 -12.439301 -7.754749
v -2.212590 -12.439301 -7.754749
v -2.212590 -17.941799 -4.937900
v -2.212590 -15.897099 -11.920500
v 2.261420 79.421402 -6.778162
v 2.261420 74.626900 -4.794463
v 2.261420 84.215805 -4.794462
v 2.261420 84.215805 -4.794462
v 2.261420 74.626900 -4.794463
v 2.261420 72.640198 -0.000002
v 2.261420 84.215805 -4.794462
v 2.261420 72.640198 -0.000002
v 2.261420 86.202599 -0.000003
v 2.261420 86.202599 -0.000003
v 2.261420 72.640198 -0.000002
v 2.261420 84.215805 4.794458
v -2.212590 -12.439300 7.754750
v -2.212590 -13.260301 3.750720
v 2.209540 -13.260301 3.750720
v 2.209540 -13.260301 3.750720
v -2.212590 -13.260301 3.750720
v -2.212590 -11.615300 0.000001
v 2.209540 -13.260301 3.750720
v -2.212590 -11.615300 0.000001
v 2.209540 -11.615300 -0.000000
v 2.209540 -11.615300 -0.000000
v -2.212590 -11.615300 0.000001
v 2.209540 -13.260301 -3.750719
v -6.002991 27.771801 -7.238990
v -6.002990 30.906099 -0.000000
v -6.002990 10.281700 0.003052
v -6.002990 10.281700 0.003052
v -6.002990 30.906099 -0.000000
v -6.002990 27.771801 7.238990
v -6.002990 10.281700 0.003052
v -6.002990 27.771801 7.238990
v -6.002990 13.281701 7.238990
v -6.002990 13.281701 7.238990
v -6.002990 27.771801 7.238990
v -6.002990 20.526699 10.238999
v 5.941950 20.526699 -10.239001
v 5.941950 13.281699 -7.238991
v 5.941950 27.771801 -7.238991
v 5.941950 27.771801 -7.238991
v 5.941950 13.281699 -7.238991
v 5.941950 10.281700 0.003051
v 5.941950 27.771801 -7.238991
v 5.941950 10.281700 0.003051
v 5.941950 30.906099 -0.000001
v 5.941950 30.906099 -0.000001
v 5.941950 10.281700 0.003051
v 5.941951 27.771801 7.238989
v 0.000000 -9.811700 1.632741
v 1.632740 -9.811700 -0.000000
v 2.072210 -11.548201 -0.000000
v 2.072210 -11.548201 -0.000000
v 1.632740 -9.811700 -0.000000
v 0.000000 -9.811700 -1.632739
v 2.072210 -11.548201 -0.000000
v 0.000000 -9.811700 -1.632739
v 0.000000 -13.464800 -3.732409
v 0.000000 -13.464800 -3.732409
v 0.000000 -9.811700 -1.632739
v -2.072210 -11.548201 0.000001
v 0.131230 9.799490 -2.288891
v -2.288890 9.799490 0.000000
v -2.288890 6.103700 -0.000000
v -2.288890 6.103700 -0.000000
v -2.288890 9.799490 0.000000
v 0.131230 9.799490 2.288890
v -2.288890 6.103700 -0.000000
v 0.131230 9.799490 2.288890
v 0.131230 6.103700 2.288889
v 0.131230 6.103700 2.288889
v 0.131230 9.799490 2.288890
v 2.288890 6.103700 -0.000000
v -2.288890 6.103700 -0.000000
v 0.131230 6.103700 -2.288890
v 0.131230 9.799490 -2.288891
v 0.131230 9.799490 -2.288891
v 0.131230 6.103700 -2.288890
v 2.288890 6.103700 -0.000000
v 0.131230 9.799490 -2.288891
v 2.288890 6.103700 -0.000000
v 2.288890 9.799490 -0.000001
v 2.288890 9.799490 -0.000001
v 2.288890 6.103700 -0.000000
v 0.131230 9.799490 2.288890
v -2.288890 9.799490 0.000000
v 0.131230 9.799490 -2.288891
v 0.000000 13.403700 -5.166781
v 0.000000 13.403700 -5.166781
v 0.131230 9.799490 -2.288891
v 2.288890 9.799490 -0.000001
v 0.000000 13.403700 -5.166781
v 2.288890 9.799490 -0.000001
v 5.475020 11.114799 -0.000001
v 5.475020 11.114799 -0.000001
v 2.288890 9.799490 -0.000001
v 0.000000 13.403700 5.166779
v 0.000000 13.403700 -5.166781
v -5.475020 11.114799 0.000000
v -2.288890 9.799490 0.000000
v -2.288890 9.799490 0.000000
v -5.475020 11.114799 0.000000
v 0.000000 13.403700 5.166779
v -2.288890 9.799490 0.000000
v 0.000000 13.403700 5.166779
v 0.131230 9.799490 2.288890
v 0.131230 9.799490 2.288890
v 0.000000 13.403700 5.166779
v 2.288890 9.799490 -0.000001
v -1.632740 -9.811700 0.000001
v 0.000000 -9.811700 -1.632739
v 0.000000 3.180030 -1.632740
v 0.000000 3.180030 -1.632740
v 0.000000 -9.811700 -1.632739
v 1.632740 -9.811700 -0.000000
v 0.000000 3.180030 -1.632740
v 1.632740 -9.811700 -0.000000
v 1.632740 3.180030 -0.000000
v 1.632740 3.180030 -0.000000
v 1.632740 -9.811700 -0.000000
v 0.000000 3.180030 1.632740
v -2.212590 -11.615300 0.000001
v -2.212590 -13.260301 -3.750719
v 2.209540 -13.260301 -3.750719
v 2.209540 -13.260301 -3.750719
v -2.212590 -13.260301 -3.750719
v -2.212590 -12.439301 -7.754749
v 2.209540 -13.260301 -3.750719
v -2.212590 -12.439301 -7.754749
v 2.209540 -12.439301 -7.754749
v 2.209540 -12.439301 -7.754749
v -2.212590 -12.439301 -7.754749
v -2.206491 -4.687641 -10.766900
v -2.716150 78.499695 -4.754782
v -2.716150 80.275902 -4.754782
v -2.716150 78.637001 4.104737
v -2.716150 78.637001 4.104737
v -2.716150 80.275902 -4.754782
v -2.716150 80.135498 4.104737
v -2.716150 81.298294 -5.905333
v -2.716150 80.275902 -4.754782
v -2.716150 78.499695 -4.754782
v -2.716150 77.474304 -5.905333
v -2.716150 75.939201 -5.813782
v -2.716151 74.773399 -8.606223
v -2.716151 75.939201 -15.222603
v -2.716151 74.773399 -12.430202
v -2.716151 74.681801 -13.965302
v -2.716151 85.149696 -11.407803
v -2.716151 85.149696 -9.631642
v -2.716151 84.002205 -8.606223
v -2.716151 85.149696 -11.407803
v -2.716151 94.119102 -9.768973
v -2.716151 85.149696 -9.631642
v -2.768031 93.743698 -18.729204
v -2.768030 95.944099 -10.519704
v -2.768031 92.165901 -17.816704
v -2.768030 71.312599 3.701898
v -2.768030 65.300499 -2.307202
v -2.768030 72.225098 2.121037
v -2.768030 65.300499 -2.307202
v -2.768030 66.881302 -3.219702
v -2.768030 72.225098 2.121037
v -2.441480 78.017494 8.008058
v -2.441480 78.017494 1.385538
v -2.441480 81.328796 0.012205
v -2.441480 78.017494 8.008058
v -2.441480 81.328796 0.012205
v -2.441479 81.328796 9.378338
v -1.873840 44.471600 3.247169
v -1.031530 73.354301 1.788378
v 1.873840 44.471600 3.247169
v 1.873840 44.471600 3.247169
v -1.031530 73.354301 1.788378
v 1.031530 73.354301 1.788378
v 1.873840 44.471600 3.247169
v 1.031530 73.354301 1.788378
v 1.727350 72.594398 -0.000002
v 5.957210 30.906099 -0.000001
v 2.978610 30.906099 -5.157631
v 2.371290 29.093302 -4.104742
v 2.371290 29.093302 -4.104742
v 2.978610 30.906099 -5.157631
v -2.978610 30.906099 -5.157631
v 2.371290 29.093302 -4.104742
v -2.978610 30.906099 -5.157631
v -2.371290 29.093302 -4.104742
v 5.664240 37.565197 -0.000002
v 3.750720 44.471600 -0.000001
v 1.873840 44.471600 -3.247171
v 1.873840 44.471600 -3.247171
v 3.750720 44.471600 -0.000001
v 1.727350 72.594398 -0.000002
v 1.873840 44.471600 -3.247171
v 1.727350 72.594398 -0.000002
v 1.031530 73.354301 -1.788383
v -6.002990 30.906099 -0.000000
v -6.002991 27.771801 -7.238990
v 5.941950 27.771801 -7.238991
v 5.941950 27.771801 -7.238991
v -6.002991 27.771801 -7.238990
v -6.002991 20.526699 -10.239001
v 5.941950 27.771801 -7.238991
v -6.002991 20.526699 -10.239001
v 5.941950 20.526699 -10.239001
v 5.941950 27.771801 -7.238991
v 5.941950 30.906099 -0.000001
v -6.002990 30.906099 -0.000000
v -6.002990 30.906099 -0.000000
v 5.941950 30.906099 -0.000001
v 5.941951 27.771801 7.238989
v -6.002990 30.906099 -0.000000
v 5.941951 27.771801 7.238989
v -6.002990 27.771801 7.238990
v 5.941950 10.281700 0.003051
v -6.002990 10.281700 0.003052
v 5.941951 13.281701 7.238989
v 5.941951 13.281701 7.238989
v -6.002990 10.281700 0.003052
v -6.002990 13.281701 7.238990
v 5.941951 13.281701 7.238989
v -6.002990 13.281701 7.238990
v 5.941951 20.526699 10.238999
v 5.941950 20.526699 -10.239001
v -6.002991 13.281699 -7.238990
v 5.941950 13.281699 -7.238991
v 5.941950 13.281699 -7.238991
v -6.002991 13.281699 -7.238990
v -6.002990 10.281700 0.003052
v 5.941950 13.281699 -7.238991
v -6.002990 10.281700 0.003052
v 5.941950 10.281700 0.003051
v 2.072210 -11.548201 -0.000000
v 0.000000 -13.464800 3.732410
v 0.000000 -9.811700 1.632741
v 0.000000 -9.811700 1.632741
v 0.000000 -13.464800 3.732410
v -2.072210 -11.548201 0.000001
v 0.000000 -9.811700 1.632741
v -2.072210 -11.548201 0.000001
v -1.632740 -9.811700 0.000001
v 1.632740 -9.811700 -0.000000
v 0.000000 -9.811700 1.632741
v 0.000000 3.180030 1.632740
v 0.000000 3.180030 1.632740
v 0.000000 -9.811700 1.632741
v -1.632740 -9.811700 0.000001
v 0.000000 3.180030 1.632740
v -1.632740 -9.811700 0.000001
v -1.632740 3.180030 -0.000000
v 2.209541 10.174900 11.267399
v -2.209540 13.065001 8.874780
v 2.209541 13.065001 8.874780
v 2.209541 13.065001 8.874780
v -2.209540 13.065001 8.874780
v -2.209540 13.443400 5.160679
v 2.209541 13.065001 8.874780
v -2.209540 13.443400 5.160679
v 2.209540 13.443400 5.160679
v 2.209540 13.443400 -5.160680
v -2.209540 13.443400 -5.160680
v 2.209540 13.064999 -8.874780
v 2.209540 13.064999 -8.874780
v -2.209540 13.443400 -5.160680
v -2.209541 13.064999 -8.874780
v 2.209540 13.064999 -8.874780
v -2.209541 13.064999 -8.874780
v 2.209540 10.174900 -11.267401
v -2.768030 86.822098 2.121037
v -2.768030 93.743698 -2.307203
v -2.768030 87.734596 3.701897
v -2.768031 71.312599 -24.741402
v -2.768031 72.225098 -23.160501
v -2.768031 65.300499 -18.729204
v -2.768031 65.300499 -18.729204
v -2.768031 72.225098 -23.160501
v -2.768031 66.881302 -17.816702
v -2.716151 75.939201 -15.222603
v -2.716151 74.681801 -13.965302
v -2.716151 68.965698 -19.919401
v -2.716151 74.773399 -8.606223
v -2.716151 73.622902 -9.631642
v -2.716151 73.622902 -11.407803
v -2.716150 84.090698 -7.071142
v -2.716150 82.833305 -5.813782
v -2.716151 84.002205 -8.606223
v -2.224801 79.384705 -19.019102
v -2.224801 80.925903 -15.289802
v -2.224801 77.806900 -15.289802
v -2.224801 83.263603 -13.464803
v -2.224801 80.925903 -15.289802
v -2.224801 77.806900 -15.289802
v 6.176950 22.266300 7.043669
v 6.176950 18.738400 1.681570
v 6.176950 18.738400 7.043670
v 6.176950 22.266300 7.043669
v 6.176950 22.266300 1.681569
v 6.176950 18.738400 1.681570
v 6.140320 21.424000 1.763969
v 6.140320 27.314100 -1.763971
v 6.140320 21.424000 -1.763971
v 6.140320 21.424000 1.763969
v 6.140320 27.314100 1.763969
v 6.140320 27.314100 -1.763971
v -2.160710 100.000000 -0.000004
v -2.160710 96.508698 1.489297
v -2.160710 96.508698 -1.489303
v -2.160710 81.490501 -1.773132
v -2.160710 81.490501 1.773128
v -2.160710 88.634903 1.773127
v 6.241040 19.501301 -1.791440
v 6.241040 18.466702 -0.000000
v 6.241040 19.501301 1.791440
v -2.160710 96.508698 -1.489303
v -2.160710 95.217804 3.906367
v -2.160710 95.217804 -3.909423
v -2.160710 90.603401 -4.235973
v -2.160710 90.603401 4.229867
v -2.160710 88.634903 1.773127
v -2.160710 90.603401 -4.235973
v -2.160710 88.634903 1.773127
v -2.160710 88.634903 -1.773133
v -2.160710 88.634903 -1.773133
v -2.160710 88.634903 1.773127
v -2.160710 81.490501 -1.773132
v -2.160710 96.508698 1.489297
v -2.160710 95.217804 3.906367
v -2.160710 96.508698 -1.489303
v -2.160710 95.217804 3.906367
v -2.160710 90.603401 4.229867
v -2.160710 95.217804 -3.909423
v -2.160710 90.603401 4.229867
v -2.160710 90.603401 -4.235973
v -2.160710 95.217804 -3.909423
v -2.224801 83.263603 -13.464803
v -2.224801 75.466194 -13.464803
v -2.224801 75.353302 -8.865633
v -2.224801 83.419296 -8.865633
v -2.224800 77.559700 -7.330553
v -2.224800 81.212799 -7.330553
v -2.224800 81.212799 -7.330553
v -2.224800 77.559700 0.021360
v -2.224800 81.212799 0.021361
v -2.511670 65.004402 -5.847352
v -2.511670 61.696201 -7.220682
v -2.511671 65.004402 -15.213502
v -2.511670 61.696201 -7.220682
v -2.511671 61.696201 -13.840102
v -2.511671 65.004402 -15.213502
v -2.511671 67.036995 -18.140202
v -2.511671 65.666702 -21.451502
v -2.511671 67.036995 -24.762703
v -2.511671 78.017494 -22.449402
v -2.511671 78.017494 -29.071901
v -2.511672 81.328796 -30.442202
v -2.511671 78.017494 -22.449402
v -2.511671 76.647202 -25.760704
v -2.511671 78.017494 -29.071901
v -2.511671 92.632797 -16.248104
v -2.511671 89.321602 -17.618303
v -2.511671 92.632797 -25.611103
v -2.511671 89.321602 -17.618303
v -2.511671 89.321602 -24.240904
v -2.511671 92.632797 -25.611103
v -2.511671 89.321602 -17.618303
v -2.511671 87.951302 -20.929602
v -2.511671 89.321602 -24.240904
v -2.441480 67.036995 3.698838
v -2.441480 67.036995 -2.920622
v -2.441480 70.348198 -4.290902
v -2.441480 67.036995 3.698838
v -2.441480 65.666702 0.387583
v -2.441480 67.036995 -2.920622
v -2.441480 78.017494 8.008058
v -2.441480 78.017494 1.385538
v -2.441480 76.647202 4.696797
v -2.441480 92.632797 4.550306
v -2.441480 89.321602 3.176977
v -2.441480 92.632797 -4.812773
v 6.241040 19.501301 -1.791440
v 6.241040 19.501301 1.791440
v 6.241040 21.573500 -1.791441
v 6.241040 21.573500 -1.791441
v 6.241040 19.501301 1.791440
v 6.241040 21.573500 1.791439
v 6.241040 21.573500 -1.791441
v 6.241040 21.573500 1.791439
v 6.241040 22.608099 -0.000001
v -2.511671 92.229996 -10.528903
v -2.511671 93.600304 -13.840103
v -2.511670 93.600304 -7.220683
v -2.511670 93.600304 -7.220683
v -2.511671 93.600304 -13.840103
v -2.511671 96.911499 -15.213504
v -2.511670 93.600304 -7.220683
v -2.511671 96.911499 -15.213504
v -2.511670 96.911499 -5.847353
v -2.511671 60.322899 -10.528902
v -2.511671 61.696201 -13.840102
v -2.511670 61.696201 -7.220682
v -2.511671 67.036995 -18.140202
v -2.511671 67.036995 -24.762703
v -2.511671 70.348198 -26.133003
v -2.511671 67.036995 -18.140202
v -2.511671 70.348198 -26.133003
v -2.511671 70.348198 -16.766901
v -2.511671 78.017494 -22.449402
v -2.511672 81.328796 -30.442202
v -2.511671 81.328796 -21.076101
v -2.441480 67.036995 3.698838
v -2.441480 70.348198 -4.290902
v -2.441480 70.348198 5.069118
v -2.441480 87.951302 -0.131233
v -2.441480 89.321602 -3.442493
v -2.441480 89.321602 3.176977
v -2.441480 89.321602 3.176977
v -2.441480 89.321602 -3.442493
v -2.441480 92.632797 -4.812773
v -2.545240 88.079498 -8.465833
v -2.545240 71.141701 -8.465833
v -2.545240 79.610596 -11.975502
v -2.545239 88.079498 8.465827
v -2.545239 71.141701 8.465827
v -2.545240 67.635101 -0.000002
v -2.545240 88.079498 -8.465833
v -2.545240 67.635101 -0.000002
v -2.545240 71.141701 -8.465833
v -2.545240 88.079498 -8.465833
v -2.545240 91.585999 -0.000003
v -2.545240 67.635101 -0.000002
v -2.545240 91.585999 -0.000003
v -2.545239 88.079498 8.465827
v -2.545240 67.635101 -0.000002
v -2.545239 88.079498 8.465827
v -2.545239 79.610596 11.975498
v -2.545239 71.141701 8.465827
v -2.212590 -12.439301 -7.754749
v -2.212590 -15.897099 -11.920500
v -2.203440 -13.498301 -12.543100
v -2.206491 -4.687641 -10.766900
v 0.000000 -36.503201 0.469986
v 0.000000 -36.503201 -0.469984
v 0.000000 -31.211298 0.469986
v 0.000000 -25.916300 0.469986
v 0.000000 -31.211298 -0.469984
v 0.000000 -25.916300 -0.469984
v 0.000000 -36.503201 -0.469984
v 0.000000 -31.211298 0.469986
v 0.000000 -31.211298 -0.469984
v 0.000000 -31.211298 -0.469984
v 0.000000 -31.211298 0.469986
v 0.000000 -25.916300 0.469986
v 0.097659 -42.356602 3.656121
v 0.097659 -51.182598 0.000002
v 0.097659 -49.668900 3.656122
v 0.210578 -41.630302 4.245121
v 0.210578 -40.821602 -4.242069
v 0.210578 -37.855198 4.605241
v 0.210578 -37.855198 4.605241
v 0.210578 -40.821602 -4.242069
v 0.210578 -37.046398 -3.881949
v 0.094608 -31.199100 3.167821
v 0.094607 -37.485901 -3.732409
v 0.094607 -33.884701 -4.925689
v 0.000000 -41.798203 -0.469984
v 0.000000 -36.503201 0.469986
v 0.000000 -41.798203 0.469986
v 0.094607 -27.298800 -4.226809
v 0.094608 -26.313099 4.556411
v 0.094608 -22.229700 4.080321
v 0.158696 -30.445299 -4.632709
v 0.158696 -28.110600 4.589981
v 0.158696 -26.694500 -4.058959
v 0.158696 -30.445299 -4.632709
v 0.158696 -31.861300 4.016242
v 0.158696 -28.110600 4.589981
v 0.094607 -37.485901 -3.732409
v 0.094608 -34.800301 4.361092
v 0.094608 -31.199100 3.167821
v 0.000000 -36.503201 0.469986
v 0.000000 -36.503201 -0.469984
v 0.000000 -41.798203 -0.469984
v 0.000000 -21.088301 0.469986
v 0.000000 -25.916300 -0.469984
v 0.000000 -25.916300 0.469986
v 0.000000 -25.916300 -0.469984
v 0.000000 -21.088301 -0.469984
v 0.000000 -21.088301 0.469986
v 0.094608 -22.229700 4.080321
v 0.094607 -27.298800 -4.226809
v 0.094607 -23.215399 -4.705949
v 0.097659 -46.012802 -5.169838
v 0.097659 -49.668900 -3.656118
v 0.097659 -42.356602 -3.656119
v 0.097659 -42.356602 -3.656119
v 0.097659 -51.182598 0.000002
v 0.097659 -40.839897 0.000001
v 0.097659 -46.012802 5.169841
v 0.097659 -49.668900 3.656122
v 0.097659 -42.356602 3.656121
v 0.097659 -42.356602 3.656121
v 0.097659 -51.182598 0.000002
v 0.097659 -40.839897 0.000001
v 0.097659 -42.356602 -3.656119
v 0.097659 -51.182598 0.000002
v 0.097659 -49.668900 -3.656118
v -2.716151 77.474304 -15.131102
v -2.716151 74.773399 -12.430202
v -2.716151 75.939201 -15.222603
v -2.716150 88.973701 0.021360
v -2.716150 84.090698 -7.071142
v -2.716150 90.032700 -1.037633
v -2.716151 73.622902 -11.407803
v -2.716151 64.925095 -9.768972
v -2.716151 64.925095 -11.267402
v -2.768030 72.225098 2.121037
v -2.768030 79.522095 4.077267
v -2.768030 71.312599 3.701898
v -2.768031 87.734596 -24.741402
v -2.768031 86.822098 -23.160501
v -2.768031 79.522095 -25.116701
v -2.716151 68.965698 -19.919401
v -2.716151 70.024696 -20.978401
v -2.716151 75.939201 -15.222603
v -2.716151 80.135498 -25.147303
v -2.716151 80.275902 -16.281603
v -2.716151 78.637001 -25.147303
v -2.716151 94.119102 -11.267403
v -2.716151 94.119102 -9.768973
v -2.716151 85.149696 -11.407803
v -2.768031 71.312599 -24.741402
v -2.768031 79.522095 -25.116701
v -2.768031 72.225098 -23.160501
v -2.716150 75.939201 -5.813782
v -2.716150 70.030800 -0.027469
v -2.716150 68.971802 -1.089512
v -2.716151 80.275902 -16.281603
v -2.716151 77.474304 -15.131102
v -2.716151 78.499695 -16.281603
v -2.716151 80.275902 -16.281603
v -2.716151 81.298294 -15.131102
v -2.716151 77.474304 -15.131102
v -2.716151 81.298294 -15.131102
v -2.716151 84.002205 -12.430202
v -2.716151 77.474304 -15.131102
v -2.716151 82.833305 -15.222603
v -2.716151 88.952301 -21.057804
v -2.716151 84.090698 -13.965302
v -2.716151 88.952301 -21.057804
v -2.716151 90.014305 -19.998802
v -2.716151 84.090698 -13.965302
v -2.768031 92.165901 -17.816704
v -2.768030 95.944099 -10.519704
v -2.768030 94.119102 -10.519703
v -2.768030 95.944099 -10.519704
v -2.768030 93.743698 -2.307203
v -2.768030 92.165901 -3.219703
v -2.768030 93.743698 -2.307203
v -2.768030 86.822098 2.121037
v -2.768030 92.165901 -3.219703
v -2.768030 87.734596 3.701897
v -2.768030 79.522095 4.077267
v -2.768030 86.822098 2.121037
v -2.768030 63.100098 -10.519702
v -2.768031 66.881302 -17.816702
v -2.768030 64.925095 -10.519702
v -2.768030 63.100098 -10.519702
v -2.768031 65.300499 -18.729204
v -2.768031 66.881302 -17.816702
v -2.768031 71.312599 -24.741402
v -2.768031 79.522095 -26.941700
v -2.768031 79.522095 -25.116701
v -2.768030 92.165901 -3.219703
v -2.768030 94.119102 -10.519703
v -2.768030 95.944099 -10.519704
v -2.768031 93.743698 -18.729204
v -2.768031 92.165901 -17.816704
v -2.768031 86.822098 -23.160501
v -2.768031 93.743698 -18.729204
v -2.768031 86.822098 -23.160501
v -2.768031 87.734596 -24.741402
v -2.768031 87.734596 -24.741402
v -2.768031 79.522095 -25.116701
v -2.768031 79.522095 -26.941700
v -2.768030 87.734596 3.701897
v -2.768030 79.522095 5.899227
v -2.768030 79.522095 4.077267
v -2.768030 79.522095 4.077267
v -2.768030 79.522095 5.899227
v -2.768030 71.312599 3.701898
v -2.768030 66.881302 -3.219702
v -2.768030 65.300499 -2.307202
v -2.768030 63.100098 -10.519702
v -2.768030 66.881302 -3.219702
v -2.768030 63.100098 -10.519702
v -2.768030 64.925095 -10.519702
v -2.224800 81.212799 -7.330553
v -2.224800 77.559700 0.021360
v -2.224800 77.559700 -7.330553
v -2.224801 83.419296 -8.865633
v -2.224800 77.559700 -7.330553
v -2.224801 75.353302 -8.865633
v -2.224801 83.419296 -8.865633
v -2.224801 75.353302 -8.865633
v -2.224801 83.263603 -13.464803
v -2.224801 83.263603 -13.464803
v -2.224801 75.466194 -13.464803
v -2.224801 77.806900 -15.289802
v -2.716151 82.833305 -15.222603
v -2.716151 84.090698 -13.965302
v -2.716151 84.002205 -12.430202
v -2.716151 82.833305 -15.222603
v -2.716151 84.002205 -12.430202
v -2.716151 81.298294 -15.131102
v -2.716151 80.275902 -16.281603
v -2.716151 78.499695 -16.281603
v -2.716151 78.637001 -25.147303
v -2.716150 68.971802 -1.089512
v -2.716150 74.681801 -7.071142
v -2.716150 75.939201 -5.813782
v -2.716150 75.939201 -5.813782
v -2.716150 74.681801 -7.071142
v -2.716151 74.773399 -8.606223
v -2.716150 77.474304 -5.905333
v -2.716151 74.773399 -8.606223
v -2.716151 84.002205 -8.606223
v -2.716150 77.474304 -5.905333
v -2.716151 84.002205 -8.606223
v -2.716150 81.298294 -5.905333
v -2.716151 85.149696 -11.407803
v -2.716151 84.002205 -8.606223
v -2.716151 84.002205 -12.430202
v -2.716151 84.002205 -12.430202
v -2.716151 84.002205 -8.606223
v -2.716151 74.773399 -8.606223
v -2.716150 88.973701 0.021360
v -2.716150 82.833305 -5.813782
v -2.716150 84.090698 -7.071142
v -2.716150 82.833305 -5.813782
v -2.716150 81.298294 -5.905333
v -2.716151 84.002205 -8.606223
v -2.716150 81.298294 -5.905333
v -2.716150 78.499695 -4.754782
v -2.716150 77.474304 -5.905333
v -2.716151 64.925095 -9.768972
v -2.716151 73.622902 -11.407803
v -2.716151 73.622902 -9.631642
v -2.716151 73.622902 -11.407803
v -2.716151 74.773399 -12.430202
v -2.716151 74.773399 -8.606223
v -2.716151 74.773399 -12.430202
v -2.716151 84.002205 -12.430202
v -2.716151 74.773399 -8.606223
v -2.716151 74.773399 -12.430202
v -2.716151 77.474304 -15.131102
v -2.716151 84.002205 -12.430202
v -2.716150 78.499695 -4.754782
v -2.716150 80.275902 -4.754782
v -2.716150 78.637001 4.104737
v -2.716150 78.637001 4.104737
v -2.716150 80.275902 -4.754782
v -2.716150 80.135498 4.104737
v -2.716150 81.298294 -5.905333
v -2.716150 80.275902 -4.754782
v -2.716150 78.499695 -4.754782
v -2.716150 77.474304 -5.905333
v -2.716150 75.939201 -5.813782
v -2.716151 74.773399 -8.606223
v -2.716151 75.939201 -15.222603
v -2.716151 74.773399 -12.430202
v -2.716151 74.681801 -13.965302
v -2.716151 85.149696 -11.407803
v -2.716151 85.149696 -9.631642
v -2.716151 84.002205 -8.606223
v -2.716151 85.149696 -11.407803
v -2.716151 94.119102 -9.768973
v -2.716151 85.149696 -9.631642
v -2.768031 93.743698 -18.729204
v -2.768030 95.944099 -10.519704
v -2.768031 92.165901 -17.816704
v -2.768030 71.312599 3.701898
v -2.768030 65.300499 -2.307202
v -2.768030 72.225098 2.121037
v -2.768030 65.300499 -2.307202
v -2.768030 66.881302 -3.219702
v -2.768030 72.225098 2.121037
v -2.441480 78.017494 8.008058
v -2.441480 78.017494 1.385538
v -2.441480 81.328796 0.012205
v -2.441480 78.017494 8.008058
v -2.441480 81.328796 0.012205
v -2.441479 81.328796 9.378338
v -2.768030 86.822098 2.121037
v -2.768030 93.743698 -2.307203
v -2.768030 87.734596 3.701897
v -2.768031 71.312599 -24.741402
v -2.768031 72.225098 -23.160501
v -2.768031 65.300499 -18.729204
v -2.768031 65.300499 -18.729204
v -2.768031 72.225098 -23.160501
v -2.768031 66.881302 -17.816702
v -2.716151 75.939201 -15.222603
v -2.716151 74.681801 -13.965302
v -2.716151 68.965698 -19.919401
v -2.716151 74.773399 -8.606223
v -2.716151 73.622902 -9.631642
v -2.716151 73.622902 -11.407803
v -2.716150 84.090698 -7.071142
v -2.716150 82.833305 -5.813782
v -2.716151 84.002205 -8.606223
v -2.224801 79.384705 -19.019102
v -2.224801 80.925903 -15.289802
v -2.224801 77.806900 -15.289802
v -2.160710 100.000000 -0.000004
v -2.160710 96.508698 1.489297
v -2.160710 96.508698 -1.489303
v -2.160710 81.490501 -1.773132
v -2.160710 81.490501 1.773128
v -2.160710 88.634903 1.773127
v -2.160710 96.508698 -1.489303
v -2.160710 95.217804 3.906367
v -2.160710 95.217804 -3.909423
v -2.160710 90.603401 -4.235973
v -2.160710 90.603401 4.229867
v -2.160710 88.634903 1.773127
v -2.160710 90.603401 -4.235973
v -2.160710 88.634903 1.773127
v -2.160710 88.634903 -1.773133
v -2.160710 88.634903 -1.773133
v -2.160710 88.634903 1.773127
v -2.160710 81.490501 -1.773132
v -2.160710 96.508698 1.489297
v -2.160710 95.217804 3.906367
v -2.160710 96.508698 -1.489303
v -2.160710 95.217804 3.906367
v -2.160710 90.603401 4.229867
v -2.160710 95.217804 -3.909423
v -2.160710 90.603401 4.229867
v -2.160710 90.603401 -4.235973
v -2.160710 95.217804 -3.909423
v -2.224800 81.212799 -7.330553
v -2.224800 77.559700 0.021360
v -2.224800 81.212799 0.021361
v -2.511670 65.004402 -5.847352
v -2.511670 61.696201 -7.220682
v -2.511671 65.004402 -15.213502
v -2.511670 61.696201 -7.220682
v -2.511671 61.696201 -13.840102
v -2.511671 65.004402 -15.213502
v -2.511671 67.036995 -18.140202
v -2.511671 65.666702 -21.451502
v -2.511671 67.036995 -24.762703
v -2.511671 78.017494 -22.449402
v -2.511671 78.017494 -29.071901
v -2.511672 81.328796 -30.442202
v -2.511671 78.017494 -22.449402
v -2.511671 76.647202 -25.760704
v -2.511671 78.017494 -29.071901
v -2.511671 92.632797 -16.248104
v -2.511671 89.321602 -17.618303
v -2.511671 92.632797 -25.611103
v -2.511671 89.321602 -17.618303
v -2.511671 89.321602 -24.240904
v -2.511671 92.632797 -25.611103
v -2.511671 89.321602 -17.618303
v -2.511671 87.951302 -20.929602
v -2.511671 89.321602 -24.240904
v -2.441480 67.036995 3.698838
v -2.441480 67.036995 -2.920622
v -2.441480 70.348198 -4.290902
v -2.441480 67.036995 3.698838
v -2.441480 65.666702 0.387583
v -2.441480 67.036995 -2.920622
v -2.441480 78.017494 8.008058
v -2.441480 78.017494 1.385538
v -2.441480 76.647202 4.696797
v -2.441480 92.632797 4.550306
v -2.441480 89.321602 3.176977
v -2.441480 92.632797 -4.812773
v -2.511671 92.229996 -10.528903
v -2.511671 93.600304 -13.840103
v -2.511670 93.600304 -7.220683
v -2.511670 93.600304 -7.220683
v -2.511671 93.600304 -13.840103
v -2.511671 96.911499 -15.213504
v -2.511670 93.600304 -7.220683
v -2.511671 96.911499 -15.213504
v -2.511670 96.911499 -5.847353
v -2.511671 60.322899 -10.528902
v -2.511671 61.696201 -13.840102
v -2.511670 61.696201 -7.220682
v -2.511671 67.036995 -18.140202
v -2.511671 67.036995 -24.762703
v -2.511671 70.348198 -26.133003
v -2.511671 67.036995 -18.140202
v -2.511671 70.348198 -26.133003
v -2.511671 70.348198 -16.766901
v -2.511671 78.017494 -22.449402
v -2.511672 81.328796 -30.442202
v -2.511671 81.328796 -21.076101
v -2.441480 67.036995 3.698838
v -2.441480 70.348198 -4.290902
v -2.441480 70.348198 5.069118
v -2.441480 87.951302 -0.131233
v -2.441480 89.321602 -3.442493
v -2.441480 89.321602 3.176977
v -2.441480 89.321602 3.176977
v -2.441480 89.321602 -3.442493
v -2.441480 92.632797 -4.812773
v -2.545240 88.079498 -8.465833
v -2.545240 71.141701 -8.465833
v -2.545240 79.610596 -11.975502
v -2.545239 88.079498 8.465827
v -2.545239 71.141701 8.465827
v -2.545240 67.635101 -0.000002
v -2.545240 88.079498 -8.465833
v -2.545240 67.635101 -0.000002
v -2.545240 71.141701 -8.465833
v -2.545240 88.079498 -8.465833
v -2.545240 91.585999 -0.000003
v -2.545240 67.635101 -0.000002
v -2.545240 91.585999 -0.000003
v -2.545239 88.079498 8.465827
v -2.545240 67.635101 -0.000002
v -2.545239 88.079498 8.465827
v -2.545239 79.610596 11.975498
v -2.545239 71.141701 8.465827
v 0.000000 -36.503201 0.469986
v 0.000000 -36.503201 -0.469984
v 0.000000 -31.211298 0.469986
v 0.000000 -25.916300 0.469986
v 0.000000 -31.211298 -0.469984
v 0.000000 -25.916300 -0.469984
v 0.000000 -36.503201 -0.469984
v 0.000000 -31.211298 0.469986
v 0.000000 -31.211298 -0.469984
v 0.000000 -31.211298 -0.469984
v 0.000000 -31.211298 0.469986
v 0.000000 -25.916300 0.469986
v 0.097659 -42.356602 3.656121
v 0.097659 -51.182598 0.000002
v 0.097659 -49.668900 3.656122
v 0.210578 -41.630302 4.245121
v 0.210578 -40.821602 -4.242069
v 0.210578 -37.855198 4.605241
v 0.210578 -37.855198 4.605241
v 0.210578 -40.821602 -4.242069
v 0.210578 -37.046398 -3.881949
v 0.094608 -31.199100 3.167821
v 0.094607 -37.485901 -3.732409
v 0.094607 -33.884701 -4.925689
v 0.000000 -41.798203 -0.469984
v 0.000000 -36.503201 0.469986
v 0.000000 -41.798203 0.469986
v 0.094607 -27.298800 -4.226809
v 0.094608 -26.313099 4.556411
v 0.094608 -22.229700 4.080321
v 0.158696 -30.445299 -4.632709
v 0.158696 -28.110600 4.589981
v 0.158696 -26.694500 -4.058959
v 0.158696 -30.445299 -4.632709
v 0.158696 -31.861300 4.016242
v 0.158696 -28.110600 4.589981
v 0.094607 -37.485901 -3.732409
v 0.094608 -34.800301 4.361092
v 0.094608 -31.199100 3.167821
v 0.000000 -36.503201 0.469986
v 0.000000 -36.503201 -0.469984
v 0.000000 -41.798203 -0.469984
v 0.000000 -21.088301 0.469986
v 0.000000 -25.916300 -0.469984
v 0.000000 -25.916300 0.469986
v 0.000000 -25.916300 -0.469984
v 0.000000 -21.088301 -0.469984
v 0.000000 -21.088301 0.469986
v 0.094608 -22.229700 4.080321
v 0.094607 -27.298800 -4.226809
v 0.094607 -23.215399 -4.705949
v 0.097659 -46.012802 -5.169838
v 0.097659 -49.668900 -3.656118
v 0.097659 -42.356602 -3.656119
v 0.097659 -42.356602 -3.656119
v 0.097659 -51.182598 0.000002
v 0.097659 -40.839897 0.000001
v 0.097659 -46.012802 5.169841
v 0.097659 -49.668900 3.656122
v 0.097659 -42.356602 3.656121
v 0.097659 -42.356602 3.656121
v 0.097659 -51.182598 0.000002
v 0.097659 -40.839897 0.000001
v 0.097659 -42.356602 -3.656119
v 0.097659 -51.182598 0.000002
v 0.097659 -49.668900 -3.656118
vn 1.0000 -0.0000 -0.0000
vn -0.0000 -0.9238 -0.3828
vn -0.0000 -0.9238 0.3828
vn -0.0000 0.3622 -0.9321
vn -0.0000 0.9796 -0.2009
vn -0.0000 0.9238 -0.3828
vn -0.0000 0.9238 0.3828
vn -0.9373 0.0448 0.3456
vn -0.8641 0.0622 0.4995
vn 0.7279 0.5418 -0.4203
vn 0.5363 -0.7851 0.3097
vn -0.0000 -0.7854 0.6190
vn -0.0000 -0.5022 0.8647
vn -0.7489 -0.5021 0.4325
vn -0.0000 0.3826 0.9239
vn -1.0000 -0.0000 -0.0000
vn -0.0000 0.6377 0.7703
vn -1.0000 -0.0008 0.0007
vn 0.8641 0.0622 0.4995
vn -0.7279 0.5418 0.4203
vn -0.7279 0.5418 -0.4203
vn 0.8420 0.2335 -0.4863
vn -0.0000 -0.3826 0.9239
vn -0.0000 -0.3826 -0.9239
vn -0.6520 0.3871 -0.6520
vn -0.6207 -0.4790 0.6207
vn -0.7071 -0.0000 -0.7071
vn -0.6960 0.1762 -0.6961
vn -0.0000 -0.9207 -0.3902
vn -1.0000 -0.0008 -0.0007
vn -1.0000 0.0002 0.0019
vn -1.0000 0.0026 0.0025
vn -1.0000 0.0031 0.0026
vn -1.0000 -0.0000 0.0019
vn -0.0000 -0.9902 0.1397
vn -0.0000 -0.3363 0.9417
vn -0.0000 -0.8951 0.4458
vn -0.0000 -0.3222 0.9467
vn -0.0000 0.4139 0.9103
vn -0.0000 0.9385 0.3453
vn -0.0000 0.8767 -0.4810
vn -0.0000 -0.2512 0.9679
vn -0.0000 -0.9597 0.2810
vn -0.0000 -0.4243 0.9055
vn -0.0000 -0.9207 0.3902
vn -0.0000 0.9385 -0.3453
vn -0.0000 0.4139 -0.9103
vn -0.0000 -0.3222 -0.9467
vn -0.0000 -0.8951 -0.4458
vn -0.0000 -0.3363 -0.9417
vn -0.0000 -0.4195 -0.9078
vn -0.0000 0.1977 -0.9803
vn -0.0000 -0.5707 -0.8211
vn -0.0000 -0.9902 -0.1397
vn -1.0000 -0.0004 0.0001
vn -0.0000 -0.6175 -0.7865
vn -0.0000 0.0750 -0.9972
vn -0.0000 0.7595 -0.6505
vn -0.0000 -0.4243 -0.9055
vn -0.0000 -0.9597 -0.2810
vn -0.0000 -0.2512 -0.9679
vn -1.0000 -0.0004 -0.0001
vn 0.5363 -0.7851 -0.3097
vn -0.0000 -0.7854 -0.6190
vn -0.5363 -0.7851 -0.3097
vn -0.7489 -0.5021 -0.4325
vn -0.6125 0.4531 -0.6477
vn 0.6693 0.3225 -0.6693
vn 0.6680 0.3966 -0.6297
vn 0.6520 0.3871 0.6520
vn 0.6919 0.3098 0.6522
vn -0.6327 0.4465 0.6327
vn -0.6362 0.3778 0.6727
vn -0.6207 -0.4790 -0.6207
vn 0.6207 -0.4790 -0.6207
vn 0.6207 -0.4790 0.6207
vn -0.0000 -0.5707 0.8211
vn -0.0000 0.1977 0.9803
vn -0.0000 -0.4195 0.9078
vn -0.0000 0.3622 0.9321
vn -0.0000 0.7595 0.6505
vn -0.0000 0.0750 0.9972
vn -0.0000 -0.6175 0.7865
vn -0.0000 0.6377 -0.7703
vn -0.0000 -0.0587 -0.9983
vn -0.0000 0.6662 -0.7458
vn -0.0000 0.8767 0.4810
vn -0.0000 0.3823 -0.9240
vn -0.0000 -0.3823 -0.9240
vn -0.0000 0.0504 -0.9987
vn -0.0000 0.2333 -0.9724
vn -0.0000 0.5420 -0.8404
vn -0.5363 -0.7851 0.3097
vn 0.7489 -0.5021 0.4325
vn -1.0000 -0.0009 -0.0008
vn 0.8419 0.2333 0.4866
vn 0.8420 0.2335 0.4863
vn -0.0000 0.2333 0.9724
vn -0.8418 0.2336 0.4866
vn -0.8421 0.2333 0.4863
vn -0.0000 -0.0587 0.9983
vn -0.0000 0.6662 0.7458
vn -0.0000 -0.3823 0.9240
vn -0.0000 0.3823 0.9240
vn -1.0000 -0.0009 0.0008
vn -0.9373 0.0448 -0.3456
vn -0.8641 0.0622 -0.4995
vn -0.8418 0.2336 -0.4866
vn -0.8421 0.2333 -0.4863
vn 0.7279 0.5418 0.4203
vn -0.0000 0.5420 0.8404
vn -0.0000 0.9158 0.4017
vn -0.0000 0.9158 -0.4017
vn 0.6960 0.1762 0.6960
vn 0.6960 0.1762 -0.6961
vn 0.7402 0.3351 -0.5830
vn -0.7402 0.3351 -0.5830
vn -0.6871 -0.0000 -0.7265
vn -0.6871 -0.0000 0.7265
vn 0.7277 -0.0000 0.6859
vn 0.7277 -0.0000 -0.6859
vn -0.5879 -0.5177 -0.6216
vn 0.6453 -0.4622 -0.6083
vn 0.2960 -0.7169 -0.6312
vn 0.2960 -0.7169 0.6312
vn -0.2960 -0.7169 -0.6312
vn -0.2960 -0.7169 0.6312
vn -0.5879 -0.5177 0.6216
vn 0.6453 -0.4622 0.6083
vn 0.7071 -0.0000 -0.7071
vn 0.7071 -0.0000 0.7071
vn -0.0000 0.9796 0.2009
vn -0.0000 0.0504 0.9987
vn 0.9373 0.0448 0.3456
vn 0.7489 -0.5021 -0.4325
vn -0.0000 -0.5022 -0.8647
vn 0.8419 0.2333 -0.4866
vn 0.8641 0.0622 -0.4995
vn 0.9373 0.0448 -0.3456
vn -0.0000 0.9177 -0.3973
vn -0.0000 0.3826 -0.9239
vn -0.0000 0.9177 0.3973
vn -0.0000 -0.9238 0.3830
vn -0.0000 -0.9239 -0.3827
vn 0.7402 0.3351 0.5830
vn -0.7402 0.3351 0.5830
vn -0.6960 0.1762 0.6960
vn -0.7071 -0.0000 0.7071
vn -0.0000 0.9949 0.1014
vn -0.0000 0.9948 -0.1014
vn -1.0000 0.0026 -0.0025
vn -1.0000 0.0002 -0.0019
vn -1.0000 0.0031 -0.0026
vn -1.0000 -0.0000 -0.0019
vt 0.946916 0.609092
vt 0.867327 0.543172
vt 0.787737 0.609092
vt 0.754534 0.768272
vt 0.668108 0.112512
vt 0.668108 0.075892
vt 0.721331 0.112512
vt 0.421526 0.801472
vt 0.421526 0.877652
vt 0.565081 0.877652
vt 0.351213 0.801472
vt 0.827776 0.075892
vt 0.880999 0.075892
vt 0.880999 0.112512
vt 0.174944 0.638882
vt 0.179827 0.099812
vt 0.166155 0.113492
vt 0.150042 0.628622
vt 0.109514 0.129112
vt 0.147600 0.152552
vt 0.167620 0.062702
vt 0.114397 0.026572
vt 0.852190 0.210172
vt 0.793108 0.153042
vt 0.793108 0.210172
vt 0.729631 0.153042
vt 0.793108 0.247762
vt 0.729631 0.210172
vt 0.729631 0.247762
vt 0.672991 0.210172
vt 0.959612 0.087612
vt 0.912737 0.080772
vt 0.986956 0.258992
vt 0.991838 0.163292
vt 0.915178 0.053922
vt 0.915178 0.011922
vt 0.835588 0.011922
vt 0.835588 0.053922
vt 0.314104 0.609582
vt 0.280901 0.768762
vt 0.473284 0.609582
vt 0.393694 0.543662
vt 0.535295 0.036342
vt 0.669573 0.030482
vt 0.648088 0.126672
vt 0.758440 0.307332
vt 0.658831 0.230192
vt 0.645159 0.353232
vt 0.740374 0.421102
vt 0.441545 0.359092
vt 0.423479 0.357142
vt 0.409319 0.424032
vt 0.721331 0.075892
vt 0.579729 0.217002
vt 0.592424 0.242392
vt 0.521135 0.387412
vt 0.395647 0.452352
vt 0.291155 0.452352
vt 0.291155 0.487512
vt 0.879534 0.358122
vt 0.838030 0.272182
vt 0.868792 0.229212
vt 0.012346 0.716512
vt 0.028948 0.716512
vt 0.012346 0.645712
vt 0.028948 0.576862
vt 0.012346 0.576862
vt 0.339983 0.244352
vt 0.352678 0.218952
vt 0.065569 0.904502
vt 0.130022 0.904502
vt 0.130022 0.980672
vt 0.227190 0.629112
vt 0.207659 0.111532
vt 0.200823 0.637412
vt 0.168108 0.772182
vt 0.130510 0.746302
vt 0.109026 0.837612
vt 0.069475 0.130582
vt 0.065081 0.028042
vt 0.010881 0.065152
vt 0.102678 0.265342
vt 0.870745 0.508022
vt 0.890764 0.397182
vt 0.755999 0.011922
vt 0.406389 0.194542
vt 0.365374 0.194542
vt 0.370745 0.168172
vt 0.374651 0.234582
vt 0.485979 0.023642
vt 0.485979 0.305382
vt 0.503557 0.305382
vt 0.714983 0.583702
vt 0.725725 0.556362
vt 0.749651 0.556362
vt 0.995256 0.980672
vt 0.925920 0.904012
vt 0.925920 0.980672
vt 0.645105 0.353306
vt 0.614343 0.337193
vt 0.790666 0.877652
vt 0.729631 0.877652
vt 0.729631 0.801472
vt 0.474749 0.119352
vt 0.454729 0.119352
vt 0.474749 0.331752
vt 0.641252 0.452352
vt 0.533831 0.452352
vt 0.641252 0.487512
vt 0.339983 0.243862
vt 0.352678 0.218472
vt 0.706628 0.904576
vt 0.570886 0.980748
vt 0.570886 0.904576
vt 0.498132 0.904576
vt 0.498132 0.980748
vt 0.421472 0.904576
vt 0.421472 0.980748
vt 0.344812 0.904576
vt 0.344812 0.980748
vt 0.266687 0.904576
vt 0.266687 0.980748
vt 0.235925 0.980748
vt 0.706628 0.980748
vt 0.749109 0.980748
vt 0.749109 0.904088
vt 0.875085 0.980748
vt 0.875085 0.904088
vt 0.925866 0.980748
vt 0.925866 0.904088
vt 0.995202 0.980748
vt 0.995202 0.904088
vt 0.474695 0.331822
vt 0.454675 0.331822
vt 0.441491 0.359166
vt 0.487390 0.359166
vt 0.520105 0.424107
vt 0.505945 0.357213
vt 0.521081 0.387486
vt 0.579187 0.217076
vt 0.591882 0.242955
vt 0.012292 0.498814
vt 0.012292 0.422642
vt 0.028894 0.422642
vt 0.028894 0.498814
vt 0.012292 0.576939
vt 0.028894 0.576939
vt 0.012292 0.645787
vt 0.028894 0.870396
vt 0.012292 0.870396
vt 0.012292 0.791295
vt 0.028894 0.791295
vt 0.028894 0.716588
vt 0.028894 0.645787
vt 0.421472 0.801549
vt 0.565027 0.877721
vt 0.565027 0.801549
vt 0.640222 0.801549
vt 0.640222 0.877721
vt 0.679284 0.801549
vt 0.679284 0.877721
vt 0.729577 0.801549
vt 0.729577 0.877721
vt 0.790612 0.877721
vt 0.758386 0.307408
vt 0.740320 0.421178
vt 0.764245 0.518346
vt 0.809167 0.260533
vt 0.818445 0.555455
vt 0.837976 0.272252
vt 0.870691 0.508092
vt 0.879480 0.358189
vt 0.890710 0.397252
vt 0.303796 0.096471
vt 0.266198 0.096471
vt 0.266198 0.016881
vt 0.325769 0.135533
vt 0.242273 0.135533
vt 0.322351 0.226353
vt 0.269128 0.252232
vt 0.245202 0.226353
vt 0.790612 0.801549
vt 0.854577 0.801549
vt 0.854577 0.877721
vt 0.917566 0.801549
vt 0.917566 0.877721
vt 0.984460 0.801549
vt 0.984460 0.877721
vt 0.793054 0.153111
vt 0.852136 0.210240
vt 0.863855 0.153111
vt 0.793054 0.210240
vt 0.729577 0.153111
vt 0.729577 0.210240
vt 0.672937 0.210240
vt 0.729577 0.247838
vt 0.370691 0.168248
vt 0.406335 0.168248
vt 0.406335 0.194615
vt 0.445886 0.194615
vt 0.440515 0.168248
vt 0.365320 0.194615
vt 0.374597 0.234654
vt 0.406335 0.234654
vt 0.436120 0.234654
vt 0.065515 0.904576
vt 0.129968 0.980748
vt 0.129968 0.904576
vt 0.191980 0.904576
vt 0.191980 0.980748
vt 0.235925 0.904576
vt 0.454675 0.119420
vt 0.880945 0.112584
vt 0.827722 0.112584
vt 0.827722 0.075474
vt 0.774499 0.075474
vt 0.774499 0.112584
vt 0.721277 0.075474
vt 0.721277 0.112584
vt 0.668054 0.075474
vt 0.868738 0.229283
vt 0.903894 0.315221
vt 0.949304 0.320592
vt 0.875085 0.139439
vt 0.986902 0.259068
vt 0.912683 0.080846
vt 0.959558 0.087681
vt 0.095789 0.803014
vt 0.102624 0.265416
vt 0.081628 0.803014
vt 0.076745 0.263951
vt 0.109460 0.129185
vt 0.069421 0.130650
vt 0.114343 0.026646
vt 0.065027 0.028111
vt 0.658777 0.153111
vt 0.793054 0.247838
vt 0.227136 0.629185
vt 0.201257 0.637486
vt 0.245691 0.750279
vt 0.208093 0.773717
vt 0.174890 0.638951
vt 0.168054 0.772252
vt 0.149988 0.628697
vt 0.130456 0.746373
vt 0.339929 0.243931
vt 0.423425 0.357213
vt 0.408288 0.387486
vt 0.409265 0.424107
vt 0.533777 0.452428
vt 0.520105 0.515904
vt 0.409265 0.515904
vt 0.579675 0.217076
vt 0.291101 0.487584
vt 0.395593 0.487584
vt 0.395593 0.452428
vt 0.658777 0.229771
vt 0.587976 0.157506
vt 0.648034 0.126744
vt 0.553308 0.125279
vt 0.535241 0.036412
vt 0.067468 0.789342
vt 0.051355 0.273717
vt 0.031824 0.156529
vt 0.010828 0.065221
vt 0.266198 0.840123
vt 0.212488 0.875767
vt 0.163659 0.874791
vt 0.108972 0.837681
vt 0.867273 0.543248
vt 0.946862 0.609166
vt 0.787683 0.609166
vt 0.754968 0.768346
vt 0.980066 0.768346
vt 0.421472 0.877721
vt 0.351159 0.801549
vt 0.351159 0.877721
vt 0.280359 0.877721
vt 0.280359 0.801549
vt 0.473230 0.609654
vt 0.280847 0.768834
vt 0.507898 0.768834
vt 0.314050 0.609654
vt 0.393640 0.543736
vt 0.749597 0.556431
vt 0.783777 0.585240
vt 0.773523 0.556431
vt 0.749109 0.662877
vt 0.714929 0.583775
vt 0.333093 0.340611
vt 0.374109 0.430943
vt 0.374109 0.340611
vt 0.333093 0.430943
vt 0.294519 0.430943
vt 0.294519 0.340611
vt 0.484948 0.539830
vt 0.514734 0.634556
vt 0.515710 0.575474
vt 0.544030 0.539830
vt 0.608972 0.539830
vt 0.423425 0.539830
vt 0.485925 0.023228
vt 0.503503 0.305455
vt 0.503503 0.023228
vt 0.521081 0.023228
vt 0.521081 0.305455
vt 0.474695 0.119420
vt 0.533777 0.487584
vt 0.641198 0.487584
vt 0.012292 0.716588
vt 0.658777 0.452428
vt 0.754480 0.533482
vt 0.738366 0.453892
vt 0.642175 0.533482
vt 0.179773 0.099888
vt 0.194421 0.099888
vt 0.207605 0.111607
vt 0.147546 0.152623
vt 0.128503 0.273717
vt 0.108972 0.791295
vt 0.995202 0.011998
vt 0.915124 0.053990
vt 0.915124 0.011998
vt 0.835534 0.011998
vt 0.835534 0.053990
vt 0.995202 0.053990
vt 0.676355 0.053990
vt 0.755945 0.053990
vt 0.676355 0.011998
vt 0.755945 0.011998
vt 0.725671 0.556431
vt 0.485925 0.305455
vt 0.065515 0.980748
vt 0.009363 0.904576
vt 0.009363 0.980748
vt 0.339929 0.244420
vt 0.283777 0.321080
vt 0.298425 0.252232
vt 0.338952 0.144810
vt 0.338952 0.014928
vt 0.446862 0.014928
vt 0.446862 0.144810
vt 0.959558 0.636998
vt 0.944909 0.568150
vt 0.974206 0.568150
vt 0.941980 0.333287
vt 0.977136 0.412877
vt 0.977136 0.333287
vt 0.557702 0.402623
vt 0.607019 0.402623
vt 0.582605 0.431431
vt 0.920984 0.542760
vt 0.998132 0.542760
vt 0.918054 0.451451
vt 1.001550 0.451451
vt 0.941980 0.412877
vt 0.301355 0.016881
vt 0.698327 0.420689
vt 0.557702 0.345494
vt 0.607019 0.345494
vt 0.582605 0.317174
vt 0.711999 0.608678
vt 0.632898 0.543248
vt 0.553796 0.608678
vt 0.520593 0.767369
vt 0.744714 0.767369
vt 0.711423 0.715332
vt 0.711423 0.482910
vt 0.745603 0.715332
vt 0.711423 0.250000
vt 0.745603 0.250000
vt 0.745603 0.482910
vt 0.425783 0.829590
vt 0.425783 0.154297
vt 0.256833 0.014160
vt 0.777833 0.040039
vt 0.982423 0.040039
vt 0.777833 0.959961
vt 0.982423 0.959961
vt 0.745603 0.948242
vt 0.711423 0.948242
vt 0.711423 0.038086
vt 0.745603 0.038086
vt 0.018141 0.496621
vt 0.088453 0.834024
vt 0.088453 0.159219
vt 0.256910 0.974160
vt 0.256910 0.019082
vt 0.428411 0.613894
vt 0.375677 0.868776
vt 0.375677 0.333132
vt 0.258001 0.974245
vt 0.258001 0.214480
s 1
usemtl Brush.035
f 1/1/1 3/2/1 2/3/1
f 4/3/1 6/4/1 5/1/1
f 7/5/2 9/6/2 8/7/2
f 10/6/3 12/5/3 11/7/3
f 13/8/4 15/9/4 14/10/4
f 16/9/5 18/8/5 17/11/5
f 19/12/6 21/13/6 20/14/6
f 22/14/7 24/13/7 23/12/7
f 25/15/8 27/16/8 26/17/8
f 28/15/9 30/17/9 29/18/9
f 31/19/10 33/20/10 32/21/10
f 34/21/10 36/22/10 35/19/10
f 37/23/11 39/24/11 38/25/11
f 40/25/12 42/24/12 41/26/12
f 43/27/13 45/28/13 44/29/13
f 46/29/14 48/28/14 47/30/14
f 49/31/1 51/32/1 50/33/1
f 52/33/1 54/34/1 53/31/1
f 55/35/15 57/36/15 56/37/15
f 58/35/15 60/37/15 59/38/15
f 61/39/16 63/40/16 62/41/16
f 64/41/16 66/42/16 65/39/16
f 67/39/1 69/41/1 68/42/1
f 70/41/1 72/39/1 71/40/1
f 73/43/1 75/44/1 74/45/1
f 76/45/1 78/44/1 77/43/1
f 79/44/16 81/43/16 80/45/16
f 82/44/16 84/45/16 83/43/16
f 85/46/1 87/47/1 86/48/1
f 88/46/1 90/48/1 89/49/1
f 91/31/16 93/32/16 92/33/16
f 94/33/16 96/34/16 95/31/16
f 97/50/16 99/51/16 98/52/16
f 100/7/3 102/53/3 101/6/3
f 103/54/16 105/55/16 104/56/16
f 106/57/16 108/58/16 107/59/16
f 109/60/1 111/61/1 110/62/1
f 112/63/16 114/64/16 113/65/16
f 115/66/16 117/65/16 116/67/16
f 118/31/1 120/34/1 119/33/1
f 121/48/1 123/47/1 122/46/1
f 124/68/16 126/51/16 125/69/16
f 127/70/17 129/71/17 128/72/17
f 130/62/18 132/61/18 131/60/18
f 133/73/19 135/74/19 134/75/19
f 136/76/20 138/77/20 137/78/20
f 139/79/21 141/80/21 140/81/21
f 142/31/16 144/34/16 143/33/16
f 145/20/22 147/19/22 146/82/22
f 148/83/16 150/84/16 149/60/16
f 151/38/23 153/37/23 152/85/23
f 154/38/24 156/85/24 155/37/24
f 157/86/25 159/87/25 158/88/25
f 160/86/26 162/87/26 161/89/26
f 163/90/27 165/91/27 164/92/27
f 166/93/28 168/94/28 167/95/28
f 169/96/29 171/97/29 170/98/29
f 172/62/1 174/61/1 173/60/1
f 175/60/30 177/61/30 176/62/30
f 178/99/31 180/47/32 179/100/33
f 178/99/31 181/46/34 180/47/32
f 182/101/35 184/102/35 183/103/35
f 185/104/16 187/105/16 186/106/16
f 188/107/16 190/108/16 189/109/16
f 191/64/16 193/63/16 192/65/16
f 194/51/16 196/110/16 195/111/16
f 197/112/36 199/113/36 198/114/36
f 200/113/37 202/115/37 201/114/37
f 203/113/37 205/116/37 204/115/37
f 206/116/38 208/117/38 207/115/38
f 209/116/38 211/118/38 210/117/38
f 212/118/39 214/119/39 213/117/39
f 215/118/39 217/120/39 216/119/39
f 218/120/40 220/121/40 219/119/40
f 221/120/40 223/122/40 222/121/40
f 224/122/41 226/123/41 225/121/41
f 227/113/36 229/112/36 228/124/36
f 230/112/42 232/125/42 231/124/42
f 233/112/42 235/126/42 234/125/42
f 236/126/43 238/127/43 237/125/43
f 239/126/43 241/128/43 240/127/43
f 242/128/44 244/129/44 243/127/44
f 245/128/44 247/130/44 246/129/44
f 248/130/45 250/131/45 249/129/45
f 251/130/45 253/132/45 252/131/45
f 254/132/29 256/130/29 255/131/29
f 257/122/46 259/120/46 258/121/46
f 260/120/46 262/119/46 261/121/46
f 263/120/47 265/118/47 264/119/47
f 266/118/47 268/117/47 267/119/47
f 269/118/48 271/116/48 270/117/48
f 272/116/48 274/115/48 273/117/48
f 275/116/49 277/113/49 276/115/49
f 278/113/49 280/114/49 279/115/49
f 281/113/50 283/112/50 282/114/50
f 284/133/16 286/134/16 285/135/16
f 287/133/16 289/135/16 288/136/16
f 290/136/16 292/135/16 291/137/16
f 293/138/16 295/139/16 294/140/16
f 296/140/16 298/139/16 297/141/16
f 299/142/16 301/143/16 300/144/16
f 302/144/16 304/142/16 303/145/16
f 305/145/16 307/142/16 306/146/16
f 308/147/16 310/146/16 309/148/16
f 311/149/16 313/150/16 312/151/16
f 314/149/16 316/151/16 315/152/16
f 317/153/16 319/148/16 318/154/16
f 320/155/4 322/156/4 321/157/4
f 323/156/51 325/158/51 324/157/51
f 326/156/51 328/159/51 327/158/51
f 329/159/52 331/160/52 330/158/52
f 332/159/52 334/161/52 333/160/52
f 335/161/53 337/162/53 336/160/53
f 338/161/53 340/163/53 339/162/53
f 341/163/54 343/164/54 342/162/54
f 344/99/1 346/165/1 345/166/1
f 347/165/1 349/167/1 348/166/1
f 350/165/1 352/168/1 351/167/1
f 353/168/1 355/169/1 354/167/1
f 356/168/1 358/170/1 357/169/1
f 359/170/1 361/171/1 360/169/1
f 362/170/1 364/172/1 363/171/1
f 365/172/1 367/173/1 366/171/1
f 368/99/55 370/165/55 369/166/55
f 371/165/16 373/167/16 372/166/16
f 374/165/16 376/168/16 375/167/16
f 377/168/16 379/169/16 378/167/16
f 380/168/16 382/170/16 381/169/16
f 383/170/16 385/171/16 384/169/16
f 386/170/16 388/172/16 387/171/16
f 389/172/16 391/173/16 390/171/16
f 392/142/16 394/144/16 393/143/16
f 395/145/16 397/146/16 396/142/16
f 398/145/16 400/147/16 399/146/16
f 401/147/16 403/154/16 402/148/16
f 404/147/16 406/148/16 405/154/16
f 407/148/16 409/153/16 408/154/16
f 410/151/16 412/149/16 411/152/16
f 413/151/16 415/150/16 414/149/16
f 416/174/16 418/175/16 417/176/16
f 419/177/16 421/178/16 420/175/16
f 422/177/16 424/179/16 423/178/16
f 425/179/16 427/180/16 426/181/16
f 428/162/54 430/164/54 429/182/54
f 431/164/56 433/183/56 432/182/56
f 434/164/56 436/184/56 435/183/56
f 437/184/57 439/185/57 438/183/57
f 440/184/57 442/186/57 441/185/57
f 443/186/58 445/187/58 444/185/58
f 446/186/58 448/188/58 447/187/58
f 449/130/59 451/128/59 450/129/59
f 452/128/59 454/127/59 453/129/59
f 455/128/60 457/126/60 456/127/60
f 458/126/60 460/125/60 459/127/60
f 461/126/61 463/112/61 462/125/61
f 464/112/61 466/124/61 465/125/61
f 467/112/50 469/113/50 468/124/50
f 470/172/16 472/170/16 471/171/16
f 473/170/16 475/169/16 474/171/16
f 476/170/16 478/168/16 477/169/16
f 479/168/16 481/167/16 480/169/16
f 482/168/16 484/165/16 483/167/16
f 485/165/16 487/166/16 486/167/16
f 488/165/62 490/99/62 489/166/62
f 491/189/11 493/190/11 492/191/11
f 494/190/63 496/189/63 495/191/63
f 497/190/63 499/192/63 498/189/63
f 500/192/64 502/193/64 501/189/64
f 503/192/64 505/194/64 504/193/64
f 506/194/65 508/195/65 507/193/65
f 509/194/66 511/196/66 510/195/66
f 512/197/67 514/198/67 513/199/67
f 515/198/68 517/200/68 516/199/68
f 518/198/69 520/201/69 519/200/69
f 521/201/70 523/199/70 522/200/70
f 524/201/71 526/198/71 525/199/71
f 527/198/72 529/200/72 528/199/72
f 530/198/73 532/201/73 531/200/73
f 533/202/74 535/199/74 534/203/74
f 536/199/74 538/204/74 537/203/74
f 539/199/75 541/200/75 540/204/75
f 542/200/75 544/205/75 543/204/75
f 545/200/76 547/199/76 546/205/76
f 548/199/76 550/204/76 549/205/76
f 551/199/26 553/203/26 552/204/26
f 554/163/77 556/161/77 555/162/77
f 557/161/77 559/160/77 558/162/77
f 560/161/78 562/159/78 561/160/78
f 563/159/78 565/158/78 564/160/78
f 566/159/79 568/156/79 567/158/79
f 569/156/79 571/157/79 570/158/79
f 572/156/80 574/155/80 573/157/80
f 575/166/1 577/167/1 576/165/1
f 578/167/1 580/168/1 579/165/1
f 581/167/1 583/169/1 582/168/1
f 584/169/1 586/170/1 585/168/1
f 587/169/1 589/171/1 588/170/1
f 590/171/1 592/172/1 591/170/1
f 593/171/1 595/173/1 594/172/1
f 596/188/81 598/186/81 597/187/81
f 599/186/81 601/185/81 600/187/81
f 602/186/82 604/184/82 603/185/82
f 605/184/82 607/183/82 606/185/82
f 608/184/83 610/164/83 609/183/83
f 611/164/83 613/182/83 612/183/83
f 614/164/35 616/162/35 615/182/35
f 617/206/84 619/207/84 618/208/84
f 620/207/85 622/209/85 621/208/85
f 623/207/85 625/210/85 624/209/85
f 626/210/86 628/211/86 627/209/86
f 629/210/86 631/123/86 630/211/86
f 632/123/87 634/121/87 633/211/87
f 635/123/87 637/122/87 636/121/87
f 638/138/16 640/137/16 639/139/16
f 641/138/16 643/136/16 642/137/16
f 644/133/16 646/212/16 645/134/16
f 647/213/6 649/214/6 648/215/6
f 650/214/88 652/216/88 651/215/88
f 653/214/88 655/217/88 654/216/88
f 656/217/89 658/218/89 657/216/89
f 659/217/89 661/219/89 660/218/89
f 662/219/2 664/220/2 663/218/2
f 665/172/1 667/221/1 666/222/1
f 668/221/1 670/223/1 669/222/1
f 671/221/1 673/224/1 672/223/1
f 674/224/1 676/225/1 675/223/1
f 677/224/1 679/226/1 678/225/1
f 680/226/1 682/227/1 681/225/1
f 683/228/90 685/229/90 684/230/90
f 686/229/90 688/231/90 687/230/90
f 689/229/91 691/232/91 690/231/91
f 692/232/91 694/233/91 693/231/91
f 695/232/92 697/234/92 696/233/92
f 698/234/92 700/235/92 699/233/92
f 701/193/65 703/195/65 702/236/65
f 704/195/93 706/193/93 705/236/93
f 707/195/93 709/194/93 708/193/93
f 710/194/12 712/192/12 711/193/12
f 713/194/13 715/237/13 714/192/13
f 716/237/94 718/190/94 717/192/94
f 719/227/16 721/225/16 720/226/16
f 722/225/16 724/224/16 723/226/16
f 725/225/16 727/223/16 726/224/16
f 728/223/16 730/221/16 729/224/16
f 731/223/16 733/222/16 732/221/16
f 734/222/95 736/172/95 735/221/95
f 737/238/96 739/239/96 738/240/96
f 740/239/97 742/241/97 741/240/97
f 743/239/98 745/242/98 744/241/98
f 746/242/98 748/243/98 747/241/98
f 749/242/99 751/244/99 750/243/99
f 752/244/100 754/245/100 753/243/100
f 755/246/16 757/247/16 756/248/16
f 758/247/16 760/249/16 759/248/16
f 761/135/16 763/137/16 762/249/16
f 764/135/16 766/136/16 765/137/16
f 767/250/16 769/137/16 768/251/16
f 770/137/16 772/252/16 771/251/16
f 773/253/16 775/139/16 774/138/16
f 776/138/16 778/137/16 777/136/16
f 779/136/16 781/135/16 780/134/16
f 782/254/16 784/255/16 783/256/16
f 785/256/16 787/252/16 786/249/16
f 788/249/16 790/252/16 789/137/16
f 791/249/16 793/137/16 792/135/16
f 794/208/101 796/209/101 795/207/101
f 797/209/101 799/210/101 798/207/101
f 800/209/102 802/211/102 801/210/102
f 803/211/102 805/123/102 804/210/102
f 806/211/41 808/121/41 807/123/41
f 809/99/1 811/257/1 810/100/1
f 812/257/1 814/258/1 813/100/1
f 815/257/1 817/259/1 816/258/1
f 818/259/1 820/260/1 819/258/1
f 821/259/1 823/261/1 822/260/1
f 824/257/16 826/258/16 825/100/16
f 827/257/16 829/259/16 828/258/16
f 830/259/16 832/260/16 831/258/16
f 833/259/16 835/261/16 834/260/16
f 836/219/103 838/217/103 837/218/103
f 839/217/103 841/216/103 840/218/103
f 842/217/104 844/214/104 843/216/104
f 845/214/104 847/215/104 846/216/104
f 848/214/7 850/213/7 849/215/7
f 851/226/16 853/224/16 852/225/16
f 854/224/16 856/223/16 855/225/16
f 857/224/16 859/221/16 858/223/16
f 860/221/16 862/222/16 861/223/16
f 863/221/105 865/172/105 864/222/105
f 866/230/106 868/231/106 867/262/106
f 869/231/107 871/263/107 870/262/107
f 872/231/108 874/233/108 873/263/108
f 875/233/109 877/264/109 876/263/109
f 878/233/21 880/265/21 879/264/21
f 881/240/110 883/241/110 882/266/110
f 884/241/110 886/267/110 885/266/110
f 887/241/111 889/243/111 888/267/111
f 890/243/111 892/268/111 891/267/111
f 893/243/20 895/269/20 894/268/20
f 896/226/1 898/224/1 897/225/1
f 899/224/1 901/223/1 900/225/1
f 902/224/1 904/221/1 903/223/1
f 905/221/1 907/222/1 906/223/1
f 908/221/1 910/172/1 909/222/1
f 911/261/1 913/259/1 912/260/1
f 914/259/1 916/258/1 915/260/1
f 917/259/1 919/257/1 918/258/1
f 920/257/1 922/100/1 921/258/1
f 923/257/1 925/99/1 924/100/1
f 926/261/16 928/259/16 927/260/16
f 929/259/16 931/258/16 930/260/16
f 932/259/16 934/257/16 933/258/16
f 935/257/16 937/100/16 936/258/16
f 938/270/1 940/271/1 939/272/1
f 941/271/1 943/273/1 942/272/1
f 944/271/1 946/274/1 945/273/1
f 947/274/1 949/271/1 948/273/1
f 950/275/5 952/276/5 951/277/5
f 953/276/112 955/278/112 954/277/112
f 956/276/112 958/279/112 957/278/112
f 959/279/113 961/276/113 960/278/113
f 962/280/16 964/281/16 963/282/16
f 965/281/16 967/280/16 966/282/16
f 968/281/16 970/283/16 969/280/16
f 971/283/16 973/284/16 972/280/16
f 974/284/1 976/280/1 975/283/1
f 977/280/1 979/281/1 978/283/1
f 980/280/1 982/282/1 981/281/1
f 983/282/1 985/280/1 984/281/1
f 986/285/114 988/286/114 987/287/114
f 989/286/115 991/285/115 990/287/115
f 992/286/116 994/288/116 993/285/116
f 995/288/117 997/289/117 996/285/117
f 998/290/118 1000/291/118 999/292/118
f 1001/291/119 1003/290/119 1002/292/119
f 1004/291/119 1006/293/119 1005/290/119
f 1007/293/120 1009/294/120 1008/290/120
f 1010/291/118 1012/290/118 1011/293/118
f 1013/290/121 1015/294/121 1014/293/121
f 1016/290/121 1018/295/121 1017/294/121
f 1019/295/120 1021/290/120 1020/294/120
f 1022/296/122 1024/297/122 1023/298/122
f 1025/297/123 1027/299/123 1026/298/123
f 1028/297/124 1030/300/124 1029/299/124
f 1031/300/125 1033/297/125 1032/299/125
f 1034/297/126 1036/296/126 1035/301/126
f 1037/296/127 1039/297/127 1038/301/127
f 1040/296/128 1042/298/128 1041/297/128
f 1043/298/129 1045/299/129 1044/297/129
f 1046/302/27 1048/303/27 1047/304/27
f 1049/303/130 1051/305/130 1050/304/130
f 1052/303/130 1054/306/130 1053/305/130
f 1055/306/131 1057/303/131 1056/305/131
f 1058/278/113 1060/276/113 1059/277/113
f 1061/276/132 1063/275/132 1062/277/132
f 1064/276/132 1066/155/132 1065/275/132
f 1067/155/80 1069/156/80 1068/275/80
f 1070/134/16 1072/212/16 1071/133/16
f 1073/212/16 1075/307/16 1074/133/16
f 1076/136/16 1078/134/16 1077/133/16
f 1079/135/16 1081/249/16 1080/247/16
f 1082/247/16 1084/248/16 1083/249/16
f 1085/250/16 1087/251/16 1086/308/16
f 1088/250/16 1090/308/16 1089/309/16
f 1091/145/16 1093/142/16 1092/144/16
f 1094/153/16 1096/310/16 1095/152/16
f 1097/152/16 1099/310/16 1098/151/16
f 1100/311/16 1102/312/16 1101/313/16
f 1103/311/16 1105/314/16 1104/312/16
f 1106/242/133 1108/239/133 1107/315/133
f 1109/239/133 1111/316/133 1110/315/133
f 1112/239/134 1114/317/134 1113/316/134
f 1115/190/135 1117/237/135 1116/192/135
f 1118/237/136 1120/194/136 1119/192/136
f 1121/237/136 1123/196/136 1122/194/136
f 1124/318/137 1126/229/137 1125/319/137
f 1127/229/138 1129/320/138 1128/319/138
f 1130/229/139 1132/228/139 1131/320/139
f 1133/321/140 1135/322/140 1134/323/140
f 1136/322/141 1138/324/141 1137/323/141
f 1139/322/141 1141/325/141 1140/324/141
f 1142/322/140 1144/321/140 1143/326/140
f 1145/321/142 1147/322/142 1146/326/142
f 1148/321/142 1150/323/142 1149/322/142
f 1151/327/143 1153/328/143 1152/329/143
f 1154/328/143 1156/330/143 1155/329/143
f 1157/328/23 1159/325/23 1158/330/23
f 1160/325/24 1162/328/24 1161/330/24
f 1163/328/144 1165/329/144 1164/330/144
f 1166/328/144 1168/327/144 1167/329/144
f 1169/286/145 1171/285/145 1170/288/145
f 1172/285/146 1174/289/146 1173/288/146
f 1175/285/147 1177/331/147 1176/289/147
f 1178/305/131 1180/303/131 1179/304/131
f 1181/303/148 1183/302/148 1182/304/148
f 1184/303/148 1186/332/148 1185/302/148
f 1187/207/17 1189/333/17 1188/206/17
f 1190/333/149 1192/334/149 1191/206/149
f 1193/333/149 1195/335/149 1194/334/149
f 1196/335/150 1198/333/150 1197/334/150
f 1199/333/150 1201/206/150 1200/334/150
f 1202/333/84 1204/207/84 1203/206/84
f 1205/146/16 1207/147/16 1206/145/16
f 1208/153/16 1210/152/16 1209/310/16
f 1211/152/16 1213/151/16 1212/310/16
f 1214/247/16 1216/336/16 1215/248/16
f 1217/252/16 1219/256/16 1218/255/16
f 1220/139/16 1222/137/16 1221/138/16
f 1223/337/16 1225/180/16 1224/338/16
f 1226/179/1 1228/180/1 1227/338/1
f 1229/339/1 1231/340/1 1230/341/1
f 1232/339/1 1234/341/1 1233/342/1
f 1235/341/1 1237/342/1 1236/339/1
f 1238/341/1 1240/339/1 1239/340/1
f 1241/343/16 1243/344/16 1242/345/16
f 1244/346/1 1246/347/1 1245/348/1
f 1247/349/1 1249/350/1 1248/351/1
f 1250/344/16 1252/352/16 1251/353/16
f 1253/354/16 1255/347/16 1254/355/16
f 1256/354/16 1258/356/16 1257/347/16
f 1259/356/16 1261/346/16 1260/347/16
f 1262/345/16 1264/344/16 1263/353/16
f 1265/353/16 1267/352/16 1266/355/16
f 1268/355/16 1270/352/16 1269/354/16
f 1271/179/1 1273/178/1 1272/181/1
f 1274/177/1 1276/174/1 1275/175/1
f 1277/174/1 1279/357/1 1278/176/1
f 1280/314/16 1282/312/16 1281/311/16
f 1283/311/16 1285/312/16 1284/313/16
f 1286/311/16 1288/313/16 1287/358/16
f 1289/311/16 1291/312/16 1290/313/16
f 1292/311/16 1294/313/16 1293/358/16
f 1295/314/16 1297/312/16 1296/311/16
f 1298/311/16 1300/312/16 1299/313/16
f 1301/311/16 1303/313/16 1302/358/16
f 1304/311/16 1306/312/16 1305/313/16
f 1307/311/16 1309/313/16 1308/358/16
f 1310/311/1 1312/358/1 1311/313/1
f 1313/314/16 1315/312/16 1314/311/16
f 1316/349/1 1318/359/1 1317/350/1
f 1319/359/1 1321/360/1 1320/350/1
f 1322/359/1 1324/361/1 1323/360/1
f 1325/358/16 1327/311/16 1326/313/16
f 1328/311/16 1330/312/16 1329/313/16
f 1331/311/16 1333/314/16 1332/312/16
f 1334/358/16 1336/311/16 1335/313/16
f 1337/311/16 1339/312/16 1338/313/16
f 1340/311/16 1342/314/16 1341/312/16
f 1343/311/16 1345/314/16 1344/312/16
f 1346/311/16 1348/314/16 1347/312/16
f 1349/358/16 1351/311/16 1350/313/16
f 1352/311/16 1354/312/16 1353/313/16
f 1355/362/16 1357/363/16 1356/364/16
f 1358/362/16 1360/365/16 1359/364/16
f 1361/362/16 1363/364/16 1362/365/16
f 1364/362/16 1366/365/16 1365/366/16
f 1367/366/16 1369/365/16 1368/362/16
f 1370/362/16 1372/364/16 1371/363/16
f 1373/257/151 1375/48/152 1374/100/153
f 1373/257/151 1376/46/154 1375/48/152
f 1443/50/1 1444/52/1 1445/51/1
f 1446/54/1 1447/56/1 1448/55/1
f 1449/57/1 1450/59/1 1451/58/1
f 1452/63/1 1453/65/1 1454/64/1
f 1455/66/1 1456/67/1 1457/65/1
f 1458/68/1 1459/69/1 1460/51/1
f 1461/104/1 1462/106/1 1463/105/1
f 1464/107/1 1465/109/1 1466/108/1
f 1467/64/1 1468/65/1 1469/63/1
f 1470/51/1 1471/111/1 1472/110/1
f 1473/133/1 1474/135/1 1475/134/1
f 1476/133/1 1477/136/1 1478/135/1
f 1479/136/1 1480/137/1 1481/135/1
f 1482/138/1 1483/140/1 1484/139/1
f 1485/140/1 1486/141/1 1487/139/1
f 1488/142/1 1489/144/1 1490/143/1
f 1491/144/1 1492/145/1 1493/142/1
f 1494/145/1 1495/146/1 1496/142/1
f 1497/147/1 1498/148/1 1499/146/1
f 1500/149/1 1501/151/1 1502/150/1
f 1503/149/1 1504/152/1 1505/151/1
f 1506/153/1 1507/154/1 1508/148/1
f 1509/142/1 1510/143/1 1511/144/1
f 1512/145/1 1513/142/1 1514/146/1
f 1515/145/1 1516/146/1 1517/147/1
f 1518/147/1 1519/148/1 1520/154/1
f 1521/147/1 1522/154/1 1523/148/1
f 1524/148/1 1525/154/1 1526/153/1
f 1527/151/1 1528/152/1 1529/149/1
f 1530/151/1 1531/149/1 1532/150/1
f 1533/174/1 1534/176/1 1535/175/1
f 1536/177/1 1537/175/1 1538/178/1
f 1539/177/1 1540/178/1 1541/179/1
f 1542/179/1 1543/181/1 1544/180/1
f 1545/138/1 1546/139/1 1547/137/1
f 1548/138/1 1549/137/1 1550/136/1
f 1551/133/1 1552/134/1 1553/212/1
f 1554/246/1 1555/248/1 1556/247/1
f 1557/247/1 1558/248/1 1559/249/1
f 1560/135/1 1561/249/1 1562/137/1
f 1563/135/1 1564/137/1 1565/136/1
f 1566/250/1 1567/251/1 1568/137/1
f 1569/137/1 1570/251/1 1571/252/1
f 1572/253/1 1573/138/1 1574/139/1
f 1575/138/1 1576/136/1 1577/137/1
f 1578/136/1 1579/134/1 1580/135/1
f 1581/254/1 1582/256/1 1583/255/1
f 1584/256/1 1585/249/1 1586/252/1
f 1587/249/1 1588/137/1 1589/252/1
f 1590/249/1 1591/135/1 1592/137/1
f 1593/134/1 1594/133/1 1595/212/1
f 1596/212/1 1597/133/1 1598/307/1
f 1599/136/1 1600/133/1 1601/134/1
f 1602/135/1 1603/247/1 1604/249/1
f 1605/247/1 1606/249/1 1607/248/1
f 1608/250/1 1609/308/1 1610/251/1
f 1611/250/1 1612/309/1 1613/308/1
f 1614/145/1 1615/144/1 1616/142/1
f 1617/153/1 1618/152/1 1619/310/1
f 1620/152/1 1621/151/1 1622/310/1
f 1623/311/1 1624/313/1 1625/312/1
f 1626/311/1 1627/312/1 1628/314/1
f 1629/146/1 1630/145/1 1631/147/1
f 1632/153/1 1633/310/1 1634/152/1
f 1635/152/1 1636/310/1 1637/151/1
f 1638/247/1 1639/248/1 1640/336/1
f 1641/252/1 1642/255/1 1643/256/1
f 1644/139/1 1645/138/1 1646/137/1
f 1647/337/1 1648/338/1 1649/180/1
f 1650/343/1 1651/345/1 1652/344/1
f 1653/346/16 1654/348/16 1655/347/16
f 1656/344/1 1657/353/1 1658/352/1
f 1659/354/1 1660/355/1 1661/347/1
f 1662/354/1 1663/347/1 1664/356/1
f 1665/356/1 1666/347/1 1667/346/1
f 1668/345/1 1669/353/1 1670/344/1
f 1671/353/1 1672/355/1 1673/352/1
f 1674/355/1 1675/354/1 1676/352/1
f 1677/174/16 1678/176/16 1679/357/16
f 1680/314/1 1681/311/1 1682/312/1
f 1683/311/1 1684/313/1 1685/312/1
f 1686/311/1 1687/358/1 1688/313/1
f 1689/311/1 1690/313/1 1691/312/1
f 1692/311/1 1693/358/1 1694/313/1
f 1695/314/1 1696/311/1 1697/312/1
f 1698/311/1 1699/313/1 1700/312/1
f 1701/311/1 1702/358/1 1703/313/1
f 1704/311/1 1705/313/1 1706/312/1
f 1707/311/1 1708/358/1 1709/313/1
f 1710/311/16 1711/313/16 1712/358/16
f 1713/314/1 1714/311/1 1715/312/1
f 1716/358/1 1717/313/1 1718/311/1
f 1719/311/1 1720/313/1 1721/312/1
f 1722/311/1 1723/312/1 1724/314/1
f 1725/358/1 1726/313/1 1727/311/1
f 1728/311/1 1729/313/1 1730/312/1
f 1731/311/1 1732/312/1 1733/314/1
f 1734/311/1 1735/312/1 1736/314/1
f 1737/311/1 1738/312/1 1739/314/1
f 1740/358/1 1741/313/1 1742/311/1
f 1743/311/1 1744/313/1 1745/312/1
f 1746/362/1 1747/364/1 1748/363/1
f 1749/362/1 1750/364/1 1751/365/1
f 1752/362/1 1753/365/1 1754/364/1
f 1755/362/1 1756/366/1 1757/365/1
f 1758/366/1 1759/362/1 1760/365/1
f 1761/362/1 1762/363/1 1763/364/1
usemtl Brush.036
f 1377/367/16 1379/368/16 1378/369/16
f 1380/370/16 1382/371/16 1381/372/16
f 1383/369/1 1385/372/1 1384/368/1
f 1386/372/1 1388/370/1 1387/368/1
f 1389/373/1 1391/374/1 1390/375/1
f 1392/376/16 1394/377/16 1393/378/16
f 1395/377/16 1397/379/16 1396/378/16
f 1398/377/16 1400/379/16 1399/378/16
f 1401/380/16 1403/381/16 1402/367/16
f 1404/378/1 1406/377/1 1405/376/1
f 1407/378/1 1409/379/1 1408/377/1
f 1410/378/1 1412/377/1 1411/376/1
f 1413/378/1 1415/377/1 1414/376/1
f 1416/367/1 1418/380/1 1417/369/1
f 1419/382/1 1421/370/1 1420/371/1
f 1422/371/16 1424/382/16 1423/383/16
f 1425/377/16 1427/379/16 1426/378/16
f 1428/384/1 1430/385/1 1429/386/1
f 1431/385/1 1433/387/1 1432/388/1
f 1434/389/16 1436/390/16 1435/391/16
f 1437/390/16 1439/392/16 1438/393/16
f 1440/390/16 1442/391/16 1441/393/16
f 1764/367/1 1765/369/1 1766/368/1
f 1767/370/1 1768/372/1 1769/371/1
f 1770/369/16 1771/368/16 1772/372/16
f 1773/372/16 1774/368/16 1775/370/16
f 1776/373/16 1777/375/16 1778/374/16
f 1779/376/1 1780/378/1 1781/377/1
f 1782/377/1 1783/378/1 1784/379/1
f 1785/377/1 1786/378/1 1787/379/1
f 1788/380/1 1789/367/1 1790/381/1
f 1791/378/16 1792/376/16 1793/377/16
f 1794/378/16 1795/377/16 1796/379/16
f 1797/378/16 1798/376/16 1799/377/16
f 1800/378/16 1801/376/16 1802/377/16
f 1803/367/16 1804/369/16 1805/380/16
f 1806/382/16 1807/371/16 1808/370/16
f 1809/371/1 1810/383/1 1811/382/1
f 1812/377/1 1813/378/1 1814/379/1
f 1815/384/16 1816/386/16 1817/385/16
f 1818/385/16 1819/388/16 1820/387/16
f 1821/389/1 1822/391/1 1823/390/1
f 1824/390/1 1825/393/1 1826/392/1
f 1827/390/1 1828/393/1 1829/391/1
