# Blender v2.77 (sub 0) OBJ File: ''
# www.blender.org
mtllib fickleerica.mtl
o obj2_Mesh
v 2.258190 3.282740 0.290610
v 2.545450 3.210800 0.000000
v 1.807940 0.526260 0.000000
v 1.319880 -4.375560 0.000000
v 2.168680 -8.768100 0.000000
v 3.550290 -11.709440 0.000000
v 3.244720 -12.252670 0.000000
v 2.599640 -12.218720 0.000000
v 1.489640 -9.065181 0.000000
v 0.810600 -4.311900 0.000000
v 1.324130 0.679040 0.000000
v 2.028210 3.409740 0.000000
v 1.585620 0.650060 0.308710
v 1.058050 -4.341520 0.382550
v 1.818960 -8.876540 0.412270
v 3.048670 -11.925920 0.412270
v 2.037260 -10.674520 0.000000
v 2.544530 -10.857141 0.412270
v 2.798170 -11.435431 0.412270
v 2.432930 -11.729650 0.000000
v 2.148860 -9.802011 0.412270
v 2.680890 -11.746310 0.200870
v -9.167041 9.268890 0.000000
v -8.352190 10.626970 0.000000
v -6.416930 11.645530 0.000000
v -4.027560 12.014230 0.000000
v -1.322010 11.603090 0.000000
v 0.786730 10.953230 0.000000
v 2.670010 10.515570 0.000000
v 5.521440 10.515570 0.000000
v 9.195160 11.377630 0.000000
v 6.346360 8.102330 0.000000
v 5.600340 8.840060 0.000000
v 4.956990 8.793570 0.000000
v 4.142140 8.046620 0.000000
v 3.123580 3.900240 0.000000
v 3.335780 3.433400 0.000000
v 1.447200 4.070000 0.000000
v 1.969220 4.244000 0.000000
v 2.172930 5.805790 0.000000
v 1.425980 6.926210 0.000000
v 2.376640 7.401530 0.000000
v 2.444540 8.483750 0.000000
v 1.731550 8.963330 0.000000
v 0.900820 8.726970 0.000000
v 0.343870 7.945510 0.000000
v -2.658730 9.502971 0.000000
v -5.273040 10.148060 0.000000
v -7.469440 9.846080 0.000000
v -7.640821 10.225660 0.250870
v -5.253570 10.781030 0.422310
v -2.435290 10.163500 0.422310
v 0.009990 8.887880 0.422310
v 0.677620 9.548751 0.422360
v 1.874780 9.873410 0.422360
v 3.151540 8.932570 0.422310
v 2.805210 6.780290 0.422310
v 2.050900 6.680830 0.422310
v 2.579600 5.799310 0.422310
v 2.372370 5.252230 0.422310
v 3.068650 4.555950 0.422310
v 3.301080 6.539350 0.422310
v 3.725480 8.343050 0.422310
v 4.667120 9.400741 0.422310
v 5.658360 9.436870 0.422310
v 6.296620 8.931240 0.422310
v 2.415680 3.655750 0.560740
v 2.515150 4.028760 0.422190
v 3.872900 6.674961 0.000000
v 3.298050 4.506950 0.000000
v 2.258190 3.282740 -0.290610
v 1.585620 0.650060 -0.308710
v 1.058050 -4.341520 -0.382550
v 1.818960 -8.876540 -0.412270
v 3.048670 -11.925920 -0.412270
v 2.544530 -10.857141 -0.412270
v 2.798170 -11.435431 -0.412270
v 2.148860 -9.802011 -0.412270
v 2.680890 -11.746310 -0.200870
v -7.640821 10.225660 -0.250870
v -5.253570 10.781030 -0.422310
v -2.435290 10.163500 -0.422310
v 0.009990 8.887880 -0.422310
v 0.677620 9.548751 -0.422360
v 1.874780 9.873410 -0.422360
v 3.151540 8.932570 -0.422310
v 2.805210 6.780290 -0.422310
v 2.050900 6.680830 -0.422310
v 2.579600 5.799310 -0.422310
v 2.372370 5.252230 -0.422310
v 3.068650 4.555950 -0.422310
v 3.301080 6.539350 -0.422310
v 3.725480 8.343050 -0.422310
v 4.667120 9.400741 -0.422310
v 5.658360 9.436870 -0.422310
v 6.296620 8.931240 -0.422310
v 2.415680 3.655750 -0.560740
v 2.515150 4.028760 -0.422190
vt 0.2274 0.4102
vt 0.2349 0.4210
vt 0.1352 0.5134
vt 0.1242 0.5063
vt 0.2349 0.4210
vt 0.2456 0.4278
vt 0.1452 0.5243
vt 0.1352 0.5134
vt 0.4344 0.2686
vt 0.4416 0.2787
vt 0.2349 0.4210
vt 0.2274 0.4102
vt 0.4494 0.2894
vt 0.2456 0.4278
vt 0.6595 0.1850
vt 0.6590 0.2040
vt 0.6626 0.2219
vt 0.7076 0.1964
vt 0.7433 0.1707
vt 0.7948 0.1859
vt 0.7634 0.1886
vt 0.8057 0.1734
vt 0.7991 0.1629
vt 0.4735 0.6022
vt 0.4610 0.6267
vt 0.4551 0.6112
vt 0.4986 0.6130
vt 0.4483 0.6556
vt 0.4295 0.7601
vt 0.4285 0.7084
vt 0.4229 0.6647
vt 0.2533 0.1696
vt 0.2856 0.1679
vt 0.2758 0.1842
vt 0.3009 0.1950
vt 0.4510 0.5875
vt 0.4427 0.6120
vt 0.1371 0.5829
vt 0.1285 0.6019
vt 0.0522 0.5541
vt 0.2469 0.5980
vt 0.2478 0.6297
vt 0.3776 0.5658
vt 0.3888 0.5988
vt 0.5277 0.4879
vt 0.5110 0.5350
vt 0.5556 0.5270
vt 0.5444 0.5680
vt 0.5971 0.5388
vt 0.6043 0.5843
vt 0.6328 0.5148
vt 0.6681 0.5372
vt 0.6294 0.4607
vt 0.6508 0.4296
vt 0.5818 0.4369
vt 0.6131 0.4247
vt 0.6192 0.3809
vt 0.6395 0.3806
vt 0.6090 0.3028
vt 0.6291 0.3532
vt 0.6640 0.3184
vt 0.1800 0.6720
vt 0.1850 0.6907
vt 0.1577 0.7015
vt 0.1316 0.6928
vt 0.1606 0.6597
vt 0.1721 0.6534
vt 0.1865 0.6498
vt 0.2260 0.6609
vt 0.6756 0.4176
vt 0.7042 0.4244
vt 0.7176 0.4929
vt 0.6968 0.5078
vt 0.2126 0.7171
vt 0.2243 0.8162
vt 0.1882 0.7792
vt 0.1778 0.7519
vt 0.6052 0.6411
vt 0.6316 0.5970
vt 0.6677 0.6340
vt 0.6429 0.6460
vt 0.7584 0.5303
vt 0.7439 0.5606
vt 0.7905 0.5326
vt 0.7934 0.5625
vt 0.8278 0.4957
vt 0.8254 0.5372
vt 0.9703 0.6595
vt 0.6889 0.7242
vt 0.6602 0.7537
vt 0.1206 0.8183
vt 0.0850 0.8384
vt 0.0443 0.7705
vt 0.2400 0.8461
vt 0.1818 0.8893
vt 0.3013 0.9077
vt 0.3809 0.8152
vt 0.4365 0.8872
vt 0.5031 0.7514
vt 0.5365 0.7845
vt 0.5964 0.8007
vt 0.5420 0.8547
vt 0.6361 0.8328
vt 0.7360 0.7771
vt 0.7855 0.7789
vt 0.7787 0.8328
vt 0.8175 0.7536
vt 0.9624 0.8759
vt 0.2529 0.8230
vt 0.2241 0.7146
vt 0.2154 0.6843
vt 0.1352 0.5134
vt 0.2349 0.4210
vt 0.1242 0.5063
vt 0.1452 0.5243
vt 0.4416 0.2787
vt 0.6590 0.2040
vt 0.7076 0.1964
vt 0.7634 0.1886
vt 0.7948 0.1859
vt 0.8057 0.1734
vt 0.4610 0.6267
vt 0.4735 0.6022
vt 0.4551 0.6112
vt 0.4483 0.6556
vt 0.4285 0.7084
vt 0.2758 0.1842
vt 0.1285 0.6019
vt 0.2478 0.6297
vt 0.3888 0.5988
vt 0.5110 0.5350
vt 0.5444 0.5680
vt 0.6043 0.5843
vt 0.6681 0.5372
vt 0.6508 0.4296
vt 0.6131 0.4247
vt 0.6395 0.3806
vt 0.6291 0.3532
vt 0.6640 0.3184
vt 0.1850 0.6907
vt 0.1800 0.6720
vt 0.1721 0.6534
vt 0.6756 0.4176
vt 0.6968 0.5078
vt 0.2126 0.7171
vt 0.1882 0.7792
vt 0.2243 0.8162
vt 0.1778 0.7519
vt 0.6677 0.6340
vt 0.6316 0.5970
vt 0.6052 0.6411
vt 0.6429 0.6460
vt 0.7439 0.5606
vt 0.7934 0.5625
vt 0.8254 0.5372
vt 0.6889 0.7242
vt 0.6602 0.7537
vt 0.1206 0.8183
vt 0.2400 0.8461
vt 0.3809 0.8152
vt 0.5365 0.7845
vt 0.5031 0.7514
vt 0.5964 0.8007
vt 0.7855 0.7789
vt 0.7360 0.7771
vt 0.8175 0.7536
vn -0.7342 0.1906 0.6517
vn 0.7171 -0.1879 0.6711
vn -0.7986 0.0877 0.5954
vn 0.8080 -0.0786 0.5839
vn -0.7918 -0.1208 0.5987
vn 0.7780 0.1423 0.6119
vn 0.7046 0.2512 0.6637
vn -0.6932 -0.2400 0.6796
vn -0.6164 -0.2704 0.7396
vn -0.6215 -0.2331 0.7479
vn -0.6639 -0.2678 0.6982
vn -0.5807 -0.2965 0.7582
vn 0.5341 0.2519 0.8070
vn 0.5775 0.2568 0.7749
vn -0.6632 -0.2487 0.7059
vn -0.0417 -0.7926 0.6083
vn 0.6796 -0.3823 0.6261
vn -0.6237 -0.2126 0.7522
vn -0.5686 -0.2371 0.7877
vn 0.1667 -0.4902 0.8555
vn 0.0707 -0.5449 0.8355
vn -0.1223 -0.5264 0.8414
vn -0.2420 -0.4653 0.8514
vn 0.3618 -0.3072 0.8802
vn 0.1192 -0.4308 0.8945
vn -0.2712 -0.3800 0.8843
vn -0.5877 0.0753 0.8056
vn -0.1883 0.5585 0.8079
vn -0.6363 -0.4055 0.6563
vn -0.7987 0.1556 0.5812
vn -0.2756 -0.2756 0.9209
vn -0.2930 0.5338 0.7932
vn -0.6438 -0.4295 0.6333
vn 0.2725 -0.7220 0.6360
vn 0.6304 -0.1377 0.7640
vn -0.4286 0.4498 0.7836
vn 0.0000 0.0000 1.0000
vn 0.4274 -0.4160 0.8026
vn 0.0288 -0.5703 0.8209
vn -0.4149 -0.4620 0.7839
vn 0.4434 -0.3856 0.8091
vn -0.2519 0.1511 0.9559
vn -0.1434 0.2907 0.9460
vn -0.0578 0.3744 0.9255
vn 0.0488 0.2619 0.9639
vn 0.0335 0.1696 0.9849
vn 0.0281 0.2859 0.9579
vn 0.1051 0.4523 0.8856
vn 0.2331 0.3162 0.9196
vn -0.0034 0.3565 0.9343
vn -0.0205 0.2481 0.9685
vn -0.0730 0.2363 0.9689
vn 0.6034 -0.0707 0.7943
vn 0.8452 -0.2241 0.4851
vn 0.4384 -0.4604 0.7719
vn 0.8406 -0.2417 0.4847
vn 0.5418 0.1619 0.8248
vn 0.5868 0.2667 0.7645
vn -0.7342 0.1906 -0.6517
vn 0.7171 -0.1879 -0.6711
vn -0.7986 0.0877 -0.5954
vn 0.8080 -0.0786 -0.5839
vn -0.7918 -0.1208 -0.5987
vn 0.7780 0.1423 -0.6119
vn 0.7046 0.2512 -0.6637
vn -0.6932 -0.2400 -0.6796
vn -0.6164 -0.2704 -0.7396
vn -0.6215 -0.2331 -0.7479
vn -0.6639 -0.2678 -0.6982
vn -0.5807 -0.2965 -0.7582
vn 0.5341 0.2519 -0.8070
vn 0.5775 0.2568 -0.7749
vn -0.6632 -0.2487 -0.7059
vn -0.0417 -0.7926 -0.6083
vn 0.6796 -0.3823 -0.6261
vn -0.6237 -0.2126 -0.7522
vn -0.5686 -0.2371 -0.7877
vn 0.1667 -0.4902 -0.8555
vn 0.0707 -0.5449 -0.8355
vn -0.1223 -0.5264 -0.8414
vn -0.2420 -0.4653 -0.8514
vn 0.3618 -0.3072 -0.8802
vn 0.1192 -0.4308 -0.8945
vn -0.2712 -0.3800 -0.8843
vn -0.5877 0.0753 -0.8056
vn -0.1883 0.5585 -0.8079
vn -0.6363 -0.4055 -0.6563
vn -0.7987 0.1556 -0.5812
vn -0.2756 -0.2756 -0.9209
vn -0.2930 0.5338 -0.7932
vn -0.6438 -0.4295 -0.6333
vn 0.2725 -0.7220 -0.6360
vn 0.6304 -0.1377 -0.7640
vn -0.4286 0.4498 -0.7836
vn -0.0000 0.0000 -1.0000
vn 0.4274 -0.4160 -0.8026
vn 0.0288 -0.5703 -0.8209
vn -0.4149 -0.4620 -0.7839
vn 0.4434 -0.3856 -0.8091
vn -0.2519 0.1511 -0.9559
vn -0.1434 0.2907 -0.9460
vn -0.0578 0.3744 -0.9255
vn 0.0488 0.2619 -0.9639
vn 0.0335 0.1696 -0.9849
vn 0.0281 0.2859 -0.9579
vn 0.1051 0.4523 -0.8856
vn 0.2331 0.3162 -0.9196
vn -0.0034 0.3565 -0.9343
vn -0.0205 0.2481 -0.9685
vn -0.0730 0.2363 -0.9689
vn 0.6034 -0.0707 -0.7943
vn 0.8452 -0.2241 -0.4851
vn 0.4384 -0.4604 -0.7719
vn 0.8406 -0.2417 -0.4847
vn 0.5418 0.1619 -0.8248
vn 0.5868 0.2667 -0.7645
usemtl mat1
f 1/1/1 12/2/1 11/3/1 13/4/1
f 2/5/2 1/6/2 13/7/2 3/8/2
f 10/9/3 14/10/3 13/11/3 11/12/3
f 14/10/4 4/13/4 3/14/4 13/11/4
f 9/15/5 15/16/5 14/10/5 10/9/5
f 15/16/6 5/17/6 4/13/6 14/10/6
f 21/18/7 5/17/7 15/16/7
f 15/16/8 9/15/8 17/19/8 21/18/8
f 19/20/9 18/21/9 22/22/9
f 17/19/10 20/23/10 22/22/10
f 18/21/11 17/19/11 22/22/11
f 16/24/12 19/25/12 22/26/12
f 19/25/13 16/24/13 6/27/13 18/28/13
f 18/28/14 6/27/14 5/29/14 21/30/14
f 17/31/15 18/28/15 21/30/15
f 8/32/16 7/33/16 16/34/16
f 7/33/17 6/35/17 16/34/17
f 8/36/18 22/26/18 20/37/18
f 8/36/19 16/24/19 22/26/19
f 49/38/20 50/39/20 23/40/20
f 49/38/21 48/41/21 51/42/21 50/39/21
f 48/41/22 47/43/22 52/44/22 51/42/22
f 47/43/23 46/45/23 53/46/23 52/44/23
f 46/45/24 45/47/24 54/48/24 53/46/24
f 45/47/25 44/49/25 55/50/25 54/48/25
f 44/49/26 43/51/26 56/52/26 55/50/26
f 42/53/27 57/54/27 56/52/27 43/51/27
f 42/53/28 41/55/28 58/56/28 57/54/28
f 40/57/29 59/58/29 58/56/29 41/55/29
f 39/59/30 60/60/30 59/58/30 40/57/30
f 39/59/31 61/61/31 60/60/31
f 67/62/32 68/63/32 39/64/32 38/65/32
f 12/66/33 1/67/33 67/62/33 38/65/33
f 1/67/34 2/68/34 37/69/34 67/62/34
f 62/70/35 69/71/35 35/72/35 63/73/35
f 68/63/36 61/74/36 39/64/36
f 61/74/37 62/75/37 59/76/37 60/77/37
f 58/78/37 59/79/37 62/80/37 57/81/37
f 63/73/38 35/72/38 34/82/38 64/83/38
f 34/82/39 33/84/39 65/85/39 64/83/39
f 33/84/40 32/86/40 66/87/40 65/85/40
f 32/86/41 31/88/41 66/87/41
f 57/81/37 62/80/37 63/89/37 56/90/37
f 50/91/42 24/92/42 23/93/42
f 50/91/43 51/94/43 25/95/43 24/92/43
f 51/94/44 26/96/44 25/95/44
f 51/94/45 52/97/45 27/98/45 26/96/45
f 52/97/46 53/99/46 54/100/46 27/98/46
f 54/100/47 55/101/47 28/102/47 27/98/47
f 55/101/48 29/103/48 28/102/48
f 55/101/49 56/90/49 29/103/49
f 64/104/50 65/105/50 30/106/50 29/103/50
f 65/105/51 66/107/51 31/108/51 30/106/51
f 56/90/37 63/89/37 64/104/37
f 29/103/52 56/90/52 64/104/52
f 61/74/53 69/109/53 62/75/53
f 70/110/54 69/109/54 61/74/54
f 61/74/55 68/63/55 36/111/55
f 70/110/56 61/74/56 36/111/56
f 68/63/57 67/62/57 37/69/57
f 36/111/58 68/63/58 37/69/58
f 71/112/59 72/113/59 11/12/59 12/114/59
f 2/115/60 3/14/60 72/113/60 71/112/60
f 72/113/61 73/116/61 10/9/61 11/12/61
f 3/14/62 4/13/62 73/116/62 72/113/62
f 73/116/63 74/117/63 9/15/63 10/9/63
f 4/13/64 5/17/64 74/117/64 73/116/64
f 5/17/65 78/118/65 74/117/65
f 17/19/66 9/15/66 74/117/66 78/118/66
f 76/119/67 77/120/67 79/121/67
f 20/23/68 17/19/68 79/121/68
f 17/19/69 76/119/69 79/121/69
f 77/122/70 75/123/70 79/124/70
f 6/27/71 75/123/71 77/122/71 76/125/71
f 5/29/72 6/27/72 76/125/72 78/126/72
f 76/125/73 17/31/73 78/126/73
f 7/33/74 8/32/74 75/127/74
f 6/35/75 7/33/75 75/127/75
f 79/124/76 8/36/76 20/37/76
f 75/123/77 8/36/77 79/124/77
f 80/128/78 49/38/78 23/40/78
f 81/129/79 48/41/79 49/38/79 80/128/79
f 82/130/80 47/43/80 48/41/80 81/129/80
f 83/131/81 46/45/81 47/43/81 82/130/81
f 84/132/82 45/47/82 46/45/82 83/131/82
f 85/133/83 44/49/83 45/47/83 84/132/83
f 86/134/84 43/51/84 44/49/84 85/133/84
f 86/134/85 87/135/85 42/53/85 43/51/85
f 88/136/86 41/55/86 42/53/86 87/135/86
f 88/136/87 89/137/87 40/57/87 41/55/87
f 89/137/88 90/138/88 39/59/88 40/57/88
f 91/139/89 39/59/89 90/138/89
f 39/64/90 98/140/90 97/141/90 38/65/90
f 97/141/91 71/142/91 12/66/91 38/65/91
f 37/69/92 2/68/92 71/142/92 97/141/92
f 35/72/93 69/71/93 92/143/93 93/144/93
f 91/145/94 98/140/94 39/64/94
f 89/146/95 92/147/95 91/145/95 90/148/95
f 92/149/95 89/150/95 88/151/95 87/152/95
f 34/82/96 35/72/96 93/144/96 94/153/96
f 95/154/97 33/84/97 34/82/97 94/153/97
f 96/155/98 32/86/98 33/84/98 95/154/98
f 31/88/99 32/86/99 96/155/99
f 93/156/95 92/149/95 87/152/95 86/157/95
f 24/92/100 80/158/100 23/93/100
f 25/95/101 81/159/101 80/158/101 24/92/101
f 26/96/102 81/159/102 25/95/102
f 27/98/103 82/160/103 81/159/103 26/96/103
f 84/161/104 83/162/104 82/160/104 27/98/104
f 28/102/105 85/163/105 84/161/105 27/98/105
f 29/103/106 85/163/106 28/102/106
f 86/157/107 85/163/107 29/103/107
f 30/106/108 95/164/108 94/165/108 29/103/108
f 31/108/109 96/166/109 95/164/109 30/106/109
f 93/156/95 86/157/95 94/165/95
f 86/157/110 29/103/110 94/165/110
f 69/109/111 91/145/111 92/147/111
f 69/109/112 70/110/112 91/145/112
f 98/140/113 91/145/113 36/111/113
f 91/145/114 70/110/114 36/111/114
f 97/141/115 98/140/115 37/69/115
f 98/140/116 36/111/116 37/69/116
