mtllib frolicflame.mtl
v 0.000001 -11.806400 0.000000
v 0.000000 -6.344500 1.747500
v 0.000000 -8.181300 3.002600
v 0.000000 -6.344500 1.747500
v 0.000001 -11.806400 0.000000
v 0.000000 -8.181300 3.002600
v -0.000000 6.755300 1.747500
v -0.000000 11.533400 -3.540900
v -0.000001 11.533400 3.540900
v -0.000000 11.533400 -3.540900
v -0.000000 6.755300 1.747500
v -0.000001 11.533400 3.540900
v 0.000000 -6.344500 -1.747500
v 0.000001 -11.806400 0.000000
v 0.000001 -8.181300 -3.002600
v 0.000001 -11.806400 0.000000
v 0.000000 -6.344500 -1.747500
v 0.000001 -8.181300 -3.002600
v 0.000000 -6.344500 1.747500
v 0.000001 -11.806400 0.000000
v 0.000000 -6.344500 -1.747500
v 0.000001 -11.806400 0.000000
v 0.000000 -6.344500 1.747500
v 0.000000 -6.344500 -1.747500
v -0.000000 6.755300 -1.747500
v -0.000000 6.755300 1.747500
v 0.000000 -6.344500 -1.747500
v -0.000000 6.755300 1.747500
v -0.000000 6.755300 -1.747500
v 0.000000 -6.344500 -1.747500
v -0.000000 6.755300 -1.747500
v -0.000000 11.533400 -3.540900
v -0.000000 6.755300 1.747500
v -0.000000 11.533400 -3.540900
v -0.000000 6.755300 -1.747500
v -0.000000 6.755300 1.747500
v -0.000000 6.755300 1.747500
v 0.000000 -6.344500 -1.747500
v 0.000000 -6.344500 1.747500
v 0.000000 -6.344500 -1.747500
v -0.000000 6.755300 1.747500
v 0.000000 -6.344500 1.747500
v -0.000002 22.140799 11.194100
v -0.000002 22.418900 8.329300
v -2.061302 20.365299 8.308900
v -2.061301 20.365299 6.229700
v -2.061302 20.365299 8.308900
v -0.000002 22.418900 8.329300
v -1.191399 -8.750200 -8.933900
v 0.000001 -7.145600 -7.525701
v 0.000001 -5.255200 -7.696600
v 0.000001 -7.145600 -7.525701
v 1.191401 -8.750200 -8.933900
v 0.000001 -5.255200 -7.696600
v -0.000000 11.342100 -4.120000
v -2.061300 14.939099 -5.775600
v -1.265300 11.778300 -5.668500
v -1.265300 11.778300 -5.668500
v -2.061300 14.939099 -5.775600
v 0.000000 13.923800 -8.224700
v -0.000000 10.165999 -3.165900
v 2.061300 11.265600 0.000000
v -2.061301 11.265600 -0.000000
v -2.061301 11.265600 -0.000000
v 2.061300 11.265600 0.000000
v -0.000001 10.165999 3.165900
v 0.000000 -13.268200 3.428600
v -1.127600 -9.469600 3.145500
v -1.127599 -13.339600 -0.000000
v -1.127600 -9.469600 3.145500
v 0.000000 -13.268200 3.428600
v -1.127600 -8.076700 6.456800
v -1.221999 0.298500 -13.102301
v 0.000001 0.298500 -11.107400
v 0.000001 1.392900 -9.921100
v 0.000001 0.298500 -11.107400
v 1.222001 0.298500 -13.102301
v 0.000001 1.392900 -9.921100
v 2.061299 14.939099 5.775600
v -0.000001 11.342100 4.120000
v 2.061300 11.265600 0.000000
v -0.000001 10.165999 3.165900
v 2.061300 11.265600 0.000000
v -0.000001 11.342100 4.120000
v -0.000001 0.298500 11.107400
v -1.222001 0.298500 13.102301
v -0.000001 1.392900 9.921100
v 1.221999 0.298500 13.102301
v -0.000001 0.298500 11.107400
v -0.000001 1.392900 9.921100
v -0.000000 -7.145600 7.525701
v -1.191400 -8.750200 8.933900
v -0.000000 -5.255200 7.696600
v 1.191400 -8.750200 8.933900
v -0.000000 -7.145600 7.525701
v -0.000000 -5.255200 7.696600
v -0.000001 31.883400 -2.387800
v -2.061301 33.087502 -0.000000
v -1.012802 38.289101 -0.000000
v -0.000002 31.883400 2.387800
v -1.012802 38.289101 -0.000000
v -2.061301 33.087502 -0.000000
v -0.000001 9.122701 6.069000
v -1.265301 10.030800 6.936399
v -1.265301 11.778300 5.668500
v -1.265301 10.030800 6.936399
v -0.000001 9.122701 6.069000
v -1.359701 9.857400 9.005300
v -0.000000 10.956900 -4.829200
v -1.265300 11.778300 -5.668500
v 0.000000 9.122701 -6.069000
v -0.000000 10.956900 -4.829200
v 0.000000 9.122701 -6.069000
v 1.265300 11.778300 -5.668500
v 1.012798 38.289101 0.000000
v -0.000002 36.363102 2.385300
v -0.000002 31.883400 2.387800
v 0.943898 68.279602 -7.464500
v -0.000002 65.876503 -11.467100
v -0.000002 71.353699 -11.240100
v -0.000002 77.198204 -10.227301
v -0.000003 78.841103 -4.421000
v 1.012797 76.009399 -2.604700
v -0.000003 72.111305 0.951600
v 1.012797 73.231300 3.500100
v 1.012797 65.812698 4.176100
v -0.943902 68.279602 -7.464500
v -0.000002 68.203094 -6.043500
v -0.857203 73.195496 -7.602200
v -0.000002 51.519001 -2.770500
v -0.000002 39.957500 -2.482200
v -1.012802 38.289101 -0.000000
v -0.000004 73.983803 6.780800
v -1.012803 73.231300 3.500100
v -0.000004 69.843399 9.745100
v -0.000002 42.409100 2.232200
v -0.000002 48.235802 3.227100
v -1.012802 38.289101 -0.000000
v 1.127601 -13.339600 0.000000
v 0.000001 -18.000401 0.000000
v 0.000001 -16.980000 -0.938800
v 0.000001 -15.707000 0.849500
v -1.127599 -13.339600 -0.000000
v 0.000001 -16.980000 0.938800
v -0.000002 28.893501 7.084301
v -2.061301 26.630699 4.035800
v -0.000002 26.115400 6.186400
v 0.000002 -12.704401 -12.405900
v 1.191401 -8.750200 -8.933900
v 1.127601 -8.076700 -6.456800
v 0.000002 0.298500 -18.487700
v 1.222001 0.298500 -13.102301
v 1.135201 -1.020400 -11.372701
v -0.000001 -12.704401 12.405900
v -1.191400 -8.750200 8.933900
v -1.127600 -8.076700 6.456800
v -0.000002 0.298500 18.487700
v -1.222001 0.298500 13.102301
v -1.135201 -1.020400 11.372701
v -2.061300 20.365299 -8.308900
v -2.061300 20.365299 -6.229700
v -0.000000 22.418900 -8.329300
v -2.061301 26.630699 -4.035800
v -0.000001 28.893501 -7.084301
v -0.000001 26.115400 -6.186400
v -0.000002 19.482601 9.551200
v -0.000001 14.916200 8.102201
v 2.061299 14.939099 5.775600
v -1.127599 -9.469600 -3.145500
v 0.000001 -13.268200 -3.428600
v -1.127599 -13.339600 -0.000000
v -1.359701 9.857400 9.005300
v -0.000002 13.831900 13.696700
v -1.265301 10.030800 6.936399
v -1.191400 -8.750200 8.933900
v -0.000001 -12.704401 12.405900
v -1.119900 -6.278200 8.814000
v 1.359700 9.857400 -9.005300
v 1.168400 7.913400 -8.918600
v 0.000001 13.831900 -13.696700
v 1.359700 9.857400 -9.005300
v 0.000001 13.831900 -13.696700
v 1.265300 10.030800 -6.936399
v 1.359699 9.857400 9.005300
v -0.000002 13.831900 13.696700
v 1.168399 7.913400 8.918600
v 1.221999 0.298500 13.102301
v 1.165799 1.890300 11.227300
v -0.000002 0.298500 18.487700
v 1.191401 -8.750200 -8.933900
v 0.000002 -12.704401 -12.405900
v 1.119901 -6.278200 -8.814000
v 1.222001 0.298500 -13.102301
v 0.000002 0.298500 -18.487700
v 1.165801 1.890300 -11.227300
v 1.127601 -9.469600 -3.145500
v 0.000001 -13.268200 -3.428600
v 1.127601 -8.076700 -6.456800
v -0.000002 77.198204 -10.227301
v 0.857197 73.195496 -7.602200
v -0.000002 71.353699 -11.240100
v 0.943898 68.279602 -7.464500
v -0.000002 71.353699 -11.240100
v 0.857197 73.195496 -7.602200
v 0.857197 73.195496 -7.602200
v -0.000002 68.203094 -6.043500
v 0.943898 68.279602 -7.464500
v -0.000003 66.172394 -2.540900
v 0.943898 68.279602 -7.464500
v -0.000002 68.203094 -6.043500
v -0.000002 68.203094 -6.043500
v -0.943902 68.279602 -7.464500
v -0.000003 66.172394 -2.540900
v -1.012802 61.682499 -2.130200
v -0.000003 66.172394 -2.540900
v -0.943902 68.279602 -7.464500
v -0.943902 68.279602 -7.464500
v -0.000002 62.185104 -5.898100
v -1.012802 61.682499 -2.130200
v -0.000002 59.810001 -3.535800
v -1.012802 61.682499 -2.130200
v -0.000002 62.185104 -5.898100
v -0.000002 62.185104 -5.898100
v 1.012797 61.682499 -2.130200
v -0.000002 59.810001 -3.535800
v 1.012798 38.289101 0.000000
v -0.000002 59.810001 -3.535800
v 1.012797 61.682499 -2.130200
v 1.012797 61.682499 -2.130200
v 1.012797 65.812698 4.176100
v 1.012798 38.289101 0.000000
v -0.000003 58.886497 5.273100
v 1.012798 38.289101 0.000000
v 1.012797 65.812698 4.176100
v 1.012797 65.812698 4.176100
v -0.000004 69.843399 9.745100
v -0.000003 58.886497 5.273100
v -1.012803 65.812698 4.176100
v -0.000003 58.886497 5.273100
v -0.000004 69.843399 9.745100
v -0.000004 69.843399 9.745100
v -1.012803 73.231300 3.500100
v -1.012803 65.812698 4.176100
v -0.000003 72.111305 0.951600
v -1.012803 65.812698 4.176100
v -1.012803 73.231300 3.500100
v -1.012803 73.231300 3.500100
v -0.000003 74.121597 -2.540900
v -0.000003 72.111305 0.951600
v 1.012797 73.231300 3.500100
v -0.000003 72.111305 0.951600
v -0.000003 74.121597 -2.540900
v -0.000003 74.121597 -2.540900
v 1.012797 76.009399 -2.604700
v 1.012797 73.231300 3.500100
v -0.000004 80.578400 1.834200
v 1.012797 73.231300 3.500100
v 1.012797 76.009399 -2.604700
v 1.012797 76.009399 -2.604700
v -0.000003 78.841103 -4.421000
v -0.000004 80.578400 1.834200
v -1.012803 76.009399 -2.604700
v -0.000004 80.578400 1.834200
v -0.000003 78.841103 -4.421000
v -0.000003 78.841103 -4.421000
v -0.000002 77.198204 -10.227301
v -1.012803 76.009399 -2.604700
v -0.857203 73.195496 -7.602200
v -1.012803 76.009399 -2.604700
v -0.000002 77.198204 -10.227301
v -0.000002 77.198204 -10.227301
v -0.000002 71.353699 -11.240100
v -0.857203 73.195496 -7.602200
v -0.943902 68.279602 -7.464500
v -0.857203 73.195496 -7.602200
v -0.000002 71.353699 -11.240100
v -0.000002 71.353699 -11.240100
v -0.000002 65.876503 -11.467100
v -0.943902 68.279602 -7.464500
v -0.000002 62.185104 -5.898100
v -0.943902 68.279602 -7.464500
v -0.000002 65.876503 -11.467100
v -0.000002 65.876503 -11.467100
v 0.943898 68.279602 -7.464500
v -0.000002 62.185104 -5.898100
v 1.012797 61.682499 -2.130200
v -0.000002 62.185104 -5.898100
v 0.943898 68.279602 -7.464500
v 0.943898 68.279602 -7.464500
v -0.000003 66.172394 -2.540900
v 1.012797 61.682499 -2.130200
v 1.012797 65.812698 4.176100
v 1.012797 61.682499 -2.130200
v -0.000003 66.172394 -2.540900
v -0.000003 66.172394 -2.540900
v -0.000003 68.203094 0.951600
v 1.012797 65.812698 4.176100
v -0.000003 72.111305 0.951600
v 1.012797 65.812698 4.176100
v -0.000003 68.203094 0.951600
v -0.000003 68.203094 0.951600
v -1.012803 65.812698 4.176100
v -0.000003 72.111305 0.951600
v -2.061301 25.837299 -2.347000
v -0.000001 28.263399 -4.296000
v -2.061301 26.630699 -4.035800
v -0.000001 28.893501 -7.084301
v -2.061301 26.630699 -4.035800
v -0.000001 28.263399 -4.296000
v -0.000001 28.263399 -4.296000
v 2.061299 26.630699 -4.035800
v -0.000001 28.893501 -7.084301
v -0.000001 26.115400 -6.186400
v -0.000001 28.893501 -7.084301
v 2.061299 26.630699 -4.035800
v 2.061299 26.630699 -4.035800
v -0.000000 22.418900 -8.329300
v -0.000001 26.115400 -6.186400
v -2.061301 26.630699 -4.035800
v -0.000001 26.115400 -6.186400
v -0.000000 22.418900 -8.329300
v -0.000000 22.418900 -8.329300
v -2.061300 20.365299 -6.229700
v -2.061301 26.630699 -4.035800
v -2.061301 25.837299 -2.347000
v -2.061301 26.630699 -4.035800
v -2.061300 20.365299 -6.229700
v -2.061300 20.365299 -6.229700
v -2.061301 11.265600 -0.000000
v -2.061301 25.837299 -2.347000
v -2.061301 33.087502 -0.000000
v -2.061301 25.837299 -2.347000
v -2.061301 11.265600 -0.000000
v -2.061301 11.265600 -0.000000
v -2.061301 25.837299 2.347000
v -2.061301 33.087502 -0.000000
v -0.000002 31.883400 2.387800
v -2.061301 33.087502 -0.000000
v -2.061301 25.837299 2.347000
v -2.061301 25.837299 2.347000
v -0.000002 28.266001 4.293500
v -0.000002 31.883400 2.387800
v 2.061299 25.837299 2.347000
v -0.000002 31.883400 2.387800
v -0.000002 28.266001 4.293500
v -0.000002 28.266001 4.293500
v 2.061299 26.630699 4.035800
v 2.061299 25.837299 2.347000
v 2.061299 20.365299 6.229700
v 2.061299 25.837299 2.347000
v 2.061299 26.630699 4.035800
v 2.061299 26.630699 4.035800
v -0.000002 22.418900 8.329300
v 2.061299 20.365299 6.229700
v 2.061298 20.365299 8.308900
v 2.061299 20.365299 6.229700
v -0.000002 22.418900 8.329300
v -0.000002 22.418900 8.329300
v -0.000002 22.140799 11.194100
v 2.061298 20.365299 8.308900
v -0.000002 19.482601 9.551200
v 2.061298 20.365299 8.308900
v -0.000002 22.140799 11.194100
v -0.000002 22.140799 11.194100
v -2.061302 20.365299 8.308900
v -0.000002 19.482601 9.551200
v -2.061301 14.939099 5.775600
v -0.000002 19.482601 9.551200
v -2.061302 20.365299 8.308900
v -2.061302 20.365299 8.308900
v -2.061301 20.365299 6.229700
v -2.061301 14.939099 5.775600
v -2.061301 11.265600 -0.000000
v -2.061301 14.939099 5.775600
v -2.061301 20.365299 6.229700
v -2.061301 20.365299 6.229700
v -2.061301 25.837299 2.347000
v -2.061301 11.265600 -0.000000
v -2.061301 11.265600 -0.000000
v -0.000000 11.342100 -4.120000
v -0.000000 10.165999 -3.165900
v 2.061300 11.265600 0.000000
v -0.000000 10.165999 -3.165900
v -0.000000 11.342100 -4.120000
v -0.000000 11.342100 -4.120000
v 2.061300 14.939099 -5.775600
v 2.061300 11.265600 0.000000
v 2.061300 20.365299 -6.229700
v 2.061300 11.265600 0.000000
v 2.061300 14.939099 -5.775600
v 2.061300 14.939099 -5.775600
v 2.061300 20.365299 -8.308900
v 2.061300 20.365299 -6.229700
v -0.000000 22.418900 -8.329300
v 2.061300 20.365299 -6.229700
v 2.061300 20.365299 -8.308900
v 2.061300 20.365299 -8.308900
v 0.000000 22.140799 -11.194100
v -0.000000 22.418900 -8.329300
v -2.061300 20.365299 -8.308900
v -0.000000 22.418900 -8.329300
v 0.000000 22.140799 -11.194100
v 0.000000 22.140799 -11.194100
v -0.000000 19.482601 -9.551200
v -2.061300 20.365299 -8.308900
v -2.061300 14.939099 -5.775600
v -2.061300 20.365299 -8.308900
v -0.000000 19.482601 -9.551200
v -0.000000 19.482601 -9.551200
v 0.000000 14.916200 -8.102201
v -2.061300 14.939099 -5.775600
v 0.000000 13.923800 -8.224700
v -2.061300 14.939099 -5.775600
v 0.000000 14.916200 -8.102201
v 0.000000 14.916200 -8.102201
v 2.061300 14.939099 -5.775600
v 0.000000 13.923800 -8.224700
v 1.265300 11.778300 -5.668500
v 0.000000 13.923800 -8.224700
v 2.061300 14.939099 -5.775600
v 2.061300 14.939099 -5.775600
v -0.000000 11.342100 -4.120000
v 1.265300 11.778300 -5.668500
v -0.000000 10.956900 -4.829200
v 1.265300 11.778300 -5.668500
v -0.000000 11.342100 -4.120000
v -0.000000 11.342100 -4.120000
v -1.265300 11.778300 -5.668500
v -0.000000 10.956900 -4.829200
v 1.012797 65.812698 4.176100
v 1.012797 73.231300 3.500100
v -0.000004 69.843399 9.745100
v -0.000004 73.983803 6.780800
v -0.000004 69.843399 9.745100
v 1.012797 73.231300 3.500100
v 1.012797 73.231300 3.500100
v -0.000004 80.578400 1.834200
v -0.000004 73.983803 6.780800
v -1.012803 73.231300 3.500100
v -0.000004 73.983803 6.780800
v -0.000004 80.578400 1.834200
v -0.000004 80.578400 1.834200
v -1.012803 76.009399 -2.604700
v -1.012803 73.231300 3.500100
v -0.000003 74.121597 -2.540900
v -1.012803 73.231300 3.500100
v -1.012803 76.009399 -2.604700
v -1.012803 76.009399 -2.604700
v -0.000003 72.111305 -6.043500
v -0.000003 74.121597 -2.540900
v 1.012797 76.009399 -2.604700
v -0.000003 74.121597 -2.540900
v -0.000003 72.111305 -6.043500
v -0.000003 72.111305 -6.043500
v 0.857197 73.195496 -7.602200
v 1.012797 76.009399 -2.604700
v -0.000002 77.198204 -10.227301
v 1.012797 76.009399 -2.604700
v 0.857197 73.195496 -7.602200
v -1.012802 38.289101 -0.000000
v -0.000002 39.957500 -2.482200
v -0.000001 31.883400 -2.387800
v 1.012798 38.289101 0.000000
v -0.000001 31.883400 -2.387800
v -0.000002 39.957500 -2.482200
v -0.000002 39.957500 -2.482200
v -0.000002 51.519001 -2.770500
v 1.012798 38.289101 0.000000
v -0.000002 59.810001 -3.535800
v 1.012798 38.289101 0.000000
v -0.000002 51.519001 -2.770500
v -0.000002 51.519001 -2.770500
v -1.012802 38.289101 -0.000000
v -0.000002 59.810001 -3.535800
v -1.012802 61.682499 -2.130200
v -0.000002 59.810001 -3.535800
v -1.012802 38.289101 -0.000000
v -1.012802 38.289101 -0.000000
v -1.012803 65.812698 4.176100
v -1.012802 61.682499 -2.130200
v -0.000003 66.172394 -2.540900
v -1.012802 61.682499 -2.130200
v -1.012803 65.812698 4.176100
v -1.012803 65.812698 4.176100
v -0.000003 68.203094 0.951600
v -0.000003 66.172394 -2.540900
v -1.221999 0.298500 -13.102301
v 0.000002 0.298500 -18.487700
v -1.135199 -1.020400 -11.372701
v 0.000001 -2.171000 -14.604899
v -1.135199 -1.020400 -11.372701
v 0.000002 0.298500 -18.487700
v 0.000002 0.298500 -18.487700
v 1.135201 -1.020400 -11.372701
v 0.000001 -2.171000 -14.604899
v 0.000001 -5.390400 -13.576799
v 0.000001 -2.171000 -14.604899
v 1.135201 -1.020400 -11.372701
v 1.135201 -1.020400 -11.372701
v 1.119901 -6.278200 -8.814000
v 0.000001 -5.390400 -13.576799
v 0.000001 -8.334400 -11.449200
v 0.000001 -5.390400 -13.576799
v 1.119901 -6.278200 -8.814000
v 1.119901 -6.278200 -8.814000
v 0.000002 -12.704401 -12.405900
v 0.000001 -8.334400 -11.449200
v -1.119899 -6.278200 -8.814000
v 0.000001 -8.334400 -11.449200
v 0.000002 -12.704401 -12.405900
v 0.000002 -12.704401 -12.405900
v -1.191399 -8.750200 -8.933900
v -1.119899 -6.278200 -8.814000
v 1.221999 0.298500 13.102301
v -0.000002 0.298500 18.487700
v 1.135199 -1.020400 11.372701
v -0.000001 -2.171000 14.604899
v 1.135199 -1.020400 11.372701
v -0.000002 0.298500 18.487700
v -0.000002 0.298500 18.487700
v -1.135201 -1.020400 11.372701
v -0.000001 -2.171000 14.604899
v -0.000001 -5.390400 13.576799
v -0.000001 -2.171000 14.604899
v -1.135201 -1.020400 11.372701
v -1.135201 -1.020400 11.372701
v -1.119900 -6.278200 8.814000
v -0.000001 -5.390400 13.576799
v -0.000001 -8.334400 11.449200
v -0.000001 -5.390400 13.576799
v -1.119900 -6.278200 8.814000
v -1.119900 -6.278200 8.814000
v -0.000001 -12.704401 12.405900
v -0.000001 -8.334400 11.449200
v 1.119900 -6.278200 8.814000
v -0.000001 -8.334400 11.449200
v -0.000001 -12.704401 12.405900
v -0.000001 -12.704401 12.405900
v 1.191400 -8.750200 8.933900
v 1.119900 -6.278200 8.814000
v -1.359700 9.857400 -9.005300
v 0.000001 13.831900 -13.696700
v -1.168399 7.913400 -8.918600
v 0.000001 9.242600 -11.949300
v -1.168399 7.913400 -8.918600
v 0.000001 13.831900 -13.696700
v 0.000001 13.831900 -13.696700
v 1.168400 7.913400 -8.918600
v 0.000001 9.242600 -11.949300
v 0.000001 6.482300 -13.689100
v 0.000001 9.242600 -11.949300
v 1.168400 7.913400 -8.918600
v 1.168400 7.913400 -8.918600
v 1.165801 1.890300 -11.227300
v 0.000001 6.482300 -13.689100
v 0.000001 3.035800 -14.604899
v 0.000001 6.482300 -13.689100
v 1.165801 1.890300 -11.227300
v 1.165801 1.890300 -11.227300
v 0.000002 0.298500 -18.487700
v 0.000001 3.035800 -14.604899
v -1.165799 1.890300 -11.227300
v 0.000001 3.035800 -14.604899
v 0.000002 0.298500 -18.487700
v 0.000002 0.298500 -18.487700
v -1.221999 0.298500 -13.102301
v -1.165799 1.890300 -11.227300
v -1.222001 0.298500 13.102301
v -0.000002 0.298500 18.487700
v -1.165801 1.890300 11.227300
v -0.000001 3.035800 14.604899
v -1.165801 1.890300 11.227300
v -0.000002 0.298500 18.487700
v -0.000002 0.298500 18.487700
v 1.165799 1.890300 11.227300
v -0.000001 3.035800 14.604899
v -0.000001 6.482300 13.689100
v -0.000001 3.035800 14.604899
v 1.165799 1.890300 11.227300
v 1.165799 1.890300 11.227300
v 1.168399 7.913400 8.918600
v -0.000001 6.482300 13.689100
v -0.000001 9.242600 11.949300
v -0.000001 6.482300 13.689100
v 1.168399 7.913400 8.918600
v 1.168399 7.913400 8.918600
v -0.000002 13.831900 13.696700
v -0.000001 9.242600 11.949300
v -1.168401 7.913400 8.918600
v -0.000001 9.242600 11.949300
v -0.000002 13.831900 13.696700
v -0.000002 13.831900 13.696700
v -1.359701 9.857400 9.005300
v -1.168401 7.913400 8.918600
v -2.061301 20.365299 6.229700
v -0.000002 22.418900 8.329300
v -2.061301 26.630699 4.035800
v -0.000002 26.115400 6.186400
v -2.061301 26.630699 4.035800
v -0.000002 22.418900 8.329300
v -0.000002 22.418900 8.329300
v 2.061299 26.630699 4.035800
v -0.000002 26.115400 6.186400
v -0.000002 28.893501 7.084301
v -0.000002 26.115400 6.186400
v 2.061299 26.630699 4.035800
v 2.061299 26.630699 4.035800
v -0.000002 28.266001 4.293500
v -0.000002 28.893501 7.084301
v -2.061301 26.630699 4.035800
v -0.000002 28.893501 7.084301
v -0.000002 28.266001 4.293500
v -0.000002 28.266001 4.293500
v -2.061301 25.837299 2.347000
v -2.061301 26.630699 4.035800
v -2.061301 20.365299 6.229700
v -2.061301 26.630699 4.035800
v -2.061301 25.837299 2.347000
v -0.000002 31.883400 2.387800
v -0.000002 36.363102 2.385300
v -1.012802 38.289101 -0.000000
v -0.000002 42.409100 2.232200
v -1.012802 38.289101 -0.000000
v -0.000002 36.363102 2.385300
v -0.000002 36.363102 2.385300
v 1.012798 38.289101 0.000000
v -0.000002 42.409100 2.232200
v -0.000002 48.235802 3.227100
v -0.000002 42.409100 2.232200
v 1.012798 38.289101 0.000000
v 1.012798 38.289101 0.000000
v -0.000003 58.886497 5.273100
v -0.000002 48.235802 3.227100
v -1.012802 38.289101 -0.000000
v -0.000002 48.235802 3.227100
v -0.000003 58.886497 5.273100
v -0.000003 58.886497 5.273100
v -1.012803 65.812698 4.176100
v -1.012802 38.289101 -0.000000
v -1.127600 -9.469600 3.145500
v 0.000001 -11.854899 0.000000
v -1.127599 -13.339600 -0.000000
v -1.127599 -9.469600 -3.145500
v -1.127599 -13.339600 -0.000000
v 0.000001 -11.854899 0.000000
v 0.000001 -11.854899 0.000000
v 0.000001 -8.181300 -3.002600
v -1.127599 -9.469600 -3.145500
v -1.127599 -8.076700 -6.456800
v -1.127599 -9.469600 -3.145500
v 0.000001 -8.181300 -3.002600
v 0.000001 -8.181300 -3.002600
v 0.000001 -6.987401 -5.852200
v -1.127599 -8.076700 -6.456800
v -1.191399 -8.750200 -8.933900
v -1.127599 -8.076700 -6.456800
v 0.000001 -6.987401 -5.852200
v 0.000001 -6.987401 -5.852200
v 0.000001 -7.145600 -7.525701
v -1.191399 -8.750200 -8.933900
v 1.127601 -9.469600 -3.145500
v 0.000001 -11.854899 0.000000
v 1.127601 -13.339600 0.000000
v 1.127600 -9.469600 3.145500
v 1.127601 -13.339600 0.000000
v 0.000001 -11.854899 0.000000
v 0.000001 -11.854899 0.000000
v 0.000000 -8.181300 3.002600
v 1.127600 -9.469600 3.145500
v 1.127600 -8.076700 6.456800
v 1.127600 -9.469600 3.145500
v 0.000000 -8.181300 3.002600
v 0.000000 -8.181300 3.002600
v -0.000000 -6.987401 5.852200
v 1.127600 -8.076700 6.456800
v 1.191400 -8.750200 8.933900
v 1.127600 -8.076700 6.456800
v -0.000000 -6.987401 5.852200
v -0.000000 -6.987401 5.852200
v -0.000000 -7.145600 7.525701
v 1.191400 -8.750200 8.933900
v -1.265301 11.778300 5.668500
v -0.000001 11.342100 4.120000
v -0.000001 10.956900 4.829200
v 1.265299 11.778300 5.668500
v -0.000001 10.956900 4.829200
v -0.000001 11.342100 4.120000
v -0.000001 11.342100 4.120000
v 2.061299 14.939099 5.775600
v 1.265299 11.778300 5.668500
v -0.000001 13.923800 8.224700
v 1.265299 11.778300 5.668500
v 2.061299 14.939099 5.775600
v 2.061299 14.939099 5.775600
v -0.000001 14.916200 8.102201
v -0.000001 13.923800 8.224700
v -2.061301 14.939099 5.775600
v -0.000001 13.923800 8.224700
v -0.000001 14.916200 8.102201
v -0.000001 14.916200 8.102201
v -0.000002 19.482601 9.551200
v -2.061301 14.939099 5.775600
v -0.000002 19.482601 9.551200
v 2.061299 14.939099 5.775600
v 2.061298 20.365299 8.308900
v 2.061299 20.365299 6.229700
v 2.061298 20.365299 8.308900
v 2.061299 14.939099 5.775600
v 2.061299 14.939099 5.775600
v 2.061300 11.265600 0.000000
v 2.061299 20.365299 6.229700
v 2.061299 25.837299 2.347000
v 2.061299 20.365299 6.229700
v 2.061300 11.265600 0.000000
v 2.061300 11.265600 0.000000
v 2.061299 33.087502 0.000000
v 2.061299 25.837299 2.347000
v -0.000002 31.883400 2.387800
v 2.061299 25.837299 2.347000
v 2.061299 33.087502 0.000000
v 2.061299 33.087502 0.000000
v 1.012798 38.289101 0.000000
v -0.000002 31.883400 2.387800
v 1.127601 -13.339600 0.000000
v 0.000001 -16.980000 -0.938800
v 0.000001 -15.707000 -0.849500
v -1.127599 -13.339600 -0.000000
v 0.000001 -15.707000 -0.849500
v 0.000001 -16.980000 -0.938800
v 0.000001 -16.980000 -0.938800
v 0.000001 -18.000401 0.000000
v -1.127599 -13.339600 -0.000000
v 0.000001 -16.980000 0.938800
v -1.127599 -13.339600 -0.000000
v 0.000001 -18.000401 0.000000
v 0.000001 -18.000401 0.000000
v 1.127601 -13.339600 0.000000
v 0.000001 -16.980000 0.938800
v 0.000001 -15.707000 0.849500
v 0.000001 -16.980000 0.938800
v 1.127601 -13.339600 0.000000
v -0.000000 22.418900 -8.329300
v 2.061299 26.630699 -4.035800
v 2.061300 20.365299 -6.229700
v 2.061299 25.837299 -2.347000
v 2.061300 20.365299 -6.229700
v 2.061299 26.630699 -4.035800
v 2.061299 26.630699 -4.035800
v -0.000001 28.263399 -4.296000
v 2.061299 25.837299 -2.347000
v -0.000001 31.883400 -2.387800
v 2.061299 25.837299 -2.347000
v -0.000001 28.263399 -4.296000
v -0.000001 28.263399 -4.296000
v -2.061301 25.837299 -2.347000
v -0.000001 31.883400 -2.387800
v -2.061301 33.087502 -0.000000
v -0.000001 31.883400 -2.387800
v -2.061301 25.837299 -2.347000
v -0.000001 0.298500 11.107400
v -0.000001 -0.474500 10.092100
v -1.222001 0.298500 13.102301
v -1.135201 -1.020400 11.372701
v -1.222001 0.298500 13.102301
v -0.000001 -0.474500 10.092100
v -0.000001 -0.474500 10.092100
v -0.000000 -5.255200 7.696600
v -1.135201 -1.020400 11.372701
v -1.119900 -6.278200 8.814000
v -1.135201 -1.020400 11.372701
v -0.000000 -5.255200 7.696600
v -0.000000 -5.255200 7.696600
v -1.191400 -8.750200 8.933900
v -1.119900 -6.278200 8.814000
v 0.000001 0.298500 -11.107400
v 0.000001 -0.474500 -10.092100
v 1.222001 0.298500 -13.102301
v 1.135201 -1.020400 -11.372701
v 1.222001 0.298500 -13.102301
v 0.000001 -0.474500 -10.092100
v 0.000001 -0.474500 -10.092100
v 0.000001 -5.255200 -7.696600
v 1.135201 -1.020400 -11.372701
v 1.119901 -6.278200 -8.814000
v 1.135201 -1.020400 -11.372701
v 0.000001 -5.255200 -7.696600
v 0.000001 -5.255200 -7.696600
v 1.191401 -8.750200 -8.933900
v 1.119901 -6.278200 -8.814000
v -0.000001 8.967000 7.916000
v -0.000001 7.336900 7.732300
v -1.359701 9.857400 9.005300
v -1.168401 7.913400 8.918600
v -1.359701 9.857400 9.005300
v -0.000001 7.336900 7.732300
v -0.000001 7.336900 7.732300
v -0.000001 1.392900 9.921100
v -1.168401 7.913400 8.918600
v -1.165801 1.890300 11.227300
v -1.168401 7.913400 8.918600
v -0.000001 1.392900 9.921100
v -0.000001 1.392900 9.921100
v -1.222001 0.298500 13.102301
v -1.165801 1.890300 11.227300
v -1.221999 0.298500 -13.102301
v 0.000001 1.392900 -9.921100
v -1.165799 1.890300 -11.227300
v -1.168399 7.913400 -8.918600
v -1.165799 1.890300 -11.227300
v 0.000001 1.392900 -9.921100
v 0.000001 1.392900 -9.921100
v 0.000000 7.336900 -7.732300
v -1.168399 7.913400 -8.918600
v -1.359700 9.857400 -9.005300
v -1.168399 7.913400 -8.918600
v 0.000000 7.336900 -7.732300
v 0.000000 7.336900 -7.732300
v 0.000000 8.967000 -7.916000
v -1.359700 9.857400 -9.005300
v -1.191399 -8.750200 -8.933900
v 0.000001 -5.255200 -7.696600
v -1.119899 -6.278200 -8.814000
v -1.135199 -1.020400 -11.372701
v -1.119899 -6.278200 -8.814000
v 0.000001 -5.255200 -7.696600
v 0.000001 -5.255200 -7.696600
v 0.000001 -0.474500 -10.092100
v -1.135199 -1.020400 -11.372701
v -1.221999 0.298500 -13.102301
v -1.135199 -1.020400 -11.372701
v 0.000001 -0.474500 -10.092100
v 0.000001 -0.474500 -10.092100
v 0.000001 0.298500 -11.107400
v -1.221999 0.298500 -13.102301
v -0.000000 -7.145600 7.525701
v -0.000000 -6.987401 5.852200
v -1.191400 -8.750200 8.933900
v -1.127600 -8.076700 6.456800
v -1.191400 -8.750200 8.933900
v -0.000000 -6.987401 5.852200
v -0.000000 -6.987401 5.852200
v 0.000000 -8.181300 3.002600
v -1.127600 -8.076700 6.456800
v -1.127600 -9.469600 3.145500
v -1.127600 -8.076700 6.456800
v 0.000000 -8.181300 3.002600
v 0.000000 -8.181300 3.002600
v 0.000001 -11.854899 0.000000
v -1.127600 -9.469600 3.145500
v 1.191400 -8.750200 8.933900
v -0.000000 -5.255200 7.696600
v 1.119900 -6.278200 8.814000
v 1.135199 -1.020400 11.372701
v 1.119900 -6.278200 8.814000
v -0.000000 -5.255200 7.696600
v -0.000000 -5.255200 7.696600
v -0.000001 -0.474500 10.092100
v 1.135199 -1.020400 11.372701
v 1.221999 0.298500 13.102301
v 1.135199 -1.020400 11.372701
v -0.000001 -0.474500 10.092100
v -0.000001 -0.474500 10.092100
v -0.000001 0.298500 11.107400
v 1.221999 0.298500 13.102301
v 1.221999 0.298500 13.102301
v -0.000001 1.392900 9.921100
v 1.165799 1.890300 11.227300
v 1.168399 7.913400 8.918600
v 1.165799 1.890300 11.227300
v -0.000001 1.392900 9.921100
v -0.000001 1.392900 9.921100
v -0.000001 7.336900 7.732300
v 1.168399 7.913400 8.918600
v 1.359699 9.857400 9.005300
v 1.168399 7.913400 8.918600
v -0.000001 7.336900 7.732300
v -0.000001 7.336900 7.732300
v -0.000001 8.967000 7.916000
v 1.359699 9.857400 9.005300
v 0.000000 8.967000 -7.916000
v 0.000000 7.336900 -7.732300
v 1.359700 9.857400 -9.005300
v 1.168400 7.913400 -8.918600
v 1.359700 9.857400 -9.005300
v 0.000000 7.336900 -7.732300
v 0.000000 7.336900 -7.732300
v 0.000001 1.392900 -9.921100
v 1.168400 7.913400 -8.918600
v 1.165801 1.890300 -11.227300
v 1.168400 7.913400 -8.918600
v 0.000001 1.392900 -9.921100
v 0.000001 1.392900 -9.921100
v 1.222001 0.298500 -13.102301
v 1.165801 1.890300 -11.227300
v 0.000001 -7.145600 -7.525701
v 0.000001 -6.987401 -5.852200
v 1.191401 -8.750200 -8.933900
v 1.127601 -8.076700 -6.456800
v 1.191401 -8.750200 -8.933900
v 0.000001 -6.987401 -5.852200
v 0.000001 -6.987401 -5.852200
v 0.000001 -8.181300 -3.002600
v 1.127601 -8.076700 -6.456800
v 1.127601 -9.469600 -3.145500
v 1.127601 -8.076700 -6.456800
v 0.000001 -8.181300 -3.002600
v 0.000001 -8.181300 -3.002600
v 0.000001 -11.854899 0.000000
v 1.127601 -9.469600 -3.145500
v 0.000000 13.923800 -8.224700
v 0.000000 12.831900 -9.612500
v -1.265300 11.778300 -5.668500
v -1.265300 10.030800 -6.936399
v -1.265300 11.778300 -5.668500
v 0.000000 12.831900 -9.612500
v 0.000000 12.831900 -9.612500
v 0.000001 13.831900 -13.696700
v -1.265300 10.030800 -6.936399
v -1.359700 9.857400 -9.005300
v -1.265300 10.030800 -6.936399
v 0.000001 13.831900 -13.696700
v -0.000001 13.923800 8.224700
v -2.061301 14.939099 5.775600
v -1.265301 11.778300 5.668500
v -0.000001 11.342100 4.120000
v -1.265301 11.778300 5.668500
v -2.061301 14.939099 5.775600
v -2.061301 14.939099 5.775600
v -2.061301 11.265600 -0.000000
v -0.000001 11.342100 4.120000
v -0.000001 10.165999 3.165900
v -0.000001 11.342100 4.120000
v -2.061301 11.265600 -0.000000
v -0.000001 13.923800 8.224700
v -0.000001 12.831900 9.612500
v 1.265299 11.778300 5.668500
v 1.265299 10.030800 6.936399
v 1.265299 11.778300 5.668500
v -0.000001 12.831900 9.612500
v -0.000001 12.831900 9.612500
v -0.000002 13.831900 13.696700
v 1.265299 10.030800 6.936399
v 1.359699 9.857400 9.005300
v 1.265299 10.030800 6.936399
v -0.000002 13.831900 13.696700
v 2.061300 20.365299 -6.229700
v 2.061299 25.837299 -2.347000
v 2.061300 11.265600 0.000000
v 2.061299 33.087502 0.000000
v 2.061300 11.265600 0.000000
v 2.061299 25.837299 -2.347000
v 2.061299 25.837299 -2.347000
v -0.000001 31.883400 -2.387800
v 2.061299 33.087502 0.000000
v 1.012798 38.289101 0.000000
v 2.061299 33.087502 0.000000
v -0.000001 31.883400 -2.387800
v 0.857197 73.195496 -7.602200
v -0.000003 72.111305 -6.043500
v -0.000002 68.203094 -6.043500
v -0.857203 73.195496 -7.602200
v -0.000002 68.203094 -6.043500
v -0.000003 72.111305 -6.043500
v -0.000003 72.111305 -6.043500
v -1.012803 76.009399 -2.604700
v -0.857203 73.195496 -7.602200
v 0.000001 9.242600 -11.949300
v 0.000001 6.482300 -13.689100
v -1.168399 7.913400 -8.918600
v -1.165799 1.890300 -11.227300
v -1.168399 7.913400 -8.918600
v 0.000001 6.482300 -13.689100
v 0.000001 6.482300 -13.689100
v 0.000001 3.035800 -14.604899
v -1.165799 1.890300 -11.227300
v 1.265300 11.778300 -5.668500
v 0.000000 9.122701 -6.069000
v 1.265300 10.030800 -6.936399
v 1.359700 9.857400 -9.005300
v 1.265300 10.030800 -6.936399
v 0.000000 9.122701 -6.069000
v 0.000000 9.122701 -6.069000
v 0.000000 8.967000 -7.916000
v 1.359700 9.857400 -9.005300
v -1.127599 -13.339600 -0.000000
v 0.000001 -13.268200 -3.428600
v 0.000001 -15.707000 -0.849500
v 1.127601 -13.339600 0.000000
v 0.000001 -15.707000 -0.849500
v 0.000001 -13.268200 -3.428600
v 0.000001 -13.268200 -3.428600
v 1.127601 -9.469600 -3.145500
v 1.127601 -13.339600 0.000000
v 1.127601 -8.076700 -6.456800
v 0.000001 -13.268200 -3.428600
v 0.000001 -11.393100 -8.086900
v -1.127599 -8.076700 -6.456800
v 0.000001 -11.393100 -8.086900
v 0.000001 -13.268200 -3.428600
v 0.000001 -13.268200 -3.428600
v -1.127599 -9.469600 -3.145500
v -1.127599 -8.076700 -6.456800
v -1.191399 -8.750200 -8.933900
v 0.000002 -12.704401 -12.405900
v -1.127599 -8.076700 -6.456800
v 0.000001 -11.393100 -8.086900
v -1.127599 -8.076700 -6.456800
v 0.000002 -12.704401 -12.405900
v 0.000002 -12.704401 -12.405900
v 1.127601 -8.076700 -6.456800
v 0.000001 -11.393100 -8.086900
v -1.359701 9.857400 9.005300
v -0.000001 9.122701 6.069000
v -0.000001 8.967000 7.916000
v 1.359699 9.857400 9.005300
v -0.000001 8.967000 7.916000
v -0.000001 9.122701 6.069000
v -0.000001 9.122701 6.069000
v 1.265299 10.030800 6.936399
v 1.359699 9.857400 9.005300
v 1.127600 -9.469600 3.145500
v 0.000000 -13.268200 3.428600
v 1.127601 -13.339600 0.000000
v 0.000001 -15.707000 0.849500
v 1.127601 -13.339600 0.000000
v 0.000000 -13.268200 3.428600
v 0.000000 -13.268200 3.428600
v -1.127599 -13.339600 -0.000000
v 0.000001 -15.707000 0.849500
v -1.127600 -8.076700 6.456800
v 0.000000 -13.268200 3.428600
v -0.000000 -11.393100 8.086900
v 1.127600 -8.076700 6.456800
v -0.000000 -11.393100 8.086900
v 0.000000 -13.268200 3.428600
v 0.000000 -13.268200 3.428600
v 1.127600 -9.469600 3.145500
v 1.127600 -8.076700 6.456800
v 1.191400 -8.750200 8.933900
v -0.000001 -12.704401 12.405900
v 1.127600 -8.076700 6.456800
v -0.000000 -11.393100 8.086900
v 1.127600 -8.076700 6.456800
v -0.000001 -12.704401 12.405900
v -0.000001 -12.704401 12.405900
v -1.127600 -8.076700 6.456800
v -0.000000 -11.393100 8.086900
v 0.000001 13.831900 -13.696700
v 0.000000 12.831900 -9.612500
v 1.265300 10.030800 -6.936399
v 1.265300 11.778300 -5.668500
v 1.265300 10.030800 -6.936399
v 0.000000 12.831900 -9.612500
v 0.000000 12.831900 -9.612500
v 0.000000 13.923800 -8.224700
v 1.265300 11.778300 -5.668500
v -2.061300 20.365299 -8.308900
v -2.061300 14.939099 -5.775600
v -2.061300 20.365299 -6.229700
v -2.061301 11.265600 -0.000000
v -2.061300 20.365299 -6.229700
v -2.061300 14.939099 -5.775600
v -2.061300 14.939099 -5.775600
v -0.000000 11.342100 -4.120000
v -2.061301 11.265600 -0.000000
v -0.000002 13.831900 13.696700
v -0.000001 12.831900 9.612500
v -1.265301 10.030800 6.936399
v -1.265301 11.778300 5.668500
v -1.265301 10.030800 6.936399
v -0.000001 12.831900 9.612500
v -0.000001 12.831900 9.612500
v -0.000001 13.923800 8.224700
v -1.265301 11.778300 5.668500
v 0.000000 8.967000 -7.916000
v 0.000000 9.122701 -6.069000
v -1.359700 9.857400 -9.005300
v -1.265300 10.030800 -6.936399
v -1.359700 9.857400 -9.005300
v 0.000000 9.122701 -6.069000
v 0.000000 9.122701 -6.069000
v -1.265300 11.778300 -5.668500
v -1.265300 10.030800 -6.936399
v 0.000000 14.916200 -8.102201
v -0.000000 19.482601 -9.551200
v 2.061300 14.939099 -5.775600
v 2.061300 20.365299 -8.308900
v 2.061300 14.939099 -5.775600
v -0.000000 19.482601 -9.551200
v -0.000000 19.482601 -9.551200
v 0.000000 22.140799 -11.194100
v 2.061300 20.365299 -8.308900
v 0.000001 -2.171000 -14.604899
v 0.000001 -5.390400 -13.576799
v -1.135199 -1.020400 -11.372701
v -1.119899 -6.278200 -8.814000
v -1.135199 -1.020400 -11.372701
v 0.000001 -5.390400 -13.576799
v 0.000001 -5.390400 -13.576799
v 0.000001 -8.334400 -11.449200
v -1.119899 -6.278200 -8.814000
v 1.265299 10.030800 6.936399
v -0.000001 9.122701 6.069000
v 1.265299 11.778300 5.668500
v -0.000001 10.956900 4.829200
v 1.265299 11.778300 5.668500
v -0.000001 9.122701 6.069000
v -0.000001 9.122701 6.069000
v -1.265301 11.778300 5.668500
v -0.000001 10.956900 4.829200
v -0.000001 3.035800 14.604899
v -0.000001 6.482300 13.689100
v -1.165801 1.890300 11.227300
v -1.168401 7.913400 8.918600
v -1.165801 1.890300 11.227300
v -0.000001 6.482300 13.689100
v -0.000001 6.482300 13.689100
v -0.000001 9.242600 11.949300
v -1.168401 7.913400 8.918600
v -0.000001 -2.171000 14.604899
v -0.000001 -5.390400 13.576799
v 1.135199 -1.020400 11.372701
v 1.119900 -6.278200 8.814000
v 1.135199 -1.020400 11.372701
v -0.000001 -5.390400 13.576799
v -0.000001 -5.390400 13.576799
v -0.000001 -8.334400 11.449200
v 1.119900 -6.278200 8.814000
v -0.000002 61.452900 -7.762900
v -0.000002 58.396698 -7.487400
v -0.000002 61.595798 -10.467100
v -0.000002 58.396698 -7.487400
v -0.000002 61.452900 -7.762900
v -0.000002 61.595798 -10.467100
v -0.000003 54.860901 7.127700
v -0.000002 48.235802 3.227100
v -0.000003 57.590599 6.344500
v -0.000002 48.235802 3.227100
v -0.000003 54.860901 7.127700
v -0.000003 57.590599 6.344500
v -0.000002 39.840202 3.951600
v -0.000002 36.363102 2.385300
v -0.000002 41.730499 2.959300
v -0.000002 36.363102 2.385300
v -0.000002 39.840202 3.951600
v -0.000002 41.730499 2.959300
v -0.000003 59.389103 8.694099
v -0.000003 54.860901 7.127700
v -0.000003 57.590599 6.344500
v -0.000003 54.860901 7.127700
v -0.000003 59.389103 8.694099
v -0.000003 57.590599 6.344500
v -0.000002 71.353699 -11.240100
v -0.000002 72.810295 -12.918700
v -0.000002 77.198204 -10.227301
v -0.000002 72.810295 -12.918700
v -0.000002 71.353699 -11.240100
v -0.000002 77.198204 -10.227301
v -0.000002 50.146503 -3.905700
v -0.000002 46.916901 -4.742500
v -0.000002 39.957500 -2.482200
v -0.000002 46.916901 -4.742500
v -0.000002 50.146503 -3.905700
v -0.000002 39.957500 -2.482200
v -0.000003 83.591202 -3.755200
v -0.000004 80.578400 1.834200
v -0.000003 81.063095 -2.757700
v -0.000004 80.578400 1.834200
v -0.000003 83.591202 -3.755200
v -0.000003 81.063095 -2.757700
v -0.000003 58.886497 5.273100
v -0.000003 57.590599 6.344500
v -0.000002 48.235802 3.227100
v -0.000003 57.590599 6.344500
v -0.000003 58.886497 5.273100
v -0.000002 48.235802 3.227100
v -0.000002 51.519001 -2.770500
v -0.000002 50.146503 -3.905700
v -0.000002 39.957500 -2.482200
v -0.000002 50.146503 -3.905700
v -0.000002 51.519001 -2.770500
v -0.000002 39.957500 -2.482200
v -0.000002 42.646400 4.395500
v -0.000002 39.840202 3.951600
v -0.000002 41.730499 2.959300
v -0.000002 39.840202 3.951600
v -0.000002 42.646400 4.395500
v -0.000002 41.730499 2.959300
v -0.000002 77.198204 -10.227301
v -0.000002 71.851097 -15.301400
v -0.000002 72.810295 -12.918700
v -0.000002 71.851097 -15.301400
v -0.000002 77.198204 -10.227301
v -0.000002 72.810295 -12.918700
v -0.000004 75.846100 10.041000
v -0.000004 69.843399 9.745100
v -0.000004 73.708305 8.648200
v -0.000004 69.843399 9.745100
v -0.000004 75.846100 10.041000
v -0.000004 73.708305 8.648200
v -0.000002 42.409100 2.232200
v -0.000002 41.730499 2.959300
v -0.000002 36.363102 2.385300
v -0.000002 41.730499 2.959300
v -0.000002 42.409100 2.232200
v -0.000002 36.363102 2.385300
v -0.000002 61.452900 -7.762900
v -0.000002 61.595798 -10.467100
v -0.000002 65.876503 -11.467100
v -0.000002 61.595798 -10.467100
v -0.000002 61.452900 -7.762900
v -0.000002 65.876503 -11.467100
v -0.000004 73.983803 6.780800
v -0.000004 73.708305 8.648200
v -0.000004 69.843399 9.745100
v -0.000004 73.708305 8.648200
v -0.000004 73.983803 6.780800
v -0.000004 69.843399 9.745100
v -0.000002 51.314903 -5.551100
v -0.000002 50.146503 -3.905700
v -0.000002 46.916901 -4.742500
v -0.000002 50.146503 -3.905700
v -0.000002 51.314903 -5.551100
v -0.000002 46.916901 -4.742500
v -0.000002 62.185104 -5.898100
v -0.000002 61.452900 -7.762900
v -0.000002 65.876503 -11.467100
v -0.000002 61.452900 -7.762900
v -0.000002 62.185104 -5.898100
v -0.000002 65.876503 -11.467100
v -0.000003 81.063095 -2.757700
v -0.000004 80.578400 1.834200
v -0.000003 78.841103 -4.421000
v -0.000004 80.578400 1.834200
v -0.000003 81.063095 -2.757700
v -0.000003 78.841103 -4.421000
vt 0.618141 0.858268
vt 0.696881 0.921260
vt 0.665385 0.952756
vt 0.696881 0.921260
vt 0.618141 0.858268
vt 0.665385 0.952756
vt 0.925228 0.921260
vt 0.996094 0.732283
vt 0.996094 0.984252
vt 0.996094 0.732283
vt 0.925228 0.921260
vt 0.996094 0.984252
vt 0.696881 0.921260
vt 0.618141 0.858268
vt 0.665385 0.952756
vt 0.618141 0.858268
vt 0.696881 0.921260
vt 0.665385 0.952756
vt 0.696881 0.921260
vt 0.618141 0.858268
vt 0.696881 0.795276
vt 0.618141 0.858268
vt 0.696881 0.921260
vt 0.696881 0.795276
vt 0.925228 0.795276
vt 0.925228 0.921260
vt 0.696881 0.795276
vt 0.925228 0.921260
vt 0.925228 0.795276
vt 0.696881 0.795276
vt 0.925228 0.795276
vt 0.996094 0.732283
vt 0.925228 0.921260
vt 0.996094 0.732283
vt 0.925228 0.795276
vt 0.925228 0.921260
vt 0.925228 0.921260
vt 0.696881 0.795276
vt 0.696881 0.921260
vt 0.696881 0.795276
vt 0.925228 0.921260
vt 0.696881 0.921260
vt 0.657511 0.464567
vt 0.657511 0.385827
vt 0.696881 0.385827
vt 0.696881 0.291339
vt 0.696881 0.385827
vt 0.657511 0.385827
vt 0.287433 0.401575
vt 0.232314 0.401575
vt 0.232314 0.448819
vt 0.232314 0.401575
vt 0.287433 0.401575
vt 0.232314 0.448819
vt 0.917354 0.196850
vt 0.822866 0.275591
vt 0.901606 0.307087
vt 0.901606 0.307087
vt 0.822866 0.275591
vt 0.854362 0.401575
vt 0.940976 0.149606
vt 0.972472 0.007874
vt 0.909480 0.007874
vt 0.909480 0.007874
vt 0.972472 0.007874
vt 0.940976 0.149606
vt 0.051212 0.889764
vt 0.051212 0.984252
vt 0.106330 0.984252
vt 0.051212 0.984252
vt 0.051212 0.889764
vt 0.003968 0.984252
vt 0.287433 0.401575
vt 0.232314 0.401575
vt 0.232314 0.448819
vt 0.232314 0.401575
vt 0.287433 0.401575
vt 0.232314 0.448819
vt 0.822866 0.275591
vt 0.917354 0.196850
vt 0.901606 0.007874
vt 0.940976 0.149606
vt 0.901606 0.007874
vt 0.917354 0.196850
vt 0.232314 0.401575
vt 0.287433 0.401575
vt 0.232314 0.448819
vt 0.287433 0.401575
vt 0.232314 0.401575
vt 0.232314 0.448819
vt 0.232314 0.401575
vt 0.287433 0.401575
vt 0.232314 0.448819
vt 0.287433 0.401575
vt 0.232314 0.401575
vt 0.232314 0.448819
vt 0.437039 0.133858
vt 0.421291 0.007874
vt 0.311055 0.007874
vt 0.437039 0.133858
vt 0.311055 0.007874
vt 0.421291 0.007874
vt 0.232314 0.055118
vt 0.287433 0.055118
vt 0.287433 0.102362
vt 0.287433 0.055118
vt 0.232314 0.055118
vt 0.287433 0.007874
vt 0.232314 0.102362
vt 0.287433 0.102362
vt 0.232314 0.055118
vt 0.232314 0.102362
vt 0.232314 0.055118
vt 0.287433 0.102362
vt 0.870110 0.590551
vt 0.909480 0.685039
vt 0.988220 0.685039
vt 0.295307 0.307087
vt 0.342551 0.165354
vt 0.240188 0.165354
vt 0.129952 0.212598
vt 0.098456 0.433071
vt 0.145700 0.496063
vt 0.224440 0.637795
vt 0.200818 0.732283
vt 0.342551 0.763780
vt 0.295307 0.307087
vt 0.295307 0.370079
vt 0.200818 0.307087
vt 0.618141 0.496063
vt 0.838614 0.496063
vt 0.870110 0.590551
vt 0.185070 0.858268
vt 0.200818 0.732283
vt 0.263811 0.968504
vt 0.791370 0.685039
vt 0.681133 0.716535
vt 0.870110 0.590551
vt 0.137826 0.984252
vt 0.137826 0.826772
vt 0.106330 0.889764
vt 0.106330 0.984252
vt 0.137826 0.984252
vt 0.106330 0.889764
vt 0.500031 0.322835
vt 0.563023 0.196850
vt 0.563023 0.322835
vt 0.090582 0.354331
vt 0.003968 0.354331
vt 0.003968 0.275591
vt 0.090582 0.354331
vt 0.003968 0.354331
vt 0.003968 0.275591
vt 0.090582 0.354331
vt 0.003968 0.354331
vt 0.003968 0.275591
vt 0.090582 0.354331
vt 0.003968 0.354331
vt 0.003968 0.275591
vt 0.696881 0.385827
vt 0.696881 0.291339
vt 0.657511 0.385827
vt 0.563023 0.196850
vt 0.500031 0.322835
vt 0.563023 0.322835
vt 0.720503 0.464567
vt 0.822866 0.401575
vt 0.822866 0.275591
vt 0.051212 0.984252
vt 0.051212 0.889764
vt 0.106330 0.984252
vt 0.003968 0.858268
vt 0.003968 0.685039
vt 0.043338 0.858268
vt 0.003968 0.007874
vt 0.090582 0.007874
vt 0.003968 0.086614
vt 0.003968 0.354331
vt 0.003968 0.275591
vt 0.090582 0.354331
vt 0.003968 0.858268
vt 0.003968 0.685039
vt 0.043338 0.858268
vt 0.003968 0.354331
vt 0.090582 0.354331
vt 0.003968 0.275591
vt 0.003968 0.007874
vt 0.003968 0.086614
vt 0.090582 0.007874
vt 0.003968 0.007874
vt 0.090582 0.007874
vt 0.003968 0.086614
vt 0.003968 0.007874
vt 0.090582 0.007874
vt 0.003968 0.086614
vt 0.051212 0.984252
vt 0.051212 0.889764
vt 0.003968 0.984252
vt 0.129952 0.212598
vt 0.200818 0.307087
vt 0.240188 0.165354
vt 0.295307 0.307087
vt 0.240188 0.165354
vt 0.200818 0.307087
vt 0.200818 0.307087
vt 0.295307 0.370079
vt 0.295307 0.307087
vt 0.334677 0.496063
vt 0.295307 0.307087
vt 0.295307 0.370079
vt 0.295307 0.370079
vt 0.295307 0.307087
vt 0.334677 0.496063
vt 0.421291 0.511811
vt 0.334677 0.496063
vt 0.295307 0.307087
vt 0.295307 0.307087
vt 0.413417 0.370079
vt 0.421291 0.511811
vt 0.460661 0.464567
vt 0.421291 0.511811
vt 0.413417 0.370079
vt 0.413417 0.370079
vt 0.421291 0.511811
vt 0.460661 0.464567
vt 0.870110 0.590551
vt 0.460661 0.464567
vt 0.421291 0.511811
vt 0.421291 0.511811
vt 0.342551 0.763780
vt 0.870110 0.590551
vt 0.476409 0.795276
vt 0.870110 0.590551
vt 0.342551 0.763780
vt 0.342551 0.763780
vt 0.263811 0.968504
vt 0.476409 0.795276
vt 0.342551 0.763780
vt 0.476409 0.795276
vt 0.263811 0.968504
vt 0.263811 0.968504
vt 0.200818 0.732283
vt 0.342551 0.763780
vt 0.224440 0.637795
vt 0.342551 0.763780
vt 0.200818 0.732283
vt 0.200818 0.732283
vt 0.185070 0.496063
vt 0.224440 0.637795
vt 0.200818 0.732283
vt 0.224440 0.637795
vt 0.185070 0.496063
vt 0.185070 0.496063
vt 0.145700 0.496063
vt 0.200818 0.732283
vt 0.059086 0.669291
vt 0.200818 0.732283
vt 0.145700 0.496063
vt 0.145700 0.496063
vt 0.098456 0.433071
vt 0.059086 0.669291
vt 0.145700 0.496063
vt 0.059086 0.669291
vt 0.098456 0.433071
vt 0.098456 0.433071
vt 0.129952 0.212598
vt 0.145700 0.496063
vt 0.200818 0.307087
vt 0.145700 0.496063
vt 0.129952 0.212598
vt 0.129952 0.212598
vt 0.240188 0.165354
vt 0.200818 0.307087
vt 0.295307 0.307087
vt 0.200818 0.307087
vt 0.240188 0.165354
vt 0.240188 0.165354
vt 0.342551 0.165354
vt 0.295307 0.307087
vt 0.413417 0.370079
vt 0.295307 0.307087
vt 0.342551 0.165354
vt 0.342551 0.165354
vt 0.295307 0.307087
vt 0.413417 0.370079
vt 0.421291 0.511811
vt 0.413417 0.370079
vt 0.295307 0.307087
vt 0.295307 0.307087
vt 0.334677 0.496063
vt 0.421291 0.511811
vt 0.342551 0.763780
vt 0.421291 0.511811
vt 0.334677 0.496063
vt 0.334677 0.496063
vt 0.295307 0.637795
vt 0.342551 0.763780
vt 0.224440 0.637795
vt 0.342551 0.763780
vt 0.295307 0.637795
vt 0.295307 0.637795
vt 0.342551 0.763780
vt 0.224440 0.637795
vt 0.578771 0.118110
vt 0.500031 0.228346
vt 0.563023 0.196850
vt 0.500031 0.322835
vt 0.563023 0.196850
vt 0.500031 0.228346
vt 0.500031 0.228346
vt 0.563023 0.196850
vt 0.500031 0.322835
vt 0.563023 0.322835
vt 0.500031 0.322835
vt 0.563023 0.196850
vt 0.563023 0.196850
vt 0.657511 0.385827
vt 0.563023 0.322835
vt 0.563023 0.196850
vt 0.563023 0.322835
vt 0.657511 0.385827
vt 0.657511 0.385827
vt 0.696881 0.291339
vt 0.563023 0.196850
vt 0.578771 0.118110
vt 0.563023 0.196850
vt 0.696881 0.291339
vt 0.696881 0.291339
vt 0.901606 0.007874
vt 0.578771 0.118110
vt 0.421291 0.007874
vt 0.578771 0.118110
vt 0.901606 0.007874
vt 0.901606 0.007874
vt 0.578771 0.118110
vt 0.421291 0.007874
vt 0.437039 0.133858
vt 0.421291 0.007874
vt 0.578771 0.118110
vt 0.578771 0.118110
vt 0.500031 0.228346
vt 0.437039 0.133858
vt 0.578771 0.118110
vt 0.437039 0.133858
vt 0.500031 0.228346
vt 0.500031 0.228346
vt 0.563023 0.196850
vt 0.578771 0.118110
vt 0.696881 0.291339
vt 0.578771 0.118110
vt 0.563023 0.196850
vt 0.563023 0.196850
vt 0.657511 0.385827
vt 0.696881 0.291339
vt 0.696881 0.385827
vt 0.696881 0.291339
vt 0.657511 0.385827
vt 0.657511 0.385827
vt 0.657511 0.464567
vt 0.696881 0.385827
vt 0.720503 0.464567
vt 0.696881 0.385827
vt 0.657511 0.464567
vt 0.657511 0.464567
vt 0.696881 0.385827
vt 0.720503 0.464567
vt 0.822866 0.275591
vt 0.720503 0.464567
vt 0.696881 0.385827
vt 0.696881 0.385827
vt 0.696881 0.291339
vt 0.822866 0.275591
vt 0.901606 0.007874
vt 0.822866 0.275591
vt 0.696881 0.291339
vt 0.696881 0.291339
vt 0.578771 0.118110
vt 0.901606 0.007874
vt 0.901606 0.007874
vt 0.917354 0.196850
vt 0.940976 0.149606
vt 0.901606 0.007874
vt 0.940976 0.149606
vt 0.917354 0.196850
vt 0.917354 0.196850
vt 0.822866 0.275591
vt 0.901606 0.007874
vt 0.696881 0.291339
vt 0.901606 0.007874
vt 0.822866 0.275591
vt 0.822866 0.275591
vt 0.696881 0.385827
vt 0.696881 0.291339
vt 0.657511 0.385827
vt 0.696881 0.291339
vt 0.696881 0.385827
vt 0.696881 0.385827
vt 0.657511 0.464567
vt 0.657511 0.385827
vt 0.696881 0.385827
vt 0.657511 0.385827
vt 0.657511 0.464567
vt 0.657511 0.464567
vt 0.720503 0.464567
vt 0.696881 0.385827
vt 0.822866 0.275591
vt 0.696881 0.385827
vt 0.720503 0.464567
vt 0.720503 0.464567
vt 0.822866 0.401575
vt 0.822866 0.275591
vt 0.854362 0.401575
vt 0.822866 0.275591
vt 0.822866 0.401575
vt 0.822866 0.401575
vt 0.822866 0.275591
vt 0.854362 0.401575
vt 0.901606 0.307087
vt 0.854362 0.401575
vt 0.822866 0.275591
vt 0.822866 0.275591
vt 0.917354 0.196850
vt 0.901606 0.307087
vt 0.933102 0.244094
vt 0.901606 0.307087
vt 0.917354 0.196850
vt 0.917354 0.196850
vt 0.901606 0.307087
vt 0.933102 0.244094
vt 0.342551 0.763780
vt 0.200818 0.732283
vt 0.263811 0.968504
vt 0.185070 0.858268
vt 0.263811 0.968504
vt 0.200818 0.732283
vt 0.200818 0.732283
vt 0.059086 0.669291
vt 0.185070 0.858268
vt 0.200818 0.732283
vt 0.185070 0.858268
vt 0.059086 0.669291
vt 0.059086 0.669291
vt 0.145700 0.496063
vt 0.200818 0.732283
vt 0.185070 0.496063
vt 0.200818 0.732283
vt 0.145700 0.496063
vt 0.145700 0.496063
vt 0.224440 0.370079
vt 0.185070 0.496063
vt 0.145700 0.496063
vt 0.185070 0.496063
vt 0.224440 0.370079
vt 0.224440 0.370079
vt 0.200818 0.307087
vt 0.145700 0.496063
vt 0.129952 0.212598
vt 0.145700 0.496063
vt 0.200818 0.307087
vt 0.870110 0.590551
vt 0.838614 0.496063
vt 0.988220 0.496063
vt 0.870110 0.590551
vt 0.988220 0.496063
vt 0.838614 0.496063
vt 0.838614 0.496063
vt 0.618141 0.496063
vt 0.870110 0.590551
vt 0.460661 0.464567
vt 0.870110 0.590551
vt 0.618141 0.496063
vt 0.618141 0.496063
vt 0.870110 0.590551
vt 0.460661 0.464567
vt 0.421291 0.511811
vt 0.460661 0.464567
vt 0.870110 0.590551
vt 0.870110 0.590551
vt 0.342551 0.763780
vt 0.421291 0.511811
vt 0.334677 0.496063
vt 0.421291 0.511811
vt 0.342551 0.763780
vt 0.342551 0.763780
vt 0.295307 0.637795
vt 0.334677 0.496063
vt 0.003968 0.354331
vt 0.090582 0.354331
vt 0.003968 0.275591
vt 0.051212 0.275591
vt 0.003968 0.275591
vt 0.090582 0.354331
vt 0.090582 0.354331
vt 0.003968 0.275591
vt 0.051212 0.275591
vt 0.051212 0.181102
vt 0.051212 0.275591
vt 0.003968 0.275591
vt 0.003968 0.275591
vt 0.003968 0.086614
vt 0.051212 0.181102
vt 0.051212 0.086614
vt 0.051212 0.181102
vt 0.003968 0.086614
vt 0.003968 0.086614
vt 0.090582 0.007874
vt 0.051212 0.086614
vt 0.003968 0.086614
vt 0.051212 0.086614
vt 0.090582 0.007874
vt 0.090582 0.007874
vt 0.003968 0.007874
vt 0.003968 0.086614
vt 0.003968 0.354331
vt 0.090582 0.354331
vt 0.003968 0.275591
vt 0.051212 0.275591
vt 0.003968 0.275591
vt 0.090582 0.354331
vt 0.090582 0.354331
vt 0.003968 0.275591
vt 0.051212 0.275591
vt 0.051212 0.181102
vt 0.051212 0.275591
vt 0.003968 0.275591
vt 0.003968 0.275591
vt 0.003968 0.086614
vt 0.051212 0.181102
vt 0.051212 0.086614
vt 0.051212 0.181102
vt 0.003968 0.086614
vt 0.003968 0.086614
vt 0.090582 0.007874
vt 0.051212 0.086614
vt 0.003968 0.086614
vt 0.051212 0.086614
vt 0.090582 0.007874
vt 0.090582 0.007874
vt 0.003968 0.007874
vt 0.003968 0.086614
vt 0.003968 0.354331
vt 0.090582 0.354331
vt 0.003968 0.275591
vt 0.051212 0.275591
vt 0.003968 0.275591
vt 0.090582 0.354331
vt 0.090582 0.354331
vt 0.003968 0.275591
vt 0.051212 0.275591
vt 0.051212 0.181102
vt 0.051212 0.275591
vt 0.003968 0.275591
vt 0.003968 0.275591
vt 0.003968 0.086614
vt 0.051212 0.181102
vt 0.051212 0.086614
vt 0.051212 0.181102
vt 0.003968 0.086614
vt 0.003968 0.086614
vt 0.090582 0.007874
vt 0.051212 0.086614
vt 0.003968 0.086614
vt 0.051212 0.086614
vt 0.090582 0.007874
vt 0.090582 0.007874
vt 0.003968 0.007874
vt 0.003968 0.086614
vt 0.003968 0.007874
vt 0.090582 0.007874
vt 0.003968 0.086614
vt 0.051212 0.086614
vt 0.003968 0.086614
vt 0.090582 0.007874
vt 0.090582 0.007874
vt 0.003968 0.086614
vt 0.051212 0.086614
vt 0.051212 0.181102
vt 0.051212 0.086614
vt 0.003968 0.086614
vt 0.003968 0.086614
vt 0.003968 0.275591
vt 0.051212 0.181102
vt 0.051212 0.275591
vt 0.051212 0.181102
vt 0.003968 0.275591
vt 0.003968 0.275591
vt 0.090582 0.354331
vt 0.051212 0.275591
vt 0.003968 0.275591
vt 0.051212 0.275591
vt 0.090582 0.354331
vt 0.090582 0.354331
vt 0.003968 0.354331
vt 0.003968 0.275591
vt 0.696881 0.291339
vt 0.657511 0.385827
vt 0.563023 0.196850
vt 0.563023 0.322835
vt 0.563023 0.196850
vt 0.657511 0.385827
vt 0.657511 0.385827
vt 0.563023 0.196850
vt 0.563023 0.322835
vt 0.500031 0.322835
vt 0.563023 0.322835
vt 0.563023 0.196850
vt 0.563023 0.196850
vt 0.500031 0.228346
vt 0.500031 0.322835
vt 0.563023 0.196850
vt 0.500031 0.322835
vt 0.500031 0.228346
vt 0.500031 0.228346
vt 0.578771 0.118110
vt 0.563023 0.196850
vt 0.696881 0.291339
vt 0.563023 0.196850
vt 0.578771 0.118110
vt 0.988220 0.685039
vt 0.909480 0.685039
vt 0.870110 0.590551
vt 0.791370 0.685039
vt 0.870110 0.590551
vt 0.909480 0.685039
vt 0.909480 0.685039
vt 0.870110 0.590551
vt 0.791370 0.685039
vt 0.681133 0.716535
vt 0.791370 0.685039
vt 0.870110 0.590551
vt 0.870110 0.590551
vt 0.476409 0.795276
vt 0.681133 0.716535
vt 0.870110 0.590551
vt 0.681133 0.716535
vt 0.476409 0.795276
vt 0.476409 0.795276
vt 0.342551 0.763780
vt 0.870110 0.590551
vt 0.287433 0.448819
vt 0.232314 0.401575
vt 0.287433 0.401575
vt 0.287433 0.448819
vt 0.287433 0.401575
vt 0.232314 0.401575
vt 0.232314 0.401575
vt 0.232314 0.448819
vt 0.287433 0.448819
vt 0.287433 0.559055
vt 0.287433 0.448819
vt 0.232314 0.448819
vt 0.232314 0.448819
vt 0.232314 0.559055
vt 0.287433 0.559055
vt 0.287433 0.606299
vt 0.287433 0.559055
vt 0.232314 0.559055
vt 0.232314 0.559055
vt 0.232314 0.606299
vt 0.287433 0.606299
vt 0.287433 0.448819
vt 0.232314 0.401575
vt 0.287433 0.401575
vt 0.287433 0.448819
vt 0.287433 0.401575
vt 0.232314 0.401575
vt 0.232314 0.401575
vt 0.232314 0.448819
vt 0.287433 0.448819
vt 0.287433 0.559055
vt 0.287433 0.448819
vt 0.232314 0.448819
vt 0.232314 0.448819
vt 0.232314 0.559055
vt 0.287433 0.559055
vt 0.287433 0.606299
vt 0.287433 0.559055
vt 0.232314 0.559055
vt 0.232314 0.559055
vt 0.232314 0.606299
vt 0.287433 0.606299
vt 0.901606 0.307087
vt 0.917354 0.196850
vt 0.933102 0.244094
vt 0.901606 0.307087
vt 0.933102 0.244094
vt 0.917354 0.196850
vt 0.917354 0.196850
vt 0.822866 0.275591
vt 0.901606 0.307087
vt 0.854362 0.401575
vt 0.901606 0.307087
vt 0.822866 0.275591
vt 0.822866 0.275591
vt 0.822866 0.401575
vt 0.854362 0.401575
vt 0.822866 0.275591
vt 0.854362 0.401575
vt 0.822866 0.401575
vt 0.822866 0.401575
vt 0.720503 0.464567
vt 0.822866 0.275591
vt 0.720503 0.464567
vt 0.822866 0.275591
vt 0.696881 0.385827
vt 0.696881 0.291339
vt 0.696881 0.385827
vt 0.822866 0.275591
vt 0.822866 0.275591
vt 0.901606 0.007874
vt 0.696881 0.291339
vt 0.578771 0.118110
vt 0.696881 0.291339
vt 0.901606 0.007874
vt 0.901606 0.007874
vt 0.421291 0.007874
vt 0.578771 0.118110
vt 0.437039 0.133858
vt 0.578771 0.118110
vt 0.421291 0.007874
vt 0.421291 0.007874
vt 0.311055 0.007874
vt 0.437039 0.133858
vt 0.137826 0.984252
vt 0.106330 0.889764
vt 0.106330 0.984252
vt 0.137826 0.984252
vt 0.106330 0.984252
vt 0.106330 0.889764
vt 0.106330 0.889764
vt 0.137826 0.826772
vt 0.137826 0.984252
vt 0.106330 0.889764
vt 0.137826 0.984252
vt 0.137826 0.826772
vt 0.137826 0.826772
vt 0.137826 0.984252
vt 0.106330 0.889764
vt 0.106330 0.984252
vt 0.106330 0.889764
vt 0.137826 0.984252
vt 0.657511 0.385827
vt 0.563023 0.196850
vt 0.696881 0.291339
vt 0.578771 0.118110
vt 0.696881 0.291339
vt 0.563023 0.196850
vt 0.563023 0.196850
vt 0.500031 0.228346
vt 0.578771 0.118110
vt 0.437039 0.133858
vt 0.578771 0.118110
vt 0.500031 0.228346
vt 0.500031 0.228346
vt 0.578771 0.118110
vt 0.437039 0.133858
vt 0.421291 0.007874
vt 0.437039 0.133858
vt 0.578771 0.118110
vt 0.232314 0.606299
vt 0.232314 0.559055
vt 0.287433 0.606299
vt 0.287433 0.559055
vt 0.287433 0.606299
vt 0.232314 0.559055
vt 0.232314 0.559055
vt 0.232314 0.448819
vt 0.287433 0.559055
vt 0.287433 0.448819
vt 0.287433 0.559055
vt 0.232314 0.448819
vt 0.232314 0.448819
vt 0.287433 0.401575
vt 0.287433 0.448819
vt 0.232314 0.606299
vt 0.232314 0.559055
vt 0.287433 0.606299
vt 0.287433 0.559055
vt 0.287433 0.606299
vt 0.232314 0.559055
vt 0.232314 0.559055
vt 0.232314 0.448819
vt 0.287433 0.559055
vt 0.287433 0.448819
vt 0.287433 0.559055
vt 0.232314 0.448819
vt 0.232314 0.448819
vt 0.287433 0.401575
vt 0.287433 0.448819
vt 0.232314 0.606299
vt 0.232314 0.559055
vt 0.287433 0.606299
vt 0.287433 0.559055
vt 0.287433 0.606299
vt 0.232314 0.559055
vt 0.232314 0.559055
vt 0.232314 0.448819
vt 0.287433 0.559055
vt 0.287433 0.448819
vt 0.287433 0.559055
vt 0.232314 0.448819
vt 0.232314 0.448819
vt 0.287433 0.401575
vt 0.287433 0.448819
vt 0.287433 0.401575
vt 0.232314 0.448819
vt 0.287433 0.448819
vt 0.287433 0.559055
vt 0.287433 0.448819
vt 0.232314 0.448819
vt 0.232314 0.448819
vt 0.232314 0.559055
vt 0.287433 0.559055
vt 0.287433 0.606299
vt 0.287433 0.559055
vt 0.232314 0.559055
vt 0.232314 0.559055
vt 0.232314 0.606299
vt 0.287433 0.606299
vt 0.287433 0.401575
vt 0.232314 0.448819
vt 0.287433 0.448819
vt 0.287433 0.559055
vt 0.287433 0.448819
vt 0.232314 0.448819
vt 0.232314 0.448819
vt 0.232314 0.559055
vt 0.287433 0.559055
vt 0.287433 0.606299
vt 0.287433 0.559055
vt 0.232314 0.559055
vt 0.232314 0.559055
vt 0.232314 0.606299
vt 0.287433 0.606299
vt 0.232314 0.606299
vt 0.232314 0.559055
vt 0.287433 0.606299
vt 0.287433 0.559055
vt 0.287433 0.606299
vt 0.232314 0.559055
vt 0.232314 0.559055
vt 0.232314 0.448819
vt 0.287433 0.559055
vt 0.287433 0.448819
vt 0.287433 0.559055
vt 0.232314 0.448819
vt 0.232314 0.448819
vt 0.232314 0.401575
vt 0.287433 0.448819
vt 0.287433 0.401575
vt 0.232314 0.448819
vt 0.287433 0.448819
vt 0.287433 0.559055
vt 0.287433 0.448819
vt 0.232314 0.448819
vt 0.232314 0.448819
vt 0.232314 0.559055
vt 0.287433 0.559055
vt 0.287433 0.606299
vt 0.287433 0.559055
vt 0.232314 0.559055
vt 0.232314 0.559055
vt 0.232314 0.606299
vt 0.287433 0.606299
vt 0.287433 0.401575
vt 0.232314 0.448819
vt 0.287433 0.448819
vt 0.287433 0.559055
vt 0.287433 0.448819
vt 0.232314 0.448819
vt 0.232314 0.448819
vt 0.232314 0.559055
vt 0.287433 0.559055
vt 0.287433 0.606299
vt 0.287433 0.559055
vt 0.232314 0.559055
vt 0.232314 0.559055
vt 0.232314 0.606299
vt 0.287433 0.606299
vt 0.232314 0.606299
vt 0.232314 0.559055
vt 0.287433 0.606299
vt 0.287433 0.559055
vt 0.287433 0.606299
vt 0.232314 0.559055
vt 0.232314 0.559055
vt 0.232314 0.448819
vt 0.287433 0.559055
vt 0.287433 0.448819
vt 0.287433 0.559055
vt 0.232314 0.448819
vt 0.232314 0.448819
vt 0.287433 0.401575
vt 0.287433 0.448819
vt 0.232314 0.606299
vt 0.232314 0.559055
vt 0.287433 0.606299
vt 0.287433 0.559055
vt 0.287433 0.606299
vt 0.232314 0.559055
vt 0.232314 0.559055
vt 0.232314 0.448819
vt 0.287433 0.559055
vt 0.287433 0.448819
vt 0.287433 0.559055
vt 0.232314 0.448819
vt 0.232314 0.448819
vt 0.232314 0.401575
vt 0.287433 0.448819
vt 0.090582 0.763780
vt 0.043338 0.763780
vt 0.090582 0.858268
vt 0.043338 0.858268
vt 0.090582 0.858268
vt 0.043338 0.763780
vt 0.043338 0.763780
vt 0.003968 0.685039
vt 0.043338 0.858268
vt 0.003968 0.858268
vt 0.043338 0.858268
vt 0.003968 0.685039
vt 0.854362 0.401575
vt 0.822866 0.275591
vt 0.901606 0.307087
vt 0.917354 0.196850
vt 0.901606 0.307087
vt 0.822866 0.275591
vt 0.822866 0.275591
vt 0.901606 0.007874
vt 0.917354 0.196850
vt 0.940976 0.149606
vt 0.917354 0.196850
vt 0.901606 0.007874
vt 0.090582 0.763780
vt 0.043338 0.763780
vt 0.090582 0.858268
vt 0.043338 0.858268
vt 0.090582 0.858268
vt 0.043338 0.763780
vt 0.043338 0.763780
vt 0.003968 0.685039
vt 0.043338 0.858268
vt 0.003968 0.858268
vt 0.043338 0.858268
vt 0.003968 0.685039
vt 0.696881 0.291339
vt 0.578771 0.118110
vt 0.901606 0.007874
vt 0.421291 0.007874
vt 0.901606 0.007874
vt 0.578771 0.118110
vt 0.578771 0.118110
vt 0.437039 0.133858
vt 0.421291 0.007874
vt 0.311055 0.007874
vt 0.421291 0.007874
vt 0.437039 0.133858
vt 0.200818 0.307087
vt 0.224440 0.370079
vt 0.295307 0.370079
vt 0.200818 0.307087
vt 0.295307 0.370079
vt 0.224440 0.370079
vt 0.224440 0.370079
vt 0.145700 0.496063
vt 0.200818 0.307087
vt 0.051212 0.275591
vt 0.051212 0.181102
vt 0.003968 0.275591
vt 0.003968 0.086614
vt 0.003968 0.275591
vt 0.051212 0.181102
vt 0.051212 0.181102
vt 0.051212 0.086614
vt 0.003968 0.086614
vt 0.287433 0.102362
vt 0.232314 0.055118
vt 0.287433 0.055118
vt 0.287433 0.007874
vt 0.287433 0.055118
vt 0.232314 0.055118
vt 0.232314 0.055118
vt 0.232314 0.007874
vt 0.287433 0.007874
vt 0.106330 0.984252
vt 0.051212 0.889764
vt 0.106330 0.889764
vt 0.106330 0.984252
vt 0.106330 0.889764
vt 0.051212 0.889764
vt 0.051212 0.889764
vt 0.051212 0.984252
vt 0.106330 0.984252
vt 0.003968 0.984252
vt 0.051212 0.889764
vt 0.003968 0.889764
vt 0.003968 0.984252
vt 0.003968 0.889764
vt 0.051212 0.889764
vt 0.051212 0.889764
vt 0.051212 0.984252
vt 0.003968 0.984252
vt 0.003968 0.354331
vt 0.090582 0.354331
vt 0.003968 0.275591
vt 0.051212 0.275591
vt 0.003968 0.275591
vt 0.090582 0.354331
vt 0.090582 0.354331
vt 0.003968 0.275591
vt 0.051212 0.275591
vt 0.287433 0.007874
vt 0.232314 0.055118
vt 0.232314 0.007874
vt 0.287433 0.007874
vt 0.232314 0.007874
vt 0.232314 0.055118
vt 0.232314 0.055118
vt 0.287433 0.055118
vt 0.287433 0.007874
vt 0.051212 0.984252
vt 0.051212 0.889764
vt 0.106330 0.984252
vt 0.106330 0.889764
vt 0.106330 0.984252
vt 0.051212 0.889764
vt 0.051212 0.889764
vt 0.106330 0.984252
vt 0.106330 0.889764
vt 0.003968 0.984252
vt 0.051212 0.889764
vt 0.003968 0.889764
vt 0.003968 0.984252
vt 0.003968 0.889764
vt 0.051212 0.889764
vt 0.051212 0.889764
vt 0.051212 0.984252
vt 0.003968 0.984252
vt 0.003968 0.354331
vt 0.090582 0.354331
vt 0.003968 0.275591
vt 0.051212 0.275591
vt 0.003968 0.275591
vt 0.090582 0.354331
vt 0.090582 0.354331
vt 0.003968 0.275591
vt 0.051212 0.275591
vt 0.003968 0.685039
vt 0.043338 0.763780
vt 0.043338 0.858268
vt 0.090582 0.858268
vt 0.043338 0.858268
vt 0.043338 0.763780
vt 0.043338 0.763780
vt 0.090582 0.763780
vt 0.090582 0.858268
vt 0.696881 0.385827
vt 0.822866 0.275591
vt 0.696881 0.291339
vt 0.901606 0.007874
vt 0.696881 0.291339
vt 0.822866 0.275591
vt 0.822866 0.275591
vt 0.917354 0.196850
vt 0.901606 0.007874
vt 0.003968 0.685039
vt 0.043338 0.763780
vt 0.043338 0.858268
vt 0.090582 0.858268
vt 0.043338 0.858268
vt 0.043338 0.763780
vt 0.043338 0.763780
vt 0.090582 0.763780
vt 0.090582 0.858268
vt 0.232314 0.007874
vt 0.232314 0.055118
vt 0.287433 0.007874
vt 0.287433 0.055118
vt 0.287433 0.007874
vt 0.232314 0.055118
vt 0.232314 0.055118
vt 0.287433 0.102362
vt 0.287433 0.055118
vt 0.822866 0.401575
vt 0.720503 0.464567
vt 0.822866 0.275591
vt 0.696881 0.385827
vt 0.822866 0.275591
vt 0.720503 0.464567
vt 0.720503 0.464567
vt 0.657511 0.464567
vt 0.696881 0.385827
vt 0.051212 0.275591
vt 0.051212 0.181102
vt 0.003968 0.275591
vt 0.003968 0.086614
vt 0.003968 0.275591
vt 0.051212 0.181102
vt 0.051212 0.181102
vt 0.051212 0.086614
vt 0.003968 0.086614
vt 0.287433 0.055118
vt 0.232314 0.055118
vt 0.287433 0.102362
vt 0.232314 0.102362
vt 0.287433 0.102362
vt 0.232314 0.055118
vt 0.232314 0.055118
vt 0.287433 0.102362
vt 0.232314 0.102362
vt 0.051212 0.086614
vt 0.051212 0.181102
vt 0.003968 0.086614
vt 0.003968 0.275591
vt 0.003968 0.086614
vt 0.051212 0.181102
vt 0.051212 0.181102
vt 0.051212 0.275591
vt 0.003968 0.275591
vt 0.051212 0.275591
vt 0.051212 0.181102
vt 0.003968 0.275591
vt 0.003968 0.086614
vt 0.003968 0.275591
vt 0.051212 0.181102
vt 0.051212 0.181102
vt 0.051212 0.086614
vt 0.003968 0.086614
vt 0.429165 0.307087
vt 0.484283 0.307087
vt 0.429165 0.196850
vt 0.484283 0.307087
vt 0.429165 0.307087
vt 0.429165 0.196850
vt 0.555149 0.874016
vt 0.681133 0.716535
vt 0.500031 0.842520
vt 0.681133 0.716535
vt 0.555149 0.874016
vt 0.500031 0.842520
vt 0.838614 0.763780
vt 0.909480 0.685039
vt 0.807118 0.716535
vt 0.909480 0.685039
vt 0.838614 0.763780
vt 0.807118 0.716535
vt 0.468535 0.937008
vt 0.555149 0.874016
vt 0.500031 0.842520
vt 0.555149 0.874016
vt 0.468535 0.937008
vt 0.500031 0.842520
vt 0.240188 0.165354
vt 0.208692 0.102362
vt 0.129952 0.212598
vt 0.208692 0.102362
vt 0.240188 0.165354
vt 0.129952 0.212598
vt 0.972472 0.401575
vt 0.956724 0.275591
vt 0.996094 0.007874
vt 0.956724 0.275591
vt 0.972472 0.401575
vt 0.996094 0.007874
vt 0.003968 0.448819
vt 0.059086 0.669291
vt 0.051212 0.496063
vt 0.059086 0.669291
vt 0.003968 0.448819
vt 0.051212 0.496063
vt 0.476409 0.795276
vt 0.500031 0.842520
vt 0.681133 0.716535
vt 0.500031 0.842520
vt 0.476409 0.795276
vt 0.681133 0.716535
vt 0.996094 0.448819
vt 0.972472 0.401575
vt 0.996094 0.007874
vt 0.972472 0.401575
vt 0.996094 0.448819
vt 0.996094 0.007874
vt 0.783496 0.763780
vt 0.838614 0.763780
vt 0.807118 0.716535
vt 0.838614 0.763780
vt 0.783496 0.763780
vt 0.807118 0.716535
vt 0.129952 0.212598
vt 0.216566 0.007874
vt 0.208692 0.102362
vt 0.216566 0.007874
vt 0.129952 0.212598
vt 0.208692 0.102362
vt 0.153574 0.984252
vt 0.263811 0.968504
vt 0.192944 0.921260
vt 0.263811 0.968504
vt 0.153574 0.984252
vt 0.192944 0.921260
vt 0.791370 0.685039
vt 0.807118 0.716535
vt 0.909480 0.685039
vt 0.807118 0.716535
vt 0.791370 0.685039
vt 0.909480 0.685039
vt 0.429165 0.307087
vt 0.429165 0.196850
vt 0.342551 0.165354
vt 0.429165 0.196850
vt 0.429165 0.307087
vt 0.342551 0.165354
vt 0.185070 0.858268
vt 0.192944 0.921260
vt 0.263811 0.968504
vt 0.192944 0.921260
vt 0.185070 0.858268
vt 0.263811 0.968504
vt 0.940976 0.448819
vt 0.972472 0.401575
vt 0.956724 0.275591
vt 0.972472 0.401575
vt 0.940976 0.448819
vt 0.956724 0.275591
vt 0.413417 0.370079
vt 0.429165 0.307087
vt 0.342551 0.165354
vt 0.429165 0.307087
vt 0.413417 0.370079
vt 0.342551 0.165354
vt 0.051212 0.496063
vt 0.059086 0.669291
vt 0.098456 0.433071
vt 0.059086 0.669291
vt 0.051212 0.496063
vt 0.098456 0.433071
vn 1.0000 0.0000 0.0000
vn -1.0000 -0.0000 -0.0000
vn -0.7045 0.7064 0.0686
vn -0.7058 0.7084 0.0000
vn -0.7923 0.0549 0.6077
vn 0.7923 0.0549 0.6077
vn -0.7860 -0.1779 0.5921
vn -0.7893 -0.2182 -0.5739
vn -0.0000 -0.9446 0.3281
vn 0.0000 -0.9446 -0.3281
vn -0.9183 -0.2497 0.3072
vn -0.9545 -0.2747 0.1156
vn -0.7420 -0.4927 0.4545
vn 0.7420 -0.4927 0.4545
vn 0.7213 -0.5844 0.3717
vn 0.8369 -0.3449 0.4251
vn -0.7420 -0.4927 -0.4545
vn 0.7420 -0.4927 -0.4545
vn -0.7923 0.0549 -0.6077
vn 0.7923 0.0549 -0.6077
vn -0.7122 0.1436 -0.6872
vn -0.7122 0.1436 0.6872
vn -0.6986 -0.4202 -0.5791
vn -0.6220 -0.7774 -0.0935
vn -0.6743 -0.4135 0.6118
vn 0.6743 -0.4135 0.6118
vn 0.9204 0.0002 0.3910
vn 0.9719 0.0097 -0.2351
vn 0.9539 0.2888 -0.0817
vn 0.9336 -0.0325 -0.3567
vn -0.8318 0.0302 0.5542
vn -0.9236 -0.0096 -0.3833
vn -0.9507 0.1805 0.2521
vn -0.8300 -0.0939 0.5499
vn 0.9417 -0.2278 -0.2476
vn -0.5174 0.0599 0.8537
vn -0.7305 -0.2100 0.6498
vn 0.9125 -0.3883 0.1291
vn 0.9192 -0.3340 -0.2086
vn -0.9125 -0.3883 -0.1291
vn -0.9192 -0.3340 0.2086
vn -0.7305 -0.2100 -0.6498
vn 0.7335 -0.2056 0.6478
vn -0.9183 -0.2497 -0.3072
vn -0.9407 0.3389 -0.0145
vn -0.9282 0.0448 0.3695
vn 0.9270 -0.1073 -0.3595
vn 0.9407 0.3389 0.0145
vn 0.9270 -0.1073 0.3595
vn 0.9353 0.2830 0.2122
vn 0.9282 0.0448 -0.3695
vn 0.9353 0.2830 -0.2122
vn 0.9545 -0.2747 -0.1156
vn 0.9673 0.0433 -0.2498
vn 0.9721 0.0106 -0.2344
vn 0.8318 0.0302 0.5542
vn 0.5651 0.7137 0.4138
vn -0.5651 0.7137 0.4138
vn -0.9309 0.2355 0.2793
vn -0.9351 -0.2169 -0.2803
vn -0.9163 -0.2824 -0.2840
vn 0.9163 -0.2824 -0.2840
vn 0.8403 -0.0492 -0.5399
vn 0.9026 -0.0646 0.4256
vn 0.9633 -0.1015 0.2486
vn -0.9633 -0.1015 0.2486
vn -0.9856 0.0153 0.1682
vn -0.9336 -0.0325 -0.3567
vn -0.9113 -0.3568 -0.2054
vn 0.9113 -0.3568 -0.2054
vn 0.8580 -0.4675 -0.2127
vn 0.9860 0.1516 0.0690
vn 0.9538 0.2896 -0.0804
vn -0.9538 0.2896 -0.0804
vn -0.9539 0.2888 -0.0817
vn -0.9842 0.1393 -0.1091
vn -0.9673 0.0433 -0.2498
vn -0.9721 0.0106 -0.2344
vn -0.9719 0.0097 -0.2351
vn -0.9758 -0.1822 -0.1207
vn 0.9758 -0.1822 -0.1207
vn 0.9351 -0.2169 -0.2803
vn 0.9309 0.2355 0.2793
vn 0.9691 0.2063 -0.1351
vn 0.9643 0.2290 -0.1331
vn 0.9540 0.0000 -0.2997
vn -0.9540 -0.0000 -0.2997
vn -0.5527 0.7543 0.3544
vn -0.5973 0.7823 0.1768
vn 0.5973 0.7823 0.1768
vn 0.7305 -0.2100 -0.6498
vn 0.6137 0.3960 -0.6831
vn -0.6137 0.3960 -0.6831
vn -0.7905 0.2024 -0.5781
vn -0.6779 0.2264 0.6994
vn -0.8107 0.2729 0.5180
vn 0.8107 0.2729 0.5180
vn 0.5537 0.7537 -0.3541
vn 0.7905 0.2024 0.5781
vn 0.7058 0.7084 0.0000
vn 0.7045 0.7064 0.0686
vn 0.5937 -0.4231 0.6845
vn -0.5937 -0.4231 0.6845
vn -0.5882 -0.3421 0.7328
vn -0.8369 -0.3449 -0.4251
vn 0.8369 -0.3449 -0.4251
vn 0.7213 -0.5844 -0.3717
vn 0.7045 0.7064 -0.0686
vn -0.7045 0.7064 -0.0686
vn -0.5937 -0.4231 -0.6845
vn -0.5882 -0.3421 -0.7328
vn -0.7335 -0.2056 -0.6478
vn -0.7456 0.0816 -0.6614
vn 0.7456 0.0816 -0.6614
vn 0.7893 -0.2182 -0.5739
vn 0.7860 -0.1779 0.5921
vn 0.6636 -0.6574 0.3571
vn -0.6636 -0.6574 0.3571
vn 0.9856 0.0153 0.1682
vn 0.9507 0.1805 0.2521
vn 0.9498 0.1877 0.2502
vn -0.9498 0.1877 0.2502
vn -0.9860 0.1516 0.0690
vn -0.8580 -0.4675 -0.2127
vn -0.8549 -0.4499 0.2582
vn 0.8549 -0.4499 0.2582
vn 0.8889 -0.4104 0.2034
vn 0.9842 0.1393 -0.1091
vn -0.9248 -0.0044 -0.3803
vn 0.9248 -0.0044 -0.3803
vn 0.9236 -0.0096 -0.3833
vn 0.8360 -0.0504 -0.5465
vn -0.8360 -0.0504 -0.5465
vn -0.8403 -0.0492 -0.5399
vn -0.9691 0.2063 -0.1351
vn -0.9643 0.2290 -0.1331
vn -0.9192 -0.3340 -0.2086
vn -0.9221 -0.3265 -0.2076
vn 0.9221 -0.3265 -0.2076
vn 0.9493 -0.0956 -0.2994
vn 0.9605 -0.1240 -0.2490
vn 0.9481 -0.1862 -0.2576
vn 0.8855 0.0994 -0.4539
vn -0.8855 0.0994 -0.4539
vn -0.9282 0.0448 -0.3695
vn 0.9192 -0.3340 0.2086
vn 0.9221 -0.3265 0.2076
vn -0.9221 -0.3265 0.2076
vn -0.9493 -0.0956 0.2994
vn -0.9605 -0.1240 0.2490
vn -0.9481 -0.1862 0.2576
vn -0.8855 0.0994 0.4539
vn 0.8855 0.0994 0.4539
vn 0.9282 0.0448 0.3695
vn -0.9270 -0.1073 -0.3595
vn -0.8961 -0.1579 -0.4147
vn 0.8961 -0.1579 -0.4147
vn 0.9418 0.1793 -0.2844
vn 0.9589 0.1012 -0.2652
vn 0.9503 0.0800 -0.3009
vn 0.9270 0.3065 -0.2160
vn -0.9270 0.3065 -0.2160
vn -0.9353 0.2830 -0.2122
vn -0.9353 0.2830 0.2122
vn -0.9270 0.3065 0.2160
vn 0.9270 0.3065 0.2160
vn 0.9503 0.0800 0.3009
vn 0.9589 0.1012 0.2652
vn 0.9418 0.1793 0.2844
vn 0.8961 -0.1579 0.4147
vn -0.8961 -0.1579 0.4147
vn -0.9270 -0.1073 0.3595
vn -0.7905 0.2024 0.5781
vn -0.6137 0.3960 0.6831
vn 0.6137 0.3960 0.6831
vn 0.7305 -0.2100 0.6498
vn 0.5982 0.7818 -0.1758
vn -0.5982 0.7818 -0.1758
vn -0.5537 0.7537 -0.3541
vn -0.9204 0.0002 0.3910
vn -0.9175 0.0101 0.3977
vn 0.9175 0.0101 0.3977
vn 0.8300 -0.0939 0.5499
vn 0.7872 -0.1163 0.6057
vn -0.7872 -0.1163 0.6057
vn -0.9026 -0.0646 0.4256
vn -0.6389 0.4852 -0.5970
vn -0.6389 0.4852 0.5970
vn -0.6346 0.4891 0.5984
vn -0.7406 0.6193 0.2605
vn -0.7394 0.6210 0.2602
vn -0.6279 0.7550 -0.1891
vn -0.7758 0.6282 -0.0594
vn 0.6389 0.4852 0.5970
vn 0.6389 0.4852 -0.5970
vn 0.6346 0.4891 -0.5984
vn 0.7406 0.6193 -0.2605
vn 0.7394 0.6210 -0.2602
vn 0.6279 0.7550 0.1891
vn 0.7758 0.6282 0.0594
vn -0.6636 -0.6574 -0.3571
vn 0.6636 -0.6574 -0.3571
vn 0.7860 -0.1779 -0.5921
vn 0.7893 -0.2182 0.5739
vn 0.7456 0.0816 0.6614
vn -0.7456 0.0816 0.6614
vn -0.7335 -0.2056 0.6478
vn 0.5882 -0.3421 0.7328
vn 0.6779 0.2264 0.6994
vn 0.7122 0.1436 0.6872
vn 0.5174 0.0599 -0.8537
vn -0.5174 0.0599 -0.8537
vn -0.9417 -0.2278 -0.2476
vn -0.9417 -0.2278 0.2476
vn 0.9417 -0.2278 0.2476
vn 0.5174 0.0599 0.8537
vn 0.7905 0.2024 -0.5781
vn 0.5527 0.7543 0.3544
vn 0.8108 0.2729 -0.5178
vn -0.8108 0.2729 -0.5178
vn -0.6779 0.2264 -0.6994
vn -0.7032 0.5657 -0.4307
vn -0.7374 0.5187 -0.4326
vn -0.7744 0.2834 -0.5657
vn -0.7916 0.2655 -0.5503
vn -0.6996 -0.0144 -0.7144
vn 0.7032 0.5657 0.4307
vn 0.7374 0.5187 0.4326
vn 0.7744 0.2834 0.5657
vn 0.7916 0.2655 0.5503
vn 0.6996 -0.0144 0.7144
vn -0.5858 0.0908 -0.8054
vn -0.7216 -0.0402 -0.6912
vn -0.7469 -0.2298 -0.6240
vn -0.7679 -0.2295 -0.5980
vn -0.7287 -0.5111 -0.4558
vn -0.7287 -0.5111 0.4558
vn -0.7679 -0.2295 0.5980
vn -0.7469 -0.2298 0.6240
vn -0.7216 -0.0402 0.6912
vn -0.5858 0.0908 0.8054
vn -0.6996 -0.0144 0.7144
vn -0.7916 0.2655 0.5503
vn -0.7744 0.2834 0.5657
vn -0.7374 0.5187 0.4326
vn -0.7032 0.5657 0.4307
vn -0.7758 0.6282 0.0594
vn -0.6279 0.7550 0.1891
vn -0.7394 0.6210 -0.2602
vn -0.7406 0.6193 -0.2605
vn -0.6346 0.4891 -0.5984
vn 0.6996 -0.0144 -0.7144
vn 0.7916 0.2655 -0.5503
vn 0.7744 0.2834 -0.5657
vn 0.7374 0.5187 -0.4326
vn 0.7032 0.5657 -0.4307
vn 0.7287 -0.5111 -0.4558
vn 0.7679 -0.2295 -0.5980
vn 0.7469 -0.2298 -0.6240
vn 0.7216 -0.0402 -0.6912
vn 0.5858 0.0908 -0.8054
vn 0.5858 0.0908 0.8054
vn 0.7216 -0.0402 0.6912
vn 0.7469 -0.2298 0.6240
vn 0.7679 -0.2295 0.5980
vn 0.7287 -0.5111 0.4558
vn 0.7758 0.6282 -0.0594
vn 0.6279 0.7550 -0.1891
vn 0.7394 0.6210 0.2602
vn 0.7406 0.6193 0.2605
vn 0.6346 0.4891 0.5984
vn -0.9325 0.2839 -0.2233
vn -0.9491 0.1850 -0.2550
vn -0.8548 0.5040 0.1234
vn -0.9407 0.3389 0.0145
vn -0.7893 -0.2182 0.5739
vn -0.7860 -0.1779 -0.5921
vn -0.7213 -0.5844 0.3717
vn -0.8369 -0.3449 0.4251
vn 0.9325 0.2839 0.2233
vn 0.9491 0.1850 0.2550
vn 0.8548 0.5040 -0.1234
vn 0.9407 0.3389 -0.0145
vn 0.6779 0.2264 -0.6994
vn 0.7122 0.1436 -0.6872
vn 0.8762 0.0000 0.4819
vn -0.8762 -0.0000 0.4819
vn -0.8889 -0.4104 0.2034
vn -0.9418 0.1793 -0.2844
vn -0.9589 0.1012 -0.2652
vn -0.9503 0.0800 -0.3009
vn 0.6986 -0.4202 0.5791
vn 0.6220 -0.7774 0.0935
vn 0.5842 -0.8087 0.0682
vn -0.8982 -0.3194 -0.3020
vn 0.8982 -0.3194 -0.3020
vn 0.9183 -0.2497 -0.3072
vn 0.9562 -0.2714 -0.1093
vn -0.9562 -0.2714 -0.1093
vn -0.9545 -0.2747 -0.1156
vn -0.9125 -0.3883 0.1291
vn -0.9228 -0.3688 0.1120
vn 0.9228 -0.3688 0.1120
vn -0.5842 -0.8087 -0.0682
vn 0.5842 -0.8087 -0.0682
vn 0.6220 -0.7774 -0.0935
vn 0.9183 -0.2497 0.3072
vn 0.8982 -0.3194 0.3020
vn -0.8982 -0.3194 0.3020
vn -0.9562 -0.2714 0.1093
vn 0.9562 -0.2714 0.1093
vn 0.9545 -0.2747 0.1156
vn 0.9125 -0.3883 -0.1291
vn 0.9228 -0.3688 -0.1120
vn -0.9228 -0.3688 -0.1120
vn 0.8548 0.5040 0.1234
vn 0.9491 0.1850 -0.2550
vn 0.9325 0.2839 -0.2233
vn -0.7213 -0.5844 -0.3717
vn -0.8548 0.5040 -0.1234
vn -0.9491 0.1850 0.2550
vn -0.9325 0.2839 0.2233
vn -0.5842 -0.8087 0.0682
vn -0.6220 -0.7774 0.0935
vn -0.6986 -0.4202 0.5791
vn 0.7335 -0.2056 -0.6478
vn 0.5882 -0.3421 -0.7328
vn 0.5937 -0.4231 -0.6845
vn -0.9493 -0.0956 -0.2994
vn -0.9605 -0.1240 -0.2490
vn -0.9481 -0.1862 -0.2576
vn 0.6986 -0.4202 -0.5791
vn 0.6743 -0.4135 -0.6118
vn -0.6743 -0.4135 -0.6118
vn -0.9503 0.0800 0.3009
vn -0.9589 0.1012 0.2652
vn -0.9418 0.1793 0.2844
vn 0.9493 -0.0956 0.2994
vn 0.9605 -0.1240 0.2490
vn 0.9481 -0.1862 0.2576
o base
usemtl Brush.039
f 1/1/1 2/2/1 3/3/1
f 4/4/2 5/5/2 6/6/2
f 7/7/1 8/8/1 9/9/1
f 10/10/2 11/11/2 12/12/2
f 13/13/1 14/14/1 15/15/1
f 16/16/2 17/17/2 18/18/2
f 19/19/1 20/20/1 21/21/1
f 22/22/2 23/23/2 24/24/2
f 25/25/1 26/26/1 27/27/1
f 28/28/2 29/29/2 30/30/2
f 31/31/1 32/32/1 33/33/1
f 34/34/2 35/35/2 36/36/2
f 37/37/2 38/38/2 39/39/2
f 40/40/1 41/41/1 42/42/1
f 43/43/3 44/44/3 45/45/3
f 46/46/4 47/47/4 48/48/4
f 49/49/5 50/50/5 51/51/5
f 52/52/6 53/53/6 54/54/6
f 55/55/7 56/56/7 57/57/7
f 58/58/8 59/59/8 60/60/8
f 61/61/9 62/62/9 63/63/9
f 64/64/10 65/65/10 66/66/10
f 67/67/11 68/68/11 69/69/11
f 70/70/12 71/71/12 72/72/12
f 73/73/13 74/74/13 75/75/13
f 76/76/14 77/77/14 78/78/14
f 79/79/15 80/80/15 81/81/15
f 82/82/16 83/83/16 84/84/16
f 85/85/17 86/86/17 87/87/17
f 88/88/18 89/89/18 90/90/18
f 91/91/19 92/92/19 93/93/19
f 94/94/20 95/95/20 96/96/20
f 97/97/21 98/98/21 99/99/21
f 100/100/22 101/101/22 102/102/22
f 103/103/23 104/104/23 105/105/23
f 106/106/24 107/107/24 108/108/24
f 109/109/25 110/110/25 111/111/25
f 112/112/26 113/113/26 114/114/26
f 115/115/27 116/116/27 117/117/27
f 118/118/28 119/119/28 120/120/28
f 121/121/29 122/122/29 123/123/29
f 124/124/30 125/125/30 126/126/30
f 127/127/31 128/128/31 129/129/31
f 130/130/32 131/131/32 132/132/32
f 133/133/33 134/134/33 135/135/33
f 136/136/34 137/137/34 138/138/34
f 139/139/35 140/140/35 141/141/35
f 142/142/36 143/143/36 144/144/36
f 145/145/37 146/146/37 147/147/37
f 148/148/38 149/149/38 150/150/38
f 151/151/39 152/152/39 153/153/39
f 154/154/40 155/155/40 156/156/40
f 157/157/41 158/158/41 159/159/41
f 160/160/4 161/161/4 162/162/4
f 163/163/42 164/164/42 165/165/42
f 166/166/43 167/167/43 168/168/43
f 169/169/44 170/170/44 171/171/44
f 172/172/45 173/173/45 174/174/45
f 175/175/46 176/176/46 177/177/46
f 178/178/47 179/179/47 180/180/47
f 181/181/48 182/182/48 183/183/48
f 184/184/49 185/185/49 186/186/49
f 187/187/50 188/188/50 189/189/50
f 190/190/51 191/191/51 192/192/51
f 193/193/52 194/194/52 195/195/52
f 196/196/53 197/197/53 198/198/53
f 199/199/54 200/200/54 201/201/54
f 202/202/55 203/203/55 204/204/55
f 205/205/56 206/206/56 207/207/56
f 208/208/57 209/209/57 210/210/57
f 211/211/58 212/212/58 213/213/58
f 214/214/59 215/215/59 216/216/59
f 217/217/60 218/218/60 219/219/60
f 220/220/61 221/221/61 222/222/61
f 223/223/62 224/224/62 225/225/62
f 226/226/63 227/227/63 228/228/63
f 229/229/1 230/230/1 231/231/1
f 232/232/64 233/233/64 234/234/64
f 235/235/65 236/236/65 237/237/65
f 238/238/66 239/239/66 240/240/66
f 241/241/67 242/242/67 243/243/67
f 244/244/68 245/245/68 246/246/68
f 247/247/69 248/248/69 249/249/69
f 250/250/70 251/251/70 252/252/70
f 253/253/71 254/254/71 255/255/71
f 256/256/72 257/257/72 258/258/72
f 259/259/73 260/260/73 261/261/73
f 262/262/74 263/263/74 264/264/74
f 265/265/75 266/266/75 267/267/75
f 268/268/76 269/269/76 270/270/76
f 271/271/77 272/272/77 273/273/77
f 274/274/78 275/275/78 276/276/78
f 277/277/79 278/278/79 279/279/79
f 280/280/80 281/281/80 282/282/80
f 283/283/81 284/284/81 285/285/81
f 286/286/82 287/287/82 288/288/82
f 289/289/83 290/290/83 291/291/83
f 292/292/84 293/293/84 294/294/84
f 295/295/85 296/296/85 297/297/85
f 298/298/86 299/299/86 300/300/86
f 301/301/87 302/302/87 303/303/87
f 304/304/88 305/305/88 306/306/88
f 307/307/89 308/308/89 309/309/89
f 310/310/90 311/311/90 312/312/90
f 313/313/91 314/314/91 315/315/91
f 316/316/92 317/317/92 318/318/92
f 319/319/93 320/320/93 321/321/93
f 322/322/94 323/323/94 324/324/94
f 325/325/2 326/326/2 327/327/2
f 328/328/2 329/329/2 330/330/2
f 331/331/2 332/332/2 333/333/2
f 334/334/2 335/335/2 336/336/2
f 337/337/95 338/338/95 339/339/95
f 340/340/96 341/341/96 342/342/96
f 343/343/97 344/344/97 345/345/97
f 346/346/98 347/347/98 348/348/98
f 349/349/1 350/350/1 351/351/1
f 352/352/99 353/353/99 354/354/99
f 355/355/100 356/356/100 357/357/100
f 358/358/101 359/359/101 360/360/101
f 361/361/102 362/362/102 363/363/102
f 364/364/103 365/365/103 366/366/103
f 367/367/104 368/368/104 369/369/104
f 370/370/2 371/371/2 372/372/2
f 373/373/2 374/374/2 375/375/2
f 376/376/2 377/377/2 378/378/2
f 379/379/105 380/380/105 381/381/105
f 382/382/106 383/383/106 384/384/106
f 385/385/107 386/386/107 387/387/107
f 388/388/1 389/389/1 390/390/1
f 391/391/1 392/392/1 393/393/1
f 394/394/100 395/395/100 396/396/100
f 397/397/108 398/398/108 399/399/108
f 400/400/109 401/401/109 402/402/109
f 403/403/110 404/404/110 405/405/110
f 406/406/111 407/407/111 408/408/111
f 409/409/112 410/410/112 411/411/112
f 412/412/113 413/413/113 414/414/113
f 415/415/114 416/416/114 417/417/114
f 418/418/115 419/419/115 420/420/115
f 421/421/116 422/422/116 423/423/116
f 424/424/117 425/425/117 426/426/117
f 427/427/118 428/428/118 429/429/118
f 430/430/119 431/431/119 432/432/119
f 433/433/120 434/434/120 435/435/120
f 436/436/121 437/437/121 438/438/121
f 439/439/122 440/440/122 441/441/122
f 442/442/123 443/443/123 444/444/123
f 445/445/124 446/446/124 447/447/124
f 448/448/125 449/449/125 450/450/125
f 451/451/126 452/452/126 453/453/126
f 454/454/127 455/455/127 456/456/127
f 457/457/128 458/458/128 459/459/128
f 460/460/129 461/461/129 462/462/129
f 463/463/130 464/464/130 465/465/130
f 466/466/131 467/467/131 468/468/131
f 469/469/132 470/470/132 471/471/132
f 472/472/133 473/473/133 474/474/133
f 475/475/134 476/476/134 477/477/134
f 478/478/2 479/479/2 480/480/2
f 481/481/135 482/482/135 483/483/135
f 484/484/136 485/485/136 486/486/136
f 487/487/137 488/488/137 489/489/137
f 490/490/138 491/491/138 492/492/138
f 493/493/139 494/494/139 495/495/139
f 496/496/140 497/497/140 498/498/140
f 499/499/141 500/500/141 501/501/141
f 502/502/142 503/503/142 504/504/142
f 505/505/143 506/506/143 507/507/143
f 508/508/144 509/509/144 510/510/144
f 511/511/145 512/512/145 513/513/145
f 514/514/146 515/515/146 516/516/146
f 517/517/147 518/518/147 519/519/147
f 520/520/148 521/521/148 522/522/148
f 523/523/149 524/524/149 525/525/149
f 526/526/150 527/527/150 528/528/150
f 529/529/151 530/530/151 531/531/151
f 532/532/152 533/533/152 534/534/152
f 535/535/153 536/536/153 537/537/153
f 538/538/154 539/539/154 540/540/154
f 541/541/155 542/542/155 543/543/155
f 544/544/156 545/545/156 546/546/156
f 547/547/157 548/548/157 549/549/157
f 550/550/158 551/551/158 552/552/158
f 553/553/159 554/554/159 555/555/159
f 556/556/160 557/557/160 558/558/160
f 559/559/161 560/560/161 561/561/161
f 562/562/162 563/563/162 564/564/162
f 565/565/163 566/566/163 567/567/163
f 568/568/164 569/569/164 570/570/164
f 571/571/165 572/572/165 573/573/165
f 574/574/166 575/575/166 576/576/166
f 577/577/167 578/578/167 579/579/167
f 580/580/168 581/581/168 582/582/168
f 583/583/169 584/584/169 585/585/169
f 586/586/170 587/587/170 588/588/170
f 589/589/171 590/590/171 591/591/171
f 592/592/172 593/593/172 594/594/172
f 595/595/173 596/596/173 597/597/173
f 598/598/174 599/599/174 600/600/174
f 601/601/175 602/602/175 603/603/175
f 604/604/176 605/605/176 606/606/176
f 607/607/177 608/608/177 609/609/177
f 610/610/178 611/611/178 612/612/178
f 613/613/179 614/614/179 615/615/179
f 616/616/2 617/617/2 618/618/2
f 619/619/180 620/620/180 621/621/180
f 622/622/181 623/623/181 624/624/181
f 625/625/182 626/626/182 627/627/182
f 628/628/183 629/629/183 630/630/183
f 631/631/184 632/632/184 633/633/184
f 634/634/185 635/635/185 636/636/185
f 637/637/186 638/638/186 639/639/186
f 640/640/187 641/641/187 642/642/187
f 643/643/188 644/644/188 645/645/188
f 646/646/189 647/647/189 648/648/189
f 649/649/190 650/650/190 651/651/190
f 652/652/191 653/653/191 654/654/191
f 655/655/192 656/656/192 657/657/192
f 658/658/193 659/659/193 660/660/193
f 661/661/194 662/662/194 663/663/194
f 664/664/195 665/665/195 666/666/195
f 667/667/196 668/668/196 669/669/196
f 670/670/197 671/671/197 672/672/197
f 673/673/198 674/674/198 675/675/198
f 676/676/199 677/677/199 678/678/199
f 679/679/200 680/680/200 681/681/200
f 682/682/201 683/683/201 684/684/201
f 685/685/202 686/686/202 687/687/202
f 688/688/203 689/689/203 690/690/203
f 691/691/204 692/692/204 693/693/204
f 694/694/205 695/695/205 696/696/205
f 697/697/206 698/698/206 699/699/206
f 700/700/207 701/701/207 702/702/207
f 703/703/208 704/704/208 705/705/208
f 706/706/1 707/707/1 708/708/1
f 709/709/1 710/710/1 711/711/1
f 712/712/1 713/713/1 714/714/1
f 715/715/1 716/716/1 717/717/1
f 718/718/209 719/719/209 720/720/209
f 721/721/210 722/722/210 723/723/210
f 724/724/211 725/725/211 726/726/211
f 727/727/212 728/728/212 729/729/212
f 730/730/213 731/731/213 732/732/213
f 733/733/214 734/734/214 735/735/214
f 736/736/215 737/737/215 738/738/215
f 739/739/216 740/740/216 741/741/216
f 742/742/217 743/743/217 744/744/217
f 745/745/1 746/746/1 747/747/1
f 748/748/218 749/749/218 750/750/218
f 751/751/219 752/752/219 753/753/219
f 754/754/220 755/755/220 756/756/220
f 757/757/221 758/758/221 759/759/221
f 760/760/222 761/761/222 762/762/222
f 763/763/223 764/764/223 765/765/223
f 766/766/224 767/767/224 768/768/224
f 769/769/225 770/770/225 771/771/225
f 772/772/226 773/773/226 774/774/226
f 775/775/227 776/776/227 777/777/227
f 778/778/228 779/779/228 780/780/228
f 781/781/229 782/782/229 783/783/229
f 784/784/230 785/785/230 786/786/230
f 787/787/231 788/788/231 789/789/231
f 790/790/232 791/791/232 792/792/232
f 793/793/233 794/794/233 795/795/233
f 796/796/234 797/797/234 798/798/234
f 799/799/235 800/800/235 801/801/235
f 802/802/236 803/803/236 804/804/236
f 805/805/237 806/806/237 807/807/237
f 808/808/238 809/809/238 810/810/238
f 811/811/239 812/812/239 813/813/239
f 814/814/240 815/815/240 816/816/240
f 817/817/241 818/818/241 819/819/241
f 820/820/242 821/821/242 822/822/242
f 823/823/243 824/824/243 825/825/243
f 826/826/244 827/827/244 828/828/244
f 829/829/245 830/830/245 831/831/245
f 832/832/246 833/833/246 834/834/246
f 835/835/247 836/836/247 837/837/247
f 838/838/248 839/839/248 840/840/248
f 841/841/249 842/842/249 843/843/249
f 844/844/250 845/845/250 846/846/250
f 847/847/251 848/848/251 849/849/251
f 850/850/252 851/851/252 852/852/252
f 853/853/253 854/854/253 855/855/253
f 856/856/254 857/857/254 858/858/254
f 859/859/255 860/860/255 861/861/255
f 862/862/256 863/863/256 864/864/256
f 865/865/257 866/866/257 867/867/257
f 868/868/258 869/869/258 870/870/258
f 871/871/259 872/872/259 873/873/259
f 874/874/260 875/875/260 876/876/260
f 877/877/261 878/878/261 879/879/261
f 880/880/262 881/881/262 882/882/262
f 883/883/263 884/884/263 885/885/263
f 886/886/264 887/887/264 888/888/264
f 889/889/265 890/890/265 891/891/265
f 892/892/266 893/893/266 894/894/266
f 895/895/267 896/896/267 897/897/267
f 898/898/268 899/899/268 900/900/268
f 901/901/269 902/902/269 903/903/269
f 904/904/270 905/905/270 906/906/270
f 907/907/271 908/908/271 909/909/271
f 910/910/272 911/911/272 912/912/272
f 913/913/273 914/914/273 915/915/273
f 916/916/274 917/917/274 918/918/274
f 919/919/275 920/920/275 921/921/275
f 922/922/276 923/923/276 924/924/276
f 925/925/277 926/926/277 927/927/277
f 928/928/278 929/929/278 930/930/278
f 931/931/279 932/932/279 933/933/279
f 934/934/280 935/935/280 936/936/280
f 937/937/281 938/938/281 939/939/281
f 940/940/282 941/941/282 942/942/282
f 943/943/283 944/944/283 945/945/283
f 946/946/1 947/947/1 948/948/1
f 949/949/1 950/950/1 951/951/1
f 952/952/284 953/953/284 954/954/284
f 955/955/285 956/956/285 957/957/285
f 958/958/286 959/959/286 960/960/286
f 961/961/287 962/962/287 963/963/287
f 964/964/288 965/965/288 966/966/288
f 967/967/289 968/968/289 969/969/289
f 970/970/290 971/971/290 972/972/290
f 973/973/291 974/974/291 975/975/291
f 976/976/292 977/977/292 978/978/292
f 979/979/293 980/980/293 981/981/293
f 982/982/294 983/983/294 984/984/294
f 985/985/295 986/986/295 987/987/295
f 988/988/296 989/989/296 990/990/296
f 991/991/297 992/992/297 993/993/297
f 994/994/298 995/995/298 996/996/298
f 997/997/299 998/998/299 999/999/299
f 1000/1000/300 1001/1001/300 1002/1002/300
f 1003/1003/301 1004/1004/301 1005/1005/301
f 1006/1006/302 1007/1007/302 1008/1008/302
f 1009/1009/303 1010/1010/303 1011/1011/303
f 1012/1012/304 1013/1013/304 1014/1014/304
f 1015/1015/305 1016/1016/305 1017/1017/305
f 1018/1018/306 1019/1019/306 1020/1020/306
f 1021/1021/307 1022/1022/307 1023/1023/307
f 1024/1024/308 1025/1025/308 1026/1026/308
f 1027/1027/309 1028/1028/309 1029/1029/309
f 1030/1030/310 1031/1031/310 1032/1032/310
f 1033/1033/311 1034/1034/311 1035/1035/311
f 1036/1036/312 1037/1037/312 1038/1038/312
f 1039/1039/313 1040/1040/313 1041/1041/313
f 1042/1042/314 1043/1043/314 1044/1044/314
f 1045/1045/315 1046/1046/315 1047/1047/315
f 1048/1048/316 1049/1049/316 1050/1050/316
f 1051/1051/317 1052/1052/317 1053/1053/317
f 1054/1054/318 1055/1055/318 1056/1056/318
f 1057/1057/2 1058/1058/2 1059/1059/2
f 1060/1060/2 1061/1061/2 1062/1062/2
f 1063/1063/319 1064/1064/319 1065/1065/319
f 1066/1066/320 1067/1067/320 1068/1068/320
f 1069/1069/321 1070/1070/321 1071/1071/321
f 1072/1072/322 1073/1073/322 1074/1074/322
f 1075/1075/323 1076/1076/323 1077/1077/323
f 1078/1078/324 1079/1079/324 1080/1080/324
f 1081/1081/325 1082/1082/325 1083/1083/325
f 1084/1084/326 1085/1085/326 1086/1086/326
f 1087/1087/327 1088/1088/327 1089/1089/327
f 1090/1090/328 1091/1091/328 1092/1092/328
f 1093/1093/329 1094/1094/329 1095/1095/329
f 1096/1096/330 1097/1097/330 1098/1098/330
f 1099/1099/331 1100/1100/331 1101/1101/331
f 1102/1102/332 1103/1103/332 1104/1104/332
f 1105/1105/333 1106/1106/333 1107/1107/333
f 1108/1108/334 1109/1109/334 1110/1110/334
f 1111/1111/335 1112/1112/335 1113/1113/335
f 1114/1114/336 1115/1115/336 1116/1116/336
f 1117/1117/337 1118/1118/337 1119/1119/337
f 1120/1120/338 1121/1121/338 1122/1122/338
f 1123/1123/339 1124/1124/339 1125/1125/339
f 1126/1126/340 1127/1127/340 1128/1128/340
f 1129/1129/1 1130/1130/1 1131/1131/1
f 1132/1132/2 1133/1133/2 1134/1134/2
f 1135/1135/1 1136/1136/1 1137/1137/1
f 1138/1138/2 1139/1139/2 1140/1140/2
f 1141/1141/1 1142/1142/1 1143/1143/1
f 1144/1144/2 1145/1145/2 1146/1146/2
f 1147/1147/1 1148/1148/1 1149/1149/1
f 1150/1150/2 1151/1151/2 1152/1152/2
f 1153/1153/1 1154/1154/1 1155/1155/1
f 1156/1156/2 1157/1157/2 1158/1158/2
f 1159/1159/2 1160/1160/2 1161/1161/2
f 1162/1162/1 1163/1163/1 1164/1164/1
f 1165/1165/1 1166/1166/1 1167/1167/1
f 1168/1168/2 1169/1169/2 1170/1170/2
f 1171/1171/1 1172/1172/1 1173/1173/1
f 1174/1174/2 1175/1175/2 1176/1176/2
f 1177/1177/2 1178/1178/2 1179/1179/2
f 1180/1180/1 1181/1181/1 1182/1182/1
f 1183/1183/1 1184/1184/1 1185/1185/1
f 1186/1186/2 1187/1187/2 1188/1188/2
f 1189/1189/2 1190/1190/2 1191/1191/2
f 1192/1192/1 1193/1193/1 1194/1194/1
f 1195/1195/1 1196/1196/1 1197/1197/1
f 1198/1198/2 1199/1199/2 1200/1200/2
f 1201/1201/1 1202/1202/1 1203/1203/1
f 1204/1204/2 1205/1205/2 1206/1206/2
f 1207/1207/1 1208/1208/1 1209/1209/1
f 1210/1210/2 1211/1211/2 1212/1212/2
f 1213/1213/1 1214/1214/1 1215/1215/1
f 1216/1216/2 1217/1217/2 1218/1218/2
f 1219/1219/1 1220/1220/1 1221/1221/1
f 1222/1222/2 1223/1223/2 1224/1224/2
f 1225/1225/1 1226/1226/1 1227/1227/1
f 1228/1228/2 1229/1229/2 1230/1230/2
f 1231/1231/1 1232/1232/1 1233/1233/1
f 1234/1234/2 1235/1235/2 1236/1236/2
