mtllib frolicflame.mtl
v -1.361495 -24.514009 -0.000000
v -1.361496 -21.569208 -0.000000
v 1.361505 -24.514009 0.000000
v 1.361504 -21.569208 0.000000
v 1.361505 -24.514009 0.000000
v -1.361496 -21.569208 -0.000000
v -1.361496 -21.569208 -0.000000
v -1.361495 -24.514009 -0.000000
v 1.361505 -24.514009 0.000000
v 1.361505 -24.514009 0.000000
v 1.361504 -21.569208 0.000000
v -1.361496 -21.569208 -0.000000
v -1.361493 -47.294312 -0.000000
v -1.361493 -44.348412 -0.000000
v 1.361507 -47.294312 0.000000
v 1.361507 -44.348412 0.000000
v 1.361507 -47.294312 0.000000
v -1.361493 -44.348412 -0.000000
v 1.361507 -47.294312 0.000000
v 1.361507 -44.348412 0.000000
v -1.361493 -44.348412 -0.000000
v -1.361493 -44.348412 -0.000000
v -1.361493 -47.294312 -0.000000
v 1.361507 -47.294312 0.000000
v -1.361495 -31.983311 -0.000000
v -1.361495 -29.037411 -0.000000
v 1.361505 -31.983311 0.000000
v -1.361494 -39.751411 -0.000000
v -1.361494 -36.806709 -0.000000
v 1.361506 -39.751411 0.000000
v 1.361506 -36.806709 0.000000
v 1.361506 -39.751411 0.000000
v -1.361494 -36.806709 -0.000000
v 1.361506 -39.751411 0.000000
v 1.361506 -36.806709 0.000000
v -1.361494 -36.806709 -0.000000
v -1.361494 -36.806709 -0.000000
v -1.361494 -39.751411 -0.000000
v 1.361506 -39.751411 0.000000
v 1.361505 -29.037411 0.000000
v 1.361505 -31.983311 0.000000
v -1.361495 -29.037411 -0.000000
v 1.361505 -31.983311 0.000000
v 1.361505 -29.037411 0.000000
v -1.361495 -29.037411 -0.000000
v -1.361495 -29.037411 -0.000000
v -1.361495 -31.983311 -0.000000
v 1.361505 -31.983311 0.000000
v 0.000007 -42.261513 -2.944700
v 0.000006 -42.261513 2.944700
v 0.000006 -38.834709 0.000000
v 0.000007 -42.261513 -2.944700
v 0.000006 -38.834709 0.000000
v 0.000006 -42.261513 2.944700
v 0.000006 -42.261513 2.944700
v 0.000007 -46.341412 0.000000
v 0.000007 -42.261513 -2.944700
v -1.361495 -24.514009 -0.000000
v -1.361496 -21.569208 -0.000000
v 1.361505 -24.514009 0.000000
v 1.361504 -21.569208 0.000000
v 1.361505 -24.514009 0.000000
v -1.361496 -21.569208 -0.000000
v -1.361493 -47.294312 -0.000000
v -1.361493 -44.348412 -0.000000
v 1.361507 -47.294312 0.000000
v 1.361507 -44.348412 0.000000
v 1.361507 -47.294312 0.000000
v -1.361493 -44.348412 -0.000000
v -1.361495 -31.983311 -0.000000
v -1.361495 -29.037411 -0.000000
v 1.361505 -31.983311 0.000000
v -1.361494 -39.751411 -0.000000
v -1.361494 -36.806709 -0.000000
v 1.361506 -39.751411 0.000000
v 1.361506 -36.806709 0.000000
v 1.361506 -39.751411 0.000000
v -1.361494 -36.806709 -0.000000
v 1.361505 -29.037411 0.000000
v 1.361505 -31.983311 0.000000
v -1.361495 -29.037411 -0.000000
v 0.000008 -54.753410 2.220400
v 0.000008 -54.754608 -2.220400
v 0.000007 -45.653309 0.000000
v 0.000008 -54.754608 -2.220400
v 0.000008 -54.753410 2.220400
v 0.000007 -45.653309 0.000000
v 0.000004 -22.653410 0.292000
v 0.000004 -22.653410 -0.292000
v 0.000004 -18.876909 -2.079000
v 0.000004 -22.653410 -0.292000
v 0.000004 -22.653410 0.292000
v 0.000004 -18.876909 -2.079000
v 0.000005 -26.293009 -2.944700
v 0.000004 -22.866209 0.000000
v 0.000004 -26.293009 2.944700
v 0.000004 -22.866209 0.000000
v 0.000005 -26.293009 -2.944700
v 0.000004 -26.293009 2.944700
v 0.000008 -54.754608 -2.220400
v 0.000008 -51.075409 -4.439700
v 0.000007 -45.653309 0.000000
v 0.000008 -51.075409 -4.439700
v 0.000008 -54.754608 -2.220400
v 0.000007 -45.653309 0.000000
v 0.000004 -16.637209 -2.067600
v 0.000003 -16.637209 2.064300
v 0.000004 -18.876909 2.074400
v 0.000003 -16.637209 2.064300
v 0.000004 -16.637209 -2.067600
v 0.000004 -18.876909 2.074400
v 0.000004 -18.876909 2.074400
v 0.000004 -22.653410 0.292000
v 0.000004 -18.876909 -2.079000
v 0.000004 -22.653410 0.292000
v 0.000004 -18.876909 2.074400
v 0.000004 -18.876909 -2.079000
v 0.000004 -18.876909 -2.079000
v 0.000004 -16.637209 -2.067600
v 0.000004 -18.876909 2.074400
v 0.000004 -16.637209 -2.067600
v 0.000004 -18.876909 -2.079000
v 0.000004 -18.876909 2.074400
v 0.000005 -30.372910 0.000000
v 0.000005 -26.293009 -2.944700
v 0.000004 -26.293009 2.944700
v 0.000005 -26.293009 -2.944700
v 0.000005 -30.372910 0.000000
v 0.000004 -26.293009 2.944700
v 0.000007 -51.075409 4.439700
v 0.000008 -54.753410 2.220400
v 0.000007 -45.653309 0.000000
v 0.000008 -54.753410 2.220400
v 0.000007 -51.075409 4.439700
v 0.000007 -45.653309 0.000000
v 0.000006 -34.224110 -2.944700
v 0.000005 -30.797308 0.000000
v 0.000005 -34.224110 2.944700
v 0.000005 -30.797308 0.000000
v 0.000006 -34.224110 -2.944700
v 0.000005 -34.224110 2.944700
v 0.000006 -38.303909 0.000000
v 0.000006 -34.224110 -2.944700
v 0.000005 -34.224110 2.944700
v 0.000006 -34.224110 -2.944700
v 0.000006 -38.303909 0.000000
v 0.000005 -34.224110 2.944700
v 0.000007 -42.261513 -2.944700
v 0.000007 -46.341412 0.000000
v 0.000006 -42.261513 2.944700
vt 0.360252 0.244094
vt 0.470488 0.023622
vt 0.250016 0.023622
vt 0.360252 0.244094
vt 0.250016 0.023622
vt 0.470488 0.023622
vt 0.470488 0.023622
vt 0.360252 0.244094
vt 0.250016 0.023622
vt 0.250016 0.023622
vt 0.360252 0.244094
vt 0.470488 0.023622
vt 0.013795 0.023622
vt 0.155527 0.023622
vt 0.013795 0.307087
vt 0.013795 0.023622
vt 0.155527 0.023622
vt 0.013795 0.307087
vt 0.155527 0.023622
vt 0.013795 0.023622
vt 0.013795 0.307087
vt 0.155527 0.023622
vt 0.013795 0.023622
vt 0.013795 0.307087
vt 0.013795 0.023622
vt 0.155527 0.023622
vt 0.013795 0.307087
vt 0.013795 0.023622
vt 0.155527 0.023622
vt 0.013795 0.307087
vt 0.013795 0.023622
vt 0.155527 0.023622
vt 0.013795 0.307087
vt 0.155527 0.023622
vt 0.013795 0.023622
vt 0.013795 0.307087
vt 0.155527 0.023622
vt 0.013795 0.023622
vt 0.013795 0.307087
vt 0.013795 0.023622
vt 0.155527 0.023622
vt 0.013795 0.307087
vt 0.155527 0.023622
vt 0.013795 0.023622
vt 0.013795 0.307087
vt 0.155527 0.023622
vt 0.013795 0.023622
vt 0.013795 0.307087
vt 0.013795 0.527559
vt 0.360252 0.527559
vt 0.187023 0.968504
vt 0.013795 0.527559
vt 0.187023 0.968504
vt 0.360252 0.527559
vt 0.360252 0.527559
vt 0.187023 0.023622
vt 0.013795 0.527559
vt 0.360252 0.244094
vt 0.470488 0.023622
vt 0.250016 0.023622
vt 0.360252 0.244094
vt 0.250016 0.023622
vt 0.470488 0.023622
vt 0.013795 0.023622
vt 0.155527 0.023622
vt 0.013795 0.307087
vt 0.013795 0.023622
vt 0.155527 0.023622
vt 0.013795 0.307087
vt 0.013795 0.023622
vt 0.155527 0.023622
vt 0.013795 0.307087
vt 0.013795 0.023622
vt 0.155527 0.023622
vt 0.013795 0.307087
vt 0.013795 0.023622
vt 0.155527 0.023622
vt 0.013795 0.307087
vt 0.013795 0.023622
vt 0.155527 0.023622
vt 0.013795 0.307087
vt 0.990173 0.653543
vt 0.990173 0.023622
vt 0.344504 0.338583
vt 0.990173 0.023622
vt 0.990173 0.653543
vt 0.344504 0.338583
vt 0.564976 0.842520
vt 0.564976 0.779528
vt 0.438992 0.653543
vt 0.564976 0.779528
vt 0.564976 0.842520
vt 0.438992 0.653543
vt 0.013795 0.527559
vt 0.187023 0.968504
vt 0.360252 0.527559
vt 0.187023 0.968504
vt 0.013795 0.527559
vt 0.360252 0.527559
vt 0.990173 0.653543
vt 0.738204 0.968504
vt 0.344504 0.338583
vt 0.738204 0.968504
vt 0.990173 0.653543
vt 0.344504 0.338583
vt 0.344504 0.653543
vt 0.344504 0.968504
vt 0.438992 0.968504
vt 0.344504 0.968504
vt 0.344504 0.653543
vt 0.438992 0.968504
vt 0.438992 0.968504
vt 0.564976 0.842520
vt 0.438992 0.653543
vt 0.564976 0.842520
vt 0.438992 0.968504
vt 0.438992 0.653543
vt 0.438992 0.653543
vt 0.344504 0.653543
vt 0.438992 0.968504
vt 0.344504 0.653543
vt 0.438992 0.653543
vt 0.438992 0.968504
vt 0.187023 0.023622
vt 0.013795 0.527559
vt 0.360252 0.527559
vt 0.013795 0.527559
vt 0.187023 0.023622
vt 0.360252 0.527559
vt 0.738204 0.968504
vt 0.990173 0.653543
vt 0.344504 0.338583
vt 0.990173 0.653543
vt 0.738204 0.968504
vt 0.344504 0.338583
vt 0.360252 0.527559
vt 0.187023 0.968504
vt 0.013795 0.527559
vt 0.187023 0.968504
vt 0.360252 0.527559
vt 0.013795 0.527559
vt 0.187023 0.023622
vt 0.360252 0.527559
vt 0.013795 0.527559
vt 0.360252 0.527559
vt 0.187023 0.023622
vt 0.013795 0.527559
vt 0.013795 0.527559
vt 0.187023 0.023622
vt 0.360252 0.527559
vn 0.0000 0.0000 -1.0000
vn -0.0000 -0.0000 1.0000
vn -1.0000 -0.0000 -0.0000
vn 1.0000 0.0000 0.0000
o keychain
usemtl Brush.038
f 1/1/1 2/2/1 3/3/1
f 4/4/1 5/5/1 6/6/1
f 7/7/2 8/8/2 9/9/2
f 10/10/2 11/11/2 12/12/2
f 13/13/1 14/14/1 15/15/1
f 16/16/1 17/17/1 18/18/1
f 19/19/2 20/20/2 21/21/2
f 22/22/2 23/23/2 24/24/2
f 25/25/1 26/26/1 27/27/1
f 28/28/1 29/29/1 30/30/1
f 31/31/1 32/32/1 33/33/1
f 34/34/2 35/35/2 36/36/2
f 37/37/2 38/38/2 39/39/2
f 40/40/1 41/41/1 42/42/1
f 43/43/2 44/44/2 45/45/2
f 46/46/2 47/47/2 48/48/2
f 49/49/3 50/50/3 51/51/3
f 52/52/4 53/53/4 54/54/4
f 55/55/4 56/56/4 57/57/4
f 58/58/1 59/59/1 60/60/1
f 61/61/1 62/62/1 63/63/1
f 64/64/1 65/65/1 66/66/1
f 67/67/1 68/68/1 69/69/1
f 70/70/1 71/71/1 72/72/1
f 73/73/1 74/74/1 75/75/1
f 76/76/1 77/77/1 78/78/1
f 79/79/1 80/80/1 81/81/1
f 82/82/4 83/83/4 84/84/4
f 85/85/3 86/86/3 87/87/3
f 88/88/4 89/89/4 90/90/4
f 91/91/3 92/92/3 93/93/3
f 94/94/4 95/95/4 96/96/4
f 97/97/3 98/98/3 99/99/3
f 100/100/4 101/101/4 102/102/4
f 103/103/3 104/104/3 105/105/3
f 106/106/4 107/107/4 108/108/4
f 109/109/3 110/110/3 111/111/3
f 112/112/4 113/113/4 114/114/4
f 115/115/3 116/116/3 117/117/3
f 118/118/4 119/119/4 120/120/4
f 121/121/3 122/122/3 123/123/3
f 124/124/4 125/125/4 126/126/4
f 127/127/3 128/128/3 129/129/3
f 130/130/4 131/131/4 132/132/4
f 133/133/3 134/134/3 135/135/3
f 136/136/4 137/137/4 138/138/4
f 139/139/3 140/140/3 141/141/3
f 142/142/4 143/143/4 144/144/4
f 145/145/3 146/146/3 147/147/3
f 148/148/3 149/149/3 150/150/3
