mtllib hiddendragon.mtl
v -0.029061 -54.635250 -4.527512
v -0.029061 -52.149498 -5.193569
v -0.029061 -49.663754 -4.527512
v -0.029061 -52.149498 -5.193569
v -0.029061 -54.635250 -4.527512
v -0.029061 -49.663754 -4.527512
v -0.029061 -49.663754 -4.527512
v -0.029053 -56.454952 -2.707821
v -0.029061 -54.635250 -4.527512
v -0.029061 -54.635250 -4.527512
v -0.029053 -56.454952 -2.707821
v -0.029061 -49.663754 -4.527512
v -0.029053 -56.454952 -2.707821
v -0.029061 -49.663754 -4.527512
v -0.029061 -47.844051 -2.707817
v -0.029061 -49.663754 -4.527512
v -0.029053 -56.454952 -2.707821
v -0.029061 -47.844051 -2.707817
v -0.029061 -47.844051 -2.707817
v -0.029053 -56.454952 -2.707821
v -0.029061 -47.177998 -0.222065
v -0.029053 -56.454952 -2.707821
v -0.029053 -57.121014 -0.222065
v -0.029061 -47.177998 -0.222065
v -0.029061 -47.177998 -0.222065
v -0.029053 -57.121014 -0.222065
v -0.029061 -47.844051 2.263695
v -0.029053 -57.121014 -0.222065
v -0.029053 -56.454960 2.263695
v -0.029061 -47.844051 2.263695
v -0.029061 -47.844051 2.263695
v -0.029061 -49.663754 4.083397
v -0.029053 -56.454960 2.263695
v -0.029053 -56.454960 2.263695
v -0.029061 -49.663754 4.083397
v -0.029061 -54.635250 4.083397
v -0.029061 -49.663754 4.083397
v -0.029061 -52.149506 4.749458
v -0.029061 -54.635250 4.083397
v -0.029061 -54.635250 4.083397
v -0.029061 -52.149506 4.749458
v -0.029061 -49.663754 4.083397
v -1.387116 -12.788268 0.390697
v -2.428932 -15.833976 0.390705
v -2.428932 -15.833974 -0.834820
v -2.428932 -15.833976 0.390705
v -0.029076 -17.643959 0.390705
v -2.428932 -15.833974 -0.834820
v -2.428932 -15.833974 -0.834820
v -0.029076 -17.643959 0.390705
v -0.029076 -17.643955 -0.834820
v -0.029076 -17.643959 0.390705
v -0.029076 -17.643955 -0.834820
v 2.370788 -15.833976 0.390705
v -0.029076 -17.643955 -0.834820
v 2.370788 -15.833974 -0.834820
v 2.370788 -15.833976 0.390705
v 2.370788 -15.833976 0.390705
v 2.370788 -15.833974 -0.834820
v 1.328964 -12.788268 0.390697
v 2.370788 -15.833974 -0.834820
v 1.328964 -12.788266 -0.834827
v 1.328964 -12.788268 0.390697
v 1.328964 -12.788268 0.390697
v 2.370788 -15.833974 -0.834820
v 2.370788 -15.833976 0.390705
v 2.370788 -15.833976 0.390705
v 2.370788 -15.833974 -0.834820
v -0.029076 -17.643959 0.390705
v 2.370788 -15.833974 -0.834820
v -0.029076 -17.643955 -0.834820
v -0.029076 -17.643959 0.390705
v -0.029076 -17.643959 0.390705
v -2.428932 -15.833976 0.390705
v -0.029076 -17.643955 -0.834820
v -0.029076 -17.643955 -0.834820
v -2.428932 -15.833976 0.390705
v -2.428932 -15.833974 -0.834820
v -2.428932 -15.833976 0.390705
v -1.387116 -12.788268 0.390697
v -2.428932 -15.833974 -0.834820
v -2.428932 -15.833974 -0.834820
v -1.387116 -12.788268 0.390697
v -1.387116 -12.788266 -0.834827
v -0.029061 -49.663754 4.083397
v -0.029061 -47.844051 2.263695
v -0.029061 -54.635250 4.083397
v -0.029061 -54.635250 4.083397
v -0.029061 -47.844051 2.263695
v -0.029053 -56.454960 2.263695
v -0.029061 -47.844051 2.263695
v -0.029053 -56.454960 2.263695
v -0.029061 -47.177998 -0.222065
v -0.029053 -56.454960 2.263695
v -0.029053 -57.121014 -0.222065
v -0.029061 -47.177998 -0.222065
v -0.029061 -47.177998 -0.222065
v -0.029053 -57.121014 -0.222065
v -0.029061 -47.844051 -2.707817
v -0.029053 -57.121014 -0.222065
v -0.029053 -56.454952 -2.707821
v -0.029061 -47.844051 -2.707817
v -1.387116 -12.788268 0.390697
v -2.428932 -15.833974 -0.834820
v -1.387116 -12.788266 -0.834827
v 2.370788 -15.833974 -0.834820
v 1.328964 -12.788268 0.390697
v 1.328964 -12.788266 -0.834827
v -0.029061 -47.177998 -0.222065
v -0.029061 -47.618847 -1.867310
v -0.029061 -46.053661 -1.867310
v -0.029061 -47.618847 -1.867310
v -0.029061 -47.177998 -0.222065
v -0.029061 -46.053661 -1.867310
v -0.029061 -46.053661 -1.867310
v -0.029061 -47.177998 -0.222065
v -0.029061 -45.040691 -0.222065
v -0.029061 -47.177998 -0.222065
v -0.029061 -46.053661 1.423187
v -0.029061 -45.040691 -0.222065
v -0.029061 -45.040691 -0.222065
v -0.029061 -46.053661 1.423187
v -0.029061 -47.177998 -0.222065
v -0.029061 -46.053661 1.423187
v -0.029061 -47.177998 -0.222065
v -0.029061 -47.618847 1.423187
v -0.029061 -47.177998 -0.222065
v -0.029061 -46.053661 1.423187
v -0.029061 -47.618847 1.423187
v -0.029068 -25.323845 1.828815
v -0.029068 -25.323845 -2.272938
v -0.029076 -17.598480 -2.782352
v -0.029068 -25.323845 -2.272938
v -0.029068 -25.323845 1.828815
v -0.029076 -17.598480 -2.782352
v -0.029076 -17.598480 -2.782352
v -0.029076 -14.643949 1.828815
v -0.029068 -25.323845 1.828815
v -0.029068 -25.323845 1.828815
v -0.029076 -14.643949 1.828815
v -0.029076 -17.598480 -2.782352
v -0.029076 -14.643949 1.828815
v -0.029076 -14.643950 -2.272938
v -0.029076 -17.598480 -2.782352
v -0.029076 -17.598480 -2.782352
v -0.029076 -14.643950 -2.272938
v -0.029076 -14.643949 1.828815
v -0.029068 -31.714863 1.703945
v -0.029068 -25.989902 -2.148067
v -0.029068 -31.714863 -2.148067
v -0.029068 -31.714863 -2.148067
v -0.029068 -25.989902 -2.148067
v -0.029068 -25.989902 1.703945
v -0.029068 -25.989902 -2.148067
v -0.029068 -31.714863 1.703945
v -0.029068 -25.989902 1.703945
v -0.029068 -25.989902 1.703945
v -0.029068 -31.714863 1.703945
v -0.029068 -31.714863 -2.148067
v -0.029068 -37.799641 1.703945
v -0.029068 -32.074680 -2.148067
v -0.029068 -37.799641 -2.148067
v -0.029068 -37.799641 -2.148067
v -0.029068 -32.074680 -2.148067
v -0.029068 -32.074680 1.703945
v -0.029068 -32.074680 -2.148067
v -0.029068 -37.799641 1.703945
v -0.029068 -32.074680 1.703945
v -0.029068 -32.074680 1.703945
v -0.029068 -37.799641 1.703945
v -0.029068 -37.799641 -2.148067
v -0.029061 -43.896526 1.703945
v -0.029061 -38.171558 -2.148067
v -0.029061 -43.896526 -2.148067
v -0.029061 -43.896526 -2.148067
v -0.029061 -38.171558 -2.148067
v -0.029061 -38.171558 1.703945
v -0.029061 -38.171558 -2.148067
v -0.029061 -43.896526 1.703945
v -0.029061 -38.171558 1.703945
v -0.029061 -38.171558 1.703945
v -0.029061 -43.896526 1.703945
v -0.029061 -43.896526 -2.148067
v 1.896934 -23.115105 -0.222065
v 1.896934 -28.840061 -0.222069
v -1.955071 -23.115105 -0.222065
v 1.896934 -28.840061 -0.222069
v -1.955071 -28.840061 -0.222065
v -1.955071 -23.115105 -0.222065
v -1.955071 -23.115105 -0.222065
v -1.955071 -28.840061 -0.222065
v 1.896934 -23.115105 -0.222065
v -1.955071 -28.840061 -0.222065
v 1.896934 -28.840061 -0.222069
v 1.896934 -23.115105 -0.222065
v 1.896934 -29.056225 -0.222065
v 1.896934 -34.781185 -0.222069
v -1.955071 -29.056225 -0.222065
v -1.955071 -29.056225 -0.222065
v 1.896934 -34.781185 -0.222069
v -1.955071 -29.056225 -0.222065
v 1.896934 -34.781185 -0.222069
v -1.955071 -34.781185 -0.222065
v -1.955071 -29.056225 -0.222065
v -1.955071 -29.056225 -0.222065
v -1.955071 -34.781185 -0.222065
v 1.896934 -29.056225 -0.222065
v -1.955071 -34.781185 -0.222065
v 1.896934 -34.781185 -0.222069
v 1.896934 -29.056225 -0.222065
v 1.896934 -35.014698 -0.222065
v 1.896942 -40.993038 -0.222069
v -1.955071 -35.014698 -0.222065
v 1.896942 -40.993038 -0.222069
v -1.955063 -40.993038 -0.222065
v -1.955071 -35.014698 -0.222065
v -1.955071 -35.014698 -0.222065
v -1.955063 -40.993038 -0.222065
v 1.896934 -35.014698 -0.222065
v -1.955063 -40.993038 -0.222065
v 1.896942 -40.993038 -0.222069
v 1.896934 -35.014698 -0.222065
v 1.896942 -46.901188 -0.222069
v -1.955063 -46.901188 -0.222065
v 1.896942 -41.188793 -0.222065
v -1.955063 -46.901188 -0.222065
v -1.955063 -41.188793 -0.222065
v 1.896942 -41.188793 -0.222065
v -1.955063 -46.901188 -0.222065
v 1.896942 -46.901188 -0.222069
v -1.955063 -41.188793 -0.222065
v 1.896942 -46.901188 -0.222069
v 1.896942 -41.188793 -0.222065
v -1.955063 -41.188793 -0.222065
v -0.029061 -47.177998 -0.222065
v -0.029061 -46.053661 -1.867310
v -0.029061 -45.040691 -0.222065
vt 0.013428 0.086181
vt 0.003174 0.162353
vt 0.013428 0.238281
vt 0.003174 0.162353
vt 0.013428 0.086181
vt 0.013428 0.238281
vt 0.013428 0.238281
vt 0.041260 0.030761
vt 0.013428 0.086181
vt 0.013428 0.086181
vt 0.041260 0.030761
vt 0.013428 0.238281
vt 0.041260 0.030761
vt 0.013428 0.238281
vt 0.041260 0.293701
vt 0.013428 0.238281
vt 0.041260 0.030761
vt 0.041260 0.293701
vt 0.041260 0.293701
vt 0.041260 0.030761
vt 0.079102 0.314209
vt 0.041260 0.030761
vt 0.079102 0.010254
vt 0.079102 0.314209
vt 0.079102 0.314209
vt 0.079102 0.010254
vt 0.117188 0.293701
vt 0.079102 0.010254
vt 0.117188 0.030761
vt 0.117188 0.293701
vt 0.117188 0.293701
vt 0.145020 0.238281
vt 0.117188 0.030761
vt 0.117188 0.030761
vt 0.145020 0.238281
vt 0.145020 0.086181
vt 0.145020 0.238281
vt 0.155273 0.162353
vt 0.145020 0.086181
vt 0.145020 0.086181
vt 0.155273 0.162353
vt 0.145020 0.238281
vt 0.337402 0.660644
vt 0.274658 0.660644
vt 0.274658 0.614013
vt 0.274658 0.660644
vt 0.216064 0.660644
vt 0.274658 0.614013
vt 0.274658 0.614013
vt 0.216064 0.660644
vt 0.216064 0.614013
vt 0.216064 0.660644
vt 0.216064 0.614013
vt 0.274658 0.660644
vt 0.216064 0.614013
vt 0.274658 0.614013
vt 0.274658 0.660644
vt 0.274658 0.660644
vt 0.274658 0.614013
vt 0.337402 0.660644
vt 0.274658 0.614013
vt 0.337402 0.614013
vt 0.337402 0.660644
vt 0.337402 0.614013
vt 0.274658 0.660644
vt 0.274658 0.614013
vt 0.274658 0.614013
vt 0.274658 0.660644
vt 0.216064 0.614013
vt 0.274658 0.660644
vt 0.216064 0.660644
vt 0.216064 0.614013
vt 0.216064 0.614013
vt 0.274658 0.614013
vt 0.216064 0.660644
vt 0.216064 0.660644
vt 0.274658 0.614013
vt 0.274658 0.660644
vt 0.274658 0.614013
vt 0.337402 0.614013
vt 0.274658 0.660644
vt 0.274658 0.660644
vt 0.337402 0.614013
vt 0.337402 0.660644
vt 0.145020 0.238281
vt 0.117188 0.293701
vt 0.145020 0.086181
vt 0.145020 0.086181
vt 0.117188 0.293701
vt 0.117188 0.030761
vt 0.117188 0.293701
vt 0.117188 0.030761
vt 0.079102 0.314209
vt 0.117188 0.030761
vt 0.079102 0.010254
vt 0.079102 0.314209
vt 0.079102 0.314209
vt 0.079102 0.010254
vt 0.041260 0.293701
vt 0.079102 0.010254
vt 0.041260 0.030761
vt 0.041260 0.293701
vt 0.337402 0.660644
vt 0.274658 0.614013
vt 0.337402 0.614013
vt 0.274658 0.660644
vt 0.337402 0.614013
vt 0.337402 0.660644
vt 0.079102 0.314209
vt 0.053955 0.300781
vt 0.053955 0.348633
vt 0.053955 0.300781
vt 0.079102 0.314209
vt 0.053955 0.348633
vt 0.053955 0.348633
vt 0.079102 0.314209
vt 0.079102 0.379394
vt 0.079102 0.314209
vt 0.104248 0.348633
vt 0.079102 0.379394
vt 0.079102 0.379394
vt 0.104248 0.348633
vt 0.079102 0.314209
vt 0.104248 0.348633
vt 0.079102 0.314209
vt 0.104248 0.300781
vt 0.079102 0.314209
vt 0.104248 0.348633
vt 0.104248 0.300781
vt 0.362305 0.012695
vt 0.362305 0.157226
vt 0.498535 0.175293
vt 0.362305 0.157226
vt 0.362305 0.012695
vt 0.498535 0.175293
vt 0.498535 0.175293
vt 0.550537 0.012695
vt 0.362305 0.012695
vt 0.362305 0.012695
vt 0.550537 0.012695
vt 0.498535 0.175293
vt 0.550537 0.012695
vt 0.550537 0.157226
vt 0.498535 0.175293
vt 0.498535 0.175293
vt 0.550537 0.157226
vt 0.550537 0.012695
vt 0.347412 0.014160
vt 0.300537 0.188720
vt 0.300537 0.014160
vt 0.300537 0.014160
vt 0.300537 0.188720
vt 0.347412 0.188720
vt 0.300537 0.188720
vt 0.347412 0.014160
vt 0.347412 0.188720
vt 0.347412 0.188720
vt 0.347412 0.014160
vt 0.300537 0.014160
vt 0.347412 0.014160
vt 0.300537 0.188720
vt 0.300537 0.014160
vt 0.300537 0.014160
vt 0.300537 0.188720
vt 0.347412 0.188720
vt 0.300537 0.188720
vt 0.347412 0.014160
vt 0.347412 0.188720
vt 0.347412 0.188720
vt 0.347412 0.014160
vt 0.300537 0.014160
vt 0.347412 0.014160
vt 0.300537 0.188720
vt 0.300537 0.014160
vt 0.300537 0.014160
vt 0.300537 0.188720
vt 0.347412 0.188720
vt 0.300537 0.188720
vt 0.347412 0.014160
vt 0.347412 0.188720
vt 0.347412 0.188720
vt 0.347412 0.014160
vt 0.300537 0.014160
vt 0.286133 0.188720
vt 0.286133 0.012939
vt 0.227295 0.188720
vt 0.286133 0.012939
vt 0.227295 0.012939
vt 0.227295 0.188720
vt 0.286133 0.188720
vt 0.286133 0.012939
vt 0.227295 0.188720
vt 0.286133 0.012939
vt 0.227295 0.012939
vt 0.227295 0.188720
vt 0.286133 0.188720
vt 0.286133 0.012939
vt 0.227295 0.188720
vt 0.227295 0.188720
vt 0.286133 0.012939
vt 0.227295 0.188720
vt 0.286133 0.012939
vt 0.227295 0.012939
vt 0.227295 0.188720
vt 0.286133 0.188720
vt 0.286133 0.012939
vt 0.227295 0.188720
vt 0.286133 0.012939
vt 0.227295 0.012939
vt 0.227295 0.188720
vt 0.286133 0.188720
vt 0.286133 0.012939
vt 0.227295 0.188720
vt 0.286133 0.012939
vt 0.227295 0.012939
vt 0.227295 0.188720
vt 0.286133 0.188720
vt 0.286133 0.012939
vt 0.227295 0.188720
vt 0.286133 0.012939
vt 0.227295 0.012939
vt 0.227295 0.188720
vt 0.218018 0.011230
vt 0.159180 0.011230
vt 0.218018 0.188720
vt 0.159180 0.011230
vt 0.159180 0.188720
vt 0.218018 0.188720
vt 0.218018 0.011230
vt 0.159180 0.011230
vt 0.218018 0.188720
vt 0.159180 0.011230
vt 0.159180 0.188720
vt 0.218018 0.188720
vt 0.079102 0.314209
vt 0.053955 0.348633
vt 0.079102 0.379394
vn 1.0000 0.0000 0.0000
vn -1.0000 0.0000 0.0000
vn 0.9462 -0.3236 -0.0000
vn 0.6021 0.7984 0.0000
vn 0.6021 -0.7984 -0.0000
vn 0.9462 0.3237 0.0000
vn -0.9462 -0.3237 -0.0000
vn -0.6021 0.7984 0.0000
vn -0.6021 -0.7984 -0.0000
vn -0.9462 0.3236 0.0000
vn 0.0000 0.0000 -1.0000
vn 0.0000 0.0000 1.0000
o keychain
usemtl Brush.045
f 1/1/1 2/2/1 3/3/1
f 4/4/2 5/5/2 6/6/2
f 7/7/1 8/8/1 9/9/1
f 10/10/2 11/11/2 12/12/2
f 13/13/1 14/14/1 15/15/1
f 16/16/2 17/17/2 18/18/2
f 19/19/2 20/20/2 21/21/2
f 22/22/2 23/23/2 24/24/2
f 25/25/2 26/26/2 27/27/2
f 28/28/2 29/29/2 30/30/2
f 31/31/1 32/32/1 33/33/1
f 34/34/1 35/35/1 36/36/1
f 37/37/1 38/38/1 39/39/1
f 40/40/2 41/41/2 42/42/2
f 43/43/3 44/44/3 45/45/3
f 46/46/4 47/47/4 48/48/4
f 49/49/4 50/50/4 51/51/4
f 52/52/5 53/53/5 54/54/5
f 55/55/5 56/56/5 57/57/5
f 58/58/6 59/59/6 60/60/6
f 61/61/6 62/62/6 63/63/6
f 64/64/7 65/65/7 66/66/7
f 67/67/8 68/68/8 69/69/8
f 70/70/8 71/71/8 72/72/8
f 73/73/9 74/74/9 75/75/9
f 76/76/9 77/77/9 78/78/9
f 79/79/10 80/80/10 81/81/10
f 82/82/10 83/83/10 84/84/10
f 85/85/2 86/86/2 87/87/2
f 88/88/2 89/89/2 90/90/2
f 91/91/1 92/92/1 93/93/1
f 94/94/1 95/95/1 96/96/1
f 97/97/1 98/98/1 99/99/1
f 100/100/1 101/101/1 102/102/1
f 103/103/3 104/104/3 105/105/3
f 106/106/7 107/107/7 108/108/7
f 109/109/1 110/110/1 111/111/1
f 112/112/2 113/113/2 114/114/2
f 115/115/2 116/116/2 117/117/2
f 118/118/2 119/119/2 120/120/2
f 121/121/1 122/122/1 123/123/1
f 124/124/2 125/125/2 126/126/2
f 127/127/1 128/128/1 129/129/1
f 130/130/1 131/131/1 132/132/1
f 133/133/2 134/134/2 135/135/2
f 136/136/1 137/137/1 138/138/1
f 139/139/2 140/140/2 141/141/2
f 142/142/2 143/143/2 144/144/2
f 145/145/1 146/146/1 147/147/1
f 148/148/2 149/149/2 150/150/2
f 151/151/1 152/152/1 153/153/1
f 154/154/2 155/155/2 156/156/2
f 157/157/1 158/158/1 159/159/1
f 160/160/2 161/161/2 162/162/2
f 163/163/1 164/164/1 165/165/1
f 166/166/2 167/167/2 168/168/2
f 169/169/1 170/170/1 171/171/1
f 172/172/2 173/173/2 174/174/2
f 175/175/1 176/176/1 177/177/1
f 178/178/2 179/179/2 180/180/2
f 181/181/1 182/182/1 183/183/1
f 184/184/11 185/185/11 186/186/11
f 187/187/11 188/188/11 189/189/11
f 190/190/12 191/191/12 192/192/12
f 193/193/12 194/194/12 195/195/12
f 196/196/11 197/197/11 198/198/11
f 199/199/12 200/200/12 201/201/12
f 202/202/11 203/203/11 204/204/11
f 205/205/12 206/206/12 207/207/12
f 208/208/12 209/209/12 210/210/12
f 211/211/11 212/212/11 213/213/11
f 214/214/11 215/215/11 216/216/11
f 217/217/12 218/218/12 219/219/12
f 220/220/12 221/221/12 222/222/12
f 223/223/11 224/224/11 225/225/11
f 226/226/11 227/227/11 228/228/11
f 229/229/12 230/230/12 231/231/12
f 232/232/12 233/233/12 234/234/12
f 235/235/1 236/236/1 237/237/1
