# Blender v2.91.0 OBJ File: ''
# www.blender.org
mtllib ifrit.mtl
o mesh
v 0.000000 0.103555 1.793303
v 9.483800 -6.444246 1.793302
v 9.773100 -4.784845 -0.000002
v 2.239700 0.513354 0.000000
v 18.649599 2.668554 0.000000
v 13.457400 5.079254 1.793304
v 8.477100 13.264955 0.000004
v 10.278500 8.655555 1.793303
v 0.000000 54.908756 1.793312
v 5.987000 31.596754 1.793307
v 9.960600 30.219154 0.000010
v 0.000000 26.033653 1.793306
v 5.722000 26.404453 0.000008
v 0.000000 7.066052 1.793303
v 5.112800 11.304655 1.793305
v 1.933800 15.410755 1.793306
v 2.053500 7.066054 0.000002
v 4.716800 8.723555 0.000002
v 28.636700 -16.484346 1.793299
v 15.071300 -3.625845 1.793301
v 16.830500 -8.158346 1.793302
v 19.497299 -15.133345 -0.000004
v 21.404699 -7.292046 -0.000002
v 29.750799 -14.182846 -0.000004
v 30.226200 -22.842144 1.793298
v 11.073200 4.814355 0.000002
v 12.795100 1.767955 0.000000
v 14.988500 1.672355 1.793302
v 12.836100 -5.033245 -0.000002
v 9.442000 -10.579746 0.748589
v 9.180500 -11.930746 1.793300
v 15.234100 -11.465145 1.793300
v 7.724200 -13.901445 1.793301
v 0.000000 -15.076645 1.793301
v 4.671500 -15.091545 1.793301
v 63.578300 -37.385746 -0.000012
v 35.259499 -15.159845 1.793301
v 51.816299 -30.392147 1.793298
v -2.106800 -3.283146 -0.000002
v -2.239700 0.513354 0.000000
v -8.531300 -7.930645 -0.000002
v -9.483800 -6.444246 1.793302
v -9.773100 -4.784845 -0.000002
v -13.139500 9.874155 0.000004
v -14.988500 1.672355 1.793302
v -9.960600 30.219154 0.000010
v -5.987000 31.596754 1.793307
v -5.722000 26.404453 0.000008
v -4.874300 20.046654 0.000006
v -1.933800 15.410755 1.793306
v -5.112800 11.304655 1.793305
v -16.830500 -8.158346 1.793302
v -28.636700 -16.484346 1.793299
v -27.974400 -20.219547 -0.000006
v -35.259499 -15.159845 1.793301
v -51.816299 -30.392147 1.793298
v -4.716800 8.723555 0.000002
v -10.278500 8.655555 1.793303
v -11.073200 4.814355 0.000002
v -13.457400 5.079254 1.793304
v -12.795100 1.767955 0.000000
v -15.071300 -3.625845 1.793301
v -9.442000 -10.579746 0.748589
v -15.234100 -11.465145 1.793300
v -9.180500 -11.930746 1.793300
v -7.864400 -11.029646 -0.000004
v -7.724200 -13.901445 1.793301
v -4.671500 -15.091545 1.793301
v -30.226200 -22.842144 1.793298
v -28.398300 -26.153545 -0.000008
v 2.106800 -3.283146 -0.000002
v 0.000000 -3.035746 -0.000000
v 0.000000 0.103555 -1.793303
v 0.000000 7.066054 -1.793299
v 8.531300 -7.930645 -0.000002
v 9.483800 -6.444244 -1.793306
v 13.457400 5.079256 -1.793300
v 13.139500 9.874155 0.000004
v 28.186399 12.629154 0.000004
v 18.437700 -2.841545 -0.000000
v 14.988500 1.672355 -1.793302
v 10.278500 8.655555 -1.793299
v 0.000000 68.790054 0.000022
v 5.987000 31.596754 -1.793287
v 0.000000 54.908756 -1.793276
v 0.000000 26.033653 -1.793290
v 4.874300 20.046654 0.000006
v 1.933800 15.410755 -1.793296
v 5.112800 11.304655 -1.793297
v 16.830500 -8.158346 -1.793306
v 12.079900 -15.557146 -0.000006
v 27.974400 -20.219547 -0.000006
v 35.259499 -15.159845 -1.793311
v 51.816299 -30.392147 -1.793318
v 7.761900 7.993255 0.000002
v 15.071300 -3.625845 -1.793305
v 15.234100 -11.465145 -1.793308
v 9.180500 -11.930746 -1.793308
v 7.864400 -11.029646 -0.000004
v 9.442000 -10.579746 -0.748596
v 7.724200 -13.901445 -1.793309
v 4.801400 -13.016445 -0.000004
v 4.671500 -15.091545 -1.793311
v 0.000000 -34.842545 -0.000012
v 6.357800 -18.948044 -0.000006
v 28.636700 -16.484346 -1.793311
v 30.226200 -22.842144 -1.793314
v 28.398300 -26.153545 -0.000008
v 35.921700 -11.715946 -0.000004
v 0.000000 -15.076645 -1.793311
v 0.000000 -13.016445 -0.000004
v -9.483800 -6.444244 -1.793306
v -13.457400 5.079256 -1.793300
v -18.649599 2.668554 0.000000
v -28.186399 12.629154 0.000004
v -14.988500 1.672355 -1.793302
v -18.437700 -2.841545 -0.000000
v -8.477100 13.264955 0.000004
v -5.987000 31.596754 -1.793287
v -1.933800 15.410755 -1.793296
v -2.053500 7.066054 0.000002
v -12.836100 -5.033245 -0.000002
v -28.636700 -16.484346 -1.793311
v -16.830500 -8.158346 -1.793306
v -12.079900 -15.557146 -0.000006
v -7.724200 -13.901445 -1.793309
v -19.497299 -15.133345 -0.000004
v -21.404699 -7.292046 -0.000002
v -29.750799 -14.182846 -0.000004
v -51.816299 -30.392147 -1.793318
v -30.226200 -22.842144 -1.793314
v -5.112800 11.304655 -1.793297
v -7.761900 7.993255 0.000002
v -10.278500 8.655555 -1.793299
v -15.071300 -3.625845 -1.793305
v -9.442000 -10.579746 -0.748596
v -15.234100 -11.465145 -1.793308
v -9.180500 -11.930746 -1.793308
v -4.801400 -13.016445 -0.000004
v -4.671500 -15.091545 -1.793311
v -6.357800 -18.948044 -0.000006
v -63.578300 -37.385746 -0.000012
v -35.259499 -15.159845 -1.793311
v -35.921700 -11.715946 -0.000004
vt 0.318710 0.413738
vt 0.322564 0.426926
vt 0.314512 0.418914
vt 0.339555 0.443153
vt 0.331787 0.446761
vt 0.331281 0.424293
vt 0.325611 0.389801
vt 0.333115 0.392290
vt 0.339555 0.396566
vt 0.436146 0.544418
vt 0.453122 0.552036
vt 0.481813 0.520312
vt 0.435085 0.528544
vt 0.440486 0.555160
vt 0.452579 0.569131
vt 0.420172 0.544644
vt 0.425452 0.556274
vt 0.393748 0.349590
vt 0.396953 0.392885
vt 0.406320 0.488598
vt 0.419074 0.491336
vt 0.389139 0.508049
vt 0.407468 0.504683
vt 0.407338 0.524577
vt 0.395299 0.566558
vt 0.398554 0.540190
vt 0.409252 0.552231
vt 0.403745 0.566152
vt 0.411020 0.559691
vt 0.437350 0.592204
vt 0.426688 0.579394
vt 0.417403 0.577281
vt 0.415249 0.584593
vt 0.410074 0.589660
vt 0.412642 0.597303
vt 0.431361 0.601959
vt 0.486966 0.630565
vt 0.432453 0.577941
vt 0.420724 0.615733
vt 0.412316 0.603931
vt 0.407667 0.609343
vt 0.443188 0.616817
vt 0.452638 0.589809
vt 0.491951 0.621509
vt 0.482166 0.643347
vt 0.291530 0.458940
vt 0.290306 0.476646
vt 0.243081 0.496410
vt 0.267899 0.493009
vt 0.282045 0.489282
vt 0.250186 0.538405
vt 0.285004 0.503165
vt 0.255326 0.567051
vt 0.263176 0.540273
vt 0.266957 0.551500
vt 0.273992 0.535785
vt 0.285157 0.539663
vt 0.286042 0.523558
vt 0.296929 0.526188
vt 0.292961 0.512451
vt 0.303470 0.513845
vt 0.297272 0.487384
vt 0.306974 0.494342
vt 0.315108 0.478080
vt 0.214213 0.486958
vt 0.229688 0.478867
vt 0.251086 0.475640
vt 0.232243 0.491280
vt 0.210243 0.505467
vt 0.233761 0.519443
vt 0.215496 0.530227
vt 0.383233 0.670386
vt 0.403685 0.624935
vt 0.385095 0.612632
vt 0.398696 0.612584
vt 0.484239 0.661325
vt 0.491183 0.650834
vt 0.551045 0.676537
vt 0.584069 0.699991
vt 0.512175 0.617569
vt 0.508319 0.628882
vt 0.232429 0.562095
vt 0.251086 0.552240
vt 0.318710 0.413738
vt 0.339555 0.443153
vt 0.331281 0.424293
vt 0.333115 0.392290
vt 0.325611 0.389801
vt 0.339555 0.396566
vt 0.436146 0.544418
vt 0.481813 0.520312
vt 0.453122 0.552036
vt 0.435085 0.528544
vt 0.452579 0.569131
vt 0.440486 0.555160
vt 0.425452 0.556274
vt 0.420172 0.544644
vt 0.419074 0.491336
vt 0.406320 0.488598
vt 0.407468 0.504683
vt 0.407338 0.524577
vt 0.398554 0.540190
vt 0.409252 0.552231
vt 0.411020 0.559691
vt 0.403745 0.566152
vt 0.437350 0.592204
vt 0.415249 0.584593
vt 0.417403 0.577281
vt 0.426688 0.579394
vt 0.431361 0.601959
vt 0.412642 0.597303
vt 0.410074 0.589660
vt 0.486966 0.630565
vt 0.432453 0.577941
vt 0.420724 0.615733
vt 0.407667 0.609343
vt 0.412316 0.603931
vt 0.443188 0.616817
vt 0.452638 0.589809
vt 0.491951 0.621509
vt 0.482166 0.643347
vt 0.290306 0.476646
vt 0.267899 0.493009
vt 0.250186 0.538405
vt 0.282045 0.489282
vt 0.285004 0.503165
vt 0.255326 0.567051
vt 0.266957 0.551500
vt 0.263176 0.540273
vt 0.273992 0.535785
vt 0.285157 0.539663
vt 0.286042 0.523558
vt 0.296929 0.526188
vt 0.303470 0.513845
vt 0.292961 0.512451
vt 0.306974 0.494342
vt 0.297272 0.487384
vt 0.315108 0.478080
vt 0.214213 0.486958
vt 0.232243 0.491280
vt 0.251086 0.475640
vt 0.229688 0.478867
vt 0.210243 0.505467
vt 0.233761 0.519443
vt 0.215496 0.530227
vt 0.403685 0.624935
vt 0.398696 0.612584
vt 0.491183 0.650834
vt 0.484239 0.661325
vt 0.551045 0.676537
vt 0.584069 0.699991
vt 0.512175 0.617569
vt 0.508319 0.628882
vt 0.322564 0.426926
vt 0.331787 0.446761
vt 0.333115 0.392290
vt 0.436146 0.544418
vt 0.440486 0.555160
vt 0.425452 0.556274
vt 0.406320 0.488598
vt 0.396953 0.392885
vt 0.389139 0.508049
vt 0.395299 0.566558
vt 0.398554 0.540190
vt 0.409252 0.552231
vt 0.437350 0.592204
vt 0.415249 0.584593
vt 0.431361 0.601959
vt 0.412642 0.597303
vt 0.486966 0.630565
vt 0.432453 0.577941
vt 0.407667 0.609343
vt 0.412316 0.603931
vt 0.291530 0.458940
vt 0.243081 0.496410
vt 0.290306 0.476646
vt 0.267899 0.493009
vt 0.250186 0.538405
vt 0.282045 0.489282
vt 0.285004 0.503165
vt 0.255326 0.567051
vt 0.266957 0.551500
vt 0.285157 0.539663
vt 0.296929 0.526188
vt 0.303470 0.513845
vt 0.306974 0.494342
vt 0.315108 0.478080
vt 0.214213 0.486958
vt 0.229688 0.478867
vt 0.210243 0.505467
vt 0.215496 0.530227
vt 0.385095 0.612632
vt 0.398696 0.612584
vt 0.491183 0.650834
vt 0.551045 0.676537
vt 0.508319 0.628882
vt 0.232429 0.562095
vt 0.333115 0.392290
vt 0.436146 0.544418
vt 0.440486 0.555160
vt 0.425452 0.556274
vt 0.406320 0.488598
vt 0.398554 0.540190
vt 0.409252 0.552231
vt 0.437350 0.592204
vt 0.415249 0.584593
vt 0.412642 0.597303
vt 0.431361 0.601959
vt 0.486966 0.630565
vt 0.432453 0.577941
vt 0.412316 0.603931
vt 0.407667 0.609343
vt 0.290306 0.476646
vt 0.267899 0.493009
vt 0.282045 0.489282
vt 0.250186 0.538405
vt 0.285004 0.503165
vt 0.255326 0.567051
vt 0.266957 0.551500
vt 0.285157 0.539663
vt 0.296929 0.526188
vt 0.303470 0.513845
vt 0.306974 0.494342
vt 0.315108 0.478080
vt 0.214213 0.486958
vt 0.229688 0.478867
vt 0.210243 0.505467
vt 0.215496 0.530227
vt 0.398696 0.612584
vt 0.491183 0.650834
vt 0.551045 0.676537
vt 0.508319 0.628882
vn -0.0581 -0.4952 0.8668
vn 0.6406 0.0088 0.7678
vn -0.4223 -0.6001 0.6794
vn 0.4297 0.6172 0.6591
vn 0.2270 -0.2173 0.9493
vn -0.0633 0.3459 0.9361
vn 0.4252 0.0629 0.9029
vn 0.3572 0.4020 0.8431
vn 0.4432 0.1142 0.8891
vn 0.2982 -0.3252 0.8974
vn 0.3012 -0.0402 0.9527
vn -0.0000 -0.0000 1.0000
vn 0.4269 0.0777 0.9009
vn 0.3191 0.1988 0.9266
vn 0.2189 0.4269 0.8774
vn 0.1286 -0.2066 0.9699
vn 0.6503 -0.1507 0.7446
vn 0.1234 0.6546 0.7458
vn -0.3608 -0.2250 0.9051
vn 0.4530 0.0849 0.8875
vn 0.1177 -0.3630 0.9243
vn 0.0238 -0.4166 0.9088
vn 0.3211 0.2141 0.9225
vn 0.3109 0.4117 0.8567
vn -0.2377 -0.5147 0.8238
vn -0.5438 -0.4210 0.7260
vn -0.2503 -0.6082 0.7533
vn -0.4698 -0.4514 0.7586
vn -0.5828 -0.2938 0.7577
vn -0.6282 -0.0064 0.7780
vn -0.5303 -0.2058 0.8225
vn -0.0474 0.6168 0.7857
vn -0.4769 0.2940 0.8283
vn -0.4316 0.4929 0.7555
vn -0.2503 0.6420 0.7247
vn 0.2203 -0.0881 0.9714
vn 0.1958 -0.3750 0.9061
vn -0.0013 -0.4221 0.9065
vn -0.6968 -0.1141 0.7081
vn -0.1489 -0.4500 0.8805
vn 0.3558 0.3846 0.8518
vn -0.1655 0.5586 0.8128
vn 0.0010 0.6552 0.7555
vn 0.0581 -0.4952 0.8668
vn -0.6406 0.0088 0.7678
vn 0.4223 -0.6001 0.6794
vn -0.4297 0.6172 0.6591
vn -0.2270 -0.2173 0.9493
vn 0.0633 0.3459 0.9361
vn -0.4252 0.0629 0.9029
vn -0.3572 0.4020 0.8431
vn -0.4432 0.1142 0.8891
vn -0.2982 -0.3252 0.8974
vn -0.3012 -0.0402 0.9527
vn -0.4269 0.0777 0.9009
vn -0.3191 0.1988 0.9266
vn -0.2189 0.4269 0.8774
vn -0.1286 -0.2066 0.9699
vn -0.6503 -0.1507 0.7446
vn -0.1234 0.6546 0.7458
vn 0.3608 -0.2250 0.9051
vn -0.4530 0.0849 0.8875
vn -0.1177 -0.3630 0.9243
vn -0.0238 -0.4166 0.9088
vn -0.3211 0.2141 0.9225
vn -0.3109 0.4117 0.8567
vn 0.2377 -0.5147 0.8238
vn 0.5438 -0.4210 0.7260
vn 0.2503 -0.6082 0.7533
vn 0.4698 -0.4514 0.7586
vn 0.5828 -0.2938 0.7577
vn 0.6282 -0.0064 0.7780
vn 0.5303 -0.2058 0.8225
vn 0.0474 0.6168 0.7857
vn 0.4769 0.2940 0.8283
vn 0.4316 0.4929 0.7555
vn 0.2503 0.6420 0.7247
vn -0.1958 -0.3750 0.9061
vn 0.0013 -0.4221 0.9065
vn 0.6968 -0.1141 0.7081
vn 0.1489 -0.4500 0.8805
vn -0.3558 0.3846 0.8518
vn 0.1655 0.5586 0.8128
vn -0.0010 0.6552 0.7555
vn -0.0581 -0.4952 -0.8668
vn 0.6406 0.0088 -0.7678
vn -0.4223 -0.6001 -0.6794
vn 0.4297 0.6172 -0.6591
vn 0.2270 -0.2173 -0.9493
vn -0.0633 0.3459 -0.9361
vn 0.4252 0.0629 -0.9029
vn 0.3572 0.4020 -0.8431
vn 0.4432 0.1142 -0.8891
vn 0.2982 -0.3252 -0.8974
vn 0.3012 -0.0402 -0.9527
vn -0.0000 0.0000 -1.0000
vn 0.4269 0.0777 -0.9009
vn 0.3191 0.1988 -0.9266
vn 0.2189 0.4269 -0.8774
vn 0.1286 -0.2066 -0.9699
vn 0.6503 -0.1507 -0.7446
vn 0.1234 0.6546 -0.7458
vn -0.3608 -0.2250 -0.9051
vn 0.4530 0.0849 -0.8875
vn 0.1177 -0.3630 -0.9243
vn 0.0238 -0.4166 -0.9088
vn 0.3211 0.2141 -0.9225
vn 0.3109 0.4117 -0.8567
vn -0.2377 -0.5147 -0.8238
vn -0.5438 -0.4210 -0.7260
vn -0.2503 -0.6082 -0.7533
vn -0.4698 -0.4514 -0.7586
vn -0.5828 -0.2938 -0.7577
vn -0.6282 -0.0064 -0.7780
vn -0.5303 -0.2058 -0.8225
vn -0.0474 0.6168 -0.7857
vn -0.4769 0.2940 -0.8283
vn -0.4316 0.4929 -0.7555
vn -0.2503 0.6420 -0.7247
vn 0.2203 -0.0881 -0.9714
vn 0.1958 -0.3750 -0.9061
vn -0.0013 -0.4221 -0.9065
vn -0.6968 -0.1141 -0.7081
vn -0.1489 -0.4500 -0.8805
vn 0.3558 0.3846 -0.8518
vn -0.1655 0.5586 -0.8128
vn 0.0010 0.6552 -0.7555
vn 0.0581 -0.4952 -0.8668
vn -0.6406 0.0088 -0.7678
vn 0.4223 -0.6001 -0.6794
vn -0.4297 0.6172 -0.6591
vn -0.2270 -0.2173 -0.9493
vn 0.0633 0.3459 -0.9361
vn -0.4252 0.0629 -0.9029
vn -0.3572 0.4020 -0.8431
vn -0.4432 0.1142 -0.8891
vn -0.2982 -0.3252 -0.8974
vn -0.3012 -0.0402 -0.9527
vn -0.4269 0.0777 -0.9009
vn -0.3191 0.1988 -0.9266
vn -0.2189 0.4269 -0.8774
vn -0.1286 -0.2066 -0.9699
vn -0.6503 -0.1507 -0.7446
vn -0.1234 0.6546 -0.7458
vn 0.3608 -0.2250 -0.9051
vn -0.4530 0.0849 -0.8875
vn -0.1177 -0.3630 -0.9243
vn -0.0238 -0.4166 -0.9088
vn -0.3211 0.2141 -0.9225
vn -0.3109 0.4117 -0.8567
vn 0.2377 -0.5147 -0.8238
vn 0.5438 -0.4210 -0.7260
vn 0.2503 -0.6082 -0.7533
vn 0.4698 -0.4514 -0.7586
vn 0.5828 -0.2938 -0.7577
vn 0.6282 -0.0064 -0.7780
vn 0.5303 -0.2058 -0.8225
vn 0.0474 0.6168 -0.7857
vn 0.4769 0.2940 -0.8283
vn 0.4316 0.4929 -0.7555
vn 0.2503 0.6420 -0.7247
vn -0.2203 -0.0881 0.9714
vn -0.1958 -0.3750 -0.9061
vn 0.0013 -0.4221 -0.9065
vn 0.6968 -0.1141 -0.7081
vn 0.1489 -0.4500 -0.8805
vn -0.3558 0.3846 -0.8518
vn 0.1655 0.5586 -0.8128
vn -0.0010 0.6552 -0.7555
vn -0.2203 -0.0881 -0.9714
usemtl red
s off
f 71/1/1 1/2/1 72/3/1
f 17/4/2 14/5/2 1/2/2 4/6/2
f 71/1/3 75/7/3 2/8/3 1/2/3
f 2/8/4 3/9/4 4/6/4 1/2/4
f 6/10/5 5/11/5 79/12/5
f 6/10/6 79/12/6 78/13/6
f 5/11/7 6/10/7 28/14/7 80/15/7
f 78/13/8 7/16/8 8/17/8 6/10/8
f 83/18/9 9/19/9 10/20/9 11/21/9
f 11/21/10 10/20/10 12/22/10 13/23/10
f 12/22/11 87/24/11 13/23/11
f 14/25/12 16/26/12 12/22/12
f 16/26/13 87/24/13 12/22/13
f 15/27/14 7/16/14 87/24/14 16/26/14
f 8/17/15 7/16/15 15/27/15
f 16/26/16 17/28/16 18/29/16
f 16/26/17 14/25/17 17/28/17
f 21/30/18 29/31/18 3/32/18 2/33/18
f 2/33/19 75/34/19 30/35/19 32/36/19
f 2/33/12 32/36/12 19/37/12
f 19/37/12 21/30/12 2/33/12
f 28/14/20 20/38/20 21/30/20 80/15/20
f 91/39/21 32/36/21 31/40/21 33/41/21
f 91/39/22 22/42/22 32/36/22
f 23/43/23 80/15/23 21/30/23
f 19/37/24 24/44/24 23/43/24 21/30/24
f 32/36/25 22/42/25 92/45/25 19/37/25
f 12/46/12 10/47/12 9/48/12
f 37/49/12 19/50/12 38/51/12
f 19/50/12 25/52/12 38/51/12
f 16/53/26 18/54/26 15/55/26
f 95/56/27 8/57/27 15/55/27 18/54/27
f 26/58/28 6/59/28 8/57/28 95/56/28
f 6/59/29 26/58/29 27/60/29 28/61/29
f 28/61/30 27/60/30 29/62/30 20/63/30
f 21/64/31 20/63/31 29/62/31
f 30/35/32 31/40/32 32/36/32
f 31/65/33 30/66/33 75/67/33 99/68/33
f 33/69/34 31/65/34 99/68/34 102/70/34
f 102/70/35 35/71/35 33/69/35
f 104/72/36 105/73/36 34/74/36
f 105/73/37 91/39/37 33/41/37 35/75/37
f 105/73/38 35/75/38 34/74/38
f 19/37/39 92/45/39 108/76/39 25/77/39
f 38/78/40 25/77/40 108/76/40 36/79/40
f 109/80/41 37/81/41 38/78/41 36/79/41
f 24/44/42 19/37/42 37/81/42 109/80/42
f 34/82/43 35/71/43 102/70/43 111/83/43
f 39/84/44 72/3/44 1/2/44
f 121/85/45 40/86/45 1/2/45 14/5/45
f 39/84/46 1/2/46 42/87/46 41/88/46
f 42/87/47 1/2/47 40/86/47 43/89/47
f 60/90/48 115/91/48 114/92/48
f 60/90/49 44/93/49 115/91/49
f 114/92/50 117/94/50 45/95/50 60/90/50
f 44/93/51 60/90/51 58/96/51 118/97/51
f 83/18/52 46/98/52 47/99/52 9/19/52
f 46/98/53 48/100/53 12/22/53 47/99/53
f 12/22/54 48/100/54 49/101/54
f 14/25/12 12/22/12 50/102/12
f 50/102/55 12/22/55 49/101/55
f 51/103/56 50/102/56 49/101/56 118/97/56
f 58/96/57 51/103/57 118/97/57
f 50/102/58 57/104/58 121/105/58
f 50/102/59 121/105/59 14/25/59
f 52/106/60 42/107/60 43/108/60 122/109/60
f 42/107/61 64/110/61 63/111/61 41/112/61
f 42/107/12 53/113/12 64/110/12
f 53/113/12 42/107/12 52/106/12
f 45/95/62 117/94/62 52/106/62 62/114/62
f 125/115/63 67/116/63 65/117/63 64/110/63
f 125/115/64 64/110/64 127/118/64
f 128/119/65 52/106/65 117/94/65
f 53/113/66 52/106/66 128/119/66 129/120/66
f 64/110/67 53/113/67 54/121/67 127/118/67
f 12/46/12 9/48/12 47/122/12
f 55/123/12 56/124/12 53/125/12
f 53/125/12 56/124/12 69/126/12
f 50/127/68 51/128/68 57/129/68
f 133/130/69 57/129/69 51/128/69 58/131/69
f 59/132/70 133/130/70 58/131/70 60/133/70
f 60/133/71 45/134/71 61/135/71 59/132/71
f 45/134/72 62/136/72 122/137/72 61/135/72
f 52/138/73 122/137/73 62/136/73
f 63/111/74 64/110/74 65/117/74
f 65/139/75 66/140/75 41/141/75 63/142/75
f 67/143/76 139/144/76 66/140/76 65/139/76
f 139/144/77 67/143/77 68/145/77
f 141/146/78 68/147/78 67/116/78 125/115/78
f 68/147/79 141/146/79 34/74/79
f 53/113/80 69/148/80 70/149/80 54/121/80
f 56/150/81 142/151/81 70/149/81 69/148/81
f 144/152/82 142/151/82 56/150/82 55/153/82
f 129/120/83 144/152/83 55/153/83 53/113/83
f 34/82/84 111/83/84 139/144/84 68/145/84
f 71/1/85 72/3/85 73/154/85
f 17/4/86 4/6/86 73/154/86 74/155/86
f 71/1/87 73/154/87 76/156/87 75/7/87
f 76/156/88 73/154/88 4/6/88 3/9/88
f 77/157/89 79/12/89 5/11/89
f 77/157/90 78/13/90 79/12/90
f 5/11/91 80/15/91 81/158/91 77/157/91
f 78/13/92 77/157/92 82/159/92 7/16/92
f 83/18/93 11/21/93 84/160/93 85/161/93
f 11/21/94 13/23/94 86/162/94 84/160/94
f 86/162/95 13/23/95 87/24/95
f 74/163/96 86/162/96 88/164/96
f 88/164/97 86/162/97 87/24/97
f 89/165/98 88/164/98 87/24/98 7/16/98
f 82/159/99 89/165/99 7/16/99
f 88/164/100 18/29/100 17/28/100
f 88/164/101 17/28/101 74/163/101
f 90/166/102 76/167/102 3/32/102 29/31/102
f 76/167/103 97/168/103 100/169/103 75/34/103
f 76/167/96 106/170/96 97/168/96
f 106/170/96 76/167/96 90/166/96
f 81/158/104 80/15/104 90/166/104 96/171/104
f 91/39/105 101/172/105 98/173/105 97/168/105
f 91/39/106 97/168/106 22/42/106
f 23/43/107 90/166/107 80/15/107
f 106/170/108 90/166/108 23/43/108 24/44/108
f 97/168/109 106/170/109 92/45/109 22/42/109
f 86/174/96 85/175/96 84/176/96
f 93/177/96 94/178/96 106/179/96
f 106/179/96 94/178/96 107/180/96
f 88/181/110 89/182/110 18/54/110
f 95/56/111 18/54/111 89/182/111 82/183/111
f 26/58/112 95/56/112 82/183/112 77/184/112
f 77/184/113 81/185/113 27/60/113 26/58/113
f 81/185/114 96/186/114 29/62/114 27/60/114
f 90/187/115 29/62/115 96/186/115
f 100/169/116 97/168/116 98/173/116
f 98/188/117 99/68/117 75/67/117 100/189/117
f 101/190/118 102/70/118 99/68/118 98/188/118
f 102/70/119 101/190/119 103/191/119
f 104/72/120 110/192/120 105/73/120
f 105/73/121 103/193/121 101/172/121 91/39/121
f 105/73/122 110/192/122 103/193/122
f 106/170/123 107/194/123 108/76/123 92/45/123
f 94/195/124 36/79/124 108/76/124 107/194/124
f 109/80/125 36/79/125 94/195/125 93/196/125
f 24/44/126 109/80/126 93/196/126 106/170/126
f 110/197/127 111/83/127 102/70/127 103/191/127
f 39/84/128 73/154/128 72/3/128
f 121/85/129 74/155/129 73/154/129 40/86/129
f 39/84/130 41/88/130 112/198/130 73/154/130
f 112/198/131 43/89/131 40/86/131 73/154/131
f 113/199/132 114/92/132 115/91/132
f 113/199/133 115/91/133 44/93/133
f 114/92/134 113/199/134 116/200/134 117/94/134
f 44/93/135 118/97/135 134/201/135 113/199/135
f 83/18/136 85/161/136 119/202/136 46/98/136
f 46/98/137 119/202/137 86/162/137 48/100/137
f 86/162/138 49/101/138 48/100/138
f 74/163/96 120/203/96 86/162/96
f 120/203/139 49/101/139 86/162/139
f 132/204/140 118/97/140 49/101/140 120/203/140
f 134/201/141 118/97/141 132/204/141
f 120/203/142 121/105/142 57/104/142
f 120/203/143 74/163/143 121/105/143
f 124/205/144 122/109/144 43/108/144 112/206/144
f 112/206/145 41/112/145 136/207/145 137/208/145
f 112/206/96 137/208/96 123/209/96
f 123/209/96 124/205/96 112/206/96
f 116/200/146 135/210/146 124/205/146 117/94/146
f 125/115/147 137/208/147 138/211/147 126/212/147
f 125/115/148 127/118/148 137/208/148
f 128/119/149 117/94/149 124/205/149
f 123/209/150 129/120/150 128/119/150 124/205/150
f 137/208/151 127/118/151 54/121/151 123/209/151
f 86/174/96 119/213/96 85/175/96
f 143/214/96 123/215/96 130/216/96
f 123/215/96 131/217/96 130/216/96
f 120/218/152 57/129/152 132/219/152
f 133/130/153 134/220/153 132/219/153 57/129/153
f 59/132/154 113/221/154 134/220/154 133/130/154
f 113/221/155 59/132/155 61/135/155 116/222/155
f 116/222/156 61/135/156 122/137/156 135/223/156
f 124/224/157 135/223/157 122/137/157
f 136/207/158 138/211/158 137/208/158
f 138/225/159 136/226/159 41/141/159 66/140/159
f 126/227/160 138/225/160 66/140/160 139/144/160
f 139/144/161 140/228/161 126/227/161
f 141/146/162 104/72/162 34/74/162
f 141/146/163 125/115/163 126/212/163 140/229/163
f 141/146/164 140/229/164 110/192/164
f 123/209/165 54/121/165 70/149/165 131/230/165
f 130/231/166 131/230/166 70/149/166 142/151/166
f 144/152/167 143/232/167 130/231/167 142/151/167
f 129/120/168 123/209/168 143/232/168 144/152/168
f 110/197/169 140/228/169 139/144/169 111/83/169
f 141/146/170 110/192/170 104/72/170
