mtllib incompletekiblade.mtl
v -0.000002 -56.402500 -5.816000
v -0.000002 -56.402500 0.000000
v -0.000002 -52.623100 -5.816000
v -0.000002 -50.054504 -3.100500
v -0.000002 -52.623100 -5.816000
v -0.000002 -56.402500 0.000000
v -0.000002 -56.402500 0.000000
v -0.000002 -45.748199 -2.077200
v -0.000002 -50.054504 -3.100500
v -0.000002 -45.950802 -6.383500
v -0.000002 -50.054504 -3.100500
v -0.000002 -45.748199 -2.077200
v -0.000002 -45.748199 -2.077200
v -0.000002 -43.615299 -3.779400
v -0.000002 -45.950802 -6.383500
v -0.000002 -43.615299 3.779400
v -0.000002 -45.748199 2.077200
v -0.000002 -45.950802 6.383500
v -0.000002 -50.054504 3.100500
v -0.000002 -45.950802 6.383500
v -0.000002 -45.748199 2.077200
v -0.000002 -45.748199 2.077200
v -0.000002 -56.402500 0.000000
v -0.000002 -50.054504 3.100500
v -0.000002 -52.623100 5.816000
v -0.000002 -50.054504 3.100500
v -0.000002 -56.402500 0.000000
v -0.000002 -56.402500 0.000000
v -0.000002 -56.402500 5.816000
v -0.000002 -52.623100 5.816000
v -0.000002 -56.402500 5.816000
v -0.000002 -56.402500 0.000000
v -0.000002 -52.623100 5.816000
v -0.000002 -50.054504 3.100500
v -0.000002 -52.623100 5.816000
v -0.000002 -56.402500 0.000000
v -0.000002 -56.402500 0.000000
v -0.000002 -45.748199 2.077200
v -0.000002 -50.054504 3.100500
v -0.000002 -45.950802 6.383500
v -0.000002 -50.054504 3.100500
v -0.000002 -45.748199 2.077200
v -0.000002 -45.748199 2.077200
v -0.000002 -43.615299 3.779400
v -0.000002 -45.950802 6.383500
v -0.000002 -43.615299 -3.779400
v -0.000002 -45.748199 -2.077200
v -0.000002 -45.950802 -6.383500
v -0.000002 -50.054504 -3.100500
v -0.000002 -45.950802 -6.383500
v -0.000002 -45.748199 -2.077200
v -0.000002 -45.748199 -2.077200
v -0.000002 -56.402500 0.000000
v -0.000002 -50.054504 -3.100500
v -0.000002 -52.623100 -5.816000
v -0.000002 -50.054504 -3.100500
v -0.000002 -56.402500 0.000000
v -0.000002 -56.402500 0.000000
v -0.000002 -56.402500 -5.816000
v -0.000002 -52.623100 -5.816000
v -1.773201 -21.845600 0.000000
v -1.773201 -25.386900 0.000000
v 1.773199 -21.845600 0.000000
v -1.773201 -25.386900 0.000000
v -1.773201 -21.845600 0.000000
v 1.773199 -21.845600 0.000000
v -1.773201 -25.386900 0.000000
v 1.773199 -25.386900 0.000000
v 1.773199 -21.845600 0.000000
v 1.773199 -25.386900 0.000000
v -1.773201 -25.386900 0.000000
v 1.773199 -21.845600 0.000000
v 1.773199 -31.907200 0.000000
v -1.773201 -31.907200 0.000000
v 1.773199 -26.856199 0.000000
v -1.773201 -31.907200 0.000000
v 1.773199 -31.907200 0.000000
v 1.773199 -26.856199 0.000000
v -1.773201 -31.907200 0.000000
v -1.773201 -26.856199 0.000000
v 1.773199 -26.856199 0.000000
v -1.773201 -26.856199 0.000000
v -1.773201 -31.907200 0.000000
v 1.773199 -26.856199 0.000000
v -1.773202 -43.731800 0.000000
v -1.773202 -38.680801 0.000000
v 1.773198 -38.680801 0.000000
v 1.773198 -43.731800 0.000000
v -1.773202 -43.731800 0.000000
v 1.773198 -38.680801 0.000000
v -0.000002 -56.402500 0.000000
v -0.000002 -41.512798 0.000000
v -0.000002 -45.748199 -2.077200
v -0.000002 -41.512798 0.000000
v -0.000002 -42.156200 -2.077200
v -0.000002 -45.748199 -2.077200
v -1.773202 -43.731800 0.000000
v 1.773198 -43.731800 0.000000
v 1.773198 -38.680801 0.000000
v -1.773202 -38.680801 0.000000
v -1.773202 -43.731800 0.000000
v 1.773198 -38.680801 0.000000
v -0.000002 -40.737701 1.773200
v -0.000002 -35.691700 1.773200
v -0.000002 -35.691700 -1.773200
v -0.000002 -35.691700 1.773200
v -0.000002 -40.737701 1.773200
v -0.000002 -35.691700 -1.773200
v -0.000001 -28.913000 1.773200
v -0.000001 -28.913000 -1.773200
v -0.000001 -23.867100 -1.773200
v -0.000001 -28.913000 -1.773200
v -0.000001 -28.913000 1.773200
v -0.000001 -23.867100 -1.773200
v -0.000002 -34.825401 1.773200
v -0.000001 -29.779402 1.773200
v -0.000001 -29.779402 -1.773200
v -0.000001 -29.779402 1.773200
v -0.000002 -34.825401 1.773200
v -0.000001 -29.779402 -1.773200
v -0.000002 -34.825401 -1.773200
v -0.000002 -34.825401 1.773200
v -0.000001 -29.779402 -1.773200
v -0.000002 -34.825401 1.773200
v -0.000002 -34.825401 -1.773200
v -0.000001 -29.779402 -1.773200
v -0.000002 -40.737701 -1.773200
v -0.000002 -40.737701 1.773200
v -0.000002 -35.691700 -1.773200
v -0.000002 -40.737701 1.773200
v -0.000002 -40.737701 -1.773200
v -0.000002 -35.691700 -1.773200
v -0.000001 -23.867100 1.773200
v -0.000001 -28.913000 1.773200
v -0.000001 -23.867100 -1.773200
v -0.000001 -28.913000 1.773200
v -0.000001 -23.867100 1.773200
v -0.000001 -23.867100 -1.773200
v -0.000002 -41.512798 0.000000
v -0.000002 -56.402500 0.000000
v -0.000002 -45.748199 2.077200
v -0.000002 -42.156200 2.077200
v -0.000002 -41.512798 0.000000
v -0.000002 -45.748199 2.077200
v -0.000002 -41.512798 0.000000
v -0.000002 -42.156200 2.077200
v -0.000002 -45.748199 2.077200
v -0.000002 -56.402500 0.000000
v -0.000002 -41.512798 0.000000
v -0.000002 -45.748199 2.077200
v -0.000002 -42.156200 -2.077200
v -0.000002 -41.512798 0.000000
v -0.000002 -45.748199 -2.077200
v -0.000002 -41.512798 0.000000
v -0.000002 -56.402500 0.000000
v -0.000002 -45.748199 -2.077200
v -1.773201 -32.768501 0.000000
v -1.773202 -37.819500 0.000000
v 1.773199 -32.768501 0.000000
v -1.773202 -37.819500 0.000000
v 1.773198 -37.819500 0.000000
v 1.773199 -32.768501 0.000000
v 1.773198 -37.819500 0.000000
v -1.773202 -37.819500 0.000000
v 1.773199 -32.768501 0.000000
v -1.773202 -37.819500 0.000000
v -1.773201 -32.768501 0.000000
v 1.773199 -32.768501 0.000000
vt 0.499307 0.876733
vt 0.499307 0.513665
vt 0.381279 0.876733
vt 0.301190 0.707295
vt 0.381279 0.876733
vt 0.499307 0.513665
vt 0.499307 0.513665
vt 0.166867 0.643575
vt 0.301190 0.707295
vt 0.173049 0.912089
vt 0.301190 0.707295
vt 0.166867 0.643575
vt 0.166867 0.643575
vt 0.100253 0.749693
vt 0.173049 0.912089
vt 0.100254 0.749693
vt 0.166867 0.643574
vt 0.173049 0.912089
vt 0.301191 0.707294
vt 0.173049 0.912089
vt 0.166867 0.643574
vt 0.166867 0.643574
vt 0.499308 0.513665
vt 0.301191 0.707294
vt 0.381279 0.876733
vt 0.301191 0.707294
vt 0.499308 0.513665
vt 0.499308 0.513665
vt 0.499307 0.876733
vt 0.381279 0.876733
vt 0.499307 0.876733
vt 0.499308 0.513665
vt 0.381279 0.876733
vt 0.301191 0.707294
vt 0.381279 0.876733
vt 0.499308 0.513665
vt 0.499308 0.513665
vt 0.166867 0.643574
vt 0.301191 0.707294
vt 0.173049 0.912089
vt 0.301191 0.707294
vt 0.166867 0.643574
vt 0.166867 0.643574
vt 0.100254 0.749693
vt 0.173049 0.912089
vt 0.100253 0.749693
vt 0.166867 0.643575
vt 0.173049 0.912089
vt 0.301190 0.707295
vt 0.173049 0.912089
vt 0.166867 0.643575
vt 0.166867 0.643575
vt 0.499307 0.513665
vt 0.301190 0.707295
vt 0.381279 0.876733
vt 0.301190 0.707295
vt 0.499307 0.513665
vt 0.499307 0.513665
vt 0.499307 0.876733
vt 0.381279 0.876733
vt 0.248512 0.792714
vt 0.348880 0.792714
vt 0.248512 0.991938
vt 0.348880 0.792714
vt 0.248512 0.792714
vt 0.248512 0.991938
vt 0.348880 0.792714
vt 0.348880 0.991938
vt 0.248512 0.991938
vt 0.348880 0.991938
vt 0.348880 0.792714
vt 0.248512 0.991938
vt 0.093239 0.759129
vt 0.007320 0.759129
vt 0.093239 0.992912
vt 0.007320 0.759129
vt 0.093239 0.759129
vt 0.093239 0.992912
vt 0.007320 0.759129
vt 0.007320 0.992912
vt 0.093239 0.992912
vt 0.007320 0.992912
vt 0.007320 0.759129
vt 0.093239 0.992912
vt 0.007320 0.759129
vt 0.007320 0.992911
vt 0.093239 0.992912
vt 0.093239 0.759129
vt 0.007320 0.759129
vt 0.093239 0.992912
vt 0.498076 0.506283
vt 0.025173 0.506283
vt 0.165636 0.636193
vt 0.025173 0.506283
vt 0.045248 0.636193
vt 0.165636 0.636193
vt 0.007320 0.759130
vt 0.093239 0.759130
vt 0.093239 0.992912
vt 0.007320 0.992912
vt 0.007320 0.759130
vt 0.093239 0.992912
vt 0.093239 0.759129
vt 0.093239 0.992912
vt 0.007320 0.992912
vt 0.093239 0.992912
vt 0.093239 0.759129
vt 0.007320 0.992912
vt 0.093239 0.759129
vt 0.007320 0.759129
vt 0.007320 0.992912
vt 0.007320 0.759129
vt 0.093239 0.759129
vt 0.007320 0.992912
vt 0.093239 0.759129
vt 0.093239 0.992912
vt 0.007320 0.992912
vt 0.093239 0.992912
vt 0.093239 0.759129
vt 0.007320 0.992912
vt 0.007320 0.759129
vt 0.093239 0.759129
vt 0.007320 0.992912
vt 0.093239 0.759129
vt 0.007320 0.759129
vt 0.007320 0.992912
vt 0.007320 0.759129
vt 0.093239 0.759129
vt 0.007320 0.992912
vt 0.093239 0.759129
vt 0.007320 0.759129
vt 0.007320 0.992912
vt 0.093239 0.992912
vt 0.093239 0.759129
vt 0.007320 0.992912
vt 0.093239 0.759129
vt 0.093239 0.992912
vt 0.007320 0.992912
vt 0.025173 0.506283
vt 0.498077 0.506283
vt 0.165636 0.636192
vt 0.045250 0.636192
vt 0.025173 0.506283
vt 0.165636 0.636192
vt 0.025173 0.506283
vt 0.045250 0.636192
vt 0.165636 0.636192
vt 0.498077 0.506283
vt 0.025173 0.506283
vt 0.165636 0.636192
vt 0.045248 0.636193
vt 0.025173 0.506283
vt 0.165636 0.636193
vt 0.025173 0.506283
vt 0.498076 0.506283
vt 0.165636 0.636193
vt 0.007320 0.992912
vt 0.007320 0.759130
vt 0.093239 0.992912
vt 0.007320 0.759130
vt 0.093239 0.759130
vt 0.093239 0.992912
vt 0.093239 0.759129
vt 0.007320 0.759129
vt 0.093239 0.992912
vt 0.007320 0.759129
vt 0.007320 0.992911
vt 0.093239 0.992912
vn -1.0000 0.0000 0.0000
vn 1.0000 -0.0000 0.0000
vn 0.0000 0.0000 1.0000
vn 0.0000 0.0000 -1.0000
o keychain
usemtl Brush.049
f 1/1/1 2/2/1 3/3/1
f 4/4/1 5/5/1 6/6/1
f 7/7/1 8/8/1 9/9/1
f 10/10/1 11/11/1 12/12/1
f 13/13/1 14/14/1 15/15/1
f 16/16/1 17/17/1 18/18/1
f 19/19/1 20/20/1 21/21/1
f 22/22/1 23/23/1 24/24/1
f 25/25/1 26/26/1 27/27/1
f 28/28/1 29/29/1 30/30/1
f 31/31/2 32/32/2 33/33/2
f 34/34/2 35/35/2 36/36/2
f 37/37/2 38/38/2 39/39/2
f 40/40/2 41/41/2 42/42/2
f 43/43/2 44/44/2 45/45/2
f 46/46/2 47/47/2 48/48/2
f 49/49/2 50/50/2 51/51/2
f 52/52/2 53/53/2 54/54/2
f 55/55/2 56/56/2 57/57/2
f 58/58/2 59/59/2 60/60/2
f 61/61/3 62/62/3 63/63/3
f 64/64/4 65/65/4 66/66/4
f 67/67/3 68/68/3 69/69/3
f 70/70/4 71/71/4 72/72/4
f 73/73/4 74/74/4 75/75/4
f 76/76/3 77/77/3 78/78/3
f 79/79/4 80/80/4 81/81/4
f 82/82/3 83/83/3 84/84/3
f 85/85/4 86/86/4 87/87/4
f 88/88/4 89/89/4 90/90/4
f 91/91/1 92/92/1 93/93/1
f 94/94/1 95/95/1 96/96/1
f 97/97/3 98/98/3 99/99/3
f 100/100/3 101/101/3 102/102/3
f 103/103/1 104/104/1 105/105/1
f 106/106/2 107/107/2 108/108/2
f 109/109/2 110/110/2 111/111/2
f 112/112/1 113/113/1 114/114/1
f 115/115/1 116/116/1 117/117/1
f 118/118/2 119/119/2 120/120/2
f 121/121/1 122/122/1 123/123/1
f 124/124/2 125/125/2 126/126/2
f 127/127/1 128/128/1 129/129/1
f 130/130/2 131/131/2 132/132/2
f 133/133/2 134/134/2 135/135/2
f 136/136/1 137/137/1 138/138/1
f 139/139/1 140/140/1 141/141/1
f 142/142/1 143/143/1 144/144/1
f 145/145/2 146/146/2 147/147/2
f 148/148/2 149/149/2 150/150/2
f 151/151/2 152/152/2 153/153/2
f 154/154/2 155/155/2 156/156/2
f 157/157/3 158/158/3 159/159/3
f 160/160/3 161/161/3 162/162/3
f 163/163/4 164/164/4 165/165/4
f 166/166/4 167/167/4 168/168/4
