# Blender v2.77 (sub 0) OBJ File: ''
# www.blender.org
mtllib jiltedanemone.mtl
o obj2_Mesh
v 1.619610 3.747060 0.400000
v 1.878310 3.650040 0.000000
v 1.269120 0.709980 0.000000
v 1.027540 -4.252250 0.000000
v 2.092590 -8.800521 0.000000
v 3.582460 -12.028590 0.000000
v 3.276890 -12.571820 0.000000
v 2.631810 -12.537870 0.000000
v 1.413550 -9.097600 0.000000
v 0.518260 -4.188590 0.000000
v 0.785310 0.862760 0.000000
v 1.380000 3.818200 0.000000
v 1.046800 0.833780 0.400000
v 0.765710 -4.218210 0.400000
v 1.742870 -8.908960 0.400000
v 3.080840 -12.245070 0.400000
v 1.978240 -10.856410 0.000000
v 2.576700 -11.176291 0.400000
v 2.830340 -11.754580 0.400000
v 2.465100 -12.048800 0.000000
v 2.047420 -9.872470 0.441980
v 2.713060 -12.065460 0.400000
v 2.007660 3.756760 0.000000
v 1.342000 4.008990 0.000000
v 1.425580 4.141570 0.000000
v 1.686610 3.902540 0.600000
v 1.739920 4.080200 0.400000
v -5.087850 10.822081 0.400000
v 0.117620 9.153151 0.400000
v 0.700420 10.928050 0.400000
v 1.309710 11.881721 0.000000
v -7.962120 11.219450 0.000000
v 0.388120 8.010119 0.000000
v 4.361100 7.978860 0.000000
v 4.700510 8.682530 0.400000
v 7.860220 8.536500 0.000000
v 6.745280 8.773590 0.400000
v 4.978010 10.422650 0.000000
v 4.841250 9.717330 0.400000
v 4.554150 10.125950 0.000000
v 3.854790 9.956410 0.000000
v 3.325960 11.437780 0.000000
v 3.127280 10.550330 0.400000
v 3.450470 10.106410 0.400000
v 3.065360 8.349530 0.400000
v 2.416000 7.342870 0.600000
v 2.270630 8.654181 0.400000
v 2.601770 8.164090 0.600000
v 2.891900 6.910420 0.400000
v 3.496220 6.612400 0.000000
v 3.275630 7.281610 0.000000
v 3.249140 7.731960 0.000000
v 3.567030 8.248530 0.000000
v 3.871680 8.513440 0.000000
v 4.163080 8.526690 0.000000
v 1.288810 7.281620 0.000000
v 1.937840 8.089590 0.000000
v 1.884860 8.566430 0.000000
v 1.566970 8.751860 0.000000
v 1.169600 8.632650 0.000000
v 0.719260 8.341249 0.000000
v 1.988260 3.899040 0.000000
v 2.348110 7.956880 0.400000
v 1.790870 7.200161 0.400000
v 2.748010 7.857310 0.400000
v 1.807040 4.533250 0.600000
v 2.245790 4.375960 0.400000
v 2.505740 4.164030 0.000000
v 2.312020 4.789880 0.000000
v 1.906380 4.980280 0.400000
v 1.351720 4.624310 0.400000
v 1.048730 4.707090 0.000000
v 1.525570 5.223670 0.000000
v 2.213340 10.285420 0.000000
v 2.655410 10.174490 0.400000
v 1.392120 10.987431 0.000000
v 1.723260 10.550330 0.000000
v 0.902040 9.729110 0.400000
v 1.662000 9.565200 0.400000
v 2.456730 9.432750 0.400000
v 2.589180 9.883090 0.400000
v 1.741470 9.989051 0.400000
v 1.092450 10.108260 0.400000
v 3.330930 9.737391 0.400000
v 3.238210 9.300290 0.400000
v 3.847500 9.194330 0.400000
v 4.523020 8.969150 0.400000
v 4.628990 9.485730 0.400000
v 3.900490 9.604940 0.400000
v 1.619610 3.747060 -0.400000
v 1.046800 0.833780 -0.400000
v 0.765710 -4.218210 -0.400000
v 1.742870 -8.908960 -0.400000
v 3.080840 -12.245070 -0.400000
v 2.576700 -11.176291 -0.400000
v 2.830340 -11.754580 -0.400000
v 2.047420 -9.872470 -0.441980
v 2.713060 -12.065460 -0.400000
v 1.686610 3.902540 -0.600000
v 1.739920 4.080200 -0.400000
v -5.087850 10.822081 -0.400000
v 0.117620 9.153151 -0.400000
v 0.700420 10.928050 -0.400000
v 4.700510 8.682530 -0.400000
v 6.745280 8.773590 -0.400000
v 4.841250 9.717330 -0.400000
v 3.127280 10.550330 -0.400000
v 3.450470 10.106410 -0.400000
v 3.065360 8.349530 -0.400000
v 2.416000 7.342870 -0.600000
v 2.270630 8.654181 -0.400000
v 2.601770 8.164090 -0.600000
v 2.891900 6.910420 -0.400000
v 2.348110 7.956880 -0.400000
v 1.790870 7.200161 -0.400000
v 2.748010 7.857310 -0.400000
v 1.807040 4.533250 -0.600000
v 2.245790 4.375960 -0.400000
v 1.906380 4.980280 -0.400000
v 1.351720 4.624310 -0.400000
v 2.655410 10.174490 -0.400000
v 0.902040 9.729110 -0.400000
v 1.662000 9.565200 -0.400000
v 2.456730 9.432750 -0.400000
v 2.589180 9.883090 -0.400000
v 1.741470 9.989051 -0.400000
v 1.092450 10.108260 -0.400000
v 3.330930 9.737391 -0.400000
v 3.238210 9.300290 -0.400000
v 3.847500 9.194330 -0.400000
v 4.523020 8.969150 -0.400000
v 4.628990 9.485730 -0.400000
v 3.900490 9.604940 -0.400000
vt 0.7584 0.8347
vt 0.7760 0.8335
vt 0.7744 0.9474
vt 0.7602 0.9511
vt 0.8987 0.8508
vt 0.9162 0.8453
vt 0.9162 0.9743
vt 0.8987 0.9786
vt 0.7584 0.6131
vt 0.7584 0.8347
vt 0.7760 0.8335
vt 0.7760 0.6118
vt 0.8987 0.6291
vt 0.8987 0.8508
vt 0.9162 0.8453
vt 0.9162 0.6277
vt 0.7584 0.3978
vt 0.7760 0.4061
vt 0.8987 0.4234
vt 0.9162 0.4281
vt 0.8969 0.3811
vt 0.7584 0.3207
vt 0.7778 0.3638
vt 0.0821 0.6923
vt 0.0727 0.7118
vt 0.0769 0.6839
vt 0.3964 0.5709
vt 0.4104 0.5233
vt 0.3978 0.5243
vt 0.4197 0.5760
vt 0.4243 0.5477
vt 0.4011 0.5856
vt 0.0931 0.6708
vt 0.0770 0.6787
vt 0.0710 0.7177
vt 0.1151 0.6803
vt 0.0478 0.7749
vt 0.0497 0.8219
vt 0.0472 0.7353
vt 0.0660 0.7248
vt 0.3320 0.4583
vt 0.3517 0.4759
vt 0.3603 0.4583
vt 0.3239 0.4710
vt 0.3239 0.4948
vt 0.3064 0.4853
vt 0.0447 0.5413
vt 0.0588 0.5600
vt 0.0461 0.5603
vt 0.0734 0.6579
vt 0.5560 0.6621
vt 0.5356 0.6656
vt 0.5329 0.6713
vt 0.5505 0.6686
vt 0.5281 0.6788
vt 0.5291 0.6854
vt 0.5494 0.6818
vt 0.5432 0.6762
vt 0.1604 0.4067
vt 0.1633 0.4154
vt 0.1774 0.3891
vt 0.1717 0.3891
vt 0.8380 0.9474
vt 0.8522 0.9511
vt 0.8540 0.8347
vt 0.8364 0.8335
vt 0.9592 0.9743
vt 0.9767 0.9786
vt 0.9767 0.8508
vt 0.9592 0.8453
vt 0.8364 0.6118
vt 0.8540 0.6131
vt 0.9592 0.8453
vt 0.9592 0.6277
vt 0.9767 0.6291
vt 0.9767 0.8508
vt 0.8540 0.3978
vt 0.8364 0.4061
vt 0.9592 0.4281
vt 0.9767 0.4234
vt 0.9786 0.3811
vt 0.8540 0.3207
vt 0.8346 0.3638
vt 0.2004 0.7118
vt 0.1910 0.6923
vt 0.1962 0.6839
vt 0.4664 0.5161
vt 0.4678 0.5627
vt 0.4538 0.5150
vt 0.4664 0.5835
vt 0.4432 0.5457
vt 0.4478 0.5739
vt 0.1800 0.6708
vt 0.1961 0.6787
vt 0.1580 0.6803
vt 0.2021 0.7177
vt 0.2234 0.8219
vt 0.2253 0.7749
vt 0.2071 0.7248
vt 0.2259 0.7353
vt 0.1335 0.6150
vt 0.1052 0.6150
vt 0.1249 0.5975
vt 0.2184 0.5446
vt 0.2360 0.5351
vt 0.2184 0.5208
vt 0.1615 0.5600
vt 0.1741 0.5603
vt 0.1755 0.5413
vt 0.1997 0.6579
vt 0.6285 0.6713
vt 0.6109 0.6686
vt 0.6057 0.6621
vt 0.6262 0.6658
vt 0.6058 0.6607
vt 0.6116 0.6551
vt 0.6267 0.6577
vt 0.6260 0.6643
vt 0.2632 0.4154
vt 0.2575 0.4154
vt 0.2462 0.3979
vt 0.2491 0.3891
vt 0.3320 0.4076
vt 0.3583 0.4012
vt 0.3583 0.4075
vt 0.3408 0.4154
vt 0.5475 0.4159
vt 0.5516 0.3923
vt 0.5695 0.3918
vt 0.5652 0.4162
vt 0.5193 0.3950
vt 0.4969 0.3911
vt 0.5112 0.3758
vt 0.5331 0.3796
vt 0.5761 0.3630
vt 0.5809 0.3359
vt 0.5996 0.3308
vt 0.5950 0.3569
vt 0.5146 0.3739
vt 0.4773 0.2861
vt 0.5057 0.2779
vt 0.5336 0.3688
vt 0.5839 0.5359
vt 0.6032 0.5290
vt 0.5883 0.5555
vt 0.5640 0.5399
vt 0.5810 0.5161
vt 0.5548 0.3884
vt 0.5519 0.3611
vt 0.5685 0.3871
vt 0.5555 0.2737
vt 0.5778 0.2740
vt 0.4920 0.2589
vt 0.4965 0.2397
vt 0.5191 0.2381
vt 0.4867 0.2149
vt 0.5092 0.2144
vt 0.3035 0.1698
vt 0.3534 0.1680
vt 0.4411 0.1875
vt 0.4504 0.2205
vt 0.4423 0.1103
vt 0.4429 0.1418
vt 0.5725 0.6520
vt 0.5829 0.6683
vt 0.5782 0.6777
vt 0.5811 0.6821
vt 0.5859 0.6726
vt 0.5987 0.6908
vt 0.5759 0.6839
vt 0.5639 0.7041
vt 0.5678 0.6776
vt 0.5685 0.6719
vt 0.5706 0.6524
vt 0.5765 0.6781
vt 0.5372 0.2368
vt 0.5559 0.2342
vt 0.8802 0.1697
vt 1.0000 0.1744
vt 0.6223 0.2494
vt 0.6426 0.2021
vt 0.6310 0.1210
vt 0.6119 0.0752
vt 0.4737 0.8064
vt 0.4493 0.7732
vt 0.4767 0.7794
vt 0.4543 0.6758
vt 0.4976 0.7605
vt 0.4913 0.8020
vt 0.6377 0.3269
vt 0.6430 0.2968
vt 0.6596 0.3036
vt 0.6560 0.3242
vt 0.6015 0.1132
vt 0.6078 0.1534
vt 0.5839 0.1295
vt 0.5789 0.1536
vt 0.5607 0.1372
vt 0.5414 0.1518
vt 0.5408 0.1387
vt 0.6026 0.7740
vt 0.5938 0.7351
vt 0.6080 0.7156
vt 0.6258 0.7090
vt 0.5537 0.7234
vt 0.5731 0.7186
vt 0.5059 0.1356
vt 0.5083 0.1524
vt 0.4827 0.1538
vt 0.4873 0.1390
vt 0.4503 0.1534
vt 0.4584 0.1263
vt 0.4509 0.1765
vt 0.4631 0.1984
vt 0.4818 0.1719
vt 0.4756 0.2012
vt 0.5089 0.1720
vt 0.6325 0.2906
vt 0.6187 0.2881
vt 0.6051 0.2679
vt 0.5458 0.2073
vt 0.5437 0.1722
vt 0.5791 0.1726
vt 0.5770 0.2084
vt 0.6131 0.1713
vt 0.5932 0.2166
vt 0.6105 0.2326
vt 0.1475 0.9321
vt 0.3759 0.8589
vt 0.4103 0.8841
vt 0.4186 0.9007
vt 0.4014 0.9367
vt 0.4471 0.8955
vt 0.4436 0.8769
vt 0.4785 0.8711
vt 0.4843 0.8909
vt 0.5128 0.8653
vt 0.5395 0.8607
vt 0.5418 0.8787
vt 0.5168 0.8845
vt 0.5691 0.8508
vt 0.5738 0.8734
vt 0.6666 0.8422
vt 0.5831 0.8836
vt 0.5769 0.8382
vt 0.6942 0.5620
vt 0.7018 0.6037
vt 0.6739 0.5539
vt 0.6970 0.6586
vt 0.7059 0.6229
vt 0.7111 0.6391
vt 0.6763 0.6421
vt 0.6734 0.6293
vt 0.6676 0.6096
vt 0.6594 0.5754
vt 0.7744 0.9474
vt 0.7760 0.8335
vt 0.7602 0.9511
vt 0.9162 0.9743
vt 0.8987 0.8508
vt 0.8987 0.9786
vt 0.7760 0.6118
vt 0.8987 0.6291
vt 0.7760 0.4061
vt 0.8987 0.4234
vt 0.8969 0.3811
vt 0.7778 0.3638
vt 0.0727 0.7118
vt 0.0821 0.6923
vt 0.0769 0.6839
vt 0.4104 0.5233
vt 0.4197 0.5760
vt 0.4243 0.5477
vt 0.0931 0.6708
vt 0.0770 0.6787
vt 0.0710 0.7177
vt 0.0478 0.7749
vt 0.0660 0.7248
vt 0.3517 0.4759
vt 0.3064 0.4853
vt 0.0588 0.5600
vt 0.5560 0.6621
vt 0.5505 0.6686
vt 0.5494 0.6818
vt 0.5432 0.6762
vt 0.1633 0.4154
vt 0.1604 0.4067
vt 0.8380 0.9474
vt 0.8364 0.8335
vt 0.9767 0.8508
vt 0.9767 0.9786
vt 0.9592 0.9743
vt 0.8364 0.6118
vt 0.9767 0.6291
vt 0.8364 0.4061
vt 0.9767 0.4234
vt 0.9786 0.3811
vt 0.8346 0.3638
vt 0.1910 0.6923
vt 0.2004 0.7118
vt 0.1962 0.6839
vt 0.4538 0.5150
vt 0.4478 0.5739
vt 0.4432 0.5457
vt 0.1800 0.6708
vt 0.1961 0.6787
vt 0.2021 0.7177
vt 0.2253 0.7749
vt 0.2071 0.7248
vt 0.1249 0.5975
vt 0.2360 0.5351
vt 0.1615 0.5600
vt 0.6057 0.6621
vt 0.6109 0.6686
vt 0.6116 0.6551
vt 0.6058 0.6607
vt 0.2462 0.3979
vt 0.2575 0.4154
vt 0.2632 0.4154
vt 0.2491 0.3891
vt 0.3320 0.4076
vt 0.3408 0.4154
vt 0.5516 0.3923
vt 0.5475 0.4159
vt 0.5112 0.3758
vt 0.5331 0.3796
vt 0.5996 0.3308
vt 0.5950 0.3569
vt 0.5057 0.2779
vt 0.5336 0.3688
vt 0.6032 0.5290
vt 0.5839 0.5359
vt 0.5883 0.5555
vt 0.5640 0.5399
vt 0.5810 0.5161
vt 0.5548 0.3884
vt 0.5555 0.2737
vt 0.5191 0.2381
vt 0.5092 0.2144
vt 0.4411 0.1875
vt 0.3534 0.1680
vt 0.4429 0.1418
vt 0.5829 0.6683
vt 0.5725 0.6520
vt 0.5782 0.6777
vt 0.5859 0.6726
vt 0.5811 0.6821
vt 0.5987 0.6908
vt 0.5639 0.7041
vt 0.5759 0.6839
vt 0.5678 0.6776
vt 0.5706 0.6524
vt 0.5685 0.6719
vt 0.5765 0.6781
vt 0.5372 0.2368
vt 0.8802 0.1697
vt 0.6426 0.2021
vt 0.6310 0.1210
vt 0.4493 0.7732
vt 0.4737 0.8064
vt 0.4767 0.7794
vt 0.4543 0.6758
vt 0.4976 0.7605
vt 0.4913 0.8020
vt 0.6430 0.2968
vt 0.6377 0.3269
vt 0.6078 0.1534
vt 0.5789 0.1536
vt 0.5408 0.1387
vt 0.5414 0.1518
vt 0.6080 0.7156
vt 0.5938 0.7351
vt 0.5731 0.7186
vt 0.4827 0.1538
vt 0.5083 0.1524
vt 0.5059 0.1356
vt 0.4503 0.1534
vt 0.4509 0.1765
vt 0.4818 0.1719
vt 0.5089 0.1720
vt 0.6051 0.2679
vt 0.5791 0.1726
vt 0.5437 0.1722
vt 0.5458 0.2073
vt 0.6131 0.1713
vt 0.3759 0.8589
vt 0.1475 0.9321
vt 0.4103 0.8841
vt 0.4014 0.9367
vt 0.4186 0.9007
vt 0.4785 0.8711
vt 0.4436 0.8769
vt 0.4471 0.8955
vt 0.4843 0.8909
vt 0.5418 0.8787
vt 0.5395 0.8607
vt 0.5128 0.8653
vt 0.5168 0.8845
vt 0.5691 0.8508
vt 0.5738 0.8734
vt 0.6666 0.8422
vt 0.5831 0.8836
vt 0.5769 0.8382
vt 0.7018 0.6037
vt 0.6942 0.5620
vt 0.6739 0.5539
vt 0.7059 0.6229
vt 0.6970 0.6586
vt 0.7111 0.6391
vt 0.6734 0.6293
vt 0.6763 0.6421
vt 0.6676 0.6096
vt 0.6594 0.5754
vn -0.8266 0.1644 0.5383
vn 0.8241 -0.1664 0.5414
vn 0.8413 -0.0456 -0.5386
vn -0.8508 0.0444 -0.5236
vn -0.7868 -0.1535 0.5978
vn -0.7750 -0.1713 -0.6083
vn 0.6947 0.2490 0.6749
vn -0.7253 -0.2215 0.6518
vn 0.0000 0.0000 1.0000
vn 0.8084 0.3301 -0.4874
vn 0.5862 0.0899 -0.8052
vn -0.5236 -0.2470 -0.8154
vn -0.5735 -0.2483 -0.7806
vn -0.6324 -0.2800 0.7223
vn 0.0412 0.7836 -0.6199
vn 0.6714 -0.3777 0.6376
vn -0.8211 -0.2799 0.4974
vn 0.2879 0.5895 -0.7547
vn 0.6180 -0.6001 -0.5079
vn 0.8612 0.1982 -0.4680
vn -0.4993 0.7299 -0.4667
vn -0.0000 0.0000 -1.0000
vn -0.5862 -0.0899 0.8052
vn 0.8789 0.1824 0.4408
vn -0.7265 -0.5009 0.4704
vn 0.3870 -0.7062 0.5929
vn 0.7994 0.3464 0.4909
vn 0.5035 -0.2911 0.8134
vn 0.4775 0.2682 0.8367
vn -0.2846 0.4435 0.8499
vn -0.4336 -0.3094 0.8463
vn 0.2466 -0.4217 0.8726
vn -0.4889 0.5779 0.6535
vn -0.6817 -0.0561 0.7295
vn 0.6075 0.2003 0.7686
vn 0.6562 0.0800 0.7504
vn 0.5387 -0.3392 0.7712
vn 0.0715 -0.6113 0.7882
vn 0.3103 0.5248 0.7927
vn 0.6721 -0.1520 0.7247
vn 0.4781 -0.3083 0.8224
vn -0.5846 -0.0650 0.8087
vn -0.6868 0.1554 0.7101
vn -0.5417 0.4176 0.7295
vn -0.1527 -0.4243 0.8925
vn -0.0244 0.4787 0.8776
vn -0.3470 0.2556 0.9024
vn -0.3014 -0.0157 0.9534
vn 0.4373 0.0665 0.8969
vn 0.2732 -0.1395 0.9518
vn -0.7089 -0.0788 0.7009
vn 0.4971 0.0458 0.8665
vn 0.4309 0.2479 0.8677
vn 0.1934 0.5736 0.7960
vn -0.1290 0.6359 0.7609
vn 0.6268 0.2774 0.7281
vn -0.4648 0.4819 0.7428
vn 0.4450 0.3994 0.8015
vn -0.0221 0.6261 0.7794
vn -0.4002 0.4819 0.7795
vn -0.5338 -0.2402 0.8108
vn -0.1209 -0.5516 0.8253
vn 0.2727 -0.2524 0.9284
vn 0.4609 -0.5300 0.7118
vn -0.4175 -0.7158 0.5597
vn -0.2801 -0.1871 0.9416
vn -0.0150 -0.3875 0.9218
vn 0.2080 -0.2961 0.9322
vn 0.2627 -0.2627 0.9284
vn 0.4206 -0.0765 0.9040
vn 0.2617 0.0232 0.9649
vn -0.4055 0.0969 0.9089
vn -0.2137 0.1282 0.9684
vn -0.8266 0.1644 -0.5383
vn 0.8241 -0.1664 -0.5414
vn 0.8413 -0.0456 0.5386
vn -0.8508 0.0444 0.5236
vn -0.7868 -0.1535 -0.5978
vn -0.7750 -0.1713 0.6083
vn 0.6947 0.2490 -0.6749
vn -0.7253 -0.2215 -0.6518
vn 0.8084 0.3301 0.4874
vn -0.5862 -0.0899 -0.8052
vn -0.5236 -0.2470 0.8154
vn -0.5735 -0.2483 0.7806
vn -0.6324 -0.2800 -0.7223
vn 0.0412 0.7836 0.6199
vn 0.6714 -0.3777 -0.6376
vn -0.8211 -0.2799 -0.4974
vn 0.2879 0.5895 0.7547
vn 0.6180 -0.6001 0.5079
vn 0.8612 0.1982 0.4680
vn -0.4993 0.7299 0.4667
vn 0.5862 0.0899 0.8052
vn 0.8789 0.1824 -0.4408
vn -0.7265 -0.5009 -0.4704
vn 0.3870 -0.7062 -0.5929
vn 0.7994 0.3464 -0.4909
vn 0.5035 -0.2911 -0.8134
vn 0.4775 0.2682 -0.8367
vn -0.2846 0.4435 -0.8499
vn -0.4336 -0.3094 -0.8463
vn 0.2466 -0.4217 -0.8726
vn -0.4889 0.5779 -0.6535
vn -0.6817 -0.0561 -0.7295
vn 0.6075 0.2003 -0.7686
vn 0.6562 0.0800 -0.7504
vn 0.5387 -0.3392 -0.7712
vn 0.0715 -0.6113 -0.7882
vn 0.3103 0.5248 -0.7927
vn 0.6721 -0.1520 -0.7247
vn 0.4781 -0.3083 -0.8224
vn -0.5846 -0.0650 -0.8087
vn -0.6868 0.1554 -0.7101
vn -0.5417 0.4176 -0.7295
vn -0.1527 -0.4243 -0.8925
vn -0.0244 0.4787 -0.8776
vn -0.3470 0.2556 -0.9024
vn -0.3014 -0.0157 -0.9534
vn 0.4373 0.0665 -0.8969
vn 0.2732 -0.1395 -0.9518
vn -0.7089 -0.0788 -0.7009
vn 0.4971 0.0458 -0.8665
vn 0.4309 0.2479 -0.8677
vn 0.1934 0.5736 -0.7960
vn -0.1290 0.6359 -0.7609
vn 0.6268 0.2774 -0.7281
vn -0.4648 0.4819 -0.7428
vn 0.4450 0.3994 -0.8015
vn -0.0221 0.6261 -0.7794
vn -0.4002 0.4819 -0.7795
vn -0.5338 -0.2402 -0.8108
vn -0.1209 -0.5516 -0.8253
vn 0.2727 -0.2524 -0.9284
vn 0.4609 -0.5300 -0.7118
vn -0.4175 -0.7158 -0.5597
vn -0.2801 -0.1871 -0.9416
vn -0.0150 -0.3875 -0.9218
vn 0.2080 -0.2961 -0.9322
vn 0.2627 -0.2627 -0.9284
vn 0.4206 -0.0765 -0.9040
vn 0.2617 0.0232 -0.9649
vn -0.4055 0.0969 -0.9089
vn -0.2137 0.1282 -0.9684
usemtl mat1
f 1/1/1 12/2/1 11/3/1 13/4/1
f 2/5/2 1/6/2 13/7/2 3/8/2
f 10/9/3 11/10/3 13/11/3 14/12/3
f 14/13/4 13/14/4 3/15/4 4/16/4
f 9/17/5 15/18/5 14/12/5 10/9/5
f 15/19/6 14/13/6 4/16/6 5/20/6
f 21/21/7 5/20/7 15/19/7
f 15/18/8 9/17/8 17/22/8 21/23/8
f 19/24/9 18/25/9 22/26/9
f 17/27/10 22/28/10 20/29/10
f 18/30/11 22/31/11 17/32/11
f 16/33/9 19/24/9 22/34/9
f 19/24/12 18/35/12 6/36/12 16/33/12
f 18/35/13 21/37/13 5/38/13 6/36/13
f 17/39/14 18/40/14 21/37/14
f 8/41/15 16/42/15 7/43/15
f 7/44/16 6/45/16 16/46/16
f 8/47/17 22/48/17 20/49/17
f 8/50/18 22/34/18 16/33/18
f 26/51/19 24/52/19 25/53/19 27/54/19
f 12/55/20 24/56/20 26/57/20 1/58/20
f 1/59/21 26/60/21 23/61/21 2/62/21
f 1/63/1 12/64/1 11/65/1 13/66/1
f 13/67/2 3/68/2 2/69/2 1/70/2
f 13/66/3 14/71/3 10/72/3 11/65/3
f 3/73/4 4/74/4 14/75/4 13/76/4
f 14/71/5 10/72/5 9/77/5 15/78/5
f 4/74/6 5/79/6 15/80/6 14/75/6
f 5/79/7 15/80/7 21/81/7
f 17/82/8 21/83/8 15/78/8 9/77/8
f 18/84/22 19/85/22 22/86/22
f 20/87/10 17/88/10 22/89/10
f 17/90/23 22/91/23 18/92/23
f 19/85/22 16/93/22 22/94/22
f 6/95/12 16/93/12 19/85/12 18/96/12
f 5/97/13 6/95/13 18/96/13 21/98/13
f 18/99/14 21/98/14 17/100/14
f 7/101/15 8/102/15 16/103/15
f 6/104/16 16/105/16 7/106/16
f 22/107/17 20/108/17 8/109/17
f 16/93/18 8/110/18 22/94/18
f 25/111/19 27/112/19 26/113/19 24/114/19
f 26/115/20 1/116/20 12/117/20 24/118/20
f 1/119/21 26/120/21 23/121/21 2/122/21
f 26/123/24 23/124/24 62/125/24 27/126/24
f 27/127/25 71/128/25 72/129/25 25/130/25
f 62/131/26 68/132/26 67/133/26 27/134/26
f 68/135/27 69/136/27 70/137/27 67/138/27
f 69/139/28 50/140/28 49/141/28 70/142/28
f 66/143/29 67/144/29 70/145/29
f 66/143/30 70/145/30 71/146/30
f 27/147/31 66/143/31 71/146/31
f 27/147/32 67/144/32 66/143/32
f 71/148/33 70/142/33 73/149/33 72/150/33
f 70/142/34 64/151/34 56/152/34 73/149/34
f 50/140/35 51/153/35 49/141/35
f 51/153/36 52/154/36 65/155/36 49/141/36
f 52/154/37 53/156/37 45/157/37 65/155/37
f 36/158/38 37/159/38 35/160/38 34/161/38
f 38/162/39 39/163/39 37/159/39 36/158/39
f 46/164/40 65/165/40 48/166/40
f 48/167/41 65/168/41 45/169/41
f 48/170/42 47/171/42 63/172/42
f 63/173/43 46/174/43 48/175/43
f 64/151/44 63/176/44 57/177/44 56/152/44
f 28/178/45 32/179/45 33/180/45 29/181/45
f 32/179/46 28/178/46 30/182/46 31/183/46
f 63/184/47 64/185/47 46/186/47
f 64/185/48 70/187/48 46/186/48
f 46/186/49 49/188/49 65/189/49
f 70/187/50 49/188/50 46/186/50
f 63/190/51 47/191/51 58/192/51 57/193/51
f 30/182/52 76/194/52 31/183/52
f 30/182/53 83/195/53 77/196/53 76/194/53
f 77/196/54 83/195/54 82/197/54 74/198/54
f 82/197/55 81/199/55 75/200/55 74/198/55
f 42/201/56 43/202/56 44/203/56 41/204/56
f 74/205/57 75/206/57 43/202/57 42/201/57
f 44/207/58 84/208/58 89/209/58 41/210/58
f 89/209/59 88/211/59 40/212/59 41/210/59
f 88/211/60 39/163/60 38/162/60 40/212/60
f 34/161/61 35/160/61 87/213/61 55/214/61
f 87/213/62 86/215/62 54/216/62 55/214/62
f 86/215/63 85/217/63 45/157/63 54/216/63
f 54/216/64 45/157/64 53/156/64
f 59/218/65 58/219/65 47/220/65
f 47/221/66 80/222/66 79/223/66 59/224/66
f 79/223/67 78/225/67 60/226/67 59/224/67
f 29/181/68 61/227/68 60/226/68 78/225/68
f 33/180/69 61/227/69 29/181/69
f 28/228/9 29/229/9 78/230/9
f 83/231/9 30/232/9 28/228/9
f 28/228/9 78/230/9 83/231/9
f 82/233/9 79/234/9 80/235/9 81/236/9
f 82/233/9 83/231/9 78/230/9 79/234/9
f 85/237/9 86/238/9 89/239/9 84/240/9
f 89/239/9 86/238/9 87/241/9 88/242/9
f 88/242/9 37/243/9 39/244/9
f 87/241/9 35/245/9 37/243/9
f 88/242/9 87/241/9 37/243/9
f 45/246/70 85/247/70 48/248/70
f 43/249/9 85/247/9 84/250/9 44/251/9
f 48/248/71 85/247/71 43/249/71
f 43/249/9 75/252/9 81/253/9 80/254/9
f 48/248/72 80/254/72 47/255/72
f 48/248/73 43/249/73 80/254/73
f 90/256/74 91/257/74 11/10/74 12/258/74
f 2/259/75 3/15/75 91/260/75 90/261/75
f 91/257/76 11/10/76 10/9/76 92/262/76
f 3/15/77 91/260/77 92/263/77 4/16/77
f 92/262/78 93/264/78 9/17/78 10/9/78
f 4/16/79 92/263/79 93/265/79 5/20/79
f 5/20/80 97/266/80 93/265/80
f 17/22/81 9/17/81 93/264/81 97/267/81
f 95/268/22 96/269/22 98/270/22
f 20/29/82 98/271/82 17/27/82
f 17/32/83 95/272/83 98/273/83
f 96/269/22 94/274/22 98/275/22
f 6/36/84 95/276/84 96/269/84 94/274/84
f 5/38/85 97/277/85 95/276/85 6/36/85
f 95/278/86 17/39/86 97/277/86
f 7/43/87 94/279/87 8/41/87
f 6/45/88 7/44/88 94/280/88
f 98/281/89 8/47/89 20/49/89
f 94/274/90 98/275/90 8/50/90
f 25/53/91 24/52/91 99/282/91 100/283/91
f 99/284/92 24/56/92 12/55/92 90/285/92
f 23/61/93 99/286/93 90/287/93 2/62/93
f 11/65/74 12/64/74 90/288/74 91/289/74
f 91/290/75 90/291/75 2/292/75 3/73/75
f 10/72/76 92/293/76 91/289/76 11/65/76
f 92/294/77 4/74/77 3/73/77 91/290/77
f 9/77/78 10/72/78 92/293/78 93/295/78
f 93/296/79 5/79/79 4/74/79 92/294/79
f 97/297/80 93/296/80 5/79/80
f 93/295/81 97/298/81 17/82/81 9/77/81
f 96/299/9 95/300/9 98/301/9
f 17/88/82 20/87/82 98/302/82
f 95/303/94 17/90/94 98/304/94
f 94/305/9 96/299/9 98/306/9
f 96/299/84 94/305/84 6/95/84 95/307/84
f 95/307/85 6/95/85 5/97/85 97/308/85
f 17/100/86 97/308/86 95/309/86
f 8/102/87 7/101/87 94/310/87
f 7/106/88 94/311/88 6/104/88
f 8/109/89 20/108/89 98/312/89
f 8/110/90 94/305/90 98/306/90
f 99/313/91 100/314/91 25/111/91 24/114/91
f 12/117/92 90/315/92 99/316/92 24/118/92
f 90/317/93 2/318/93 23/319/93 99/320/93
f 62/125/95 23/124/95 99/321/95 100/322/95
f 72/129/96 120/323/96 100/324/96 25/130/96
f 118/325/97 68/132/97 62/131/97 100/326/97
f 119/327/98 69/136/98 68/135/98 118/328/98
f 113/329/99 50/140/99 69/139/99 119/330/99
f 118/331/100 117/332/100 119/333/100
f 119/333/101 117/332/101 120/334/101
f 117/332/102 100/335/102 120/334/102
f 118/331/103 100/335/103 117/332/103
f 73/149/104 119/330/104 120/336/104 72/150/104
f 56/152/105 115/337/105 119/330/105 73/149/105
f 51/153/106 50/140/106 113/329/106
f 116/338/107 52/154/107 51/153/107 113/329/107
f 109/339/108 53/156/108 52/154/108 116/338/108
f 104/340/109 105/341/109 36/158/109 34/161/109
f 105/341/110 106/342/110 38/162/110 36/158/110
f 116/343/111 110/344/111 112/345/111
f 116/346/112 112/347/112 109/348/112
f 111/349/113 112/350/113 114/351/113
f 110/352/114 114/353/114 112/354/114
f 57/177/115 114/355/115 115/337/115 56/152/115
f 33/180/116 32/179/116 101/356/116 102/357/116
f 103/358/117 101/356/117 32/179/117 31/183/117
f 115/359/118 114/360/118 110/361/118
f 119/362/119 115/359/119 110/361/119
f 113/363/120 110/361/120 116/364/120
f 113/363/121 119/362/121 110/361/121
f 58/192/122 111/365/122 114/366/122 57/193/122
f 76/194/123 103/358/123 31/183/123
f 77/196/124 127/367/124 103/358/124 76/194/124
f 126/368/125 127/367/125 77/196/125 74/198/125
f 121/369/126 125/370/126 126/368/126 74/198/126
f 108/371/127 107/372/127 42/201/127 41/204/127
f 107/372/128 121/373/128 74/205/128 42/201/128
f 133/374/129 128/375/129 108/376/129 41/210/129
f 40/212/130 132/377/130 133/374/130 41/210/130
f 38/162/131 106/342/131 132/377/131 40/212/131
f 131/378/132 104/340/132 34/161/132 55/214/132
f 54/216/133 130/379/133 131/378/133 55/214/133
f 109/339/134 129/380/134 130/379/134 54/216/134
f 109/339/135 54/216/135 53/156/135
f 58/219/136 59/218/136 111/381/136
f 123/382/137 124/383/137 111/384/137 59/224/137
f 60/226/138 122/385/138 123/382/138 59/224/138
f 60/226/139 61/227/139 102/357/139 122/385/139
f 61/227/140 33/180/140 102/357/140
f 102/386/22 101/387/22 122/388/22
f 103/389/22 127/390/22 101/387/22
f 122/388/22 101/387/22 127/390/22
f 124/391/22 123/392/22 126/393/22 125/394/22
f 122/388/22 127/390/22 126/393/22 123/392/22
f 133/395/22 130/396/22 129/397/22 128/398/22
f 131/399/22 130/396/22 133/395/22 132/400/22
f 105/401/22 132/400/22 106/402/22
f 104/403/22 131/399/22 105/401/22
f 131/399/22 132/400/22 105/401/22
f 129/404/141 109/405/141 112/406/141
f 128/407/22 129/404/22 107/408/22 108/409/22
f 129/404/142 112/406/142 107/408/142
f 125/410/22 121/411/22 107/408/22 124/412/22
f 124/412/143 112/406/143 111/413/143
f 107/408/144 112/406/144 124/412/144
