# Blender 3.5.0
# www.blender.org
mtllib k111.mtl
o Handle01
v 0.029014 0.535431 0.035293
v 0.029014 0.160431 0.035293
v 0.029014 0.160431 -0.027207
v 0.029014 0.535431 -0.027207
v -0.033486 0.535431 0.035293
v -0.033486 0.535431 -0.027207
v -0.033486 0.160431 0.035293
v -0.033486 0.160431 -0.027207
vn 1.0000 -0.0000 -0.0000
vn -0.0000 1.0000 -0.0000
vn -1.0000 -0.0000 -0.0000
vn -0.0000 -1.0000 -0.0000
vn -0.0000 -0.0000 -1.0000
vn -0.0000 -0.0000 1.0000
vt 0.015625 0.937500
vt 0.109375 0.968750
vt 0.109375 0.937500
vt 0.203125 0.968750
vt 0.109375 0.968750
vt 0.015625 0.968750
vt 0.000000 0.937500
vt 0.218750 0.937500
vt 0.109375 1.000000
vt 0.000000 0.968750
vt 0.218750 0.968750
vt 0.015625 1.000000
vt 0.125000 0.937500
vt 0.203125 1.000000
vt 0.125000 0.968750
vt 0.109375 1.000000
s 1
usemtl m_6f7d5307-ab1e-7d76-ab57-bc4cecdb2514.001
f 1/1/1 2/3/1 3/5/1 4/6/1
f 5/7/2 1/1/2 4/6/2 6/10/2
f 7/13/3 5/8/3 6/11/3 8/15/3
f 2/3/4 7/13/4 8/15/4 3/5/4
f 8/16/5 6/12/5 4/6/5 3/5/5
f 2/4/6 1/2/6 5/9/6 7/14/6
o Handle02
v 0.029014 0.535164 0.207524
v 0.029014 0.097931 0.222793
v 0.029014 0.095749 0.160331
v 0.029014 0.532983 0.145062
v -0.033486 0.535164 0.207524
v -0.033486 0.532983 0.145062
v -0.033486 0.097931 0.222793
v -0.033486 0.095749 0.160331
vn 1.0000 -0.0000 -0.0000
vn -0.0000 0.9994 -0.0349
vn -1.0000 -0.0000 -0.0000
vn -0.0000 -0.9994 0.0349
vn -0.0000 -0.0349 -0.9994
vn -0.0000 0.0349 0.9994
vt 0.390625 0.937500
vt 0.500000 0.968750
vt 0.500000 0.937500
vt 0.609375 0.968750
vt 0.500000 0.968750
vt 0.390625 0.968750
vt 0.375000 0.937500
vt 0.625000 0.937500
vt 0.500000 1.000000
vt 0.375000 0.968750
vt 0.625000 0.968750
vt 0.390625 1.000000
vt 0.515625 0.937500
vt 0.609375 1.000000
vt 0.515625 0.968750
vt 0.500000 1.000000
s 1
usemtl m_6f7d5307-ab1e-7d76-ab57-bc4cecdb2514.001
f 9/17/7 10/19/7 11/21/7 12/22/7
f 13/23/8 9/17/8 12/22/8 14/26/8
f 15/29/9 13/24/9 14/27/9 16/31/9
f 10/19/10 15/29/10 16/31/10 11/21/10
f 16/32/11 14/28/11 12/22/11 11/21/11
f 10/20/12 9/18/12 13/25/12 15/30/12
o Handle03
v 0.029014 0.535164 -0.136939
v 0.029014 0.097931 -0.152207
v 0.029014 0.100112 -0.214669
v 0.029014 0.537345 -0.199401
v -0.033486 0.535164 -0.136939
v -0.033486 0.537345 -0.199401
v -0.033486 0.097931 -0.152207
v -0.033486 0.100112 -0.214669
vn 1.0000 -0.0000 -0.0000
vn -0.0000 0.9994 0.0349
vn -1.0000 -0.0000 -0.0000
vn -0.0000 -0.9994 -0.0349
vn -0.0000 0.0349 -0.9994
vn -0.0000 -0.0349 0.9994
vt 0.593750 0.593750
vt 0.703125 0.625000
vt 0.703125 0.593750
vt 0.812500 0.625000
vt 0.703125 0.625000
vt 0.593750 0.625000
vt 0.578125 0.593750
vt 0.828125 0.593750
vt 0.703125 0.656250
vt 0.578125 0.625000
vt 0.828125 0.625000
vt 0.593750 0.656250
vt 0.718750 0.593750
vt 0.812500 0.656250
vt 0.718750 0.625000
vt 0.703125 0.656250
s 1
usemtl m_6f7d5307-ab1e-7d76-ab57-bc4cecdb2514.001
f 17/33/13 18/35/13 19/37/13 20/38/13
f 21/39/14 17/33/14 20/38/14 22/42/14
f 23/45/15 21/40/15 22/43/15 24/47/15
f 18/35/16 23/45/16 24/47/16 19/37/16
f 24/48/17 22/44/17 20/38/17 19/37/17
f 18/36/18 17/34/18 21/41/18 23/46/18
o Handle04
v 0.029014 0.160431 0.160293
v 0.029014 0.097931 0.160293
v 0.029014 0.097931 -0.152207
v 0.029014 0.160431 -0.152207
v -0.033486 0.160431 0.160293
v -0.033486 0.160431 -0.152207
v -0.033486 0.097931 0.160293
v -0.033486 0.097931 -0.152207
vn 1.0000 -0.0000 -0.0000
vn -0.0000 1.0000 -0.0000
vn -1.0000 -0.0000 -0.0000
vn -0.0000 -1.0000 -0.0000
vn -0.0000 -0.0000 -1.0000
vn -0.0000 -0.0000 1.0000
vt 0.531250 0.281250
vt 0.546875 0.437500
vt 0.546875 0.281250
vt 0.562500 0.437500
vt 0.546875 0.437500
vt 0.531250 0.437500
vt 0.515625 0.281250
vt 0.578125 0.281250
vt 0.546875 0.468750
vt 0.515625 0.437500
vt 0.578125 0.437500
vt 0.531250 0.468750
vt 0.562500 0.281250
vt 0.562500 0.468750
vt 0.562500 0.437500
vt 0.546875 0.468750
s 1
usemtl m_6f7d5307-ab1e-7d76-ab57-bc4cecdb2514.001
f 25/49/19 26/51/19 27/53/19 28/54/19
f 29/55/20 25/49/20 28/54/20 30/58/20
f 31/61/21 29/56/21 30/59/21 32/63/21
f 26/51/22 31/61/22 32/63/22 27/53/22
f 32/64/23 30/60/23 28/54/23 27/53/23
f 26/52/24 25/50/24 29/57/24 31/62/24
o Handle05
v 0.029014 0.597588 0.166826
v 0.029014 0.535430 0.160293
v 0.029014 0.548496 0.035977
v 0.029014 0.610654 0.042510
v -0.033486 0.597588 0.166826
v -0.033486 0.610654 0.042510
v -0.033486 0.535430 0.160293
v -0.033486 0.548496 0.035977
vn 1.0000 -0.0000 -0.0000
vn -0.0000 0.9945 0.1045
vn -1.0000 -0.0000 -0.0000
vn -0.0000 -0.9945 -0.1045
vn -0.0000 0.1045 -0.9945
vn -0.0000 -0.1045 0.9945
vt 0.234375 0.687500
vt 0.250000 0.750000
vt 0.250000 0.687500
vt 0.265625 0.750000
vt 0.250000 0.750000
vt 0.234375 0.750000
vt 0.218750 0.687500
vt 0.281250 0.687500
vt 0.250000 0.781250
vt 0.218750 0.750000
vt 0.281250 0.750000
vt 0.234375 0.781250
vt 0.265625 0.687500
vt 0.265625 0.781250
vt 0.265625 0.750000
vt 0.250000 0.781250
s 1
usemtl m_6f7d5307-ab1e-7d76-ab57-bc4cecdb2514.001
f 33/65/25 34/67/25 35/69/25 36/70/25
f 37/71/26 33/65/26 36/70/26 38/74/26
f 39/77/27 37/72/27 38/75/27 40/79/27
f 34/67/28 39/77/28 40/79/28 35/69/28
f 40/80/29 38/76/29 36/70/29 35/69/29
f 34/68/30 33/66/30 37/73/30 39/78/30
o Handle06
v 0.029014 0.597931 0.097793
v 0.029014 0.535431 0.097793
v 0.029014 0.535431 -0.089707
v 0.029014 0.597931 -0.089707
v -0.033486 0.597931 0.097793
v -0.033486 0.597931 -0.089707
v -0.033486 0.535431 0.097793
v -0.033486 0.535431 -0.089707
vn 1.0000 -0.0000 -0.0000
vn -0.0000 1.0000 -0.0000
vn -1.0000 -0.0000 -0.0000
vn -0.0000 -1.0000 -0.0000
vn -0.0000 -0.0000 -1.0000
vn -0.0000 -0.0000 1.0000
vt 0.390625 0.406250
vt 0.406250 0.500000
vt 0.406250 0.406250
vt 0.421875 0.500000
vt 0.406250 0.500000
vt 0.390625 0.500000
vt 0.375000 0.406250
vt 0.437500 0.406250
vt 0.406250 0.531250
vt 0.375000 0.500000
vt 0.437500 0.500000
vt 0.390625 0.531250
vt 0.421875 0.406250
vt 0.421875 0.531250
vt 0.421875 0.500000
vt 0.406250 0.531250
s 1
usemtl m_6f7d5307-ab1e-7d76-ab57-bc4cecdb2514.001
f 41/81/31 42/83/31 43/85/31 44/86/31
f 45/87/32 41/81/32 44/86/32 46/90/32
f 47/93/33 45/88/33 46/91/33 48/95/33
f 42/83/34 47/93/34 48/95/34 43/85/34
f 48/96/35 46/92/35 44/86/35 43/85/35
f 42/84/36 41/82/36 45/89/36 47/94/36
o Handle07
v 0.029014 0.610088 -0.033740
v 0.029014 0.547931 -0.027207
v 0.029014 0.534865 -0.151523
v 0.029014 0.597022 -0.158056
v -0.033486 0.610088 -0.033740
v -0.033486 0.597022 -0.158056
v -0.033486 0.547931 -0.027207
v -0.033486 0.534865 -0.151523
vn 1.0000 -0.0000 -0.0000
vn -0.0000 0.9945 -0.1045
vn -1.0000 -0.0000 -0.0000
vn -0.0000 -0.9945 0.1045
vn -0.0000 -0.1045 -0.9945
vn -0.0000 0.1045 0.9945
vt 0.281250 0.406250
vt 0.296875 0.468750
vt 0.296875 0.406250
vt 0.312500 0.468750
vt 0.296875 0.468750
vt 0.281250 0.468750
vt 0.265625 0.406250
vt 0.328125 0.406250
vt 0.296875 0.500000
vt 0.265625 0.468750
vt 0.328125 0.468750
vt 0.281250 0.500000
vt 0.312500 0.406250
vt 0.312500 0.500000
vt 0.312500 0.468750
vt 0.296875 0.500000
s 1
usemtl m_6f7d5307-ab1e-7d76-ab57-bc4cecdb2514.001
f 49/97/37 50/99/37 51/101/37 52/102/37
f 53/103/38 49/97/38 52/102/38 54/106/38
f 55/109/39 53/104/39 54/107/39 56/111/39
f 50/99/40 55/109/40 56/111/40 51/101/40
f 56/112/41 54/108/41 52/102/41 51/101/41
f 50/100/42 49/98/42 53/105/42 55/110/42
o Handle08
v 0.029014 0.152324 0.207672
v 0.029014 0.091681 0.222793
v 0.029014 0.046320 0.040862
v 0.029014 0.106964 0.025742
v -0.033486 0.152324 0.207672
v -0.033486 0.106964 0.025742
v -0.033486 0.091681 0.222793
v -0.033486 0.046320 0.040862
vn 1.0000 -0.0000 -0.0000
vn -0.0000 0.9703 -0.2419
vn -1.0000 -0.0000 -0.0000
vn -0.0000 -0.9703 0.2419
vn -0.0000 -0.2419 -0.9703
vn -0.0000 0.2419 0.9703
vt 0.187500 0.375000
vt 0.203125 0.468750
vt 0.203125 0.375000
vt 0.218750 0.468750
vt 0.203125 0.468750
vt 0.187500 0.468750
vt 0.171875 0.375000
vt 0.234375 0.375000
vt 0.203125 0.500000
vt 0.171875 0.468750
vt 0.234375 0.468750
vt 0.187500 0.500000
vt 0.218750 0.375000
vt 0.218750 0.500000
vt 0.218750 0.468750
vt 0.203125 0.500000
s 1
usemtl m_6f7d5307-ab1e-7d76-ab57-bc4cecdb2514.001
f 57/113/43 58/115/43 59/117/43 60/118/43
f 61/119/44 57/113/44 60/118/44 62/122/44
f 63/125/45 61/120/45 62/123/45 64/127/45
f 58/115/46 63/125/46 64/127/46 59/117/46
f 64/128/47 62/124/47 60/118/47 59/117/47
f 58/116/48 57/114/48 61/121/48 63/126/48
o Handle09
v 0.029014 0.108574 -0.012087
v 0.029014 0.047931 -0.027207
v 0.029014 0.093291 -0.209138
v 0.029014 0.153934 -0.194018
v -0.033486 0.108574 -0.012087
v -0.033486 0.153934 -0.194018
v -0.033486 0.047931 -0.027207
v -0.033486 0.093291 -0.209138
vn 1.0000 -0.0000 -0.0000
vn -0.0000 0.9703 0.2419
vn -1.0000 -0.0000 -0.0000
vn -0.0000 -0.9703 -0.2419
vn -0.0000 0.2419 -0.9703
vn -0.0000 -0.2419 0.9703
vt 0.187500 0.187500
vt 0.203125 0.281250
vt 0.203125 0.187500
vt 0.218750 0.281250
vt 0.203125 0.281250
vt 0.187500 0.281250
vt 0.171875 0.187500
vt 0.234375 0.187500
vt 0.203125 0.312500
vt 0.171875 0.281250
vt 0.234375 0.281250
vt 0.187500 0.312500
vt 0.218750 0.187500
vt 0.218750 0.312500
vt 0.218750 0.281250
vt 0.203125 0.312500
s 1
usemtl m_6f7d5307-ab1e-7d76-ab57-bc4cecdb2514.001
f 65/129/49 66/131/49 67/133/49 68/134/49
f 69/135/50 65/129/50 68/134/50 70/138/50
f 71/141/51 69/136/51 70/139/51 72/143/51
f 66/131/52 71/141/52 72/143/52 67/133/52
f 72/144/53 70/140/53 68/134/53 67/133/53
f 66/132/54 65/130/54 69/137/54 71/142/54
o Handle10
v 0.029014 0.097931 0.035293
v 0.029014 0.035431 0.035293
v 0.029014 0.035431 -0.027207
v 0.029014 0.097931 -0.027207
v -0.033486 0.097931 0.035293
v -0.033486 0.097931 -0.027207
v -0.033486 0.035431 0.035293
v -0.033486 0.035431 -0.027207
vn 1.0000 -0.0000 -0.0000
vn -0.0000 1.0000 -0.0000
vn -1.0000 -0.0000 -0.0000
vn -0.0000 -1.0000 -0.0000
vn -0.0000 -0.0000 -1.0000
vn -0.0000 -0.0000 1.0000
vt 0.875000 0.937500
vt 0.890625 0.968750
vt 0.890625 0.937500
vt 0.906250 0.968750
vt 0.890625 0.968750
vt 0.875000 0.968750
vt 0.859375 0.937500
vt 0.921875 0.937500
vt 0.890625 1.000000
vt 0.859375 0.968750
vt 0.921875 0.968750
vt 0.875000 1.000000
vt 0.906250 0.937500
vt 0.906250 1.000000
vt 0.906250 0.968750
vt 0.890625 1.000000
s 1
usemtl m_6f7d5307-ab1e-7d76-ab57-bc4cecdb2514.001
f 73/145/55 74/147/55 75/149/55 76/150/55
f 77/151/56 73/145/56 76/150/56 78/154/56
f 79/157/57 77/152/57 78/155/57 80/159/57
f 74/147/58 79/157/58 80/159/58 75/149/58
f 80/160/59 78/156/59 76/150/59 75/149/59
f 74/148/60 73/146/60 77/153/60 79/158/60
o Blade01
v 0.029014 1.722931 0.035293
v 0.029014 0.660431 0.035293
v 0.029014 0.660431 -0.027207
v 0.029014 1.722931 -0.027207
v -0.033486 1.722931 0.035293
v -0.033486 1.722931 -0.027207
v -0.033486 0.660431 0.035293
v -0.033486 0.660431 -0.027207
vn 1.0000 -0.0000 -0.0000
vn -0.0000 1.0000 -0.0000
vn -1.0000 -0.0000 -0.0000
vn -0.0000 -1.0000 -0.0000
vn -0.0000 -0.0000 -1.0000
vn -0.0000 -0.0000 1.0000
vt 0.390625 0.718750
vt 0.656250 0.750000
vt 0.656250 0.718750
vt 0.921875 0.750000
vt 0.656250 0.750000
vt 0.390625 0.750000
vt 0.375000 0.718750
vt 0.937500 0.718750
vt 0.656250 0.781250
vt 0.375000 0.750000
vt 0.937500 0.750000
vt 0.390625 0.781250
vt 0.671875 0.718750
vt 0.921875 0.781250
vt 0.671875 0.750000
vt 0.656250 0.781250
s 1
usemtl m_6f7d5307-ab1e-7d76-ab57-bc4cecdb2514.001
f 81/161/61 82/163/61 83/165/61 84/166/61
f 85/167/62 81/161/62 84/166/62 86/170/62
f 87/173/63 85/168/63 86/171/63 88/175/63
f 82/163/64 87/173/64 88/175/64 83/165/64
f 88/176/65 86/172/65 84/166/65 83/165/65
f 82/164/66 81/162/66 85/169/66 87/174/66
o Bind01
v 0.029014 0.660431 0.035293
v 0.029014 0.597931 0.035293
v 0.029014 0.597931 -0.027207
v 0.029014 0.660431 -0.027207
v -0.033486 0.660431 0.035293
v -0.033486 0.660431 -0.027207
v -0.033486 0.597931 0.035293
v -0.033486 0.597931 -0.027207
vn 1.0000 -0.0000 -0.0000
vn -0.0000 1.0000 -0.0000
vn -1.0000 -0.0000 -0.0000
vn -0.0000 -1.0000 -0.0000
vn -0.0000 -0.0000 -1.0000
vn -0.0000 -0.0000 1.0000
vt 0.125000 0.562500
vt 0.140625 0.593750
vt 0.140625 0.562500
vt 0.156250 0.593750
vt 0.140625 0.593750
vt 0.125000 0.593750
vt 0.109375 0.562500
vt 0.171875 0.562500
vt 0.140625 0.625000
vt 0.109375 0.593750
vt 0.171875 0.593750
vt 0.125000 0.625000
vt 0.156250 0.562500
vt 0.156250 0.625000
vt 0.156250 0.593750
vt 0.140625 0.625000
s 1
usemtl m_6f7d5307-ab1e-7d76-ab57-bc4cecdb2514.001
f 89/177/67 90/179/67 91/181/67 92/182/67
f 93/183/68 89/177/68 92/182/68 94/186/68
f 95/189/69 93/184/69 94/187/69 96/191/69
f 90/179/70 95/189/70 96/191/70 91/181/70
f 96/192/71 94/188/71 92/182/71 91/181/71
f 90/180/72 89/178/72 93/185/72 95/190/72
o Blade02
v 0.029014 1.660431 0.097793
v 0.029014 1.347931 0.097793
v 0.029014 1.347931 0.035293
v 0.029014 1.660431 0.035293
v -0.033486 1.660431 0.097793
v -0.033486 1.660431 0.035293
v -0.033486 1.347931 0.097793
v -0.033486 1.347931 0.035293
vn 1.0000 -0.0000 -0.0000
vn -0.0000 1.0000 -0.0000
vn -1.0000 -0.0000 -0.0000
vn -0.0000 -1.0000 -0.0000
vn -0.0000 -0.0000 -1.0000
vn -0.0000 -0.0000 1.0000
vt 0.015625 0.687500
vt 0.093750 0.718750
vt 0.093750 0.687500
vt 0.171875 0.718750
vt 0.093750 0.718750
vt 0.015625 0.718750
vt 0.000000 0.687500
vt 0.187500 0.687500
vt 0.093750 0.750000
vt 0.000000 0.718750
vt 0.187500 0.718750
vt 0.015625 0.750000
vt 0.109375 0.687500
vt 0.171875 0.750000
vt 0.109375 0.718750
vt 0.093750 0.750000
s 1
usemtl m_6f7d5307-ab1e-7d76-ab57-bc4cecdb2514.001
f 97/193/73 98/195/73 99/197/73 100/198/73
f 101/199/74 97/193/74 100/198/74 102/202/74
f 103/205/75 101/200/75 102/203/75 104/207/75
f 98/195/76 103/205/76 104/207/76 99/197/76
f 104/208/77 102/204/77 100/198/77 99/197/77
f 98/196/78 97/194/78 101/201/78 103/206/78
o Blade03
v 0.029014 1.409481 0.274440
v 0.029014 1.347931 0.285293
v 0.029014 1.304519 0.039091
v 0.029014 1.366069 0.028238
v -0.033486 1.409481 0.274440
v -0.033486 1.366069 0.028238
v -0.033486 1.347931 0.285293
v -0.033486 1.304519 0.039091
vn 1.0000 -0.0000 -0.0000
vn -0.0000 0.9848 -0.1736
vn -1.0000 -0.0000 -0.0000
vn -0.0000 -0.9848 0.1736
vn -0.0000 -0.1736 -0.9848
vn -0.0000 0.1736 0.9848
vt 0.015625 0.312500
vt 0.031250 0.437500
vt 0.031250 0.312500
vt 0.046875 0.437500
vt 0.031250 0.437500
vt 0.015625 0.437500
vt 0.000000 0.312500
vt 0.062500 0.312500
vt 0.031250 0.468750
vt 0.000000 0.437500
vt 0.062500 0.437500
vt 0.015625 0.468750
vt 0.046875 0.312500
vt 0.046875 0.468750
vt 0.046875 0.437500
vt 0.031250 0.468750
s 1
usemtl m_6f7d5307-ab1e-7d76-ab57-bc4cecdb2514.001
f 105/209/79 106/211/79 107/213/79 108/214/79
f 109/215/80 105/209/80 108/214/80 110/218/80
f 111/221/81 109/216/81 110/219/81 112/223/81
f 106/211/82 111/221/82 112/223/82 107/213/82
f 112/224/83 110/220/83 108/214/83 107/213/83
f 106/212/84 105/210/84 109/217/84 111/222/84
o Blade04
v 0.029014 1.678231 0.277396
v 0.029014 1.616681 0.266543
v 0.029014 1.660093 0.020341
v 0.029014 1.721643 0.031194
v -0.033486 1.678231 0.277396
v -0.033486 1.721643 0.031194
v -0.033486 1.616681 0.266543
v -0.033486 1.660093 0.020341
vn 1.0000 -0.0000 -0.0000
vn -0.0000 0.9848 0.1736
vn -1.0000 -0.0000 -0.0000
vn -0.0000 -0.9848 -0.1736
vn -0.0000 0.1736 -0.9848
vn -0.0000 -0.1736 0.9848
vt 0.015625 0.312500
vt 0.031250 0.437500
vt 0.031250 0.312500
vt 0.046875 0.437500
vt 0.031250 0.437500
vt 0.015625 0.437500
vt 0.000000 0.312500
vt 0.062500 0.312500
vt 0.031250 0.468750
vt 0.000000 0.437500
vt 0.062500 0.437500
vt 0.015625 0.468750
vt 0.046875 0.312500
vt 0.046875 0.468750
vt 0.046875 0.437500
vt 0.031250 0.468750
s 1
usemtl m_6f7d5307-ab1e-7d76-ab57-bc4cecdb2514.001
f 113/225/85 114/227/85 115/229/85 116/230/85
f 117/231/86 113/225/86 116/230/86 118/234/86
f 119/237/87 117/232/87 118/235/87 120/239/87
f 114/227/88 119/237/88 120/239/88 115/229/88
f 120/240/89 118/236/89 116/230/89 115/229/89
f 114/228/90 113/226/90 117/233/90 119/238/90
o Blade05
v 0.029014 1.536319 0.103154
v 0.029014 1.447931 0.191543
v 0.029014 1.315348 0.058960
v 0.029014 1.403736 -0.029428
v -0.033486 1.536319 0.103154
v -0.033486 1.403736 -0.029428
v -0.033486 1.447931 0.191543
v -0.033486 1.315348 0.058960
vn 1.0000 -0.0000 -0.0000
vn -0.0000 0.7071 -0.7071
vn -1.0000 -0.0000 -0.0000
vn -0.0000 -0.7071 0.7071
vn -0.0000 -0.7071 -0.7071
vn -0.0000 0.7071 0.7071
vt 0.015625 0.156250
vt 0.046875 0.250000
vt 0.046875 0.156250
vt 0.078125 0.250000
vt 0.046875 0.250000
vt 0.015625 0.250000
vt 0.000000 0.156250
vt 0.093750 0.156250
vt 0.046875 0.281250
vt 0.000000 0.250000
vt 0.093750 0.250000
vt 0.015625 0.281250
vt 0.062500 0.156250
vt 0.078125 0.281250
vt 0.062500 0.250000
vt 0.046875 0.281250
s 1
usemtl m_6f7d5307-ab1e-7d76-ab57-bc4cecdb2514.001
f 121/241/91 122/243/91 123/245/91 124/246/91
f 125/247/92 121/241/92 124/246/92 126/250/92
f 127/253/93 125/248/93 126/251/93 128/255/93
f 122/243/94 127/253/94 128/255/94 123/245/94
f 128/256/95 126/252/95 124/246/95 123/245/95
f 122/244/96 121/242/96 125/249/96 127/254/96
o Blade06
v 0.029014 1.561319 0.192431
v 0.029014 1.472931 0.104043
v 0.029014 1.605513 -0.028540
v 0.029014 1.693902 0.059849
v -0.033486 1.561319 0.192431
v -0.033486 1.693902 0.059849
v -0.033486 1.472931 0.104043
v -0.033486 1.605513 -0.028540
vn 1.0000 -0.0000 -0.0000
vn -0.0000 0.7071 0.7071
vn -1.0000 -0.0000 -0.0000
vn -0.0000 -0.7071 -0.7071
vn -0.0000 0.7071 -0.7071
vn -0.0000 -0.7071 0.7071
vt 0.015625 0.000000
vt 0.046875 0.093750
vt 0.046875 0.000000
vt 0.078125 0.093750
vt 0.046875 0.093750
vt 0.015625 0.093750
vt 0.000000 0.000000
vt 0.093750 0.000000
vt 0.046875 0.125000
vt 0.000000 0.093750
vt 0.093750 0.093750
vt 0.015625 0.125000
vt 0.062500 0.000000
vt 0.078125 0.125000
vt 0.062500 0.093750
vt 0.046875 0.125000
s 1
usemtl m_6f7d5307-ab1e-7d76-ab57-bc4cecdb2514.001
f 129/257/97 130/259/97 131/261/97 132/262/97
f 133/263/98 129/257/98 132/262/98 134/266/98
f 135/269/99 133/264/99 134/267/99 136/271/99
f 130/259/100 135/269/100 136/271/100 131/261/100
f 136/272/101 134/268/101 132/262/101 131/261/101
f 130/260/102 129/258/102 133/265/102 135/270/102
