mtllib keybladeofpeopleshearts.mtl
v -1.493752 74.970512 2.008077
v -0.870949 84.162781 2.619810
v -0.823738 87.689995 1.879697
v -0.760719 82.355988 5.460485
v -1.080696 77.983589 5.166593
v -0.638283 83.634407 8.536099
v -0.397591 77.410927 9.085393
v -0.039101 81.691109 12.746221
v -0.039101 75.741325 12.094113
v -0.039101 95.733925 2.563520
v 0.605522 92.198608 1.834211
v 1.244347 99.168900 1.763906
v 1.309837 89.912025 1.857290
v 2.527946 99.168900 -0.066462
v 1.415581 74.970512 2.008077
v 3.719566 14.947912 -0.066432
v -0.039070 97.540680 5.404180
v -1.322517 99.168900 1.763906
v -0.039070 97.014397 7.852231
v -0.039070 110.478554 -0.066462
v -0.479103 87.881409 12.511075
v -0.039101 86.451012 14.381474
v 0.400871 87.881409 12.511083
v -0.039101 89.549355 17.490131
v 0.319298 77.410927 9.085393
v -0.039101 73.736290 11.115308
v 0.560051 83.634407 8.536099
v -1.113136 15.296501 -7.266268
v -1.113136 12.047545 -9.571177
v -1.113136 13.051982 -5.784266
v -1.113136 6.115904 -10.240115
v -1.113136 5.789491 -6.687335
v -1.113167 -0.375075 -9.068622
v 1.034813 13.051982 -5.784266
v 1.034813 12.047545 -9.571177
v 1.034813 15.296501 -7.266268
v 1.034782 6.115904 -10.240115
v 1.034813 5.789491 -6.687335
v 1.034782 -0.375075 -9.068622
v 1.034813 15.296546 7.133420
v 1.034813 12.047545 9.438298
v 1.034813 13.052007 5.651403
v 1.034782 6.115907 10.107274
v 1.034782 5.789493 6.554463
v 1.034782 -0.375073 8.935803
v 4.877373 13.711075 -0.066401
v 1.840202 14.947912 2.613706
v 2.419029 13.711075 3.439207
v -2.497356 13.711075 3.439207
v -1.113136 10.027075 1.465200
v -2.187202 10.027073 -0.066416
v -1.918495 14.947967 2.613706
v -4.955608 13.711075 -0.066416
v -2.497356 13.711075 -3.572093
v -1.113167 -11.810668 1.465208
v 1.838860 -21.976189 2.611852
v 1.034782 -11.810668 1.465208
v 2.108849 -11.810668 -0.066401
v 2.108879 10.027073 -0.066401
v 1.034782 -11.810668 -1.598010
v -1.917213 -21.976189 2.611852
v -2.187233 -11.810668 -0.066401
v -1.113167 -11.810668 -1.598010
v 1.034782 10.027073 -1.598032
v -1.917213 -21.976189 -2.744700
v 2.419029 13.711075 -3.572077
v -1.918495 14.947912 -2.746554
v -3.797863 14.947967 -0.066432
v -1.113136 0.986525 -12.100940
v -1.113136 -4.122326 -9.007045
v -1.113167 -5.460845 -14.432979
v -1.113167 -10.328070 -12.180667
v 1.034782 0.986525 -12.100940
v 1.034813 -4.122326 -9.007045
v 1.034782 -5.460845 -14.432979
v 1.034813 -10.328070 -12.180667
v 1.034782 0.986576 11.968106
v 1.034782 -4.122324 8.874173
v 1.034782 -5.460842 14.300098
v 1.034782 -10.328065 12.047833
v -1.113167 6.115907 10.107274
v -1.113167 -0.375073 8.935803
v -1.113167 0.986576 11.968091
v -1.113167 -4.122324 8.874173
v -1.113167 -5.460842 14.300091
v -1.113167 -10.328065 12.047833
v -1.388069 89.912025 1.857290
v -2.606121 99.168900 -0.066462
v -1.322517 99.168900 -1.896830
v 1.244347 99.168900 -1.896830
v 1.840202 14.947912 -2.746554
v -1.113136 12.047545 9.438298
v -1.113136 13.052007 5.651403
v -1.113167 5.789493 6.554463
v 0.792717 84.162781 2.619810
v 0.682518 82.355988 5.460485
v 1.002495 77.983589 5.166593
v -0.683723 92.198608 1.834211
v -0.488777 89.912025 4.087537
v 0.745537 87.689995 1.879697
v 0.410545 89.912025 4.087537
v 1.034813 10.027075 1.465208
v 3.716972 -21.976189 -0.066401
v 1.838860 -21.976189 -2.744700
v -3.795269 -21.976189 -0.066401
v -1.113167 10.027073 -1.598032
v -1.113136 13.711075 -3.572108
v -1.113136 10.238491 -3.422396
v -1.113167 -7.507371 -7.819071
v -1.113167 -14.163213 -8.382304
v -1.113136 -9.737979 -5.668421
v -1.113136 -10.730025 -3.029543
v -1.113167 -18.323231 -6.254046
v 1.034813 13.711075 -3.572108
v 1.034813 10.238491 -3.422396
v 1.034782 -14.163213 -8.382304
v 1.034813 -18.323286 -6.254046
v -1.113167 -21.976189 -2.744700
v 1.034813 -10.730025 -3.029543
v 1.034813 -9.737979 -5.668421
v 1.034782 -7.507371 -7.819071
v 1.034813 -0.335104 -15.652264
v -1.113136 -0.335104 -15.652264
v 1.034813 10.238491 3.289564
v 1.034813 13.711075 3.439245
v -1.113136 10.238491 3.289564
v -1.113136 13.711075 3.439245
v 1.034782 -7.507323 7.686223
v 1.034782 -14.163157 8.249463
v 1.034782 -9.737951 5.535589
v 1.034782 -10.730000 2.896726
v 1.034782 -18.323231 6.121160
v -1.113167 -0.335076 15.519428
v -1.113167 -7.507323 7.686223
v -1.113167 -14.163157 8.249463
v 1.034782 -0.335076 15.519428
v -1.113136 15.296546 7.133420
v -1.113167 -9.737951 5.535589
v -1.113167 -10.730000 2.896719
v -1.113197 -18.323231 6.121160
v -1.113167 -21.976189 2.611860
v 1.034782 -21.976189 -2.744700
v 1.034782 -21.976189 2.611860
vt 0.908230 0.006650
vt 0.687440 0.026500
vt 0.602490 0.008440
vt 0.731930 0.099730
vt 0.836980 0.090190
vt 0.702580 0.180240
vt 0.852240 0.192900
vt 0.750400 0.289570
vt 0.893400 0.270940
vt 0.132240 0.164540
vt 0.127230 0.201810
vt 0.119230 0.130250
vt 0.119230 0.225440
vt 0.084280 0.130250
vt 0.119230 0.378810
vt 0.084280 0.997660
vt 0.166910 0.139230
vt 0.201160 0.130250
vt 0.065570 0.011880
vt 0.601810 0.284820
vt 0.637040 0.333730
vt 0.563190 0.415040
vt 0.941240 0.244930
vt 0.399990 0.039660
vt 0.344620 0.111970
vt 0.435370 0.089610
vt 0.328410 0.244060
vt 0.414030 0.251030
vt 0.357060 0.388130
vt 0.512750 0.282170
vt 0.545530 0.363210
vt 0.512750 0.363210
vt 0.512750 0.454820
vt 0.422540 0.454820
vt 0.422540 0.537810
vt 0.545530 0.454820
vt 0.512750 0.537810
vt 0.793890 0.500650
vt 0.835830 0.322760
vt 0.835830 0.500650
vt 0.877430 0.500650
vt 0.877430 0.883570
vt 0.793890 0.322760
vt 0.752100 0.500650
vt 0.752100 0.883570
vt 0.835830 0.883570
vt 0.422540 0.282170
vt 0.422540 0.363210
vt 0.545530 0.537810
vt 0.284030 0.358050
vt 0.358730 0.471390
vt 0.228260 0.501430
vt 0.282630 0.609450
vt 0.047000 0.130250
vt 0.047000 0.997660
vt 0.007740 0.130250
vt 0.545530 0.282170
vt 0.721630 0.886760
vt 0.707380 0.778670
vt 0.731710 0.778550
vt 0.707380 0.662820
vt 0.677620 0.677000
vt 0.691190 0.744730
vt 0.666860 0.744830
vt 0.666860 0.812710
vt 0.490710 0.008440
vt 0.547610 0.008440
vt 0.547610 0.067490
vt 0.731710 0.662640
vt 0.707380 0.594470
vt 0.731710 0.594260
vt 0.707380 0.526130
vt 0.731710 0.525880
vt 0.707380 0.456800
vt 0.688160 0.638360
vt 0.662710 0.564990
vt 0.688160 0.564990
vt 0.688160 0.489910
vt 0.119230 0.997660
vt 0.162450 0.997660
vt 0.877430 0.322760
vt 0.793890 0.883570
vt 0.752100 0.322760
vt 0.488970 0.074770
vt 0.492680 0.151960
vt 0.387430 0.546600
vt 0.374200 0.694500
vt 0.439250 0.596150
vt 0.502900 0.617860
vt 0.425720 0.786750
vt 0.537320 0.642040
vt 0.951340 0.006810
vt 0.951340 0.054770
vt 0.988310 0.054770
vt 0.951340 0.108030
vt 0.938710 0.995920
vt 0.938710 0.951270
vt 0.895660 0.951270
vt 0.895660 0.823550
vt 0.988300 0.694610
vt 0.951340 0.803170
vt 0.988310 0.803170
vt 0.988300 0.894970
vt 0.951340 0.694610
vt 0.951340 0.589520
vt 0.951340 0.894970
vt 0.988300 0.996730
vt 0.938710 0.435260
vt 0.895660 0.507740
vt 0.938710 0.507740
vt 0.938710 0.589130
vt 0.895660 0.589130
vt 0.895660 0.673360
vt 0.938710 0.673360
vt 0.938710 0.823550
vt 0.988310 0.108030
vt 0.951340 0.187120
vt 0.988310 0.187120
vt 0.951340 0.302470
vt 0.951340 0.408850
vt 0.988310 0.408850
vt 0.951340 0.487350
vt 0.988310 0.487350
vt 0.988300 0.302470
vt 0.988310 0.589520
vt 0.895660 0.435260
vt 0.938710 0.367280
vt 0.895660 0.367280
vt 0.938710 0.324810
vt 0.135210 0.248000
vt 0.140260 0.201810
vt 0.691190 0.812400
vt 0.691190 0.885320
vt 0.666860 0.884770
vt 0.731710 0.456580
vt 0.662710 0.638360
vt 0.662710 0.489910
vt 0.162450 0.378810
vt 0.007740 0.997660
vt 0.536600 0.156600
vt 0.198650 0.387440
vt 0.510050 0.868050
vt 0.988310 0.006810
vt 0.895660 0.995920
vt 0.951340 0.996730
vt 0.895670 0.324810
vn -0.979800 0.053600 0.192700
vn -0.995000 0.062200 0.078200
vn -0.995500 0.068500 0.064900
vn -0.997300 0.072300 0.009600
vn -0.985400 -0.023300 0.168400
vn -0.991300 -0.027000 0.128600
vn -0.993700 -0.012200 0.111600
vn 0.619000 -0.048800 0.783800
vn -0.000000 0.010100 0.999900
vn 0.818700 0.011600 0.574100
vn -0.933000 -0.303600 0.193100
vn -0.541500 -0.821900 -0.176700
vn -0.955500 0.149600 0.254400
vn 0.955500 0.149600 0.254400
vn 0.805000 0.182700 0.564500
vn -0.991700 -0.066300 0.110500
vn -0.981100 -0.062800 0.182800
vn 0.981100 -0.062800 0.182800
vn 0.982700 -0.131200 0.130800
vn 0.994600 -0.045500 0.093200
vn 0.993700 -0.012200 0.111600
vn 0.991300 -0.027000 0.128600
vn 0.991700 -0.066300 0.110500
vn -1.000000 0.000000 0.000000
vn 1.000000 -0.000000 0.000000
vn 0.649900 0.608300 0.455700
vn 0.000000 0.555100 0.831800
vn 0.000000 -0.472300 0.881400
vn -0.697300 -0.524000 0.489000
vn -0.649900 0.608300 0.455700
vn -0.697300 -0.524000 -0.489000
vn 0.000000 0.112100 0.993700
vn 0.812000 0.128500 0.569400
vn 0.818700 -0.000000 0.574200
vn 0.818700 -0.000000 -0.574200
vn -0.812000 0.128400 0.569400
vn -0.818700 0.000000 0.574200
vn -0.818700 0.000000 -0.574200
vn 0.000000 -0.000000 -1.000000
vn 0.000000 0.112100 -0.993700
vn -0.812000 0.128500 -0.569400
vn 0.697300 -0.524000 -0.489000
vn 0.000000 -0.472300 -0.881400
vn 0.000000 0.555200 -0.831700
vn -0.649800 0.608300 -0.455700
vn -0.818700 0.011600 0.574100
vn -0.805000 0.182700 0.564500
vn -0.805000 0.182700 -0.564500
vn -0.818700 0.011600 -0.574100
vn 0.805000 0.182700 -0.564500
vn 0.000000 0.159800 -0.987200
vn 0.000000 0.010100 -0.999900
vn 0.649800 0.608300 0.455700
vn 0.649800 0.608300 -0.455700
vn 0.541500 -0.821900 -0.176700
vn 0.933000 -0.303700 0.193100
vn 0.995000 0.062200 0.078200
vn 0.995500 0.068500 0.064900
vn 0.997300 0.072300 0.009600
vn 0.985400 -0.023300 0.168400
vn 0.000000 0.948200 -0.317600
vn 0.000000 0.683300 -0.730100
vn 0.000000 -0.483500 -0.875300
vn 0.000000 -0.989500 -0.144600
vn -0.619000 -0.048800 0.783800
vn -0.890900 0.278000 0.359200
vn -0.903500 -0.225800 0.364300
vn 0.000000 0.923400 -0.383800
vn 0.000000 0.843800 0.536700
vn 0.000000 0.205400 0.978700
vn 0.000000 -0.704800 0.709400
vn 0.000000 0.701900 0.712300
vn -0.649900 0.608300 -0.455700
vn 0.697300 -0.524000 0.489000
vn 0.812000 0.128400 0.569400
vn 0.812000 0.128400 -0.569400
vn -0.000000 0.000000 1.000000
vn -0.812000 0.128400 -0.569400
vn 0.812000 0.128500 -0.569400
vn -0.818800 -0.000000 -0.574100
vn 0.649900 0.608300 -0.455700
vn 0.000000 0.555100 -0.831800
vn 0.000000 0.958400 -0.285500
vn 0.000000 0.551000 0.834500
vn 0.000000 -0.993400 -0.115100
vn 0.000000 -0.591600 0.806200
vn 0.000000 -0.703700 -0.710500
vn 0.000000 -0.455500 -0.890300
vn 0.000000 -0.420000 -0.907500
vn -0.000000 -0.692800 -0.721100
vn 0.000000 0.694100 0.719900
vn 0.000000 0.331100 0.943600
vn 0.000000 0.016400 0.999900
vn 0.000000 -0.360300 0.932800
vn 0.000000 0.578600 -0.815600
vn 0.000000 0.341000 -0.940100
vn 0.000000 0.937200 -0.348800
vn 0.000000 -0.231400 -0.972900
vn 0.000000 -0.591600 -0.806200
vn 0.000000 -0.360300 -0.932800
vn 0.000000 -0.993400 0.115100
vn 0.000000 0.578600 0.815600
vn 0.000000 0.341000 0.940100
vn 0.000000 0.016400 -0.999900
vn -0.000000 0.937200 0.348800
vn 0.000000 0.331100 -0.943600
vn 0.000000 -0.420000 0.907500
vn 0.000000 -0.703700 0.710500
vn 0.000000 -0.231400 0.972900
vn 0.000000 0.551000 -0.834500
vn 0.000000 0.958400 0.285500
vn 0.000000 0.694100 -0.719900
vn 0.000000 0.936000 -0.351900
vn 0.000000 0.798100 -0.602500
vn 0.000000 -0.692800 0.721100
vn 0.000000 -0.455500 0.890300
vn 0.979800 0.053600 0.192800
vn -0.994600 -0.045500 0.093200
vn -0.982700 -0.131200 0.130800
vn 0.903500 -0.225800 0.364300
vn 0.000000 -0.202000 0.979400
vn 0.890900 0.278000 0.359200
vn 0.000000 -0.723600 0.690300
vn 0.818700 0.011600 -0.574100
vn 0.000000 0.798100 0.602500
vn 0.000000 0.936000 0.351900
o base
usemtl Material08
f 1/1/1 2/2/1 3/3/1
f 2/2/2 1/1/2 4/4/2
f 5/5/3 4/4/3 1/1/3
f 4/4/4 5/5/4 6/6/4
f 7/7/5 6/6/5 5/5/5
f 6/6/6 7/7/6 8/8/6
f 9/9/7 8/8/7 7/7/7
f 10/10/8 11/11/8 12/12/8
f 13/13/9 12/12/9 11/11/9
f 12/12/10 13/13/10 14/14/10
f 15/15/10 14/14/10 13/13/10
f 14/14/10 15/15/10 16/16/10
f 10/10/11 17/17/11 18/12/11
f 19/18/12 18/12/12 17/17/12
f 18/12/13 19/18/13 20/19/13
f 12/12/14 20/19/14 19/18/14
f 20/19/15 12/12/15 14/14/15
f 8/8/16 21/20/16 6/6/16
f 21/20/17 8/8/17 22/21/17
f 23/20/18 22/21/18 8/8/18
f 22/21/19 23/20/19 24/22/19
f 25/7/20 9/9/20 26/23/20
f 9/9/21 25/7/21 8/8/21
f 27/6/22 8/8/22 25/7/22
f 8/8/23 27/6/23 23/20/23
f 28/24/24 29/25/24 30/26/24
f 31/27/24 30/26/24 29/25/24
f 30/26/24 31/27/24 32/28/24
f 33/29/24 32/28/24 31/27/24
f 34/26/25 35/25/25 36/24/25
f 35/25/25 34/26/25 37/27/25
f 38/28/25 37/27/25 34/26/25
f 37/27/25 38/28/25 39/29/25
f 40/24/25 41/25/25 42/26/25
f 43/27/25 42/26/25 41/25/25
f 42/26/25 43/27/25 44/28/25
f 45/29/25 44/28/25 43/27/25
f 46/30/26 47/31/26 48/32/26
f 49/33/27 48/32/27 47/31/27
f 48/32/28 49/33/28 50/34/28
f 51/35/29 50/34/29 49/33/29
f 47/31/27 52/36/27 49/33/27
f 53/37/30 49/33/30 52/36/30
f 49/33/29 53/37/29 51/35/29
f 54/33/31 51/35/31 53/37/31
f 55/38/32 56/39/32 57/40/32
f 58/41/33 57/40/33 56/39/33
f 57/40/34 58/41/34 59/42/34
f 60/40/35 59/42/35 58/41/35
f 55/38/32 61/43/32 56/39/32
f 61/43/36 55/38/36 62/44/36
f 51/45/37 62/44/37 55/38/37
f 62/44/38 51/45/38 63/38/38
f 60/40/35 64/46/35 59/42/35
f 64/46/39 60/40/39 63/38/39
f 65/43/40 63/38/40 60/40/40
f 63/38/41 65/43/41 62/44/41
f 59/47/42 64/48/42 66/32/42
f 54/33/43 66/32/43 64/48/43
f 66/32/44 54/33/44 67/36/44
f 68/49/45 67/36/45 54/33/45
f 69/50/24 33/29/24 31/27/24
f 33/29/24 69/50/24 70/51/24
f 71/52/24 70/51/24 69/50/24
f 70/51/24 71/52/24 72/53/24
f 37/27/25 39/29/25 73/50/25
f 74/51/25 73/50/25 39/29/25
f 73/50/25 74/51/25 75/52/25
f 76/53/25 75/52/25 74/51/25
f 77/50/25 45/29/25 43/27/25
f 45/29/25 77/50/25 78/51/25
f 79/52/25 78/51/25 77/50/25
f 78/51/25 79/52/25 80/53/25
f 81/27/24 82/29/24 83/50/24
f 84/51/24 83/50/24 82/29/24
f 83/50/24 84/51/24 85/52/24
f 86/53/24 85/52/24 84/51/24
f 87/13/46 18/12/46 88/14/46
f 20/19/47 88/14/47 18/12/47
f 88/14/48 20/19/48 89/54/48
f 88/14/46 1/15/46 87/13/46
f 1/15/46 88/14/46 68/16/46
f 67/55/49 68/16/49 88/14/49
f 90/54/50 20/19/50 14/14/50
f 20/19/51 90/54/51 89/56/51
f 91/55/52 89/56/52 90/54/52
f 92/25/24 93/26/24 81/27/24
f 94/28/24 81/27/24 93/26/24
f 81/27/24 94/28/24 82/29/24
f 46/30/53 16/57/53 47/31/53
f 16/57/54 46/30/54 66/32/54
f 59/47/42 66/32/42 46/30/42
f 19/18/55 17/17/55 12/12/55
f 10/10/56 12/12/56 17/17/56
f 95/2/57 96/4/57 15/1/57
f 97/5/58 15/1/58 96/4/58
f 96/4/59 27/6/59 97/5/59
f 25/7/60 97/5/60 27/6/60
f 24/58/61 23/59/61 21/60/61
f 27/61/62 21/60/62 23/59/62
f 26/62/63 7/63/63 25/64/63
f 97/65/64 25/64/64 7/63/64
f 10/10/65 18/12/65 98/11/65
f 87/13/9 98/11/9 18/12/9
f 98/66/66 87/67/66 99/68/66
f 3/3/67 99/68/67 87/67/67
f 21/60/62 27/61/62 6/69/62
f 96/70/68 6/69/68 27/61/68
f 6/69/68 96/70/68 4/71/68
f 95/72/69 4/71/69 96/70/69
f 4/71/69 95/72/69 2/73/69
f 100/74/70 2/73/70 95/72/70
f 3/75/71 101/76/71 99/77/71
f 98/78/72 99/77/72 101/76/72
f 16/16/10 15/15/10 47/79/10
f 52/80/9 47/79/9 15/15/9
f 52/36/30 68/49/30 53/37/30
f 54/33/73 53/37/73 68/49/73
f 59/47/74 48/32/74 102/48/74
f 50/34/28 102/48/28 48/32/28
f 56/39/75 103/81/75 58/41/75
f 104/39/76 58/41/76 103/81/76
f 102/46/77 50/82/77 55/38/77
f 51/45/37 55/38/37 50/82/37
f 55/38/77 57/40/77 102/46/77
f 59/42/34 102/46/34 57/40/34
f 61/43/36 62/44/36 105/83/36
f 65/43/78 105/83/78 62/44/78
f 58/41/79 104/39/79 60/40/79
f 65/43/40 60/40/40 104/39/40
f 51/45/80 106/82/80 63/38/80
f 64/46/39 63/38/39 106/82/39
f 51/35/31 54/33/31 106/34/31
f 64/48/43 106/34/43 54/33/43
f 16/57/81 66/32/81 91/31/81
f 67/36/82 91/31/82 66/32/82
f 107/84/24 30/26/24 108/85/24
f 32/28/24 108/85/24 30/26/24
f 70/51/24 72/53/24 109/86/24
f 110/87/24 109/86/24 72/53/24
f 109/86/24 110/87/24 111/88/24
f 112/89/24 111/88/24 110/87/24
f 110/87/24 113/90/24 112/89/24
f 63/91/24 112/89/24 113/90/24
f 114/92/83 34/93/83 30/94/83
f 36/95/84 30/94/84 34/93/84
f 106/96/85 108/97/85 115/98/85
f 38/99/86 115/98/86 108/97/86
f 114/84/25 115/85/25 34/26/25
f 38/28/25 34/26/25 115/85/25
f 72/100/87 116/101/87 110/102/87
f 113/103/88 110/102/88 116/101/88
f 116/101/87 72/100/87 76/104/87
f 75/105/89 76/104/89 72/100/89
f 116/101/88 117/106/88 113/103/88
f 118/107/90 113/103/90 117/106/90
f 60/91/25 117/90/25 119/89/25
f 116/87/25 119/89/25 117/90/25
f 119/89/25 116/87/25 120/88/25
f 121/86/25 120/88/25 116/87/25
f 116/87/25 76/53/25 121/86/25
f 74/51/25 121/86/25 76/53/25
f 111/108/91 121/109/91 109/110/91
f 70/111/92 109/110/92 121/109/92
f 121/109/92 74/112/92 70/111/92
f 39/113/93 70/111/93 74/112/93
f 70/111/93 39/113/93 33/114/93
f 32/115/94 33/114/94 39/113/94
f 108/97/86 32/115/86 38/99/86
f 39/113/94 38/99/94 32/115/94
f 30/94/84 36/95/84 28/116/84
f 35/117/95 28/116/95 36/95/95
f 28/116/95 35/117/95 29/118/95
f 37/119/40 29/118/40 35/117/40
f 37/119/96 73/120/96 69/121/96
f 122/122/97 69/121/97 73/120/97
f 69/121/97 122/122/97 123/123/97
f 75/105/98 123/123/98 122/122/98
f 44/28/25 124/85/25 42/26/25
f 125/84/25 42/26/25 124/85/25
f 124/98/99 44/99/99 94/115/99
f 82/114/100 94/115/100 44/99/100
f 94/115/99 126/97/99 124/98/99
f 50/96/101 124/98/101 126/97/101
f 94/28/24 93/26/24 126/85/24
f 127/84/24 126/85/24 93/26/24
f 43/119/32 41/117/32 92/118/32
f 40/95/102 92/118/102 41/117/102
f 92/118/32 81/124/32 43/119/32
f 83/121/103 43/119/103 81/124/103
f 78/51/25 80/53/25 128/86/25
f 129/87/25 128/86/25 80/53/25
f 128/86/25 129/87/25 130/88/25
f 131/89/25 130/88/25 129/87/25
f 129/87/25 132/90/25 131/89/25
f 57/91/25 131/89/25 132/90/25
f 44/99/100 45/113/100 82/114/100
f 78/112/104 82/114/104 45/113/104
f 43/119/103 83/121/103 77/120/103
f 133/123/105 77/120/105 83/121/105
f 82/114/104 78/112/104 84/111/104
f 134/110/106 84/111/106 78/112/106
f 79/105/107 86/100/107 80/104/107
f 135/102/108 80/104/108 86/100/108
f 77/120/105 133/123/105 136/122/105
f 85/125/109 136/122/109 133/123/109
f 137/116/110 42/93/110 93/94/110
f 125/92/111 93/94/111 42/93/111
f 42/93/110 137/116/110 40/95/110
f 92/118/102 40/95/102 137/116/102
f 84/51/24 134/86/24 86/53/24
f 135/87/24 86/53/24 134/86/24
f 78/112/106 128/109/106 134/110/106
f 130/126/112 134/110/112 128/109/112
f 134/110/112 130/126/112 138/108/112
f 139/127/113 138/108/113 130/126/113
f 130/126/113 131/128/113 139/127/113
f 55/129/114 139/127/114 131/128/114
f 55/91/24 140/90/24 139/89/24
f 135/87/24 139/89/24 140/90/24
f 141/107/115 132/106/115 140/103/115
f 135/102/116 140/103/116 132/106/116
f 139/89/24 135/87/24 138/88/24
f 134/86/24 138/88/24 135/87/24
f 80/104/108 135/102/108 129/101/108
f 132/106/116 129/101/116 135/102/116
f 87/13/9 1/15/9 3/130/9
f 15/15/9 13/13/9 100/130/9
f 100/3/117 95/2/117 15/1/117
f 7/7/118 26/23/118 9/9/118
f 22/21/119 24/22/119 21/20/119
f 13/67/120 101/68/120 100/3/120
f 11/11/121 10/10/121 98/131/121
f 101/68/122 13/67/122 11/66/122
f 93/26/24 92/25/24 137/24/24
f 97/65/64 7/63/64 5/132/64
f 1/133/123 97/65/123 5/132/123
f 97/65/123 1/133/123 15/134/123
f 2/73/70 100/74/70 3/135/70
f 101/76/71 3/75/71 100/136/71
f 98/78/72 101/76/72 11/137/72
f 52/80/9 15/15/9 1/138/9
f 16/16/124 90/54/124 14/14/124
f 90/54/124 16/16/124 91/55/124
f 89/56/52 91/55/52 67/139/52
f 67/55/49 88/14/49 89/54/49
f 1/15/46 68/16/46 52/79/46
f 48/32/74 59/47/74 46/30/74
f 107/84/24 108/85/24 106/140/24
f 71/52/24 69/50/24 123/141/24
f 63/91/24 113/90/24 118/142/24
f 114/92/83 30/94/83 107/143/83
f 106/96/85 115/98/85 64/144/85
f 115/85/25 114/84/25 64/140/25
f 118/107/90 117/106/90 142/145/90
f 117/90/25 60/91/25 142/142/25
f 112/127/125 60/146/125 119/128/125
f 60/146/125 112/127/125 63/129/125
f 112/127/126 120/126/126 111/108/126
f 120/126/126 112/127/126 119/128/126
f 121/109/91 111/108/91 120/126/91
f 29/118/40 37/119/40 31/124/40
f 37/119/96 69/121/96 31/124/96
f 75/105/89 72/100/89 71/125/89
f 73/50/25 75/52/25 122/141/25
f 123/123/98 75/105/98 71/125/98
f 79/52/25 77/50/25 136/141/25
f 57/91/25 132/90/25 143/142/25
f 86/100/107 79/105/107 85/125/107
f 83/50/24 85/52/24 133/141/24
f 136/122/109 85/125/109 79/105/109
f 93/94/111 125/92/111 127/143/111
f 126/85/24 127/84/24 50/140/24
f 124/98/101 50/96/101 102/144/101
f 125/84/25 124/85/25 102/140/25
f 55/129/114 131/128/114 57/146/114
f 140/90/24 55/91/24 141/142/24
f 132/106/115 141/107/115 143/145/115
