mtllib keybladeofpeopleshearts.mtl
v 2.243187 -21.976189 3.188566
v 4.525749 -21.976189 -0.066401
v -4.604107 -21.976189 -0.066401
v -2.321636 -21.976189 -3.321368
v 2.243217 -24.380203 -3.321368
v 4.525749 -24.380203 -0.066401
v -4.604107 -24.380203 -0.066401
v -2.321636 -24.380203 3.188566
v -2.321636 -21.976189 3.188566
v 2.243187 -24.380203 3.188566
v 2.243217 -21.976189 -3.321368
v -2.321636 -24.380203 -3.321368
vt 0.301520 0.671650
vt 0.179420 0.602470
vt 0.180000 0.883090
vt 0.301870 0.811820
vt 0.563980 0.889010
vt 0.563980 0.747470
vt 0.646140 0.747470
vt 0.563980 0.606310
vt 0.646140 0.889010
vt 0.563980 0.466270
vt 0.646140 0.466270
vt 0.646140 0.606310
vn 0.000000 1.000000 0.000000
vn 0.000000 -1.000000 -0.000000
vn -0.818800 0.000000 0.574100
vn -0.000000 0.000000 1.000000
vn -0.818800 -0.000000 -0.574100
vn 0.818700 -0.000000 0.574200
vn 0.818800 0.000000 -0.574100
vn 0.000000 -0.000000 -1.000000
o keychain
usemtl Material08
f 1/1/1 2/2/1 3/3/1
f 4/4/1 3/3/1 2/2/1
f 5/4/2 6/3/2 7/2/2
f 8/1/2 7/2/2 6/3/2
f 7/5/3 8/6/3 9/7/3
f 10/8/4 9/7/4 8/6/4
f 9/7/3 3/9/3 7/5/3
f 4/7/5 7/5/5 3/9/5
f 10/8/6 6/10/6 2/11/6
f 5/8/7 2/11/7 6/10/7
f 2/11/6 1/12/6 10/8/6
f 9/7/4 10/8/4 1/12/4
f 2/11/7 5/8/7 11/12/7
f 4/7/8 11/12/8 5/8/8
f 7/5/5 4/7/5 12/6/5
f 5/8/8 12/6/8 4/7/8
f 1/1/1 3/3/1 9/4/1
f 5/4/2 7/2/2 12/1/2
f 8/1/2 6/3/2 10/4/2
f 4/4/1 2/2/1 11/1/1
