mtllib kiblade.mtl
v -0.000002 -41.512798 0.000000
v -0.000002 -42.156200 2.077200
v -0.000002 -45.748199 2.077200
v -0.000002 -56.402500 0.000000
v -0.000002 -41.512798 0.000000
v -0.000002 -45.748199 2.077200
v -0.000002 -42.156200 -2.077200
v -0.000002 -41.512798 0.000000
v -0.000002 -45.748199 -2.077200
v -0.000002 -41.512798 0.000000
v -0.000002 -56.402500 0.000000
v -0.000002 -45.748199 -2.077200
v -1.773201 -32.768501 0.000000
v -1.773202 -37.819500 0.000000
v 1.773199 -32.768501 0.000000
v -1.773202 -37.819500 0.000000
v 1.773198 -37.819500 0.000000
v 1.773199 -32.768501 0.000000
v 1.773198 -37.819500 0.000000
v -1.773202 -37.819500 0.000000
v 1.773199 -32.768501 0.000000
v -1.773202 -37.819500 0.000000
v -1.773201 -32.768501 0.000000
v 1.773199 -32.768501 0.000000
v -0.000002 -42.156200 2.077200
v -0.000002 -41.512798 0.000000
v -0.000002 -45.748199 2.077200
v -0.000002 -41.512798 0.000000
v -0.000002 -56.402500 0.000000
v -0.000002 -45.748199 2.077200
v -0.000002 -41.512798 0.000000
v -0.000002 -42.156200 -2.077200
v -0.000002 -45.748199 -2.077200
v -0.000002 -56.402500 0.000000
v -0.000002 -41.512798 0.000000
v -0.000002 -45.748199 -2.077200
v -1.773201 -31.907200 0.000000
v -1.773201 -26.856199 0.000000
v 1.773199 -26.856199 0.000000
v -1.773201 -26.856199 0.000000
v -1.773201 -31.907200 0.000000
v 1.773199 -26.856199 0.000000
v 1.773199 -31.907200 0.000000
v -1.773201 -31.907200 0.000000
v 1.773199 -26.856199 0.000000
v -1.773201 -31.907200 0.000000
v 1.773199 -31.907200 0.000000
v 1.773199 -26.856199 0.000000
v -0.000001 -23.867100 1.773200
v -0.000001 -28.913000 1.773200
v -0.000001 -23.867100 -1.773200
v -0.000001 -28.913000 1.773200
v -0.000001 -23.867100 1.773200
v -0.000001 -23.867100 -1.773200
v -0.000001 -28.913000 1.773200
v -0.000001 -28.913000 -1.773200
v -0.000001 -23.867100 -1.773200
v -0.000001 -28.913000 -1.773200
v -0.000001 -28.913000 1.773200
v -0.000001 -23.867100 -1.773200
v -0.000001 -29.779402 1.773200
v -0.000002 -34.825401 1.773200
v -0.000001 -29.779402 -1.773200
v -0.000002 -34.825401 1.773200
v -0.000001 -29.779402 1.773200
v -0.000001 -29.779402 -1.773200
v -0.000002 -34.825401 1.773200
v -0.000002 -34.825401 -1.773200
v -0.000001 -29.779402 -1.773200
v -0.000002 -34.825401 -1.773200
v -0.000002 -34.825401 1.773200
v -0.000001 -29.779402 -1.773200
v -1.773201 -25.386900 0.000000
v -1.773201 -21.845600 0.000000
v 1.773199 -21.845600 0.000000
v -1.773201 -21.845600 0.000000
v -1.773201 -25.386900 0.000000
v 1.773199 -21.845600 0.000000
v 1.773199 -25.386900 0.000000
v -1.773201 -25.386900 0.000000
v 1.773199 -21.845600 0.000000
v -1.773201 -25.386900 0.000000
v 1.773199 -25.386900 0.000000
v 1.773199 -21.845600 0.000000
v -0.000002 -35.691700 1.773200
v -0.000002 -40.737701 1.773200
v -0.000002 -35.691700 -1.773200
v -0.000002 -40.737701 1.773200
v -0.000002 -35.691700 1.773200
v -0.000002 -35.691700 -1.773200
v -0.000002 -40.737701 1.773200
v -0.000002 -40.737701 -1.773200
v -0.000002 -35.691700 -1.773200
v -0.000002 -40.737701 -1.773200
v -0.000002 -40.737701 1.773200
v -0.000002 -35.691700 -1.773200
v -1.773202 -38.680801 0.000000
v -1.773202 -43.731800 0.000000
v 1.773198 -38.680801 0.000000
v -1.773202 -43.731800 0.000000
v 1.773198 -43.731800 0.000000
v 1.773198 -38.680801 0.000000
v 1.773198 -43.731800 0.000000
v -1.773202 -43.731800 0.000000
v 1.773198 -38.680801 0.000000
v -1.773202 -43.731800 0.000000
v -1.773202 -38.680801 0.000000
v 1.773198 -38.680801 0.000000
v -0.000002 -56.402500 5.816000
v -0.000002 -56.402500 0.000000
v -0.000002 -52.623100 5.816000
v -0.000002 -50.054504 3.100500
v -0.000002 -52.623100 5.816000
v -0.000002 -56.402500 0.000000
v -0.000002 -56.402500 0.000000
v -0.000002 -45.748199 2.077200
v -0.000002 -50.054504 3.100500
v -0.000002 -45.950802 6.383500
v -0.000002 -50.054504 3.100500
v -0.000002 -45.748199 2.077200
v -0.000002 -45.748199 2.077200
v -0.000002 -43.615299 3.779400
v -0.000002 -45.950802 6.383500
v -0.000002 -43.615299 -3.779400
v -0.000002 -45.748199 -2.077200
v -0.000002 -45.950802 -6.383500
v -0.000002 -50.054504 -3.100500
v -0.000002 -45.950802 -6.383500
v -0.000002 -45.748199 -2.077200
v -0.000002 -45.748199 -2.077200
v -0.000002 -56.402500 0.000000
v -0.000002 -50.054504 -3.100500
v -0.000002 -52.623100 -5.816000
v -0.000002 -50.054504 -3.100500
v -0.000002 -56.402500 0.000000
v -0.000002 -56.402500 0.000000
v -0.000002 -56.402500 -5.816000
v -0.000002 -52.623100 -5.816000
v -0.000002 -43.615299 3.779400
v -0.000002 -45.748199 2.077200
v -0.000002 -45.950802 6.383500
v -0.000002 -50.054504 3.100500
v -0.000002 -45.950802 6.383500
v -0.000002 -45.748199 2.077200
v -0.000002 -45.748199 2.077200
v -0.000002 -56.402500 0.000000
v -0.000002 -50.054504 3.100500
v -0.000002 -52.623100 5.816000
v -0.000002 -50.054504 3.100500
v -0.000002 -56.402500 0.000000
v -0.000002 -56.402500 0.000000
v -0.000002 -56.402500 5.816000
v -0.000002 -52.623100 5.816000
v -0.000002 -56.402500 -5.816000
v -0.000002 -56.402500 0.000000
v -0.000002 -52.623100 -5.816000
v -0.000002 -50.054504 -3.100500
v -0.000002 -52.623100 -5.816000
v -0.000002 -56.402500 0.000000
v -0.000002 -56.402500 0.000000
v -0.000002 -45.748199 -2.077200
v -0.000002 -50.054504 -3.100500
v -0.000002 -45.950802 -6.383500
v -0.000002 -50.054504 -3.100500
v -0.000002 -45.748199 -2.077200
v -0.000002 -45.748199 -2.077200
v -0.000002 -43.615299 -3.779400
v -0.000002 -45.950802 -6.383500
vt 0.042135 0.011332
vt 0.082287 0.271150
vt 0.323063 0.271150
vt 0.987944 0.011332
vt 0.042135 0.011332
vt 0.323063 0.271150
vt 0.082286 0.271153
vt 0.042134 0.011332
vt 0.323061 0.271152
vt 0.042134 0.011332
vt 0.987942 0.011332
vt 0.323061 0.271152
vt 0.006430 0.984589
vt 0.006430 0.517025
vt 0.178268 0.984590
vt 0.006430 0.517025
vt 0.178268 0.517025
vt 0.178268 0.984590
vt 0.178268 0.517024
vt 0.006430 0.517024
vt 0.178268 0.984589
vt 0.006430 0.517024
vt 0.006430 0.984588
vt 0.178268 0.984589
vt 0.082287 0.271151
vt 0.042135 0.011332
vt 0.323063 0.271151
vt 0.042135 0.011332
vt 0.987944 0.011332
vt 0.323063 0.271151
vt 0.042134 0.011332
vt 0.082286 0.271153
vt 0.323061 0.271152
vt 0.987942 0.011332
vt 0.042134 0.011332
vt 0.323061 0.271152
vt 0.006430 0.517024
vt 0.006430 0.984589
vt 0.178268 0.984590
vt 0.006430 0.984589
vt 0.006430 0.517024
vt 0.178268 0.984590
vt 0.178268 0.517024
vt 0.006430 0.517024
vt 0.178268 0.984590
vt 0.006430 0.517024
vt 0.178268 0.517024
vt 0.178268 0.984590
vt 0.178268 0.984590
vt 0.178268 0.517024
vt 0.006430 0.984590
vt 0.178268 0.517024
vt 0.178268 0.984590
vt 0.006430 0.984590
vt 0.178268 0.517024
vt 0.006430 0.517024
vt 0.006430 0.984590
vt 0.006430 0.517024
vt 0.178268 0.517024
vt 0.006430 0.984590
vt 0.178268 0.984590
vt 0.178268 0.517024
vt 0.006430 0.984590
vt 0.178268 0.517024
vt 0.178268 0.984590
vt 0.006430 0.984590
vt 0.178268 0.517024
vt 0.006430 0.517024
vt 0.006430 0.984590
vt 0.006430 0.517024
vt 0.178268 0.517024
vt 0.006430 0.984590
vt 0.689550 0.584194
vt 0.488814 0.584194
vt 0.488814 0.982643
vt 0.488814 0.584194
vt 0.689550 0.584194
vt 0.488814 0.982643
vt 0.689550 0.982642
vt 0.689550 0.584194
vt 0.488814 0.982643
vt 0.689550 0.584194
vt 0.689550 0.982642
vt 0.488814 0.982643
vt 0.178268 0.984590
vt 0.178268 0.517024
vt 0.006430 0.984590
vt 0.178268 0.517024
vt 0.178268 0.984590
vt 0.006430 0.984590
vt 0.178268 0.517024
vt 0.006430 0.517024
vt 0.006430 0.984590
vt 0.006430 0.517024
vt 0.178268 0.517024
vt 0.006430 0.984590
vt 0.006430 0.984589
vt 0.006430 0.517025
vt 0.178268 0.984590
vt 0.006430 0.517025
vt 0.178268 0.517025
vt 0.178268 0.984590
vt 0.178268 0.517024
vt 0.006430 0.517024
vt 0.178268 0.984589
vt 0.006430 0.517024
vt 0.006430 0.984588
vt 0.178268 0.984589
vt 0.987321 0.741996
vt 0.987323 0.015859
vt 0.751266 0.741996
vt 0.591088 0.403116
vt 0.751266 0.741996
vt 0.987323 0.015859
vt 0.987323 0.015859
vt 0.322442 0.275677
vt 0.591088 0.403116
vt 0.334806 0.812707
vt 0.591088 0.403116
vt 0.322442 0.275677
vt 0.322442 0.275677
vt 0.189214 0.487915
vt 0.334806 0.812707
vt 0.189213 0.487916
vt 0.322440 0.275679
vt 0.334804 0.812707
vt 0.591087 0.403119
vt 0.334804 0.812707
vt 0.322440 0.275679
vt 0.322440 0.275679
vt 0.987321 0.015859
vt 0.591087 0.403119
vt 0.751264 0.741996
vt 0.591087 0.403119
vt 0.987321 0.015859
vt 0.987321 0.015859
vt 0.987321 0.741996
vt 0.751264 0.741996
vt 0.189214 0.487916
vt 0.322442 0.275678
vt 0.334806 0.812707
vt 0.591088 0.403116
vt 0.334806 0.812707
vt 0.322442 0.275678
vt 0.322442 0.275678
vt 0.987323 0.015859
vt 0.591088 0.403116
vt 0.751266 0.741996
vt 0.591088 0.403116
vt 0.987323 0.015859
vt 0.987323 0.015859
vt 0.987321 0.741996
vt 0.751266 0.741996
vt 0.987321 0.741996
vt 0.987321 0.015859
vt 0.751264 0.741996
vt 0.591087 0.403119
vt 0.751264 0.741996
vt 0.987321 0.015859
vt 0.987321 0.015859
vt 0.322440 0.275679
vt 0.591087 0.403119
vt 0.334804 0.812707
vt 0.591087 0.403119
vt 0.322440 0.275679
vt 0.322440 0.275679
vt 0.189213 0.487916
vt 0.334804 0.812707
vn 1.0000 -0.0000 0.0000
vn 0.0000 0.0000 1.0000
vn 0.0000 0.0000 -1.0000
vn -1.0000 0.0000 -0.0000
o keychain
usemtl Brush.050
f 1/1/1 2/2/1 3/3/1
f 4/4/1 5/5/1 6/6/1
f 7/7/1 8/8/1 9/9/1
f 10/10/1 11/11/1 12/12/1
f 13/13/2 14/14/2 15/15/2
f 16/16/2 17/17/2 18/18/2
f 19/19/3 20/20/3 21/21/3
f 22/22/3 23/23/3 24/24/3
f 25/25/4 26/26/4 27/27/4
f 28/28/4 29/29/4 30/30/4
f 31/31/4 32/32/4 33/33/4
f 34/34/4 35/35/4 36/36/4
f 37/37/3 38/38/3 39/39/3
f 40/40/2 41/41/2 42/42/2
f 43/43/3 44/44/3 45/45/3
f 46/46/2 47/47/2 48/48/2
f 49/49/1 50/50/1 51/51/1
f 52/52/4 53/53/4 54/54/4
f 55/55/1 56/56/1 57/57/1
f 58/58/4 59/59/4 60/60/4
f 61/61/1 62/62/1 63/63/1
f 64/64/4 65/65/4 66/66/4
f 67/67/1 68/68/1 69/69/1
f 70/70/4 71/71/4 72/72/4
f 73/73/3 74/74/3 75/75/3
f 76/76/2 77/77/2 78/78/2
f 79/79/3 80/80/3 81/81/3
f 82/82/2 83/83/2 84/84/2
f 85/85/1 86/86/1 87/87/1
f 88/88/4 89/89/4 90/90/4
f 91/91/1 92/92/1 93/93/1
f 94/94/4 95/95/4 96/96/4
f 97/97/2 98/98/2 99/99/2
f 100/100/2 101/101/2 102/102/2
f 103/103/3 104/104/3 105/105/3
f 106/106/3 107/107/3 108/108/3
f 109/109/1 110/110/1 111/111/1
f 112/112/1 113/113/1 114/114/1
f 115/115/1 116/116/1 117/117/1
f 118/118/1 119/119/1 120/120/1
f 121/121/1 122/122/1 123/123/1
f 124/124/1 125/125/1 126/126/1
f 127/127/1 128/128/1 129/129/1
f 130/130/1 131/131/1 132/132/1
f 133/133/1 134/134/1 135/135/1
f 136/136/1 137/137/1 138/138/1
f 139/139/4 140/140/4 141/141/4
f 142/142/4 143/143/4 144/144/4
f 145/145/4 146/146/4 147/147/4
f 148/148/4 149/149/4 150/150/4
f 151/151/4 152/152/4 153/153/4
f 154/154/4 155/155/4 156/156/4
f 157/157/4 158/158/4 159/159/4
f 160/160/4 161/161/4 162/162/4
f 163/163/4 164/164/4 165/165/4
f 166/166/4 167/167/4 168/168/4
