mtllib kingdomkey.mtl
v 0.000495 -22.774145 1.698000
v 0.000495 -20.976345 -1.927200
v 0.000495 -22.774145 -1.700900
v 0.000494 -19.937145 1.871800
v 0.000494 -19.937145 -1.737700
v 0.000494 -20.144745 -2.947300
v 0.000499 -47.680046 -4.987100
v 0.000499 -49.005142 -4.438200
v 0.000499 -46.354942 -4.438200
v 0.000499 -49.554043 -3.113000
v 0.000499 -45.806046 -3.113000
v 0.000499 -51.044846 -3.174600
v 0.000500 -53.289646 -2.244800
v 0.000499 -49.277046 -2.442400
v 0.000499 -48.529144 -1.590700
v 0.000499 -47.680046 -1.239100
v 0.000500 -53.289646 2.244800
v 0.000499 -51.044846 3.174700
v 0.000499 -49.277046 2.442400
v 0.000499 -48.529144 1.590800
v 0.000499 -47.680046 1.239400
v 0.000499 -47.714043 4.987100
v 0.000499 -46.354942 4.438200
v 0.000499 -49.039043 4.438200
v 0.000499 -45.840145 3.113200
v 0.000494 -16.061146 -0.001600
v 0.000494 -16.726246 -1.607100
v 0.000494 -16.726246 1.604000
v 0.000500 -54.219444 0.000000
v 0.000499 -47.870346 0.000000
v 0.000499 -46.620945 0.000000
v 0.000499 -47.145744 -0.908900
v 0.000499 -47.145744 0.909100
v 0.000495 -23.424345 1.348800
v 0.000495 -23.424345 -1.351800
v 0.000495 -25.358244 -2.087200
v 0.000494 -19.613445 -3.808000
v 0.000494 -19.579346 -2.664600
v 0.000499 -49.554043 3.113200
v 0.000499 -46.354942 1.788100
v 0.000499 -46.354942 -1.788100
v 0.000495 -25.358244 2.084100
v 0.000496 -26.778345 -0.001600
v 0.000499 -48.246143 -0.906500
v 0.000499 -48.246143 0.906500
v 0.000494 -18.331745 2.269000
v 0.000494 -18.331745 -2.272100
v 0.000494 -20.168644 -4.072500
v 1.550796 -29.672045 0.000000
v 1.550795 -25.299444 0.000000
v -1.550805 -25.299444 0.000000
v -1.550804 -29.672045 0.000000
v 0.000496 -32.619644 1.550900
v 0.000496 -28.247044 1.550900
v 0.000496 -32.619644 -1.550900
v 1.550797 -35.621742 0.000000
v 1.550796 -31.249044 0.000000
v -1.550804 -31.249044 0.000000
v -1.550803 -35.621742 0.000000
v 0.000496 -28.247044 -1.550900
v 1.550798 -41.731842 0.000000
v 1.550797 -37.359245 0.000000
v -1.550803 -37.359245 0.000000
v -1.550802 -41.731842 0.000000
v 0.000498 -40.423145 1.550900
v 0.000498 -40.423145 -1.550900
v 0.000498 -44.795746 -1.550900
v 0.000497 -38.658943 1.550900
v 0.000497 -34.286346 1.550900
v 0.000497 -34.286346 -1.550900
v 0.000497 -38.658943 -1.550900
v 0.000498 -44.795746 1.550900
v 1.550798 -43.489243 0.000000
v -1.550802 -43.489243 0.000000
v 1.550799 -47.861843 0.000000
v -1.550801 -47.861843 0.000000
vt 0.959700 0.407400
vt 0.850000 0.367500
vt 0.846100 0.404200
vt 0.977600 0.308400
vt 0.854200 0.308800
vt 0.798300 0.327100
vt 0.199300 0.242300
vt 0.177700 0.296000
vt 0.177700 0.187800
vt 0.125600 0.317600
vt 0.125600 0.166200
vt 0.128100 0.378100
vt 0.091500 0.469200
vt 0.099300 0.306400
vt 0.065800 0.276000
vt 0.052000 0.241600
vt 0.913600 0.175500
vt 0.858700 0.198400
vt 0.968400 0.198200
vt 0.003200 0.507000
vt 0.158800 0.482000
vt 0.158800 0.347200
vt 0.257000 0.403900
vt 0.959700 0.428200
vt 0.857000 0.426500
vt 0.838100 0.495100
vt 0.788700 0.286200
vt 0.819600 0.289400
vt 0.073500 0.187800
vt 0.003200 0.249300
vt 0.984800 0.494400
vt 0.913600 0.543600
vt 0.257000 0.522600
vt 0.991100 0.253300
vt 0.835900 0.253700
vt 0.772200 0.308200
vt 0.365500 0.804100
vt 0.159300 0.804100
vt 0.159700 0.658100
vt 0.366700 0.658600
vn -1.000000 -0.000000 0.000000
vn 0.000000 0.000000 1.000000
o keychain
usemtl Material__65
f 1/1/1 2/2/1 3/3/1
f 2/2/1 1/1/1 4/4/1
f 4/4/1 5/5/1 2/2/1
f 6/6/1 2/2/1 5/5/1
f 7/7/1 8/8/1 9/9/1
f 10/10/1 11/11/1 8/8/1
f 9/9/1 8/8/1 11/11/1
f 12/12/1 13/13/1 14/14/1
f 15/15/1 14/14/1 13/13/1
f 14/14/1 15/15/1 16/16/1
f 17/13/1 18/12/1 19/14/1
f 19/14/1 20/15/1 17/13/1
f 20/15/1 19/14/1 21/16/1
f 22/7/1 23/9/1 24/8/1
f 25/11/1 24/8/1 23/9/1
f 26/17/1 27/18/1 28/19/1
f 29/20/1 17/13/1 20/15/1
f 30/21/1 31/22/1 32/23/1
f 31/22/1 30/21/1 33/23/1
f 34/24/1 35/25/1 36/26/1
f 35/25/1 34/24/1 3/3/1
f 37/27/1 6/6/1 38/28/1
f 24/8/1 25/11/1 39/10/1
f 25/11/1 40/29/1 19/14/1
f 11/11/1 14/14/1 41/29/1
f 29/20/1 30/30/1 15/15/1
f 30/30/1 29/20/1 20/15/1
f 42/31/1 36/26/1 43/32/1
f 36/26/1 42/31/1 34/24/1
f 32/23/1 44/33/1 30/21/1
f 45/33/1 33/23/1 30/21/1
f 5/5/1 4/4/1 46/34/1
f 46/34/1 47/35/1 5/5/1
f 47/35/1 46/34/1 27/18/1
f 37/27/1 48/36/1 6/6/1
f 1/1/1 3/3/1 34/24/1
f 11/11/1 10/10/1 14/14/1
f 15/15/1 13/13/1 29/20/1
f 46/34/1 28/19/1 27/18/1
f 5/5/1 38/28/1 6/6/1
f 19/14/1 39/10/1 25/11/1
f 19/14/1 40/29/1 21/16/1
f 16/16/1 41/29/1 14/14/1
f 49/37/2 50/38/2 51/39/2
f 51/39/2 52/40/2 49/37/2
f 53/40/1 54/39/1 55/37/1
f 56/37/2 57/38/2 58/39/2
f 58/39/2 59/40/2 56/37/2
f 54/39/1 60/38/1 55/37/1
f 61/37/2 62/38/2 63/39/2
f 63/39/2 64/40/2 61/37/2
f 65/39/1 66/38/1 67/37/1
f 68/40/1 69/39/1 70/38/1
f 70/38/1 71/37/1 68/40/1
f 67/37/1 72/40/1 65/39/1
f 73/38/2 74/39/2 75/37/2
f 76/40/2 75/37/2 74/39/2
