mtllib lostmemory.mtl
v -1.612800 -7.607700 -0.000000
v 0.000000 -6.942900 2.116600
v 0.000000 -5.899500 2.370000
v 0.000000 -5.437500 1.624700
v -1.612800 -7.607700 -0.000000
v 0.000000 -5.899500 2.370000
v -0.000001 4.775700 13.626499
v -0.000002 4.420900 17.287201
v -1.386201 7.533200 8.880600
v -0.000002 4.420900 17.287201
v -0.000002 6.164900 14.166101
v -1.386201 7.533200 8.880600
v 2.229797 73.390999 0.000000
v -0.000003 73.390999 2.229800
v 2.659097 70.854202 0.000000
v -0.000003 73.390999 2.229800
v -0.000003 70.854202 2.659100
v 2.659097 70.854202 0.000000
v -0.000001 12.341599 9.950800
v -0.000002 12.377400 11.134299
v -0.000002 13.459500 11.340000
v -0.000002 12.377400 11.134299
v -0.000001 12.341599 9.950800
v -0.000002 13.459500 11.340000
v -0.000002 12.887200 12.914001
v -0.000002 13.459500 11.340000
v -0.000002 12.377400 11.134299
v -0.000002 13.459500 11.340000
v -0.000002 12.887200 12.914001
v -0.000002 12.377400 11.134299
v 2.808196 85.789299 0.000000
v -0.000004 85.789299 2.805200
v 2.044997 82.999001 0.000000
v -0.000004 82.999001 2.045000
v 2.044997 82.999001 0.000000
v -0.000004 85.789299 2.805200
v -2.808204 85.789299 -0.000000
v -0.000004 85.789299 2.805200
v -0.739304 87.822403 -0.000000
v -0.000004 87.822403 0.739300
v -0.739304 87.822403 -0.000000
v -0.000004 85.789299 2.805200
v 0.000000 -6.942900 -2.116600
v -1.612800 -7.607700 -0.000000
v 0.000000 -5.899500 -2.370000
v -1.612800 -7.607700 -0.000000
v 0.000000 -5.437500 -1.624700
v 0.000000 -5.899500 -2.370000
v -0.000001 4.775700 13.626499
v -0.000001 3.803800 11.650000
v -0.000001 4.915800 7.342400
v -0.000001 3.803800 11.650000
v -0.000001 4.775700 13.626499
v -0.000001 4.915800 7.342400
v 0.000001 12.887200 -12.914001
v 0.000000 13.459500 -11.340000
v 0.000000 12.377400 -11.134299
v 0.000000 13.459500 -11.340000
v 0.000001 12.887200 -12.914001
v 0.000000 12.377400 -11.134299
v 2.808196 85.789299 0.000000
v -0.000004 85.789299 -2.808200
v 0.739296 87.822403 0.000000
v -0.000004 87.822403 -0.739300
v 0.739296 87.822403 0.000000
v -0.000004 85.789299 -2.808200
v -2.808204 85.789299 -0.000000
v -0.000004 85.789299 -2.808200
v -2.045004 82.999001 -0.000000
v -0.000003 82.999001 -2.045000
v -2.045004 82.999001 -0.000000
v -0.000004 85.789299 -2.808200
v 0.000000 -6.942900 2.116600
v 1.612800 -7.607700 0.000000
v 0.000000 -5.899500 2.370000
v 1.612800 -7.607700 0.000000
v 0.000000 -5.437500 1.624700
v 0.000000 -5.899500 2.370000
v -0.000003 73.390999 -2.229800
v -0.000003 70.854202 -2.659100
v -2.659103 70.854202 -0.000000
v -2.659103 70.854202 -0.000000
v -2.229803 73.390999 -0.000000
v -0.000003 73.390999 -2.229800
v 0.000001 3.803800 -11.650000
v 0.000001 4.772700 -13.626499
v 0.000000 4.915800 -7.345400
v 0.000001 4.772700 -13.626499
v 0.000001 3.803800 -11.650000
v 0.000000 4.915800 -7.345400
v 0.000001 4.772700 -13.626499
v 0.000001 4.420900 -17.287201
v 1.386200 7.533200 -8.880600
v 0.000001 4.420900 -17.287201
v 0.000001 6.164900 -14.166101
v 1.386200 7.533200 -8.880600
v 0.000000 12.377400 -11.134299
v 0.000000 12.341599 -9.950800
v 0.000000 13.459500 -11.340000
v 0.000000 12.341599 -9.950800
v 0.000000 12.377400 -11.134299
v 0.000000 13.459500 -11.340000
v -0.000001 15.942801 8.200900
v -0.000001 17.352800 7.396000
v -1.386201 15.370400 5.497100
v -0.000001 12.293900 5.413600
v -1.386201 15.370400 5.497100
v -0.000001 11.489100 3.565400
v -0.000001 6.093300 3.967800
v -0.000001 8.540800 2.897600
v -1.612800 9.286000 -0.000000
v -2.045001 19.937401 1.380200
v -2.045002 42.820099 1.383200
v 2.044999 19.937401 1.380200
v -2.045002 46.501801 -0.000000
v -2.045002 42.820099 1.383200
v -0.000002 49.020802 2.045000
v -0.000001 4.775700 13.626499
v -0.000001 4.915800 7.342400
v 1.386199 7.533200 8.880600
v -0.000000 5.673000 1.624700
v 1.612800 9.286000 0.000000
v -0.000000 6.445100 2.378900
v -0.000004 97.680801 -0.000000
v 1.988396 91.587502 0.000000
v -0.000004 91.587502 -1.991400
v 2.044998 46.501801 0.000000
v 2.044998 42.820099 -1.383200
v -0.000002 49.020802 -2.045000
v 2.044999 19.937401 1.380200
v 2.044999 16.977200 0.000000
v -2.045001 19.937401 1.380200
v 0.000000 6.093300 -3.967800
v -0.000000 8.540800 -2.897600
v 1.612800 9.286000 0.000000
v -0.000001 4.915800 7.342400
v -0.000001 4.775700 13.626499
v -1.386201 7.533200 8.880600
v -0.000001 10.222099 7.011500
v -0.000001 8.844800 6.468900
v -1.386201 11.566600 8.925300
v 1.049301 -16.252800 0.000000
v 0.000001 -16.741701 0.000000
v 0.000001 -16.216999 -0.566400
v -0.000001 5.225800 5.670000
v -0.000001 7.485500 7.408000
v 1.386199 7.533200 8.880600
v 1.386200 11.566600 -8.925300
v 0.000000 10.222099 -7.011500
v 0.000000 8.844800 -6.468900
v -0.000000 5.673000 -1.624700
v -1.612800 9.286000 -0.000000
v -0.000000 6.445100 -2.378900
v 0.000000 4.915800 -7.345400
v 0.000001 4.772700 -13.626499
v 1.386200 7.533200 -8.880600
v -0.000000 12.293900 -5.413600
v 1.386200 15.370400 -5.497100
v -0.000000 11.489100 -3.565400
v 0.000000 15.942801 -8.200900
v -0.000000 17.352800 -7.396000
v 1.386200 15.370400 -5.497100
v 0.000001 4.772700 -13.626499
v 0.000000 4.915800 -7.345400
v -1.386199 7.533200 -8.880600
v 0.000000 5.225800 -5.670000
v 0.000000 7.485500 -7.408000
v -1.386199 7.533200 -8.880600
v -0.000000 5.673000 1.624700
v -0.000000 6.445100 2.378900
v -1.612800 9.286000 -0.000000
v -0.000001 6.093300 3.967800
v -1.612800 9.286000 -0.000000
v -0.000000 6.445100 2.378900
v -0.000000 6.445100 2.378900
v 1.612800 9.286000 0.000000
v -0.000001 6.093300 3.967800
v -0.000001 8.540800 2.897600
v -0.000001 6.093300 3.967800
v 1.612800 9.286000 0.000000
v 1.612800 9.286000 0.000000
v -0.000001 11.489100 3.565400
v -0.000001 8.540800 2.897600
v -1.612800 9.286000 -0.000000
v -0.000001 8.540800 2.897600
v -0.000001 11.489100 3.565400
v -0.000001 11.489100 3.565400
v -1.609801 13.283700 -0.000000
v -1.612800 9.286000 -0.000000
v -0.000000 11.489100 -3.565400
v -1.612800 9.286000 -0.000000
v -1.609801 13.283700 -0.000000
v -1.609801 13.283700 -0.000000
v -1.386200 15.370400 -5.497100
v -0.000000 11.489100 -3.565400
v -0.000000 12.293900 -5.413600
v -0.000000 11.489100 -3.565400
v -1.386200 15.370400 -5.497100
v -1.386200 15.370400 -5.497100
v 0.000000 11.581500 -6.650800
v -0.000000 12.293900 -5.413600
v 1.386200 15.370400 -5.497100
v -0.000000 12.293900 -5.413600
v 0.000000 11.581500 -6.650800
v 0.000000 11.581500 -6.650800
v 1.386200 11.566600 -8.925300
v 1.386200 15.370400 -5.497100
v 0.000000 12.341599 -9.950800
v 1.386200 15.370400 -5.497100
v 1.386200 11.566600 -8.925300
v 1.386200 11.566600 -8.925300
v 0.000001 8.466200 -12.192600
v 0.000000 12.341599 -9.950800
v -1.386200 11.566600 -8.925300
v 0.000000 12.341599 -9.950800
v 0.000001 8.466200 -12.192600
v 0.000001 8.466200 -12.192600
v -1.386199 7.533200 -8.880600
v -1.386200 11.566600 -8.925300
v 0.000000 9.497700 -7.837200
v -1.386200 11.566600 -8.925300
v -1.386199 7.533200 -8.880600
v -1.386199 7.533200 -8.880600
v 0.000000 7.485500 -7.408000
v 0.000000 9.497700 -7.837200
v 1.386200 7.533200 -8.880600
v 0.000000 9.497700 -7.837200
v 0.000000 7.485500 -7.408000
v 0.000000 7.485500 -7.408000
v 0.000000 5.225800 -5.670000
v 1.386200 7.533200 -8.880600
v 0.000000 4.915800 -7.345400
v 1.386200 7.533200 -8.880600
v 0.000000 5.225800 -5.670000
v 0.000000 5.225800 -5.670000
v -1.386199 7.533200 -8.880600
v 0.000000 4.915800 -7.345400
v -0.000000 5.673000 -1.624700
v -0.000000 6.445100 -2.378900
v 1.612800 9.286000 0.000000
v 0.000000 6.093300 -3.967800
v 1.612800 9.286000 0.000000
v -0.000000 6.445100 -2.378900
v -0.000000 6.445100 -2.378900
v -1.612800 9.286000 -0.000000
v 0.000000 6.093300 -3.967800
v -0.000000 8.540800 -2.897600
v 0.000000 6.093300 -3.967800
v -1.612800 9.286000 -0.000000
v -1.612800 9.286000 -0.000000
v -0.000000 11.489100 -3.565400
v -0.000000 8.540800 -2.897600
v 1.612800 9.286000 0.000000
v -0.000000 8.540800 -2.897600
v -0.000000 11.489100 -3.565400
v -0.000000 11.489100 -3.565400
v 1.609799 13.283700 0.000000
v 1.612800 9.286000 0.000000
v -0.000001 11.489100 3.565400
v 1.612800 9.286000 0.000000
v 1.609799 13.283700 0.000000
v 1.609799 13.283700 0.000000
v 1.386199 15.370400 5.497100
v -0.000001 11.489100 3.565400
v -0.000001 12.293900 5.413600
v -0.000001 11.489100 3.565400
v 1.386199 15.370400 5.497100
v 1.386199 15.370400 5.497100
v -0.000001 11.581500 6.650800
v -0.000001 12.293900 5.413600
v -1.386201 15.370400 5.497100
v -0.000001 12.293900 5.413600
v -0.000001 11.581500 6.650800
v -0.000001 11.581500 6.650800
v -1.386201 11.566600 8.925300
v -1.386201 15.370400 5.497100
v -0.000001 12.341599 9.950800
v -1.386201 15.370400 5.497100
v -1.386201 11.566600 8.925300
v -1.386201 11.566600 8.925300
v -0.000001 8.466200 12.192600
v -0.000001 12.341599 9.950800
v 1.386199 11.566600 8.925300
v -0.000001 12.341599 9.950800
v -0.000001 8.466200 12.192600
v -0.000001 8.466200 12.192600
v 1.386199 7.533200 8.880600
v 1.386199 11.566600 8.925300
v -0.000001 9.497700 7.837200
v 1.386199 11.566600 8.925300
v 1.386199 7.533200 8.880600
v 1.386199 7.533200 8.880600
v -0.000001 7.485500 7.408000
v -0.000001 9.497700 7.837200
v -1.386201 7.533200 8.880600
v -0.000001 9.497700 7.837200
v -0.000001 7.485500 7.408000
v -0.000001 7.485500 7.408000
v -0.000001 5.225800 5.670000
v -1.386201 7.533200 8.880600
v -0.000001 4.915800 7.342400
v -1.386201 7.533200 8.880600
v -0.000001 5.225800 5.670000
v -0.000001 5.225800 5.670000
v 1.386199 7.533200 8.880600
v -0.000001 4.915800 7.342400
v -0.000001 4.775700 13.626499
v 1.386199 7.533200 8.880600
v -0.000002 4.420900 17.287201
v -0.000002 6.164900 14.166101
v -0.000002 4.420900 17.287201
v 1.386199 7.533200 8.880600
v 1.386199 7.533200 8.880600
v -0.000001 8.466200 12.192600
v -0.000002 6.164900 14.166101
v -1.386201 7.533200 8.880600
v -0.000002 6.164900 14.166101
v -0.000001 8.466200 12.192600
v -0.000001 8.466200 12.192600
v -1.386201 11.566600 8.925300
v -1.386201 7.533200 8.880600
v -0.000001 9.497700 7.837200
v -1.386201 7.533200 8.880600
v -1.386201 11.566600 8.925300
v -1.386201 11.566600 8.925300
v -0.000001 8.844800 6.468900
v -0.000001 9.497700 7.837200
v 1.386199 11.566600 8.925300
v -0.000001 9.497700 7.837200
v -0.000001 8.844800 6.468900
v -0.000001 8.844800 6.468900
v -0.000001 10.222099 7.011500
v 1.386199 11.566600 8.925300
v -0.000001 11.581500 6.650800
v 1.386199 11.566600 8.925300
v -0.000001 10.222099 7.011500
v -0.000001 10.222099 7.011500
v -1.386201 11.566600 8.925300
v -0.000001 11.581500 6.650800
v 0.000001 4.772700 -13.626499
v -1.386199 7.533200 -8.880600
v 0.000001 4.420900 -17.287201
v 0.000001 6.164900 -14.166101
v 0.000001 4.420900 -17.287201
v -1.386199 7.533200 -8.880600
v -1.386199 7.533200 -8.880600
v 0.000001 8.466200 -12.192600
v 0.000001 6.164900 -14.166101
v 1.386200 7.533200 -8.880600
v 0.000001 6.164900 -14.166101
v 0.000001 8.466200 -12.192600
v 0.000001 8.466200 -12.192600
v 1.386200 11.566600 -8.925300
v 1.386200 7.533200 -8.880600
v 0.000000 9.497700 -7.837200
v 1.386200 7.533200 -8.880600
v 1.386200 11.566600 -8.925300
v 1.386200 11.566600 -8.925300
v 0.000000 8.844800 -6.468900
v 0.000000 9.497700 -7.837200
v -1.386200 11.566600 -8.925300
v 0.000000 9.497700 -7.837200
v 0.000000 8.844800 -6.468900
v 0.000000 8.844800 -6.468900
v 0.000000 10.222099 -7.011500
v -1.386200 11.566600 -8.925300
v 0.000000 11.581500 -6.650800
v -1.386200 11.566600 -8.925300
v 0.000000 10.222099 -7.011500
v 0.000000 10.222099 -7.011500
v 1.386200 11.566600 -8.925300
v 0.000000 11.581500 -6.650800
v -0.000003 70.854202 -2.659100
v -0.000003 73.390999 -2.229800
v 2.659097 70.854202 0.000000
v 2.229797 73.390999 0.000000
v 2.659097 70.854202 0.000000
v -0.000003 73.390999 -2.229800
v -0.000003 73.390999 -2.229800
v 2.659096 75.924995 0.000000
v 2.229797 73.390999 0.000000
v -0.000003 73.390999 2.229800
v 2.229797 73.390999 0.000000
v 2.659096 75.924995 0.000000
v 2.659096 75.924995 0.000000
v -0.000004 75.924995 2.659100
v -0.000003 73.390999 2.229800
v -2.659103 75.924995 -0.000000
v -0.000003 73.390999 2.229800
v -0.000004 75.924995 2.659100
v -0.000004 75.924995 2.659100
v -2.045003 76.664299 -0.000000
v -2.659103 75.924995 -0.000000
v -0.000003 75.924995 -2.659100
v -2.659103 75.924995 -0.000000
v -2.045003 76.664299 -0.000000
v -2.045003 76.664299 -0.000000
v -0.000003 76.664299 -2.045000
v -0.000003 75.924995 -2.659100
v 2.044997 76.664299 0.000000
v -0.000003 75.924995 -2.659100
v -0.000003 76.664299 -2.045000
v 1.609799 13.283700 0.000000
v 2.044999 19.937401 1.380200
v -0.000001 19.057999 3.291100
v -0.000001 20.202700 4.212300
v -0.000001 19.057999 3.291100
v 2.044999 19.937401 1.380200
v 2.044999 19.937401 1.380200
v -0.000001 22.456400 3.013900
v -0.000001 20.202700 4.212300
v -2.045001 19.937401 1.380200
v -0.000001 20.202700 4.212300
v -0.000001 22.456400 3.013900
v -0.000001 22.456400 3.013900
v -0.000002 40.906300 3.019800
v -2.045001 19.937401 1.380200
v -2.045002 42.820099 1.383200
v -2.045001 19.937401 1.380200
v -0.000002 40.906300 3.019800
v -0.000002 40.906300 3.019800
v -0.000002 43.240501 4.212300
v -2.045002 42.820099 1.383200
v -0.000002 49.020802 2.045000
v -2.045002 42.820099 1.383200
v -0.000002 43.240501 4.212300
v -0.000002 43.240501 4.212300
v 2.044998 42.820099 1.383200
v -0.000002 49.020802 2.045000
v 2.044998 46.501801 0.000000
v -0.000002 49.020802 2.045000
v 2.044998 42.820099 1.383200
v -0.000004 91.587502 1.988400
v 0.724396 90.049301 0.000000
v 1.988396 91.587502 0.000000
v -0.000004 91.587502 -1.991400
v 1.988396 91.587502 0.000000
v 0.724396 90.049301 0.000000
v 0.724396 90.049301 0.000000
v -0.000004 90.049301 -0.724400
v -0.000004 91.587502 -1.991400
v -0.724404 90.049301 -0.000000
v -0.000004 91.587502 -1.991400
v -0.000004 90.049301 -0.724400
v -0.000004 90.049301 -0.724400
v -0.739304 87.822403 -0.000000
v -0.724404 90.049301 -0.000000
v -0.000004 90.049301 0.724400
v -0.724404 90.049301 -0.000000
v -0.739304 87.822403 -0.000000
v -0.739304 87.822403 -0.000000
v -0.000004 87.822403 0.739300
v -0.000004 90.049301 0.724400
v 0.739296 87.822403 0.000000
v -0.000004 90.049301 0.724400
v -0.000004 87.822403 0.739300
v -0.000004 87.822403 0.739300
v -0.000004 85.789299 2.805200
v 0.739296 87.822403 0.000000
v 2.808196 85.789299 0.000000
v 0.739296 87.822403 0.000000
v -0.000004 85.789299 2.805200
v -2.045003 76.664299 -0.000000
v -0.000004 75.924995 2.659100
v -0.000004 76.664299 2.045000
v 2.044997 76.664299 0.000000
v -0.000004 76.664299 2.045000
v -0.000004 75.924995 2.659100
v -0.000004 75.924995 2.659100
v 2.659096 75.924995 0.000000
v 2.044997 76.664299 0.000000
v -0.000003 75.924995 -2.659100
v 2.044997 76.664299 0.000000
v 2.659096 75.924995 0.000000
v 2.659096 75.924995 0.000000
v -0.000003 73.390999 -2.229800
v -0.000003 75.924995 -2.659100
v -2.659103 75.924995 -0.000000
v -0.000003 75.924995 -2.659100
v -0.000003 73.390999 -2.229800
v -0.000003 73.390999 -2.229800
v -2.229803 73.390999 -0.000000
v -2.659103 75.924995 -0.000000
v -0.000003 73.390999 2.229800
v -2.659103 75.924995 -0.000000
v -2.229803 73.390999 -0.000000
v -2.229803 73.390999 -0.000000
v -2.659103 70.854202 -0.000000
v -0.000003 73.390999 2.229800
v -0.000003 70.854202 2.659100
v -0.000003 73.390999 2.229800
v -2.659103 70.854202 -0.000000
v -1.609801 13.283700 -0.000000
v -2.045001 19.937401 -1.380200
v -0.000001 19.057999 -3.291100
v -0.000001 20.202700 -4.212300
v -0.000001 19.057999 -3.291100
v -2.045001 19.937401 -1.380200
v -2.045001 19.937401 -1.380200
v -0.000001 22.456400 -3.013900
v -0.000001 20.202700 -4.212300
v 2.044999 19.937401 -1.380200
v -0.000001 20.202700 -4.212300
v -0.000001 22.456400 -3.013900
v -0.000001 22.456400 -3.013900
v -0.000002 40.906300 -3.022800
v 2.044999 19.937401 -1.380200
v 2.044998 42.820099 -1.383200
v 2.044999 19.937401 -1.380200
v -0.000002 40.906300 -3.022800
v -0.000002 40.906300 -3.022800
v -0.000002 43.240501 -4.212300
v 2.044998 42.820099 -1.383200
v -0.000002 49.020802 -2.045000
v 2.044998 42.820099 -1.383200
v -0.000002 43.240501 -4.212300
v -0.000002 43.240501 -4.212300
v -2.045002 42.820099 -1.383200
v -0.000002 49.020802 -2.045000
v -2.045002 46.501801 -0.000000
v -0.000002 49.020802 -2.045000
v -2.045002 42.820099 -1.383200
v -0.000004 91.587502 -1.991400
v -0.724404 90.049301 -0.000000
v -1.988404 91.587502 -0.000000
v -0.000004 91.587502 1.988400
v -1.988404 91.587502 -0.000000
v -0.724404 90.049301 -0.000000
v -0.724404 90.049301 -0.000000
v -0.000004 90.049301 0.724400
v -0.000004 91.587502 1.988400
v 0.724396 90.049301 0.000000
v -0.000004 91.587502 1.988400
v -0.000004 90.049301 0.724400
v -0.000004 90.049301 0.724400
v 0.739296 87.822403 0.000000
v 0.724396 90.049301 0.000000
v -0.000004 90.049301 -0.724400
v 0.724396 90.049301 0.000000
v 0.739296 87.822403 0.000000
v 0.739296 87.822403 0.000000
v -0.000004 87.822403 -0.739300
v -0.000004 90.049301 -0.724400
v -0.739304 87.822403 -0.000000
v -0.000004 90.049301 -0.724400
v -0.000004 87.822403 -0.739300
v -0.000004 87.822403 -0.739300
v -0.000004 85.789299 -2.808200
v -0.739304 87.822403 -0.000000
v -2.808204 85.789299 -0.000000
v -0.739304 87.822403 -0.000000
v -0.000004 85.789299 -2.808200
v -0.000001 11.489100 3.565400
v -1.386201 15.370400 5.497100
v -1.609801 13.283700 -0.000000
v -0.000001 18.363400 4.543200
v -1.609801 13.283700 -0.000000
v -1.386201 15.370400 5.497100
v -1.386201 15.370400 5.497100
v -0.000001 17.352800 7.396000
v -0.000001 18.363400 4.543200
v 1.386199 15.370400 5.497100
v -0.000001 18.363400 4.543200
v -0.000001 17.352800 7.396000
v -0.000001 17.352800 7.396000
v -0.000001 15.942801 8.200900
v 1.386199 15.370400 5.497100
v -0.000002 13.459500 11.340000
v 1.386199 15.370400 5.497100
v -0.000001 15.942801 8.200900
v -0.000001 15.942801 8.200900
v -1.386201 15.370400 5.497100
v -0.000002 13.459500 11.340000
v -0.000001 12.341599 9.950800
v -0.000002 13.459500 11.340000
v -1.386201 15.370400 5.497100
v 0.000001 -16.741701 0.000000
v -1.049299 -16.252800 -0.000000
v 0.000001 -16.216999 -0.566400
v 0.000001 -12.899099 -1.237100
v 0.000001 -16.216999 -0.566400
v -1.049299 -16.252800 -0.000000
v -1.049299 -16.252800 -0.000000
v -1.612800 -7.607700 -0.000000
v 0.000001 -12.899099 -1.237100
v 0.000001 -10.493400 -2.778400
v 0.000001 -12.899099 -1.237100
v -1.612800 -7.607700 -0.000000
v -1.612800 -7.607700 -0.000000
v 0.000000 -6.942900 -2.116600
v 0.000001 -10.493400 -2.778400
v 1.612800 -7.607700 0.000000
v 0.000001 -10.493400 -2.778400
v 0.000000 -6.942900 -2.116600
v 0.000000 -6.942900 -2.116600
v 0.000000 -5.899500 -2.370000
v 1.612800 -7.607700 0.000000
v 0.000000 -5.437500 -1.624700
v 1.612800 -7.607700 0.000000
v 0.000000 -5.899500 -2.370000
v -0.000000 11.489100 -3.565400
v 1.386200 15.370400 -5.497100
v 1.609799 13.283700 0.000000
v -0.000000 18.363400 -4.543200
v 1.609799 13.283700 0.000000
v 1.386200 15.370400 -5.497100
v 1.386200 15.370400 -5.497100
v -0.000000 17.352800 -7.396000
v -0.000000 18.363400 -4.543200
v -1.386200 15.370400 -5.497100
v -0.000000 18.363400 -4.543200
v -0.000000 17.352800 -7.396000
v -0.000000 17.352800 -7.396000
v 0.000000 15.942801 -8.200900
v -1.386200 15.370400 -5.497100
v 0.000000 13.459500 -11.340000
v -1.386200 15.370400 -5.497100
v 0.000000 15.942801 -8.200900
v 0.000000 15.942801 -8.200900
v 1.386200 15.370400 -5.497100
v 0.000000 13.459500 -11.340000
v 0.000000 12.341599 -9.950800
v 0.000000 13.459500 -11.340000
v 1.386200 15.370400 -5.497100
v -0.000004 76.664299 2.045000
v -2.045004 82.999001 -0.000000
v -2.045003 76.664299 -0.000000
v -0.000003 76.664299 -2.045000
v -2.045003 76.664299 -0.000000
v -2.045004 82.999001 -0.000000
v -2.045004 82.999001 -0.000000
v -0.000003 82.999001 -2.045000
v -0.000003 76.664299 -2.045000
v 2.044997 82.999001 0.000000
v -0.000003 76.664299 -2.045000
v -0.000003 82.999001 -2.045000
v -0.000003 82.999001 -2.045000
v -0.000004 85.789299 -2.808200
v 2.044997 82.999001 0.000000
v 2.808196 85.789299 0.000000
v 2.044997 82.999001 0.000000
v -0.000004 85.789299 -2.808200
v -2.808204 85.789299 -0.000000
v -2.045004 82.999001 -0.000000
v -0.000004 85.789299 2.805200
v -0.000004 82.999001 2.045000
v -0.000004 85.789299 2.805200
v -2.045004 82.999001 -0.000000
v -2.045004 82.999001 -0.000000
v -0.000004 76.664299 2.045000
v -0.000004 82.999001 2.045000
v 2.044997 82.999001 0.000000
v -0.000004 82.999001 2.045000
v -0.000004 76.664299 2.045000
v -0.000004 76.664299 2.045000
v 2.044997 76.664299 0.000000
v 2.044997 82.999001 0.000000
v -0.000003 76.664299 -2.045000
v 2.044997 82.999001 0.000000
v 2.044997 76.664299 0.000000
v 0.000000 -6.942900 2.116600
v -1.612800 -7.607700 -0.000000
v 0.000000 -10.493400 2.778400
v 0.000000 -12.899099 1.237100
v 0.000000 -10.493400 2.778400
v -1.612800 -7.607700 -0.000000
v -1.612800 -7.607700 -0.000000
v -1.049299 -16.252800 -0.000000
v 0.000000 -12.899099 1.237100
v 0.000001 -16.216999 0.566400
v 0.000000 -12.899099 1.237100
v -1.049299 -16.252800 -0.000000
v -1.049299 -16.252800 -0.000000
v 0.000001 -16.741701 0.000000
v 0.000001 -16.216999 0.566400
v 0.000001 -16.741701 0.000000
v 1.049301 -16.252800 0.000000
v 0.000001 -16.216999 0.566400
v 0.000000 -12.899099 1.237100
v 0.000001 -16.216999 0.566400
v 1.049301 -16.252800 0.000000
v 1.049301 -16.252800 0.000000
v 1.612800 -7.607700 0.000000
v 0.000000 -12.899099 1.237100
v 0.000000 -10.493400 2.778400
v 0.000000 -12.899099 1.237100
v 1.612800 -7.607700 0.000000
v 1.612800 -7.607700 0.000000
v 0.000000 -6.942900 2.116600
v 0.000000 -10.493400 2.778400
v 2.044997 70.114799 0.000000
v -0.000002 49.020802 -2.045000
v -0.000003 70.114799 -2.045000
v -2.045003 70.114799 -0.000000
v -0.000003 70.114799 -2.045000
v -0.000002 49.020802 -2.045000
v -0.000002 49.020802 -2.045000
v -2.045002 46.501801 -0.000000
v -2.045003 70.114799 -0.000000
v -0.000002 49.020802 2.045000
v -2.045003 70.114799 -0.000000
v -2.045002 46.501801 -0.000000
v -0.000003 70.854202 2.659100
v 2.044997 70.114799 0.000000
v 2.659097 70.854202 0.000000
v -0.000003 70.854202 -2.659100
v 2.659097 70.854202 0.000000
v 2.044997 70.114799 0.000000
v 2.044997 70.114799 0.000000
v -0.000003 70.114799 -2.045000
v -0.000003 70.854202 -2.659100
v -2.045003 70.114799 -0.000000
v -0.000003 70.854202 -2.659100
v -0.000003 70.114799 -2.045000
v 1.612800 9.286000 0.000000
v 0.000000 -5.437500 -1.624700
v -0.000000 5.673000 -1.624700
v -1.612800 9.286000 -0.000000
v -0.000000 5.673000 -1.624700
v 0.000000 -5.437500 -1.624700
v 0.000000 -5.437500 -1.624700
v -1.612800 -7.607700 -0.000000
v -1.612800 9.286000 -0.000000
v 0.000000 -5.437500 1.624700
v -1.612800 9.286000 -0.000000
v -1.612800 -7.607700 -0.000000
v 2.044997 70.114799 0.000000
v -0.000003 70.854202 2.659100
v -0.000003 70.114799 2.045000
v -2.045003 70.114799 -0.000000
v -0.000003 70.114799 2.045000
v -0.000003 70.854202 2.659100
v -0.000003 70.854202 2.659100
v -2.659103 70.854202 -0.000000
v -2.045003 70.114799 -0.000000
v -0.000003 70.854202 -2.659100
v -2.045003 70.114799 -0.000000
v -2.659103 70.854202 -0.000000
v 2.044999 19.937401 1.380200
v 1.609799 13.283700 0.000000
v 2.044999 16.977200 0.000000
v 2.044999 19.937401 -1.380200
v 2.044999 16.977200 0.000000
v 1.609799 13.283700 0.000000
v 1.609799 13.283700 0.000000
v -0.000001 19.057999 -3.291100
v 2.044999 19.937401 -1.380200
v -0.000001 20.202700 -4.212300
v 2.044999 19.937401 -1.380200
v -0.000001 19.057999 -3.291100
v -0.000001 20.202700 4.212300
v -2.045001 19.937401 1.380200
v -0.000001 19.057999 3.291100
v -1.609801 13.283700 -0.000000
v -0.000001 19.057999 3.291100
v -2.045001 19.937401 1.380200
v -2.045001 19.937401 1.380200
v -2.045001 16.977200 -0.000000
v -1.609801 13.283700 -0.000000
v -2.045001 19.937401 -1.380200
v -1.609801 13.283700 -0.000000
v -2.045001 16.977200 -0.000000
v -2.045003 70.114799 -0.000000
v -0.000002 49.020802 2.045000
v -0.000003 70.114799 2.045000
v 2.044997 70.114799 0.000000
v -0.000003 70.114799 2.045000
v -0.000002 49.020802 2.045000
v -0.000002 49.020802 2.045000
v 2.044998 46.501801 0.000000
v 2.044997 70.114799 0.000000
v -0.000002 49.020802 -2.045000
v 2.044997 70.114799 0.000000
v 2.044998 46.501801 0.000000
v 0.000000 -5.437500 -1.624700
v 1.612800 9.286000 0.000000
v 1.612800 -7.607700 0.000000
v 0.000000 -5.437500 1.624700
v 1.612800 -7.607700 0.000000
v 1.612800 9.286000 0.000000
v 1.612800 9.286000 0.000000
v -0.000000 5.673000 1.624700
v 0.000000 -5.437500 1.624700
v -1.612800 9.286000 -0.000000
v 0.000000 -5.437500 1.624700
v -0.000000 5.673000 1.624700
v -2.045002 42.820099 -1.383200
v 2.044998 46.501801 0.000000
v -2.045002 46.501801 -0.000000
v -2.045002 42.820099 1.383200
v -2.045002 46.501801 -0.000000
v 2.044998 46.501801 0.000000
v 2.044998 46.501801 0.000000
v 2.044998 42.820099 1.383200
v -2.045002 42.820099 1.383200
v 2.044999 19.937401 1.380200
v -2.045002 42.820099 1.383200
v 2.044998 42.820099 1.383200
v -0.000002 43.240501 4.212300
v -0.000002 40.906300 3.019800
v 2.044998 42.820099 1.383200
v 2.044999 19.937401 1.380200
v 2.044998 42.820099 1.383200
v -0.000002 40.906300 3.019800
v -0.000002 40.906300 3.019800
v -0.000001 22.456400 3.013900
v 2.044999 19.937401 1.380200
v 1.988396 91.587502 0.000000
v -0.000004 97.680801 -0.000000
v -0.000004 91.587502 1.988400
v -1.988404 91.587502 -0.000000
v -0.000004 91.587502 1.988400
v -0.000004 97.680801 -0.000000
v -0.000004 97.680801 -0.000000
v -0.000004 91.587502 -1.991400
v -1.988404 91.587502 -0.000000
v -2.045001 19.937401 1.380200
v 2.044999 16.977200 0.000000
v -2.045001 16.977200 -0.000000
v -2.045001 19.937401 -1.380200
v -2.045001 16.977200 -0.000000
v 2.044999 16.977200 0.000000
v 2.044999 16.977200 0.000000
v 2.044999 19.937401 -1.380200
v -2.045001 19.937401 -1.380200
v -1.609801 13.283700 -0.000000
v -0.000001 18.363400 4.543200
v -0.000001 19.057999 3.291100
v 1.609799 13.283700 0.000000
v -0.000001 19.057999 3.291100
v -0.000001 18.363400 4.543200
v -0.000001 18.363400 4.543200
v 1.386199 15.370400 5.497100
v 1.609799 13.283700 0.000000
v 0.000000 11.581500 -6.650800
v -1.386200 15.370400 -5.497100
v -1.386200 11.566600 -8.925300
v 0.000000 12.341599 -9.950800
v -1.386200 11.566600 -8.925300
v -1.386200 15.370400 -5.497100
v -1.386200 15.370400 -5.497100
v 0.000000 13.459500 -11.340000
v 0.000000 12.341599 -9.950800
v -0.000002 43.240501 -4.212300
v -0.000002 40.906300 -3.022800
v -2.045002 42.820099 -1.383200
v -2.045001 19.937401 -1.380200
v -2.045002 42.820099 -1.383200
v -0.000002 40.906300 -3.022800
v -0.000002 40.906300 -3.022800
v -0.000001 22.456400 -3.013900
v -2.045001 19.937401 -1.380200
v 2.044998 46.501801 0.000000
v -2.045002 42.820099 -1.383200
v 2.044998 42.820099 -1.383200
v 2.044999 19.937401 -1.380200
v 2.044998 42.820099 -1.383200
v -2.045002 42.820099 -1.383200
v -2.045002 42.820099 -1.383200
v -2.045001 19.937401 -1.380200
v 2.044999 19.937401 -1.380200
v 0.000001 -16.216999 -0.566400
v 0.000001 -12.899099 -1.237100
v 1.049301 -16.252800 0.000000
v 1.612800 -7.607700 0.000000
v 1.049301 -16.252800 0.000000
v 0.000001 -12.899099 -1.237100
v 0.000001 -12.899099 -1.237100
v 0.000001 -10.493400 -2.778400
v 1.612800 -7.607700 0.000000
v 1.609799 13.283700 0.000000
v -0.000000 18.363400 -4.543200
v -0.000001 19.057999 -3.291100
v -1.609801 13.283700 -0.000000
v -0.000001 19.057999 -3.291100
v -0.000000 18.363400 -4.543200
v -0.000000 18.363400 -4.543200
v -1.386200 15.370400 -5.497100
v -1.609801 13.283700 -0.000000
v -0.000001 11.581500 6.650800
v 1.386199 15.370400 5.497100
v 1.386199 11.566600 8.925300
v -0.000001 12.341599 9.950800
v 1.386199 11.566600 8.925300
v 1.386199 15.370400 5.497100
v 1.386199 15.370400 5.497100
v -0.000002 13.459500 11.340000
v -0.000001 12.341599 9.950800
v 0.000001 0.471000 -13.724899
v 0.000001 0.903300 -11.769300
v 0.000001 -1.648500 -11.316200
v 0.000001 0.903300 -11.769300
v 0.000001 0.471000 -13.724899
v 0.000001 -1.648500 -11.316200
v -0.000002 59.380001 -10.582800
v -0.000002 65.735695 -9.008801
v -0.000003 85.386902 -11.241600
v -0.000002 65.735695 -9.008801
v -0.000002 59.380001 -10.582800
v -0.000003 85.386902 -11.241600
v -0.000004 88.126495 3.580300
v -0.000004 89.098297 4.903900
v -0.000004 90.895897 3.473000
v -0.000004 89.098297 4.903900
v -0.000004 88.126495 3.580300
v -0.000004 90.895897 3.473000
v -0.000004 88.129501 2.191100
v -0.000004 88.126495 3.580300
v -0.000004 90.895897 3.473000
v -0.000004 88.126495 3.580300
v -0.000004 88.129501 2.191100
v -0.000004 90.895897 3.473000
v -0.000000 -8.117500 4.420900
v -0.000000 -6.218500 6.006900
v 0.000000 -11.641100 5.491100
v -0.000000 -6.218500 6.006900
v -0.000000 -8.117500 4.420900
v 0.000000 -11.641100 5.491100
v -0.000004 86.194801 5.005200
v -0.000004 89.098297 4.903900
v -0.000004 88.126495 3.580300
v -0.000004 89.098297 4.903900
v -0.000004 86.194801 5.005200
v -0.000004 88.126495 3.580300
v -0.000004 86.692604 1.732000
v -0.000004 87.798599 0.566400
v -0.000004 88.129501 2.191100
v -0.000004 87.798599 0.566400
v -0.000004 86.692604 1.732000
v -0.000004 88.129501 2.191100
v -0.000004 86.692604 -1.735000
v -0.000004 87.798599 -0.569400
v -0.000004 88.129501 -2.191100
v -0.000004 87.798599 -0.569400
v -0.000004 86.692604 -1.735000
v -0.000004 88.129501 -2.191100
v -0.000004 90.895897 -3.475900
v -0.000004 91.140404 -0.527600
v -0.000004 88.129501 -2.191100
v -0.000004 91.140404 -0.527600
v -0.000004 90.895897 -3.475900
v -0.000004 88.129501 -2.191100
v 0.000000 -10.493400 2.778400
v -0.000000 -8.117500 4.420900
v 0.000000 -11.641100 5.491100
v 0.000000 -6.942900 2.116600
v -0.000000 -8.117500 4.420900
v 0.000000 -10.493400 2.778400
v -0.000004 91.140404 -0.527600
v -0.000004 87.798599 -0.569400
v -0.000004 88.129501 -2.191100
v -0.000004 87.798599 -0.569400
v -0.000004 91.140404 -0.527600
v -0.000004 88.129501 -2.191100
v -0.000002 67.103996 -6.260300
v -0.831702 63.720398 -5.601400
v -0.945003 65.857903 -3.914100
v -0.831702 63.720398 -5.601400
v -0.000002 67.103996 -6.260300
v -0.945003 65.857903 -3.914100
v -0.000001 21.913900 -3.809800
v 0.000000 20.071600 -14.219700
v -0.000000 19.725800 -5.249700
v 0.000000 20.071600 -14.219700
v -0.000000 17.352800 -7.396000
v -0.000000 19.725800 -5.249700
v -0.000001 4.915800 7.342400
v -0.000001 3.803800 11.650000
v -0.000000 -3.115200 6.436100
v -0.000001 3.803800 11.650000
v -0.000001 4.915800 7.342400
v -0.000000 -3.115200 6.436100
v -0.000004 88.126495 -3.580300
v -0.000004 88.129501 -2.191100
v -0.000004 90.895897 -3.475900
v -0.000004 88.129501 -2.191100
v -0.000004 88.126495 -3.580300
v -0.000004 90.895897 -3.475900
v 0.000001 -8.117500 -4.420900
v 0.000000 -6.942900 -2.116600
v 0.000001 -10.493400 -2.778400
v 0.000000 -6.942900 -2.116600
v 0.000001 -8.117500 -4.420900
v 0.000001 -10.493400 -2.778400
v -0.000003 81.046402 -9.008801
v -0.000003 85.386902 -11.241600
v -0.000002 65.735695 -9.008801
v -0.000003 85.386902 -11.241600
v -0.000003 81.046402 -9.008801
v -0.000002 65.735695 -9.008801
v -0.000001 28.302299 -5.917400
v 0.000000 20.071600 -14.219700
v -0.000000 32.553299 -14.040899
v -0.000000 32.553299 -14.040899
v -0.000001 37.648003 -4.286800
v -0.000001 28.302299 -5.917400
v -0.000003 79.675102 -6.260300
v -0.000002 65.735695 -9.008801
v -0.000002 67.103996 -6.260300
v -0.000002 65.735695 -9.008801
v -0.000003 79.675102 -6.260300
v -0.000002 67.103996 -6.260300
v -0.000004 91.140404 0.527600
v -0.000004 90.895897 3.473000
v -0.000004 88.129501 2.191100
v -0.000004 90.895897 3.473000
v -0.000004 91.140404 0.527600
v -0.000004 88.129501 2.191100
v -0.000004 88.126495 -3.580300
v -0.000003 89.098297 -4.903900
v -0.000004 90.895897 -3.475900
v -0.000003 89.098297 -4.903900
v -0.000004 88.126495 -3.580300
v -0.000004 90.895897 -3.475900
v -2.659103 64.966499 0.190800
v -0.945003 65.857903 -3.914100
v -0.831702 63.720398 -5.601400
v -0.945003 65.857903 -3.914100
v -2.659103 64.966499 0.190800
v -0.831702 63.720398 -5.601400
v -0.831702 63.720398 -5.601400
v -0.000002 67.103996 -6.260300
v -0.000002 65.735695 -9.008801
v -0.000002 67.103996 -6.260300
v -0.831702 63.720398 -5.601400
v -0.000002 65.735695 -9.008801
v -0.000003 86.194801 -5.005200
v -0.000003 89.098297 -4.903900
v -0.000004 88.126495 -3.580300
v -0.000003 89.098297 -4.903900
v -0.000003 86.194801 -5.005200
v -0.000004 88.126495 -3.580300
v -0.831703 83.061600 -5.601400
v -0.000003 81.046402 -9.008801
v -0.000003 79.675102 -6.260300
v -0.000003 81.046402 -9.008801
v -0.831703 83.061600 -5.601400
v -0.000003 79.675102 -6.260300
v -0.000000 -9.303900 9.613999
v -0.000000 -6.218500 6.006900
v 0.000000 -11.641100 5.491100
v -0.000000 -6.218500 6.006900
v -0.000000 -9.303900 9.613999
v 0.000000 -11.641100 5.491100
v -0.000004 87.798599 0.566400
v -0.000004 91.140404 0.527600
v -0.000004 88.129501 2.191100
v -0.000004 91.140404 0.527600
v -0.000004 87.798599 0.566400
v -0.000004 88.129501 2.191100
v -0.000001 57.651001 -20.041800
v -0.000002 59.380001 -10.582800
v -0.000003 85.386902 -11.241600
v -0.000002 59.380001 -10.582800
v -0.000001 57.651001 -20.041800
v -0.000003 85.386902 -11.241600
v -0.000001 0.903300 11.769300
v -0.000001 3.803800 11.650000
v -0.000000 -3.115200 6.436100
v -0.000001 3.803800 11.650000
v -0.000001 0.903300 11.769300
v -0.000000 -3.115200 6.436100
v -0.000003 79.675102 -6.260300
v -0.945003 80.921204 -3.914100
v -0.831703 83.061600 -5.601400
v -0.945003 80.921204 -3.914100
v -0.000003 79.675102 -6.260300
v -0.831703 83.061600 -5.601400
v -0.000003 70.609703 -3.708500
v -0.000003 70.854202 -2.659100
v -0.000003 73.390999 -2.229800
v -0.000003 70.854202 -2.659100
v -0.000003 70.609703 -3.708500
v -0.000003 73.390999 -2.229800
v -0.000003 70.609703 -3.708500
v -0.000003 79.675102 -6.260300
v -0.000002 67.103996 -6.260300
v -0.000003 79.675102 -6.260300
v -0.000003 70.609703 -3.708500
v -0.000002 67.103996 -6.260300
v -0.000003 76.169403 -3.708500
v -0.000003 73.390999 -2.229800
v -0.000003 75.924995 -2.659100
v -0.000003 73.390999 -2.229800
v -0.000003 76.169403 -3.708500
v -0.000003 75.924995 -2.659100
v -2.659103 81.815598 0.190800
v -0.831703 83.061600 -5.601400
v -0.945003 80.921204 -3.914100
v -0.831703 83.061600 -5.601400
v -2.659103 81.815598 0.190800
v -0.945003 80.921204 -3.914100
v -0.000000 -9.303900 9.613999
v -0.000001 -1.648500 11.316200
v -0.000000 -3.115200 6.436100
v -0.000001 -1.648500 11.316200
v -0.000000 -9.303900 9.613999
v -0.000000 -3.115200 6.436100
v -0.000003 76.169403 -3.708500
v -0.000003 79.675102 -6.260300
v -0.000003 70.609703 -3.708500
v -0.000003 79.675102 -6.260300
v -0.000003 76.169403 -3.708500
v -0.000003 70.609703 -3.708500
v -0.000000 -8.117500 4.420900
v 0.000000 -10.493400 2.778400
v 0.000000 -11.641100 5.491100
v -0.000000 -8.117500 4.420900
v 0.000000 -6.942900 2.116600
v 0.000000 -10.493400 2.778400
v -0.000001 0.474000 13.724899
v -0.000001 0.903300 11.769300
v -0.000001 -1.648500 11.316200
v -0.000001 0.903300 11.769300
v -0.000001 0.474000 13.724899
v -0.000001 -1.648500 11.316200
v -0.000000 -2.993000 5.148300
v -0.000000 -3.115200 6.436100
v -0.000000 -6.218500 6.006900
v -0.000000 -3.115200 6.436100
v -0.000000 -2.993000 5.148300
v -0.000000 -6.218500 6.006900
v 0.000001 -8.117500 -4.420900
v 0.000001 -10.493400 -2.778400
v 0.000001 -11.641100 -5.491100
v 0.000001 -10.493400 -2.778400
v 0.000001 -8.117500 -4.420900
v 0.000001 -11.641100 -5.491100
v 0.000001 -6.218500 -6.006900
v 0.000001 -8.117500 -4.420900
v 0.000001 -11.641100 -5.491100
v 0.000001 -8.117500 -4.420900
v 0.000001 -6.218500 -6.006900
v 0.000001 -11.641100 -5.491100
v 0.000001 0.903300 -11.769300
v 0.000001 3.803800 -11.650000
v 0.000001 -3.115200 -6.436100
v 0.000001 3.803800 -11.650000
v 0.000001 0.903300 -11.769300
v 0.000001 -3.115200 -6.436100
v 0.000001 -9.303900 -9.613999
v 0.000001 -6.218500 -6.006900
v 0.000001 -11.641100 -5.491100
v 0.000001 -6.218500 -6.006900
v 0.000001 -9.303900 -9.613999
v 0.000001 -11.641100 -5.491100
v 0.000001 3.803800 -11.650000
v 0.000000 4.915800 -7.345400
v 0.000001 -3.115200 -6.436100
v 0.000000 4.915800 -7.345400
v 0.000001 3.803800 -11.650000
v 0.000001 -3.115200 -6.436100
v 0.000001 -3.115200 -6.436100
v 0.000001 -2.993000 -5.148300
v 0.000001 -6.218500 -6.006900
v 0.000001 -2.993000 -5.148300
v 0.000001 -3.115200 -6.436100
v 0.000001 -6.218500 -6.006900
v 0.000001 -9.303900 -9.613999
v 0.000001 -1.648500 -11.316200
v 0.000001 -3.115200 -6.436100
v 0.000001 -1.648500 -11.316200
v 0.000001 -9.303900 -9.613999
v 0.000001 -3.115200 -6.436100
v -0.000003 79.675102 -6.260300
v -0.000003 81.046402 -9.008801
v -0.000002 65.735695 -9.008801
v -0.000002 24.534201 7.446700
v -0.000002 20.813900 8.996901
v -0.000002 27.381199 8.713700
v -0.000000 -3.115200 6.436100
v -0.000000 -9.303900 9.613999
v -0.000000 -6.218500 6.006900
v -0.000001 -1.648500 11.316200
v -0.000000 -3.115200 6.436100
v -0.000001 0.903300 11.769300
v 0.000001 -9.303900 -9.613999
v 0.000001 -3.115200 -6.436100
v 0.000001 -6.218500 -6.006900
v -0.000002 20.813900 8.996901
v -0.000002 24.534201 7.446700
v -0.000002 27.381199 8.713700
v -0.000000 -9.303900 9.613999
v -0.000000 -3.115200 6.436100
v -0.000000 -6.218500 6.006900
v 0.000001 -3.115200 -6.436100
v 0.000001 -1.648500 -11.316200
v 0.000001 0.903300 -11.769300
v 0.000001 -3.115200 -6.436100
v 0.000001 -9.303900 -9.613999
v 0.000001 -6.218500 -6.006900
v -0.000000 -3.115200 6.436100
v -0.000001 -1.648500 11.316200
v -0.000001 0.903300 11.769300
v 0.000001 -1.648500 -11.316200
v 0.000001 -3.115200 -6.436100
v 0.000001 0.903300 -11.769300
v -0.000003 76.169403 -3.708500
v -0.000003 70.609703 -3.708500
v -0.000003 73.390999 -2.229800
v -0.000003 81.046402 -9.008801
v -0.000003 79.675102 -6.260300
v -0.000002 65.735695 -9.008801
v -0.000003 70.609703 -3.708500
v -0.000003 76.169403 -3.708500
v -0.000003 73.390999 -2.229800
v -0.000000 19.725800 -5.249700
v -0.000000 17.352800 -7.396000
v -0.000000 18.363400 -4.543200
v -0.000000 19.725800 -5.249700
v -0.000000 18.363400 -4.543200
v -0.000000 17.352800 -7.396000
v -0.000000 17.352800 -7.396000
v 0.000000 20.071600 -14.219700
v -0.000000 19.725800 -5.249700
v -0.000001 21.913900 -3.809800
v -0.000000 19.725800 -5.249700
v 0.000000 20.071600 -14.219700
v 0.000000 20.071600 -14.219700
v -0.000001 28.302299 -5.917400
v -0.000001 21.913900 -3.809800
v -0.000001 19.725800 5.246700
v -0.000001 17.352800 7.396000
v -0.000001 18.363400 4.543200
v -0.000001 19.725800 5.246700
v -0.000001 18.363400 4.543200
v -0.000001 17.352800 7.396000
v -0.000001 17.352800 7.396000
v -0.000002 20.813900 8.996901
v -0.000001 19.725800 5.246700
v -0.000001 21.532301 4.224200
v -0.000001 19.725800 5.246700
v -0.000002 20.813900 8.996901
v -0.000002 20.813900 8.996901
v -0.000002 24.534201 7.446700
v -0.000001 21.532301 4.224200
v -0.000001 21.913900 -3.809800
v -0.000001 28.302299 -5.917400
v 0.000000 20.071600 -14.219700
v -0.000000 32.553299 -14.040899
v 0.000000 20.071600 -14.219700
v -0.000001 28.302299 -5.917400
v -0.000001 28.302299 -5.917400
v -0.000001 37.648003 -4.286800
v -0.000000 32.553299 -14.040899
v -0.000002 24.534201 7.446700
v -0.000002 20.813900 8.996901
v -0.000001 21.532301 4.224200
v -0.000001 19.725800 5.246700
v -0.000001 21.532301 4.224200
v -0.000002 20.813900 8.996901
v -0.000002 20.813900 8.996901
v -0.000001 17.352800 7.396000
v -0.000001 19.725800 5.246700
vt 0.683086 0.559055
vt 0.667338 0.448819
vt 0.643716 0.448819
vt 0.643716 0.480315
vt 0.683086 0.559055
vt 0.643716 0.448819
vt 0.990173 0.559055
vt 0.998047 0.716535
vt 0.942929 0.370079
vt 0.998047 0.716535
vt 0.966551 0.590551
vt 0.942929 0.370079
vt 0.368126 0.905512
vt 0.368126 0.984252
vt 0.305134 0.905512
vt 0.368126 0.984252
vt 0.305134 0.984252
vt 0.305134 0.905512
vt 0.856315 0.417323
vt 0.856315 0.464567
vt 0.832693 0.464567
vt 0.856315 0.464567
vt 0.856315 0.417323
vt 0.832693 0.464567
vt 0.840567 0.543307
vt 0.832693 0.464567
vt 0.856315 0.464567
vt 0.832693 0.464567
vt 0.840567 0.543307
vt 0.856315 0.464567
vt 0.738204 0.007874
vt 0.738204 0.102362
vt 0.698834 0.007874
vt 0.698834 0.102362
vt 0.698834 0.007874
vt 0.738204 0.102362
vt 0.494110 0.984252
vt 0.517732 0.984252
vt 0.494110 0.889764
vt 0.509858 0.889764
vt 0.494110 0.889764
vt 0.517732 0.984252
vt 0.667338 0.448819
vt 0.683086 0.559055
vt 0.643716 0.448819
vt 0.683086 0.559055
vt 0.643716 0.480315
vt 0.643716 0.448819
vt 0.454740 0.039370
vt 0.470488 0.102362
vt 0.454740 0.259843
vt 0.470488 0.102362
vt 0.454740 0.039370
vt 0.454740 0.259843
vt 0.840567 0.543307
vt 0.832693 0.464567
vt 0.856315 0.464567
vt 0.832693 0.464567
vt 0.840567 0.543307
vt 0.856315 0.464567
vt 0.494110 0.984252
vt 0.470488 0.984252
vt 0.494110 0.889764
vt 0.478362 0.889764
vt 0.494110 0.889764
vt 0.470488 0.984252
vt 0.738204 0.007874
vt 0.738204 0.102362
vt 0.698834 0.007874
vt 0.698834 0.102362
vt 0.698834 0.007874
vt 0.738204 0.102362
vt 0.667338 0.448819
vt 0.683086 0.559055
vt 0.643716 0.448819
vt 0.683086 0.559055
vt 0.643716 0.480315
vt 0.643716 0.448819
vt 0.368126 0.811024
vt 0.305134 0.811024
vt 0.305134 0.905512
vt 0.305134 0.905512
vt 0.368126 0.905512
vt 0.368126 0.811024
vt 0.470488 0.102362
vt 0.454740 0.039370
vt 0.454740 0.259843
vt 0.454740 0.039370
vt 0.470488 0.102362
vt 0.454740 0.259843
vt 0.990173 0.559055
vt 0.998047 0.716535
vt 0.942929 0.370079
vt 0.998047 0.716535
vt 0.966551 0.590551
vt 0.942929 0.370079
vt 0.856315 0.464567
vt 0.856315 0.417323
vt 0.832693 0.464567
vt 0.856315 0.417323
vt 0.856315 0.464567
vt 0.832693 0.464567
vt 0.785449 0.338583
vt 0.761827 0.307087
vt 0.801197 0.228346
vt 0.856315 0.228346
vt 0.801197 0.228346
vt 0.872063 0.149606
vt 0.966551 0.165354
vt 0.919307 0.133858
vt 0.911433 0.007874
vt 0.147653 0.574803
vt 0.147653 0.669291
vt 0.187023 0.574803
vt 0.210645 0.952756
vt 0.187023 0.968504
vt 0.226393 0.811024
vt 0.454740 0.039370
vt 0.454740 0.259843
vt 0.407496 0.212598
vt 0.974425 0.070866
vt 0.911433 0.007874
vt 0.958677 0.102362
vt 0.494110 0.716535
vt 0.494110 0.779528
vt 0.462614 0.779528
vt 0.210645 0.952756
vt 0.187023 0.968504
vt 0.226393 0.811024
vt 0.187023 0.669291
vt 0.187023 0.716535
vt 0.147653 0.669291
vt 0.966551 0.165354
vt 0.919307 0.133858
vt 0.911433 0.007874
vt 0.454740 0.259843
vt 0.454740 0.039370
vt 0.407496 0.212598
vt 0.895685 0.291339
vt 0.919307 0.275591
vt 0.864189 0.370079
vt 0.816945 0.559055
vt 0.832693 0.559055
vt 0.816945 0.511811
vt 0.982299 0.244094
vt 0.942929 0.307087
vt 0.942929 0.370079
vt 0.864189 0.370079
vt 0.895685 0.291339
vt 0.919307 0.275591
vt 0.974425 0.070866
vt 0.911433 0.007874
vt 0.958677 0.102362
vt 0.454740 0.259843
vt 0.454740 0.039370
vt 0.407496 0.212598
vt 0.856315 0.228346
vt 0.801197 0.228346
vt 0.872063 0.149606
vt 0.785449 0.338583
vt 0.761827 0.307087
vt 0.801197 0.228346
vt 0.454740 0.039370
vt 0.454740 0.259843
vt 0.407496 0.212598
vt 0.982299 0.244094
vt 0.942929 0.307087
vt 0.942929 0.370079
vt 0.974425 0.070866
vt 0.958677 0.102362
vt 0.911433 0.007874
vt 0.966551 0.165354
vt 0.911433 0.007874
vt 0.958677 0.102362
vt 0.958677 0.102362
vt 0.911433 0.007874
vt 0.966551 0.165354
vt 0.919307 0.133858
vt 0.966551 0.165354
vt 0.911433 0.007874
vt 0.911433 0.007874
vt 0.872063 0.149606
vt 0.919307 0.133858
vt 0.911433 0.007874
vt 0.919307 0.133858
vt 0.872063 0.149606
vt 0.872063 0.149606
vt 0.840567 0.007874
vt 0.911433 0.007874
vt 0.872063 0.149606
vt 0.911433 0.007874
vt 0.840567 0.007874
vt 0.840567 0.007874
vt 0.801197 0.228346
vt 0.872063 0.149606
vt 0.856315 0.228346
vt 0.872063 0.149606
vt 0.801197 0.228346
vt 0.801197 0.228346
vt 0.864189 0.275591
vt 0.856315 0.228346
vt 0.801197 0.228346
vt 0.856315 0.228346
vt 0.864189 0.275591
vt 0.864189 0.275591
vt 0.864189 0.370079
vt 0.801197 0.228346
vt 0.856315 0.417323
vt 0.801197 0.228346
vt 0.864189 0.370079
vt 0.864189 0.370079
vt 0.927181 0.511811
vt 0.856315 0.417323
vt 0.864189 0.370079
vt 0.856315 0.417323
vt 0.927181 0.511811
vt 0.927181 0.511811
vt 0.942929 0.370079
vt 0.864189 0.370079
vt 0.903559 0.322835
vt 0.864189 0.370079
vt 0.942929 0.370079
vt 0.942929 0.370079
vt 0.942929 0.307087
vt 0.903559 0.322835
vt 0.942929 0.370079
vt 0.903559 0.322835
vt 0.942929 0.307087
vt 0.942929 0.307087
vt 0.982299 0.244094
vt 0.942929 0.370079
vt 0.990173 0.307087
vt 0.942929 0.370079
vt 0.982299 0.244094
vt 0.982299 0.244094
vt 0.942929 0.370079
vt 0.990173 0.307087
vt 0.974425 0.070866
vt 0.958677 0.102362
vt 0.911433 0.007874
vt 0.966551 0.165354
vt 0.911433 0.007874
vt 0.958677 0.102362
vt 0.958677 0.102362
vt 0.911433 0.007874
vt 0.966551 0.165354
vt 0.919307 0.133858
vt 0.966551 0.165354
vt 0.911433 0.007874
vt 0.911433 0.007874
vt 0.872063 0.149606
vt 0.919307 0.133858
vt 0.911433 0.007874
vt 0.919307 0.133858
vt 0.872063 0.149606
vt 0.872063 0.149606
vt 0.840567 0.007874
vt 0.911433 0.007874
vt 0.872063 0.149606
vt 0.911433 0.007874
vt 0.840567 0.007874
vt 0.840567 0.007874
vt 0.801197 0.228346
vt 0.872063 0.149606
vt 0.856315 0.228346
vt 0.872063 0.149606
vt 0.801197 0.228346
vt 0.801197 0.228346
vt 0.864189 0.275591
vt 0.856315 0.228346
vt 0.801197 0.228346
vt 0.856315 0.228346
vt 0.864189 0.275591
vt 0.864189 0.275591
vt 0.864189 0.370079
vt 0.801197 0.228346
vt 0.856315 0.417323
vt 0.801197 0.228346
vt 0.864189 0.370079
vt 0.864189 0.370079
vt 0.927181 0.511811
vt 0.856315 0.417323
vt 0.864189 0.370079
vt 0.856315 0.417323
vt 0.927181 0.511811
vt 0.927181 0.511811
vt 0.942929 0.370079
vt 0.864189 0.370079
vt 0.903559 0.322835
vt 0.864189 0.370079
vt 0.942929 0.370079
vt 0.942929 0.370079
vt 0.942929 0.307087
vt 0.903559 0.322835
vt 0.942929 0.370079
vt 0.903559 0.322835
vt 0.942929 0.307087
vt 0.942929 0.307087
vt 0.982299 0.244094
vt 0.942929 0.370079
vt 0.990173 0.307087
vt 0.942929 0.370079
vt 0.982299 0.244094
vt 0.982299 0.244094
vt 0.942929 0.370079
vt 0.990173 0.307087
vt 0.990173 0.559055
vt 0.942929 0.370079
vt 0.998047 0.716535
vt 0.966551 0.590551
vt 0.998047 0.716535
vt 0.942929 0.370079
vt 0.942929 0.370079
vt 0.927181 0.511811
vt 0.966551 0.590551
vt 0.942929 0.370079
vt 0.966551 0.590551
vt 0.927181 0.511811
vt 0.927181 0.511811
vt 0.864189 0.370079
vt 0.942929 0.370079
vt 0.903559 0.322835
vt 0.942929 0.370079
vt 0.864189 0.370079
vt 0.864189 0.370079
vt 0.919307 0.275591
vt 0.903559 0.322835
vt 0.864189 0.370079
vt 0.903559 0.322835
vt 0.919307 0.275591
vt 0.919307 0.275591
vt 0.895685 0.291339
vt 0.864189 0.370079
vt 0.864189 0.275591
vt 0.864189 0.370079
vt 0.895685 0.291339
vt 0.895685 0.291339
vt 0.864189 0.370079
vt 0.864189 0.275591
vt 0.990173 0.559055
vt 0.942929 0.370079
vt 0.998047 0.716535
vt 0.966551 0.590551
vt 0.998047 0.716535
vt 0.942929 0.370079
vt 0.942929 0.370079
vt 0.927181 0.511811
vt 0.966551 0.590551
vt 0.942929 0.370079
vt 0.966551 0.590551
vt 0.927181 0.511811
vt 0.927181 0.511811
vt 0.864189 0.370079
vt 0.942929 0.370079
vt 0.903559 0.322835
vt 0.942929 0.370079
vt 0.864189 0.370079
vt 0.864189 0.370079
vt 0.919307 0.275591
vt 0.903559 0.322835
vt 0.864189 0.370079
vt 0.903559 0.322835
vt 0.919307 0.275591
vt 0.919307 0.275591
vt 0.895685 0.291339
vt 0.864189 0.370079
vt 0.864189 0.275591
vt 0.864189 0.370079
vt 0.895685 0.291339
vt 0.895685 0.291339
vt 0.864189 0.370079
vt 0.864189 0.275591
vt 0.305134 0.811024
vt 0.368126 0.811024
vt 0.305134 0.905512
vt 0.368126 0.905512
vt 0.305134 0.905512
vt 0.368126 0.811024
vt 0.368126 0.811024
vt 0.431118 0.905512
vt 0.368126 0.905512
vt 0.368126 0.984252
vt 0.368126 0.905512
vt 0.431118 0.905512
vt 0.431118 0.905512
vt 0.431118 0.984252
vt 0.368126 0.984252
vt 0.431118 0.905512
vt 0.368126 0.984252
vt 0.431118 0.984252
vt 0.431118 0.984252
vt 0.454740 0.905512
vt 0.431118 0.905512
vt 0.431118 0.811024
vt 0.431118 0.905512
vt 0.454740 0.905512
vt 0.454740 0.905512
vt 0.454740 0.811024
vt 0.431118 0.811024
vt 0.454740 0.905512
vt 0.431118 0.811024
vt 0.454740 0.811024
vt 0.005921 0.811024
vt 0.084661 0.984252
vt 0.053165 0.811024
vt 0.084661 0.748031
vt 0.053165 0.811024
vt 0.084661 0.984252
vt 0.084661 0.984252
vt 0.116157 0.811024
vt 0.084661 0.748031
vt 0.084661 0.984252
vt 0.084661 0.748031
vt 0.116157 0.811024
vt 0.116157 0.811024
vt 0.155527 0.811024
vt 0.084661 0.984252
vt 0.187023 0.968504
vt 0.084661 0.984252
vt 0.155527 0.811024
vt 0.155527 0.811024
vt 0.187023 0.748031
vt 0.187023 0.968504
vt 0.226393 0.811024
vt 0.187023 0.968504
vt 0.187023 0.748031
vt 0.187023 0.748031
vt 0.187023 0.968504
vt 0.226393 0.811024
vt 0.210645 0.952756
vt 0.226393 0.811024
vt 0.187023 0.968504
vt 0.525606 0.795276
vt 0.494110 0.842520
vt 0.494110 0.795276
vt 0.462614 0.795276
vt 0.494110 0.795276
vt 0.494110 0.842520
vt 0.494110 0.842520
vt 0.478362 0.842520
vt 0.462614 0.795276
vt 0.494110 0.842520
vt 0.462614 0.795276
vt 0.478362 0.842520
vt 0.478362 0.842520
vt 0.494110 0.889764
vt 0.494110 0.842520
vt 0.509858 0.842520
vt 0.494110 0.842520
vt 0.494110 0.889764
vt 0.494110 0.889764
vt 0.509858 0.889764
vt 0.509858 0.842520
vt 0.494110 0.889764
vt 0.509858 0.842520
vt 0.509858 0.889764
vt 0.509858 0.889764
vt 0.517732 0.984252
vt 0.494110 0.889764
vt 0.494110 0.984252
vt 0.494110 0.889764
vt 0.517732 0.984252
vt 0.454740 0.905512
vt 0.431118 0.984252
vt 0.454740 0.984252
vt 0.454740 0.905512
vt 0.454740 0.984252
vt 0.431118 0.984252
vt 0.431118 0.984252
vt 0.431118 0.905512
vt 0.454740 0.905512
vt 0.431118 0.811024
vt 0.454740 0.905512
vt 0.431118 0.905512
vt 0.431118 0.905512
vt 0.368126 0.811024
vt 0.431118 0.811024
vt 0.431118 0.905512
vt 0.431118 0.811024
vt 0.368126 0.811024
vt 0.368126 0.811024
vt 0.368126 0.905512
vt 0.431118 0.905512
vt 0.368126 0.984252
vt 0.431118 0.905512
vt 0.368126 0.905512
vt 0.368126 0.905512
vt 0.305134 0.905512
vt 0.368126 0.984252
vt 0.305134 0.984252
vt 0.368126 0.984252
vt 0.305134 0.905512
vt 0.005921 0.811024
vt 0.084661 0.984252
vt 0.053165 0.811024
vt 0.084661 0.748031
vt 0.053165 0.811024
vt 0.084661 0.984252
vt 0.084661 0.984252
vt 0.116157 0.811024
vt 0.084661 0.748031
vt 0.084661 0.984252
vt 0.084661 0.748031
vt 0.116157 0.811024
vt 0.116157 0.811024
vt 0.155527 0.811024
vt 0.084661 0.984252
vt 0.187023 0.968504
vt 0.084661 0.984252
vt 0.155527 0.811024
vt 0.155527 0.811024
vt 0.187023 0.748031
vt 0.187023 0.968504
vt 0.226393 0.811024
vt 0.187023 0.968504
vt 0.187023 0.748031
vt 0.187023 0.748031
vt 0.187023 0.968504
vt 0.226393 0.811024
vt 0.210645 0.952756
vt 0.226393 0.811024
vt 0.187023 0.968504
vt 0.462614 0.795276
vt 0.494110 0.842520
vt 0.494110 0.795276
vt 0.525606 0.795276
vt 0.494110 0.795276
vt 0.494110 0.842520
vt 0.494110 0.842520
vt 0.509858 0.842520
vt 0.525606 0.795276
vt 0.494110 0.842520
vt 0.525606 0.795276
vt 0.509858 0.842520
vt 0.509858 0.842520
vt 0.494110 0.889764
vt 0.494110 0.842520
vt 0.478362 0.842520
vt 0.494110 0.842520
vt 0.494110 0.889764
vt 0.494110 0.889764
vt 0.478362 0.889764
vt 0.478362 0.842520
vt 0.494110 0.889764
vt 0.478362 0.842520
vt 0.478362 0.889764
vt 0.478362 0.889764
vt 0.470488 0.984252
vt 0.494110 0.889764
vt 0.494110 0.984252
vt 0.494110 0.889764
vt 0.470488 0.984252
vt 0.872063 0.149606
vt 0.801197 0.228346
vt 0.840567 0.007874
vt 0.746078 0.196850
vt 0.840567 0.007874
vt 0.801197 0.228346
vt 0.801197 0.228346
vt 0.761827 0.307087
vt 0.746078 0.196850
vt 0.801197 0.228346
vt 0.746078 0.196850
vt 0.761827 0.307087
vt 0.761827 0.307087
vt 0.785449 0.338583
vt 0.801197 0.228346
vt 0.832693 0.464567
vt 0.801197 0.228346
vt 0.785449 0.338583
vt 0.785449 0.338583
vt 0.801197 0.228346
vt 0.832693 0.464567
vt 0.856315 0.417323
vt 0.832693 0.464567
vt 0.801197 0.228346
vt 0.832693 0.559055
vt 0.816945 0.559055
vt 0.816945 0.511811
vt 0.761827 0.496063
vt 0.816945 0.511811
vt 0.816945 0.559055
vt 0.816945 0.559055
vt 0.683086 0.559055
vt 0.761827 0.496063
vt 0.730330 0.433071
vt 0.761827 0.496063
vt 0.683086 0.559055
vt 0.683086 0.559055
vt 0.667338 0.448819
vt 0.730330 0.433071
vt 0.683086 0.559055
vt 0.730330 0.433071
vt 0.667338 0.448819
vt 0.667338 0.448819
vt 0.643716 0.448819
vt 0.683086 0.559055
vt 0.643716 0.480315
vt 0.683086 0.559055
vt 0.643716 0.448819
vt 0.872063 0.149606
vt 0.801197 0.228346
vt 0.840567 0.007874
vt 0.746078 0.196850
vt 0.840567 0.007874
vt 0.801197 0.228346
vt 0.801197 0.228346
vt 0.761827 0.307087
vt 0.746078 0.196850
vt 0.801197 0.228346
vt 0.746078 0.196850
vt 0.761827 0.307087
vt 0.761827 0.307087
vt 0.785449 0.338583
vt 0.801197 0.228346
vt 0.832693 0.464567
vt 0.801197 0.228346
vt 0.785449 0.338583
vt 0.785449 0.338583
vt 0.801197 0.228346
vt 0.832693 0.464567
vt 0.856315 0.417323
vt 0.832693 0.464567
vt 0.801197 0.228346
vt 0.604346 0.102362
vt 0.698834 0.007874
vt 0.604346 0.007874
vt 0.604346 0.102362
vt 0.604346 0.007874
vt 0.698834 0.007874
vt 0.698834 0.007874
vt 0.698834 0.102362
vt 0.604346 0.102362
vt 0.698834 0.007874
vt 0.604346 0.102362
vt 0.698834 0.102362
vt 0.698834 0.102362
vt 0.738204 0.102362
vt 0.698834 0.007874
vt 0.738204 0.007874
vt 0.698834 0.007874
vt 0.738204 0.102362
vt 0.738204 0.007874
vt 0.698834 0.007874
vt 0.738204 0.102362
vt 0.698834 0.102362
vt 0.738204 0.102362
vt 0.698834 0.007874
vt 0.698834 0.007874
vt 0.604346 0.102362
vt 0.698834 0.102362
vt 0.698834 0.007874
vt 0.698834 0.102362
vt 0.604346 0.102362
vt 0.604346 0.102362
vt 0.604346 0.007874
vt 0.698834 0.007874
vt 0.604346 0.102362
vt 0.698834 0.007874
vt 0.604346 0.007874
vt 0.667338 0.448819
vt 0.683086 0.559055
vt 0.730330 0.433071
vt 0.761827 0.496063
vt 0.730330 0.433071
vt 0.683086 0.559055
vt 0.683086 0.559055
vt 0.816945 0.559055
vt 0.761827 0.496063
vt 0.816945 0.511811
vt 0.761827 0.496063
vt 0.816945 0.559055
vt 0.816945 0.559055
vt 0.832693 0.559055
vt 0.816945 0.511811
vt 0.832693 0.559055
vt 0.816945 0.559055
vt 0.816945 0.511811
vt 0.761827 0.496063
vt 0.816945 0.511811
vt 0.816945 0.559055
vt 0.816945 0.559055
vt 0.683086 0.559055
vt 0.761827 0.496063
vt 0.730330 0.433071
vt 0.761827 0.496063
vt 0.683086 0.559055
vt 0.683086 0.559055
vt 0.667338 0.448819
vt 0.730330 0.433071
vt 0.289386 0.984252
vt 0.242141 0.811024
vt 0.289386 0.811024
vt 0.289386 0.984252
vt 0.289386 0.811024
vt 0.242141 0.811024
vt 0.242141 0.811024
vt 0.226393 0.984252
vt 0.289386 0.984252
vt 0.242141 0.811024
vt 0.289386 0.984252
vt 0.226393 0.984252
vt 0.431118 0.984252
vt 0.454740 0.905512
vt 0.431118 0.905512
vt 0.431118 0.811024
vt 0.431118 0.905512
vt 0.454740 0.905512
vt 0.454740 0.905512
vt 0.454740 0.811024
vt 0.431118 0.811024
vt 0.454740 0.905512
vt 0.431118 0.811024
vt 0.454740 0.811024
vt 0.643716 0.795276
vt 0.675212 0.574803
vt 0.675212 0.716535
vt 0.643716 0.795276
vt 0.675212 0.716535
vt 0.675212 0.574803
vt 0.675212 0.574803
vt 0.643716 0.590551
vt 0.643716 0.795276
vt 0.612220 0.574803
vt 0.643716 0.795276
vt 0.643716 0.590551
vt 0.454740 0.905512
vt 0.431118 0.984252
vt 0.454740 0.984252
vt 0.454740 0.905512
vt 0.454740 0.984252
vt 0.431118 0.984252
vt 0.431118 0.984252
vt 0.431118 0.905512
vt 0.454740 0.905512
vt 0.431118 0.811024
vt 0.454740 0.905512
vt 0.431118 0.905512
vt 0.084661 0.984252
vt 0.005921 0.811024
vt 0.053165 0.984252
vt 0.084661 0.984252
vt 0.053165 0.984252
vt 0.005921 0.811024
vt 0.005921 0.811024
vt 0.053165 0.811024
vt 0.084661 0.984252
vt 0.084661 0.748031
vt 0.084661 0.984252
vt 0.053165 0.811024
vt 0.084661 0.748031
vt 0.084661 0.984252
vt 0.053165 0.811024
vt 0.005921 0.811024
vt 0.053165 0.811024
vt 0.084661 0.984252
vt 0.084661 0.984252
vt 0.053165 0.984252
vt 0.005921 0.811024
vt 0.084661 0.984252
vt 0.005921 0.811024
vt 0.053165 0.984252
vt 0.289386 0.984252
vt 0.242141 0.811024
vt 0.289386 0.811024
vt 0.289386 0.984252
vt 0.289386 0.811024
vt 0.242141 0.811024
vt 0.242141 0.811024
vt 0.226393 0.984252
vt 0.289386 0.984252
vt 0.242141 0.811024
vt 0.289386 0.984252
vt 0.226393 0.984252
vt 0.675212 0.574803
vt 0.643716 0.795276
vt 0.643716 0.590551
vt 0.612220 0.574803
vt 0.643716 0.590551
vt 0.643716 0.795276
vt 0.643716 0.795276
vt 0.612220 0.716535
vt 0.612220 0.574803
vt 0.643716 0.795276
vt 0.612220 0.574803
vt 0.612220 0.716535
vt 0.147653 0.669291
vt 0.187023 0.716535
vt 0.147653 0.716535
vt 0.147653 0.669291
vt 0.147653 0.716535
vt 0.187023 0.716535
vt 0.187023 0.716535
vt 0.187023 0.669291
vt 0.147653 0.669291
vt 0.187023 0.574803
vt 0.147653 0.669291
vt 0.187023 0.669291
vt 0.187023 0.748031
vt 0.155527 0.811024
vt 0.187023 0.968504
vt 0.084661 0.984252
vt 0.187023 0.968504
vt 0.155527 0.811024
vt 0.155527 0.811024
vt 0.116157 0.811024
vt 0.084661 0.984252
vt 0.494110 0.779528
vt 0.494110 0.716535
vt 0.525606 0.779528
vt 0.494110 0.779528
vt 0.525606 0.779528
vt 0.494110 0.716535
vt 0.494110 0.716535
vt 0.462614 0.779528
vt 0.494110 0.779528
vt 0.147653 0.669291
vt 0.187023 0.716535
vt 0.147653 0.716535
vt 0.147653 0.669291
vt 0.147653 0.716535
vt 0.187023 0.716535
vt 0.187023 0.716535
vt 0.187023 0.669291
vt 0.147653 0.669291
vt 0.840567 0.007874
vt 0.746078 0.196850
vt 0.730330 0.149606
vt 0.840567 0.007874
vt 0.730330 0.149606
vt 0.746078 0.196850
vt 0.746078 0.196850
vt 0.801197 0.228346
vt 0.840567 0.007874
vt 0.864189 0.275591
vt 0.801197 0.228346
vt 0.864189 0.370079
vt 0.856315 0.417323
vt 0.864189 0.370079
vt 0.801197 0.228346
vt 0.801197 0.228346
vt 0.832693 0.464567
vt 0.856315 0.417323
vt 0.187023 0.748031
vt 0.155527 0.811024
vt 0.187023 0.968504
vt 0.084661 0.984252
vt 0.187023 0.968504
vt 0.155527 0.811024
vt 0.155527 0.811024
vt 0.116157 0.811024
vt 0.084661 0.984252
vt 0.187023 0.716535
vt 0.147653 0.669291
vt 0.187023 0.669291
vt 0.187023 0.574803
vt 0.187023 0.669291
vt 0.147653 0.669291
vt 0.147653 0.669291
vt 0.147653 0.574803
vt 0.187023 0.574803
vt 0.816945 0.511811
vt 0.761827 0.496063
vt 0.816945 0.559055
vt 0.683086 0.559055
vt 0.816945 0.559055
vt 0.761827 0.496063
vt 0.761827 0.496063
vt 0.730330 0.433071
vt 0.683086 0.559055
vt 0.840567 0.007874
vt 0.746078 0.196850
vt 0.730330 0.149606
vt 0.840567 0.007874
vt 0.730330 0.149606
vt 0.746078 0.196850
vt 0.746078 0.196850
vt 0.801197 0.228346
vt 0.840567 0.007874
vt 0.864189 0.275591
vt 0.801197 0.228346
vt 0.864189 0.370079
vt 0.856315 0.417323
vt 0.864189 0.370079
vt 0.801197 0.228346
vt 0.801197 0.228346
vt 0.832693 0.464567
vt 0.856315 0.417323
vt 0.533480 0.039370
vt 0.525606 0.102362
vt 0.572850 0.118110
vt 0.525606 0.102362
vt 0.533480 0.039370
vt 0.572850 0.118110
vt 0.045291 0.448819
vt 0.194897 0.527559
vt 0.643716 0.417323
vt 0.194897 0.527559
vt 0.045291 0.448819
vt 0.643716 0.417323
vt 0.092535 0.669291
vt 0.131905 0.606299
vt 0.084661 0.511811
vt 0.131905 0.606299
vt 0.092535 0.669291
vt 0.084661 0.511811
vt 0.053165 0.669291
vt 0.092535 0.669291
vt 0.084661 0.511811
vt 0.092535 0.669291
vt 0.053165 0.669291
vt 0.084661 0.511811
vt 0.683086 0.370079
vt 0.651590 0.307087
vt 0.753953 0.338583
vt 0.651590 0.307087
vt 0.683086 0.370079
vt 0.753953 0.338583
vt 0.131905 0.779528
vt 0.131905 0.606299
vt 0.092535 0.669291
vt 0.131905 0.606299
vt 0.131905 0.779528
vt 0.092535 0.669291
vt 0.037417 0.748031
vt 0.005921 0.685039
vt 0.053165 0.669291
vt 0.005921 0.685039
vt 0.037417 0.748031
vt 0.053165 0.669291
vt 0.037417 0.748031
vt 0.005921 0.685039
vt 0.053165 0.669291
vt 0.005921 0.685039
vt 0.037417 0.748031
vt 0.053165 0.669291
vt 0.084661 0.511811
vt 0.005921 0.496063
vt 0.053165 0.669291
vt 0.005921 0.496063
vt 0.084661 0.511811
vt 0.053165 0.669291
vt 0.730330 0.433071
vt 0.683086 0.370079
vt 0.753953 0.338583
vt 0.667338 0.448819
vt 0.683086 0.370079
vt 0.730330 0.433071
vt 0.005921 0.496063
vt 0.005921 0.685039
vt 0.053165 0.669291
vt 0.005921 0.685039
vt 0.005921 0.496063
vt 0.053165 0.669291
vt 0.509858 0.653543
vt 0.596472 0.669291
vt 0.541354 0.748031
vt 0.596472 0.669291
vt 0.509858 0.653543
vt 0.541354 0.748031
vt 0.919307 0.984252
vt 0.950803 0.606299
vt 0.958677 0.937008
vt 0.950803 0.606299
vt 0.998047 0.858268
vt 0.958677 0.937008
vt 0.454740 0.259843
vt 0.470488 0.102362
vt 0.596472 0.291339
vt 0.470488 0.102362
vt 0.454740 0.259843
vt 0.596472 0.291339
vt 0.092535 0.669291
vt 0.053165 0.669291
vt 0.084661 0.511811
vt 0.053165 0.669291
vt 0.092535 0.669291
vt 0.084661 0.511811
vt 0.683086 0.370079
vt 0.667338 0.448819
vt 0.730330 0.433071
vt 0.667338 0.448819
vt 0.683086 0.370079
vt 0.730330 0.433071
vt 0.541354 0.527559
vt 0.643716 0.417323
vt 0.194897 0.527559
vt 0.643716 0.417323
vt 0.541354 0.527559
vt 0.194897 0.527559
vt 0.801197 0.905512
vt 0.950803 0.606299
vt 0.722456 0.622047
vt 0.722456 0.622047
vt 0.627968 0.968504
vt 0.801197 0.905512
vt 0.509858 0.653543
vt 0.194897 0.527559
vt 0.226393 0.653543
vt 0.194897 0.527559
vt 0.509858 0.653543
vt 0.226393 0.653543
vt 0.005921 0.496063
vt 0.084661 0.511811
vt 0.053165 0.669291
vt 0.084661 0.511811
vt 0.005921 0.496063
vt 0.053165 0.669291
vt 0.092535 0.669291
vt 0.131905 0.606299
vt 0.084661 0.511811
vt 0.131905 0.606299
vt 0.092535 0.669291
vt 0.084661 0.511811
vt 0.564976 0.937008
vt 0.541354 0.748031
vt 0.596472 0.669291
vt 0.541354 0.748031
vt 0.564976 0.937008
vt 0.596472 0.669291
vt 0.596472 0.669291
vt 0.509858 0.653543
vt 0.541354 0.527559
vt 0.509858 0.653543
vt 0.596472 0.669291
vt 0.541354 0.527559
vt 0.131905 0.779528
vt 0.131905 0.606299
vt 0.092535 0.669291
vt 0.131905 0.606299
vt 0.131905 0.779528
vt 0.092535 0.669291
vt 0.596472 0.669291
vt 0.541354 0.527559
vt 0.509858 0.653543
vt 0.541354 0.527559
vt 0.596472 0.669291
vt 0.509858 0.653543
vt 0.714582 0.181102
vt 0.651590 0.307087
vt 0.753953 0.338583
vt 0.651590 0.307087
vt 0.714582 0.181102
vt 0.753953 0.338583
vt 0.005921 0.685039
vt 0.005921 0.496063
vt 0.053165 0.669291
vt 0.005921 0.496063
vt 0.005921 0.685039
vt 0.053165 0.669291
vt 0.005921 0.007874
vt 0.045291 0.448819
vt 0.643716 0.417323
vt 0.045291 0.448819
vt 0.005921 0.007874
vt 0.643716 0.417323
vt 0.525606 0.102362
vt 0.470488 0.102362
vt 0.596472 0.291339
vt 0.470488 0.102362
vt 0.525606 0.102362
vt 0.596472 0.291339
vt 0.509858 0.653543
vt 0.541354 0.748031
vt 0.596472 0.669291
vt 0.541354 0.748031
vt 0.509858 0.653543
vt 0.596472 0.669291
vt 0.305134 0.748031
vt 0.305134 0.811024
vt 0.368126 0.811024
vt 0.305134 0.811024
vt 0.305134 0.748031
vt 0.368126 0.811024
vt 0.305134 0.748031
vt 0.509858 0.653543
vt 0.226393 0.653543
vt 0.509858 0.653543
vt 0.305134 0.748031
vt 0.226393 0.653543
vt 0.431118 0.748031
vt 0.368126 0.811024
vt 0.431118 0.811024
vt 0.368126 0.811024
vt 0.431118 0.748031
vt 0.431118 0.811024
vt 0.564976 0.937008
vt 0.596472 0.669291
vt 0.541354 0.748031
vt 0.596472 0.669291
vt 0.564976 0.937008
vt 0.541354 0.748031
vt 0.714582 0.181102
vt 0.572850 0.118110
vt 0.596472 0.291339
vt 0.572850 0.118110
vt 0.714582 0.181102
vt 0.596472 0.291339
vt 0.431118 0.748031
vt 0.509858 0.653543
vt 0.305134 0.748031
vt 0.509858 0.653543
vt 0.431118 0.748031
vt 0.305134 0.748031
vt 0.683086 0.370079
vt 0.730330 0.433071
vt 0.753953 0.338583
vt 0.683086 0.370079
vt 0.667338 0.448819
vt 0.730330 0.433071
vt 0.533480 0.039370
vt 0.525606 0.102362
vt 0.572850 0.118110
vt 0.525606 0.102362
vt 0.533480 0.039370
vt 0.572850 0.118110
vt 0.596472 0.338583
vt 0.596472 0.291339
vt 0.651590 0.307087
vt 0.596472 0.291339
vt 0.596472 0.338583
vt 0.651590 0.307087
vt 0.683086 0.370079
vt 0.730330 0.433071
vt 0.753953 0.338583
vt 0.730330 0.433071
vt 0.683086 0.370079
vt 0.753953 0.338583
vt 0.651590 0.307087
vt 0.683086 0.370079
vt 0.753953 0.338583
vt 0.683086 0.370079
vt 0.651590 0.307087
vt 0.753953 0.338583
vt 0.525606 0.102362
vt 0.470488 0.102362
vt 0.596472 0.291339
vt 0.470488 0.102362
vt 0.525606 0.102362
vt 0.596472 0.291339
vt 0.714582 0.181102
vt 0.651590 0.307087
vt 0.753953 0.338583
vt 0.651590 0.307087
vt 0.714582 0.181102
vt 0.753953 0.338583
vt 0.470488 0.102362
vt 0.454740 0.259843
vt 0.596472 0.291339
vt 0.454740 0.259843
vt 0.470488 0.102362
vt 0.596472 0.291339
vt 0.596472 0.291339
vt 0.596472 0.338583
vt 0.651590 0.307087
vt 0.596472 0.338583
vt 0.596472 0.291339
vt 0.651590 0.307087
vt 0.714582 0.181102
vt 0.572850 0.118110
vt 0.596472 0.291339
vt 0.572850 0.118110
vt 0.714582 0.181102
vt 0.596472 0.291339
vt 0.509858 0.653543
vt 0.541354 0.527559
vt 0.194897 0.527559
vt 0.273638 0.086614
vt 0.336630 0.007874
vt 0.218519 0.055118
vt 0.596472 0.291339
vt 0.714582 0.181102
vt 0.651590 0.307087
vt 0.572850 0.118110
vt 0.596472 0.291339
vt 0.525606 0.102362
vt 0.714582 0.181102
vt 0.596472 0.291339
vt 0.651590 0.307087
vt 0.336630 0.007874
vt 0.273638 0.086614
vt 0.218519 0.055118
vt 0.714582 0.181102
vt 0.596472 0.291339
vt 0.651590 0.307087
vt 0.596472 0.291339
vt 0.572850 0.118110
vt 0.525606 0.102362
vt 0.596472 0.291339
vt 0.714582 0.181102
vt 0.651590 0.307087
vt 0.596472 0.291339
vt 0.572850 0.118110
vt 0.525606 0.102362
vt 0.572850 0.118110
vt 0.596472 0.291339
vt 0.525606 0.102362
vt 0.431118 0.748031
vt 0.305134 0.748031
vt 0.368126 0.811024
vt 0.541354 0.527559
vt 0.509858 0.653543
vt 0.194897 0.527559
vt 0.305134 0.748031
vt 0.431118 0.748031
vt 0.368126 0.811024
vt 0.958677 0.937008
vt 0.998047 0.858268
vt 0.982299 0.968504
vt 0.958677 0.937008
vt 0.982299 0.968504
vt 0.998047 0.858268
vt 0.998047 0.858268
vt 0.950803 0.606299
vt 0.958677 0.937008
vt 0.919307 0.984252
vt 0.958677 0.937008
vt 0.950803 0.606299
vt 0.950803 0.606299
vt 0.801197 0.905512
vt 0.919307 0.984252
vt 0.368126 0.133858
vt 0.407496 0.055118
vt 0.391748 0.165354
vt 0.368126 0.133858
vt 0.391748 0.165354
vt 0.407496 0.055118
vt 0.407496 0.055118
vt 0.336630 0.007874
vt 0.368126 0.133858
vt 0.336630 0.181102
vt 0.368126 0.133858
vt 0.336630 0.007874
vt 0.336630 0.007874
vt 0.273638 0.086614
vt 0.336630 0.181102
vt 0.919307 0.984252
vt 0.801197 0.905512
vt 0.950803 0.606299
vt 0.722456 0.622047
vt 0.950803 0.606299
vt 0.801197 0.905512
vt 0.801197 0.905512
vt 0.627968 0.968504
vt 0.722456 0.622047
vt 0.273638 0.086614
vt 0.336630 0.007874
vt 0.336630 0.181102
vt 0.368126 0.133858
vt 0.336630 0.181102
vt 0.336630 0.007874
vt 0.336630 0.007874
vt 0.407496 0.055118
vt 0.368126 0.133858
vn -0.7624 -0.1527 0.6289
vn -0.8585 0.4358 0.2701
vn -0.8552 -0.5160 -0.0500
vn -0.7065 0.6178 0.3452
vn 0.7021 0.1188 0.7021
vn -1.0000 -0.0000 -0.0000
vn 1.0000 0.0000 0.0000
vn 0.6939 -0.1898 0.6946
vn 0.6943 -0.1892 0.6943
vn -0.5738 0.5839 0.5744
vn -0.5742 0.5835 0.5743
vn -0.7624 -0.1527 -0.6289
vn -0.8585 0.4358 -0.2701
vn 0.5740 0.5841 -0.5740
vn -0.6942 -0.1899 -0.6942
vn 0.7624 -0.1527 0.6289
vn 0.8585 0.4358 0.2701
vn -0.7021 0.1188 -0.7021
vn 0.8559 -0.5148 0.0495
vn 0.7065 0.6178 -0.3452
vn -0.8848 0.2310 0.4047
vn -0.8954 -0.4083 0.1778
vn -0.8252 0.2263 0.5175
vn 0.0000 0.0001 -1.0000
vn -0.8076 0.2074 0.5521
vn 0.8862 -0.4633 -0.0103
vn 0.9162 -0.2800 0.2867
vn 0.6895 0.2250 -0.6885
vn 0.8076 0.2074 -0.5521
vn 0.0000 0.4226 -0.9063
vn 0.8252 0.2263 -0.5175
vn -0.8862 -0.4633 -0.0103
vn -0.6806 0.2685 -0.6816
vn 0.3234 -0.6942 -0.6431
vn 0.6346 0.4712 -0.6126
vn 0.6806 0.2685 0.6816
vn -0.9162 -0.2800 -0.2867
vn 0.8862 -0.4632 0.0106
vn 0.8954 -0.4083 -0.1778
vn 0.8848 0.2310 -0.4047
vn -0.8862 -0.4632 0.0106
vn -0.6346 0.4712 0.6126
vn -0.9162 -0.2800 0.2867
vn -0.8139 -0.5672 -0.1256
vn 0.8139 -0.5672 -0.1256
vn 0.8252 0.2263 0.5175
vn 0.8802 -0.1049 0.4629
vn -0.8802 -0.1049 0.4629
vn -0.9113 0.0007 0.4118
vn -0.9113 0.0007 -0.4118
vn -0.8896 -0.4139 -0.1933
vn -0.8954 -0.4083 -0.1778
vn -0.8901 -0.3949 0.2274
vn 0.8901 -0.3949 0.2274
vn 0.7713 -0.4261 0.4728
vn 0.6786 0.4918 -0.5456
vn 0.6772 0.3684 -0.6369
vn -0.6772 0.3684 -0.6369
vn -0.9220 -0.0043 -0.3871
vn -0.6093 0.0088 0.7929
vn -0.7181 0.1452 0.6807
vn 0.7181 0.1452 0.6807
vn 0.6346 0.4712 0.6126
vn 0.8995 -0.4297 0.0795
vn -0.8995 -0.4297 0.0795
vn 0.9162 -0.2800 -0.2867
vn 0.8139 -0.5672 0.1256
vn -0.8139 -0.5672 0.1256
vn -0.8252 0.2263 -0.5175
vn -0.8802 -0.1049 -0.4629
vn 0.8802 -0.1049 -0.4629
vn 0.9113 0.0007 -0.4118
vn 0.9113 0.0007 0.4118
vn 0.8896 -0.4139 0.1933
vn 0.8954 -0.4083 0.1778
vn 0.8901 -0.3949 -0.2274
vn -0.8901 -0.3949 -0.2274
vn -0.7713 -0.4261 -0.4728
vn -0.6786 0.4918 0.5456
vn -0.6772 0.3684 0.6369
vn 0.6772 0.3684 0.6369
vn 0.9220 -0.0043 0.3871
vn 0.6093 0.0088 -0.7929
vn 0.7181 0.1452 -0.6807
vn -0.7181 0.1452 -0.6807
vn -0.6346 0.4712 -0.6126
vn -0.8995 -0.4296 -0.0796
vn 0.8995 -0.4296 -0.0796
vn 0.8552 -0.5160 -0.0500
vn 0.7065 0.6178 0.3452
vn 0.9139 0.2642 0.3081
vn -0.9139 0.2642 0.3081
vn -0.9220 -0.0043 0.3871
vn -0.6093 0.0088 -0.7929
vn -0.7103 -0.6353 0.3032
vn 0.7103 -0.6353 0.3032
vn 0.6806 0.2685 -0.6816
vn 0.8455 -0.1370 -0.5162
vn -0.8455 -0.1370 -0.5162
vn -0.8559 -0.5148 0.0495
vn -0.7065 0.6178 -0.3452
vn -0.9139 0.2642 -0.3081
vn 0.9139 0.2642 -0.3081
vn 0.9220 -0.0043 -0.3871
vn 0.6093 0.0088 0.7929
vn 0.7103 -0.6353 -0.3032
vn -0.7103 -0.6353 -0.3032
vn -0.6806 0.2685 0.6816
vn -0.8455 -0.1370 0.5162
vn 0.8455 -0.1370 0.5162
vn 0.7021 0.1188 -0.7021
vn 0.7021 -0.1189 -0.7021
vn 0.7021 -0.1189 0.7021
vn -0.7021 -0.1189 0.7021
vn -0.6097 0.5065 0.6097
vn -0.6097 0.5065 -0.6097
vn 0.6097 0.5065 -0.6097
vn 0.7124 -0.1869 0.6764
vn 0.7062 -0.4439 0.5515
vn 0.7889 0.2885 0.5426
vn -0.7889 0.2885 0.5426
vn -0.6240 -0.0002 0.7814
vn -0.6249 -0.0001 0.7807
vn -0.7513 -0.3002 0.5877
vn -0.8072 0.2072 0.5527
vn 0.8072 0.2072 0.5527
vn 0.8076 0.2074 0.5521
vn 0.6114 -0.5024 0.6114
vn 0.6117 -0.5027 -0.6108
vn 0.6110 -0.5033 -0.6110
vn -0.6110 -0.5033 -0.6110
vn -0.7071 0.0047 -0.7071
vn -0.7071 0.0047 0.7071
vn 0.7071 0.0047 0.7071
vn 0.5742 0.5835 0.5742
vn 0.5738 0.5839 0.5744
vn 0.6097 0.5065 0.6097
vn -0.7021 -0.1189 -0.7021
vn -0.7021 0.1188 0.7021
vn -0.7124 -0.1869 -0.6764
vn -0.7062 -0.4439 -0.5515
vn -0.7889 0.2885 -0.5426
vn 0.7889 0.2885 -0.5426
vn 0.6239 -0.0004 -0.7815
vn 0.6256 -0.0001 -0.7802
vn 0.7515 -0.2995 -0.5878
vn 0.8072 0.2072 -0.5527
vn -0.8072 0.2072 -0.5527
vn -0.8076 0.2074 -0.5521
vn -0.6117 -0.5027 -0.6108
vn -0.6114 -0.5024 0.6114
vn 0.7071 0.0047 -0.7071
vn -0.5740 0.5841 -0.5740
vn -0.8896 -0.4139 0.1933
vn -0.9148 0.3885 -0.1103
vn -0.8748 0.4567 0.1618
vn 0.8748 0.4567 0.1618
vn 0.8848 0.2310 0.4047
vn 0.8377 0.4283 0.3388
vn -0.8377 0.4283 0.3388
vn -0.9657 -0.2024 0.1629
vn -0.3234 -0.6942 -0.6431
vn -0.4630 -0.1756 -0.8688
vn -0.6976 -0.0455 -0.7150
vn -0.9240 -0.2063 -0.3220
vn -0.8068 0.1083 -0.5808
vn 0.8068 0.1083 -0.5808
vn 0.7624 -0.1527 -0.6289
vn 0.8585 0.4358 -0.2701
vn 0.8896 -0.4139 -0.1933
vn 0.9148 0.3885 0.1103
vn 0.8748 0.4567 -0.1618
vn -0.8748 0.4567 -0.1618
vn -0.8848 0.2310 -0.4047
vn -0.8377 0.4283 -0.3388
vn 0.8377 0.4283 -0.3388
vn 0.9657 -0.2024 -0.1629
vn -0.7071 -0.0000 0.7071
vn -0.7071 -0.0000 -0.7071
vn 0.7071 0.0000 -0.7071
vn 0.6942 -0.1899 -0.6942
vn -0.6939 -0.1898 0.6946
vn -0.6943 -0.1892 0.6943
vn 0.7071 0.0000 0.7071
vn -0.8068 0.1083 0.5808
vn -0.9240 -0.2063 0.3220
vn -0.6976 -0.0455 0.7150
vn -0.4630 -0.1756 0.8688
vn -0.3234 -0.6942 0.6431
vn 0.3234 -0.6942 0.6431
vn 0.4630 -0.1756 0.8688
vn 0.6976 -0.0455 0.7150
vn 0.9240 -0.2063 0.3220
vn 0.8068 0.1083 0.5808
vn 0.6097 -0.5064 0.6097
vn 0.6097 -0.5064 -0.6097
vn -0.6097 -0.5064 -0.6097
vn 0.7097 0.0000 -0.7045
vn -0.7097 -0.0000 -0.7045
vn -0.7097 -0.0000 0.7045
vn -0.6097 -0.5064 0.6097
vn 0.9633 -0.1135 0.2434
vn 0.9633 -0.1135 -0.2434
vn 0.7124 -0.1869 -0.6764
vn 0.7062 -0.4439 -0.5515
vn -0.7062 -0.4439 0.5515
vn -0.7124 -0.1869 0.6764
vn -0.9633 -0.1135 0.2434
vn -0.9633 -0.1135 -0.2434
vn 0.7097 0.0000 0.7045
vn -0.0000 -0.3517 0.9361
vn 0.0000 -0.3517 -0.9361
vn 0.7513 -0.3002 0.5877
vn 0.6249 -0.0001 0.7807
vn 0.6240 -0.0002 0.7814
vn 0.6890 0.2248 0.6890
vn -0.6890 0.2248 0.6890
vn -0.6895 0.2250 -0.6885
vn -0.0000 0.4226 0.9063
vn -0.9719 0.2059 0.1142
vn 0.9719 0.2059 0.1142
vn 0.9148 0.3885 -0.1103
vn -0.7713 -0.4261 0.4728
vn -0.6786 0.4918 -0.5456
vn -0.9657 -0.2024 -0.1629
vn -0.7515 -0.2995 -0.5878
vn -0.6256 -0.0001 -0.7802
vn -0.6239 -0.0004 -0.7815
vn -0.0000 0.0001 1.0000
vn 0.4630 -0.1756 -0.8688
vn 0.6976 -0.0455 -0.7150
vn 0.9240 -0.2063 -0.3220
vn 0.9719 0.2059 -0.1142
vn -0.9719 0.2059 -0.1142
vn -0.9148 0.3885 0.1103
vn 0.7713 -0.4261 -0.4728
vn 0.6786 0.4918 0.5456
vn 0.9657 -0.2024 0.1629
vn -0.9420 0.1758 -0.2860
vn 0.9420 -0.1758 0.2860
vn -0.9167 0.2165 -0.3358
vn 0.9167 -0.2165 0.3358
vn -0.9701 0.2174 -0.1082
vn 0.9701 -0.2174 0.1082
vn -0.9701 -0.2172 -0.1084
vn 0.9701 0.2172 0.1084
vn -0.9420 -0.1757 -0.2861
vn 0.9420 0.1757 0.2861
vn -0.9168 -0.2161 -0.3357
vn 0.9168 0.2161 0.3357
o base
usemtl Brush.057
f 1/1/1 2/2/1 3/3/1
f 4/4/2 5/5/2 6/6/2
f 7/7/3 8/8/3 9/9/3
f 10/10/4 11/11/4 12/12/4
f 13/13/5 14/14/5 15/15/5
f 16/16/5 17/17/5 18/18/5
f 19/19/6 20/20/6 21/21/6
f 22/22/7 23/23/7 24/24/7
f 25/25/6 26/26/6 27/27/6
f 28/28/7 29/29/7 30/30/7
f 31/31/8 32/32/8 33/33/8
f 34/34/9 35/35/9 36/36/9
f 37/37/10 38/38/10 39/39/10
f 40/40/11 41/41/11 42/42/11
f 43/43/12 44/44/12 45/45/12
f 46/46/13 47/47/13 48/48/13
f 49/49/7 50/50/7 51/51/7
f 52/52/6 53/53/6 54/54/6
f 55/55/7 56/56/7 57/57/7
f 58/58/6 59/59/6 60/60/6
f 61/61/14 62/62/14 63/63/14
f 64/64/14 65/65/14 66/66/14
f 67/67/15 68/68/15 69/69/15
f 70/70/15 71/71/15 72/72/15
f 73/73/16 74/74/16 75/75/16
f 76/76/17 77/77/17 78/78/17
f 79/79/18 80/80/18 81/81/18
f 82/82/18 83/83/18 84/84/18
f 85/85/7 86/86/7 87/87/7
f 88/88/6 89/89/6 90/90/6
f 91/91/19 92/92/19 93/93/19
f 94/94/20 95/95/20 96/96/20
f 97/97/6 98/98/6 99/99/6
f 100/100/7 101/101/7 102/102/7
f 103/103/21 104/104/21 105/105/21
f 106/106/22 107/107/22 108/108/22
f 109/109/23 110/110/23 111/111/23
f 112/112/24 113/113/24 114/114/24
f 115/115/25 116/116/25 117/117/25
f 118/118/26 119/119/26 120/120/26
f 121/121/27 122/122/27 123/123/27
f 124/124/28 125/125/28 126/126/28
f 127/127/29 128/128/29 129/129/29
f 130/130/30 131/131/30 132/132/30
f 133/133/31 134/134/31 135/135/31
f 136/136/32 137/137/32 138/138/32
f 139/139/33 140/140/33 141/141/33
f 142/142/34 143/143/34 144/144/34
f 145/145/35 146/146/35 147/147/35
f 148/148/36 149/149/36 150/150/36
f 151/151/37 152/152/37 153/153/37
f 154/154/38 155/155/38 156/156/38
f 157/157/39 158/158/39 159/159/39
f 160/160/40 161/161/40 162/162/40
f 163/163/41 164/164/41 165/165/41
f 166/166/42 167/167/42 168/168/42
f 169/169/43 170/170/43 171/171/43
f 172/172/44 173/173/44 174/174/44
f 175/175/45 176/176/45 177/177/45
f 178/178/46 179/179/46 180/180/46
f 181/181/47 182/182/47 183/183/47
f 184/184/48 185/185/48 186/186/48
f 187/187/49 188/188/49 189/189/49
f 190/190/50 191/191/50 192/192/50
f 193/193/51 194/194/51 195/195/51
f 196/196/52 197/197/52 198/198/52
f 199/199/53 200/200/53 201/201/53
f 202/202/54 203/203/54 204/204/54
f 205/205/55 206/206/55 207/207/55
f 208/208/56 209/209/56 210/210/56
f 211/211/57 212/212/57 213/213/57
f 214/214/58 215/215/58 216/216/58
f 217/217/59 218/218/59 219/219/59
f 220/220/60 221/221/60 222/222/60
f 223/223/61 224/224/61 225/225/61
f 226/226/62 227/227/62 228/228/62
f 229/229/63 230/230/63 231/231/63
f 232/232/64 233/233/64 234/234/64
f 235/235/65 236/236/65 237/237/65
f 238/238/66 239/239/66 240/240/66
f 241/241/67 242/242/67 243/243/67
f 244/244/68 245/245/68 246/246/68
f 247/247/69 248/248/69 249/249/69
f 250/250/70 251/251/70 252/252/70
f 253/253/71 254/254/71 255/255/71
f 256/256/72 257/257/72 258/258/72
f 259/259/73 260/260/73 261/261/73
f 262/262/74 263/263/74 264/264/74
f 265/265/75 266/266/75 267/267/75
f 268/268/76 269/269/76 270/270/76
f 271/271/77 272/272/77 273/273/77
f 274/274/78 275/275/78 276/276/78
f 277/277/79 278/278/79 279/279/79
f 280/280/80 281/281/80 282/282/80
f 283/283/81 284/284/81 285/285/81
f 286/286/82 287/287/82 288/288/82
f 289/289/83 290/290/83 291/291/83
f 292/292/84 293/293/84 294/294/84
f 295/295/85 296/296/85 297/297/85
f 298/298/86 299/299/86 300/300/86
f 301/301/87 302/302/87 303/303/87
f 304/304/88 305/305/88 306/306/88
f 307/307/89 308/308/89 309/309/89
f 310/310/90 311/311/90 312/312/90
f 313/313/91 314/314/91 315/315/91
f 316/316/92 317/317/92 318/318/92
f 319/319/93 320/320/93 321/321/93
f 322/322/94 323/323/94 324/324/94
f 325/325/95 326/326/95 327/327/95
f 328/328/96 329/329/96 330/330/96
f 331/331/97 332/332/97 333/333/97
f 334/334/98 335/335/98 336/336/98
f 337/337/99 338/338/99 339/339/99
f 340/340/100 341/341/100 342/342/100
f 343/343/101 344/344/101 345/345/101
f 346/346/102 347/347/102 348/348/102
f 349/349/103 350/350/103 351/351/103
f 352/352/104 353/353/104 354/354/104
f 355/355/105 356/356/105 357/357/105
f 358/358/106 359/359/106 360/360/106
f 361/361/107 362/362/107 363/363/107
f 364/364/108 365/365/108 366/366/108
f 367/367/109 368/368/109 369/369/109
f 370/370/110 371/371/110 372/372/110
f 373/373/111 374/374/111 375/375/111
f 376/376/111 377/377/111 378/378/111
f 379/379/112 380/380/112 381/381/112
f 382/382/113 383/383/113 384/384/113
f 385/385/113 386/386/113 387/387/113
f 388/388/114 389/389/114 390/390/114
f 391/391/115 392/392/115 393/393/115
f 394/394/116 395/395/116 396/396/116
f 397/397/116 398/398/116 399/399/116
f 400/400/117 401/401/117 402/402/117
f 403/403/118 404/404/118 405/405/118
f 406/406/119 407/407/119 408/408/119
f 409/409/120 410/410/120 411/411/120
f 412/412/121 413/413/121 414/414/121
f 415/415/122 416/416/122 417/417/122
f 418/418/123 419/419/123 420/420/123
f 421/421/124 422/422/124 423/423/124
f 424/424/125 425/425/125 426/426/125
f 427/427/126 428/428/126 429/429/126
f 430/430/127 431/431/127 432/432/127
f 433/433/128 434/434/128 435/435/128
f 436/436/129 437/437/129 438/438/129
f 439/439/130 440/440/130 441/441/130
f 442/442/131 443/443/131 444/444/131
f 445/445/132 446/446/132 447/447/132
f 448/448/133 449/449/133 450/450/133
f 451/451/133 452/452/133 453/453/133
f 454/454/134 455/455/134 456/456/134
f 457/457/135 458/458/135 459/459/135
f 460/460/136 461/461/136 462/462/136
f 463/463/115 464/464/115 465/465/115
f 466/466/137 467/467/137 468/468/137
f 469/469/137 470/470/137 471/471/137
f 472/472/117 473/473/117 474/474/117
f 475/475/112 476/476/112 477/477/112
f 478/478/138 479/479/138 480/480/138
f 481/481/138 482/482/138 483/483/138
f 484/484/114 485/485/114 486/486/114
f 487/487/139 488/488/139 489/489/139
f 490/490/139 491/491/139 492/492/139
f 493/493/140 494/494/140 495/495/140
f 496/496/141 497/497/141 498/498/141
f 499/499/142 500/500/142 501/501/142
f 502/502/143 503/503/143 504/504/143
f 505/505/144 506/506/144 507/507/144
f 508/508/145 509/509/145 510/510/145
f 511/511/146 512/512/146 513/513/146
f 514/514/147 515/515/147 516/516/147
f 517/517/148 518/518/148 519/519/148
f 520/520/149 521/521/149 522/522/149
f 523/523/150 524/524/150 525/525/150
f 526/526/151 527/527/151 528/528/151
f 529/529/151 530/530/151 531/531/151
f 532/532/128 533/533/128 534/534/128
f 535/535/134 536/536/134 537/537/134
f 538/538/152 539/539/152 540/540/152
f 541/541/152 542/542/152 543/543/152
f 544/544/132 545/545/132 546/546/132
f 547/547/153 548/548/153 549/549/153
f 550/550/153 551/551/153 552/552/153
f 553/553/154 554/554/154 555/555/154
f 556/556/155 557/557/155 558/558/155
f 559/559/156 560/560/156 561/561/156
f 562/562/157 563/563/157 564/564/157
f 565/565/158 566/566/158 567/567/158
f 568/568/159 569/569/159 570/570/159
f 571/571/160 572/572/160 573/573/160
f 574/574/161 575/575/161 576/576/161
f 577/577/162 578/578/162 579/579/162
f 580/580/163 581/581/163 582/582/163
f 583/583/164 584/584/164 585/585/164
f 586/586/165 587/587/165 588/588/165
f 589/589/166 590/590/166 591/591/166
f 592/592/167 593/593/167 594/594/167
f 595/595/168 596/596/168 597/597/168
f 598/598/169 599/599/169 600/600/169
f 601/601/170 602/602/170 603/603/170
f 604/604/171 605/605/171 606/606/171
f 607/607/172 608/608/172 609/609/172
f 610/610/173 611/611/173 612/612/173
f 613/613/174 614/614/174 615/615/174
f 616/616/175 617/617/175 618/618/175
f 619/619/176 620/620/176 621/621/176
f 622/622/177 623/623/177 624/624/177
f 625/625/178 626/626/178 627/627/178
f 628/628/179 629/629/179 630/630/179
f 631/631/179 632/632/179 633/633/179
f 634/634/180 635/635/180 636/636/180
f 637/637/181 638/638/181 639/639/181
f 640/640/181 641/641/181 642/642/181
f 643/643/182 644/644/182 645/645/182
f 646/646/183 647/647/183 648/648/183
f 649/649/178 650/650/178 651/651/178
f 652/652/184 653/653/184 654/654/184
f 655/655/184 656/656/184 657/657/184
f 658/658/180 659/659/180 660/660/180
f 661/661/185 662/662/185 663/663/185
f 664/664/186 665/665/186 666/666/186
f 667/667/187 668/668/187 669/669/187
f 670/670/188 671/671/188 672/672/188
f 673/673/189 674/674/189 675/675/189
f 676/676/190 677/677/190 678/678/190
f 679/679/191 680/680/191 681/681/191
f 682/682/192 683/683/192 684/684/192
f 685/685/193 686/686/193 687/687/193
f 688/688/194 689/689/194 690/690/194
f 691/691/180 692/692/180 693/693/180
f 694/694/179 695/695/179 696/696/179
f 697/697/179 698/698/179 699/699/179
f 700/700/178 701/701/178 702/702/178
f 703/703/195 704/704/195 705/705/195
f 706/706/196 707/707/196 708/708/196
f 709/709/196 710/710/196 711/711/196
f 712/712/197 713/713/197 714/714/197
f 715/715/198 716/716/198 717/717/198
f 718/718/199 719/719/199 720/720/199
f 721/721/199 722/722/199 723/723/199
f 724/724/200 725/725/200 726/726/200
f 727/727/195 728/728/195 729/729/195
f 730/730/201 731/731/201 732/732/201
f 733/733/201 734/734/201 735/735/201
f 736/736/197 737/737/197 738/738/197
f 739/739/202 740/740/202 741/741/202
f 742/742/203 743/743/203 744/744/203
f 745/745/204 746/746/204 747/747/204
f 748/748/205 749/749/205 750/750/205
f 751/751/206 752/752/206 753/753/206
f 754/754/207 755/755/207 756/756/207
f 757/757/208 758/758/208 759/759/208
f 760/760/209 761/761/209 762/762/209
f 763/763/178 764/764/178 765/765/178
f 766/766/184 767/767/184 768/768/184
f 769/769/184 770/770/184 771/771/184
f 772/772/180 773/773/180 774/774/180
f 775/775/198 776/776/198 777/777/198
f 778/778/210 779/779/210 780/780/210
f 781/781/210 782/782/210 783/783/210
f 784/784/200 785/785/200 786/786/200
f 787/787/211 788/788/211 789/789/211
f 790/790/212 791/791/212 792/792/212
f 793/793/212 794/794/212 795/795/212
f 796/796/24 797/797/24 798/798/24
f 799/799/213 800/800/213 801/801/213
f 802/802/214 803/803/214 804/804/214
f 805/805/215 806/806/215 807/807/215
f 808/808/216 809/809/216 810/810/216
f 811/811/217 812/812/217 813/813/217
f 814/814/218 815/815/218 816/816/218
f 817/817/30 818/818/30 819/819/30
f 820/820/219 821/821/219 822/822/219
f 823/823/219 824/824/219 825/825/219
f 826/826/220 827/827/220 828/828/220
f 829/829/221 830/830/221 831/831/221
f 832/832/222 833/833/222 834/834/222
f 835/835/223 836/836/223 837/837/223
f 838/838/224 839/839/224 840/840/224
f 841/841/225 842/842/225 843/843/225
f 844/844/226 845/845/226 846/846/226
f 847/847/227 848/848/227 849/849/227
f 850/850/228 851/851/228 852/852/228
f 853/853/211 854/854/211 855/855/211
f 856/856/229 857/857/229 858/858/229
f 859/859/229 860/860/229 861/861/229
f 862/862/230 863/863/230 864/864/230
f 865/865/231 866/866/231 867/867/231
f 868/868/232 869/869/232 870/870/232
f 871/871/233 872/872/233 873/873/233
f 874/874/234 875/875/234 876/876/234
f 877/877/235 878/878/235 879/879/235
f 880/880/236 881/881/236 882/882/236
f 883/883/237 884/884/237 885/885/237
f 886/886/238 887/887/238 888/888/238
f 889/889/7 890/890/7 891/891/7
f 892/892/6 893/893/6 894/894/6
f 895/895/6 896/896/6 897/897/6
f 898/898/7 899/899/7 900/900/7
f 901/901/6 902/902/6 903/903/6
f 904/904/7 905/905/7 906/906/7
f 907/907/6 908/908/6 909/909/6
f 910/910/7 911/911/7 912/912/7
f 913/913/7 914/914/7 915/915/7
f 916/916/6 917/917/6 918/918/6
f 919/919/6 920/920/6 921/921/6
f 922/922/7 923/923/7 924/924/7
f 925/925/7 926/926/7 927/927/7
f 928/928/6 929/929/6 930/930/6
f 931/931/6 932/932/6 933/933/6
f 934/934/7 935/935/7 936/936/7
f 937/937/7 938/938/7 939/939/7
f 940/940/6 941/941/6 942/942/6
f 943/943/7 944/944/7 945/945/7
f 946/946/7 947/947/7 948/948/7
f 949/949/7 950/950/7 951/951/7
f 952/952/6 953/953/6 954/954/6
f 955/955/239 956/956/239 957/957/239
f 958/958/240 959/959/240 960/960/240
f 961/961/6 962/962/6 963/963/6
f 964/964/6 965/965/6 966/966/6
f 967/967/7 968/968/7 969/969/7
f 970/970/6 971/971/6 972/972/6
f 973/973/6 974/974/6 975/975/6
f 976/976/7 977/977/7 978/978/7
f 979/979/7 980/980/7 981/981/7
f 982/982/6 983/983/6 984/984/6
f 985/985/6 986/986/6 987/987/6
f 988/988/7 989/989/7 990/990/7
f 991/991/7 992/992/7 993/993/7
f 994/994/7 995/995/7 996/996/7
f 997/997/6 998/998/6 999/999/6
f 1000/1000/7 1001/1001/7 1002/1002/7
f 1003/1003/7 1004/1004/7 1005/1005/7
f 1006/1006/6 1007/1007/6 1008/1008/6
f 1009/1009/7 1010/1010/7 1011/1011/7
f 1012/1012/6 1013/1013/6 1014/1014/6
f 1015/1015/241 1016/1016/241 1017/1017/241
f 1018/1018/242 1019/1019/242 1020/1020/242
f 1021/1021/243 1022/1022/243 1023/1023/243
f 1024/1024/244 1025/1025/244 1026/1026/244
f 1027/1027/7 1028/1028/7 1029/1029/7
f 1030/1030/6 1031/1031/6 1032/1032/6
f 1033/1033/245 1034/1034/245 1035/1035/245
f 1036/1036/246 1037/1037/246 1038/1038/246
f 1039/1039/6 1040/1040/6 1041/1041/6
f 1042/1042/7 1043/1043/7 1044/1044/7
f 1045/1045/7 1046/1046/7 1047/1047/7
f 1048/1048/6 1049/1049/6 1050/1050/6
f 1051/1051/6 1052/1052/6 1053/1053/6
f 1054/1054/7 1055/1055/7 1056/1056/7
f 1057/1057/6 1058/1058/6 1059/1059/6
f 1060/1060/7 1061/1061/7 1062/1062/7
f 1063/1063/247 1064/1064/247 1065/1065/247
f 1066/1066/248 1067/1067/248 1068/1068/248
f 1069/1069/6 1070/1070/6 1071/1071/6
f 1072/1072/7 1073/1073/7 1074/1074/7
f 1075/1075/6 1076/1076/6 1077/1077/6
f 1078/1078/7 1079/1079/7 1080/1080/7
f 1081/1081/6 1082/1082/6 1083/1083/6
f 1084/1084/7 1085/1085/7 1086/1086/7
f 1087/1087/249 1088/1088/249 1089/1089/249
f 1090/1090/250 1091/1091/250 1092/1092/250
f 1093/1093/6 1094/1094/6 1095/1095/6
f 1096/1096/7 1097/1097/7 1098/1098/7
f 1099/1099/6 1100/1100/6 1101/1101/6
f 1102/1102/7 1103/1103/7 1104/1104/7
f 1105/1105/6 1106/1106/6 1107/1107/6
f 1108/1108/6 1109/1109/6 1110/1110/6
f 1111/1111/6 1112/1112/6 1113/1113/6
f 1114/1114/7 1115/1115/7 1116/1116/7
f 1117/1117/7 1118/1118/7 1119/1119/7
f 1120/1120/6 1121/1121/6 1122/1122/6
f 1123/1123/7 1124/1124/7 1125/1125/7
f 1126/1126/6 1127/1127/6 1128/1128/6
f 1129/1129/7 1130/1130/7 1131/1131/7
f 1132/1132/6 1133/1133/6 1134/1134/6
f 1135/1135/7 1136/1136/7 1137/1137/7
f 1138/1138/6 1139/1139/6 1140/1140/6
f 1141/1141/7 1142/1142/7 1143/1143/7
f 1144/1144/6 1145/1145/6 1146/1146/6
f 1147/1147/7 1148/1148/7 1149/1149/7
f 1150/1150/6 1151/1151/6 1152/1152/6
f 1153/1153/7 1154/1154/7 1155/1155/7
f 1156/1156/6 1157/1157/6 1158/1158/6
f 1159/1159/7 1160/1160/7 1161/1161/7
f 1162/1162/6 1163/1163/6 1164/1164/6
f 1165/1165/6 1166/1166/6 1167/1167/6
f 1168/1168/6 1169/1169/6 1170/1170/6
f 1171/1171/7 1172/1172/7 1173/1173/7
f 1174/1174/7 1175/1175/7 1176/1176/7
f 1177/1177/7 1178/1178/7 1179/1179/7
f 1180/1180/7 1181/1181/7 1182/1182/7
f 1183/1183/6 1184/1184/6 1185/1185/6
f 1186/1186/7 1187/1187/7 1188/1188/7
f 1189/1189/6 1190/1190/6 1191/1191/6
f 1192/1192/6 1193/1193/6 1194/1194/6
f 1195/1195/6 1196/1196/6 1197/1197/6
f 1198/1198/6 1199/1199/6 1200/1200/6
f 1201/1201/7 1202/1202/7 1203/1203/7
f 1204/1204/7 1205/1205/7 1206/1206/7
f 1207/1207/6 1208/1208/6 1209/1209/6
f 1210/1210/7 1211/1211/7 1212/1212/7
f 1213/1213/7 1214/1214/7 1215/1215/7
f 1216/1216/7 1217/1217/7 1218/1218/7
f 1219/1219/7 1220/1220/7 1221/1221/7
f 1222/1222/7 1223/1223/7 1224/1224/7
f 1225/1225/6 1226/1226/6 1227/1227/6
f 1228/1228/6 1229/1229/6 1230/1230/6
f 1231/1231/6 1232/1232/6 1233/1233/6
f 1234/1234/6 1235/1235/6 1236/1236/6
f 1237/1237/6 1238/1238/6 1239/1239/6
f 1240/1240/6 1241/1241/6 1242/1242/6
f 1243/1243/6 1244/1244/6 1245/1245/6
f 1246/1246/7 1247/1247/7 1248/1248/7
f 1249/1249/7 1250/1250/7 1251/1251/7
f 1252/1252/7 1253/1253/7 1254/1254/7
