mtllib lostmemory.mtl
v 0.000007 -48.143478 -3.932000
v 0.000007 -48.143478 3.932000
v 0.000005 -35.977280 3.932000
v 0.000007 -48.143478 3.932000
v 0.000007 -48.143478 -3.932000
v 0.000005 -35.977280 3.932000
v 0.000006 -35.977280 -3.932000
v 0.000007 -48.143478 -3.932000
v 0.000005 -35.977280 3.932000
v 0.000007 -48.143478 -3.932000
v 0.000006 -35.977280 -3.932000
v 0.000005 -35.977280 3.932000
v 0.000005 -29.972181 2.005000
v 0.000005 -29.972181 -2.005000
v 0.000006 -36.304180 -2.005000
v 0.000005 -29.972181 -2.005000
v 0.000005 -29.972181 2.005000
v 0.000006 -36.304180 -2.005000
v 0.000003 -18.608879 2.005000
v 0.000004 -24.940882 2.005000
v 0.000005 -24.940882 -2.005000
v 0.000004 -24.940882 2.005000
v 0.000003 -18.608879 2.005000
v 0.000005 -24.940882 -2.005000
v 0.000003 -14.745081 -2.067200
v 0.000003 -14.745081 2.064300
v 0.000003 -17.632080 2.075100
v 0.000003 -14.745081 2.064300
v 0.000003 -14.745081 -2.067200
v 0.000003 -17.632080 2.075100
v 0.000003 -17.632080 2.075100
v 0.000004 -21.624281 0.292400
v 0.000004 -17.632080 -2.079100
v 0.000004 -21.624281 0.292400
v 0.000003 -17.632080 2.075100
v 0.000004 -17.632080 -2.079100
v 0.000004 -17.632080 -2.079100
v 0.000003 -14.745081 -2.067200
v 0.000003 -17.632080 2.075100
v 0.000003 -14.745081 -2.067200
v 0.000004 -17.632080 -2.079100
v 0.000003 -17.632080 2.075100
v 0.000004 -18.608879 -2.005000
v 0.000003 -18.608879 2.005000
v 0.000005 -24.940882 -2.005000
v 0.000003 -18.608879 2.005000
v 0.000004 -18.608879 -2.005000
v 0.000005 -24.940882 -2.005000
v 0.000006 -36.304180 2.005000
v 0.000005 -29.972181 2.005000
v 0.000006 -36.304180 -2.005000
v 0.000005 -29.972181 2.005000
v 0.000006 -36.304180 2.005000
v 0.000006 -36.304180 -2.005000
v 0.000004 -24.558681 2.005000
v 0.000005 -30.890678 2.005000
v 0.000005 -30.890678 -2.005000
v 0.000005 -30.890678 2.005000
v 0.000004 -24.558681 2.005000
v 0.000005 -30.890678 -2.005000
v 0.000004 -24.558681 -2.005000
v 0.000004 -24.558681 2.005000
v 0.000005 -30.890678 -2.005000
v 0.000004 -24.558681 2.005000
v 0.000004 -24.558681 -2.005000
v 0.000005 -30.890678 -2.005000
v 0.000004 -21.624281 0.292400
v 0.000004 -21.624281 -0.292400
v 0.000004 -17.632080 -2.079100
v -1.361995 -26.691078 -0.000000
v -1.361996 -23.097881 -0.000000
v 1.362005 -26.691078 0.000000
v -1.361996 -23.097881 -0.000000
v -1.361995 -26.691078 -0.000000
v 1.362005 -26.691078 0.000000
v 1.362006 -38.054382 0.000000
v 1.362006 -34.462181 0.000000
v -1.361995 -34.462181 -0.000000
v 1.362006 -34.462181 0.000000
v 1.362006 -38.054382 0.000000
v -1.361995 -34.462181 -0.000000
v 1.362004 -23.097881 0.000000
v 1.362005 -26.691078 0.000000
v -1.361996 -23.097881 -0.000000
v 1.362005 -26.691078 0.000000
v 1.362004 -23.097881 0.000000
v -1.361996 -23.097881 -0.000000
v -1.361995 -34.462181 -0.000000
v -1.361994 -38.054382 -0.000000
v 1.362006 -38.054382 0.000000
v -1.361994 -38.054382 -0.000000
v -1.361995 -34.462181 -0.000000
v 1.362006 -38.054382 0.000000
v -1.361995 -32.640881 -0.000000
v -1.361995 -29.048681 -0.000000
v 1.362005 -32.640881 0.000000
v -1.361995 -29.048681 -0.000000
v -1.361995 -32.640881 -0.000000
v 1.362005 -32.640881 0.000000
v 1.362005 -29.048681 0.000000
v 1.362005 -32.640881 0.000000
v -1.361995 -29.048681 -0.000000
v 1.362005 -32.640881 0.000000
v 1.362005 -29.048681 0.000000
v -1.361995 -29.048681 -0.000000
v 0.000004 -21.624281 -0.292400
v 0.000004 -21.624281 0.292400
v 0.000004 -17.632080 -2.079100
vt 0.717027 0.022700
vt 0.717027 0.967582
vt 0.008366 0.967582
vt 0.717027 0.967582
vt 0.717027 0.022700
vt 0.008366 0.967582
vt 0.008366 0.022700
vt 0.717027 0.022700
vt 0.008366 0.967582
vt 0.717027 0.022700
vt 0.008366 0.022700
vt 0.008366 0.967582
vt 0.795768 0.022700
vt 0.984744 0.022700
vt 0.984744 0.621125
vt 0.984744 0.022700
vt 0.795768 0.022700
vt 0.984744 0.621125
vt 0.984744 0.621125
vt 0.984744 0.022700
vt 0.795768 0.022700
vt 0.984744 0.022700
vt 0.984744 0.621125
vt 0.795768 0.022700
vt 0.748524 0.967582
vt 0.937500 0.967582
vt 0.937500 0.747109
vt 0.937500 0.967582
vt 0.748524 0.967582
vt 0.937500 0.747109
vt 0.937500 0.747109
vt 0.858760 0.432149
vt 0.748524 0.747109
vt 0.858760 0.432149
vt 0.937500 0.747109
vt 0.748524 0.747109
vt 0.748524 0.747109
vt 0.748524 0.967582
vt 0.937500 0.747109
vt 0.748524 0.967582
vt 0.748524 0.747109
vt 0.937500 0.747109
vt 0.984744 0.022700
vt 0.795768 0.022700
vt 0.984744 0.621125
vt 0.795768 0.022700
vt 0.984744 0.022700
vt 0.984744 0.621125
vt 0.984744 0.022700
vt 0.984744 0.621125
vt 0.795768 0.022700
vt 0.984744 0.621125
vt 0.984744 0.022700
vt 0.795768 0.022700
vt 0.984744 0.621125
vt 0.984744 0.022700
vt 0.795768 0.022700
vt 0.984744 0.022700
vt 0.984744 0.621125
vt 0.795768 0.022700
vt 0.984744 0.022700
vt 0.795768 0.022700
vt 0.984744 0.621125
vt 0.795768 0.022700
vt 0.984744 0.022700
vt 0.984744 0.621125
vt 0.858760 0.432149
vt 0.827264 0.432149
vt 0.748524 0.747109
vt 0.843012 0.306165
vt 0.748524 0.495141
vt 0.748524 0.117188
vt 0.748524 0.495141
vt 0.843012 0.306165
vt 0.748524 0.117188
vt 0.748524 0.117188
vt 0.843012 0.306165
vt 0.748524 0.495141
vt 0.843012 0.306165
vt 0.748524 0.117188
vt 0.748524 0.495141
vt 0.843012 0.306165
vt 0.748524 0.117188
vt 0.748524 0.495141
vt 0.748524 0.117188
vt 0.843012 0.306165
vt 0.748524 0.495141
vt 0.748524 0.495141
vt 0.843012 0.306165
vt 0.748524 0.117188
vt 0.843012 0.306165
vt 0.748524 0.495141
vt 0.748524 0.117188
vt 0.843012 0.306165
vt 0.748524 0.495141
vt 0.748524 0.117188
vt 0.748524 0.495141
vt 0.843012 0.306165
vt 0.748524 0.117188
vt 0.843012 0.306165
vt 0.748524 0.117188
vt 0.748524 0.495141
vt 0.748524 0.117188
vt 0.843012 0.306165
vt 0.748524 0.495141
vt 0.827264 0.432149
vt 0.858760 0.432149
vt 0.748524 0.747109
vn -1.0000 -0.0000 -0.0000
vn 1.0000 0.0000 0.0000
vn 0.0000 0.0000 -1.0000
vn -0.0000 -0.0000 1.0000
o keychain
usemtl Brush.056
f 1/1/1 2/2/1 3/3/1
f 4/4/2 5/5/2 6/6/2
f 7/7/1 8/8/1 9/9/1
f 10/10/2 11/11/2 12/12/2
f 13/13/1 14/14/1 15/15/1
f 16/16/2 17/17/2 18/18/2
f 19/19/2 20/20/2 21/21/2
f 22/22/1 23/23/1 24/24/1
f 25/25/2 26/26/2 27/27/2
f 28/28/1 29/29/1 30/30/1
f 31/31/2 32/32/2 33/33/2
f 34/34/1 35/35/1 36/36/1
f 37/37/2 38/38/2 39/39/2
f 40/40/1 41/41/1 42/42/1
f 43/43/2 44/44/2 45/45/2
f 46/46/1 47/47/1 48/48/1
f 49/49/1 50/50/1 51/51/1
f 52/52/2 53/53/2 54/54/2
f 55/55/2 56/56/2 57/57/2
f 58/58/1 59/59/1 60/60/1
f 61/61/2 62/62/2 63/63/2
f 64/64/1 65/65/1 66/66/1
f 67/67/2 68/68/2 69/69/2
f 70/70/3 71/71/3 72/72/3
f 73/73/4 74/74/4 75/75/4
f 76/76/4 77/77/4 78/78/4
f 79/79/3 80/80/3 81/81/3
f 82/82/3 83/83/3 84/84/3
f 85/85/4 86/86/4 87/87/4
f 88/88/4 89/89/4 90/90/4
f 91/91/3 92/92/3 93/93/3
f 94/94/3 95/95/3 96/96/3
f 97/97/4 98/98/4 99/99/4
f 100/100/3 101/101/3 102/102/3
f 103/103/4 104/104/4 105/105/4
f 106/106/1 107/107/1 108/108/1
