# Blender 5.1.2
# www.blender.org
mtllib mastersdefender.mtl
o mesh_mesh.032
v -1.654402 -42.726200 0.000003
v -1.654402 -39.413898 0.000003
v 1.654398 -42.726200 0.000003
v 1.654398 -39.413898 0.000003
v 1.654398 -42.726200 0.000003
v -1.654402 -39.413898 0.000003
v 1.654398 -42.726200 0.000003
v 1.654398 -39.413898 0.000003
v -1.654402 -39.413898 0.000003
v -0.000002 -34.443501 -2.200997
v -0.000002 -41.071899 -2.200997
v -0.000002 -34.443501 2.201003
v -0.000002 -41.071899 2.201003
v -0.000002 -34.443501 2.201003
v -0.000002 -41.071899 -2.200997
v -0.000002 -34.443501 2.201003
v -0.000002 -41.071899 2.201003
v -0.000002 -41.071899 -2.200997
v -0.000002 -45.714901 0.000003
v -0.000002 -43.150600 -2.560697
v -0.000002 -40.589897 0.000003
v -0.000002 -45.714901 0.000003
v -0.000002 -40.589897 0.000003
v -0.000002 -43.150600 -2.560697
v -0.000002 -40.589897 0.000003
v -0.000002 -45.714901 0.000003
v -0.000002 -43.150600 2.560703
v -0.000002 -48.027500 -5.193296
v -0.007202 -42.888100 0.000003
v -0.000002 -54.990204 0.000004
v -0.000002 -48.027500 5.193304
v -0.000002 -54.990204 0.000004
v -0.007202 -42.888100 0.000003
v -0.000002 -54.990204 0.000004
v -0.000002 -48.027500 5.193304
v 0.007198 -42.888100 0.000003
v -2.103901 -23.028301 0.000002
v -2.103901 -18.816801 0.000001
v 2.103899 -23.028301 0.000002
v 2.103899 -18.816801 0.000001
v 2.103899 -23.028301 0.000002
v -2.103901 -18.816801 0.000001
v 2.103899 -23.028301 0.000002
v 2.103899 -18.816801 0.000001
v -2.103901 -18.816801 0.000001
v -2.103901 -29.771700 0.000002
v -2.103901 -25.556601 0.000002
v 2.103899 -29.771700 0.000002
v 2.103899 -25.556601 0.000002
v 2.103899 -29.771700 0.000002
v -2.103901 -25.556601 0.000002
v 2.103899 -29.771700 0.000002
v 2.103899 -25.556601 0.000002
v -2.103901 -25.556601 0.000002
v -0.000002 -34.339203 -2.200997
v -0.000002 -34.339203 2.201003
v -0.000001 -27.710899 2.201002
v -0.000002 -34.339203 -2.200997
v -0.000001 -27.710899 2.201002
v -0.000002 -34.339203 2.201003
v -0.000001 -27.710899 2.201002
v -0.000002 -34.339203 -2.200997
v -0.000001 -27.710899 -2.200998
v -0.000001 -27.606600 -2.200998
v -0.000001 -27.606600 2.201002
v -0.000001 -20.978300 2.201002
v -0.000001 -27.606600 -2.200998
v -0.000001 -20.978300 2.201002
v -0.000001 -27.606600 2.201002
v -0.000001 -20.978300 2.201002
v -0.000001 -27.606600 -2.200998
v -0.000001 -20.978300 -2.200998
v -2.103902 -36.500702 0.000003
v -2.103901 -32.285603 0.000002
v 2.103898 -36.500702 0.000003
v 2.103899 -32.285603 0.000002
v 2.103898 -36.500702 0.000003
v -2.103901 -32.285603 0.000002
v 2.103898 -36.500702 0.000003
v 2.103899 -32.285603 0.000002
v -2.103901 -32.285603 0.000002
v 0.000005 117.846001 -2.348509
v -2.193895 117.846001 -0.000009
v 0.000005 117.000793 -2.952709
v -2.758495 117.000793 -0.000009
v 0.000005 115.425598 -1.996009
v -1.866595 115.425598 -0.000009
v 0.000002 43.546200 -1.996004
v -1.866598 43.546200 -0.000003
v 0.000001 32.681305 -3.215302
v -2.866399 32.681305 -0.000002
v 0.000001 30.124203 -4.761703
v -4.247399 30.124203 -0.000002
v 0.000001 26.480902 -1.996002
v -1.683199 26.480902 -0.000002
v 0.000005 117.846001 2.348491
v 2.193905 117.846001 -0.000009
v 0.000005 117.000793 2.952691
v 2.758505 117.000793 -0.000009
v 0.000005 115.425598 1.995991
v 1.866605 115.425598 -0.000009
v 0.000002 43.546200 1.995997
v 1.866602 43.546200 -0.000003
v 0.000001 32.681305 3.215298
v 2.866401 32.681305 -0.000002
v 0.000001 30.124203 4.761698
v 4.247402 30.124203 -0.000002
v 0.000001 26.480902 1.995998
v 1.683201 26.480902 -0.000002
v -2.459999 26.480902 3.337498
v 2.438401 26.480902 3.337498
v -2.459999 24.772600 4.657398
v 2.438401 24.772600 4.657398
v -2.459999 23.380699 3.236798
v 2.438401 23.380699 3.236798
v -2.459999 18.982201 3.236799
v 2.438401 18.982201 3.236799
v -2.459999 17.234400 4.657399
v 2.438401 17.234400 4.657399
v -2.460000 9.750100 4.657399
v 2.438401 9.750100 4.657399
v -1.693900 8.124500 2.265800
v 1.679600 8.124500 2.265800
v 2.438401 26.480902 -3.337502
v -2.459999 24.772600 -4.657402
v 2.438401 24.772600 -4.657402
v -2.459999 23.380699 -3.236802
v 2.438401 23.380699 -3.236802
v -2.459999 18.982201 -3.236801
v 2.438401 18.982201 -3.236801
v -2.459999 17.234400 -4.657402
v 2.438401 17.234400 -4.657402
v -2.460000 9.750100 -4.657401
v 2.438401 9.750100 -4.657401
v -1.693900 8.124500 -2.265801
v 1.679600 8.124500 -2.265801
v -2.459999 26.480900 -0.000002
v -2.459999 17.252302 -0.000001
v -2.459999 17.252302 -1.496101
v -2.459999 16.414400 -2.273001
v -2.460000 11.652601 -2.273001
v -1.693899 10.656400 -1.496101
v -1.693899 10.656400 -0.000001
v 0.000001 11.907999 -18.633400
v -2.082399 13.993898 -18.633402
v 0.000001 11.907999 -0.000001
v -2.082399 13.993899 -0.000001
v -2.082399 13.993900 18.633398
v 0.000001 16.076302 -0.000001
v 0.000001 16.076302 18.633398
v 2.082401 13.993899 -0.000001
v 2.082401 13.993900 18.633398
v 0.000001 11.908001 18.633400
v -2.460000 -7.052699 15.241901
v 2.438400 -7.052699 15.241901
v -2.460001 -15.374999 8.552401
v 2.438399 -15.374999 8.552401
v -2.460001 -15.375000 2.208201
v 2.438399 -15.375000 2.208201
v -2.460001 -15.375000 2.208201
v 2.438399 -15.375000 2.208201
v -1.693900 -14.378699 1.240801
v 1.679599 -14.378699 1.240801
v -1.693900 -14.378699 1.240801
v 2.438399 -15.375000 2.208201
v -1.693900 -14.378699 1.240801
v 1.679599 -14.378699 1.240801
v -1.693900 -14.378699 0.000001
v 1.679599 -14.378699 0.000001
v -1.693900 -14.378699 0.000001
v 1.679599 -14.378699 1.240801
v -1.693900 -14.378699 0.000001
v 1.679599 -14.378699 0.000001
v 1.679599 -14.378699 -1.240799
v 2.438401 26.480900 -0.000002
v 2.438401 17.252302 -0.000001
v 2.438401 17.252302 1.496099
v 2.438401 16.414400 2.272999
v 2.438401 11.652601 2.272999
v -2.362900 -4.902001 -10.947700
v 0.000000 -4.902001 -13.533600
v 0.000000 -3.754701 -13.033701
v 2.362900 -4.902001 -10.947700
v 2.082400 -3.754701 -10.947700
v 0.000000 -4.902000 -8.361800
v 0.000000 -3.754701 -8.861700
v -2.082400 -3.754701 -10.947700
v 0.000000 7.322399 -8.861702
v -2.082400 7.322399 -10.947701
v 2.362900 -4.901999 10.947700
v 0.000000 -4.901999 13.533600
v 0.000000 -3.754699 13.033701
v -2.362900 -4.901999 10.947700
v -2.082400 -3.754699 10.947700
v 0.000000 -4.901999 8.361800
v 0.000000 -3.754699 8.861700
v 2.082400 -3.754699 10.947700
v 0.000000 7.322400 8.861700
v 2.082400 7.322401 10.947699
v 2.438400 -4.901999 8.210800
v -2.460000 -4.902000 8.210800
v 2.438400 -7.433899 6.193101
v -2.460000 -7.433899 6.193101
v 2.438400 -7.441101 3.017500
v -2.460000 -7.441101 3.017500
v 1.679600 -6.516800 2.265801
v -1.693900 -6.516800 2.265801
v -1.693900 -6.516800 -2.265800
v 1.679600 -6.516800 -2.265800
v -2.460000 -7.441101 -3.017499
v 2.438400 -7.441101 -3.017499
v -2.460000 -7.433900 -6.193100
v 2.438400 -7.433900 -6.193100
v -2.460000 -4.902001 -8.210800
v 2.438400 -4.902000 -8.210800
v -1.693900 -14.378699 0.000001
v 1.679599 -14.378699 -1.240799
v -1.693900 -14.378699 -1.240799
v 2.438399 -15.375000 -2.208199
v -1.693900 -14.378699 -1.240799
v 1.679599 -14.378699 -1.240799
v -1.693900 -14.378699 -1.240799
v 2.438399 -15.375000 -2.208199
v -2.460001 -15.375000 -2.208199
v 2.438399 -15.375001 -8.552399
v -2.460001 -15.375000 -2.208199
v 2.438399 -15.375000 -2.208199
v -2.460001 -15.375001 -8.552399
v 2.438400 -7.052701 -15.241899
v -2.460000 -7.052701 -15.241899
v 2.082401 13.993898 -18.633402
v 0.000001 16.076298 -18.633402
v 0.000000 7.322399 -13.033702
v 0.000000 8.473299 -13.533601
v 2.082400 7.322399 -10.947701
v 2.362900 8.473299 -10.947701
v 0.000000 8.473299 -8.361801
v -2.362900 8.473299 -10.947701
v -2.459999 17.252302 1.496099
v -2.459999 16.414400 2.272999
v -2.459999 17.363800 -7.034701
v -2.460000 9.311298 -7.034700
v -2.459999 18.201799 -8.142401
v -2.460000 8.473300 -8.142401
v -2.459999 18.201797 -13.749401
v -2.460000 8.473300 -13.749401
v -2.459999 17.363798 -14.853500
v -2.460000 9.311298 -14.853500
v 2.362900 8.473301 10.947699
v 0.000000 8.473301 8.361799
v -2.362900 8.473301 10.947699
v -2.082400 7.322401 10.947699
v 0.000000 8.473301 13.533599
v 0.000000 7.322401 13.033700
v 2.438401 17.363800 7.034698
v 2.438401 9.311300 7.034699
v 2.438401 18.201799 8.142399
v 2.438401 8.473302 8.142399
v 2.438401 18.201801 13.749399
v 2.438401 8.473302 13.749399
v 2.438401 17.363802 14.853498
v 2.438401 9.311300 14.853498
v -1.693900 -14.378699 1.240801
v -1.693900 -14.378699 0.000001
v 1.679600 10.656401 -0.000001
v 1.679599 -14.378699 0.000001
v 1.679599 -14.378699 1.240801
v 2.438401 17.252302 -1.496101
v 2.438401 16.414400 -2.273001
v 2.438401 11.652601 -2.273001
v 2.438401 17.363798 -14.853500
v 2.438401 8.473300 -13.749401
v 2.438401 18.201797 -13.749401
v 2.438401 8.473300 -8.142401
v 2.438401 18.201799 -8.142401
v 2.438401 9.311298 -7.034700
v 2.438401 17.363800 -7.034701
v -2.460000 9.311300 7.034699
v -2.459999 18.201799 8.142399
v -2.460000 8.473302 8.142399
v -2.459999 18.201801 13.749399
v -2.460000 8.473302 13.749399
v -2.459999 17.363802 14.853498
v -2.460000 9.311300 14.853498
v -2.460000 11.652601 2.272999
v 1.679600 10.656400 1.496099
v -1.693899 10.656400 1.496099
v -1.927701 -13.957998 9.545100
v -1.938501 -10.703099 12.102202
v -1.938501 -13.957998 12.102202
v 0.000000 -9.023599 13.465201
v -0.000001 -13.957998 13.465202
v 1.938499 -13.957998 12.102202
v -1.693900 -14.378699 -1.240799
v -2.460000 -4.902001 -13.860901
v 2.438400 -4.901999 13.860901
v 1.927699 -13.957998 9.545100
v -0.000001 -21.208500 -2.341298
v -0.000001 -21.208500 2.341302
v -0.000001 -16.522301 2.341301
v -0.000001 -21.208500 -2.341298
v -0.000001 -16.522301 2.341301
v -0.000001 -21.208500 2.341302
v -0.000001 -16.522301 2.341301
v -0.000001 -21.208500 -2.341298
v -0.000001 -16.522301 -2.341299
v 1.679600 10.656400 -1.496101
v 0.881099 -14.335600 -2.287399
v -0.881101 -14.335600 -2.287399
v -0.000001 -18.579399 -0.719299
v -0.881101 -14.335600 2.287401
v -0.000001 -18.579399 -0.719299
v -0.881101 -14.335600 -2.287399
v -0.000001 -18.579399 -0.719299
v -0.881101 -14.335600 2.287401
v -0.000001 -18.579399 0.719301
v 2.438400 -4.902001 -13.860901
v -2.459999 26.480902 -3.337502
v -2.459999 17.363800 7.034698
v -2.460000 -4.901999 13.860901
v -1.927701 -13.958000 -12.102201
v -1.927701 -13.958000 -9.555900
v -0.000001 -13.958000 -13.447298
v 1.927699 -13.958000 -9.555900
v 1.927699 -13.958000 -12.102201
v 0.000000 -9.023601 -13.447299
v 1.927700 -10.703101 -12.102201
v -0.000001 -18.579399 -0.719299
v 0.881099 -14.335600 2.287401
v 0.881099 -14.335600 -2.287399
v -0.000001 -18.579399 -0.719299
v -0.000001 -18.579399 0.719301
v 0.881099 -14.335600 2.287401
v 0.000005 115.425598 -19.532509
v 0.000004 92.343300 -1.996007
v 0.000004 92.343300 -19.532507
v 0.000004 92.343300 -19.532507
v 0.000004 92.343300 -1.996007
v 0.000005 115.425598 -19.532509
v 1.679599 -14.378699 -1.240799
v 0.000005 115.425598 -1.996009
v 0.000004 92.343300 -1.996007
v 0.000005 115.425598 -19.532509
v 0.000005 115.425598 -19.532509
v 0.000004 92.343300 -1.996007
v 0.000005 115.425598 -1.996009
v 2.438401 9.311298 -14.853500
v 1.938500 -10.703099 12.102202
v -1.654402 -42.726200 0.000003
v 1.654398 -42.726200 0.000003
v -1.654402 -39.413898 0.000003
v -2.103901 -23.028301 0.000002
v 2.103899 -23.028301 0.000002
v -2.103901 -18.816801 0.000001
v -2.103901 -29.771700 0.000002
v 2.103899 -29.771700 0.000002
v -2.103901 -25.556601 0.000002
v -2.103902 -36.500702 0.000003
v 2.103898 -36.500702 0.000003
v -2.103901 -32.285603 0.000002
v -0.000002 -34.443501 -2.200997
v -0.000002 -34.443501 2.201003
v -0.000002 -41.071899 -2.200997
v -0.000001 -27.710899 -2.200998
v -0.000002 -34.339203 -2.200997
v -0.000001 -27.710899 2.201002
v -0.000001 -20.978300 -2.200998
v -0.000001 -27.606600 -2.200998
v -0.000001 -20.978300 2.201002
v -0.000001 -16.522301 -2.341299
v -0.000001 -21.208500 -2.341298
v -0.000001 -16.522301 2.341301
v -0.000002 -43.150600 2.560703
v -0.000002 -45.714901 0.000003
v -0.000002 -40.589897 0.000003
v -0.000002 -48.027500 -5.193296
v -0.000002 -54.990204 0.000004
v 0.007198 -42.888100 0.000003
v -0.000001 -18.579399 0.719301
v -0.881101 -14.335600 2.287401
v 0.881099 -14.335600 2.287401
v -1.927701 -10.703101 -12.102201
vn -0.0000 -0.0000 1.0000
vn -0.0000 -0.0000 -1.0000
vn 1.0000 -0.0000 -0.0000
vn -1.0000 -0.0000 -0.0000
vn -1.0000 -0.0006 -0.0008
vn -1.0000 -0.0006 0.0008
vn 1.0000 -0.0006 0.0008
vn -0.6567 0.4386 -0.6135
vn -0.6567 0.4387 -0.6135
vn -0.6750 -0.3830 -0.6306
vn -0.6749 -0.3822 -0.6312
vn -0.7304 -0.0000 -0.6830
vn -0.7282 0.0764 -0.6810
vn -0.7447 0.0685 -0.6639
vn -0.6925 0.3733 -0.6173
vn -0.6922 0.3738 -0.6174
vn -0.6661 -0.4510 -0.5941
vn -0.6732 -0.4738 -0.5677
vn 0.6567 0.4386 0.6135
vn 0.6567 0.4387 0.6135
vn 0.6750 -0.3830 0.6306
vn 0.6749 -0.3822 0.6312
vn 0.7304 -0.0000 0.6830
vn 0.7282 0.0764 0.6810
vn 0.7447 0.0685 0.6639
vn 0.6925 0.3733 0.6173
vn 0.6922 0.3738 0.6174
vn 0.6661 -0.4510 0.5941
vn 0.6732 -0.4738 0.5677
vn -0.0000 0.6114 0.7913
vn -0.0000 -0.7143 0.6999
vn -0.0000 0.6307 0.7760
vn -0.0000 -0.8270 0.5621
vn 0.6567 0.4387 -0.6135
vn 0.6750 -0.3830 -0.6306
vn 0.6749 -0.3822 -0.6312
vn 0.7304 -0.0000 -0.6830
vn 0.7282 0.0764 -0.6810
vn 0.7447 0.0685 -0.6639
vn 0.6925 0.3733 -0.6173
vn 0.6922 0.3738 -0.6174
vn 0.6661 -0.4510 -0.5941
vn 0.6732 -0.4738 -0.5677
vn -0.6661 -0.4510 0.5941
vn -0.6922 0.3738 0.6174
vn -0.6925 0.3733 0.6173
vn -0.7447 0.0685 0.6639
vn -0.7282 0.0764 0.6810
vn -0.7304 -0.0000 0.6830
vn -0.6749 -0.3822 0.6312
vn -0.6750 -0.3830 0.6306
vn -0.6567 0.4387 0.6135
vn -0.6567 0.4386 0.6135
vn -0.0000 0.6114 -0.7913
vn -0.0000 -0.7143 -0.6999
vn -0.0000 0.6307 -0.7760
vn -0.0000 -0.8270 -0.5621
vn -0.9636 -0.2089 0.1667
vn -0.8032 -0.1733 0.5699
vn -0.7077 -0.7065 -0.0000
vn -0.7071 0.7071 -0.0000
vn 0.7071 0.7071 -0.0000
vn 0.7077 -0.7065 -0.0000
vn -0.0000 -0.6265 0.7794
vn -0.0000 -1.0000 -0.0000
vn -0.0000 -0.6966 -0.7174
vn -0.7083 0.2820 -0.6472
vn 0.7083 0.2820 -0.6472
vn 0.6974 0.1705 -0.6962
vn 0.7265 0.1776 0.6638
vn 0.6764 0.2942 0.6752
vn -0.6764 0.2942 0.6752
vn -0.7077 -0.0000 0.7065
vn 0.7083 0.2820 0.6472
vn -0.7083 0.2820 0.6472
vn -0.6974 0.1705 0.6962
vn -0.7265 0.1776 -0.6638
vn -0.6764 0.2942 -0.6752
vn 0.6764 0.2942 -0.6752
vn 0.7077 -0.0000 -0.7065
vn -0.0000 0.6232 -0.7820
vn -0.0000 1.0000 -0.0023
vn -0.0000 0.6309 0.7758
vn -0.0000 0.6309 -0.7758
vn -0.0000 1.0000 0.0023
vn -0.0000 0.6232 0.7820
vn -0.0000 -0.6966 0.7174
vn -0.0000 -0.6265 -0.7794
vn -0.6766 -0.2934 -0.6754
vn 0.6766 -0.2934 -0.6754
vn 0.7266 -0.1771 -0.6639
vn 0.6974 -0.1700 0.6962
vn 0.7084 -0.2812 0.6473
vn -0.7084 -0.2812 0.6473
vn -0.0000 -0.6799 -0.7333
vn 0.7084 -0.2812 -0.6473
vn -0.7084 -0.2812 -0.6473
vn -0.6974 -0.1700 -0.6962
vn -0.7266 -0.1771 0.6639
vn -0.6766 -0.2934 0.6754
vn 0.6766 -0.2934 0.6754
vn -0.8177 0.0744 -0.5709
vn 0.8202 0.0740 -0.5672
vn -0.0000 0.6150 -0.7886
vn -0.0000 1.0000 -0.0000
vn -1.0000 -0.0000 -0.0042
vn -0.5752 -0.0000 0.8180
vn 0.5752 -0.0000 0.8180
vn 0.7077 -0.0000 0.7065
vn 0.7427 0.0680 0.6662
vn -0.8177 0.0744 0.5709
vn -0.7395 0.0683 0.6697
vn -0.7395 0.0683 -0.6697
vn -0.0000 -0.7975 -0.6033
vn -0.0000 0.7965 0.6046
vn -0.0000 0.7966 0.6046
vn -0.6974 0.1705 -0.6962
vn -0.7077 -0.0000 -0.7065
vn -0.0000 0.6150 0.7886
vn -0.0000 -0.3466 -0.9380
vn -0.9791 -0.2033 -0.0000
vn -0.0000 -0.6799 0.7333
vn -0.0000 0.7975 0.6033
vn -0.0000 0.7966 -0.6046
vn -0.0000 0.7965 -0.6046
vn -0.0000 0.5403 -0.8415
vn -0.0000 -0.7975 0.6033
vn 0.8060 -0.1722 -0.5664
vn -0.0000 0.7975 -0.6033
vn -0.0000 0.5403 0.8415
vn -0.8032 -0.1733 -0.5699
vn -0.5722 -0.0000 -0.8201
vn 0.5722 -0.0000 -0.8201
vn 0.9791 -0.2033 -0.0000
vn -0.7266 -0.1771 -0.6639
vn -0.6974 -0.1700 0.6962
vn 0.8202 0.0740 0.5672
vn 0.8060 -0.1722 0.5664
vn -0.0000 -0.7965 -0.6046
vn 0.7266 -0.1771 0.6639
vn 0.6974 -0.1700 -0.6962
vn 0.7265 0.1776 -0.6638
vn 0.6974 0.1705 0.6962
vn 0.7427 0.0680 -0.6662
vn -0.0000 -0.7965 0.6046
vn -0.0000 -0.7966 0.6046
vn 1.0000 -0.0006 -0.0008
vn 0.6567 0.4386 -0.6135
vn 0.9643 -0.2071 0.1652
vn -0.7265 0.1776 0.6638
vn -0.6732 -0.4738 0.5677
vn -0.0000 -0.3466 0.9380
vn 0.9643 -0.2071 -0.1652
vn -0.9636 -0.2089 -0.1667
vn 1.0000 -0.0000 -0.0042
vt 0.564684 0.275155
vt 0.564684 0.343761
vt 0.496109 0.275155
vt 0.496109 0.343761
vt 0.554643 0.762627
vt 0.492141 0.762627
vt 0.554643 0.668569
vt 0.492141 0.668569
vt 0.671010 0.079837
vt 0.594867 0.003693
vt 0.671010 0.003693
vt 0.398602 0.686544
vt 0.294137 0.764549
vt 0.475783 0.764549
vt 0.399091 0.687033
vt 0.476272 0.765038
vt 0.294626 0.765038
vt 0.496109 0.206580
vt 0.564684 0.206580
vt 0.029084 0.722617
vt 0.029084 0.695120
vt 0.005463 0.722617
vt 0.005463 0.695120
vt 0.029084 0.665486
vt 0.005463 0.665486
vt 0.029084 0.147740
vt 0.005463 0.147740
vt 0.029084 0.075686
vt 0.005463 0.075686
vt 0.029084 0.051423
vt 0.005463 0.051423
vt 0.029084 0.008423
vt 0.005463 0.008423
vt 0.052431 0.722617
vt 0.052431 0.695120
vt 0.052431 0.665486
vt 0.052431 0.147740
vt 0.052431 0.075686
vt 0.052431 0.051423
vt 0.052431 0.008423
vt 0.066744 0.674886
vt 0.066744 0.655598
vt 0.109592 0.674886
vt 0.109592 0.655598
vt 0.066744 0.637806
vt 0.109592 0.637806
vt 0.066744 0.598468
vt 0.109592 0.598468
vt 0.066744 0.578325
vt 0.109592 0.578325
vt 0.066744 0.511398
vt 0.109592 0.511398
vt 0.066744 0.485519
vt 0.109592 0.485519
vt 0.500839 0.571703
vt 0.452376 0.616931
vt 0.500839 0.508377
vt 0.452376 0.484725
vt 0.474013 0.484176
vt 0.518571 0.482680
vt 0.483413 0.471785
vt 0.518571 0.374950
vt 0.483413 0.403210
vt 0.483047 0.351268
vt 0.468764 0.387249
vt 0.452376 0.387249
vt 0.995178 0.998809
vt 0.995178 0.808557
vt 0.979430 0.998809
vt 0.979430 0.808557
vt 0.963652 0.808557
vt 0.963652 0.998809
vt 0.066744 0.203528
vt 0.066744 0.111056
vt 0.109592 0.203528
vt 0.109592 0.111056
vt 0.066744 0.056123
vt 0.109592 0.056123
vt 0.072787 0.044099
vt 0.102054 0.044099
vt 0.072787 0.011078
vt 0.102054 0.011078
vt 0.149358 0.980010
vt 0.162358 0.998046
vt 0.149358 0.998046
vt 0.162358 0.980010
vt 0.149358 0.961821
vt 0.162358 0.961821
vt 0.267251 0.961821
vt 0.267251 0.980010
vt 0.109592 0.286324
vt 0.109592 0.314066
vt 0.066744 0.286324
vt 0.066744 0.314066
vt 0.109592 0.341288
vt 0.066744 0.341288
vt 0.109592 0.351512
vt 0.066744 0.351512
vt 0.109592 0.477034
vt 0.066744 0.477034
vt 0.149327 0.998046
vt 0.149327 0.980010
vt 0.149327 0.961821
vt 0.953001 0.983977
vt 0.913144 0.997589
vt 0.953001 0.997589
vt 0.913144 0.983977
vt 0.953001 0.973601
vt 0.913144 0.973601
vt 0.913144 0.930387
vt 0.228187 0.944242
vt 0.217689 0.952177
vt 0.228187 0.867885
vt 0.217689 0.859920
vt 0.164525 0.952177
vt 0.164525 0.859920
vt 0.154027 0.944242
vt 0.154027 0.867885
vt 0.491012 0.009735
vt 0.483413 0.137180
vt 0.473281 0.023590
vt 0.452376 0.023194
vt 0.096957 0.095980
vt 0.056703 0.095980
vt 0.056703 0.044465
vt 0.019501 0.017914
vt 0.019501 0.095980
vt 0.267251 0.998046
vt 0.676687 0.128360
vt 0.546495 0.128360
vt 0.582385 0.009735
vt 0.500748 0.129093
vt 0.574938 0.162144
vt 0.656301 0.162144
vt 0.494217 0.165471
vt 0.553758 0.165471
vt 0.494217 0.202124
vt 0.553758 0.202124
vt 0.568499 0.165471
vt 0.568499 0.202124
vt 0.624417 0.624749
vt 0.608731 0.624749
vt 0.624417 0.656065
vt 0.608731 0.656065
vt 0.530504 0.624749
vt 0.530504 0.656065
vt 0.053987 0.129368
vt 0.072329 0.155675
vt 0.019257 0.129368
vt 0.019257 0.181981
vt 0.053987 0.181981
vt 0.564684 0.349620
vt 0.496109 0.281014
vt 0.564684 0.281014
vt 0.496109 0.349620
vt 0.066744 0.715354
vt 0.109592 0.715354
vt 0.287729 0.816522
vt 0.255470 0.849635
vt 0.275307 0.788934
vt 0.225166 0.788934
vt 0.239692 0.849635
vt 0.953001 0.930387
vt 0.109592 0.237891
vt 0.066744 0.237891
vt 0.066744 0.215979
vt 0.520066 0.591235
vt 0.504013 0.616931
vt 0.244026 0.951048
vt 0.268410 0.926664
vt 0.244026 0.902279
vt 0.259376 0.849635
vt 0.279213 0.788934
vt 0.229072 0.788934
vt 0.243598 0.849635
vt 0.166264 0.980010
vt 0.153233 0.980010
vt 0.153233 0.998046
vt 0.166264 0.961821
vt 0.309213 0.617603
vt 0.246711 0.617603
vt 0.277962 0.584124
vt 0.739646 0.530503
vt 0.739646 0.663869
vt 0.638325 0.663869
vt 0.473118 0.023396
vt 0.490849 0.009541
vt 0.483250 0.136986
vt 0.452213 0.023000
vt 0.638325 0.530503
vt 0.452514 0.387172
vt 0.483031 0.351191
vt 0.468748 0.387172
vt 0.483397 0.403210
vt 0.452129 0.616931
vt 0.500592 0.571857
vt 0.520127 0.591235
vt 0.504074 0.616931
vt 0.221595 0.819605
vt 0.168431 0.819605
vt 0.168431 0.859920
vt 0.221595 0.859920
vt 0.557664 0.165471
vt 0.572405 0.165471
vt 0.572405 0.202124
vt 0.557664 0.202124
vt 0.676718 0.128360
vt 0.656331 0.162144
vt 0.574969 0.162144
vt 0.546525 0.128360
vt 0.917050 0.983977
vt 0.917050 0.997589
vt 0.956907 0.983977
vt 0.956907 0.973601
vt 0.271157 0.980010
vt 0.166264 0.998046
vt 0.271157 0.998046
vt 0.153264 0.980010
vt 0.153264 0.961821
vt 0.483637 0.137374
vt 0.500972 0.129287
vt 0.491236 0.009929
vt 0.546719 0.128554
vt 0.060609 0.044465
vt 0.023407 0.017914
vt 0.060609 0.095980
vt 0.567858 0.281258
vt 0.499283 0.281258
vt 0.567858 0.349864
vt 0.500015 0.281014
vt 0.500015 0.212439
vt 0.568590 0.281014
vt 0.554583 0.762670
vt 0.554583 0.668612
vt 0.492081 0.762670
vt 0.554684 0.762683
vt 0.492182 0.762683
vt 0.554684 0.668625
vt 0.554582 0.762627
vt 0.492080 0.762627
vt 0.554582 0.668569
vt 0.500015 0.349620
vt 0.568590 0.349620
vt 0.671010 0.003693
vt 0.594867 0.003693
vt 0.671010 0.079837
vt 0.398602 0.686544
vt 0.475783 0.764549
vt 0.294137 0.764549
vt 0.032990 0.695120
vt 0.032990 0.722617
vt 0.056337 0.722617
vt 0.518632 0.374950
vt 0.157933 0.867885
vt 0.157933 0.944242
vt 0.070650 0.477034
vt 0.113498 0.477034
vt 0.070650 0.351512
vt 0.113498 0.215979
vt 0.070650 0.215979
vt 0.113498 0.237891
vt 0.624361 0.655960
vt 0.624361 0.624644
vt 0.608675 0.655960
vt 0.530660 0.656065
vt 0.530660 0.624749
vt 0.608704 0.656065
vt 0.070650 0.674886
vt 0.070650 0.715354
vt 0.113498 0.674886
vt 0.070650 0.655598
vt 0.009369 0.051423
vt 0.009369 0.008423
vt 0.032990 0.008423
vt 0.291635 0.816522
vt 0.956907 0.930387
vt 0.917050 0.930387
vt 0.221595 0.952177
vt 0.232093 0.944242
vt 0.232093 0.867885
vt 0.100863 0.095980
s 0
usemtl Brush.060
f 1/1/1 3/2/1 2/3/1
f 4/4/1 6/3/1 5/2/1
f 7/2/2 9/3/2 8/4/2
f 10/5/3 12/6/3 11/7/3
f 13/8/3 15/7/3 14/6/3
f 16/6/4 18/7/4 17/8/4
f 19/9/4 21/10/4 20/11/4
f 22/9/3 24/11/3 23/10/3
f 25/10/3 27/11/3 26/9/3
f 28/12/5 30/13/5 29/14/5
f 31/15/6 33/16/6 32/17/6
f 34/13/7 36/14/7 35/12/7
f 37/3/1 39/1/1 38/18/1
f 40/19/1 42/18/1 41/1/1
f 43/1/2 45/18/2 44/19/2
f 46/3/1 48/1/1 47/18/1
f 49/19/1 51/18/1 50/1/1
f 52/1/2 54/18/2 53/19/2
f 55/7/3 57/6/3 56/8/3
f 58/7/4 60/8/4 59/6/4
f 61/6/4 63/5/4 62/7/4
f 64/7/3 66/6/3 65/8/3
f 67/7/4 69/8/4 68/6/4
f 70/6/4 72/5/4 71/7/4
f 73/3/1 75/1/1 74/18/1
f 76/19/1 78/18/1 77/1/1
f 79/1/2 81/18/2 80/19/2
f 82/20/8 84/21/8 83/22/8
f 85/23/9 83/22/9 84/21/9
f 84/21/10 86/24/10 85/23/10
f 87/25/11 85/23/11 86/24/11
f 86/24/12 88/26/12 87/25/12
f 89/27/12 87/25/12 88/26/12
f 88/26/13 90/28/13 89/27/13
f 91/29/14 89/27/14 90/28/14
f 90/28/15 92/30/15 91/29/15
f 93/31/16 91/29/16 92/30/16
f 92/30/17 94/32/17 93/31/17
f 95/33/18 93/31/18 94/32/18
f 96/20/19 98/21/19 97/34/19
f 99/35/20 97/34/20 98/21/20
f 98/21/21 100/24/21 99/35/21
f 101/36/22 99/35/22 100/24/22
f 100/24/23 102/26/23 101/36/23
f 103/37/23 101/36/23 102/26/23
f 102/26/24 104/28/24 103/37/24
f 105/38/25 103/37/25 104/28/25
f 104/28/26 106/30/26 105/38/26
f 107/39/27 105/38/27 106/30/27
f 106/30/28 108/32/28 107/39/28
f 109/40/29 107/39/29 108/32/29
f 110/41/30 112/42/30 111/43/30
f 113/44/30 111/43/30 112/42/30
f 112/42/31 114/45/31 113/44/31
f 115/46/31 113/44/31 114/45/31
f 114/45/1 116/47/1 115/46/1
f 117/48/1 115/46/1 116/47/1
f 116/47/32 118/49/32 117/48/32
f 119/50/32 117/48/32 118/49/32
f 118/49/1 120/51/1 119/50/1
f 121/52/1 119/50/1 120/51/1
f 120/51/33 122/53/33 121/52/33
f 123/54/33 121/52/33 122/53/33
f 97/34/34 99/35/34 84/21/34
f 86/24/35 84/21/35 99/35/35
f 99/35/36 101/36/36 86/24/36
f 88/26/37 86/24/37 101/36/37
f 101/36/37 103/37/37 88/26/37
f 90/28/38 88/26/38 103/37/38
f 103/37/39 105/38/39 90/28/39
f 92/30/40 90/28/40 105/38/40
f 105/38/41 107/39/41 92/30/41
f 94/32/42 92/30/42 107/39/42
f 107/39/43 109/40/43 94/32/43
f 108/32/44 106/30/44 93/31/44
f 91/29/45 93/31/45 106/30/45
f 106/30/46 104/28/46 91/29/46
f 89/27/47 91/29/47 104/28/47
f 104/28/48 102/26/48 89/27/48
f 87/25/49 89/27/49 102/26/49
f 102/26/49 100/24/49 87/25/49
f 85/23/50 87/25/50 100/24/50
f 100/24/51 98/21/51 85/23/51
f 83/22/52 85/23/52 98/21/52
f 98/21/53 96/20/53 83/22/53
f 124/43/54 126/44/54 125/42/54
f 127/45/55 125/42/55 126/44/55
f 126/44/55 128/46/55 127/45/55
f 129/47/2 127/45/2 128/46/2
f 128/46/2 130/48/2 129/47/2
f 131/49/56 129/47/56 130/48/56
f 130/48/56 132/50/56 131/49/56
f 133/51/2 131/49/2 132/50/2
f 132/50/2 134/52/2 133/51/2
f 135/53/57 133/51/57 134/52/57
f 134/52/57 136/54/57 135/53/57
f 114/55/4 137/56/4 116/57/4
f 138/58/4 116/57/4 137/56/4
f 137/56/4 129/57/4 138/58/4
f 139/59/4 138/58/4 129/57/4
f 129/57/4 131/60/4 139/59/4
f 140/61/4 139/59/4 131/60/4
f 131/60/4 133/62/4 140/61/4
f 141/63/4 140/61/4 133/62/4
f 133/62/58 135/64/58 141/63/58
f 142/65/59 141/63/59 135/64/59
f 135/64/4 143/66/4 142/65/4
f 144/67/60 146/68/60 145/69/60
f 147/70/60 145/69/60 146/68/60
f 146/68/60 148/69/60 147/70/60
f 149/71/61 147/70/61 148/69/61
f 148/69/61 150/72/61 149/71/61
f 151/70/62 149/71/62 150/72/62
f 150/72/62 152/69/62 151/70/62
f 146/68/63 151/70/63 152/69/63
f 152/69/63 153/67/63 146/68/63
f 148/69/60 146/68/60 153/67/60
f 154/73/64 156/74/64 155/75/64
f 157/76/64 155/75/64 156/74/64
f 156/74/65 158/77/65 157/76/65
f 159/78/65 157/76/65 158/77/65
f 160/77/66 162/79/66 161/78/66
f 163/80/66 165/78/66 164/79/66
f 166/79/65 168/81/65 167/80/65
f 169/82/65 171/80/65 170/81/65
f 172/81/65 174/80/65 173/82/65
f 128/55/3 175/56/3 130/57/3
f 176/58/3 130/57/3 175/56/3
f 175/56/3 117/57/3 176/58/3
f 177/59/3 176/58/3 117/57/3
f 117/57/3 119/60/3 177/59/3
f 178/61/3 177/59/3 119/60/3
f 119/60/3 121/62/3 178/61/3
f 179/63/3 178/61/3 121/62/3
f 180/83/67 182/84/67 181/85/67
f 183/83/68 181/85/68 182/84/68
f 182/84/69 184/86/69 183/83/69
f 185/87/70 183/83/70 184/86/70
f 184/86/71 186/88/71 185/87/71
f 187/86/72 185/87/72 186/88/72
f 186/88/73 188/89/73 187/86/73
f 189/90/73 187/86/73 188/89/73
f 190/83/74 192/84/74 191/85/74
f 193/83/75 191/85/75 192/84/75
f 192/84/76 194/86/76 193/83/76
f 195/87/77 193/83/77 194/86/77
f 194/86/78 196/88/78 195/87/78
f 197/86/79 195/87/79 196/88/79
f 196/88/80 198/89/80 197/86/80
f 199/90/80 197/86/80 198/89/80
f 200/91/81 202/92/81 201/93/81
f 203/94/81 201/93/81 202/92/81
f 202/92/82 204/95/82 203/94/82
f 205/96/82 203/94/82 204/95/82
f 204/95/83 206/97/83 205/96/83
f 207/98/83 205/96/83 206/97/83
f 206/97/1 123/99/1 207/98/1
f 122/100/1 207/98/1 123/99/1
f 136/99/2 209/97/2 208/98/2
f 210/96/84 208/98/84 209/97/84
f 209/97/84 211/95/84 210/96/84
f 212/94/85 210/96/85 211/95/85
f 211/95/85 213/92/85 212/94/85
f 214/93/86 212/94/86 213/92/86
f 213/92/86 215/91/86 214/93/86
f 216/81/65 218/79/65 217/80/65
f 219/78/87 221/80/87 220/79/87
f 222/79/87 224/77/87 223/78/87
f 225/76/65 227/78/65 226/77/65
f 226/77/65 228/74/65 225/76/65
f 229/75/88 225/76/88 228/74/88
f 228/74/88 230/73/88 229/75/88
f 144/67/63 231/69/63 146/68/63
f 151/70/63 146/68/63 231/69/63
f 231/69/62 232/72/62 151/70/62
f 149/71/62 151/70/62 232/72/62
f 232/72/61 145/69/61 149/71/61
f 147/70/61 149/71/61 145/69/61
f 189/86/89 234/101/89 233/84/89
f 235/86/90 233/84/90 234/101/90
f 234/101/91 236/102/91 235/86/91
f 188/88/92 235/86/92 236/102/92
f 236/102/93 237/103/93 188/88/93
f 238/102/94 188/88/94 237/103/94
f 139/104/65 176/105/65 138/106/65
f 239/104/65 138/106/65 176/105/65
f 176/105/65 177/107/65 239/104/65
f 240/108/95 239/104/95 177/107/95
f 177/107/95 178/109/95 240/108/95
f 179/110/2 240/108/2 178/109/2
f 241/111/4 243/112/4 242/113/4
f 244/114/4 242/113/4 243/112/4
f 243/112/4 245/115/4 244/114/4
f 246/116/4 244/114/4 245/115/4
f 245/115/4 247/117/4 246/116/4
f 248/118/4 246/116/4 247/117/4
f 249/102/96 198/88/96 250/103/96
f 251/102/97 250/103/97 198/88/97
f 198/88/98 252/86/98 251/102/98
f 253/101/99 251/102/99 252/86/99
f 252/86/100 254/84/100 253/101/100
f 199/86/101 253/101/101 254/84/101
f 255/111/3 257/112/3 256/113/3
f 258/114/3 256/113/3 257/112/3
f 257/112/3 259/115/3 258/114/3
f 260/116/3 258/114/3 259/115/3
f 259/115/3 261/117/3 260/116/3
f 262/118/3 260/116/3 261/117/3
f 158/119/102 207/120/102 263/121/102
f 264/122/4 263/121/4 207/120/4
f 207/120/4 143/66/4 264/122/4
f 208/120/4 264/122/4 143/66/4
f 143/66/4 135/64/4 208/120/4
f 136/64/3 265/66/3 209/120/3
f 266/122/3 209/120/3 265/66/3
f 265/66/3 206/120/3 266/122/3
f 267/121/3 266/122/3 206/120/3
f 206/120/103 159/119/103 267/121/103
f 176/58/3 268/59/3 130/57/3
f 132/60/3 130/57/3 268/59/3
f 268/59/3 269/61/3 132/60/3
f 134/62/3 132/60/3 269/61/3
f 269/61/3 270/63/3 134/62/3
f 271/117/3 273/115/3 272/116/3
f 274/114/3 272/116/3 273/115/3
f 273/115/3 275/112/3 274/114/3
f 276/113/3 274/114/3 275/112/3
f 275/112/3 277/111/3 276/113/3
f 278/113/4 280/114/4 279/112/4
f 281/115/4 279/112/4 280/114/4
f 280/114/4 282/116/4 281/115/4
f 283/117/4 281/115/4 282/116/4
f 282/116/4 284/118/4 283/117/4
f 179/109/104 286/107/104 285/108/104
f 287/104/104 285/108/104 286/107/104
f 286/107/105 265/105/105 287/104/105
f 143/106/105 287/104/105 265/105/105
f 265/105/105 142/104/105 143/106/105
f 138/58/4 239/59/4 116/57/4
f 118/60/4 116/57/4 239/59/4
f 239/59/4 240/61/4 118/60/4
f 120/62/4 118/60/4 240/61/4
f 240/61/4 285/63/4 120/62/4
f 288/123/106 290/124/106 289/125/106
f 291/126/107 289/125/107 290/124/107
f 290/124/107 292/127/107 291/126/107
f 293/124/108 291/126/108 292/127/108
f 186/88/109 184/86/109 188/89/109
f 235/90/109 188/89/109 184/86/109
f 184/86/80 182/84/80 235/90/80
f 233/128/80 235/90/80 182/84/80
f 229/129/3 213/130/3 225/131/3
f 227/119/3 225/131/3 213/130/3
f 213/130/3 211/132/3 227/119/3
f 209/120/110 227/119/110 211/132/110
f 264/122/4 208/120/4 294/121/4
f 226/119/111 294/121/111 208/120/111
f 208/120/112 210/132/112 226/119/112
f 212/130/4 226/119/4 210/132/4
f 226/119/4 212/130/4 228/131/4
f 230/129/4 228/131/4 212/130/4
f 212/130/4 214/133/4 230/129/4
f 295/134/4 230/129/4 214/133/4
f 207/120/113 158/119/113 205/132/113
f 203/130/4 205/132/4 158/119/4
f 158/119/4 156/131/4 203/130/4
f 154/129/4 203/130/4 156/131/4
f 159/119/3 202/130/3 157/131/3
f 155/129/3 157/131/3 202/130/3
f 202/130/3 200/133/3 155/129/3
f 296/134/3 155/129/3 200/133/3
f 282/135/65 280/136/65 260/137/65
f 258/138/65 260/137/65 280/136/65
f 280/136/114 278/139/114 258/138/114
f 256/140/114 258/138/114 278/139/114
f 281/141/115 283/142/115 259/143/115
f 261/144/116 259/143/116 283/142/116
f 283/142/1 284/145/1 261/144/1
f 262/146/1 261/144/1 284/145/1
f 293/147/65 292/148/65 297/149/65
f 288/150/65 297/149/65 292/148/65
f 292/148/65 290/151/65 288/150/65
f 298/152/3 300/153/3 299/154/3
f 301/152/4 303/154/4 302/153/4
f 304/153/4 306/155/4 305/152/4
f 180/83/117 187/86/117 182/84/117
f 233/128/118 182/84/118 187/86/118
f 187/86/118 189/90/118 233/128/118
f 265/105/105 307/107/105 142/104/105
f 141/108/119 142/104/119 307/107/119
f 307/107/119 270/109/119 141/108/119
f 124/43/105 137/156/105 175/157/105
f 111/43/105 175/157/105 137/156/105
f 137/156/105 110/41/105 111/43/105
f 308/158/120 310/159/120 309/160/120
f 311/161/121 313/160/121 312/159/121
f 314/159/121 316/162/121 315/161/121
f 268/107/122 140/108/122 269/109/122
f 270/110/1 269/109/1 140/108/1
f 140/108/1 141/163/1 270/110/1
f 276/146/1 277/144/1 242/145/1
f 241/142/1 242/145/1 277/144/1
f 277/144/123 243/141/123 241/142/123
f 248/145/2 247/142/2 271/144/2
f 273/143/124 271/144/124 247/142/124
f 247/142/125 245/141/125 273/143/125
f 215/91/105 317/164/105 214/93/105
f 295/165/105 214/93/105 317/164/105
f 317/164/126 230/166/126 295/165/126
f 242/139/127 244/136/127 274/138/127
f 272/137/65 274/138/65 244/136/65
f 244/136/65 246/135/65 272/137/65
f 129/57/4 137/56/4 127/55/4
f 125/167/4 127/55/4 137/56/4
f 137/56/4 318/168/4 125/167/4
f 117/57/3 175/56/3 115/55/3
f 113/167/3 115/55/3 175/56/3
f 175/56/3 111/168/3 113/167/3
f 179/63/128 123/64/128 286/65/128
f 265/66/3 286/65/3 123/64/3
f 123/64/3 206/120/3 265/66/3
f 279/141/129 255/144/129 319/142/129
f 278/145/2 319/142/2 255/144/2
f 255/144/2 256/146/2 278/145/2
f 154/166/130 296/164/130 320/165/130
f 201/93/105 320/165/105 296/164/105
f 296/164/105 200/91/105 201/93/105
f 196/88/118 194/86/118 198/89/118
f 252/90/118 198/89/118 194/86/118
f 194/86/73 254/128/73 252/90/73
f 207/120/4 122/64/4 143/66/4
f 287/65/4 143/66/4 122/64/4
f 122/64/131 285/63/131 287/65/131
f 321/151/65 323/148/65 322/150/65
f 324/149/65 322/150/65 323/148/65
f 323/148/65 325/147/65 324/149/65
f 321/124/132 326/126/132 323/127/132
f 325/124/133 323/127/133 326/126/133
f 326/126/133 327/125/133 325/124/133
f 232/169/2 231/170/2 144/171/2
f 145/170/2 232/169/2 144/171/2
f 328/172/134 330/173/134 329/174/134
f 331/172/134 333/174/134 332/175/134
f 189/176/135 238/177/135 234/178/135
f 238/177/136 189/176/136 188/179/136
f 83/180/105 97/181/105 82/182/105
f 97/181/105 83/180/105 96/182/105
f 334/183/4 336/184/4 335/185/4
f 337/184/3 339/183/3 338/185/3
f 340/186/137 227/187/137 209/188/137
f 266/189/3 340/186/3 209/188/3
f 341/190/4 343/183/4 342/185/4
f 344/183/3 346/190/3 345/185/3
f 265/191/3 136/192/3 307/193/3
f 270/194/138 307/193/138 136/192/138
f 175/195/3 128/196/3 126/197/3
f 124/198/3 175/195/3 126/197/3
f 245/199/105 243/200/105 275/201/105
f 273/202/105 245/199/105 275/201/105
f 246/203/139 248/204/139 347/205/139
f 272/206/139 246/203/139 347/205/139
f 229/207/3 317/208/3 215/209/3
f 213/210/3 229/207/3 215/209/3
f 268/211/65 176/212/65 139/213/65
f 139/213/122 140/214/122 268/211/122
f 281/199/105 259/202/105 257/201/105
f 279/200/105 281/199/105 257/201/105
f 137/195/4 114/196/4 112/197/4
f 110/198/4 137/195/4 112/197/4
f 203/210/4 154/207/4 201/209/4
f 154/207/4 320/208/4 201/209/4
f 152/170/1 150/171/1 153/169/1
f 150/171/1 148/170/1 153/169/1
f 249/177/140 253/178/140 199/176/140
f 249/177/141 199/176/141 198/179/141
f 197/176/109 199/215/109 192/216/109
f 199/215/109 254/217/109 192/216/109
f 190/218/142 195/219/142 197/176/142
f 190/218/143 197/176/143 192/216/143
f 206/220/144 204/221/144 159/222/144
f 204/221/3 202/223/3 159/222/3
f 284/204/145 282/203/145 262/205/145
f 282/203/146 260/206/146 262/205/146
f 348/224/108 291/225/108 293/226/108
f 349/227/2 351/228/2 350/229/2
f 352/230/2 354/231/2 353/232/2
f 355/230/2 357/231/2 356/232/2
f 358/230/2 360/231/2 359/232/2
f 361/233/4 363/234/4 362/235/4
f 364/236/3 366/237/3 365/238/3
f 367/239/3 369/240/3 368/241/3
f 370/242/3 372/230/3 371/243/3
f 373/244/4 375/245/4 374/246/4
f 376/247/147 378/248/147 377/249/147
f 84/250/148 82/251/148 97/252/148
f 136/192/149 134/253/149 270/194/149
f 274/206/127 276/205/127 242/204/127
f 272/201/3 347/254/3 271/255/3
f 135/256/2 136/257/2 208/258/2
f 229/259/126 230/260/126 317/261/126
f 275/262/123 243/263/123 277/264/123
f 347/265/2 248/266/2 271/267/2
f 318/268/105 137/269/105 124/270/105
f 318/268/54 124/270/54 125/271/54
f 180/218/150 185/219/150 187/176/150
f 93/272/151 95/273/151 108/274/151
f 379/275/152 381/173/152 380/172/152
f 192/216/73 254/217/73 194/176/73
f 285/276/2 240/214/2 179/277/2
f 121/253/153 123/192/153 179/194/153
f 154/260/130 155/259/130 296/261/130
f 279/263/129 257/262/129 255/264/129
f 122/192/154 120/253/154 285/194/154
f 279/278/4 319/279/4 278/280/4
f 322/281/4 382/224/4 321/226/4
f 348/224/155 293/226/155 297/281/155
f 325/226/3 327/224/3 324/281/3
f 382/224/132 326/225/132 321/226/132
