mtllib mastersdefender.mtl
v -1.654402 -42.726200 0.000003
v 1.654398 -42.726200 0.000003
v -1.654402 -39.413898 0.000003
v 1.654398 -39.413898 0.000003
v -1.654402 -39.413898 0.000003
v 1.654398 -42.726200 0.000003
v 1.654398 -42.726200 0.000003
v -1.654402 -39.413898 0.000003
v 1.654398 -39.413898 0.000003
v -0.000002 -34.443501 -2.200997
v -0.000002 -34.443501 2.201003
v -0.000002 -41.071899 -2.200997
v -0.000002 -41.071899 2.201003
v -0.000002 -41.071899 -2.200997
v -0.000002 -34.443501 2.201003
v -0.000002 -34.443501 2.201003
v -0.000002 -41.071899 -2.200997
v -0.000002 -41.071899 2.201003
v -0.000002 -45.714901 0.000003
v -0.000002 -40.589897 0.000003
v -0.000002 -43.150600 -2.560697
v -0.000002 -45.714901 0.000003
v -0.000002 -43.150600 -2.560697
v -0.000002 -40.589897 0.000003
v -0.000002 -40.589897 0.000003
v -0.000002 -43.150600 2.560703
v -0.000002 -45.714901 0.000003
v -0.000002 -48.027500 -5.193296
v -0.000002 -54.990204 0.000004
v -0.007202 -42.888100 0.000003
v -0.000002 -48.027500 5.193304
v -0.007202 -42.888100 0.000003
v -0.000002 -54.990204 0.000004
v -0.000002 -54.990204 0.000004
v 0.007198 -42.888100 0.000003
v -0.000002 -48.027500 5.193304
v -2.103901 -23.028301 0.000002
v 2.103899 -23.028301 0.000002
v -2.103901 -18.816801 0.000001
v 2.103899 -18.816801 0.000001
v -2.103901 -18.816801 0.000001
v 2.103899 -23.028301 0.000002
v 2.103899 -23.028301 0.000002
v -2.103901 -18.816801 0.000001
v 2.103899 -18.816801 0.000001
v -2.103901 -29.771700 0.000002
v 2.103899 -29.771700 0.000002
v -2.103901 -25.556601 0.000002
v 2.103899 -25.556601 0.000002
v -2.103901 -25.556601 0.000002
v 2.103899 -29.771700 0.000002
v 2.103899 -29.771700 0.000002
v -2.103901 -25.556601 0.000002
v 2.103899 -25.556601 0.000002
v -0.000002 -34.339203 -2.200997
v -0.000001 -27.710899 2.201002
v -0.000002 -34.339203 2.201003
v -0.000002 -34.339203 -2.200997
v -0.000002 -34.339203 2.201003
v -0.000001 -27.710899 2.201002
v -0.000001 -27.710899 2.201002
v -0.000001 -27.710899 -2.200998
v -0.000002 -34.339203 -2.200997
v -0.000001 -27.606600 -2.200998
v -0.000001 -20.978300 2.201002
v -0.000001 -27.606600 2.201002
v -0.000001 -27.606600 -2.200998
v -0.000001 -27.606600 2.201002
v -0.000001 -20.978300 2.201002
v -0.000001 -20.978300 2.201002
v -0.000001 -20.978300 -2.200998
v -0.000001 -27.606600 -2.200998
v -2.103902 -36.500702 0.000003
v 2.103898 -36.500702 0.000003
v -2.103901 -32.285603 0.000002
v 2.103899 -32.285603 0.000002
v -2.103901 -32.285603 0.000002
v 2.103898 -36.500702 0.000003
v 2.103898 -36.500702 0.000003
v -2.103901 -32.285603 0.000002
v 2.103899 -32.285603 0.000002
v -0.000001 -21.208500 -2.341298
v -0.000001 -16.522301 2.341301
v -0.000001 -21.208500 2.341302
v -0.000001 -21.208500 -2.341298
v -0.000001 -21.208500 2.341302
v -0.000001 -16.522301 2.341301
v -0.000001 -16.522301 2.341301
v -0.000001 -16.522301 -2.341299
v -0.000001 -21.208500 -2.341298
v 0.881099 -14.335600 -2.287399
v -0.000001 -18.579399 -0.719299
v -0.881101 -14.335600 -2.287399
v -0.881101 -14.335600 2.287401
v -0.881101 -14.335600 -2.287399
v -0.000001 -18.579399 -0.719299
v -0.000001 -18.579399 -0.719299
v -0.000001 -18.579399 0.719301
v -0.881101 -14.335600 2.287401
v -0.000001 -18.579399 -0.719299
v 0.881099 -14.335600 -2.287399
v 0.881099 -14.335600 2.287401
v -0.000001 -18.579399 -0.719299
v 0.881099 -14.335600 2.287401
v -0.000001 -18.579399 0.719301
v -1.654402 -42.726200 0.000003
v -1.654402 -39.413898 0.000003
v 1.654398 -42.726200 0.000003
v -2.103901 -23.028301 0.000002
v -2.103901 -18.816801 0.000001
v 2.103899 -23.028301 0.000002
v -2.103901 -29.771700 0.000002
v -2.103901 -25.556601 0.000002
v 2.103899 -29.771700 0.000002
v -2.103902 -36.500702 0.000003
v -2.103901 -32.285603 0.000002
v 2.103898 -36.500702 0.000003
v -0.000002 -34.443501 -2.200997
v -0.000002 -41.071899 -2.200997
v -0.000002 -34.443501 2.201003
v -0.000001 -27.710899 -2.200998
v -0.000001 -27.710899 2.201002
v -0.000002 -34.339203 -2.200997
v -0.000001 -20.978300 -2.200998
v -0.000001 -20.978300 2.201002
v -0.000001 -27.606600 -2.200998
v -0.000001 -16.522301 -2.341299
v -0.000001 -16.522301 2.341301
v -0.000001 -21.208500 -2.341298
v -0.000002 -43.150600 2.560703
v -0.000002 -40.589897 0.000003
v -0.000002 -45.714901 0.000003
v -0.000002 -48.027500 -5.193296
v 0.007198 -42.888100 0.000003
v -0.000002 -54.990204 0.000004
v -0.000001 -18.579399 0.719301
v 0.881099 -14.335600 2.287401
v -0.881101 -14.335600 2.287401
vt 0.564684 0.275155
vt 0.564684 0.343761
vt 0.496109 0.275155
vt 0.496109 0.343761
vt 0.554643 0.762627
vt 0.492141 0.762627
vt 0.554643 0.668569
vt 0.492141 0.668569
vt 0.671010 0.079837
vt 0.594867 0.003693
vt 0.671010 0.003693
vt 0.398602 0.686544
vt 0.294137 0.764549
vt 0.475783 0.764549
vt 0.399091 0.687033
vt 0.476272 0.765038
vt 0.294626 0.765038
vt 0.496109 0.206580
vt 0.564684 0.206580
vt 0.564684 0.349620
vt 0.496109 0.281014
vt 0.564684 0.281014
vt 0.496109 0.349620
vt 0.287729 0.816522
vt 0.255470 0.849635
vt 0.275307 0.788934
vt 0.225166 0.788934
vt 0.239692 0.849635
vt 0.259376 0.849635
vt 0.279213 0.788934
vt 0.229072 0.788934
vt 0.243598 0.849635
vt 0.567858 0.281258
vt 0.499283 0.281258
vt 0.567858 0.349864
vt 0.500015 0.281014
vt 0.500015 0.212439
vt 0.568590 0.281014
vt 0.554583 0.762670
vt 0.554583 0.668612
vt 0.492081 0.762670
vt 0.554684 0.762683
vt 0.492182 0.762683
vt 0.554684 0.668625
vt 0.554582 0.762627
vt 0.492080 0.762627
vt 0.554582 0.668569
vt 0.500015 0.349620
vt 0.568590 0.349620
vt 0.671010 0.003693
vt 0.594867 0.003693
vt 0.671010 0.079837
vt 0.398602 0.686544
vt 0.475783 0.764549
vt 0.294137 0.764549
vt 0.291635 0.816522
vn -0.0000 -0.0000 1.0000
vn -0.0000 -0.0000 -1.0000
vn 1.0000 -0.0000 -0.0000
vn -1.0000 -0.0000 -0.0000
vn -1.0000 -0.0006 -0.0008
vn -1.0000 -0.0006 0.0008
vn 1.0000 -0.0006 0.0008
vn -0.0000 -0.3466 -0.9380
vn -0.9791 -0.2033 -0.0000
vn 0.9791 -0.2033 -0.0000
vn 1.0000 -0.0006 -0.0008
vn -0.0000 -0.3466 0.9380
o keychain
usemtl Brush.060
f 1/1/1 2/2/1 3/3/1
f 4/4/1 5/3/1 6/2/1
f 7/2/2 8/3/2 9/4/2
f 10/5/3 11/6/3 12/7/3
f 13/8/3 14/7/3 15/6/3
f 16/6/4 17/7/4 18/8/4
f 19/9/4 20/10/4 21/11/4
f 22/9/3 23/11/3 24/10/3
f 25/10/3 26/11/3 27/9/3
f 28/12/5 29/13/5 30/14/5
f 31/15/6 32/16/6 33/17/6
f 34/13/7 35/14/7 36/12/7
f 37/3/1 38/1/1 39/18/1
f 40/19/1 41/18/1 42/1/1
f 43/1/2 44/18/2 45/19/2
f 46/3/1 47/1/1 48/18/1
f 49/19/1 50/18/1 51/1/1
f 52/1/2 53/18/2 54/19/2
f 55/7/3 56/6/3 57/8/3
f 58/7/4 59/8/4 60/6/4
f 61/6/4 62/5/4 63/7/4
f 64/7/3 65/6/3 66/8/3
f 67/7/4 68/8/4 69/6/4
f 70/6/4 71/5/4 72/7/4
f 73/3/1 74/1/1 75/18/1
f 76/19/1 77/18/1 78/1/1
f 79/1/2 80/18/2 81/19/2
f 82/20/3 83/21/3 84/22/3
f 85/20/4 86/22/4 87/21/4
f 88/21/4 89/23/4 90/20/4
f 91/24/8 92/25/8 93/26/8
f 94/27/9 95/26/9 96/25/9
f 97/25/9 98/28/9 99/27/9
f 100/29/10 101/30/10 102/31/10
f 103/29/10 104/31/10 105/32/10
f 106/33/2 107/34/2 108/35/2
f 109/36/2 110/37/2 111/38/2
f 112/36/2 113/37/2 114/38/2
f 115/36/2 116/37/2 117/38/2
f 118/39/4 119/40/4 120/41/4
f 121/42/3 122/43/3 123/44/3
f 124/45/3 125/46/3 126/47/3
f 127/48/3 128/36/3 129/49/3
f 130/50/4 131/51/4 132/52/4
f 133/53/11 134/54/11 135/55/11
f 136/56/12 137/30/12 138/29/12
