mtllib mastersdefender.mtl
v 0.000005 117.846001 -2.348509
v 0.000005 117.000793 -2.952709
v -2.193895 117.846001 -0.000009
v -2.758495 117.000793 -0.000009
v 0.000005 115.425598 -1.996009
v -1.866595 115.425598 -0.000009
v 0.000002 43.546200 -1.996004
v -1.866598 43.546200 -0.000003
v 0.000001 32.681305 -3.215302
v -2.866399 32.681305 -0.000002
v 0.000001 30.124203 -4.761703
v -4.247399 30.124203 -0.000002
v 0.000001 26.480902 -1.996002
v -1.683199 26.480902 -0.000002
v 0.000005 117.846001 2.348491
v 0.000005 117.000793 2.952691
v 2.193905 117.846001 -0.000009
v 2.758505 117.000793 -0.000009
v 0.000005 115.425598 1.995991
v 1.866605 115.425598 -0.000009
v 0.000002 43.546200 1.995997
v 1.866602 43.546200 -0.000003
v 0.000001 32.681305 3.215298
v 2.866401 32.681305 -0.000002
v 0.000001 30.124203 4.761698
v 4.247402 30.124203 -0.000002
v 0.000001 26.480902 1.995998
v 1.683201 26.480902 -0.000002
v -2.459999 26.480902 3.337498
v -2.459999 24.772600 4.657398
v 2.438401 26.480902 3.337498
v 2.438401 24.772600 4.657398
v -2.459999 23.380699 3.236798
v 2.438401 23.380699 3.236798
v -2.459999 18.982201 3.236799
v 2.438401 18.982201 3.236799
v -2.459999 17.234400 4.657399
v 2.438401 17.234400 4.657399
v -2.460000 9.750100 4.657399
v 2.438401 9.750100 4.657399
v -1.693900 8.124500 2.265800
v 1.679600 8.124500 2.265800
v 2.438401 26.480902 -3.337502
v 2.438401 24.772600 -4.657402
v -2.459999 24.772600 -4.657402
v -2.459999 23.380699 -3.236802
v 2.438401 23.380699 -3.236802
v -2.459999 18.982201 -3.236801
v 2.438401 18.982201 -3.236801
v -2.459999 17.234400 -4.657402
v 2.438401 17.234400 -4.657402
v -2.460000 9.750100 -4.657401
v 2.438401 9.750100 -4.657401
v -1.693900 8.124500 -2.265801
v 1.679600 8.124500 -2.265801
v -2.459999 26.480900 -0.000002
v -2.459999 17.252302 -0.000001
v -2.459999 17.252302 -1.496101
v -2.459999 16.414400 -2.273001
v -2.460000 11.652601 -2.273001
v -1.693899 10.656400 -1.496101
v -1.693899 10.656400 -0.000001
v 0.000001 11.907999 -18.633400
v 0.000001 11.907999 -0.000001
v -2.082399 13.993898 -18.633402
v -2.082399 13.993899 -0.000001
v -2.082399 13.993900 18.633398
v 0.000001 16.076302 -0.000001
v 0.000001 16.076302 18.633398
v 2.082401 13.993899 -0.000001
v 2.082401 13.993900 18.633398
v 0.000001 11.908001 18.633400
v -2.460000 -7.052699 15.241901
v -2.460001 -15.374999 8.552401
v 2.438400 -7.052699 15.241901
v 2.438399 -15.374999 8.552401
v -2.460001 -15.375000 2.208201
v 2.438399 -15.375000 2.208201
v -2.460001 -15.375000 2.208201
v -1.693900 -14.378699 1.240801
v 2.438399 -15.375000 2.208201
v 1.679599 -14.378699 1.240801
v 2.438399 -15.375000 2.208201
v -1.693900 -14.378699 1.240801
v -1.693900 -14.378699 1.240801
v -1.693900 -14.378699 0.000001
v 1.679599 -14.378699 1.240801
v 1.679599 -14.378699 0.000001
v 1.679599 -14.378699 1.240801
v -1.693900 -14.378699 0.000001
v -1.693900 -14.378699 0.000001
v 1.679599 -14.378699 -1.240799
v 1.679599 -14.378699 0.000001
v 2.438401 26.480900 -0.000002
v 2.438401 17.252302 -0.000001
v 2.438401 17.252302 1.496099
v 2.438401 16.414400 2.272999
v 2.438401 11.652601 2.272999
v -2.362900 -4.902001 -10.947700
v 0.000000 -3.754701 -13.033701
v 0.000000 -4.902001 -13.533600
v 2.362900 -4.902001 -10.947700
v 2.082400 -3.754701 -10.947700
v 0.000000 -4.902000 -8.361800
v 0.000000 -3.754701 -8.861700
v -2.082400 -3.754701 -10.947700
v 0.000000 7.322399 -8.861702
v -2.082400 7.322399 -10.947701
v 2.362900 -4.901999 10.947700
v 0.000000 -3.754699 13.033701
v 0.000000 -4.901999 13.533600
v -2.362900 -4.901999 10.947700
v -2.082400 -3.754699 10.947700
v 0.000000 -4.901999 8.361800
v 0.000000 -3.754699 8.861700
v 2.082400 -3.754699 10.947700
v 0.000000 7.322400 8.861700
v 2.082400 7.322401 10.947699
v 2.438400 -4.901999 8.210800
v 2.438400 -7.433899 6.193101
v -2.460000 -4.902000 8.210800
v -2.460000 -7.433899 6.193101
v 2.438400 -7.441101 3.017500
v -2.460000 -7.441101 3.017500
v 1.679600 -6.516800 2.265801
v -1.693900 -6.516800 2.265801
v 1.679600 -6.516800 -2.265800
v -1.693900 -6.516800 -2.265800
v -2.460000 -7.441101 -3.017499
v 2.438400 -7.441101 -3.017499
v -2.460000 -7.433900 -6.193100
v 2.438400 -7.433900 -6.193100
v -2.460000 -4.902001 -8.210800
v 2.438400 -4.902000 -8.210800
v -1.693900 -14.378699 0.000001
v -1.693900 -14.378699 -1.240799
v 1.679599 -14.378699 -1.240799
v 2.438399 -15.375000 -2.208199
v 1.679599 -14.378699 -1.240799
v -1.693900 -14.378699 -1.240799
v -1.693900 -14.378699 -1.240799
v -2.460001 -15.375000 -2.208199
v 2.438399 -15.375000 -2.208199
v 2.438399 -15.375001 -8.552399
v 2.438399 -15.375000 -2.208199
v -2.460001 -15.375000 -2.208199
v -2.460001 -15.375001 -8.552399
v 2.438400 -7.052701 -15.241899
v -2.460000 -7.052701 -15.241899
v 2.082401 13.993898 -18.633402
v 0.000001 16.076298 -18.633402
v 0.000000 8.473299 -13.533601
v 0.000000 7.322399 -13.033702
v 2.082400 7.322399 -10.947701
v 2.362900 8.473299 -10.947701
v 0.000000 8.473299 -8.361801
v -2.362900 8.473299 -10.947701
v -2.459999 17.252302 1.496099
v -2.459999 16.414400 2.272999
v -2.459999 17.363800 -7.034701
v -2.459999 18.201799 -8.142401
v -2.460000 9.311298 -7.034700
v -2.460000 8.473300 -8.142401
v -2.459999 18.201797 -13.749401
v -2.460000 8.473300 -13.749401
v -2.459999 17.363798 -14.853500
v -2.460000 9.311298 -14.853500
v 2.362900 8.473301 10.947699
v 0.000000 8.473301 8.361799
v -2.362900 8.473301 10.947699
v -2.082400 7.322401 10.947699
v 0.000000 8.473301 13.533599
v 0.000000 7.322401 13.033700
v 2.438401 17.363800 7.034698
v 2.438401 18.201799 8.142399
v 2.438401 9.311300 7.034699
v 2.438401 8.473302 8.142399
v 2.438401 18.201801 13.749399
v 2.438401 8.473302 13.749399
v 2.438401 17.363802 14.853498
v 2.438401 9.311300 14.853498
v -1.693900 -14.378699 1.240801
v -1.693900 -14.378699 0.000001
v 1.679600 10.656401 -0.000001
v 1.679599 -14.378699 0.000001
v 1.679599 -14.378699 1.240801
v 2.438401 17.252302 -1.496101
v 2.438401 16.414400 -2.273001
v 2.438401 11.652601 -2.273001
v 2.438401 17.363798 -14.853500
v 2.438401 18.201797 -13.749401
v 2.438401 8.473300 -13.749401
v 2.438401 8.473300 -8.142401
v 2.438401 18.201799 -8.142401
v 2.438401 9.311298 -7.034700
v 2.438401 17.363800 -7.034701
v -2.460000 9.311300 7.034699
v -2.460000 8.473302 8.142399
v -2.459999 18.201799 8.142399
v -2.459999 18.201801 13.749399
v -2.460000 8.473302 13.749399
v -2.459999 17.363802 14.853498
v -2.460000 9.311300 14.853498
v 1.679600 10.656400 1.496099
v -2.460000 11.652601 2.272999
v -1.693899 10.656400 1.496099
v -1.927701 -13.957998 9.545100
v -1.938501 -13.957998 12.102202
v -1.938501 -10.703099 12.102202
v 0.000000 -9.023599 13.465201
v -0.000001 -13.957998 13.465202
v 1.938499 -13.957998 12.102202
v -1.693900 -14.378699 -1.240799
v -2.460000 -4.902001 -13.860901
v 2.438400 -4.901999 13.860901
v 1.927699 -13.957998 9.545100
v 1.679600 10.656400 -1.496101
v 2.438400 -4.902001 -13.860901
v -2.459999 26.480902 -3.337502
v -2.459999 17.363800 7.034698
v -2.460000 -4.901999 13.860901
v -1.927701 -13.958000 -12.102201
v -0.000001 -13.958000 -13.447298
v -1.927701 -13.958000 -9.555900
v 1.927699 -13.958000 -9.555900
v 1.927699 -13.958000 -12.102201
v 0.000000 -9.023601 -13.447299
v 1.927700 -10.703101 -12.102201
v 0.000005 115.425598 -19.532509
v 0.000004 92.343300 -19.532507
v 0.000004 92.343300 -1.996007
v 0.000004 92.343300 -19.532507
v 0.000005 115.425598 -19.532509
v 0.000004 92.343300 -1.996007
v 1.679599 -14.378699 -1.240799
v 0.000005 115.425598 -1.996009
v 0.000005 115.425598 -19.532509
v 0.000004 92.343300 -1.996007
v 0.000005 115.425598 -19.532509
v 0.000005 115.425598 -1.996009
v 0.000004 92.343300 -1.996007
v 2.438401 9.311298 -14.853500
v 1.938500 -10.703099 12.102202
v -1.927701 -10.703101 -12.102201
vt 0.029084 0.722617
vt 0.029084 0.695120
vt 0.005463 0.722617
vt 0.005463 0.695120
vt 0.029084 0.665486
vt 0.005463 0.665486
vt 0.029084 0.147740
vt 0.005463 0.147740
vt 0.029084 0.075686
vt 0.005463 0.075686
vt 0.029084 0.051423
vt 0.005463 0.051423
vt 0.029084 0.008423
vt 0.005463 0.008423
vt 0.052431 0.722617
vt 0.052431 0.695120
vt 0.052431 0.665486
vt 0.052431 0.147740
vt 0.052431 0.075686
vt 0.052431 0.051423
vt 0.052431 0.008423
vt 0.066744 0.674886
vt 0.066744 0.655598
vt 0.109592 0.674886
vt 0.109592 0.655598
vt 0.066744 0.637806
vt 0.109592 0.637806
vt 0.066744 0.598468
vt 0.109592 0.598468
vt 0.066744 0.578325
vt 0.109592 0.578325
vt 0.066744 0.511398
vt 0.109592 0.511398
vt 0.066744 0.485519
vt 0.109592 0.485519
vt 0.500839 0.571703
vt 0.452376 0.616931
vt 0.500839 0.508377
vt 0.452376 0.484725
vt 0.474013 0.484176
vt 0.518571 0.482680
vt 0.483413 0.471785
vt 0.518571 0.374950
vt 0.483413 0.403210
vt 0.483047 0.351268
vt 0.468764 0.387249
vt 0.452376 0.387249
vt 0.995178 0.998809
vt 0.995178 0.808557
vt 0.979430 0.998809
vt 0.979430 0.808557
vt 0.963652 0.808557
vt 0.963652 0.998809
vt 0.066744 0.203528
vt 0.066744 0.111056
vt 0.109592 0.203528
vt 0.109592 0.111056
vt 0.066744 0.056123
vt 0.109592 0.056123
vt 0.072787 0.044099
vt 0.102054 0.044099
vt 0.072787 0.011078
vt 0.102054 0.011078
vt 0.149358 0.980010
vt 0.162358 0.998046
vt 0.149358 0.998046
vt 0.162358 0.980010
vt 0.149358 0.961821
vt 0.162358 0.961821
vt 0.267251 0.961821
vt 0.267251 0.980010
vt 0.109592 0.286324
vt 0.109592 0.314066
vt 0.066744 0.286324
vt 0.066744 0.314066
vt 0.109592 0.341288
vt 0.066744 0.341288
vt 0.109592 0.351512
vt 0.066744 0.351512
vt 0.109592 0.477034
vt 0.066744 0.477034
vt 0.149327 0.998046
vt 0.149327 0.980010
vt 0.149327 0.961821
vt 0.953001 0.983977
vt 0.913144 0.997589
vt 0.953001 0.997589
vt 0.913144 0.983977
vt 0.953001 0.973601
vt 0.913144 0.973601
vt 0.913144 0.930387
vt 0.228187 0.944242
vt 0.217689 0.952177
vt 0.228187 0.867885
vt 0.217689 0.859920
vt 0.164525 0.952177
vt 0.164525 0.859920
vt 0.154027 0.944242
vt 0.154027 0.867885
vt 0.491012 0.009735
vt 0.483413 0.137180
vt 0.473281 0.023590
vt 0.452376 0.023194
vt 0.096957 0.095980
vt 0.056703 0.095980
vt 0.056703 0.044465
vt 0.019501 0.017914
vt 0.019501 0.095980
vt 0.267251 0.998046
vt 0.676687 0.128360
vt 0.546495 0.128360
vt 0.582385 0.009735
vt 0.500748 0.129093
vt 0.574938 0.162144
vt 0.656301 0.162144
vt 0.494217 0.165471
vt 0.553758 0.165471
vt 0.494217 0.202124
vt 0.553758 0.202124
vt 0.568499 0.165471
vt 0.568499 0.202124
vt 0.624417 0.624749
vt 0.608731 0.624749
vt 0.624417 0.656065
vt 0.608731 0.656065
vt 0.530504 0.624749
vt 0.530504 0.656065
vt 0.053987 0.129368
vt 0.072329 0.155675
vt 0.019257 0.129368
vt 0.019257 0.181981
vt 0.053987 0.181981
vt 0.066744 0.715354
vt 0.109592 0.715354
vt 0.953001 0.930387
vt 0.109592 0.237891
vt 0.066744 0.237891
vt 0.066744 0.215979
vt 0.520066 0.591235
vt 0.504013 0.616931
vt 0.244026 0.951048
vt 0.268410 0.926664
vt 0.244026 0.902279
vt 0.166264 0.980010
vt 0.153233 0.980010
vt 0.153233 0.998046
vt 0.166264 0.961821
vt 0.309213 0.617603
vt 0.246711 0.617603
vt 0.277962 0.584124
vt 0.739646 0.530503
vt 0.739646 0.663869
vt 0.638325 0.663869
vt 0.473118 0.023396
vt 0.490849 0.009541
vt 0.483250 0.136986
vt 0.452213 0.023000
vt 0.638325 0.530503
vt 0.452514 0.387172
vt 0.483031 0.351191
vt 0.468748 0.387172
vt 0.483397 0.403210
vt 0.452129 0.616931
vt 0.500592 0.571857
vt 0.520127 0.591235
vt 0.504074 0.616931
vt 0.221595 0.819605
vt 0.168431 0.819605
vt 0.168431 0.859920
vt 0.221595 0.859920
vt 0.557664 0.165471
vt 0.572405 0.165471
vt 0.572405 0.202124
vt 0.557664 0.202124
vt 0.676718 0.128360
vt 0.656331 0.162144
vt 0.574969 0.162144
vt 0.546525 0.128360
vt 0.917050 0.983977
vt 0.917050 0.997589
vt 0.956907 0.983977
vt 0.956907 0.973601
vt 0.271157 0.980010
vt 0.166264 0.998046
vt 0.271157 0.998046
vt 0.153264 0.980010
vt 0.153264 0.961821
vt 0.483637 0.137374
vt 0.500972 0.129287
vt 0.491236 0.009929
vt 0.546719 0.128554
vt 0.060609 0.044465
vt 0.023407 0.017914
vt 0.060609 0.095980
vt 0.032990 0.695120
vt 0.032990 0.722617
vt 0.056337 0.722617
vt 0.518632 0.374950
vt 0.157933 0.867885
vt 0.157933 0.944242
vt 0.070650 0.477034
vt 0.113498 0.477034
vt 0.070650 0.351512
vt 0.113498 0.215979
vt 0.070650 0.215979
vt 0.113498 0.237891
vt 0.624361 0.655960
vt 0.624361 0.624644
vt 0.608675 0.655960
vt 0.530660 0.656065
vt 0.530660 0.624749
vt 0.608704 0.656065
vt 0.070650 0.674886
vt 0.070650 0.715354
vt 0.113498 0.674886
vt 0.070650 0.655598
vt 0.009369 0.051423
vt 0.009369 0.008423
vt 0.032990 0.008423
vt 0.956907 0.930387
vt 0.917050 0.930387
vt 0.221595 0.952177
vt 0.232093 0.944242
vt 0.232093 0.867885
vt 0.100863 0.095980
vn -0.6567 0.4386 -0.6135
vn -0.6567 0.4387 -0.6135
vn -0.6750 -0.3830 -0.6306
vn -0.6749 -0.3822 -0.6312
vn -0.7304 -0.0000 -0.6830
vn -0.7282 0.0764 -0.6810
vn -0.7447 0.0685 -0.6639
vn -0.6925 0.3733 -0.6173
vn -0.6922 0.3738 -0.6174
vn -0.6661 -0.4510 -0.5941
vn -0.6732 -0.4738 -0.5677
vn 0.6567 0.4386 0.6135
vn 0.6567 0.4387 0.6135
vn 0.6750 -0.3830 0.6306
vn 0.6749 -0.3822 0.6312
vn 0.7304 -0.0000 0.6830
vn 0.7282 0.0764 0.6810
vn 0.7447 0.0685 0.6639
vn 0.6925 0.3733 0.6173
vn 0.6922 0.3738 0.6174
vn 0.6661 -0.4510 0.5941
vn 0.6732 -0.4738 0.5677
vn -0.0000 0.6114 0.7913
vn -0.0000 -0.7143 0.6999
vn -0.0000 -0.0000 1.0000
vn -0.0000 0.6307 0.7760
vn -0.0000 -0.8270 0.5621
vn 0.6567 0.4387 -0.6135
vn 0.6750 -0.3830 -0.6306
vn 0.6749 -0.3822 -0.6312
vn 0.7304 -0.0000 -0.6830
vn 0.7282 0.0764 -0.6810
vn 0.7447 0.0685 -0.6639
vn 0.6925 0.3733 -0.6173
vn 0.6922 0.3738 -0.6174
vn 0.6661 -0.4510 -0.5941
vn 0.6732 -0.4738 -0.5677
vn -0.6661 -0.4510 0.5941
vn -0.6922 0.3738 0.6174
vn -0.6925 0.3733 0.6173
vn -0.7447 0.0685 0.6639
vn -0.7282 0.0764 0.6810
vn -0.7304 -0.0000 0.6830
vn -0.6749 -0.3822 0.6312
vn -0.6750 -0.3830 0.6306
vn -0.6567 0.4387 0.6135
vn -0.6567 0.4386 0.6135
vn -0.0000 0.6114 -0.7913
vn -0.0000 -0.7143 -0.6999
vn -0.0000 -0.0000 -1.0000
vn -0.0000 0.6307 -0.7760
vn -0.0000 -0.8270 -0.5621
vn -1.0000 -0.0000 -0.0000
vn -0.9636 -0.2089 0.1667
vn -0.8032 -0.1733 0.5699
vn -0.7077 -0.7065 -0.0000
vn -0.7071 0.7071 -0.0000
vn 0.7071 0.7071 -0.0000
vn 0.7077 -0.7065 -0.0000
vn -0.0000 -0.6265 0.7794
vn -0.0000 -1.0000 -0.0000
vn -0.0000 -0.6966 -0.7174
vn 1.0000 -0.0000 -0.0000
vn -0.7083 0.2820 -0.6472
vn 0.7083 0.2820 -0.6472
vn 0.6974 0.1705 -0.6962
vn 0.7265 0.1776 0.6638
vn 0.6764 0.2942 0.6752
vn -0.6764 0.2942 0.6752
vn -0.7077 -0.0000 0.7065
vn 0.7083 0.2820 0.6472
vn -0.7083 0.2820 0.6472
vn -0.6974 0.1705 0.6962
vn -0.7265 0.1776 -0.6638
vn -0.6764 0.2942 -0.6752
vn 0.6764 0.2942 -0.6752
vn 0.7077 -0.0000 -0.7065
vn -0.0000 0.6232 -0.7820
vn -0.0000 1.0000 -0.0023
vn -0.0000 0.6309 0.7758
vn -0.0000 0.6309 -0.7758
vn -0.0000 1.0000 0.0023
vn -0.0000 0.6232 0.7820
vn -0.0000 -0.6966 0.7174
vn -0.0000 -0.6265 -0.7794
vn -0.6766 -0.2934 -0.6754
vn 0.6766 -0.2934 -0.6754
vn 0.7266 -0.1771 -0.6639
vn 0.6974 -0.1700 0.6962
vn 0.7084 -0.2812 0.6473
vn -0.7084 -0.2812 0.6473
vn -0.0000 -0.6799 -0.7333
vn 0.7084 -0.2812 -0.6473
vn -0.7084 -0.2812 -0.6473
vn -0.6974 -0.1700 -0.6962
vn -0.7266 -0.1771 0.6639
vn -0.6766 -0.2934 0.6754
vn 0.6766 -0.2934 0.6754
vn -0.8177 0.0744 -0.5709
vn 0.8202 0.0740 -0.5672
vn -0.0000 0.6150 -0.7886
vn -0.0000 1.0000 -0.0000
vn -1.0000 -0.0000 -0.0042
vn -0.5752 -0.0000 0.8180
vn 0.5752 -0.0000 0.8180
vn 0.7077 -0.0000 0.7065
vn 0.7427 0.0680 0.6662
vn -0.8177 0.0744 0.5709
vn -0.7395 0.0683 0.6697
vn -0.7395 0.0683 -0.6697
vn -0.0000 -0.7975 -0.6033
vn -0.0000 0.7965 0.6046
vn -0.0000 0.7966 0.6046
vn -0.6974 0.1705 -0.6962
vn -0.7077 -0.0000 -0.7065
vn -0.0000 0.6150 0.7886
vn -0.0000 -0.6799 0.7333
vn -0.0000 0.7975 0.6033
vn -0.0000 0.7966 -0.6046
vn -0.0000 0.7965 -0.6046
vn -0.0000 0.5403 -0.8415
vn -0.0000 -0.7975 0.6033
vn 0.8060 -0.1722 -0.5664
vn -0.0000 0.7975 -0.6033
vn -0.0000 0.5403 0.8415
vn -0.8032 -0.1733 -0.5699
vn -0.5722 -0.0000 -0.8201
vn 0.5722 -0.0000 -0.8201
vn -0.7266 -0.1771 -0.6639
vn -0.6974 -0.1700 0.6962
vn 0.8202 0.0740 0.5672
vn 0.8060 -0.1722 0.5664
vn -0.0000 -0.7965 -0.6046
vn 0.7266 -0.1771 0.6639
vn 0.6974 -0.1700 -0.6962
vn 0.7265 0.1776 -0.6638
vn 0.6974 0.1705 0.6962
vn 0.7427 0.0680 -0.6662
vn -0.0000 -0.7965 0.6046
vn -0.0000 -0.7966 0.6046
vn 0.6567 0.4386 -0.6135
vn 0.9643 -0.2071 0.1652
vn -0.7265 0.1776 0.6638
vn -0.6732 -0.4738 0.5677
vn 0.9643 -0.2071 -0.1652
vn -0.9636 -0.2089 -0.1667
vn 1.0000 -0.0000 -0.0042
o base
usemtl Brush.060
f 1/1/1 2/2/1 3/3/1
f 4/4/2 3/3/2 2/2/2
f 2/2/3 5/5/3 4/4/3
f 6/6/4 4/4/4 5/5/4
f 5/5/5 7/7/5 6/6/5
f 8/8/5 6/6/5 7/7/5
f 7/7/6 9/9/6 8/8/6
f 10/10/7 8/8/7 9/9/7
f 9/9/8 11/11/8 10/10/8
f 12/12/9 10/10/9 11/11/9
f 11/11/10 13/13/10 12/12/10
f 14/14/11 12/12/11 13/13/11
f 15/1/12 16/2/12 17/15/12
f 18/16/13 17/15/13 16/2/13
f 16/2/14 19/5/14 18/16/14
f 20/17/15 18/16/15 19/5/15
f 19/5/16 21/7/16 20/17/16
f 22/18/16 20/17/16 21/7/16
f 21/7/17 23/9/17 22/18/17
f 24/19/18 22/18/18 23/9/18
f 23/9/19 25/11/19 24/19/19
f 26/20/20 24/19/20 25/11/20
f 25/11/21 27/13/21 26/20/21
f 28/21/22 26/20/22 27/13/22
f 29/22/23 30/23/23 31/24/23
f 32/25/23 31/24/23 30/23/23
f 30/23/24 33/26/24 32/25/24
f 34/27/24 32/25/24 33/26/24
f 33/26/25 35/28/25 34/27/25
f 36/29/25 34/27/25 35/28/25
f 35/28/26 37/30/26 36/29/26
f 38/31/26 36/29/26 37/30/26
f 37/30/25 39/32/25 38/31/25
f 40/33/25 38/31/25 39/32/25
f 39/32/27 41/34/27 40/33/27
f 42/35/27 40/33/27 41/34/27
f 17/15/28 18/16/28 2/2/28
f 5/5/29 2/2/29 18/16/29
f 18/16/30 20/17/30 5/5/30
f 7/7/31 5/5/31 20/17/31
f 20/17/31 22/18/31 7/7/31
f 9/9/32 7/7/32 22/18/32
f 22/18/33 24/19/33 9/9/33
f 11/11/34 9/9/34 24/19/34
f 24/19/35 26/20/35 11/11/35
f 13/13/36 11/11/36 26/20/36
f 26/20/37 28/21/37 13/13/37
f 27/13/38 25/11/38 12/12/38
f 10/10/39 12/12/39 25/11/39
f 25/11/40 23/9/40 10/10/40
f 8/8/41 10/10/41 23/9/41
f 23/9/42 21/7/42 8/8/42
f 6/6/43 8/8/43 21/7/43
f 21/7/43 19/5/43 6/6/43
f 4/4/44 6/6/44 19/5/44
f 19/5/45 16/2/45 4/4/45
f 3/3/46 4/4/46 16/2/46
f 16/2/47 15/1/47 3/3/47
f 43/24/48 44/25/48 45/23/48
f 46/26/49 45/23/49 44/25/49
f 44/25/49 47/27/49 46/26/49
f 48/28/50 46/26/50 47/27/50
f 47/27/50 49/29/50 48/28/50
f 50/30/51 48/28/51 49/29/51
f 49/29/51 51/31/51 50/30/51
f 52/32/50 50/30/50 51/31/50
f 51/31/50 53/33/50 52/32/50
f 54/34/52 52/32/52 53/33/52
f 53/33/52 55/35/52 54/34/52
f 33/36/53 56/37/53 35/38/53
f 57/39/53 35/38/53 56/37/53
f 56/37/53 48/38/53 57/39/53
f 58/40/53 57/39/53 48/38/53
f 48/38/53 50/41/53 58/40/53
f 59/42/53 58/40/53 50/41/53
f 50/41/53 52/43/53 59/42/53
f 60/44/53 59/42/53 52/43/53
f 52/43/54 54/45/54 60/44/54
f 61/46/55 60/44/55 54/45/55
f 54/45/53 62/47/53 61/46/53
f 63/48/56 64/49/56 65/50/56
f 66/51/56 65/50/56 64/49/56
f 64/49/56 67/50/56 66/51/56
f 68/52/57 66/51/57 67/50/57
f 67/50/57 69/53/57 68/52/57
f 70/51/58 68/52/58 69/53/58
f 69/53/58 71/50/58 70/51/58
f 64/49/59 70/51/59 71/50/59
f 71/50/59 72/48/59 64/49/59
f 67/50/56 64/49/56 72/48/56
f 73/54/60 74/55/60 75/56/60
f 76/57/60 75/56/60 74/55/60
f 74/55/61 77/58/61 76/57/61
f 78/59/61 76/57/61 77/58/61
f 79/58/62 80/60/62 81/59/62
f 82/61/62 83/59/62 84/60/62
f 85/60/61 86/62/61 87/61/61
f 88/63/61 89/61/61 90/62/61
f 91/62/61 92/61/61 93/63/61
f 47/36/63 94/37/63 49/38/63
f 95/39/63 49/38/63 94/37/63
f 94/37/63 36/38/63 95/39/63
f 96/40/63 95/39/63 36/38/63
f 36/38/63 38/41/63 96/40/63
f 97/42/63 96/40/63 38/41/63
f 38/41/63 40/43/63 97/42/63
f 98/44/63 97/42/63 40/43/63
f 99/64/64 100/65/64 101/66/64
f 102/64/65 101/66/65 100/65/65
f 100/65/66 103/67/66 102/64/66
f 104/68/67 102/64/67 103/67/67
f 103/67/68 105/69/68 104/68/68
f 106/67/69 104/68/69 105/69/69
f 105/69/70 107/70/70 106/67/70
f 108/71/70 106/67/70 107/70/70
f 109/64/71 110/65/71 111/66/71
f 112/64/72 111/66/72 110/65/72
f 110/65/73 113/67/73 112/64/73
f 114/68/74 112/64/74 113/67/74
f 113/67/75 115/69/75 114/68/75
f 116/67/76 114/68/76 115/69/76
f 115/69/77 117/70/77 116/67/77
f 118/71/77 116/67/77 117/70/77
f 119/72/78 120/73/78 121/74/78
f 122/75/78 121/74/78 120/73/78
f 120/73/79 123/76/79 122/75/79
f 124/77/79 122/75/79 123/76/79
f 123/76/80 125/78/80 124/77/80
f 126/79/80 124/77/80 125/78/80
f 125/78/25 42/80/25 126/79/25
f 41/81/25 126/79/25 42/80/25
f 55/80/50 127/78/50 128/79/50
f 129/77/81 128/79/81 127/78/81
f 127/78/81 130/76/81 129/77/81
f 131/75/82 129/77/82 130/76/82
f 130/76/82 132/73/82 131/75/82
f 133/74/83 131/75/83 132/73/83
f 132/73/83 134/72/83 133/74/83
f 135/62/61 136/60/61 137/61/61
f 138/59/84 139/61/84 140/60/84
f 141/60/84 142/58/84 143/59/84
f 144/57/61 145/59/61 146/58/61
f 146/58/61 147/55/61 144/57/61
f 148/56/85 144/57/85 147/55/85
f 147/55/85 149/54/85 148/56/85
f 63/48/59 150/50/59 64/49/59
f 70/51/59 64/49/59 150/50/59
f 150/50/58 151/53/58 70/51/58
f 68/52/58 70/51/58 151/53/58
f 151/53/57 65/50/57 68/52/57
f 66/51/57 68/52/57 65/50/57
f 108/67/86 152/82/86 153/65/86
f 154/67/87 153/65/87 152/82/87
f 152/82/88 155/83/88 154/67/88
f 107/69/89 154/67/89 155/83/89
f 155/83/90 156/84/90 107/69/90
f 157/83/91 107/69/91 156/84/91
f 58/85/61 95/86/61 57/87/61
f 158/85/61 57/87/61 95/86/61
f 95/86/61 96/88/61 158/85/61
f 159/89/92 158/85/92 96/88/92
f 96/88/92 97/90/92 159/89/92
f 98/91/50 159/89/50 97/90/50
f 160/92/53 161/93/53 162/94/53
f 163/95/53 162/94/53 161/93/53
f 161/93/53 164/96/53 163/95/53
f 165/97/53 163/95/53 164/96/53
f 164/96/53 166/98/53 165/97/53
f 167/99/53 165/97/53 166/98/53
f 168/83/93 117/69/93 169/84/93
f 170/83/94 169/84/94 117/69/94
f 117/69/95 171/67/95 170/83/95
f 172/82/96 170/83/96 171/67/96
f 171/67/97 173/65/97 172/82/97
f 118/67/98 172/82/98 173/65/98
f 174/92/63 175/93/63 176/94/63
f 177/95/63 176/94/63 175/93/63
f 175/93/63 178/96/63 177/95/63
f 179/97/63 177/95/63 178/96/63
f 178/96/63 180/98/63 179/97/63
f 181/99/63 179/97/63 180/98/63
f 77/100/99 126/101/99 182/102/99
f 183/103/53 182/102/53 126/101/53
f 126/101/53 62/47/53 183/103/53
f 128/101/53 183/103/53 62/47/53
f 62/47/53 54/45/53 128/101/53
f 55/45/63 184/47/63 127/101/63
f 185/103/63 127/101/63 184/47/63
f 184/47/63 125/101/63 185/103/63
f 186/102/63 185/103/63 125/101/63
f 125/101/100 78/100/100 186/102/100
f 95/39/63 187/40/63 49/38/63
f 51/41/63 49/38/63 187/40/63
f 187/40/63 188/42/63 51/41/63
f 53/43/63 51/41/63 188/42/63
f 188/42/63 189/44/63 53/43/63
f 190/98/63 191/96/63 192/97/63
f 193/95/63 192/97/63 191/96/63
f 191/96/63 194/93/63 193/95/63
f 195/94/63 193/95/63 194/93/63
f 194/93/63 196/92/63 195/94/63
f 197/94/53 198/95/53 199/93/53
f 200/96/53 199/93/53 198/95/53
f 198/95/53 201/97/53 200/96/53
f 202/98/53 200/96/53 201/97/53
f 201/97/53 203/99/53 202/98/53
f 98/90/101 204/88/101 205/89/101
f 206/85/101 205/89/101 204/88/101
f 204/88/102 184/86/102 206/85/102
f 62/87/102 206/85/102 184/86/102
f 184/86/102 61/85/102 62/87/102
f 57/39/53 158/40/53 35/38/53
f 37/41/53 35/38/53 158/40/53
f 158/40/53 159/42/53 37/41/53
f 39/43/53 37/41/53 159/42/53
f 159/42/53 205/44/53 39/43/53
f 207/104/103 208/105/103 209/106/103
f 210/107/104 209/106/104 208/105/104
f 208/105/104 211/108/104 210/107/104
f 212/105/105 210/107/105 211/108/105
f 105/69/106 103/67/106 107/70/106
f 154/71/106 107/70/106 103/67/106
f 103/67/77 100/65/77 154/71/77
f 153/109/77 154/71/77 100/65/77
f 148/110/63 132/111/63 144/112/63
f 145/100/63 144/112/63 132/111/63
f 132/111/63 130/113/63 145/100/63
f 127/101/107 145/100/107 130/113/107
f 183/103/53 128/101/53 213/102/53
f 146/100/108 213/102/108 128/101/108
f 128/101/109 129/113/109 146/100/109
f 131/111/53 146/100/53 129/113/53
f 146/100/53 131/111/53 147/112/53
f 149/110/53 147/112/53 131/111/53
f 131/111/53 133/114/53 149/110/53
f 214/115/53 149/110/53 133/114/53
f 126/101/110 77/100/110 124/113/110
f 122/111/53 124/113/53 77/100/53
f 77/100/53 74/112/53 122/111/53
f 73/110/53 122/111/53 74/112/53
f 78/100/63 120/111/63 76/112/63
f 75/110/63 76/112/63 120/111/63
f 120/111/63 119/114/63 75/110/63
f 215/115/63 75/110/63 119/114/63
f 201/116/61 198/117/61 179/118/61
f 177/119/61 179/118/61 198/117/61
f 198/117/111 197/120/111 177/119/111
f 176/121/111 177/119/111 197/120/111
f 200/122/112 202/123/112 178/124/112
f 180/125/113 178/124/113 202/123/113
f 202/123/25 203/126/25 180/125/25
f 181/127/25 180/125/25 203/126/25
f 212/128/61 211/129/61 216/130/61
f 207/131/61 216/130/61 211/129/61
f 211/129/61 208/132/61 207/131/61
f 99/64/114 106/67/114 100/65/114
f 153/109/115 100/65/115 106/67/115
f 106/67/115 108/71/115 153/109/115
f 184/86/102 217/88/102 61/85/102
f 60/89/116 61/85/116 217/88/116
f 217/88/116 189/90/116 60/89/116
f 43/24/102 56/133/102 94/134/102
f 31/24/102 94/134/102 56/133/102
f 56/133/102 29/22/102 31/24/102
f 187/88/117 59/89/117 188/90/117
f 189/91/25 188/90/25 59/89/25
f 59/89/25 60/135/25 189/91/25
f 195/127/25 196/125/25 162/126/25
f 160/123/25 162/126/25 196/125/25
f 196/125/118 161/122/118 160/123/118
f 167/126/50 166/123/50 190/125/50
f 191/124/119 190/125/119 166/123/119
f 166/123/120 164/122/120 191/124/120
f 134/72/102 218/136/102 133/74/102
f 214/137/102 133/74/102 218/136/102
f 218/136/121 149/138/121 214/137/121
f 162/120/122 163/117/122 193/119/122
f 192/118/61 193/119/61 163/117/61
f 163/117/61 165/116/61 192/118/61
f 48/38/53 56/37/53 46/36/53
f 45/139/53 46/36/53 56/37/53
f 56/37/53 219/140/53 45/139/53
f 36/38/63 94/37/63 34/36/63
f 32/139/63 34/36/63 94/37/63
f 94/37/63 31/140/63 32/139/63
f 98/44/123 42/45/123 204/46/123
f 184/47/63 204/46/63 42/45/63
f 42/45/63 125/101/63 184/47/63
f 199/122/124 174/125/124 220/123/124
f 197/126/50 220/123/50 174/125/50
f 174/125/50 176/127/50 197/126/50
f 73/138/125 215/136/125 221/137/125
f 121/74/102 221/137/102 215/136/102
f 215/136/102 119/72/102 121/74/102
f 115/69/115 113/67/115 117/70/115
f 171/71/115 117/70/115 113/67/115
f 113/67/70 173/109/70 171/71/70
f 126/101/53 41/45/53 62/47/53
f 206/46/53 62/47/53 41/45/53
f 41/45/126 205/44/126 206/46/126
f 222/132/61 223/129/61 224/131/61
f 225/130/61 224/131/61 223/129/61
f 223/129/61 226/128/61 225/130/61
f 222/105/127 227/107/127 223/108/127
f 226/105/128 223/108/128 227/107/128
f 227/107/128 228/106/128 226/105/128
f 151/141/50 150/142/50 63/143/50
f 65/142/50 151/141/50 63/143/50
f 108/144/129 157/145/129 152/146/129
f 157/145/130 108/144/130 107/147/130
f 3/148/102 17/149/102 1/150/102
f 17/149/102 3/148/102 15/150/102
f 229/151/53 230/152/53 231/153/53
f 232/152/63 233/151/63 234/153/63
f 235/154/131 145/155/131 127/156/131
f 185/157/63 235/154/63 127/156/63
f 236/158/53 237/151/53 238/153/53
f 239/151/63 240/158/63 241/153/63
f 184/159/63 55/160/63 217/161/63
f 189/162/132 217/161/132 55/160/132
f 94/163/63 47/164/63 44/165/63
f 43/166/63 94/163/63 44/165/63
f 164/167/102 161/168/102 194/169/102
f 191/170/102 164/167/102 194/169/102
f 165/171/133 167/172/133 242/173/133
f 192/174/133 165/171/133 242/173/133
f 148/175/63 218/176/63 134/177/63
f 132/178/63 148/175/63 134/177/63
f 187/179/61 95/180/61 58/181/61
f 58/181/117 59/182/117 187/179/117
f 200/167/102 178/170/102 175/169/102
f 199/168/102 200/167/102 175/169/102
f 56/163/53 33/164/53 30/165/53
f 29/166/53 56/163/53 30/165/53
f 122/178/53 73/175/53 121/177/53
f 73/175/53 221/176/53 121/177/53
f 71/142/25 69/143/25 72/141/25
f 69/143/25 67/142/25 72/141/25
f 168/145/134 172/146/134 118/144/134
f 168/145/135 118/144/135 117/147/135
f 116/144/106 118/183/106 110/184/106
f 118/183/106 173/185/106 110/184/106
f 109/186/136 114/187/136 116/144/136
f 109/186/137 116/144/137 110/184/137
f 125/188/138 123/189/138 78/190/138
f 123/189/63 120/191/63 78/190/63
f 203/172/139 201/171/139 181/173/139
f 201/171/140 179/174/140 181/173/140
f 243/192/105 210/193/105 212/194/105
f 2/195/141 1/196/141 17/197/141
f 55/160/142 53/198/142 189/162/142
f 193/174/122 195/173/122 162/172/122
f 192/169/63 242/199/63 190/200/63
f 54/201/50 55/202/50 128/203/50
f 148/204/121 149/205/121 218/206/121
f 194/207/118 161/208/118 196/209/118
f 242/210/50 167/211/50 190/212/50
f 219/213/102 56/214/102 43/215/102
f 219/213/48 43/215/48 45/216/48
f 99/186/143 104/187/143 106/144/143
f 12/217/144 14/218/144 27/219/144
f 110/184/70 173/185/70 113/144/70
f 205/220/50 159/182/50 98/221/50
f 40/198/145 42/160/145 98/162/145
f 73/205/125 75/204/125 215/206/125
f 199/208/124 175/207/124 174/209/124
f 41/160/146 39/198/146 205/162/146
f 199/222/53 220/223/53 197/224/53
f 224/225/53 244/192/53 222/194/53
f 243/192/147 212/194/147 216/225/147
f 226/194/63 228/192/63 225/225/63
f 244/192/127 227/193/127 222/194/127
