mtllib miragesplit.mtl
v -1.074250 -38.752399 -0.000008
v -1.074250 -42.966999 -0.000009
v 1.074250 -42.966999 -0.000009
v 1.074250 -38.752399 -0.000008
v -1.074250 -38.752399 -0.000008
v 1.074250 -42.966999 -0.000009
v 1.074250 -33.173599 -0.000006
v -1.074250 -33.173599 -0.000006
v 1.074250 -37.388199 -0.000008
v -1.074250 -27.567398 -0.000005
v -1.074250 -31.782001 -0.000006
v 1.074250 -31.782001 -0.000006
v 0.000000 -41.587601 -1.797549
v 0.000000 -45.939499 -1.797549
v 0.000000 -45.939499 1.797531
v 0.000000 -41.587601 1.797531
v 0.000000 -41.587601 -1.797549
v 0.000000 -45.939499 1.797531
v 0.000000 -35.984402 1.797532
v 0.000000 -35.984402 -1.797547
v 0.000000 -40.333302 1.797531
v 0.000000 -30.420898 -1.797546
v 0.000000 -34.772800 -1.797547
v 0.000000 -34.772800 1.797532
v -1.074250 -37.388199 -0.000008
v -1.074250 -33.173599 -0.000006
v 1.074250 -37.388199 -0.000008
v -1.074250 -27.567398 -0.000005
v 1.074250 -27.567398 -0.000005
v 1.074250 -31.782001 -0.000006
v 0.000000 -40.333302 -1.797549
v 0.000000 -35.984402 -1.797547
v 0.000000 -40.333302 1.797531
v 0.000000 -30.420898 -1.797546
v 0.000000 -30.420898 1.797534
v 0.000000 -34.772800 1.797532
v 0.000000 -21.289700 -0.000004
v 0.000000 -22.763802 -1.922675
v 0.000000 -22.763802 1.922665
v 0.000000 -22.763802 -1.922675
v 0.000000 -24.381199 -1.922675
v 0.000000 -24.381199 1.922665
v 0.000000 -29.099400 -1.745666
v 0.000000 -24.381199 -1.922675
v 0.000000 -29.099400 1.745654
v 0.000000 -24.381199 -1.922675
v 0.000000 -24.381199 1.922665
v 0.000000 -29.099400 1.745654
v 0.000000 -22.763802 -1.922675
v 0.000000 -22.763802 1.922665
v 0.000000 -24.381199 1.922665
v 0.000000 -39.799202 -5.105759
v 0.000000 -43.928303 -2.706999
v 0.000000 -50.935398 -7.556391
v 0.000000 -43.928303 -2.706999
v 0.000000 -59.584301 1.083397
v 0.000000 -50.935398 -7.556391
v 0.000000 -43.928303 -2.706999
v 0.000000 -43.928303 4.254271
v 0.000000 -59.584301 1.083397
v -1.074250 -38.752399 -0.000008
v 1.074250 -42.966999 -0.000009
v -1.074250 -42.966999 -0.000009
v 1.074250 -38.752399 -0.000008
v 1.074250 -42.966999 -0.000009
v -1.074250 -38.752399 -0.000008
v 1.074250 -33.173599 -0.000006
v 1.074250 -37.388199 -0.000008
v -1.074250 -33.173599 -0.000006
v -1.074250 -27.567398 -0.000005
v 1.074250 -31.782001 -0.000006
v -1.074250 -31.782001 -0.000006
v 0.000000 -41.587601 -1.797549
v 0.000000 -45.939499 1.797531
v 0.000000 -45.939499 -1.797549
v 0.000000 -41.587601 1.797531
v 0.000000 -45.939499 1.797531
v 0.000000 -41.587601 -1.797549
v 0.000000 -35.984402 1.797532
v 0.000000 -40.333302 1.797531
v 0.000000 -35.984402 -1.797547
v 0.000000 -30.420898 -1.797546
v 0.000000 -34.772800 1.797532
v 0.000000 -34.772800 -1.797547
v -1.074250 -37.388199 -0.000008
v 1.074250 -37.388199 -0.000008
v -1.074250 -33.173599 -0.000006
v -1.074250 -27.567398 -0.000005
v 1.074250 -31.782001 -0.000006
v 1.074250 -27.567398 -0.000005
v 0.000000 -40.333302 -1.797549
v 0.000000 -40.333302 1.797531
v 0.000000 -35.984402 -1.797547
v 0.000000 -30.420898 -1.797546
v 0.000000 -34.772800 1.797532
v 0.000000 -30.420898 1.797534
v 0.000000 -21.289700 -0.000004
v 0.000000 -22.763802 1.922665
v 0.000000 -22.763802 -1.922675
v 0.000000 -22.763802 -1.922675
v 0.000000 -24.381199 1.922665
v 0.000000 -24.381199 -1.922675
v 0.000000 -29.099400 -1.745666
v 0.000000 -29.099400 1.745654
v 0.000000 -24.381199 -1.922675
v 0.000000 -24.381199 -1.922675
v 0.000000 -29.099400 1.745654
v 0.000000 -24.381199 1.922665
v 0.000000 -22.763802 -1.922675
v 0.000000 -24.381199 1.922665
v 0.000000 -22.763802 1.922665
v 0.000000 -39.799202 -5.105759
v 0.000000 -50.935398 -7.556391
v 0.000000 -43.928303 -2.706999
v 0.000000 -43.928303 -2.706999
v 0.000000 -50.935398 -7.556391
v 0.000000 -59.584301 1.083397
v 0.000000 -43.928303 -2.706999
v 0.000000 -59.584301 1.083397
v 0.000000 -43.928303 4.254271
vt 0.762695 0.017578
vt 0.762695 0.466797
vt 0.603027 0.466797
vt 0.603027 0.017578
vt 0.762695 0.017578
vt 0.603027 0.466797
vt 0.603027 0.017578
vt 0.762695 0.017578
vt 0.603027 0.466797
vt 0.762695 0.017578
vt 0.762695 0.466797
vt 0.603027 0.466797
vt 0.587891 0.466797
vt 0.587891 0.017578
vt 0.773926 0.017578
vt 0.773926 0.466797
vt 0.587891 0.466797
vt 0.773926 0.017578
vt 0.773926 0.466797
vt 0.587891 0.466797
vt 0.773926 0.017578
vt 0.587891 0.466797
vt 0.587891 0.017578
vt 0.773926 0.017578
vt 0.603027 0.017578
vt 0.603027 0.466797
vt 0.762695 0.017578
vt 0.603027 0.466797
vt 0.762695 0.466797
vt 0.762695 0.017578
vt 0.587891 0.017578
vt 0.587891 0.466797
vt 0.773926 0.017578
vt 0.587891 0.466797
vt 0.773926 0.466797
vt 0.773926 0.017578
vt 0.891602 0.805664
vt 0.794434 0.656250
vt 0.989258 0.656250
vt 0.794434 0.656250
vt 0.794434 0.492676
vt 0.989258 0.492676
vt 0.803223 0.014649
vt 0.794434 0.492676
vt 0.980469 0.014649
vt 0.794434 0.492676
vt 0.989258 0.492676
vt 0.980469 0.014649
vt 0.794434 0.656250
vt 0.989258 0.656250
vt 0.989258 0.492676
vt 0.716309 0.804199
vt 0.568848 0.632813
vt 0.318848 0.979492
vt 0.568848 0.632813
vt 0.009766 0.361817
vt 0.318848 0.979492
vt 0.568848 0.632813
vt 0.568848 0.135254
vt 0.009766 0.361817
vt 0.762695 0.017578
vt 0.603027 0.466797
vt 0.762695 0.466797
vt 0.603027 0.017578
vt 0.603027 0.466797
vt 0.762695 0.017578
vt 0.603027 0.017578
vt 0.603027 0.466797
vt 0.762695 0.017578
vt 0.762695 0.017578
vt 0.603027 0.466797
vt 0.762695 0.466797
vt 0.587891 0.466797
vt 0.773926 0.017578
vt 0.587891 0.017578
vt 0.773926 0.466797
vt 0.773926 0.017578
vt 0.587891 0.466797
vt 0.773926 0.466797
vt 0.773926 0.017578
vt 0.587891 0.466797
vt 0.587891 0.466797
vt 0.773926 0.017578
vt 0.587891 0.017578
vt 0.603027 0.017578
vt 0.762695 0.017578
vt 0.603027 0.466797
vt 0.603027 0.466797
vt 0.762695 0.017578
vt 0.762695 0.466797
vt 0.587891 0.017578
vt 0.773926 0.017578
vt 0.587891 0.466797
vt 0.587891 0.466797
vt 0.773926 0.017578
vt 0.773926 0.466797
vt 0.891602 0.805664
vt 0.989258 0.656250
vt 0.794434 0.656250
vt 0.794434 0.656250
vt 0.989258 0.492676
vt 0.794434 0.492676
vt 0.803223 0.014649
vt 0.980469 0.014649
vt 0.794434 0.492676
vt 0.794434 0.492676
vt 0.980469 0.014649
vt 0.989258 0.492676
vt 0.794434 0.656250
vt 0.989258 0.492676
vt 0.989258 0.656250
vt 0.716309 0.804199
vt 0.318848 0.979492
vt 0.568848 0.632813
vt 0.568848 0.632813
vt 0.318848 0.979492
vt 0.009766 0.361817
vt 0.568848 0.632813
vt 0.009766 0.361817
vt 0.568848 0.135254
vn 0.0000 -0.0000 1.0000
vn -1.0000 0.0000 0.0000
vn 0.0000 0.0000 -1.0000
vn 1.0000 0.0000 0.0000
o keychain
usemtl Brush.063
f 1/1/1 2/2/1 3/3/1
f 4/4/1 5/5/1 6/6/1
f 7/7/1 8/8/1 9/9/1
f 10/10/1 11/11/1 12/12/1
f 13/13/2 14/14/2 15/15/2
f 16/16/2 17/17/2 18/18/2
f 19/19/2 20/20/2 21/21/2
f 22/22/2 23/23/2 24/24/2
f 25/25/3 26/26/3 27/27/3
f 28/28/3 29/29/3 30/30/3
f 31/31/4 32/32/4 33/33/4
f 34/34/4 35/35/4 36/36/4
f 37/37/2 38/38/2 39/39/2
f 40/40/2 41/41/2 42/42/2
f 43/43/4 44/44/4 45/45/4
f 46/46/4 47/47/4 48/48/4
f 49/49/4 50/50/4 51/51/4
f 52/52/4 53/53/4 54/54/4
f 55/55/4 56/56/4 57/57/4
f 58/58/4 59/59/4 60/60/4
f 61/61/3 62/62/3 63/63/3
f 64/64/3 65/65/3 66/66/3
f 67/67/3 68/68/3 69/69/3
f 70/70/3 71/71/3 72/72/3
f 73/73/4 74/74/4 75/75/4
f 76/76/4 77/77/4 78/78/4
f 79/79/4 80/80/4 81/81/4
f 82/82/4 83/83/4 84/84/4
f 85/85/1 86/86/1 87/87/1
f 88/88/1 89/89/1 90/90/1
f 91/91/2 92/92/2 93/93/2
f 94/94/2 95/95/2 96/96/2
f 97/97/4 98/98/4 99/99/4
f 100/100/4 101/101/4 102/102/4
f 103/103/2 104/104/2 105/105/2
f 106/106/2 107/107/2 108/108/2
f 109/109/2 110/110/2 111/111/2
f 112/112/2 113/113/2 114/114/2
f 115/115/2 116/116/2 117/117/2
f 118/118/2 119/119/2 120/120/2
