mtllib noname.mtl
v -0.000005 -30.792437 3.799600
v -0.000006 -30.792437 -3.799600
v -0.000006 -35.423534 3.799600
v -0.000007 -35.423534 -3.799600
v -0.000006 -35.423534 3.799600
v -0.000006 -30.792437 -3.799600
v -0.000006 -30.792437 -3.799600
v -0.000006 -35.423534 3.799600
v -0.000007 -35.423534 -3.799600
v -0.000005 -26.264835 3.799600
v -0.000006 -26.264835 -3.799600
v -0.000005 -30.896034 3.799600
v -0.000006 -30.896034 -3.799600
v -0.000005 -30.896034 3.799600
v -0.000006 -26.264835 -3.799600
v -0.000006 -26.264835 -3.799600
v -0.000005 -30.896034 3.799600
v -0.000006 -30.896034 -3.799600
v -0.000005 -26.423836 3.799600
v -0.000005 -21.794336 -3.799600
v -0.000006 -26.423836 -3.799600
v -0.000005 -26.423836 3.799600
v -0.000006 -26.423836 -3.799600
v -0.000005 -21.794336 -3.799600
v -0.000005 -21.794336 -3.799600
v -0.000004 -21.794336 3.799600
v -0.000005 -26.423836 3.799600
v -1.256207 -38.032135 0.000000
v 1.256194 -38.032135 -0.000000
v -1.256207 -41.489437 0.000000
v 1.256193 -41.489437 -0.000000
v -1.256207 -41.489437 0.000000
v 1.256194 -38.032135 -0.000000
v 1.256194 -38.032135 -0.000000
v -1.256207 -41.489437 0.000000
v 1.256193 -41.489437 -0.000000
v -0.000006 -35.256435 3.799600
v -0.000006 -39.887535 3.799600
v -0.000007 -35.256435 -3.799600
v -0.000006 -39.887535 3.799600
v -0.000007 -39.887535 -3.799600
v -0.000007 -35.256435 -3.799600
v -1.256207 -37.003437 0.000000
v -1.256206 -33.546135 0.000000
v 1.256194 -33.546135 -0.000000
v -1.256206 -33.546135 0.000000
v -1.256207 -37.003437 0.000000
v 1.256194 -33.546135 -0.000000
v 1.256194 -37.003437 -0.000000
v -1.256207 -37.003437 0.000000
v 1.256194 -33.546135 -0.000000
v -1.256207 -37.003437 0.000000
v 1.256194 -37.003437 -0.000000
v 1.256194 -33.546135 -0.000000
v -0.000006 -39.342232 6.122100
v -0.000007 -49.373135 6.122100
v -0.000008 -39.342232 -6.122100
v -0.000007 -49.373135 6.122100
v -0.000006 -39.342232 6.122100
v -0.000008 -39.342232 -6.122100
v -0.000007 -49.373135 6.122100
v -0.000009 -49.372337 -6.122100
v -0.000008 -39.342232 -6.122100
v -0.000009 -49.372337 -6.122100
v -0.000007 -49.373135 6.122100
v -0.000008 -39.342232 -6.122100
v -1.256205 -24.563534 0.000000
v -1.256205 -28.020037 0.000000
v 1.256195 -24.563536 -0.000000
v -1.256205 -28.020037 0.000000
v -1.256205 -24.563534 0.000000
v 1.256195 -24.563536 -0.000000
v -1.256205 -28.020037 0.000000
v 1.256195 -28.020037 -0.000000
v 1.256195 -24.563536 -0.000000
v 1.256195 -28.020037 -0.000000
v -1.256205 -28.020037 0.000000
v 1.256195 -24.563536 -0.000000
v -1.256206 -29.048735 0.000000
v -1.256206 -32.506035 0.000000
v 1.256194 -29.048735 -0.000000
v -1.256206 -32.506035 0.000000
v -1.256206 -29.048735 0.000000
v 1.256194 -29.048735 -0.000000
v -1.256206 -32.506035 0.000000
v 1.256194 -32.506035 -0.000000
v 1.256194 -29.048735 -0.000000
v 1.256194 -32.506035 -0.000000
v -1.256206 -32.506035 0.000000
v 1.256194 -29.048735 -0.000000
v -0.000006 -39.887535 3.799600
v -0.000006 -35.256435 3.799600
v -0.000007 -35.256435 -3.799600
v -0.000007 -39.887535 -3.799600
v -0.000006 -39.887535 3.799600
v -0.000007 -35.256435 -3.799600
v -0.000005 -30.792437 3.799600
v -0.000006 -35.423534 3.799600
v -0.000006 -30.792437 -3.799600
v -0.000005 -26.264835 3.799600
v -0.000005 -30.896034 3.799600
v -0.000006 -26.264835 -3.799600
v -0.000005 -26.423836 3.799600
v -0.000004 -21.794336 3.799600
v -0.000005 -21.794336 -3.799600
v -1.256207 -38.032135 0.000000
v -1.256207 -41.489437 0.000000
v 1.256194 -38.032135 -0.000000
vt 0.785449 0.302935
vt 0.785449 0.995848
vt 0.990173 0.302935
vt 0.990173 0.995848
vt 0.990173 0.302935
vt 0.785449 0.995848
vt 0.785449 0.995848
vt 0.990173 0.302935
vt 0.990173 0.995848
vt 0.785449 0.302935
vt 0.785449 0.995848
vt 0.990173 0.302935
vt 0.990173 0.995848
vt 0.990173 0.302935
vt 0.785449 0.995848
vt 0.785449 0.995848
vt 0.990173 0.302935
vt 0.990173 0.995848
vt 0.990173 0.302935
vt 0.785449 0.995848
vt 0.990173 0.995848
vt 0.990173 0.302935
vt 0.990173 0.995848
vt 0.785449 0.995848
vt 0.785449 0.995848
vt 0.785449 0.302935
vt 0.990173 0.302935
vt 0.990173 0.271438
vt 0.990173 0.050966
vt 0.706708 0.271438
vt 0.706708 0.050966
vt 0.706708 0.271438
vt 0.990173 0.050966
vt 0.990173 0.050966
vt 0.706708 0.271438
vt 0.706708 0.050966
vt 0.790502 0.295620
vt 0.995226 0.295620
vt 0.790502 0.988533
vt 0.995226 0.295620
vt 0.995226 0.988533
vt 0.790502 0.988533
vt 0.711761 0.264123
vt 0.995226 0.264123
vt 0.995226 0.043651
vt 0.995226 0.264123
vt 0.711761 0.264123
vt 0.995226 0.043651
vt 0.711761 0.043651
vt 0.711761 0.264123
vt 0.995226 0.043651
vt 0.711761 0.264123
vt 0.711761 0.043651
vt 0.995226 0.043651
vt 0.018848 0.988533
vt 0.018848 0.043651
vt 0.680265 0.988533
vt 0.018848 0.043651
vt 0.018848 0.988533
vt 0.680265 0.988533
vt 0.018848 0.043651
vt 0.680265 0.043651
vt 0.680265 0.988533
vt 0.680265 0.043651
vt 0.018848 0.043651
vt 0.680265 0.988533
vt 0.995226 0.264123
vt 0.711761 0.264123
vt 0.995226 0.043651
vt 0.711761 0.264123
vt 0.995226 0.264123
vt 0.995226 0.043651
vt 0.711761 0.264123
vt 0.711761 0.043651
vt 0.995226 0.043651
vt 0.711761 0.043651
vt 0.711761 0.264123
vt 0.995226 0.043651
vt 0.995226 0.264123
vt 0.711761 0.264123
vt 0.995226 0.043651
vt 0.711761 0.264123
vt 0.995226 0.264123
vt 0.995226 0.043651
vt 0.711761 0.264123
vt 0.711761 0.043651
vt 0.995226 0.043651
vt 0.711761 0.043651
vt 0.711761 0.264123
vt 0.995226 0.043651
vt 0.995226 0.295620
vt 0.790502 0.295620
vt 0.790502 0.988533
vt 0.995226 0.988533
vt 0.995226 0.295620
vt 0.790502 0.988533
vt 0.790502 0.295620
vt 0.995226 0.295620
vt 0.790502 0.988533
vt 0.790502 0.295620
vt 0.995226 0.295620
vt 0.790502 0.988533
vt 0.995226 0.295620
vt 0.790502 0.295620
vt 0.790502 0.988533
vt 0.995226 0.264123
vt 0.711761 0.264123
vt 0.995226 0.043651
vn -1.0000 0.0000 0.0000
vn 1.0000 -0.0000 -0.0000
vn -0.0000 -0.0000 -1.0000
vn 0.0000 -0.0000 1.0000
o keychain
usemtl Brush.061
f 1/1/1 2/2/1 3/3/1
f 4/4/1 5/5/1 6/6/1
f 7/7/2 8/8/2 9/9/2
f 10/10/1 11/11/1 12/12/1
f 13/13/1 14/14/1 15/15/1
f 16/16/2 17/17/2 18/18/2
f 19/19/1 20/20/1 21/21/1
f 22/22/2 23/23/2 24/24/2
f 25/25/2 26/26/2 27/27/2
f 28/28/3 29/29/3 30/30/3
f 31/31/3 32/32/3 33/33/3
f 34/34/4 35/35/4 36/36/4
f 37/37/2 38/38/2 39/39/2
f 40/40/2 41/41/2 42/42/2
f 43/43/3 44/44/3 45/45/3
f 46/46/4 47/47/4 48/48/4
f 49/49/3 50/50/3 51/51/3
f 52/52/4 53/53/4 54/54/4
f 55/55/2 56/56/2 57/57/2
f 58/58/1 59/59/1 60/60/1
f 61/61/2 62/62/2 63/63/2
f 64/64/1 65/65/1 66/66/1
f 67/67/4 68/68/4 69/69/4
f 70/70/3 71/71/3 72/72/3
f 73/73/4 74/74/4 75/75/4
f 76/76/3 77/77/3 78/78/3
f 79/79/4 80/80/4 81/81/4
f 82/82/3 83/83/3 84/84/3
f 85/85/4 86/86/4 87/87/4
f 88/88/3 89/89/3 90/90/3
f 91/91/1 92/92/1 93/93/1
f 94/94/1 95/95/1 96/96/1
f 97/97/2 98/98/2 99/99/2
f 100/100/2 101/101/2 102/102/2
f 103/103/1 104/104/1 105/105/1
f 106/106/4 107/107/4 108/108/4
