mtllib nonamebbs.mtl
v 0.000002 -27.909777 0.000000
v 0.000001 -24.554577 -2.631400
v 0.000000 -21.198277 0.000000
v 0.000001 -24.554577 2.631400
v 0.000002 -27.909777 0.000000
v 0.000000 -21.198277 0.000000
v 0.000001 -24.554577 -2.631400
v 0.000002 -27.909777 0.000000
v 0.000000 -21.198277 0.000000
v 0.000002 -27.909777 0.000000
v 0.000001 -24.554577 2.631400
v 0.000000 -21.198277 0.000000
v -0.000000 -17.658278 -1.643600
v 0.000000 -20.786077 -1.643600
v -0.000000 -17.658278 1.643600
v 0.000000 -20.786077 -1.643600
v -0.000000 -17.658278 -1.643600
v -0.000000 -17.658278 1.643600
v 0.000000 -20.786077 1.643600
v 0.000000 -20.786077 -1.643600
v -0.000000 -17.658278 1.643600
v 0.000000 -20.786077 -1.643600
v 0.000000 -20.786077 1.643600
v -0.000000 -17.658278 1.643600
v 0.000003 -33.910580 0.000000
v 0.000002 -30.554379 -2.631400
v 0.000001 -27.198076 0.000000
v 0.000002 -30.554379 2.631400
v 0.000003 -33.910580 0.000000
v 0.000001 -27.198076 0.000000
v 0.000002 -30.554379 -2.631400
v 0.000003 -33.910580 0.000000
v 0.000001 -27.198076 0.000000
v 0.000003 -33.910580 0.000000
v 0.000002 -30.554379 2.631400
v 0.000001 -27.198076 0.000000
v -1.643598 -28.963476 0.000000
v -1.643599 -25.833679 0.000000
v 1.643601 -25.833679 0.000000
v -1.643599 -25.833679 0.000000
v -1.643598 -28.963476 0.000000
v 1.643601 -25.833679 0.000000
v 0.000004 -39.910378 0.000000
v 0.000003 -36.554176 -2.631400
v 0.000002 -33.198879 0.000000
v 0.000003 -36.554176 2.631400
v 0.000004 -39.910378 0.000000
v 0.000002 -33.198879 0.000000
v 0.000003 -36.554176 -2.631400
v 0.000004 -39.910378 0.000000
v 0.000002 -33.198879 0.000000
v 0.000004 -39.910378 0.000000
v 0.000003 -36.554176 2.631400
v 0.000002 -33.198879 0.000000
v -1.643600 -19.833878 0.000000
v -1.643599 -22.962677 0.000000
v 1.643600 -19.833878 0.000000
v 1.643602 -28.963476 0.000000
v -1.643598 -28.963476 0.000000
v 1.643601 -25.833679 0.000000
v -1.643598 -28.963476 0.000000
v 1.643602 -28.963476 0.000000
v 1.643601 -25.833679 0.000000
v 1.643603 -34.963375 0.000000
v -1.643597 -34.963375 0.000000
v 1.643602 -31.833475 0.000000
v 0.000005 -51.555676 -3.052700
v 0.000005 -51.554680 0.000000
v 0.000004 -42.763077 -3.052700
v 1.643604 -40.963181 0.000000
v -1.643596 -40.963181 0.000000
v 1.643603 -37.834278 0.000000
v 0.000003 -39.634277 -1.643600
v 0.000004 -42.763077 0.000000
v 0.000003 -39.634277 0.000000
v 0.000003 -39.634277 1.643600
v 0.000003 -39.634277 0.000000
v 0.000004 -42.763077 0.000000
v 0.000004 -42.763077 0.000000
v 0.000004 -42.763077 1.643600
v 0.000003 -39.634277 1.643600
v 0.000004 -42.763077 0.000000
v 0.000003 -39.634277 1.643600
v 0.000004 -42.763077 1.643600
v 0.000004 -42.763077 0.000000
v 0.000003 -39.634277 -1.643600
v 0.000004 -42.763077 -1.643600
v 0.000004 -42.763077 0.000000
v 0.000004 -42.763077 -1.643600
v 0.000003 -39.634277 -1.643600
v 0.000003 -39.634277 -1.643600
v 0.000003 -39.634277 0.000000
v 0.000004 -42.763077 0.000000
v 0.000003 -39.634277 1.643600
v 0.000004 -42.763077 0.000000
v 0.000003 -39.634277 0.000000
v 0.000005 -51.554680 0.000000
v 0.000004 -42.763077 3.052700
v 0.000005 -51.555676 3.052700
v 0.000005 -51.554680 0.000000
v 0.000005 -51.555676 3.052700
v 0.000004 -42.763077 3.052700
v 0.000004 -42.763077 3.052700
v 0.000004 -42.763077 0.000000
v 0.000005 -51.554680 0.000000
v 0.000004 -42.763077 -3.052700
v 0.000005 -51.554680 0.000000
v 0.000004 -42.763077 0.000000
v 0.000004 -42.763077 3.052700
v 0.000005 -51.554680 0.000000
v 0.000004 -42.763077 0.000000
v 0.000004 -42.763077 -3.052700
v 0.000004 -42.763077 0.000000
v 0.000005 -51.554680 0.000000
v 0.000005 -51.554680 0.000000
v 0.000005 -51.555676 -3.052700
v 0.000004 -42.763077 -3.052700
v 1.643603 -37.834278 0.000000
v -1.643596 -40.963181 0.000000
v -1.643597 -37.834278 0.000000
v 1.643603 -37.834278 0.000000
v -1.643597 -37.834278 0.000000
v -1.643596 -40.963181 0.000000
v -1.643596 -40.963181 0.000000
v 1.643604 -40.963181 0.000000
v 1.643603 -37.834278 0.000000
v 1.643600 -19.833878 0.000000
v -1.643599 -22.962677 0.000000
v 1.643601 -22.962677 0.000000
v 1.643600 -19.833878 0.000000
v 1.643601 -22.962677 0.000000
v -1.643599 -22.962677 0.000000
v -1.643599 -22.962677 0.000000
v -1.643600 -19.833878 0.000000
v 1.643600 -19.833878 0.000000
v 1.643602 -31.833475 0.000000
v -1.643597 -34.963375 0.000000
v -1.643598 -31.833475 0.000000
v 1.643602 -31.833475 0.000000
v -1.643598 -31.833475 0.000000
v -1.643597 -34.963375 0.000000
v -1.643597 -34.963375 0.000000
v 1.643603 -34.963375 0.000000
v 1.643602 -31.833475 0.000000
vt 0.393701 0.976378
vt 0.692913 0.535433
vt 0.992126 0.976378
vt 0.692913 0.535433
vt 0.393701 0.976378
vt 0.992126 0.976378
vt 0.692913 0.535433
vt 0.393701 0.976378
vt 0.992126 0.976378
vt 0.393701 0.976378
vt 0.692913 0.535433
vt 0.992126 0.976378
vt 0.740157 0.535433
vt 0.740157 0.031496
vt 0.992126 0.535433
vt 0.740157 0.031496
vt 0.740157 0.535433
vt 0.992126 0.535433
vt 0.992126 0.031496
vt 0.740157 0.031496
vt 0.992126 0.535433
vt 0.740157 0.031496
vt 0.992126 0.031496
vt 0.992126 0.535433
vt 0.393701 0.976378
vt 0.692913 0.535433
vt 0.992126 0.976378
vt 0.692913 0.535433
vt 0.393701 0.976378
vt 0.992126 0.976378
vt 0.692913 0.535433
vt 0.393701 0.976378
vt 0.992126 0.976378
vt 0.393701 0.976378
vt 0.692913 0.535433
vt 0.992126 0.976378
vt 0.015748 0.535433
vt 0.015748 0.976378
vt 0.236220 0.976378
vt 0.015748 0.976378
vt 0.015748 0.535433
vt 0.236220 0.976378
vt 0.393701 0.976378
vt 0.692913 0.535433
vt 0.992126 0.976378
vt 0.692913 0.535433
vt 0.393701 0.976378
vt 0.992126 0.976378
vt 0.692913 0.535433
vt 0.393701 0.976378
vt 0.992126 0.976378
vt 0.393701 0.976378
vt 0.692913 0.535433
vt 0.992126 0.976378
vt 0.015748 0.976378
vt 0.015748 0.535433
vt 0.236220 0.976378
vt 0.236220 0.535433
vt 0.015748 0.535433
vt 0.236220 0.976378
vt 0.015748 0.535433
vt 0.236220 0.535433
vt 0.236220 0.976378
vt 0.236220 0.535433
vt 0.015748 0.535433
vt 0.236220 0.976378
vt 0.015748 0.472441
vt 0.015748 0.031496
vt 0.677165 0.472441
vt 0.236220 0.535433
vt 0.015748 0.535433
vt 0.236220 0.976378
vt 0.488189 0.535433
vt 0.267717 0.755905
vt 0.488189 0.755905
vt 0.488189 0.535433
vt 0.488189 0.755905
vt 0.267717 0.755905
vt 0.267717 0.755905
vt 0.267717 0.535433
vt 0.488189 0.535433
vt 0.267717 0.755905
vt 0.488189 0.535433
vt 0.267717 0.535433
vt 0.267717 0.755905
vt 0.488189 0.535433
vt 0.267717 0.535433
vt 0.267717 0.755905
vt 0.267717 0.535433
vt 0.488189 0.535433
vt 0.488189 0.535433
vt 0.488189 0.755905
vt 0.267717 0.755905
vt 0.488189 0.535433
vt 0.267717 0.755905
vt 0.488189 0.755905
vt 0.015748 0.031496
vt 0.677165 0.472441
vt 0.015748 0.472441
vt 0.015748 0.031496
vt 0.015748 0.472441
vt 0.677165 0.472441
vt 0.677165 0.472441
vt 0.677165 0.031496
vt 0.015748 0.031496
vt 0.677165 0.472441
vt 0.015748 0.031496
vt 0.677165 0.031496
vt 0.677165 0.472441
vt 0.015748 0.031496
vt 0.677165 0.031496
vt 0.677165 0.472441
vt 0.677165 0.031496
vt 0.015748 0.031496
vt 0.015748 0.031496
vt 0.015748 0.472441
vt 0.677165 0.472441
vt 0.236220 0.976378
vt 0.015748 0.535433
vt 0.015748 0.976378
vt 0.236220 0.976378
vt 0.015748 0.976378
vt 0.015748 0.535433
vt 0.015748 0.535433
vt 0.236220 0.535433
vt 0.236220 0.976378
vt 0.236220 0.976378
vt 0.015748 0.535433
vt 0.236220 0.535433
vt 0.236220 0.976378
vt 0.236220 0.535433
vt 0.015748 0.535433
vt 0.015748 0.535433
vt 0.015748 0.976378
vt 0.236220 0.976378
vt 0.236220 0.976378
vt 0.015748 0.535433
vt 0.015748 0.976378
vt 0.236220 0.976378
vt 0.015748 0.976378
vt 0.015748 0.535433
vt 0.015748 0.535433
vt 0.236220 0.535433
vt 0.236220 0.976378
vn 1.0000 0.0000 0.0000
vn -1.0000 -0.0000 0.0000
vn 0.0000 0.0000 -1.0000
vn 0.0000 0.0000 1.0000
o keychain
usemtl Brush.071
f 1/1/1 2/2/1 3/3/1
f 4/4/1 5/5/1 6/6/1
f 7/7/2 8/8/2 9/9/2
f 10/10/2 11/11/2 12/12/2
f 13/13/2 14/14/2 15/15/2
f 16/16/1 17/17/1 18/18/1
f 19/19/1 20/20/1 21/21/1
f 22/22/2 23/23/2 24/24/2
f 25/25/1 26/26/1 27/27/1
f 28/28/1 29/29/1 30/30/1
f 31/31/2 32/32/2 33/33/2
f 34/34/2 35/35/2 36/36/2
f 37/37/3 38/38/3 39/39/3
f 40/40/4 41/41/4 42/42/4
f 43/43/1 44/44/1 45/45/1
f 46/46/1 47/47/1 48/48/1
f 49/49/2 50/50/2 51/51/2
f 52/52/2 53/53/2 54/54/2
f 55/55/4 56/56/4 57/57/4
f 58/58/3 59/59/3 60/60/3
f 61/61/4 62/62/4 63/63/4
f 64/64/3 65/65/3 66/66/3
f 67/67/2 68/68/2 69/69/2
f 70/70/3 71/71/3 72/72/3
f 73/73/2 74/74/2 75/75/2
f 76/76/2 77/77/2 78/78/2
f 79/79/2 80/80/2 81/81/2
f 82/82/1 83/83/1 84/84/1
f 85/85/2 86/86/2 87/87/2
f 88/88/1 89/89/1 90/90/1
f 91/91/1 92/92/1 93/93/1
f 94/94/1 95/95/1 96/96/1
f 97/97/1 98/98/1 99/99/1
f 100/100/2 101/101/2 102/102/2
f 103/103/2 104/104/2 105/105/2
f 106/106/2 107/107/2 108/108/2
f 109/109/1 110/110/1 111/111/1
f 112/112/1 113/113/1 114/114/1
f 115/115/1 116/116/1 117/117/1
f 118/118/3 119/119/3 120/120/3
f 121/121/4 122/122/4 123/123/4
f 124/124/4 125/125/4 126/126/4
f 127/127/4 128/128/4 129/129/4
f 130/130/3 131/131/3 132/132/3
f 133/133/3 134/134/3 135/135/3
f 136/136/3 137/137/3 138/138/3
f 139/139/4 140/140/4 141/141/4
f 142/142/4 143/143/4 144/144/4
