mtllib oathkeeper.mtl
v 0.007791 -1.130419 11.900100
v 1.570290 1.705084 10.061600
v -0.000009 -2.962416 15.350399
v 1.140592 -6.407915 12.105399
v 0.007792 -7.830916 11.125199
v 0.812492 -8.375616 13.977099
v -0.000008 -9.335817 14.321298
v -0.000008 -7.895618 17.375898
v 0.007792 -7.830912 -11.125201
v 1.140592 -6.407812 -12.105401
v 1.570290 1.705088 -10.061600
v 0.812492 -8.375612 -13.977101
v 0.007792 -7.362012 -14.735401
v -0.000008 -7.895612 -17.375902
v -0.000008 -9.335814 -14.321301
v -0.000009 -4.646212 -12.871201
v 0.007791 -1.130415 -11.900000
v 0.828093 -12.725414 -0.000002
v -0.000007 -15.724513 -4.661202
v 0.007793 -13.450416 -3.301802
v 0.007793 -14.600014 -1.159002
v -0.000006 -19.502216 1.536997
v 0.937494 -20.389416 -0.000003
v 0.007793 -14.600014 1.158998
v -0.000008 -10.596715 8.630398
v 0.781292 -7.824414 7.620998
v 0.007792 -7.780817 8.748299
v 0.007792 -8.699414 6.769498
v 0.007791 0.102084 7.283200
v 0.007792 -8.699412 -6.769501
v 0.781292 -7.824411 -7.621001
v 0.007791 0.102185 -7.283200
v 0.007792 -7.780814 -8.748301
v 1.140592 -7.846812 -9.931001
v 0.765593 -11.825415 -11.024502
v 0.007792 -7.362017 14.735399
v -0.000009 -4.646216 12.871199
v -0.000007 -11.691215 -11.878201
v -0.000007 -16.023413 -14.235703
v -0.000007 -12.187712 -10.264902
v -0.000007 -12.187716 10.264898
v 0.765593 -11.825418 11.024498
v -0.000007 -16.023417 14.235697
v -0.000007 -11.691218 11.878198
v 0.007789 12.162986 5.642802
v -0.000012 15.081084 3.338602
v -0.000011 13.076285 3.345602
v 0.007787 19.642981 9.430103
v 1.593788 15.326187 2.340503
v -0.000012 16.436981 2.829603
v 0.007787 20.020485 -2.272297
v -0.000012 16.436981 -2.829597
v -0.000012 17.963287 -1.571997
v 0.007787 19.642984 -9.428197
v 1.593788 15.326187 -2.337598
v 0.007789 7.742784 -5.876899
v 1.148389 9.273385 -8.004198
v 0.007790 1.185988 -12.233200
v 0.007789 10.444986 -9.261998
v 0.007792 -8.699413 -1.331101
v -0.000008 -6.504912 -5.635601
v -0.000012 15.081086 -3.335698
v 0.007789 12.162988 -5.642798
v -0.000011 13.076287 -3.345598
v 0.007789 10.082185 -5.940299
v 1.023389 11.454185 -6.046698
v -0.000011 11.463288 -3.782298
v 1.593789 12.743683 -2.364998
v -0.000007 -15.724515 4.661198
v 0.007793 -13.450418 3.301798
v 1.023389 11.454184 6.046702
v 1.148389 9.273383 8.004202
v 0.007789 10.082183 5.940301
v 0.007789 10.444983 9.262002
v 0.007790 1.185984 12.233200
v 1.140592 -7.846815 9.930999
v 0.007792 -8.699413 1.331099
v 0.007787 20.020485 2.272303
v -0.000012 17.963287 1.572003
v -0.000013 20.020483 7.010403
v 1.578087 21.657883 2.252804
v -0.000009 -2.962412 -15.350401
v -0.000008 -10.596713 -8.630402
v -0.000012 13.393388 -6.438298
v -0.000011 9.737885 -1.713098
v 1.585889 9.745186 0.000002
v -0.000011 7.235887 -2.260799
v -0.000008 -6.504914 5.635599
v -0.000011 9.737885 1.713102
v -0.000011 7.235886 2.260801
v -0.000012 13.393386 6.438303
v 0.007789 7.742782 5.876902
v -0.000011 11.463286 3.782402
v 1.593789 12.743683 2.365002
v -0.000006 -19.502216 -1.537003
v -0.000007 -11.880815 6.706798
v -0.000007 -11.880813 -6.706902
v -0.000013 20.020487 -7.010297
v 1.578087 21.657883 -2.252796
v -1.562510 1.705084 10.061600
v -1.140608 -6.407915 12.105399
v -0.820308 -8.375616 13.977099
v -1.140608 -6.407812 -12.105401
v -1.562510 1.705088 -10.061600
v -0.820308 -8.375612 -13.977101
v -0.843807 -12.725414 -0.000002
v -0.945306 -20.389416 -0.000003
v -0.781308 -7.824414 7.620998
v -0.781308 -7.824411 -7.621001
v -1.140608 -7.846812 -9.931001
v -0.773407 -11.825415 -11.024502
v -0.773407 -11.825418 11.024498
v -1.601612 15.326187 2.340503
v -1.601612 15.326187 -2.337598
v -1.164111 9.273385 -8.004198
v -1.039111 11.454185 -6.046698
v -1.601611 12.743683 -2.364998
v -1.164111 9.273383 8.004202
v -1.039111 11.454184 6.046702
v -1.140608 -7.846815 9.930999
v -1.578113 21.657883 2.252804
v -1.601611 9.745186 0.000002
v -1.601611 12.743683 2.365002
v -1.578113 21.657883 -2.252796
v 0.007789 12.162986 5.642802
v -0.000011 13.076285 3.345602
v -0.000012 15.081084 3.338602
v 0.007787 19.642981 9.430103
v 0.007787 20.020485 -2.272297
v -0.000012 17.963287 -1.571997
v -0.000012 16.436981 -2.829597
v 0.007787 19.642984 -9.428197
v 0.007792 -8.699412 -6.769501
v -0.000008 -6.504912 -5.635601
v 0.007792 -8.699413 -1.331101
v 0.007793 -13.450416 -3.301802
v -0.000012 15.081086 -3.335698
v -0.000011 13.076287 -3.345598
v 0.007789 12.162988 -5.642798
v -0.000012 16.436981 2.829603
v -0.000012 17.963287 1.572003
v 0.007787 20.020485 2.272303
v -0.000008 -6.504914 5.635599
v 0.007792 -8.699414 6.769498
v 0.007792 -8.699413 1.331099
v 0.007793 -13.450418 3.301798
v -0.000007 -11.880815 6.706798
v -0.000007 -11.880813 -6.706902
v -1.574219 62.037186 2.252810
v -0.000020 64.480286 4.047010
v 1.578081 62.037186 2.252810
v -1.574213 21.657883 2.252804
v -0.000020 62.953281 18.896809
v -0.000019 60.763081 20.344509
v 1.578080 63.137379 16.998510
v -0.000019 61.406384 17.799210
v -0.003920 65.422783 11.914310
v -0.003921 68.844582 14.251911
v 1.578079 72.096481 16.998512
v -0.000021 72.280579 18.896811
v -0.000021 73.827286 17.799212
v -0.000021 74.470779 20.344511
v -0.003921 69.811089 11.914311
v -0.000022 79.525787 2.252813
v -0.000023 82.370987 3.842713
v 1.574178 80.270691 4.843613
v 1.574179 71.134186 4.842311
v -0.000018 54.691380 11.913709
v -0.000017 49.881088 10.685908
v 1.578081 56.491188 10.685909
v -0.000018 54.691383 9.458209
v -0.000020 65.422783 9.457610
v 0.003887 20.020483 7.010403
v -0.000013 24.389786 5.133004
v -0.000021 68.844582 20.284212
v -0.000020 67.616875 23.509312
v 1.578080 67.616882 18.425812
v -0.000020 66.389084 20.284212
v -0.003920 66.389084 14.251910
v -0.000021 71.096085 2.252812
v -0.000013 24.389786 -5.132896
v -0.000019 62.070587 -5.132890
v 1.578081 62.070587 -2.252690
v -0.000022 75.208786 16.619612
v -0.000021 72.507782 15.839312
v -0.000021 70.878693 17.001612
v -0.000021 70.762192 19.881912
v -0.000020 64.471588 19.881912
v -0.000020 64.355087 17.001610
v -0.000020 62.725979 15.839311
v -0.000019 60.024982 16.619610
v -0.000018 55.500378 13.941608
v -0.000019 58.366779 11.913710
v -0.000019 58.366783 9.458210
v -0.000018 55.500381 7.430309
v 1.578078 77.587982 10.685912
v -0.000023 84.113586 10.685913
v -0.000022 79.364182 11.913713
v -0.000022 79.364182 9.458214
v -0.003921 69.811089 9.457611
v 1.581987 21.657883 -2.252796
v 0.003887 20.020487 -7.010297
v -0.000022 79.364182 6.028813
v -0.000022 79.364182 4.841313
v -0.000021 72.624786 4.841312
v -0.000021 71.889084 6.048512
v -0.000020 62.459488 5.133210
v -0.000020 67.616882 8.637812
v 0.003879 70.347687 4.227111
v 1.566380 67.616882 10.685911
v 0.003877 83.831787 7.480814
v -0.000021 70.508682 19.956011
v -0.000021 68.844582 17.681311
v -0.000020 66.389084 17.681311
v -0.000020 64.725082 19.956011
v -0.000022 78.555084 7.430313
v -0.000022 75.688690 9.458213
v -0.000022 75.688690 11.913713
v -0.000022 78.555084 13.941612
v -0.000018 54.530884 0.000009
v -0.000021 71.314682 4.983411
v -0.000021 74.072983 0.000012
v -0.000021 74.463089 4.561512
v -0.000021 71.314682 -4.983388
v -0.000021 74.463089 -4.561388
v -0.000022 75.600388 -2.412788
v -0.000022 75.600388 2.412812
v -0.000013 20.020485 -2.272297
v 1.593788 17.963287 0.000003
v 1.601588 15.326187 -2.337598
v 1.601589 12.743683 -2.364998
v -0.000013 20.020485 2.272303
v -0.000012 17.963287 1.572103
v 1.601588 15.326187 2.337702
v 1.601589 12.743683 2.365002
v 0.003889 9.737885 1.713102
v 1.601589 9.745087 0.000002
v 0.003889 9.737885 -1.713098
v 1.578087 21.657883 0.000004
v 0.003888 15.081086 -3.335698
v 0.003888 16.436981 -2.829597
v 0.003888 16.436981 2.829603
v 0.003888 15.081084 3.335702
v -1.574220 63.137379 16.998510
v -1.574221 72.096481 16.998512
v -1.574222 80.270691 4.844113
v -1.574221 71.134186 4.841911
v -1.574219 56.491188 10.685909
v -1.574220 67.616882 18.425812
v -1.574219 62.070587 -2.252690
v -1.574222 77.587982 10.685912
v -1.574213 21.657883 -2.252697
v -1.574220 67.616882 10.685911
v -1.582012 17.963287 0.000003
v -1.597712 15.326187 -2.337598
v -1.597711 12.743683 -2.364998
v -1.597712 15.326187 2.337702
v -1.597711 12.743683 2.365002
v -1.574213 21.657883 0.000004
v -0.000020 62.953281 18.896809
v -0.000020 64.355087 17.001610
v -0.000020 64.471588 19.881912
v -0.000020 62.725979 15.839311
v -0.000019 61.406384 17.799210
v -0.000019 60.024982 16.619610
v -0.000018 54.691380 11.913709
v -0.000019 58.366779 11.913710
v -0.000018 55.500378 13.941608
v -0.000019 58.366783 9.458210
v -0.000018 54.691383 9.458209
v -0.000018 55.500381 7.430309
v -0.000022 79.364182 6.028813
v -0.000021 72.624786 4.841312
v -0.000022 79.364182 4.841313
v -0.000021 71.889084 6.048512
v -0.000021 70.508682 19.956011
v -0.000021 68.844582 20.284212
v -0.000021 68.844582 17.681311
v -0.000020 66.389084 20.284212
v -0.000020 64.725082 19.956011
v -0.000020 66.389084 17.681311
v -0.000022 78.555084 7.430313
v -0.000022 79.364182 9.458214
v -0.000022 75.688690 9.458213
v -0.000022 79.364182 11.913713
v -0.000022 78.555084 13.941612
v -0.000022 75.688690 11.913713
v -0.000018 54.530884 0.000009
v -0.000021 74.072983 0.000012
v -0.000021 71.314682 4.983411
v -0.000021 74.463089 4.561512
v -0.000021 71.314682 -4.983388
v -0.000021 74.463089 -4.561388
v -0.000022 75.600388 -2.412788
v -0.000022 75.600388 2.412812
vt 0.361000 0.505300
vt 0.279000 0.594000
vt 0.482100 0.485400
vt 0.356900 0.338000
vt 0.318500 0.284400
vt 0.412100 0.272500
vt 0.417200 0.231900
vt 0.521000 0.259100
vt 0.319300 0.285100
vt 0.357900 0.339000
vt 0.279600 0.595400
vt 0.413400 0.273400
vt 0.448500 0.306000
vt 0.523100 0.260100
vt 0.418500 0.232600
vt 0.395800 0.396700
vt 0.362000 0.506700
vt 0.996100 0.722300
vt 0.839000 0.804100
vt 0.890600 0.738600
vt 0.953200 0.788700
vt 0.941200 0.941300
vt 0.996300 0.971700
vt 0.952900 0.788500
vt 0.186200 0.203000
vt 0.172300 0.296900
vt 0.214800 0.289600
vt 0.134500 0.273300
vt 0.174000 0.545200
vt 0.134700 0.273700
vt 0.172600 0.297400
vt 0.174300 0.546100
vt 0.215200 0.290200
vt 0.268100 0.289600
vt 0.286500 0.161100
vt 0.446900 0.305000
vt 0.394600 0.395500
vt 0.322700 0.160900
vt 0.357500 0.009900
vt 0.254200 0.148800
vt 0.253600 0.148400
vt 0.285700 0.160700
vt 0.356300 0.009900
vt 0.321800 0.160500
vt 0.257800 0.889100
vt 0.463000 0.936900
vt 0.360200 0.984700
vt 0.551700 0.507000
vt 0.554200 0.997000
vt 0.641700 0.919600
vt 0.820300 0.817800
vt 0.642100 0.920200
vt 0.754000 0.921400
vt 0.552900 0.508000
vt 0.554500 0.997500
vt 0.125200 0.783400
vt 0.198300 0.838400
vt 0.367900 0.600900
vt 0.246200 0.879000
vt 0.770000 0.596600
vt 0.945800 0.587000
vt 0.801600 0.526200
vt 0.463300 0.937600
vt 0.258200 0.890300
vt 0.360500 0.985400
vt 0.120900 0.856300
vt 0.122600 0.912500
vt 0.047100 0.887300
vt 0.007400 0.957700
vt 0.056200 0.989400
vt 0.838200 0.803300
vt 0.889900 0.738000
vt 0.139300 0.909600
vt 0.197900 0.836800
vt 0.120800 0.855200
vt 0.245700 0.877200
vt 0.366900 0.599200
vt 0.267400 0.288900
vt 0.945600 0.586900
vt 0.819900 0.817400
vt 0.753800 0.921100
vt 0.728100 0.991200
vt 0.824100 0.991800
vt 0.827500 0.949400
vt 0.916200 0.992300
vt 0.483800 0.487200
vt 0.139500 0.910800
vt 0.186500 0.203400
vt 0.126400 0.948400
vt 0.164100 0.975900
vt 0.922400 0.011300
vt 0.997900 0.002800
vt 0.910500 0.090400
vt 0.800600 0.525500
vt 0.768800 0.595600
vt 0.922000 0.011300
vt 0.910000 0.090400
vt 0.163900 0.974500
vt 0.125000 0.782400
vt 0.047100 0.886500
vt 0.122400 0.911200
vt 0.007400 0.957200
vt 0.056100 0.988700
vt 0.941500 0.941700
vt 0.123400 0.951700
vt 0.123300 0.950500
vt 0.776200 0.694500
vt 0.777400 0.695600
vt 0.729200 0.992800
vt 0.827900 0.949900
vt 0.824500 0.992300
vt 0.126200 0.947100
vt 0.919200 0.949900
vt 0.279000 0.594000
vt 0.356900 0.338000
vt 0.412100 0.272500
vt 0.357900 0.339000
vt 0.279600 0.595400
vt 0.413400 0.273400
vt 0.996100 0.722300
vt 0.996300 0.971700
vt 0.172300 0.296900
vt 0.172600 0.297400
vt 0.268100 0.289600
vt 0.286500 0.161100
vt 0.285700 0.160700
vt 0.554200 0.997000
vt 0.554500 0.997500
vt 0.198300 0.838400
vt 0.122600 0.912500
vt 0.007400 0.957700
vt 0.197900 0.836800
vt 0.139300 0.909600
vt 0.267400 0.288900
vt 0.827500 0.949400
vt 0.139500 0.910800
vt 0.997900 0.002800
vt 0.122400 0.911200
vt 0.007400 0.957200
vt 0.827900 0.949900
vt 0.919200 0.949900
vt 0.918700 0.885600
vt 0.821900 0.943000
vt 0.827900 0.886100
vt 0.912000 0.942500
vt 0.463000 0.936900
vt 0.551700 0.507000
vt 0.554200 0.997000
vt 0.554200 0.997000
vt 0.989600 0.975700
vt 0.940800 0.996100
vt 0.937900 0.946000
vt 0.991000 0.975300
vt 0.939400 0.945700
vt 0.940600 0.995900
vt 0.257800 0.889100
vt 0.360200 0.984700
vt 0.463000 0.936900
vt 0.551700 0.507000
vt 0.820300 0.817800
vt 0.754000 0.921400
vt 0.642100 0.920200
vt 0.552900 0.508000
vt 0.770000 0.596600
vt 0.801600 0.526200
vt 0.945800 0.587000
vt 0.890600 0.738600
vt 0.463300 0.937600
vt 0.360500 0.985400
vt 0.258200 0.890300
vt 0.641700 0.919600
vt 0.753800 0.921100
vt 0.819900 0.817400
vt 0.800600 0.525500
vt 0.768800 0.595600
vt 0.945600 0.586900
vt 0.889900 0.738000
vt 0.776200 0.694500
vt 0.777400 0.695600
vt 0.635200 0.470900
vt 0.606800 0.419600
vt 0.577500 0.471600
vt 0.635100 0.955300
vt 0.577300 0.957400
vt 0.885600 0.057300
vt 0.923000 0.006200
vt 0.926700 0.091300
vt 0.961900 0.057700
vt 0.962600 0.201000
vt 0.961800 0.173800
vt 0.927100 0.091300
vt 0.961400 0.057800
vt 0.884900 0.057700
vt 0.923300 0.006200
vt 0.885500 0.201000
vt 0.696000 0.117400
vt 0.715000 0.072600
vt 0.761900 0.104300
vt 0.761900 0.289300
vt 0.549100 0.272600
vt 0.589500 0.370300
vt 0.591700 0.237700
vt 0.629900 0.272600
vt 0.629900 0.056000
vt 0.452600 0.991400
vt 0.556900 0.961200
vt 0.491400 0.902300
vt 0.435600 0.784100
vt 0.395200 0.716700
vt 0.396900 0.824600
vt 0.355000 0.784100
vt 0.355300 0.905900
vt 0.696000 0.287000
vt 0.696600 0.903300
vt 0.696600 0.482100
vt 0.762500 0.484100
vt 0.850100 0.061400
vt 0.885100 0.105200
vt 0.961500 0.104900
vt 0.996600 0.059300
vt 0.849800 0.059300
vt 0.885600 0.104900
vt 0.962200 0.105200
vt 0.997000 0.061400
vt 0.508100 0.256100
vt 0.549100 0.197900
vt 0.629900 0.198600
vt 0.670900 0.256300
vt 0.591700 0.237700
vt 0.589500 0.370300
vt 0.549100 0.272600
vt 0.549100 0.056000
vt 0.629900 0.272600
vt 0.629900 0.056000
vt 0.762500 0.961700
vt 0.658000 0.993000
vt 0.006500 0.540400
vt 0.084400 0.540100
vt 0.084400 0.950800
vt 0.007700 0.995600
vt 0.556900 0.484500
vt 0.491400 0.481500
vt 0.962200 0.281900
vt 0.962700 0.386500
vt 0.928400 0.385600
vt 0.927800 0.247600
vt 0.885500 0.290800
vt 0.886000 0.569400
vt 0.927200 0.605600
vt 0.886500 0.457700
vt 0.928100 0.401900
vt 0.962900 0.453100
vt 0.962500 0.558400
vt 0.591700 0.011900
vt 0.549100 0.056000
vt 0.927400 0.247600
vt 0.885800 0.173800
vt 0.397200 0.981600
vt 0.435900 0.905900
vt 0.886000 0.399800
vt 0.758900 0.009000
vt 0.469100 0.790700
vt 0.435700 0.836600
vt 0.355200 0.836600
vt 0.321600 0.790700
vt 0.670900 0.256300
vt 0.629900 0.198600
vt 0.549100 0.199100
vt 0.508100 0.256100
vt 0.242800 0.988700
vt 0.010300 0.207300
vt 0.242800 0.079000
vt 0.030000 0.060800
vt 0.475500 0.207500
vt 0.455800 0.060800
vt 0.355400 0.007900
vt 0.130200 0.007800
vt 0.926700 0.708400
vt 0.910000 0.642700
vt 0.997400 0.718600
vt 0.924600 0.810500
vt 0.924100 0.891300
vt 0.862000 0.877900
vt 0.909500 0.642400
vt 0.926400 0.708100
vt 0.924100 0.810100
vt 0.923600 0.890900
vt 0.861300 0.877300
vt 0.861400 0.938600
vt 0.922000 0.996800
vt 0.997400 0.992200
vt 0.922400 0.997200
vt 0.862100 0.939400
vt 0.997300 0.593800
vt 0.861900 0.815500
vt 0.886700 0.755400
vt 0.886100 0.754900
vt 0.861200 0.814800
vt 0.926700 0.091300
vt 0.927100 0.091300
vt 0.761900 0.104300
vt 0.761900 0.289300
vt 0.591700 0.237700
vt 0.556900 0.961200
vt 0.396900 0.824600
vt 0.762500 0.484100
vt 0.591700 0.237700
vt 0.762500 0.961700
vt 0.777000 0.290900
vt 0.777600 0.484000
vt 0.834800 0.288800
vt 0.835400 0.480500
vt 0.835400 0.954700
vt 0.556900 0.484500
vt 0.928400 0.385600
vt 0.927800 0.247600
vt 0.927200 0.605600
vt 0.928100 0.401900
vt 0.591700 0.011900
vt 0.927400 0.247600
vt 0.397200 0.981600
vt 0.777600 0.961700
vt 0.997400 0.718600
vt 0.924600 0.810500
vt 0.924100 0.891300
vt 0.924100 0.810100
vt 0.923600 0.890900
vt 0.997400 0.992200
vt 0.997300 0.593800
vt 0.834800 0.105500
vt 0.805700 0.016700
vt 0.777000 0.106300
vt 0.885600 0.057300
vt 0.885600 0.104900
vt 0.849800 0.059300
vt 0.962200 0.105200
vt 0.961900 0.057700
vt 0.997000 0.061400
vt 0.549100 0.272600
vt 0.549100 0.197900
vt 0.508100 0.256100
vt 0.629900 0.198600
vt 0.629900 0.272600
vt 0.670900 0.256300
vt 0.006500 0.540400
vt 0.084400 0.950800
vt 0.084400 0.540100
vt 0.007700 0.995600
vt 0.469100 0.790700
vt 0.435600 0.784100
vt 0.435700 0.836600
vt 0.355000 0.784100
vt 0.321600 0.790700
vt 0.355200 0.836600
vt 0.670900 0.256300
vt 0.629900 0.272600
vt 0.629900 0.198600
vt 0.549100 0.272600
vt 0.508100 0.256100
vt 0.549100 0.199100
vt 0.242800 0.988700
vt 0.242800 0.079000
vt 0.010300 0.207300
vt 0.030000 0.060800
vt 0.475500 0.207500
vt 0.455800 0.060800
vt 0.355400 0.007900
vt 0.130200 0.007800
vn 0.7258 -0.6083 -0.3213
vn 0.6146 0.1619 0.7721
vn 0.7698 -0.1940 -0.6081
vn 0.8362 -0.4447 -0.3209
vn 0.6650 -0.6763 -0.3168
vn 0.7808 -0.5652 0.2665
vn 0.7698 -0.1940 0.6081
vn 0.8363 -0.4446 0.3209
vn 0.8284 0.3073 -0.4683
vn 0.8184 0.5628 -0.1162
vn 0.6650 -0.6763 0.3168
vn 0.8196 0.3258 -0.4712
vn 0.7259 0.1816 -0.6634
vn 0.9495 0.1586 -0.2707
vn 0.8684 -0.4726 0.1498
vn 0.8626 0.0375 0.5045
vn 0.8238 -0.0260 0.5663
vn 0.8447 -0.3766 -0.3804
vn 0.7185 0.0405 -0.6943
vn 0.7185 0.0405 0.6943
vn 0.8544 0.0614 0.5159
vn 0.8025 -0.2095 -0.5587
vn 0.7213 -0.0230 0.6922
vn 0.6920 -0.2512 0.6768
vn 0.7211 0.1196 -0.6824
vn 0.8196 0.3258 0.4712
vn 0.7483 0.1255 -0.6514
vn 0.7284 0.3275 -0.6018
vn 0.7376 -0.2209 0.6381
vn 0.7174 -0.5011 -0.4840
vn 0.7284 0.3275 0.6018
vn 0.7483 0.1255 0.6514
vn -1.0000 -0.0004 0.0029
vn -1.0000 -0.0003 0.0030
vn -1.0000 0.0000 0.0034
vn -1.0000 -0.0010 0.0021
vn 0.4418 0.8067 -0.3924
vn -1.0000 0.0026 -0.0027
vn -1.0000 0.0027 -0.0033
vn -1.0000 0.0022 -0.0001
vn 0.4412 0.8070 0.3926
vn 0.8883 -0.0831 0.4516
vn 0.8988 -0.0677 0.4332
vn 0.7700 0.2070 -0.6035
vn 0.8065 0.1807 -0.5630
vn -1.0000 0.0016 0.0026
vn -1.0000 -0.0029 -0.0000
vn -1.0000 -0.0036 0.0000
vn -1.0000 0.0021 0.0030
vn 0.9589 0.1087 -0.2621
vn -1.0000 -0.0004 -0.0028
vn -1.0000 -0.0005 -0.0027
vn -1.0000 0.0000 -0.0034
vn 0.7661 -0.5401 0.3484
vn 0.4832 -0.8470 0.2218
vn 0.3965 0.8456 -0.3576
vn 0.9495 0.1586 0.2707
vn 0.8684 -0.4726 -0.1498
vn 0.8073 0.0115 0.5900
vn 0.6857 -0.4641 -0.5608
vn 0.8330 0.3953 0.3872
vn 0.8065 0.1807 0.5630
vn 0.8025 -0.2095 0.5587
vn 0.7213 -0.0230 -0.6922
vn 0.6920 -0.2512 -0.6768
vn 0.7211 0.1196 0.6824
vn 0.9589 0.1087 0.2621
vn -1.0000 0.0026 0.0028
vn -1.0000 0.0026 0.0027
vn -1.0000 0.0027 0.0033
vn 0.7217 -0.6922 0.0012
vn 0.7217 -0.6922 0.0006
vn 0.7217 -0.6922 0.0005
vn 0.7217 -0.6922 0.0000
vn 0.6145 0.1620 -0.7721
vn 0.7258 -0.6083 0.3213
vn 0.6743 0.4428 -0.5910
vn 0.8773 0.0130 0.4797
vn 0.6857 -0.4641 0.5608
vn 0.8330 0.3953 -0.3872
vn 0.8447 -0.3766 0.3804
vn 0.8238 -0.0260 -0.5663
vn 0.5812 0.4444 0.6817
vn 0.8465 0.3694 -0.3833
vn 0.7255 0.1472 -0.6723
vn 0.8344 -0.0317 -0.5502
vn -1.0000 0.0016 -0.0026
vn 0.7255 0.1472 0.6723
vn 0.8344 -0.0317 0.5502
vn 0.8465 0.3694 0.3833
vn 0.8988 -0.0677 -0.4332
vn 0.8883 -0.0831 -0.4516
vn 0.8544 0.0614 -0.5159
vn 0.7661 -0.5401 -0.3484
vn 0.4832 -0.8470 -0.2218
vn 0.3965 0.8456 0.3576
vn 0.8073 0.0115 -0.5900
vn 0.8626 0.0375 -0.5045
vn 0.8184 0.5628 0.1162
vn 0.8284 0.3073 0.4683
vn 0.6743 0.4428 0.5910
vn 0.7700 0.2070 0.6035
vn 0.8119 -0.0274 -0.5832
vn 0.8119 -0.0274 0.5832
vn 0.4491 0.8308 -0.3288
vn 0.4491 0.8308 0.3288
vn -1.0000 0.0021 -0.0030
vn -1.0000 0.0025 -0.0035
vn -1.0000 0.0025 0.0035
vn 0.7217 -0.6922 -0.0012
vn 0.7246 -0.0420 -0.6879
vn 0.7174 -0.5011 0.4840
vn 0.7808 -0.5652 -0.2665
vn -1.0000 0.0022 0.0001
vn 0.8773 0.0130 -0.4797
vn 0.7259 0.1816 0.6634
vn 0.7246 -0.0420 0.6879
vn 0.5812 0.4444 -0.6817
vn -1.0000 -0.0010 -0.0021
vn 0.7376 -0.2209 -0.6381
vn -0.7215 -0.6109 -0.3260
vn -0.6116 0.1632 0.7741
vn -0.7650 -0.1945 -0.6140
vn -0.8327 -0.4467 -0.3271
vn -0.6600 -0.6790 -0.3213
vn -0.7778 -0.5684 0.2680
vn -0.7650 -0.1945 0.6140
vn -0.8327 -0.4467 0.3271
vn -0.8188 0.3229 -0.4747
vn -0.8217 0.3169 -0.4738
vn -0.8211 0.3180 -0.4739
vn -0.8094 0.5760 -0.1140
vn -0.6600 -0.6790 0.3213
vn -0.8185 0.3236 -0.4748
vn -0.7278 0.1841 -0.6606
vn -0.9442 0.1713 -0.2812
vn -0.8583 -0.4880 0.1586
vn -0.8613 0.0404 0.5064
vn -0.8186 -0.0218 0.5739
vn -0.8398 -0.3784 -0.3894
vn -0.7115 0.0409 -0.7015
vn -0.7115 0.0409 0.7015
vn -0.8529 0.0628 0.5183
vn -0.7971 -0.2103 -0.5661
vn -0.7166 -0.0221 0.6971
vn -0.6875 -0.2508 0.6815
vn -0.7162 0.1227 -0.6871
vn -0.8211 0.3181 0.4739
vn -0.8189 0.3228 0.4746
vn -0.8185 0.3235 0.4748
vn -0.7449 0.1292 -0.6545
vn -0.7250 0.3292 -0.6050
vn -0.7340 -0.2198 0.6425
vn -0.7138 -0.5037 -0.4866
vn -0.7250 0.3292 0.6050
vn -0.7449 0.1292 0.6545
vn -0.4405 0.8077 -0.3918
vn -0.4399 0.8079 0.3920
vn -0.8874 -0.0835 0.4534
vn -0.8948 -0.0727 0.4406
vn -0.7692 0.2050 -0.6052
vn -0.7987 0.1839 -0.5729
vn -0.9559 0.1125 -0.2713
vn -0.7576 -0.5510 0.3499
vn -0.4801 -0.8482 0.2237
vn -0.3944 0.8468 -0.3569
vn -0.9442 0.1713 0.2812
vn -0.8583 -0.4880 -0.1586
vn -0.7976 0.0106 0.6031
vn -0.6750 -0.4710 -0.5679
vn -0.8260 0.4020 0.3951
vn -0.7987 0.1839 0.5729
vn -0.7971 -0.2103 0.5661
vn -0.7166 -0.0221 -0.6971
vn -0.6875 -0.2508 -0.6815
vn -0.7162 0.1227 0.6871
vn -0.9559 0.1125 0.2713
vn -0.7183 -0.6957 -0.0012
vn -0.7183 -0.6957 0.0006
vn -0.7183 -0.6957 0.0000
vn -0.6116 0.1632 -0.7742
vn -0.7215 -0.6109 0.3260
vn -0.6712 0.4461 -0.5920
vn -0.8717 0.0133 0.4898
vn -0.6750 -0.4710 0.5679
vn -0.8260 0.4020 -0.3951
vn -0.8398 -0.3784 0.3893
vn -0.8186 -0.0218 -0.5739
vn -0.5681 0.4443 0.6927
vn -0.8418 0.3722 -0.3909
vn -0.7221 0.1479 -0.6758
vn -0.8323 -0.0327 -0.5533
vn -0.7221 0.1479 0.6758
vn -0.8323 -0.0327 0.5533
vn -0.8418 0.3721 0.3909
vn -0.8948 -0.0727 -0.4406
vn -0.8874 -0.0834 -0.4534
vn -0.8529 0.0628 -0.5183
vn -0.7576 -0.5510 -0.3499
vn -0.4801 -0.8482 -0.2237
vn -0.3944 0.8468 0.3569
vn -0.7976 0.0106 -0.6031
vn -0.8613 0.0404 -0.5064
vn -0.8094 0.5760 0.1140
vn -0.8217 0.3169 0.4737
vn -0.6712 0.4461 0.5920
vn -0.7692 0.2050 0.6052
vn -0.8029 -0.0271 -0.5955
vn -0.8029 -0.0271 0.5955
vn -0.4369 0.8354 -0.3336
vn -0.4369 0.8354 0.3336
vn -0.7183 -0.6957 0.0012
vn -0.7183 -0.6957 0.0008
vn -0.7199 -0.0413 -0.6928
vn -0.7138 -0.5037 0.4866
vn -0.7778 -0.5684 -0.2680
vn -0.8717 0.0133 -0.4898
vn -0.7278 0.1841 0.6606
vn -0.7199 -0.0413 0.6928
vn -0.5681 0.4443 -0.6927
vn 0.0000 1.0000 0.0000
vn -0.7340 -0.2198 -0.6425
vn 0.4460 -0.7167 0.5362
vn -0.4445 -0.7167 0.5373
vn 0.4460 -0.7167 -0.5361
vn -0.4445 -0.7168 -0.5373
vn 0.0000 -0.8661 -0.4999
vn 0.0000 -0.8661 0.4999
vn 1.0000 0.0004 -0.0029
vn 1.0000 -0.0000 -0.0034
vn 1.0000 0.0004 -0.0028
vn 1.0000 0.0010 -0.0021
vn 1.0000 -0.0026 0.0027
vn 1.0000 -0.0027 0.0033
vn 1.0000 -0.0022 0.0001
vn 1.0000 -0.0016 -0.0026
vn 1.0000 0.0036 0.0000
vn 1.0000 0.0028 -0.0000
vn 1.0000 -0.0021 -0.0030
vn 1.0000 0.0005 0.0027
vn 1.0000 -0.0000 0.0034
vn 1.0000 0.0007 0.0025
vn 1.0000 -0.0026 -0.0028
vn 1.0000 -0.0027 -0.0033
vn 1.0000 -0.0026 -0.0027
vn 1.0000 -0.0016 0.0026
vn 1.0000 -0.0021 0.0030
vn 1.0000 -0.0025 0.0035
vn 1.0000 -0.0025 -0.0035
vn 1.0000 -0.0022 -0.0001
vn 1.0000 0.0010 0.0021
vn 0.0000 0.5919 -0.8060
vn 0.0000 0.0000 -1.0000
vn 0.6846 0.4019 0.6081
vn 0.6846 -0.7067 -0.1786
vn 0.5267 -0.7019 -0.4794
vn 0.5276 -0.6831 0.5049
vn 0.6845 0.7068 -0.1787
vn 0.5267 0.7020 -0.4794
vn 0.7698 0.3114 -0.5572
vn 0.8546 0.0001 -0.5193
vn 0.8545 0.0000 -0.5194
vn 0.7195 -0.1718 0.6729
vn 0.7194 -0.1718 -0.6730
vn 0.6158 0.0005 -0.7879
vn 0.6141 -0.0000 -0.7893
vn 0.6148 0.0002 -0.7887
vn 0.9209 0.1546 0.3579
vn 0.7535 0.6145 0.2339
vn 0.7535 -0.6144 0.2339
vn 0.6145 -0.7889 -0.0008
vn 0.6138 -0.7895 -0.0004
vn 0.6142 -0.7892 -0.0006
vn 0.8545 0.0000 -0.5195
vn 0.8768 0.0000 -0.4809
vn 0.8770 0.0000 -0.4805
vn -1.0000 0.0000 0.0000
vn 0.7192 0.1739 0.6727
vn 0.6151 -0.0006 0.7884
vn 0.6139 -0.0002 0.7894
vn 0.6143 -0.0003 0.7891
vn 0.7191 0.1739 -0.6728
vn 0.6139 -0.0002 -0.7894
vn 0.6151 -0.0006 -0.7884
vn 0.6144 -0.0003 -0.7890
vn 0.9205 0.1549 -0.3587
vn 0.8765 0.0001 -0.4814
vn 0.8770 -0.0000 0.4805
vn 0.5343 -0.7189 -0.4446
vn 0.5586 -0.7110 -0.4272
vn 0.6211 0.6711 0.4048
vn 0.6227 0.6696 0.4049
vn 0.6267 0.6656 0.4051
vn 0.5936 0.6645 -0.4540
vn 0.5538 0.6948 -0.4589
vn 0.6177 -0.6554 0.4345
vn 0.5801 -0.6719 0.4604
vn 0.6165 0.0006 -0.7874
vn 0.6152 0.0005 0.7884
vn 0.6156 0.0006 0.7881
vn 0.6143 0.0003 0.7891
vn 0.5653 -0.6722 -0.4781
vn 0.5590 0.6767 0.4792
vn 0.6146 -0.7888 -0.0009
vn 0.6144 0.7890 -0.0008
vn 0.6146 0.7888 -0.0009
vn 0.6140 0.7893 -0.0005
vn 0.5591 -0.6767 0.4791
vn 0.5653 0.6722 -0.4781
vn 0.6284 0.6640 0.4052
vn 0.8277 0.5204 -0.2098
vn 0.6846 -0.4019 0.6081
vn 0.7880 0.3797 -0.4846
vn 0.8162 0.3659 -0.4472
vn 0.6139 0.0002 0.7894
vn 0.5276 0.6832 0.5049
vn 0.6137 0.7895 -0.0004
vn 0.6155 -0.0007 0.7881
vn 0.6155 -0.0007 -0.7881
vn 0.6825 -0.2355 -0.6919
vn 0.5933 0.5350 -0.6015
vn 1.0000 0.0005 0.0000
vn 1.0000 0.0002 0.0028
vn 0.5235 0.0090 -0.8520
vn 0.6825 -0.2355 0.6919
vn 0.5933 0.5350 0.6015
vn 1.0000 0.0002 -0.0028
vn 0.5235 0.0090 0.8520
vn 0.5237 0.0090 0.8519
vn 0.5289 0.0037 0.8487
vn 0.5684 -0.6314 0.5275
vn 0.7656 -0.3984 0.5052
vn 1.0000 0.0009 0.0000
vn 0.5685 -0.6313 -0.5275
vn 0.7656 -0.3984 -0.5052
vn 0.8202 0.0035 -0.5721
vn 0.8202 0.0035 0.5721
vn 0.5295 0.0032 -0.8483
vn 0.5624 0.5266 -0.6374
vn 0.5624 0.5266 0.6375
vn 0.5294 0.0032 0.8483
vn -0.6855 0.4015 0.6074
vn -0.6855 -0.7059 -0.1784
vn -0.5281 -0.7016 -0.4785
vn -0.5291 -0.6820 0.5049
vn -0.6854 0.7060 -0.1785
vn -0.5280 0.7016 -0.4785
vn -0.7698 0.3113 -0.5572
vn -0.8546 0.0001 -0.5193
vn -0.8545 0.0000 -0.5195
vn -0.8546 0.0001 -0.5192
vn -0.7203 -0.1715 0.6721
vn -0.7203 -0.1715 -0.6721
vn -0.6150 -0.0000 -0.7885
vn -0.6151 -0.0000 -0.7884
vn -0.9210 0.1531 0.3582
vn -0.7543 0.6136 0.2336
vn -0.7543 -0.6136 0.2336
vn -0.6157 -0.7880 0.0002
vn -0.6158 -0.7879 0.0001
vn -0.6153 -0.7883 0.0004
vn -0.8775 -0.0000 -0.4796
vn -0.7200 0.1737 0.6719
vn -0.6157 0.0001 0.7880
vn -0.6154 0.0002 0.7882
vn -0.6152 0.0003 0.7884
vn -0.7200 0.1737 -0.6719
vn -0.6152 0.0003 -0.7884
vn -0.6155 0.0002 -0.7881
vn -0.6157 0.0001 -0.7880
vn -0.9210 0.1531 -0.3582
vn -0.0001 -0.6164 0.7874
vn -0.0000 -0.6164 0.7874
vn 0.0000 -0.0000 1.0000
vn -0.8775 -0.0000 0.4796
vn -0.5323 -0.7195 -0.4460
vn -0.5571 -0.7115 -0.4282
vn -0.6217 0.6710 0.4039
vn -0.5917 0.6656 -0.4548
vn -0.5540 0.6943 -0.4594
vn -0.6179 -0.6557 0.4338
vn -0.5782 -0.6730 0.4612
vn -0.6152 0.0000 -0.7884
vn -0.6158 -0.0001 0.7879
vn -0.6154 -0.0002 0.7882
vn -0.6161 -0.0000 0.7876
vn -0.5661 -0.6723 -0.4770
vn -0.5604 0.6755 0.4793
vn -0.6160 -0.7878 0.0000
vn -0.6156 0.7880 0.0002
vn -0.6158 0.7879 0.0001
vn -0.6159 0.7878 0.0000
vn -0.5604 -0.6754 0.4793
vn -0.5662 0.6722 -0.4770
vn -0.6288 0.6642 0.4043
vn -0.8277 0.5211 -0.2083
vn -0.6855 -0.4015 0.6074
vn -0.7881 0.3794 -0.4847
vn -0.8168 0.3653 -0.4464
vn -0.6152 -0.0003 0.7884
vn -0.5291 0.6820 0.5049
vn -0.6153 0.7883 0.0004
vn -0.6161 -0.0000 -0.7877
vn -0.6852 -0.2347 -0.6895
vn -0.5956 0.5348 -0.5994
vn -1.0000 0.0005 0.0056
vn -1.0000 -0.0037 -0.0000
vn -1.0000 -0.0001 0.0068
vn -0.5264 0.0071 -0.8502
vn -0.5279 0.0055 -0.8493
vn -0.5244 0.0090 -0.8514
vn -0.6852 -0.2347 0.6895
vn -0.5956 0.5348 0.5993
vn -1.0000 0.0005 -0.0056
vn -1.0000 -0.0001 -0.0068
vn -0.5244 0.0090 0.8514
vn -0.5657 -0.6339 0.5275
vn -0.7663 -0.3973 0.5049
vn -1.0000 0.0024 -0.0000
vn -0.5657 -0.6338 -0.5275
vn -0.7663 -0.3973 -0.5049
vn -0.8214 0.0017 -0.5703
vn -0.8214 0.0017 0.5703
vn -0.5283 0.0052 -0.8490
vn -0.5610 0.5256 -0.6396
vn -0.5609 0.5256 0.6396
vn -0.5283 0.0052 0.8491
vn 0.0001 -0.5951 0.8037
vn 0.0001 -0.0002 1.0000
vn 0.0002 -0.0000 1.0000
vn 0.0002 -0.0001 1.0000
vn -0.0001 -0.0002 1.0000
vn 1.0000 -0.0000 0.0000
o base
usemtl Material__901
f 1/1/1 2/2/1 3/3/1
f 1/1/2 4/4/2 2/2/2
f 4/4/3 5/5/3 2/2/3
f 4/4/4 6/6/4 5/5/4
f 6/6/5 7/7/5 5/5/5
f 6/6/6 8/8/6 7/7/6
f 9/9/7 10/10/7 11/11/7
f 9/9/8 12/12/8 10/10/8
f 12/12/9 13/13/9 10/10/9
f 12/12/10 14/14/10 13/13/10
f 15/15/11 12/12/11 9/9/11
f 13/13/12 16/16/12 10/10/12
f 16/16/13 17/17/13 10/10/13
f 18/18/14 19/19/14 20/20/14
f 18/18/15 21/21/15 19/19/15
f 22/22/16 23/23/16 24/24/16
f 25/25/17 26/26/17 27/27/17
f 25/25/18 28/28/18 26/26/18
f 28/28/19 29/29/19 26/26/19
f 30/30/20 31/31/20 32/32/20
f 31/31/21 11/11/21 32/32/21
f 31/31/22 33/33/22 11/11/22
f 33/33/23 34/34/23 11/11/23
f 33/33/24 35/35/24 34/34/24
f 35/35/25 9/9/25 34/34/25
f 36/36/26 4/4/26 37/37/26
f 35/35/27 38/38/27 9/9/27
f 35/35/28 39/39/28 38/38/28
f 40/40/29 35/35/29 33/33/29
f 41/41/30 42/42/30 43/43/30
f 42/42/31 44/44/31 43/43/31
f 42/42/32 5/5/32 44/44/32
f 45/45/33 46/46/34 47/47/35
f 45/45/33 48/48/36 46/46/34
f 49/49/37 50/50/37 48/48/37
f 51/51/38 52/52/38 53/53/39
f 51/51/38 54/54/40 52/52/38
f 52/52/41 55/55/41 54/54/41
f 32/32/42 11/11/42 56/56/42
f 11/11/43 57/57/43 56/56/43
f 11/11/44 58/58/44 57/57/44
f 59/59/45 57/57/45 58/58/45
f 30/60/46 60/61/47 61/62/48
f 30/60/46 20/20/49 60/61/47
f 60/61/50 18/18/50 20/20/50
f 62/63/51 63/64/52 64/65/53
f 65/66/54 66/67/54 67/68/54
f 66/67/55 68/69/55 67/68/55
f 66/67/56 64/70/56 68/69/56
f 69/71/57 18/18/57 70/72/57
f 69/71/58 24/24/58 18/18/58
f 24/24/59 23/23/59 18/18/59
f 71/73/60 72/74/60 73/75/60
f 71/73/61 74/76/61 72/74/61
f 74/76/62 75/77/62 72/74/62
f 2/2/63 27/27/63 26/26/63
f 2/2/64 76/78/64 27/27/64
f 76/78/65 42/42/65 27/27/65
f 76/78/66 5/5/66 42/42/66
f 18/18/67 77/79/67 70/72/67
f 50/50/68 78/80/69 79/81/70
f 80/82/71 78/83/72 81/84/73
f 78/83/72 51/85/74 81/84/73
f 17/17/75 11/11/75 10/10/75
f 17/17/76 82/86/76 11/11/76
f 82/86/77 58/58/77 11/11/77
f 56/56/78 57/57/78 65/66/78
f 57/57/79 66/87/79 65/66/79
f 57/57/80 59/59/80 66/87/80
f 30/30/81 83/88/81 31/31/81
f 83/88/82 33/33/82 31/31/82
f 63/89/83 66/87/83 84/90/83
f 66/87/84 59/59/84 84/90/84
f 85/91/85 86/92/85 87/93/85
f 86/92/86 60/61/86 87/93/86
f 88/94/48 77/79/47 28/95/87
f 89/96/88 90/97/88 86/92/88
f 90/97/89 77/79/89 86/92/89
f 74/76/90 71/73/90 91/98/90
f 72/74/91 2/2/91 92/99/91
f 2/2/92 29/29/92 92/99/92
f 2/2/93 26/26/93 29/29/93
f 93/100/94 71/101/94 73/75/94
f 93/100/95 94/102/95 71/101/95
f 94/102/96 47/103/96 71/101/96
f 18/18/97 23/23/97 21/21/97
f 23/23/98 95/104/98 21/21/98
f 8/8/99 6/6/99 36/36/99
f 6/6/100 4/4/100 36/36/100
f 3/3/101 2/2/101 75/77/101
f 2/2/102 72/74/102 75/77/102
f 60/61/103 86/92/103 18/18/103
f 86/92/104 77/79/104 18/18/104
f 64/70/105 66/67/105 63/105/105
f 45/106/106 71/101/106 47/103/106
f 70/72/107 96/107/108 28/95/87
f 30/60/46 97/108/109 20/20/49
f 98/109/110 99/110/110 51/111/110
f 11/11/111 34/34/111 9/9/111
f 40/40/112 39/39/112 35/35/112
f 12/12/113 15/15/113 14/14/113
f 48/48/114 78/80/69 50/50/68
f 72/74/115 92/99/115 73/75/115
f 4/4/116 1/1/116 37/37/116
f 2/2/117 5/5/117 76/78/117
f 45/112/118 91/98/118 71/73/118
f 54/54/119 63/64/52 62/63/51
f 51/85/74 99/113/74 81/84/73
f 42/42/120 41/41/120 27/27/120
f 28/95/87 77/79/47 70/72/107
f 100/114/121 1/1/121 3/3/121
f 1/1/122 100/114/122 101/115/122
f 5/5/123 101/115/123 100/114/123
f 101/115/124 5/5/124 102/116/124
f 7/7/125 102/116/125 5/5/125
f 102/116/126 7/7/126 8/8/126
f 103/117/127 9/9/127 104/118/127
f 9/9/128 103/117/128 105/119/128
f 13/13/129 105/119/130 103/117/131
f 105/119/132 13/13/132 14/14/132
f 15/15/133 9/9/133 105/119/133
f 13/13/129 103/117/131 16/16/134
f 17/17/135 16/16/135 103/117/135
f 19/19/136 106/120/136 20/20/136
f 106/120/137 19/19/137 21/21/137
f 107/121/138 22/22/138 24/24/138
f 108/122/139 25/25/139 27/27/139
f 25/25/140 108/122/140 28/28/140
f 29/29/141 28/28/141 108/122/141
f 30/30/142 32/32/142 109/123/142
f 104/118/143 109/123/143 32/32/143
f 109/123/144 104/118/144 33/33/144
f 110/124/145 33/33/145 104/118/145
f 33/33/146 110/124/146 111/125/146
f 9/9/147 111/125/147 110/124/147
f 101/115/148 36/36/149 37/37/150
f 38/38/151 111/125/151 9/9/151
f 111/125/152 38/38/152 39/39/152
f 40/40/153 33/33/153 111/125/153
f 41/41/154 43/43/154 112/126/154
f 44/44/155 112/126/155 43/43/155
f 112/126/156 44/44/156 5/5/156
f 50/50/157 113/127/157 48/48/157
f 52/52/158 54/54/158 114/128/158
f 32/32/159 56/56/159 104/118/159
f 115/129/160 104/118/160 56/56/160
f 104/118/161 115/129/161 58/58/161
f 59/59/162 58/58/162 115/129/162
f 60/61/163 20/20/163 106/120/163
f 65/66/164 67/68/164 116/130/164
f 117/131/165 116/130/165 67/68/165
f 116/130/166 117/131/166 64/70/166
f 106/120/167 69/71/167 70/72/167
f 69/71/168 106/120/168 24/24/168
f 107/121/169 24/24/169 106/120/169
f 118/132/170 119/133/170 73/75/170
f 119/133/171 118/132/171 74/76/171
f 75/77/172 74/76/172 118/132/172
f 27/27/173 100/114/173 108/122/173
f 100/114/174 27/27/174 120/134/174
f 112/126/175 120/134/175 27/27/175
f 120/134/176 112/126/176 5/5/176
f 106/120/177 70/72/177 77/79/177
f 80/82/178 121/135/178 78/83/178
f 51/85/179 78/83/180 121/135/180
f 104/118/181 17/17/181 103/117/181
f 17/17/182 104/118/182 82/86/182
f 58/58/183 82/86/183 104/118/183
f 56/56/184 65/66/184 115/129/184
f 116/136/185 115/129/185 65/66/185
f 115/129/186 116/136/186 59/59/186
f 30/30/187 109/123/187 83/88/187
f 33/33/188 83/88/188 109/123/188
f 63/89/189 84/90/189 116/136/189
f 59/59/190 116/136/190 84/90/190
f 85/91/191 87/93/191 122/137/191
f 60/61/192 122/137/192 87/93/192
f 89/96/193 122/137/193 90/97/193
f 77/79/194 90/97/194 122/137/194
f 119/133/195 74/76/195 91/98/195
f 118/132/196 92/99/196 100/114/196
f 29/29/197 100/114/197 92/99/197
f 100/114/198 29/29/198 108/122/198
f 119/138/199 93/100/199 73/75/199
f 93/100/200 119/138/200 123/139/200
f 47/103/201 123/139/201 119/138/201
f 106/120/202 21/21/202 107/121/202
f 95/104/203 107/121/203 21/21/203
f 8/8/204 36/36/204 102/116/204
f 101/115/148 102/116/205 36/36/149
f 3/3/206 75/77/206 100/114/206
f 118/132/207 100/114/207 75/77/207
f 60/61/208 106/120/208 122/137/208
f 77/79/209 122/137/209 106/120/209
f 116/130/210 64/70/210 63/105/210
f 119/138/211 45/106/211 47/103/211
f 98/109/212 51/111/179 124/140/213
f 104/118/214 9/9/214 110/124/214
f 40/40/215 111/125/215 39/39/215
f 105/119/216 14/14/216 15/15/216
f 118/132/217 73/75/217 92/99/217
f 101/115/218 37/37/218 1/1/218
f 100/114/219 120/134/219 5/5/219
f 45/112/220 119/133/220 91/98/220
f 51/85/179 121/135/180 124/141/213
f 121/142/221 99/143/221 124/144/221
f 99/143/221 121/142/221 81/145/221
f 112/126/222 27/27/222 41/41/222
f 46/46/223 49/49/223 48/48/223
f 46/46/224 48/48/224 113/127/224
f 62/146/225 54/147/225 55/148/225
f 62/146/226 114/149/226 54/147/226
f 23/150/227 107/151/227 95/152/227
f 23/153/228 22/154/228 107/155/228
f 125/156/229 126/157/230 127/158/231
f 125/156/229 127/158/231 128/159/232
f 129/160/233 130/161/234 131/162/233
f 129/160/233 131/162/233 132/163/235
f 133/164/236 134/165/237 135/166/238
f 133/164/236 135/166/238 136/167/239
f 137/168/240 138/169/241 139/170/242
f 140/171/243 141/172/244 142/173/245
f 143/174/237 144/175/246 145/176/238
f 146/177/247 144/175/246 147/178/248
f 133/164/236 136/167/239 148/179/249
f 128/159/250 140/171/243 142/173/245
f 132/163/251 137/168/240 139/170/242
f 144/175/246 146/177/247 145/176/238
usemtl Material__900
f 149/180/252 150/181/252 151/182/252
f 151/182/253 152/183/253 149/180/253
f 152/183/253 151/182/253 81/184/253
f 153/185/254 154/186/254 155/187/254
f 155/187/255 154/186/255 156/188/255
f 155/187/256 156/188/256 157/189/256
f 158/190/257 159/191/257 160/192/257
f 161/193/258 162/194/258 159/191/258
f 161/193/259 159/191/259 163/195/259
f 164/196/260 165/197/260 166/198/260
f 164/196/261 166/198/261 167/199/262
f 168/200/263 169/201/263 170/202/263
f 170/202/264 169/201/264 171/203/264
f 170/202/265 171/203/266 172/204/267
f 173/205/268 81/206/268 174/207/268
f 175/208/269 176/209/269 177/210/269
f 177/210/270 176/209/270 178/211/270
f 177/210/271 178/211/272 179/212/273
f 164/196/261 167/199/262 180/213/274
f 181/214/275 182/215/276 183/216/275
f 161/193/277 184/217/277 185/218/277
f 186/219/277 187/220/277 160/192/277
f 153/185/277 188/221/277 189/222/277
f 190/223/277 191/224/277 156/188/277
f 168/200/277 192/225/277 193/226/277
f 194/227/277 195/228/277 171/203/277
f 196/229/278 197/230/278 198/231/278
f 196/229/279 198/231/280 163/232/281
f 199/233/282 197/230/282 196/229/282
f 199/233/283 196/229/284 200/234/285
f 201/235/286 202/236/286 181/214/286
f 201/235/287 181/214/275 183/216/275
f 203/237/277 204/238/277 205/239/277
f 206/240/277 203/237/277 205/239/277
f 174/207/288 151/241/288 207/242/288
f 208/243/289 209/244/289 167/245/289
f 210/246/290 208/243/290 167/245/290
f 210/246/291 167/245/292 200/247/293
f 208/248/294 210/249/294 150/250/294
f 151/251/295 150/250/295 210/249/295
f 151/251/296 210/249/296 207/252/296
f 172/253/297 207/252/297 210/249/297
f 170/202/265 172/204/267 210/254/298
f 170/202/299 210/254/300 157/255/301
f 155/187/302 157/189/302 210/256/302
f 155/187/303 210/256/303 179/257/303
f 177/210/271 179/212/273 210/258/304
f 177/210/305 210/258/306 158/259/307
f 159/191/308 158/190/308 210/246/308
f 159/191/309 210/246/309 163/195/309
f 205/260/310 200/247/293 167/245/292
f 211/261/311 166/198/311 165/197/311
f 212/262/277 213/263/277 175/208/277
f 178/211/277 214/264/277 215/265/277
f 162/194/312 160/192/312 159/191/312
f 216/266/277 217/267/277 199/233/277
f 198/231/277 218/268/277 219/269/277
f 183/216/313 180/213/313 167/199/313
f 180/213/314 183/216/314 182/215/314
f 151/241/288 174/207/288 81/206/288
f 170/202/299 157/255/301 168/200/315
f 155/187/316 179/257/316 153/185/316
f 177/210/305 158/259/307 175/208/317
f 196/229/279 163/232/281 210/254/318
f 200/234/285 196/229/284 210/254/319
f 220/270/277 221/271/277 222/272/277
f 221/271/277 223/273/277 222/272/277
f 220/270/277 222/272/277 224/274/277
f 224/274/277 222/272/277 225/275/277
f 225/275/277 222/272/277 226/276/277
f 227/277/277 222/272/277 223/273/277
f 53/278/320 228/279/320 229/280/320
f 53/278/321 229/280/321 230/281/321
f 230/281/241 229/280/322 231/282/323
f 230/281/324 231/282/324 64/283/324
f 232/284/325 233/285/325 229/280/325
f 229/280/326 233/285/326 234/286/326
f 229/280/322 234/286/230 235/287/327
f 235/287/328 234/286/329 47/288/330
f 93/289/331 236/290/331 237/291/331
f 93/289/332 237/291/332 235/287/332
f 235/287/327 237/291/333 229/280/322
f 238/292/334 67/293/334 237/291/334
f 237/291/335 67/293/335 231/282/335
f 237/291/333 231/282/323 229/280/322
f 229/280/336 228/279/336 239/294/336
f 229/280/337 239/294/337 232/284/337
f 240/295/338 230/281/338 64/283/338
f 241/296/339 53/278/339 230/281/339
f 242/297/340 234/286/340 233/285/340
f 47/288/330 234/286/329 243/298/341
f 153/185/342 244/299/342 154/186/342
f 156/188/343 154/186/343 244/299/343
f 244/299/344 157/189/344 156/188/344
f 160/192/345 245/300/345 158/190/345
f 245/300/346 162/194/346 161/193/346
f 161/193/347 163/195/347 245/300/347
f 246/301/348 165/197/348 164/196/348
f 164/196/349 247/302/350 246/301/351
f 168/200/352 248/303/352 169/201/352
f 171/203/353 169/201/353 248/303/353
f 248/303/354 172/204/355 171/203/354
f 174/207/356 152/304/356 173/205/356
f 175/208/357 249/305/357 176/209/357
f 178/211/358 176/209/358 249/305/358
f 249/305/359 179/212/360 178/211/361
f 180/213/350 247/302/350 164/196/349
f 250/306/362 182/215/362 181/214/362
f 198/231/363 197/230/363 251/307/363
f 251/307/364 163/232/365 198/231/366
f 251/307/367 197/230/367 199/233/367
f 199/233/368 200/234/369 251/307/370
f 181/214/371 202/236/371 252/308/371
f 252/308/362 250/306/362 181/214/362
f 247/309/372 250/310/373 167/311/372
f 183/312/373 167/311/372 250/310/373
f 250/310/374 201/313/374 183/312/374
f 207/242/375 149/314/375 174/207/375
f 208/243/376 247/315/376 209/244/376
f 247/315/377 208/243/377 253/316/377
f 253/316/378 200/247/378 247/315/378
f 150/250/379 253/317/379 208/248/379
f 253/317/380 150/250/380 149/318/380
f 149/318/381 207/252/381 253/317/381
f 172/253/382 253/317/382 207/252/382
f 253/319/383 172/204/355 248/303/354
f 248/303/384 157/255/385 253/319/386
f 253/320/387 157/189/387 244/299/387
f 244/299/388 179/257/388 253/320/388
f 253/321/389 179/212/360 249/305/359
f 249/305/390 158/259/391 253/321/392
f 253/316/393 158/190/393 245/300/393
f 245/300/394 163/195/394 253/316/394
f 205/260/395 247/315/395 200/247/395
f 165/197/396 246/301/396 211/261/396
f 245/300/397 160/192/397 162/194/397
f 247/302/398 180/213/398 250/306/398
f 182/215/399 250/306/399 180/213/399
f 252/322/374 201/313/374 250/310/374
f 152/304/375 174/207/375 149/314/375
f 168/200/400 157/255/385 248/303/384
f 153/185/401 179/257/401 244/299/401
f 175/208/402 158/259/391 249/305/390
f 253/319/386 163/232/365 251/307/364
f 253/319/403 251/307/370 200/234/369
f 254/323/404 228/279/404 53/278/404
f 53/278/405 255/324/405 254/323/405
f 256/325/406 254/323/407 255/324/408
f 255/324/409 64/283/410 256/325/411
f 232/284/412 254/323/412 233/285/412
f 257/326/413 233/285/413 254/323/413
f 254/323/407 258/327/414 257/326/415
f 47/288/416 257/326/416 258/327/416
f 122/328/417 236/290/417 93/289/417
f 93/289/418 258/327/418 122/328/418
f 254/323/407 122/328/419 258/327/414
f 238/292/420 122/328/420 67/293/420
f 256/325/421 67/293/421 122/328/421
f 122/328/419 254/323/407 256/325/406
f 259/329/422 228/279/422 254/323/422
f 254/323/423 232/284/423 259/329/423
f 64/283/410 255/324/409 240/295/424
f 241/296/425 255/324/425 53/278/425
f 233/285/426 257/326/426 242/297/426
f 243/298/427 257/326/427 47/288/427
f 166/330/428 211/331/428 246/332/428
f 246/332/429 167/311/430 166/330/431
f 167/311/430 246/332/429 247/309/432
f 260/333/433 261/334/433 262/335/433
f 263/336/433 264/337/433 265/338/433
f 266/339/433 267/340/433 268/341/433
f 269/342/433 270/343/433 271/344/433
f 272/345/433 273/346/433 274/347/433
f 275/348/433 273/346/433 272/345/433
f 276/349/433 277/350/433 278/351/433
f 279/352/433 280/353/433 281/354/433
f 282/355/433 283/356/433 284/357/433
f 285/358/433 286/359/433 287/360/433
f 288/361/433 289/362/433 290/363/433
f 290/363/433 289/362/433 291/364/433
f 288/361/433 292/365/433 289/362/433
f 292/365/433 293/366/433 289/362/433
f 293/366/433 294/367/433 289/362/433
f 295/368/433 291/364/433 289/362/433
