mtllib oathkeeper.mtl
v 0.242200 -57.436615 3.965691
v 0.257800 -55.767513 -0.000009
v 0.242199 -53.149315 3.603691
v 0.242198 -45.239616 -0.000007
v 0.242199 -48.912914 2.227192
v 0.242199 -53.149315 -3.603709
v 0.242199 -49.893517 -6.416608
v 0.242199 -48.912914 -2.227208
v 0.242200 -57.436615 -3.965709
v 0.242199 -49.893517 6.416592
v -0.007806 -19.751316 -2.468403
v -0.000006 -21.788116 -0.786704
v -0.000006 -21.788116 0.786696
v -0.007806 -19.751316 2.468397
v -0.000007 -17.062317 -1.984703
v -0.000007 -17.062317 1.984697
v 1.414098 -43.064915 -4.540407
v 0.187498 -45.067814 -4.977507
v -0.000002 -45.408913 1.928693
v -0.000002 -45.408913 -1.928707
v -0.000001 -49.559814 -1.928708
v -0.000001 -49.559814 1.928692
v -0.000005 -24.263115 -0.786704
v -0.000005 -24.263115 0.788196
v 2.249998 -44.367115 -9.617408
v 1.062495 -24.263115 -0.000004
v -1.062505 -24.263115 -0.000004
v -1.070305 -26.666414 -0.000004
v 1.054695 -26.666414 -0.000004
v -1.070305 -29.611315 -0.000005
v 1.054695 -29.611315 -0.000005
v -1.070304 -32.645912 -0.000005
v 1.054696 -32.645912 -0.000005
v -1.070303 -35.683617 -0.000006
v 1.054697 -35.683617 -0.000006
v -1.070303 -38.712112 -0.000006
v 1.054697 -38.712112 -0.000006
v -1.062502 -46.397217 -0.000008
v 1.062498 -46.397217 -0.000008
v 1.054698 -41.760616 -0.000007
v -1.070302 -41.760616 -0.000007
v 0.242200 -57.436615 3.965691
v 0.242199 -53.149315 3.603691
v 0.257800 -55.767513 -0.000009
v 0.242198 -45.239616 -0.000007
v 0.242199 -48.912914 2.227192
v 0.242199 -53.149315 -3.603709
v 0.242199 -48.912914 -2.227208
v 0.242199 -49.893517 -6.416608
v 0.242200 -57.436615 -3.965709
v 0.242199 -49.893517 6.416592
v -0.007806 -19.751316 -2.468403
v -0.000006 -21.788116 0.786696
v -0.000006 -21.788116 -0.786704
v -0.007806 -19.751316 2.468397
v -0.000007 -17.062317 -1.984703
v -0.000007 -17.062317 1.984697
v 1.414098 -43.064915 -4.540407
v 0.187498 -45.067814 -4.977507
v -0.000002 -45.408913 1.928693
v -0.000001 -49.559814 -1.928708
v -0.000002 -45.408913 -1.928707
v -0.000001 -49.559814 1.928692
v -0.000005 -24.263115 -0.786704
v -0.000005 -24.263115 0.788196
v 2.249998 -44.367115 -9.617408
v 1.062495 -24.263115 -0.000004
v -1.070305 -26.666414 -0.000004
v -1.062505 -24.263115 -0.000004
v 1.054695 -26.666414 -0.000004
v -1.070305 -29.611315 -0.000005
v 1.054695 -29.611315 -0.000005
v -1.070304 -32.645912 -0.000005
v 1.054696 -32.645912 -0.000005
v -1.070303 -35.683617 -0.000006
v 1.054697 -35.683617 -0.000006
v -1.070303 -38.712112 -0.000006
v 1.054697 -38.712112 -0.000006
v -1.062502 -46.397217 -0.000008
v 1.054698 -41.760616 -0.000007
v 1.062498 -46.397217 -0.000008
v -1.070302 -41.760616 -0.000007
vt 0.873600 0.169800
vt 0.805500 0.002900
vt 0.696300 0.154800
vt 0.369200 0.004000
vt 0.521200 0.097900
vt 0.695800 0.155200
vt 0.564500 0.271500
vt 0.520900 0.098100
vt 0.475900 0.309200
vt 0.911100 0.309200
vt 0.759400 0.401500
vt 0.584400 0.458600
vt 0.407100 0.473700
vt 0.584000 0.458300
vt 0.718100 0.574100
vt 0.759000 0.401300
vt 0.079200 0.006200
vt 0.146900 0.088200
vt 0.217000 0.088200
vt 0.284700 0.006400
vt 0.122700 0.359000
vt 0.005500 0.544400
vt 0.122600 0.525100
vt 0.005600 0.339500
vt 0.097400 0.735100
vt 0.006900 0.725000
vt 0.010900 0.894500
vt 0.461100 0.100700
vt 0.375100 0.100700
vt 0.375100 0.197600
vt 0.461100 0.197500
vt 0.146700 0.190500
vt 0.217000 0.190600
vt 0.067000 0.549100
vt 0.091500 0.061500
vt 0.006200 0.061800
vt 0.006200 0.158900
vt 0.091500 0.158100
vt 0.006200 0.209400
vt 0.091500 0.090000
vt 0.006200 0.090400
vt 0.091500 0.134900
vt 0.006200 0.135500
vt 0.006200 0.250100
vt 0.091500 0.248800
vt 0.091500 0.208400
vt 0.091500 0.108100
vt 0.006200 0.108600
vt 0.006200 0.242400
vt 0.091500 0.241200
vt 0.006200 0.214400
vt 0.091500 0.213300
vt 0.091500 0.098900
vt 0.006200 0.099400
vt 0.005400 0.309500
vt 0.090800 0.308000
vt 0.090800 0.108400
vt 0.005400 0.108900
vt 0.007000 0.251300
vt 0.092300 0.250000
vt 0.092300 0.142100
vt 0.007000 0.142800
vt 0.873600 0.169800
vt 0.696300 0.154800
vt 0.805500 0.002900
vt 0.369200 0.004000
vt 0.521200 0.097900
vt 0.695800 0.155200
vt 0.520900 0.098100
vt 0.564500 0.271500
vt 0.475900 0.309200
vt 0.759400 0.401500
vt 0.911100 0.309200
vt 0.584400 0.458600
vt 0.407100 0.473700
vt 0.584000 0.458300
vt 0.759000 0.401300
vt 0.718100 0.574100
vt 0.079200 0.006200
vt 0.217000 0.088200
vt 0.146900 0.088200
vt 0.284700 0.006400
vt 0.122700 0.359000
vt 0.122600 0.525100
vt 0.005500 0.544400
vt 0.005600 0.339500
vt 0.097400 0.735100
vt 0.010900 0.894500
vt 0.006900 0.725000
vt 0.461100 0.100700
vt 0.375100 0.197600
vt 0.375100 0.100700
vt 0.461100 0.197500
vt 0.146700 0.190500
vt 0.217000 0.190600
vt 0.067000 0.549100
vt 0.091500 0.061500
vt 0.006200 0.158900
vt 0.006200 0.061800
vt 0.091500 0.158100
vt 0.006200 0.209400
vt 0.006200 0.090400
vt 0.091500 0.090000
vt 0.091500 0.134900
vt 0.006200 0.250100
vt 0.006200 0.135500
vt 0.091500 0.248800
vt 0.091500 0.208400
vt 0.091500 0.108100
vt 0.006200 0.242400
vt 0.006200 0.108600
vt 0.091500 0.241200
vt 0.006200 0.214400
vt 0.091500 0.098900
vt 0.091500 0.213300
vt 0.006200 0.099400
vt 0.005400 0.309500
vt 0.090800 0.108400
vt 0.090800 0.308000
vt 0.005400 0.108900
vt 0.007000 0.251300
vt 0.092300 0.142100
vt 0.092300 0.250000
vt 0.007000 0.142800
vn 1.0000 0.0003 0.0041
vn 1.0000 0.0015 0.0024
vn 1.0000 -0.0000 0.0000
vn -1.0000 -0.0013 0.0028
vn -1.0000 -0.0015 0.0024
vn -1.0000 -0.0013 0.0030
vn -1.0000 -0.0006 0.0039
vn -1.0000 -0.0003 0.0041
vn -1.0000 -0.0001 -0.0005
vn -1.0000 0.0000 0.0000
vn -1.0000 -0.0009 -0.0030
vn -1.0000 -0.0011 -0.0035
vn -1.0000 -0.0033 0.0000
vn -1.0000 -0.0004 -0.0000
vn -1.0000 0.0035 -0.0000
vn -1.0000 0.0029 0.0000
vn -0.8551 0.5177 0.0273
vn -0.7936 0.5450 -0.2705
vn 0.0000 -0.0000 1.0000
vn -1.0000 -0.0003 -0.0041
vn -1.0000 -0.0015 -0.0024
vn 1.0000 0.0014 -0.0027
vn 1.0000 0.0015 -0.0024
vn 1.0000 0.0009 -0.0037
vn 1.0000 0.0003 -0.0041
vn 1.0000 0.0001 0.0005
vn 1.0000 0.0009 0.0029
vn 1.0000 0.0011 0.0035
vn 1.0000 0.0033 -0.0000
vn 1.0000 0.0004 0.0000
vn 1.0000 -0.0035 0.0000
vn 1.0000 -0.0029 0.0000
vn 0.8551 -0.5177 -0.0273
vn 0.7936 -0.5450 0.2705
vn 0.0000 0.0000 -1.0000
o keychain
usemtl Material__901
f 1/1/1 2/2/1 3/3/1
f 4/4/2 5/5/2 2/2/2
f 6/6/3 7/7/3 8/8/3
f 2/9/4 4/10/5 8/11/6
f 6/12/7 2/9/4 8/11/6
f 9/13/8 2/9/4 6/12/7
f 3/14/9 10/15/10 5/16/11
f 2/9/12 3/14/9 5/16/11
f 11/17/13 12/18/14 13/19/14
f 13/19/14 14/20/15 11/17/13
f 15/21/16 14/22/15 16/23/16
f 14/22/15 15/21/16 11/24/13
f 17/25/17 18/26/17 4/27/17
f 19/28/10 20/29/10 21/30/10
f 21/30/10 22/31/10 19/28/10
f 23/32/10 24/33/10 13/19/14
f 17/25/18 25/34/18 18/26/18
f 12/18/14 23/32/10 13/19/14
f 26/35/19 27/36/19 28/37/19
f 26/35/19 28/37/19 29/38/19
f 30/39/19 29/40/19 28/41/19
f 31/42/19 30/43/19 32/44/19
f 33/45/19 31/42/19 32/44/19
f 31/46/19 29/40/19 30/39/19
f 33/47/19 32/48/19 34/49/19
f 35/50/19 33/47/19 34/49/19
f 36/51/19 37/52/19 35/53/19
f 34/54/19 36/51/19 35/53/19
f 38/55/19 39/56/19 40/57/19
f 41/58/19 38/55/19 40/57/19
f 41/59/19 40/60/19 37/61/19
f 36/62/19 41/59/19 37/61/19
f 42/63/20 43/64/20 44/65/20
f 45/66/21 44/65/21 46/67/21
f 47/68/10 48/69/10 49/70/10
f 44/71/22 48/72/22 45/73/23
f 47/74/24 48/72/22 44/71/22
f 50/75/25 47/74/24 44/71/22
f 43/76/26 46/77/27 51/78/3
f 44/71/28 46/77/27 43/76/26
f 52/79/29 53/80/30 54/81/30
f 53/80/30 52/79/29 55/82/31
f 56/83/32 57/84/32 55/85/31
f 55/85/31 52/86/29 56/83/32
f 58/87/33 45/88/33 59/89/33
f 60/90/3 61/91/3 62/92/3
f 61/91/3 60/90/3 63/93/3
f 64/94/3 53/80/30 65/95/3
f 58/87/34 59/89/34 66/96/34
f 54/81/30 53/80/30 64/94/3
f 67/97/35 68/98/35 69/99/35
f 67/97/35 70/100/35 68/98/35
f 71/101/35 68/102/35 70/103/35
f 72/104/35 73/105/35 71/106/35
f 74/107/35 73/105/35 72/104/35
f 72/108/35 71/101/35 70/103/35
f 74/109/35 75/110/35 73/111/35
f 76/112/35 75/110/35 74/109/35
f 77/113/35 76/114/35 78/115/35
f 75/116/35 76/114/35 77/113/35
f 79/117/35 80/118/35 81/119/35
f 82/120/35 80/118/35 79/117/35
f 82/121/35 78/122/35 80/123/35
f 77/124/35 78/122/35 82/121/35
