mtllib oblivion.mtl
v -0.242208 -13.997364 -1.870102
v -0.242209 -8.609965 -6.408901
v -0.242208 -10.502865 -2.011202
v -2.015611 4.789741 -15.508099
v -0.242211 4.440840 -10.549999
v -0.242211 6.514134 -10.107299
v -0.960909 -9.357068 8.653698
v -0.242209 -8.609967 6.408998
v -0.242208 -13.997364 1.870098
v -0.242210 -3.448969 9.900799
v -1.460909 -3.989969 12.741599
v -0.242210 0.207434 10.731100
v -2.019511 4.789736 15.508201
v -0.242211 4.440836 10.550001
v -0.242211 6.514032 10.382001
v -0.242212 13.046239 -5.656298
v -0.242211 7.191434 -8.353299
v -0.242211 6.467534 -6.138199
v -1.625013 14.494635 -9.518298
v -1.597713 15.101033 -5.590097
v -1.761713 15.030134 -11.371497
v -1.976612 12.692236 -14.065998
v -0.242212 12.297535 0.000002
v -0.242212 9.140331 0.000001
v -0.242211 6.467532 6.138301
v -0.242212 13.046237 5.656402
v -0.242211 7.191432 8.353301
v -0.242207 -16.212467 -4.081203
v -0.242207 -17.614067 -5.817203
v -1.179707 -17.287865 -1.806203
v -0.242221 67.636627 2.922911
v -1.664122 71.653931 5.300911
v -2.359422 71.653931 0.000012
v -0.242219 56.708134 4.225109
v -0.242208 -14.043065 4.986998
v -0.242208 -12.383267 4.229798
v -0.242207 -16.212467 4.081197
v -1.179707 -17.287865 1.806197
v -0.242207 -17.614067 5.817297
v -1.796908 -11.866966 -0.000002
v -0.242208 -14.043063 -4.987002
v -0.242208 -12.383265 -4.229802
v -1.601613 15.101031 5.590102
v -1.007813 17.428934 6.939803
v -0.242213 18.725033 4.540203
v -1.625013 14.494631 9.518302
v -0.242210 0.207438 -10.731000
v -1.457010 -3.989965 -12.741601
v -0.242210 -3.448965 -9.900701
v -0.961009 -9.357066 -8.653602
v -0.679708 -12.672666 7.831198
v -0.242208 -10.286965 7.297698
v -0.242208 -12.576268 7.126298
v -0.679708 -12.672664 -7.831102
v -0.242208 -12.576266 -7.126302
v -0.242208 -10.286864 -7.297602
v -4.773413 16.249638 0.000003
v -2.359414 22.889736 0.000004
v -1.820313 16.249638 -3.393197
v -1.820313 16.249638 3.393303
v -2.039111 5.052731 0.000001
v -0.242215 31.255932 -4.224995
v -0.242214 22.889736 -5.630696
v -0.242219 56.708134 -4.224991
v -0.242215 31.255932 4.225105
v -0.242214 22.889736 5.630704
v -0.242221 67.644135 -2.923089
v -0.242222 71.653931 -5.313589
v -0.242222 71.286728 6.452511
v 0.523387 17.428934 6.939803
v -1.007813 17.428938 -6.939697
v -0.238313 18.725033 -4.540097
v 0.523387 17.428938 -6.939697
v 1.140587 14.494635 -9.518298
v 1.117187 15.101031 5.590102
v 1.121087 15.101033 -5.590097
v -0.238313 17.133139 -11.203497
v 1.492188 12.692236 -14.065998
v 1.278687 15.028639 -11.371497
v -1.765613 15.030130 11.371503
v 1.275987 15.028635 11.371503
v -1.976612 12.692232 14.066102
v 1.492188 12.692232 14.066102
v -0.242213 17.133135 11.203603
v 0.203092 -12.672664 -7.831102
v -0.238308 -16.118864 -8.041403
v -0.242213 19.578037 -3.226097
v -0.242213 19.578037 3.226203
v 1.140587 14.494631 9.518302
v -0.242208 -16.118868 8.041397
v -0.242207 -22.122166 -0.000004
v -0.242207 -17.287865 1.806197
v -0.242207 -17.287865 -1.806203
v 1.535189 4.789741 -15.508099
v 1.531289 4.789736 15.508201
v 0.195292 -12.672666 7.831198
v 0.972691 -3.989969 12.741599
v 0.476591 -9.357068 8.653698
v 0.976591 -3.989965 -12.741601
v 0.484391 -9.357066 -8.653602
v -0.242208 -10.502865 2.011298
v 0.695293 -17.287865 -1.806203
v 1.179678 71.653931 5.300911
v 1.874978 71.653931 0.000012
v 0.695293 -17.287865 1.806197
v 1.312492 -11.866966 -0.000002
v 1.874986 22.889736 0.000004
v 4.289087 16.249638 0.000003
v 1.335887 16.249638 -3.393197
v 1.335887 16.249638 3.393303
v 1.554689 5.052731 0.000001
v -0.242210 -0.903365 -8.998400
v -0.242210 -0.903368 8.998400
v -0.242208 -14.043065 4.986998
v -0.242207 -16.212467 4.081197
v -0.242208 -13.997364 1.870098
v -0.242208 -12.383267 4.229798
v -0.242208 -14.043063 -4.987002
v -0.242208 -13.997364 -1.870102
v -0.242207 -16.212467 -4.081203
v -0.242208 -12.383265 -4.229802
v -0.242208 -13.997364 -1.870102
v -0.242208 -10.502865 -2.011202
v -0.242209 -8.609965 -6.408901
v -0.242212 13.046239 -5.656298
v -0.242211 6.467534 -6.138199
v -0.242211 7.191434 -8.353299
v -0.242212 9.140331 0.000001
v -0.242212 12.297535 0.000002
v -0.242211 6.467532 6.138301
v -0.242212 13.046237 5.656402
v -0.242211 7.191432 8.353301
v -0.242208 -10.502865 2.011298
v -0.242208 -13.997364 1.870098
v -0.242209 -8.609967 6.408998
v -0.242210 -0.903365 -8.998400
v -0.242210 0.207438 -10.731000
v -0.242211 4.440840 -10.549999
v -0.242210 0.207434 10.731100
v -0.242210 -0.903368 8.998400
v -0.242211 4.440836 10.550001
v -2.007823 81.471924 10.274814
v -2.359423 81.471924 0.000013
v -0.242223 79.640533 6.374313
v -0.242224 83.303329 6.374313
v -0.242224 84.783936 10.406413
v -0.242225 90.631531 8.548514
v -0.242225 89.680527 6.999815
v -0.242222 75.369125 10.035913
v -0.242222 73.537231 6.374312
v -0.242222 74.537827 3.301712
v -0.242223 78.352432 3.301713
v -1.679722 70.648529 8.323812
v -0.242222 72.629623 9.672212
v -0.242221 68.036835 5.779411
v -2.359425 92.872833 0.000015
v -0.242225 92.442337 -3.472985
v -0.242224 84.494736 -3.301686
v -0.242227 103.548828 0.000017
v -0.242225 92.442337 3.472915
v -0.242222 73.989624 15.213212
v -0.242223 78.274338 17.166313
v -0.242223 79.926636 15.213213
v -0.242222 74.165237 18.320812
v -0.242224 84.672729 17.166313
v -0.242224 83.332336 18.320814
v -0.242225 88.778625 18.320816
v -0.242224 83.017227 15.213213
v -0.242225 88.954224 15.213214
v -0.242223 78.159927 10.406412
v -0.242223 81.471924 13.391213
v -0.242222 71.654037 18.857811
v -0.242222 70.431824 21.715712
v -1.492222 72.929031 19.332512
v -1.679725 92.295425 8.323815
v -0.242225 91.749924 7.585615
v -0.242226 95.790237 6.355616
v -0.242221 65.298828 6.604411
v -0.242221 69.403137 9.357012
v -1.609422 72.549728 14.307611
v -0.242224 87.095428 6.355515
v -0.242224 87.089233 3.357614
v -0.242223 79.611526 18.320814
v -2.007823 81.471924 16.986914
v -0.242223 78.352432 -3.301687
v -0.242222 73.643738 20.381111
v -1.492225 90.014832 19.332516
v -0.242225 92.512131 21.715715
v -0.242225 91.289932 18.857515
v -1.601625 90.394135 14.311014
v -0.242222 74.724930 -3.301688
v -0.242225 89.300232 20.381115
v -0.242222 73.679230 13.391212
v -0.242222 71.248734 14.729311
v -0.242222 73.938934 14.310912
v -0.242225 91.695236 14.729315
v -0.242225 89.004929 14.311014
v -0.242226 96.904633 -2.077484
v -0.242226 95.790237 -6.355384
v -2.007823 81.475128 13.391213
v -0.242224 84.494736 3.301714
v -0.242223 81.471924 -5.313587
v -0.242225 93.582733 8.965715
v -0.242225 89.264633 13.391214
v -1.570323 82.254532 14.310913
v -1.570323 80.689331 14.310913
v -0.242226 96.904633 2.077616
v -0.242223 81.471916 25.366314
v 1.523377 81.475128 13.391213
v 1.874977 81.471924 0.000013
v 1.523377 81.471924 10.274814
v 1.195278 70.648529 8.323812
v 1.874975 92.872833 0.000015
v 1.007778 72.929031 19.332512
v 1.195275 92.295425 8.323815
v 1.124978 72.549728 14.307611
v 1.523377 81.471924 16.986914
v 1.007775 90.014832 19.332516
v 1.117175 90.394135 14.311014
v -0.242224 87.095428 -6.355386
v 1.085876 82.254532 14.310913
v 1.085877 80.689331 14.310913
v -0.242224 87.089233 -3.357486
v -0.242225 90.631531 8.548514
v -0.242224 84.783936 10.406413
v -0.242225 89.680527 6.999815
v -0.242222 73.989624 15.213212
v -0.242223 79.926636 15.213213
v -0.242223 78.274338 17.166313
v -0.242222 74.165237 18.320812
v -0.242224 84.672729 17.166313
v -0.242225 88.778625 18.320816
v -0.242224 83.332336 18.320814
v -0.242224 83.017227 15.213213
v -0.242225 88.954224 15.213214
v -0.242224 87.095428 6.355515
v -0.242224 87.089233 3.357614
v -0.242225 92.442337 3.472915
v -0.242226 95.790237 6.355616
v -0.242223 78.159927 10.406412
v -0.242222 73.679230 13.391212
v -0.242222 72.629623 9.672212
v -0.242222 73.537231 6.374312
v -0.242225 92.442337 -3.472985
v -0.242226 95.790237 -6.355384
v -0.242226 96.904633 -2.077484
v -0.242223 79.640533 6.374313
v -0.242226 96.904633 2.077616
v -0.242223 79.611526 18.320814
v -2.007823 81.475128 13.391213
v 1.523377 81.475128 13.391213
v -0.242224 83.303329 6.374313
v -0.242225 89.264633 13.391214
v -0.242223 81.471924 13.391213
v -0.242224 87.095428 -6.355386
v -0.242222 73.679230 13.391212
v -1.609422 72.549728 14.307611
v -1.570323 80.689331 14.310913
v -0.242223 78.352432 3.301713
v -0.242222 74.537827 3.301712
v -0.242224 87.089233 -3.357486
v -0.242223 81.471924 13.391213
vt 0.239800 0.944600
vt 0.355900 0.790600
vt 0.236100 0.848100
vt 0.593900 0.402600
vt 0.455400 0.422900
vt 0.444600 0.365000
vt 0.433000 0.816000
vt 0.355900 0.790600
vt 0.239800 0.944600
vt 0.443800 0.642700
vt 0.534000 0.659500
vt 0.454000 0.529900
vt 0.593900 0.402600
vt 0.455400 0.422900
vt 0.444600 0.365000
vt 0.312000 0.181400
vt 0.390300 0.345600
vt 0.329000 0.364700
vt 0.421200 0.136900
vt 0.311300 0.116900
vt 0.472700 0.123400
vt 0.561400 0.190400
vt 0.155500 0.202600
vt 0.155500 0.290400
vt 0.329000 0.364700
vt 0.312000 0.181400
vt 0.390300 0.345600
vt 0.592600 0.867100
vt 0.560300 0.895000
vt 0.645700 0.884200
vt 0.888600 0.097300
vt 0.846000 0.004500
vt 0.995700 0.004500
vt 0.862300 0.317000
vt 0.230700 0.491100
vt 0.259400 0.380100
vt 0.430500 0.452600
vt 0.313600 0.612400
vt 0.645700 0.884200
vt 0.560300 0.895000
vt 0.592600 0.867100
vt 0.628700 0.815900
vt 0.678800 0.774800
vt 0.230700 0.491100
vt 0.313600 0.612400
vt 0.430500 0.452600
vt 0.259400 0.380100
vt 0.311300 0.116900
vt 0.359200 0.050000
vt 0.294100 0.005200
vt 0.421200 0.136900
vt 0.454000 0.529900
vt 0.534000 0.659500
vt 0.443800 0.642700
vt 0.433000 0.816000
vt 0.420200 0.909900
vt 0.392300 0.844800
vt 0.395600 0.907600
vt 0.420200 0.909900
vt 0.395600 0.907600
vt 0.392300 0.844800
vt 0.146400 0.646700
vt 0.145500 0.433500
vt 0.276700 0.646700
vt 0.015200 0.646700
vt 0.145200 0.998600
vt 0.865400 0.827000
vt 0.825900 0.995400
vt 0.995700 0.995200
vt 0.862300 0.317000
vt 0.865400 0.827000
vt 0.825900 0.995400
vt 0.888600 0.097300
vt 0.846000 0.004500
vt 0.791100 0.031800
vt 0.104400 0.272700
vt 0.119800 0.218300
vt 0.135300 0.272700
vt 0.147000 0.348600
vt 0.359200 0.050000
vt 0.294100 0.005200
vt 0.104400 0.272700
vt 0.119800 0.218300
vt 0.135300 0.272700
vt 0.147000 0.348600
vt 0.066600 0.215700
vt 0.067500 0.442900
vt 0.012700 0.442800
vt 0.820500 0.797800
vt 0.789700 0.909600
vt 0.756700 0.802100
vt 0.842800 0.662200
vt 0.090900 0.346600
vt 0.151700 0.392400
vt 0.090200 0.394900
vt 0.472700 0.123400
vt 0.151700 0.392400
vt 0.090200 0.394900
vt 0.561400 0.190400
vt 0.820500 0.797800
vt 0.789700 0.909600
vt 0.756700 0.802100
vt 0.756800 0.662700
vt 0.788800 0.265100
vt 0.799100 0.196100
vt 0.808700 0.265300
vt 0.628700 0.815900
vt 0.602500 0.146200
vt 0.679400 0.076800
vt 0.558300 0.076900
vt 0.749700 0.145300
vt 0.793000 0.076000
vt 0.678300 0.774800
vt 0.090900 0.346600
vt 0.722600 0.814400
vt 0.000000 0.117600
vt 0.474900 0.051900
vt 0.474900 0.051900
vt 0.422900 0.990900
vt 0.422900 0.990900
vt 0.519100 0.721700
vt 0.519100 0.921300
vt 0.478500 0.828400
vt 0.558200 0.828500
vt 0.012600 0.216900
vt 0.756800 0.662700
vt 0.842800 0.662200
vt 0.806100 0.996500
vt 0.580100 0.919100
vt 0.437900 0.996200
vt 0.580100 0.919100
vt 0.118600 0.426700
vt 0.040000 0.517600
vt 0.067500 0.442900
vt 0.012700 0.442800
vt 0.799100 0.196100
vt 0.788800 0.265100
vt 0.808700 0.265300
vt 0.816900 0.333600
vt 0.765700 0.473500
vt 0.822400 0.472700
vt 0.842800 0.662200
vt 0.783700 0.334000
vt 0.756800 0.662700
vt 0.118600 0.426700
vt 0.151700 0.392400
vt 0.090200 0.394900
vt 0.040000 0.517600
vt 0.816900 0.333600
vt 0.765700 0.473500
vt 0.822400 0.472700
vt 0.783700 0.334000
vt 0.593900 0.402600
vt 0.236100 0.848100
vt 0.433000 0.816000
vt 0.534000 0.659500
vt 0.593900 0.402600
vt 0.421200 0.136900
vt 0.311300 0.116900
vt 0.472700 0.123400
vt 0.561400 0.190400
vt 0.645700 0.884200
vt 0.846000 0.004500
vt 0.995700 0.004500
vt 0.645700 0.884200
vt 0.678800 0.774800
vt 0.359200 0.050000
vt 0.311300 0.116900
vt 0.421200 0.136900
vt 0.534000 0.659500
vt 0.433000 0.816000
vt 0.420200 0.909900
vt 0.420200 0.909900
vt 0.145500 0.433500
vt 0.146400 0.646700
vt 0.276700 0.646700
vt 0.015200 0.646700
vt 0.145200 0.998600
vt 0.995700 0.995200
vt 0.359200 0.050000
vt 0.407200 0.562600
vt 0.472700 0.123400
vt 0.561400 0.190400
vt 0.407200 0.562600
vt 0.679400 0.076800
vt 0.678300 0.774800
vt 0.000000 0.117600
vt 0.519100 0.721700
vt 0.580100 0.919100
vt 0.806100 0.996500
vt 0.437900 0.996200
vt 0.580100 0.919100
vt 0.379700 0.954300
vt 0.299900 0.993800
vt 0.379700 0.999800
vt 0.300100 0.964000
vt 0.224200 0.977400
vt 0.013900 0.999800
vt 0.018200 0.927600
vt 0.063900 0.927500
vt 0.073200 0.999100
vt 0.039900 0.819900
vt 0.230700 0.491100
vt 0.313600 0.612400
vt 0.430500 0.452600
vt 0.259400 0.380100
vt 0.230700 0.491100
vt 0.430500 0.452600
vt 0.313600 0.612400
vt 0.259400 0.380100
vt 0.239800 0.944600
vt 0.236100 0.848100
vt 0.355900 0.790600
vt 0.312000 0.181400
vt 0.329000 0.364700
vt 0.390300 0.345600
vt 0.155500 0.290400
vt 0.155500 0.202600
vt 0.329000 0.364700
vt 0.312000 0.181400
vt 0.390300 0.345600
vt 0.236100 0.848100
vt 0.239800 0.944600
vt 0.355900 0.790600
vt 0.407200 0.562600
vt 0.454000 0.529900
vt 0.455400 0.422900
vt 0.454000 0.529900
vt 0.407200 0.562600
vt 0.455400 0.422900
vt 0.481000 0.646000
vt 0.796700 0.653800
vt 0.589300 0.720000
vt 0.589300 0.572300
vt 0.463300 0.540100
vt 0.484500 0.384700
vt 0.557900 0.398200
vt 0.640500 0.963600
vt 0.480100 0.878000
vt 0.596100 0.897700
vt 0.680000 0.860500
vt 0.796700 0.964000
vt 0.680000 0.753300
vt 0.321100 0.725100
vt 0.281800 0.682700
vt 0.277600 0.628400
vt 0.362000 0.699500
vt 0.391900 0.759000
vt 0.796700 0.312300
vt 0.904400 0.316800
vt 0.907400 0.549400
vt 0.793100 0.004100
vt 0.679800 0.316400
vt 0.659800 0.333100
vt 0.604900 0.215500
vt 0.659800 0.167000
vt 0.561900 0.331500
vt 0.604900 0.215500
vt 0.561900 0.183100
vt 0.561900 0.331500
vt 0.659800 0.167000
vt 0.659800 0.333100
vt 0.465400 0.747400
vt 0.378600 0.641700
vt 0.104400 0.756600
vt 0.046800 0.783200
vt 0.093700 0.717000
vt 0.320000 0.353800
vt 0.336400 0.424000
vt 0.304500 0.393500
vt 0.351200 0.376000
vt 0.384000 0.297900
vt 0.393200 0.815100
vt 0.306800 0.764200
vt 0.194300 0.720700
vt 0.999500 0.484300
vt 0.904400 0.316800
vt 0.906400 0.481300
vt 0.999500 0.223200
vt 0.561900 0.048300
vt 0.613300 0.116300
vt 0.604900 0.016200
vt 0.907600 0.758300
vt 0.055600 0.702600
vt 0.006800 0.759900
vt 0.023300 0.686100
vt 0.055200 0.366900
vt 0.086900 0.390500
vt 0.092600 0.349800
vt 0.042700 0.297100
vt 0.102100 0.308000
vt 0.193200 0.351700
vt 0.110400 0.390500
vt 0.907600 0.860900
vt 0.948700 0.964000
vt 0.022900 0.379600
vt 0.004600 0.313500
vt 0.463300 0.540100
vt 0.485100 0.384700
vt 0.378800 0.420400
vt 0.558700 0.396600
vt 0.189800 0.759700
vt 0.188200 0.678900
vt 0.110800 0.677200
vt 0.188500 0.309200
vt 0.187300 0.391400
vt 0.861600 0.195100
vt 0.999500 0.223200
vt 0.717800 0.117300
vt 0.679900 0.544800
vt 0.959900 0.654600
vt 0.313800 0.312000
vt 0.187900 0.418500
vt 0.219600 0.440000
vt 0.187800 0.579300
vt 0.155100 0.445600
vt 0.219600 0.593600
vt 0.155100 0.562400
vt 0.187900 0.418500
vt 0.155100 0.445600
vt 0.187800 0.579300
vt 0.155100 0.562400
vt 0.589300 0.572300
vt 0.861600 0.195100
vt 0.352400 0.115500
vt 0.561900 0.183100
vt 0.585200 0.982900
vt 0.087200 0.677200
vt 0.217200 0.635500
vt 0.122300 0.664400
vt 0.123300 0.594500
vt 0.217200 0.635500
vt 0.796700 0.653800
vt 0.481000 0.646000
vt 0.640500 0.963600
vt 0.796700 0.964000
vt 0.321100 0.725100
vt 0.796700 0.312300
vt 0.378800 0.420400
vt 0.093700 0.717000
vt 0.320000 0.353800
vt 0.194300 0.720700
vt 0.613300 0.116300
vt 0.055600 0.702600
vt 0.055200 0.366900
vt 0.092600 0.349800
vt 0.193200 0.351700
vt 0.999500 0.484300
vt 0.717800 0.117300
vt 0.187900 0.418500
vt 0.187800 0.579300
vt 0.187900 0.418500
vt 0.187800 0.579300
vt 0.219600 0.440000
vt 0.665900 0.530100
vt 0.656000 0.423400
vt 0.906400 0.481300
vt 0.484500 0.384700
vt 0.463300 0.540100
vt 0.557900 0.398200
vt 0.659800 0.333100
vt 0.659800 0.167000
vt 0.604900 0.215500
vt 0.561900 0.331500
vt 0.604900 0.215500
vt 0.561900 0.331500
vt 0.561900 0.183100
vt 0.659800 0.167000
vt 0.659800 0.333100
vt 0.999500 0.484300
vt 0.906400 0.481300
vt 0.904400 0.316800
vt 0.999500 0.223200
vt 0.463300 0.540100
vt 0.378800 0.420400
vt 0.485100 0.384700
vt 0.558700 0.396600
vt 0.904400 0.316800
vt 0.999500 0.223200
vt 0.861600 0.195100
vt 0.589300 0.572300
vt 0.861600 0.195100
vt 0.561900 0.183100
vt 0.217200 0.635500
vt 0.122300 0.664400
vt 0.123300 0.594500
vt 0.589300 0.572300
vt 0.378800 0.420400
vt 0.378600 0.641700
vt 0.999500 0.484300
vt 0.219600 0.440000
vt 0.187900 0.418500
vt 0.187800 0.579300
vt 0.665900 0.530100
vt 0.656000 0.423400
vt 0.906400 0.481300
vt 0.219600 0.593600
vn 1.0000 -0.0000 -0.0000
vn -0.9408 -0.0708 0.3315
vn -0.9505 0.2002 -0.2377
vn -0.9537 0.1686 -0.2492
vn -0.9152 0.1867 -0.3571
vn -0.9214 0.0860 -0.3789
vn -0.9111 0.0700 -0.4061
vn -0.9416 -0.0208 -0.3361
vn -0.9416 -0.0144 -0.3365
vn -0.9416 -0.0256 -0.3357
vn -0.9416 -0.0272 -0.3356
vn -1.0000 -0.0000 -0.0000
vn -0.8299 -0.5504 0.0907
vn -0.9479 -0.1333 0.2894
vn -0.9829 -0.1830 0.0196
vn -0.9840 -0.1661 0.0641
vn -0.9690 -0.1430 0.2014
vn -0.9433 -0.0551 0.3273
vn -0.8336 -0.5476 -0.0725
vn -0.9240 0.2975 -0.2402
vn -0.9116 -0.3934 0.1196
vn -0.8618 0.4945 0.1130
vn -0.8830 0.4549 0.1158
vn -0.7536 0.0778 0.6527
vn -0.2004 -0.7211 -0.6633
vn -0.0000 -0.2803 0.9599
vn -0.9240 0.2975 0.2402
vn -0.9299 0.2599 0.2603
vn -0.6526 0.1716 0.7380
vn -0.9402 0.3151 -0.1298
vn -0.9725 0.2308 0.0298
vn -0.8293 -0.5515 -0.0901
vn -0.9219 0.0858 0.3779
vn -0.9115 0.0697 0.4052
vn -0.9418 -0.0144 0.3359
vn -0.9157 0.1866 0.3560
vn -0.9536 0.1686 0.2492
vn -0.9505 0.2003 0.2377
vn -0.8514 0.0392 -0.5231
vn -0.8514 0.0391 0.5231
vn -0.7275 0.2645 -0.6331
vn -0.7275 0.2645 0.6331
vn -0.7419 -0.1812 0.6456
vn -0.9344 0.0590 -0.3513
vn -0.8940 -0.0000 -0.4480
vn -0.9344 0.0590 0.3513
vn -0.9071 -0.2155 -0.3615
vn -0.9080 0.2113 -0.3618
vn -0.9037 0.2316 -0.3601
vn -0.7538 0.0777 -0.6525
vn -0.8940 -0.0000 0.4480
vn -0.6060 -0.5530 0.5719
vn -0.6067 -0.5504 0.5736
vn -0.6139 -0.5233 0.5911
vn 0.0000 0.8799 0.4752
vn 0.0000 0.6601 0.7512
vn -0.9728 0.2299 -0.0287
vn -0.9401 0.3145 0.1316
vn 0.0000 0.8799 -0.4752
vn 0.0000 0.6601 -0.7512
vn 0.0000 1.0000 0.0000
vn 0.0000 0.5418 -0.8405
vn 0.0000 0.1795 -0.9838
vn 0.0003 0.9608 0.2773
vn 0.0002 0.9608 0.2772
vn 0.0005 0.9607 0.2776
vn -0.9479 -0.1333 -0.2894
vn -0.9829 -0.1826 -0.0218
vn 0.0003 0.9608 -0.2773
vn 0.0005 0.9607 -0.2776
vn 0.0002 0.9608 -0.2772
vn -0.9673 -0.1492 -0.2052
vn -0.9371 -0.0577 -0.3443
vn 0.0000 0.5418 0.8405
vn 0.0000 0.1795 0.9838
vn 0.0000 0.0609 -0.9981
vn -0.6526 0.1716 -0.7380
vn -0.1490 -0.7936 0.5899
vn -0.3595 -0.8399 -0.4066
vn -0.7826 -0.0251 -0.6220
vn -0.9069 -0.2476 -0.3410
vn -0.8423 -0.0136 -0.5388
vn -0.9069 -0.2476 0.3410
vn -0.8423 -0.0136 0.5388
vn 0.0000 0.9609 -0.2769
vn 0.0000 0.9609 0.2769
vn -0.7826 -0.0251 0.6220
vn -0.8329 -0.5487 0.0726
vn -0.9000 -0.4358 -0.0003
vn -0.7174 0.5535 -0.4230
vn -0.9839 -0.1694 -0.0566
vn -0.7171 0.5533 0.4239
vn -0.8329 -0.1384 -0.5359
vn -0.8327 -0.1394 0.5359
vn -0.9176 -0.1391 0.3723
vn -0.9176 -0.1391 -0.3723
vn -0.7418 -0.1812 -0.6456
vn -0.9299 0.2599 -0.2603
vn -0.8683 0.0488 -0.4937
vn -0.8682 0.0488 0.4937
vn 0.9923 0.0178 0.1228
vn 0.9923 0.0178 -0.1228
vn -0.0000 -0.0796 -0.9968
vn 0.0000 -0.2783 -0.9605
vn 0.0000 0.0609 0.9981
vn 0.0000 -0.2408 0.9706
vn 0.0000 -0.6059 0.7955
vn 0.0000 -0.3005 0.9538
vn -0.0000 -0.0796 0.9968
vn 0.0000 -0.2783 0.9605
vn 0.0000 -0.2408 -0.9706
vn 0.0000 -0.6059 -0.7955
vn 0.0000 -0.3005 -0.9538
vn 0.9405 -0.0709 0.3322
vn 0.9505 0.2003 -0.2377
vn 0.9536 0.1686 -0.2492
vn 0.9157 0.1866 -0.3561
vn 0.9219 0.0858 -0.3779
vn 0.9115 0.0697 -0.4053
vn 0.9418 -0.0144 -0.3359
vn 0.9418 -0.0207 -0.3354
vn 0.9418 -0.0256 -0.3352
vn 0.9418 -0.0271 -0.3350
vn 0.8286 -0.5526 0.0894
vn 0.9479 -0.1333 0.2894
vn 0.9829 -0.1828 0.0206
vn 0.9840 -0.1662 0.0642
vn 0.9691 -0.1433 0.2010
vn 0.9431 -0.0547 0.3279
vn 0.8321 -0.5498 -0.0728
vn 0.9240 0.2975 -0.2402
vn 0.8618 0.4945 0.1130
vn 0.9116 -0.3934 0.1196
vn 0.8830 0.4549 0.1158
vn 0.7536 0.0778 0.6527
vn 0.2004 -0.7211 -0.6633
vn 0.9240 0.2975 0.2402
vn 0.9299 0.2599 0.2603
vn 0.6526 0.1716 0.7380
vn 0.9402 0.3151 -0.1298
vn 0.9725 0.2308 0.0298
vn 0.8293 -0.5515 -0.0901
vn 0.9214 0.0860 0.3789
vn 0.9111 0.0700 0.4062
vn 0.9416 -0.0144 0.3365
vn 0.9151 0.1879 0.3568
vn 0.9527 0.1703 0.2517
vn 0.9495 0.2022 0.2400
vn 0.8514 0.0392 -0.5231
vn 0.8472 0.0396 0.5298
vn 0.7275 0.2645 -0.6331
vn 0.7275 0.2645 0.6331
vn 0.7418 -0.1812 0.6456
vn 0.9344 0.0590 -0.3513
vn 0.8940 0.0000 -0.4480
vn 0.9344 0.0590 0.3513
vn 0.9080 0.2113 -0.3618
vn 0.9071 -0.2155 -0.3615
vn 0.9037 0.2316 -0.3601
vn 0.7538 0.0777 -0.6525
vn 0.8940 0.0000 0.4480
vn 0.6067 -0.5504 0.5736
vn 0.6060 -0.5530 0.5719
vn 0.6139 -0.5233 0.5911
vn 0.9723 0.2317 -0.0309
vn 0.9402 0.3156 0.1280
vn 0.9479 -0.1333 -0.2894
vn 0.9829 -0.1831 -0.0191
vn 0.9672 -0.1485 -0.2063
vn 0.9372 -0.0581 -0.3438
vn 0.1490 -0.7936 0.5899
vn 0.6526 0.1716 -0.7380
vn 0.3595 -0.8399 -0.4066
vn 0.7826 -0.0251 -0.6220
vn 0.9069 -0.2476 -0.3410
vn 0.8423 -0.0136 -0.5388
vn 0.9069 -0.2476 0.3410
vn 0.8423 -0.0136 0.5388
vn 0.7826 -0.0251 0.6220
vn 0.8329 -0.5487 0.0726
vn 0.8996 -0.4368 0.0003
vn 0.7192 0.5521 -0.4218
vn 0.9840 -0.1689 -0.0564
vn 0.7192 0.5525 0.4213
vn 0.8329 -0.1384 -0.5359
vn 0.8285 -0.1392 0.5425
vn 0.9176 -0.1391 0.3723
vn 0.9176 -0.1391 -0.3723
vn 0.7418 -0.1812 -0.6456
vn 0.9299 0.2599 -0.2603
vn 0.8682 0.0488 -0.4937
vn 0.8656 0.0502 0.4982
vn -0.9923 0.0178 0.1228
vn -0.9923 0.0178 -0.1228
vn 0.0000 -0.9967 0.0811
vn -0.6940 -0.7196 0.0237
vn -0.6940 0.7196 0.0237
vn -0.8664 0.4687 -0.1721
vn -0.6462 0.6825 -0.3415
vn -0.8309 0.5291 0.1723
vn -0.8581 0.5011 0.1125
vn -0.8418 -0.0000 0.5398
vn -0.5992 -0.1054 0.7936
vn -0.7860 0.4079 -0.4647
vn -0.8066 0.1199 -0.5788
vn -0.8544 -0.0112 -0.5195
vn -0.8329 0.1652 -0.5282
vn -0.8329 0.1652 0.5282
vn -0.8664 -0.4687 -0.1721
vn -0.7951 -0.4060 0.4505
vn -0.7951 0.4060 0.4505
vn -0.7360 -0.6225 -0.2662
vn -0.7300 -0.5824 0.3576
vn -0.3640 0.2537 -0.8962
vn -0.5156 -0.2495 -0.8197
vn -0.7336 -0.3785 0.5644
vn -0.7236 -0.6554 0.2167
vn -0.7224 0.6614 -0.2017
vn -0.7834 -0.4062 0.4704
vn -0.8909 -0.4188 0.1756
vn -0.8418 -0.0000 -0.5398
vn -0.7050 0.2721 0.6549
vn -0.6427 -0.0000 0.7661
vn -0.6291 0.0000 -0.7773
vn -0.7360 0.6224 -0.2662
vn -0.6999 0.7109 0.0692
vn -0.6994 0.7114 0.0690
vn -0.7006 0.7102 0.0696
vn -0.7149 -0.6982 -0.0389
vn -0.7176 -0.6954 -0.0369
vn -0.7171 -0.6960 -0.0372
vn -0.9028 0.2357 -0.3597
vn -0.7050 -0.2721 0.6549
vn -0.7072 -0.6687 0.2297
vn -0.6989 0.6883 -0.1943
vn -0.7132 0.6999 -0.0388
vn -0.7121 0.7009 -0.0396
vn -0.7163 0.6968 -0.0365
vn -0.7009 0.7099 0.0697
vn -0.7142 -0.6989 -0.0394
vn -0.7012 -0.6862 -0.1937
vn -0.8756 0.4830 0.0004
vn -0.7833 0.4057 0.4710
vn -0.8844 0.4351 0.1687
vn -0.9020 0.2392 -0.3594
vn -0.9036 -0.2322 -0.3600
vn -0.6970 0.5475 0.4630
vn -0.7048 0.6736 0.2226
vn -0.7078 0.6711 0.2204
vn -0.7037 0.6745 0.2234
vn -0.5616 -0.0021 -0.8274
vn -0.5601 -0.0005 0.8285
vn -0.5545 -0.0021 0.8321
vn -0.5561 -0.0016 0.8311
vn -0.5693 -0.0000 -0.8221
vn -0.5620 -0.0000 0.8272
vn -0.5539 0.0023 0.8326
vn -0.6990 -0.7117 0.0699
vn -0.6991 -0.7116 0.0700
vn -0.6992 -0.7115 0.0700
vn -0.7172 0.6959 -0.0358
vn -0.8754 -0.4834 -0.0004
vn -0.7713 -0.6154 0.1625
vn -0.7713 0.6154 0.1625
vn -0.9117 -0.1185 -0.3934
vn -0.6146 -0.5204 0.5929
vn -0.6989 -0.7118 0.0699
vn -0.7282 -0.6559 -0.1988
vn -0.7090 0.6702 0.2195
vn -0.8544 -0.0112 0.5195
vn 0.0000 -0.7627 -0.6467
vn 0.0000 0.7631 -0.6463
vn 0.6940 -0.7196 0.0237
vn 0.6940 0.7196 0.0237
vn 0.8664 0.4687 -0.1721
vn 0.6462 0.6825 -0.3415
vn 0.8309 0.5291 0.1723
vn 0.8581 0.5011 0.1125
vn 0.8418 0.0000 0.5398
vn 0.5992 -0.1054 0.7936
vn 0.7860 0.4079 -0.4647
vn 0.8066 0.1199 -0.5788
vn 0.8544 -0.0112 -0.5195
vn 0.8329 0.1652 -0.5282
vn 0.8329 0.1652 0.5282
vn 0.8664 -0.4687 -0.1721
vn 0.7951 -0.4060 0.4505
vn 0.7951 0.4060 0.4505
vn 0.7360 -0.6225 -0.2662
vn 0.7300 -0.5824 0.3576
vn 0.3640 0.2537 -0.8962
vn 0.5156 -0.2495 -0.8197
vn 0.7336 -0.3785 0.5644
vn 0.7236 -0.6554 0.2167
vn 0.7224 0.6614 -0.2017
vn 0.7834 -0.4062 0.4704
vn 0.8909 -0.4188 0.1756
vn 0.8418 0.0000 -0.5398
vn 0.7050 0.2721 0.6549
vn 0.6427 -0.0000 0.7661
vn 0.6291 0.0000 -0.7773
vn 0.7360 0.6224 -0.2662
vn 0.6994 0.7114 0.0690
vn 0.6997 0.7111 0.0691
vn 0.7006 0.7102 0.0696
vn 0.7176 -0.6954 -0.0369
vn 0.7149 -0.6982 -0.0389
vn 0.7170 -0.6961 -0.0373
vn 0.9028 0.2357 -0.3597
vn 0.7050 -0.2721 0.6549
vn 0.7072 -0.6687 0.2297
vn 0.6989 0.6883 -0.1943
vn 0.7121 0.7009 -0.0396
vn 0.7132 0.6999 -0.0388
vn 0.7163 0.6968 -0.0365
vn 0.7009 0.7099 0.0697
vn 0.7142 -0.6989 -0.0394
vn 0.7012 -0.6862 -0.1937
vn 0.8756 0.4830 0.0004
vn 0.7833 0.4057 0.4710
vn 0.8844 0.4351 0.1687
vn 0.9020 0.2392 -0.3594
vn 0.9036 -0.2322 -0.3600
vn 0.6970 0.5475 0.4630
vn 0.7078 0.6711 0.2204
vn 0.7049 0.6735 0.2226
vn 0.7037 0.6745 0.2234
vn 0.5673 -0.0005 -0.8235
vn 0.5616 -0.0021 -0.8274
vn 0.5636 -0.0016 -0.8261
vn 0.5545 -0.0021 0.8322
vn 0.5693 0.0000 -0.8221
vn 0.5620 -0.0000 0.8272
vn 0.5523 -0.0035 0.8336
vn 0.5539 0.0023 0.8326
vn 0.5573 0.0050 0.8303
vn 0.5585 0.0030 -0.8295
vn 0.6991 -0.7116 0.0700
vn 0.6990 -0.7117 0.0699
vn 0.6992 -0.7115 0.0700
vn 0.7172 0.6959 -0.0358
vn 0.8754 -0.4834 -0.0004
vn 0.7713 -0.6154 0.1625
vn 0.7713 0.6154 0.1625
vn 0.9117 -0.1185 -0.3934
vn 0.6146 -0.5204 0.5929
vn 0.6989 -0.7118 0.0699
vn 0.7282 -0.6559 -0.1988
vn 0.7090 0.6702 0.2195
vn 0.8544 -0.0112 0.5195
vn 0.9934 -0.0004 0.1151
vn 0.7684 -0.0000 0.6400
vn -0.5570 -0.0053 -0.8305
vn -0.5585 0.0030 -0.8295
vn -0.5696 0.0086 -0.8219
o base
usemtl Material__973
f 1/1/1 2/2/1 3/3/1
f 4/4/2 5/5/2 6/6/2
f 7/7/3 8/8/3 9/9/3
f 10/10/4 8/8/4 7/7/4
f 11/11/5 10/10/5 7/7/5
f 12/12/6 10/10/6 11/11/6
f 13/13/7 12/12/7 11/11/7
f 14/14/8 12/12/9 13/13/10
f 15/15/11 14/14/8 13/13/10
f 16/16/12 17/17/12 18/18/12
f 19/19/13 16/16/13 20/20/13
f 17/17/14 16/16/14 19/19/14
f 21/21/15 17/17/15 19/19/15
f 6/6/16 17/17/16 21/21/16
f 22/22/17 6/6/17 21/21/17
f 4/4/18 6/6/18 22/22/18
f 23/23/19 20/20/19 16/16/19
f 24/24/12 23/23/12 16/16/12
f 25/25/12 26/26/12 24/24/12
f 27/27/12 26/26/12 25/25/12
f 28/28/20 29/29/20 30/30/20
f 31/31/21 32/32/22 33/33/23
f 34/34/24 31/31/24 33/33/24
f 35/35/12 36/36/12 9/37/12
f 35/35/12 9/37/12 37/38/12
f 38/39/25 39/40/26 37/41/27
f 9/42/28 38/39/28 37/41/28
f 40/43/29 38/39/29 9/42/29
f 41/44/12 28/45/12 1/46/12
f 41/44/12 1/46/12 42/47/12
f 43/48/30 44/49/30 45/50/30
f 46/51/31 44/49/31 43/48/31
f 26/26/32 46/51/32 43/48/32
f 47/52/33 48/53/33 49/54/33
f 4/4/34 48/53/34 47/52/34
f 5/5/35 4/4/35 47/52/35
f 50/55/36 49/54/36 48/53/36
f 2/2/37 49/54/37 50/55/37
f 1/1/38 2/2/38 50/55/38
f 51/56/39 52/57/39 53/58/39
f 54/59/40 55/60/40 56/61/40
f 57/62/41 58/63/41 59/64/41
f 60/65/42 58/63/42 57/62/42
f 61/66/43 60/65/43 57/62/43
f 62/67/44 63/68/44 58/69/44
f 64/70/45 62/67/45 58/69/45
f 65/71/46 58/69/46 66/72/46
f 67/73/47 33/33/48 68/74/49
f 33/33/50 67/73/50 64/70/50
f 58/69/45 33/33/45 64/70/45
f 34/34/51 33/33/51 58/69/51
f 31/31/52 69/75/53 32/32/54
f 70/76/55 45/77/55 44/78/55
f 46/79/56 70/76/56 44/78/56
f 71/80/57 19/19/57 20/20/57
f 72/81/58 71/80/58 20/20/58
f 71/82/59 72/83/59 73/84/59
f 74/85/60 71/82/60 73/84/60
f 75/86/61 76/87/61 20/88/61
f 22/89/62 77/90/62 78/91/62
f 4/92/63 22/89/63 78/91/63
f 19/93/64 79/94/65 21/95/66
f 46/51/67 26/26/67 27/27/67
f 80/96/68 46/51/68 27/27/68
f 46/79/69 80/97/70 81/98/71
f 82/99/72 80/96/72 15/15/72
f 13/13/73 82/99/73 15/15/73
f 83/100/74 84/101/74 82/102/74
f 13/103/75 83/100/75 82/102/75
f 85/104/76 86/105/76 54/106/76
f 1/107/77 30/30/78 40/43/79
f 87/108/80 1/107/80 40/43/80
f 58/109/81 63/110/81 87/108/81
f 40/43/82 58/109/82 87/108/82
f 88/111/83 66/112/83 58/109/83
f 40/113/84 88/111/84 58/109/84
f 89/114/56 70/76/56 46/79/56
f 81/98/71 89/114/85 46/79/69
f 19/93/60 71/82/60 74/85/60
f 79/94/65 19/93/64 74/85/86
f 40/113/87 9/115/87 88/111/87
f 43/48/88 23/23/88 26/26/88
f 20/116/89 23/23/89 43/48/89
f 21/21/90 77/117/90 22/22/90
f 15/15/91 80/96/91 27/27/91
f 84/118/92 80/96/92 82/99/92
f 51/56/93 53/58/93 90/119/93
f 55/60/94 54/59/94 86/120/94
f 40/121/95 91/122/95 92/123/95
f 93/124/96 91/122/96 40/121/96
f 57/62/97 59/64/97 61/66/97
f 28/28/98 30/30/98 1/107/98
f 24/24/12 16/16/12 18/18/12
f 43/125/61 75/86/61 20/88/61
f 94/126/63 4/92/63 78/91/63
f 95/127/75 83/100/75 13/103/75
f 7/7/99 52/57/99 51/56/99
f 50/55/100 54/59/100 56/61/100
f 65/71/51 34/34/51 58/69/51
f 61/128/101 59/129/101 58/130/101
f 60/131/102 61/128/102 58/130/102
f 80/97/103 84/132/103 81/98/103
f 45/133/104 75/134/104 43/135/104
f 90/136/105 96/137/105 51/138/105
f 96/137/106 7/139/106 51/138/106
f 7/139/107 97/140/107 11/141/107
f 97/140/108 13/142/108 11/141/108
f 7/139/107 98/143/107 97/140/107
f 97/140/108 95/144/108 13/142/108
f 96/137/106 98/143/106 7/139/106
f 77/145/109 21/146/109 79/147/109
f 76/87/110 72/148/110 20/88/110
f 50/149/111 85/104/111 54/106/111
f 99/150/112 50/149/112 48/151/112
f 4/92/113 99/150/113 48/151/113
f 100/152/112 50/149/112 99/150/112
f 94/126/113 99/150/113 4/92/113
f 100/152/111 85/104/111 50/149/111
f 5/5/114 94/153/114 6/6/114
f 101/154/1 8/8/1 9/9/1
f 8/8/115 98/155/115 9/9/115
f 8/8/116 10/10/116 98/155/116
f 10/10/117 97/156/117 98/155/117
f 10/10/118 12/12/118 97/156/118
f 12/12/119 95/157/119 97/156/119
f 12/12/120 14/14/121 95/157/122
f 14/14/121 15/15/123 95/157/122
f 16/16/124 74/158/124 76/159/124
f 16/16/125 17/17/125 74/158/125
f 17/17/126 79/160/126 74/158/126
f 17/17/127 6/6/127 79/160/127
f 6/6/128 78/161/128 79/160/128
f 6/6/129 94/153/129 78/161/129
f 76/159/130 23/23/130 16/16/130
f 23/23/12 24/24/12 26/26/12
f 29/29/131 28/28/131 102/162/131
f 103/163/132 31/31/133 104/164/134
f 31/31/135 34/34/135 104/164/135
f 39/40/26 105/165/136 37/41/137
f 105/165/138 9/42/138 37/41/138
f 105/165/139 106/166/139 9/42/139
f 70/167/140 75/168/140 45/50/140
f 70/167/141 89/169/141 75/168/141
f 89/169/142 26/26/142 75/168/142
f 99/170/143 47/52/143 49/54/143
f 99/170/144 94/153/144 47/52/144
f 94/153/145 5/5/145 47/52/145
f 49/54/146 100/171/146 99/170/146
f 49/54/147 2/2/147 100/171/147
f 2/2/148 1/1/148 100/171/148
f 52/57/149 96/172/149 53/58/149
f 55/60/150 85/173/150 56/61/150
f 107/174/151 108/175/151 109/176/151
f 107/174/152 110/177/152 108/175/152
f 110/177/153 111/178/153 108/175/153
f 63/68/154 62/67/154 107/179/154
f 62/67/155 64/70/155 107/179/155
f 107/179/156 65/71/156 66/72/156
f 104/164/157 67/73/158 68/74/159
f 67/73/160 104/164/160 64/70/160
f 104/164/155 107/179/155 64/70/155
f 104/164/161 34/34/161 107/179/161
f 69/75/162 31/31/163 103/163/164
f 74/158/165 73/180/165 76/159/165
f 73/180/166 72/81/166 76/159/166
f 112/181/12 5/5/12 47/52/12
f 26/26/167 89/169/167 27/27/167
f 89/169/168 81/182/168 27/27/168
f 81/182/169 83/183/169 15/15/169
f 83/183/170 95/157/170 15/15/170
f 12/12/12 14/14/12 113/184/12
f 102/162/171 1/107/172 106/166/173
f 1/107/174 87/108/174 106/166/174
f 63/110/175 107/185/175 87/108/175
f 107/185/176 106/166/176 87/108/176
f 66/112/177 88/111/177 107/185/177
f 88/111/178 106/186/178 107/185/178
f 9/115/179 106/186/179 88/111/179
f 23/23/180 75/168/180 26/26/180
f 23/23/181 76/187/181 75/168/181
f 77/117/182 79/160/182 78/161/182
f 81/182/183 15/15/183 27/27/183
f 81/182/184 84/118/184 83/183/184
f 53/58/185 96/172/185 90/119/185
f 85/173/186 55/60/186 86/120/186
f 91/122/187 106/188/187 92/123/187
f 91/122/188 93/124/188 106/188/188
f 109/176/189 108/175/189 111/178/189
f 102/162/190 28/28/190 1/107/190
f 52/57/191 98/155/191 96/172/191
f 85/173/192 100/171/192 56/61/192
f 34/34/161 65/71/161 107/179/161
f 109/189/193 111/190/193 107/191/193
f 111/190/194 110/192/194 107/191/194
f 40/193/79 102/194/171 106/195/173
f 40/193/79 30/196/78 102/194/171
f 102/194/171 30/196/78 29/197/195
f 106/198/173 105/199/136 38/200/25 40/201/79
f 105/199/136 39/202/26 38/200/25
f 114/203/1 115/204/1 116/205/1
f 114/203/1 116/205/1 117/206/1
f 118/207/1 119/208/1 120/209/1
f 118/207/1 121/210/1 119/208/1
f 122/211/12 123/212/12 124/213/12
f 125/214/1 126/215/1 127/216/1
f 128/217/1 125/214/1 129/218/1
f 130/219/1 128/217/1 131/220/1
f 132/221/1 130/219/1 131/220/1
f 128/217/1 126/215/1 125/214/1
f 133/222/12 134/223/12 135/224/12
f 129/218/1 131/220/1 128/217/1
f 136/225/1 137/226/1 138/227/1
f 139/228/1 140/229/1 141/230/1
usemtl Material__974
f 142/231/196 143/232/196 144/233/196
f 145/234/197 143/232/197 142/231/197
f 146/235/198 145/234/198 142/231/198
f 147/236/12 148/237/12 146/235/12
f 32/238/199 149/239/199 150/240/199
f 151/241/200 32/238/200 150/240/200
f 33/242/23 32/238/22 151/241/201
f 152/243/202 33/242/202 151/241/202
f 153/244/203 154/245/203 149/246/203
f 69/247/204 153/244/204 149/246/204
f 155/248/205 153/244/205 69/247/205
f 156/249/206 157/250/206 158/251/206
f 159/252/207 157/250/207 156/249/207
f 160/253/208 159/252/208 156/249/208
f 161/254/12 162/255/12 163/256/12
f 164/257/12 162/255/12 161/254/12
f 165/258/12 166/259/12 167/260/12
f 168/261/12 165/258/12 169/262/12
f 142/231/209 144/233/209 170/263/209
f 171/264/210 142/231/210 170/263/210
f 146/235/211 142/231/211 171/264/211
f 172/265/212 173/266/212 174/267/212
f 175/268/213 148/269/213 147/270/213
f 176/271/214 148/269/214 175/268/214
f 177/272/215 176/271/215 175/268/215
f 153/244/216 178/273/216 179/274/216
f 180/275/217 153/244/217 179/274/217
f 154/245/218 153/244/218 180/275/218
f 181/276/12 160/277/12 182/278/12
f 177/279/12 160/277/12 181/276/12
f 183/280/219 184/281/219 162/282/219
f 143/232/220 152/243/220 144/233/220
f 33/242/202 152/243/202 143/232/202
f 185/283/221 33/242/221 143/232/221
f 174/284/222 173/285/222 186/286/222
f 187/287/223 174/284/223 186/286/223
f 167/288/224 174/284/224 187/287/224
f 187/289/225 188/290/225 189/291/225
f 190/292/226 187/289/227 189/291/228
f 167/293/229 187/289/230 190/292/231
f 191/294/232 68/295/49 33/242/48
f 185/283/221 191/294/221 33/242/221
f 187/287/233 192/296/233 188/297/233
f 186/286/223 192/296/223 187/287/223
f 170/298/12 154/299/12 193/300/12
f 150/301/12 154/299/12 170/298/12
f 194/302/234 180/275/234 179/274/234
f 195/303/235 154/245/235 180/275/235
f 164/304/236 195/303/237 180/275/238
f 196/305/239 190/292/226 189/291/228
f 197/306/240 167/293/229 190/292/231
f 147/270/241 197/306/241 190/292/241
f 157/250/12 198/307/12 199/308/12
f 165/258/242 200/309/242 184/281/242
f 166/259/243 165/258/243 184/281/243
f 143/232/244 145/234/244 201/310/244
f 156/249/202 143/232/202 201/310/202
f 143/232/245 158/251/245 202/311/245
f 185/283/246 143/232/246 202/311/246
f 203/312/247 177/272/247 175/268/247
f 190/292/248 203/312/249 175/268/250
f 190/313/251 204/314/251 205/315/251
f 169/316/252 190/313/253 205/315/254
f 171/317/255 205/315/255 204/314/255
f 169/316/252 205/315/254 168/318/256
f 180/319/257 161/320/257 206/321/257
f 163/322/256 206/321/256 161/320/256
f 170/298/12 144/323/12 150/301/12
f 180/275/258 172/265/259 174/267/260
f 164/304/236 180/275/238 174/267/261
f 160/277/12 177/279/12 207/324/12
f 162/282/262 184/281/262 200/309/262
f 184/281/263 183/280/263 208/325/263
f 166/259/264 184/281/264 208/325/264
f 162/255/12 164/257/12 183/326/12
f 153/244/265 155/248/265 178/273/265
f 69/327/53 149/239/266 32/238/54
f 194/302/267 172/265/259 180/275/258
f 164/328/224 174/284/224 167/288/224
f 175/268/268 147/270/268 190/292/268
f 196/305/269 203/312/249 190/292/248
f 160/253/270 156/249/270 201/310/270
f 143/232/221 156/249/221 158/251/221
f 162/329/271 200/330/271 209/331/271
f 165/332/272 209/331/272 200/330/272
f 210/333/273 211/334/273 144/233/273
f 210/333/274 145/234/274 211/334/274
f 145/234/275 146/235/275 211/334/275
f 145/234/12 146/235/12 148/237/12
f 149/239/276 103/335/276 150/240/276
f 103/335/277 151/241/277 150/240/277
f 103/335/132 104/336/134 151/241/278
f 104/336/279 152/243/279 151/241/279
f 154/245/280 212/337/280 149/246/280
f 212/337/281 69/247/281 149/246/281
f 212/337/282 155/248/282 69/247/282
f 157/250/283 213/338/283 158/251/283
f 157/250/284 159/252/284 213/338/284
f 159/252/285 160/253/285 213/338/285
f 165/258/12 167/260/12 169/262/12
f 144/233/286 211/334/286 170/263/286
f 211/334/287 171/264/287 170/263/287
f 211/334/288 146/235/288 171/264/288
f 146/235/12 171/264/12 204/339/12
f 146/235/12 204/339/12 147/236/12
f 173/266/289 172/265/289 214/340/289
f 148/269/290 215/341/290 147/270/290
f 148/269/291 176/271/291 215/341/291
f 176/271/292 177/272/292 215/341/292
f 178/273/293 212/337/293 179/274/293
f 212/337/294 216/342/294 179/274/294
f 212/337/295 154/245/295 216/342/295
f 217/343/296 183/280/296 162/282/296
f 152/243/297 210/333/297 144/233/297
f 152/243/279 104/336/279 210/333/279
f 104/336/298 185/283/298 210/333/298
f 173/285/299 214/344/299 186/286/299
f 214/344/300 218/345/300 186/286/300
f 214/344/301 167/288/301 218/345/301
f 188/290/302 218/346/302 189/291/302
f 218/346/303 219/347/304 189/291/305
f 218/346/306 167/293/307 219/347/308
f 68/295/159 191/294/309 104/336/157
f 191/294/298 185/283/298 104/336/298
f 192/296/310 218/345/310 188/297/310
f 192/296/300 186/286/300 218/345/300
f 216/342/311 194/302/311 179/274/311
f 154/245/312 195/303/312 216/342/312
f 195/303/313 164/304/314 216/342/315
f 219/347/304 196/305/316 189/291/305
f 167/293/307 197/306/317 219/347/308
f 197/306/318 147/270/318 219/347/318
f 157/250/12 199/308/12 220/348/12
f 209/349/319 165/258/319 217/343/319
f 165/258/320 166/259/320 217/343/320
f 145/234/321 210/333/321 201/310/321
f 210/333/279 213/338/279 201/310/279
f 158/251/322 210/333/322 202/311/322
f 210/333/323 185/283/323 202/311/323
f 177/272/324 203/312/324 215/341/324
f 203/312/325 219/347/326 215/341/327
f 193/300/12 171/264/12 170/298/12
f 204/314/328 219/350/329 221/351/330
f 219/350/331 169/316/331 221/351/331
f 221/351/330 171/317/332 204/314/328
f 221/351/333 169/316/333 168/318/333
f 161/320/334 216/352/335 222/353/336
f 216/352/337 193/354/337 222/353/337
f 222/353/336 163/322/333 161/320/334
f 222/353/332 193/354/332 171/317/332
f 152/355/12 151/356/12 150/301/12
f 152/355/12 150/301/12 144/323/12
f 172/265/338 216/342/339 214/340/340
f 216/342/315 164/304/314 214/340/341
f 157/250/12 220/348/12 223/357/12
f 217/343/342 162/282/342 209/349/342
f 183/280/343 217/343/343 208/325/343
f 217/343/344 166/259/344 208/325/344
f 155/248/345 212/337/345 178/273/345
f 149/239/346 69/327/162 103/335/164
f 172/265/338 194/302/347 216/342/339
f 214/344/301 164/328/301 167/288/301
f 147/270/348 215/341/348 219/347/348
f 203/312/325 196/305/349 219/347/326
f 213/338/350 160/253/350 201/310/350
f 213/338/298 210/333/298 158/251/298
f 224/358/1 225/359/1 226/360/1
f 227/361/351 228/362/352 229/363/1
f 230/364/1 227/361/351 229/363/1
f 231/365/1 232/366/1 233/367/1
f 234/368/1 235/369/1 231/365/1
f 236/370/1 237/371/1 238/372/1
f 239/373/1 236/370/1 238/372/1
f 240/374/1 241/375/1 242/376/1
f 243/377/1 240/374/1 242/376/1
f 244/378/1 245/379/1 246/380/1
f 240/374/1 243/377/1 247/381/1
f 238/372/1 248/382/1 239/373/1
f 229/363/1 249/383/1 230/364/1
f 229/384/271 250/385/271 251/386/271
f 252/387/1 226/360/1 225/359/1
f 231/365/1 235/369/1 232/366/1
f 225/359/1 253/388/1 254/389/1
f 225/359/1 224/358/1 253/388/1
f 244/378/1 255/390/1 245/379/1
f 241/375/1 240/374/1 254/389/1
f 256/391/353 257/392/354 258/393/355
f 259/394/1 243/377/1 260/395/1
f 259/394/1 247/381/1 243/377/1
f 244/378/1 261/396/1 255/390/1
f 256/391/353 258/393/355 262/397/255
