mtllib oblivion.mtl
v -0.242201 -57.833267 2.216891
v -0.242202 -48.837666 2.216892
v -0.242201 -57.833267 -2.216910
v -0.242202 -48.837666 -2.216908
v -0.242201 -57.833267 2.216891
v -0.242201 -57.833267 -2.216910
v -0.242202 -48.837666 2.216892
v -0.242202 -48.837666 -2.216908
v -0.242207 -21.734261 -4.066703
v -0.242206 -25.031963 -4.066704
v -0.242207 -21.734261 -2.266304
v -0.242206 -25.031963 -2.266304
v -0.242207 -18.318962 2.274797
v -0.242207 -18.318962 -2.266303
v -0.000001 -53.936962 5.882492
v -0.000001 -57.104862 2.328591
v 0.000000 -62.176262 3.844990
v -0.000001 -57.104862 -2.328609
v 0.000000 -62.176262 -3.845010
v -0.000001 -53.936962 -5.882509
v -0.242205 -29.036163 -2.266305
v -0.242205 -29.036163 2.274795
v -0.000002 -51.739861 -0.000008
v -0.242203 -42.680962 1.556593
v -0.242203 -42.680962 -1.545107
v -0.242202 -47.053562 -1.545108
v -0.242202 -47.053562 1.556592
v -1.789102 -50.119663 0.005792
v 1.312498 -50.119663 0.005792
v -1.789103 -45.747063 0.005793
v 1.312497 -45.747063 0.005793
v 1.312496 -39.617062 0.005794
v -1.789104 -39.617062 0.005794
v 1.312497 -43.989662 0.005793
v -1.789103 -43.989662 0.005793
v -0.242203 -40.916763 1.556593
v -0.242204 -36.544163 1.556594
v -0.242204 -36.544163 -1.545106
v -0.242203 -40.916763 -1.545107
v -1.789104 -37.879463 0.005794
v 1.312496 -37.879463 0.005794
v -1.789105 -33.506863 0.005795
v 1.312495 -33.506863 0.005795
v -0.242205 -30.504862 -1.545105
v -0.242204 -34.877464 -1.545106
v -0.242204 -34.877464 1.556594
v -0.242205 -30.504862 1.556595
v 1.312495 -31.929861 0.005795
v -1.789106 -27.557262 0.005796
v -1.789105 -31.929861 0.005795
v 1.312494 -27.557262 0.005796
v -0.242207 -21.734261 -4.066703
v -0.242207 -21.734261 -2.266304
v -0.242206 -25.031963 -4.066704
v -0.242206 -25.031963 -2.266304
v -0.242207 -18.318962 2.274797
v -0.242207 -18.318962 -2.266303
v -0.000001 -53.936962 5.882492
v 0.000000 -62.176262 3.844990
v -0.000001 -57.104862 2.328591
v -0.000001 -57.104862 -2.328609
v 0.000000 -62.176262 -3.845010
v -0.000001 -53.936962 -5.882509
v -0.242205 -29.036163 2.274795
v -0.242205 -29.036163 -2.266305
v -0.000002 -51.739861 -0.000008
v -0.242203 -42.680962 1.556593
v -0.242202 -47.053562 -1.545108
v -0.242203 -42.680962 -1.545107
v -0.242202 -47.053562 1.556592
v -1.789102 -50.119663 0.005792
v -1.789103 -45.747063 0.005793
v 1.312498 -50.119663 0.005792
v 1.312497 -45.747063 0.005793
v 1.312496 -39.617062 0.005794
v 1.312497 -43.989662 0.005793
v -1.789104 -39.617062 0.005794
v -1.789103 -43.989662 0.005793
v -0.242203 -40.916763 1.556593
v -0.242204 -36.544163 -1.545106
v -0.242204 -36.544163 1.556594
v -0.242203 -40.916763 -1.545107
v -1.789104 -37.879463 0.005794
v -1.789105 -33.506863 0.005795
v 1.312496 -37.879463 0.005794
v 1.312495 -33.506863 0.005795
v -0.242205 -30.504862 -1.545105
v -0.242204 -34.877464 1.556594
v -0.242204 -34.877464 -1.545106
v -0.242205 -30.504862 1.556595
v 1.312495 -31.929861 0.005795
v -1.789105 -31.929861 0.005795
v -1.789106 -27.557262 0.005796
v 1.312494 -27.557262 0.005796
vt 0.001700 0.007900
vt 0.200300 0.007900
vt 0.001700 0.099000
vt 0.201200 0.099000
vt 0.001700 0.007900
vt 0.001700 0.099000
vt 0.200300 0.007900
vt 0.201200 0.099000
vt 0.155800 0.172800
vt 0.155800 0.093900
vt 0.115700 0.172700
vt 0.115700 0.093700
vt 0.002600 0.243800
vt 0.116200 0.244300
vt 0.343900 0.044700
vt 0.266100 0.118200
vt 0.166200 0.081900
vt 0.265400 0.215600
vt 0.166700 0.246500
vt 0.341200 0.275600
vt 0.116200 0.005700
vt 0.002600 0.005200
vt 0.381800 0.161900
vt 0.918400 0.117300
vt 0.997700 0.117100
vt 0.997700 0.006200
vt 0.918400 0.006200
vt 0.918400 0.006200
vt 0.997700 0.006200
vt 0.918400 0.117300
vt 0.997700 0.117100
vt 0.997700 0.117100
vt 0.918400 0.117300
vt 0.997700 0.006200
vt 0.918400 0.006200
vt 0.918400 0.006200
vt 0.918400 0.117300
vt 0.997700 0.117100
vt 0.997700 0.006200
vt 0.918400 0.006200
vt 0.997700 0.006200
vt 0.918400 0.117300
vt 0.997700 0.117100
vt 0.997700 0.117100
vt 0.997700 0.006200
vt 0.918400 0.006200
vt 0.918400 0.117300
vt 0.997700 0.006200
vt 0.918400 0.117300
vt 0.918400 0.006200
vt 0.997700 0.117100
vt 0.155800 0.172800
vt 0.115700 0.172700
vt 0.155800 0.093900
vt 0.115700 0.093700
vt 0.002600 0.243800
vt 0.116200 0.244300
vt 0.343900 0.044700
vt 0.166200 0.081900
vt 0.266100 0.118200
vt 0.265400 0.215600
vt 0.166700 0.246500
vt 0.341200 0.275600
vt 0.002600 0.005200
vt 0.116200 0.005700
vt 0.381800 0.161900
vt 0.918400 0.117300
vt 0.997700 0.006200
vt 0.997700 0.117100
vt 0.918400 0.006200
vt 0.918400 0.006200
vt 0.918400 0.117300
vt 0.997700 0.006200
vt 0.997700 0.117100
vt 0.997700 0.117100
vt 0.997700 0.006200
vt 0.918400 0.117300
vt 0.918400 0.006200
vt 0.918400 0.006200
vt 0.997700 0.117100
vt 0.918400 0.117300
vt 0.997700 0.006200
vt 0.918400 0.006200
vt 0.918400 0.117300
vt 0.997700 0.006200
vt 0.997700 0.117100
vt 0.997700 0.117100
vt 0.918400 0.006200
vt 0.997700 0.006200
vt 0.918400 0.117300
vt 0.997700 0.006200
vt 0.918400 0.006200
vt 0.918400 0.117300
vt 0.997700 0.117100
vn -1.0000 -0.0000 -0.0000
vn 1.0000 -0.0000 -0.0000
vn 0.0000 -0.0000 1.0000
vn 0.0000 0.0000 -1.0000
o keychain
usemtl Material__973
f 1/1/1 2/2/1 3/3/1
f 4/4/1 3/3/1 2/2/1
f 5/5/2 6/6/2 7/7/2
f 8/8/2 7/7/2 6/6/2
usemtl Material__974
f 9/9/1 10/10/1 11/11/1
f 12/12/1 11/11/1 10/10/1
f 13/13/1 11/11/1 12/12/1
f 13/13/1 14/14/1 11/11/1
f 15/15/1 16/16/1 17/17/1
f 18/18/1 19/19/1 17/17/1
f 18/18/1 20/20/1 19/19/1
f 12/12/1 21/21/1 22/22/1
f 13/13/1 12/12/1 22/22/1
f 18/18/1 16/16/1 23/23/1
f 17/17/1 16/16/1 18/18/1
f 24/24/1 25/25/1 26/26/1
f 26/26/1 27/27/1 24/24/1
f 28/28/3 29/29/3 30/30/3
f 31/31/3 30/30/3 29/29/3
f 32/32/3 33/33/3 34/34/3
f 35/35/3 34/34/3 33/33/3
f 36/36/1 37/37/1 38/38/1
f 38/38/1 39/39/1 36/36/1
f 40/40/3 41/41/3 42/42/3
f 43/43/3 42/42/3 41/41/3
f 44/44/1 45/45/1 46/46/1
f 46/46/1 47/47/1 44/44/1
f 48/48/3 49/49/3 50/50/3
f 51/51/3 49/49/3 48/48/3
f 52/52/2 53/53/2 54/54/2
f 55/55/2 54/54/2 53/53/2
f 56/56/2 55/55/2 53/53/2
f 56/56/2 53/53/2 57/57/2
f 58/58/2 59/59/2 60/60/2
f 61/61/2 59/59/2 62/62/2
f 61/61/2 62/62/2 63/63/2
f 55/55/2 64/64/2 65/65/2
f 56/56/2 64/64/2 55/55/2
f 61/61/2 66/66/2 60/60/2
f 59/59/2 61/61/2 60/60/2
f 67/67/2 68/68/2 69/69/2
f 68/68/2 67/67/2 70/70/2
f 71/71/4 72/72/4 73/73/4
f 74/74/4 73/73/4 72/72/4
f 75/75/4 76/76/4 77/77/4
f 78/78/4 77/77/4 76/76/4
f 79/79/2 80/80/2 81/81/2
f 80/80/2 79/79/2 82/82/2
f 83/83/4 84/84/4 85/85/4
f 86/86/4 85/85/4 84/84/4
f 87/87/2 88/88/2 89/89/2
f 88/88/2 87/87/2 90/90/2
f 91/91/4 92/92/4 93/93/4
f 94/94/4 91/91/4 93/93/4
