mtllib rainfell.mtl
v -0.000005 -21.229992 0.397200
v -0.000004 -19.969692 0.595800
v -0.000005 -21.229992 -0.397200
v -0.000005 -19.969692 -0.595800
v -0.000005 -21.229992 -0.397200
v -0.000004 -19.969692 0.595800
v -0.000004 -19.969692 0.595800
v -0.000003 -17.511391 2.141600
v -0.000005 -19.969692 -0.595800
v -0.000004 -17.511391 -1.798100
v -0.000005 -19.969692 -0.595800
v -0.000003 -17.511391 2.141600
v -0.000003 -17.511391 2.141600
v -0.000003 -16.151392 1.336500
v -0.000004 -17.511391 -1.798100
v -0.000004 -16.151392 -1.336500
v -0.000004 -17.511391 -1.798100
v -0.000003 -16.151392 1.336500
v -0.000003 -16.151392 1.336500
v -0.000003 -17.511391 2.141600
v -0.000004 -17.511391 -1.798100
v -0.000005 -19.969692 -0.595800
v -0.000004 -17.511391 -1.798100
v -0.000003 -17.511391 2.141600
v -0.000003 -17.511391 2.141600
v -0.000004 -19.969692 0.595800
v -0.000005 -19.969692 -0.595800
v -0.000005 -21.229992 -0.397200
v -0.000005 -19.969692 -0.595800
v -0.000004 -19.969692 0.595800
v -0.000004 -19.969692 0.595800
v -0.000005 -21.229992 0.397200
v -0.000005 -21.229992 -0.397200
v -0.000005 -21.229992 0.397200
v -0.000006 -25.527092 -2.053600
v -0.000005 -21.229992 -0.397200
v -0.000005 -19.969692 -2.053600
v -0.000005 -21.229992 -0.397200
v -0.000006 -25.527092 -2.053600
v -0.000006 -25.527092 -2.053600
v -0.000005 -21.229992 -0.397200
v -0.000005 -19.969692 -2.053600
v -0.000005 -19.969692 -0.595800
v -0.000005 -19.969692 -2.053600
v -0.000005 -21.229992 -0.397200
v -0.000013 -50.885796 2.282200
v -0.000011 -43.887791 2.053600
v -0.000014 -51.785393 0.000000
v -0.000012 -43.887791 -2.053600
v -0.000014 -51.785393 0.000000
v -0.000011 -43.887791 2.053600
v -0.000011 -43.887791 2.053600
v -0.000014 -51.785393 0.000000
v -0.000012 -43.887791 -2.053600
v -0.000014 -50.885796 -2.282200
v -0.000012 -43.887791 -2.053600
v -0.000014 -51.785393 0.000000
v -0.000005 -21.229992 0.397200
v -0.000006 -25.527092 -2.053600
v -0.000006 -25.527092 2.053600
v -0.000004 -19.969692 2.053600
v -0.000005 -21.229992 0.397200
v -0.000006 -25.527092 2.053600
v -0.000008 -32.222290 2.053600
v -0.000006 -26.328993 2.053600
v -0.000007 -26.328993 -2.053600
v -0.000006 -26.328993 2.053600
v -0.000008 -32.222290 2.053600
v -0.000007 -26.328993 -2.053600
v -0.000008 -32.222290 -2.053600
v -0.000008 -32.222290 2.053600
v -0.000007 -26.328993 -2.053600
v -0.000008 -32.222290 2.053600
v -0.000008 -32.222290 -2.053600
v -0.000007 -26.328993 -2.053600
v -0.000005 -21.229992 0.397200
v -0.000004 -19.969692 2.053600
v -0.000006 -25.527092 2.053600
v -0.000006 -25.527092 -2.053600
v -0.000005 -21.229992 0.397200
v -0.000006 -25.527092 2.053600
v -1.545811 -41.403793 0.000000
v -1.545810 -37.300991 0.000000
v 1.545790 -37.300991 -0.000000
v -1.545810 -37.300991 0.000000
v -1.545811 -41.403793 0.000000
v 1.545790 -37.300991 -0.000000
v 1.545789 -41.403793 -0.000000
v -1.545811 -41.403793 0.000000
v 1.545790 -37.300991 -0.000000
v -1.545811 -41.403793 0.000000
v 1.545789 -41.403793 -0.000000
v 1.545790 -37.300991 -0.000000
v -1.545807 -28.016489 0.000000
v -1.545806 -23.695692 0.000000
v 1.545794 -23.695692 -0.000000
v -1.545806 -23.695692 0.000000
v -1.545807 -28.016489 0.000000
v 1.545794 -23.695692 -0.000000
v 1.545793 -28.016493 -0.000000
v -1.545807 -28.016489 0.000000
v 1.545794 -23.695692 -0.000000
v -1.545807 -28.016489 0.000000
v 1.545793 -28.016493 -0.000000
v 1.545794 -23.695692 -0.000000
v -1.545809 -34.709591 0.000000
v -1.545807 -30.607792 0.000000
v 1.545792 -30.607792 -0.000000
v -1.545807 -30.607792 0.000000
v -1.545809 -34.709591 0.000000
v 1.545792 -30.607792 -0.000000
v 1.545791 -34.709591 -0.000000
v -1.545809 -34.709591 0.000000
v 1.545792 -30.607792 -0.000000
v -1.545809 -34.709591 0.000000
v 1.545791 -34.709591 -0.000000
v 1.545792 -30.607792 -0.000000
v -0.000010 -38.917591 2.053600
v -0.000008 -33.024193 2.053600
v -0.000009 -33.024193 -2.053600
v -0.000008 -33.024193 2.053600
v -0.000010 -38.917591 2.053600
v -0.000009 -33.024193 -2.053600
v -0.000010 -38.917591 -2.053600
v -0.000010 -38.917591 2.053600
v -0.000009 -33.024193 -2.053600
v -0.000010 -38.917591 2.053600
v -0.000010 -38.917591 -2.053600
v -0.000009 -33.024193 -2.053600
v -0.000011 -43.887791 2.053600
v -0.000013 -50.885796 2.282200
v -0.000012 -48.669090 3.003600
v -0.000013 -50.885796 2.282200
v -0.000011 -43.887791 2.053600
v -0.000012 -48.669090 3.003600
v -0.000011 -39.926693 -2.053600
v -0.000012 -43.887791 -2.053600
v -0.000010 -39.926693 2.053600
v -0.000012 -43.887791 -2.053600
v -0.000011 -39.926693 -2.053600
v -0.000010 -39.926693 2.053600
v -0.000011 -43.887791 2.053600
v -0.000010 -39.926693 2.053600
v -0.000012 -43.887791 -2.053600
v -0.000010 -39.926693 2.053600
v -0.000011 -43.887791 2.053600
v -0.000012 -43.887791 -2.053600
v -0.000004 -16.151392 -1.336500
v -0.000003 -16.151392 1.336500
v -0.000004 -17.511391 -1.798100
v -0.000006 -25.527092 -2.053600
v -0.000005 -21.229992 0.397200
v -0.000005 -21.229992 -0.397200
v -0.000004 -19.969692 2.053600
v -0.000004 -19.969692 0.595800
v -0.000005 -21.229992 0.397200
v -0.000004 -19.969692 0.595800
v -0.000004 -19.969692 2.053600
v -0.000005 -21.229992 0.397200
v -0.000003 -15.612492 0.000000
v -0.000003 -16.151392 1.336500
v -0.000004 -16.151392 -1.336500
v -0.000014 -50.885796 -2.282200
v -0.000012 -43.887791 -2.053600
v -0.000013 -48.669090 -3.003600
v -0.000014 -50.885796 -2.282200
v -0.000014 -51.785393 0.000000
v -0.000012 -43.887791 -2.053600
v -0.000003 -16.151392 1.336500
v -0.000003 -15.612492 0.000000
v -0.000004 -16.151392 -1.336500
v -0.000005 -19.969692 -0.595800
v -0.000005 -21.229992 -0.397200
v -0.000005 -19.969692 -2.053600
v -0.000013 -50.885796 2.282200
v -0.000014 -51.785393 0.000000
v -0.000011 -43.887791 2.053600
v -0.000012 -43.887791 -2.053600
v -0.000014 -50.885796 -2.282200
v -0.000013 -48.669090 -3.003600
vt 0.562007 0.047308
vt 0.577755 0.236284
vt 0.483267 0.047308
vt 0.467519 0.236284
vt 0.483267 0.047308
vt 0.577755 0.236284
vt 0.577755 0.236284
vt 0.703739 0.677229
vt 0.467519 0.236284
vt 0.373031 0.677229
vt 0.467519 0.236284
vt 0.703739 0.677229
vt 0.703739 0.677229
vt 0.624999 0.897702
vt 0.373031 0.677229
vt 0.388779 0.897702
vt 0.373031 0.677229
vt 0.624999 0.897702
vt 0.624999 0.897702
vt 0.703739 0.677229
vt 0.373031 0.677229
vt 0.467519 0.236284
vt 0.373031 0.677229
vt 0.703739 0.677229
vt 0.703739 0.677229
vt 0.577755 0.236284
vt 0.467519 0.236284
vt 0.483267 0.047308
vt 0.467519 0.236284
vt 0.577755 0.236284
vt 0.577755 0.236284
vt 0.562007 0.047308
vt 0.483267 0.047308
vt 0.782480 0.299277
vt 0.987204 0.047308
vt 0.782480 0.236284
vt 0.703739 0.047308
vt 0.782480 0.236284
vt 0.987204 0.047308
vt 0.987204 0.047308
vt 0.782480 0.236284
vt 0.703739 0.047308
vt 0.703739 0.236284
vt 0.703739 0.047308
vt 0.782480 0.236284
vt 0.325787 0.141796
vt 0.310039 0.992190
vt 0.184054 0.047308
vt 0.058070 0.992190
vt 0.184054 0.047308
vt 0.310039 0.992190
vt 0.310039 0.992190
vt 0.184054 0.047308
vt 0.058070 0.992190
vt 0.042322 0.141796
vt 0.058070 0.992190
vt 0.184054 0.047308
vt 0.777636 0.283403
vt 0.982360 0.031434
vt 0.982360 0.472379
vt 0.698895 0.472379
vt 0.777636 0.283403
vt 0.982360 0.472379
vt 0.982360 0.472379
vt 0.698895 0.472379
vt 0.698895 0.031434
vt 0.698895 0.472379
vt 0.982360 0.472379
vt 0.698895 0.031434
vt 0.982360 0.031434
vt 0.982360 0.472379
vt 0.698895 0.031434
vt 0.982360 0.472379
vt 0.982360 0.031434
vt 0.698895 0.031434
vt 0.777636 0.283403
vt 0.698895 0.472379
vt 0.982360 0.472379
vt 0.982360 0.031434
vt 0.777636 0.283403
vt 0.982360 0.472379
vt 0.982360 0.472379
vt 0.698895 0.472379
vt 0.698895 0.031434
vt 0.698895 0.472379
vt 0.982360 0.472379
vt 0.698895 0.031434
vt 0.982360 0.031434
vt 0.982360 0.472379
vt 0.698895 0.031434
vt 0.982360 0.472379
vt 0.982360 0.031434
vt 0.698895 0.031434
vt 0.982360 0.472379
vt 0.698895 0.472379
vt 0.698895 0.031434
vt 0.698895 0.472379
vt 0.982360 0.472379
vt 0.698895 0.031434
vt 0.982360 0.031434
vt 0.982360 0.472379
vt 0.698895 0.031434
vt 0.982360 0.472379
vt 0.982360 0.031434
vt 0.698895 0.031434
vt 0.982360 0.472379
vt 0.698895 0.472379
vt 0.698895 0.031434
vt 0.698895 0.472379
vt 0.982360 0.472379
vt 0.698895 0.031434
vt 0.982360 0.031434
vt 0.982360 0.472379
vt 0.698895 0.031434
vt 0.982360 0.472379
vt 0.982360 0.031434
vt 0.698895 0.031434
vt 0.982360 0.472379
vt 0.698895 0.472379
vt 0.698895 0.031434
vt 0.698895 0.472379
vt 0.982360 0.472379
vt 0.698895 0.031434
vt 0.982360 0.031434
vt 0.982360 0.472379
vt 0.698895 0.031434
vt 0.982360 0.472379
vt 0.982360 0.031434
vt 0.698895 0.031434
vt 0.305195 0.976316
vt 0.320943 0.125922
vt 0.352439 0.409387
vt 0.320943 0.125922
vt 0.305195 0.976316
vt 0.352439 0.409387
vt 0.730391 0.976316
vt 0.730391 0.535371
vt 0.982360 0.976316
vt 0.730391 0.535371
vt 0.730391 0.976316
vt 0.982360 0.976316
vt 0.982360 0.535371
vt 0.982360 0.976316
vt 0.730391 0.535371
vt 0.982360 0.976316
vt 0.982360 0.535371
vt 0.730391 0.535371
vt 0.383935 0.881828
vt 0.620155 0.881828
vt 0.368187 0.661355
vt 0.982360 0.031434
vt 0.777636 0.283403
vt 0.777636 0.220410
vt 0.698895 0.472379
vt 0.698895 0.283403
vt 0.777636 0.283403
vt 0.698895 0.283403
vt 0.698895 0.472379
vt 0.777636 0.283403
vt 0.509919 0.976316
vt 0.620155 0.881828
vt 0.383935 0.881828
vt 0.037478 0.125922
vt 0.053226 0.976316
vt 0.005982 0.409387
vt 0.037478 0.125922
vt 0.179210 0.031434
vt 0.053226 0.976316
vt 0.620155 0.881828
vt 0.509919 0.976316
vt 0.383935 0.881828
vt 0.698895 0.220410
vt 0.777636 0.220410
vt 0.698895 0.031434
vt 0.320943 0.125922
vt 0.179210 0.031434
vt 0.305195 0.976316
vt 0.053226 0.976316
vt 0.037478 0.125922
vt 0.005982 0.409387
vn -1.0000 0.0000 0.0000
vn 1.0000 -0.0000 -0.0000
vn -0.0000 0.0000 -1.0000
vn 0.0000 -0.0000 1.0000
o keychain
usemtl Brush.078
f 1/1/1 2/2/1 3/3/1
f 4/4/1 5/5/1 6/6/1
f 7/7/1 8/8/1 9/9/1
f 10/10/1 11/11/1 12/12/1
f 13/13/1 14/14/1 15/15/1
f 16/16/1 17/17/1 18/18/1
f 19/19/2 20/20/2 21/21/2
f 22/22/2 23/23/2 24/24/2
f 25/25/2 26/26/2 27/27/2
f 28/28/2 29/29/2 30/30/2
f 31/31/2 32/32/2 33/33/2
f 34/34/2 35/35/2 36/36/2
f 37/37/2 38/38/2 39/39/2
f 40/40/1 41/41/1 42/42/1
f 43/43/1 44/44/1 45/45/1
f 46/46/1 47/47/1 48/48/1
f 49/49/1 50/50/1 51/51/1
f 52/52/2 53/53/2 54/54/2
f 55/55/2 56/56/2 57/57/2
f 58/58/1 59/59/1 60/60/1
f 61/61/1 62/62/1 63/63/1
f 64/64/1 65/65/1 66/66/1
f 67/67/2 68/68/2 69/69/2
f 70/70/1 71/71/1 72/72/1
f 73/73/2 74/74/2 75/75/2
f 76/76/2 77/77/2 78/78/2
f 79/79/2 80/80/2 81/81/2
f 82/82/3 83/83/3 84/84/3
f 85/85/4 86/86/4 87/87/4
f 88/88/3 89/89/3 90/90/3
f 91/91/4 92/92/4 93/93/4
f 94/94/3 95/95/3 96/96/3
f 97/97/4 98/98/4 99/99/4
f 100/100/3 101/101/3 102/102/3
f 103/103/4 104/104/4 105/105/4
f 106/106/3 107/107/3 108/108/3
f 109/109/4 110/110/4 111/111/4
f 112/112/3 113/113/3 114/114/3
f 115/115/4 116/116/4 117/117/4
f 118/118/1 119/119/1 120/120/1
f 121/121/2 122/122/2 123/123/2
f 124/124/1 125/125/1 126/126/1
f 127/127/2 128/128/2 129/129/2
f 130/130/1 131/131/1 132/132/1
f 133/133/2 134/134/2 135/135/2
f 136/136/1 137/137/1 138/138/1
f 139/139/2 140/140/2 141/141/2
f 142/142/1 143/143/1 144/144/1
f 145/145/2 146/146/2 147/147/2
f 148/148/2 149/149/2 150/150/2
f 151/151/1 152/152/1 153/153/1
f 154/154/1 155/155/1 156/156/1
f 157/157/2 158/158/2 159/159/2
f 160/160/2 161/161/2 162/162/2
f 163/163/1 164/164/1 165/165/1
f 166/166/1 167/167/1 168/168/1
f 169/169/1 170/170/1 171/171/1
f 172/172/2 173/173/2 174/174/2
f 175/175/2 176/176/2 177/177/2
f 178/178/2 179/179/2 180/180/2
