mtllib rainfell.mtl
v 1.427302 64.560005 -4.628500
v 0.000002 66.646103 -6.714601
v 0.000001 71.208694 -11.274799
v 0.000002 66.646103 -6.714601
v -1.427298 64.560005 -4.628500
v 0.000001 71.208694 -11.274799
v 2.008000 12.394700 -0.000000
v 2.008001 14.080700 1.686000
v 0.000001 9.881600 2.964500
v 0.000002 14.083099 6.909801
v 0.000001 9.881600 2.964500
v 2.008001 14.080700 1.686000
v 0.000001 56.664402 -6.717100
v 1.427302 58.753002 -4.628500
v 0.000000 52.106701 -11.274799
v -1.427298 58.753002 -4.628500
v 0.000001 56.664402 -6.717100
v 0.000000 52.106701 -11.274799
v 2.008000 14.080700 -1.686000
v -0.000001 14.083099 -6.909801
v 1.695701 18.679901 -0.000000
v 0.000000 19.990200 -2.644900
v 1.695701 18.679901 -0.000000
v -0.000001 14.083099 -6.909801
v -0.000001 14.083099 -6.909801
v -0.000000 9.881600 -2.964500
v -2.008000 14.080700 -1.686000
v -0.000000 9.881600 -2.964500
v -2.007999 12.394700 0.000000
v -2.008000 14.080700 -1.686000
v -1.427299 61.656498 -7.532000
v -1.427298 64.560005 -4.628500
v 0.000002 66.646103 -6.714601
v 0.000001 63.447399 -9.918200
v -1.427299 61.656498 -7.532000
v 0.000002 66.646103 -6.714601
v -1.424897 55.615299 1.471300
v -1.424898 54.126900 -0.002400
v 0.000003 51.796799 1.881200
v 0.000003 55.622601 5.719100
v -1.424897 55.615299 1.471300
v 0.000003 51.796799 1.881200
v 0.000001 19.990200 2.644900
v -1.695699 18.679901 0.000000
v 0.000002 14.083099 6.909801
v -1.695699 18.679901 0.000000
v -2.007999 14.080700 1.686000
v 0.000002 14.083099 6.909801
v -0.021997 61.656498 1.864100
v -0.021998 66.355698 -2.832700
v -0.021999 61.656498 -7.532000
v -0.021998 66.355698 -2.832700
v -0.021997 61.656498 1.864100
v -0.021999 61.656498 -7.532000
v -0.021998 56.957199 -2.832700
v -0.021997 61.656498 1.864100
v -0.021999 61.656498 -7.532000
v -0.021997 61.656498 1.864100
v -0.021998 56.957199 -2.832700
v -0.021999 61.656498 -7.532000
v -1.825101 -9.174100 -3.759900
v 1.744500 -9.510800 -0.000000
v 1.825099 -9.174100 -3.759901
v 1.427301 61.656498 -7.532000
v -0.000000 61.656498 -15.961901
v 0.000000 63.447399 -14.385700
v -0.000001 -16.798800 -0.668500
v 0.853999 -17.123301 -0.000000
v -0.854001 -17.123301 0.000000
v 1.424903 55.615299 1.471300
v -1.424897 55.615299 1.471300
v 0.000003 55.622601 5.719100
v 2.007999 5.014000 -7.292900
v -2.008000 7.188000 -4.508900
v -2.008001 5.014000 -7.292900
v -1.407800 9.003301 -4.667500
v 1.407800 9.003301 -4.667500
v -0.000001 13.138901 -8.332300
v -1.424897 67.463394 1.729900
v 1.424903 67.463394 1.729900
v 0.000004 67.460999 5.936300
v 0.000003 71.521004 -1.839700
v 0.000003 77.774498 -1.839700
v 1.424903 69.186005 -0.002400
v 0.000001 71.208694 -11.274799
v 0.000002 71.208694 -7.485600
v 1.427302 64.560005 -4.628500
v 0.000001 52.106701 -7.485600
v 1.427302 58.753002 -4.628500
v 0.000002 54.763699 -4.816400
v 1.427301 61.656498 -7.532000
v 1.427302 58.753002 -4.628500
v 0.000001 56.664402 -6.717100
v -2.007998 5.014000 7.292900
v 2.008001 7.188000 4.508900
v 2.008002 5.014000 7.292900
v 1.407801 9.003301 4.667500
v -1.407799 9.003301 4.667500
v 0.000002 13.138901 8.332300
v 0.000002 41.466202 2.725400
v 1.424902 42.337303 -0.000000
v 0.000003 47.692902 5.026200
v 0.000003 79.948502 -0.000000
v -1.424897 69.186005 -0.002400
v 0.000004 77.774498 1.839700
v -1.427298 64.560005 -4.628500
v -1.424897 69.186005 -0.002400
v 0.000002 68.549194 -4.813900
v -1.424898 54.126900 -0.002400
v -1.427298 58.753002 -4.628500
v 0.000002 54.763699 -4.816400
v -1.427299 61.656498 -7.532000
v 0.000000 59.868004 -14.385700
v 0.000001 59.868004 -9.918200
v 0.000001 41.466202 -2.725400
v -1.424898 42.337303 0.000000
v 0.000001 47.692902 -5.026200
v 2.008001 14.080700 1.686000
v 1.695701 18.679901 -0.000000
v 0.000002 14.083099 6.909801
v 0.000001 19.990200 2.644900
v 0.000002 14.083099 6.909801
v 1.695701 18.679901 -0.000000
v 1.695701 18.679901 -0.000000
v 0.000001 25.484800 1.505400
v 0.000001 19.990200 2.644900
v -1.695699 18.679901 0.000000
v 0.000001 19.990200 2.644900
v 0.000001 25.484800 1.505400
v 0.000001 25.484800 1.505400
v -1.424899 29.408199 0.000000
v -1.695699 18.679901 0.000000
v 0.000001 25.484800 -1.505400
v -1.695699 18.679901 0.000000
v -1.424899 29.408199 0.000000
v -1.424899 29.408199 0.000000
v 0.000001 33.334000 -1.505400
v 0.000001 25.484800 -1.505400
v 1.424901 29.408199 -0.000000
v 0.000001 25.484800 -1.505400
v 0.000001 33.334000 -1.505400
v 0.000001 33.334000 -1.505400
v 1.424902 42.337303 -0.000000
v 1.424901 29.408199 -0.000000
v 0.000002 33.334000 1.505400
v 1.424901 29.408199 -0.000000
v 1.424902 42.337303 -0.000000
v 1.424902 42.337303 -0.000000
v 0.000002 41.466202 2.725400
v 0.000002 33.334000 1.505400
v -1.424898 42.337303 0.000000
v 0.000002 33.334000 1.505400
v 0.000002 41.466202 2.725400
v 0.000002 41.466202 2.725400
v 0.000003 47.692902 5.026200
v -1.424898 42.337303 0.000000
v -1.424898 47.480602 1.188200
v -1.424898 42.337303 0.000000
v 0.000003 47.692902 5.026200
v 0.000003 47.692902 5.026200
v 0.000003 51.796799 1.881200
v -1.424898 47.480602 1.188200
v -1.424898 48.485802 0.000000
v -1.424898 47.480602 1.188200
v 0.000003 51.796799 1.881200
v 0.000003 51.796799 1.881200
v -1.424898 54.126900 -0.002400
v -1.424898 48.485802 0.000000
v 0.000002 51.818802 -1.881200
v -1.424898 48.485802 0.000000
v -1.424898 54.126900 -0.002400
v -1.424898 54.126900 -0.002400
v 0.000002 54.763699 -4.816400
v 0.000002 51.818802 -1.881200
v 1.424902 54.126900 -0.002400
v 0.000002 51.818802 -1.881200
v 0.000002 54.763699 -4.816400
v 0.000002 54.763699 -4.816400
v 1.427302 58.753002 -4.628500
v 1.424902 54.126900 -0.002400
v 0.000003 55.622601 5.719100
v 0.000003 51.796799 1.881200
v 1.424903 55.615299 1.471300
v 1.424902 54.126900 -0.002400
v 1.424903 55.615299 1.471300
v 0.000003 51.796799 1.881200
v 0.000003 51.796799 1.881200
v 1.424902 48.485802 -0.000000
v 1.424902 54.126900 -0.002400
v 0.000002 51.818802 -1.881200
v 1.424902 54.126900 -0.002400
v 1.424902 48.485802 -0.000000
v 1.424902 48.485802 -0.000000
v 1.424902 47.480602 -1.188200
v 0.000002 51.818802 -1.881200
v 0.000001 47.692902 -5.026200
v 0.000002 51.818802 -1.881200
v 1.424902 47.480602 -1.188200
v 1.424902 47.480602 -1.188200
v 1.424902 42.337303 -0.000000
v 0.000001 47.692902 -5.026200
v 0.000001 41.466202 -2.725400
v 0.000001 47.692902 -5.026200
v 1.424902 42.337303 -0.000000
v 1.424902 42.337303 -0.000000
v 0.000001 33.334000 -1.505400
v 0.000001 41.466202 -2.725400
v -1.424898 42.337303 0.000000
v 0.000001 41.466202 -2.725400
v 0.000001 33.334000 -1.505400
v 0.000001 33.334000 -1.505400
v -1.424899 29.408199 0.000000
v -1.424898 42.337303 0.000000
v 0.000002 33.334000 1.505400
v -1.424898 42.337303 0.000000
v -1.424899 29.408199 0.000000
v -1.424899 29.408199 0.000000
v 0.000001 25.484800 1.505400
v 0.000002 33.334000 1.505400
v 1.424901 29.408199 -0.000000
v 0.000002 33.334000 1.505400
v 0.000001 25.484800 1.505400
v 0.000001 25.484800 1.505400
v 1.695701 18.679901 -0.000000
v 1.424901 29.408199 -0.000000
v 0.000001 25.484800 -1.505400
v 1.424901 29.408199 -0.000000
v 1.695701 18.679901 -0.000000
v 1.695701 18.679901 -0.000000
v 0.000000 19.990200 -2.644900
v 0.000001 25.484800 -1.505400
v -1.695699 18.679901 0.000000
v 0.000001 25.484800 -1.505400
v 0.000000 19.990200 -2.644900
v 0.000000 19.990200 -2.644900
v -0.000001 14.083099 -6.909801
v -1.695699 18.679901 0.000000
v -2.008000 14.080700 -1.686000
v -1.695699 18.679901 0.000000
v -0.000001 14.083099 -6.909801
v -0.000001 -9.371700 -2.339900
v -0.000001 -6.731700 -2.759500
v 1.744500 -9.510800 -0.000000
v 1.390700 -3.972200 -0.000000
v 1.744500 -9.510800 -0.000000
v -0.000001 -6.731700 -2.759500
v -0.000001 -6.731700 -2.759500
v -0.000000 -3.972200 -1.476100
v 1.390700 -3.972200 -0.000000
v -0.000000 3.296300 -1.734800
v 1.390700 -3.972200 -0.000000
v -0.000000 -3.972200 -1.476100
v -0.000000 -3.972200 -1.476100
v -1.390700 -3.972200 0.000000
v -0.000000 3.296300 -1.734800
v -1.390700 3.296300 0.000000
v -0.000000 3.296300 -1.734800
v -1.390700 -3.972200 0.000000
v -1.390700 -3.972200 0.000000
v 0.000000 3.296300 1.734800
v -1.390700 3.296300 0.000000
v 0.000001 9.881600 2.964500
v -1.390700 3.296300 0.000000
v 0.000000 3.296300 1.734800
v 0.000000 3.296300 1.734800
v 1.390700 3.296300 -0.000000
v 0.000001 9.881600 2.964500
v 2.008000 12.394700 -0.000000
v 0.000001 9.881600 2.964500
v 1.390700 3.296300 -0.000000
v 1.390700 3.296300 -0.000000
v -0.000000 9.881600 -2.964500
v 2.008000 12.394700 -0.000000
v 2.008000 14.080700 -1.686000
v 2.008000 12.394700 -0.000000
v -0.000000 9.881600 -2.964500
v -0.000000 9.881600 -2.964500
v -0.000001 14.083099 -6.909801
v 2.008000 14.080700 -1.686000
v -0.000000 -9.371700 2.339900
v 0.000000 -6.731700 2.759500
v -1.744500 -9.510800 0.000000
v -1.390700 -3.972200 0.000000
v -1.744500 -9.510800 0.000000
v 0.000000 -6.731700 2.759500
v 0.000000 -6.731700 2.759500
v 0.000000 -3.972200 1.476100
v -1.390700 -3.972200 0.000000
v 0.000000 3.296300 1.734800
v -1.390700 -3.972200 0.000000
v 0.000000 -3.972200 1.476100
v 0.000000 -3.972200 1.476100
v 1.390700 -3.972200 -0.000000
v 0.000000 3.296300 1.734800
v 1.390700 3.296300 -0.000000
v 0.000000 3.296300 1.734800
v 1.390700 -3.972200 -0.000000
v 1.390700 -3.972200 -0.000000
v -0.000000 3.296300 -1.734800
v 1.390700 3.296300 -0.000000
v -0.000000 9.881600 -2.964500
v 1.390700 3.296300 -0.000000
v -0.000000 3.296300 -1.734800
v -0.000000 3.296300 -1.734800
v -1.390700 3.296300 0.000000
v -0.000000 9.881600 -2.964500
v -2.007999 12.394700 0.000000
v -0.000000 9.881600 -2.964500
v -1.390700 3.296300 0.000000
v -1.390700 3.296300 0.000000
v 0.000001 9.881600 2.964500
v -2.007999 12.394700 0.000000
v -2.007999 14.080700 1.686000
v -2.007999 12.394700 0.000000
v 0.000001 9.881600 2.964500
v 0.000001 9.881600 2.964500
v 0.000002 14.083099 6.909801
v -2.007999 14.080700 1.686000
v 1.427302 64.560005 -4.628500
v 1.427301 61.656498 -7.532000
v 0.000002 66.646103 -6.714601
v 0.000001 63.447399 -9.918200
v 0.000002 66.646103 -6.714601
v 1.427301 61.656498 -7.532000
v 1.427301 61.656498 -7.532000
v 0.000000 63.447399 -14.385700
v 0.000001 63.447399 -9.918200
v -1.427299 61.656498 -7.532000
v 0.000001 63.447399 -9.918200
v 0.000000 63.447399 -14.385700
v 0.000000 63.447399 -14.385700
v -0.000000 61.656498 -15.961901
v -1.427299 61.656498 -7.532000
v 0.000000 59.868004 -14.385700
v -1.427299 61.656498 -7.532000
v -0.000000 61.656498 -15.961901
v -0.000000 61.656498 -15.961901
v 1.427301 61.656498 -7.532000
v 0.000000 59.868004 -14.385700
v 0.000001 59.868004 -9.918200
v 0.000000 59.868004 -14.385700
v 1.427301 61.656498 -7.532000
v 1.427301 61.656498 -7.532000
v 0.000001 56.664402 -6.717100
v 0.000001 59.868004 -9.918200
v -1.427299 61.656498 -7.532000
v 0.000001 59.868004 -9.918200
v 0.000001 56.664402 -6.717100
v 0.000001 56.664402 -6.717100
v -1.427298 58.753002 -4.628500
v -1.427299 61.656498 -7.532000
v 1.427302 64.560005 -4.628500
v 0.000002 68.549194 -4.813900
v 1.424903 69.186005 -0.002400
v 0.000003 71.521004 -1.839700
v 1.424903 69.186005 -0.002400
v 0.000002 68.549194 -4.813900
v 0.000002 68.549194 -4.813900
v -1.424897 69.186005 -0.002400
v 0.000003 71.521004 -1.839700
v 0.000003 77.774498 -1.839700
v 0.000003 71.521004 -1.839700
v -1.424897 69.186005 -0.002400
v -1.424897 69.186005 -0.002400
v 0.000003 79.948502 -0.000000
v 0.000003 77.774498 -1.839700
v 1.424903 69.186005 -0.002400
v 0.000003 77.774498 -1.839700
v 0.000003 79.948502 -0.000000
v 0.000003 79.948502 -0.000000
v 0.000004 77.774498 1.839700
v 1.424903 69.186005 -0.002400
v 0.000003 71.521004 1.839700
v 1.424903 69.186005 -0.002400
v 0.000004 77.774498 1.839700
v 0.000004 77.774498 1.839700
v -1.424897 69.186005 -0.002400
v 0.000003 71.521004 1.839700
v -1.424897 67.463394 1.729900
v 0.000003 71.521004 1.839700
v -1.424897 69.186005 -0.002400
v 1.825100 -9.174100 3.759900
v 0.000000 -14.246599 4.723700
v 1.744500 -9.510800 -0.000000
v -0.000000 -14.683400 1.039400
v 1.744500 -9.510800 -0.000000
v 0.000000 -14.246599 4.723700
v 0.000000 -14.246599 4.723700
v -1.744500 -9.510800 0.000000
v -0.000000 -14.683400 1.039400
v -1.744501 -13.929399 0.000000
v -0.000000 -14.683400 1.039400
v -1.744500 -9.510800 0.000000
v -1.744500 -9.510800 0.000000
v -0.000001 -14.683400 -1.039400
v -1.744501 -13.929399 0.000000
v -0.000001 -16.798800 -0.668500
v -1.744501 -13.929399 0.000000
v -0.000001 -14.683400 -1.039400
v -0.000001 -14.683400 -1.039400
v 1.744499 -13.929399 -0.000000
v -0.000001 -16.798800 -0.668500
v 0.853999 -17.123301 -0.000000
v -0.000001 -16.798800 -0.668500
v 1.744499 -13.929399 -0.000000
v 1.744499 -13.929399 -0.000000
v -0.000001 -16.798800 0.668500
v 0.853999 -17.123301 -0.000000
v -0.854001 -17.123301 0.000000
v 0.853999 -17.123301 -0.000000
v -0.000001 -16.798800 0.668500
v 2.008000 -6.651200 3.947799
v 2.008001 -5.389800 6.099800
v 1.825100 -9.174100 3.759900
v 0.000001 -10.855101 10.340301
v 1.825100 -9.174100 3.759900
v 2.008001 -5.389800 6.099800
v 2.008001 -5.389800 6.099800
v 0.000001 -6.995200 9.844999
v 0.000001 -10.855101 10.340301
v -2.007999 -5.389800 6.099800
v 0.000001 -10.855101 10.340301
v 0.000001 -6.995200 9.844999
v 0.000001 -6.995200 9.844999
v 0.000002 -1.024800 12.819301
v -2.007999 -5.389800 6.099800
v -2.007998 3.281700 8.020000
v -2.007999 -5.389800 6.099800
v 0.000002 -1.024800 12.819301
v 0.000002 -1.024800 12.819301
v 0.000002 1.581100 13.109600
v -2.007998 3.281700 8.020000
v 0.000003 6.192500 15.295800
v -2.007998 3.281700 8.020000
v 0.000002 1.581100 13.109600
v 0.000002 1.581100 13.109600
v 2.008002 3.281700 8.020000
v 0.000003 6.192500 15.295800
v 2.008002 5.014000 7.292900
v 0.000003 6.192500 15.295800
v 2.008002 3.281700 8.020000
v -2.008001 -6.651200 -3.947799
v -2.008001 -5.389800 -6.099800
v -1.825101 -9.174100 -3.759900
v -0.000002 -10.855101 -10.340301
v -1.825101 -9.174100 -3.759900
v -2.008001 -5.389800 -6.099800
v -2.008001 -5.389800 -6.099800
v -0.000002 -6.995200 -9.844999
v -0.000002 -10.855101 -10.340301
v 2.007999 -5.389800 -6.099800
v -0.000002 -10.855101 -10.340301
v -0.000002 -6.995200 -9.844999
v -0.000002 -6.995200 -9.844999
v -0.000002 -1.024800 -12.819301
v 2.007999 -5.389800 -6.099800
v 2.007999 3.281700 -8.020000
v 2.007999 -5.389800 -6.099800
v -0.000002 -1.024800 -12.819301
v -0.000002 -1.024800 -12.819301
v -0.000002 1.581100 -13.109600
v 2.007999 3.281700 -8.020000
v -0.000002 6.192500 -15.295800
v 2.007999 3.281700 -8.020000
v -0.000002 1.581100 -13.109600
v -0.000002 1.581100 -13.109600
v -2.008001 3.281700 -8.020000
v -0.000002 6.192500 -15.295800
v -2.008001 5.014000 -7.292900
v -0.000002 6.192500 -15.295800
v -2.008001 3.281700 -8.020000
v -1.825101 -9.174100 -3.759900
v -0.000001 -14.246599 -4.723700
v -1.744500 -9.510800 0.000000
v -0.000001 -14.683400 -1.039400
v -1.744500 -9.510800 0.000000
v -0.000001 -14.246599 -4.723700
v -0.000001 -14.246599 -4.723700
v 1.744500 -9.510800 -0.000000
v -0.000001 -14.683400 -1.039400
v 1.744499 -13.929399 -0.000000
v -0.000001 -14.683400 -1.039400
v 1.744500 -9.510800 -0.000000
v 1.744500 -9.510800 -0.000000
v -0.000000 -14.683400 1.039400
v 1.744499 -13.929399 -0.000000
v -0.000001 -16.798800 0.668500
v 1.744499 -13.929399 -0.000000
v -0.000000 -14.683400 1.039400
v -0.000000 -14.683400 1.039400
v -1.744501 -13.929399 0.000000
v -0.000001 -16.798800 0.668500
v -0.854001 -17.123301 0.000000
v -0.000001 -16.798800 0.668500
v -1.744501 -13.929399 0.000000
v -1.744501 -13.929399 0.000000
v -0.000001 -16.798800 -0.668500
v -0.854001 -17.123301 0.000000
v 2.008000 12.394700 -0.000000
v 2.008000 14.080700 -1.686000
v -2.008000 14.080700 -1.686000
v -1.695699 18.679901 0.000000
v -2.008000 14.080700 -1.686000
v 2.008000 14.080700 -1.686000
v 2.008000 14.080700 -1.686000
v 1.695701 18.679901 -0.000000
v -1.695699 18.679901 0.000000
v -2.007999 14.080700 1.686000
v -1.695699 18.679901 0.000000
v 1.695701 18.679901 -0.000000
v 1.695701 18.679901 -0.000000
v 2.008001 14.080700 1.686000
v -2.007999 14.080700 1.686000
v -2.007999 12.394700 0.000000
v -2.007999 14.080700 1.686000
v 2.008001 14.080700 1.686000
v 2.008001 14.080700 1.686000
v 2.008000 12.394700 -0.000000
v -2.007999 12.394700 0.000000
v -2.008000 14.080700 -1.686000
v -2.007999 12.394700 0.000000
v 2.008000 12.394700 -0.000000
v 2.007999 3.281700 -8.020000
v -0.000002 6.192500 -15.295800
v 2.007999 5.014000 -7.292900
v -0.000001 8.920300 -10.220800
v 2.007999 5.014000 -7.292900
v -0.000002 6.192500 -15.295800
v -0.000002 6.192500 -15.295800
v -2.008001 5.014000 -7.292900
v -0.000001 8.920300 -10.220800
v -0.000001 10.799000 -9.369200
v -0.000001 8.920300 -10.220800
v -2.008001 5.014000 -7.292900
v -2.008001 5.014000 -7.292900
v -2.008000 7.188000 -4.508900
v -0.000001 10.799000 -9.369200
v -0.000001 13.136500 -10.125600
v -0.000001 10.799000 -9.369200
v -2.008000 7.188000 -4.508900
v -2.008000 7.188000 -4.508900
v -1.407800 9.003301 -4.667500
v -0.000001 13.136500 -10.125600
v -0.000001 13.138901 -8.332300
v -0.000001 13.136500 -10.125600
v -1.407800 9.003301 -4.667500
v 1.424902 42.337303 -0.000000
v 1.424902 47.480602 -1.188200
v -1.424898 47.480602 -1.188200
v -1.424898 48.485802 0.000000
v -1.424898 47.480602 -1.188200
v 1.424902 47.480602 -1.188200
v 1.424902 47.480602 -1.188200
v 1.424902 48.485802 -0.000000
v -1.424898 48.485802 0.000000
v -1.424898 47.480602 1.188200
v -1.424898 48.485802 0.000000
v 1.424902 48.485802 -0.000000
v 1.424902 48.485802 -0.000000
v 1.424902 47.480602 1.188200
v -1.424898 47.480602 1.188200
v -1.424898 42.337303 0.000000
v -1.424898 47.480602 1.188200
v 1.424902 47.480602 1.188200
v 1.424902 47.480602 1.188200
v 1.424902 42.337303 -0.000000
v -1.424898 42.337303 0.000000
v -1.424898 47.480602 -1.188200
v -1.424898 42.337303 0.000000
v 1.424902 42.337303 -0.000000
v 0.000002 13.138901 8.332300
v 0.000002 13.136500 10.125600
v 1.407801 9.003301 4.667500
v 2.008001 7.188000 4.508900
v 1.407801 9.003301 4.667500
v 0.000002 13.136500 10.125600
v 0.000002 13.136500 10.125600
v 0.000002 10.799000 9.369200
v 2.008001 7.188000 4.508900
v 2.008002 5.014000 7.292900
v 2.008001 7.188000 4.508900
v 0.000002 10.799000 9.369200
v 0.000002 10.799000 9.369200
v 0.000002 8.920300 10.220800
v 2.008002 5.014000 7.292900
v 0.000003 6.192500 15.295800
v 2.008002 5.014000 7.292900
v 0.000002 8.920300 10.220800
v 0.000002 8.920300 10.220800
v -2.007998 5.014000 7.292900
v 0.000003 6.192500 15.295800
v -2.007998 3.281700 8.020000
v 0.000003 6.192500 15.295800
v -2.007998 5.014000 7.292900
v 1.424903 69.186005 -0.002400
v -1.427298 64.560005 -4.628500
v 1.427302 64.560005 -4.628500
v 1.427301 61.656498 -7.532000
v 1.427302 64.560005 -4.628500
v -1.427298 64.560005 -4.628500
v -1.427298 64.560005 -4.628500
v -1.427299 61.656498 -7.532000
v 1.427301 61.656498 -7.532000
v 1.427302 58.753002 -4.628500
v 1.427301 61.656498 -7.532000
v -1.427299 61.656498 -7.532000
v -1.427299 61.656498 -7.532000
v -1.427298 58.753002 -4.628500
v 1.427302 58.753002 -4.628500
v -1.424898 54.126900 -0.002400
v 1.427302 58.753002 -4.628500
v -1.427298 58.753002 -4.628500
v -2.008001 5.014000 -7.292900
v -2.008001 3.281700 -8.020000
v 2.007999 5.014000 -7.292900
v 2.007999 3.281700 -8.020000
v 2.007999 5.014000 -7.292900
v -2.008001 3.281700 -8.020000
v -2.008001 3.281700 -8.020000
v -2.008001 -5.389800 -6.099800
v 2.007999 3.281700 -8.020000
v 2.007999 -5.389800 -6.099800
v 2.007999 3.281700 -8.020000
v -2.008001 -5.389800 -6.099800
v -2.008001 -5.389800 -6.099800
v 2.007999 -6.651200 -3.947800
v 2.007999 -5.389800 -6.099800
v -0.000001 8.920300 -10.220800
v -0.000001 10.799000 -9.369200
v 2.007999 5.014000 -7.292900
v 2.007999 7.188000 -4.508900
v 2.007999 5.014000 -7.292900
v -0.000001 10.799000 -9.369200
v -0.000001 10.799000 -9.369200
v -0.000001 13.136500 -10.125600
v 2.007999 7.188000 -4.508900
v 1.407800 9.003301 -4.667500
v 2.007999 7.188000 -4.508900
v -0.000001 13.136500 -10.125600
v -0.000001 13.136500 -10.125600
v -0.000001 13.138901 -8.332300
v 1.407800 9.003301 -4.667500
v 2.008002 5.014000 7.292900
v 2.008002 3.281700 8.020000
v -2.007998 5.014000 7.292900
v -2.007998 3.281700 8.020000
v -2.007998 5.014000 7.292900
v 2.008002 3.281700 8.020000
v 2.008002 3.281700 8.020000
v 2.008001 -5.389800 6.099800
v -2.007998 3.281700 8.020000
v -2.007999 -5.389800 6.099800
v -2.007998 3.281700 8.020000
v 2.008001 -5.389800 6.099800
v 2.008001 -5.389800 6.099800
v -2.008000 -6.651200 3.947800
v -2.007999 -5.389800 6.099800
v 0.000002 8.920300 10.220800
v 0.000002 10.799000 9.369200
v -2.007998 5.014000 7.292900
v -2.007999 7.188000 4.508900
v -2.007998 5.014000 7.292900
v 0.000002 10.799000 9.369200
v 0.000002 10.799000 9.369200
v 0.000002 13.136500 10.125600
v -2.007999 7.188000 4.508900
v -1.407799 9.003301 4.667500
v -2.007999 7.188000 4.508900
v 0.000002 13.136500 10.125600
v 0.000002 13.136500 10.125600
v 0.000002 13.138901 8.332300
v -1.407799 9.003301 4.667500
v 2.007999 -6.651200 -3.947800
v 1.825099 -9.174100 -3.759901
v 2.007999 -5.389800 -6.099800
v -0.000002 -10.855101 -10.340301
v 2.007999 -5.389800 -6.099800
v 1.825099 -9.174100 -3.759901
v 1.825099 -9.174100 -3.759901
v -0.000002 -10.872200 -7.646700
v -0.000002 -10.855101 -10.340301
v -1.825101 -9.174100 -3.759900
v -0.000002 -10.855101 -10.340301
v -0.000002 -10.872200 -7.646700
v 1.825100 -9.174100 3.759900
v 0.000001 -10.855101 10.340301
v 0.000001 -10.872200 7.646700
v -1.825100 -9.174100 3.759901
v 0.000001 -10.872200 7.646700
v 0.000001 -10.855101 10.340301
v 0.000001 -10.855101 10.340301
v -2.007999 -5.389800 6.099800
v -1.825100 -9.174100 3.759901
v -2.008000 -6.651200 3.947800
v -1.825100 -9.174100 3.759901
v -2.007999 -5.389800 6.099800
v -1.825101 -9.174100 -3.759900
v -1.744500 -9.510800 0.000000
v 1.744500 -9.510800 -0.000000
v 1.825100 -9.174100 3.759900
v 1.744500 -9.510800 -0.000000
v -1.744500 -9.510800 0.000000
v -1.744500 -9.510800 0.000000
v -1.825100 -9.174100 3.759901
v 1.825100 -9.174100 3.759900
v 1.427302 64.560005 -4.628500
v 0.000002 71.208694 -7.485600
v 0.000002 68.549194 -4.813900
v -1.427298 64.560005 -4.628500
v 0.000002 68.549194 -4.813900
v 0.000002 71.208694 -7.485600
v 0.000002 71.208694 -7.485600
v 0.000001 71.208694 -11.274799
v -1.427298 64.560005 -4.628500
v 1.744500 -9.510800 -0.000000
v -0.000001 -14.246599 -4.723700
v 1.825099 -9.174100 -3.759901
v -0.000002 -10.872200 -7.646700
v 1.825099 -9.174100 -3.759901
v -0.000001 -14.246599 -4.723700
v -0.000001 -14.246599 -4.723700
v -1.825101 -9.174100 -3.759900
v -0.000002 -10.872200 -7.646700
v 1.424902 42.337303 -0.000000
v 1.424902 47.480602 1.188200
v 0.000003 47.692902 5.026200
v 0.000003 51.796799 1.881200
v 0.000003 47.692902 5.026200
v 1.424902 47.480602 1.188200
v 1.424902 47.480602 1.188200
v 1.424902 48.485802 -0.000000
v 0.000003 51.796799 1.881200
v 1.424903 55.615299 1.471300
v 1.424902 54.126900 -0.002400
v -1.424897 55.615299 1.471300
v -1.424898 54.126900 -0.002400
v -1.424897 55.615299 1.471300
v 1.424902 54.126900 -0.002400
v 1.424902 54.126900 -0.002400
v 1.427302 58.753002 -4.628500
v -1.424898 54.126900 -0.002400
v -1.407800 9.003301 -4.667500
v -2.008000 7.188000 -4.508900
v 1.407800 9.003301 -4.667500
v 2.007999 7.188000 -4.508900
v 1.407800 9.003301 -4.667500
v -2.008000 7.188000 -4.508900
v -2.008000 7.188000 -4.508900
v 2.007999 5.014000 -7.292900
v 2.007999 7.188000 -4.508900
v 0.000000 -3.972200 1.476100
v 0.000000 -6.731700 2.759500
v 1.390700 -3.972200 -0.000000
v 1.744500 -9.510800 -0.000000
v 1.390700 -3.972200 -0.000000
v 0.000000 -6.731700 2.759500
v 0.000000 -6.731700 2.759500
v -0.000000 -9.371700 2.339900
v 1.744500 -9.510800 -0.000000
v -2.008001 -5.389800 -6.099800
v -2.008001 -6.651200 -3.947799
v 2.007999 -6.651200 -3.947800
v 1.825099 -9.174100 -3.759901
v 2.007999 -6.651200 -3.947800
v -2.008001 -6.651200 -3.947799
v -2.008001 -6.651200 -3.947799
v -1.825101 -9.174100 -3.759900
v 1.825099 -9.174100 -3.759901
v 1.424903 69.186005 -0.002400
v 0.000003 71.521004 1.839700
v 1.424903 67.463394 1.729900
v 0.000004 67.460999 5.936300
v 1.424903 67.463394 1.729900
v 0.000003 71.521004 1.839700
v 0.000003 71.521004 1.839700
v -1.424897 67.463394 1.729900
v 0.000004 67.460999 5.936300
v -1.424897 67.463394 1.729900
v -1.424897 69.186005 -0.002400
v 1.424903 67.463394 1.729900
v 1.424903 69.186005 -0.002400
v 1.424903 67.463394 1.729900
v -1.424897 69.186005 -0.002400
v -1.424897 69.186005 -0.002400
v -1.427298 64.560005 -4.628500
v 1.424903 69.186005 -0.002400
v 1.427302 58.753002 -4.628500
v 0.000001 52.106701 -7.485600
v 0.000000 52.106701 -11.274799
v -1.427298 58.753002 -4.628500
v 0.000000 52.106701 -11.274799
v 0.000001 52.106701 -7.485600
v 0.000001 52.106701 -7.485600
v 0.000002 54.763699 -4.816400
v -1.427298 58.753002 -4.628500
v 1.407801 9.003301 4.667500
v 2.008001 7.188000 4.508900
v -1.407799 9.003301 4.667500
v -2.007999 7.188000 4.508900
v -1.407799 9.003301 4.667500
v 2.008001 7.188000 4.508900
v 2.008001 7.188000 4.508900
v -2.007998 5.014000 7.292900
v -2.007999 7.188000 4.508900
v 2.008001 -5.389800 6.099800
v 2.008000 -6.651200 3.947799
v -2.008000 -6.651200 3.947800
v -1.825100 -9.174100 3.759901
v -2.008000 -6.651200 3.947800
v 2.008000 -6.651200 3.947799
v 2.008000 -6.651200 3.947799
v 1.825100 -9.174100 3.759900
v -1.825100 -9.174100 3.759901
v 0.000002 1.581100 13.109600
v 0.000002 -1.024800 12.819301
v 2.008002 3.281700 8.020000
v 2.008001 -5.389800 6.099800
v 2.008002 3.281700 8.020000
v 0.000002 -1.024800 12.819301
v 0.000002 -1.024800 12.819301
v 0.000001 -6.995200 9.844999
v 2.008001 -5.389800 6.099800
v -1.424898 42.337303 0.000000
v -1.424898 47.480602 -1.188200
v 0.000001 47.692902 -5.026200
v 0.000002 51.818802 -1.881200
v 0.000001 47.692902 -5.026200
v -1.424898 47.480602 -1.188200
v -1.424898 47.480602 -1.188200
v -1.424898 48.485802 0.000000
v 0.000002 51.818802 -1.881200
v -0.000002 1.581100 -13.109600
v -0.000002 -1.024800 -12.819301
v -2.008001 3.281700 -8.020000
v -2.008001 -5.389800 -6.099800
v -2.008001 3.281700 -8.020000
v -0.000002 -1.024800 -12.819301
v -0.000002 -1.024800 -12.819301
v -0.000002 -6.995200 -9.844999
v -2.008001 -5.389800 -6.099800
v -0.000000 -3.972200 -1.476100
v -0.000001 -6.731700 -2.759500
v -1.390700 -3.972200 0.000000
v -1.744500 -9.510800 0.000000
v -1.390700 -3.972200 0.000000
v -0.000001 -6.731700 -2.759500
v -0.000001 -6.731700 -2.759500
v -0.000001 -9.371700 -2.339900
v -1.744500 -9.510800 0.000000
v -1.744500 -9.510800 0.000000
v 0.000000 -14.246599 4.723700
v -1.825100 -9.174100 3.759901
v 0.000001 -10.872200 7.646700
v -1.825100 -9.174100 3.759901
v 0.000000 -14.246599 4.723700
v 0.000000 -14.246599 4.723700
v 1.825100 -9.174100 3.759900
v 0.000001 -10.872200 7.646700
vt 0.563829 0.897391
vt 0.516585 0.960383
vt 0.406349 0.991879
vt 0.516585 0.960383
vt 0.571703 0.991879
vt 0.406349 0.991879
vt 0.115010 0.928887
vt 0.091388 0.991879
vt 0.059892 0.850147
vt 0.004774 0.991879
vt 0.059892 0.850147
vt 0.091388 0.991879
vt 0.949656 0.046997
vt 0.996900 0.109989
vt 0.831546 0.015501
vt 0.996900 0.015501
vt 0.949656 0.046997
vt 0.831546 0.015501
vt 0.996900 0.818651
vt 0.996900 0.991879
vt 0.910286 0.771407
vt 0.886664 0.881643
vt 0.910286 0.771407
vt 0.996900 0.991879
vt 0.225246 0.991879
vt 0.170128 0.850147
vt 0.138632 0.991879
vt 0.170128 0.850147
vt 0.115010 0.928887
vt 0.138632 0.991879
vt 0.933908 0.409203
vt 0.981152 0.314714
vt 0.941782 0.235973
vt 0.886664 0.346210
vt 0.933908 0.409203
vt 0.941782 0.235973
vt 0.280365 0.708414
vt 0.311861 0.771407
vt 0.351231 0.692667
vt 0.296113 0.582430
vt 0.280365 0.708414
vt 0.351231 0.692667
vt 0.886664 0.661170
vt 0.910286 0.771407
vt 0.996900 0.566682
vt 0.910286 0.771407
vt 0.996900 0.724162
vt 0.996900 0.566682
vt 0.296113 0.141486
vt 0.185876 0.141486
vt 0.185876 0.361959
vt 0.185876 0.141486
vt 0.296113 0.141486
vt 0.185876 0.361959
vt 0.296113 0.361959
vt 0.296113 0.141486
vt 0.185876 0.361959
vt 0.296113 0.141486
vt 0.296113 0.361959
vt 0.185876 0.361959
vt 0.193750 0.865896
vt 0.240994 0.724162
vt 0.240994 0.865896
vt 0.933908 0.409203
vt 0.784302 0.409203
vt 0.815798 0.346210
vt 0.729183 0.377706
vt 0.705561 0.377706
vt 0.705561 0.346210
vt 0.075640 0.015501
vt 0.075640 0.109989
vt 0.004774 0.062746
vt 0.429971 0.409203
vt 0.492963 0.550934
vt 0.429971 0.550934
vt 0.516585 0.535187
vt 0.516585 0.424950
vt 0.595325 0.487943
vt 0.500837 0.109989
vt 0.500837 0.015501
vt 0.571703 0.062746
vt 0.823672 0.125737
vt 0.910286 0.125737
vt 0.776428 0.188729
vt 0.004774 0.519439
vt 0.044144 0.598179
vt 0.004774 0.834399
vt 0.004774 0.314714
vt 0.044144 0.550934
vt 0.004774 0.472194
vt 0.933908 0.409203
vt 0.981152 0.503690
vt 0.941782 0.582430
vt 0.429971 0.550934
vt 0.492963 0.409203
vt 0.429971 0.409203
vt 0.516585 0.424950
vt 0.516585 0.535187
vt 0.595325 0.487943
vt 0.524459 0.661170
vt 0.508711 0.771407
vt 0.429971 0.598179
vt 0.941782 0.188729
vt 0.776428 0.188729
vt 0.910286 0.251722
vt 0.689813 0.015501
vt 0.776428 0.188729
vt 0.768554 0.015501
vt 0.311861 0.771407
vt 0.233120 0.928887
vt 0.303987 0.944636
vt 0.933908 0.409203
vt 0.815798 0.472194
vt 0.886664 0.472194
vt 0.524459 0.865896
vt 0.508711 0.771407
vt 0.429971 0.944636
vt 0.996900 0.724162
vt 0.910286 0.771407
vt 0.996900 0.566682
vt 0.886664 0.661170
vt 0.996900 0.566682
vt 0.910286 0.771407
vt 0.910286 0.771407
vt 0.792176 0.692667
vt 0.886664 0.661170
vt 0.910286 0.771407
vt 0.886664 0.661170
vt 0.792176 0.692667
vt 0.792176 0.692667
vt 0.729183 0.771407
vt 0.910286 0.771407
vt 0.792176 0.850147
vt 0.910286 0.771407
vt 0.729183 0.771407
vt 0.729183 0.771407
vt 0.666191 0.850147
vt 0.792176 0.850147
vt 0.729183 0.771407
vt 0.792176 0.850147
vt 0.666191 0.850147
vt 0.666191 0.850147
vt 0.508711 0.771407
vt 0.729183 0.771407
vt 0.666191 0.692667
vt 0.729183 0.771407
vt 0.508711 0.771407
vt 0.508711 0.771407
vt 0.524459 0.661170
vt 0.666191 0.692667
vt 0.508711 0.771407
vt 0.666191 0.692667
vt 0.524459 0.661170
vt 0.524459 0.661170
vt 0.429971 0.598179
vt 0.508711 0.771407
vt 0.429971 0.739910
vt 0.508711 0.771407
vt 0.429971 0.598179
vt 0.429971 0.598179
vt 0.351231 0.692667
vt 0.429971 0.739910
vt 0.406349 0.771407
vt 0.429971 0.739910
vt 0.351231 0.692667
vt 0.351231 0.692667
vt 0.311861 0.771407
vt 0.406349 0.771407
vt 0.351231 0.850147
vt 0.406349 0.771407
vt 0.311861 0.771407
vt 0.311861 0.771407
vt 0.303987 0.944636
vt 0.351231 0.850147
vt 0.311861 0.771407
vt 0.351231 0.850147
vt 0.303987 0.944636
vt 0.303987 0.944636
vt 0.233120 0.928887
vt 0.311861 0.771407
vt 0.296113 0.582430
vt 0.351231 0.692667
vt 0.280365 0.708414
vt 0.311861 0.771407
vt 0.280365 0.708414
vt 0.351231 0.692667
vt 0.351231 0.692667
vt 0.406349 0.771407
vt 0.311861 0.771407
vt 0.351231 0.850147
vt 0.311861 0.771407
vt 0.406349 0.771407
vt 0.406349 0.771407
vt 0.429971 0.802903
vt 0.351231 0.850147
vt 0.429971 0.944636
vt 0.351231 0.850147
vt 0.429971 0.802903
vt 0.429971 0.802903
vt 0.508711 0.771407
vt 0.429971 0.944636
vt 0.524459 0.865896
vt 0.429971 0.944636
vt 0.508711 0.771407
vt 0.508711 0.771407
vt 0.666191 0.850147
vt 0.524459 0.865896
vt 0.508711 0.771407
vt 0.524459 0.865896
vt 0.666191 0.850147
vt 0.666191 0.850147
vt 0.729183 0.771407
vt 0.508711 0.771407
vt 0.666191 0.692667
vt 0.508711 0.771407
vt 0.729183 0.771407
vt 0.729183 0.771407
vt 0.792176 0.692667
vt 0.666191 0.692667
vt 0.729183 0.771407
vt 0.666191 0.692667
vt 0.792176 0.692667
vt 0.792176 0.692667
vt 0.910286 0.771407
vt 0.729183 0.771407
vt 0.792176 0.850147
vt 0.729183 0.771407
vt 0.910286 0.771407
vt 0.910286 0.771407
vt 0.886664 0.881643
vt 0.792176 0.850147
vt 0.910286 0.771407
vt 0.792176 0.850147
vt 0.886664 0.881643
vt 0.886664 0.881643
vt 0.996900 0.991879
vt 0.910286 0.771407
vt 0.996900 0.818651
vt 0.910286 0.771407
vt 0.996900 0.991879
vt 0.162254 0.188729
vt 0.170128 0.283219
vt 0.115010 0.188729
vt 0.115010 0.377706
vt 0.115010 0.188729
vt 0.170128 0.283219
vt 0.170128 0.283219
vt 0.154380 0.377706
vt 0.115010 0.377706
vt 0.154380 0.629674
vt 0.115010 0.377706
vt 0.154380 0.377706
vt 0.154380 0.377706
vt 0.115010 0.377706
vt 0.154380 0.629674
vt 0.115010 0.629674
vt 0.154380 0.629674
vt 0.115010 0.377706
vt 0.115010 0.377706
vt 0.075640 0.629674
vt 0.115010 0.629674
vt 0.059892 0.850147
vt 0.115010 0.629674
vt 0.075640 0.629674
vt 0.075640 0.629674
vt 0.115010 0.629674
vt 0.059892 0.850147
vt 0.115010 0.928887
vt 0.059892 0.850147
vt 0.115010 0.629674
vt 0.115010 0.629674
vt 0.170128 0.850147
vt 0.115010 0.928887
vt 0.138632 0.991879
vt 0.115010 0.928887
vt 0.170128 0.850147
vt 0.170128 0.850147
vt 0.225246 0.991879
vt 0.138632 0.991879
vt 0.067766 0.188729
vt 0.059892 0.283219
vt 0.115010 0.188729
vt 0.115010 0.377706
vt 0.115010 0.188729
vt 0.059892 0.283219
vt 0.059892 0.283219
vt 0.075640 0.377706
vt 0.115010 0.377706
vt 0.075640 0.629674
vt 0.115010 0.377706
vt 0.075640 0.377706
vt 0.075640 0.377706
vt 0.115010 0.377706
vt 0.075640 0.629674
vt 0.115010 0.629674
vt 0.075640 0.629674
vt 0.115010 0.377706
vt 0.115010 0.377706
vt 0.154380 0.629674
vt 0.115010 0.629674
vt 0.170128 0.850147
vt 0.115010 0.629674
vt 0.154380 0.629674
vt 0.154380 0.629674
vt 0.115010 0.629674
vt 0.170128 0.850147
vt 0.115010 0.928887
vt 0.170128 0.850147
vt 0.115010 0.629674
vt 0.115010 0.629674
vt 0.059892 0.850147
vt 0.115010 0.928887
vt 0.091388 0.991879
vt 0.115010 0.928887
vt 0.059892 0.850147
vt 0.059892 0.850147
vt 0.004774 0.991879
vt 0.091388 0.991879
vt 0.981152 0.314714
vt 0.933908 0.409203
vt 0.941782 0.235973
vt 0.886664 0.346210
vt 0.941782 0.235973
vt 0.933908 0.409203
vt 0.933908 0.409203
vt 0.815798 0.346210
vt 0.886664 0.346210
vt 0.933908 0.409203
vt 0.886664 0.346210
vt 0.815798 0.346210
vt 0.815798 0.346210
vt 0.784302 0.409203
vt 0.933908 0.409203
vt 0.815798 0.472194
vt 0.933908 0.409203
vt 0.784302 0.409203
vt 0.784302 0.409203
vt 0.933908 0.409203
vt 0.815798 0.472194
vt 0.886664 0.472194
vt 0.815798 0.472194
vt 0.933908 0.409203
vt 0.933908 0.409203
vt 0.941782 0.582430
vt 0.886664 0.472194
vt 0.933908 0.409203
vt 0.886664 0.472194
vt 0.941782 0.582430
vt 0.941782 0.582430
vt 0.981152 0.503690
vt 0.933908 0.409203
vt 0.689813 0.015501
vt 0.768554 0.015501
vt 0.776428 0.188729
vt 0.823672 0.125737
vt 0.776428 0.188729
vt 0.768554 0.015501
vt 0.768554 0.015501
vt 0.776428 0.188729
vt 0.823672 0.125737
vt 0.910286 0.125737
vt 0.823672 0.125737
vt 0.776428 0.188729
vt 0.776428 0.188729
vt 0.941782 0.188729
vt 0.910286 0.125737
vt 0.776428 0.188729
vt 0.910286 0.125737
vt 0.941782 0.188729
vt 0.941782 0.188729
vt 0.910286 0.251722
vt 0.776428 0.188729
vt 0.823672 0.251722
vt 0.776428 0.188729
vt 0.910286 0.251722
vt 0.910286 0.251722
vt 0.776428 0.188729
vt 0.823672 0.251722
vt 0.744931 0.251722
vt 0.823672 0.251722
vt 0.776428 0.188729
vt 0.634695 0.661170
vt 0.618947 0.472194
vt 0.705561 0.629674
vt 0.674065 0.456446
vt 0.705561 0.629674
vt 0.618947 0.472194
vt 0.618947 0.472194
vt 0.705561 0.629674
vt 0.674065 0.456446
vt 0.705561 0.487943
vt 0.674065 0.456446
vt 0.705561 0.629674
vt 0.705561 0.629674
vt 0.737057 0.456446
vt 0.705561 0.487943
vt 0.729183 0.377706
vt 0.705561 0.487943
vt 0.737057 0.456446
vt 0.737057 0.456446
vt 0.705561 0.487943
vt 0.729183 0.377706
vt 0.705561 0.377706
vt 0.729183 0.377706
vt 0.705561 0.487943
vt 0.705561 0.487943
vt 0.681939 0.377706
vt 0.705561 0.377706
vt 0.705561 0.346210
vt 0.705561 0.377706
vt 0.681939 0.377706
vt 0.366979 0.141486
vt 0.398475 0.204477
vt 0.327609 0.157233
vt 0.327609 0.377706
vt 0.327609 0.157233
vt 0.398475 0.204477
vt 0.398475 0.204477
vt 0.390601 0.346210
vt 0.327609 0.377706
vt 0.398475 0.204477
vt 0.327609 0.377706
vt 0.390601 0.346210
vt 0.390601 0.346210
vt 0.500837 0.377706
vt 0.398475 0.204477
vt 0.548081 0.188729
vt 0.398475 0.204477
vt 0.500837 0.377706
vt 0.500837 0.377706
vt 0.540207 0.377706
vt 0.548081 0.188729
vt 0.626821 0.393454
vt 0.548081 0.188729
vt 0.540207 0.377706
vt 0.540207 0.377706
vt 0.548081 0.188729
vt 0.626821 0.393454
vt 0.571703 0.141486
vt 0.626821 0.393454
vt 0.548081 0.188729
vt 0.366979 0.141486
vt 0.398475 0.204477
vt 0.327609 0.157233
vt 0.327609 0.377706
vt 0.327609 0.157233
vt 0.398475 0.204477
vt 0.398475 0.204477
vt 0.390601 0.346210
vt 0.327609 0.377706
vt 0.398475 0.204477
vt 0.327609 0.377706
vt 0.390601 0.346210
vt 0.390601 0.346210
vt 0.500837 0.377706
vt 0.398475 0.204477
vt 0.548081 0.188729
vt 0.398475 0.204477
vt 0.500837 0.377706
vt 0.500837 0.377706
vt 0.540207 0.377706
vt 0.548081 0.188729
vt 0.626821 0.393454
vt 0.548081 0.188729
vt 0.540207 0.377706
vt 0.540207 0.377706
vt 0.548081 0.188729
vt 0.626821 0.393454
vt 0.571703 0.141486
vt 0.626821 0.393454
vt 0.548081 0.188729
vt 0.776428 0.661170
vt 0.792176 0.472194
vt 0.705561 0.629674
vt 0.737057 0.456446
vt 0.705561 0.629674
vt 0.792176 0.472194
vt 0.792176 0.472194
vt 0.705561 0.629674
vt 0.737057 0.456446
vt 0.705561 0.487943
vt 0.737057 0.456446
vt 0.705561 0.629674
vt 0.705561 0.629674
vt 0.674065 0.456446
vt 0.705561 0.487943
vt 0.681939 0.377706
vt 0.705561 0.487943
vt 0.674065 0.456446
vt 0.674065 0.456446
vt 0.705561 0.487943
vt 0.681939 0.377706
vt 0.705561 0.377706
vt 0.681939 0.377706
vt 0.705561 0.487943
vt 0.705561 0.487943
vt 0.729183 0.377706
vt 0.705561 0.377706
vt 0.705561 0.991879
vt 0.666191 0.991879
vt 0.666191 0.897391
vt 0.587451 0.897391
vt 0.666191 0.897391
vt 0.666191 0.991879
vt 0.666191 0.991879
vt 0.587451 0.991879
vt 0.587451 0.897391
vt 0.666191 0.897391
vt 0.587451 0.897391
vt 0.587451 0.991879
vt 0.587451 0.991879
vt 0.666191 0.991879
vt 0.666191 0.897391
vt 0.705561 0.897391
vt 0.666191 0.897391
vt 0.666191 0.991879
vt 0.666191 0.991879
vt 0.705561 0.991879
vt 0.705561 0.897391
vt 0.666191 0.897391
vt 0.705561 0.897391
vt 0.705561 0.991879
vt 0.548081 0.188729
vt 0.626821 0.393454
vt 0.571703 0.141486
vt 0.650443 0.204477
vt 0.571703 0.141486
vt 0.626821 0.393454
vt 0.626821 0.393454
vt 0.571703 0.141486
vt 0.650443 0.204477
vt 0.681939 0.172982
vt 0.650443 0.204477
vt 0.571703 0.141486
vt 0.571703 0.141486
vt 0.595325 0.031249
vt 0.681939 0.172982
vt 0.721309 0.172982
vt 0.681939 0.172982
vt 0.595325 0.031249
vt 0.595325 0.031249
vt 0.626821 0.015501
vt 0.721309 0.172982
vt 0.713435 0.109989
vt 0.721309 0.172982
vt 0.626821 0.015501
vt 0.721309 0.897391
vt 0.815798 0.897391
vt 0.815798 0.991879
vt 0.847294 0.991879
vt 0.815798 0.991879
vt 0.815798 0.897391
vt 0.815798 0.897391
vt 0.847294 0.897391
vt 0.847294 0.991879
vt 0.815798 0.991879
vt 0.847294 0.991879
vt 0.847294 0.897391
vt 0.847294 0.897391
vt 0.815798 0.897391
vt 0.815798 0.991879
vt 0.721309 0.991879
vt 0.815798 0.991879
vt 0.815798 0.897391
vt 0.815798 0.897391
vt 0.721309 0.897391
vt 0.721309 0.991879
vt 0.815798 0.991879
vt 0.721309 0.991879
vt 0.721309 0.897391
vt 0.713435 0.109989
vt 0.721309 0.172982
vt 0.626821 0.015501
vt 0.595325 0.031249
vt 0.626821 0.015501
vt 0.721309 0.172982
vt 0.721309 0.172982
vt 0.681939 0.172982
vt 0.595325 0.031249
vt 0.571703 0.141486
vt 0.595325 0.031249
vt 0.681939 0.172982
vt 0.681939 0.172982
vt 0.650443 0.204477
vt 0.571703 0.141486
vt 0.626821 0.393454
vt 0.571703 0.141486
vt 0.650443 0.204477
vt 0.650443 0.204477
vt 0.571703 0.141486
vt 0.626821 0.393454
vt 0.548081 0.188729
vt 0.626821 0.393454
vt 0.571703 0.141486
vt 0.453593 0.015501
vt 0.351231 0.109989
vt 0.351231 0.015501
vt 0.288239 0.015501
vt 0.351231 0.015501
vt 0.351231 0.109989
vt 0.351231 0.109989
vt 0.288239 0.109989
vt 0.288239 0.015501
vt 0.225246 0.015501
vt 0.288239 0.015501
vt 0.288239 0.109989
vt 0.288239 0.109989
vt 0.225246 0.109989
vt 0.225246 0.015501
vt 0.115010 0.109989
vt 0.225246 0.015501
vt 0.225246 0.109989
vt 0.429971 0.550934
vt 0.398475 0.550934
vt 0.429971 0.409203
vt 0.398475 0.409203
vt 0.429971 0.409203
vt 0.398475 0.550934
vt 0.398475 0.550934
vt 0.256743 0.550934
vt 0.398475 0.409203
vt 0.256743 0.409203
vt 0.398475 0.409203
vt 0.256743 0.550934
vt 0.256743 0.550934
vt 0.217372 0.409203
vt 0.256743 0.409203
vt 0.650443 0.204477
vt 0.681939 0.172982
vt 0.571703 0.141486
vt 0.595325 0.031249
vt 0.571703 0.141486
vt 0.681939 0.172982
vt 0.681939 0.172982
vt 0.721309 0.172982
vt 0.595325 0.031249
vt 0.626821 0.015501
vt 0.595325 0.031249
vt 0.721309 0.172982
vt 0.721309 0.172982
vt 0.713435 0.109989
vt 0.626821 0.015501
vt 0.429971 0.409203
vt 0.398475 0.409203
vt 0.429971 0.550934
vt 0.398475 0.550934
vt 0.429971 0.550934
vt 0.398475 0.409203
vt 0.398475 0.409203
vt 0.256743 0.409203
vt 0.398475 0.550934
vt 0.256743 0.550934
vt 0.398475 0.550934
vt 0.256743 0.409203
vt 0.256743 0.409203
vt 0.217372 0.550934
vt 0.256743 0.550934
vt 0.650443 0.204477
vt 0.681939 0.172982
vt 0.571703 0.141486
vt 0.595325 0.031249
vt 0.571703 0.141486
vt 0.681939 0.172982
vt 0.681939 0.172982
vt 0.721309 0.172982
vt 0.595325 0.031249
vt 0.626821 0.015501
vt 0.595325 0.031249
vt 0.721309 0.172982
vt 0.721309 0.172982
vt 0.713435 0.109989
vt 0.626821 0.015501
vt 0.366979 0.141486
vt 0.327609 0.157233
vt 0.398475 0.204477
vt 0.327609 0.377706
vt 0.398475 0.204477
vt 0.327609 0.157233
vt 0.327609 0.157233
vt 0.311861 0.314714
vt 0.327609 0.377706
vt 0.327609 0.157233
vt 0.327609 0.377706
vt 0.311861 0.314714
vt 0.327609 0.157233
vt 0.327609 0.377706
vt 0.311861 0.314714
vt 0.327609 0.157233
vt 0.311861 0.314714
vt 0.327609 0.377706
vt 0.327609 0.377706
vt 0.398475 0.204477
vt 0.327609 0.157233
vt 0.366979 0.141486
vt 0.327609 0.157233
vt 0.398475 0.204477
vt 0.193750 0.865896
vt 0.193750 0.724162
vt 0.240994 0.724162
vt 0.240994 0.582430
vt 0.240994 0.724162
vt 0.193750 0.724162
vt 0.193750 0.724162
vt 0.193750 0.582430
vt 0.240994 0.582430
vt 0.004774 0.834399
vt 0.044144 0.598179
vt 0.044144 0.755659
vt 0.004774 0.834399
vt 0.044144 0.755659
vt 0.044144 0.598179
vt 0.044144 0.598179
vt 0.004774 0.519439
vt 0.004774 0.834399
vt 0.705561 0.629674
vt 0.792176 0.472194
vt 0.776428 0.661170
vt 0.839420 0.598179
vt 0.776428 0.661170
vt 0.792176 0.472194
vt 0.792176 0.472194
vt 0.776428 0.661170
vt 0.839420 0.598179
vt 0.508711 0.771407
vt 0.429971 0.739910
vt 0.429971 0.598179
vt 0.351231 0.692667
vt 0.429971 0.598179
vt 0.429971 0.739910
vt 0.429971 0.739910
vt 0.406349 0.771407
vt 0.351231 0.692667
vt 0.075640 0.015501
vt 0.115010 0.015501
vt 0.075640 0.109989
vt 0.115010 0.109989
vt 0.075640 0.109989
vt 0.115010 0.015501
vt 0.115010 0.015501
vt 0.225246 0.015501
vt 0.115010 0.109989
vt 0.516585 0.535187
vt 0.492963 0.550934
vt 0.516585 0.424950
vt 0.492963 0.409203
vt 0.516585 0.424950
vt 0.492963 0.550934
vt 0.492963 0.550934
vt 0.429971 0.409203
vt 0.492963 0.409203
vt 0.075640 0.377706
vt 0.059892 0.283219
vt 0.115010 0.377706
vt 0.115010 0.188729
vt 0.115010 0.377706
vt 0.059892 0.283219
vt 0.059892 0.283219
vt 0.067766 0.188729
vt 0.115010 0.188729
vt 0.256743 0.550934
vt 0.217372 0.550934
vt 0.217372 0.409203
vt 0.170128 0.409203
vt 0.217372 0.409203
vt 0.217372 0.550934
vt 0.217372 0.550934
vt 0.170128 0.550934
vt 0.170128 0.409203
vt 0.776428 0.188729
vt 0.823672 0.251722
vt 0.744931 0.251722
vt 0.752806 0.393454
vt 0.744931 0.251722
vt 0.823672 0.251722
vt 0.823672 0.251722
vt 0.744931 0.251722
vt 0.752806 0.393454
vt 0.500837 0.109989
vt 0.453593 0.109989
vt 0.500837 0.015501
vt 0.453593 0.015501
vt 0.500837 0.015501
vt 0.453593 0.109989
vt 0.453593 0.109989
vt 0.351231 0.109989
vt 0.453593 0.015501
vt 0.044144 0.550934
vt 0.004774 0.314714
vt 0.044144 0.235973
vt 0.044144 0.550934
vt 0.044144 0.235973
vt 0.004774 0.314714
vt 0.004774 0.314714
vt 0.004774 0.472194
vt 0.044144 0.550934
vt 0.516585 0.424950
vt 0.492963 0.409203
vt 0.516585 0.535187
vt 0.492963 0.550934
vt 0.516585 0.535187
vt 0.492963 0.409203
vt 0.492963 0.409203
vt 0.429971 0.550934
vt 0.492963 0.550934
vt 0.256743 0.409203
vt 0.217372 0.409203
vt 0.217372 0.550934
vt 0.170128 0.550934
vt 0.217372 0.550934
vt 0.217372 0.409203
vt 0.217372 0.409203
vt 0.170128 0.409203
vt 0.170128 0.550934
vt 0.540207 0.377706
vt 0.500837 0.377706
vt 0.548081 0.188729
vt 0.398475 0.204477
vt 0.548081 0.188729
vt 0.500837 0.377706
vt 0.500837 0.377706
vt 0.390601 0.346210
vt 0.398475 0.204477
vt 0.508711 0.771407
vt 0.429971 0.802903
vt 0.429971 0.944636
vt 0.351231 0.850147
vt 0.429971 0.944636
vt 0.429971 0.802903
vt 0.429971 0.802903
vt 0.406349 0.771407
vt 0.351231 0.850147
vt 0.540207 0.377706
vt 0.500837 0.377706
vt 0.548081 0.188729
vt 0.398475 0.204477
vt 0.548081 0.188729
vt 0.500837 0.377706
vt 0.500837 0.377706
vt 0.390601 0.346210
vt 0.398475 0.204477
vt 0.154380 0.377706
vt 0.170128 0.283219
vt 0.115010 0.377706
vt 0.115010 0.188729
vt 0.115010 0.377706
vt 0.170128 0.283219
vt 0.170128 0.283219
vt 0.162254 0.188729
vt 0.115010 0.188729
vt 0.705561 0.629674
vt 0.618947 0.472194
vt 0.634695 0.661170
vt 0.571703 0.598179
vt 0.634695 0.661170
vt 0.618947 0.472194
vt 0.618947 0.472194
vt 0.634695 0.661170
vt 0.571703 0.598179
vn 0.0005 -0.7069 -0.7073
vn -0.0005 -0.7069 -0.7073
vn 0.8878 -0.3254 0.3254
vn 0.8845 -0.3194 0.3401
vn 0.0000 0.7071 -0.7071
vn 0.9162 0.1913 -0.3521
vn 0.8641 0.2946 -0.4081
vn -0.8845 -0.3194 -0.3401
vn -0.8878 -0.3254 -0.3254
vn -0.9002 0.3080 -0.3080
vn -0.9004 0.3079 -0.3074
vn -0.9021 -0.3037 0.3067
vn -0.9029 -0.3044 0.3034
vn -0.8641 0.2946 0.4081
vn -0.9162 0.1913 0.3521
vn -1.0000 0.0000 0.0000
vn 1.0000 -0.0000 -0.0000
vn 0.0000 0.9960 0.0892
vn 0.9755 0.1454 -0.1652
vn -0.0000 -0.8996 -0.4367
vn -0.0000 1.0000 -0.0017
vn 0.0000 -0.7882 0.6155
vn 0.0000 0.6632 0.7484
vn 0.0000 -1.0000 -0.0006
vn 0.7902 -0.0000 -0.6128
vn 0.9777 0.2099 0.0000
vn 0.8837 -0.3317 0.3302
vn 0.9004 -0.3077 -0.3077
vn 0.0000 -0.7882 -0.6155
vn 0.0000 0.6632 -0.7484
vn 0.8950 -0.1546 0.4185
vn -0.9796 0.1297 0.1532
vn -0.9005 -0.3077 -0.3072
vn -0.7816 -0.6238 -0.0000
vn -0.8950 -0.1546 -0.4185
vn 0.9162 0.1913 0.3521
vn 0.8641 0.2946 0.4081
vn 0.8599 0.1037 0.4999
vn -0.8599 0.1037 0.4999
vn -0.7027 0.0177 0.7113
vn -0.7027 0.0177 -0.7113
vn -0.7263 0.0000 -0.6874
vn 0.7263 -0.0000 -0.6874
vn 0.7263 -0.0000 0.6874
vn 0.8928 -0.0668 0.4454
vn -0.8928 -0.0668 0.4454
vn -0.8950 -0.1546 0.4185
vn -0.9329 -0.0811 0.3508
vn -0.9124 0.2490 0.3249
vn -0.9346 0.2716 0.2298
vn -0.7974 0.0003 0.6035
vn -0.7969 -0.0003 -0.6041
vn -0.9010 -0.3062 -0.3072
vn 0.9010 -0.3062 -0.3072
vn 0.9005 -0.3077 -0.3072
vn 0.9029 -0.3044 0.3034
vn 0.9021 -0.3037 0.3067
vn 0.7974 0.0003 0.6035
vn 0.7969 -0.0003 -0.6041
vn 0.9351 0.2706 -0.2289
vn 0.9126 0.2478 -0.3251
vn 0.9329 -0.0811 -0.3508
vn 0.8950 -0.1546 -0.4185
vn 0.8928 -0.0668 -0.4454
vn -0.8928 -0.0668 -0.4454
vn -0.7263 0.0000 0.6874
vn 0.7027 0.0177 0.7113
vn 0.7027 0.0177 -0.7113
vn 0.8599 0.1037 -0.4999
vn -0.8599 0.1037 -0.4999
vn -0.8641 0.2946 -0.4081
vn -0.9162 0.1913 -0.3521
vn 0.7954 -0.0951 -0.5986
vn 0.8682 0.0555 -0.4930
vn 0.6934 0.3038 -0.6533
vn 0.7276 -0.0244 -0.6855
vn -0.7276 -0.0244 -0.6855
vn -0.7802 0.0000 -0.6255
vn -0.7802 0.0000 0.6255
vn -0.7750 -0.1160 0.6213
vn 0.7750 -0.1160 0.6213
vn 0.8486 -0.0576 0.5260
vn 0.8486 -0.0576 -0.5260
vn 0.8878 -0.3254 -0.3254
vn 0.8845 -0.3194 -0.3401
vn -0.7954 -0.0951 0.5986
vn -0.8682 0.0555 0.4930
vn -0.6934 0.3038 0.6533
vn -0.7276 -0.0244 0.6855
vn 0.7276 -0.0244 0.6855
vn 0.7802 -0.0000 0.6255
vn 0.7802 -0.0000 -0.6255
vn 0.7750 -0.1160 -0.6213
vn -0.7750 -0.1160 -0.6213
vn -0.8486 -0.0576 -0.5260
vn -0.8486 -0.0576 0.5260
vn -0.8878 -0.3254 0.3254
vn -0.8845 -0.3194 0.3401
vn 0.9002 0.3080 -0.3080
vn 0.9004 0.3079 -0.3074
vn 0.7820 0.6233 0.0000
vn -0.7820 0.6233 -0.0000
vn -0.9755 0.1454 -0.1652
vn -0.9755 -0.1456 -0.1652
vn 0.9755 -0.1456 -0.1652
vn 0.7816 -0.6238 0.0000
vn 0.9003 -0.3077 -0.3079
vn -0.9003 -0.3077 -0.3079
vn -0.9004 -0.3077 -0.3077
vn 0.9005 0.3076 -0.3074
vn -0.9005 0.3076 -0.3074
vn -0.7902 0.0000 -0.6128
vn -0.9796 0.1297 -0.1533
vn 0.9796 0.1297 -0.1533
vn 0.9796 0.1297 0.1532
vn 0.7910 -0.0000 0.6118
vn -0.7910 0.0000 0.6118
vn -0.9007 0.3080 0.3063
vn 0.9415 -0.3369 0.0100
vn 0.9491 -0.3127 0.0371
vn -0.9491 -0.3127 0.0371
vn -0.5118 0.0000 0.8591
vn -0.5119 0.0000 -0.8591
vn -0.5517 -0.1440 -0.8215
vn 0.5517 -0.1440 -0.8215
vn 0.5704 -0.1590 -0.8058
vn 0.5704 -0.1590 0.8058
vn 0.0000 -0.8996 0.4367
vn 0.9962 -0.0755 0.0443
vn 0.9585 -0.1820 0.2194
vn 0.8680 0.0632 0.4925
vn -0.8680 0.0632 0.4925
vn -0.8967 -0.1974 0.3962
vn -0.9416 -0.0728 0.3287
vn -0.9339 -0.0396 0.3552
vn -0.9357 -0.1511 0.3187
vn 0.9357 -0.1511 0.3187
vn 0.9687 0.0961 0.2289
vn -0.9962 -0.0755 -0.0443
vn -0.9585 -0.1820 -0.2194
vn -0.8680 0.0632 -0.4925
vn 0.8680 0.0632 -0.4925
vn 0.8967 -0.1974 -0.3962
vn 0.9416 -0.0728 -0.3287
vn 0.9339 -0.0396 -0.3552
vn 0.9357 -0.1511 -0.3187
vn -0.9357 -0.1511 -0.3187
vn -0.9687 0.0961 -0.2289
vn -0.9415 -0.3369 -0.0100
vn -0.9491 -0.3127 -0.0371
vn 0.9491 -0.3127 -0.0371
vn 0.5118 -0.0000 -0.8591
vn 0.5119 -0.0000 0.8591
vn 0.5517 -0.1440 0.8215
vn -0.5517 -0.1440 0.8215
vn -0.5704 -0.1590 0.8058
vn -0.5704 -0.1590 -0.8058
vn 0.0000 0.7071 0.7071
vn 0.0000 -0.3442 0.9389
vn -0.0000 -0.3442 -0.9389
vn 0.9687 0.0961 -0.2289
vn 0.9233 0.3383 -0.1818
vn -0.9233 0.3383 -0.1818
vn -0.9053 0.1754 -0.3869
vn -0.9456 0.2564 -0.2002
vn -0.8682 -0.1528 -0.4722
vn -0.9496 0.3133 -0.0077
vn -0.9468 0.3219 -0.0004
vn 0.0000 0.2251 0.9743
vn 0.0000 -0.7634 0.6459
vn -0.0000 -0.7634 -0.6459
vn -0.0000 -0.7635 -0.6459
vn -0.0000 0.2251 -0.9743
vn 0.9468 0.3219 0.0004
vn 0.9496 0.3133 0.0077
vn 0.8682 -0.1528 0.4722
vn 0.9456 0.2564 0.2002
vn 0.9053 0.1754 0.3869
vn 0.9233 0.3383 0.1818
vn -0.9233 0.3383 0.1818
vn -0.9687 0.0961 0.2289
vn 0.0000 -0.7071 0.7071
vn 0.0000 -0.3870 0.9221
vn 0.0000 0.2162 0.9763
vn 0.0000 0.8627 0.5057
vn 0.9053 0.1754 -0.3869
vn 0.9456 0.2564 -0.2002
vn 0.8682 -0.1528 -0.4722
vn 0.9496 0.3133 -0.0077
vn 0.9468 0.3219 -0.0004
vn 0.0000 -0.3870 -0.9221
vn 0.0000 0.2162 -0.9763
vn 0.0000 0.8627 -0.5057
vn -0.9053 0.1754 0.3869
vn -0.9456 0.2564 0.2002
vn -0.8682 -0.1528 0.4722
vn -0.9496 0.3133 0.0077
vn -0.9468 0.3219 0.0004
vn 0.9962 -0.0755 -0.0443
vn 0.9585 -0.1820 -0.2194
vn 0.6864 -0.7272 -0.0046
vn -0.6864 -0.7272 -0.0046
vn 0.6864 -0.7272 0.0046
vn -0.6864 -0.7272 0.0046
vn -0.9585 -0.1820 0.2194
vn -0.9962 -0.0755 0.0443
vn -0.0000 0.9960 -0.0892
vn 0.8838 0.3316 0.3300
vn -0.8838 0.3316 0.3301
vn -0.9777 0.2099 0.0000
vn 0.9415 -0.3369 -0.0100
vn 0.9117 -0.2690 -0.3106
vn -0.9117 -0.2690 -0.3106
vn 0.9329 -0.0811 0.3508
vn 0.9124 0.2490 0.3249
vn 0.9346 0.2716 0.2298
vn -0.0000 0.7036 -0.7106
vn 0.0000 0.0870 0.9962
vn 0.6934 0.3038 0.6533
vn 0.8682 0.0555 0.4930
vn 0.7954 -0.0951 0.5986
vn 0.0000 0.0743 0.9972
vn 0.9007 0.3080 0.3063
vn 0.9010 0.3081 0.3054
vn -0.9010 0.3081 0.3054
vn -0.0000 -0.7091 -0.7051
vn 0.9777 -0.2100 0.0000
vn -0.9777 -0.2100 0.0000
vn -0.8837 -0.3317 0.3302
vn 0.0000 0.0870 -0.9962
vn -0.0000 0.0743 -0.9972
vn 0.9339 -0.0396 0.3552
vn 0.9416 -0.0728 0.3287
vn 0.8967 -0.1974 0.3962
vn -0.9329 -0.0811 -0.3508
vn -0.9126 0.2478 -0.3251
vn -0.9351 0.2706 -0.2289
vn -0.9339 -0.0396 -0.3552
vn -0.9416 -0.0728 -0.3287
vn -0.8967 -0.1974 -0.3962
vn -0.6934 0.3038 -0.6533
vn -0.8682 0.0555 -0.4930
vn -0.7954 -0.0951 -0.5986
vn -0.9415 -0.3369 0.0100
vn -0.9117 -0.2690 0.3106
vn 0.9117 -0.2690 0.3106
o base
usemtl Brush.079
f 1/1/1 2/2/1 3/3/1
f 4/4/2 5/5/2 6/6/2
f 7/7/3 8/8/3 9/9/3
f 10/10/4 11/11/4 12/12/4
f 13/13/5 14/14/5 15/15/5
f 16/16/5 17/17/5 18/18/5
f 19/19/6 20/20/6 21/21/6
f 22/22/7 23/23/7 24/24/7
f 25/25/8 26/26/8 27/27/8
f 28/28/9 29/29/9 30/30/9
f 31/31/10 32/32/10 33/33/10
f 34/34/11 35/35/11 36/36/11
f 37/37/12 38/38/12 39/39/12
f 40/40/13 41/41/13 42/42/13
f 43/43/14 44/44/14 45/45/14
f 46/46/15 47/47/15 48/48/15
f 49/49/16 50/50/16 51/51/16
f 52/52/17 53/53/17 54/54/17
f 55/55/16 56/56/16 57/57/16
f 58/58/17 59/59/17 60/60/17
f 61/61/18 62/62/18 63/63/18
f 64/64/19 65/65/19 66/66/19
f 67/67/20 68/68/20 69/69/20
f 70/70/21 71/71/21 72/72/21
f 73/73/22 74/74/22 75/75/22
f 76/76/23 77/77/23 78/78/23
f 79/79/24 80/80/24 81/81/24
f 82/82/25 83/83/25 84/84/25
f 85/85/26 86/86/26 87/87/26
f 88/88/27 89/89/27 90/90/27
f 91/91/28 92/92/28 93/93/28
f 94/94/29 95/95/29 96/96/29
f 97/97/30 98/98/30 99/99/30
f 100/100/31 101/101/31 102/102/31
f 103/103/32 104/104/32 105/105/32
f 106/106/11 107/107/11 108/108/11
f 109/109/33 110/110/33 111/111/33
f 112/112/34 113/113/34 114/114/34
f 115/115/35 116/116/35 117/117/35
f 118/118/36 119/119/36 120/120/36
f 121/121/37 122/122/37 123/123/37
f 124/124/38 125/125/38 126/126/38
f 127/127/39 128/128/39 129/129/39
f 130/130/40 131/131/40 132/132/40
f 133/133/41 134/134/41 135/135/41
f 136/136/42 137/137/42 138/138/42
f 139/139/43 140/140/43 141/141/43
f 142/142/43 143/143/43 144/144/43
f 145/145/44 146/146/44 147/147/44
f 148/148/45 149/149/45 150/150/45
f 151/151/46 152/152/46 153/153/46
f 154/154/47 155/155/47 156/156/47
f 157/157/48 158/158/48 159/159/48
f 160/160/49 161/161/49 162/162/49
f 163/163/50 164/164/50 165/165/50
f 166/166/51 167/167/51 168/168/51
f 169/169/52 170/170/52 171/171/52
f 172/172/53 173/173/53 174/174/53
f 175/175/54 176/176/54 177/177/54
f 178/178/55 179/179/55 180/180/55
f 181/181/56 182/182/56 183/183/56
f 184/184/57 185/185/57 186/186/57
f 187/187/58 188/188/58 189/189/58
f 190/190/59 191/191/59 192/192/59
f 193/193/60 194/194/60 195/195/60
f 196/196/61 197/197/61 198/198/61
f 199/199/62 200/200/62 201/201/62
f 202/202/63 203/203/63 204/204/63
f 205/205/64 206/206/64 207/207/64
f 208/208/65 209/209/65 210/210/65
f 211/211/42 212/212/42 213/213/42
f 214/214/66 215/215/66 216/216/66
f 217/217/66 218/218/66 219/219/66
f 220/220/44 221/221/44 222/222/44
f 223/223/67 224/224/67 225/225/67
f 226/226/68 227/227/68 228/228/68
f 229/229/69 230/230/69 231/231/69
f 232/232/70 233/233/70 234/234/70
f 235/235/71 236/236/71 237/237/71
f 238/238/72 239/239/72 240/240/72
f 241/241/73 242/242/73 243/243/73
f 244/244/74 245/245/74 246/246/74
f 247/247/75 248/248/75 249/249/75
f 250/250/76 251/251/76 252/252/76
f 253/253/77 254/254/77 255/255/77
f 256/256/78 257/257/78 258/258/78
f 259/259/79 260/260/79 261/261/79
f 262/262/80 263/263/80 264/264/80
f 265/265/81 266/266/81 267/267/81
f 268/268/82 269/269/82 270/270/82
f 271/271/83 272/272/83 273/273/83
f 274/274/84 275/275/84 276/276/84
f 277/277/85 278/278/85 279/279/85
f 280/280/86 281/281/86 282/282/86
f 283/283/87 284/284/87 285/285/87
f 286/286/88 287/287/88 288/288/88
f 289/289/89 290/290/89 291/291/89
f 292/292/90 293/293/90 294/294/90
f 295/295/91 296/296/91 297/297/91
f 298/298/92 299/299/92 300/300/92
f 301/301/93 302/302/93 303/303/93
f 304/304/94 305/305/94 306/306/94
f 307/307/95 308/308/95 309/309/95
f 310/310/96 311/311/96 312/312/96
f 313/313/97 314/314/97 315/315/97
f 316/316/98 317/317/98 318/318/98
f 319/319/99 320/320/99 321/321/99
f 322/322/100 323/323/100 324/324/100
f 325/325/101 326/326/101 327/327/101
f 328/328/102 329/329/102 330/330/102
f 331/331/103 332/332/103 333/333/103
f 334/334/104 335/335/104 336/336/104
f 337/337/105 338/338/105 339/339/105
f 340/340/106 341/341/106 342/342/106
f 343/343/107 344/344/107 345/345/107
f 346/346/108 347/347/108 348/348/108
f 349/349/109 350/350/109 351/351/109
f 352/352/100 353/353/100 354/354/100
f 355/355/110 356/356/110 357/357/110
f 358/358/111 359/359/111 360/360/111
f 361/361/112 362/362/112 363/363/112
f 364/364/113 365/365/113 366/366/113
f 367/367/114 368/368/114 369/369/114
f 370/370/115 371/371/115 372/372/115
f 373/373/116 374/374/116 375/375/116
f 376/376/117 377/377/117 378/378/117
f 379/379/118 380/380/118 381/381/118
f 382/382/119 383/383/119 384/384/119
f 385/385/120 386/386/120 387/387/120
f 388/388/121 389/389/121 390/390/121
f 391/391/122 392/392/122 393/393/122
f 394/394/123 395/395/123 396/396/123
f 397/397/124 398/398/124 399/399/124
f 400/400/125 401/401/125 402/402/125
f 403/403/126 404/404/126 405/405/126
f 406/406/127 407/407/127 408/408/127
f 409/409/128 410/410/128 411/411/128
f 412/412/129 413/413/129 414/414/129
f 415/415/130 416/416/130 417/417/130
f 418/418/131 419/419/131 420/420/131
f 421/421/132 422/422/132 423/423/132
f 424/424/133 425/425/133 426/426/133
f 427/427/134 428/428/134 429/429/134
f 430/430/135 431/431/135 432/432/135
f 433/433/136 434/434/136 435/435/136
f 436/436/137 437/437/137 438/438/137
f 439/439/138 440/440/138 441/441/138
f 442/442/139 443/443/139 444/444/139
f 445/445/140 446/446/140 447/447/140
f 448/448/141 449/449/141 450/450/141
f 451/451/142 452/452/142 453/453/142
f 454/454/143 455/455/143 456/456/143
f 457/457/144 458/458/144 459/459/144
f 460/460/145 461/461/145 462/462/145
f 463/463/146 464/464/146 465/465/146
f 466/466/147 467/467/147 468/468/147
f 469/469/148 470/470/148 471/471/148
f 472/472/149 473/473/149 474/474/149
f 475/475/150 476/476/150 477/477/150
f 478/478/151 479/479/151 480/480/151
f 481/481/152 482/482/152 483/483/152
f 484/484/153 485/485/153 486/486/153
f 487/487/154 488/488/154 489/489/154
f 490/490/155 491/491/155 492/492/155
f 493/493/156 494/494/156 495/495/156
f 496/496/157 497/497/157 498/498/157
f 499/499/158 500/500/158 501/501/158
f 502/502/159 503/503/159 504/504/159
f 505/505/159 506/506/159 507/507/159
f 508/508/160 509/509/160 510/510/160
f 511/511/160 512/512/160 513/513/160
f 514/514/5 515/515/5 516/516/5
f 517/517/5 518/518/5 519/519/5
f 520/520/158 521/521/158 522/522/158
f 523/523/161 524/524/161 525/525/161
f 526/526/162 527/527/162 528/528/162
f 529/529/163 530/530/163 531/531/163
f 532/532/164 533/533/164 534/534/164
f 535/535/165 536/536/165 537/537/165
f 538/538/166 539/539/166 540/540/166
f 541/541/167 542/542/167 543/543/167
f 544/544/168 545/545/168 546/546/168
f 547/547/169 548/548/169 549/549/169
f 550/550/170 551/551/170 552/552/170
f 553/553/170 554/554/170 555/555/170
f 556/556/171 557/557/171 558/558/171
f 559/559/172 560/560/172 561/561/172
f 562/562/173 563/563/173 564/564/173
f 565/565/173 566/566/173 567/567/173
f 568/568/169 569/569/169 570/570/169
f 571/571/174 572/572/174 573/573/174
f 574/574/175 575/575/175 576/576/175
f 577/577/176 578/578/176 579/579/176
f 580/580/177 581/581/177 582/582/177
f 583/583/178 584/584/178 585/585/178
f 586/586/179 587/587/179 588/588/179
f 589/589/180 590/590/180 591/591/180
f 592/592/181 593/593/181 594/594/181
f 595/595/182 596/596/182 597/597/182
f 598/598/182 599/599/182 600/600/182
f 601/601/182 602/602/182 603/603/182
f 604/604/158 605/605/158 606/606/158
f 607/607/158 608/608/158 609/609/158
f 610/610/158 611/611/158 612/612/158
f 613/613/183 614/614/183 615/615/183
f 616/616/183 617/617/183 618/618/183
f 619/619/184 620/620/184 621/621/184
f 622/622/184 623/623/184 624/624/184
f 625/625/185 626/626/185 627/627/185
f 628/628/186 629/629/186 630/630/186
f 631/631/187 632/632/187 633/633/187
f 634/634/188 635/635/188 636/636/188
f 637/637/189 638/638/189 639/639/189
f 640/640/190 641/641/190 642/642/190
f 643/643/191 644/644/191 645/645/191
f 646/646/191 647/647/191 648/648/191
f 649/649/192 650/650/192 651/651/192
f 652/652/192 653/653/192 654/654/192
f 655/655/193 656/656/193 657/657/193
f 658/658/194 659/659/194 660/660/194
f 661/661/195 662/662/195 663/663/195
f 664/664/196 665/665/196 666/666/196
f 667/667/197 668/668/197 669/669/197
f 670/670/198 671/671/198 672/672/198
f 673/673/199 674/674/199 675/675/199
f 676/676/200 677/677/200 678/678/200
f 679/679/201 680/680/201 681/681/201
f 682/682/202 683/683/202 684/684/202
f 685/685/203 686/686/203 687/687/203
f 688/688/204 689/689/204 690/690/204
f 691/691/205 692/692/205 693/693/205
f 694/694/206 695/695/206 696/696/206
f 697/697/18 698/698/18 699/699/18
f 700/700/207 701/701/207 702/702/207
f 703/703/207 704/704/207 705/705/207
f 706/706/208 707/707/208 708/708/208
f 709/709/209 710/710/209 711/711/209
f 712/712/210 713/713/210 714/714/210
f 715/715/211 716/716/211 717/717/211
f 718/718/212 719/719/212 720/720/212
f 721/721/213 722/722/213 723/723/213
f 724/724/214 725/725/214 726/726/214
f 727/727/215 728/728/215 729/729/215
f 730/730/216 731/731/216 732/732/216
f 733/733/217 734/734/217 735/735/217
f 736/736/217 737/737/217 738/738/217
f 739/739/158 740/740/158 741/741/158
f 742/742/218 743/743/218 744/744/218
f 745/745/218 746/746/218 747/747/218
f 748/748/22 749/749/22 750/750/22
f 751/751/219 752/752/219 753/753/219
f 754/754/220 755/755/220 756/756/220
f 757/757/221 758/758/221 759/759/221
f 760/760/185 761/761/185 762/762/185
f 763/763/222 764/764/222 765/765/222
f 766/766/222 767/767/222 768/768/222
f 769/769/223 770/770/223 771/771/223
f 772/772/224 773/773/224 774/774/224
f 775/775/225 776/776/225 777/777/225
f 778/778/226 779/779/226 780/780/226
f 781/781/226 782/782/226 783/783/226
f 784/784/182 785/785/182 786/786/182
f 787/787/227 788/788/227 789/789/227
f 790/790/228 791/791/228 792/792/228
f 793/793/229 794/794/229 795/795/229
f 796/796/230 797/797/230 798/798/230
f 799/799/230 800/800/230 801/801/230
f 802/802/29 803/803/29 804/804/29
f 805/805/193 806/806/193 807/807/193
f 808/808/231 809/809/231 810/810/231
f 811/811/231 812/812/231 813/813/231
f 814/814/232 815/815/232 816/816/232
f 817/817/233 818/818/233 819/819/233
f 820/820/234 821/821/234 822/822/234
f 823/823/235 824/824/235 825/825/235
f 826/826/236 827/827/236 828/828/236
f 829/829/237 830/830/237 831/831/237
f 832/832/238 833/833/238 834/834/238
f 835/835/239 836/836/239 837/837/239
f 838/838/240 839/839/240 840/840/240
f 841/841/241 842/842/241 843/843/241
f 844/844/242 845/845/242 846/846/242
f 847/847/243 848/848/243 849/849/243
f 850/850/244 851/851/244 852/852/244
f 853/853/245 854/854/245 855/855/245
f 856/856/246 857/857/246 858/858/246
