mtllib starseeker.mtl
v -0.037653 -45.784790 0.378056
v -0.037546 -46.889530 0.378056
v -0.037546 -46.760391 -0.019390
v -0.037546 -46.889530 0.378056
v -0.037653 -45.784790 0.378056
v -0.037546 -46.760391 -0.019390
v -0.037546 -46.760391 -0.019390
v -0.037653 -45.784790 -0.416847
v -0.037653 -45.784790 0.378056
v -0.037653 -45.784790 0.378056
v -0.037653 -45.784790 -0.416847
v -0.037546 -46.760391 -0.019390
v -0.037653 -45.784790 -0.416847
v -0.037546 -46.760391 -0.019390
v -0.037546 -46.889530 -0.416847
v -0.037546 -46.760391 -0.019390
v -0.037653 -45.784790 -0.416847
v -0.037546 -46.889530 -0.416847
v -0.037546 -49.972492 4.401699
v -0.037546 -47.648193 2.712956
v -0.037546 -52.845482 4.401695
v -0.037546 -52.845482 4.401695
v -0.037546 -47.648193 2.712956
v -0.037554 -55.169804 2.712937
v -0.037546 -47.648193 2.712956
v -0.037546 -46.760391 -0.019390
v -0.037554 -55.169804 2.712937
v -0.037554 -55.169804 2.712937
v -0.037546 -46.760391 -0.019390
v -0.037554 -56.057632 -0.019390
v -0.037546 -46.760391 -0.019390
v -0.037554 -55.169804 -2.751770
v -0.037554 -56.057632 -0.019390
v -0.037546 -49.972492 4.401699
v -0.037546 -52.845482 4.401695
v -0.037546 -47.648193 2.712956
v -0.037546 -52.845482 4.401695
v -0.037554 -55.169804 2.712937
v -0.037546 -47.648193 2.712956
v -0.037546 -47.648193 2.712956
v -0.037554 -55.169804 2.712937
v -0.037546 -46.760391 -0.019390
v -0.037554 -55.169804 2.712937
v -0.037554 -56.057632 -0.019390
v -0.037546 -46.760391 -0.019390
v -0.037546 -46.760391 -0.019390
v -0.037554 -56.057632 -0.019390
v -0.037554 -55.169804 -2.751770
v -0.037539 -39.644962 -0.021068
v -0.037539 -45.368271 -0.021065
v -0.037538 -42.286709 2.537041
v -0.037538 -42.286709 2.537041
v -0.037539 -45.368271 -0.021065
v -0.037539 -39.644962 -0.021068
v -0.037539 -45.368271 -0.021065
v -0.037539 -42.286709 -2.579174
v -0.037539 -39.644962 -0.021068
v -0.037539 -39.644962 -0.021068
v -0.037539 -42.286709 -2.579174
v -0.037539 -45.368271 -0.021065
v -0.037531 -33.536057 -0.021049
v -0.037539 -39.259346 -0.021046
v -0.033609 -36.144791 2.537060
v -0.033609 -36.144791 2.537060
v -0.037539 -39.259346 -0.021046
v -0.037531 -33.536057 -0.021049
v -0.037539 -39.259346 -0.021046
v -0.033610 -36.144791 -2.579159
v -0.037531 -33.536057 -0.021049
v -0.037531 -33.536057 -0.021049
v -0.033610 -36.144791 -2.579159
v -0.037539 -39.259346 -0.021046
v -0.036493 -27.259285 -0.022903
v -0.037531 -33.150406 -0.021049
v -0.037531 -30.120903 2.537060
v -0.037531 -30.120903 2.537060
v -0.037531 -33.150406 -0.021049
v -0.036493 -27.259285 -0.022903
v -0.037531 -33.150406 -0.021049
v -0.037531 -30.120903 -2.579166
v -0.036493 -27.259285 -0.022903
v -0.036493 -27.259285 -0.022903
v -0.037531 -30.120903 -2.579166
v -0.037531 -33.150406 -0.021049
v -0.048273 -46.444630 -0.975578
v -0.037653 -44.535496 0.933556
v -0.037653 -44.535496 -0.975578
v -0.037653 -44.535496 -0.975578
v -0.037653 -44.535496 0.933556
v -0.048273 -46.444630 0.933556
v -0.037653 -44.535496 0.933556
v -0.048273 -46.444630 -0.975578
v -0.048273 -46.444630 0.933556
v -0.048273 -46.444630 0.933556
v -0.048273 -46.444630 -0.975578
v -0.037653 -44.535496 -0.975578
v -0.029421 -26.108025 -0.975536
v -0.040033 -28.017159 0.933598
v -0.029421 -26.108025 0.933598
v -0.029421 -26.108025 0.933598
v -0.040033 -28.017159 0.933598
v -0.029421 -26.108025 -0.975536
v -0.040033 -28.017159 0.933598
v -0.040033 -28.017159 -0.975536
v -0.029421 -26.108025 -0.975536
v -0.029421 -26.108025 -0.975536
v -0.040033 -28.017159 -0.975536
v -0.040033 -28.017159 0.933598
v -0.043062 -34.041046 -0.975536
v -0.032450 -32.131912 0.933598
v -0.032450 -32.131912 -0.975536
v -0.032450 -32.131912 -0.975536
v -0.032450 -32.131912 0.933598
v -0.043062 -34.041046 -0.975536
v -0.032450 -32.131912 0.933598
v -0.043062 -34.041046 0.933598
v -0.043062 -34.041046 -0.975536
v -0.043062 -34.041046 -0.975536
v -0.043062 -34.041046 0.933598
v -0.032450 -32.131912 0.933598
v -0.026926 -38.273827 -0.975567
v -0.037538 -40.182964 0.933575
v -0.026926 -38.273827 0.933575
v -0.026926 -38.273827 0.933575
v -0.037538 -40.182964 0.933575
v -0.026926 -38.273827 -0.975567
v -0.037538 -40.182964 0.933575
v -0.037539 -40.182964 -0.975567
v -0.026926 -38.273827 -0.975567
v -0.026926 -38.273827 -0.975567
v -0.037539 -40.182964 -0.975567
v -0.037538 -40.182964 0.933575
v -0.037531 -26.837013 -3.033832
v -0.026911 -16.749968 2.996186
v -0.026911 -16.749969 -3.033836
v -0.026911 -16.749969 -3.033836
v -0.026911 -16.749968 2.996186
v -0.037531 -26.837013 -3.033832
v -0.026911 -16.749968 2.996186
v -0.037531 -26.837013 2.996189
v -0.037531 -26.837013 -3.033832
v -0.037531 -26.837013 -3.033832
v -0.037531 -26.837013 2.996189
v -0.026911 -16.749968 2.996186
v -0.037546 -46.760391 -0.019390
v -0.037546 -47.648193 -2.751770
v -0.037554 -55.169804 -2.751770
v -0.037554 -55.169804 -2.751770
v -0.037546 -47.648193 -2.751770
v -0.037547 -52.845482 -4.440495
v -0.037546 -47.648193 -2.751770
v -0.037547 -49.972492 -4.440495
v -0.037547 -52.845482 -4.440495
v -0.037546 -46.760391 -0.019390
v -0.037554 -55.169804 -2.751770
v -0.037546 -47.648193 -2.751770
v -0.037554 -55.169804 -2.751770
v -0.037547 -52.845482 -4.440495
v -0.037546 -47.648193 -2.751770
v -0.037546 -47.648193 -2.751770
v -0.037547 -52.845482 -4.440495
v -0.037546 -47.648193 -2.751770
v -0.037547 -52.845482 -4.440495
v -0.037547 -52.845482 -4.440495
v -0.037546 -47.648193 -2.751770
v -0.037546 -47.648193 -2.751770
v -0.037547 -52.845482 -4.440495
v -0.037547 -49.972492 -4.440495
vt 0.461670 0.685302
vt 0.461670 0.589111
vt 0.477051 0.602783
vt 0.461670 0.589111
vt 0.461670 0.685302
vt 0.477051 0.602783
vt 0.477051 0.602783
vt 0.491699 0.685302
vt 0.461670 0.685302
vt 0.461670 0.685302
vt 0.491699 0.685302
vt 0.477051 0.602783
vt 0.491699 0.685302
vt 0.477051 0.602783
vt 0.491699 0.589111
vt 0.477051 0.602783
vt 0.491699 0.685302
vt 0.491699 0.589111
vt 0.451416 0.176025
vt 0.476074 0.108154
vt 0.451416 0.259765
vt 0.451416 0.259765
vt 0.476074 0.108154
vt 0.476074 0.327392
vt 0.476074 0.108154
vt 0.515869 0.082519
vt 0.476074 0.327392
vt 0.476074 0.327392
vt 0.515869 0.082519
vt 0.515869 0.353271
vt 0.515869 0.082519
vt 0.555664 0.327392
vt 0.515869 0.353271
vt 0.451416 0.259765
vt 0.451416 0.176025
vt 0.476074 0.327392
vt 0.451416 0.176025
vt 0.476074 0.108154
vt 0.476074 0.327392
vt 0.476074 0.327392
vt 0.476074 0.108154
vt 0.515869 0.353271
vt 0.476074 0.108154
vt 0.515869 0.082519
vt 0.515869 0.353271
vt 0.515869 0.353271
vt 0.515869 0.082519
vt 0.555664 0.108154
vt 0.283447 0.103759
vt 0.396973 0.103759
vt 0.338867 0.004394
vt 0.338867 0.004394
vt 0.396973 0.103759
vt 0.283447 0.103759
vt 0.396973 0.103759
vt 0.338867 0.202881
vt 0.283447 0.103759
vt 0.283447 0.103759
vt 0.338867 0.202881
vt 0.396973 0.103759
vt 0.283447 0.103759
vt 0.396973 0.103759
vt 0.338867 0.004394
vt 0.338867 0.004394
vt 0.396973 0.103759
vt 0.283447 0.103759
vt 0.396973 0.103759
vt 0.338867 0.202881
vt 0.283447 0.103759
vt 0.283447 0.103759
vt 0.338867 0.202881
vt 0.396973 0.103759
vt 0.283447 0.103759
vt 0.396973 0.103759
vt 0.338867 0.004394
vt 0.338867 0.004394
vt 0.396973 0.103759
vt 0.283447 0.103759
vt 0.396973 0.103759
vt 0.338867 0.202881
vt 0.283447 0.103759
vt 0.283447 0.103759
vt 0.338867 0.202881
vt 0.396973 0.103759
vt 0.683594 0.717529
vt 0.740479 0.603515
vt 0.683594 0.603515
vt 0.683594 0.603515
vt 0.740479 0.603515
vt 0.740479 0.717529
vt 0.740479 0.603515
vt 0.683594 0.717529
vt 0.740479 0.717529
vt 0.740479 0.717529
vt 0.683594 0.717529
vt 0.683594 0.603515
vt 0.547119 0.571777
vt 0.592773 0.663086
vt 0.592773 0.571777
vt 0.592773 0.571777
vt 0.592773 0.663086
vt 0.547119 0.571777
vt 0.592773 0.663086
vt 0.547119 0.663086
vt 0.547119 0.571777
vt 0.547119 0.571777
vt 0.547119 0.663086
vt 0.592773 0.663086
vt 0.683594 0.717529
vt 0.740479 0.603515
vt 0.683594 0.603515
vt 0.683594 0.603515
vt 0.740479 0.603515
vt 0.683594 0.717529
vt 0.740479 0.603515
vt 0.740479 0.717529
vt 0.683594 0.717529
vt 0.683594 0.717529
vt 0.740479 0.717529
vt 0.740479 0.603515
vt 0.683594 0.603515
vt 0.740479 0.717529
vt 0.740479 0.603515
vt 0.740479 0.603515
vt 0.740479 0.717529
vt 0.683594 0.603515
vt 0.740479 0.717529
vt 0.683594 0.717529
vt 0.683594 0.603515
vt 0.683594 0.603515
vt 0.683594 0.717529
vt 0.740479 0.717529
vt 0.189453 0.222412
vt 0.003906 0.000488
vt 0.003906 0.222412
vt 0.003906 0.222412
vt 0.003906 0.000488
vt 0.189453 0.222412
vt 0.003906 0.000488
vt 0.189453 0.000488
vt 0.189453 0.222412
vt 0.189453 0.222412
vt 0.189453 0.000488
vt 0.003906 0.000488
vt 0.515869 0.082519
vt 0.555664 0.108154
vt 0.555664 0.327392
vt 0.555664 0.327392
vt 0.555664 0.108154
vt 0.580078 0.259765
vt 0.555664 0.108154
vt 0.580078 0.176025
vt 0.580078 0.259765
vt 0.515869 0.353271
vt 0.555664 0.108154
vt 0.555664 0.327392
vt 0.555664 0.108154
vt 0.580078 0.176025
vt 0.555664 0.327392
vt 0.555664 0.327392
vt 0.580078 0.176025
vt 0.555664 0.327392
vt 0.580078 0.176025
vt 0.580078 0.176025
vt 0.555664 0.327392
vt 0.555664 0.327392
vt 0.580078 0.176025
vt 0.580078 0.259765
vn 1.0000 0.0001 0.0000
vn -1.0000 -0.0001 -0.0000
vn -1.0000 0.0000 -0.0000
vn 1.0000 -0.0000 0.0000
vn -1.0000 0.0000 0.0015
vn 1.0000 -0.0000 -0.0015
vn 1.0000 -0.0000 0.0015
vn -1.0000 0.0000 -0.0015
vn -1.0000 0.0002 -0.0002
vn 1.0000 -0.0002 0.0002
vn 1.0000 -0.0002 -0.0002
vn -1.0000 0.0002 0.0002
vn -1.0000 0.0056 0.0000
vn 1.0000 -0.0056 -0.0000
vn -1.0000 0.0011 0.0000
vn 1.0000 -0.0011 -0.0000
vn 0.0000 0.0000 1.0000
o keychain
usemtl Brush.041
f 1/1/1 2/2/1 3/3/1
f 4/4/2 5/5/2 6/6/2
f 7/7/1 8/8/1 9/9/1
f 10/10/2 11/11/2 12/12/2
f 13/13/1 14/14/1 15/15/1
f 16/16/2 17/17/2 18/18/2
f 19/19/3 20/20/3 21/21/3
f 22/22/3 23/23/3 24/24/3
f 25/25/3 26/26/3 27/27/3
f 28/28/3 29/29/3 30/30/3
f 31/31/3 32/32/3 33/33/3
f 34/34/4 35/35/4 36/36/4
f 37/37/4 38/38/4 39/39/4
f 40/40/4 41/41/4 42/42/4
f 43/43/4 44/44/4 45/45/4
f 46/46/4 47/47/4 48/48/4
f 49/49/3 50/50/3 51/51/3
f 52/52/4 53/53/4 54/54/4
f 55/55/4 56/56/4 57/57/4
f 58/58/3 59/59/3 60/60/3
f 61/61/5 62/62/5 63/63/5
f 64/64/6 65/65/6 66/66/6
f 67/67/7 68/68/7 69/69/7
f 70/70/8 71/71/8 72/72/8
f 73/73/9 74/74/9 75/75/9
f 76/76/10 77/77/10 78/78/10
f 79/79/11 80/80/11 81/81/11
f 82/82/12 83/83/12 84/84/12
f 85/85/13 86/86/13 87/87/13
f 88/88/14 89/89/14 90/90/14
f 91/91/13 92/92/13 93/93/13
f 94/94/14 95/95/14 96/96/14
f 97/97/13 98/98/13 99/99/13
f 100/100/14 101/101/14 102/102/14
f 103/103/14 104/104/14 105/105/14
f 106/106/13 107/107/13 108/108/13
f 109/109/13 110/110/13 111/111/13
f 112/112/14 113/113/14 114/114/14
f 115/115/14 116/116/14 117/117/14
f 118/118/13 119/119/13 120/120/13
f 121/121/13 122/122/13 123/123/13
f 124/124/14 125/125/14 126/126/14
f 127/127/14 128/128/14 129/129/14
f 130/130/13 131/131/13 132/132/13
f 133/133/15 134/134/15 135/135/15
f 136/136/16 137/137/16 138/138/16
f 139/139/16 140/140/16 141/141/16
f 142/142/15 143/143/15 144/144/15
f 145/145/3 146/146/3 147/147/3
f 148/148/3 149/149/3 150/150/3
f 151/151/3 152/152/3 153/153/3
f 154/154/4 155/155/4 156/156/4
f 157/157/4 158/158/4 159/159/4
f 160/160/17 161/161/17 162/162/17
f 163/163/17 164/164/17 165/165/17
f 166/166/4 167/167/4 168/168/4
