mtllib stormfall.mtl
v -0.000007 -43.787769 0.000000
v -0.000007 -50.187469 4.427000
v -0.000007 -44.914867 3.964600
v -0.000007 -43.787769 0.000000
v -0.000007 -44.914867 3.964600
v -0.000007 -50.187469 4.427000
v -0.000007 -50.187469 4.427000
v -0.000008 -54.217564 0.000000
v -0.000007 -43.787769 0.000000
v -0.000007 -50.187469 -4.427000
v -0.000007 -43.787769 0.000000
v -0.000008 -54.217564 0.000000
v -0.000007 -50.187469 4.427000
v -0.000007 -43.787769 0.000000
v -0.000008 -54.217564 0.000000
v -0.000007 -50.187469 -4.427000
v -0.000008 -54.217564 0.000000
v -0.000007 -43.787769 0.000000
v -0.000007 -43.787769 0.000000
v -0.000007 -44.914867 -3.964600
v -0.000007 -50.187469 -4.427000
v -0.000007 -43.787769 0.000000
v -0.000007 -50.187469 -4.427000
v -0.000007 -44.914867 -3.964600
v -0.000003 -16.716167 -1.336200
v -0.000003 -16.716167 1.336200
v -0.000004 -18.076168 -1.797500
v -0.000003 -16.716167 1.336200
v -0.000003 -16.716167 -1.336200
v -0.000004 -18.076168 -1.797500
v -0.000004 -18.076168 -1.797500
v -0.000004 -18.076168 2.141100
v -0.000004 -20.498768 -0.604800
v -0.000004 -18.076168 2.141100
v -0.000004 -18.076168 -1.797500
v -0.000004 -20.498768 -0.604800
v -0.000005 -26.540068 2.569600
v -0.000005 -26.540068 -2.569600
v -0.000004 -21.799969 -0.397900
v -0.000005 -26.540068 -2.569600
v -0.000005 -26.540068 2.569600
v -0.000004 -21.799969 -0.397900
v -0.000004 -21.799969 -0.397900
v -0.000005 -26.540068 -2.569600
v -0.000004 -20.498768 -2.569600
v -0.000005 -26.540068 -2.569600
v -0.000004 -21.799969 -0.397900
v -0.000004 -20.498768 -2.569600
v -0.000004 -21.799969 0.397900
v -0.000004 -20.498768 0.604800
v -0.000004 -20.498768 2.569600
v -0.000004 -20.498768 0.604800
v -0.000004 -21.799969 0.397900
v -0.000004 -20.498768 2.569600
v -0.000003 -16.716167 1.336200
v -0.000004 -18.076168 2.141100
v -0.000004 -18.076168 -1.797500
v -0.000004 -18.076168 2.141100
v -0.000003 -16.716167 1.336200
v -0.000004 -18.076168 -1.797500
v -0.000004 -18.076168 2.141100
v -0.000004 -20.498768 0.604800
v -0.000004 -20.498768 -0.604800
v -0.000004 -20.498768 0.604800
v -0.000004 -18.076168 2.141100
v -0.000004 -20.498768 -0.604800
v -0.000004 -21.799969 0.397900
v -0.000004 -21.799969 -0.397900
v -0.000004 -20.498768 0.604800
v -0.000004 -21.799969 -0.397900
v -0.000004 -21.799969 0.397900
v -0.000004 -20.498768 0.604800
v -0.000006 -33.951466 2.569600
v -0.000005 -27.910168 2.569600
v -0.000005 -27.910168 -2.569600
v -0.000005 -27.910168 2.569600
v -0.000006 -33.951466 2.569600
v -0.000005 -27.910168 -2.569600
v -0.000006 -33.951466 -2.569600
v -0.000006 -33.951466 2.569600
v -0.000005 -27.910168 -2.569600
v -0.000006 -33.951466 2.569600
v -0.000006 -33.951466 -2.569600
v -0.000005 -27.910168 -2.569600
v -0.000004 -21.799969 0.397900
v -0.000005 -26.540068 2.569600
v -0.000004 -21.799969 -0.397900
v -0.000005 -26.540068 2.569600
v -0.000004 -21.799969 0.397900
v -0.000004 -21.799969 -0.397900
v -0.000004 -21.799969 -0.397900
v -0.000004 -20.498768 -0.604800
v -0.000004 -20.498768 0.604800
v -0.000004 -20.498768 -0.604800
v -0.000004 -21.799969 -0.397900
v -0.000004 -20.498768 0.604800
v -2.517607 -45.709568 0.000000
v -2.517606 -40.023266 0.000000
v 2.517594 -40.023266 0.000000
v -2.517606 -40.023266 0.000000
v -2.517607 -45.709568 0.000000
v 2.517594 -40.023266 0.000000
v 2.517593 -45.709568 0.000000
v -2.517607 -45.709568 0.000000
v 2.517594 -40.023266 0.000000
v -2.517607 -45.709568 0.000000
v 2.517593 -45.709568 0.000000
v 2.517594 -40.023266 0.000000
v -2.517605 -30.215269 0.000000
v -2.517604 -24.273468 0.000000
v 2.517596 -24.273468 0.000000
v -2.517604 -24.273468 0.000000
v -2.517605 -30.215269 0.000000
v 2.517596 -24.273468 0.000000
v 2.517595 -30.215269 0.000000
v -2.517605 -30.215269 0.000000
v 2.517596 -24.273468 0.000000
v -2.517605 -30.215269 0.000000
v 2.517595 -30.215269 0.000000
v 2.517596 -24.273468 0.000000
v -2.517606 -37.849365 0.000000
v -2.517605 -32.163067 0.000000
v 2.517595 -32.163067 0.000000
v -2.517605 -32.163067 0.000000
v -2.517606 -37.849365 0.000000
v 2.517595 -32.163067 0.000000
v 2.517594 -37.849365 0.000000
v -2.517606 -37.849365 0.000000
v 2.517595 -32.163067 0.000000
v -2.517606 -37.849365 0.000000
v 2.517594 -37.849365 0.000000
v 2.517595 -32.163067 0.000000
v -0.000006 -41.812866 2.569600
v -0.000006 -35.771568 2.569600
v -0.000006 -35.771568 -2.569600
v -0.000006 -35.771568 2.569600
v -0.000006 -41.812866 2.569600
v -0.000006 -35.771568 -2.569600
v -0.000006 -41.812866 -2.569600
v -0.000006 -41.812866 2.569600
v -0.000006 -35.771568 -2.569600
v -0.000006 -41.812866 2.569600
v -0.000006 -41.812866 -2.569600
v -0.000006 -35.771568 -2.569600
v -0.000004 -20.498768 -0.604800
v -0.000004 -21.799969 -0.397900
v -0.000004 -20.498768 -2.569600
v -0.000004 -21.799969 -0.397900
v -0.000004 -20.498768 -0.604800
v -0.000004 -20.498768 -2.569600
v -0.000005 -26.540068 2.569600
v -0.000004 -21.799969 0.397900
v -0.000004 -20.498768 2.569600
v -0.000004 -21.799969 0.397900
v -0.000005 -26.540068 2.569600
v -0.000004 -20.498768 2.569600
v -0.000003 -16.176968 0.000000
v -0.000003 -16.716167 1.336200
v -0.000003 -16.716167 -1.336200
v -0.000003 -16.716167 1.336200
v -0.000003 -16.176968 0.000000
v -0.000003 -16.716167 -1.336200
v -1.250801 -14.912399 0.000000
v 1.256799 -17.450199 0.000000
v -1.250801 -17.450199 0.000000
v 1.256799 -14.912399 0.000000
v -1.250801 -17.450199 0.000000
v 1.256799 -17.450199 0.000000
v 1.256799 -17.450199 0.000000
v -1.250801 -14.912399 0.000000
v 1.256799 -14.912399 0.000000
v -1.250801 -17.450199 0.000000
v 1.256799 -14.912399 0.000000
v -1.250801 -14.912399 0.000000
vt 0.254430 0.982347
vt 0.018209 0.415418
vt 0.049705 0.887859
vt 0.254430 0.982347
vt 0.049705 0.887859
vt 0.018209 0.415418
vt 0.018209 0.415418
vt 0.254430 0.037465
vt 0.254430 0.982347
vt 0.018209 0.415418
vt 0.254430 0.982347
vt 0.254430 0.037465
vt 0.018209 0.415418
vt 0.254430 0.982347
vt 0.254430 0.037465
vt 0.018209 0.415418
vt 0.254430 0.037465
vt 0.254430 0.982347
vt 0.254430 0.982347
vt 0.049705 0.887859
vt 0.018209 0.415418
vt 0.254430 0.982347
vt 0.018209 0.415418
vt 0.049705 0.887859
vt 0.569390 0.793371
vt 0.348918 0.793371
vt 0.600886 0.572898
vt 0.348918 0.793371
vt 0.569390 0.793371
vt 0.600886 0.572898
vt 0.600886 0.572898
vt 0.270178 0.572898
vt 0.506398 0.226441
vt 0.270178 0.572898
vt 0.600886 0.572898
vt 0.506398 0.226441
vt 0.648130 0.226441
vt 0.994587 0.226441
vt 0.852855 0.824867
vt 0.994587 0.226441
vt 0.648130 0.226441
vt 0.852855 0.824867
vt 0.852855 0.824867
vt 0.994587 0.226441
vt 0.994587 0.982347
vt 0.994587 0.226441
vt 0.852855 0.824867
vt 0.994587 0.982347
vt 0.789863 0.824867
vt 0.789863 0.982347
vt 0.648130 0.982347
vt 0.789863 0.982347
vt 0.789863 0.824867
vt 0.648130 0.982347
vt 0.348918 0.793371
vt 0.270178 0.572898
vt 0.600886 0.572898
vt 0.270178 0.572898
vt 0.348918 0.793371
vt 0.600886 0.572898
vt 0.270178 0.572898
vt 0.411910 0.226441
vt 0.506398 0.226441
vt 0.411910 0.226441
vt 0.270178 0.572898
vt 0.506398 0.226441
vt 0.427658 0.037465
vt 0.490650 0.037465
vt 0.411910 0.226441
vt 0.490650 0.037465
vt 0.427658 0.037465
vt 0.411910 0.226441
vt 0.648130 0.226441
vt 0.648130 0.982347
vt 0.994587 0.982347
vt 0.648130 0.982347
vt 0.648130 0.226441
vt 0.994587 0.982347
vt 0.994587 0.226441
vt 0.648130 0.226441
vt 0.994587 0.982347
vt 0.648130 0.226441
vt 0.994587 0.226441
vt 0.994587 0.982347
vt 0.789863 0.824867
vt 0.648130 0.226441
vt 0.852855 0.824867
vt 0.648130 0.226441
vt 0.789863 0.824867
vt 0.852855 0.824867
vt 0.490650 0.037465
vt 0.506398 0.226441
vt 0.411910 0.226441
vt 0.506398 0.226441
vt 0.490650 0.037465
vt 0.411910 0.226441
vt 0.648130 0.226441
vt 0.648130 0.982347
vt 0.994587 0.982347
vt 0.648130 0.982347
vt 0.648130 0.226441
vt 0.994587 0.982347
vt 0.994587 0.226441
vt 0.648130 0.226441
vt 0.994587 0.982347
vt 0.648130 0.226441
vt 0.994587 0.226441
vt 0.994587 0.982347
vt 0.648130 0.226441
vt 0.648130 0.982347
vt 0.994587 0.982347
vt 0.648130 0.982347
vt 0.648130 0.226441
vt 0.994587 0.982347
vt 0.994587 0.226441
vt 0.648130 0.226441
vt 0.994587 0.982347
vt 0.648130 0.226441
vt 0.994587 0.226441
vt 0.994587 0.982347
vt 0.648130 0.226441
vt 0.648130 0.982347
vt 0.994587 0.982347
vt 0.648130 0.982347
vt 0.648130 0.226441
vt 0.994587 0.982347
vt 0.994587 0.226441
vt 0.648130 0.226441
vt 0.994587 0.982347
vt 0.648130 0.226441
vt 0.994587 0.226441
vt 0.994587 0.982347
vt 0.648130 0.226441
vt 0.648130 0.982347
vt 0.994587 0.982347
vt 0.648130 0.982347
vt 0.648130 0.226441
vt 0.994587 0.982347
vt 0.994587 0.226441
vt 0.648130 0.226441
vt 0.994587 0.982347
vt 0.648130 0.226441
vt 0.994587 0.226441
vt 0.994587 0.982347
vt 0.868603 0.982347
vt 0.852855 0.824867
vt 0.994587 0.982347
vt 0.852855 0.824867
vt 0.868603 0.982347
vt 0.994587 0.982347
vt 0.648130 0.226441
vt 0.789863 0.824867
vt 0.648130 0.982347
vt 0.789863 0.824867
vt 0.648130 0.226441
vt 0.648130 0.982347
vt 0.459154 0.887859
vt 0.348918 0.793371
vt 0.569390 0.793371
vt 0.348918 0.793371
vt 0.459154 0.887859
vt 0.569390 0.793371
vt 0.939658 0.278165
vt 0.994776 0.404149
vt 0.994776 0.278165
vt 0.939658 0.404149
vt 0.994776 0.278165
vt 0.994776 0.404149
vt 0.994776 0.404149
vt 0.939658 0.278165
vt 0.939658 0.404149
vt 0.994776 0.278165
vt 0.939658 0.404149
vt 0.939658 0.278165
vn -1.0000 0.0000 -0.0000
vn 1.0000 -0.0000 0.0000
vn 0.0000 0.0000 -1.0000
vn 0.0000 0.0000 1.0000
o keychain
usemtl Brush.042
f 1/1/1 2/2/1 3/3/1
f 4/4/2 5/5/2 6/6/2
f 7/7/2 8/8/2 9/9/2
f 10/10/2 11/11/2 12/12/2
f 13/13/1 14/14/1 15/15/1
f 16/16/1 17/17/1 18/18/1
f 19/19/1 20/20/1 21/21/1
f 22/22/2 23/23/2 24/24/2
f 25/25/2 26/26/2 27/27/2
f 28/28/1 29/29/1 30/30/1
f 31/31/2 32/32/2 33/33/2
f 34/34/1 35/35/1 36/36/1
f 37/37/2 38/38/2 39/39/2
f 40/40/1 41/41/1 42/42/1
f 43/43/2 44/44/2 45/45/2
f 46/46/1 47/47/1 48/48/1
f 49/49/2 50/50/2 51/51/2
f 52/52/1 53/53/1 54/54/1
f 55/55/2 56/56/2 57/57/2
f 58/58/1 59/59/1 60/60/1
f 61/61/2 62/62/2 63/63/2
f 64/64/1 65/65/1 66/66/1
f 67/67/2 68/68/2 69/69/2
f 70/70/1 71/71/1 72/72/1
f 73/73/1 74/74/1 75/75/1
f 76/76/2 77/77/2 78/78/2
f 79/79/1 80/80/1 81/81/1
f 82/82/2 83/83/2 84/84/2
f 85/85/2 86/86/2 87/87/2
f 88/88/1 89/89/1 90/90/1
f 91/91/2 92/92/2 93/93/2
f 94/94/1 95/95/1 96/96/1
f 97/97/3 98/98/3 99/99/3
f 100/100/4 101/101/4 102/102/4
f 103/103/3 104/104/3 105/105/3
f 106/106/4 107/107/4 108/108/4
f 109/109/3 110/110/3 111/111/3
f 112/112/4 113/113/4 114/114/4
f 115/115/3 116/116/3 117/117/3
f 118/118/4 119/119/4 120/120/4
f 121/121/3 122/122/3 123/123/3
f 124/124/4 125/125/4 126/126/4
f 127/127/3 128/128/3 129/129/3
f 130/130/4 131/131/4 132/132/4
f 133/133/1 134/134/1 135/135/1
f 136/136/2 137/137/2 138/138/2
f 139/139/1 140/140/1 141/141/1
f 142/142/2 143/143/2 144/144/2
f 145/145/2 146/146/2 147/147/2
f 148/148/1 149/149/1 150/150/1
f 151/151/2 152/152/2 153/153/2
f 154/154/1 155/155/1 156/156/1
f 157/157/2 158/158/2 159/159/2
f 160/160/1 161/161/1 162/162/1
usemtl Brush.043
f 163/163/3 164/164/3 165/165/3
f 166/166/4 167/167/4 168/168/4
f 169/169/3 170/170/3 171/171/3
f 172/172/4 173/173/4 174/174/4
