mtllib stormfall.mtl
v 0.000004 93.909599 2.586100
v 0.000004 93.909599 -2.580100
v 0.000004 91.770706 1.075500
v 0.000004 93.909599 2.586100
v 0.000004 91.770706 1.075500
v 0.000004 93.909599 -2.580100
v 0.000003 73.281197 -1.069500
v 0.000003 71.142204 -2.580100
v 0.000003 73.281197 1.075500
v 0.000003 73.281197 -1.069500
v 0.000003 73.281197 1.075500
v 0.000003 71.142204 -2.580100
v 0.000001 19.652601 1.818700
v 1.906401 21.788601 0.000000
v 0.000001 24.136000 6.193400
v 1.939601 21.063501 0.000000
v 1.906401 21.788601 0.000000
v 0.000001 19.652601 1.818700
v 1.501503 70.701096 0.000000
v -1.498497 72.124100 1.489400
v 1.501503 72.124100 1.489400
v -1.498497 72.124100 1.489400
v 0.000003 72.057602 4.229600
v 1.501503 72.124100 1.489400
v -2.108800 -5.063500 -6.015100
v 0.003000 -5.042300 -10.746300
v 0.003000 -7.462300 -11.193399
v -2.108800 2.356500 -7.646500
v 0.003000 -5.042300 -10.746300
v -2.108800 -5.063500 -6.015100
v -1.725101 -14.054399 0.728100
v -1.725101 -10.226600 0.619300
v -1.725101 -14.238700 0.000000
v -1.725101 -10.900300 0.000000
v -1.725101 -14.238700 0.000000
v -1.725101 -10.226600 0.619300
v 1.501503 77.332596 -8.574000
v 0.000004 80.788795 -14.749300
v 1.501504 82.525894 -13.767401
v 0.000004 80.788795 -18.552898
v 1.501504 82.525894 -13.767401
v 0.000004 80.788795 -14.749300
v 0.000003 69.519798 2.936600
v -1.498497 72.124100 1.489400
v 0.000003 69.525894 1.586100
v -1.498497 70.701096 0.000000
v 0.000003 69.525894 1.586100
v -1.498497 72.124100 1.489400
v 0.000001 24.136000 -6.187300
v 0.000001 19.652601 -1.812700
v -1.900299 21.788601 0.000000
v -1.936599 21.063501 0.000000
v -1.900299 21.788601 0.000000
v 0.000001 19.652601 -1.812700
v 0.000004 93.909599 -2.580100
v 0.000004 91.770706 1.075500
v 0.000004 91.770706 -1.069500
v 0.000004 93.909599 -2.580100
v 0.000004 91.770706 -1.069500
v 0.000004 91.770706 1.075500
v 2.114800 -5.063500 6.021200
v 0.002999 -12.051400 5.030200
v 1.731099 -10.226600 0.619300
v 0.003000 -8.558900 8.788500
v 0.002999 -12.051400 5.030200
v 2.114800 -5.063500 6.021200
v 0.000003 71.142204 2.586100
v 0.000003 73.281197 1.075500
v 0.000003 71.142204 -2.580100
v 0.000003 71.142204 2.586100
v 0.000003 71.142204 -2.580100
v 0.000003 73.281197 1.075500
v 1.731099 -10.900300 0.000000
v 1.731099 -10.226600 0.619300
v 1.731099 -14.238700 0.000000
v 1.731099 -10.900300 0.000000
v 1.731099 -14.238700 0.000000
v 1.731099 -10.226600 -0.613300
v 2.114800 -5.063500 -6.015100
v 0.003000 2.407900 -12.217600
v 2.114800 2.356500 -7.646500
v 2.114800 -5.063500 -6.015100
v 2.114800 2.356500 -7.646500
v 2.114800 2.356500 -7.646500
v 2.114800 2.356500 7.652600
v 2.114800 -5.063500 6.021200
v 2.114800 2.356500 7.652600
v 0.003000 2.407900 12.223599
v 2.114800 -5.063500 6.021200
v 2.114800 2.356500 7.652600
v 0.000001 31.353600 -4.818700
v 0.000001 28.139099 -2.359500
v -1.504499 31.353600 -1.909400
v 0.000001 31.353600 4.821800
v 0.000001 28.139099 2.365600
v 1.507601 31.353600 1.915400
v 1.507601 31.353600 -1.909400
v 0.000002 35.707100 -1.619300
v 1.861001 33.302200 0.000000
v -2.108800 -5.063500 6.021200
v 0.003000 -7.462300 11.199400
v 0.003000 -5.042300 10.752300
v 0.003000 2.580100 14.779501
v -2.108800 2.356500 7.652600
v 2.114800 2.356500 7.652600
v 0.003000 2.580100 -14.773500
v 2.114800 2.356500 -7.646500
v -2.108800 2.356500 -7.646500
v 2.114800 12.063500 0.555900
v 0.003001 15.462300 7.552900
v 2.114800 8.800600 6.486400
v 0.000004 98.115097 -13.758300
v 0.000004 95.531998 -13.779500
v -1.498496 92.936798 -8.574000
v 0.000004 97.716301 1.737200
v 0.000004 98.994301 0.000000
v -1.498496 94.347694 0.000000
v 0.000004 95.531998 2.936600
v 0.000004 92.994202 4.229600
v 1.501504 92.930801 1.489400
v 0.000004 97.716301 -1.731100
v 1.501504 94.347694 0.000000
v 0.000004 95.556198 -1.731100
v 0.000004 95.531998 -8.571000
v 1.501504 92.936798 -8.574000
v 0.000004 98.136200 -11.175301
v 0.000003 66.936806 -13.758300
v 1.501503 72.118004 -8.574000
v 0.000003 66.915604 -11.175301
v 2.114800 2.356500 -7.646500
v -2.108799 8.800600 -6.480400
v -2.108800 2.356500 -7.646500
v -2.108799 21.063501 0.000000
v -2.108799 12.063500 0.555900
v -2.108799 19.652601 1.818700
v -1.725101 -10.226600 -0.613300
v 0.002999 -14.788599 -0.797600
v -1.725101 -14.054399 -0.722100
v 1.501503 72.118004 -8.574000
v -1.498497 77.332596 -8.574000
v -1.498497 72.118004 -8.574000
v -1.504499 31.353600 1.915400
v 0.000002 35.707100 1.625400
v -1.857999 33.302200 0.000000
v -2.108800 2.356500 -7.646500
v 2.114800 -5.063500 -6.015100
v 2.114800 2.356500 -7.646500
v -1.498497 72.118004 -1.495500
v 1.501503 72.118004 -8.574000
v -1.498497 72.118004 -8.574000
v 1.731099 -14.054399 0.728100
v 0.002999 -13.646600 1.468300
v 0.002999 -14.788599 0.803600
v -2.108800 2.356500 -7.646500
v -2.108800 2.356500 -7.646500
v 2.114800 2.356500 -7.646500
v 2.114801 19.652601 -1.812700
v 2.114800 12.891300 0.000000
v 2.114800 12.063500 -0.549900
v -1.498496 92.930801 1.489400
v 0.000004 95.556198 1.737200
v -1.498496 94.347694 0.000000
v 0.000004 97.716301 1.737200
v -1.498496 94.347694 0.000000
v 0.000004 95.556198 1.737200
v 0.000004 95.556198 1.737200
v 1.501504 94.347694 0.000000
v 0.000004 97.716301 1.737200
v 0.000004 98.994301 0.000000
v 0.000004 97.716301 1.737200
v 1.501504 94.347694 0.000000
v 1.501504 94.347694 0.000000
v 0.000004 97.716301 -1.731100
v 0.000004 98.994301 0.000000
v -1.498496 94.347694 0.000000
v 0.000004 98.994301 0.000000
v 0.000004 97.716301 -1.731100
v 0.000004 97.716301 -1.731100
v 0.000004 95.556198 -1.731100
v -1.498496 94.347694 0.000000
v -1.498496 92.936798 -1.495500
v -1.498496 94.347694 0.000000
v 0.000004 95.556198 -1.731100
v 0.000004 95.556198 -1.731100
v 0.000004 95.531998 -8.571000
v -1.498496 92.936798 -1.495500
v -1.498496 92.936798 -8.574000
v -1.498496 92.936798 -1.495500
v 0.000004 95.531998 -8.571000
v 0.000004 95.531998 -8.571000
v 0.000004 98.136200 -11.175301
v -1.498496 92.936798 -8.574000
v 0.000004 98.115097 -13.758300
v -1.498496 92.936798 -8.574000
v 0.000004 98.136200 -11.175301
v 0.000004 98.136200 -11.175301
v 1.501504 92.936798 -8.574000
v 0.000004 98.115097 -13.758300
v 0.000004 95.531998 -13.779500
v 0.000004 98.115097 -13.758300
v 1.501504 92.936798 -8.574000
v 1.501504 92.936798 -8.574000
v 0.000004 92.927803 -11.229600
v 0.000004 95.531998 -13.779500
v -1.498496 92.936798 -8.574000
v 0.000004 95.531998 -13.779500
v 0.000004 92.927803 -11.229600
v 0.000004 92.927803 -11.229600
v 0.000004 87.779701 -11.229600
v -1.498496 92.936798 -8.574000
v -1.498496 87.722305 -8.574000
v -1.498496 92.936798 -8.574000
v 0.000004 87.779701 -11.229600
v 0.000004 87.779701 -11.229600
v 0.000004 84.263100 -14.749300
v -1.498496 87.722305 -8.574000
v -1.498496 82.525894 -13.767401
v -1.498496 87.722305 -8.574000
v 0.000004 84.263100 -14.749300
v 0.000004 84.263100 -14.749300
v 0.000004 84.263100 -18.552898
v -1.498496 82.525894 -13.767401
v 0.000004 82.525894 -19.858099
v -1.498496 82.525894 -13.767401
v 0.000004 84.263100 -18.552898
v 0.000004 84.263100 -18.552898
v 1.501504 82.525894 -13.767401
v 0.000004 82.525894 -19.858099
v -1.725101 -14.054399 0.728100
v -1.725101 -14.238700 0.000000
v 0.002999 -14.788599 0.803600
v 0.002999 -14.815800 0.000000
v 0.002999 -14.788599 0.803600
v -1.725101 -14.238700 0.000000
v -1.725101 -14.238700 0.000000
v 0.002999 -14.788599 -0.797600
v 0.002999 -14.815800 0.000000
v 1.731099 -14.238700 0.000000
v 0.002999 -14.815800 0.000000
v 0.002999 -14.788599 -0.797600
v 0.002999 -14.788599 -0.797600
v 1.731099 -14.054399 -0.722100
v 1.731099 -14.238700 0.000000
v 1.731099 -10.226600 -0.613300
v 1.731099 -14.238700 0.000000
v 1.731099 -14.054399 -0.722100
v 1.731099 -14.054399 -0.722100
v 0.002999 -14.788599 -0.797600
v 1.731099 -10.226600 -0.613300
v 0.002999 -13.646600 -1.462200
v 1.731099 -10.226600 -0.613300
v 0.002999 -14.788599 -0.797600
v 0.002999 -14.788599 -0.797600
v -1.725101 -10.226600 -0.613300
v 0.002999 -13.646600 -1.462200
v 0.002999 -12.051400 -5.024200
v 0.002999 -13.646600 -1.462200
v -1.725101 -10.226600 -0.613300
v -1.725101 -10.226600 -0.613300
v -2.108800 -5.063500 -6.015100
v 0.002999 -12.051400 -5.024200
v 0.003000 -8.558900 -8.782500
v 0.002999 -12.051400 -5.024200
v -2.108800 -5.063500 -6.015100
v -2.108800 -5.063500 -6.015100
v 0.003000 -7.462300 -11.193399
v 0.003000 -8.558900 -8.782500
v 2.114800 -5.063500 -6.015100
v 0.003000 -8.558900 -8.782500
v 0.003000 -7.462300 -11.193399
v 0.003000 -7.462300 -11.193399
v 0.003000 -5.042300 -10.746300
v 2.114800 -5.063500 -6.015100
v 0.003000 2.407900 -12.217600
v 2.114800 -5.063500 -6.015100
v 0.003000 -5.042300 -10.746300
v 0.003000 -5.042300 -10.746300
v -2.108800 2.356500 -7.646500
v 0.003000 2.407900 -12.217600
v 1.501504 82.525894 -13.767401
v 0.000004 80.788795 -18.552898
v 0.000004 82.525894 -19.858099
v -1.498496 82.525894 -13.767401
v 0.000004 82.525894 -19.858099
v 0.000004 80.788795 -18.552898
v 0.000004 80.788795 -18.552898
v 0.000004 80.788795 -14.749300
v -1.498496 82.525894 -13.767401
v 0.000003 77.272102 -11.229600
v -1.498496 82.525894 -13.767401
v 0.000004 80.788795 -14.749300
v 0.000004 80.788795 -14.749300
v 1.501503 77.332596 -8.574000
v 0.000003 77.272102 -11.229600
v 0.000003 72.124100 -11.229600
v 0.000003 77.272102 -11.229600
v 1.501503 77.332596 -8.574000
v 1.501503 77.332596 -8.574000
v 1.501503 72.118004 -8.574000
v 0.000003 72.124100 -11.229600
v 0.000003 69.519798 -13.779500
v 0.000003 72.124100 -11.229600
v 1.501503 72.118004 -8.574000
v 1.501503 72.118004 -8.574000
v 0.000003 66.936806 -13.758300
v 0.000003 69.519798 -13.779500
v -1.498497 72.118004 -8.574000
v 0.000003 69.519798 -13.779500
v 0.000003 66.936806 -13.758300
v 0.000003 66.936806 -13.758300
v 0.000003 66.915604 -11.175301
v -1.498497 72.118004 -8.574000
v 0.000003 69.519798 -8.571000
v -1.498497 72.118004 -8.574000
v 0.000003 66.915604 -11.175301
v 0.000003 66.915604 -11.175301
v 1.501503 72.118004 -8.574000
v 0.000003 69.519798 -8.571000
v 0.000003 69.525894 -1.580100
v 0.000003 69.519798 -8.571000
v 1.501503 72.118004 -8.574000
v 1.501503 72.118004 -8.574000
v 1.501503 72.118004 -1.495500
v 0.000003 69.525894 -1.580100
v 1.501503 70.701096 0.000000
v 0.000003 69.525894 -1.580100
v 1.501503 72.118004 -1.495500
v -2.108800 2.356500 7.652600
v -2.108800 -5.063500 6.021200
v -2.108800 2.356500 7.652600
v 0.003000 2.407900 12.223599
v -2.108800 2.356500 7.652600
v -2.108800 -5.063500 6.021200
v -2.108800 -5.063500 6.021200
v 0.003000 -5.042300 10.752300
v 0.003000 2.407900 12.223599
v 2.114800 -5.063500 6.021200
v 0.003000 2.407900 12.223599
v 0.003000 -5.042300 10.752300
v 0.003000 -5.042300 10.752300
v 0.003000 -7.462300 11.199400
v 2.114800 -5.063500 6.021200
v 0.003000 -8.558900 8.788500
v 2.114800 -5.063500 6.021200
v 0.003000 -7.462300 11.199400
v 0.003000 -7.462300 11.199400
v -2.108800 -5.063500 6.021200
v 0.003000 -8.558900 8.788500
v 0.002999 -12.051400 5.030200
v 0.003000 -8.558900 8.788500
v -2.108800 -5.063500 6.021200
v -2.108800 -5.063500 6.021200
v -1.725101 -10.226600 0.619300
v 0.002999 -12.051400 5.030200
v 0.002999 -13.646600 1.468300
v 0.002999 -12.051400 5.030200
v -1.725101 -10.226600 0.619300
v -1.725101 -10.226600 0.619300
v -1.725101 -14.054399 0.728100
v 0.002999 -13.646600 1.468300
v 0.002999 -14.788599 0.803600
v 0.002999 -13.646600 1.468300
v -1.725101 -14.054399 0.728100
v 2.114800 2.356500 -7.646500
v 2.114800 8.800600 -6.480400
v -2.108799 8.800600 -6.480400
v -2.108799 12.063500 -0.549900
v -2.108799 8.800600 -6.480400
v 2.114800 8.800600 -6.480400
v 2.114800 8.800600 -6.480400
v 2.114800 12.063500 -0.549900
v -2.108799 12.063500 -0.549900
v -2.108799 12.891300 0.000000
v -2.108799 12.063500 -0.549900
v 2.114800 12.063500 -0.549900
v 2.114800 12.063500 -0.549900
v 2.114800 12.891300 0.000000
v -2.108799 12.891300 0.000000
v -2.108799 12.063500 0.555900
v -2.108799 12.891300 0.000000
v 2.114800 12.891300 0.000000
v 2.114800 12.891300 0.000000
v 2.114800 12.063500 0.555900
v -2.108799 12.063500 0.555900
v -2.108799 8.800600 6.486400
v -2.108799 12.063500 0.555900
v 2.114800 12.063500 0.555900
v 2.114800 12.063500 0.555900
v 2.114800 8.800600 6.486400
v -2.108799 8.800600 6.486400
v -2.108800 2.356500 7.652600
v -2.108799 8.800600 6.486400
v 2.114800 8.800600 6.486400
v 2.114800 8.800600 6.486400
v 2.114800 2.356500 7.652600
v -2.108800 2.356500 7.652600
v -2.108800 2.356500 -7.646500
v -2.108800 -5.063500 -6.015100
v 2.114800 -5.063500 -6.015100
v 1.731099 -10.226600 -0.613300
v 2.114800 -5.063500 -6.015100
v -2.108800 -5.063500 -6.015100
v -2.108800 -5.063500 -6.015100
v -1.725101 -10.226600 -0.613300
v 1.731099 -10.226600 -0.613300
v 1.731099 -10.900300 0.000000
v 1.731099 -10.226600 -0.613300
v -1.725101 -10.226600 -0.613300
v -1.725101 -10.226600 -0.613300
v -1.725101 -10.900300 0.000000
v 1.731099 -10.900300 0.000000
v 1.731099 -10.226600 0.619300
v 1.731099 -10.900300 0.000000
v -1.725101 -10.900300 0.000000
v -1.725101 -10.900300 0.000000
v -1.725101 -10.226600 0.619300
v 1.731099 -10.226600 0.619300
v 2.114800 -5.063500 6.021200
v 1.731099 -10.226600 0.619300
v -1.725101 -10.226600 0.619300
v -1.725101 -10.226600 0.619300
v -2.108800 -5.063500 6.021200
v 2.114800 -5.063500 6.021200
v 2.114800 2.356500 7.652600
v 2.114800 -5.063500 6.021200
v -2.108800 -5.063500 6.021200
v -2.108800 -5.063500 6.021200
v -2.108800 2.356500 7.652600
v 2.114800 2.356500 7.652600
v -2.108800 2.356500 -7.646500
v -2.108799 8.800600 -6.480400
v -2.108800 2.356500 -7.646500
v 0.003000 4.613300 -13.447200
v -2.108800 2.356500 -7.646500
v -2.108799 8.800600 -6.480400
v -2.108799 8.800600 -6.480400
v 0.003000 9.912400 -11.991000
v 0.003000 4.613300 -13.447200
v 2.114800 8.800600 -6.480400
v 0.003000 4.613300 -13.447200
v 0.003000 9.912400 -11.991000
v 0.003000 9.912400 -11.991000
v 0.003001 15.462300 -7.546900
v 2.114800 8.800600 -6.480400
v 2.114800 12.063500 -0.549900
v 2.114800 8.800600 -6.480400
v 0.003001 15.462300 -7.546900
v 0.003001 15.462300 -7.546900
v 0.003001 17.879200 -2.278000
v 2.114800 12.063500 -0.549900
v 2.114801 19.652601 -1.812700
v 2.114800 12.063500 -0.549900
v 0.003001 17.879200 -2.278000
v 0.003001 17.879200 -2.278000
v -2.108799 19.652601 -1.812700
v 2.114801 19.652601 -1.812700
v 2.114800 2.356500 7.652600
v 0.003000 4.613300 13.453200
v 0.003000 2.580100 14.779501
v -2.108800 2.356500 7.652600
v 0.003000 2.580100 14.779501
v 0.003000 4.613300 13.453200
v 0.003000 4.613300 13.453200
v 0.003000 9.912400 11.997000
v -2.108800 2.356500 7.652600
v -2.108799 8.800600 6.486400
v -2.108800 2.356500 7.652600
v 0.003000 9.912400 11.997000
v 0.003000 9.912400 11.997000
v 0.003001 15.462300 7.552900
v -2.108799 8.800600 6.486400
v -2.108799 12.063500 0.555900
v -2.108799 8.800600 6.486400
v 0.003001 15.462300 7.552900
v 0.003001 15.462300 7.552900
v 0.003001 17.879200 2.284000
v -2.108799 12.063500 0.555900
v -2.108799 19.652601 1.818700
v -2.108799 12.063500 0.555900
v 0.003001 17.879200 2.284000
v 0.003001 17.879200 2.284000
v 2.114801 19.652601 1.818700
v -2.108799 19.652601 1.818700
v 1.441101 29.395899 0.000000
v 1.507601 31.353600 -1.909400
v -1.504499 31.353600 -1.909400
v -1.857999 33.302200 0.000000
v -1.504499 31.353600 -1.909400
v 1.507601 31.353600 -1.909400
v 1.507601 31.353600 -1.909400
v 1.861001 33.302200 0.000000
v -1.857999 33.302200 0.000000
v -1.504499 31.353600 1.915400
v -1.857999 33.302200 0.000000
v 1.861001 33.302200 0.000000
v 1.861001 33.302200 0.000000
v 1.507601 31.353600 1.915400
v -1.504499 31.353600 1.915400
v -1.438099 29.395899 0.000000
v -1.504499 31.353600 1.915400
v 1.507601 31.353600 1.915400
v 1.507601 31.353600 1.915400
v 1.441101 29.395899 0.000000
v -1.438099 29.395899 0.000000
v -1.504499 31.353600 -1.909400
v -1.438099 29.395899 0.000000
v 1.441101 29.395899 0.000000
v 0.000002 35.707100 1.625400
v 1.861001 33.302200 0.000000
v 1.501503 70.701096 0.000000
v 0.000003 69.525894 -1.580100
v 1.501503 70.701096 0.000000
v 1.861001 33.302200 0.000000
v 1.861001 33.302200 0.000000
v 0.000002 35.707100 -1.619300
v 0.000003 69.525894 -1.580100
v -1.498497 70.701096 0.000000
v 0.000003 69.525894 -1.580100
v 0.000002 35.707100 -1.619300
v 0.000002 35.707100 -1.619300
v -1.857999 33.302200 0.000000
v -1.498497 70.701096 0.000000
v 0.000003 69.525894 1.586100
v -1.498497 70.701096 0.000000
v -1.857999 33.302200 0.000000
v -1.857999 33.302200 0.000000
v 0.000002 35.707100 1.625400
v 0.000003 69.525894 1.586100
v 1.501503 70.701096 0.000000
v 0.000003 69.525894 1.586100
v 0.000002 35.707100 1.625400
v 1.906401 21.788601 0.000000
v 1.728101 24.136000 -2.329300
v -1.725099 24.136000 -2.329300
v -1.873099 26.471401 0.000000
v -1.725099 24.136000 -2.329300
v 1.728101 24.136000 -2.329300
v 1.728101 24.136000 -2.329300
v 1.879201 26.471401 0.000000
v -1.873099 26.471401 0.000000
v -1.725099 24.136000 2.335400
v -1.873099 26.471401 0.000000
v 1.879201 26.471401 0.000000
v 1.879201 26.471401 0.000000
v 1.728101 24.136000 2.335400
v -1.725099 24.136000 2.335400
v -1.900299 21.788601 0.000000
v -1.725099 24.136000 2.335400
v 1.728101 24.136000 2.335400
v 1.728101 24.136000 2.335400
v 1.906401 21.788601 0.000000
v -1.900299 21.788601 0.000000
v -1.725099 24.136000 -2.329300
v -1.900299 21.788601 0.000000
v 1.906401 21.788601 0.000000
v 0.000001 13.099700 1.839900
v -1.833799 13.099700 0.000000
v -0.000000 -11.129900 1.220500
v -1.214500 -11.129900 0.000000
v -0.000000 -11.129900 1.220500
v -1.833799 13.099700 0.000000
v -1.833799 13.099700 0.000000
v 0.000001 13.099700 -1.833800
v -1.214500 -11.129900 0.000000
v -0.000000 -11.129900 -1.214500
v -1.214500 -11.129900 0.000000
v 0.000001 13.099700 -1.833800
v 0.000001 13.099700 -1.833800
v 1.836901 13.099700 0.000000
v -0.000000 -11.129900 -1.214500
v 1.217499 -11.129900 0.000000
v -0.000000 -11.129900 -1.214500
v 1.836901 13.099700 0.000000
v 1.836901 13.099700 0.000000
v 0.000001 13.099700 1.839900
v 1.217499 -11.129900 0.000000
v -0.000000 -11.129900 1.220500
v 1.217499 -11.129900 0.000000
v 0.000001 13.099700 1.839900
v 0.000004 92.994202 4.229600
v -1.498496 92.930801 1.489400
v 1.501504 92.930801 1.489400
v 1.501504 94.347694 0.000000
v 1.501504 92.930801 1.489400
v -1.498496 92.930801 1.489400
v -1.498496 92.930801 1.489400
v -1.498496 94.347694 0.000000
v 1.501504 94.347694 0.000000
v 1.501504 92.936798 -1.495500
v 1.501504 94.347694 0.000000
v -1.498496 94.347694 0.000000
v -1.498496 94.347694 0.000000
v -1.498496 92.936798 -1.495500
v 1.501504 92.936798 -1.495500
v 1.501504 92.936798 -8.574000
v 1.501504 92.936798 -1.495500
v -1.498496 92.936798 -1.495500
v -1.498496 92.936798 -1.495500
v -1.498496 92.936798 -8.574000
v 1.501504 92.936798 -8.574000
v 0.003001 15.462300 7.552900
v 2.114800 12.063500 0.555900
v 0.003001 17.879200 2.284000
v 2.114801 19.652601 1.818700
v 0.003001 17.879200 2.284000
v 2.114800 12.063500 0.555900
v 2.114800 12.063500 0.555900
v 2.114800 12.891300 0.000000
v 2.114801 19.652601 1.818700
v 2.114801 21.063501 0.000000
v 2.114801 19.652601 1.818700
v 2.114800 12.891300 0.000000
v 2.114800 12.891300 0.000000
v 2.114801 19.652601 -1.812700
v 2.114801 21.063501 0.000000
v -2.108799 19.652601 -1.812700
v 2.114801 21.063501 0.000000
v 2.114801 19.652601 -1.812700
v 1.879201 26.471401 0.000000
v 0.000001 28.139099 -2.359500
v 1.441101 29.395899 0.000000
v 1.507601 31.353600 -1.909400
v 1.441101 29.395899 0.000000
v 0.000001 28.139099 -2.359500
v 0.000001 28.139099 -2.359500
v 0.000001 31.353600 -4.818700
v 1.507601 31.353600 -1.909400
v 0.000002 35.707100 -1.619300
v 1.507601 31.353600 -1.909400
v 0.000001 31.353600 -4.818700
v 0.000001 31.353600 -4.818700
v -1.504499 31.353600 -1.909400
v 0.000002 35.707100 -1.619300
v -1.857999 33.302200 0.000000
v 0.000002 35.707100 -1.619300
v -1.504499 31.353600 -1.909400
v -1.873099 26.471401 0.000000
v 0.000001 28.139099 2.365600
v -1.438099 29.395899 0.000000
v -1.504499 31.353600 1.915400
v -1.438099 29.395899 0.000000
v 0.000001 28.139099 2.365600
v 0.000001 28.139099 2.365600
v 0.000001 31.353600 4.821800
v -1.504499 31.353600 1.915400
v 0.000002 35.707100 1.625400
v -1.504499 31.353600 1.915400
v 0.000001 31.353600 4.821800
v 0.000001 31.353600 4.821800
v 1.507601 31.353600 1.915400
v 0.000002 35.707100 1.625400
v 1.861001 33.302200 0.000000
v 0.000002 35.707100 1.625400
v 1.507601 31.353600 1.915400
v 1.501504 92.936798 -8.574000
v 1.501504 87.722305 -8.574000
v 0.000004 92.927803 -11.229600
v 0.000004 87.779701 -11.229600
v 0.000004 92.927803 -11.229600
v 1.501504 87.722305 -8.574000
v 1.501504 87.722305 -8.574000
v 1.501504 82.525894 -13.767401
v 0.000004 87.779701 -11.229600
v 0.000004 84.263100 -14.749300
v 0.000004 87.779701 -11.229600
v 1.501504 82.525894 -13.767401
v 1.501504 82.525894 -13.767401
v 0.000004 84.263100 -18.552898
v 0.000004 84.263100 -14.749300
v 1.879201 26.471401 0.000000
v 1.728101 24.136000 -2.329300
v 0.000001 28.139099 -2.359500
v 0.000001 24.136000 -6.187300
v 0.000001 28.139099 -2.359500
v 1.728101 24.136000 -2.329300
v 1.728101 24.136000 -2.329300
v 1.906401 21.788601 0.000000
v 0.000001 24.136000 -6.187300
v 0.000001 19.652601 -1.812700
v 0.000001 24.136000 -6.187300
v 1.906401 21.788601 0.000000
v 1.906401 21.788601 0.000000
v 1.939601 21.063501 0.000000
v 0.000001 19.652601 -1.812700
v 0.002999 -14.815800 0.000000
v 1.731099 -14.238700 0.000000
v 0.002999 -14.788599 0.803600
v 1.731099 -14.054399 0.728100
v 0.002999 -14.788599 0.803600
v 1.731099 -14.238700 0.000000
v 1.731099 -14.238700 0.000000
v 1.731099 -10.226600 0.619300
v 1.731099 -14.054399 0.728100
v 0.002999 -13.646600 1.468300
v 1.731099 -14.054399 0.728100
v 1.731099 -10.226600 0.619300
v 1.731099 -10.226600 0.619300
v 0.002999 -12.051400 5.030200
v 0.002999 -13.646600 1.468300
v -1.504499 31.353600 -1.909400
v 0.000001 28.139099 -2.359500
v -1.438099 29.395899 0.000000
v -1.873099 26.471401 0.000000
v -1.438099 29.395899 0.000000
v 0.000001 28.139099 -2.359500
v 0.000001 28.139099 -2.359500
v 0.000001 24.136000 -6.187300
v -1.873099 26.471401 0.000000
v -1.725099 24.136000 -2.329300
v -1.873099 26.471401 0.000000
v 0.000001 24.136000 -6.187300
v 0.000001 24.136000 -6.187300
v -1.900299 21.788601 0.000000
v -1.725099 24.136000 -2.329300
v 1.507601 31.353600 1.915400
v 0.000001 28.139099 2.365600
v 1.441101 29.395899 0.000000
v 1.879201 26.471401 0.000000
v 1.441101 29.395899 0.000000
v 0.000001 28.139099 2.365600
v 0.000001 28.139099 2.365600
v 0.000001 24.136000 6.193400
v 1.879201 26.471401 0.000000
v 1.728101 24.136000 2.335400
v 1.879201 26.471401 0.000000
v 0.000001 24.136000 6.193400
v 0.000001 24.136000 6.193400
v 1.906401 21.788601 0.000000
v 1.728101 24.136000 2.335400
v -1.873099 26.471401 0.000000
v -1.725099 24.136000 2.335400
v 0.000001 28.139099 2.365600
v 0.000001 24.136000 6.193400
v 0.000001 28.139099 2.365600
v -1.725099 24.136000 2.335400
v -1.725099 24.136000 2.335400
v -1.900299 21.788601 0.000000
v 0.000001 24.136000 6.193400
v 0.000001 19.652601 1.818700
v 0.000001 24.136000 6.193400
v -1.900299 21.788601 0.000000
v -1.900299 21.788601 0.000000
v -1.936599 21.063501 0.000000
v 0.000001 19.652601 1.818700
v -1.498497 72.124100 1.489400
v 0.000003 69.519798 2.936600
v 0.000003 72.057602 4.229600
v 1.501503 72.124100 1.489400
v 0.000003 72.057602 4.229600
v 0.000003 69.519798 2.936600
v 0.000003 69.519798 2.936600
v 0.000003 69.525894 1.586100
v 1.501503 72.124100 1.489400
v 1.501503 70.701096 0.000000
v 1.501503 72.124100 1.489400
v 0.000003 69.525894 1.586100
v 0.000004 82.525894 -2.069500
v 0.000004 82.525894 2.075500
v 0.000004 84.444397 -1.069500
v 0.000004 84.444397 1.075500
v 0.000004 84.444397 -1.069500
v 0.000004 82.525894 2.075500
v 0.000004 82.525894 2.075500
v 0.000004 82.525894 -2.069500
v 0.000004 84.444397 1.075500
v 0.000004 84.444397 -1.069500
v 0.000004 84.444397 1.075500
v 0.000004 82.525894 -2.069500
v 1.501504 94.347694 0.000000
v 0.000004 95.556198 1.737200
v 1.501504 92.930801 1.489400
v 0.000004 95.531998 2.936600
v 1.501504 92.930801 1.489400
v 0.000004 95.556198 1.737200
v 0.000004 95.556198 1.737200
v -1.498496 92.930801 1.489400
v 0.000004 95.531998 2.936600
v 0.000004 92.994202 4.229600
v 0.000004 95.531998 2.936600
v -1.498496 92.930801 1.489400
v -1.498497 72.124100 1.489400
v 1.501503 70.701096 0.000000
v -1.498497 70.701096 0.000000
v -1.498497 72.118004 -1.495500
v -1.498497 70.701096 0.000000
v 1.501503 70.701096 0.000000
v 1.501503 70.701096 0.000000
v 1.501503 72.118004 -1.495500
v -1.498497 72.118004 -1.495500
v 1.501503 72.118004 -8.574000
v -1.498497 72.118004 -1.495500
v 1.501503 72.118004 -1.495500
v 1.501504 82.525894 -13.767401
v 1.501504 87.722305 -8.574000
v -1.498496 82.525894 -13.767401
v -1.498496 87.722305 -8.574000
v -1.498496 82.525894 -13.767401
v 1.501504 87.722305 -8.574000
v 1.501504 87.722305 -8.574000
v 1.501504 92.936798 -8.574000
v -1.498496 87.722305 -8.574000
v -1.498496 92.936798 -8.574000
v -1.498496 87.722305 -8.574000
v 1.501504 92.936798 -8.574000
v 0.000003 73.281197 -1.069500
v 0.000003 73.281197 1.075500
v 0.000004 80.607498 -1.069500
v 0.000004 80.607498 1.075500
v 0.000004 80.607498 -1.069500
v 0.000003 73.281197 1.075500
v 0.000003 73.281197 1.075500
v 0.000003 73.281197 -1.069500
v 0.000004 80.607498 1.075500
v 0.000004 80.607498 -1.069500
v 0.000004 80.607498 1.075500
v 0.000003 73.281197 -1.069500
v -1.498496 82.525894 -13.767401
v 0.000003 77.272102 -11.229600
v -1.498497 77.332596 -8.574000
v -1.498497 72.118004 -8.574000
v -1.498497 77.332596 -8.574000
v 0.000003 77.272102 -11.229600
v 0.000003 77.272102 -11.229600
v 0.000003 72.124100 -11.229600
v -1.498497 72.118004 -8.574000
v 0.000003 69.519798 -13.779500
v -1.498497 72.118004 -8.574000
v 0.000003 72.124100 -11.229600
v 0.000004 87.761597 -8.574000
v 0.000004 92.936798 -3.404800
v 0.000004 87.761597 -3.404800
v 0.000004 92.936798 -8.574000
v 0.000004 87.761597 -3.404800
v 0.000004 92.936798 -3.404800
v 0.000004 92.936798 -3.404800
v 0.000004 87.761597 -8.574000
v 0.000004 92.936798 -8.574000
v 0.000004 87.761597 -3.404800
v 0.000004 92.936798 -8.574000
v 0.000004 87.761597 -8.574000
v 0.003001 17.879200 -2.278000
v -2.108799 12.063500 -0.549900
v -2.108799 19.652601 -1.812700
v -2.108799 21.063501 0.000000
v -2.108799 19.652601 -1.812700
v -2.108799 12.063500 -0.549900
v -2.108799 12.063500 -0.549900
v -2.108799 12.891300 0.000000
v -2.108799 21.063501 0.000000
v -2.108799 12.063500 0.555900
v -2.108799 21.063501 0.000000
v -2.108799 12.891300 0.000000
v 0.000004 82.525894 2.075500
v 0.000004 82.525894 -2.069500
v 0.000004 80.607498 1.075500
v 0.000004 80.607498 -1.069500
v 0.000004 80.607498 1.075500
v 0.000004 82.525894 -2.069500
v 0.000004 82.525894 -2.069500
v 0.000004 82.525894 2.075500
v 0.000004 80.607498 -1.069500
v 0.000004 80.607498 1.075500
v 0.000004 80.607498 -1.069500
v 0.000004 82.525894 2.075500
v 0.000004 91.770706 -1.069500
v 0.000004 91.770706 1.075500
v 0.000004 84.444397 -1.069500
v 0.000004 84.444397 1.075500
v 0.000004 84.444397 -1.069500
v 0.000004 91.770706 1.075500
v 0.000004 91.770706 1.075500
v 0.000004 91.770706 -1.069500
v 0.000004 84.444397 1.075500
v 0.000004 84.444397 -1.069500
v 0.000004 84.444397 1.075500
v 0.000004 91.770706 -1.069500
v 0.000004 82.525894 -3.897300
v 0.000004 82.525894 -13.767401
v 0.000003 77.592400 -8.833900
v 0.000004 87.462502 -8.833900
v 0.000003 77.592400 -8.833900
v 0.000004 82.525894 -13.767401
v 0.000004 82.525894 -13.767401
v 0.000004 82.525894 -3.897300
v 0.000004 87.462502 -8.833900
v 0.000003 77.592400 -8.833900
v 0.000004 87.462502 -8.833900
v 0.000004 82.525894 -3.897300
v 0.000003 72.118004 -3.404800
v 0.000003 77.332596 -8.574000
v 0.000003 72.118004 -8.574000
v 0.000003 77.332596 -3.404800
v 0.000003 72.118004 -8.574000
v 0.000003 77.332596 -8.574000
v 0.000003 77.332596 -8.574000
v 0.000003 72.118004 -3.404800
v 0.000003 77.332596 -3.404800
v 0.000003 72.118004 -8.574000
v 0.000003 77.332596 -3.404800
v 0.000003 72.118004 -3.404800
v 0.003001 17.879200 -2.278000
v 0.003001 15.462300 -7.546900
v -2.108799 12.063500 -0.549900
v -2.108799 8.800600 -6.480400
v -2.108799 12.063500 -0.549900
v 0.003001 15.462300 -7.546900
v 0.003001 15.462300 -7.546900
v 0.003000 9.912400 -11.991000
v -2.108799 8.800600 -6.480400
v -1.498496 82.525894 -13.767401
v -1.498497 77.332596 -8.574000
v 1.501504 82.525894 -13.767401
v 1.501503 77.332596 -8.574000
v 1.501504 82.525894 -13.767401
v -1.498497 77.332596 -8.574000
v -1.498497 77.332596 -8.574000
v 1.501503 72.118004 -8.574000
v 1.501503 77.332596 -8.574000
v 0.002999 -14.788599 -0.797600
v -1.725101 -14.238700 0.000000
v -1.725101 -14.054399 -0.722100
v -1.725101 -10.226600 -0.613300
v -1.725101 -14.054399 -0.722100
v -1.725101 -14.238700 0.000000
v -1.725101 -14.238700 0.000000
v -1.725101 -10.900300 0.000000
v -1.725101 -10.226600 -0.613300
v -1.498497 70.701096 0.000000
v -1.498497 72.118004 -1.495500
v 0.000003 69.525894 -1.580100
v 0.000003 69.519798 -8.571000
v 0.000003 69.525894 -1.580100
v -1.498497 72.118004 -1.495500
v -1.498497 72.118004 -1.495500
v -1.498497 72.118004 -8.574000
v 0.000003 69.519798 -8.571000
v -2.108800 2.356500 -7.646500
v 0.003000 4.613300 -13.447200
v 0.003000 2.580100 -14.773500
v 2.114800 2.356500 -7.646500
v 0.003000 2.580100 -14.773500
v 0.003000 4.613300 -13.447200
v 0.003000 4.613300 -13.447200
v 2.114800 8.800600 -6.480400
v 2.114800 2.356500 -7.646500
v 0.003001 15.462300 7.552900
v 0.003000 9.912400 11.997000
v 2.114800 8.800600 6.486400
v 2.114800 2.356500 7.652600
v 2.114800 8.800600 6.486400
v 0.003000 9.912400 11.997000
v 0.003000 9.912400 11.997000
v 0.003000 4.613300 13.453200
v 2.114800 2.356500 7.652600
v 0.000004 95.531998 -8.571000
v 0.000004 95.556198 -1.731100
v 1.501504 92.936798 -8.574000
v 1.501504 92.936798 -1.495500
v 1.501504 92.936798 -8.574000
v 0.000004 95.556198 -1.731100
v 0.000004 95.556198 -1.731100
v 1.501504 94.347694 0.000000
v 1.501504 92.936798 -1.495500
v 0.002999 -13.646600 -1.462200
v 0.002999 -12.051400 -5.024200
v 1.731099 -10.226600 -0.613300
v 2.114800 -5.063500 -6.015100
v 1.731099 -10.226600 -0.613300
v 0.002999 -12.051400 -5.024200
v 0.002999 -12.051400 -5.024200
v 0.003000 -8.558900 -8.782500
v 2.114800 -5.063500 -6.015100
v -2.108799 19.652601 -1.812700
v -2.108799 21.063501 0.000000
v 2.114801 21.063501 0.000000
v 2.114801 19.652601 1.818700
v 2.114801 21.063501 0.000000
v -2.108799 21.063501 0.000000
v -2.108799 21.063501 0.000000
v -2.108799 19.652601 1.818700
v 2.114801 19.652601 1.818700
v 0.002999 -14.788599 -0.797600
v -0.000001 -15.879200 -0.722100
v 0.002999 -14.815800 0.000000
v 0.002999 -14.815800 0.000000
v -0.000001 -15.879200 -0.722100
v 0.002999 -14.788599 -0.797600
v -0.000001 -15.879200 -0.722100
v -0.000001 -15.879200 0.728100
v 0.002999 -14.815800 0.000000
v -0.000001 -15.879200 0.728100
v -0.000001 -15.879200 -0.722100
v 0.002999 -14.815800 0.000000
v 0.002999 -14.788599 0.803600
v -0.000001 -15.879200 0.728100
v 0.002999 -14.815800 0.000000
v 0.002999 -14.788599 0.803600
v 0.002999 -14.815800 0.000000
v -0.000001 -15.879200 0.728100
vt 0.380603 0.813598
vt 0.380603 0.986826
vt 0.404225 0.845094
vt 0.380603 0.813598
vt 0.404225 0.845094
vt 0.380603 0.986826
vt 0.640445 0.939582
vt 0.664067 0.986826
vt 0.640445 0.845094
vt 0.640445 0.939582
vt 0.640445 0.845094
vt 0.664067 0.986826
vt 0.782178 0.120684
vt 0.750682 0.026196
vt 0.703437 0.278165
vt 0.774304 0.026196
vt 0.750682 0.026196
vt 0.782178 0.120684
vt 0.994776 0.876590
vt 0.963280 0.923834
vt 0.994776 0.923834
vt 0.963280 0.923834
vt 0.979028 0.986826
vt 0.994776 0.923834
vt 0.813674 0.750605
vt 0.813674 0.939582
vt 0.860918 0.971078
vt 0.679815 0.813598
vt 0.813674 0.939582
vt 0.813674 0.750605
vt 0.971154 0.498637
vt 0.900288 0.498637
vt 0.971154 0.435645
vt 0.908162 0.435645
vt 0.971154 0.435645
vt 0.900288 0.498637
vt 0.309737 0.530133
vt 0.199500 0.640369
vt 0.215248 0.703361
vt 0.128634 0.640369
vt 0.215248 0.703361
vt 0.199500 0.640369
vt 0.514461 0.372653
vt 0.490839 0.435645
vt 0.490839 0.372653
vt 0.459343 0.404149
vt 0.490839 0.372653
vt 0.490839 0.435645
vt 0.703437 0.467141
vt 0.782178 0.309661
vt 0.750682 0.215172
vt 0.774304 0.215172
vt 0.750682 0.215172
vt 0.782178 0.309661
vt 0.380603 0.986826
vt 0.404225 0.845094
vt 0.404225 0.939582
vt 0.380603 0.986826
vt 0.404225 0.939582
vt 0.404225 0.845094
vt 0.813674 0.750605
vt 0.931784 0.687613
vt 0.900288 0.498637
vt 0.868792 0.845094
vt 0.931784 0.687613
vt 0.813674 0.750605
vt 0.664067 0.813598
vt 0.640445 0.845094
vt 0.664067 0.986826
vt 0.664067 0.813598
vt 0.664067 0.986826
vt 0.640445 0.845094
vt 0.908162 0.435645
vt 0.900288 0.498637
vt 0.971154 0.435645
vt 0.908162 0.435645
vt 0.971154 0.435645
vt 0.900288 0.498637
vt 0.813674 0.750605
vt 0.679815 0.986826
vt 0.679815 0.813598
vt 0.813674 0.750605
vt 0.679815 0.813598
vt 0.679815 0.813598
vt 0.679815 0.813598
vt 0.813674 0.750605
vt 0.679815 0.813598
vt 0.679815 0.986826
vt 0.813674 0.750605
vt 0.679815 0.813598
vt 0.585327 0.435645
vt 0.640445 0.309661
vt 0.585327 0.309661
vt 0.585327 0.230920
vt 0.640445 0.120684
vt 0.585327 0.120684
vt 0.585327 0.309661
vt 0.506587 0.278165
vt 0.545957 0.215172
vt 0.813674 0.750605
vt 0.860918 0.971078
vt 0.813674 0.939582
vt 0.916036 0.813598
vt 0.947532 0.971078
vt 0.884540 0.971078
vt 0.916036 0.813598
vt 0.884540 0.971078
vt 0.947532 0.971078
vt 0.821548 0.183676
vt 0.876666 0.498637
vt 0.774304 0.467141
vt 0.112886 0.026196
vt 0.112886 0.120684
vt 0.207374 0.183676
vt 0.396351 0.026196
vt 0.364855 0.010448
vt 0.364855 0.152180
vt 0.419973 0.120684
vt 0.443595 0.183676
vt 0.396351 0.183676
vt 0.333359 0.026196
vt 0.364855 0.152180
vt 0.333359 0.104936
vt 0.207374 0.104936
vt 0.207374 0.183676
vt 0.160130 0.026196
vt 0.215248 0.215172
vt 0.309737 0.372653
vt 0.262493 0.215172
vt 0.632571 0.797850
vt 0.538083 0.656117
vt 0.632571 0.656117
vt 0.939658 0.120684
vt 0.821548 0.183676
vt 0.939658 0.215172
vt 0.900288 0.498637
vt 0.994776 0.530133
vt 0.971154 0.498637
vt 0.002650 0.561629
vt 0.089264 0.624621
vt 0.002650 0.624621
vt 0.585327 0.120684
vt 0.506587 0.089188
vt 0.545957 0.026196
vt 0.427847 0.467141
vt 0.522335 0.608873
vt 0.427847 0.608873
vt 0.963280 0.829346
vt 0.994776 0.608873
vt 0.963280 0.608873
vt 0.971154 0.498637
vt 0.963280 0.561629
vt 0.994776 0.530133
vt 0.664067 0.530133
vt 0.664067 0.530133
vt 0.664067 0.530133
vt 0.939658 0.215172
vt 0.829422 0.120684
vt 0.821548 0.183676
vt 0.396351 0.183676
vt 0.396351 0.120684
vt 0.364855 0.152180
vt 0.396351 0.026196
vt 0.364855 0.152180
vt 0.396351 0.120684
vt 0.396351 0.120684
vt 0.364855 0.152180
vt 0.396351 0.026196
vt 0.364855 0.010448
vt 0.396351 0.026196
vt 0.364855 0.152180
vt 0.364855 0.152180
vt 0.333359 0.026196
vt 0.364855 0.010448
vt 0.364855 0.152180
vt 0.364855 0.010448
vt 0.333359 0.026196
vt 0.333359 0.026196
vt 0.333359 0.104936
vt 0.364855 0.152180
vt 0.341233 0.183676
vt 0.364855 0.152180
vt 0.333359 0.104936
vt 0.333359 0.104936
vt 0.207374 0.104936
vt 0.341233 0.183676
vt 0.207374 0.183676
vt 0.341233 0.183676
vt 0.207374 0.104936
vt 0.207374 0.104936
vt 0.160130 0.026196
vt 0.207374 0.183676
vt 0.112886 0.026196
vt 0.207374 0.183676
vt 0.160130 0.026196
vt 0.160130 0.026196
vt 0.207374 0.183676
vt 0.112886 0.026196
vt 0.112886 0.120684
vt 0.112886 0.026196
vt 0.207374 0.183676
vt 0.207374 0.183676
vt 0.160130 0.183676
vt 0.112886 0.120684
vt 0.207374 0.183676
vt 0.112886 0.120684
vt 0.160130 0.183676
vt 0.160130 0.183676
vt 0.160130 0.341157
vt 0.207374 0.183676
vt 0.207374 0.341157
vt 0.207374 0.183676
vt 0.160130 0.341157
vt 0.160130 0.341157
vt 0.097138 0.451393
vt 0.207374 0.341157
vt 0.112886 0.530133
vt 0.207374 0.341157
vt 0.097138 0.451393
vt 0.097138 0.451393
vt 0.026272 0.451393
vt 0.112886 0.530133
vt 0.002650 0.530133
vt 0.112886 0.530133
vt 0.026272 0.451393
vt 0.026272 0.451393
vt 0.112886 0.530133
vt 0.002650 0.530133
vt 0.971154 0.498637
vt 0.971154 0.435645
vt 0.994776 0.498637
vt 0.994776 0.435645
vt 0.994776 0.498637
vt 0.971154 0.435645
vt 0.971154 0.435645
vt 0.994776 0.498637
vt 0.994776 0.435645
vt 0.971154 0.435645
vt 0.994776 0.435645
vt 0.994776 0.498637
vt 0.994776 0.498637
vt 0.971154 0.498637
vt 0.971154 0.435645
vt 0.900288 0.498637
vt 0.971154 0.435645
vt 0.971154 0.498637
vt 0.971154 0.498637
vt 0.994776 0.530133
vt 0.900288 0.498637
vt 0.963280 0.561629
vt 0.900288 0.498637
vt 0.994776 0.530133
vt 0.994776 0.530133
vt 0.900288 0.498637
vt 0.963280 0.561629
vt 0.931784 0.687613
vt 0.963280 0.561629
vt 0.900288 0.498637
vt 0.900288 0.498637
vt 0.813674 0.750605
vt 0.931784 0.687613
vt 0.868792 0.845094
vt 0.931784 0.687613
vt 0.813674 0.750605
vt 0.813674 0.750605
vt 0.860918 0.971078
vt 0.868792 0.845094
vt 0.813674 0.750605
vt 0.868792 0.845094
vt 0.860918 0.971078
vt 0.860918 0.971078
vt 0.813674 0.939582
vt 0.813674 0.750605
vt 0.679815 0.986826
vt 0.813674 0.750605
vt 0.813674 0.939582
vt 0.813674 0.939582
vt 0.679815 0.813598
vt 0.679815 0.986826
vt 0.215248 0.703361
vt 0.128634 0.640369
vt 0.105012 0.703361
vt 0.215248 0.703361
vt 0.105012 0.703361
vt 0.128634 0.640369
vt 0.128634 0.640369
vt 0.199500 0.640369
vt 0.215248 0.703361
vt 0.262493 0.530133
vt 0.215248 0.703361
vt 0.199500 0.640369
vt 0.199500 0.640369
vt 0.309737 0.530133
vt 0.262493 0.530133
vt 0.262493 0.372653
vt 0.262493 0.530133
vt 0.309737 0.530133
vt 0.309737 0.530133
vt 0.309737 0.372653
vt 0.262493 0.372653
vt 0.215248 0.278165
vt 0.262493 0.372653
vt 0.309737 0.372653
vt 0.309737 0.372653
vt 0.215248 0.215172
vt 0.215248 0.278165
vt 0.309737 0.372653
vt 0.215248 0.278165
vt 0.215248 0.215172
vt 0.215248 0.215172
vt 0.262493 0.215172
vt 0.309737 0.372653
vt 0.309737 0.293913
vt 0.309737 0.372653
vt 0.262493 0.215172
vt 0.262493 0.215172
vt 0.309737 0.372653
vt 0.309737 0.293913
vt 0.443595 0.293913
vt 0.309737 0.293913
vt 0.309737 0.372653
vt 0.309737 0.372653
vt 0.443595 0.372653
vt 0.443595 0.293913
vt 0.467217 0.341157
vt 0.443595 0.293913
vt 0.443595 0.372653
vt 0.679815 0.813598
vt 0.813674 0.750605
vt 0.679815 0.813598
vt 0.679815 0.986826
vt 0.679815 0.813598
vt 0.813674 0.750605
vt 0.813674 0.750605
vt 0.813674 0.939582
vt 0.679815 0.986826
vt 0.813674 0.750605
vt 0.679815 0.986826
vt 0.813674 0.939582
vt 0.813674 0.939582
vt 0.860918 0.971078
vt 0.813674 0.750605
vt 0.868792 0.845094
vt 0.813674 0.750605
vt 0.860918 0.971078
vt 0.860918 0.971078
vt 0.813674 0.750605
vt 0.868792 0.845094
vt 0.931784 0.687613
vt 0.868792 0.845094
vt 0.813674 0.750605
vt 0.813674 0.750605
vt 0.900288 0.498637
vt 0.931784 0.687613
vt 0.963280 0.561629
vt 0.931784 0.687613
vt 0.900288 0.498637
vt 0.900288 0.498637
vt 0.971154 0.498637
vt 0.963280 0.561629
vt 0.994776 0.530133
vt 0.963280 0.561629
vt 0.971154 0.498637
vt 0.632571 0.797850
vt 0.538083 0.797850
vt 0.538083 0.656117
vt 0.443595 0.656117
vt 0.538083 0.656117
vt 0.538083 0.797850
vt 0.538083 0.797850
vt 0.443595 0.797850
vt 0.443595 0.656117
vt 0.427847 0.656117
vt 0.443595 0.656117
vt 0.443595 0.797850
vt 0.443595 0.797850
vt 0.427847 0.797850
vt 0.427847 0.656117
vt 0.443595 0.656117
vt 0.427847 0.656117
vt 0.427847 0.797850
vt 0.427847 0.797850
vt 0.443595 0.797850
vt 0.443595 0.656117
vt 0.538083 0.656117
vt 0.443595 0.656117
vt 0.443595 0.797850
vt 0.443595 0.797850
vt 0.538083 0.797850
vt 0.538083 0.656117
vt 0.632571 0.656117
vt 0.538083 0.656117
vt 0.538083 0.797850
vt 0.538083 0.797850
vt 0.632571 0.797850
vt 0.632571 0.656117
vt 0.427847 0.467141
vt 0.522335 0.467141
vt 0.522335 0.608873
vt 0.624697 0.608873
vt 0.522335 0.608873
vt 0.522335 0.467141
vt 0.522335 0.467141
vt 0.624697 0.467141
vt 0.624697 0.608873
vt 0.640445 0.608873
vt 0.624697 0.608873
vt 0.624697 0.467141
vt 0.624697 0.467141
vt 0.640445 0.467141
vt 0.640445 0.608873
vt 0.624697 0.608873
vt 0.640445 0.608873
vt 0.640445 0.467141
vt 0.640445 0.467141
vt 0.624697 0.467141
vt 0.624697 0.608873
vt 0.522335 0.608873
vt 0.624697 0.608873
vt 0.624697 0.467141
vt 0.624697 0.467141
vt 0.522335 0.467141
vt 0.522335 0.608873
vt 0.427847 0.608873
vt 0.522335 0.608873
vt 0.522335 0.467141
vt 0.522335 0.467141
vt 0.427847 0.467141
vt 0.427847 0.608873
vt 0.664067 0.530133
vt 0.774304 0.467141
vt 0.664067 0.530133
vt 0.703437 0.750605
vt 0.664067 0.530133
vt 0.774304 0.467141
vt 0.774304 0.467141
vt 0.790052 0.687613
vt 0.703437 0.750605
vt 0.774304 0.467141
vt 0.703437 0.750605
vt 0.790052 0.687613
vt 0.790052 0.687613
vt 0.876666 0.498637
vt 0.774304 0.467141
vt 0.821548 0.183676
vt 0.774304 0.467141
vt 0.876666 0.498637
vt 0.876666 0.498637
vt 0.916036 0.309661
vt 0.821548 0.183676
vt 0.939658 0.215172
vt 0.821548 0.183676
vt 0.916036 0.309661
vt 0.916036 0.309661
vt 0.939658 0.215172
vt 0.939658 0.215172
vt 0.664067 0.530133
vt 0.703437 0.750605
vt 0.664067 0.782102
vt 0.664067 0.530133
vt 0.664067 0.782102
vt 0.703437 0.750605
vt 0.703437 0.750605
vt 0.790052 0.687613
vt 0.664067 0.530133
vt 0.774304 0.467141
vt 0.664067 0.530133
vt 0.790052 0.687613
vt 0.790052 0.687613
vt 0.876666 0.498637
vt 0.774304 0.467141
vt 0.821548 0.183676
vt 0.774304 0.467141
vt 0.876666 0.498637
vt 0.876666 0.498637
vt 0.916036 0.309661
vt 0.821548 0.183676
vt 0.939658 0.215172
vt 0.821548 0.183676
vt 0.916036 0.309661
vt 0.916036 0.309661
vt 0.939658 0.215172
vt 0.939658 0.215172
vt 0.412099 0.782102
vt 0.349107 0.782102
vt 0.349107 0.624621
vt 0.286115 0.624621
vt 0.349107 0.624621
vt 0.349107 0.782102
vt 0.349107 0.782102
vt 0.286115 0.782102
vt 0.286115 0.624621
vt 0.349107 0.624621
vt 0.286115 0.624621
vt 0.286115 0.782102
vt 0.286115 0.782102
vt 0.349107 0.782102
vt 0.349107 0.624621
vt 0.412099 0.624621
vt 0.349107 0.624621
vt 0.349107 0.782102
vt 0.349107 0.782102
vt 0.412099 0.782102
vt 0.412099 0.624621
vt 0.349107 0.624621
vt 0.412099 0.624621
vt 0.412099 0.782102
vt 0.349107 0.860842
vt 0.372729 0.923834
vt 0.002650 0.923834
vt 0.010524 0.986826
vt 0.002650 0.923834
vt 0.372729 0.923834
vt 0.372729 0.923834
vt 0.349107 0.986826
vt 0.010524 0.986826
vt 0.002650 0.923834
vt 0.010524 0.986826
vt 0.349107 0.986826
vt 0.349107 0.986826
vt 0.372729 0.923834
vt 0.002650 0.923834
vt 0.010524 0.860842
vt 0.002650 0.923834
vt 0.372729 0.923834
vt 0.372729 0.923834
vt 0.349107 0.860842
vt 0.010524 0.860842
vt 0.002650 0.923834
vt 0.010524 0.860842
vt 0.349107 0.860842
vt 0.412099 0.782102
vt 0.349107 0.782102
vt 0.349107 0.624621
vt 0.286115 0.624621
vt 0.349107 0.624621
vt 0.349107 0.782102
vt 0.349107 0.782102
vt 0.286115 0.782102
vt 0.286115 0.624621
vt 0.349107 0.624621
vt 0.286115 0.624621
vt 0.286115 0.782102
vt 0.286115 0.782102
vt 0.349107 0.782102
vt 0.349107 0.624621
vt 0.412099 0.624621
vt 0.349107 0.624621
vt 0.349107 0.782102
vt 0.349107 0.782102
vt 0.412099 0.782102
vt 0.412099 0.624621
vt 0.349107 0.624621
vt 0.412099 0.624621
vt 0.412099 0.782102
vt 0.018398 0.703361
vt 0.018398 0.813598
vt 0.254619 0.766354
vt 0.254619 0.813598
vt 0.254619 0.766354
vt 0.018398 0.813598
vt 0.018398 0.813598
vt 0.018398 0.703361
vt 0.254619 0.813598
vt 0.254619 0.766354
vt 0.254619 0.813598
vt 0.018398 0.703361
vt 0.018398 0.703361
vt 0.018398 0.813598
vt 0.254619 0.766354
vt 0.254619 0.813598
vt 0.254619 0.766354
vt 0.018398 0.813598
vt 0.018398 0.813598
vt 0.018398 0.703361
vt 0.254619 0.813598
vt 0.254619 0.766354
vt 0.254619 0.813598
vt 0.018398 0.703361
vt 0.301863 0.230920
vt 0.333359 0.199424
vt 0.333359 0.262417
vt 0.356981 0.262417
vt 0.333359 0.262417
vt 0.333359 0.199424
vt 0.333359 0.199424
vt 0.356981 0.199424
vt 0.356981 0.262417
vt 0.372729 0.262417
vt 0.356981 0.262417
vt 0.356981 0.199424
vt 0.356981 0.199424
vt 0.372729 0.199424
vt 0.372729 0.262417
vt 0.482965 0.262417
vt 0.372729 0.262417
vt 0.372729 0.199424
vt 0.372729 0.199424
vt 0.482965 0.199424
vt 0.482965 0.262417
vt 0.876666 0.498637
vt 0.821548 0.183676
vt 0.916036 0.309661
vt 0.939658 0.215172
vt 0.916036 0.309661
vt 0.821548 0.183676
vt 0.821548 0.183676
vt 0.829422 0.120684
vt 0.939658 0.215172
vt 0.939658 0.120684
vt 0.939658 0.215172
vt 0.829422 0.120684
vt 0.829422 0.120684
vt 0.939658 0.215172
vt 0.939658 0.120684
vt 0.986902 0.215172
vt 0.939658 0.120684
vt 0.939658 0.215172
vt 0.664067 0.215172
vt 0.640445 0.309661
vt 0.616823 0.215172
vt 0.585327 0.309661
vt 0.616823 0.215172
vt 0.640445 0.309661
vt 0.640445 0.309661
vt 0.585327 0.435645
vt 0.585327 0.309661
vt 0.506587 0.278165
vt 0.585327 0.309661
vt 0.585327 0.435645
vt 0.585327 0.435645
vt 0.585327 0.309661
vt 0.506587 0.278165
vt 0.545957 0.215172
vt 0.506587 0.278165
vt 0.585327 0.309661
vt 0.664067 0.026196
vt 0.640445 0.120684
vt 0.616823 0.026196
vt 0.585327 0.120684
vt 0.616823 0.026196
vt 0.640445 0.120684
vt 0.640445 0.120684
vt 0.585327 0.230920
vt 0.585327 0.120684
vt 0.506587 0.089188
vt 0.585327 0.120684
vt 0.585327 0.230920
vt 0.585327 0.230920
vt 0.585327 0.120684
vt 0.506587 0.089188
vt 0.545957 0.026196
vt 0.506587 0.089188
vt 0.585327 0.120684
vt 0.207374 0.183676
vt 0.207374 0.341157
vt 0.160130 0.183676
vt 0.160130 0.341157
vt 0.160130 0.183676
vt 0.207374 0.341157
vt 0.207374 0.341157
vt 0.112886 0.530133
vt 0.160130 0.341157
vt 0.097138 0.451393
vt 0.160130 0.341157
vt 0.112886 0.530133
vt 0.112886 0.530133
vt 0.026272 0.451393
vt 0.097138 0.451393
vt 0.664067 0.215172
vt 0.703437 0.309661
vt 0.640445 0.309661
vt 0.703437 0.467141
vt 0.640445 0.309661
vt 0.703437 0.309661
vt 0.703437 0.309661
vt 0.750682 0.215172
vt 0.703437 0.467141
vt 0.782178 0.309661
vt 0.703437 0.467141
vt 0.750682 0.215172
vt 0.750682 0.215172
vt 0.774304 0.215172
vt 0.782178 0.309661
vt 0.994776 0.435645
vt 0.971154 0.435645
vt 0.994776 0.498637
vt 0.971154 0.498637
vt 0.994776 0.498637
vt 0.971154 0.435645
vt 0.971154 0.435645
vt 0.900288 0.498637
vt 0.971154 0.498637
vt 0.963280 0.561629
vt 0.971154 0.498637
vt 0.900288 0.498637
vt 0.900288 0.498637
vt 0.931784 0.687613
vt 0.963280 0.561629
vt 0.585327 0.309661
vt 0.640445 0.309661
vt 0.616823 0.215172
vt 0.664067 0.215172
vt 0.616823 0.215172
vt 0.640445 0.309661
vt 0.640445 0.309661
vt 0.703437 0.467141
vt 0.664067 0.215172
vt 0.703437 0.309661
vt 0.664067 0.215172
vt 0.703437 0.467141
vt 0.703437 0.467141
vt 0.750682 0.215172
vt 0.703437 0.309661
vt 0.585327 0.120684
vt 0.640445 0.120684
vt 0.616823 0.026196
vt 0.664067 0.026196
vt 0.616823 0.026196
vt 0.640445 0.120684
vt 0.640445 0.120684
vt 0.703437 0.278165
vt 0.664067 0.026196
vt 0.703437 0.120684
vt 0.664067 0.026196
vt 0.703437 0.278165
vt 0.703437 0.278165
vt 0.750682 0.026196
vt 0.703437 0.120684
vt 0.664067 0.026196
vt 0.703437 0.120684
vt 0.640445 0.120684
vt 0.703437 0.278165
vt 0.640445 0.120684
vt 0.703437 0.120684
vt 0.703437 0.120684
vt 0.750682 0.026196
vt 0.703437 0.278165
vt 0.782178 0.120684
vt 0.703437 0.278165
vt 0.750682 0.026196
vt 0.750682 0.026196
vt 0.774304 0.026196
vt 0.782178 0.120684
vt 0.490839 0.435645
vt 0.514461 0.372653
vt 0.538083 0.435645
vt 0.490839 0.435645
vt 0.538083 0.435645
vt 0.514461 0.372653
vt 0.514461 0.372653
vt 0.490839 0.372653
vt 0.490839 0.435645
vt 0.459343 0.404149
vt 0.490839 0.435645
vt 0.490839 0.372653
vt 0.522335 0.971078
vt 0.522335 0.813598
vt 0.498713 0.939582
vt 0.498713 0.845094
vt 0.498713 0.939582
vt 0.522335 0.813598
vt 0.522335 0.813598
vt 0.522335 0.971078
vt 0.498713 0.845094
vt 0.498713 0.939582
vt 0.498713 0.845094
vt 0.522335 0.971078
vt 0.364855 0.152180
vt 0.396351 0.120684
vt 0.396351 0.183676
vt 0.419973 0.120684
vt 0.396351 0.183676
vt 0.396351 0.120684
vt 0.396351 0.120684
vt 0.396351 0.183676
vt 0.419973 0.120684
vt 0.443595 0.183676
vt 0.419973 0.120684
vt 0.396351 0.183676
vt 0.963280 0.923834
vt 0.994776 0.876590
vt 0.963280 0.876590
vt 0.963280 0.829346
vt 0.963280 0.876590
vt 0.994776 0.876590
vt 0.994776 0.876590
vt 0.994776 0.829346
vt 0.963280 0.829346
vt 0.994776 0.608873
vt 0.963280 0.829346
vt 0.994776 0.829346
vt 0.821548 0.010448
vt 0.900288 0.010448
vt 0.821548 0.089188
vt 0.900288 0.089188
vt 0.821548 0.089188
vt 0.900288 0.010448
vt 0.900288 0.010448
vt 0.986902 0.010448
vt 0.900288 0.089188
vt 0.986902 0.089188
vt 0.900288 0.089188
vt 0.986902 0.010448
vt 0.640445 0.939582
vt 0.640445 0.845094
vt 0.545957 0.939582
vt 0.545957 0.845094
vt 0.545957 0.939582
vt 0.640445 0.845094
vt 0.640445 0.845094
vt 0.640445 0.939582
vt 0.545957 0.845094
vt 0.545957 0.939582
vt 0.545957 0.845094
vt 0.640445 0.939582
vt 0.215248 0.703361
vt 0.262493 0.530133
vt 0.309737 0.530133
vt 0.309737 0.372653
vt 0.309737 0.530133
vt 0.262493 0.530133
vt 0.262493 0.530133
vt 0.262493 0.372653
vt 0.309737 0.372653
vt 0.215248 0.278165
vt 0.309737 0.372653
vt 0.262493 0.372653
vt 0.412099 0.593125
vt 0.325485 0.404149
vt 0.412099 0.404149
vt 0.325485 0.593125
vt 0.412099 0.404149
vt 0.325485 0.404149
vt 0.325485 0.404149
vt 0.412099 0.593125
vt 0.325485 0.593125
vt 0.412099 0.404149
vt 0.325485 0.593125
vt 0.412099 0.593125
vt 0.916036 0.309661
vt 0.821548 0.183676
vt 0.939658 0.215172
vt 0.939658 0.120684
vt 0.939658 0.215172
vt 0.821548 0.183676
vt 0.821548 0.183676
vt 0.829422 0.120684
vt 0.939658 0.120684
vt 0.821548 0.183676
vt 0.939658 0.120684
vt 0.829422 0.120684
vt 0.522335 0.813598
vt 0.522335 0.971078
vt 0.545957 0.845094
vt 0.545957 0.939582
vt 0.545957 0.845094
vt 0.522335 0.971078
vt 0.522335 0.971078
vt 0.522335 0.813598
vt 0.545957 0.939582
vt 0.545957 0.845094
vt 0.545957 0.939582
vt 0.522335 0.813598
vt 0.404225 0.939582
vt 0.404225 0.845094
vt 0.498713 0.939582
vt 0.498713 0.845094
vt 0.498713 0.939582
vt 0.404225 0.845094
vt 0.404225 0.845094
vt 0.404225 0.939582
vt 0.498713 0.845094
vt 0.498713 0.939582
vt 0.498713 0.845094
vt 0.404225 0.939582
vt 0.105012 0.010448
vt 0.002650 0.215172
vt 0.105012 0.215172
vt 0.002650 0.010448
vt 0.105012 0.215172
vt 0.002650 0.215172
vt 0.002650 0.215172
vt 0.105012 0.010448
vt 0.002650 0.010448
vt 0.105012 0.215172
vt 0.002650 0.010448
vt 0.105012 0.010448
vt 0.002650 0.246668
vt 0.081390 0.404149
vt 0.002650 0.404149
vt 0.081390 0.246668
vt 0.002650 0.404149
vt 0.081390 0.404149
vt 0.081390 0.404149
vt 0.002650 0.246668
vt 0.081390 0.246668
vt 0.002650 0.404149
vt 0.081390 0.246668
vt 0.002650 0.246668
vt 0.916036 0.309661
vt 0.876666 0.498637
vt 0.821548 0.183676
vt 0.774304 0.467141
vt 0.821548 0.183676
vt 0.876666 0.498637
vt 0.876666 0.498637
vt 0.790052 0.687613
vt 0.774304 0.467141
vt 0.168004 0.624621
vt 0.089264 0.624621
vt 0.168004 0.561629
vt 0.089264 0.561629
vt 0.168004 0.561629
vt 0.089264 0.624621
vt 0.089264 0.624621
vt 0.002650 0.561629
vt 0.089264 0.561629
vt 0.994776 0.498637
vt 0.971154 0.435645
vt 0.971154 0.498637
vt 0.900288 0.498637
vt 0.971154 0.498637
vt 0.971154 0.435645
vt 0.971154 0.435645
vt 0.908162 0.435645
vt 0.900288 0.498637
vt 0.467217 0.341157
vt 0.443595 0.372653
vt 0.443595 0.293913
vt 0.309737 0.293913
vt 0.443595 0.293913
vt 0.443595 0.372653
vt 0.443595 0.372653
vt 0.309737 0.372653
vt 0.309737 0.293913
vt 0.664067 0.530133
vt 0.703437 0.750605
vt 0.664067 0.782102
vt 0.664067 0.530133
vt 0.664067 0.782102
vt 0.703437 0.750605
vt 0.703437 0.750605
vt 0.774304 0.467141
vt 0.664067 0.530133
vt 0.876666 0.498637
vt 0.790052 0.687613
vt 0.774304 0.467141
vt 0.664067 0.530133
vt 0.774304 0.467141
vt 0.790052 0.687613
vt 0.790052 0.687613
vt 0.703437 0.750605
vt 0.664067 0.530133
vt 0.207374 0.104936
vt 0.333359 0.104936
vt 0.207374 0.183676
vt 0.341233 0.183676
vt 0.207374 0.183676
vt 0.333359 0.104936
vt 0.333359 0.104936
vt 0.364855 0.152180
vt 0.341233 0.183676
vt 0.963280 0.561629
vt 0.931784 0.687613
vt 0.900288 0.498637
vt 0.813674 0.750605
vt 0.900288 0.498637
vt 0.931784 0.687613
vt 0.931784 0.687613
vt 0.868792 0.845094
vt 0.813674 0.750605
vt 0.986902 0.215172
vt 0.986902 0.120684
vt 0.939658 0.120684
vt 0.939658 0.215172
vt 0.939658 0.120684
vt 0.986902 0.120684
vt 0.986902 0.120684
vt 0.986902 0.215172
vt 0.939658 0.215172
vt 0.215248 0.026196
vt 0.215248 0.073440
vt 0.238870 0.026196
vt 0.238870 0.026196
vt 0.215248 0.073440
vt 0.215248 0.026196
vt 0.215248 0.073440
vt 0.262493 0.073440
vt 0.238870 0.026196
vt 0.262493 0.073440
vt 0.215248 0.073440
vt 0.238870 0.026196
vt 0.262493 0.026196
vt 0.262493 0.073440
vt 0.238870 0.026196
vt 0.262493 0.026196
vt 0.238870 0.026196
vt 0.262493 0.073440
vn -1.0000 0.0000 -0.0000
vn 1.0000 -0.0000 0.0000
vn 0.8260 -0.3937 0.4035
vn 0.6717 0.0308 0.7402
vn 0.0000 0.7230 -0.6908
vn 0.0000 0.9997 0.0243
vn -0.9107 0.0750 -0.4062
vn -0.9094 -0.0893 -0.4063
vn 0.7881 -0.4352 -0.4352
vn 0.7565 -0.6539 0.0000
vn -0.8662 -0.4997 -0.0023
vn -0.7922 -0.4412 0.4216
vn -0.8264 -0.3932 -0.4030
vn -0.6699 0.0335 -0.7417
vn 0.9215 -0.3114 0.2322
vn 0.9032 -0.3144 0.2922
vn 0.9036 -0.0920 -0.4185
vn 0.0000 0.0000 1.0000
vn 0.9036 -0.0920 0.4185
vn -0.8380 -0.3315 -0.4334
vn 0.8374 -0.3319 0.4344
vn 0.8215 0.3161 -0.4746
vn -0.9107 0.0750 0.4062
vn 0.0000 -0.9995 0.0314
vn 0.0000 -0.9995 -0.0314
vn 0.9489 0.2765 0.1521
vn -0.9613 0.0023 -0.2756
vn -0.9284 0.2994 0.2203
vn 0.8545 0.2358 0.4628
vn 0.7554 -0.0000 -0.6552
vn 0.7743 0.4475 0.4475
vn 0.9611 -0.2763 -0.0023
vn 0.0000 -0.1781 0.9840
vn -0.0316 0.0284 -0.9991
vn -0.8225 0.3158 0.4730
vn 0.0000 0.2147 0.9767
vn 0.0000 1.0000 0.0000
vn 0.2439 -0.4879 0.8382
vn -0.8104 0.4245 0.4038
vn -0.7572 0.0000 0.6532
vn 0.7566 -0.0000 0.6539
vn 0.9281 0.2999 0.2206
vn 0.9279 0.2999 -0.2214
vn -0.9282 0.2993 -0.2210
vn -0.7561 0.0000 -0.6545
vn -0.8096 0.4269 -0.4028
vn -0.8681 0.4964 -0.0018
vn -0.8660 0.5000 0.0000
vn -0.7749 0.4469 0.4469
vn -0.9612 0.2759 -0.0023
vn 0.9610 0.2764 -0.0023
vn 0.9611 0.0023 -0.2761
vn 0.7852 -0.4333 -0.4425
vn -0.7858 -0.4327 -0.4419
vn -0.8709 0.0000 -0.4914
vn -0.7879 0.4356 -0.4352
vn -0.7887 0.4346 -0.4348
vn -0.7572 0.6532 0.0000
vn -0.9558 0.1767 -0.2351
vn 0.9556 0.1770 -0.2356
vn -0.3893 -0.8930 0.2260
vn -0.3166 -0.9480 0.0321
vn -0.3166 -0.9480 -0.0323
vn 0.3166 -0.9480 -0.0323
vn 0.3892 -0.8926 -0.2278
vn 0.0316 0.0284 -0.9991
vn 0.8176 -0.2896 -0.4976
vn -0.8176 -0.2896 -0.4976
vn -0.8950 -0.4070 -0.1823
vn -0.9215 -0.3114 -0.2322
vn -0.9032 -0.3144 -0.2922
vn -0.8987 -0.3992 -0.1816
vn 0.8987 -0.3992 -0.1816
vn 0.9107 0.0750 -0.4062
vn 0.9101 -0.0803 -0.4066
vn -0.9043 -0.0827 -0.4187
vn 0.9556 -0.1770 -0.2356
vn -0.9558 -0.1767 -0.2351
vn -0.7572 -0.6532 0.0000
vn -0.7888 -0.4348 -0.4345
vn 0.7877 -0.4358 -0.4354
vn 0.8705 -0.0000 -0.4922
vn 0.7849 0.4335 -0.4428
vn 0.9611 -0.0023 -0.2761
vn -0.9613 -0.0023 -0.2756
vn -0.9612 -0.2757 -0.0023
vn -0.7753 -0.4466 0.4466
vn 0.7747 -0.4472 0.4471
vn 0.8658 -0.5004 0.0004
vn 0.8653 -0.5012 0.0000
vn 0.7908 -0.4443 -0.4210
vn -0.9036 -0.0920 0.4185
vn -0.9101 -0.0803 0.4066
vn 0.9101 -0.0803 0.4066
vn 0.9107 0.0750 0.4062
vn 0.8987 -0.3992 0.1816
vn -0.8987 -0.3992 0.1816
vn -0.9032 -0.3144 0.2922
vn -0.9215 -0.3114 0.2322
vn -0.8951 -0.4070 0.1823
vn -0.3988 0.0261 0.9167
vn -0.2439 -0.4879 0.8382
vn 0.0000 -0.8761 0.4820
vn 0.0000 -0.5533 0.8330
vn 0.0000 -0.5575 -0.8302
vn 0.0000 -0.8761 -0.4820
vn 0.0000 -0.1781 -0.9840
vn 0.0000 0.7229 0.6910
vn 0.0000 0.6732 0.7395
vn 0.0000 0.6768 -0.7362
vn 0.0000 0.7229 -0.6909
vn 0.0000 0.2147 -0.9767
vn -0.9451 0.0582 -0.3215
vn -0.9359 0.0934 -0.3398
vn 0.9359 0.0934 -0.3398
vn 0.9211 0.2433 -0.3039
vn 0.9489 0.2765 -0.1521
vn 0.9434 0.3015 -0.1383
vn 0.3347 -0.1547 -0.9295
vn 0.0000 0.2538 -0.9673
vn 0.9448 0.1790 0.2744
vn -0.9448 0.1790 0.2744
vn -0.9465 0.0855 0.3113
vn -0.9361 0.0626 0.3461
vn -0.9211 0.2433 0.3039
vn -0.9489 0.2765 0.1521
vn -0.9434 0.3015 0.1383
vn -0.3347 -0.1547 0.9295
vn 0.0000 0.2538 0.9673
vn 0.0000 0.6982 0.7159
vn 0.0000 -0.6999 0.7143
vn 0.0000 -0.7010 -0.7132
vn 0.0000 0.6993 -0.7148
vn 0.6625 0.0064 0.7491
vn 0.7223 0.0069 -0.6915
vn 0.6571 0.0009 -0.7538
vn -0.7253 0.0008 -0.6884
vn -0.6617 0.0064 -0.7498
vn -0.7243 0.0070 0.6895
vn -0.6591 0.0009 0.7521
vn 0.7259 0.0008 0.6878
vn 0.0000 0.7044 0.7098
vn 0.0000 -0.7062 0.7080
vn 0.0000 -0.7071 -0.7071
vn 0.0000 0.7053 -0.7089
vn -0.7082 -0.0180 0.7058
vn -0.7087 -0.0181 0.7052
vn -0.7070 -0.0181 -0.7070
vn 0.7064 -0.0181 -0.7076
vn 0.7061 -0.0181 -0.7079
vn 0.7076 -0.0181 0.7064
vn 0.7079 -0.0181 0.7061
vn 0.0000 -0.9997 0.0231
vn 0.0000 -0.7245 -0.6893
vn 0.0000 -0.7274 0.6862
vn 0.0000 -1.0000 0.0000
vn 0.9434 0.3015 0.1383
vn 0.3347 -0.1547 0.9295
vn 0.0000 0.7891 -0.6142
vn 0.8167 0.1223 -0.5640
vn 0.8691 -0.3602 -0.3390
vn 0.8375 -0.3320 -0.4340
vn 0.8411 0.3203 -0.4359
vn -0.8416 0.3198 -0.4352
vn -0.8219 0.3156 -0.4743
vn -0.8181 0.1217 0.5620
vn -0.8698 -0.3598 0.3376
vn -0.8379 -0.3314 0.4337
vn -0.8414 0.3198 0.4356
vn 0.8409 0.3203 0.4362
vn 0.8221 0.3162 0.4734
vn 0.7876 0.4356 -0.4359
vn 0.7882 0.4354 -0.4350
vn 0.7566 0.6539 0.0000
vn 0.8371 0.3582 -0.4135
vn 0.8500 0.3641 -0.3807
vn 0.8650 -0.3188 -0.3875
vn 0.8256 -0.3941 -0.4039
vn 0.6705 0.0307 -0.7413
vn 0.3166 -0.9480 0.0321
vn 0.3893 -0.8930 0.2260
vn 0.3988 0.0261 0.9167
vn 0.8951 -0.4070 0.1823
vn -0.8696 -0.3596 -0.3385
vn -0.8175 0.1216 -0.5630
vn -0.8364 0.3788 -0.3962
vn -0.8618 0.3297 -0.3854
vn -0.8651 -0.3193 -0.3868
vn 0.8694 -0.3604 0.3381
vn 0.8174 0.1224 0.5630
vn 0.8359 0.3793 0.3967
vn 0.8615 0.3301 0.3859
vn 0.8647 -0.3197 0.3873
vn -0.8382 0.3581 0.4112
vn -0.8504 0.3636 0.3803
vn -0.8648 -0.3202 0.3867
vn -0.8268 -0.3928 0.4026
vn -0.6711 0.0336 0.7406
vn -0.8551 -0.2353 0.4619
vn 0.8547 -0.2357 0.4626
vn 0.8658 -0.5004 -0.0023
vn 0.7916 -0.4418 0.4221
vn 0.8099 0.4250 0.4043
vn 0.8684 0.4957 0.0100
vn -0.8689 0.4950 0.0100
vn -0.8550 0.2354 0.4621
vn 0.0000 0.7259 0.6878
vn 0.0000 -0.7069 0.7073
vn -0.7884 -0.4350 -0.4350
vn -0.7855 0.4330 -0.4422
vn -0.3347 -0.1547 -0.9295
vn -0.9434 0.3015 -0.1383
vn -0.9489 0.2765 -0.1521
vn -0.9211 0.2433 -0.3039
vn 0.0000 0.7071 0.7071
vn -0.3892 -0.8926 -0.2278
vn -0.7914 -0.4438 -0.4205
vn -0.8657 -0.5005 0.0004
vn -0.8663 -0.4996 0.0000
vn -0.9448 0.1790 -0.2743
vn 0.9448 0.1790 -0.2743
vn 0.9451 0.0582 -0.3215
vn 0.9211 0.2433 0.3039
vn 0.9361 0.0626 0.3461
vn 0.9465 0.0855 0.3113
vn 0.8656 0.5008 -0.0018
vn 0.8676 0.4973 0.0000
vn 0.8091 0.4275 -0.4033
vn 0.8950 -0.4070 -0.1823
vn 0.9215 -0.3114 -0.2322
vn 0.9032 -0.3144 -0.2922
vn 0.0000 0.7901 0.6130
vn -1.0000 0.0028 0.0001
vn 1.0000 -0.0028 -0.0001
vn -1.0000 0.0028 0.0000
vn 1.0000 -0.0028 0.0000
vn 1.0000 -0.0028 0.0001
vn -1.0000 0.0028 -0.0001
o base
usemtl Brush.043
f 1/1/1 2/2/1 3/3/1
f 4/4/2 5/5/2 6/6/2
f 7/7/1 8/8/1 9/9/1
f 10/10/2 11/11/2 12/12/2
f 13/13/3 14/14/3 15/15/3
f 16/16/4 17/17/4 18/18/4
f 19/19/5 20/20/5 21/21/5
f 22/22/6 23/23/6 24/24/6
f 25/25/7 26/26/7 27/27/7
f 28/28/8 29/29/8 30/30/8
f 31/31/1 32/32/1 33/33/1
f 34/34/1 35/35/1 36/36/1
f 37/37/9 38/38/9 39/39/9
f 40/40/10 41/41/10 42/42/10
f 43/43/11 44/44/11 45/45/11
f 46/46/12 47/47/12 48/48/12
f 49/49/13 50/50/13 51/51/13
f 52/52/14 53/53/14 54/54/14
f 55/55/2 56/56/2 57/57/2
f 58/58/1 59/59/1 60/60/1
f 61/61/15 62/62/15 63/63/15
f 64/64/16 65/65/16 66/66/16
f 67/67/1 68/68/1 69/69/1
f 70/70/2 71/71/2 72/72/2
f 73/73/2 74/74/2 75/75/2
f 76/76/2 77/77/2 78/78/2
f 79/79/17 80/80/17 81/81/17
f 82/82/18 83/83/18 84/84/18
f 85/85/18 86/86/18 87/87/18
f 88/88/19 89/89/19 90/90/19
f 91/91/20 92/92/20 93/93/20
f 94/94/21 95/95/21 96/96/21
f 97/97/22 98/98/22 99/99/22
f 100/100/23 101/101/23 102/102/23
f 103/103/24 104/104/24 105/105/24
f 106/106/25 107/107/25 108/108/25
f 109/109/26 110/110/26 111/111/26
f 112/112/27 113/113/27 114/114/27
f 115/115/28 116/116/28 117/117/28
f 118/118/29 119/119/29 120/120/29
f 121/121/30 122/122/30 123/123/30
f 124/124/31 125/125/31 126/126/31
f 127/127/32 128/128/32 129/129/32
f 130/130/33 131/131/33 132/132/33
f 133/133/1 134/134/1 135/135/1
f 136/136/34 137/137/34 138/138/34
f 139/139/18 140/140/18 141/141/18
f 142/142/35 143/143/35 144/144/35
f 145/145/36 146/146/36 147/147/36
f 148/148/37 149/149/37 150/150/37
f 151/151/38 152/152/38 153/153/38
f 154/154/18 155/155/18 156/156/18
f 157/157/2 158/158/2 159/159/2
f 160/160/39 161/161/39 162/162/39
f 163/163/40 164/164/40 165/165/40
f 166/166/41 167/167/41 168/168/41
f 169/169/42 170/170/42 171/171/42
f 172/172/43 173/173/43 174/174/43
f 175/175/44 176/176/44 177/177/44
f 178/178/45 179/179/45 180/180/45
f 181/181/46 182/182/46 183/183/46
f 184/184/47 185/185/47 186/186/47
f 187/187/48 188/188/48 189/189/48
f 190/190/49 191/191/49 192/192/49
f 193/193/50 194/194/50 195/195/50
f 196/196/51 197/197/51 198/198/51
f 199/199/52 200/200/52 201/201/52
f 202/202/53 203/203/53 204/204/53
f 205/205/54 206/206/54 207/207/54
f 208/208/55 209/209/55 210/210/55
f 211/211/55 212/212/55 213/213/55
f 214/214/56 215/215/56 216/216/56
f 217/217/57 218/218/57 219/219/57
f 220/220/58 221/221/58 222/222/58
f 223/223/59 224/224/59 225/225/59
f 226/226/60 227/227/60 228/228/60
f 229/229/61 230/230/61 231/231/61
f 232/232/62 233/233/62 234/234/62
f 235/235/63 236/236/63 237/237/63
f 238/238/64 239/239/64 240/240/64
f 241/241/65 242/242/65 243/243/65
f 244/244/2 245/245/2 246/246/2
f 247/247/66 248/248/66 249/249/66
f 250/250/67 251/251/67 252/252/67
f 253/253/68 254/254/68 255/255/68
f 256/256/69 257/257/69 258/258/69
f 259/259/70 260/260/70 261/261/70
f 262/262/71 263/263/71 264/264/71
f 265/265/72 266/266/72 267/267/72
f 268/268/73 269/269/73 270/270/73
f 271/271/74 272/272/74 273/273/74
f 274/274/75 275/275/75 276/276/75
f 277/277/76 278/278/76 279/279/76
f 280/280/77 281/281/77 282/282/77
f 283/283/78 284/284/78 285/285/78
f 286/286/79 287/287/79 288/288/79
f 289/289/80 290/290/80 291/291/80
f 292/292/81 293/293/81 294/294/81
f 295/295/82 296/296/82 297/297/82
f 298/298/82 299/299/82 300/300/82
f 301/301/83 302/302/83 303/303/83
f 304/304/84 305/305/84 306/306/84
f 307/307/85 308/308/85 309/309/85
f 310/310/86 311/311/86 312/312/86
f 313/313/87 314/314/87 315/315/87
f 316/316/88 317/317/88 318/318/88
f 319/319/89 320/320/89 321/321/89
f 322/322/90 323/323/90 324/324/90
f 325/325/91 326/326/91 327/327/91
f 328/328/18 329/329/18 330/330/18
f 331/331/92 332/332/92 333/333/92
f 334/334/93 335/335/93 336/336/93
f 337/337/94 338/338/94 339/339/94
f 340/340/95 341/341/95 342/342/95
f 343/343/96 344/344/96 345/345/96
f 346/346/97 347/347/97 348/348/97
f 349/349/98 350/350/98 351/351/98
f 352/352/99 353/353/99 354/354/99
f 355/355/100 356/356/100 357/357/100
f 358/358/101 359/359/101 360/360/101
f 361/361/102 362/362/102 363/363/102
f 364/364/33 365/365/33 366/366/33
f 367/367/103 368/368/103 369/369/103
f 370/370/103 371/371/103 372/372/103
f 373/373/104 374/374/104 375/375/104
f 376/376/104 377/377/104 378/378/104
f 379/379/105 380/380/105 381/381/105
f 382/382/105 383/383/105 384/384/105
f 385/385/106 386/386/106 387/387/106
f 388/388/106 389/389/106 390/390/106
f 391/391/107 392/392/107 393/393/107
f 394/394/107 395/395/107 396/396/107
f 397/397/36 398/398/36 399/399/36
f 400/400/108 401/401/108 402/402/108
f 403/403/108 404/404/108 405/405/108
f 406/406/109 407/407/109 408/408/109
f 409/409/109 410/410/109 411/411/109
f 412/412/110 413/413/110 414/414/110
f 415/415/110 416/416/110 417/417/110
f 418/418/111 419/419/111 420/420/111
f 421/421/111 422/422/111 423/423/111
f 424/424/112 425/425/112 426/426/112
f 427/427/112 428/428/112 429/429/112
f 430/430/18 431/431/18 432/432/18
f 433/433/113 434/434/113 435/435/113
f 436/436/114 437/437/114 438/438/114
f 439/439/115 440/440/115 441/441/115
f 442/442/116 443/443/116 444/444/116
f 445/445/117 446/446/117 447/447/117
f 448/448/118 449/449/118 450/450/118
f 451/451/119 452/452/119 453/453/119
f 454/454/120 455/455/120 456/456/120
f 457/457/121 458/458/121 459/459/121
f 460/460/122 461/461/122 462/462/122
f 463/463/123 464/464/123 465/465/123
f 466/466/124 467/467/124 468/468/124
f 469/469/125 470/470/125 471/471/125
f 472/472/126 473/473/126 474/474/126
f 475/475/127 476/476/127 477/477/127
f 478/478/128 479/479/128 480/480/128
f 481/481/129 482/482/129 483/483/129
f 484/484/130 485/485/130 486/486/130
f 487/487/131 488/488/131 489/489/131
f 490/490/131 491/491/131 492/492/131
f 493/493/132 494/494/132 495/495/132
f 496/496/132 497/497/132 498/498/132
f 499/499/133 500/500/133 501/501/133
f 502/502/133 503/503/133 504/504/133
f 505/505/130 506/506/130 507/507/130
f 508/508/134 509/509/134 510/510/134
f 511/511/135 512/512/135 513/513/135
f 514/514/136 515/515/136 516/516/136
f 517/517/137 518/518/137 519/519/137
f 520/520/138 521/521/138 522/522/138
f 523/523/139 524/524/139 525/525/139
f 526/526/140 527/527/140 528/528/140
f 529/529/141 530/530/141 531/531/141
f 532/532/142 533/533/142 534/534/142
f 535/535/143 536/536/143 537/537/143
f 538/538/143 539/539/143 540/540/143
f 541/541/144 542/542/144 543/543/144
f 544/544/144 545/545/144 546/546/144
f 547/547/145 548/548/145 549/549/145
f 550/550/145 551/551/145 552/552/145
f 553/553/142 554/554/142 555/555/142
f 556/556/146 557/557/146 558/558/146
f 559/559/147 560/560/147 561/561/147
f 562/562/148 563/563/148 564/564/148
f 565/565/148 566/566/148 567/567/148
f 568/568/149 569/569/149 570/570/149
f 571/571/150 572/572/150 573/573/150
f 574/574/151 575/575/151 576/576/151
f 577/577/152 578/578/152 579/579/152
f 580/580/153 581/581/153 582/582/153
f 583/583/154 584/584/154 585/585/154
f 586/586/154 587/587/154 588/588/154
f 589/589/155 590/590/155 591/591/155
f 592/592/155 593/593/155 594/594/155
f 595/595/156 596/596/156 597/597/156
f 598/598/156 599/599/156 600/600/156
f 601/601/157 602/602/157 603/603/157
f 604/604/158 605/605/158 606/606/158
f 607/607/2 608/608/2 609/609/2
f 610/610/2 611/611/2 612/612/2
f 613/613/2 614/614/2 615/615/2
f 616/616/159 617/617/159 618/618/159
f 619/619/160 620/620/160 621/621/160
f 622/622/161 623/623/161 624/624/161
f 625/625/162 626/626/162 627/627/162
f 628/628/163 629/629/163 630/630/163
f 631/631/164 632/632/164 633/633/164
f 634/634/165 635/635/165 636/636/165
f 637/637/166 638/638/166 639/639/166
f 640/640/167 641/641/167 642/642/167
f 643/643/168 644/644/168 645/645/168
f 646/646/169 647/647/169 648/648/169
f 649/649/170 650/650/170 651/651/170
f 652/652/171 653/653/171 654/654/171
f 655/655/82 656/656/82 657/657/82
f 658/658/82 659/659/82 660/660/82
f 661/661/172 662/662/172 663/663/172
f 664/664/173 665/665/173 666/666/173
f 667/667/174 668/668/174 669/669/174
f 670/670/175 671/671/175 672/672/175
f 673/673/176 674/674/176 675/675/176
f 676/676/177 677/677/177 678/678/177
f 679/679/178 680/680/178 681/681/178
f 682/682/179 683/683/179 684/684/179
f 685/685/180 686/686/180 687/687/180
f 688/688/181 689/689/181 690/690/181
f 691/691/2 692/692/2 693/693/2
f 694/694/182 695/695/182 696/696/182
f 697/697/183 698/698/183 699/699/183
f 700/700/184 701/701/184 702/702/184
f 703/703/185 704/704/185 705/705/185
f 706/706/186 707/707/186 708/708/186
f 709/709/187 710/710/187 711/711/187
f 712/712/188 713/713/188 714/714/188
f 715/715/189 716/716/189 717/717/189
f 718/718/190 719/719/190 720/720/190
f 721/721/191 722/722/191 723/723/191
f 724/724/192 725/725/192 726/726/192
f 727/727/193 728/728/193 729/729/193
f 730/730/194 731/731/194 732/732/194
f 733/733/195 734/734/195 735/735/195
f 736/736/196 737/737/196 738/738/196
f 739/739/197 740/740/197 741/741/197
f 742/742/198 743/743/198 744/744/198
f 745/745/199 746/746/199 747/747/199
f 748/748/200 749/749/200 750/750/200
f 751/751/201 752/752/201 753/753/201
f 754/754/202 755/755/202 756/756/202
f 757/757/1 758/758/1 759/759/1
f 760/760/1 761/761/1 762/762/1
f 763/763/2 764/764/2 765/765/2
f 766/766/2 767/767/2 768/768/2
f 769/769/203 770/770/203 771/771/203
f 772/772/204 773/773/204 774/774/204
f 775/775/205 776/776/205 777/777/205
f 778/778/206 779/779/206 780/780/206
f 781/781/5 782/782/5 783/783/5
f 784/784/207 785/785/207 786/786/207
f 787/787/207 788/788/207 789/789/207
f 790/790/37 791/791/37 792/792/37
f 793/793/208 794/794/208 795/795/208
f 796/796/208 797/797/208 798/798/208
f 799/799/18 800/800/18 801/801/18
f 802/802/18 803/803/18 804/804/18
f 805/805/1 806/806/1 807/807/1
f 808/808/1 809/809/1 810/810/1
f 811/811/2 812/812/2 813/813/2
f 814/814/2 815/815/2 816/816/2
f 817/817/209 818/818/209 819/819/209
f 820/820/55 821/821/55 822/822/55
f 823/823/55 824/824/55 825/825/55
f 826/826/210 827/827/210 828/828/210
f 829/829/2 830/830/2 831/831/2
f 832/832/1 833/833/1 834/834/1
f 835/835/2 836/836/2 837/837/2
f 838/838/1 839/839/1 840/840/1
f 841/841/211 842/842/211 843/843/211
f 844/844/1 845/845/1 846/846/1
f 847/847/1 848/848/1 849/849/1
f 850/850/1 851/851/1 852/852/1
f 853/853/1 854/854/1 855/855/1
f 856/856/1 857/857/1 858/858/1
f 859/859/2 860/860/2 861/861/2
f 862/862/2 863/863/2 864/864/2
f 865/865/2 866/866/2 867/867/2
f 868/868/2 869/869/2 870/870/2
f 871/871/1 872/872/1 873/873/1
f 874/874/1 875/875/1 876/876/1
f 877/877/1 878/878/1 879/879/1
f 880/880/2 881/881/2 882/882/2
f 883/883/1 884/884/1 885/885/1
f 886/886/2 887/887/2 888/888/2
f 889/889/1 890/890/1 891/891/1
f 892/892/2 893/893/2 894/894/2
f 895/895/1 896/896/1 897/897/1
f 898/898/2 899/899/2 900/900/2
f 901/901/212 902/902/212 903/903/212
f 904/904/213 905/905/213 906/906/213
f 907/907/214 908/908/214 909/909/214
f 910/910/215 911/911/215 912/912/215
f 913/913/215 914/914/215 915/915/215
f 916/916/18 917/917/18 918/918/18
f 919/919/216 920/920/216 921/921/216
f 922/922/1 923/923/1 924/924/1
f 925/925/1 926/926/1 927/927/1
f 928/928/217 929/929/217 930/930/217
f 931/931/218 932/932/218 933/933/218
f 934/934/219 935/935/219 936/936/219
f 937/937/220 938/938/220 939/939/220
f 940/940/221 941/941/221 942/942/221
f 943/943/222 944/944/222 945/945/222
f 946/946/223 947/947/223 948/948/223
f 949/949/224 950/950/224 951/951/224
f 952/952/225 953/953/225 954/954/225
f 955/955/226 956/956/226 957/957/226
f 958/958/227 959/959/227 960/960/227
f 961/961/228 962/962/228 963/963/228
f 964/964/229 965/965/229 966/966/229
f 967/967/230 968/968/230 969/969/230
f 970/970/231 971/971/231 972/972/231
f 973/973/159 974/974/159 975/975/159
f 976/976/232 977/977/232 978/978/232
f 979/979/232 980/980/232 981/981/232
f 982/982/233 983/983/233 984/984/233
f 985/985/234 986/986/234 987/987/234
f 988/988/235 989/989/235 990/990/235
f 991/991/236 992/992/236 993/993/236
f 994/994/237 995/995/237 996/996/237
f 997/997/238 998/998/238 999/999/238
