mtllib twobecomeone.mtl
v 0.031285 -48.912281 -2.405927
v 0.031286 -45.053169 -3.864709
v 0.031285 -46.511963 -0.031209
v 0.031286 -45.053169 -3.864709
v 0.031285 -48.912281 -2.405927
v 0.031285 -46.511963 -0.031209
v 0.031285 -46.511963 -0.031209
v 0.031285 -48.912281 -2.405927
v 0.031285 -51.261650 -0.031206
v 0.031285 -48.912281 -2.405927
v 0.031285 -46.511963 -0.031209
v 0.031285 -51.261650 -0.031206
v 0.031285 -51.261650 -0.031206
v 0.031285 -46.511963 -0.031209
v 0.031285 -48.912281 2.343779
v 0.031285 -46.511963 -0.031209
v 0.031285 -45.053169 3.802291
v 0.031285 -48.912281 2.343779
v 0.031285 -48.912281 2.343779
v 0.031285 -45.053169 3.802291
v 0.031285 -46.511963 -0.031209
v 1.406735 -28.676811 -0.031205
v -1.365619 -25.004585 -0.031209
v -1.365619 -28.676811 -0.031209
v -1.365619 -28.676811 -0.031209
v -1.365619 -25.004585 -0.031209
v 1.406735 -25.004587 -0.031205
v -1.365619 -25.004585 -0.031209
v 1.406735 -28.676811 -0.031205
v 1.406735 -25.004587 -0.031205
v 1.406735 -25.004587 -0.031205
v 1.406735 -28.676811 -0.031205
v -1.365619 -28.676811 -0.031209
v 1.406728 -40.894695 -0.031205
v -1.365626 -37.840233 -0.031209
v -1.365626 -40.894695 -0.031209
v -1.365626 -40.894695 -0.031209
v -1.365626 -37.840233 -0.031209
v 1.406728 -37.840233 -0.031205
v -1.365626 -37.840233 -0.031209
v 1.406728 -40.894695 -0.031205
v 1.406728 -37.840233 -0.031205
v 1.406728 -37.840233 -0.031205
v 1.406728 -40.894695 -0.031205
v -1.365626 -40.894695 -0.031209
v -1.365619 -34.785759 -0.031209
v 1.406735 -31.731270 -0.031205
v -1.365619 -31.731270 -0.031209
v -1.365619 -31.731270 -0.031209
v 1.406735 -31.731270 -0.031205
v 1.406735 -34.785759 -0.031205
v 1.406735 -31.731270 -0.031205
v -1.365619 -34.785759 -0.031209
v 1.406735 -34.785759 -0.031205
v 1.406735 -34.785759 -0.031205
v -1.365619 -34.785759 -0.031209
v -1.365619 -31.731270 -0.031209
v 0.011273 -17.672646 2.150080
v 0.021886 -26.239105 -2.220704
v 0.011281 -17.672644 -2.220708
v 0.011281 -17.672644 -2.220708
v 0.021886 -26.239105 -2.220704
v 0.011273 -17.672646 2.150080
v 0.021886 -26.239105 -2.220704
v 0.021878 -26.239105 2.150084
v 0.011273 -17.672646 2.150080
v 0.011273 -17.672646 2.150080
v 0.021878 -26.239105 2.150084
v 0.021886 -26.239105 -2.220704
v -1.365626 -47.003635 -0.031209
v 1.406728 -43.949165 -0.031202
v -1.365626 -43.949165 -0.031209
v -1.365626 -43.949165 -0.031209
v 1.406728 -43.949165 -0.031202
v 1.406728 -47.003635 -0.031202
v 1.406728 -43.949165 -0.031202
v -1.365626 -47.003635 -0.031209
v 1.406728 -47.003635 -0.031202
v 1.406728 -47.003635 -0.031202
v -1.365626 -47.003635 -0.031209
v -1.365626 -43.949165 -0.031209
v 0.031285 -46.511963 -0.031209
v 0.031285 -51.261650 -0.031206
v 0.031285 -48.912281 2.343779
v 0.031285 -51.261650 -0.031206
v 0.031285 -48.912281 2.343779
v 0.031285 -52.720165 3.802291
v 0.031285 -48.912281 2.343779
v 0.031285 -51.261650 -0.031206
v 0.031285 -52.720165 3.802291
v 0.020550 -39.925007 2.672621
v 0.020558 -45.785507 -0.031206
v 0.020551 -39.925007 -2.735040
v 0.020551 -39.925007 -2.735040
v 0.020558 -45.785507 -0.031206
v 0.020550 -39.925007 2.672621
v 0.020558 -33.816071 2.672621
v 0.020551 -39.676567 -0.031206
v 0.020558 -33.816071 -2.735040
v 0.020558 -33.816071 -2.735040
v 0.020551 -39.676567 -0.031206
v 0.020558 -33.816071 2.672621
v 0.020558 -27.707115 2.672621
v 0.020558 -33.567627 -0.031206
v 0.020558 -27.707115 -2.735040
v 0.020558 -27.707115 -2.735040
v 0.020558 -33.567627 -0.031206
v 0.020558 -27.707115 2.672621
v 0.031286 -52.720165 -3.864709
v 0.031285 -51.261650 -0.031206
v 0.031285 -48.912281 -2.405927
v 0.031285 -48.912281 -2.405927
v 0.031285 -51.261650 -0.031206
v 0.031286 -52.720165 -3.864709
v -1.365619 -28.676811 -0.031209
v 1.406735 -28.676811 -0.031205
v -1.365619 -25.004585 -0.031209
v 1.406735 -28.676811 -0.031205
v 1.406735 -25.004587 -0.031205
v -1.365619 -25.004585 -0.031209
v -1.365619 -25.004585 -0.031209
v 1.406735 -25.004587 -0.031205
v -1.365619 -28.676811 -0.031209
v 1.406735 -25.004587 -0.031205
v 1.406735 -28.676811 -0.031205
v -1.365619 -28.676811 -0.031209
vt 0.552734 0.120361
vt 0.531738 0.229981
vt 0.586670 0.188232
vt 0.531738 0.229981
vt 0.552734 0.120361
vt 0.586670 0.188232
vt 0.586670 0.188232
vt 0.552734 0.120361
vt 0.586670 0.052246
vt 0.552734 0.120361
vt 0.586670 0.188232
vt 0.586670 0.052246
vt 0.586670 0.052246
vt 0.586670 0.188232
vt 0.552734 0.120361
vt 0.586670 0.188232
vt 0.531738 0.229981
vt 0.552734 0.120361
vt 0.552734 0.120361
vt 0.531738 0.229981
vt 0.586670 0.188232
vt 0.595703 0.688721
vt 0.667480 0.797119
vt 0.595703 0.797119
vt 0.595703 0.797119
vt 0.667480 0.797119
vt 0.667480 0.688721
vt 0.667480 0.797119
vt 0.595703 0.688721
vt 0.667480 0.688721
vt 0.667480 0.688721
vt 0.595703 0.688721
vt 0.595703 0.797119
vt 0.971924 0.489258
vt 0.911865 0.598633
vt 0.971924 0.598633
vt 0.971924 0.598633
vt 0.911865 0.598633
vt 0.911865 0.489258
vt 0.911865 0.598633
vt 0.971924 0.489258
vt 0.911865 0.489258
vt 0.911865 0.489258
vt 0.971924 0.489258
vt 0.971924 0.598633
vt 0.971924 0.598633
vt 0.911865 0.489258
vt 0.911865 0.598633
vt 0.911865 0.598633
vt 0.911865 0.489258
vt 0.971924 0.489258
vt 0.911865 0.489258
vt 0.971924 0.598633
vt 0.971924 0.489258
vt 0.971924 0.489258
vt 0.971924 0.598633
vt 0.911865 0.598633
vt 0.608887 0.382813
vt 0.674561 0.124756
vt 0.674561 0.382568
vt 0.674561 0.382568
vt 0.674561 0.124756
vt 0.608887 0.382813
vt 0.674561 0.124756
vt 0.608643 0.125000
vt 0.608887 0.382813
vt 0.608887 0.382813
vt 0.608643 0.125000
vt 0.674561 0.124756
vt 0.971924 0.598633
vt 0.911865 0.489258
vt 0.911865 0.598633
vt 0.911865 0.598633
vt 0.911865 0.489258
vt 0.971924 0.489258
vt 0.911865 0.489258
vt 0.971924 0.598633
vt 0.971924 0.489258
vt 0.971924 0.489258
vt 0.971924 0.598633
vt 0.911865 0.598633
vt 0.586670 0.188232
vt 0.586670 0.052246
vt 0.552734 0.120361
vt 0.586670 0.052246
vt 0.552734 0.120361
vt 0.531738 0.010742
vt 0.552734 0.120361
vt 0.586670 0.052246
vt 0.531738 0.010742
vt 0.997803 0.952148
vt 0.913818 0.874756
vt 0.997803 0.797607
vt 0.997803 0.797607
vt 0.913818 0.874756
vt 0.997803 0.952148
vt 0.997803 0.952148
vt 0.913818 0.874756
vt 0.997803 0.797607
vt 0.997803 0.797607
vt 0.913818 0.874756
vt 0.997803 0.952148
vt 0.997803 0.952148
vt 0.913818 0.874756
vt 0.997803 0.797607
vt 0.997803 0.797607
vt 0.913818 0.874756
vt 0.997803 0.952148
vt 0.531738 0.010742
vt 0.586670 0.052246
vt 0.552734 0.120361
vt 0.552734 0.120361
vt 0.586670 0.052246
vt 0.531738 0.010742
vt 0.595703 0.797119
vt 0.595703 0.688721
vt 0.667480 0.797119
vt 0.595703 0.688721
vt 0.667480 0.688721
vt 0.667480 0.797119
vt 0.595703 0.797119
vt 0.595703 0.688721
vt 0.667480 0.797119
vt 0.595703 0.688721
vt 0.667480 0.688721
vt 0.667480 0.797119
vn 1.0000 0.0000 0.0000
vn -1.0000 0.0000 0.0000
vn 0.0000 0.0000 1.0000
vn 0.0000 0.0000 -1.0000
vn 1.0000 0.0012 0.0000
vn -1.0000 -0.0012 -0.0000
o keychain
usemtl Brush.053
f 1/1/1 2/2/1 3/3/1
f 4/4/2 5/5/2 6/6/2
f 7/7/2 8/8/2 9/9/2
f 10/10/1 11/11/1 12/12/1
f 13/13/1 14/14/1 15/15/1
f 16/16/1 17/17/1 18/18/1
f 19/19/2 20/20/2 21/21/2
f 22/22/3 23/23/3 24/24/3
f 25/25/4 26/26/4 27/27/4
f 28/28/3 29/29/3 30/30/3
f 31/31/4 32/32/4 33/33/4
f 34/34/3 35/35/3 36/36/3
f 37/37/4 38/38/4 39/39/4
f 40/40/3 41/41/3 42/42/3
f 43/43/4 44/44/4 45/45/4
f 46/46/3 47/47/3 48/48/3
f 49/49/4 50/50/4 51/51/4
f 52/52/3 53/53/3 54/54/3
f 55/55/4 56/56/4 57/57/4
f 58/58/5 59/59/5 60/60/5
f 61/61/6 62/62/6 63/63/6
f 64/64/6 65/65/6 66/66/6
f 67/67/5 68/68/5 69/69/5
f 70/70/3 71/71/3 72/72/3
f 73/73/4 74/74/4 75/75/4
f 76/76/3 77/77/3 78/78/3
f 79/79/4 80/80/4 81/81/4
f 82/82/2 83/83/2 84/84/2
f 85/85/1 86/86/1 87/87/1
f 88/88/2 89/89/2 90/90/2
f 91/91/1 92/92/1 93/93/1
f 94/94/2 95/95/2 96/96/2
f 97/97/1 98/98/1 99/99/1
f 100/100/2 101/101/2 102/102/2
f 103/103/1 104/104/1 105/105/1
f 106/106/2 107/107/2 108/108/2
f 109/109/2 110/110/2 111/111/2
f 112/112/1 113/113/1 114/114/1
f 115/115/3 116/116/3 117/117/3
f 118/118/3 119/119/3 120/120/3
f 121/121/4 122/122/4 123/123/4
f 124/124/4 125/125/4 126/126/4
