mtllib ultimaweaponkh2.mtl
v -1.494198 -48.050537 0.038292
v 1.607517 -43.677921 0.038295
v 1.607517 -48.050537 0.038292
v 1.607517 -48.050537 0.038292
v 1.607517 -43.677921 0.038295
v -1.494198 -43.677921 0.038292
v 1.607517 -43.677921 0.038295
v -1.494198 -48.050537 0.038292
v -1.494198 -43.677921 0.038292
v -1.494198 -43.677921 0.038292
v -1.494198 -48.050537 0.038292
v 1.607517 -48.050537 0.038292
v 1.607517 -41.920551 0.038295
v -1.494190 -37.547939 0.038296
v -1.494198 -41.920551 0.038292
v -1.494198 -41.920551 0.038292
v -1.494190 -37.547939 0.038296
v 1.607525 -37.547939 0.038295
v -1.494190 -37.547939 0.038296
v 1.607517 -41.920551 0.038295
v 1.607525 -37.547939 0.038295
v 1.607525 -37.547939 0.038295
v 1.607517 -41.920551 0.038295
v -1.494198 -41.920551 0.038292
v -1.494190 -35.810368 0.038296
v 1.607525 -31.437756 0.038299
v 1.607525 -35.810368 0.038299
v 1.607525 -35.810368 0.038299
v 1.607525 -31.437756 0.038299
v -1.494190 -31.437756 0.038300
v 1.607525 -31.437756 0.038299
v -1.494190 -35.810368 0.038296
v -1.494190 -31.437756 0.038300
v -1.494190 -31.437756 0.038300
v -1.494190 -35.810368 0.038296
v 1.607525 -35.810368 0.038299
v -1.494190 -29.860722 0.038300
v 1.607525 -25.488125 0.038303
v -1.494190 -25.488123 0.038300
v -1.494190 -25.488123 0.038300
v 1.607525 -25.488125 0.038303
v 1.607525 -29.860722 0.038299
v 1.607525 -25.488125 0.038303
v -1.494190 -29.860722 0.038300
v 1.607525 -29.860722 0.038299
v 1.607525 -29.860722 0.038299
v -1.494190 -29.860722 0.038300
v -1.494190 -25.488123 0.038300
v 0.056698 -51.069969 -1.997433
v 0.056720 -49.935169 -8.566662
v 0.056530 -65.015167 0.038288
v 0.056720 -49.935169 -8.566662
v 0.056698 -51.069969 -1.997433
v 0.056530 -65.015167 0.038288
v 0.056530 -65.015167 0.038288
v 0.056698 -51.069969 2.073898
v 0.056698 -51.069969 -1.997433
v 0.056698 -51.069969 -1.997433
v 0.056698 -51.069969 2.073898
v 0.056530 -65.015167 0.038288
v 0.056698 -51.069969 2.073898
v 0.056722 -49.935162 8.643044
v 0.056530 -65.015167 0.038288
v 0.056530 -65.015167 0.038288
v 0.056722 -49.935162 8.643044
v 0.056698 -51.069969 2.073898
v 0.056347 -46.788570 -1.997429
v 0.056698 -51.069969 2.073898
v 0.056347 -46.788570 2.073902
v 0.056347 -46.788570 2.073902
v 0.056698 -51.069969 2.073898
v 0.056347 -46.788570 -1.997429
v 0.056698 -51.069969 2.073898
v 0.056347 -46.788570 -1.997429
v 0.056698 -51.069969 -1.997433
v 0.056347 -46.788570 -1.997429
v 0.056698 -51.069969 2.073898
v 0.056698 -51.069969 -1.997433
v 0.056538 -45.785763 -2.574513
v 0.056538 -40.611839 5.492561
v 0.056538 -45.785763 2.651092
v 0.056538 -45.785763 2.651092
v 0.056538 -40.611839 5.492561
v 0.056538 -45.785763 -2.574513
v 0.056538 -40.611839 5.492561
v 0.056537 -40.611847 -5.416027
v 0.056538 -45.785763 -2.574513
v 0.056538 -45.785763 -2.574513
v 0.056537 -40.611847 -5.416027
v 0.056538 -40.611839 5.492561
v 0.056538 -39.648907 -2.574509
v 0.056546 -34.474983 5.492569
v 0.056538 -39.648907 2.651100
v 0.056538 -39.648907 2.651100
v 0.056546 -34.474983 5.492569
v 0.056538 -39.648907 -2.574509
v 0.056546 -34.474983 5.492569
v 0.056545 -34.474991 -5.416004
v 0.056538 -39.648907 -2.574509
v 0.056538 -39.648907 -2.574509
v 0.056545 -34.474991 -5.416004
v 0.056546 -34.474983 5.492569
v 0.056545 -33.609585 -2.574501
v 0.056546 -28.435661 5.492580
v 0.056545 -28.435669 -5.416004
v 0.056545 -28.435669 -5.416004
v 0.056546 -28.435661 5.492580
v 0.056545 -33.609585 -2.574501
v 0.056546 -28.435661 5.492580
v 0.056546 -33.609585 2.651108
v 0.056545 -33.609585 -2.574501
v 0.056545 -33.609585 -2.574501
v 0.056546 -33.609585 2.651108
v 0.056546 -28.435661 5.492580
v 0.056546 -28.124477 3.057426
v 0.056560 -19.240978 -2.972599
v 0.056561 -19.240976 3.057422
v 0.056561 -19.240976 3.057422
v 0.056560 -19.240978 -2.972599
v 0.056545 -28.124477 -2.972595
v 0.056560 -19.240978 -2.972599
v 0.056560 -19.240978 -2.972599
v 0.056545 -28.124477 -2.972595
v 0.056545 -28.124477 -2.972595
v 0.056560 -19.240978 -2.972599
v 0.056545 -28.124477 -2.972595
v 0.056560 -19.240978 -2.972599
v 0.056546 -28.124477 3.057426
v 0.056545 -28.124477 -2.972595
v 0.056545 -28.124477 -2.972595
v 0.056546 -28.124477 3.057426
v 0.056561 -19.240976 3.057422
vt 0.141602 0.904784
vt 0.205566 0.995605
vt 0.141602 0.995605
vt 0.141602 0.995605
vt 0.205566 0.995605
vt 0.205566 0.904784
vt 0.205566 0.995605
vt 0.141602 0.904784
vt 0.205566 0.904784
vt 0.205566 0.904784
vt 0.141602 0.904784
vt 0.141602 0.995605
vt 0.141602 0.995605
vt 0.205566 0.904784
vt 0.141602 0.904784
vt 0.141602 0.904784
vt 0.205566 0.904784
vt 0.205566 0.995605
vt 0.205566 0.904784
vt 0.141602 0.995605
vt 0.205566 0.995605
vt 0.205566 0.995605
vt 0.141602 0.995605
vt 0.141602 0.904784
vt 0.141602 0.904784
vt 0.205566 0.995605
vt 0.141602 0.995605
vt 0.141602 0.995605
vt 0.205566 0.995605
vt 0.205566 0.904784
vt 0.205566 0.995605
vt 0.141602 0.904784
vt 0.205566 0.904784
vt 0.205566 0.904784
vt 0.141602 0.904784
vt 0.141602 0.995605
vt 0.141602 0.904784
vt 0.205566 0.995605
vt 0.205566 0.904784
vt 0.205566 0.904784
vt 0.205566 0.995605
vt 0.141602 0.995605
vt 0.205566 0.995605
vt 0.141602 0.904784
vt 0.141602 0.995605
vt 0.141602 0.995605
vt 0.141602 0.904784
vt 0.205566 0.904784
vt 0.189209 0.763183
vt 0.276611 0.793456
vt 0.162598 0.392333
vt 0.276611 0.793456
vt 0.189209 0.763183
vt 0.162598 0.392333
vt 0.162598 0.392333
vt 0.135254 0.763183
vt 0.189209 0.763183
vt 0.189209 0.763183
vt 0.135254 0.763183
vt 0.162598 0.392333
vt 0.135254 0.763183
vt 0.047852 0.793456
vt 0.162598 0.392333
vt 0.162598 0.392333
vt 0.047852 0.793456
vt 0.135254 0.763183
vt 0.189209 0.876952
vt 0.135254 0.763183
vt 0.135254 0.876952
vt 0.135254 0.876952
vt 0.135254 0.763183
vt 0.189209 0.876952
vt 0.135254 0.763183
vt 0.189209 0.876952
vt 0.189209 0.763183
vt 0.189209 0.876952
vt 0.135254 0.763183
vt 0.189209 0.763183
vt 0.070068 0.683837
vt 0.005615 0.494140
vt 0.070068 0.562499
vt 0.070068 0.562499
vt 0.005615 0.494140
vt 0.070068 0.683837
vt 0.005615 0.494140
vt 0.005615 0.757079
vt 0.070068 0.683837
vt 0.070068 0.683837
vt 0.005615 0.757079
vt 0.005615 0.494140
vt 0.070068 0.683837
vt 0.005615 0.494140
vt 0.070068 0.562499
vt 0.070068 0.562499
vt 0.005615 0.494140
vt 0.070068 0.683837
vt 0.005615 0.494140
vt 0.005615 0.757079
vt 0.070068 0.683837
vt 0.070068 0.683837
vt 0.005615 0.757079
vt 0.005615 0.494140
vt 0.070068 0.683837
vt 0.005615 0.494140
vt 0.005615 0.757079
vt 0.005615 0.757079
vt 0.005615 0.494140
vt 0.070068 0.683837
vt 0.005615 0.494140
vt 0.070068 0.562499
vt 0.070068 0.683837
vt 0.070068 0.683837
vt 0.070068 0.562499
vt 0.005615 0.494140
vt 0.005859 0.473144
vt 0.124023 0.312743
vt 0.124023 0.473144
vt 0.124023 0.473144
vt 0.124023 0.312743
vt 0.005859 0.312743
vt 0.124023 0.312743
vt 0.124023 0.312743
vt 0.005859 0.312743
vt 0.005859 0.312743
vt 0.124023 0.312743
vt 0.005859 0.312743
vt 0.124023 0.312743
vt 0.005859 0.473144
vt 0.005859 0.312743
vt 0.005859 0.312743
vt 0.005859 0.473144
vt 0.124023 0.473144
vn -0.0000 0.0000 -1.0000
vn 0.0000 0.0000 1.0000
vn -1.0000 0.0000 0.0000
vn 1.0000 -0.0000 -0.0000
vn -1.0000 -0.0001 0.0000
vn 1.0000 0.0001 -0.0000
o keychain
usemtl Brush.058
f 1/1/1 2/2/1 3/3/1
f 4/4/2 5/5/2 6/6/2
f 7/7/1 8/8/1 9/9/1
f 10/10/2 11/11/2 12/12/2
f 13/13/2 14/14/2 15/15/2
f 16/16/1 17/17/1 18/18/1
f 19/19/2 20/20/2 21/21/2
f 22/22/1 23/23/1 24/24/1
f 25/25/1 26/26/1 27/27/1
f 28/28/2 29/29/2 30/30/2
f 31/31/1 32/32/1 33/33/1
f 34/34/2 35/35/2 36/36/2
f 37/37/2 38/38/2 39/39/2
f 40/40/1 41/41/1 42/42/1
f 43/43/2 44/44/2 45/45/2
f 46/46/1 47/47/1 48/48/1
f 49/49/3 50/50/3 51/51/3
f 52/52/4 53/53/4 54/54/4
f 55/55/3 56/56/3 57/57/3
f 58/58/4 59/59/4 60/60/4
f 61/61/4 62/62/4 63/63/4
f 64/64/3 65/65/3 66/66/3
f 67/67/5 68/68/5 69/69/5
f 70/70/6 71/71/6 72/72/6
f 73/73/5 74/74/5 75/75/5
f 76/76/6 77/77/6 78/78/6
f 79/79/4 80/80/4 81/81/4
f 82/82/3 83/83/3 84/84/3
f 85/85/3 86/86/3 87/87/3
f 88/88/4 89/89/4 90/90/4
f 91/91/4 92/92/4 93/93/4
f 94/94/3 95/95/3 96/96/3
f 97/97/3 98/98/3 99/99/3
f 100/100/4 101/101/4 102/102/4
f 103/103/3 104/104/3 105/105/3
f 106/106/4 107/107/4 108/108/4
f 109/109/4 110/110/4 111/111/4
f 112/112/3 113/113/3 114/114/3
f 115/115/4 116/116/4 117/117/4
f 118/118/3 119/119/3 120/120/3
f 121/121/2 122/122/2 123/123/2
f 124/124/2 125/125/2 126/126/2
f 127/127/4 128/128/4 129/129/4
f 130/130/3 131/131/3 132/132/3
