mtllib ultimaweaponddd.mtl
v 1.712090 75.484505 -7.031451
v 1.712090 80.202599 -0.347901
v -1.712090 75.484505 -7.031451
v -1.712090 75.710304 -9.430210
v 1.712090 28.199100 -4.333625
v 1.712090 21.024200 -1.959287
v 0.000000 23.813599 -3.790397
v 0.000000 26.282503 -6.997887
v -1.712090 12.082300 0.000002
v 1.712090 12.082300 0.000001
v 0.000000 10.525801 -1.498459
v 0.000000 10.525801 1.498462
v 0.000000 26.920399 0.628684
v 0.000000 28.544001 0.695826
v 0.000000 28.544001 -0.695818
v 0.000000 25.998699 -0.561538
v -1.712090 28.199100 4.333634
v -1.712090 21.024200 1.959292
v 0.000000 23.813599 3.790403
v 0.000000 26.282499 6.997893
v 0.000000 22.083200 3.708002
v 0.000000 21.024200 1.959292
v 0.000000 21.024200 -1.959287
v 0.000000 12.082300 0.000002
v 0.000000 22.083200 -3.707997
v -1.712090 30.469700 2.328564
v -1.712090 31.549999 2.142404
v -1.712090 29.215401 0.000004
v 0.000000 18.439301 0.000003
v 0.000000 28.110600 -2.975546
v 0.000000 6.115911 -3.726310
v 0.000000 7.672350 -1.547290
v 1.596120 6.918550 0.000000
v 0.000000 6.115911 3.726310
v 0.000000 7.672349 1.547290
v -1.596120 6.918550 0.000000
v 1.712090 33.961002 -2.740555
v 1.712090 32.456402 -3.643906
v 0.000000 37.028103 -4.580826
v 1.712090 29.215401 0.000004
v 0.000000 28.544001 0.000004
v -1.712090 32.456402 -3.643906
v -1.712090 33.961002 -2.740555
v -1.712090 31.549999 -2.142396
v -1.712090 30.469700 -2.328555
v 0.000000 -9.512620 -2.249211
v 0.000000 -12.198200 -0.967439
v -0.988800 -12.198200 -0.000001
v 1.001010 -17.178900 -0.000003
v 0.000000 -20.313101 -0.000002
v 0.000000 -17.178900 -2.597133
v 0.000000 31.034300 4.693754
v 1.712090 28.199100 4.333634
v 1.712090 32.456402 3.643914
v 2.249210 -9.512620 -0.000002
v 0.000000 -9.512620 2.249208
v 0.988800 -12.198200 -0.000002
v 0.000000 -12.198200 0.967435
v 0.000000 -15.323300 0.964383
v -1.712090 33.961002 2.740563
v -1.712090 32.456402 3.643914
v 0.000000 37.028103 4.580835
v 1.712090 33.961002 2.740563
v 0.000000 29.209301 1.983704
v 0.000000 3.653070 1.596121
v -1.596120 -8.868680 -0.000000
v 0.000000 3.653070 -1.596119
v 0.000000 -8.868680 -1.596120
v 1.596120 -8.868680 -0.000000
v 0.000000 -8.868680 1.596120
v -2.249210 -9.512620 -0.000001
v 0.000000 -17.178900 2.597127
v -1.001010 -17.178900 -0.000003
v 0.000000 -15.323300 -0.964387
v -1.712090 21.024200 -1.959287
v 1.712090 21.024200 1.959292
v 1.712090 30.469700 2.328564
v 0.000000 29.209301 -1.983696
v 1.712090 30.469700 -2.328555
v 1.712090 33.054600 1.236004
v -1.712090 33.054600 1.236004
v 1.712090 31.549999 2.142404
v 1.712090 31.549999 -2.142396
v -1.712090 33.054600 -1.235996
v 1.712090 33.054600 -1.235996
v -1.712090 28.199100 -4.333625
v 0.000000 31.034300 -4.693746
v 1.712090 82.485405 -10.415990
v -1.712090 84.691902 -9.430208
v 1.712090 84.691902 -9.430208
v 1.712090 84.917801 -7.031448
v -1.712090 84.917801 -7.031448
v -1.712090 80.202599 -0.347900
v 1.712090 40.363800 -0.616468
v -1.712090 40.363800 0.000006
v 1.712090 40.363800 0.000006
v 1.712090 40.363800 0.616480
v -1.712090 40.363800 0.616480
v 0.000000 28.110600 2.975553
v 1.712090 82.940201 -9.479040
v 1.712090 80.202599 -8.047718
v -1.712090 80.202599 -8.047718
v 1.712090 77.462097 -9.479040
v -1.712090 77.462097 -9.479040
v -1.712090 76.375595 -7.702861
v -1.712090 82.940201 -9.479040
v -1.712090 84.029701 -7.702858
v 1.712090 84.029701 -7.702858
v 1.712090 80.202599 -2.090510
v -1.712090 80.202599 -2.090510
v 1.712090 76.375595 -7.702861
v 1.712090 75.710304 -9.430210
v 1.712090 77.916801 -10.415990
v -1.712090 77.916801 -10.415990
v -1.712090 80.202599 -9.201319
v 1.712090 80.202599 -9.201319
v -1.712090 82.485405 -10.415990
v 0.000000 86.831299 2.090532
v 0.830103 29.215401 0.000004
v 0.000000 92.538200 0.000012
v 0.000000 86.831299 -2.090508
v 0.000000 30.329300 -2.072206
v -0.830103 29.215401 0.000004
v 0.000000 30.329300 2.072215
v -1.712090 40.363800 -0.616468
v 1.266520 80.202599 -1.214630
v 1.266520 33.961002 -2.740555
v 0.000000 77.858803 -4.580820
v 1.266520 40.363800 -0.616468
v -1.266520 33.961002 2.740563
v -1.266520 92.538200 0.000012
v -1.266520 40.363800 0.616480
v 1.266520 92.538200 0.000012
v 0.000000 100.000000 0.000012
v 0.000000 86.831299 4.580842
v 1.266520 40.363800 0.000006
v 0.000000 86.831299 -4.580819
v -1.266520 40.363800 0.000006
v -1.266520 80.202599 -1.214630
v -1.266520 40.363800 -0.616468
v -1.266520 33.961002 -2.740555
v 0.000000 82.546501 -4.580818
v 1.266520 33.961002 2.740563
v 1.266520 40.363800 0.616480
v -1.712090 69.099998 8.590969
v -1.712090 66.057297 -1.239041
v -1.712090 59.697300 4.565579
v 1.712090 59.697300 4.565579
v 1.712090 66.057297 -1.239041
v 1.712090 69.099998 8.590969
v 1.712090 72.145805 3.930789
v 1.712090 49.934399 -9.607224
v 1.712090 44.520397 -2.105774
v 1.712090 25.464602 -11.014097
v 1.712090 27.295803 -8.868676
v -1.712090 25.464602 -11.014097
v -1.712090 44.520397 -2.105774
v -1.712090 49.934399 -9.607224
v -1.712090 27.295803 -8.868676
v -1.712090 91.070297 -1.297028
v -1.712090 96.658203 -6.390566
v -1.712090 87.331802 -9.588909
v 1.712090 60.826405 -10.815792
v 1.712090 60.878300 -7.260342
v 1.712090 75.457001 -0.952168
v 1.712089 70.259705 -18.466692
v 1.712089 76.909698 -13.492189
v 1.712090 73.073502 -9.588912
v 1.712089 80.202599 -21.274488
v 1.712089 83.492500 -13.492189
v -1.712090 60.878300 -7.260342
v -1.712090 60.826405 -10.815792
v -1.712090 37.241699 4.709014
v 1.712090 37.241699 -4.709005
v 1.712090 56.392097 5.520807
v 1.712090 83.809898 2.304161
v 1.712090 80.202599 9.051802
v 1.712090 81.374596 2.304160
v 1.712090 84.945206 -0.952165
v -1.712090 63.747105 -12.216592
v -1.712090 63.747101 -7.293912
v -1.712090 73.073502 -9.588912
v -1.712090 75.457001 -0.952168
v -1.712090 79.030701 2.304160
v -1.712090 80.202599 9.051802
v -1.712090 76.595398 2.304159
v -1.712091 80.202599 -21.274488
v -1.712091 83.492500 -13.492189
v -1.712090 84.945206 -0.952165
v -1.712090 56.392097 5.520807
v -1.712090 24.521599 3.118993
v -1.712090 27.735199 7.293923
v -1.712090 31.034300 5.462814
v -1.712090 36.155300 5.233925
v -1.712090 36.155300 -5.233916
v -1.712090 31.034300 -5.462806
v -1.712090 27.735203 -7.293917
v 1.712090 37.241699 4.709014
v 1.712090 36.155300 5.233925
v 1.712090 31.034300 5.462814
v 1.712090 27.735199 7.293923
v 1.712090 31.034300 -5.462806
v 1.712090 79.030701 2.304160
v 1.712090 87.331802 -9.588909
v -1.712090 81.374596 2.304160
v -1.712090 72.145805 3.930789
v 0.000000 -11.282701 -2.230902
v 0.000000 -7.504499 -9.994810
v -0.000001 -10.687598 -12.405801
v 0.000000 -10.474000 -8.297980
v 0.000000 -8.880889 -4.065073
v 0.000001 -10.687602 12.405799
v 0.000000 -10.474000 8.297978
v 0.000000 -7.504500 9.994810
v 0.000000 -8.880891 4.065070
v 1.712090 27.735203 -7.293917
v 1.712090 24.521599 -3.118987
v -1.266520 31.549999 -2.142396
v -1.266520 33.054600 -1.235996
v -1.266520 32.456402 -3.643906
v 1.266520 31.549999 -2.142396
v 1.266520 32.456402 -3.643906
v 1.266520 33.054600 -1.235996
v -1.266520 33.054600 1.236004
v -1.266520 31.549999 2.142404
v -1.266520 32.456402 3.643914
v 1.266520 32.456402 3.643914
v 1.266520 31.549999 2.142404
v 1.266520 33.054600 1.236004
v 1.712089 90.145599 -18.466690
v 1.712090 96.658203 -12.216588
v 1.712090 96.658203 -6.390566
v 0.000000 -3.323469 -5.017241
v 0.000000 -3.006069 -6.802580
v 0.000000 -4.486218 -5.612350
v 0.000000 -11.282701 2.230899
v 0.000000 -3.323471 5.017241
v 0.000000 -3.006071 6.802579
v 0.000000 -4.486220 5.612350
v 0.000000 22.382298 8.444473
v 0.000001 18.707798 12.064003
v 0.000000 18.823797 7.229833
v -1.712091 70.259705 -18.466692
v -1.712091 76.909698 -13.492189
v -1.712091 90.145599 -18.466690
v -1.712090 37.241699 -4.709005
v 1.712090 24.521599 3.118993
v 0.000000 22.382301 -8.444468
v -0.000001 18.707802 -12.063997
v 0.000000 18.823801 -7.229827
v 0.000000 8.502459 9.466841
v 0.000000 6.677450 6.088440
v 0.000000 2.426220 8.157599
v 0.000001 3.707997 15.851300
v -0.000001 17.023199 -15.369097
v 0.000000 9.448532 -11.410899
v 0.000000 8.502460 -9.466841
v 0.000000 6.677452 -6.088439
v -0.000001 3.708003 -15.851298
v 0.000000 2.426220 -8.157599
v 0.000000 5.575730 -9.927669
v -0.000001 21.967199 -14.389497
v 0.000000 5.575728 9.927670
v 0.000000 9.448528 11.410901
v 0.000001 17.023199 15.369102
v 0.000001 21.967199 14.389503
v 1.712090 63.747101 -7.293912
v 1.712090 63.747105 -12.216592
v -1.712090 96.658203 -12.216588
v -1.712090 83.809898 2.304161
v 1.712090 91.070297 -1.297028
v -1.712090 24.521599 -3.118987
v 1.712090 76.595398 2.304159
v 0.000000 -15.060900 2.807698
v 0.000000 -15.060900 -2.807702
v 1.712090 36.155300 -5.233916
v 0.000000 22.083200 3.708002
v 0.000000 23.813599 3.790403
v 0.000000 21.024200 1.959292
v 0.000000 21.024200 -1.959287
v 0.000000 12.082300 0.000002
v 0.000000 10.525801 -1.498459
v 0.000000 22.083200 -3.707997
v 0.000000 23.813599 -3.790397
v 0.000000 10.525801 1.498462
v 0.000000 -15.323300 -0.964387
v 0.000000 -11.282701 -2.230902
v 0.000000 -12.198200 -0.967439
v 0.000000 -7.504499 -9.994810
v 0.000000 -10.474000 -8.297980
v -0.000001 -10.687598 -12.405801
v 0.000000 -8.880889 -4.065073
v 0.000001 -10.687602 12.405799
v 0.000000 -7.504500 9.994810
v 0.000000 -10.474000 8.297978
v 0.000000 -8.880891 4.065070
v 0.000000 -3.323469 -5.017241
v 0.000000 -4.486218 -5.612350
v 0.000000 -3.006069 -6.802580
v 0.000000 -11.282701 2.230899
v 0.000000 -9.512620 2.249208
v 0.000000 -3.323471 5.017241
v 0.000000 -4.486220 5.612350
v 0.000000 -3.006071 6.802579
v 0.000000 -9.512620 -2.249211
v 0.000000 22.382298 8.444473
v 0.000000 18.823797 7.229833
v 0.000001 18.707798 12.064003
v 0.000000 22.382301 -8.444468
v 0.000000 18.823801 -7.229827
v -0.000001 18.707802 -12.063997
v 0.000000 6.677450 6.088440
v 0.000000 8.502459 9.466841
v 0.000000 2.426220 8.157599
v 0.000001 3.707997 15.851300
v 0.000000 9.448532 -11.410899
v -0.000001 17.023199 -15.369097
v 0.000000 8.502460 -9.466841
v 0.000000 6.677452 -6.088439
v -0.000001 3.708003 -15.851298
v 0.000000 -8.868680 -1.596120
v 0.000000 2.426220 -8.157599
v 0.000000 5.575730 -9.927669
v -0.000001 21.967199 -14.389497
v 0.000000 -8.868680 1.596120
v 0.000000 5.575728 9.927670
v 0.000000 9.448528 11.410901
v 0.000001 17.023199 15.369102
v 0.000001 21.967199 14.389503
v 0.000000 7.672350 -1.547290
v 0.000000 7.672349 1.547290
v 0.000000 6.115911 3.726310
v 0.000000 6.115911 -3.726310
v 0.000000 -15.060900 2.807698
v 0.000000 -15.323300 0.964383
v 0.000000 -12.198200 0.967435
v 0.000000 -15.060900 -2.807702
v 0.000000 26.920399 0.628684
v 0.000000 28.544001 -0.695818
v 0.000000 28.544001 0.695826
v 0.000000 25.998699 -0.561538
v -1.712090 69.099998 8.590969
v -1.712090 59.697300 4.565579
v -1.712090 66.057297 -1.239041
v 1.712090 59.697300 4.565579
v 1.712090 69.099998 8.590969
v 1.712090 66.057297 -1.239041
v 1.712090 72.145805 3.930789
v 1.712090 49.934399 -9.607224
v 1.712090 25.464602 -11.014097
v 1.712090 44.520397 -2.105774
v 1.712090 27.295803 -8.868676
v -1.712090 25.464602 -11.014097
v -1.712090 49.934399 -9.607224
v -1.712090 44.520397 -2.105774
v -1.712090 27.295803 -8.868676
v -1.712090 91.070297 -1.297028
v -1.712090 87.331802 -9.588909
v -1.712090 96.658203 -6.390566
v 1.712090 60.878300 -7.260342
v 1.712090 60.826405 -10.815792
v 1.712090 80.202599 -0.347901
v 1.712090 75.484505 -7.031451
v 1.712090 75.457001 -0.952168
v 1.712089 70.259705 -18.466692
v 1.712090 73.073502 -9.588912
v 1.712089 76.909698 -13.492189
v 1.712090 82.485405 -10.415990
v 1.712089 83.492500 -13.492189
v 1.712089 80.202599 -21.274488
v -1.712090 60.878300 -7.260342
v -1.712090 60.826405 -10.815792
v -1.712090 33.961002 2.740563
v -1.712090 37.241699 4.709014
v -1.712090 32.456402 3.643914
v 1.712090 33.961002 -2.740555
v 1.712090 37.241699 -4.709005
v 1.712090 32.456402 -3.643906
v 1.712090 56.392097 5.520807
v 1.712090 40.363800 0.616480
v 1.712090 40.363800 -0.616468
v 1.712090 75.710304 -9.430210
v 1.712090 77.916801 -10.415990
v 1.712090 80.202599 -9.201319
v 1.712090 83.809898 2.304161
v 1.712090 81.374596 2.304160
v 1.712090 80.202599 9.051802
v 1.712090 84.945206 -0.952165
v -1.712090 63.747105 -12.216592
v -1.712090 73.073502 -9.588912
v -1.712090 63.747101 -7.293912
v -1.712090 75.484505 -7.031451
v -1.712090 75.457001 -0.952168
v -1.712090 80.202599 -0.347900
v -1.712090 79.030701 2.304160
v -1.712090 80.202599 9.051802
v -1.712090 76.595398 2.304159
v -1.712091 80.202599 -21.274488
v -1.712090 82.485405 -10.415990
v -1.712090 80.202599 -9.201319
v -1.712091 83.492500 -13.492189
v -1.712090 84.945206 -0.952165
v -1.712090 84.917801 -7.031448
v -1.712090 56.392097 5.520807
v -1.712090 40.363800 0.616480
v -1.712090 24.521599 3.118993
v -1.712090 28.199100 4.333634
v -1.712090 27.735199 7.293923
v -1.712090 31.034300 5.462814
v -1.712090 36.155300 5.233925
v -1.712090 32.456402 -3.643906
v -1.712090 31.034300 -5.462806
v -1.712090 36.155300 -5.233916
v -1.712090 28.199100 -4.333625
v -1.712090 27.735203 -7.293917
v 1.712090 37.241699 4.709014
v 1.712090 32.456402 3.643914
v 1.712090 36.155300 5.233925
v 1.712090 28.199100 4.333634
v 1.712090 31.034300 5.462814
v 1.712090 27.735199 7.293923
v 1.712090 28.199100 -4.333625
v 1.712090 31.034300 -5.462806
v 1.712090 79.030701 2.304160
v 1.712090 84.691902 -9.430208
v 1.712090 87.331802 -9.588909
v 1.712090 84.917801 -7.031448
v -1.712090 81.374596 2.304160
v 1.712090 77.462097 -9.479040
v 1.712090 76.375595 -7.702861
v 1.712090 80.202599 -8.047718
v -1.712090 72.145805 3.930789
v -1.712090 77.916801 -10.415990
v -1.712090 77.462097 -9.479040
v -1.712090 75.710304 -9.430210
v 1.712090 27.735203 -7.293917
v 1.712090 24.521599 -3.118987
v 1.712089 90.145599 -18.466690
v 1.712090 96.658203 -12.216588
v 1.712090 96.658203 -6.390566
v -1.712091 70.259705 -18.466692
v -1.712091 76.909698 -13.492189
v -1.712091 90.145599 -18.466690
v -1.712090 84.691902 -9.430208
v -1.712090 33.961002 -2.740555
v -1.712090 37.241699 -4.709005
v 1.712090 24.521599 3.118993
v 1.712090 82.940201 -9.479040
v 1.712090 84.029701 -7.702858
v 1.712090 80.202599 -2.090510
v -1.712090 80.202599 -2.090510
v -1.712090 84.029701 -7.702858
v -1.712090 82.940201 -9.479040
v 1.712090 63.747101 -7.293912
v 1.712090 63.747105 -12.216592
v -1.712090 40.363800 -0.616468
v -1.712090 96.658203 -12.216588
v -1.712090 83.809898 2.304161
v 1.712090 91.070297 -1.297028
v -1.712090 76.375595 -7.702861
v -1.712090 80.202599 -8.047718
v -1.712090 24.521599 -3.118987
v 1.712090 76.595398 2.304159
v 1.712090 33.961002 2.740563
v 1.712090 36.155300 -5.233916
vt 0.586914 0.774902
vt 0.514160 0.774902
vt 0.586914 0.708984
vt 0.608887 0.708984
vt 0.158691 0.251953
vt 0.091309 0.251953
vt 0.117188 0.284180
vt 0.158691 0.284180
vt 0.927734 0.203125
vt 0.992188 0.203125
vt 0.959961 0.284668
vt 0.959961 0.121582
vt 0.085449 0.144531
vt 0.008301 0.150879
vt 0.008301 0.018555
vt 0.128906 0.031250
vt 0.158691 0.316406
vt 0.091309 0.316406
vt 0.027832 0.874023
vt 0.043457 0.925781
vt 0.002441 0.871582
vt 0.196777 0.938965
vt 0.174316 0.983398
vt 0.173828 0.171387
vt 0.187012 0.176270
vt 0.158203 0.229004
vt 0.486328 0.075684
vt 0.429688 0.021484
vt 0.304688 0.075684
vt 0.261719 0.872559
vt 0.238770 0.937500
vt 0.250000 0.983398
vt 0.219727 0.251953
vt 0.198730 0.251953
vt 0.205566 0.284180
vt 0.221191 0.021484
vt 0.208496 0.065918
vt 0.221191 0.075684
vt 0.198730 0.316406
vt 0.219727 0.316406
vt 0.907227 0.156250
vt 0.962402 0.084473
vt 0.907715 0.012207
vt 0.491211 0.915527
vt 0.529297 0.958008
vt 0.529297 0.983398
vt 0.602051 0.983398
vt 0.647949 0.983398
vt 0.602051 0.905762
vt 0.185547 0.284180
vt 0.491211 0.983398
vt 0.573242 0.958008
vt 0.963379 0.084473
vt 0.908203 0.156250
vt 0.908203 0.012207
vt 0.250488 0.075684
vt 0.297363 0.935547
vt 0.480957 0.983398
vt 0.480957 0.935547
vt 0.006836 0.251953
vt 0.006836 0.316406
vt 0.289062 0.021484
vt 0.248047 0.021484
vt 0.198242 0.139160
vt 0.216797 0.161621
vt 0.205566 0.198730
vt 0.599121 0.021484
vt 0.628906 0.774902
vt 0.608887 0.774902
vt 0.514160 0.708984
vt 0.273438 0.251953
vt 0.273438 0.316406
vt 0.928711 0.708984
vt 0.958984 0.708984
vt 0.958984 0.773438
vt 0.928711 0.773438
vt 0.875000 0.773438
vt 0.875000 0.708984
vt 0.815918 0.708984
vt 0.816406 0.773438
vt 0.628906 0.708984
vt 0.651367 0.708984
vt 0.651367 0.774902
vt 0.947266 0.796387
vt 0.500000 0.829102
vt 0.991699 0.829102
vt 0.947266 0.862305
vt 0.508789 0.861816
vt 0.508789 0.796387
vt 0.893066 0.948730
vt 0.653320 0.964844
vt 0.880859 0.983887
vt 0.686523 0.942871
vt 0.653320 0.907715
vt 0.956543 0.936523
vt 0.686523 0.929688
vt 0.995605 0.936523
vt 0.927246 0.888672
vt 0.686523 0.936523
vt 0.927246 0.983887
vt 0.669434 0.888672
vt 0.669434 0.983887
vt 0.904785 0.983887
vt 0.651367 0.016602
vt 0.613770 0.259766
vt 0.537109 0.111816
vt 0.689453 0.131836
vt 0.414551 0.466797
vt 0.347656 0.281250
vt 0.111816 0.501465
vt 0.134766 0.448730
vt 0.923340 0.248535
vt 0.992188 0.369629
vt 0.876953 0.466309
vt 0.553711 0.496582
vt 0.554688 0.408691
vt 0.789062 0.237793
vt 0.729980 0.252930
vt 0.730469 0.403320
vt 0.666016 0.686035
vt 0.748047 0.562988
vt 0.700684 0.466309
vt 0.816895 0.486816
vt 0.789062 0.755371
vt 0.829590 0.562988
vt 0.257812 0.112793
vt 0.493164 0.086914
vt 0.296387 0.213867
vt 0.296387 0.244629
vt 0.733398 0.462402
vt 0.760742 0.486816
vt 0.789062 0.457031
vt 0.833496 0.172363
vt 0.789062 0.005371
vt 0.803223 0.172363
vt 0.847656 0.252930
vt 0.582031 0.535156
vt 0.582031 0.409668
vt 0.774414 0.172363
vt 0.744141 0.172363
vt 0.847168 0.403320
vt 0.100098 0.151855
vt 0.140137 0.048828
vt 0.145508 0.122070
vt 0.180664 0.094238
vt 0.244141 0.099609
vt 0.844238 0.462402
vt 0.754883 0.468750
vt 0.789062 0.428223
vt 0.741211 0.418457
vt 0.516113 0.916504
vt 0.460938 0.686035
vt 0.507324 0.614258
vt 0.504395 0.736328
vt 0.480957 0.862305
vt 0.296387 0.229004
vt 0.911621 0.686035
vt 0.995117 0.538086
vt 0.399414 0.833984
vt 0.395020 0.781250
vt 0.416504 0.816406
vt 0.023438 0.732910
vt 0.077148 0.625488
vt 0.075684 0.769043
vt 0.822754 0.468750
vt 0.839844 0.419922
vt 0.789062 0.280762
vt 0.226562 0.702148
vt 0.253418 0.802734
vt 0.315430 0.740723
vt 0.296875 0.512207
vt 0.102051 0.526855
vt 0.212891 0.644531
vt 0.269531 0.688477
vt 0.029785 0.556152
vt 0.571289 0.899414
vn -0.3046 -0.7782 0.5492
vn -0.1018 -0.9943 -0.0328
vn 0.1157 -0.6201 0.7760
vn 0.2995 -0.9499 -0.0894
vn 0.1760 -0.9382 0.2981
vn -0.2490 -0.9319 -0.2639
vn 0.2315 -0.8285 -0.5099
vn 0.0328 0.5098 -0.8597
vn 0.9186 0.0051 -0.3951
vn 0.7723 0.2641 -0.5777
vn 0.7351 -0.5759 0.3577
vn 0.3786 -0.8174 -0.4342
vn 0.6326 0.5371 -0.5579
vn -0.3929 0.1800 -0.9018
vn -0.3392 0.8894 -0.3066
vn 0.3392 0.8894 0.3066
vn -0.6326 0.5371 0.5579
vn 0.3929 0.1800 0.9018
vn -1.0000 -0.0000 -0.0000
vn -0.2315 -0.8285 0.5099
vn -0.1900 0.6036 0.7743
vn -0.9186 0.0051 0.3951
vn -0.7351 -0.5759 -0.3577
vn -0.3786 -0.8174 0.4342
vn -0.7723 0.2641 0.5777
vn 1.0000 -0.0000 -0.0000
vn -0.8740 0.2363 -0.4247
vn -0.7250 -0.6862 -0.0589
vn -0.8976 0.2327 0.3744
vn 0.0184 0.8762 -0.4817
vn -0.2755 0.5977 0.7529
vn 0.4590 -0.5363 0.7083
vn 0.5121 0.8278 0.2293
vn 0.6891 0.2975 -0.6608
vn 0.2910 0.4601 -0.8388
vn -0.5121 0.8278 -0.2293
vn -0.6891 0.2975 0.6608
vn -0.2910 0.4601 0.8388
vn 0.6710 0.7405 0.0374
vn 0.9701 0.2081 -0.1250
vn 0.9281 -0.3686 -0.0522
vn -0.0760 -0.9940 -0.0793
vn 0.4617 -0.8337 -0.3029
vn 0.6374 -0.7363 0.2271
vn -0.9701 0.2081 -0.1249
vn -0.6710 0.7405 0.0374
vn -0.9069 -0.4041 -0.1191
vn -0.1169 -0.1629 0.9797
vn -0.1074 -0.1787 0.9780
vn 0.1169 -0.1629 0.9797
vn -0.7250 -0.6706 0.1571
vn -0.8740 0.4262 0.2336
vn -0.8976 0.3057 -0.3176
vn -0.4740 -0.6486 -0.5955
vn -0.6736 -0.1531 -0.7230
vn -0.0829 -0.1866 -0.9789
vn 0.5759 -0.5547 -0.6005
vn 0.7043 0.3889 -0.5939
vn 0.7188 -0.6341 0.2849
vn 0.8248 -0.0610 0.5622
vn 0.1511 0.7252 0.6717
vn 0.1683 0.2885 0.9426
vn 0.2328 -0.7009 0.6742
vn 0.5955 -0.6418 0.4831
vn 0.7890 0.3246 0.5217
vn -0.8128 -0.0254 0.5819
vn -0.0984 -0.0883 0.9912
vn -0.4540 0.7602 0.4647
vn -0.6710 0.7405 -0.0374
vn -0.9701 0.2081 0.1250
vn -0.9281 -0.3686 0.0523
vn 0.1074 -0.1787 -0.9780
vn -0.1169 -0.1629 -0.9797
vn 0.1169 -0.1629 -0.9797
vn -0.6989 -0.4750 0.5347
vn -0.7583 -0.5482 -0.3528
vn -0.0484 -0.8283 0.5581
vn -0.7646 -0.4794 -0.4307
vn -0.4969 0.5459 -0.6746
vn -0.1231 -0.3688 -0.9213
vn -0.3963 0.5095 0.7638
vn -0.8973 0.2959 0.3277
vn -0.5018 -0.6440 0.5775
vn -0.2253 0.2914 0.9297
vn -0.9123 -0.0416 0.4074
vn -0.7921 -0.4566 0.4051
vn 0.9123 -0.0416 0.4074
vn 0.3016 0.4262 0.8529
vn 0.5855 -0.5359 0.6083
vn 0.6891 0.2975 0.6608
vn 0.7700 0.5694 -0.2880
vn 0.2170 0.5901 0.7776
vn 0.6718 -0.7148 -0.1943
vn 0.7190 0.5757 0.3894
vn 0.5086 -0.4607 0.7274
vn -0.9297 -0.0801 -0.3595
vn -0.5046 -0.6205 0.6003
vn -0.7717 0.5844 0.2509
vn -0.5168 -0.5558 0.6511
vn -0.4266 0.7425 0.5165
vn -0.9486 -0.3059 -0.0811
vn -0.4157 -0.5112 -0.7522
vn -0.7726 0.6277 -0.0949
vn -0.4226 0.7420 -0.5204
vn -0.5309 -0.7777 -0.3367
vn -0.8659 0.4168 -0.2765
vn -0.0572 0.4607 -0.8857
vn 0.4358 -0.7897 -0.4318
vn 0.1640 0.6051 -0.7791
vn 0.8659 0.4168 -0.2765
vn 0.1610 0.0123 -0.9869
vn 0.0461 0.8305 -0.5552
vn 0.9111 0.4031 -0.0859
vn 0.6121 -0.2108 0.7622
vn 0.9111 0.4031 0.0859
vn 0.0206 0.6834 0.7298
vn 0.8443 0.0259 0.5353
vn 0.8402 0.4049 0.3607
vn 0.0676 0.5126 0.8559
vn -0.8443 0.0259 0.5353
vn -0.0676 0.5126 0.8560
vn -0.8402 0.4049 0.3607
vn 0.7646 -0.4794 0.4307
vn 0.4969 0.5459 0.6746
vn 0.1231 -0.3688 0.9213
vn 0.3963 0.5095 -0.7638
vn 0.8973 0.2959 -0.3277
vn 0.5018 -0.6440 -0.5775
vn 0.2253 0.2914 -0.9297
vn 0.9123 -0.0416 -0.4074
vn 0.7921 -0.4566 -0.4051
vn -0.9123 -0.0416 -0.4074
vn -0.3016 0.4262 -0.8529
vn -0.5855 -0.5359 -0.6083
vn -0.6891 0.2975 -0.6608
vn -0.7700 0.5694 0.2880
vn -0.2170 0.5901 -0.7776
vn -0.6718 -0.7148 0.1943
vn -0.5618 0.4355 -0.7034
vn -0.5086 -0.4607 -0.7274
vn 0.9297 -0.0801 0.3595
vn 0.5046 -0.6205 -0.6003
vn 0.8681 0.4860 0.1013
vn 0.5168 -0.5558 -0.6511
vn 0.4415 0.7440 -0.5015
vn 0.5587 -0.7697 -0.3089
vn 0.4157 -0.5112 0.7522
vn 0.9920 -0.0227 -0.1244
vn 0.4077 0.7398 0.5353
vn 0.4912 -0.7856 0.3763
vn 0.8659 0.4168 0.2765
vn -0.0041 0.3207 0.9472
vn -0.4757 -0.7875 0.3918
vn -0.0775 0.4948 0.8656
vn -0.8659 0.4168 0.2765
vn -0.3595 -0.1225 0.9251
vn -0.0206 0.6834 0.7298
vn -0.9111 0.4031 0.0859
vn -0.4142 -0.1494 -0.8978
vn -0.9111 0.4031 -0.0859
vn -0.0461 0.8305 -0.5551
vn -0.8443 0.0259 -0.5353
vn -0.8402 0.4049 -0.3607
vn -0.0411 0.5820 -0.8121
vn 0.8443 0.0259 -0.5353
vn 0.0411 0.5820 -0.8122
vn 0.8402 0.4049 -0.3607
vn -0.5955 -0.6418 -0.4831
vn -0.4037 0.2607 -0.8770
vn -0.1426 -0.4117 -0.9001
vn -0.7415 0.3419 0.5773
vn -0.5955 -0.6418 0.4831
vn -0.2328 -0.7009 0.6742
vn -0.2971 0.1701 0.9396
vn -0.6736 -0.1531 0.7230
vn -0.4740 -0.6486 0.5955
vn 0.6736 -0.1530 0.7231
vn 0.3436 0.2132 0.9146
vn 0.4740 -0.6486 0.5955
vn 0.8129 -0.0253 0.5819
vn 0.6741 0.6953 0.2493
vn 0.0940 -0.0005 0.9956
vn 0.7799 -0.6077 0.1501
vn 0.5037 0.4514 0.7366
vn 0.3586 -0.5740 0.7361
vn 0.5775 -0.3752 0.7251
vn 0.8442 0.3637 -0.3938
vn 0.5696 0.4816 0.6661
vn 0.7188 -0.6341 -0.2849
vn 0.8112 0.4531 0.3697
vn 0.5759 -0.5548 0.6005
vn -0.8483 -0.3569 -0.3912
vn -0.5759 -0.5548 0.6005
vn -0.7043 0.3889 0.5939
vn -0.5759 -0.5547 -0.6005
vn -0.8483 -0.3569 0.3912
vn -0.8112 0.4531 -0.3697
vn -0.5696 0.4817 -0.6660
vn -0.5775 -0.3752 -0.7251
vn -0.7149 0.6335 0.2958
vn 0.9059 -0.4129 0.0938
vn 0.5696 0.4817 -0.6660
vn 0.8442 0.3637 0.3938
vn 0.6716 0.6968 -0.2518
vn 0.5422 -0.6277 -0.5586
vn 0.5038 0.4514 -0.7365
vn 0.0701 -0.9205 -0.3845
vn -0.6098 0.2697 -0.7453
vn 0.5382 0.3867 -0.7489
vn -0.6098 0.2697 0.7453
vn 0.2394 -0.8885 0.3916
vn 0.5381 0.3869 0.7489
vn -0.1321 0.5698 0.8111
vn -0.6646 -0.5627 0.4917
vn 0.8020 -0.2886 0.5230
vn -0.6190 0.0933 0.7798
vn -0.0389 -0.9649 0.2597
vn 0.5045 0.2259 0.8333
vn 0.1274 0.5525 0.8237
vn 0.2315 -0.8285 0.5099
vn 0.9282 -0.1632 0.3342
vn 0.3786 -0.8174 0.4342
vn 0.9432 -0.0685 -0.3251
vn 0.8029 0.2909 0.5203
vn 0.0470 0.3931 0.9183
vn 0.6922 -0.2333 0.6830
vn 0.5662 0.8048 0.1783
vn -0.7424 -0.2285 0.6298
vn -0.0470 0.3931 0.9183
vn -0.7681 0.6380 0.0545
vn -0.8442 0.0917 0.5282
vn -0.1683 0.2885 0.9426
vn -0.1511 0.7252 0.6718
vn 0.2295 -0.0566 -0.9717
vn 0.9780 0.0230 -0.2074
vn 0.4110 -0.8731 -0.2622
vn 0.8657 -0.4305 -0.2554
vn 0.2763 -0.5777 0.7680
vn 0.0636 -0.9717 0.2274
vn 0.3681 -0.8237 -0.4313
vn 0.6988 -0.4750 0.5348
vn 0.0730 -0.7822 0.6187
vn 0.5448 -0.7727 -0.3259
vn 0.6269 -0.7690 0.1255
vn -0.0760 -0.9940 0.0793
vn -0.5448 -0.7727 -0.3259
vn 0.0817 -0.9962 0.0296
vn -0.4617 -0.8337 0.3029
vn 0.0650 -0.9896 -0.1280
vn -0.4261 -0.8192 0.3839
vn -0.6269 -0.7690 -0.1255
vn -0.1091 -0.7335 -0.6708
vn -0.3040 -0.8558 0.4186
vn -0.7756 -0.5209 -0.3566
vn 0.8036 -0.5030 0.3181
vn 0.0730 -0.7822 -0.6187
vn 0.5548 -0.4911 -0.6716
vn 0.9195 -0.0491 -0.3899
vn 0.3387 -0.9403 0.0347
vn 0.2764 -0.5777 -0.7680
vn 0.4891 0.8713 0.0405
vn -0.6622 0.1406 -0.7360
vn 0.4885 0.7980 0.3530
vn 0.4126 -0.9101 -0.0376
vn -0.0000 -0.5147 -0.8573
vn 0.8501 -0.3976 -0.3453
vn 0.7658 -0.6037 -0.2216
vn 0.5974 -0.7055 0.3814
vn -0.2482 -0.2904 0.9242
vn -0.1235 -0.9880 -0.0926
vn 0.4877 -0.8652 0.1162
vn 0.6533 -0.5100 0.5596
vn -0.6543 -0.5117 0.5568
vn 0.6396 0.1571 0.7524
vn -0.1980 0.9392 0.2806
vn -0.5943 0.0773 0.8005
vn 0.1522 -0.2004 0.9678
vn 0.2938 0.9077 0.2996
vn -0.6475 0.5753 0.4998
vn 0.6827 0.6678 -0.2966
vn -0.0922 0.8735 0.4780
vn -0.6295 0.7651 -0.1355
vn -0.0000 -0.5147 0.8573
vn 0.7658 -0.6038 0.2216
vn 0.4126 -0.9101 0.0376
vn 0.8501 -0.3976 0.3453
vn -0.6622 0.1406 0.7360
vn 0.3979 0.9112 -0.1067
vn 0.4885 0.7980 -0.3530
vn 0.6740 0.6941 0.2531
vn -0.0000 0.9766 -0.2150
vn -0.0923 0.8735 -0.4780
vn 0.4381 0.8293 -0.3468
vn 0.2042 -0.1885 -0.9606
vn -0.6888 0.3741 -0.6210
vn 0.6479 0.1758 -0.7412
vn -0.6839 0.3094 -0.6607
vn -0.6128 0.6434 -0.4588
vn 0.6250 -0.4730 -0.6210
vn 0.4878 -0.8652 -0.1162
vn -0.6224 -0.4701 -0.6258
vn 0.5974 -0.7055 -0.3814
vn -0.1235 -0.9880 0.0926
vn -0.0531 -0.2675 -0.9621
vn -0.1321 0.5699 -0.8110
vn 0.4949 -0.7610 -0.4195
vn -0.4375 -0.7822 -0.4436
vn 0.7918 -0.1365 -0.5953
vn 0.0389 -0.9649 -0.2597
vn -0.7350 -0.0668 -0.6748
vn 0.0331 0.5077 -0.8609
vn -0.2315 -0.8285 -0.5099
vn -0.9282 -0.1632 -0.3342
vn -0.3786 -0.8174 -0.4342
vn -0.9432 -0.0685 0.3251
vn -0.8029 0.2909 -0.5203
vn -0.0470 0.3932 -0.9183
vn -0.7176 -0.2321 -0.6566
vn -0.5662 0.8048 -0.1783
vn 0.7176 -0.2321 -0.6566
vn 0.0470 0.3932 -0.9183
vn 0.7681 0.6380 -0.0545
vn 0.8397 0.0141 -0.5429
vn 0.1683 0.2885 -0.9426
vn 0.1511 0.7252 -0.6718
vn -0.2858 -0.6880 -0.6670
vn -0.5919 0.2863 0.7534
vn -0.3033 0.8585 -0.4135
vn -0.4589 -0.7884 -0.4097
vn -0.0565 -0.5611 0.8258
vn -0.3033 0.8585 0.4135
vn -0.2822 0.7343 -0.6174
vn -0.4591 -0.5363 0.7082
vn 0.1925 0.7698 0.6085
vn -0.9150 -0.2883 0.2822
vn -0.1289 -0.1983 0.9716
vn -0.2935 0.9319 0.2131
vn -0.8770 0.1244 0.4641
vn -0.7663 -0.6174 -0.1779
vn 0.0305 -0.3390 0.9403
vn -0.9546 0.0880 0.2847
vn -0.1218 -0.8265 0.5496
vn -0.2295 -0.0566 0.9717
vn -0.8113 -0.4948 0.3114
vn -0.3741 -0.5144 -0.7716
vn -0.3387 -0.9403 0.0347
vn 0.1426 -0.4117 -0.9001
vn 0.3508 0.2193 -0.9104
vn 0.5955 -0.6418 -0.4831
vn 0.0649 -0.2510 -0.9658
vn 0.6736 -0.1531 -0.7230
vn 0.4740 -0.6486 -0.5955
vn 0.3616 -0.5759 -0.7332
vn 0.4540 0.7602 -0.4647
vn 0.8128 -0.0254 -0.5819
vn -0.6741 0.6953 -0.2493
vn -0.3060 -0.5348 -0.7876
vn -0.8128 -0.0254 -0.5819
vn -0.7799 -0.6077 -0.1501
vn -0.5038 0.4514 -0.7365
vn -0.5193 -0.6270 -0.5807
vn -0.5037 0.4514 0.7366
vn -0.6716 0.6968 0.2518
vn -0.3797 -0.5862 0.7157
vn -0.5696 0.4816 0.6661
vn -0.7149 0.6335 -0.2958
vn -0.9059 -0.4129 -0.0938
vn -0.2111 0.6612 -0.7199
vn 0.4032 0.2528 -0.8795
vn -0.1911 0.0307 -0.9811
vn 0.4033 0.9141 0.0421
vn -0.0000 0.9198 -0.3925
vn -0.3721 0.9222 0.1051
vn 0.1949 0.9373 0.2889
vn 0.2995 0.9499 -0.0895
vn -0.2489 0.9319 -0.2637
vn 0.1156 0.6205 0.7757
vn -0.1378 0.9901 -0.0272
vn -0.3045 0.7783 0.5491
vn -0.0000 0.6070 0.7947
vn 0.3423 0.9394 0.0170
vn -0.5349 0.8158 0.2197
vn 0.5276 -0.8326 0.1687
vn -0.0000 -0.6068 0.7949
vn -0.4747 -0.8679 0.1461
vn -0.5147 0.7997 0.3091
vn 0.5407 0.8402 -0.0411
vn -0.5143 0.8307 -0.2130
vn 0.5395 0.8402 0.0553
vn -0.0194 0.7997 -0.6001
vn -0.2130 0.8307 0.5143
vn 0.3033 0.8402 0.4495
vn 0.2648 0.8006 -0.5375
vn -0.5909 0.7997 -0.1064
vn 0.5686 0.0727 0.8194
vn -0.2387 0.7759 0.5840
vn -0.6000 0.2310 0.7659
vn 0.1958 -0.2854 0.9382
vn 0.1228 0.8082 0.5759
vn -0.5956 0.3339 0.7306
vn 0.1280 -0.5758 0.8075
vn 0.5919 0.2863 -0.7534
vn 0.3191 0.8436 0.4320
vn 0.4589 -0.7884 0.4097
vn 0.2251 -0.6327 -0.7410
vn 0.3191 0.8436 -0.4320
vn 0.2822 0.7343 0.6174
vn 0.4522 -0.5360 -0.7129
vn -0.3375 0.1772 -0.9245
vn 0.8963 -0.3199 -0.3072
vn 0.1289 -0.1983 -0.9716
vn 0.2391 0.9254 -0.2941
vn 0.9025 0.0985 -0.4193
vn 0.7249 -0.6636 0.1849
vn -0.0305 -0.3390 -0.9403
vn -0.1897 -0.6489 0.7368
vn -0.9512 -0.0783 0.2985
vn -0.2052 -0.9773 0.0520
vn -0.8336 -0.5294 0.1575
vn -0.2296 -0.0565 -0.9716
vn -0.2218 -0.8823 -0.4152
vn -0.3938 -0.9101 0.1293
vn -0.8483 0.1471 -0.5086
vn 0.0304 -0.3390 -0.9403
vn -0.9319 -0.2550 -0.2581
vn -0.1811 0.9370 -0.2986
vn -0.1290 -0.1984 -0.9716
vn -0.4659 -0.5364 -0.7037
vn -0.0184 0.8762 0.4817
vn 0.2593 -0.1854 -0.9478
vn -0.4343 -0.8978 -0.0724
vn -0.2808 -0.1879 -0.9412
vn 0.3651 -0.3059 -0.8793
vn 0.3623 0.2992 -0.8827
vn -0.2695 0.1775 -0.9465
vn -0.0631 0.9978 -0.0198
vn 0.1543 0.1092 -0.9820
vn -0.6871 0.7058 -0.1724
vn 0.6313 0.7681 -0.1071
vn 0.6313 -0.7137 0.3035
vn -0.8766 -0.4306 -0.2150
vn -0.0000 -0.2571 -0.9664
vn 0.1623 -0.1127 -0.9803
vn 0.6751 -0.7263 -0.1294
vn -0.8431 -0.4370 -0.3134
vn -0.8274 0.5616 -0.0029
vn 0.5836 0.7376 0.3396
vn 0.5904 0.4283 -0.6842
vn -0.3336 0.8335 0.4405
vn 0.6911 0.6161 -0.3779
vn -0.6885 0.6138 -0.3863
vn -0.0083 0.2113 0.9774
vn 0.3111 0.2494 0.9171
vn -0.0000 0.4727 -0.8812
vn -0.0000 0.2079 0.9782
vn -0.0000 0.5267 -0.8500
vn -0.4476 0.4127 -0.7933
vn -0.9944 0.0875 -0.0597
vn 0.9990 0.0361 -0.0246
vn 0.3107 -0.2505 0.9169
vn -0.4476 -0.4127 -0.7933
vn 0.6903 -0.5978 0.4076
vn -0.4488 -0.3062 0.8396
vn -0.5212 -0.3851 -0.7616
vn 0.5898 -0.4301 -0.6835
vn -0.7068 -0.6805 0.1934
vn 0.0002 -0.9198 -0.3924
vn 0.3991 -0.9153 0.0549
vn -0.0341 -0.9434 0.3300
vn 0.4071 -0.2646 -0.8742
vn -0.0833 -0.7119 -0.6974
vn -0.4169 -0.3394 -0.8432
vn 0.2131 -0.0359 -0.9764
vn 0.2022 -0.6634 -0.7204
vn -0.3341 -0.5333 -0.7772
vn 0.3119 0.6142 -0.7249
vn 0.2451 -0.0715 -0.9668
vn -0.3705 0.4850 -0.7921
vn -0.2435 0.6867 -0.6850
vn 0.5399 0.2179 -0.8130
vn -0.3956 0.0104 -0.9184
vn 0.5448 -0.2311 -0.8061
vn -0.1273 -0.7468 -0.6527
vn -0.4218 -0.0340 -0.9061
vn 0.2646 0.0624 -0.9623
vn 0.2542 -0.6757 -0.6920
vn -0.3447 -0.5657 -0.7491
vn 0.2715 0.6107 -0.7439
vn 0.1946 0.0266 -0.9805
vn -0.3651 0.4563 -0.8115
vn 0.3828 0.8703 -0.3099
vn 0.9655 0.2574 0.0391
vn 0.6816 -0.7156 0.1527
vn 0.9655 0.2574 -0.0391
vn 0.4171 -0.1395 0.8981
vn 0.6816 -0.7156 -0.1527
vn 0.8506 0.2056 -0.4839
vn 0.7297 0.6832 0.0271
vn 0.3620 -0.9237 -0.1255
vn -0.8960 -0.0396 0.4423
vn -0.8506 0.2056 -0.4839
vn -0.3620 -0.9237 -0.1255
vn 0.8506 0.2056 0.4839
vn 0.3686 -0.9232 0.1090
vn 0.8922 0.1302 -0.4325
vn -0.3554 -0.9238 0.1420
vn -0.8506 0.2056 0.4839
vn -0.7845 0.5981 -0.1639
vn -0.3961 -0.9178 -0.0260
vn -0.6816 -0.7156 0.1527
vn -0.9655 0.2574 0.0391
vn -0.6816 -0.7156 -0.1527
vn -0.4172 -0.1394 0.8981
vn -0.9655 0.2574 -0.0391
vn 0.2869 0.9226 0.2579
vn 0.1290 -0.1984 0.9716
vn 0.9150 -0.2883 0.2822
vn -0.0304 -0.3390 0.9403
vn 0.3409 -0.9340 -0.1066
vn 0.8770 0.1244 0.4641
vn 0.2295 -0.0566 0.9717
vn 0.1218 -0.8265 0.5496
vn 0.7720 -0.6105 -0.1768
vn 0.6238 0.2665 -0.7347
vn 0.6423 0.4870 -0.5919
vn 0.5416 -0.6285 -0.5583
vn -0.6423 0.4870 -0.5919
vn -0.6238 0.2665 -0.7347
vn -0.4578 -0.6480 -0.6087
vn -0.8397 0.0142 -0.5429
vn -0.1511 0.7252 -0.6717
vn -0.1683 0.2885 -0.9426
vn 0.1228 0.8082 -0.5759
vn 0.2578 -0.2613 -0.9302
vn -0.5956 0.3339 -0.7306
vn 0.5982 0.2190 -0.7708
vn -0.2388 -0.2710 -0.9325
vn -0.2387 0.7758 -0.5840
vn 0.0497 0.8006 0.5971
vn 0.3887 0.8402 -0.3782
vn -0.5998 0.7997 0.0278
vn 0.6710 0.7405 -0.0374
vn 0.9069 -0.4041 0.1191
vn 0.9701 0.2081 0.1249
vn 0.4578 -0.6480 0.6087
vn 0.6759 0.4645 0.5722
vn 0.6238 0.2665 0.7347
vn -0.5416 -0.6285 0.5583
vn -0.6238 0.2665 0.7347
vn -0.6071 0.5062 0.6125
vn 0.9566 0.1422 -0.2545
vn 0.9921 0.0390 -0.1193
vn 0.8478 -0.3412 0.4060
vn 0.9691 -0.0320 0.2446
vn 0.9857 0.1651 0.0325
vn -0.9672 -0.0359 -0.2514
vn -0.9618 -0.2733 0.0127
vn 0.7289 0.2220 0.6476
vn 0.6970 -0.5769 0.4258
vn 0.6554 0.7128 -0.2497
vn 0.9857 0.0234 -0.1667
vn 0.9618 -0.2734 -0.0136
vn 0.9454 -0.1391 -0.2948
vn 0.7118 -0.6658 0.2237
vn 0.8922 -0.2238 -0.3923
vn 0.6589 0.7148 0.2343
vn 0.6955 -0.5765 -0.4289
vn 0.7289 0.2298 -0.6449
vn -0.5302 0.8477 0.0166
vn -0.8056 -0.0618 -0.5892
vn -0.6970 -0.5769 -0.4258
vn -0.8064 0.4144 0.4218
vn -0.5166 0.8561 -0.0152
vn -0.6955 -0.5765 0.4289
vn -0.8764 -0.1985 0.4387
vn -0.9989 0.0356 0.0297
vn -0.7104 0.5904 -0.3830
vn -0.9346 0.0735 0.3482
vn -0.8424 0.5388 0.0090
vn -0.4985 -0.8128 0.3014
vn -0.9857 0.1651 0.0325
vn -0.9691 -0.0320 0.2446
vn -0.9566 0.1422 -0.2545
vn -0.8478 -0.3412 0.4060
vn -0.9921 0.0390 -0.1193
vn -0.5392 -0.7672 -0.3474
vn -0.1903 -0.2214 -0.9564
vn -0.9316 0.0749 -0.3558
vn 0.5392 -0.7672 -0.3474
vn 0.9316 0.0749 -0.3558
vn 0.1903 -0.2214 -0.9564
vn -0.9618 -0.2735 -0.0072
vn -0.9857 0.0234 -0.1667
vn -0.9165 -0.2437 -0.3171
vn -0.7138 0.6037 0.3550
vn -0.9454 -0.1391 -0.2948
vn -0.6852 -0.7146 0.1409
vn -0.7137 0.6961 0.0785
vn -0.9540 -0.1427 -0.2636
vn 0.5583 -0.8061 -0.1964
vn 0.9540 -0.1427 -0.2636
vn 0.8671 -0.1080 0.4863
vn 0.9711 -0.1587 -0.1781
vn 0.9346 0.0735 0.3482
vn 0.4790 -0.8136 0.3296
vn 0.9989 0.0356 0.0297
vn 0.8985 -0.2428 0.3657
vn 0.5951 -0.8002 0.0749
vn 0.9672 -0.0359 -0.2513
vn 0.9618 -0.2736 0.0080
vn 0.9618 0.2736 0.0077
vn -0.7690 0.5802 0.2683
vn -0.8740 -0.2446 -0.4200
vn -0.5007 -0.3263 -0.8017
vn -0.8740 0.4370 -0.2127
vn -0.7250 -0.2099 -0.6560
vn -0.5007 -0.7618 -0.4110
vn -0.7256 0.6842 0.0737
vn -0.8402 -0.3053 -0.4481
vn -0.8006 -0.5992 0.0018
vn -0.8006 -0.5687 -0.1887
vn -0.8011 -0.1805 0.5707
vn -0.7256 0.5161 -0.4552
vn -0.8740 0.0080 0.4859
vn -0.7690 0.5803 -0.2682
vn -0.5007 -0.3263 0.8018
vn -0.7250 -0.0015 0.6888
vn -0.8740 0.4733 0.1103
vn -0.5007 -0.7618 0.4110
vn 0.7256 0.6881 0.0043
vn 0.7986 0.5112 0.3178
vn 0.7997 -0.5940 -0.0873
vn -0.7256 -0.6816 -0.0945
vn -0.8976 0.3475 0.2711
vn -0.7250 -0.2083 -0.6565
vn 0.7986 0.5111 -0.3178
vn 0.7256 0.6594 0.1967
vn 0.7997 -0.5699 0.1891
vn 0.7690 0.5803 -0.2682
vn 0.8740 0.3384 0.3489
vn 0.5008 0.7645 -0.4058
vn 0.8740 0.4844 -0.0397
vn 0.7250 0.0182 0.6886
vn 0.5008 0.8636 0.0587
vn 0.8740 -0.1302 -0.4682
vn 0.8976 0.2707 0.3479
vn 0.7250 -0.6870 -0.0497
vn 0.8976 0.3810 0.2217
vn 0.7256 -0.6659 0.1737
vn 0.7250 -0.2261 -0.6506
vn 0.8976 0.4354 0.0684
vn 0.8307 -0.5562 0.0233
vn 0.7256 -0.2448 -0.6431
vn 0.8307 -0.4835 0.2758
vn 0.7997 -0.5998 0.0276
vn 0.7256 0.6814 -0.0958
vn 0.5008 0.7645 0.4058
vn 0.8740 -0.2446 -0.4200
vn 0.7690 0.5803 0.2682
vn 0.5008 0.8636 -0.0587
vn 0.7249 -0.6788 -0.1170
vn 0.8740 0.4370 -0.2127
vn 0.7250 -0.5075 0.4657
vn 0.8976 0.2707 -0.3479
vn 0.8740 0.4262 0.2336
vn 0.7250 0.5900 0.3554
vn 0.7256 -0.6097 -0.3190
vn 0.8976 0.3810 -0.2217
vn 0.7256 -0.6043 0.3293
vn 0.8307 -0.5523 -0.0698
vn 0.8976 0.4354 -0.0684
vn 0.7256 0.6792 0.1108
vn 0.7997 -0.2509 0.5455
vn 0.8307 -0.1913 -0.5228
vn -0.7250 -0.0092 0.6887
vn -0.8976 0.4074 -0.1682
vn -0.7256 -0.6861 0.0529
vn -0.8976 0.4400 -0.0255
vn -0.8402 -0.5398 -0.0520
vn -0.7256 0.4284 0.5386
vn -0.8976 0.4267 0.1106
vn -0.7256 0.5222 -0.4481
vn -0.8402 -0.5409 0.0387
vn -0.7256 0.6846 -0.0697
vn -0.8006 -0.5524 -0.2321
vn -0.8402 -0.3910 0.3758
vn -0.7256 0.4783 0.4947
vn -0.8011 -0.1805 -0.5707
vn -0.8006 -0.5803 0.1492
o base
usemtl Brush.057
f 1/1/1 2/2/2 3/3/3
f 3/3/4 4/4/5 1/1/6
f 5/5/7 6/6/8 7/7/9
f 7/7/10 8/8/11 5/5/12
f 9/9/13 10/10/14 11/11/15
f 12/12/16 10/10/17 9/9/18
f 13/13/19 14/14/19 15/15/19
f 16/16/19 13/13/19 15/15/19
f 17/17/20 18/18/21 19/7/22
f 20/8/23 17/17/24 19/7/25
f 21/19/26 22/20/26 19/21/26
f 23/20/19 11/22/19 24/23/19
f 25/19/19 23/20/19 7/21/19
f 24/23/26 22/20/26 12/22/26
f 26/24/27 27/25/28 28/26/29
f 29/27/30 6/28/31 30/29/32
f 31/30/33 32/31/34 33/32/35
f 34/30/36 35/31/37 36/32/38
f 37/33/39 38/34/40 39/35/41
f 40/36/42 41/37/43 15/38/44
f 42/39/45 43/40/46 39/35/47
f 37/41/48 39/42/49 43/43/50
f 44/25/51 45/24/52 28/26/53
f 46/44/54 47/45/55 48/46/56
f 49/47/57 50/48/58 51/49/59
f 52/50/60 53/5/61 54/34/62
f 55/51/63 56/44/64 57/46/65
f 58/45/66 48/46/67 59/52/68
f 60/40/69 61/39/70 62/35/71
f 62/53/72 63/54/73 60/55/74
f 14/38/75 64/56/76 28/36/77
f 11/22/78 36/32/79 9/23/80
f 36/32/81 12/22/82 9/23/83
f 36/32/84 35/31/85 12/22/86
f 35/31/87 33/32/88 12/22/89
f 35/31/90 34/30/91 33/32/92
f 34/30/93 65/57/94 33/32/95
f 34/30/96 36/32/97 65/57/98
f 36/32/99 66/58/100 65/57/101
f 36/32/102 67/57/103 66/58/104
f 67/57/105 68/59/106 66/58/107
f 67/57/108 69/58/109 68/59/110
f 69/58/111 55/51/112 68/59/113
f 69/58/114 70/59/115 55/51/116
f 70/59/117 56/44/118 55/51/119
f 70/59/120 71/51/121 56/44/122
f 12/22/123 33/32/124 10/23/125
f 33/32/126 11/22/127 10/23/128
f 33/32/129 32/31/130 11/22/131
f 32/31/132 36/32/133 11/22/134
f 32/31/135 31/30/136 36/32/137
f 31/30/138 67/57/139 36/32/140
f 31/30/141 33/32/142 67/57/143
f 33/32/144 69/58/145 67/57/146
f 33/32/147 65/57/148 69/58/149
f 65/57/150 70/59/151 69/58/152
f 65/57/153 66/58/154 70/59/155
f 66/58/156 71/51/157 70/59/158
f 66/58/159 68/59/160 71/51/161
f 68/59/162 46/44/163 71/51/164
f 68/59/165 55/51/166 46/44/167
f 46/44/168 48/46/169 71/51/170
f 48/46/171 56/44/172 71/51/173
f 48/46/174 58/45/175 56/44/176
f 58/45/177 57/46/178 56/44/179
f 58/45/180 59/52/181 57/46/182
f 59/52/183 49/47/184 57/46/185
f 59/52/186 72/49/187 49/47/188
f 72/49/189 50/48/190 49/47/191
f 72/49/192 73/47/193 50/48/194
f 73/47/195 51/49/196 50/48/197
f 73/47/198 74/52/199 51/49/200
f 74/52/201 49/47/202 51/49/203
f 74/52/204 57/46/205 49/47/206
f 75/18/207 10/60/208 9/61/209
f 10/60/210 18/18/211 9/61/212
f 10/60/213 76/6/214 18/18/215
f 76/6/216 19/7/217 18/18/218
f 76/6/219 53/5/220 19/7/221
f 53/5/222 20/8/223 19/7/224
f 53/5/225 52/50/226 20/8/227
f 52/50/228 17/17/229 20/8/230
f 52/50/231 61/39/232 17/17/233
f 53/62/234 64/56/235 77/63/236
f 64/56/237 40/36/238 77/63/239
f 64/56/240 14/38/241 40/36/242
f 14/38/243 41/37/244 40/36/245
f 14/38/246 28/36/247 41/37/248
f 28/36/249 15/38/250 41/37/251
f 28/36/252 78/56/253 15/38/254
f 78/56/255 40/36/256 15/38/257
f 78/56/258 79/63/259 40/36/260
f 27/25/261 61/64/262 54/64/263
f 61/64/264 63/65/265 54/64/266
f 61/64/267 60/65/265 63/65/265
f 60/65/268 80/66/269 63/65/270
f 60/65/271 81/66/272 80/66/273
f 81/66/274 82/25/275 80/66/276
f 81/66/277 27/25/278 82/25/279
f 27/25/280 54/64/281 82/25/282
f 43/65/283 42/64/284 37/65/283
f 42/64/285 38/64/286 37/65/283
f 42/64/287 44/25/288 38/64/289
f 44/25/290 83/25/291 38/64/292
f 44/25/293 84/66/294 83/25/295
f 84/66/296 85/66/297 83/25/298
f 84/66/299 43/65/300 85/66/301
f 43/65/302 37/65/303 85/66/304
f 10/60/305 75/18/306 6/6/307
f 75/18/308 7/7/309 6/6/310
f 75/18/311 86/17/312 7/7/313
f 86/17/314 8/8/315 7/7/316
f 86/17/317 87/50/318 8/8/319
f 87/50/320 5/5/321 8/8/322
f 87/50/323 38/34/324 5/5/325
f 18/28/326 29/27/327 9/67/328
f 29/27/329 75/28/330 9/67/331
f 29/27/332 30/29/333 75/28/334
f 30/29/335 86/62/336 75/28/337
f 30/29/338 78/56/339 86/62/340
f 78/56/341 45/63/342 86/62/343
f 78/56/344 28/36/345 45/63/346
f 55/51/347 57/46/348 46/44/349
f 57/46/350 47/45/351 46/44/352
f 57/46/353 74/52/354 47/45/355
f 74/52/356 48/46/357 47/45/358
f 74/52/359 73/47/360 48/46/361
f 73/47/362 59/52/363 48/46/364
f 73/47/365 72/49/366 59/52/367
f 88/68/368 89/4/369 90/69/370
f 89/4/371 91/1/372 90/69/373
f 89/4/374 92/3/375 91/1/376
f 92/3/377 2/2/378 91/1/379
f 92/3/380 93/70/381 2/2/382
f 93/70/383 3/3/384 2/2/385
f 94/71/386 95/72/387 96/71/388
f 95/72/389 97/71/390 96/71/391
f 95/72/392 98/72/393 97/71/394
f 98/72/395 63/33/396 97/71/397
f 98/72/398 60/40/399 63/33/400
f 6/28/401 29/27/402 10/67/403
f 29/27/404 76/28/405 10/67/406
f 29/27/407 99/29/408 76/28/409
f 99/29/410 53/62/411 76/28/412
f 99/29/413 64/56/414 53/62/415
f 28/36/416 64/56/417 26/63/418
f 64/56/419 17/62/420 26/63/421
f 64/56/422 99/29/423 17/62/424
f 99/29/425 18/28/426 17/62/427
f 99/29/428 29/27/429 18/28/430
f 100/73/431 101/74/432 102/75/433
f 102/75/434 101/74/435 103/73/436
f 102/75/437 103/73/438 104/76/439
f 104/76/440 103/73/441 105/77/442
f 102/75/443 106/76/444 100/73/445
f 100/73/446 106/76/447 107/77/448
f 100/73/449 107/77/450 108/78/451
f 108/78/452 107/77/453 109/79/454
f 107/77/455 110/80/456 109/79/457
f 109/79/458 110/80/459 105/77/460
f 109/79/461 105/77/462 111/78/463
f 111/78/464 105/77/465 103/73/466
f 1/1/467 4/4/468 112/69/469
f 4/4/470 113/68/471 112/69/472
f 4/4/473 114/81/474 113/68/475
f 114/81/476 115/82/477 113/68/478
f 113/68/479 115/82/480 116/83/481
f 115/82/482 88/68/483 116/83/484
f 115/82/485 117/81/486 88/68/487
f 117/81/488 89/4/489 88/68/490
f 118/84/491 119/85/492 120/86/493
f 119/85/494 121/87/495 120/86/496
f 119/85/497 122/88/498 121/87/499
f 122/88/500 123/85/501 121/87/502
f 119/85/503 118/84/504 124/89/505
f 118/84/506 123/85/507 124/89/508
f 118/84/509 120/86/510 123/85/511
f 120/86/512 121/87/513 123/85/514
f 6/28/515 5/62/516 30/29/517
f 5/62/518 78/56/519 30/29/520
f 5/62/521 79/63/522 78/56/523
f 38/34/524 87/50/525 39/35/526
f 87/50/527 42/39/528 39/35/529
f 87/50/530 86/17/531 42/39/532
f 43/40/533 125/72/534 37/33/535
f 125/72/536 94/71/537 37/33/538
f 125/72/539 95/72/540 94/71/541
f 63/33/542 62/35/543 54/34/544
f 62/35/545 52/50/546 54/34/547
f 62/35/548 61/39/549 52/50/550
f 126/90/551 127/91/552 128/92/553
f 129/93/26 127/91/554 126/90/555
f 130/94/556 131/95/557 132/96/19
f 133/95/558 134/97/559 135/98/560
f 129/93/26 126/90/555 136/99/26
f 126/90/561 133/95/562 136/99/26
f 126/90/563 137/100/564 133/95/565
f 137/100/566 134/97/567 133/95/568
f 137/100/569 131/95/570 134/97/571
f 131/95/572 135/98/573 134/97/574
f 131/95/575 130/94/576 135/98/577
f 130/94/578 62/101/579 135/98/580
f 138/99/19 139/90/581 140/93/19
f 139/90/581 141/91/582 140/93/19
f 139/90/583 128/92/584 141/91/585
f 128/92/586 39/102/587 141/91/588
f 128/92/589 127/91/590 39/102/591
f 132/96/19 131/95/592 138/99/19
f 131/95/592 139/90/593 138/99/19
f 131/95/594 137/100/595 139/90/596
f 137/100/597 142/103/598 139/90/599
f 137/100/600 126/90/601 142/103/602
f 62/101/603 143/94/604 135/98/605
f 143/94/606 133/95/607 135/98/608
f 143/94/609 144/96/26 133/95/610
f 144/96/26 136/99/26 133/95/611
f 145/104/19 146/105/19 147/106/19
f 148/106/26 149/105/26 150/104/26
f 149/105/26 151/107/26 150/104/26
f 152/108/26 153/109/26 154/110/26
f 155/111/26 154/110/26 153/109/26
f 156/110/19 157/109/19 158/108/19
f 157/109/19 156/110/19 159/111/19
f 160/112/19 161/113/19 162/114/19
f 152/108/26 163/115/26 164/116/26
f 2/117/26 165/118/26 1/119/26
f 166/120/26 167/121/26 168/122/26
f 88/123/26 169/124/26 170/125/26
f 171/116/19 172/115/19 158/108/19
f 60/65/19 61/64/19 173/126/19
f 37/65/26 38/64/26 174/126/26
f 164/116/26 148/106/26 152/108/26
f 152/108/26 148/106/26 175/127/26
f 153/109/26 175/127/26 97/128/26
f 153/109/26 97/128/26 94/129/26
f 165/118/26 149/105/26 1/119/26
f 1/119/26 149/105/26 168/122/26
f 1/119/26 168/122/26 112/130/26
f 112/130/26 168/122/26 167/121/26
f 112/130/26 167/121/26 113/131/26
f 113/131/26 167/121/26 169/124/26
f 116/132/26 169/124/26 88/123/26
f 176/133/26 177/134/26 178/135/26
f 178/135/26 177/134/26 2/117/26
f 178/135/26 2/117/26 179/136/26
f 180/137/19 181/138/19 182/122/19
f 182/122/19 181/138/19 146/105/19
f 3/119/19 146/105/19 183/118/19
f 3/119/19 183/118/19 93/117/19
f 93/117/19 183/118/19 184/139/19
f 93/117/19 184/139/19 185/134/19
f 185/134/19 184/139/19 186/140/19
f 187/124/19 115/132/19 117/123/19
f 187/124/19 117/123/19 188/125/19
f 160/112/19 92/141/19 189/136/19
f 147/106/19 171/116/19 158/108/19
f 190/127/19 157/109/19 98/128/19
f 191/142/19 192/143/19 17/144/19
f 17/144/19 193/145/19 61/64/19
f 61/64/19 193/145/19 194/146/19
f 42/64/19 195/146/19 196/145/19
f 42/64/19 196/145/19 86/144/19
f 86/144/19 196/145/19 197/143/19
f 198/126/26 199/146/26 54/64/26
f 54/64/26 200/145/26 53/144/26
f 53/144/26 200/145/26 201/143/26
f 5/144/26 202/145/26 38/64/26
f 165/118/26 2/117/26 203/139/26
f 203/139/26 2/117/26 177/134/26
f 88/123/26 170/125/26 90/147/26
f 90/147/26 170/125/26 204/114/26
f 90/147/26 204/114/26 91/141/26
f 93/117/19 205/135/19 189/136/19
f 103/148/26 101/149/26 111/150/26
f 112/130/26 103/148/26 111/150/26
f 206/107/19 146/105/19 145/104/19
f 74/52/19 47/45/19 207/151/19
f 208/152/19 209/153/19 210/154/19
f 210/154/19 211/155/19 208/152/19
f 212/153/26 213/154/26 214/152/26
f 215/155/26 214/152/26 213/154/26
f 114/131/19 104/148/19 115/132/19
f 114/131/19 4/130/19 104/148/19
f 216/143/26 202/145/26 5/144/26
f 5/144/26 217/142/26 216/143/26
f 218/25/19 219/66/19 141/65/19
f 141/65/19 220/64/19 218/25/19
f 221/25/26 222/64/26 127/65/26
f 127/65/26 223/66/26 221/25/26
f 224/66/19 225/25/19 130/65/19
f 226/64/19 130/65/19 225/25/19
f 227/64/26 228/25/26 143/65/26
f 229/66/26 143/65/26 228/25/26
f 86/144/612 45/24/613 42/64/614
f 45/24/615 44/25/616 42/64/617
f 84/66/618 95/156/619 125/128/620
f 125/128/621 43/65/622 84/66/623
f 26/24/624 17/144/625 61/64/626
f 27/25/627 26/24/628 61/64/629
f 230/157/26 204/114/26 170/125/26
f 231/158/26 232/113/26 204/114/26
f 233/159/19 234/160/19 235/161/19
f 236/151/26 56/44/26 215/155/26
f 237/159/26 238/160/26 239/161/26
f 215/155/26 56/44/26 70/59/26
f 207/151/19 46/44/19 211/155/19
f 240/162/26 241/163/26 242/164/26
f 243/120/19 182/122/19 244/121/19
f 162/114/19 245/157/19 188/125/19
f 162/114/19 89/147/19 92/141/19
f 43/65/19 246/126/19 42/64/19
f 247/142/26 53/144/26 201/143/26
f 85/66/630 37/65/631 94/128/632
f 248/162/19 249/163/19 250/164/19
f 81/66/633 28/26/634 27/25/635
f 63/65/636 80/66/637 97/128/638
f 169/124/26 116/132/26 113/131/26
f 88/123/26 100/165/26 116/132/26
f 88/123/26 90/147/26 100/165/26
f 90/147/26 108/166/26 100/165/26
f 90/147/26 91/141/26 108/166/26
f 91/141/26 109/167/26 108/166/26
f 91/141/26 2/117/26 109/167/26
f 2/117/26 1/119/26 109/167/26
f 93/117/19 110/167/19 3/119/19
f 93/117/19 92/141/19 110/167/19
f 92/141/19 107/166/19 110/167/19
f 92/141/19 89/147/19 107/166/19
f 89/147/19 106/165/19 107/166/19
f 89/147/19 117/123/19 106/165/19
f 117/123/19 115/132/19 106/165/19
f 187/124/19 114/131/19 115/132/19
f 187/124/19 244/121/19 114/131/19
f 244/121/19 4/130/19 114/131/19
f 244/121/19 182/122/19 4/130/19
f 182/122/19 3/119/19 4/130/19
f 182/122/19 146/105/19 3/119/19
f 242/164/26 251/168/26 252/169/26
f 253/170/26 254/171/26 238/160/26
f 249/163/19 255/172/19 256/173/19
f 250/164/19 256/173/19 257/168/19
f 250/164/19 257/168/19 258/169/19
f 234/160/19 259/171/19 208/152/19
f 68/59/19 235/161/19 211/155/19
f 235/161/19 208/152/19 211/155/19
f 235/161/19 234/160/19 208/152/19
f 234/160/19 260/170/19 259/171/19
f 260/170/19 261/174/19 259/171/19
f 260/170/19 258/169/19 261/174/19
f 258/169/19 257/168/19 261/174/19
f 250/164/19 249/163/19 256/173/19
f 249/163/19 262/175/19 255/172/19
f 70/59/26 239/161/26 215/155/26
f 239/161/26 214/152/26 215/155/26
f 239/161/26 238/160/26 214/152/26
f 238/160/26 254/171/26 214/152/26
f 253/170/26 263/174/26 254/171/26
f 253/170/26 252/169/26 263/174/26
f 252/169/26 251/168/26 263/174/26
f 242/164/26 264/173/26 251/168/26
f 242/164/26 241/163/26 264/173/26
f 241/163/26 265/172/26 264/173/26
f 241/163/26 266/175/26 265/172/26
f 153/109/26 152/108/26 175/127/26
f 164/116/26 149/105/26 148/106/26
f 164/116/26 267/138/26 149/105/26
f 267/138/26 168/122/26 149/105/26
f 267/138/26 268/137/26 168/122/26
f 181/138/19 171/116/19 146/105/19
f 171/116/19 147/106/19 146/105/19
f 158/108/19 190/127/19 147/106/19
f 158/108/19 157/109/19 190/127/19
f 157/109/19 125/129/19 98/128/19
f 269/158/19 162/114/19 161/113/19
f 162/114/19 92/141/19 160/112/19
f 92/141/19 93/117/19 189/136/19
f 93/117/19 185/134/19 205/135/19
f 185/134/19 270/133/19 205/135/19
f 53/144/639 77/24/640 54/64/641
f 77/24/642 82/25/643 54/64/644
f 77/24/645 40/26/646 82/25/647
f 40/26/648 80/66/649 82/25/650
f 40/26/651 96/156/652 80/66/653
f 96/156/654 97/128/655 80/66/656
f 232/113/26 271/112/26 204/114/26
f 271/112/26 91/141/26 204/114/26
f 271/112/26 179/136/26 91/141/26
f 179/136/26 2/117/26 91/141/26
f 38/64/657 79/24/658 5/144/659
f 38/64/660 83/25/661 79/24/662
f 83/25/663 40/26/664 79/24/665
f 83/25/666 85/66/667 40/26/668
f 85/66/669 96/156/670 40/26/671
f 85/66/672 94/128/673 96/156/674
f 108/166/26 101/149/26 100/165/26
f 101/149/26 116/132/26 100/165/26
f 101/149/26 103/148/26 116/132/26
f 103/148/26 113/131/26 116/132/26
f 103/148/26 112/130/26 113/131/26
f 252/169/26 12/22/26 242/164/26
f 258/169/19 32/31/19 11/22/19
f 250/164/19 23/20/19 25/19/19
f 3/119/19 105/150/19 4/130/19
f 105/150/19 104/148/19 4/130/19
f 105/150/19 102/149/19 104/148/19
f 102/149/19 115/132/19 104/148/19
f 102/149/19 106/165/19 115/132/19
f 21/19/26 242/164/26 22/20/26
f 242/164/26 12/22/26 22/20/26
f 252/169/26 35/31/26 12/22/26
f 252/169/26 34/30/26 35/31/26
f 173/126/19 61/64/19 194/146/19
f 17/144/19 192/143/19 193/145/19
f 272/142/19 86/144/19 197/143/19
f 42/64/19 246/126/19 195/146/19
f 44/25/675 28/26/676 84/66/677
f 28/26/678 95/156/679 84/66/680
f 28/26/681 81/66/682 95/156/683
f 81/66/684 98/128/685 95/156/686
f 81/66/687 60/65/688 98/128/689
f 250/164/19 11/22/19 23/20/19
f 250/164/19 258/169/19 11/22/19
f 258/169/19 31/30/19 32/31/19
f 108/166/26 109/167/26 101/149/26
f 109/167/26 111/150/26 101/149/26
f 109/167/26 1/119/26 111/150/26
f 1/119/26 112/130/26 111/150/26
f 106/165/19 102/149/19 107/166/19
f 102/149/19 110/167/19 107/166/19
f 102/149/19 105/150/19 110/167/19
f 105/150/19 3/119/19 110/167/19
f 273/140/26 203/139/26 177/134/26
f 46/44/19 68/59/19 211/155/19
f 274/176/26 59/52/26 236/151/26
f 236/151/26 58/45/26 56/44/26
f 275/176/19 74/52/19 207/151/19
f 207/151/19 47/45/19 46/44/19
f 236/151/26 59/52/26 58/45/26
f 162/114/19 188/125/19 89/147/19
f 188/125/19 117/123/19 89/147/19
f 200/145/26 54/64/26 199/146/26
f 54/64/26 63/65/26 198/126/26
f 38/64/26 276/146/26 174/126/26
f 38/64/26 202/145/26 276/146/26
f 277/19/19 278/21/19 279/20/19
f 280/20/26 281/23/26 282/22/26
f 283/19/26 284/21/26 280/20/26
f 281/23/19 285/22/19 279/20/19
f 286/52/26 287/151/26 288/45/26
f 289/152/26 290/154/26 291/153/26
f 290/154/26 289/152/26 292/155/26
f 293/153/19 294/152/19 295/154/19
f 296/155/19 295/154/19 294/152/19
f 297/159/26 298/161/26 299/160/26
f 300/151/19 296/155/19 301/44/19
f 302/159/19 303/161/19 304/160/19
f 287/151/26 292/155/26 305/44/26
f 306/162/19 307/164/19 308/163/19
f 309/162/26 310/164/26 311/163/26
f 307/164/19 312/169/19 313/168/19
f 314/170/19 304/160/19 315/171/19
f 311/163/26 316/173/26 317/172/26
f 310/164/26 318/168/26 316/173/26
f 310/164/26 319/169/26 318/168/26
f 299/160/26 289/152/26 320/171/26
f 321/59/26 292/155/26 298/161/26
f 298/161/26 292/155/26 289/152/26
f 298/161/26 289/152/26 299/160/26
f 299/160/26 320/171/26 322/170/26
f 322/170/26 320/171/26 323/174/26
f 322/170/26 323/174/26 319/169/26
f 319/169/26 323/174/26 318/168/26
f 310/164/26 316/173/26 311/163/26
f 311/163/26 317/172/26 324/175/26
f 325/59/19 296/155/19 303/161/19
f 303/161/19 296/155/19 294/152/19
f 303/161/19 294/152/19 304/160/19
f 304/160/19 294/152/19 315/171/19
f 314/170/19 315/171/19 326/174/19
f 314/170/19 326/174/19 312/169/19
f 312/169/19 326/174/19 313/168/19
f 307/164/19 313/168/19 327/173/19
f 307/164/19 327/173/19 308/163/19
f 308/163/19 327/173/19 328/172/19
f 308/163/19 328/172/19 329/175/19
f 312/169/19 307/164/19 285/22/19
f 319/169/26 282/22/26 330/31/26
f 310/164/26 283/19/26 280/20/26
f 277/19/19 279/20/19 307/164/19
f 307/164/19 279/20/19 285/22/19
f 312/169/19 285/22/19 331/31/19
f 312/169/19 331/31/19 332/30/19
f 310/164/26 280/20/26 282/22/26
f 310/164/26 282/22/26 319/169/26
f 319/169/26 330/31/26 333/30/26
f 305/44/26 292/155/26 321/59/26
f 334/176/19 300/151/19 335/52/19
f 300/151/19 301/44/19 336/45/19
f 337/176/26 287/151/26 286/52/26
f 287/151/26 305/44/26 288/45/26
f 300/151/19 336/45/19 335/52/19
f 338/13/26 339/15/26 340/14/26
f 341/16/26 339/15/26 338/13/26
f 342/104/26 343/106/26 344/105/26
f 345/106/19 346/104/19 347/105/19
f 347/105/19 346/104/19 348/107/19
f 349/108/19 350/110/19 351/109/19
f 352/111/19 351/109/19 350/110/19
f 353/110/26 354/108/26 355/109/26
f 355/109/26 356/111/26 353/110/26
f 357/112/26 358/114/26 359/113/26
f 349/108/19 360/116/19 361/115/19
f 362/117/19 363/119/19 364/118/19
f 365/120/19 366/122/19 367/121/19
f 368/123/19 369/125/19 370/124/19
f 371/116/26 354/108/26 372/115/26
f 373/65/26 374/126/26 375/64/26
f 376/65/19 377/126/19 378/64/19
f 360/116/19 349/108/19 345/106/19
f 349/108/19 379/127/19 345/106/19
f 351/109/19 380/128/19 379/127/19
f 351/109/19 381/129/19 380/128/19
f 364/118/19 363/119/19 347/105/19
f 363/119/19 366/122/19 347/105/19
f 363/119/19 382/130/19 366/122/19
f 382/130/19 367/121/19 366/122/19
f 382/130/19 383/131/19 367/121/19
f 383/131/19 370/124/19 367/121/19
f 384/132/19 368/123/19 370/124/19
f 385/133/19 386/135/19 387/134/19
f 386/135/19 362/117/19 387/134/19
f 386/135/19 388/136/19 362/117/19
f 389/137/26 390/122/26 391/138/26
f 390/122/26 344/105/26 391/138/26
f 392/119/26 393/118/26 344/105/26
f 392/119/26 394/117/26 393/118/26
f 394/117/26 395/139/26 393/118/26
f 394/117/26 396/134/26 395/139/26
f 396/134/26 397/140/26 395/139/26
f 398/124/26 399/123/26 400/132/26
f 398/124/26 401/125/26 399/123/26
f 357/112/26 402/136/26 403/141/26
f 343/106/26 354/108/26 371/116/26
f 404/127/26 405/128/26 355/109/26
f 406/142/26 407/144/26 408/143/26
f 407/144/26 375/64/26 409/145/26
f 375/64/26 410/146/26 409/145/26
f 411/64/26 412/145/26 413/146/26
f 411/64/26 414/144/26 412/145/26
f 414/144/26 415/143/26 412/145/26
f 416/126/19 417/64/19 418/146/19
f 417/64/19 419/144/19 420/145/19
f 419/144/19 421/143/19 420/145/19
f 422/144/19 378/64/19 423/145/19
f 364/118/19 424/139/19 362/117/19
f 424/139/19 387/134/19 362/117/19
f 368/123/19 425/147/19 369/125/19
f 425/147/19 426/114/19 369/125/19
f 425/147/19 427/141/19 426/114/19
f 394/117/26 402/136/26 428/135/26
f 429/148/19 430/150/19 431/149/19
f 382/130/19 430/150/19 429/148/19
f 432/107/26 342/104/26 344/105/26
f 433/131/26 400/132/26 434/148/26
f 433/131/26 434/148/26 435/130/26
f 436/143/19 422/144/19 423/145/19
f 422/144/19 436/143/19 437/142/19
f 438/157/19 369/125/19 426/114/19
f 439/158/19 426/114/19 440/113/19
f 441/120/26 442/121/26 390/122/26
f 358/114/26 401/125/26 443/157/26
f 358/114/26 403/141/26 444/147/26
f 445/65/26 411/64/26 446/126/26
f 447/142/19 421/143/19 419/144/19
f 370/124/19 383/131/19 384/132/19
f 368/123/19 384/132/19 448/165/19
f 368/123/19 448/165/19 425/147/19
f 425/147/19 448/165/19 449/166/19
f 425/147/19 449/166/19 427/141/19
f 427/141/19 449/166/19 450/167/19
f 427/141/19 450/167/19 362/117/19
f 362/117/19 450/167/19 363/119/19
f 394/117/26 392/119/26 451/167/26
f 394/117/26 451/167/26 403/141/26
f 403/141/26 451/167/26 452/166/26
f 403/141/26 452/166/26 444/147/26
f 444/147/26 452/166/26 453/165/26
f 444/147/26 453/165/26 399/123/26
f 399/123/26 453/165/26 400/132/26
f 398/124/26 400/132/26 433/131/26
f 398/124/26 433/131/26 442/121/26
f 442/121/26 433/131/26 435/130/26
f 442/121/26 435/130/26 390/122/26
f 390/122/26 435/130/26 392/119/26
f 390/122/26 392/119/26 344/105/26
f 351/109/19 379/127/19 349/108/19
f 360/116/19 345/106/19 347/105/19
f 360/116/19 347/105/19 454/138/19
f 454/138/19 347/105/19 366/122/19
f 454/138/19 366/122/19 455/137/19
f 391/138/26 344/105/26 371/116/26
f 371/116/26 344/105/26 343/106/26
f 354/108/26 343/106/26 404/127/26
f 354/108/26 404/127/26 355/109/26
f 355/109/26 405/128/26 456/129/26
f 457/158/26 359/113/26 358/114/26
f 358/114/26 357/112/26 403/141/26
f 403/141/26 402/136/26 394/117/26
f 394/117/26 428/135/26 396/134/26
f 396/134/26 428/135/26 458/133/26
f 440/113/19 426/114/19 459/112/19
f 459/112/19 426/114/19 427/141/19
f 459/112/19 427/141/19 388/136/19
f 388/136/19 427/141/19 362/117/19
f 449/166/19 448/165/19 431/149/19
f 431/149/19 448/165/19 384/132/19
f 431/149/19 384/132/19 429/148/19
f 429/148/19 384/132/19 383/131/19
f 429/148/19 383/131/19 382/130/19
f 392/119/26 435/130/26 460/150/26
f 460/150/26 435/130/26 434/148/26
f 460/150/26 434/148/26 461/149/26
f 461/149/26 434/148/26 400/132/26
f 461/149/26 400/132/26 453/165/26
f 374/126/26 410/146/26 375/64/26
f 407/144/26 409/145/26 408/143/26
f 462/142/26 415/143/26 414/144/26
f 411/64/26 413/146/26 446/126/26
f 449/166/19 431/149/19 450/167/19
f 450/167/19 431/149/19 430/150/19
f 450/167/19 430/150/19 363/119/19
f 363/119/19 430/150/19 382/130/19
f 453/165/26 452/166/26 461/149/26
f 461/149/26 452/166/26 451/167/26
f 461/149/26 451/167/26 460/150/26
f 460/150/26 451/167/26 392/119/26
f 463/140/19 387/134/19 424/139/19
f 358/114/26 444/147/26 401/125/26
f 401/125/26 444/147/26 399/123/26
f 420/145/19 418/146/19 417/64/19
f 417/64/19 416/126/19 464/65/19
f 378/64/19 377/126/19 465/146/19
f 378/64/19 465/146/19 423/145/19
