mtllib ultimaweaponkh1.mtl
v 0.016893 -18.022232 -2.046289
v 0.016393 -14.827133 1.706513
v 0.017193 -14.823532 -2.046087
v 0.016894 -21.375332 -2.046491
v 0.016794 -25.599934 -2.046691
v 0.016094 -25.601933 1.704309
v 0.015398 -49.850136 1.694201
v 0.015698 -49.847336 -2.046499
v -0.004302 -51.091331 -0.245599
v 0.015698 -45.592335 1.694203
v 0.017193 -18.018734 -3.609489
v 0.017194 -21.371033 -3.610990
v 0.016498 -45.589634 -2.046497
v 1.620398 -46.726532 -0.245599
v 1.627697 -42.525734 -0.245297
v -1.630203 -42.532036 -0.245097
v -1.637502 -46.733536 -0.245399
v 0.016497 -43.676033 -1.528797
v 0.015797 -43.679031 1.213303
v 0.015996 -39.345436 1.214005
v 0.016396 -39.342232 -1.527695
v -1.619504 -36.313232 -0.244595
v 1.631097 -40.527534 -0.245197
v 1.638696 -36.303436 -0.244795
v -1.627003 -40.534534 -0.244997
v 0.016095 -33.167236 1.214807
v 0.016595 -33.164932 -1.526193
v 0.016496 -37.498234 -1.527295
v 0.015996 -37.501034 1.214205
v 0.016495 -31.484034 -1.525893
v 0.016095 -31.486134 1.215007
v 0.016794 -27.012733 -1.524791
v -1.609105 -30.154234 -0.244193
v 1.641296 -34.392334 -0.244695
v 1.648795 -30.150734 -0.244393
v -1.616604 -34.397331 -0.244395
v 0.016094 -27.014935 1.215609
v 1.658894 -23.969635 -0.243991
v -1.606505 -28.578934 -0.243993
v 1.651295 -28.573235 -0.244293
v -1.598906 -23.974335 -0.243691
v -0.021302 -51.091232 -0.245799
v 2.019299 -54.617634 -0.245801
v 0.015698 -49.847336 -2.046599
v 0.015398 -51.591232 -3.232999
v 0.015399 -54.144634 -3.727301
v 0.015398 -49.850136 1.694101
v 0.015398 -51.600136 2.662901
v 0.015399 -54.153034 3.116799
v -0.021400 -60.862534 -0.246503
v -2.062201 -54.617634 -0.245801
v 0.016893 -18.022232 -2.046289
v 0.017193 -14.823532 -2.046087
v 0.016393 -14.827133 1.706513
v 0.016894 -21.375332 -2.046491
v 0.016094 -25.601933 1.704309
v 0.016794 -25.599934 -2.046691
v 0.015398 -49.850136 1.694201
v -0.004302 -51.091331 -0.245599
v 0.015698 -49.847336 -2.046499
v 0.015698 -45.592335 1.694203
v 0.017193 -18.018734 -3.609489
v 0.017194 -21.371033 -3.610990
v 0.016498 -45.589634 -2.046497
v 1.620398 -46.726532 -0.245599
v -1.630203 -42.532036 -0.245097
v 1.627697 -42.525734 -0.245297
v -1.637502 -46.733536 -0.245399
v 0.016497 -43.676033 -1.528797
v 0.015996 -39.345436 1.214005
v 0.015797 -43.679031 1.213303
v 0.016396 -39.342232 -1.527695
v -1.619504 -36.313232 -0.244595
v 1.638696 -36.303436 -0.244795
v 1.631097 -40.527534 -0.245197
v -1.627003 -40.534534 -0.244997
v 0.016095 -33.167236 1.214807
v 0.016496 -37.498234 -1.527295
v 0.016595 -33.164932 -1.526193
v 0.015996 -37.501034 1.214205
v 0.016495 -31.484034 -1.525893
v 0.016794 -27.012733 -1.524791
v 0.016095 -31.486134 1.215007
v -1.609105 -30.154234 -0.244193
v 1.648795 -30.150734 -0.244393
v 1.641296 -34.392334 -0.244695
v -1.616604 -34.397331 -0.244395
v 0.016094 -27.014935 1.215609
v 1.658894 -23.969635 -0.243991
v 1.651295 -28.573235 -0.244293
v -1.606505 -28.578934 -0.243993
v -1.598906 -23.974335 -0.243691
v -0.797708 -12.511433 -0.005387
v 0.010493 -16.612335 -1.371189
v -1.204807 -17.307533 -0.005389
v 0.010592 -12.511433 -0.674887
v 0.010893 -16.612434 1.360311
v 0.010892 -12.511433 0.664013
v 0.821092 -12.511532 -0.005387
v 1.228193 -17.307632 -0.005389
v 0.012793 -16.612434 -1.371189
v 0.012592 -12.511433 -0.674787
v 0.012193 -16.612534 1.360411
v 0.012192 -12.511433 0.664113
v -0.797708 -12.511433 -0.005387
v -1.204807 -17.307533 -0.005389
v 0.010493 -16.612335 -1.371189
v 0.010592 -12.511433 -0.674887
v 0.010893 -16.612434 1.360311
v 0.010892 -12.511433 0.664013
v 0.821092 -12.511532 -0.005387
v 0.012793 -16.612434 -1.371189
v 1.228193 -17.307632 -0.005389
v 0.012592 -12.511433 -0.674787
v 0.012193 -16.612534 1.360411
v 0.012192 -12.511433 0.664113
vt 0.856500 0.887400
vt 0.927100 0.991700
vt 0.923800 0.887400
vt 0.778900 0.887400
vt 0.689100 0.887400
vt 0.691600 0.991700
vt 0.005800 0.029800
vt 0.098200 0.029900
vt 0.050700 0.001700
vt 0.005800 0.124600
vt 0.855300 0.848400
vt 0.777800 0.848400
vt 0.098200 0.124500
vt 0.169000 0.716700
vt 0.169000 0.822700
vt 0.091200 0.822900
vt 0.091200 0.716800
vt 0.169100 0.822700
vt 0.091000 0.822800
vt 0.091000 0.716700
vt 0.169100 0.716700
vt 0.091200 0.822900
vt 0.169000 0.716700
vt 0.169000 0.822700
vt 0.091200 0.716800
vt 0.091000 0.716700
vt 0.169100 0.716700
vt 0.169100 0.822700
vt 0.091000 0.822800
vt 0.169100 0.822700
vt 0.091000 0.822800
vt 0.169100 0.716700
vt 0.091200 0.822900
vt 0.169000 0.716700
vt 0.169000 0.822700
vt 0.091200 0.716800
vt 0.091000 0.716700
vt 0.169000 0.822700
vt 0.091200 0.716800
vt 0.169000 0.716700
vt 0.091200 0.822900
vt 0.283400 0.426800
vt 0.281800 0.354200
vt 0.234700 0.444800
vt 0.204700 0.402600
vt 0.197400 0.343100
vt 0.330300 0.445800
vt 0.360500 0.402700
vt 0.367900 0.343100
vt 0.278500 0.207300
vt 0.198000 0.675100
vt 0.149300 0.693100
vt 0.196400 0.602500
vt 0.119300 0.650900
vt 0.112000 0.591400
vt 0.244900 0.694100
vt 0.275100 0.651000
vt 0.282500 0.591400
vt 0.196500 0.455600
vt 0.856500 0.887400
vt 0.923800 0.887400
vt 0.927100 0.991700
vt 0.778900 0.887400
vt 0.691600 0.991700
vt 0.689100 0.887400
vt 0.005800 0.029800
vt 0.050700 0.001700
vt 0.098200 0.029900
vt 0.005800 0.124600
vt 0.855300 0.848400
vt 0.777800 0.848400
vt 0.098200 0.124500
vt 0.169000 0.716700
vt 0.091200 0.822900
vt 0.169000 0.822700
vt 0.091200 0.716800
vt 0.169100 0.822700
vt 0.091000 0.716700
vt 0.091000 0.822800
vt 0.169100 0.716700
vt 0.091200 0.822900
vt 0.169000 0.822700
vt 0.169000 0.716700
vt 0.091200 0.716800
vt 0.091000 0.716700
vt 0.169100 0.822700
vt 0.169100 0.716700
vt 0.091000 0.822800
vt 0.169100 0.822700
vt 0.169100 0.716700
vt 0.091000 0.822800
vt 0.091200 0.822900
vt 0.169000 0.822700
vt 0.169000 0.716700
vt 0.091200 0.716800
vt 0.091000 0.716700
vt 0.169000 0.822700
vt 0.169000 0.716700
vt 0.091200 0.716800
vt 0.091200 0.822900
vt 0.494900 0.240100
vt 0.542600 0.106900
vt 0.496700 0.143100
vt 0.534300 0.238700
vt 0.542600 0.106900
vt 0.534300 0.238700
vt 0.494900 0.240100
vt 0.496700 0.143100
vt 0.542600 0.106900
vt 0.534300 0.238700
vt 0.542600 0.106900
vt 0.534300 0.238700
vt 0.494900 0.240100
vt 0.496700 0.143100
vt 0.542600 0.106900
vt 0.534300 0.238700
vt 0.542600 0.106900
vt 0.534300 0.238700
vt 0.494900 0.240100
vt 0.542600 0.106900
vt 0.496700 0.143100
vt 0.534300 0.238700
vt 0.542600 0.106900
vt 0.534300 0.238700
vn -1.0000 -0.0000 -0.0002
vn -1.0000 0.0001 -0.0002
vn -0.9999 0.0160 -0.0001
vn -1.0000 0.0001 -0.0001
vn -1.0000 0.0002 -0.0002
vn 0.0001 -0.0001 1.0000
vn -1.0000 0.0000 -0.0003
vn -1.0000 -0.0000 -0.0001
vn 0.0001 -0.0000 1.0000
vn 0.8134 0.4707 0.3418
vn 0.9014 0.2434 -0.3581
vn 0.8683 0.0943 -0.4870
vn 0.8203 0.4747 -0.3192
vn 0.8944 0.2167 0.3914
vn 0.8117 -0.2653 0.5204
vn 0.8610 0.0890 0.5008
vn 0.8189 -0.2676 -0.5077
vn -0.8223 0.4759 0.3119
vn -0.8952 0.2508 -0.3685
vn -0.8604 0.0969 -0.5003
vn -0.8281 0.4792 -0.2909
vn -0.8877 0.2230 0.4028
vn -0.8041 -0.2629 0.5332
vn -0.8528 0.0914 0.5142
vn -0.8117 -0.2652 -0.5204
vn 1.0000 0.0000 0.0002
vn 1.0000 -0.0001 0.0002
vn 0.9999 -0.0160 0.0001
vn 1.0000 -0.0001 0.0001
vn 1.0000 -0.0002 0.0002
vn -0.0001 0.0001 -1.0000
vn 1.0000 -0.0000 0.0003
vn 1.0000 0.0000 0.0001
vn -0.0001 0.0000 -1.0000
vn -0.7616 0.0646 -0.6448
vn -0.6325 0.1297 -0.7636
vn -0.7615 0.0646 0.6450
vn -0.6323 0.1297 0.7638
vn 0.7616 0.0646 -0.6448
vn 0.6324 0.1297 -0.7637
vn 0.7614 0.0646 0.6450
vn 0.6322 0.1297 0.7638
vn -0.0000 -0.8912 -0.4536
vn -0.0000 -0.8912 0.4535
vn 0.7616 -0.0646 0.6448
vn 0.6325 -0.1297 0.7636
vn 0.7615 -0.0646 -0.6450
vn 0.6323 -0.1297 -0.7638
vn -0.7616 -0.0646 0.6448
vn -0.6324 -0.1297 0.7637
vn -0.7614 -0.0646 -0.6450
vn -0.6322 -0.1297 -0.7638
vn 0.0000 0.8912 0.4536
vn 0.0000 0.8912 -0.4535
o keychain
usemtl Material__123
f 1/1/1 2/2/2 3/3/2
f 2/2/2 1/1/1 4/4/1
f 4/4/1 5/5/1 6/6/1
f 7/7/3 8/8/3 9/9/3
f 8/8/4 7/7/4 10/10/4
f 11/11/1 12/12/1 4/4/1
f 4/4/1 1/1/1 11/11/1
f 13/13/5 8/8/5 10/10/5
f 6/6/1 2/2/2 4/4/1
f 14/14/6 15/15/6 16/16/6
f 16/16/6 17/17/6 14/14/6
f 18/18/1 19/19/7 20/20/1
f 20/20/1 21/21/8 18/18/1
f 22/22/6 23/23/6 24/24/6
f 23/23/6 22/22/6 25/25/6
f 26/26/1 27/27/1 28/28/1
f 28/28/1 29/29/1 26/26/1
f 30/30/4 31/31/1 32/32/1
f 33/33/6 34/34/6 35/35/6
f 34/34/6 33/33/6 36/36/9
f 37/37/7 32/32/1 31/31/1
f 38/38/6 39/39/6 40/40/6
f 39/39/6 38/38/6 41/41/6
f 42/42/10 43/43/10 44/44/10
f 43/43/11 45/45/11 44/44/11
f 43/43/12 46/46/12 45/45/12
f 47/47/13 43/43/13 42/42/13
f 47/47/14 48/48/14 43/43/14
f 43/43/15 49/49/15 50/50/15
f 43/43/16 48/48/16 49/49/16
f 43/43/17 50/50/17 46/46/17
f 42/51/18 44/52/18 51/53/18
f 45/54/19 51/53/19 44/52/19
f 51/53/20 45/54/20 46/55/20
f 51/53/21 47/56/21 42/51/21
f 47/56/22 51/53/22 48/57/22
f 49/58/23 51/53/23 50/59/23
f 51/53/24 49/58/24 48/57/24
f 50/59/25 51/53/25 46/55/25
f 52/60/26 53/61/27 54/62/27
f 54/62/27 55/63/26 52/60/26
f 55/63/26 56/64/26 57/65/26
f 58/66/28 59/67/28 60/68/28
f 60/68/29 61/69/29 58/66/29
f 62/70/26 55/63/26 63/71/26
f 55/63/26 62/70/26 52/60/26
f 64/72/30 61/69/30 60/68/30
f 56/64/26 55/63/26 54/62/27
f 65/73/31 66/74/31 67/75/31
f 66/74/31 65/73/31 68/76/31
f 69/77/26 70/78/26 71/79/32
f 70/78/26 69/77/26 72/80/33
f 73/81/31 74/82/31 75/83/31
f 75/83/31 76/84/31 73/81/31
f 77/85/26 78/86/26 79/87/26
f 78/86/26 77/85/26 80/88/26
f 81/89/29 82/90/26 83/91/26
f 84/92/31 85/93/31 86/94/31
f 86/94/31 87/95/34 84/92/31
f 88/96/32 83/91/26 82/90/26
f 89/97/31 90/98/31 91/99/31
f 91/99/31 92/100/31 89/97/31
usemtl Material__124
f 93/101/35 94/102/35 95/103/35
f 93/101/36 96/104/36 94/102/36
f 93/101/37 95/103/37 97/105/37
f 93/101/38 97/105/38 98/106/38
f 99/107/39 100/108/39 101/109/39
f 99/107/40 101/109/40 102/110/40
f 99/107/41 103/111/41 100/108/41
f 99/107/42 104/112/42 103/111/42
f 95/103/43 101/109/43 100/108/43
f 100/108/44 103/111/44 95/103/44
f 105/113/45 106/114/45 107/115/45
f 105/113/46 107/115/46 108/116/46
f 105/113/47 109/117/47 106/114/47
f 105/113/48 110/118/48 109/117/48
f 111/119/49 112/120/49 113/121/49
f 111/119/50 114/122/50 112/120/50
f 111/119/51 113/121/51 115/123/51
f 111/119/52 115/123/52 116/124/52
f 106/114/53 113/121/53 112/120/53
f 113/121/54 106/114/54 115/123/54
