mtllib ultimaweaponbbs.mtl
v 1.380695 -31.436682 0.000000
v -1.380705 -34.811081 0.000000
v 1.380695 -34.811081 0.000000
v 1.380695 -31.436682 0.000000
v 1.380695 -34.811081 0.000000
v -1.380705 -34.811081 0.000000
v -1.380705 -34.811081 0.000000
v -1.380705 -31.436682 0.000000
v 1.380695 -31.436682 0.000000
v -0.000005 -32.958981 0.000000
v -0.000006 -37.113682 -4.439900
v -0.000006 -37.113682 4.439900
v -0.000007 -44.143181 4.044800
v -0.000006 -37.113682 4.439900
v -0.000006 -37.113682 -4.439900
v -0.000005 -32.519382 1.380700
v -0.000005 -28.321981 1.380700
v -0.000005 -32.519382 -1.380700
v -0.000005 -28.321981 1.380700
v -0.000005 -32.519382 1.380700
v -0.000005 -32.519382 -1.380700
v -0.000005 -28.321981 -1.380700
v -0.000005 -32.519382 -1.380700
v -0.000005 -28.321981 1.380700
v -0.000005 -32.519382 -1.380700
v -0.000005 -28.321981 -1.380700
v -0.000005 -28.321981 1.380700
v -0.000004 -23.209980 -1.380700
v -0.000005 -27.408281 -1.380700
v -0.000004 -23.209980 1.380700
v -0.000005 -27.408281 -1.380700
v -0.000004 -23.209980 -1.380700
v -0.000004 -23.209980 1.380700
v -0.000005 -27.408281 1.380700
v -0.000004 -23.209980 1.380700
v -0.000005 -27.408281 -1.380700
v -0.000004 -23.209980 1.380700
v -0.000005 -27.408281 1.380700
v -0.000005 -27.408281 -1.380700
v 1.380696 -24.532480 0.000000
v 1.380696 -21.158981 0.000000
v -1.380704 -24.532480 0.000000
v 1.380696 -21.158981 0.000000
v 1.380696 -24.532480 0.000000
v -1.380704 -24.532480 0.000000
v -1.380704 -21.158981 0.000000
v -1.380704 -24.532480 0.000000
v 1.380696 -21.158981 0.000000
v -1.380704 -24.532480 0.000000
v -1.380704 -21.158981 0.000000
v 1.380696 -21.158981 0.000000
v 1.380695 -29.577278 0.000000
v 1.380696 -26.203781 0.000000
v -1.380705 -29.577278 0.000000
v 1.380696 -26.203781 0.000000
v 1.380695 -29.577278 0.000000
v -1.380705 -29.577278 0.000000
v -1.380704 -26.203781 0.000000
v -1.380705 -29.577278 0.000000
v 1.380696 -26.203781 0.000000
v -1.380705 -29.577278 0.000000
v -1.380704 -26.203781 0.000000
v 1.380696 -26.203781 0.000000
v -0.000006 -37.113682 -4.439900
v -0.000005 -32.958981 0.000000
v -0.000006 -37.113682 4.439900
v -0.000006 -37.113682 4.439900
v -0.000007 -44.143181 4.044800
v -0.000006 -37.113682 -4.439900
v -0.000007 -44.142281 -4.044800
v -0.000007 -44.143181 4.044800
v -0.000006 -37.113682 -4.439900
v -0.000004 -22.453381 1.380700
v -0.000003 -18.255980 1.380700
v -0.000004 -22.453381 -1.380700
v -1.380705 -31.436682 0.000000
v -1.380705 -34.811081 0.000000
v 1.380695 -31.436682 0.000000
v -1.380703 -16.848982 0.000000
v -1.380703 -19.446781 0.000000
v 1.380697 -16.848982 0.000000
v -0.000007 -44.143181 4.044800
v -0.000007 -44.142281 -4.044800
v -0.000006 -37.113682 -4.439900
v -0.000004 -22.453381 -1.380700
v -0.000003 -18.255980 1.380700
v -0.000003 -18.255980 -1.380700
v -0.000004 -22.453381 -1.380700
v -0.000003 -18.255980 -1.380700
v -0.000003 -18.255980 1.380700
v -0.000003 -18.255980 1.380700
v -0.000004 -22.453381 1.380700
v -0.000004 -22.453381 -1.380700
v 1.380697 -16.848982 0.000000
v -1.380703 -19.446781 0.000000
v 1.380696 -19.446781 0.000000
v 1.380697 -16.848982 0.000000
v 1.380696 -19.446781 0.000000
v -1.380703 -19.446781 0.000000
v -1.380703 -19.446781 0.000000
v -1.380703 -16.848982 0.000000
v 1.380697 -16.848982 0.000000
vt 0.942421 0.372109
vt 0.721948 0.049274
vt 0.721948 0.372109
vt 0.942421 0.372109
vt 0.721948 0.372109
vt 0.721948 0.049274
vt 0.721948 0.049274
vt 0.942421 0.049274
vt 0.942421 0.372109
vt 0.643208 0.490219
vt 0.414862 0.002030
vt 0.414862 0.986282
vt 0.029035 0.939038
vt 0.414862 0.986282
vt 0.414862 0.002030
vt 0.721948 0.372109
vt 0.942421 0.372109
vt 0.721948 0.049274
vt 0.942421 0.372109
vt 0.721948 0.372109
vt 0.721948 0.049274
vt 0.942421 0.049274
vt 0.721948 0.049274
vt 0.942421 0.372109
vt 0.721948 0.049274
vt 0.942421 0.049274
vt 0.942421 0.372109
vt 0.942421 0.049274
vt 0.721948 0.049274
vt 0.942421 0.372109
vt 0.721948 0.049274
vt 0.942421 0.049274
vt 0.942421 0.372109
vt 0.721948 0.372109
vt 0.942421 0.372109
vt 0.721948 0.049274
vt 0.942421 0.372109
vt 0.721948 0.372109
vt 0.721948 0.049274
vt 0.721948 0.372109
vt 0.942421 0.372109
vt 0.721948 0.049274
vt 0.942421 0.372109
vt 0.721948 0.372109
vt 0.721948 0.049274
vt 0.942421 0.049274
vt 0.721948 0.049274
vt 0.942421 0.372109
vt 0.721948 0.049274
vt 0.942421 0.049274
vt 0.942421 0.372109
vt 0.721948 0.372109
vt 0.942421 0.372109
vt 0.721948 0.049274
vt 0.942421 0.372109
vt 0.721948 0.372109
vt 0.721948 0.049274
vt 0.942421 0.049274
vt 0.721948 0.049274
vt 0.942421 0.372109
vt 0.721948 0.049274
vt 0.942421 0.049274
vt 0.942421 0.372109
vt 0.414862 0.986282
vt 0.643208 0.490219
vt 0.414862 0.002030
vt 0.414862 0.002030
vt 0.029035 0.041400
vt 0.414862 0.986282
vt 0.029035 0.041400
vt 0.029035 0.939038
vt 0.414862 0.002030
vt 0.721948 0.372109
vt 0.942421 0.372109
vt 0.721948 0.049274
vt 0.942421 0.049274
vt 0.721948 0.049274
vt 0.942421 0.372109
vt 0.942421 0.049274
vt 0.721948 0.049274
vt 0.942421 0.372109
vt 0.029035 0.041400
vt 0.029035 0.939038
vt 0.414862 0.986282
vt 0.721948 0.049274
vt 0.942421 0.372109
vt 0.942421 0.049274
vt 0.721948 0.049274
vt 0.942421 0.049274
vt 0.942421 0.372109
vt 0.942421 0.372109
vt 0.721948 0.372109
vt 0.721948 0.049274
vt 0.942421 0.372109
vt 0.721948 0.049274
vt 0.721948 0.372109
vt 0.942421 0.372109
vt 0.721948 0.372109
vt 0.721948 0.049274
vt 0.721948 0.049274
vt 0.942421 0.049274
vt 0.942421 0.372109
vn 0.0000 0.0000 1.0000
vn 0.0000 0.0000 -1.0000
vn -1.0000 0.0000 0.0000
vn 1.0000 -0.0000 0.0000
o keychain
usemtl Brush.054
f 1/1/1 2/2/1 3/3/1
f 4/4/2 5/5/2 6/6/2
f 7/7/2 8/8/2 9/9/2
f 10/10/3 11/11/3 12/12/3
f 13/13/3 14/14/3 15/15/3
f 16/16/3 17/17/3 18/18/3
f 19/19/4 20/20/4 21/21/4
f 22/22/3 23/23/3 24/24/3
f 25/25/4 26/26/4 27/27/4
f 28/28/3 29/29/3 30/30/3
f 31/31/4 32/32/4 33/33/4
f 34/34/3 35/35/3 36/36/3
f 37/37/4 38/38/4 39/39/4
f 40/40/1 41/41/1 42/42/1
f 43/43/2 44/44/2 45/45/2
f 46/46/1 47/47/1 48/48/1
f 49/49/2 50/50/2 51/51/2
f 52/52/1 53/53/1 54/54/1
f 55/55/2 56/56/2 57/57/2
f 58/58/1 59/59/1 60/60/1
f 61/61/2 62/62/2 63/63/2
f 64/64/4 65/65/4 66/66/4
f 67/67/4 68/68/4 69/69/4
f 70/70/3 71/71/3 72/72/3
f 73/73/3 74/74/3 75/75/3
f 76/76/1 77/77/1 78/78/1
f 79/79/1 80/80/1 81/81/1
f 82/82/4 83/83/4 84/84/4
f 85/85/3 86/86/3 87/87/3
f 88/88/4 89/89/4 90/90/4
f 91/91/4 92/92/4 93/93/4
f 94/94/1 95/95/1 96/96/1
f 97/97/2 98/98/2 99/99/2
f 100/100/2 101/101/2 102/102/2
