mtllib ultimaweaponddd.mtl
o mesh_mesh.032
v 0.000000 -23.722000 -0.000003
v 0.000000 -20.877699 1.858578
v -2.032530 -20.877699 -0.000002
v 0.000000 -41.859200 -1.586966
v -0.988800 -44.099201 -0.000006
v 0.000000 -43.226398 2.505564
v 0.000000 -47.880501 -0.000006
v 0.000000 -42.542801 -0.000006
v 0.000000 -41.859200 1.586954
v 0.988800 -44.099201 -0.000006
v 2.032530 -20.877699 -0.000002
v 0.000000 -18.063900 -0.000003
v 0.000000 -20.877699 -1.858582
v -1.617480 -33.533703 -0.000003
v -1.617480 -30.295700 -0.000004
v 1.617480 -30.295700 -0.000004
v 1.617480 -33.533703 -0.000004
v 0.000000 -36.732101 1.614425
v 1.617480 -38.529598 -0.000005
v -1.617480 -38.529598 -0.000005
v 1.617480 -35.291599 -0.000005
v -1.617480 -35.291599 -0.000004
v 0.000000 -22.104601 -1.614433
v 0.000000 -22.104601 1.614427
v 0.000000 -31.739199 1.614426
v 0.000000 -31.739199 -1.614434
v 0.000000 -27.100399 1.614427
v 0.000000 -27.100399 -1.614433
v 0.000000 -36.732101 -1.614435
v 0.000000 -32.093300 1.614426
v 0.000000 -32.093300 -1.614434
v 0.000000 -26.743401 1.614427
v 0.000000 -26.743401 -1.614433
v 1.617480 -28.540901 -0.000004
v 1.617480 -25.302898 -0.000003
v -1.617480 -25.302898 -0.000003
v -1.617480 -28.540901 -0.000004
v 0.000000 -40.327202 1.617474
v 0.000000 -40.327202 -1.617486
v 0.000000 -41.059601 -1.098676
v 0.000000 -40.327202 0.781268
v 0.000000 -40.327202 -0.781280
v 0.000000 -37.086098 1.617475
v 0.000000 -37.086098 -1.617485
v 0.000000 -41.953800 -5.871765
v 0.000000 -44.767601 -5.691706
v 0.000000 -43.226398 -2.505576
v 0.000000 -47.499001 -1.464896
v 0.000000 -50.996399 -0.000006
v 0.000000 -47.499001 1.464884
v 0.000000 -41.953800 5.871754
v 0.000000 -44.767601 5.691694
v 0.000000 -39.295597 3.427225
v 0.000000 -41.059601 1.098664
v 0.000000 -39.295597 -3.427235
v -1.712090 75.710304 -9.430210
v 1.712090 75.484505 -7.031451
v 0.000000 26.282503 -6.997887
v 0.000000 28.544001 0.695826
v 0.000000 25.998699 -0.561538
v 0.000000 26.920399 0.628684
v 0.000000 28.544001 -0.695818
v 0.000000 26.282499 6.997893
v 0.000000 22.083200 3.708002
v 0.000000 23.813599 3.790403
v 0.000000 21.024200 1.959292
v 0.000000 10.525801 -1.498459
v 0.000000 12.082300 0.000002
v 0.000000 22.083200 -3.707997
v 0.000000 21.024200 -1.959287
v 0.000000 23.813599 -3.790397
v 0.000000 18.439301 0.000003
v 0.000000 28.110600 -2.975546
v 0.000000 6.115911 -3.726310
v 0.000000 7.672350 -1.547290
v -1.596120 6.918550 0.000000
v 0.000000 37.028103 -4.580826
v 0.000000 28.544001 0.000004
v 0.000000 -20.313101 -0.000002
v 0.000000 -17.178900 -2.597133
v 0.000000 31.034300 4.693754
v 0.000000 37.028103 4.580835
v 0.000000 29.209301 1.983704
v -1.712090 29.215401 0.000004
v 0.000000 10.525801 1.498462
v 0.000000 7.672349 1.547290
v 1.596120 6.918550 0.000000
v 0.000000 6.115911 3.726310
v 0.000000 3.653070 1.596121
v 1.596120 -8.868680 -0.000000
v 2.249210 -9.512620 -0.000002
v 0.000000 3.653070 -1.596119
v -1.596120 -8.868680 -0.000000
v -2.249210 -9.512620 -0.000001
v 1.001010 -17.178900 -0.000003
v -1.001010 -17.178900 -0.000003
v -1.712090 21.024200 -1.959287
v 1.712090 12.082300 0.000001
v 1.712090 28.199100 4.333634
v -1.712090 32.456402 3.643914
v -1.712090 33.961002 2.740563
v -1.712090 31.549999 2.142404
v 1.712090 31.549999 2.142404
v -1.712090 33.961002 -2.740555
v 1.712090 33.961002 -2.740555
v 1.712090 31.549999 -2.142396
v -1.712090 33.054600 -1.235996
v 1.712090 33.054600 -1.235996
v 1.712090 21.024200 -1.959287
v 0.000000 31.034300 -4.693746
v -1.712090 12.082300 0.000002
v -1.712090 28.199100 -4.333625
v -1.712090 30.469700 -2.328555
v 0.988800 -12.198200 -0.000002
v -0.988800 -12.198200 -0.000001
v 0.000000 -17.178900 2.597127
v -1.712090 84.691902 -9.430208
v 1.712090 84.917801 -7.031448
v 1.712090 80.202599 -0.347901
v 1.712090 21.024200 1.959292
v -1.712090 30.469700 2.328564
v 0.000000 28.110600 2.975553
v -1.712090 21.024200 1.959292
v 1.712090 77.462097 -9.479040
v -1.712090 82.940201 -9.479040
v -1.712090 84.029701 -7.702858
v 1.712090 80.202599 -2.090510
v -1.712090 77.916801 -10.415990
v 1.712090 82.485405 -10.415990
v 1.712090 80.202599 -9.201319
v 0.830103 29.215401 0.000004
v 0.000000 92.538200 0.000012
v 0.000000 30.329300 -2.072206
v 0.000000 30.329300 2.072215
v 0.000000 86.831299 2.090532
v -0.830103 29.215401 0.000004
v 0.000000 86.831299 -2.090508
v 0.000000 29.209301 -1.983696
v 1.712090 30.469700 -2.328555
v -1.712090 40.363800 0.000006
v 1.266520 40.363800 -0.616468
v -1.266520 40.363800 0.616480
v 1.266520 80.202599 -1.214630
v 1.266520 40.363800 0.000006
v 0.000000 100.000000 0.000012
v -1.266520 92.538200 0.000012
v -1.266520 40.363800 0.000006
v -1.266520 40.363800 -0.616468
v 0.000000 77.858803 -4.580820
v 1.266520 33.961002 -2.740555
v -1.266520 80.202599 -1.214630
v 0.000000 86.831299 -4.580819
v 0.000000 82.546501 -4.580818
v 0.000000 86.831299 4.580842
v 1.266520 40.363800 0.616480
v 1.266520 92.538200 0.000012
v -1.712090 69.099998 8.590969
v 1.712090 69.099998 8.590969
v 1.712090 72.145805 3.930789
v 1.712090 25.464602 -11.014097
v 1.712090 27.295803 -8.868676
v -1.712090 25.464602 -11.014097
v -1.712090 44.520397 -2.105774
v -1.712090 27.295803 -8.868676
v -1.712090 91.070297 -1.297028
v -1.712090 96.658203 -6.390566
v 1.712090 49.934399 -9.607224
v 1.712090 60.826405 -10.815792
v 1.712090 75.457001 -0.952168
v 1.712089 70.259705 -18.466692
v -1.712090 60.826405 -10.815792
v 1.712090 37.241699 -4.709005
v 1.712090 40.363800 -0.616468
v 1.712090 77.916801 -10.415990
v 1.712089 76.909698 -13.492189
v 1.712089 80.202599 -21.274488
v 1.712090 83.809898 2.304161
v 1.712090 81.374596 2.304160
v -1.712090 63.747105 -12.216592
v -1.712090 75.484505 -7.031451
v -1.712090 75.457001 -0.952168
v -1.712090 80.202599 -0.347900
v -1.712090 79.030701 2.304160
v -1.712090 76.595398 2.304159
v -1.712091 80.202599 -21.274488
v -1.712090 60.878300 -7.260342
v -1.712090 49.934399 -9.607224
v -1.712090 24.521599 3.118993
v -1.712090 36.155300 -5.233916
v -1.712090 31.034300 -5.462806
v 1.712090 37.241699 4.709014
v 1.712090 32.456402 3.643914
v 1.712090 32.456402 -3.643906
v 1.712089 83.492500 -13.492189
v 1.712090 84.691902 -9.430208
v 1.712090 87.331802 -9.588909
v -1.712090 72.145805 3.930789
v 0.000000 -15.323300 -0.964387
v 0.000000 -12.198200 -0.967439
v 0.000000 -11.282701 -2.230902
v -0.000001 -10.687598 -12.405801
v 0.000000 -10.474000 -8.297980
v 0.000000 -8.880889 -4.065073
v 0.000000 -7.504499 -9.994810
v 0.000001 -10.687602 12.405799
v 0.000000 -8.880891 4.065070
v 0.000000 -10.474000 8.297978
v 0.000000 -7.504500 9.994810
v 1.712090 31.034300 -5.462806
v 1.712090 28.199100 -4.333625
v 1.712090 24.521599 -3.118987
v 1.712090 27.735203 -7.293917
v -1.266520 33.054600 -1.235996
v -1.266520 33.961002 -2.740555
v -1.266520 32.456402 -3.643906
v -1.266520 31.549999 -2.142396
v 1.266520 31.549999 -2.142396
v 1.266520 32.456402 -3.643906
v 1.266520 33.054600 -1.235996
v -1.266520 33.054600 1.236004
v -1.266520 31.549999 2.142404
v -1.266520 32.456402 3.643914
v -1.266520 33.961002 2.740563
v 1.266520 32.456402 3.643914
v 1.266520 33.054600 1.236004
v 1.266520 33.961002 2.740563
v 1.266520 31.549999 2.142404
v -1.712090 31.549999 -2.142396
v -1.712090 28.199100 4.333634
v 1.712089 90.145599 -18.466690
v 1.712090 96.658203 -12.216588
v 0.000000 -3.323469 -5.017241
v 0.000000 -11.282701 2.230899
v 0.000000 -9.512620 2.249208
v 0.000000 -3.323471 5.017241
v 0.000000 -4.486220 5.612350
v 0.000000 -8.868680 1.596120
v 0.000000 -9.512620 -2.249211
v 0.000000 22.382298 8.444473
v 0.000001 18.707798 12.064003
v -1.712091 70.259705 -18.466692
v -1.712090 73.073502 -9.588912
v -1.712091 90.145599 -18.466690
v -1.712091 83.492500 -13.492189
v -1.712090 37.241699 -4.709005
v -1.712090 32.456402 -3.643906
v 1.712090 24.521599 3.118993
v 1.712090 27.735199 7.293923
v 0.000000 22.382301 -8.444468
v -0.000001 18.707802 -12.063997
v -1.712090 33.054600 1.236004
v 1.712090 33.961002 2.740563
v 1.712090 40.363800 0.616480
v 1.712090 82.940201 -9.479040
v 1.712090 84.029701 -7.702858
v -1.712090 80.202599 -9.201319
v -1.712091 76.909698 -13.492189
v -1.712090 66.057297 -1.239041
v 0.000000 18.823797 7.229833
v 0.000000 6.677450 6.088440
v 0.000000 8.502459 9.466841
v 0.000000 2.426220 8.157599
v 0.000000 -3.006071 6.802579
v -0.000001 17.023199 -15.369097
v 0.000000 9.448532 -11.410899
v 0.000000 18.823801 -7.229827
v 0.000000 8.502460 -9.466841
v 0.000000 6.677452 -6.088439
v -0.000001 3.708003 -15.851298
v 0.000000 -8.868680 -1.596120
v 0.000000 -4.486218 -5.612350
v 0.000000 -3.006069 -6.802580
v 0.000000 5.575730 -9.927669
v 0.000000 2.426220 -8.157599
v -0.000001 21.967199 -14.389497
v 0.000001 3.707997 15.851300
v 0.000000 5.575728 9.927670
v 0.000000 9.448528 11.410901
v 0.000001 17.023199 15.369102
v 0.000001 21.967199 14.389503
v 1.712090 44.520397 -2.105774
v 1.712090 56.392097 5.520807
v 1.712090 59.697300 4.565579
v 1.712090 60.878300 -7.260342
v 1.712090 66.057297 -1.239041
v 1.712090 63.747101 -7.293912
v 1.712090 73.073502 -9.588912
v 1.712090 63.747105 -12.216592
v -1.712090 63.747101 -7.293912
v -1.712090 59.697300 4.565579
v -1.712090 56.392097 5.520807
v -1.712090 40.363800 -0.616468
v -1.712090 96.658203 -12.216588
v -1.712090 87.331802 -9.588909
v -1.712090 84.917801 -7.031448
v -1.712090 84.945206 -0.952165
v -1.712090 81.374596 2.304160
v -1.712090 80.202599 9.051802
v -1.712090 83.809898 2.304161
v 1.712090 30.469700 2.328564
v 1.712090 33.054600 1.236004
v 1.712090 29.215401 0.000004
v 1.712090 40.363800 0.000006
v 1.712090 96.658203 -6.390566
v 1.712090 91.070297 -1.297028
v 1.712090 84.945206 -0.952165
v 1.712090 80.202599 -8.047718
v -1.712090 76.375595 -7.702861
v -1.712090 77.462097 -9.479040
v -1.712090 80.202599 -8.047718
v -1.712090 37.241699 4.709014
v -1.712090 36.155300 5.233925
v -1.712090 27.735199 7.293923
v -1.712090 31.034300 5.462814
v -1.712090 24.521599 -3.118987
v -1.712090 27.735203 -7.293917
v -1.712090 40.363800 0.616480
v 1.712090 76.375595 -7.702861
v 1.712090 75.710304 -9.430210
v -1.712090 80.202599 -2.090510
v 1.712090 76.595398 2.304159
v 1.712090 80.202599 9.051802
v 1.712090 79.030701 2.304160
v 0.000000 -15.060900 2.807698
v 0.000000 -15.060900 -2.807702
v 0.000000 -12.198200 0.967435
v 0.000000 -15.323300 0.964383
v -1.712090 82.485405 -10.415990
v 1.712090 31.034300 5.462814
v 1.712090 36.155300 5.233925
v 1.712090 36.155300 -5.233916
v 0.000000 -41.859200 -1.586966
v 0.000000 -43.226398 2.505564
v 0.000000 -47.880501 -0.000006
v 0.000000 -42.542801 -0.000006
v 0.000000 -41.859200 1.586954
v -1.617480 -33.533703 -0.000003
v -1.617480 -30.295700 -0.000004
v 1.617480 -30.295700 -0.000004
v 1.617480 -33.533703 -0.000004
v 0.000000 -36.732101 1.614425
v 1.617480 -38.529598 -0.000005
v -1.617480 -38.529598 -0.000005
v 1.617480 -35.291599 -0.000005
v -1.617480 -35.291599 -0.000004
v 0.000000 -22.104601 -1.614433
v 0.000000 -22.104601 1.614427
v 0.000000 -31.739199 1.614426
v 0.000000 -31.739199 -1.614434
v 0.000000 -27.100399 1.614427
v 0.000000 -27.100399 -1.614433
v 0.000000 -36.732101 -1.614435
v 0.000000 -32.093300 1.614426
v 0.000000 -32.093300 -1.614434
v 0.000000 -26.743401 1.614427
v 0.000000 -26.743401 -1.614433
v 1.617480 -28.540901 -0.000004
v 1.617480 -25.302898 -0.000003
v -1.617480 -25.302898 -0.000003
v -1.617480 -28.540901 -0.000004
v 0.000000 -40.327202 1.617474
v 0.000000 -40.327202 -1.617486
v 0.000000 -41.059601 -1.098676
v 0.000000 -40.327202 0.781268
v 0.000000 -40.327202 -0.781280
v 0.000000 -37.086098 1.617475
v 0.000000 -37.086098 -1.617485
v 0.000000 -41.953800 -5.871765
v 0.000000 -44.767601 -5.691706
v 0.000000 -43.226398 -2.505576
v 0.000000 -47.499001 -1.464896
v 0.000000 -50.996399 -0.000006
v 0.000000 -47.499001 1.464884
v 0.000000 -41.953800 5.871754
v 0.000000 -44.767601 5.691694
v 0.000000 -39.295597 3.427225
v 0.000000 -41.059601 1.098664
v 0.000000 -39.295597 -3.427235
v 0.000000 22.083200 3.708002
v 0.000000 23.813599 3.790403
v 0.000000 21.024200 1.959292
v 0.000000 10.525801 -1.498459
v 0.000000 12.082300 0.000002
v 0.000000 22.083200 -3.707997
v 0.000000 21.024200 -1.959287
v 0.000000 23.813599 -3.790397
v 0.000000 6.115911 -3.726310
v 0.000000 7.672350 -1.547290
v 0.000000 10.525801 1.498462
v 0.000000 7.672349 1.547290
v 0.000000 6.115911 3.726310
v 0.000000 -15.323300 -0.964387
v 0.000000 -12.198200 -0.967439
v 0.000000 -11.282701 -2.230902
v -0.000001 -10.687598 -12.405801
v 0.000000 -10.474000 -8.297980
v 0.000000 -8.880889 -4.065073
v 0.000000 -7.504499 -9.994810
v 0.000001 -10.687602 12.405799
v 0.000000 -8.880891 4.065070
v 0.000000 -10.474000 8.297978
v 0.000000 -7.504500 9.994810
v 0.000000 -3.323469 -5.017241
v 0.000000 -11.282701 2.230899
v 0.000000 -9.512620 2.249208
v 0.000000 -3.323471 5.017241
v 0.000000 -4.486220 5.612350
v 0.000000 -8.868680 1.596120
v 0.000000 -9.512620 -2.249211
v 0.000000 22.382298 8.444473
v 0.000001 18.707798 12.064003
v 0.000000 22.382301 -8.444468
v -0.000001 18.707802 -12.063997
v 0.000000 18.823797 7.229833
v 0.000000 6.677450 6.088440
v 0.000000 8.502459 9.466841
v 0.000000 2.426220 8.157599
v 0.000000 -3.006071 6.802579
v -0.000001 17.023199 -15.369097
v 0.000000 9.448532 -11.410899
v 0.000000 18.823801 -7.229827
v 0.000000 8.502460 -9.466841
v 0.000000 6.677452 -6.088439
v -0.000001 3.708003 -15.851298
v 0.000000 -8.868680 -1.596120
v 0.000000 -4.486218 -5.612350
v 0.000000 -3.006069 -6.802580
v 0.000000 5.575730 -9.927669
v 0.000000 2.426220 -8.157599
v -0.000001 21.967199 -14.389497
v 0.000001 3.707997 15.851300
v 0.000000 5.575728 9.927670
v 0.000000 9.448528 11.410901
v 0.000001 17.023199 15.369102
v 0.000001 21.967199 14.389503
v 0.000000 -15.060900 2.807698
v 0.000000 -15.060900 -2.807702
v 0.000000 -12.198200 0.967435
v 0.000000 -15.323300 0.964383
v -1.712090 75.710304 -9.430210
v 1.712090 75.484505 -7.031451
v 0.000000 28.544001 0.695826
v 0.000000 25.998699 -0.561538
v 0.000000 26.920399 0.628684
v 0.000000 28.544001 -0.695818
v 1.712090 28.199100 4.333634
v -1.712090 32.456402 3.643914
v -1.712090 33.961002 2.740563
v -1.712090 33.961002 -2.740555
v 1.712090 33.961002 -2.740555
v -1.712090 28.199100 -4.333625
v -1.712090 84.691902 -9.430208
v 1.712090 84.917801 -7.031448
v 1.712090 80.202599 -0.347901
v 1.712090 77.462097 -9.479040
v -1.712090 82.940201 -9.479040
v -1.712090 84.029701 -7.702858
v 1.712090 80.202599 -2.090510
v -1.712090 77.916801 -10.415990
v 1.712090 82.485405 -10.415990
v 1.712090 80.202599 -9.201319
v -1.712090 69.099998 8.590969
v 1.712090 69.099998 8.590969
v 1.712090 72.145805 3.930789
v 1.712090 25.464602 -11.014097
v 1.712090 27.295803 -8.868676
v -1.712090 25.464602 -11.014097
v -1.712090 44.520397 -2.105774
v -1.712090 27.295803 -8.868676
v -1.712090 91.070297 -1.297028
v -1.712090 96.658203 -6.390566
v 1.712090 49.934399 -9.607224
v 1.712090 60.826405 -10.815792
v 1.712090 75.457001 -0.952168
v 1.712089 70.259705 -18.466692
v -1.712090 60.826405 -10.815792
v 1.712090 37.241699 -4.709005
v 1.712090 40.363800 -0.616468
v 1.712090 77.916801 -10.415990
v 1.712089 76.909698 -13.492189
v 1.712089 80.202599 -21.274488
v 1.712090 83.809898 2.304161
v 1.712090 81.374596 2.304160
v -1.712090 63.747105 -12.216592
v -1.712090 75.484505 -7.031451
v -1.712090 75.457001 -0.952168
v -1.712090 80.202599 -0.347900
v -1.712090 79.030701 2.304160
v -1.712090 76.595398 2.304159
v -1.712091 80.202599 -21.274488
v -1.712090 60.878300 -7.260342
v -1.712090 49.934399 -9.607224
v -1.712090 24.521599 3.118993
v -1.712090 36.155300 -5.233916
v -1.712090 31.034300 -5.462806
v 1.712090 37.241699 4.709014
v 1.712090 32.456402 3.643914
v 1.712090 32.456402 -3.643906
v 1.712089 83.492500 -13.492189
v 1.712090 84.691902 -9.430208
v 1.712090 87.331802 -9.588909
v -1.712090 72.145805 3.930789
v 1.712090 31.034300 -5.462806
v 1.712090 28.199100 -4.333625
v 1.712090 24.521599 -3.118987
v 1.712090 27.735203 -7.293917
v -1.712090 28.199100 4.333634
v 1.712089 90.145599 -18.466690
v 1.712090 96.658203 -12.216588
v -1.712091 70.259705 -18.466692
v -1.712090 73.073502 -9.588912
v -1.712091 90.145599 -18.466690
v -1.712091 83.492500 -13.492189
v -1.712090 37.241699 -4.709005
v -1.712090 32.456402 -3.643906
v 1.712090 24.521599 3.118993
v 1.712090 27.735199 7.293923
v 1.712090 33.961002 2.740563
v 1.712090 40.363800 0.616480
v 1.712090 82.940201 -9.479040
v 1.712090 84.029701 -7.702858
v -1.712090 80.202599 -9.201319
v -1.712091 76.909698 -13.492189
v -1.712090 66.057297 -1.239041
v 1.712090 44.520397 -2.105774
v 1.712090 56.392097 5.520807
v 1.712090 59.697300 4.565579
v 1.712090 60.878300 -7.260342
v 1.712090 66.057297 -1.239041
v 1.712090 63.747101 -7.293912
v 1.712090 73.073502 -9.588912
v 1.712090 63.747105 -12.216592
v -1.712090 63.747101 -7.293912
v -1.712090 59.697300 4.565579
v -1.712090 56.392097 5.520807
v -1.712090 40.363800 -0.616468
v -1.712090 96.658203 -12.216588
v -1.712090 87.331802 -9.588909
v -1.712090 84.917801 -7.031448
v -1.712090 84.945206 -0.952165
v -1.712090 81.374596 2.304160
v -1.712090 80.202599 9.051802
v -1.712090 83.809898 2.304161
v 1.712090 96.658203 -6.390566
v 1.712090 91.070297 -1.297028
v 1.712090 84.945206 -0.952165
v 1.712090 80.202599 -8.047718
v -1.712090 76.375595 -7.702861
v -1.712090 77.462097 -9.479040
v -1.712090 80.202599 -8.047718
v -1.712090 37.241699 4.709014
v -1.712090 36.155300 5.233925
v -1.712090 27.735199 7.293923
v -1.712090 31.034300 5.462814
v -1.712090 24.521599 -3.118987
v -1.712090 27.735203 -7.293917
v -1.712090 40.363800 0.616480
v 1.712090 76.375595 -7.702861
v 1.712090 75.710304 -9.430210
v -1.712090 80.202599 -2.090510
v 1.712090 76.595398 2.304159
v 1.712090 80.202599 9.051802
v 1.712090 79.030701 2.304160
v -1.712090 82.485405 -10.415990
v 1.712090 31.034300 5.462814
v 1.712090 36.155300 5.233925
v 1.712090 36.155300 -5.233916
vn 0.5711 0.2328 -0.7872
vn 0.6341 -0.7534 -0.1742
vn 0.0335 -0.6342 -0.7724
vn -0.5711 0.2328 0.7872
vn -0.6341 -0.7534 0.1742
vn -0.0335 -0.6342 0.7724
vn 0.9710 -0.0048 -0.2392
vn 0.9681 0.2507 -0.0013
vn 0.7178 0.3463 -0.6040
vn -0.6235 0.6730 -0.3979
vn -0.9139 0.4051 -0.0255
vn -0.9193 0.1827 -0.3485
vn 0.7658 -0.3983 0.5050
vn 0.6552 -0.1346 0.7434
vn 0.6312 -0.2211 0.7435
vn 0.9939 -0.0182 -0.1087
vn 0.7657 -0.3983 -0.5050
vn 0.6563 -0.5533 -0.5130
vn -0.9765 -0.2107 0.0445
vn -0.9917 -0.0453 -0.1205
vn -0.8756 -0.2290 -0.4253
vn -0.9984 -0.0493 -0.0274
vn -0.9681 0.2507 -0.0013
vn -0.9331 0.2005 -0.2984
vn -0.9449 0.1728 0.2780
vn -0.9094 0.4156 0.0178
vn -0.6235 0.6730 0.3979
vn 0.9139 0.4051 0.0255
vn 0.6030 0.7971 0.0314
vn 0.6235 0.6730 0.3979
vn 0.9094 0.4156 -0.0178
vn 0.6235 0.6730 -0.3979
vn 0.5555 0.8155 -0.1625
vn 0.9681 0.2507 0.0013
vn 0.9710 -0.0048 0.2392
vn 0.7203 0.4570 0.5219
vn -0.9681 0.2507 0.0013
vn -0.9998 0.0116 -0.0177
vn -0.9331 0.2005 0.2984
vn -0.9880 0.0038 0.1546
vn -0.5499 -0.3573 0.7550
vn -0.8756 -0.2290 0.4253
vn 0.7608 0.2250 0.6087
vn 0.0335 -0.6342 0.7724
vn 0.8505 -0.5079 0.1367
vn 0.0315 0.6359 0.7711
vn 0.5714 -0.2273 0.7886
vn 0.6329 0.7550 0.1715
vn 0.0315 0.6360 -0.7711
vn 0.8493 0.5104 -0.1352
vn 0.7622 -0.2195 -0.6090
vn -0.7608 0.2250 -0.6087
vn -0.0335 -0.6342 -0.7724
vn -0.8505 -0.5079 -0.1367
vn -0.0315 0.6359 -0.7711
vn -0.5714 -0.2273 -0.7886
vn -0.6329 0.7550 -0.1715
vn -0.0315 0.6360 0.7711
vn -0.8493 0.5104 0.1352
vn -0.7622 -0.2195 0.6090
vn -0.0000 -0.0000 -1.0000
vn -1.0000 -0.0000 -0.0000
vn -0.0000 -0.0000 1.0000
vn 1.0000 -0.0000 -0.0000
vn -0.3046 -0.7782 0.5492
vn -0.1018 -0.9943 -0.0328
vn 0.1157 -0.6201 0.7760
vn 0.2995 -0.9499 -0.0894
vn 0.1760 -0.9382 0.2981
vn -0.2490 -0.9319 -0.2639
vn 0.2315 -0.8285 -0.5099
vn 0.0328 0.5098 -0.8597
vn 0.9186 0.0051 -0.3951
vn 0.7723 0.2641 -0.5777
vn 0.7351 -0.5759 0.3577
vn 0.3786 -0.8174 -0.4342
vn 0.6326 0.5371 -0.5579
vn -0.3929 0.1800 -0.9018
vn -0.3392 0.8894 -0.3066
vn 0.3392 0.8894 0.3066
vn -0.6326 0.5371 0.5579
vn 0.3929 0.1800 0.9018
vn -0.2315 -0.8285 0.5099
vn -0.1900 0.6036 0.7743
vn -0.9186 0.0051 0.3951
vn -0.7351 -0.5759 -0.3577
vn -0.3786 -0.8174 0.4342
vn -0.7723 0.2641 0.5777
vn -0.8740 0.2363 -0.4247
vn -0.7250 -0.6862 -0.0589
vn -0.8976 0.2327 0.3744
vn 0.0184 0.8762 -0.4817
vn -0.2755 0.5977 0.7529
vn 0.4590 -0.5363 0.7083
vn 0.5121 0.8278 0.2293
vn 0.6891 0.2975 -0.6608
vn 0.2910 0.4601 -0.8388
vn -0.5121 0.8278 -0.2293
vn -0.6891 0.2975 0.6608
vn -0.2910 0.4601 0.8388
vn 0.6710 0.7405 0.0374
vn 0.9701 0.2081 -0.1250
vn 0.9281 -0.3686 -0.0522
vn -0.0760 -0.9940 -0.0793
vn 0.4617 -0.8337 -0.3029
vn 0.6374 -0.7363 0.2271
vn -0.9701 0.2081 -0.1249
vn -0.6710 0.7405 0.0374
vn -0.9069 -0.4041 -0.1191
vn -0.1169 -0.1629 0.9797
vn -0.1074 -0.1787 0.9780
vn 0.1169 -0.1629 0.9797
vn -0.7250 -0.6706 0.1571
vn -0.8740 0.4262 0.2336
vn -0.8976 0.3057 -0.3176
vn -0.4740 -0.6486 -0.5955
vn -0.6736 -0.1531 -0.7230
vn -0.0829 -0.1866 -0.9789
vn 0.5759 -0.5547 -0.6005
vn 0.7043 0.3889 -0.5939
vn 0.7188 -0.6341 0.2849
vn 0.8248 -0.0610 0.5622
vn 0.1511 0.7252 0.6717
vn 0.1683 0.2885 0.9426
vn 0.2328 -0.7009 0.6742
vn 0.5955 -0.6418 0.4831
vn 0.7890 0.3246 0.5217
vn -0.8128 -0.0254 0.5819
vn -0.0984 -0.0883 0.9912
vn -0.4540 0.7602 0.4647
vn -0.6710 0.7405 -0.0374
vn -0.9701 0.2081 0.1250
vn -0.9281 -0.3686 0.0523
vn 0.1074 -0.1787 -0.9780
vn -0.1169 -0.1629 -0.9797
vn 0.1169 -0.1629 -0.9797
vn -0.6989 -0.4750 0.5347
vn -0.7583 -0.5482 -0.3528
vn -0.0484 -0.8283 0.5581
vn -0.7646 -0.4794 -0.4307
vn -0.4969 0.5459 -0.6746
vn -0.1231 -0.3688 -0.9213
vn -0.3963 0.5095 0.7638
vn -0.8973 0.2959 0.3277
vn -0.5018 -0.6440 0.5775
vn -0.2253 0.2914 0.9297
vn -0.9123 -0.0416 0.4074
vn -0.7921 -0.4566 0.4051
vn 0.9123 -0.0416 0.4074
vn 0.3016 0.4262 0.8529
vn 0.5855 -0.5359 0.6083
vn 0.6891 0.2975 0.6608
vn 0.7700 0.5694 -0.2880
vn 0.2170 0.5901 0.7776
vn 0.6718 -0.7148 -0.1943
vn 0.7190 0.5757 0.3894
vn 0.5086 -0.4607 0.7274
vn -0.9297 -0.0801 -0.3595
vn -0.5046 -0.6205 0.6003
vn -0.7717 0.5844 0.2509
vn -0.5168 -0.5558 0.6511
vn -0.4266 0.7425 0.5165
vn -0.9486 -0.3059 -0.0811
vn -0.4157 -0.5112 -0.7522
vn -0.7726 0.6277 -0.0949
vn -0.4226 0.7420 -0.5204
vn -0.5309 -0.7777 -0.3367
vn -0.8659 0.4168 -0.2765
vn -0.0572 0.4607 -0.8857
vn 0.4358 -0.7897 -0.4318
vn 0.1640 0.6051 -0.7791
vn 0.8659 0.4168 -0.2765
vn 0.1610 0.0123 -0.9869
vn 0.0461 0.8305 -0.5552
vn 0.9111 0.4031 -0.0859
vn 0.6121 -0.2108 0.7622
vn 0.9111 0.4031 0.0859
vn 0.0206 0.6834 0.7298
vn 0.8443 0.0259 0.5353
vn 0.8402 0.4049 0.3607
vn 0.0676 0.5126 0.8559
vn -0.8443 0.0259 0.5353
vn -0.0676 0.5126 0.8560
vn -0.8402 0.4049 0.3607
vn 0.7646 -0.4794 0.4307
vn 0.4969 0.5459 0.6746
vn 0.1231 -0.3688 0.9213
vn 0.3963 0.5095 -0.7638
vn 0.8973 0.2959 -0.3277
vn 0.5018 -0.6440 -0.5775
vn 0.2253 0.2914 -0.9297
vn 0.9123 -0.0416 -0.4074
vn 0.7921 -0.4566 -0.4051
vn -0.9123 -0.0416 -0.4074
vn -0.3016 0.4262 -0.8529
vn -0.5855 -0.5359 -0.6083
vn -0.6891 0.2975 -0.6608
vn -0.7700 0.5694 0.2880
vn -0.2170 0.5901 -0.7776
vn -0.6718 -0.7148 0.1943
vn -0.5618 0.4355 -0.7034
vn -0.5086 -0.4607 -0.7274
vn 0.9297 -0.0801 0.3595
vn 0.5046 -0.6205 -0.6003
vn 0.8681 0.4860 0.1013
vn 0.5168 -0.5558 -0.6511
vn 0.4415 0.7440 -0.5015
vn 0.5587 -0.7697 -0.3089
vn 0.4157 -0.5112 0.7522
vn 0.9920 -0.0227 -0.1244
vn 0.4077 0.7398 0.5353
vn 0.4912 -0.7856 0.3763
vn 0.8659 0.4168 0.2765
vn -0.0041 0.3207 0.9472
vn -0.4757 -0.7875 0.3918
vn -0.0775 0.4948 0.8656
vn -0.8659 0.4168 0.2765
vn -0.3595 -0.1225 0.9251
vn -0.0206 0.6834 0.7298
vn -0.9111 0.4031 0.0859
vn -0.4142 -0.1494 -0.8978
vn -0.9111 0.4031 -0.0859
vn -0.0461 0.8305 -0.5551
vn -0.8443 0.0259 -0.5353
vn -0.8402 0.4049 -0.3607
vn -0.0411 0.5820 -0.8121
vn 0.8443 0.0259 -0.5353
vn 0.0411 0.5820 -0.8122
vn 0.8402 0.4049 -0.3607
vn -0.5955 -0.6418 -0.4831
vn -0.4037 0.2607 -0.8770
vn -0.1426 -0.4117 -0.9001
vn -0.7415 0.3419 0.5773
vn -0.5955 -0.6418 0.4831
vn -0.2328 -0.7009 0.6742
vn -0.2971 0.1701 0.9396
vn -0.6736 -0.1531 0.7230
vn -0.4740 -0.6486 0.5955
vn 0.6736 -0.1530 0.7231
vn 0.3436 0.2132 0.9146
vn 0.4740 -0.6486 0.5955
vn 0.8129 -0.0253 0.5819
vn 0.6741 0.6953 0.2493
vn 0.0940 -0.0005 0.9956
vn 0.7799 -0.6077 0.1501
vn 0.5037 0.4514 0.7366
vn 0.3586 -0.5740 0.7361
vn 0.5775 -0.3752 0.7251
vn 0.8442 0.3637 -0.3938
vn 0.5696 0.4816 0.6661
vn 0.7188 -0.6341 -0.2849
vn 0.8112 0.4531 0.3697
vn 0.5759 -0.5548 0.6005
vn -0.8483 -0.3569 -0.3912
vn -0.5759 -0.5548 0.6005
vn -0.7043 0.3889 0.5939
vn -0.5759 -0.5547 -0.6005
vn -0.8483 -0.3569 0.3912
vn -0.8112 0.4531 -0.3697
vn -0.5696 0.4817 -0.6660
vn -0.5775 -0.3752 -0.7251
vn -0.7149 0.6335 0.2958
vn 0.9059 -0.4129 0.0938
vn 0.5696 0.4817 -0.6660
vn 0.8442 0.3637 0.3938
vn 0.6716 0.6968 -0.2518
vn 0.5422 -0.6277 -0.5586
vn 0.5038 0.4514 -0.7365
vn 0.0701 -0.9205 -0.3845
vn -0.6098 0.2697 -0.7453
vn 0.5382 0.3867 -0.7489
vn -0.6098 0.2697 0.7453
vn 0.2394 -0.8885 0.3916
vn 0.5381 0.3869 0.7489
vn -0.1321 0.5698 0.8111
vn -0.6646 -0.5627 0.4917
vn 0.8020 -0.2886 0.5230
vn -0.6190 0.0933 0.7798
vn -0.0389 -0.9649 0.2597
vn 0.5045 0.2259 0.8333
vn 0.1274 0.5525 0.8237
vn 0.2315 -0.8285 0.5099
vn 0.9282 -0.1632 0.3342
vn 0.3786 -0.8174 0.4342
vn 0.9432 -0.0685 -0.3251
vn 0.8029 0.2909 0.5203
vn 0.0470 0.3931 0.9183
vn 0.6922 -0.2333 0.6830
vn 0.5662 0.8048 0.1783
vn -0.7424 -0.2285 0.6298
vn -0.0470 0.3931 0.9183
vn -0.7681 0.6380 0.0545
vn -0.8442 0.0917 0.5282
vn -0.1683 0.2885 0.9426
vn -0.1511 0.7252 0.6718
vn 0.2295 -0.0566 -0.9717
vn 0.9780 0.0230 -0.2074
vn 0.4110 -0.8731 -0.2622
vn 0.8657 -0.4305 -0.2554
vn 0.2763 -0.5777 0.7680
vn 0.0636 -0.9717 0.2274
vn 0.3681 -0.8237 -0.4313
vn 0.6988 -0.4750 0.5348
vn 0.0730 -0.7822 0.6187
vn 0.5448 -0.7727 -0.3259
vn 0.6269 -0.7690 0.1255
vn -0.0760 -0.9940 0.0793
vn -0.5448 -0.7727 -0.3259
vn 0.0817 -0.9962 0.0296
vn -0.4617 -0.8337 0.3029
vn 0.0650 -0.9896 -0.1280
vn -0.4261 -0.8192 0.3839
vn -0.6269 -0.7690 -0.1255
vn -0.1091 -0.7335 -0.6708
vn -0.3040 -0.8558 0.4186
vn -0.7756 -0.5209 -0.3566
vn 0.8036 -0.5030 0.3181
vn 0.0730 -0.7822 -0.6187
vn 0.5548 -0.4911 -0.6716
vn 0.9195 -0.0491 -0.3899
vn 0.3387 -0.9403 0.0347
vn 0.2764 -0.5777 -0.7680
vn 0.4891 0.8713 0.0405
vn -0.6622 0.1406 -0.7360
vn 0.4885 0.7980 0.3530
vn 0.4126 -0.9101 -0.0376
vn -0.0000 -0.5147 -0.8573
vn 0.8501 -0.3976 -0.3453
vn 0.7658 -0.6037 -0.2216
vn 0.5974 -0.7055 0.3814
vn -0.2482 -0.2904 0.9242
vn -0.1235 -0.9880 -0.0926
vn 0.4877 -0.8652 0.1162
vn 0.6533 -0.5100 0.5596
vn -0.6543 -0.5117 0.5568
vn 0.6396 0.1571 0.7524
vn -0.1980 0.9392 0.2806
vn -0.5943 0.0773 0.8005
vn 0.1522 -0.2004 0.9678
vn 0.2938 0.9077 0.2996
vn -0.6475 0.5753 0.4998
vn 0.6827 0.6678 -0.2966
vn -0.0922 0.8735 0.4780
vn -0.6295 0.7651 -0.1355
vn -0.0000 -0.5147 0.8573
vn 0.7658 -0.6038 0.2216
vn 0.4126 -0.9101 0.0376
vn 0.8501 -0.3976 0.3453
vn -0.6622 0.1406 0.7360
vn 0.3979 0.9112 -0.1067
vn 0.4885 0.7980 -0.3530
vn 0.6740 0.6941 0.2531
vn -0.0000 0.9766 -0.2150
vn -0.0923 0.8735 -0.4780
vn 0.4381 0.8293 -0.3468
vn 0.2042 -0.1885 -0.9606
vn -0.6888 0.3741 -0.6210
vn 0.6479 0.1758 -0.7412
vn -0.6839 0.3094 -0.6607
vn -0.6128 0.6434 -0.4588
vn 0.6250 -0.4730 -0.6210
vn 0.4878 -0.8652 -0.1162
vn -0.6224 -0.4701 -0.6258
vn 0.5974 -0.7055 -0.3814
vn -0.1235 -0.9880 0.0926
vn -0.0531 -0.2675 -0.9621
vn -0.1321 0.5699 -0.8110
vn 0.4949 -0.7610 -0.4195
vn -0.4375 -0.7822 -0.4436
vn 0.7918 -0.1365 -0.5953
vn 0.0389 -0.9649 -0.2597
vn -0.7350 -0.0668 -0.6748
vn 0.0331 0.5077 -0.8609
vn -0.2315 -0.8285 -0.5099
vn -0.9282 -0.1632 -0.3342
vn -0.3786 -0.8174 -0.4342
vn -0.9432 -0.0685 0.3251
vn -0.8029 0.2909 -0.5203
vn -0.0470 0.3932 -0.9183
vn -0.7176 -0.2321 -0.6566
vn -0.5662 0.8048 -0.1783
vn 0.7176 -0.2321 -0.6566
vn 0.0470 0.3932 -0.9183
vn 0.7681 0.6380 -0.0545
vn 0.8397 0.0141 -0.5429
vn 0.1683 0.2885 -0.9426
vn 0.1511 0.7252 -0.6718
vn -0.2858 -0.6880 -0.6670
vn -0.5919 0.2863 0.7534
vn -0.3033 0.8585 -0.4135
vn -0.4589 -0.7884 -0.4097
vn -0.0565 -0.5611 0.8258
vn -0.3033 0.8585 0.4135
vn -0.2822 0.7343 -0.6174
vn -0.4591 -0.5363 0.7082
vn 0.1925 0.7698 0.6085
vn -0.9150 -0.2883 0.2822
vn -0.1289 -0.1983 0.9716
vn -0.2935 0.9319 0.2131
vn -0.8770 0.1244 0.4641
vn -0.7663 -0.6174 -0.1779
vn 0.0305 -0.3390 0.9403
vn -0.9546 0.0880 0.2847
vn -0.1218 -0.8265 0.5496
vn -0.2295 -0.0566 0.9717
vn -0.8113 -0.4948 0.3114
vn -0.3741 -0.5144 -0.7716
vn -0.3387 -0.9403 0.0347
vn 0.1426 -0.4117 -0.9001
vn 0.3508 0.2193 -0.9104
vn 0.5955 -0.6418 -0.4831
vn 0.0649 -0.2510 -0.9658
vn 0.6736 -0.1531 -0.7230
vn 0.4740 -0.6486 -0.5955
vn 0.3616 -0.5759 -0.7332
vn 0.4540 0.7602 -0.4647
vn 0.8128 -0.0254 -0.5819
vn -0.6741 0.6953 -0.2493
vn -0.3060 -0.5348 -0.7876
vn -0.8128 -0.0254 -0.5819
vn -0.7799 -0.6077 -0.1501
vn -0.5038 0.4514 -0.7365
vn -0.5193 -0.6270 -0.5807
vn -0.5037 0.4514 0.7366
vn -0.6716 0.6968 0.2518
vn -0.3797 -0.5862 0.7157
vn -0.5696 0.4816 0.6661
vn -0.7149 0.6335 -0.2958
vn -0.9059 -0.4129 -0.0938
vn -0.2111 0.6612 -0.7199
vn 0.4032 0.2528 -0.8795
vn -0.1911 0.0307 -0.9811
vn 0.4033 0.9141 0.0421
vn -0.0000 0.9198 -0.3925
vn -0.3721 0.9222 0.1051
vn 0.1949 0.9373 0.2889
vn 0.2995 0.9499 -0.0895
vn -0.2489 0.9319 -0.2637
vn 0.1156 0.6205 0.7757
vn -0.1378 0.9901 -0.0272
vn -0.3045 0.7783 0.5491
vn -0.0000 0.6070 0.7947
vn 0.3423 0.9394 0.0170
vn -0.5349 0.8158 0.2197
vn 0.5276 -0.8326 0.1687
vn -0.0000 -0.6068 0.7949
vn -0.4747 -0.8679 0.1461
vn -0.5147 0.7997 0.3091
vn 0.5407 0.8402 -0.0411
vn -0.5143 0.8307 -0.2130
vn 0.5395 0.8402 0.0553
vn -0.0194 0.7997 -0.6001
vn -0.2130 0.8307 0.5143
vn 0.3033 0.8402 0.4495
vn 0.2648 0.8006 -0.5375
vn -0.5909 0.7997 -0.1064
vn 0.5686 0.0727 0.8194
vn -0.2387 0.7759 0.5840
vn -0.6000 0.2310 0.7659
vn 0.1958 -0.2854 0.9382
vn 0.1228 0.8082 0.5759
vn -0.5956 0.3339 0.7306
vn 0.1280 -0.5758 0.8075
vn 0.5919 0.2863 -0.7534
vn 0.3191 0.8436 0.4320
vn 0.4589 -0.7884 0.4097
vn 0.2251 -0.6327 -0.7410
vn 0.3191 0.8436 -0.4320
vn 0.2822 0.7343 0.6174
vn 0.4522 -0.5360 -0.7129
vn -0.3375 0.1772 -0.9245
vn 0.8963 -0.3199 -0.3072
vn 0.1289 -0.1983 -0.9716
vn 0.2391 0.9254 -0.2941
vn 0.9025 0.0985 -0.4193
vn 0.7249 -0.6636 0.1849
vn -0.0305 -0.3390 -0.9403
vn -0.1897 -0.6489 0.7368
vn -0.9512 -0.0783 0.2985
vn -0.2052 -0.9773 0.0520
vn -0.8336 -0.5294 0.1575
vn -0.2296 -0.0565 -0.9716
vn -0.2218 -0.8823 -0.4152
vn -0.3938 -0.9101 0.1293
vn -0.8483 0.1471 -0.5086
vn 0.0304 -0.3390 -0.9403
vn -0.9319 -0.2550 -0.2581
vn -0.1811 0.9370 -0.2986
vn -0.1290 -0.1984 -0.9716
vn -0.4659 -0.5364 -0.7037
vn -0.0184 0.8762 0.4817
vn 0.2593 -0.1854 -0.9478
vn -0.4343 -0.8978 -0.0724
vn -0.2808 -0.1879 -0.9412
vn 0.3651 -0.3059 -0.8793
vn 0.3623 0.2992 -0.8827
vn -0.2695 0.1775 -0.9465
vn -0.0631 0.9978 -0.0198
vn 0.1543 0.1092 -0.9820
vn -0.6871 0.7058 -0.1724
vn 0.6313 0.7681 -0.1071
vn 0.6313 -0.7137 0.3035
vn -0.8766 -0.4306 -0.2150
vn -0.0000 -0.2571 -0.9664
vn 0.1623 -0.1127 -0.9803
vn 0.6751 -0.7263 -0.1294
vn -0.8431 -0.4370 -0.3134
vn -0.8274 0.5616 -0.0029
vn 0.5836 0.7376 0.3396
vn 0.5904 0.4283 -0.6842
vn -0.3336 0.8335 0.4405
vn 0.6911 0.6161 -0.3779
vn -0.6885 0.6138 -0.3863
vn -0.0083 0.2113 0.9774
vn 0.3111 0.2494 0.9171
vn -0.0000 0.4727 -0.8812
vn -0.0000 0.2079 0.9782
vn -0.0000 0.5267 -0.8500
vn -0.4476 0.4127 -0.7933
vn -0.9944 0.0875 -0.0597
vn 0.9990 0.0361 -0.0246
vn 0.3107 -0.2505 0.9169
vn -0.4476 -0.4127 -0.7933
vn 0.6903 -0.5978 0.4076
vn -0.4488 -0.3062 0.8396
vn -0.5212 -0.3851 -0.7616
vn 0.5898 -0.4301 -0.6835
vn -0.7068 -0.6805 0.1934
vn 0.0002 -0.9198 -0.3924
vn 0.3991 -0.9153 0.0549
vn -0.0341 -0.9434 0.3300
vn 0.4071 -0.2646 -0.8742
vn -0.0833 -0.7119 -0.6974
vn -0.4169 -0.3394 -0.8432
vn 0.2131 -0.0359 -0.9764
vn 0.2022 -0.6634 -0.7204
vn -0.3341 -0.5333 -0.7772
vn 0.3119 0.6142 -0.7249
vn 0.2451 -0.0715 -0.9668
vn -0.3705 0.4850 -0.7921
vn -0.2435 0.6867 -0.6850
vn 0.5399 0.2179 -0.8130
vn -0.3956 0.0104 -0.9184
vn 0.5448 -0.2311 -0.8061
vn -0.1273 -0.7468 -0.6527
vn -0.4218 -0.0340 -0.9061
vn 0.2646 0.0624 -0.9623
vn 0.2542 -0.6757 -0.6920
vn -0.3447 -0.5657 -0.7491
vn 0.2715 0.6107 -0.7439
vn 0.1946 0.0266 -0.9805
vn -0.3651 0.4563 -0.8115
vn 0.3828 0.8703 -0.3099
vn 0.9655 0.2574 0.0391
vn 0.6816 -0.7156 0.1527
vn 0.9655 0.2574 -0.0391
vn 0.4171 -0.1395 0.8981
vn 0.6816 -0.7156 -0.1527
vn 0.8506 0.2056 -0.4839
vn 0.7297 0.6832 0.0271
vn 0.3620 -0.9237 -0.1255
vn -0.8960 -0.0396 0.4423
vn -0.8506 0.2056 -0.4839
vn -0.3620 -0.9237 -0.1255
vn 0.8506 0.2056 0.4839
vn 0.3686 -0.9232 0.1090
vn 0.8922 0.1302 -0.4325
vn -0.3554 -0.9238 0.1420
vn -0.8506 0.2056 0.4839
vn -0.7845 0.5981 -0.1639
vn -0.3961 -0.9178 -0.0260
vn -0.6816 -0.7156 0.1527
vn -0.9655 0.2574 0.0391
vn -0.6816 -0.7156 -0.1527
vn -0.4172 -0.1394 0.8981
vn -0.9655 0.2574 -0.0391
vn 0.2869 0.9226 0.2579
vn 0.1290 -0.1984 0.9716
vn 0.9150 -0.2883 0.2822
vn -0.0304 -0.3390 0.9403
vn 0.3409 -0.9340 -0.1066
vn 0.8770 0.1244 0.4641
vn 0.2295 -0.0566 0.9717
vn 0.1218 -0.8265 0.5496
vn 0.7720 -0.6105 -0.1768
vn 0.6238 0.2665 -0.7347
vn 0.6423 0.4870 -0.5919
vn 0.5416 -0.6285 -0.5583
vn -0.6423 0.4870 -0.5919
vn -0.6238 0.2665 -0.7347
vn -0.4578 -0.6480 -0.6087
vn -0.8397 0.0142 -0.5429
vn -0.1511 0.7252 -0.6717
vn -0.1683 0.2885 -0.9426
vn 0.1228 0.8082 -0.5759
vn 0.2578 -0.2613 -0.9302
vn -0.5956 0.3339 -0.7306
vn 0.5982 0.2190 -0.7708
vn -0.2388 -0.2710 -0.9325
vn -0.2387 0.7758 -0.5840
vn 0.0497 0.8006 0.5971
vn 0.3887 0.8402 -0.3782
vn -0.5998 0.7997 0.0278
vn 0.6710 0.7405 -0.0374
vn 0.9069 -0.4041 0.1191
vn 0.9701 0.2081 0.1249
vn 0.4578 -0.6480 0.6087
vn 0.6759 0.4645 0.5722
vn 0.6238 0.2665 0.7347
vn -0.5416 -0.6285 0.5583
vn -0.6238 0.2665 0.7347
vn -0.6071 0.5062 0.6125
vn 0.9566 0.1422 -0.2545
vn 0.9921 0.0390 -0.1193
vn 0.8478 -0.3412 0.4060
vn 0.9691 -0.0320 0.2446
vn 0.9857 0.1651 0.0325
vn -0.9672 -0.0359 -0.2514
vn -0.9618 -0.2733 0.0127
vn 0.7289 0.2220 0.6476
vn 0.6970 -0.5769 0.4258
vn 0.6554 0.7128 -0.2497
vn 0.9857 0.0234 -0.1667
vn 0.9618 -0.2734 -0.0136
vn 0.9454 -0.1391 -0.2948
vn 0.7118 -0.6658 0.2237
vn 0.8922 -0.2238 -0.3923
vn 0.6589 0.7148 0.2343
vn 0.6955 -0.5765 -0.4289
vn 0.7289 0.2298 -0.6449
vn -0.5302 0.8477 0.0166
vn -0.8056 -0.0618 -0.5892
vn -0.6970 -0.5769 -0.4258
vn -0.8064 0.4144 0.4218
vn -0.5166 0.8561 -0.0152
vn -0.6955 -0.5765 0.4289
vn -0.8764 -0.1985 0.4387
vn -0.9989 0.0356 0.0297
vn -0.7104 0.5904 -0.3830
vn -0.9346 0.0735 0.3482
vn -0.8424 0.5388 0.0090
vn -0.4985 -0.8128 0.3014
vn -0.9857 0.1651 0.0325
vn -0.9691 -0.0320 0.2446
vn -0.9566 0.1422 -0.2545
vn -0.8478 -0.3412 0.4060
vn -0.9921 0.0390 -0.1193
vn -0.5392 -0.7672 -0.3474
vn -0.1903 -0.2214 -0.9564
vn -0.9316 0.0749 -0.3558
vn 0.5392 -0.7672 -0.3474
vn 0.9316 0.0749 -0.3558
vn 0.1903 -0.2214 -0.9564
vn -0.9618 -0.2735 -0.0072
vn -0.9857 0.0234 -0.1667
vn -0.9165 -0.2437 -0.3171
vn -0.7138 0.6037 0.3550
vn -0.9454 -0.1391 -0.2948
vn -0.6852 -0.7146 0.1409
vn -0.7137 0.6961 0.0785
vn -0.9540 -0.1427 -0.2636
vn 0.5583 -0.8061 -0.1964
vn 0.9540 -0.1427 -0.2636
vn 0.8671 -0.1080 0.4863
vn 0.9711 -0.1587 -0.1781
vn 0.9346 0.0735 0.3482
vn 0.4790 -0.8136 0.3296
vn 0.9989 0.0356 0.0297
vn 0.8985 -0.2428 0.3657
vn 0.5951 -0.8002 0.0749
vn 0.9672 -0.0359 -0.2513
vn 0.9618 -0.2736 0.0080
vn 0.9618 0.2736 0.0077
vn -0.7690 0.5802 0.2683
vn -0.8740 -0.2446 -0.4200
vn -0.5007 -0.3263 -0.8017
vn -0.8740 0.4370 -0.2127
vn -0.7250 -0.2099 -0.6560
vn -0.5007 -0.7618 -0.4110
vn -0.7256 0.6842 0.0737
vn -0.8402 -0.3053 -0.4481
vn -0.8006 -0.5992 0.0018
vn -0.8006 -0.5687 -0.1887
vn -0.8011 -0.1805 0.5707
vn -0.7256 0.5161 -0.4552
vn -0.8740 0.0080 0.4859
vn -0.7690 0.5803 -0.2682
vn -0.5007 -0.3263 0.8018
vn -0.7250 -0.0015 0.6888
vn -0.8740 0.4733 0.1103
vn -0.5007 -0.7618 0.4110
vn 0.7256 0.6881 0.0043
vn 0.7986 0.5112 0.3178
vn 0.7997 -0.5940 -0.0873
vn -0.7256 -0.6816 -0.0945
vn -0.8976 0.3475 0.2711
vn -0.7250 -0.2083 -0.6565
vn 0.7986 0.5111 -0.3178
vn 0.7256 0.6594 0.1967
vn 0.7997 -0.5699 0.1891
vn 0.7690 0.5803 -0.2682
vn 0.8740 0.3384 0.3489
vn 0.5008 0.7645 -0.4058
vn 0.8740 0.4844 -0.0397
vn 0.7250 0.0182 0.6886
vn 0.5008 0.8636 0.0587
vn 0.8740 -0.1302 -0.4682
vn 0.8976 0.2707 0.3479
vn 0.7250 -0.6870 -0.0497
vn 0.8976 0.3810 0.2217
vn 0.7256 -0.6659 0.1737
vn 0.7250 -0.2261 -0.6506
vn 0.8976 0.4354 0.0684
vn 0.8307 -0.5562 0.0233
vn 0.7256 -0.2448 -0.6431
vn 0.8307 -0.4835 0.2758
vn 0.7997 -0.5998 0.0276
vn 0.7256 0.6814 -0.0958
vn 0.5008 0.7645 0.4058
vn 0.8740 -0.2446 -0.4200
vn 0.7690 0.5803 0.2682
vn 0.5008 0.8636 -0.0587
vn 0.7249 -0.6788 -0.1170
vn 0.8740 0.4370 -0.2127
vn 0.7250 -0.5075 0.4657
vn 0.8976 0.2707 -0.3479
vn 0.8740 0.4262 0.2336
vn 0.7250 0.5900 0.3554
vn 0.7256 -0.6097 -0.3190
vn 0.8976 0.3810 -0.2217
vn 0.7256 -0.6043 0.3293
vn 0.8307 -0.5523 -0.0698
vn 0.8976 0.4354 -0.0684
vn 0.7256 0.6792 0.1108
vn 0.7997 -0.2509 0.5455
vn 0.8307 -0.1913 -0.5228
vn -0.7250 -0.0092 0.6887
vn -0.8976 0.4074 -0.1682
vn -0.7256 -0.6861 0.0529
vn -0.8976 0.4400 -0.0255
vn -0.8402 -0.5398 -0.0520
vn -0.7256 0.4284 0.5386
vn -0.8976 0.4267 0.1106
vn -0.7256 0.5222 -0.4481
vn -0.8402 -0.5409 0.0387
vn -0.7256 0.6846 -0.0697
vn -0.8006 -0.5524 -0.2321
vn -0.8402 -0.3910 0.3758
vn -0.7256 0.4783 0.4947
vn -0.8011 -0.1805 -0.5707
vn -0.8006 -0.5803 0.1492
vt 0.692871 -0.791504
vt 0.838379 -0.601074
vt 0.838379 -0.791504
vt 0.326660 -0.291992
vt 0.383301 -0.368164
vt 0.290527 -0.499512
vt 0.383301 -0.630859
vt 0.354980 -0.499512
vt 0.326660 -0.707031
vt 0.134277 -0.499512
vt 0.838379 -0.982422
vt 0.982910 -0.791504
vt 0.595703 -0.023438
vt 0.595703 -0.572754
vt 0.990234 -0.572754
vt 0.990234 -0.023438
vt 0.489746 -0.783691
vt 0.446777 -0.633789
vt 0.581055 -0.633789
vt 0.446777 -0.564453
vt 0.446777 -0.365723
vt 0.446777 -0.435059
vt 0.581055 -0.365723
vt 0.416504 -0.408691
vt 0.379395 -0.013672
vt 0.263184 -0.028320
vt 0.149902 -0.378418
vt 0.005371 -0.499512
vt 0.149902 -0.621094
vt 0.379395 -0.985840
vt 0.263184 -0.971191
vt 0.416504 -0.590820
vt 0.489746 -0.215820
vt 0.586914 0.774902
vt 0.514160 0.774902
vt 0.586914 0.708984
vt 0.608887 0.708984
vt 0.158691 0.251953
vt 0.091309 0.251953
vt 0.117188 0.284180
vt 0.158691 0.284180
vt 0.927734 0.203125
vt 0.992188 0.203125
vt 0.959961 0.284668
vt 0.959961 0.121582
vt 0.085449 0.144531
vt 0.008301 0.150879
vt 0.008301 0.018555
vt 0.128906 0.031250
vt 0.158691 0.316406
vt 0.091309 0.316406
vt 0.027832 0.874023
vt 0.043457 0.925781
vt 0.002441 0.871582
vt 0.196777 0.938965
vt 0.174316 0.983398
vt 0.173828 0.171387
vt 0.187012 0.176270
vt 0.158203 0.229004
vt 0.486328 0.075684
vt 0.429688 0.021484
vt 0.304688 0.075684
vt 0.261719 0.872559
vt 0.238770 0.937500
vt 0.250000 0.983398
vt 0.219727 0.251953
vt 0.198730 0.251953
vt 0.205566 0.284180
vt 0.221191 0.021484
vt 0.208496 0.065918
vt 0.221191 0.075684
vt 0.198730 0.316406
vt 0.219727 0.316406
vt 0.907227 0.156250
vt 0.962402 0.084473
vt 0.907715 0.012207
vt 0.491211 0.915527
vt 0.529297 0.958008
vt 0.529297 0.983398
vt 0.602051 0.983398
vt 0.647949 0.983398
vt 0.602051 0.905762
vt 0.185547 0.284180
vt 0.491211 0.983398
vt 0.573242 0.958008
vt 0.963379 0.084473
vt 0.908203 0.156250
vt 0.908203 0.012207
vt 0.250488 0.075684
vt 0.297363 0.935547
vt 0.480957 0.983398
vt 0.480957 0.935547
vt 0.006836 0.251953
vt 0.006836 0.316406
vt 0.289062 0.021484
vt 0.248047 0.021484
vt 0.198242 0.139160
vt 0.216797 0.161621
vt 0.205566 0.198730
vt 0.599121 0.021484
vt 0.628906 0.774902
vt 0.608887 0.774902
vt 0.514160 0.708984
vt 0.273438 0.251953
vt 0.273438 0.316406
vt 0.928711 0.708984
vt 0.958984 0.708984
vt 0.958984 0.773438
vt 0.928711 0.773438
vt 0.875000 0.773438
vt 0.875000 0.708984
vt 0.815918 0.708984
vt 0.816406 0.773438
vt 0.628906 0.708984
vt 0.651367 0.708984
vt 0.651367 0.774902
vt 0.947266 0.796387
vt 0.500000 0.829102
vt 0.991699 0.829102
vt 0.947266 0.862305
vt 0.508789 0.861816
vt 0.508789 0.796387
vt 0.893066 0.948730
vt 0.653320 0.964844
vt 0.880859 0.983887
vt 0.686523 0.942871
vt 0.653320 0.907715
vt 0.956543 0.936523
vt 0.686523 0.929688
vt 0.995605 0.936523
vt 0.927246 0.888672
vt 0.686523 0.936523
vt 0.927246 0.983887
vt 0.669434 0.888672
vt 0.669434 0.983887
vt 0.904785 0.983887
vt 0.651367 0.016602
vt 0.613770 0.259766
vt 0.537109 0.111816
vt 0.689453 0.131836
vt 0.414551 0.466797
vt 0.347656 0.281250
vt 0.111816 0.501465
vt 0.134766 0.448730
vt 0.923340 0.248535
vt 0.992188 0.369629
vt 0.876953 0.466309
vt 0.553711 0.496582
vt 0.554688 0.408691
vt 0.789062 0.237793
vt 0.729980 0.252930
vt 0.730469 0.403320
vt 0.666016 0.686035
vt 0.748047 0.562988
vt 0.700684 0.466309
vt 0.816895 0.486816
vt 0.789062 0.755371
vt 0.829590 0.562988
vt 0.257812 0.112793
vt 0.493164 0.086914
vt 0.296387 0.213867
vt 0.296387 0.244629
vt 0.733398 0.462402
vt 0.760742 0.486816
vt 0.789062 0.457031
vt 0.833496 0.172363
vt 0.789062 0.005371
vt 0.803223 0.172363
vt 0.847656 0.252930
vt 0.582031 0.535156
vt 0.582031 0.409668
vt 0.774414 0.172363
vt 0.744141 0.172363
vt 0.847168 0.403320
vt 0.100098 0.151855
vt 0.140137 0.048828
vt 0.145508 0.122070
vt 0.180664 0.094238
vt 0.244141 0.099609
vt 0.844238 0.462402
vt 0.754883 0.468750
vt 0.789062 0.428223
vt 0.741211 0.418457
vt 0.516113 0.916504
vt 0.460938 0.686035
vt 0.507324 0.614258
vt 0.504395 0.736328
vt 0.480957 0.862305
vt 0.296387 0.229004
vt 0.911621 0.686035
vt 0.995117 0.538086
vt 0.399414 0.833984
vt 0.395020 0.781250
vt 0.416504 0.816406
vt 0.023438 0.732910
vt 0.077148 0.625488
vt 0.075684 0.769043
vt 0.822754 0.468750
vt 0.839844 0.419922
vt 0.789062 0.280762
vt 0.226562 0.702148
vt 0.253418 0.802734
vt 0.315430 0.740723
vt 0.296875 0.512207
vt 0.102051 0.526855
vt 0.212891 0.644531
vt 0.269531 0.688477
vt 0.029785 0.556152
vt 0.571289 0.899414
s 1
usemtl Brush.056
f 1/1/1 13/2/2 11/3/3
f 1/1/4 2/2/5 3/3/6
f 47/4/7 4/5/8 10/6/9
f 9/7/10 8/8/11 5/6/12
f 6/9/13 7/10/14 10/6/15
f 7/10/16 47/4/17 10/6/18
f 7/10/19 5/6/20 47/4/21
f 5/6/22 4/5/23 47/4/24
f 5/6/25 8/8/26 4/5/27
f 8/8/28 10/6/29 4/5/30
f 8/8/31 9/7/32 10/6/33
f 9/7/34 6/9/35 10/6/36
f 9/7/37 5/6/38 6/9/39
f 5/6/40 7/10/41 6/9/42
f 1/1/43 11/3/44 2/11/45
f 11/3/46 12/12/47 2/11/48
f 11/3/49 13/2/50 12/12/51
f 1/1/52 3/3/53 13/11/54
f 3/3/55 12/12/56 13/11/57
f 3/3/58 2/2/59 12/12/60
f 17/13/61 14/14/61 15/15/61
f 16/16/61 17/13/61 15/15/61
f 29/13/62 18/14/62 30/15/62
f 19/13/63 22/15/63 20/14/63
f 21/16/63 22/15/63 19/13/63
f 23/16/62 33/13/62 24/15/62
f 25/14/62 27/15/62 26/13/62
f 26/13/62 27/15/62 28/16/62
f 29/13/62 30/15/62 31/16/62
f 32/14/62 24/15/62 33/13/62
f 34/13/61 36/15/61 35/16/61
f 37/14/61 36/15/61 34/13/61
f 9/7/62 6/9/62 53/17/62
f 38/18/62 43/19/62 41/20/62
f 39/21/62 42/22/62 44/23/62
f 8/8/62 42/22/62 40/24/62
f 8/8/62 41/20/62 42/22/62
f 41/20/62 43/19/62 42/22/62
f 42/22/62 43/19/62 44/23/62
f 45/25/62 46/26/62 47/4/62
f 47/4/62 46/26/62 48/27/62
f 47/4/62 48/27/62 7/10/62
f 7/10/62 48/27/62 49/28/62
f 7/10/62 49/28/62 50/29/62
f 51/30/62 6/9/62 52/31/62
f 6/9/62 50/29/62 52/31/62
f 6/9/62 7/10/62 50/29/62
f 53/17/62 54/32/62 9/7/62
f 54/32/62 8/8/62 9/7/62
f 54/32/62 41/20/62 8/8/62
f 8/8/62 40/24/62 4/5/62
f 4/5/62 40/24/62 55/33/62
f 4/5/62 55/33/62 47/4/62
f 340/13/63 338/15/63 337/14/63
f 339/16/63 338/15/63 340/13/63
f 352/13/64 353/15/64 341/14/64
f 342/13/61 343/14/61 345/15/61
f 344/16/61 342/13/61 345/15/61
f 346/16/64 347/15/64 356/13/64
f 348/14/64 349/13/64 350/15/64
f 349/13/64 351/16/64 350/15/64
f 352/13/64 354/16/64 353/15/64
f 355/14/64 356/13/64 347/15/64
f 357/13/63 358/16/63 359/15/63
f 360/14/63 357/13/63 359/15/63
f 336/7/64 376/17/64 333/9/64
f 361/18/64 364/20/64 366/19/64
f 362/21/64 367/23/64 365/22/64
f 335/8/64 363/24/64 365/22/64
f 335/8/64 365/22/64 364/20/64
f 364/20/64 365/22/64 366/19/64
f 365/22/64 367/23/64 366/19/64
f 368/25/64 370/4/64 369/26/64
f 370/4/64 371/27/64 369/26/64
f 370/4/64 334/10/64 371/27/64
f 334/10/64 372/28/64 371/27/64
f 334/10/64 373/29/64 372/28/64
f 374/30/64 375/31/64 333/9/64
f 333/9/64 375/31/64 373/29/64
f 333/9/64 373/29/64 334/10/64
f 376/17/64 336/7/64 377/32/64
f 377/32/64 336/7/64 335/8/64
f 377/32/64 335/8/64 364/20/64
f 335/8/64 332/5/64 363/24/64
f 332/5/64 378/33/64 363/24/64
f 332/5/64 370/4/64 378/33/64
usemtl Brush.057
f 57/34/65 119/35/66 180/36/67
f 180/36/68 56/37/69 57/34/70
f 210/38/71 109/39/72 71/40/73
f 71/40/74 58/41/75 210/38/76
f 111/42/77 98/43/78 67/44/79
f 85/45/80 98/43/81 111/42/82
f 61/46/62 59/47/62 62/48/62
f 60/49/62 61/46/62 62/48/62
f 229/50/83 123/51/84 65/40/85
f 63/41/86 229/50/87 65/40/88
f 64/52/64 66/53/64 65/54/64
f 70/53/62 67/55/62 68/56/62
f 69/52/62 70/53/62 71/54/62
f 68/56/64 66/53/64 85/55/64
f 121/57/89 102/58/90 84/59/91
f 72/60/92 109/61/93 73/62/94
f 74/63/95 75/64/96 87/65/97
f 88/63/98 86/64/99 76/65/100
f 105/66/101 193/67/102 77/68/103
f 302/69/104 78/70/105 62/71/106
f 246/72/107 104/73/108 77/68/109
f 105/74/110 77/75/111 104/76/112
f 228/58/113 113/57/114 84/59/115
f 238/77/116 199/78/117 115/79/118
f 95/80/119 79/81/120 80/82/121
f 81/83/122 99/38/123 192/67/124
f 91/84/125 234/77/126 114/79/127
f 326/78/128 115/79/129 327/85/130
f 101/73/131 100/72/132 82/68/133
f 82/86/134 252/87/135 101/88/136
f 59/71/137 83/89/138 84/69/139
f 67/55/140 76/65/141 111/56/142
f 76/65/143 85/55/144 111/56/145
f 76/65/146 86/64/147 85/55/148
f 86/64/149 87/65/150 85/55/151
f 86/64/152 88/63/153 87/65/154
f 88/63/155 89/90/156 87/65/157
f 88/63/158 76/65/159 89/90/160
f 76/65/161 93/91/162 89/90/163
f 76/65/164 92/90/165 93/91/166
f 92/90/167 270/92/168 93/91/169
f 92/90/170 90/91/171 270/92/172
f 90/91/173 91/84/174 270/92/175
f 90/91/176 237/92/177 91/84/178
f 237/92/179 234/77/180 91/84/181
f 237/92/182 94/84/183 234/77/184
f 85/55/185 87/65/186 98/56/187
f 87/65/188 67/55/189 98/56/190
f 87/65/191 75/64/192 67/55/193
f 75/64/194 76/65/195 67/55/196
f 75/64/197 74/63/198 76/65/199
f 74/63/200 92/90/201 76/65/202
f 74/63/203 87/65/204 92/90/205
f 87/65/206 90/91/207 92/90/208
f 87/65/209 89/90/210 90/91/211
f 89/90/212 237/92/213 90/91/214
f 89/90/215 93/91/216 237/92/217
f 93/91/218 94/84/219 237/92/220
f 93/91/221 270/92/222 94/84/223
f 270/92/224 238/77/225 94/84/226
f 270/92/227 91/84/228 238/77/229
f 238/77/230 115/79/231 94/84/232
f 115/79/233 234/77/234 94/84/235
f 115/79/236 326/78/237 234/77/238
f 326/78/239 114/79/240 234/77/241
f 326/78/242 327/85/243 114/79/244
f 327/85/245 95/80/246 114/79/247
f 327/85/248 116/82/249 95/80/250
f 116/82/251 79/81/252 95/80/253
f 116/82/254 96/80/255 79/81/256
f 96/80/257 80/82/258 79/81/259
f 96/80/260 198/85/261 80/82/262
f 198/85/263 95/80/264 80/82/265
f 198/85/266 114/79/267 95/80/268
f 97/51/269 98/93/270 111/94/271
f 98/93/272 123/51/273 111/94/274
f 98/93/275 120/39/276 123/51/277
f 120/39/278 65/40/279 123/51/280
f 120/39/281 99/38/282 65/40/283
f 99/38/284 63/41/285 65/40/286
f 99/38/287 81/83/288 63/41/289
f 81/83/290 229/50/291 63/41/292
f 81/83/293 100/72/294 229/50/295
f 99/95/296 83/89/297 300/96/298
f 83/89/299 302/69/300 300/96/301
f 83/89/302 59/71/303 302/69/304
f 59/71/305 78/70/306 302/69/307
f 59/71/308 84/69/309 78/70/310
f 84/69/311 62/71/312 78/70/313
f 84/69/314 138/89/315 62/71/316
f 138/89/317 302/69/318 62/71/319
f 138/89/320 139/96/321 302/69/322
f 102/58/323 100/97/324 192/97/325
f 100/97/326 252/98/327 192/97/328
f 100/97/329 101/98/327 252/98/327
f 101/98/330 301/99/331 252/98/332
f 101/98/333 251/99/334 301/99/335
f 251/99/336 103/58/337 301/99/338
f 251/99/339 102/58/340 103/58/341
f 102/58/342 192/97/343 103/58/344
f 104/98/345 246/97/346 105/98/345
f 246/97/347 193/97/348 105/98/345
f 246/97/349 228/58/350 193/97/351
f 228/58/352 106/58/353 193/97/354
f 228/58/355 107/99/356 106/58/357
f 107/99/358 108/99/359 106/58/360
f 107/99/361 104/98/362 108/99/363
f 104/98/364 105/98/365 108/99/366
f 98/93/367 97/51/368 109/39/369
f 97/51/370 71/40/371 109/39/372
f 97/51/373 112/50/374 71/40/375
f 112/50/376 58/41/377 71/40/378
f 112/50/379 110/83/380 58/41/381
f 110/83/382 210/38/383 58/41/384
f 110/83/385 193/67/386 210/38/387
f 123/61/388 72/60/389 111/100/390
f 72/60/391 97/61/392 111/100/393
f 72/60/394 73/62/395 97/61/396
f 73/62/397 112/95/398 97/61/399
f 73/62/400 138/89/401 112/95/402
f 138/89/403 113/96/404 112/95/405
f 138/89/406 84/69/407 113/96/408
f 91/84/409 114/79/410 238/77/411
f 114/79/412 199/78/413 238/77/414
f 114/79/415 198/85/416 199/78/417
f 198/85/418 115/79/419 199/78/420
f 198/85/421 96/80/422 115/79/423
f 96/80/424 327/85/425 115/79/426
f 96/80/427 116/82/428 327/85/429
f 129/101/430 117/37/431 195/102/432
f 117/37/433 118/34/434 195/102/435
f 117/37/436 295/36/437 118/34/438
f 295/36/439 119/35/440 118/34/441
f 295/36/442 182/103/443 119/35/444
f 182/103/445 180/36/446 119/35/447
f 173/104/448 140/105/449 303/104/450
f 140/105/451 253/104/452 303/104/453
f 140/105/454 317/105/455 253/104/456
f 317/105/457 252/66/458 253/104/459
f 317/105/460 101/73/461 252/66/462
f 109/61/463 72/60/464 98/100/465
f 72/60/466 120/61/467 98/100/468
f 72/60/469 122/62/470 120/61/471
f 122/62/472 99/95/473 120/61/474
f 122/62/475 83/89/476 99/95/477
f 84/69/478 83/89/479 121/96/480
f 83/89/481 229/95/482 121/96/483
f 83/89/484 122/62/485 229/95/486
f 122/62/487 123/61/488 229/95/489
f 122/62/490 72/60/491 123/61/492
f 254/106/493 307/107/494 310/108/495
f 310/108/496 307/107/497 124/106/498
f 310/108/499 124/106/500 309/109/501
f 309/109/502 124/106/503 308/110/504
f 310/108/505 125/109/506 254/106/507
f 254/106/508 125/109/509 126/110/510
f 254/106/511 126/110/512 255/111/513
f 255/111/514 126/110/515 127/112/516
f 126/110/517 320/113/518 127/112/519
f 127/112/520 320/113/521 308/110/522
f 127/112/523 308/110/524 318/111/525
f 318/111/526 308/110/527 124/106/528
f 57/34/529 56/37/530 319/102/531
f 56/37/532 174/101/533 319/102/534
f 56/37/535 128/114/536 174/101/537
f 128/114/538 256/115/539 174/101/540
f 174/101/541 256/115/542 130/116/543
f 256/115/544 129/101/545 130/116/546
f 256/115/547 328/114/548 129/101/549
f 328/114/550 117/37/551 129/101/552
f 135/117/553 131/118/554 132/119/555
f 131/118/556 137/120/557 132/119/558
f 131/118/559 133/121/560 137/120/561
f 133/121/562 136/118/563 137/120/564
f 131/118/565 135/117/566 134/122/567
f 135/117/568 136/118/569 134/122/570
f 135/117/571 132/119/572 136/118/573
f 132/119/574 137/120/575 136/118/576
f 109/61/577 210/95/578 73/62/579
f 210/95/580 138/89/581 73/62/582
f 210/95/583 139/96/584 138/89/585
f 193/67/586 110/83/587 77/68/588
f 110/83/589 246/72/590 77/68/591
f 110/83/592 112/50/593 246/72/594
f 104/73/595 292/105/596 105/66/597
f 292/105/598 173/104/599 105/66/600
f 292/105/601 140/105/602 173/104/603
f 252/66/604 82/68/605 192/67/606
f 82/68/607 81/83/608 192/67/609
f 82/68/610 100/72/611 81/83/612
f 143/123/613 150/124/614 149/125/615
f 141/126/64 150/124/616 143/123/617
f 223/127/618 146/128/619 142/129/62
f 156/128/620 145/130/621 154/131/622
f 141/126/64 143/123/617 144/132/64
f 143/123/623 156/128/624 144/132/64
f 143/123/625 152/133/626 156/128/627
f 152/133/628 145/130/629 156/128/630
f 152/133/631 146/128/632 145/130/633
f 146/128/634 154/131/635 145/130/636
f 146/128/637 223/127/638 154/131/639
f 223/127/640 82/134/641 154/131/642
f 147/132/62 151/123/643 148/126/62
f 151/123/643 214/124/644 148/126/62
f 151/123/645 149/125/646 214/124/647
f 149/125/648 77/135/649 214/124/650
f 149/125/651 150/124/652 77/135/653
f 142/129/62 146/128/654 147/132/62
f 146/128/654 151/123/655 147/132/62
f 146/128/656 152/133/657 151/123/658
f 152/133/659 153/136/660 151/123/661
f 152/133/662 143/123/663 153/136/664
f 82/134/665 226/127/666 154/131/667
f 226/127/668 156/128/669 154/131/670
f 226/127/671 155/129/64 156/128/672
f 155/129/64 144/132/64 156/128/673
f 157/137/62 258/138/62 290/139/62
f 283/139/64 285/138/64 158/137/64
f 285/138/64 159/140/64 158/137/64
f 167/141/64 281/142/64 160/143/64
f 161/144/64 160/143/64 281/142/64
f 162/143/62 163/142/62 187/141/62
f 163/142/62 162/143/62 164/144/62
f 165/145/62 166/146/62 294/147/62
f 167/141/64 168/148/64 284/149/64
f 119/150/64 169/151/64 57/152/64
f 170/153/64 175/154/64 287/155/64
f 129/156/64 176/157/64 194/158/64
f 186/149/62 171/148/62 187/141/62
f 101/98/62 100/97/62 311/159/62
f 105/98/64 193/97/64 172/159/64
f 284/149/64 283/139/64 167/141/64
f 167/141/64 283/139/64 282/160/64
f 281/142/64 282/160/64 253/161/64
f 281/142/64 253/161/64 173/162/64
f 169/151/64 285/138/64 57/152/64
f 57/152/64 285/138/64 287/155/64
f 57/152/64 287/155/64 319/163/64
f 319/163/64 287/155/64 175/154/64
f 319/163/64 175/154/64 174/164/64
f 174/164/64 175/154/64 176/157/64
f 130/165/64 176/157/64 129/156/64
f 177/166/64 322/167/64 178/168/64
f 178/168/64 322/167/64 119/150/64
f 178/168/64 119/150/64 306/169/64
f 179/170/62 289/171/62 242/155/62
f 242/155/62 289/171/62 258/138/62
f 180/152/62 258/138/62 181/151/62
f 180/152/62 181/151/62 182/150/62
f 182/150/62 181/151/62 183/172/62
f 182/150/62 183/172/62 298/167/62
f 298/167/62 183/172/62 184/173/62
f 185/157/62 256/165/62 328/156/62
f 185/157/62 328/156/62 244/158/62
f 165/145/62 295/174/62 296/169/62
f 290/139/62 186/149/62 187/141/62
f 291/160/62 163/142/62 317/161/62
f 188/175/62 313/176/62 229/177/62
f 229/177/62 314/178/62 100/97/62
f 100/97/62 314/178/62 312/179/62
f 246/97/62 189/179/62 190/178/62
f 246/97/62 190/178/62 112/177/62
f 112/177/62 190/178/62 316/176/62
f 191/159/64 330/179/64 192/97/64
f 192/97/64 329/178/64 99/177/64
f 99/177/64 329/178/64 248/176/64
f 210/177/64 209/178/64 193/97/64
f 169/151/64 119/150/64 323/172/64
f 323/172/64 119/150/64 322/167/64
f 129/156/64 194/158/64 195/180/64
f 195/180/64 194/158/64 196/147/64
f 195/180/64 196/147/64 118/174/64
f 182/150/62 297/168/62 296/169/62
f 124/181/64 307/182/64 318/183/64
f 319/163/64 124/181/64 318/183/64
f 197/140/62 258/138/62 157/137/62
f 198/85/62 199/78/62 200/184/62
f 204/185/62 201/186/62 202/187/62
f 202/187/62 203/188/62 204/185/62
f 205/186/64 207/187/64 208/185/64
f 206/188/64 208/185/64 207/187/64
f 128/164/62 309/181/62 256/165/62
f 128/164/62 56/163/62 309/181/62
f 212/176/64 209/178/64 210/177/64
f 210/177/64 211/175/64 212/176/64
f 216/58/62 213/99/62 214/98/62
f 214/98/62 215/97/62 216/58/62
f 217/58/64 218/97/64 150/98/64
f 150/98/64 219/99/64 217/58/64
f 220/99/62 221/58/62 223/98/62
f 222/97/62 223/98/62 221/58/62
f 224/97/64 227/58/64 226/98/64
f 225/99/64 226/98/64 227/58/64
f 112/177/674 113/57/675 246/97/676
f 113/57/677 228/58/678 246/97/679
f 107/99/680 140/189/681 292/161/682
f 292/161/683 104/98/684 107/99/685
f 121/57/686 229/177/687 100/97/688
f 102/58/689 121/57/690 100/97/691
f 230/190/64 196/147/64 194/158/64
f 231/191/64 304/146/64 196/147/64
f 232/192/62 272/193/62 271/194/62
f 233/184/64 234/77/64 206/188/64
f 235/192/64 263/193/64 236/194/64
f 206/188/64 234/77/64 237/92/64
f 200/184/62 238/77/62 203/188/62
f 239/195/64 240/196/64 259/197/64
f 241/153/62 242/155/62 257/154/62
f 294/147/62 243/190/62 244/158/62
f 294/147/62 117/180/62 295/174/62
f 104/98/62 245/159/62 246/97/62
f 247/175/64 99/177/64 248/176/64
f 108/99/692 105/98/693 173/161/694
f 249/195/62 250/196/62 266/197/62
f 251/99/695 84/59/696 102/58/697
f 252/98/698 301/99/699 253/161/700
f 176/157/64 130/165/64 174/164/64
f 129/156/64 254/198/64 130/165/64
f 129/156/64 195/180/64 254/198/64
f 195/180/64 255/199/64 254/198/64
f 195/180/64 118/174/64 255/199/64
f 118/174/64 127/200/64 255/199/64
f 118/174/64 119/150/64 127/200/64
f 119/150/64 57/152/64 127/200/64
f 182/150/62 320/200/62 180/152/62
f 182/150/62 295/174/62 320/200/62
f 295/174/62 126/199/62 320/200/62
f 295/174/62 117/180/62 126/199/62
f 117/180/62 125/198/62 126/199/62
f 117/180/62 328/156/62 125/198/62
f 328/156/62 256/165/62 125/198/62
f 185/157/62 128/164/62 256/165/62
f 185/157/62 257/154/62 128/164/62
f 257/154/62 56/163/62 128/164/62
f 257/154/62 242/155/62 56/163/62
f 242/155/62 180/152/62 56/163/62
f 242/155/62 258/138/62 180/152/62
f 259/197/64 261/201/64 260/202/64
f 262/203/64 276/204/64 263/193/64
f 250/196/62 264/205/62 265/206/62
f 266/197/62 265/206/62 267/201/62
f 266/197/62 267/201/62 268/202/62
f 272/193/62 269/204/62 204/185/62
f 270/92/62 271/194/62 203/188/62
f 271/194/62 204/185/62 203/188/62
f 271/194/62 272/193/62 204/185/62
f 272/193/62 274/203/62 269/204/62
f 274/203/62 273/207/62 269/204/62
f 274/203/62 268/202/62 273/207/62
f 268/202/62 267/201/62 273/207/62
f 266/197/62 250/196/62 265/206/62
f 250/196/62 275/208/62 264/205/62
f 237/92/64 236/194/64 206/188/64
f 236/194/64 208/185/64 206/188/64
f 236/194/64 263/193/64 208/185/64
f 263/193/64 276/204/64 208/185/64
f 262/203/64 277/207/64 276/204/64
f 262/203/64 260/202/64 277/207/64
f 260/202/64 261/201/64 277/207/64
f 259/197/64 278/206/64 261/201/64
f 259/197/64 240/196/64 278/206/64
f 240/196/64 279/205/64 278/206/64
f 240/196/64 280/208/64 279/205/64
f 281/142/64 167/141/64 282/160/64
f 284/149/64 285/138/64 283/139/64
f 284/149/64 286/171/64 285/138/64
f 286/171/64 287/155/64 285/138/64
f 286/171/64 288/170/64 287/155/64
f 289/171/62 186/149/62 258/138/62
f 186/149/62 290/139/62 258/138/62
f 187/141/62 291/160/62 290/139/62
f 187/141/62 163/142/62 291/160/62
f 163/142/62 292/162/62 317/161/62
f 293/191/62 294/147/62 166/146/62
f 294/147/62 295/174/62 165/145/62
f 295/174/62 182/150/62 296/169/62
f 182/150/62 298/167/62 297/168/62
f 298/167/62 299/166/62 297/168/62
f 99/177/701 300/57/702 192/97/703
f 300/57/704 103/58/705 192/97/706
f 300/57/707 302/59/708 103/58/709
f 302/59/710 301/99/711 103/58/712
f 302/59/713 303/189/714 301/99/715
f 303/189/716 253/161/717 301/99/718
f 304/146/64 305/145/64 196/147/64
f 305/145/64 118/174/64 196/147/64
f 305/145/64 306/169/64 118/174/64
f 306/169/64 119/150/64 118/174/64
f 193/97/719 139/57/720 210/177/721
f 193/97/722 106/58/723 139/57/724
f 106/58/725 302/59/726 139/57/727
f 106/58/728 108/99/729 302/59/730
f 108/99/731 303/189/732 302/59/733
f 108/99/734 173/161/735 303/189/736
f 255/199/64 307/182/64 254/198/64
f 307/182/64 130/165/64 254/198/64
f 307/182/64 124/181/64 130/165/64
f 124/181/64 174/164/64 130/165/64
f 124/181/64 319/163/64 174/164/64
f 260/202/64 85/55/64 259/197/64
f 268/202/62 75/64/62 67/55/62
f 266/197/62 70/53/62 69/52/62
f 180/152/62 308/183/62 56/163/62
f 308/183/62 309/181/62 56/163/62
f 308/183/62 310/182/62 309/181/62
f 310/182/62 256/165/62 309/181/62
f 310/182/62 125/198/62 256/165/62
f 64/52/64 259/197/64 66/53/64
f 259/197/64 85/55/64 66/53/64
f 260/202/64 86/64/64 85/55/64
f 260/202/64 88/63/64 86/64/64
f 311/159/62 100/97/62 312/179/62
f 229/177/62 313/176/62 314/178/62
f 315/175/62 112/177/62 316/176/62
f 246/97/62 245/159/62 189/179/62
f 228/58/737 84/59/738 107/99/739
f 84/59/740 140/189/741 107/99/742
f 84/59/743 251/99/744 140/189/745
f 251/99/746 317/161/747 140/189/748
f 251/99/749 101/98/750 317/161/751
f 266/197/62 67/55/62 70/53/62
f 266/197/62 268/202/62 67/55/62
f 268/202/62 74/63/62 75/64/62
f 255/199/64 127/200/64 307/182/64
f 127/200/64 318/183/64 307/182/64
f 127/200/64 57/152/64 318/183/64
f 57/152/64 319/163/64 318/183/64
f 125/198/62 310/182/62 126/199/62
f 310/182/62 320/200/62 126/199/62
f 310/182/62 308/183/62 320/200/62
f 308/183/62 180/152/62 320/200/62
f 321/173/64 323/172/64 322/167/64
f 238/77/62 270/92/62 203/188/62
f 324/209/64 327/85/64 233/184/64
f 233/184/64 326/78/64 234/77/64
f 325/209/62 198/85/62 200/184/62
f 200/184/62 199/78/62 238/77/62
f 233/184/64 327/85/64 326/78/64
f 294/147/62 244/158/62 117/180/62
f 244/158/62 328/156/62 117/180/62
f 329/178/64 192/97/64 330/179/64
f 192/97/64 252/98/64 191/159/64
f 193/97/64 331/179/64 172/159/64
f 193/97/64 209/178/64 331/179/64
f 379/52/62 380/54/62 381/53/62
f 385/53/64 383/56/64 382/55/64
f 384/52/64 386/54/64 385/53/64
f 383/56/62 389/55/62 381/53/62
f 392/85/64 394/184/64 393/78/64
f 398/185/64 396/187/64 395/186/64
f 396/187/64 398/185/64 397/188/64
f 399/186/62 402/185/62 401/187/62
f 400/188/62 401/187/62 402/185/62
f 403/192/64 426/194/64 427/193/64
f 404/184/62 400/188/62 405/77/62
f 406/192/62 407/194/62 418/193/62
f 394/184/64 397/188/64 409/77/64
f 410/195/62 414/197/62 411/196/62
f 412/195/64 421/197/64 413/196/64
f 414/197/62 415/202/62 416/201/62
f 417/203/62 418/193/62 431/204/62
f 413/196/64 420/206/64 419/205/64
f 421/197/64 422/201/64 420/206/64
f 421/197/64 423/202/64 422/201/64
f 427/193/64 398/185/64 424/204/64
f 425/92/64 397/188/64 426/194/64
f 426/194/64 397/188/64 398/185/64
f 426/194/64 398/185/64 427/193/64
f 427/193/64 424/204/64 429/203/64
f 429/203/64 424/204/64 428/207/64
f 429/203/64 428/207/64 423/202/64
f 423/202/64 428/207/64 422/201/64
f 421/197/64 420/206/64 413/196/64
f 413/196/64 419/205/64 430/208/64
f 408/92/62 400/188/62 407/194/62
f 407/194/62 400/188/62 402/185/62
f 407/194/62 402/185/62 418/193/62
f 418/193/62 402/185/62 431/204/62
f 417/203/62 431/204/62 432/207/62
f 417/203/62 432/207/62 415/202/62
f 415/202/62 432/207/62 416/201/62
f 414/197/62 416/201/62 433/206/62
f 414/197/62 433/206/62 411/196/62
f 411/196/62 433/206/62 434/205/62
f 411/196/62 434/205/62 435/208/62
f 415/202/62 414/197/62 389/55/62
f 423/202/64 382/55/64 388/64/64
f 421/197/64 384/52/64 385/53/64
f 379/52/62 381/53/62 414/197/62
f 414/197/62 381/53/62 389/55/62
f 415/202/62 389/55/62 390/64/62
f 415/202/62 390/64/62 391/63/62
f 421/197/64 385/53/64 382/55/64
f 421/197/64 382/55/64 423/202/64
f 423/202/64 388/64/64 387/63/64
f 409/77/64 397/188/64 425/92/64
f 436/209/62 404/184/62 439/85/62
f 404/184/62 405/77/62 438/78/62
f 437/209/64 394/184/64 392/85/64
f 394/184/64 409/77/64 393/78/64
f 404/184/62 438/78/62 439/85/62
f 444/46/64 445/48/64 442/47/64
f 443/49/64 445/48/64 444/46/64
f 462/137/64 534/139/64 524/138/64
f 527/139/62 463/137/62 529/138/62
f 529/138/62 463/137/62 464/140/62
f 472/141/62 465/143/62 525/142/62
f 466/144/62 525/142/62 465/143/62
f 467/143/64 492/141/64 468/142/64
f 468/142/64 469/144/64 467/143/64
f 470/145/64 538/147/64 471/146/64
f 472/141/62 528/149/62 473/148/62
f 454/150/62 441/152/62 474/151/62
f 475/153/62 531/155/62 480/154/62
f 460/156/62 499/158/62 481/157/62
f 491/149/64 492/141/64 476/148/64
f 448/98/64 551/159/64 447/97/64
f 450/98/62 477/159/62 498/97/62
f 528/149/62 472/141/62 527/139/62
f 472/141/62 526/160/62 527/139/62
f 525/142/62 519/161/62 526/160/62
f 525/142/62 478/162/62 519/161/62
f 474/151/62 441/152/62 529/138/62
f 441/152/62 531/155/62 529/138/62
f 441/152/62 559/163/62 531/155/62
f 559/163/62 480/154/62 531/155/62
f 559/163/62 479/164/62 480/154/62
f 479/164/62 481/157/62 480/154/62
f 461/165/62 460/156/62 481/157/62
f 482/166/62 483/168/62 562/167/62
f 483/168/62 454/150/62 562/167/62
f 483/168/62 546/169/62 454/150/62
f 484/170/64 511/155/64 533/171/64
f 511/155/64 524/138/64 533/171/64
f 485/152/64 486/151/64 524/138/64
f 485/152/64 487/150/64 486/151/64
f 487/150/64 488/172/64 486/151/64
f 487/150/64 542/167/64 488/172/64
f 542/167/64 489/173/64 488/172/64
f 490/157/64 564/156/64 522/165/64
f 490/157/64 513/158/64 564/156/64
f 470/145/64 540/169/64 539/174/64
f 534/139/64 492/141/64 491/149/64
f 535/160/64 557/161/64 468/142/64
f 493/175/64 507/177/64 553/176/64
f 507/177/64 447/97/64 554/178/64
f 447/97/64 552/179/64 554/178/64
f 515/97/64 495/178/64 494/179/64
f 515/97/64 451/177/64 495/178/64
f 451/177/64 556/176/64 495/178/64
f 496/159/62 497/97/62 566/179/62
f 497/97/62 446/177/62 565/178/62
f 446/177/62 517/176/62 565/178/62
f 504/177/62 498/97/62 503/178/62
f 474/151/62 563/172/62 454/150/62
f 563/172/62 562/167/62 454/150/62
f 460/156/62 500/180/62 499/158/62
f 500/180/62 501/147/62 499/158/62
f 500/180/62 453/174/62 501/147/62
f 487/150/64 540/169/64 541/168/64
f 455/181/62 558/183/62 547/182/62
f 559/163/62 558/183/62 455/181/62
f 502/140/64 462/137/64 524/138/64
f 459/164/64 522/165/64 549/181/64
f 459/164/64 549/181/64 440/163/64
f 506/176/62 504/177/62 503/178/62
f 504/177/62 506/176/62 505/175/62
f 508/190/62 499/158/62 501/147/62
f 509/191/62 501/147/62 544/146/62
f 510/153/64 523/154/64 511/155/64
f 538/147/64 513/158/64 512/190/64
f 538/147/64 539/174/64 452/180/64
f 449/98/64 515/97/64 514/159/64
f 516/175/62 517/176/62 446/177/62
f 481/157/62 479/164/62 461/165/62
f 460/156/62 461/165/62 520/198/62
f 460/156/62 520/198/62 500/180/62
f 500/180/62 520/198/62 521/199/62
f 500/180/62 521/199/62 453/174/62
f 453/174/62 521/199/62 458/200/62
f 453/174/62 458/200/62 454/150/62
f 454/150/62 458/200/62 441/152/62
f 487/150/64 485/152/64 560/200/64
f 487/150/64 560/200/64 539/174/64
f 539/174/64 560/200/64 457/199/64
f 539/174/64 457/199/64 452/180/64
f 452/180/64 457/199/64 456/198/64
f 452/180/64 456/198/64 564/156/64
f 564/156/64 456/198/64 522/165/64
f 490/157/64 522/165/64 459/164/64
f 490/157/64 459/164/64 523/154/64
f 523/154/64 459/164/64 440/163/64
f 523/154/64 440/163/64 511/155/64
f 511/155/64 440/163/64 485/152/64
f 511/155/64 485/152/64 524/138/64
f 525/142/62 526/160/62 472/141/62
f 528/149/62 527/139/62 529/138/62
f 528/149/62 529/138/62 530/171/62
f 530/171/62 529/138/62 531/155/62
f 530/171/62 531/155/62 532/170/62
f 533/171/64 524/138/64 491/149/64
f 491/149/64 524/138/64 534/139/64
f 492/141/64 534/139/64 535/160/64
f 492/141/64 535/160/64 468/142/64
f 468/142/64 557/161/64 536/162/64
f 537/191/64 471/146/64 538/147/64
f 538/147/64 470/145/64 539/174/64
f 539/174/64 540/169/64 487/150/64
f 487/150/64 541/168/64 542/167/64
f 542/167/64 541/168/64 543/166/64
f 544/146/62 501/147/62 545/145/62
f 545/145/62 501/147/62 453/174/62
f 545/145/62 453/174/62 546/169/62
f 546/169/62 453/174/62 454/150/62
f 521/199/62 520/198/62 547/182/62
f 547/182/62 520/198/62 461/165/62
f 547/182/62 461/165/62 455/181/62
f 455/181/62 461/165/62 479/164/62
f 455/181/62 479/164/62 559/163/62
f 485/152/64 440/163/64 548/183/64
f 548/183/64 440/163/64 549/181/64
f 548/183/64 549/181/64 550/182/64
f 550/182/64 549/181/64 522/165/64
f 550/182/64 522/165/64 456/198/64
f 551/159/64 552/179/64 447/97/64
f 507/177/64 554/178/64 553/176/64
f 555/175/64 556/176/64 451/177/64
f 515/97/64 494/179/64 514/159/64
f 521/199/62 547/182/62 458/200/62
f 458/200/62 547/182/62 558/183/62
f 458/200/62 558/183/62 441/152/62
f 441/152/62 558/183/62 559/163/62
f 456/198/64 457/199/64 550/182/64
f 550/182/64 457/199/64 560/200/64
f 550/182/64 560/200/64 548/183/64
f 548/183/64 560/200/64 485/152/64
f 561/173/62 562/167/62 563/172/62
f 538/147/64 452/180/64 513/158/64
f 513/158/64 452/180/64 564/156/64
f 565/178/62 566/179/62 497/97/62
f 497/97/62 496/159/62 518/98/62
f 498/97/62 477/159/62 567/179/62
f 498/97/62 567/179/62 503/178/62
