mtllib ultimaweaponddd.mtl
v 0.000000 -23.722000 -0.000003
v 0.000000 -20.877699 -1.858582
v 2.032530 -20.877699 -0.000002
v 0.000000 -20.877699 1.858578
v -2.032530 -20.877699 -0.000002
v 0.000000 -43.226398 -2.505576
v 0.000000 -41.859200 -1.586966
v 0.988800 -44.099201 -0.000006
v 0.000000 -41.859200 1.586954
v 0.000000 -42.542801 -0.000006
v -0.988800 -44.099201 -0.000006
v 0.000000 -43.226398 2.505564
v 0.000000 -47.880501 -0.000006
v 0.000000 -18.063900 -0.000003
v 1.617480 -33.533703 -0.000004
v -1.617480 -33.533703 -0.000003
v -1.617480 -30.295700 -0.000004
v 1.617480 -30.295700 -0.000004
v 0.000000 -36.732101 -1.614435
v 0.000000 -36.732101 1.614425
v 0.000000 -32.093300 1.614426
v 1.617480 -38.529598 -0.000005
v -1.617480 -35.291599 -0.000004
v -1.617480 -38.529598 -0.000005
v 1.617480 -35.291599 -0.000005
v 0.000000 -22.104601 -1.614433
v 0.000000 -26.743401 -1.614433
v 0.000000 -22.104601 1.614427
v 0.000000 -31.739199 1.614426
v 0.000000 -27.100399 1.614427
v 0.000000 -31.739199 -1.614434
v 0.000000 -27.100399 -1.614433
v 0.000000 -32.093300 -1.614434
v 0.000000 -26.743401 1.614427
v 1.617480 -28.540901 -0.000004
v -1.617480 -25.302898 -0.000003
v 1.617480 -25.302898 -0.000003
v -1.617480 -28.540901 -0.000004
v 0.000000 -39.295597 3.427225
v 0.000000 -40.327202 1.617474
v 0.000000 -37.086098 1.617475
v 0.000000 -40.327202 0.781268
v 0.000000 -40.327202 -1.617486
v 0.000000 -40.327202 -0.781280
v 0.000000 -37.086098 -1.617485
v 0.000000 -41.059601 -1.098676
v 0.000000 -41.953800 -5.871765
v 0.000000 -44.767601 -5.691706
v 0.000000 -47.499001 -1.464896
v 0.000000 -50.996399 -0.000006
v 0.000000 -47.499001 1.464884
v 0.000000 -41.953800 5.871754
v 0.000000 -44.767601 5.691694
v 0.000000 -41.059601 1.098664
v 0.000000 -39.295597 -3.427235
v 1.617480 -33.533703 -0.000004
v -1.617480 -30.295700 -0.000004
v -1.617480 -33.533703 -0.000003
v 1.617480 -30.295700 -0.000004
v 0.000000 -36.732101 -1.614435
v 0.000000 -32.093300 1.614426
v 0.000000 -36.732101 1.614425
v 1.617480 -38.529598 -0.000005
v -1.617480 -38.529598 -0.000005
v -1.617480 -35.291599 -0.000004
v 1.617480 -35.291599 -0.000005
v 0.000000 -22.104601 -1.614433
v 0.000000 -22.104601 1.614427
v 0.000000 -26.743401 -1.614433
v 0.000000 -31.739199 1.614426
v 0.000000 -31.739199 -1.614434
v 0.000000 -27.100399 1.614427
v 0.000000 -27.100399 -1.614433
v 0.000000 -32.093300 -1.614434
v 0.000000 -26.743401 1.614427
v 1.617480 -28.540901 -0.000004
v 1.617480 -25.302898 -0.000003
v -1.617480 -25.302898 -0.000003
v -1.617480 -28.540901 -0.000004
v 0.000000 -41.859200 1.586954
v 0.000000 -39.295597 3.427225
v 0.000000 -43.226398 2.505564
v 0.000000 -40.327202 1.617474
v 0.000000 -40.327202 0.781268
v 0.000000 -37.086098 1.617475
v 0.000000 -40.327202 -1.617486
v 0.000000 -37.086098 -1.617485
v 0.000000 -40.327202 -0.781280
v 0.000000 -42.542801 -0.000006
v 0.000000 -41.059601 -1.098676
v 0.000000 -41.953800 -5.871765
v 0.000000 -43.226398 -2.505576
v 0.000000 -44.767601 -5.691706
v 0.000000 -47.499001 -1.464896
v 0.000000 -47.880501 -0.000006
v 0.000000 -50.996399 -0.000006
v 0.000000 -47.499001 1.464884
v 0.000000 -41.953800 5.871754
v 0.000000 -44.767601 5.691694
v 0.000000 -41.059601 1.098664
v 0.000000 -41.859200 -1.586966
v 0.000000 -39.295597 -3.427235
vt 0.692871 -0.791504
vt 0.838379 -0.601074
vt 0.838379 -0.791504
vt 0.326660 -0.291992
vt 0.383301 -0.368164
vt 0.290527 -0.499512
vt 0.383301 -0.630859
vt 0.354980 -0.499512
vt 0.326660 -0.707031
vt 0.134277 -0.499512
vt 0.838379 -0.982422
vt 0.982910 -0.791504
vt 0.595703 -0.023438
vt 0.595703 -0.572754
vt 0.990234 -0.572754
vt 0.990234 -0.023438
vt 0.489746 -0.783691
vt 0.446777 -0.633789
vt 0.581055 -0.633789
vt 0.446777 -0.564453
vt 0.446777 -0.365723
vt 0.446777 -0.435059
vt 0.581055 -0.365723
vt 0.416504 -0.408691
vt 0.379395 -0.013672
vt 0.263184 -0.028320
vt 0.149902 -0.378418
vt 0.005371 -0.499512
vt 0.149902 -0.621094
vt 0.379395 -0.985840
vt 0.263184 -0.971191
vt 0.416504 -0.590820
vt 0.489746 -0.215820
vn 0.5711 0.2328 -0.7872
vn 0.6341 -0.7534 -0.1742
vn 0.0335 -0.6342 -0.7724
vn -0.5711 0.2328 0.7872
vn -0.6341 -0.7534 0.1742
vn -0.0335 -0.6342 0.7724
vn 0.9710 -0.0048 -0.2392
vn 0.9681 0.2507 -0.0013
vn 0.7178 0.3463 -0.6040
vn -0.6235 0.6730 -0.3979
vn -0.9139 0.4051 -0.0255
vn -0.9193 0.1827 -0.3485
vn 0.7658 -0.3983 0.5050
vn 0.6552 -0.1346 0.7434
vn 0.6312 -0.2211 0.7435
vn 0.9939 -0.0182 -0.1087
vn 0.7657 -0.3983 -0.5050
vn 0.6563 -0.5533 -0.5130
vn -0.9765 -0.2107 0.0445
vn -0.9917 -0.0453 -0.1205
vn -0.8756 -0.2290 -0.4253
vn -0.9984 -0.0493 -0.0274
vn -0.9681 0.2507 -0.0013
vn -0.9331 0.2005 -0.2984
vn -0.9449 0.1728 0.2780
vn -0.9094 0.4156 0.0178
vn -0.6235 0.6730 0.3979
vn 0.9139 0.4051 0.0255
vn 0.6030 0.7971 0.0314
vn 0.6235 0.6730 0.3979
vn 0.9094 0.4156 -0.0178
vn 0.6235 0.6730 -0.3979
vn 0.5555 0.8155 -0.1625
vn 0.9681 0.2507 0.0013
vn 0.9710 -0.0048 0.2392
vn 0.7203 0.4570 0.5219
vn -0.9681 0.2507 0.0013
vn -0.9998 0.0116 -0.0177
vn -0.9331 0.2005 0.2984
vn -0.9880 0.0038 0.1546
vn -0.5499 -0.3573 0.7550
vn -0.8756 -0.2290 0.4253
vn 0.7608 0.2250 0.6087
vn 0.0335 -0.6342 0.7724
vn 0.8505 -0.5079 0.1367
vn 0.0315 0.6359 0.7711
vn 0.5714 -0.2273 0.7886
vn 0.6329 0.7550 0.1715
vn 0.0315 0.6360 -0.7711
vn 0.8493 0.5104 -0.1352
vn 0.7622 -0.2195 -0.6090
vn -0.7608 0.2250 -0.6087
vn -0.0335 -0.6342 -0.7724
vn -0.8505 -0.5079 -0.1367
vn -0.0315 0.6359 -0.7711
vn -0.5714 -0.2273 -0.7886
vn -0.6329 0.7550 -0.1715
vn -0.0315 0.6360 0.7711
vn -0.8493 0.5104 0.1352
vn -0.7622 -0.2195 0.6090
vn -0.0000 -0.0000 -1.0000
vn -1.0000 -0.0000 -0.0000
vn -0.0000 -0.0000 1.0000
vn 1.0000 -0.0000 -0.0000
o keychain
usemtl Brush.056
f 1/1/1 2/2/2 3/3/3
f 1/1/4 4/2/5 5/3/6
f 6/4/7 7/5/8 8/6/9
f 9/7/10 10/8/11 11/6/12
f 12/9/13 13/10/14 8/6/15
f 13/10/16 6/4/17 8/6/18
f 13/10/19 11/6/20 6/4/21
f 11/6/22 7/5/23 6/4/24
f 11/6/25 10/8/26 7/5/27
f 10/8/28 8/6/29 7/5/30
f 10/8/31 9/7/32 8/6/33
f 9/7/34 12/9/35 8/6/36
f 9/7/37 11/6/38 12/9/39
f 11/6/40 13/10/41 12/9/42
f 1/1/43 3/3/44 4/11/45
f 3/3/46 14/12/47 4/11/48
f 3/3/49 2/2/50 14/12/51
f 1/1/52 5/3/53 2/11/54
f 5/3/55 14/12/56 2/11/57
f 5/3/58 4/2/59 14/12/60
f 15/13/61 16/14/61 17/15/61
f 18/16/61 15/13/61 17/15/61
f 19/13/62 20/14/62 21/15/62
f 22/13/63 23/15/63 24/14/63
f 25/16/63 23/15/63 22/13/63
f 26/16/62 27/13/62 28/15/62
f 29/14/62 30/15/62 31/13/62
f 31/13/62 30/15/62 32/16/62
f 19/13/62 21/15/62 33/16/62
f 34/14/62 28/15/62 27/13/62
f 35/13/61 36/15/61 37/16/61
f 38/14/61 36/15/61 35/13/61
f 9/7/62 12/9/62 39/17/62
f 40/18/62 41/19/62 42/20/62
f 43/21/62 44/22/62 45/23/62
f 10/8/62 44/22/62 46/24/62
f 10/8/62 42/20/62 44/22/62
f 42/20/62 41/19/62 44/22/62
f 44/22/62 41/19/62 45/23/62
f 47/25/62 48/26/62 6/4/62
f 6/4/62 48/26/62 49/27/62
f 6/4/62 49/27/62 13/10/62
f 13/10/62 49/27/62 50/28/62
f 13/10/62 50/28/62 51/29/62
f 52/30/62 12/9/62 53/31/62
f 12/9/62 51/29/62 53/31/62
f 12/9/62 13/10/62 51/29/62
f 39/17/62 54/32/62 9/7/62
f 54/32/62 10/8/62 9/7/62
f 54/32/62 42/20/62 10/8/62
f 10/8/62 46/24/62 7/5/62
f 7/5/62 46/24/62 55/33/62
f 7/5/62 55/33/62 6/4/62
f 56/13/63 57/15/63 58/14/63
f 59/16/63 57/15/63 56/13/63
f 60/13/64 61/15/64 62/14/64
f 63/13/61 64/14/61 65/15/61
f 66/16/61 63/13/61 65/15/61
f 67/16/64 68/15/64 69/13/64
f 70/14/64 71/13/64 72/15/64
f 71/13/64 73/16/64 72/15/64
f 60/13/64 74/16/64 61/15/64
f 75/14/64 69/13/64 68/15/64
f 76/13/63 77/16/63 78/15/63
f 79/14/63 76/13/63 78/15/63
f 80/7/64 81/17/64 82/9/64
f 83/18/64 84/20/64 85/19/64
f 86/21/64 87/23/64 88/22/64
f 89/8/64 90/24/64 88/22/64
f 89/8/64 88/22/64 84/20/64
f 84/20/64 88/22/64 85/19/64
f 88/22/64 87/23/64 85/19/64
f 91/25/64 92/4/64 93/26/64
f 92/4/64 94/27/64 93/26/64
f 92/4/64 95/10/64 94/27/64
f 95/10/64 96/28/64 94/27/64
f 95/10/64 97/29/64 96/28/64
f 98/30/64 99/31/64 82/9/64
f 82/9/64 99/31/64 97/29/64
f 82/9/64 97/29/64 95/10/64
f 81/17/64 80/7/64 100/32/64
f 100/32/64 80/7/64 89/8/64
f 100/32/64 89/8/64 84/20/64
f 89/8/64 101/5/64 90/24/64
f 101/5/64 102/33/64 90/24/64
f 101/5/64 92/4/64 102/33/64
