mtllib ultimaweaponkh1.mtl
v 0.860491 -5.680932 -8.993384
v 0.009792 -12.683630 -8.627787
v -0.837309 -5.680932 -8.994884
v -0.836812 13.812366 -9.001678
v 0.012787 16.071568 -7.168979
v 0.860588 13.812266 -9.001578
v -0.838311 9.537670 -10.400879
v 0.863688 4.861769 -17.134184
v -0.839612 4.861876 -17.134283
v -0.838912 8.546873 -15.714180
v 0.862888 8.546774 -15.714081
v -0.838313 10.302067 -12.595979
v 0.862187 10.302067 -12.595979
v 0.862189 9.537670 -10.400879
v -1.886114 22.635468 -2.878575
v -1.855513 21.892067 -0.005375
v 1.909986 22.635269 -2.878475
v 1.924387 19.443367 -4.002377
v -1.900813 19.443367 -4.002477
v 1.909586 22.635170 2.867925
v -1.885614 22.635368 2.867825
v 1.923487 19.443169 3.993223
v -1.900913 19.443268 3.993123
v 2.081286 22.113266 -0.037875
v -0.840511 0.792872 -15.709682
v 0.861789 0.792773 -15.709682
v 0.861689 -0.419231 -12.598382
v -0.840311 -0.419231 -12.598482
v 0.860590 -2.235130 -10.402582
v -0.839210 -2.235130 -10.402682
v 1.899489 9.346970 -0.002580
v -1.878111 9.347069 -0.002579
v -0.838809 -5.680937 8.984118
v 0.007992 -12.683634 8.617114
v 0.858891 -5.681037 8.982615
v 0.859088 13.812259 8.990822
v 0.011287 16.071560 7.158221
v -0.838412 13.812359 8.990922
v -0.839911 9.537763 10.390121
v 0.861890 4.861658 17.123417
v -0.840510 8.546762 15.703420
v -0.841310 4.861757 17.123617
v 0.861090 8.546762 15.703420
v -0.840111 10.302059 12.585221
v 0.860689 10.301960 12.585221
v 0.860689 9.537563 10.390121
v -0.842009 0.792860 15.698918
v 0.860291 0.792761 15.698918
v -0.841709 -0.419239 12.587718
v 0.859891 -0.419239 12.587618
v -0.840810 -2.235238 10.391917
v 0.858990 -2.235138 10.391917
v 1.318873 111.459961 16.063755
v 0.063673 108.508865 16.761751
v 0.063973 110.113266 14.354654
v 0.063873 113.635971 13.823654
v 0.063672 115.077072 20.556456
v 0.062673 105.321274 4.965251
v 1.886873 105.321274 -0.003449
v 1.888973 111.442459 11.873854
v 0.063673 109.748764 11.748054
v 1.889173 110.110962 14.354954
v 0.063873 108.765167 13.440954
v 1.889173 108.117264 14.692252
v 1.888574 105.321365 13.609952
v 0.062874 105.321365 12.151752
v 0.063074 105.321365 13.609552
v 1.410774 105.321365 17.268652
v 0.063274 105.321365 23.114552
v -1.191027 111.459961 16.063755
v 0.066672 113.637161 4.759554
v 0.066873 107.780167 4.767753
v 0.065573 111.442673 11.873854
v -1.761127 111.442459 11.873854
v -1.759827 105.321274 -0.005049
v -1.761627 110.110962 14.354954
v -1.761226 108.117264 14.692252
v -1.761226 105.321274 13.608652
v 0.065273 108.117264 14.692252
v -1.283726 105.321365 17.267252
v -1.191025 99.182571 16.063747
v 0.063274 102.133774 16.763151
v 0.063475 100.529373 14.356050
v 0.063475 97.006668 13.825050
v 0.063276 95.565567 20.557848
v 0.065575 99.199966 11.873751
v 0.066674 97.005463 4.759549
v 0.067073 102.862473 4.767751
v -1.761126 99.200073 11.873850
v 0.063475 100.893967 11.749451
v -1.761525 100.531662 14.354950
v 0.063274 101.877472 13.442350
v -1.761426 102.525360 14.692252
v 1.317775 99.182663 16.066448
v 1.887975 99.200073 11.876551
v 1.888375 100.531769 14.357751
v 1.887974 102.525269 14.695052
v 0.061474 102.525269 14.695052
v 2.937276 85.391663 1.335145
v 1.887574 96.432663 -0.074551
v 1.888276 88.595367 5.552845
v 1.888775 99.862167 10.595850
v 1.887471 116.787064 2.614555
v 1.089271 116.536163 0.034155
v 1.888772 110.831161 10.682554
v 1.887570 121.857666 4.920157
v 2.835575 94.087372 -5.812253
v 2.812575 91.074066 -8.997252
v 2.820675 93.435165 -8.030552
v 3.115283 44.923363 10.180033
v 3.115484 41.356369 9.097831
v 3.054782 46.444267 5.715233
v 3.164584 41.206261 14.101431
v 2.963682 46.553864 -2.976068
v 1.888587 22.275467 -1.725076
v 1.888971 122.361862 15.352958
v 1.889477 89.580765 15.093946
v 2.958878 72.220566 -2.775960
v 3.170585 37.360855 14.071029
v -2.809724 85.391571 1.334445
v -1.760424 88.595169 5.552145
v -1.760026 96.432571 -0.075251
v -1.761026 99.861969 10.595050
v -1.759929 116.786972 2.613855
v -0.961529 116.536072 0.033455
v -1.760828 110.831070 10.681854
v -1.760030 121.857468 4.919457
v -2.707925 94.087265 -5.812953
v -2.692825 93.435165 -8.031252
v -2.684825 91.073959 -8.997952
v -2.987417 44.923264 10.179333
v -2.927218 46.444168 5.714533
v -2.987817 41.356270 9.097131
v -3.036816 41.206161 14.100731
v -2.836018 46.553864 -2.976767
v -1.760414 22.275368 -1.725775
v -1.761129 122.361771 15.352258
v -1.761623 89.580765 15.093246
v -2.831122 72.220566 -2.776659
v -3.042815 37.360657 14.070329
v 0.030084 40.242569 -6.555569
v -1.790216 40.244164 -0.005369
v -1.774718 50.202469 -0.005367
v 0.030082 50.202065 -4.996867
v -0.960529 116.635468 -0.005345
v 0.030070 121.573471 -0.005343
v 0.030072 112.624573 -4.074347
v -1.688627 105.320862 -0.005349
v 0.030173 105.320374 -5.001349
v 0.030384 37.494965 -2.530371
v 0.030087 21.209267 -3.376077
v -1.150914 22.635468 -2.878676
v -1.819013 21.823868 -0.005375
v 0.030084 40.242569 6.544731
v 0.030082 50.202065 4.986033
v 0.030072 112.624573 4.063553
v 0.029973 105.320374 4.990651
v -1.150614 22.635368 2.867525
v 0.029987 21.209366 3.363223
v 0.030084 37.494965 2.519529
v 1.834882 50.202469 -0.005367
v 1.850784 40.244064 -0.005370
v 1.020671 116.635468 -0.005345
v 1.748973 105.320862 -0.005349
v 1.211186 22.635368 -2.878676
v 1.879587 21.823868 -0.005376
v 1.211186 22.635368 2.867624
v 0.027574 101.271667 2.114149
v 0.027372 113.696365 2.115655
v -1.039626 101.269165 0.004950
v 0.027171 116.467667 0.007455
v 0.027373 105.078064 -3.046849
v 0.027274 101.268570 -2.332051
v 0.027786 22.254868 -2.115275
v -1.163913 21.877869 -0.005275
v 0.027786 22.252167 2.104925
v 1.093774 101.269073 0.005049
v 1.218387 21.877663 -0.005175
v 0.066672 113.637161 4.759554
v 0.065573 111.442673 11.873854
v 0.066873 107.780167 4.767753
v 0.063873 113.635971 13.823654
v 0.063973 110.113266 14.354654
v 0.065273 108.117264 14.692252
v 0.063673 108.508865 16.761751
v 0.063074 105.321365 13.609552
v 0.065575 99.199966 11.873751
v 0.063475 97.006668 13.825050
v 0.066674 97.005463 4.759549
v 0.063475 100.529373 14.356050
v 0.063274 102.133774 16.763151
v 0.061474 102.525269 14.695052
v -2.927118 46.444069 5.714533
v -2.987921 74.137573 13.939042
v -2.895024 85.490265 7.549745
v -2.831122 72.220459 -2.776659
v -2.835918 46.553764 -2.976667
v -2.809424 85.391464 1.334445
v -2.987317 44.923264 10.179333
v 3.022976 85.490372 7.550445
v 3.116079 74.137665 13.939644
v -0.838410 -2.235130 -10.405482
v 0.009690 -1.239128 -9.674282
v 0.009389 0.704369 -12.298182
v 0.009691 -5.075829 -8.090384
v 0.010189 8.092272 -6.526481
v 0.010091 -5.125532 -5.315485
v 0.009588 9.088772 -12.299779
v 0.009989 8.203167 -9.672180
v -0.838712 9.537670 -10.400978
v 0.010088 13.072367 -8.096179
v 0.010587 16.071667 -7.169079
v 0.010987 16.078064 -1.377177
v -0.838813 13.105968 -12.039278
v -0.838713 10.302174 -12.596079
v -0.839312 9.189571 -14.589579
v -0.839511 0.792872 -15.712583
v 0.008989 1.776570 -14.927182
v 0.008988 4.865071 -15.982281
v 0.009188 7.765470 -14.927880
v -0.839512 8.546873 -15.714180
v 0.009992 -10.086332 -5.487186
v 0.009592 -12.683630 -8.627887
v -0.839211 -0.419231 -12.601282
v 0.010491 -7.361032 -1.742985
v 0.010392 -12.511333 -1.742087
v -0.837609 -5.680829 -8.994884
v 0.011687 20.839264 -1.742077
v 0.011687 20.456665 -0.005377
v -1.855914 21.892166 -0.005375
v -1.886414 22.635468 -2.878575
v -1.901013 19.443367 -4.002477
v 0.011588 13.900467 -0.005379
v -1.877211 9.347069 -0.005379
v 0.010987 18.849968 -2.242477
v -2.091108 -11.198235 -0.005387
v 0.010392 -11.196735 -1.742287
v -2.093308 -12.511433 -0.005387
v -1.427711 9.360168 -0.005379
v 0.010392 -11.196335 -1.373687
v -1.462608 -11.197235 -0.005387
v 0.010988 13.343170 -1.376779
v -0.839912 4.861769 -17.134384
v 0.010492 -12.511930 -3.360587
v 0.010889 5.336967 -1.375781
v -0.839113 12.973372 -15.937478
v 2.203792 -11.193035 -0.005387
v -0.836912 13.812366 -9.001678
v -0.837710 -2.235238 10.394618
v 0.009691 0.704262 12.287317
v 0.010090 -1.239239 9.663418
v 0.010091 -5.075834 8.079415
v 0.010789 8.092161 6.515619
v 0.010491 -5.125635 5.304615
v 0.009790 9.088665 12.289021
v -0.838111 9.537563 10.390121
v 0.010089 8.203060 9.661420
v 0.010488 13.072264 8.085322
v 0.010887 16.071659 7.158221
v 0.011587 16.077965 1.366323
v -0.838411 13.105663 12.028522
v -0.838111 10.302059 12.585221
v -0.838710 9.189465 14.578721
v -0.839209 0.792760 15.701718
v 0.009590 4.864962 15.971521
v 0.009291 1.776363 14.916418
v 0.009590 7.765362 14.917020
v -0.838710 8.546663 15.703420
v 0.010392 -10.086535 5.476314
v 0.009792 -12.683737 8.617014
v -0.838809 -0.419339 12.590418
v 0.010791 -7.361135 1.732015
v 0.010892 -12.511433 1.731213
v -0.837309 -5.680937 8.984015
v 0.011687 17.606667 0.637923
v 0.011687 18.849869 2.231723
v 0.011687 20.839165 1.731223
v -1.886014 22.635269 2.867725
v -1.900813 19.443367 3.991723
v 0.010792 -11.196835 1.731513
v 0.010892 -11.196632 1.362813
v 0.011688 13.342964 1.365921
v -0.839510 4.861658 17.123516
v 0.010792 -12.512037 3.349713
v 0.011289 5.336769 1.364919
v -0.838811 12.973261 15.926621
v -0.836512 13.812259 8.990922
v 0.861690 -2.235130 -10.405382
v 0.013989 0.704270 -12.298082
v 0.013390 -1.239330 -9.674182
v 0.013391 -5.075932 -8.090284
v 0.013988 9.088673 -12.299779
v 0.861889 9.537670 -10.400879
v 0.013389 8.203068 -9.672180
v 0.013388 13.072268 -8.096079
v 0.862087 13.105868 -12.039179
v 0.862087 10.302067 -12.595979
v 0.862488 9.189472 -14.589478
v 0.862689 0.792773 -15.712482
v 0.014088 4.864971 -15.982281
v 0.014389 1.776570 -14.927182
v 0.014188 7.765370 -14.927780
v 0.862688 8.546774 -15.714180
v 0.862489 -0.419231 -12.601182
v 0.013692 -12.683733 -8.627787
v 0.860991 -5.681032 -8.994884
v 1.879187 21.891968 -0.005376
v 1.909586 22.635368 -2.878475
v 1.924187 19.443367 -4.002477
v 1.900589 9.347069 -0.005380
v 0.012487 18.849968 -2.242477
v 2.114292 -11.198334 -0.005387
v 2.116592 -12.511532 -0.005387
v 0.012892 -11.196835 -1.742287
v 0.012992 -12.511433 -1.741987
v 1.450788 9.360069 -0.005380
v 1.485892 -11.197334 -0.005387
v 0.012792 -11.196533 -1.373587
v 0.012388 13.343063 -1.376679
v 0.863288 4.861769 -17.134184
v 0.862487 12.973272 -15.937379
v 0.860288 13.812266 -9.001678
v 0.012787 16.071667 -7.168979
v 0.860990 -2.235336 10.394718
v 0.012990 -1.239338 9.663418
v 0.013591 0.704162 12.287417
v 0.013191 -5.075937 8.079515
v 0.013190 9.088665 12.289122
v 0.013289 8.202961 9.661420
v 0.861489 9.537464 10.390121
v 0.012888 13.072164 8.085322
v 0.861689 13.105663 12.028522
v 0.861689 10.301861 12.585221
v 0.861890 9.189365 14.578821
v 0.862491 0.792662 15.701818
v 0.013791 1.776462 14.916418
v 0.013790 4.864863 15.971521
v 0.861890 8.546564 15.703420
v 0.013590 7.765262 14.917020
v 0.862091 -0.419437 12.590418
v 0.860591 -5.681136 8.984118
v 0.013192 -12.683836 8.617114
v 1.909086 22.635170 2.867825
v 1.923787 19.443268 3.991723
v 0.012492 -11.196934 1.731513
v 0.012392 -12.511635 1.731313
v 0.012492 -11.196735 1.362913
v 0.862890 4.861658 17.123617
v 0.862189 12.973162 15.926621
v 0.859788 13.812160 8.990922
v 0.012387 16.071461 7.158221
v 1.889074 99.200363 11.874950
v -1.760826 99.200363 11.874950
v 1.887673 105.321472 -0.003949
v 1.889575 100.532074 14.356050
v -1.759227 105.321365 -0.003949
v -1.761225 100.531860 14.355650
v -1.760728 111.442566 11.874954
v 1.889372 111.442566 11.874954
v 1.889573 110.110962 14.355754
v -1.761127 110.110870 14.355754
v 0.066873 105.321167 4.964551
v 0.066074 105.321274 12.151052
v 0.065673 109.748764 11.748354
v 0.065675 100.893860 11.748350
v 0.065473 108.765167 13.441354
v 0.065474 101.877472 13.441350
v -1.760827 108.117065 14.692652
v 1.889473 108.117264 14.692652
v -1.761026 105.321274 13.608952
v 1.888374 105.321274 13.611753
v -1.761126 102.525360 14.692652
v 1.888274 102.525360 14.695452
v 1.888575 100.531662 14.358050
v 0.066873 105.321167 4.964551
v 0.065673 109.748764 11.748354
v 0.066074 105.321274 12.151052
v 0.065675 100.893860 11.748350
v 0.065473 108.765167 13.441354
v 0.065474 101.877472 13.441350
v 0.009691 -5.075829 -8.090384
v 0.009690 -1.239128 -9.674282
v 0.010189 8.092272 -6.526481
v 0.010091 -5.125532 -5.315485
v 0.009989 8.203167 -9.672180
v 0.010088 13.072367 -8.096179
v 0.010587 16.071667 -7.169079
v 0.010987 16.078064 -1.377177
v 0.008989 1.776570 -14.927182
v 0.008988 4.865071 -15.982281
v 0.009188 7.765470 -14.927880
v 0.009588 9.088772 -12.299779
v 0.009992 -10.086332 -5.487186
v 0.009592 -12.683630 -8.627887
v 0.009389 0.704369 -12.298182
v 0.010491 -7.361032 -1.742985
v 0.010392 -12.511333 -1.742087
v 0.010492 -12.511930 -3.360587
v 0.010889 5.336967 -1.375781
v -0.837710 -2.235238 10.394618
v 0.010091 -5.075834 8.079415
v 0.010090 -1.239239 9.663418
v 0.010789 8.092161 6.515619
v 0.010491 -5.125635 5.304615
v 0.010089 8.203060 9.661420
v 0.010488 13.072264 8.085322
v 0.010887 16.071659 7.158221
v 0.011587 16.077965 1.366323
v 0.009291 1.776363 14.916418
v 0.009590 7.765362 14.917020
v 0.009590 4.864962 15.971521
v 0.009790 9.088665 12.289021
v 0.010392 -10.086535 5.476314
v 0.009792 -12.683737 8.617014
v 0.009691 0.704262 12.287317
v 0.010791 -7.361135 1.732015
v 0.010892 -12.511433 1.731213
v -0.837309 -5.680937 8.984015
v 0.010792 -12.512037 3.349713
v 0.011289 5.336769 1.364919
v 0.011687 20.456665 -0.005377
v 0.011687 18.849869 2.231723
v 0.011687 17.606667 0.637923
v 0.011687 20.839165 1.731223
vt 0.814100 0.003600
vt 0.958700 0.019200
vt 0.814100 0.033300
vt 0.237200 0.033300
vt 0.178200 0.019200
vt 0.237100 0.003600
vt 0.323200 0.033600
vt 0.528100 0.003600
vt 0.528300 0.033600
vt 0.448700 0.033600
vt 0.448500 0.003600
vt 0.370200 0.033600
vt 0.369700 0.003600
vt 0.322800 0.003600
vt 0.072300 0.918600
vt 0.005900 0.918600
vt 0.071800 0.993400
vt 0.152100 0.993400
vt 0.152400 0.918600
vt 0.072000 0.993400
vt 0.072600 0.918600
vt 0.152300 0.993500
vt 0.152500 0.918600
vt 0.005900 0.993400
vt 0.590800 0.033500
vt 0.591100 0.003600
vt 0.644400 0.003600
vt 0.644200 0.033000
vt 0.699200 0.003600
vt 0.699200 0.032800
vt 0.152700 0.918600
vt 0.151700 0.993500
vt 0.238000 0.993600
vt 0.238100 0.918600
vt 0.327300 0.993400
vt 0.329100 0.918600
vt 0.238300 0.918600
vt 0.814100 0.033300
vt 0.958700 0.019200
vt 0.814100 0.003600
vt 0.237100 0.003600
vt 0.178200 0.019200
vt 0.237200 0.033300
vt 0.323200 0.033600
vt 0.528100 0.003600
vt 0.448700 0.033600
vt 0.528300 0.033600
vt 0.448500 0.003600
vt 0.370200 0.033600
vt 0.369700 0.003600
vt 0.322800 0.003600
vt 0.591100 0.003600
vt 0.591100 0.003600
vt 0.644400 0.003600
vt 0.644400 0.003600
vt 0.699200 0.003600
vt 0.699200 0.003600
vt 0.766600 0.740500
vt 0.836600 0.749500
vt 0.766100 0.793100
vt 0.700000 0.749500
vt 0.766100 0.612200
vt 0.092700 0.832100
vt 0.030000 0.897100
vt 0.292000 0.897200
vt 0.273300 0.845300
vt 0.344200 0.872400
vt 0.309100 0.817000
vt 0.358700 0.811800
vt 0.338000 0.751200
vt 0.280200 0.751000
vt 0.904600 0.839600
vt 0.843400 0.755600
vt 0.917400 0.747600
vt 0.917300 0.612500
vt 0.766600 0.740500
vt 0.540700 0.912300
vt 0.634000 0.991700
vt 0.692500 0.838300
vt 0.681300 0.772600
vt 0.292000 0.897200
vt 0.030000 0.897100
vt 0.344200 0.872400
vt 0.358700 0.811800
vt 0.338000 0.751200
vt 0.825700 0.807800
vt 0.898200 0.842300
vt 0.837300 0.758900
vt 0.837600 0.757400
vt 0.917400 0.747600
vt 0.766600 0.740500
vt 0.700000 0.749500
vt 0.766100 0.793100
vt 0.836600 0.749500
vt 0.766100 0.612200
vt 0.692500 0.838300
vt 0.540700 0.912300
vt 0.634000 0.991700
vt 0.681300 0.772600
vt 0.292000 0.897200
vt 0.273300 0.845300
vt 0.344200 0.872400
vt 0.309100 0.817000
vt 0.358700 0.811800
vt 0.930200 0.839600
vt 0.991400 0.755600
vt 0.917500 0.612500
vt 0.766600 0.740500
vt 0.292000 0.897200
vt 0.344200 0.872400
vt 0.358700 0.811800
vt 0.825700 0.807800
vt 0.837300 0.758900
vt 0.837600 0.757400
vt 0.567900 0.670500
vt 0.518900 0.391200
vt 0.682600 0.589800
vt 0.825300 0.307400
vt 0.518300 0.172200
vt 0.590200 0.450500
vt 0.519200 0.437100
vt 0.825300 0.307400
vt 0.682600 0.589800
vt 0.354400 0.446800
vt 0.267300 0.517300
vt 0.294300 0.464700
vt 0.371000 0.176100
vt 0.340900 0.263900
vt 0.238900 0.147100
vt 0.481700 0.266200
vt 0.004000 0.722700
vt 0.001400 0.135900
vt 0.234800 0.135500
vt 0.046900 0.738100
vt 0.954900 0.578400
vt 0.954900 0.578400
vt 0.446800 0.962300
vt 0.482100 0.360600
vt 0.567900 0.670500
vt 0.682600 0.589800
vt 0.518900 0.391200
vt 0.825300 0.307400
vt 0.518300 0.172200
vt 0.590200 0.450500
vt 0.519200 0.437100
vt 0.825300 0.307400
vt 0.682600 0.589800
vt 0.354400 0.446800
vt 0.294300 0.464700
vt 0.267300 0.517300
vt 0.371000 0.176100
vt 0.238900 0.147100
vt 0.340900 0.263900
vt 0.481700 0.266200
vt 0.004000 0.722700
vt 0.234800 0.135500
vt 0.001400 0.135900
vt 0.046900 0.738100
vt 0.954900 0.578400
vt 0.954900 0.578400
vt 0.446800 0.962300
vt 0.482100 0.360600
vt 0.724900 0.194500
vt 0.723200 0.055200
vt 0.528700 0.055200
vt 0.528800 0.157000
vt 0.261700 0.055100
vt 0.158200 0.053200
vt 0.332400 0.129200
vt 0.472300 0.055200
vt 0.472400 0.155900
vt 0.777100 0.136300
vt 0.966800 0.131000
vt 0.939600 0.109900
vt 0.955000 0.055200
vt 0.724900 0.194500
vt 0.528800 0.157000
vt 0.332400 0.129200
vt 0.472400 0.155900
vt 0.939600 0.109900
vt 0.966800 0.131000
vt 0.777100 0.136300
vt 0.528700 0.055200
vt 0.723200 0.055200
vt 0.261700 0.055100
vt 0.472300 0.055200
vt 0.939600 0.109900
vt 0.955000 0.055200
vt 0.939600 0.109900
vt 0.985200 0.186900
vt 0.985200 0.430700
vt 0.943300 0.187000
vt 0.943100 0.487300
vt 0.864300 0.265600
vt 0.885200 0.186200
vt 0.885200 0.156100
vt 0.943300 0.143800
vt 0.985200 0.156600
vt 0.943300 0.187000
vt 0.943300 0.143800
vt 0.540700 0.912300
vt 0.692500 0.838300
vt 0.634000 0.991700
vt 0.681300 0.772600
vt 0.766100 0.793100
vt 0.825700 0.807800
vt 0.837300 0.758900
vt 0.898200 0.842300
vt 0.837600 0.757400
vt 0.692500 0.838300
vt 0.681300 0.772600
vt 0.540700 0.912300
vt 0.766100 0.793100
vt 0.837300 0.758900
vt 0.825700 0.807800
vt 0.837600 0.757400
vt 0.761500 0.965800
vt 0.996800 0.287400
vt 0.810700 0.001300
vt 0.523400 0.317300
vt 0.522800 0.965900
vt 0.631100 0.001400
vt 0.897800 0.998800
vt 0.761500 0.965800
vt 0.810700 0.001300
vt 0.996800 0.287400
vt 0.523400 0.317300
vt 0.522800 0.965900
vt 0.631100 0.001400
vt 0.897800 0.998800
vt 0.288800 0.501700
vt 0.259500 0.472500
vt 0.338800 0.417400
vt 0.200300 0.578900
vt 0.159800 0.227500
vt 0.125900 0.582900
vt 0.338800 0.187400
vt 0.254900 0.215100
vt 0.278200 0.163900
vt 0.218500 0.082800
vt 0.167000 0.003800
vt 0.001700 0.003900
vt 0.331000 0.071800
vt 0.339700 0.147700
vt 0.413200 0.165900
vt 0.450900 0.414600
vt 0.420700 0.384700
vt 0.454900 0.303200
vt 0.420400 0.221600
vt 0.449500 0.192800
vt 0.128600 0.718800
vt 0.224900 0.794800
vt 0.361300 0.451100
vt 0.010000 0.653900
vt 0.010000 0.790700
vt 0.238200 0.594300
vt 0.132900 0.904000
vt 0.181100 0.894300
vt 0.181900 0.982900
vt 0.098900 0.980400
vt 0.034700 0.894100
vt 0.264700 0.664800
vt 0.325300 0.890500
vt 0.328400 0.545500
vt 0.123800 0.859800
vt 0.253100 0.853500
vt 0.549800 0.002100
vt 0.473800 0.002100
vt 0.549800 0.041500
vt 0.473800 0.041400
vt 0.349000 0.576000
vt 0.401900 0.995500
vt 0.349000 0.995700
vt 0.401900 0.497200
vt 0.496800 0.303400
vt 0.062600 0.790700
vt 0.001700 0.300600
vt 0.465700 0.083200
vt 0.474000 0.122000
vt 0.474000 0.050400
vt 0.549900 0.050500
vt 0.243500 0.059000
vt 0.288800 0.501700
vt 0.338800 0.417400
vt 0.259500 0.472500
vt 0.200300 0.578900
vt 0.159800 0.227500
vt 0.125900 0.582900
vt 0.338800 0.187400
vt 0.278200 0.163900
vt 0.254900 0.215100
vt 0.218500 0.082800
vt 0.167000 0.003800
vt 0.001700 0.003900
vt 0.331000 0.071800
vt 0.339700 0.147700
vt 0.413200 0.165900
vt 0.450900 0.414600
vt 0.454900 0.303200
vt 0.420700 0.384700
vt 0.420400 0.221600
vt 0.449500 0.192800
vt 0.128600 0.718800
vt 0.224900 0.794800
vt 0.361300 0.451100
vt 0.010000 0.653900
vt 0.010000 0.790700
vt 0.238200 0.594300
vt 0.181300 0.894300
vt 0.193300 0.812400
vt 0.252600 0.850600
vt 0.222300 0.903200
vt 0.222300 0.900100
vt 0.183400 0.982900
vt 0.273700 0.980400
vt 0.325300 0.890500
vt 0.253100 0.853500
vt 0.473800 0.002100
vt 0.473800 0.041400
vt 0.401900 0.995500
vt 0.401900 0.497200
vt 0.496800 0.303400
vt 0.062600 0.790700
vt 0.001700 0.300600
vt 0.465700 0.083200
vt 0.474000 0.050400
vt 0.243500 0.059000
vt 0.288800 0.501700
vt 0.338800 0.417400
vt 0.259500 0.472500
vt 0.200300 0.578900
vt 0.338800 0.187400
vt 0.278200 0.163900
vt 0.254900 0.215100
vt 0.218500 0.082800
vt 0.331000 0.071800
vt 0.339700 0.147700
vt 0.413200 0.165900
vt 0.450900 0.414600
vt 0.454900 0.303200
vt 0.420700 0.384700
vt 0.420400 0.221600
vt 0.449500 0.192800
vt 0.361300 0.451100
vt 0.224900 0.794800
vt 0.238200 0.594300
vt 0.181900 0.982900
vt 0.098900 0.980400
vt 0.034700 0.894100
vt 0.328400 0.545500
vt 0.325300 0.890500
vt 0.123800 0.859800
vt 0.253100 0.853500
vt 0.549800 0.002100
vt 0.549800 0.041500
vt 0.473800 0.002100
vt 0.473800 0.041400
vt 0.349000 0.576000
vt 0.349000 0.995700
vt 0.401900 0.995500
vt 0.401900 0.497200
vt 0.496800 0.303400
vt 0.465700 0.083200
vt 0.243500 0.059000
vt 0.167000 0.003800
vt 0.288800 0.501700
vt 0.259500 0.472500
vt 0.338800 0.417400
vt 0.200300 0.578900
vt 0.338800 0.187400
vt 0.254900 0.215100
vt 0.278200 0.163900
vt 0.218500 0.082800
vt 0.331000 0.071800
vt 0.339700 0.147700
vt 0.413200 0.165900
vt 0.450900 0.414600
vt 0.420700 0.384700
vt 0.454900 0.303200
vt 0.449500 0.192800
vt 0.420400 0.221600
vt 0.361300 0.451100
vt 0.238200 0.594300
vt 0.224900 0.794800
vt 0.183400 0.982900
vt 0.273700 0.980400
vt 0.325300 0.890500
vt 0.473800 0.002100
vt 0.473800 0.041400
vt 0.401900 0.995500
vt 0.496800 0.303400
vt 0.465700 0.083200
vt 0.243500 0.059000
vt 0.167000 0.003800
vt 0.474000 0.050400
vt 0.474000 0.122000
vt 0.474000 0.050400
vt 0.549900 0.050500
vt 0.492300 0.716400
vt 0.412100 0.716900
vt 0.492300 0.995800
vt 0.492300 0.650300
vt 0.412000 0.995800
vt 0.412100 0.650200
vt 0.412100 0.716900
vt 0.492300 0.716400
vt 0.492300 0.650300
vt 0.412100 0.650200
vt 0.003200 0.571500
vt 0.003300 0.325400
vt 0.129800 0.338500
vt 0.129800 0.338500
vt 0.103300 0.280600
vt 0.103300 0.280600
vt 0.412100 0.596200
vt 0.492300 0.596300
vt 0.412100 0.534500
vt 0.492400 0.534600
vt 0.412100 0.596200
vt 0.492300 0.596300
vt 0.492300 0.650300
vt 0.003200 0.571500
vt 0.129800 0.338500
vt 0.003300 0.325400
vt 0.129800 0.338500
vt 0.103300 0.280600
vt 0.103300 0.280600
vt 0.200300 0.578900
vt 0.259500 0.472500
vt 0.159800 0.227500
vt 0.125900 0.582900
vt 0.254900 0.215100
vt 0.218500 0.082800
vt 0.167000 0.003800
vt 0.001700 0.003900
vt 0.420700 0.384700
vt 0.454900 0.303200
vt 0.420400 0.221600
vt 0.338800 0.187400
vt 0.128600 0.718800
vt 0.224900 0.794800
vt 0.338800 0.417400
vt 0.010000 0.653900
vt 0.010000 0.790700
vt 0.062600 0.790700
vt 0.001700 0.300600
vt 0.288800 0.501700
vt 0.200300 0.578900
vt 0.259500 0.472500
vt 0.159800 0.227500
vt 0.125900 0.582900
vt 0.254900 0.215100
vt 0.218500 0.082800
vt 0.167000 0.003800
vt 0.001700 0.003900
vt 0.420700 0.384700
vt 0.420400 0.221600
vt 0.454900 0.303200
vt 0.338800 0.187400
vt 0.128600 0.718800
vt 0.224900 0.794800
vt 0.338800 0.417400
vt 0.010000 0.653900
vt 0.010000 0.790700
vt 0.238200 0.594300
vt 0.062600 0.790700
vt 0.001700 0.300600
vt 0.181300 0.894300
vt 0.252600 0.850600
vt 0.193300 0.812400
vt 0.222300 0.903200
vn 0.0009 -0.0522 -0.9986
vn 0.0001 0.6300 -0.7766
vn 0.0001 0.3111 -0.9504
vn 0.0000 0.3111 -0.9504
vn 0.0001 0.3596 -0.9331
vn 0.0001 0.8714 -0.4905
vn 0.0000 0.8714 -0.4905
vn 0.0000 0.9444 0.3289
vn 0.0000 0.9681 0.2505
vn 0.0000 0.3321 -0.9432
vn 0.0001 0.9681 -0.2505
vn -0.0000 0.3325 0.9431
vn -0.0536 0.9815 0.1836
vn -0.0567 0.9821 -0.1797
vn -0.0000 -0.3304 -0.9438
vn -0.0000 -0.9318 -0.3630
vn -0.0001 -0.9318 -0.3630
vn 0.0000 -0.7706 -0.6373
vn 0.0008 -0.3782 -0.9257
vn 0.0001 -0.3785 -0.9256
vn 0.0000 -0.3683 -0.9297
vn -0.0000 -0.3680 0.9298
vn 0.0009 -0.0522 0.9986
vn 0.0001 0.6300 0.7766
vn 0.0001 0.3111 0.9504
vn 0.0001 0.3596 0.9331
vn 0.0000 0.3596 0.9331
vn 0.0000 0.8714 0.4905
vn 0.0001 0.8714 0.4905
vn 0.0001 0.9444 -0.3289
vn 0.0001 0.9444 -0.3288
vn 0.0000 0.3111 0.9504
vn 0.0001 -0.3304 0.9438
vn -0.0000 -0.3305 0.9438
vn 0.0000 -0.9318 0.3630
vn -0.0001 -0.9318 0.3630
vn 0.0000 -0.7706 0.6373
vn 0.0000 -0.3782 0.9257
vn 0.0008 -0.3785 0.9256
vn 0.8550 -0.4317 -0.2876
vn 0.9003 0.4255 -0.0911
vn 0.8563 -0.2584 0.4473
vn 0.9084 0.3812 -0.1719
vn 0.9719 -0.0001 -0.2356
vn 0.7802 -0.5561 0.2864
vn 0.5945 -0.6734 0.4395
vn 0.6477 -0.6713 -0.3603
vn 0.6644 -0.6462 -0.3755
vn 0.5249 -0.1420 -0.8392
vn 0.6088 0.2863 -0.7399
vn 0.5990 0.2806 -0.7500
vn 0.8880 0.3233 -0.3271
vn 0.8894 0.4085 0.2050
vn 0.8332 -0.0824 -0.5468
vn -0.8550 -0.4316 -0.2878
vn -0.9004 0.4255 -0.0911
vn -0.8563 -0.2583 0.4471
vn -1.0000 -0.0001 -0.0002
vn -1.0000 -0.0000 -0.0002
vn -1.0000 -0.0003 -0.0004
vn -1.0000 -0.0003 -0.0005
vn -1.0000 -0.0001 -0.0007
vn -0.7806 -0.5556 0.2862
vn -0.5946 -0.6733 0.4396
vn -0.6478 -0.6712 -0.3603
vn -0.6644 -0.6463 -0.3754
vn -0.5249 -0.1421 -0.8392
vn -0.6089 0.2867 -0.7397
vn -1.0000 -0.0007 -0.0006
vn -1.0000 0.0012 -0.0010
vn -1.0000 0.0010 -0.0009
vn -1.0000 -0.0008 -0.0006
vn -0.5990 0.2809 -0.7499
vn -0.8879 0.3235 -0.3269
vn -0.8895 0.4085 0.2049
vn -0.8332 -0.0825 -0.5468
vn -0.8550 0.4316 -0.2877
vn -0.9004 -0.4254 -0.0911
vn -0.8566 0.2582 0.4468
vn 1.0000 -0.0003 0.0004
vn 1.0000 -0.0001 0.0002
vn -1.0000 0.0004 -0.0006
vn -1.0000 0.0002 -0.0002
vn -1.0000 0.0001 -0.0009
vn -0.7806 0.5556 0.2862
vn -0.5949 0.6731 0.4393
vn -0.6477 0.6713 -0.3604
vn -0.6644 0.6462 -0.3755
vn -0.5246 0.1420 -0.8394
vn -0.6086 -0.2867 -0.7399
vn -0.5989 -0.2811 -0.7499
vn -0.8879 -0.3235 -0.3269
vn -0.8895 -0.4083 0.2049
vn -0.8331 0.0824 -0.5470
vn 0.8551 0.4314 -0.2875
vn 0.9005 -0.4253 -0.0910
vn 0.8563 0.2584 0.4473
vn 0.6673 0.5546 0.4971
vn 0.5946 0.6734 0.4394
vn 0.6481 0.6710 -0.3602
vn 0.6646 0.6461 -0.3753
vn 0.5255 0.1420 -0.8389
vn 0.6093 -0.2870 -0.7392
vn -1.0000 0.0010 0.0011
vn -1.0000 -0.0010 0.0010
vn -1.0000 0.0008 0.0013
vn -1.0000 -0.0011 0.0007
vn 0.5989 -0.2810 -0.7499
vn 0.8879 -0.3235 -0.3270
vn 0.8894 -0.4085 0.2050
vn 0.8335 0.0824 -0.5464
vn 0.9809 0.1134 0.1578
vn 1.0000 0.0000 -0.0001
vn 1.0000 0.0001 -0.0001
vn 0.9512 0.0687 -0.3009
vn 1.0000 -0.0000 -0.0002
vn 1.0000 0.0001 -0.0074
vn 1.0000 0.0000 -0.0073
vn 1.0000 -0.0008 -0.0065
vn 0.9999 0.0032 -0.0103
vn 0.9999 0.0024 -0.0100
vn 0.9999 0.0018 -0.0112
vn 1.0000 0.0070 -0.0045
vn 0.9999 0.0025 -0.0097
vn 0.9870 0.1090 0.1185
vn 0.9990 -0.0441 -0.0110
vn 0.9990 -0.0437 -0.0136
vn 0.9988 -0.0492 0.0032
vn 0.9999 0.0046 -0.0095
vn 0.9999 0.0031 -0.0125
vn 0.9999 0.0040 -0.0119
vn 1.0000 0.0016 -0.0098
vn -0.9809 0.1134 0.1579
vn -1.0000 -0.0000 -0.0001
vn -0.9512 0.0687 -0.3010
vn -1.0000 0.0001 -0.0073
vn -1.0000 -0.0007 -0.0066
vn -1.0000 0.0000 -0.0073
vn -0.9999 0.0032 -0.0103
vn -0.9999 0.0033 -0.0101
vn -0.9999 0.0038 -0.0122
vn -0.9999 0.0016 -0.0110
vn -0.9999 0.0028 -0.0096
vn -0.9870 0.1090 0.1185
vn -0.9992 -0.0397 -0.0110
vn -0.9936 -0.0742 0.0852
vn -0.9999 0.0046 -0.0096
vn -1.0000 0.0016 -0.0097
vn -0.9635 0.0015 -0.2678
vn -0.9391 0.0531 -0.3396
vn -0.8999 0.1805 -0.3970
vn -0.9542 0.0614 -0.2928
vn -0.9448 0.0412 -0.3250
vn -0.9456 0.0015 -0.3253
vn -0.3370 0.0488 -0.9402
vn -0.7677 0.0759 -0.6363
vn -0.8970 -0.3651 -0.2492
vn -0.9404 -0.0000 -0.3400
vn -0.9741 0.0015 -0.2261
vn -0.9635 0.0015 0.2678
vn -0.9391 0.0531 0.3396
vn -0.8999 0.1805 0.3970
vn -0.9542 0.0614 0.2928
vn -0.9448 0.0413 0.3250
vn -0.9456 0.0015 0.3253
vn -0.3361 0.0487 0.9406
vn -0.7678 0.0759 0.6362
vn -0.8970 -0.3651 0.2492
vn -0.9404 -0.0000 0.3400
vn -0.9741 0.0015 0.2262
vn 0.9635 0.0015 -0.2678
vn 0.9391 0.0531 -0.3396
vn 0.8999 0.1805 -0.3970
vn 0.9542 0.0614 -0.2928
vn 0.9448 0.0413 -0.3250
vn 0.9456 0.0015 -0.3253
vn 0.3370 0.0488 -0.9402
vn 0.7678 0.0759 -0.6362
vn 0.8970 -0.3650 -0.2492
vn 0.9404 -0.0000 -0.3400
vn 0.9741 0.0015 -0.2262
vn 0.9635 0.0015 0.2678
vn 0.9391 0.0531 0.3396
vn 0.8999 0.1805 0.3970
vn 0.9542 0.0614 0.2928
vn 0.9448 0.0412 0.3251
vn 0.9456 0.0015 0.3254
vn 0.3358 0.0487 0.9407
vn 0.7677 0.0759 0.6363
vn 0.8970 -0.3651 0.2492
vn 0.9404 -0.0000 0.3400
vn 0.9741 0.0015 0.2262
vn -0.8923 -0.0001 0.4515
vn -0.9933 0.0697 0.0917
vn -0.9651 0.0678 -0.2528
vn -0.9069 -0.0777 -0.4140
vn -0.9097 -0.0011 -0.4153
vn -0.8708 0.0013 0.4916
vn -0.8708 0.0014 -0.4916
vn 0.8924 -0.0000 0.4512
vn 0.9934 0.0697 0.0915
vn 0.9652 0.0678 -0.2527
vn 0.9070 -0.0777 -0.4139
vn 0.9098 -0.0011 -0.4152
vn 0.8710 0.0013 0.4912
vn 0.8710 0.0014 -0.4912
vn 0.8924 -0.0001 0.4512
vn 1.0000 0.0001 0.0002
vn 1.0000 0.0003 0.0004
vn 1.0000 0.0000 0.0002
vn 1.0000 0.0003 0.0005
vn 1.0000 0.0001 0.0007
vn 1.0000 0.0008 0.0006
vn 1.0000 -0.0011 0.0009
vn 1.0000 -0.0012 0.0010
vn 1.0000 -0.0004 0.0006
vn 1.0000 -0.0006 0.0004
vn 1.0000 -0.0001 0.0009
vn 1.0000 -0.0010 -0.0011
vn 1.0000 -0.0008 -0.0013
vn 1.0000 0.0010 -0.0010
vn 1.0000 0.0011 -0.0007
vn -1.0000 0.0012 -0.0093
vn -0.9999 0.0014 -0.0121
vn -1.0000 0.0005 -0.0095
vn -0.9999 0.0033 -0.0125
vn -0.9999 0.0003 -0.0105
vn -0.9999 0.0060 -0.0139
vn -0.9999 0.0016 -0.0129
vn 1.0000 0.0007 -0.0094
vn 0.9999 0.0015 -0.0126
vn -0.8245 0.4547 0.3369
vn -0.7822 0.2364 0.5765
vn -0.7804 0.2383 0.5781
vn -0.7797 0.2390 0.5788
vn -1.0000 0.0000 0.0001
vn -0.7731 -0.6008 -0.2034
vn -0.7724 -0.6019 -0.2028
vn -0.7766 -0.5953 -0.2062
vn -0.7929 -0.1876 0.5798
vn -1.0000 0.0001 0.0003
vn -1.0000 0.0001 0.0001
vn -1.0000 -0.0000 -0.0000
vn -1.0000 0.0000 0.0002
vn -1.0000 -0.0001 0.0004
vn -0.7810 0.2019 0.5909
vn -0.7782 -0.5609 0.2825
vn -0.8058 0.5483 0.2237
vn -1.0000 -0.0001 0.0001
vn -0.7122 -0.0495 0.7002
vn -0.7829 0.2356 0.5758
vn -0.6003 -0.7810 -0.1721
vn -0.6114 -0.7676 -0.1921
vn -0.6591 -0.2471 0.7103
vn -0.6619 0.2746 0.6975
vn -0.6957 -0.1750 0.6967
vn -0.5795 0.3356 0.7427
vn -0.6371 0.0011 -0.7708
vn -0.6369 0.0008 -0.7709
vn -0.6366 -0.0001 -0.7712
vn -0.6832 0.0008 -0.7302
vn -0.6874 0.0003 -0.7263
vn -0.6806 0.0012 -0.7327
vn -0.6899 -0.0001 -0.7239
vn -0.7886 0.2028 0.5805
vn -0.7867 -0.2109 0.5802
vn -1.0000 -0.0003 -0.0001
vn -0.8172 -0.5022 0.2829
vn -0.7774 -0.5940 -0.2069
vn -0.0012 1.0000 0.0000
vn -0.0012 1.0000 -0.0006
vn -0.7898 -0.1902 0.5831
vn -0.7880 -0.1822 0.5881
vn -0.7879 -0.1818 0.5884
vn -0.8169 0.5374 0.2094
vn -0.7670 -0.2307 0.5987
vn -0.7803 0.4818 0.3987
vn -0.7898 -0.1905 0.5831
vn -0.8246 0.4546 -0.3368
vn -0.7798 0.2389 -0.5787
vn -0.7733 -0.6006 0.2032
vn -0.7768 -0.5951 0.2061
vn -0.7726 -0.6017 0.2027
vn -0.7930 -0.1875 -0.5796
vn -0.7906 -0.1898 -0.5822
vn -0.7928 -0.1864 -0.5803
vn -1.0000 0.0000 -0.0003
vn -1.0000 -0.0001 -0.0001
vn -1.0000 -0.0001 0.0000
vn -0.7873 0.2026 -0.5823
vn -0.7827 0.2021 -0.5886
vn -0.7810 0.2019 -0.5909
vn -0.7783 -0.5608 -0.2824
vn -0.8059 0.5482 -0.2237
vn -0.7122 -0.0495 -0.7002
vn -0.7829 0.2356 -0.5758
vn -0.6003 -0.7810 0.1720
vn -0.6114 -0.7676 0.1921
vn -0.6592 -0.2471 -0.7102
vn -0.6619 0.2746 -0.6975
vn -0.6956 -0.1753 -0.6967
vn -0.5793 0.3357 -0.7427
vn -0.6370 0.0011 0.7709
vn -0.6365 -0.0002 0.7713
vn -0.6804 0.0012 0.7328
vn -0.6897 -0.0001 0.7241
vn -0.7885 0.2028 -0.5806
vn -0.7866 -0.2110 -0.5804
vn -0.8173 -0.5021 -0.2828
vn -0.7776 -0.5938 0.2068
vn -0.0012 1.0000 0.0007
vn -0.7897 -0.1903 -0.5832
vn -0.7879 -0.1818 -0.5884
vn -0.8169 0.5374 -0.2095
vn -0.7672 -0.2305 -0.5986
vn -0.7803 0.4817 -0.3988
vn 0.8244 0.4548 0.3370
vn 0.7796 0.2390 0.5789
vn 0.7725 -0.6018 -0.2027
vn 0.7930 -0.1876 0.5797
vn 0.7906 -0.1898 0.5822
vn 0.7928 -0.1864 0.5802
vn 1.0000 0.0000 0.0001
vn 0.8972 -0.3829 0.2199
vn 0.9452 -0.0928 -0.3130
vn 0.7873 0.2026 0.5823
vn 0.7828 0.2021 0.5886
vn 0.7811 0.2019 0.5908
vn 0.7783 -0.5608 0.2825
vn 0.8058 0.5482 0.2237
vn 0.7121 -0.0495 0.7003
vn 0.7828 0.2356 0.5759
vn 0.6003 -0.7811 -0.1721
vn 0.6114 -0.7676 -0.1922
vn 0.6591 -0.2471 0.7103
vn 0.6619 0.2746 0.6975
vn 0.6957 -0.1750 0.6967
vn 0.5796 0.3356 0.7426
vn 0.6371 0.0011 -0.7708
vn 0.6366 -0.0002 -0.7712
vn 0.6369 0.0007 -0.7709
vn 0.6366 -0.0001 -0.7712
vn 0.6805 0.0012 -0.7327
vn 0.6899 -0.0001 -0.7239
vn 0.7885 0.2028 0.5807
vn 0.7865 -0.2110 0.5804
vn 0.8172 -0.5022 0.2828
vn 0.7775 -0.5939 -0.2067
vn 0.7894 -0.1906 0.5836
vn 0.7879 -0.1817 0.5884
vn 0.8170 0.5373 0.2094
vn 0.7671 -0.2306 0.5986
vn 0.7803 0.4818 0.3987
vn 0.8245 0.4546 -0.3369
vn 0.7822 0.2364 -0.5764
vn 0.7804 0.2383 -0.5781
vn 0.7797 0.2390 -0.5787
vn 0.7731 -0.6007 0.2034
vn 0.7725 -0.6018 0.2029
vn 0.7677 -0.4840 0.4199
vn 0.7930 -0.1875 -0.5796
vn 0.9527 -0.2189 -0.2107
vn 0.7810 0.2019 -0.5910
vn 0.7783 -0.5607 -0.2825
vn 0.8059 0.5482 -0.2237
vn 0.7122 -0.0495 -0.7003
vn 0.7829 0.2356 -0.5758
vn 0.6003 -0.7811 0.1720
vn 0.6114 -0.7676 0.1922
vn 0.6593 -0.2470 -0.7102
vn 0.6619 0.2746 -0.6975
vn 0.6956 -0.1753 -0.6967
vn 0.5794 0.3357 -0.7427
vn 0.6370 0.0011 0.7708
vn 0.6369 0.0007 0.7710
vn 0.6367 0.0003 0.7711
vn 0.6365 -0.0002 0.7712
vn 0.6831 0.0008 0.7303
vn 0.6873 0.0003 0.7264
vn 0.6805 0.0012 0.7328
vn 0.6898 -0.0001 0.7240
vn 0.7885 0.2028 -0.5806
vn 0.7866 -0.2109 -0.5803
vn 0.8171 -0.5024 -0.2829
vn 0.7898 -0.1903 -0.5831
vn 0.7880 -0.1822 -0.5881
vn 0.7879 -0.1817 -0.5884
vn 0.8169 0.5375 -0.2095
vn 0.7672 -0.2305 -0.5986
vn 0.7803 0.4817 -0.3988
vn 0.7898 -0.1905 -0.5830
vn -0.0000 -1.0000 -0.0001
vn 0.0000 -0.8889 -0.4581
vn 0.0000 -0.8811 0.4729
vn 0.0000 0.8889 -0.4581
vn 0.0000 0.8811 0.4729
vn -0.0000 0.8811 0.4730
vn -1.0000 0.0001 -0.0001
vn -1.0000 0.0001 -0.0002
vn -0.0000 0.1666 0.9860
vn 0.0000 -0.3614 0.9324
vn -0.0007 -0.3606 0.9327
vn -0.0007 0.3614 0.9324
vn -0.0007 -0.1667 0.9860
vn -0.0007 -0.1668 0.9860
vn -0.0008 -0.1669 0.9860
vn 1.0000 0.0001 0.0001
vn 1.0000 -0.0001 0.0001
vn 1.0000 -0.0001 -0.0003
vn 1.0000 -0.0001 -0.0001
vn 1.0000 0.0003 0.0001
vn 0.7798 -0.2389 0.5787
vn 1.0000 -0.0000 0.0003
vn 1.0000 -0.0000 0.0000
vn 0.7122 0.0495 0.7002
vn 0.7829 -0.2356 0.5758
o base
usemtl Material__123
f 1/1/1 2/2/1 3/3/1
f 4/4/2 5/5/2 6/6/2
f 4/4/3 6/6/3 7/7/4
f 8/8/5 9/9/5 10/10/5
f 11/11/5 8/8/5 10/10/5
f 11/11/6 10/10/6 12/12/6
f 13/13/7 11/11/7 12/12/7
f 13/13/8 12/12/8 14/14/8
f 14/14/8 12/12/8 7/7/8
f 14/14/4 7/7/4 6/6/3
f 15/15/9 16/16/9 17/17/9
f 15/15/10 17/17/10 18/18/10
f 19/19/10 15/15/10 18/18/10
f 20/20/11 16/16/11 21/21/11
f 20/20/12 21/21/12 22/22/12
f 22/22/12 21/21/12 23/23/12
f 17/17/13 16/16/13 24/24/13
f 16/16/14 20/20/14 24/24/14
f 25/25/15 9/9/15 8/8/15
f 8/8/15 26/26/15 25/25/15
f 26/26/16 27/27/16 28/28/16
f 28/28/16 25/25/17 26/26/16
f 29/29/18 30/30/18 28/28/18
f 28/28/18 27/27/18 29/29/18
f 1/1/19 3/3/19 30/30/19
f 30/30/20 29/29/20 1/1/20
f 19/31/21 18/32/21 31/33/21
f 31/33/21 32/34/21 19/31/21
f 22/35/22 23/36/22 32/37/22
f 32/37/22 31/33/22 22/35/22
f 33/38/23 34/39/23 35/40/23
f 36/41/24 37/42/24 38/43/24
f 38/43/25 39/44/25 36/41/25
f 40/45/26 41/46/27 42/47/26
f 41/46/27 40/45/26 43/48/27
f 43/48/28 44/49/28 41/46/28
f 44/49/28 43/48/28 45/50/29
f 45/50/30 46/51/30 44/49/30
f 39/44/31 44/49/31 46/51/31
f 46/51/32 36/41/32 39/44/32
f 42/47/33 47/52/34 48/53/34
f 48/53/34 40/45/33 42/47/33
f 49/54/35 50/55/35 48/53/35
f 48/53/36 47/52/36 49/54/36
f 50/55/37 49/54/37 51/56/37
f 51/56/37 52/57/37 50/55/37
f 52/57/38 51/56/38 33/38/38
f 33/38/39 35/40/39 52/57/39
f 53/58/40 54/59/40 55/60/40
f 56/61/41 57/62/41 53/58/41
f 53/58/42 57/62/42 54/59/42
f 58/63/43 59/64/44 60/65/45
f 58/63/46 60/65/46 61/66/46
f 61/66/47 60/65/47 62/67/47
f 61/66/48 62/67/48 63/68/48
f 63/68/49 62/67/49 64/69/49
f 63/68/50 64/69/50 65/70/50
f 65/70/51 66/71/51 63/68/51
f 67/72/52 54/73/52 68/74/52
f 68/74/53 54/73/53 69/75/53
f 55/60/54 56/61/54 53/58/54
f 70/76/55 55/60/55 54/59/55
f 56/61/56 70/76/56 57/62/56
f 54/59/57 57/62/57 70/76/57
f 71/77/58 72/78/59 73/79/60
f 73/79/60 56/80/61 71/77/58
f 56/80/61 73/79/60 55/60/62
f 74/81/63 75/82/63 58/63/63
f 58/63/64 61/66/64 74/81/64
f 76/83/65 74/81/65 61/66/65
f 61/66/66 63/68/66 76/83/66
f 77/84/67 76/83/67 63/68/67
f 63/68/68 78/85/68 77/84/68
f 79/86/69 67/87/70 54/88/71
f 54/89/71 55/60/72 79/86/69
f 78/85/73 63/68/73 66/71/73
f 80/90/74 54/73/74 67/72/74
f 69/75/75 54/73/75 80/90/75
f 70/76/76 56/61/76 55/60/76
f 81/91/77 82/92/77 83/93/77
f 84/94/78 85/95/78 81/91/78
f 81/91/79 85/95/79 82/92/79
f 86/96/80 87/97/81 88/98/81
f 86/96/82 87/97/83 84/99/82
f 83/93/84 86/96/82 84/99/82
f 58/63/85 75/82/85 89/100/85
f 58/63/86 89/100/86 90/101/86
f 90/101/87 89/100/87 91/102/87
f 90/101/88 91/102/88 92/103/88
f 92/103/89 91/102/89 93/104/89
f 92/103/90 93/104/90 78/85/90
f 78/85/91 66/71/91 92/103/91
f 67/105/92 82/106/92 80/90/92
f 80/90/93 82/106/93 69/107/93
f 83/93/94 84/94/94 81/91/94
f 94/108/95 83/93/95 82/92/95
f 84/94/96 94/108/96 85/95/96
f 82/92/97 85/95/97 94/108/97
f 95/109/98 59/64/44 58/63/43
f 58/63/43 90/101/99 95/109/98
f 96/110/100 95/109/100 90/101/100
f 90/101/101 92/103/101 96/110/101
f 97/111/102 96/110/102 92/103/102
f 92/103/103 65/70/103 97/111/103
f 67/87/104 98/112/105 82/113/106
f 83/93/107 82/114/106 98/112/105
f 65/70/108 92/103/108 66/71/108
f 68/74/109 82/106/109 67/105/109
f 69/107/110 82/106/110 68/74/110
f 94/108/111 84/94/111 83/93/111
f 99/115/112 100/116/112 101/117/112
f 100/116/113 102/118/113 101/117/113
f 100/116/114 59/119/114 102/118/114
f 103/120/115 59/119/115 104/121/115
f 103/120/116 105/122/116 59/119/116
f 106/123/113 105/122/113 103/120/113
f 107/124/117 108/125/118 109/126/119
f 107/124/117 99/115/120 108/125/118
f 110/127/121 111/128/122 112/129/123
f 110/127/121 113/130/124 111/128/122
f 100/116/125 99/115/125 107/124/125
f 17/131/126 114/132/127 112/133/123
f 112/133/128 115/134/128 17/131/128
f 105/122/113 106/123/113 116/135/113
f 102/118/113 117/136/113 101/117/113
f 108/125/129 99/115/130 118/137/131
f 111/128/122 113/130/124 119/138/132
f 120/139/133 121/140/133 122/141/133
f 122/141/134 121/140/134 123/142/134
f 122/141/134 123/142/134 75/143/134
f 124/144/135 125/145/135 75/143/135
f 124/144/134 75/143/134 126/146/134
f 127/147/134 124/144/134 126/146/134
f 128/148/136 129/149/137 130/150/138
f 128/148/136 130/150/138 120/139/139
f 131/151/140 132/152/141 133/153/142
f 131/151/140 133/153/142 134/154/143
f 122/141/144 128/148/144 120/139/144
f 15/155/145 132/156/145 135/157/145
f 132/156/146 15/155/146 136/158/146
f 126/146/134 137/159/134 127/147/134
f 123/142/134 121/140/134 138/160/134
f 130/150/147 139/161/147 120/139/147
f 133/153/142 140/162/148 134/154/143
f 141/163/149 142/164/149 143/165/149
f 143/165/150 144/166/150 141/163/150
f 145/167/151 146/168/151 147/169/151
f 147/169/152 148/170/152 145/167/152
f 148/170/153 147/169/153 149/171/153
f 149/171/154 143/165/154 148/170/154
f 150/172/155 151/173/155 152/174/155
f 152/174/156 142/164/156 150/172/156
f 141/163/157 150/172/157 142/164/157
f 144/166/158 143/165/158 149/171/158
f 142/164/159 152/174/159 153/175/159
f 143/165/160 142/164/160 154/176/160
f 143/165/161 154/176/161 155/177/161
f 156/178/162 146/168/162 145/167/162
f 156/178/163 145/167/163 148/170/163
f 157/179/164 156/178/164 148/170/164
f 157/179/165 148/170/165 143/165/165
f 158/180/166 159/181/166 160/182/166
f 158/180/167 160/182/167 142/164/167
f 142/164/168 160/182/168 154/176/168
f 157/179/169 143/165/169 155/177/169
f 153/175/170 158/180/170 142/164/170
f 161/183/171 162/184/171 141/163/171
f 161/183/172 141/163/172 144/166/172
f 147/169/173 146/168/173 163/185/173
f 147/169/174 163/185/174 164/186/174
f 149/171/175 147/169/175 164/186/175
f 149/171/176 164/186/176 161/183/176
f 165/187/177 151/173/177 150/172/177
f 165/187/178 150/172/178 162/184/178
f 162/184/179 150/172/179 141/163/179
f 149/171/180 161/183/180 144/166/180
f 166/188/181 165/187/181 162/184/181
f 154/176/182 162/184/182 161/183/182
f 161/183/183 155/177/183 154/176/183
f 163/185/184 146/168/184 156/178/184
f 156/178/185 164/186/185 163/185/185
f 164/186/186 156/178/186 157/179/186
f 157/179/187 161/183/187 164/186/187
f 160/182/188 159/181/188 167/189/188
f 167/189/189 162/184/189 160/182/189
f 154/176/190 160/182/190 162/184/190
f 155/177/191 161/183/191 157/179/191
f 162/184/192 167/189/192 166/188/192
f 168/190/193 169/191/193 170/192/193
f 170/192/194 169/191/194 171/193/194
f 170/192/195 171/193/195 172/194/195
f 170/192/196 172/194/196 173/195/196
f 170/192/197 173/195/197 174/196/197
f 175/197/198 176/198/198 170/192/198
f 175/197/199 170/192/199 174/196/199
f 170/192/193 176/198/193 168/190/193
f 168/190/200 177/199/200 169/191/200
f 171/193/201 169/191/201 177/199/201
f 177/199/202 172/194/202 171/193/202
f 173/195/203 172/194/203 177/199/203
f 177/199/204 174/196/204 173/195/204
f 177/199/205 176/198/205 178/200/205
f 178/200/206 174/196/206 177/199/206
f 168/190/200 176/198/207 177/199/200
f 179/201/208 180/202/209 181/203/210
f 180/202/209 179/201/208 182/204/211
f 182/204/211 183/205/212 180/202/209
f 184/206/213 185/207/214 186/208/215
f 185/209/214 184/206/213 183/205/213
f 187/210/216 188/211/216 189/212/217
f 190/213/218 188/211/216 187/210/216
f 186/208/219 191/214/220 192/215/221
f 190/213/222 192/215/221 191/216/220
usemtl Material__124
f 193/217/223 194/218/224 195/219/225
f 196/220/226 197/221/227 193/217/223
f 195/219/225 198/222/228 196/220/226
f 194/218/224 193/217/223 199/223/229
f 195/219/225 196/220/226 193/217/223
f 112/224/123 200/225/230 201/226/231
f 118/227/131 112/224/123 114/228/127
f 200/225/230 118/227/131 99/229/130
f 201/226/231 110/230/121 112/224/123
f 200/225/230 112/224/123 118/227/131
f 202/231/232 203/232/232 204/233/232
f 202/231/233 205/234/234 203/232/235
f 205/234/236 206/235/236 203/232/236
f 205/234/236 207/236/236 206/235/236
f 208/237/237 209/238/238 210/239/239
f 209/238/240 211/240/240 210/239/240
f 209/238/236 206/235/236 211/240/241
f 206/235/236 212/241/241 211/240/241
f 206/235/236 213/242/236 212/241/242
f 214/243/243 215/244/243 210/239/243
f 214/243/244 216/245/244 215/244/245
f 217/246/246 218/247/246 219/248/246
f 218/247/236 220/249/236 219/248/236
f 218/247/236 208/237/244 220/249/236
f 208/237/247 221/250/247 220/249/247
f 222/251/236 205/234/236 223/252/236
f 224/253/248 204/233/248 218/247/248
f 204/233/236 208/237/244 218/247/236
f 204/233/236 209/238/236 208/237/244
f 225/254/236 222/251/236 226/255/249
f 225/254/236 207/236/236 222/251/236
f 207/236/236 205/234/236 222/251/236
f 205/234/250 227/256/250 223/252/250
f 205/234/234 202/231/233 227/256/251
f 228/257/252 229/258/252 230/259/252
f 231/260/253 228/257/253 230/259/253
f 231/260/254 232/261/254 228/257/254
f 233/262/255 232/263/255 234/264/255
f 235/265/256 228/257/256 232/261/256
f 233/262/257 235/266/257 232/263/257
f 236/267/258 237/268/259 238/269/260
f 237/268/259 226/270/260 238/269/260
f 239/271/261 240/272/262 241/273/263
f 242/274/264 240/272/262 239/271/261
f 219/248/265 243/275/265 217/246/265
f 219/248/266 220/249/266 243/275/266
f 222/251/236 244/276/267 226/255/249
f 208/237/268 215/244/268 221/250/268
f 208/237/237 210/239/239 215/244/269
f 203/232/236 209/238/236 204/233/236
f 203/232/236 206/235/236 209/238/236
f 213/242/236 206/235/236 245/277/236
f 214/243/244 246/278/242 216/245/244
f 247/279/270 237/280/271 236/281/270
f 248/282/272 211/240/273 212/241/274
f 218/247/275 217/246/275 224/253/275
f 220/249/276 221/250/276 243/275/276
f 204/233/277 224/253/277 202/231/277
f 211/240/273 248/282/272 210/239/278
f 249/283/279 250/284/279 251/285/279
f 249/283/280 251/285/280 252/286/280
f 252/286/134 251/285/134 253/287/59
f 252/286/134 253/287/59 254/288/134
f 255/289/281 256/290/282 257/291/283
f 257/291/284 256/290/285 258/292/286
f 257/291/59 258/292/287 253/287/59
f 253/287/59 258/292/287 259/293/59
f 253/287/59 259/293/59 260/294/134
f 261/295/288 256/290/289 262/296/58
f 261/295/288 262/296/58 263/297/58
f 264/298/290 265/299/291 266/300/292
f 266/300/134 265/299/236 267/301/243
f 266/300/134 267/301/243 255/289/134
f 255/289/293 267/301/293 268/302/293
f 269/303/134 270/304/59 252/286/134
f 271/305/294 266/300/294 250/284/294
f 250/284/59 266/300/134 255/289/134
f 250/284/59 255/289/134 257/291/59
f 272/306/134 273/307/288 269/303/134
f 272/306/134 269/303/134 254/288/134
f 254/288/134 269/303/134 252/286/134
f 252/286/295 270/304/295 274/308/295
f 252/286/296 274/308/296 249/283/296
f 229/309/243 275/310/243 276/311/243
f 276/311/243 277/312/243 229/309/243
f 277/313/297 230/314/297 229/309/297
f 278/315/298 230/314/298 277/313/298
f 278/315/299 277/313/299 279/316/299
f 233/262/300 234/264/300 279/316/300
f 276/317/301 279/316/301 277/313/301
f 233/262/302 279/316/302 276/317/302
f 236/267/303 238/269/303 280/318/303
f 280/318/304 238/269/304 273/319/304
f 239/271/305 241/273/305 281/320/305
f 282/321/306 239/271/306 281/320/306
f 265/299/291 264/298/290 283/322/307
f 265/299/308 283/322/308 267/301/308
f 269/303/134 273/307/288 284/323/288
f 255/289/309 268/302/309 262/296/309
f 255/289/281 262/296/310 256/290/282
f 251/285/134 250/284/59 257/291/59
f 251/285/134 257/291/59 253/287/59
f 260/294/134 285/324/134 253/287/59
f 261/295/288 263/297/58 286/325/134
f 247/279/270 236/281/270 280/326/311
f 287/327/312 259/293/313 258/292/286
f 266/300/314 271/305/314 264/298/314
f 267/301/315 283/322/315 268/302/315
f 250/284/316 249/283/316 271/305/316
f 258/292/286 256/290/285 287/327/312
f 288/328/317 289/329/317 290/330/317
f 288/328/318 290/330/318 291/331/318
f 292/332/319 293/333/319 294/334/319
f 294/334/320 293/333/321 295/335/322
f 296/336/323 293/333/324 297/337/325
f 296/336/323 297/337/325 298/338/323
f 299/339/326 300/340/327 301/341/328
f 292/332/329 302/342/329 303/343/329
f 304/344/330 301/341/330 289/329/330
f 291/331/331 305/345/331 306/346/331
f 291/331/332 306/346/332 288/328/332
f 228/257/333 307/347/333 229/258/333
f 308/348/334 307/347/334 228/257/334
f 308/348/335 228/257/335 309/349/335
f 233/262/336 310/350/336 309/351/336
f 311/352/337 309/349/337 228/257/337
f 233/262/338 309/351/338 311/353/338
f 312/354/339 313/355/340 314/356/341
f 314/356/341 313/355/340 315/357/342
f 316/358/343 317/359/343 318/360/343
f 319/361/344 316/358/344 318/360/344
f 300/340/327 299/339/326 320/362/345
f 300/340/346 320/362/346 302/342/346
f 292/332/347 303/343/347 297/337/347
f 292/332/348 297/337/325 293/333/324
f 296/336/323 298/338/323 321/363/323
f 322/364/349 323/365/350 295/335/322
f 301/341/351 304/344/351 299/339/351
f 302/342/352 320/362/352 303/343/352
f 289/329/353 288/328/353 304/344/353
f 295/335/322 293/333/321 322/364/349
f 324/366/354 325/367/354 326/368/354
f 324/366/355 327/369/356 325/367/357
f 328/370/358 329/371/359 330/372/360
f 329/371/361 331/373/361 330/372/361
f 332/374/113 333/375/362 330/372/360
f 332/374/113 334/376/113 333/375/362
f 335/377/363 336/378/363 337/379/363
f 328/370/364 338/380/364 339/381/364
f 340/382/365 326/368/365 336/378/365
f 327/369/366 341/383/366 342/384/366
f 327/369/356 324/366/355 341/383/367
f 277/313/368 229/309/368 307/385/368
f 343/386/369 277/313/369 307/385/369
f 343/386/370 344/387/370 277/313/370
f 233/262/371 344/387/371 310/350/371
f 276/317/372 277/313/372 344/387/372
f 233/262/373 276/317/373 344/387/373
f 312/354/374 345/388/375 313/355/376
f 345/388/375 346/389/377 313/355/376
f 316/358/378 347/390/379 317/359/380
f 282/321/381 347/390/379 316/358/378
f 337/379/382 348/391/382 335/377/382
f 337/379/383 339/381/383 348/391/383
f 328/370/384 333/375/384 338/380/384
f 328/370/358 330/372/360 333/375/362
f 332/374/113 349/392/113 334/376/113
f 350/393/385 331/373/386 351/394/387
f 336/378/388 335/377/388 340/382/388
f 339/381/389 338/380/389 348/391/389
f 326/368/390 340/382/390 324/366/390
f 331/373/386 350/393/385 330/372/391
f 238/395/392 226/396/392 313/397/392
f 313/397/392 346/398/392 238/395/392
f 352/399/393 353/400/393 354/401/393
f 352/399/394 355/402/394 353/400/394
f 356/403/393 354/401/393 353/400/393
f 355/402/394 357/404/394 353/400/394
f 358/405/395 359/406/395 354/401/395
f 359/406/396 358/405/397 360/407/397
f 354/401/395 356/403/395 358/405/395
f 361/408/397 360/407/397 358/405/397
f 362/409/134 363/410/134 364/411/288
f 363/410/134 362/409/134 365/412/398
f 366/413/58 364/411/288 363/410/134
f 367/414/399 363/410/134 365/412/398
f 360/407/400 361/408/400 368/415/400
f 368/415/400 369/416/400 360/407/400
f 369/416/401 368/415/401 370/417/401
f 370/417/402 371/418/402 369/416/402
f 371/418/403 370/417/403 372/419/403
f 372/419/403 373/420/403 371/418/403
f 372/419/404 357/404/404 374/421/405
f 374/421/405 373/420/406 372/419/404
f 375/422/323 376/423/407 377/424/323
f 377/424/323 378/425/408 375/422/323
f 379/426/208 377/424/323 376/423/407
f 380/427/81 378/425/408 377/424/323
f 381/428/113 382/429/113 383/430/113
f 381/428/113 383/430/113 384/431/113
f 385/432/113 386/433/409 383/430/113
f 383/430/113 386/433/409 387/434/409
f 383/430/113 387/434/410 388/435/113
f 389/436/113 390/437/113 391/438/113
f 389/436/113 391/438/113 392/439/116
f 393/440/113 394/441/113 381/428/113
f 395/442/113 389/436/113 392/439/116
f 395/442/113 392/439/116 385/432/113
f 396/443/113 397/444/114 393/440/113
f 396/443/113 393/440/113 384/431/113
f 384/431/113 393/440/113 381/428/113
f 393/440/113 397/444/114 398/445/411
f 382/429/113 395/442/113 385/432/113
f 382/429/113 385/432/113 383/430/113
f 388/435/113 399/446/113 383/430/113
f 400/447/412 401/448/412 402/449/412
f 401/448/323 403/450/210 402/449/323
f 401/448/323 404/451/323 403/450/210
f 405/452/210 403/450/210 406/453/413
f 403/450/210 407/454/210 406/453/413
f 403/450/210 408/455/323 407/454/210
f 409/456/323 410/457/414 411/458/113
f 409/456/323 412/459/323 410/457/414
f 413/460/323 401/448/323 414/461/210
f 415/462/210 412/459/323 409/456/323
f 415/462/210 405/452/210 412/459/323
f 416/463/323 413/460/323 417/464/407
f 416/463/323 404/451/323 413/460/323
f 404/451/323 401/448/323 413/460/323
f 401/448/415 418/465/415 414/461/415
f 401/448/416 400/447/416 418/465/416
f 413/460/323 419/466/407 417/464/407
f 402/449/323 405/452/210 415/462/210
f 402/449/323 403/450/210 405/452/210
f 408/455/323 403/450/210 420/467/323
f 421/468/414 422/469/414 423/470/414
f 422/469/414 421/468/414 424/471/414
