mtllib voidgear.mtl
v -0.126237 -25.771511 -2.124275
v -0.126237 -25.771511 1.842825
v -0.126237 -21.446007 1.842825
v -0.126237 -21.446007 -2.124275
v -0.126237 -25.771511 -2.124275
v -0.126237 -21.446007 1.842825
v -0.126237 -30.298311 -2.124275
v -0.126237 -30.298311 1.842825
v -0.126237 -25.967915 1.842825
v -0.126237 -25.967915 -2.124275
v -0.126237 -30.298311 -2.124275
v -0.126237 -25.967915 1.842825
v -0.077134 -36.543510 0.954120
v -0.077134 -36.543510 -1.235576
v -0.077134 -33.312912 0.954120
v -0.077134 -36.543510 -1.235576
v -0.077134 -36.543510 0.954120
v -0.077134 -33.312912 0.954120
v -0.126237 -30.494707 -2.124275
v -0.126237 -34.820210 -2.124275
v -0.126237 -30.494707 1.842825
v -0.126237 -34.820210 -2.124275
v -0.126237 -34.820210 1.842825
v -0.126237 -30.494707 1.842825
v -0.077134 -36.543510 -1.235576
v -0.077134 -33.312912 -1.235576
v -0.077134 -33.312912 0.954120
v -0.077134 -33.312912 -1.235576
v -0.077134 -36.543510 -1.235576
v -0.077134 -33.312912 0.954120
v -0.077134 -27.504612 -1.235576
v -0.077134 -24.274010 -1.235576
v -0.077134 -24.274010 0.949220
v -0.077134 -24.274010 -1.235576
v -0.077134 -27.504612 -1.235576
v -0.077134 -24.274010 0.949220
v -0.077134 -22.953314 -1.235576
v -0.077134 -19.722610 -1.235576
v -0.077134 -19.722610 0.949220
v -0.077134 -19.722610 -1.235576
v -0.077134 -22.953314 -1.235576
v -0.077134 -19.722610 0.949220
v -0.077134 -22.953314 -1.235576
v -0.077134 -22.953314 0.949220
v -0.077134 -19.722610 0.949220
v -0.077134 -22.953314 0.949220
v -0.077134 -22.953314 -1.235576
v -0.077134 -19.722610 0.949220
v -0.077134 -14.670509 -2.256878
v -0.077134 -19.722610 -2.256878
v -0.077134 -14.670509 1.975320
v -0.077134 -19.722610 -2.256878
v -0.077134 -14.670509 -2.256878
v -0.077134 -14.670509 1.975320
v -0.077134 -27.504612 -1.235576
v -0.077134 -27.504612 0.949220
v -0.077134 -24.274010 0.949220
v -0.077134 -27.504612 0.949220
v -0.077134 -27.504612 -1.235576
v -0.077134 -24.274010 0.949220
v -0.077134 -32.026512 -1.235576
v -0.077134 -28.795916 -1.235576
v -0.077134 -28.795916 0.949220
v -0.077134 -32.026512 0.949220
v -0.077134 -32.026512 -1.235576
v -0.077134 -28.795916 0.949220
v -0.077134 -32.026512 -1.235576
v -0.077134 -32.026512 0.949220
v -0.077134 -28.795916 0.949220
v -0.077134 -28.795916 -1.235576
v -0.077134 -32.026512 -1.235576
v -0.077134 -28.795916 0.949220
v -0.077134 -19.722610 1.975320
v -0.077134 -19.722610 -2.256878
v -0.077134 -14.670509 1.975320
v -0.077134 -19.722610 -2.256878
v -0.077134 -19.722610 1.975320
v -0.077134 -14.670509 1.975320
v -0.028032 -25.771511 1.842825
v -0.028032 -25.771511 -2.124275
v -0.028032 -21.446007 1.842825
v -0.028032 -25.771511 -2.124275
v -0.028032 -21.446007 -2.124275
v -0.028032 -21.446007 1.842825
v -0.028032 -30.298311 1.842825
v -0.028032 -30.298311 -2.124275
v -0.028032 -25.967915 1.842825
v -0.028032 -30.298311 -2.124275
v -0.028032 -25.967915 -2.124275
v -0.028032 -25.967915 1.842825
v -0.028032 -34.820210 -2.124275
v -0.028032 -30.494707 -2.124275
v -0.028032 -30.494707 1.842825
v -0.028032 -34.820210 1.842825
v -0.028032 -34.820210 -2.124275
v -0.028032 -30.494707 1.842825
v -0.126237 -35.649914 1.995020
v -0.126237 -34.348816 -0.548275
v -0.126237 -38.188309 3.291224
v -0.126237 -39.744610 1.847725
v -0.126237 -38.188309 3.291224
v -0.126237 -34.348816 -0.548275
v -0.126237 -34.348816 -0.548275
v -0.126237 -35.802109 -2.089877
v -0.126237 -39.744610 1.847725
v -0.126237 -41.463112 -0.670977
v -0.126237 -42.759209 1.867323
v -0.126237 -38.919811 -1.967175
v -0.126237 -37.378113 -0.513877
v -0.126237 -38.919811 -1.967175
v -0.126237 -42.759209 1.867323
v -0.126237 -42.759209 1.867323
v -0.126237 -41.315811 3.423725
v -0.126237 -37.378113 -0.513877
v -0.028032 -41.315811 3.423725
v -0.028032 -42.759209 1.867323
v -0.028032 -37.378113 -0.513877
v -0.028032 -38.919811 -1.967175
v -0.028032 -37.378113 -0.513877
v -0.028032 -42.759209 1.867323
v -0.028032 -42.759209 1.867323
v -0.028032 -41.463112 -0.670977
v -0.028032 -38.919811 -1.967175
v -0.028032 -35.802109 -2.089877
v -0.028032 -34.348816 -0.548275
v -0.028032 -39.744610 1.847725
v -0.028032 -38.188309 3.291224
v -0.028032 -39.744610 1.847725
v -0.028032 -34.348816 -0.548275
v -0.028032 -34.348816 -0.548275
v -0.028032 -35.649914 1.995020
v -0.028032 -38.188309 3.291224
vt 0.333689 0.003815
vt 0.240028 0.003815
vt 0.240028 0.208289
vt 0.333689 0.208320
vt 0.333689 0.003815
vt 0.240028 0.208289
vt 0.333689 0.003815
vt 0.240028 0.003815
vt 0.240028 0.208289
vt 0.333689 0.208320
vt 0.333689 0.003815
vt 0.240028 0.208289
vt 0.001068 0.070620
vt 0.046846 0.070620
vt 0.001068 0.194769
vt 0.046846 0.070620
vt 0.001068 0.070620
vt 0.001068 0.194769
vt 0.333689 0.208320
vt 0.333689 0.003815
vt 0.240028 0.208289
vt 0.333689 0.003815
vt 0.240028 0.003815
vt 0.240028 0.208289
vt 0.046846 0.070620
vt 0.046846 0.194769
vt 0.001068 0.194769
vt 0.046846 0.194769
vt 0.046846 0.070620
vt 0.001068 0.194769
vt 0.046846 0.070620
vt 0.046846 0.194769
vt 0.001068 0.194769
vt 0.046846 0.194769
vt 0.046846 0.070620
vt 0.001068 0.194769
vt 0.046846 0.070620
vt 0.046846 0.194769
vt 0.001068 0.194769
vt 0.046846 0.194769
vt 0.046846 0.070620
vt 0.001068 0.194769
vt 0.046846 0.070620
vt 0.001068 0.070620
vt 0.001068 0.194769
vt 0.001068 0.070620
vt 0.046846 0.070620
vt 0.001068 0.194769
vt 0.134861 0.238716
vt 0.134861 0.003815
vt 0.236274 0.238716
vt 0.134861 0.003815
vt 0.134861 0.238716
vt 0.236274 0.238716
vt 0.046846 0.070620
vt 0.001068 0.070620
vt 0.001068 0.194769
vt 0.001068 0.070620
vt 0.046846 0.070620
vt 0.001068 0.194769
vt 0.046846 0.070620
vt 0.046846 0.194769
vt 0.001068 0.194769
vt 0.001068 0.070620
vt 0.046846 0.070620
vt 0.001068 0.194769
vt 0.001068 0.070620
vt 0.046846 0.070620
vt 0.046846 0.194769
vt 0.001068 0.194769
vt 0.001068 0.070620
vt 0.046846 0.194769
vt 0.236274 0.003815
vt 0.134861 0.003815
vt 0.236274 0.238716
vt 0.134861 0.003815
vt 0.236274 0.003815
vt 0.236274 0.238716
vt 0.240028 0.003815
vt 0.333689 0.003815
vt 0.240028 0.208289
vt 0.333689 0.003815
vt 0.333689 0.208320
vt 0.240028 0.208289
vt 0.240028 0.003815
vt 0.333689 0.003815
vt 0.240028 0.208289
vt 0.333689 0.003815
vt 0.333689 0.208320
vt 0.240028 0.208289
vt 0.333689 0.003815
vt 0.333689 0.208320
vt 0.240028 0.208289
vt 0.240028 0.003815
vt 0.333689 0.003815
vt 0.240028 0.208289
vt 0.133396 0.287637
vt 0.112461 0.413953
vt 0.112461 0.153417
vt 0.061647 0.150029
vt 0.112461 0.153417
vt 0.112461 0.413953
vt 0.112461 0.413953
vt 0.061647 0.417249
vt 0.061647 0.150029
vt 0.133549 0.286813
vt 0.112461 0.153417
vt 0.112461 0.413953
vt 0.061647 0.417249
vt 0.112461 0.413953
vt 0.112461 0.153417
vt 0.112461 0.153417
vt 0.061647 0.150029
vt 0.061647 0.417249
vt 0.061647 0.150029
vt 0.112461 0.153417
vt 0.061647 0.417249
vt 0.112461 0.413953
vt 0.061647 0.417249
vt 0.112461 0.153417
vt 0.112461 0.153417
vt 0.133549 0.286813
vt 0.112461 0.413953
vt 0.061647 0.417249
vt 0.112461 0.413953
vt 0.061647 0.150029
vt 0.112461 0.153417
vt 0.061647 0.150029
vt 0.112461 0.413953
vt 0.112461 0.413953
vt 0.133396 0.287637
vt 0.112461 0.153417
vn -1.0000 0.0000 0.0000
vn 1.0000 -0.0000 0.0000
o keychain
usemtl Brush.063
f 1/1/1 2/2/1 3/3/1
f 4/4/1 5/5/1 6/6/1
f 7/7/1 8/8/1 9/9/1
f 10/10/1 11/11/1 12/12/1
f 13/13/2 14/14/2 15/15/2
f 16/16/1 17/17/1 18/18/1
f 19/19/1 20/20/1 21/21/1
f 22/22/1 23/23/1 24/24/1
f 25/25/2 26/26/2 27/27/2
f 28/28/1 29/29/1 30/30/1
f 31/31/2 32/32/2 33/33/2
f 34/34/1 35/35/1 36/36/1
f 37/37/2 38/38/2 39/39/2
f 40/40/1 41/41/1 42/42/1
f 43/43/1 44/44/1 45/45/1
f 46/46/2 47/47/2 48/48/2
f 49/49/1 50/50/1 51/51/1
f 52/52/2 53/53/2 54/54/2
f 55/55/1 56/56/1 57/57/1
f 58/58/2 59/59/2 60/60/2
f 61/61/2 62/62/2 63/63/2
f 64/64/2 65/65/2 66/66/2
f 67/67/1 68/68/1 69/69/1
f 70/70/1 71/71/1 72/72/1
f 73/73/2 74/74/2 75/75/2
f 76/76/1 77/77/1 78/78/1
f 79/79/2 80/80/2 81/81/2
f 82/82/2 83/83/2 84/84/2
f 85/85/2 86/86/2 87/87/2
f 88/88/2 89/89/2 90/90/2
f 91/91/2 92/92/2 93/93/2
f 94/94/2 95/95/2 96/96/2
f 97/97/1 98/98/1 99/99/1
f 100/100/1 101/101/1 102/102/1
f 103/103/1 104/104/1 105/105/1
f 106/106/1 107/107/1 108/108/1
f 109/109/1 110/110/1 111/111/1
f 112/112/1 113/113/1 114/114/1
f 115/115/2 116/116/2 117/117/2
f 118/118/2 119/119/2 120/120/2
f 121/121/2 122/122/2 123/123/2
f 124/124/2 125/125/2 126/126/2
f 127/127/2 128/128/2 129/129/2
f 130/130/2 131/131/2 132/132/2
