mtllib waytothedawn.mtl
v 0.477578 -30.184387 -2.287548
v 0.477578 -33.120068 0.023346
v 0.477578 -27.248713 0.023346
v 0.477578 -27.248713 0.023346
v 0.477578 -33.120068 0.023346
v 0.477578 -30.184387 2.334240
v 0.477578 -36.245705 -2.287548
v 0.477578 -39.181385 0.023346
v 0.477578 -33.310024 0.023346
v 0.477578 -33.310024 0.023346
v 0.477578 -39.181385 0.023346
v 0.477578 -36.245705 2.334240
v 0.477570 -42.619415 -2.287548
v 0.477570 -45.555096 0.023346
v 0.477570 -39.683735 0.023346
v 0.477570 -39.683735 0.023346
v 0.477570 -45.555096 0.023346
v 0.477570 -42.619415 2.334240
v 0.000588 -28.901878 3.048550
v 0.000588 -25.104328 3.048550
v 0.000588 -28.901878 -3.001858
v 0.000588 -28.901878 -3.001858
v 0.000588 -25.104328 3.048550
v 0.000588 -25.104326 -3.001858
v 0.000588 -25.104328 3.048550
v 0.000596 -18.196445 -3.001858
v 0.000588 -25.104326 -3.001858
v 0.000595 -20.606159 5.324184
v 0.000595 -18.196447 3.048550
v 0.000588 -25.104328 3.048550
v 0.000588 -25.104328 3.048550
v 0.000595 -18.196447 3.048550
v 0.000596 -18.196445 -3.001858
v 0.000580 -43.612484 1.491230
v 0.000581 -43.612488 -1.444538
v 0.000580 -47.466393 1.491230
v 0.000581 -43.612488 -1.444538
v 0.000581 -47.466393 -1.444538
v 0.000580 -47.466393 1.491230
v 0.000588 -31.314049 -1.444538
v 0.000588 -35.167953 -1.444538
v 0.000588 -31.314049 1.491230
v 0.000588 -35.167953 -1.444538
v 0.000588 -35.167953 1.491230
v 0.000588 -31.314049 1.491230
v 0.000588 -37.496681 -1.444538
v 0.000581 -41.350586 -1.444538
v 0.000588 -37.496681 1.491230
v 0.000581 -41.350586 -1.444538
v 0.000580 -41.350586 1.491230
v 0.000588 -37.496681 1.491230
v -0.476402 -30.184387 2.334240
v -0.476402 -27.248711 0.023346
v -0.476402 -33.120068 0.023346
v -0.476402 -27.248711 0.023346
v -0.476401 -30.184387 -2.287548
v -0.476402 -33.120068 0.023346
v -0.476401 -36.245705 -2.287548
v -0.476402 -39.181385 0.023346
v -0.476402 -33.310024 0.023346
v -0.476402 -33.310024 0.023346
v -0.476402 -39.181385 0.023346
v -0.476402 -36.245705 2.334240
v -0.476409 -42.619415 -2.287548
v -0.476409 -45.555096 0.023346
v -0.476409 -39.683735 0.023346
v -0.476409 -39.683735 0.023346
v -0.476409 -45.555096 0.023346
v -0.476410 -42.619415 2.334240
v 0.000581 -64.177368 -5.402451
v 0.000580 -64.177368 5.449150
v 0.000581 -49.283733 -5.402451
v 0.000580 -64.177368 5.449150
v 0.000580 -49.283733 5.449154
v 0.000581 -49.283733 -5.402451
v 0.000581 -46.956284 -0.890007
v 0.000581 -49.283733 -0.890007
v 0.000580 -46.956284 0.936699
v 0.000581 -49.283733 -0.890007
v 0.000580 -49.283733 0.936699
v 0.000580 -46.956284 0.936699
v -0.476402 -30.184387 2.334240
v -0.476402 -33.120068 0.023346
v -0.476402 -27.248711 0.023346
v -0.476402 -27.248711 0.023346
v -0.476402 -33.120068 0.023346
v -0.476401 -30.184387 -2.287548
v -0.476401 -36.245705 -2.287548
v -0.476402 -33.310024 0.023346
v -0.476402 -39.181385 0.023346
v -0.476402 -39.181385 0.023346
v -0.476402 -33.310024 0.023346
v -0.476402 -36.245705 2.334240
v -0.476409 -42.619415 -2.287548
v -0.476409 -39.683735 0.023346
v -0.476409 -45.555096 0.023346
v -0.476409 -45.555096 0.023346
v -0.476409 -39.683735 0.023346
v -0.476410 -42.619415 2.334240
v 0.000588 -28.901878 3.048550
v 0.000588 -28.901878 -3.001858
v 0.000588 -25.104328 3.048550
v 0.000588 -28.901878 -3.001858
v 0.000588 -25.104326 -3.001858
v 0.000588 -25.104328 3.048550
v 0.000588 -25.104328 3.048550
v 0.000588 -25.104326 -3.001858
v 0.000595 -18.196447 3.048550
v 0.000588 -25.104326 -3.001858
v 0.000596 -18.196445 -3.001858
v 0.000595 -18.196447 3.048550
v 0.000581 -47.466393 -1.444538
v 0.000581 -43.612488 -1.444538
v 0.000580 -47.466393 1.491230
v 0.000581 -43.612488 -1.444538
v 0.000580 -43.612484 1.491230
v 0.000580 -47.466393 1.491230
v 0.000588 -35.167953 -1.444538
v 0.000588 -31.314049 -1.444538
v 0.000588 -35.167953 1.491230
v 0.000588 -31.314049 -1.444538
v 0.000588 -31.314049 1.491230
v 0.000588 -35.167953 1.491230
v 0.000581 -41.350586 -1.444538
v 0.000588 -37.496681 -1.444538
v 0.000580 -41.350586 1.491230
v 0.000588 -37.496681 -1.444538
v 0.000588 -37.496681 1.491230
v 0.000580 -41.350586 1.491230
v 0.000595 -20.606159 5.324184
v 0.000588 -25.104328 3.048550
v 0.000595 -18.196447 3.048550
v 0.477578 -30.184387 -2.287548
v 0.477578 -27.248713 0.023346
v 0.477578 -33.120068 0.023346
v 0.477578 -27.248713 0.023346
v 0.477578 -30.184387 2.334240
v 0.477578 -33.120068 0.023346
v 0.477578 -36.245705 -2.287548
v 0.477578 -33.310024 0.023346
v 0.477578 -39.181385 0.023346
v 0.477578 -39.181385 0.023346
v 0.477578 -33.310024 0.023346
v 0.477578 -36.245705 2.334240
v 0.477570 -42.619415 -2.287548
v 0.477570 -39.683735 0.023346
v 0.477570 -45.555096 0.023346
v 0.477570 -45.555096 0.023346
v 0.477570 -39.683735 0.023346
v 0.477570 -42.619415 2.334240
v 0.000581 -49.283733 -5.402451
v 0.000580 -49.283733 5.449154
v 0.000581 -64.177368 -5.402451
v 0.000580 -49.283733 5.449154
v 0.000580 -64.177368 5.449150
v 0.000581 -64.177368 -5.402451
v 0.000580 -49.283733 0.936699
v 0.000581 -49.283733 -0.890007
v 0.000580 -46.956284 0.936699
v 0.000581 -49.283733 -0.890007
v 0.000581 -46.956284 -0.890007
v 0.000580 -46.956284 0.936699
vt 0.181641 0.280029
vt 0.142578 0.218994
vt 0.218018 0.218994
vt 0.218018 0.218994
vt 0.142578 0.218994
vt 0.181641 0.157959
vt 0.181641 0.280029
vt 0.142578 0.218994
vt 0.218018 0.218994
vt 0.218018 0.218994
vt 0.142578 0.218994
vt 0.181641 0.157959
vt 0.181641 0.280029
vt 0.142578 0.218994
vt 0.218018 0.218994
vt 0.218018 0.218994
vt 0.142578 0.218994
vt 0.181641 0.157959
vt 0.005371 0.188964
vt 0.059570 0.188964
vt 0.005371 0.015869
vt 0.005371 0.015869
vt 0.059570 0.188964
vt 0.059570 0.015869
vt 0.059570 0.188964
vt 0.158447 0.015869
vt 0.059570 0.015869
vt 0.119629 0.253906
vt 0.158447 0.188964
vt 0.059570 0.188964
vt 0.059570 0.188964
vt 0.158447 0.188964
vt 0.158447 0.015869
vt 0.053223 0.256836
vt 0.053223 0.188964
vt 0.005371 0.256836
vt 0.053223 0.188964
vt 0.005371 0.188964
vt 0.005371 0.256836
vt 0.053223 0.188964
vt 0.005371 0.188964
vt 0.053223 0.256836
vt 0.005371 0.188964
vt 0.005371 0.256836
vt 0.053223 0.256836
vt 0.053223 0.188964
vt 0.005371 0.188964
vt 0.053223 0.256836
vt 0.005371 0.188964
vt 0.005371 0.256836
vt 0.053223 0.256836
vt 0.181641 0.157959
vt 0.218018 0.218994
vt 0.142578 0.218994
vt 0.218018 0.218994
vt 0.181641 0.280029
vt 0.142578 0.218994
vt 0.181641 0.280029
vt 0.142578 0.218994
vt 0.218018 0.218994
vt 0.218018 0.218994
vt 0.142578 0.218994
vt 0.181641 0.157959
vt 0.181641 0.280029
vt 0.142578 0.218994
vt 0.218018 0.218994
vt 0.218018 0.218994
vt 0.142578 0.218994
vt 0.181641 0.157959
vt 0.001465 0.256836
vt 0.001465 0.484619
vt 0.154785 0.256836
vt 0.001465 0.484619
vt 0.154785 0.484619
vt 0.154785 0.256836
vt 0.177246 0.351562
vt 0.154785 0.351562
vt 0.177246 0.389892
vt 0.154785 0.351562
vt 0.154785 0.389892
vt 0.177246 0.389892
vt 0.181641 0.157959
vt 0.142578 0.218994
vt 0.218018 0.218994
vt 0.218018 0.218994
vt 0.142578 0.218994
vt 0.181641 0.280029
vt 0.181641 0.280029
vt 0.218018 0.218994
vt 0.142578 0.218994
vt 0.142578 0.218994
vt 0.218018 0.218994
vt 0.181641 0.157959
vt 0.181641 0.280029
vt 0.218018 0.218994
vt 0.142578 0.218994
vt 0.142578 0.218994
vt 0.218018 0.218994
vt 0.181641 0.157959
vt 0.005371 0.188964
vt 0.005371 0.015869
vt 0.059570 0.188964
vt 0.005371 0.015869
vt 0.059570 0.015869
vt 0.059570 0.188964
vt 0.059570 0.188964
vt 0.059570 0.015869
vt 0.158447 0.188964
vt 0.059570 0.015869
vt 0.158447 0.015869
vt 0.158447 0.188964
vt 0.005371 0.188964
vt 0.053223 0.188964
vt 0.005371 0.256836
vt 0.053223 0.188964
vt 0.053223 0.256836
vt 0.005371 0.256836
vt 0.005371 0.188964
vt 0.053223 0.188964
vt 0.005371 0.256836
vt 0.053223 0.188964
vt 0.053223 0.256836
vt 0.005371 0.256836
vt 0.005371 0.188964
vt 0.053223 0.188964
vt 0.005371 0.256836
vt 0.053223 0.188964
vt 0.053223 0.256836
vt 0.005371 0.256836
vt 0.119629 0.253906
vt 0.059570 0.188964
vt 0.158447 0.188964
vt 0.181641 0.280029
vt 0.218018 0.218994
vt 0.142578 0.218994
vt 0.218018 0.218994
vt 0.181641 0.157959
vt 0.142578 0.218994
vt 0.181641 0.280029
vt 0.218018 0.218994
vt 0.142578 0.218994
vt 0.142578 0.218994
vt 0.218018 0.218994
vt 0.181641 0.157959
vt 0.181641 0.280029
vt 0.218018 0.218994
vt 0.142578 0.218994
vt 0.142578 0.218994
vt 0.218018 0.218994
vt 0.181641 0.157959
vt 0.154785 0.256836
vt 0.154785 0.484619
vt 0.001465 0.256836
vt 0.154785 0.484619
vt 0.001465 0.484619
vt 0.001465 0.256836
vt 0.154785 0.389892
vt 0.154785 0.351562
vt 0.177246 0.389892
vt 0.154785 0.351562
vt 0.177246 0.351562
vt 0.177246 0.389892
vn -1.0000 -0.0000 -0.0000
vn 1.0000 0.0000 -0.0000
o keychain
usemtl Brush.064
f 1/1/1 2/2/1 3/3/1
f 4/4/1 5/5/1 6/6/1
f 7/7/1 8/8/1 9/9/1
f 10/10/1 11/11/1 12/12/1
f 13/13/1 14/14/1 15/15/1
f 16/16/1 17/17/1 18/18/1
f 19/19/1 20/20/1 21/21/1
f 22/22/1 23/23/1 24/24/1
f 25/25/1 26/26/1 27/27/1
f 28/28/1 29/29/1 30/30/1
f 31/31/1 32/32/1 33/33/1
f 34/34/1 35/35/1 36/36/1
f 37/37/1 38/38/1 39/39/1
f 40/40/1 41/41/1 42/42/1
f 43/43/1 44/44/1 45/45/1
f 46/46/1 47/47/1 48/48/1
f 49/49/1 50/50/1 51/51/1
f 52/52/1 53/53/1 54/54/1
f 55/55/1 56/56/1 57/57/1
f 58/58/1 59/59/1 60/60/1
f 61/61/1 62/62/1 63/63/1
f 64/64/1 65/65/1 66/66/1
f 67/67/1 68/68/1 69/69/1
f 70/70/1 71/71/1 72/72/1
f 73/73/1 74/74/1 75/75/1
f 76/76/1 77/77/1 78/78/1
f 79/79/1 80/80/1 81/81/1
f 82/82/2 83/83/2 84/84/2
f 85/85/2 86/86/2 87/87/2
f 88/88/2 89/89/2 90/90/2
f 91/91/2 92/92/2 93/93/2
f 94/94/2 95/95/2 96/96/2
f 97/97/2 98/98/2 99/99/2
f 100/100/2 101/101/2 102/102/2
f 103/103/2 104/104/2 105/105/2
f 106/106/2 107/107/2 108/108/2
f 109/109/2 110/110/2 111/111/2
f 112/112/2 113/113/2 114/114/2
f 115/115/2 116/116/2 117/117/2
f 118/118/2 119/119/2 120/120/2
f 121/121/2 122/122/2 123/123/2
f 124/124/2 125/125/2 126/126/2
f 127/127/2 128/128/2 129/129/2
f 130/130/2 131/131/2 132/132/2
f 133/133/2 134/134/2 135/135/2
f 136/136/2 137/137/2 138/138/2
f 139/139/2 140/140/2 141/141/2
f 142/142/2 143/143/2 144/144/2
f 145/145/2 146/146/2 147/147/2
f 148/148/2 149/149/2 150/150/2
f 151/151/2 152/152/2 153/153/2
f 154/154/2 155/155/2 156/156/2
f 157/157/2 158/158/2 159/159/2
f 160/160/2 161/161/2 162/162/2
