mtllib waywardwind.mtl
v 0.000002 56.976597 -1.848000
v 0.000003 65.250702 7.573100
v 0.000003 61.658298 10.663700
v 0.000003 65.250702 7.573100
v 0.000002 56.976597 -1.848000
v 0.000003 61.658298 10.663700
v 0.000002 34.882500 -2.411500
v 0.000002 35.688999 -3.859200
v 0.000002 37.477299 -1.766300
v 0.000002 35.688999 -3.859200
v 0.000002 34.882500 -2.411500
v 0.000002 37.477299 -1.766300
v 0.000002 50.803398 -1.668800
v 0.000002 48.820000 -5.806800
v 0.000002 53.063602 -3.608300
v 0.000002 48.820000 -5.806800
v 0.000002 50.803398 -1.668800
v 0.000002 53.063602 -3.608300
v 0.000002 51.715500 -6.296700
v 0.000002 53.063602 -3.608300
v 0.000002 48.820000 -5.806800
v 0.000002 53.063602 -3.608300
v 0.000002 51.715500 -6.296700
v 0.000002 48.820000 -5.806800
v 0.000002 35.688999 -3.859200
v 0.000002 38.134399 -4.000600
v 0.000002 37.477299 -1.766300
v 0.000002 38.134399 -4.000600
v 0.000002 35.688999 -3.859200
v 0.000002 37.477299 -1.766300
v -1.280398 52.878399 -8.003200
v 0.000002 53.121300 -6.535600
v 0.000002 52.633499 -9.472899
v 1.280402 52.878399 -8.003200
v 0.000002 52.633499 -9.472899
v 0.000002 53.121300 -6.535600
v 0.000002 56.976597 -1.848000
v 0.000002 54.007500 0.706900
v 0.000002 53.063602 -3.608300
v 0.000002 54.007500 0.706900
v 0.000002 56.976597 -1.848000
v 0.000002 53.063602 -3.608300
v 0.000002 43.987000 -0.844300
v 0.000002 50.803398 -1.668800
v 0.000002 48.421799 2.407500
v 0.000002 50.803398 -1.668800
v 0.000002 43.987000 -0.844300
v 0.000002 48.421799 2.407500
v 0.000002 52.014202 1.824100
v 0.000002 50.803398 -1.668800
v 0.000002 54.007500 0.706900
v 0.000002 50.803398 -1.668800
v 0.000002 52.014202 1.824100
v 0.000002 54.007500 0.706900
v 0.000002 50.381203 11.026100
v 0.000002 48.421799 2.407500
v 0.000002 52.014202 1.824100
v 0.000002 48.421799 2.407500
v 0.000002 50.381203 11.026100
v 0.000002 52.014202 1.824100
v 0.000002 52.014202 1.824100
v 0.000002 48.421799 2.407500
v 0.000002 50.803398 -1.668800
v 0.000002 48.421799 2.407500
v 0.000002 52.014202 1.824100
v 0.000002 50.803398 -1.668800
v 0.000002 37.477299 -1.766300
v 0.000002 43.987000 -0.844300
v 0.000002 41.270802 2.319900
v 0.000002 43.987000 -0.844300
v 0.000002 37.477299 -1.766300
v 0.000002 41.270802 2.319900
v 0.000002 48.421799 2.407500
v 0.000002 46.534000 2.568800
v 0.000002 43.987000 -0.844300
v 0.000002 46.534000 2.568800
v 0.000002 48.421799 2.407500
v 0.000002 43.987000 -0.844300
v 0.000002 43.200401 9.948800
v 0.000002 43.150600 2.503100
v 0.000002 46.534000 2.568800
v 0.000002 43.150600 2.503100
v 0.000002 43.200401 9.948800
v 0.000002 46.534000 2.568800
v 0.000002 46.534000 2.568800
v 0.000002 43.150600 2.503100
v 0.000002 43.987000 -0.844300
v 0.000002 43.150600 2.503100
v 0.000002 46.534000 2.568800
v 0.000002 43.987000 -0.844300
v 0.000002 43.150600 2.503100
v 0.000002 41.270802 2.319900
v 0.000002 43.987000 -0.844300
v 0.000002 41.270802 2.319900
v 0.000002 43.150600 2.503100
v 0.000002 43.987000 -0.844300
v 0.000002 36.348198 7.573100
v 0.000002 37.855602 1.585100
v 0.000002 41.270802 2.319900
v 0.000002 37.855602 1.585100
v 0.000002 36.348198 7.573100
v 0.000002 41.270802 2.319900
v 0.000002 37.855602 1.585100
v 0.000002 37.477299 -1.766300
v 0.000002 41.270802 2.319900
v 0.000002 37.477299 -1.766300
v 0.000002 37.855602 1.585100
v 0.000002 41.270802 2.319900
v 0.000002 37.855602 1.585100
v 0.000002 35.997700 0.675100
v 0.000002 37.477299 -1.766300
v 0.000002 35.997700 0.675100
v 0.000002 37.855602 1.585100
v 0.000002 37.477299 -1.766300
v 0.000001 30.412001 2.453300
v 0.000001 32.594498 -1.477600
v 0.000002 35.997700 0.675100
v 0.000001 32.594498 -1.477600
v 0.000001 30.412001 2.453300
v 0.000002 35.997700 0.675100
v 0.000001 32.594498 -1.477600
v 0.000002 34.882500 -2.411500
v 0.000002 35.997700 0.675100
v 0.000002 34.882500 -2.411500
v 0.000001 32.594498 -1.477600
v 0.000002 35.997700 0.675100
v 0.000002 54.007500 0.706900
v 0.000002 56.976597 -1.848000
v 0.000003 61.658298 10.663700
v 0.000002 56.976597 -1.848000
v 0.000002 54.007500 0.706900
v 0.000003 61.658298 10.663700
v -0.008000 6.914000 1.286400
v 0.000000 7.415800 -1.443700
v -0.002000 -7.099200 -1.449700
v 0.000000 7.415800 -1.443700
v -0.008000 6.914000 1.286400
v -0.002000 -7.099200 -1.449700
v 0.000002 54.445602 9.982700
v 0.000002 50.381203 11.026100
v 0.000002 52.014202 1.824100
v 0.000002 50.381203 11.026100
v 0.000002 54.445602 9.982700
v 0.000002 52.014202 1.824100
v 0.000002 47.013901 9.944800
v 0.000002 43.200401 9.948800
v 0.000002 46.534000 2.568800
v 0.000002 43.200401 9.948800
v 0.000002 47.013901 9.944800
v 0.000002 46.534000 2.568800
v 0.000002 39.731499 8.473201
v 0.000002 36.348198 7.573100
v 0.000002 41.270802 2.319900
v 0.000002 36.348198 7.573100
v 0.000002 39.731499 8.473201
v 0.000002 41.270802 2.319900
v 1.644901 18.977600 -7.278400
v -1.644899 18.977600 -7.278400
v 0.000001 29.695099 -6.665100
v -1.644899 18.977600 -7.278400
v 1.644901 18.977600 -7.278400
v 2.443400 8.899400 -8.865500
v 0.000000 6.368300 -4.474600
v 0.000000 7.535300 -2.084900
v 0.000001 11.607600 -2.084900
v 0.000000 7.535300 -2.084900
v 0.000000 6.368300 -4.474600
v 0.000001 11.607600 -2.084900
v 0.000001 15.275701 -3.674000
v 0.000000 6.368300 -4.474600
v 0.000001 11.607600 -2.084900
v 0.000001 15.275701 -3.674000
v 0.000001 11.607600 -2.084900
v 0.000000 6.368300 -4.474600
v -0.006000 -6.467900 1.284400
v -0.008000 6.914000 1.286400
v -0.002000 -7.099200 -1.449700
v -0.008000 6.914000 1.286400
v -0.006000 -6.467900 1.284400
v -0.002000 -7.099200 -1.449700
v 0.000000 7.535300 -2.084900
v 0.000001 11.607600 -2.084900
v -0.013900 9.749701 3.319600
v -0.013900 6.519700 3.421100
v 0.000000 7.535300 -2.084900
v -0.013900 9.749701 3.319600
v -0.000000 -7.378000 -2.660400
v -0.013900 -5.510100 5.438400
v -0.013900 -10.396900 3.405200
v -0.013900 -10.396900 3.405200
v -0.000001 -11.537900 -2.660400
v -0.000000 -7.378000 -2.660400
v 0.000001 11.607600 -2.084900
v 0.000000 7.535300 -2.084900
v -0.013900 9.749701 3.319600
v 0.000000 7.535300 -2.084900
v -0.013900 6.519700 3.421100
v -0.013900 9.749701 3.319600
v -0.013900 -5.510100 5.438400
v -0.013900 -10.396900 3.405200
v -0.013901 -12.324500 5.611600
v -0.013900 -10.396900 3.405200
v -0.013900 -5.510100 5.438400
v -0.013901 -12.324500 5.611600
v -0.013900 5.187500 4.679700
v -0.013900 6.519700 3.421100
v -0.013900 9.749701 3.319600
v -0.013900 6.519700 3.421100
v -0.013900 5.187500 4.679700
v -0.013900 9.749701 3.319600
v 0.000000 6.368300 -4.474600
v -1.644899 18.977600 -7.278400
v -2.443399 8.899400 -8.865500
v -2.443399 8.899400 -8.865500
v -3.877200 -6.983700 -12.278700
v 0.000000 6.368300 -4.474600
v -0.000000 -7.378000 -2.660400
v -0.000000 -5.330900 -6.661100
v -0.000001 -11.537900 -2.660400
v -0.000000 -5.330900 -6.661100
v -0.000000 -7.378000 -2.660400
v -0.000001 -11.537900 -2.660400
v -2.190500 -11.034100 9.212000
v -0.013900 -5.510100 5.438400
v -0.013901 -12.324500 5.611600
v -2.190500 -11.034100 9.212000
v -1.628900 -1.861900 7.838000
v -0.013900 -5.510100 5.438400
v -0.013900 -5.510100 5.438400
v -0.000000 -7.378000 -2.660400
v -0.013900 -10.396900 3.405200
v -0.000001 -11.537900 -2.660400
v -0.013900 -10.396900 3.405200
v -0.000000 -7.378000 -2.660400
v 0.000002 50.803398 -1.668800
v 0.000002 53.063602 -3.608300
v 0.000002 54.007500 0.706900
v 0.000002 34.882500 -2.411500
v 0.000002 37.477299 -1.766300
v 0.000002 35.997700 0.675100
v 0.000001 33.703701 4.275400
v 0.000001 30.412001 2.453300
v 0.000002 35.997700 0.675100
v 0.000002 53.063602 -3.608300
v 0.000002 50.803398 -1.668800
v 0.000002 54.007500 0.706900
v 0.000002 37.477299 -1.766300
v 0.000002 34.882500 -2.411500
v 0.000002 35.997700 0.675100
v 0.000001 30.412001 2.453300
v 0.000001 33.703701 4.275400
v 0.000002 35.997700 0.675100
v -1.135099 27.460798 -0.868200
v 1.135101 27.460798 -0.868200
v 0.000001 30.208799 -3.538600
v -1.135099 27.460798 -0.868200
v 0.000001 21.658001 -3.102500
v 1.135101 27.460798 -0.868200
v 1.280401 29.951900 -5.101800
v 0.000001 30.208799 -3.538600
v 1.135101 27.460798 -0.868200
v 2.160599 -11.034100 9.212000
v -0.013901 -12.324500 5.611600
v -0.013900 -5.510100 5.438400
v -1.280398 52.878399 -8.003200
v 0.000002 38.134399 -4.000600
v 0.000002 53.121300 -6.535600
v 1.280402 52.878399 -8.003200
v 0.000002 53.121300 -6.535600
v 0.000002 38.134399 -4.000600
v 0.000002 38.134399 -4.000600
v 1.280401 36.652901 -5.432400
v 1.280402 52.878399 -8.003200
v 0.000002 52.633499 -9.472899
v 1.280402 52.878399 -8.003200
v 1.280401 36.652901 -5.432400
v 1.280401 36.652901 -5.432400
v 0.000002 36.475597 -6.947800
v 0.000002 52.633499 -9.472899
v -1.280398 36.652901 -5.432400
v 0.000002 52.633499 -9.472899
v 0.000002 36.475597 -6.947800
v 0.000002 36.475597 -6.947800
v 0.000001 29.695099 -6.665100
v -1.280398 36.652901 -5.432400
v -1.280399 29.951900 -5.101800
v -1.280398 36.652901 -5.432400
v 0.000001 29.695099 -6.665100
v 0.000001 29.695099 -6.665100
v -1.644899 18.977600 -7.278400
v -1.280399 29.951900 -5.101800
v 0.000001 21.658001 -3.102500
v -1.280399 29.951900 -5.101800
v -1.644899 18.977600 -7.278400
v -1.644899 18.977600 -7.278400
v 0.000000 6.368300 -4.474600
v 0.000001 21.658001 -3.102500
v 1.644901 18.977600 -7.278400
v 0.000001 21.658001 -3.102500
v 0.000000 6.368300 -4.474600
v 0.000000 6.368300 -4.474600
v 2.443400 8.899400 -8.865500
v 1.644901 18.977600 -7.278400
v 0.000002 36.475597 -6.947800
v 1.280401 36.652901 -5.432400
v 0.000001 29.695099 -6.665100
v 1.280401 29.951900 -5.101800
v 0.000001 29.695099 -6.665100
v 1.280401 36.652901 -5.432400
v 1.280401 36.652901 -5.432400
v 0.000002 38.134399 -4.000600
v 1.280401 29.951900 -5.101800
v 0.000001 30.208799 -3.538600
v 1.280401 29.951900 -5.101800
v 0.000002 38.134399 -4.000600
v 0.000002 38.134399 -4.000600
v -1.280399 29.951900 -5.101800
v 0.000001 30.208799 -3.538600
v -1.135099 27.460798 -0.868200
v 0.000001 30.208799 -3.538600
v -1.280399 29.951900 -5.101800
v -1.280399 29.951900 -5.101800
v 0.000001 21.658001 -3.102500
v -1.135099 27.460798 -0.868200
v -1.644899 18.977600 -7.278400
v 2.443400 8.899400 -8.865500
v -2.443399 8.899400 -8.865500
v -3.877200 -6.983700 -12.278700
v -2.443399 8.899400 -8.865500
v 2.443400 8.899400 -8.865500
v 2.443400 8.899400 -8.865500
v 3.877200 -6.983700 -12.278700
v -3.877200 -6.983700 -12.278700
v -3.399200 -13.610899 -13.865800
v -3.877200 -6.983700 -12.278700
v 3.877200 -6.983700 -12.278700
v 3.877200 -6.983700 -12.278700
v 3.399199 -13.610899 -13.865800
v -3.399200 -13.610899 -13.865800
v -0.000001 -17.589600 -10.157900
v -3.399200 -13.610899 -13.865800
v 3.399199 -13.610899 -13.865800
v -0.013900 9.749701 3.319600
v -2.053100 10.472500 7.575100
v 2.021200 10.472500 7.575100
v 1.597100 -1.861900 7.838000
v 2.021200 10.472500 7.575100
v -2.053100 10.472500 7.575100
v -2.053100 10.472500 7.575100
v -1.628900 -1.861900 7.838000
v 1.597100 -1.861900 7.838000
v 2.160599 -11.034100 9.212000
v 1.597100 -1.861900 7.838000
v -1.628900 -1.861900 7.838000
v -1.628900 -1.861900 7.838000
v -2.190500 -11.034100 9.212000
v 2.160599 -11.034100 9.212000
v -0.013901 -12.324500 5.611600
v 2.160599 -11.034100 9.212000
v -2.190500 -11.034100 9.212000
v -0.013900 9.749701 3.319600
v -0.013900 5.187500 4.679700
v -2.053100 10.472500 7.575100
v -1.628900 -1.861900 7.838000
v -2.053100 10.472500 7.575100
v -0.013900 5.187500 4.679700
v -0.013900 5.187500 4.679700
v -0.013900 -2.037200 5.398600
v -1.628900 -1.861900 7.838000
v -0.013900 -5.510100 5.438400
v -1.628900 -1.861900 7.838000
v -0.013900 -2.037200 5.398600
v -0.013900 -2.037200 5.398600
v 1.597100 -1.861900 7.838000
v -0.013900 -5.510100 5.438400
v 2.160599 -11.034100 9.212000
v -0.013900 -5.510100 5.438400
v 1.597100 -1.861900 7.838000
v 2.443400 8.899400 -8.865500
v 0.000000 6.368300 -4.474600
v 3.877200 -6.983700 -12.278700
v -0.000000 -5.330900 -6.661100
v 3.877200 -6.983700 -12.278700
v 0.000000 6.368300 -4.474600
v 0.000000 6.368300 -4.474600
v -3.877200 -6.983700 -12.278700
v -0.000000 -5.330900 -6.661100
v -0.000001 -11.537900 -2.660400
v -0.000000 -5.330900 -6.661100
v -3.877200 -6.983700 -12.278700
v -3.877200 -6.983700 -12.278700
v -3.399200 -13.610899 -13.865800
v -0.000001 -11.537900 -2.660400
v -0.000001 -17.589600 -10.157900
v -0.000001 -11.537900 -2.660400
v -3.399200 -13.610899 -13.865800
v 0.000002 52.633499 -9.472899
v -1.280398 36.652901 -5.432400
v -1.280398 52.878399 -8.003200
v 0.000002 38.134399 -4.000600
v -1.280398 52.878399 -8.003200
v -1.280398 36.652901 -5.432400
v -1.280398 36.652901 -5.432400
v -1.280399 29.951900 -5.101800
v 0.000002 38.134399 -4.000600
v 0.000001 29.695099 -6.665100
v 1.280401 29.951900 -5.101800
v 1.644901 18.977600 -7.278400
v 0.000001 21.658001 -3.102500
v 1.644901 18.977600 -7.278400
v 1.280401 29.951900 -5.101800
v 1.280401 29.951900 -5.101800
v 1.135101 27.460798 -0.868200
v 0.000001 21.658001 -3.102500
v -0.013900 -2.037200 5.398600
v -0.013900 5.187500 4.679700
v 1.597100 -1.861900 7.838000
v 2.021200 10.472500 7.575100
v 1.597100 -1.861900 7.838000
v -0.013900 5.187500 4.679700
v -0.013900 5.187500 4.679700
v -0.013900 9.749701 3.319600
v 2.021200 10.472500 7.575100
v -0.000000 -5.330900 -6.661100
v -0.000001 -11.537900 -2.660400
v 3.877200 -6.983700 -12.278700
v 3.399199 -13.610899 -13.865800
v 3.877200 -6.983700 -12.278700
v -0.000001 -11.537900 -2.660400
v -0.000001 -11.537900 -2.660400
v -0.000001 -17.589600 -10.157900
v 3.399199 -13.610899 -13.865800
v 0.000002 37.234299 4.050400
v 0.000002 34.653500 2.781900
v 0.000002 35.997700 0.675100
v 0.000002 34.653500 2.781900
v 0.000002 37.234299 4.050400
v 0.000002 35.997700 0.675100
v 0.000002 43.168602 5.171500
v 0.000002 40.677402 4.695600
v 0.000002 41.270802 2.319900
v 0.000002 40.677402 4.695600
v 0.000002 43.168602 5.171500
v 0.000002 41.270802 2.319900
v 0.000002 46.534000 2.568800
v 0.000002 48.421799 2.407500
v 0.000002 49.019199 5.034100
v 0.000002 48.421799 2.407500
v 0.000002 46.534000 2.568800
v 0.000002 49.019199 5.034100
v 0.000002 55.795700 3.032800
v 0.000002 52.852501 4.633900
v 0.000002 52.014202 1.824100
v 0.000002 52.852501 4.633900
v 0.000002 55.795700 3.032800
v 0.000002 52.014202 1.824100
v 0.000002 37.855602 1.585100
v 0.000002 37.234299 4.050400
v 0.000002 35.997700 0.675100
v 0.000002 37.234299 4.050400
v 0.000002 37.855602 1.585100
v 0.000002 35.997700 0.675100
v 0.000002 43.150600 2.503100
v 0.000002 43.168602 5.171500
v 0.000002 41.270802 2.319900
v 0.000002 43.168602 5.171500
v 0.000002 43.150600 2.503100
v 0.000002 41.270802 2.319900
v 0.000002 46.711201 5.310900
v 0.000002 46.534000 2.568800
v 0.000002 49.019199 5.034100
v 0.000002 46.534000 2.568800
v 0.000002 46.711201 5.310900
v 0.000002 49.019199 5.034100
v 0.000002 54.007500 0.706900
v 0.000002 55.795700 3.032800
v 0.000002 52.014202 1.824100
v 0.000002 55.795700 3.032800
v 0.000002 54.007500 0.706900
v 0.000002 52.014202 1.824100
vt 0.479338 0.710553
vt 0.227369 0.710553
vt 0.227369 0.490081
vt 0.227369 0.710553
vt 0.479338 0.710553
vt 0.227369 0.490081
vt 0.920283 0.726300
vt 0.896661 0.773546
vt 0.857291 0.663309
vt 0.896661 0.773546
vt 0.920283 0.726300
vt 0.857291 0.663309
vt 0.605322 0.505828
vt 0.605322 0.710553
vt 0.518708 0.537325
vt 0.605322 0.710553
vt 0.605322 0.505828
vt 0.518708 0.537325
vt 0.518708 0.710553
vt 0.518708 0.537325
vt 0.605322 0.710553
vt 0.518708 0.537325
vt 0.518708 0.710553
vt 0.605322 0.710553
vt 0.896661 0.773546
vt 0.825795 0.742049
vt 0.857291 0.663309
vt 0.825795 0.742049
vt 0.896661 0.773546
vt 0.857291 0.663309
vt 0.778551 0.757797
vt 0.817921 0.631813
vt 0.739180 0.631813
vt 0.778551 0.757797
vt 0.739180 0.631813
vt 0.817921 0.631813
vt 0.479338 0.427088
vt 0.542330 0.332601
vt 0.518708 0.537325
vt 0.542330 0.332601
vt 0.479338 0.427088
vt 0.518708 0.537325
vt 0.723432 0.521577
vt 0.605322 0.505828
vt 0.676188 0.316853
vt 0.605322 0.505828
vt 0.723432 0.521577
vt 0.676188 0.316853
vt 0.597448 0.316853
vt 0.605322 0.505828
vt 0.542330 0.332601
vt 0.605322 0.505828
vt 0.597448 0.316853
vt 0.542330 0.332601
vt 0.117133 0.238111
vt 0.321858 0.238111
vt 0.321858 0.411341
vt 0.321858 0.238111
vt 0.117133 0.238111
vt 0.321858 0.411341
vt 0.597448 0.316853
vt 0.676188 0.316853
vt 0.605322 0.505828
vt 0.676188 0.316853
vt 0.597448 0.316853
vt 0.605322 0.505828
vt 0.857291 0.663309
vt 0.723432 0.521577
vt 0.833669 0.395593
vt 0.723432 0.521577
vt 0.857291 0.663309
vt 0.833669 0.395593
vt 0.676188 0.316853
vt 0.715558 0.332601
vt 0.723432 0.521577
vt 0.715558 0.332601
vt 0.676188 0.316853
vt 0.723432 0.521577
vt 0.117133 0.238111
vt 0.321858 0.238111
vt 0.321858 0.411341
vt 0.321858 0.238111
vt 0.117133 0.238111
vt 0.321858 0.411341
vt 0.715558 0.332601
vt 0.786425 0.364097
vt 0.723432 0.521577
vt 0.786425 0.364097
vt 0.715558 0.332601
vt 0.723432 0.521577
vt 0.786425 0.364097
vt 0.833669 0.395593
vt 0.723432 0.521577
vt 0.833669 0.395593
vt 0.786425 0.364097
vt 0.723432 0.521577
vt 0.117133 0.238111
vt 0.321858 0.238111
vt 0.321858 0.411341
vt 0.321858 0.238111
vt 0.117133 0.238111
vt 0.321858 0.411341
vt 0.896661 0.458584
vt 0.857291 0.663309
vt 0.833669 0.395593
vt 0.857291 0.663309
vt 0.896661 0.458584
vt 0.833669 0.395593
vt 0.896661 0.458584
vt 0.936031 0.537325
vt 0.857291 0.663309
vt 0.936031 0.537325
vt 0.896661 0.458584
vt 0.857291 0.663309
vt 0.227369 0.490081
vt 0.337606 0.490081
vt 0.337606 0.710553
vt 0.337606 0.490081
vt 0.227369 0.490081
vt 0.337606 0.710553
vt 0.983275 0.710553
vt 0.920283 0.726300
vt 0.936031 0.537325
vt 0.920283 0.726300
vt 0.983275 0.710553
vt 0.936031 0.537325
vt 0.479338 0.490081
vt 0.479338 0.710553
vt 0.227369 0.490081
vt 0.479338 0.710553
vt 0.479338 0.490081
vt 0.227369 0.490081
vt 0.203747 0.458584
vt 0.203747 0.553073
vt 0.022645 0.553073
vt 0.203747 0.553073
vt 0.203747 0.458584
vt 0.022645 0.553073
vt 0.117133 0.411341
vt 0.117133 0.238111
vt 0.321858 0.411341
vt 0.117133 0.238111
vt 0.117133 0.411341
vt 0.321858 0.411341
vt 0.117133 0.411341
vt 0.117133 0.238111
vt 0.321858 0.411341
vt 0.117133 0.238111
vt 0.117133 0.411341
vt 0.321858 0.411341
vt 0.117133 0.411341
vt 0.117133 0.238111
vt 0.321858 0.411341
vt 0.117133 0.238111
vt 0.117133 0.411341
vt 0.321858 0.411341
vt 0.565952 0.190867
vt 0.565952 0.269608
vt 0.526582 0.222364
vt 0.565952 0.269608
vt 0.565952 0.190867
vt 0.715558 0.175120
vt 0.337606 0.931026
vt 0.353354 0.994017
vt 0.439968 0.994017
vt 0.353354 0.994017
vt 0.337606 0.931026
vt 0.439968 0.994017
vt 0.479338 0.931026
vt 0.337606 0.931026
vt 0.439968 0.994017
vt 0.479338 0.931026
vt 0.439968 0.994017
vt 0.337606 0.931026
vt 0.022645 0.458584
vt 0.203747 0.458584
vt 0.022645 0.553073
vt 0.203747 0.458584
vt 0.022645 0.458584
vt 0.022645 0.553073
vt 0.101385 0.427088
vt 0.022645 0.427088
vt 0.022645 0.222364
vt 0.101385 0.222364
vt 0.101385 0.427088
vt 0.022645 0.222364
vt 0.345480 0.458584
vt 0.345480 0.175120
vt 0.432094 0.238111
vt 0.432094 0.238111
vt 0.432094 0.458584
vt 0.345480 0.458584
vt 0.022645 0.427088
vt 0.101385 0.427088
vt 0.022645 0.222364
vt 0.101385 0.427088
vt 0.101385 0.222364
vt 0.022645 0.222364
vt 0.345480 0.175120
vt 0.432094 0.238111
vt 0.479338 0.159371
vt 0.432094 0.238111
vt 0.345480 0.175120
vt 0.479338 0.159371
vt 0.117133 0.175120
vt 0.101385 0.222364
vt 0.022645 0.222364
vt 0.101385 0.222364
vt 0.117133 0.175120
vt 0.022645 0.222364
vt 0.337606 0.931026
vt 0.542330 0.805041
vt 0.376976 0.773546
vt 0.376976 0.773546
vt 0.164377 0.726300
vt 0.337606 0.931026
vt 0.132881 0.994017
vt 0.172251 0.931026
vt 0.077763 0.994017
vt 0.172251 0.931026
vt 0.132881 0.994017
vt 0.077763 0.994017
vt 0.455716 0.017640
vt 0.345480 0.175120
vt 0.479338 0.159371
vt 0.455716 0.017640
vt 0.266740 0.017640
vt 0.345480 0.175120
vt 0.345480 0.175120
vt 0.345480 0.458584
vt 0.432094 0.238111
vt 0.432094 0.458584
vt 0.432094 0.238111
vt 0.345480 0.458584
vt 0.605322 0.505828
vt 0.518708 0.537325
vt 0.542330 0.332601
vt 0.920283 0.726300
vt 0.857291 0.663309
vt 0.936031 0.537325
vt 0.227369 0.710553
vt 0.227369 0.490081
vt 0.337606 0.710553
vt 0.518708 0.537325
vt 0.605322 0.505828
vt 0.542330 0.332601
vt 0.857291 0.663309
vt 0.920283 0.726300
vt 0.936031 0.537325
vt 0.227369 0.490081
vt 0.227369 0.710553
vt 0.337606 0.710553
vt 0.660440 0.994017
vt 0.715558 0.994017
vt 0.715558 0.931026
vt 0.471464 0.206616
vt 0.550204 0.238111
vt 0.471464 0.269608
vt 0.699810 0.868034
vt 0.715558 0.931026
vt 0.660440 0.994017
vt 0.455716 0.017640
vt 0.479338 0.159371
vt 0.345480 0.175120
vt 0.999023 0.868034
vt 0.802173 0.931026
vt 0.999023 0.931026
vt 0.999023 0.868034
vt 0.999023 0.931026
vt 0.802173 0.931026
vt 0.802173 0.931026
vt 0.786425 0.868034
vt 0.999023 0.868034
vt 0.999023 0.805041
vt 0.999023 0.868034
vt 0.786425 0.868034
vt 0.786425 0.868034
vt 0.786425 0.805041
vt 0.999023 0.805041
vt 0.786425 0.868034
vt 0.999023 0.805041
vt 0.786425 0.805041
vt 0.786425 0.805041
vt 0.707684 0.805041
vt 0.786425 0.868034
vt 0.699810 0.868034
vt 0.786425 0.868034
vt 0.707684 0.805041
vt 0.707684 0.805041
vt 0.542330 0.805041
vt 0.699810 0.868034
vt 0.573826 0.931026
vt 0.699810 0.868034
vt 0.542330 0.805041
vt 0.542330 0.805041
vt 0.337606 0.931026
vt 0.573826 0.931026
vt 0.542330 0.805041
vt 0.573826 0.931026
vt 0.337606 0.931026
vt 0.337606 0.931026
vt 0.376976 0.773546
vt 0.542330 0.805041
vt 0.786425 0.805041
vt 0.786425 0.868034
vt 0.707684 0.805041
vt 0.699810 0.868034
vt 0.707684 0.805041
vt 0.786425 0.868034
vt 0.786425 0.868034
vt 0.802173 0.931026
vt 0.699810 0.868034
vt 0.715558 0.931026
vt 0.699810 0.868034
vt 0.802173 0.931026
vt 0.802173 0.931026
vt 0.699810 0.868034
vt 0.715558 0.931026
vt 0.660440 0.994017
vt 0.715558 0.931026
vt 0.699810 0.868034
vt 0.699810 0.868034
vt 0.573826 0.931026
vt 0.660440 0.994017
vt 0.565952 0.269608
vt 0.715558 0.175120
vt 0.715558 0.285357
vt 0.873039 0.316853
vt 0.715558 0.285357
vt 0.715558 0.175120
vt 0.715558 0.175120
vt 0.873039 0.159371
vt 0.873039 0.316853
vt 0.951779 0.316853
vt 0.873039 0.316853
vt 0.873039 0.159371
vt 0.873039 0.159371
vt 0.951779 0.159371
vt 0.951779 0.316853
vt 0.999023 0.238111
vt 0.951779 0.316853
vt 0.951779 0.159371
vt 0.959653 0.080631
vt 0.904535 0.127876
vt 0.904535 0.017640
vt 0.699810 0.017640
vt 0.904535 0.017640
vt 0.904535 0.127876
vt 0.904535 0.127876
vt 0.699810 0.127876
vt 0.699810 0.017640
vt 0.565952 0.017640
vt 0.699810 0.017640
vt 0.699810 0.127876
vt 0.699810 0.127876
vt 0.565952 0.127876
vt 0.565952 0.017640
vt 0.502960 0.080631
vt 0.565952 0.017640
vt 0.565952 0.127876
vt 0.022645 0.222364
vt 0.117133 0.175120
vt 0.006897 0.017640
vt 0.266740 0.017640
vt 0.006897 0.017640
vt 0.117133 0.175120
vt 0.117133 0.175120
vt 0.266740 0.175120
vt 0.266740 0.017640
vt 0.345480 0.175120
vt 0.266740 0.017640
vt 0.266740 0.175120
vt 0.266740 0.175120
vt 0.266740 0.017640
vt 0.345480 0.175120
vt 0.455716 0.017640
vt 0.345480 0.175120
vt 0.266740 0.017640
vt 0.376976 0.773546
vt 0.337606 0.931026
vt 0.164377 0.726300
vt 0.172251 0.931026
vt 0.164377 0.726300
vt 0.337606 0.931026
vt 0.337606 0.931026
vt 0.164377 0.726300
vt 0.172251 0.931026
vt 0.077763 0.994017
vt 0.172251 0.931026
vt 0.164377 0.726300
vt 0.164377 0.726300
vt 0.077763 0.663309
vt 0.077763 0.994017
vt -0.000977 0.805041
vt 0.077763 0.994017
vt 0.077763 0.663309
vt 0.999023 0.805041
vt 0.786425 0.868034
vt 0.999023 0.868034
vt 0.802173 0.931026
vt 0.999023 0.868034
vt 0.786425 0.868034
vt 0.786425 0.868034
vt 0.699810 0.868034
vt 0.802173 0.931026
vt 0.707684 0.805041
vt 0.699810 0.868034
vt 0.542330 0.805041
vt 0.573826 0.931026
vt 0.542330 0.805041
vt 0.699810 0.868034
vt 0.699810 0.868034
vt 0.660440 0.994017
vt 0.573826 0.931026
vt 0.266740 0.175120
vt 0.117133 0.175120
vt 0.266740 0.017640
vt 0.006897 0.017640
vt 0.266740 0.017640
vt 0.117133 0.175120
vt 0.117133 0.175120
vt 0.022645 0.222364
vt 0.006897 0.017640
vt 0.172251 0.931026
vt 0.077763 0.994017
vt 0.164377 0.726300
vt 0.077763 0.663309
vt 0.164377 0.726300
vt 0.077763 0.994017
vt 0.077763 0.994017
vt -0.000977 0.805041
vt 0.077763 0.663309
vt 0.707684 0.553073
vt 0.707684 0.694805
vt 0.621070 0.694805
vt 0.707684 0.694805
vt 0.707684 0.553073
vt 0.621070 0.694805
vt 0.707684 0.553073
vt 0.707684 0.694805
vt 0.621070 0.694805
vt 0.707684 0.694805
vt 0.707684 0.553073
vt 0.621070 0.694805
vt 0.621070 0.694805
vt 0.621070 0.553073
vt 0.707684 0.553073
vt 0.621070 0.553073
vt 0.621070 0.694805
vt 0.707684 0.553073
vt 0.707684 0.553073
vt 0.707684 0.694805
vt 0.621070 0.694805
vt 0.707684 0.694805
vt 0.707684 0.553073
vt 0.621070 0.694805
vt 0.621070 0.553073
vt 0.707684 0.553073
vt 0.621070 0.694805
vt 0.707684 0.553073
vt 0.621070 0.553073
vt 0.621070 0.694805
vt 0.621070 0.553073
vt 0.707684 0.553073
vt 0.621070 0.694805
vt 0.707684 0.553073
vt 0.621070 0.553073
vt 0.621070 0.694805
vt 0.707684 0.694805
vt 0.621070 0.694805
vt 0.707684 0.553073
vt 0.621070 0.694805
vt 0.707684 0.694805
vt 0.707684 0.553073
vt 0.621070 0.553073
vt 0.707684 0.553073
vt 0.621070 0.694805
vt 0.707684 0.553073
vt 0.621070 0.553073
vt 0.621070 0.694805
vn 1.0000 -0.0000 0.0000
vn -1.0000 0.0000 0.0000
vn 0.0006 0.9865 -0.1638
vn -0.0006 0.9865 -0.1638
vn -1.0000 0.0001 -0.0029
vn 1.0000 -0.0001 0.0029
vn 0.0000 0.0571 -0.9984
vn 0.0000 0.1556 -0.9878
vn -1.0000 -0.0001 -0.0014
vn 1.0000 0.0001 0.0014
vn 1.0000 -0.0000 0.0026
vn 1.0000 0.0001 0.0025
vn 1.0000 -0.0008 0.0019
vn 1.0000 -0.0000 0.0023
vn -1.0000 0.0000 -0.0026
vn -1.0000 -0.0001 -0.0025
vn -0.8754 -0.0067 0.4833
vn -0.8791 -0.0229 0.4760
vn -0.8578 -0.0131 -0.5139
vn -0.8481 -0.0273 -0.5292
vn -1.0000 0.0008 -0.0019
vn -1.0000 0.0000 -0.0023
vn 0.0000 0.6969 0.7172
vn 0.0000 -0.3593 0.9332
vn 0.6316 0.6585 0.4092
vn 0.8580 -0.0131 -0.5135
vn -0.7579 0.1088 0.6432
vn 0.7579 0.1088 0.6432
vn 0.7893 0.0961 0.6064
vn 0.7584 -0.1020 -0.6437
vn 0.7658 -0.0993 -0.6354
vn -0.7658 -0.0993 -0.6354
vn -0.7651 -0.0268 -0.6433
vn -0.7758 -0.0311 -0.6303
vn -0.7522 0.1521 -0.6411
vn -0.9187 -0.0473 0.3922
vn -0.9221 -0.0346 0.3854
vn 0.9221 -0.0346 0.3854
vn 0.8754 -0.0067 0.4833
vn 0.7651 -0.0268 -0.6433
vn 0.7758 -0.0311 -0.6303
vn 0.7612 0.0320 0.6477
vn 0.7760 0.0367 0.6296
vn -0.7760 0.0367 0.6296
vn -0.6316 0.6585 0.4091
vn -0.9837 -0.1675 -0.0648
vn 0.0000 0.2101 -0.9777
vn 0.0000 0.2329 -0.9725
vn 0.0000 -0.6818 -0.7316
vn 0.0000 0.9859 -0.1675
vn 0.0000 0.0213 0.9998
vn -0.0000 0.1481 0.9890
vn 0.0000 -0.9414 0.3374
vn -0.9030 -0.1228 -0.4118
vn -0.8502 -0.0404 -0.5250
vn -0.8344 -0.0546 -0.5485
vn -0.8340 -0.0063 -0.5517
vn 0.8346 -0.0063 -0.5508
vn 0.8485 -0.0270 -0.5285
vn 0.8791 -0.0229 0.4760
vn 0.8027 -0.1096 0.5862
vn -0.8027 -0.1096 0.5862
vn -0.8230 0.3078 0.4775
vn -0.9396 -0.1423 0.3114
vn -0.8474 -0.4132 0.3335
vn -0.7584 -0.1020 -0.6437
vn -0.7893 0.0961 0.6064
vn -0.7612 0.0320 0.6477
vn 0.7522 0.1521 -0.6411
vn 0.9187 -0.0473 0.3922
vn 0.9837 -0.1675 -0.0648
vn 0.8350 -0.0545 -0.5475
vn 0.8507 -0.0404 -0.5241
vn 0.9033 -0.1226 -0.4112
vn 0.8230 0.3078 0.4775
vn 0.9396 -0.1423 0.3114
vn 0.8474 -0.4132 0.3335
o base
usemtl Brush.066
f 1/1/1 2/2/1 3/3/1
f 4/4/2 5/5/2 6/6/2
f 7/7/1 8/8/1 9/9/1
f 10/10/2 11/11/2 12/12/2
f 13/13/1 14/14/1 15/15/1
f 16/16/2 17/17/2 18/18/2
f 19/19/1 20/20/1 21/21/1
f 22/22/2 23/23/2 24/24/2
f 25/25/1 26/26/1 27/27/1
f 28/28/2 29/29/2 30/30/2
f 31/31/3 32/32/3 33/33/3
f 34/34/4 35/35/4 36/36/4
f 37/37/1 38/38/1 39/39/1
f 40/40/2 41/41/2 42/42/2
f 43/43/1 44/44/1 45/45/1
f 46/46/2 47/47/2 48/48/2
f 49/49/1 50/50/1 51/51/1
f 52/52/2 53/53/2 54/54/2
f 55/55/1 56/56/1 57/57/1
f 58/58/2 59/59/2 60/60/2
f 61/61/1 62/62/1 63/63/1
f 64/64/2 65/65/2 66/66/2
f 67/67/1 68/68/1 69/69/1
f 70/70/2 71/71/2 72/72/2
f 73/73/1 74/74/1 75/75/1
f 76/76/2 77/77/2 78/78/2
f 79/79/1 80/80/1 81/81/1
f 82/82/2 83/83/2 84/84/2
f 85/85/1 86/86/1 87/87/1
f 88/88/2 89/89/2 90/90/2
f 91/91/1 92/92/1 93/93/1
f 94/94/2 95/95/2 96/96/2
f 97/97/1 98/98/1 99/99/1
f 100/100/2 101/101/2 102/102/2
f 103/103/1 104/104/1 105/105/1
f 106/106/2 107/107/2 108/108/2
f 109/109/1 110/110/1 111/111/1
f 112/112/2 113/113/2 114/114/2
f 115/115/1 116/116/1 117/117/1
f 118/118/2 119/119/2 120/120/2
f 121/121/1 122/122/1 123/123/1
f 124/124/2 125/125/2 126/126/2
f 127/127/1 128/128/1 129/129/1
f 130/130/2 131/131/2 132/132/2
f 133/133/5 134/134/5 135/135/5
f 136/136/6 137/137/6 138/138/6
f 139/139/1 140/140/1 141/141/1
f 142/142/2 143/143/2 144/144/2
f 145/145/1 146/146/1 147/147/1
f 148/148/2 149/149/2 150/150/2
f 151/151/1 152/152/1 153/153/1
f 154/154/2 155/155/2 156/156/2
f 157/157/7 158/158/7 159/159/7
f 160/160/8 161/161/8 162/162/8
f 163/163/2 164/164/2 165/165/2
f 166/166/1 167/167/1 168/168/1
f 169/169/2 170/170/2 171/171/2
f 172/172/1 173/173/1 174/174/1
f 175/175/9 176/176/9 177/177/9
f 178/178/10 179/179/10 180/180/10
f 181/181/11 182/182/11 183/183/11
f 184/184/12 185/185/12 186/186/12
f 187/187/13 188/188/13 189/189/13
f 190/190/14 191/191/14 192/192/14
f 193/193/15 194/194/15 195/195/15
f 196/196/16 197/197/16 198/198/16
f 199/199/2 200/200/2 201/201/2
f 202/202/1 203/203/1 204/204/1
f 205/205/1 206/206/1 207/207/1
f 208/208/2 209/209/2 210/210/2
f 211/211/17 212/212/17 213/213/17
f 214/214/18 215/215/18 216/216/18
f 217/217/2 218/218/2 219/219/2
f 220/220/1 221/221/1 222/222/1
f 223/223/19 224/224/19 225/225/19
f 226/226/20 227/227/20 228/228/20
f 229/229/21 230/230/21 231/231/21
f 232/232/22 233/233/22 234/234/22
f 235/235/1 236/236/1 237/237/1
f 238/238/1 239/239/1 240/240/1
f 241/241/1 242/242/1 243/243/1
f 244/244/2 245/245/2 246/246/2
f 247/247/2 248/248/2 249/249/2
f 250/250/2 251/251/2 252/252/2
f 253/253/23 254/254/23 255/255/23
f 256/256/24 257/257/24 258/258/24
f 259/259/25 260/260/25 261/261/25
f 262/262/26 263/263/26 264/264/26
f 265/265/27 266/266/27 267/267/27
f 268/268/28 269/269/28 270/270/28
f 271/271/29 272/272/29 273/273/29
f 274/274/30 275/275/30 276/276/30
f 277/277/31 278/278/31 279/279/31
f 280/280/32 281/281/32 282/282/32
f 283/283/33 284/284/33 285/285/33
f 286/286/34 287/287/34 288/288/34
f 289/289/35 290/290/35 291/291/35
f 292/292/36 293/293/36 294/294/36
f 295/295/37 296/296/37 297/297/37
f 298/298/38 299/299/38 300/300/38
f 301/301/39 302/302/39 303/303/39
f 304/304/40 305/305/40 306/306/40
f 307/307/41 308/308/41 309/309/41
f 310/310/42 311/311/42 312/312/42
f 313/313/43 314/314/43 315/315/43
f 316/316/44 317/317/44 318/318/44
f 319/319/45 320/320/45 321/321/45
f 322/322/46 323/323/46 324/324/46
f 325/325/8 326/326/8 327/327/8
f 328/328/47 329/329/47 330/330/47
f 331/331/47 332/332/47 333/333/47
f 334/334/48 335/335/48 336/336/48
f 337/337/48 338/338/48 339/339/48
f 340/340/49 341/341/49 342/342/49
f 343/343/50 344/344/50 345/345/50
f 346/346/51 347/347/51 348/348/51
f 349/349/51 350/350/51 351/351/51
f 352/352/52 353/353/52 354/354/52
f 355/355/52 356/356/52 357/357/52
f 358/358/53 359/359/53 360/360/53
f 361/361/54 362/362/54 363/363/54
f 364/364/55 365/365/55 366/366/55
f 367/367/56 368/368/56 369/369/56
f 370/370/57 371/371/57 372/372/57
f 373/373/58 374/374/58 375/375/58
f 376/376/59 377/377/59 378/378/59
f 379/379/60 380/380/60 381/381/60
f 382/382/61 383/383/61 384/384/61
f 385/385/62 386/386/62 387/387/62
f 388/388/63 389/389/63 390/390/63
f 391/391/64 392/392/64 393/393/64
f 394/394/65 395/395/65 396/396/65
f 397/397/66 398/398/66 399/399/66
f 400/400/67 401/401/67 402/402/67
f 403/403/68 404/404/68 405/405/68
f 406/406/69 407/407/69 408/408/69
f 409/409/70 410/410/70 411/411/70
f 412/412/71 413/413/71 414/414/71
f 415/415/72 416/416/72 417/417/72
f 418/418/73 419/419/73 420/420/73
f 421/421/74 422/422/74 423/423/74
f 424/424/75 425/425/75 426/426/75
f 427/427/76 428/428/76 429/429/76
f 430/430/77 431/431/77 432/432/77
f 433/433/1 434/434/1 435/435/1
f 436/436/2 437/437/2 438/438/2
f 439/439/1 440/440/1 441/441/1
f 442/442/2 443/443/2 444/444/2
f 445/445/1 446/446/1 447/447/1
f 448/448/2 449/449/2 450/450/2
f 451/451/1 452/452/1 453/453/1
f 454/454/2 455/455/2 456/456/2
f 457/457/1 458/458/1 459/459/1
f 460/460/2 461/461/2 462/462/2
f 463/463/1 464/464/1 465/465/1
f 466/466/2 467/467/2 468/468/2
f 469/469/1 470/470/1 471/471/1
f 472/472/2 473/473/2 474/474/2
f 475/475/1 476/476/1 477/477/1
f 478/478/2 479/479/2 480/480/2
