mtllib waywardwind.mtl
v -0.000004 -21.182404 -12.388545
v -0.000004 -21.182404 -13.599545
v -0.000004 -18.739704 -10.852245
v -0.000004 -21.182404 -13.599545
v -0.000004 -21.182404 -12.388545
v -0.000004 -18.739704 -10.852245
v -0.000004 -21.182404 -13.599545
v -0.000004 -21.182404 -12.388545
v -0.000004 -22.463305 -13.391346
v -0.000004 -21.182404 -12.388545
v -0.000004 -21.182404 -13.599545
v -0.000004 -22.463305 -13.391346
v -0.000005 -32.246304 -11.062245
v -0.000005 -26.832104 -11.062245
v -0.000005 -26.832104 -14.925845
v -0.000005 -32.246304 -14.925845
v -0.000005 -32.246304 -11.062245
v -0.000005 -26.832104 -14.925845
v -0.000005 -32.246304 -11.062245
v -0.000005 -32.246304 -14.925845
v -0.000005 -26.832104 -14.925845
v -0.000005 -26.832104 -11.062245
v -0.000005 -32.246304 -11.062245
v -0.000005 -26.832104 -14.925845
v -1.479606 -39.531803 -12.994045
v -1.479606 -36.513004 -12.994045
v 1.479594 -36.513004 -12.994045
v -1.479606 -36.513004 -12.994045
v -1.479606 -39.531803 -12.994045
v 1.479594 -36.513004 -12.994045
v 1.479594 -39.531803 -12.994045
v -1.479606 -39.531803 -12.994045
v 1.479594 -36.513004 -12.994045
v -1.479606 -39.531803 -12.994045
v 1.479594 -39.531803 -12.994045
v 1.479594 -36.513004 -12.994045
v -1.479605 -28.219002 -12.994045
v -1.479604 -25.200203 -12.994045
v 1.479595 -25.200203 -12.994045
v -1.479604 -25.200203 -12.994045
v -1.479605 -28.219002 -12.994045
v 1.479595 -25.200203 -12.994045
v 1.479595 -28.219002 -12.994045
v -1.479605 -28.219002 -12.994045
v 1.479595 -25.200203 -12.994045
v -1.479605 -28.219002 -12.994045
v 1.479595 -28.219002 -12.994045
v 1.479595 -25.200203 -12.994045
v -1.479606 -33.872604 -12.994045
v -1.479605 -30.853802 -12.994045
v 1.479595 -30.853802 -12.994045
v -1.479605 -30.853802 -12.994045
v -1.479606 -33.872604 -12.994045
v 1.479595 -30.853802 -12.994045
v 1.479594 -33.872604 -12.994045
v -1.479606 -33.872604 -12.994045
v 1.479595 -30.853802 -12.994045
v -1.479606 -33.872604 -12.994045
v 1.479594 -33.872604 -12.994045
v 1.479595 -30.853802 -12.994045
v -0.000006 -37.896103 -11.062245
v -0.000005 -32.481903 -11.062245
v -0.000005 -32.481903 -14.925845
v -0.000006 -37.896103 -14.925845
v -0.000006 -37.896103 -11.062245
v -0.000005 -32.481903 -14.925845
v -0.000006 -37.896103 -11.062245
v -0.000006 -37.896103 -14.925845
v -0.000005 -32.481903 -14.925845
v -0.000005 -32.481903 -11.062245
v -0.000006 -37.896103 -11.062245
v -0.000005 -32.481903 -14.925845
v -0.000004 -22.463305 -12.596745
v -0.000004 -22.463305 -13.391346
v -0.000004 -21.182404 -12.388545
v -0.000004 -22.463305 -13.391346
v -0.000004 -22.463305 -12.596745
v -0.000004 -21.182404 -12.388545
v -0.000004 -21.182404 -11.062245
v -0.000004 -21.182404 -12.388545
v -0.000004 -22.463305 -12.596745
v -0.000004 -21.182404 -12.388545
v -0.000004 -21.182404 -11.062245
v -0.000004 -22.463305 -12.596745
v -0.000004 -17.380304 -11.658245
v -0.000004 -16.841003 -12.994045
v -0.000004 -17.380304 -14.329844
v -0.000004 -21.182404 -11.062245
v -0.000004 -22.463305 -12.596745
v -0.000005 -26.596605 -11.062245
v -0.000005 -26.596605 -14.925845
v -0.000005 -26.596605 -11.062245
v -0.000004 -22.463305 -12.596745
v -0.000004 -22.463305 -12.596745
v -0.000004 -22.463305 -13.391346
v -0.000005 -26.596605 -14.925845
v -0.000004 -21.182404 -14.925845
v -0.000005 -26.596605 -14.925845
v -0.000004 -22.463305 -13.391346
v -0.000004 -22.463305 -13.391346
v -0.000004 -21.182404 -13.599545
v -0.000004 -21.182404 -14.925845
v -0.000004 -21.182404 -13.599545
v -0.000004 -22.463305 -13.391346
v -0.000004 -21.182404 -14.925845
v -0.000005 -26.596605 -14.925845
v -0.000004 -21.182404 -14.925845
v -0.000004 -22.463305 -13.391346
v -0.000004 -22.463305 -13.391346
v -0.000004 -22.463305 -12.596745
v -0.000005 -26.596605 -14.925845
v -0.000005 -26.596605 -11.062245
v -0.000005 -26.596605 -14.925845
v -0.000004 -22.463305 -12.596745
v -0.000004 -22.463305 -12.596745
v -0.000004 -21.182404 -11.062245
v -0.000005 -26.596605 -11.062245
v -0.000004 -21.182404 -13.599545
v -0.000004 -18.739704 -14.791545
v -0.000004 -18.739704 -10.852245
v -0.000004 -17.380304 -11.658245
v -0.000004 -18.739704 -10.852245
v -0.000004 -18.739704 -14.791545
v -0.000004 -18.739704 -14.791545
v -0.000004 -17.380304 -14.329844
v -0.000004 -17.380304 -11.658245
v -0.000004 -16.841003 -12.994045
v -0.000004 -17.380304 -11.658245
v -0.000004 -17.380304 -14.329844
v -0.000004 -17.380304 -14.329844
v -0.000004 -18.739704 -14.791545
v -0.000004 -17.380304 -11.658245
v -0.000004 -18.739704 -10.852245
v -0.000004 -17.380304 -11.658245
v -0.000004 -18.739704 -14.791545
v -0.000004 -18.739704 -14.791545
v -0.000004 -21.182404 -13.599545
v -0.000004 -18.739704 -10.852245
v -0.000006 -38.374805 -12.994045
v -0.000007 -48.838005 -12.994045
v -0.000006 -37.163807 -11.058445
v -0.000006 -38.771206 -9.541045
v -0.000006 -37.163807 -11.058445
v -0.000007 -48.838005 -12.994045
v -0.000007 -48.838005 -12.994045
v -0.000007 -44.121002 -9.078344
v -0.000006 -38.771206 -9.541045
v -0.000007 -44.121002 -16.909746
v -0.000007 -48.838005 -12.994045
v -0.000006 -38.771206 -16.447044
v -0.000006 -37.163807 -14.929645
v -0.000006 -38.771206 -16.447044
v -0.000007 -48.838005 -12.994045
v -0.000007 -48.838005 -12.994045
v -0.000006 -38.374805 -12.994045
v -0.000006 -37.163807 -14.929645
v -0.000007 -44.121002 -9.078344
v -0.000007 -48.838005 -12.994045
v -0.000006 -38.771206 -9.541045
v -0.000006 -37.163807 -11.058445
v -0.000006 -38.771206 -9.541045
v -0.000007 -48.838005 -12.994045
v -0.000007 -48.838005 -12.994045
v -0.000006 -38.374805 -12.994045
v -0.000006 -37.163807 -11.058445
v -0.000006 -38.374805 -12.994045
v -0.000007 -48.838005 -12.994045
v -0.000006 -37.163807 -14.929645
v -0.000006 -38.771206 -16.447044
v -0.000006 -37.163807 -14.929645
v -0.000007 -48.838005 -12.994045
v -0.000007 -48.838005 -12.994045
v -0.000007 -44.121002 -16.909746
v -0.000006 -38.771206 -16.447044
v -0.000001 -14.280001 -13.121000
v -0.000001 -18.125299 -12.971701
v -0.000001 -16.002501 -14.959000
v -0.000001 -18.125299 -12.971701
v -0.000001 -14.280001 -13.121000
v -0.000001 -16.002501 -14.959000
v -0.000001 -14.280001 -13.121000
v -0.000001 -18.125299 -12.971701
v -0.000001 -16.402800 -11.131701
v -0.000001 -18.125299 -12.971701
v -0.000001 -14.280001 -13.121000
v -0.000001 -16.402800 -11.131701
vt 0.781543 0.157418
vt 0.805165 0.047182
vt 0.860283 0.377891
vt 0.805165 0.047182
vt 0.781543 0.157418
vt 0.860283 0.377891
vt 0.805165 0.047182
vt 0.781543 0.157418
vt 0.742172 0.023560
vt 0.781543 0.157418
vt 0.805165 0.047182
vt 0.742172 0.023560
vt 0.009889 0.023560
vt 0.009889 0.992064
vt 0.253984 0.992064
vt 0.253984 0.023560
vt 0.009889 0.023560
vt 0.253984 0.992064
vt 0.253984 0.023560
vt 0.009889 0.023560
vt 0.009889 0.992064
vt 0.253984 0.992064
vt 0.253984 0.023560
vt 0.009889 0.992064
vt 0.978393 0.795214
vt 0.978393 0.992064
vt 0.789417 0.992064
vt 0.978393 0.992064
vt 0.978393 0.795214
vt 0.789417 0.992064
vt 0.789417 0.795214
vt 0.978393 0.795214
vt 0.789417 0.992064
vt 0.978393 0.795214
vt 0.789417 0.795214
vt 0.789417 0.992064
vt 0.978393 0.795214
vt 0.978393 0.992064
vt 0.789417 0.992064
vt 0.978393 0.992064
vt 0.978393 0.795214
vt 0.789417 0.992064
vt 0.789417 0.795214
vt 0.978393 0.795214
vt 0.789417 0.992064
vt 0.978393 0.795214
vt 0.789417 0.795214
vt 0.789417 0.992064
vt 0.978393 0.795214
vt 0.978393 0.992064
vt 0.789417 0.992064
vt 0.978393 0.992064
vt 0.978393 0.795214
vt 0.789417 0.992064
vt 0.789417 0.795214
vt 0.978393 0.795214
vt 0.789417 0.992064
vt 0.978393 0.795214
vt 0.789417 0.795214
vt 0.789417 0.992064
vt 0.009889 0.023560
vt 0.009889 0.992064
vt 0.253984 0.992064
vt 0.253984 0.023560
vt 0.009889 0.023560
vt 0.253984 0.992064
vt 0.253984 0.023560
vt 0.009889 0.023560
vt 0.009889 0.992064
vt 0.253984 0.992064
vt 0.253984 0.023560
vt 0.009889 0.992064
vt 0.726424 0.102300
vt 0.742172 0.023560
vt 0.781543 0.157418
vt 0.742172 0.023560
vt 0.726424 0.102300
vt 0.781543 0.157418
vt 0.009889 0.992064
vt 0.088629 0.992064
vt 0.104377 0.755843
vt 0.175243 0.992064
vt 0.253984 0.992064
vt 0.159495 0.755843
vt 0.939023 0.354269
vt 0.978393 0.251906
vt 0.978393 0.110174
vt 0.009889 0.992064
vt 0.104377 0.755843
vt 0.009889 0.023560
vt 0.253984 0.023560
vt 0.009889 0.023560
vt 0.104377 0.755843
vt 0.104377 0.755843
vt 0.159495 0.755843
vt 0.253984 0.023560
vt 0.253984 0.992064
vt 0.253984 0.023560
vt 0.159495 0.755843
vt 0.159495 0.755843
vt 0.167369 0.992064
vt 0.253984 0.992064
vt 0.096503 0.992064
vt 0.104377 0.755843
vt 0.009889 0.992064
vt 0.009889 0.023560
vt 0.009889 0.992064
vt 0.104377 0.755843
vt 0.104377 0.755843
vt 0.159495 0.755843
vt 0.009889 0.023560
vt 0.253984 0.023560
vt 0.009889 0.023560
vt 0.159495 0.755843
vt 0.159495 0.755843
vt 0.253984 0.992064
vt 0.253984 0.023560
vt 0.805165 0.047182
vt 0.931149 0.023560
vt 0.860283 0.377891
vt 0.939023 0.354269
vt 0.860283 0.377891
vt 0.931149 0.023560
vt 0.931149 0.023560
vt 0.978393 0.110174
vt 0.939023 0.354269
vt 0.978393 0.251906
vt 0.939023 0.354269
vt 0.978393 0.110174
vt 0.978393 0.110174
vt 0.931149 0.023560
vt 0.939023 0.354269
vt 0.860283 0.377891
vt 0.939023 0.354269
vt 0.931149 0.023560
vt 0.931149 0.023560
vt 0.805165 0.047182
vt 0.860283 0.377891
vt 0.340598 0.511749
vt 0.915401 0.511749
vt 0.269732 0.755843
vt 0.356346 0.944820
vt 0.269732 0.755843
vt 0.915401 0.511749
vt 0.915401 0.511749
vt 0.655558 0.999938
vt 0.356346 0.944820
vt 0.655558 0.023560
vt 0.915401 0.511749
vt 0.356346 0.086552
vt 0.269732 0.275529
vt 0.356346 0.086552
vt 0.915401 0.511749
vt 0.915401 0.511749
vt 0.340598 0.511749
vt 0.269732 0.275529
vt 0.655558 0.023560
vt 0.915401 0.511749
vt 0.356346 0.086552
vt 0.269732 0.275529
vt 0.356346 0.086552
vt 0.915401 0.511749
vt 0.915401 0.511749
vt 0.340598 0.511749
vt 0.269732 0.275529
vt 0.340598 0.511749
vt 0.915401 0.511749
vt 0.269732 0.755843
vt 0.356346 0.944820
vt 0.269732 0.755843
vt 0.915401 0.511749
vt 0.915401 0.511749
vt 0.655558 0.999938
vt 0.356346 0.944820
vt 0.211621 0.694805
vt 0.148629 0.568820
vt 0.148629 0.694805
vt 0.148629 0.568820
vt 0.211621 0.694805
vt 0.148629 0.694805
vt 0.211621 0.694805
vt 0.148629 0.568820
vt 0.211621 0.568820
vt 0.148629 0.568820
vt 0.211621 0.694805
vt 0.211621 0.568820
vn 1.0000 -0.0000 0.0000
vn -1.0000 0.0000 0.0000
vn 0.0000 0.0000 -1.0000
vn 0.0000 0.0000 1.0000
o keychain
usemtl Brush.065
f 1/1/1 2/2/1 3/3/1
f 4/4/2 5/5/2 6/6/2
f 7/7/1 8/8/1 9/9/1
f 10/10/2 11/11/2 12/12/2
f 13/13/2 14/14/2 15/15/2
f 16/16/2 17/17/2 18/18/2
f 19/19/1 20/20/1 21/21/1
f 22/22/1 23/23/1 24/24/1
f 25/25/3 26/26/3 27/27/3
f 28/28/4 29/29/4 30/30/4
f 31/31/3 32/32/3 33/33/3
f 34/34/4 35/35/4 36/36/4
f 37/37/3 38/38/3 39/39/3
f 40/40/4 41/41/4 42/42/4
f 43/43/3 44/44/3 45/45/3
f 46/46/4 47/47/4 48/48/4
f 49/49/3 50/50/3 51/51/3
f 52/52/4 53/53/4 54/54/4
f 55/55/3 56/56/3 57/57/3
f 58/58/4 59/59/4 60/60/4
f 61/61/2 62/62/2 63/63/2
f 64/64/2 65/65/2 66/66/2
f 67/67/1 68/68/1 69/69/1
f 70/70/1 71/71/1 72/72/1
f 73/73/1 74/74/1 75/75/1
f 76/76/2 77/77/2 78/78/2
f 79/79/2 80/80/2 81/81/2
f 82/82/1 83/83/1 84/84/1
f 85/85/2 86/86/2 87/87/2
f 88/88/2 89/89/2 90/90/2
f 91/91/2 92/92/2 93/93/2
f 94/94/2 95/95/2 96/96/2
f 97/97/2 98/98/2 99/99/2
f 100/100/2 101/101/2 102/102/2
f 103/103/1 104/104/1 105/105/1
f 106/106/1 107/107/1 108/108/1
f 109/109/1 110/110/1 111/111/1
f 112/112/1 113/113/1 114/114/1
f 115/115/1 116/116/1 117/117/1
f 118/118/1 119/119/1 120/120/1
f 121/121/1 122/122/1 123/123/1
f 124/124/1 125/125/1 126/126/1
f 127/127/1 128/128/1 129/129/1
f 130/130/2 131/131/2 132/132/2
f 133/133/2 134/134/2 135/135/2
f 136/136/2 137/137/2 138/138/2
f 139/139/2 140/140/2 141/141/2
f 142/142/2 143/143/2 144/144/2
f 145/145/2 146/146/2 147/147/2
f 148/148/2 149/149/2 150/150/2
f 151/151/2 152/152/2 153/153/2
f 154/154/2 155/155/2 156/156/2
f 157/157/1 158/158/1 159/159/1
f 160/160/1 161/161/1 162/162/1
f 163/163/1 164/164/1 165/165/1
f 166/166/1 167/167/1 168/168/1
f 169/169/1 170/170/1 171/171/1
f 172/172/1 173/173/1 174/174/1
usemtl Brush.066
f 175/175/1 176/176/1 177/177/1
f 178/178/2 179/179/2 180/180/2
f 181/181/2 182/182/2 183/183/2
f 184/184/1 185/185/1 186/186/1
