# Blender v2.83.0 OBJ File: ''
# www.blender.org
mtllib waywardwind.mtl
o mesh.043_mesh.180
v -0.000004 -21.182404 -13.599545
v -0.000004 -21.182404 -12.388545
v -0.000004 -16.841003 -12.994045
v -0.000004 -17.380304 -14.329844
v -0.000004 -17.380304 -11.658245
v -0.000004 -18.739704 -14.791545
v -0.000004 -18.739704 -10.852245
v -0.000004 -21.182404 -12.388545
v -0.000004 -21.182404 -13.599545
v -0.000004 -16.841003 -12.994045
v -0.000004 -17.380304 -11.658245
v -0.000004 -18.739704 -10.852245
v -0.000004 -18.739704 -14.791545
v -0.000004 -17.380304 -14.329844
v -0.000001 -17.589600 -10.157900
v 3.399199 -13.610899 -13.865800
v -3.399200 -13.610899 -13.865800
v -1.644899 18.977600 -7.278400
v 1.644901 18.977600 -7.278400
v -2.190500 -11.034100 9.212000
v -0.013901 -12.324500 5.611600
v -0.013900 -5.510100 5.438400
v 1.135101 27.460798 -0.868200
v 1.280401 36.652901 -5.432400
v 1.280402 52.878399 -8.003200
v 0.000002 36.475597 -6.947800
v 0.000002 52.633499 -9.472899
v 0.000001 29.695099 -6.665100
v 0.000001 21.658001 -3.102500
v 0.000000 6.368300 -4.474600
v 0.000002 38.134399 -4.000600
v -1.135099 27.460798 -0.868200
v -1.280399 29.951900 -5.101800
v -2.443399 8.899400 -8.865500
v 2.443400 8.899400 -8.865500
v 3.399199 -13.610899 -13.865800
v -0.013900 9.749701 3.319600
v 2.021200 10.472500 7.575100
v -2.053100 10.472500 7.575100
v 1.597100 -1.861900 7.838000
v 2.160599 -11.034100 9.212000
v -1.628900 -1.861900 7.838000
v -0.013900 5.187500 4.679700
v -0.013900 -2.037200 5.398600
v -0.000001 -11.537900 -2.660400
v -3.877200 -6.983700 -12.278700
v -0.000000 -5.330900 -6.661100
v -0.000001 -17.589600 -10.157900
v -3.399200 -13.610899 -13.865800
v -1.280398 52.878399 -8.003200
v -1.280398 36.652901 -5.432400
v 3.877200 -6.983700 -12.278700
v 0.000002 53.121300 -6.535600
v 0.000001 30.208799 -3.538600
v 1.280401 29.951900 -5.101800
v 1.479595 -28.219002 -12.994045
v 1.479595 -25.200203 -12.994045
v -1.479605 -28.219002 -12.994045
v -1.479605 -28.219002 -12.994045
v 1.479595 -25.200203 -12.994045
v -1.479604 -25.200203 -12.994045
v -0.000004 -22.463305 -13.391346
v -0.000004 -21.182404 -12.388545
v -0.000004 -21.182404 -13.599545
v -0.000004 -21.182404 -14.925845
v -0.000005 -26.596605 -14.925845
v -0.000004 -22.463305 -12.596745
v -0.000005 -26.596605 -11.062245
v -0.000004 -21.182404 -11.062245
v -0.000005 -26.596605 -14.925845
v -0.000004 -22.463305 -13.391346
v -0.000004 -21.182404 -13.599545
v -0.000004 -21.182404 -12.388545
v -0.000004 -21.182404 -11.062245
v -0.000004 -22.463305 -12.596745
v -0.000005 -26.596605 -11.062245
v -0.000004 -21.182404 -14.925845
v -1.479604 -28.219002 -12.994045
v 1.479596 -28.219002 -12.994045
v -1.479604 -25.200203 -12.994045
v 1.479596 -25.200203 -12.994045
v -0.000001 -14.280001 -13.121000
v -0.000001 -16.002501 -14.959000
v -0.000001 -18.125299 -12.971701
v -0.000001 -16.402800 -11.131701
v -0.000001 -14.280001 -13.121000
v -0.000001 -16.402800 -11.131701
v -0.000001 -18.125299 -12.971701
v -0.000001 -16.002501 -14.959000
v -0.000006 -32.246304 -14.925845
v -0.000005 -26.832104 -11.062245
v -0.000005 -26.832104 -14.925845
v -0.000006 -32.246304 -11.062245
v -0.000005 -26.832104 -11.062245
v -0.000005 -32.246304 -14.925845
v -0.000005 -26.832104 -14.925845
v -0.000005 -32.246304 -11.062245
v -0.013900 -10.396900 3.405200
v -0.008000 6.914000 1.286400
v -0.002000 -7.099200 -1.449700
v 0.000000 7.415800 -1.443700
v 0.000001 11.607600 -2.084900
v 0.000001 15.275701 -3.674000
v 0.000000 6.368300 -4.474600
v -0.006000 -6.467900 1.284400
v -0.013900 6.519700 3.421100
v 0.000000 7.535300 -2.084900
v -0.013900 -5.510100 5.438400
v -0.013901 -12.324500 5.611600
v -0.013900 5.187500 4.679700
v -0.013900 9.749701 3.319600
v -0.000000 -7.378000 -2.660400
v -0.000001 -11.537900 -2.660400
v -0.000000 -5.330900 -6.661100
v -0.008000 -10.396900 3.405200
v -0.008000 -12.324500 5.611600
v 0.005901 7.415800 -1.443700
v 0.003901 -7.099200 -1.449700
v 0.005902 15.275701 -3.674000
v 0.005901 6.368300 -4.474600
v 0.005901 11.607600 -2.084900
v -0.002099 6.914000 1.286400
v -0.000099 -6.467900 1.284400
v 0.005901 7.535300 -2.084900
v -0.007999 9.749701 3.319600
v -0.007999 6.519700 3.421100
v -0.007999 5.187500 4.679700
v 0.005901 -5.330900 -6.661100
v 0.005900 -11.537900 -2.660400
v 0.005901 -7.378000 -2.660400
v -0.007999 -5.510100 5.438400
v 0.000002 38.134399 -4.000600
v 0.000002 35.688999 -3.859200
v 0.000003 65.250702 7.573100
v 0.000002 53.063602 -3.608300
v 0.000002 48.820000 -5.806800
v 0.000002 51.715500 -6.296700
v 0.000002 56.976597 -1.848000
v 0.000002 50.803398 -1.668800
v 0.000002 54.007500 0.706900
v 0.000002 48.421799 2.407500
v 0.000002 43.200401 9.948800
v 0.000002 43.150600 2.503100
v 0.000002 46.534000 2.568800
v 0.000002 43.987000 -0.844300
v 0.000002 36.348198 7.573100
v 0.000002 37.855602 1.585100
v 0.000001 32.594498 -1.477600
v 0.000003 61.658298 10.663700
v 0.000002 50.381203 11.026100
v 0.000002 54.445602 9.982700
v 0.000002 47.013901 9.944800
v 0.000002 39.731499 8.473201
v 0.000002 37.477299 -1.766300
v 0.000002 34.882500 -2.411500
v 0.000001 30.412001 2.453300
v 0.000002 35.997700 0.675100
v 0.000001 33.703701 4.275400
v 0.000002 34.653500 2.781900
v 0.000002 40.677402 4.695600
v 0.000002 41.270802 2.319900
v 0.000002 43.168602 5.171500
v 0.000002 49.019199 5.034100
v 0.000002 52.852501 4.633900
v 0.000002 55.795700 3.032800
v 0.000002 37.234299 4.050400
v 0.000002 46.711201 5.310900
v 0.000002 52.014202 1.824100
v 0.000002 54.445602 9.982700
v 0.000002 50.381203 11.026100
v 0.000002 56.976597 -1.848000
v 0.000003 65.250702 7.573100
v 0.000002 50.803398 -1.668800
v 0.000002 48.820000 -5.806800
v 0.000002 51.715500 -6.296700
v 0.000002 35.688999 -3.859200
v 0.000002 37.477299 -1.766300
v 0.000002 38.134399 -4.000600
v 0.000002 43.987000 -0.844300
v 0.000002 48.421799 2.407500
v 0.000002 43.150600 2.503100
v 0.000002 36.348198 7.573100
v 0.000002 37.855602 1.585100
v 0.000001 32.594498 -1.477600
v 0.000002 54.007500 0.706900
v 0.000003 61.658298 10.663700
v 0.000002 47.013901 9.944800
v 0.000002 43.200401 9.948800
v 0.000002 39.731499 8.473201
v 0.000002 41.270802 2.319900
v 0.000002 53.063602 -3.608300
v 0.000002 34.882500 -2.411500
v 0.000001 33.703701 4.275400
v 0.000001 30.412001 2.453300
v 0.000002 35.997700 0.675100
v 0.000002 34.653500 2.781900
v 0.000002 43.168602 5.171500
v 0.000002 40.677402 4.695600
v 0.000002 46.534000 2.568800
v 0.000002 49.019199 5.034100
v 0.000002 55.795700 3.032800
v 0.000002 52.852501 4.633900
v 0.000002 37.234299 4.050400
v 0.000002 46.711201 5.310900
v 0.000002 52.014202 1.824100
v -1.479606 -33.872604 -12.994045
v -1.479605 -30.853802 -12.994045
v 1.479594 -33.872604 -12.994045
v 1.479595 -30.853802 -12.994045
v -1.479606 -33.872604 -12.994044
v 1.479594 -33.872604 -12.994044
v -1.479605 -30.853802 -12.994044
v 1.479595 -30.853802 -12.994044
v -1.479606 -36.513004 -12.994045
v 1.479594 -39.531803 -12.994045
v 1.479594 -36.513004 -12.994045
v -1.479606 -39.531803 -12.994045
v 1.479594 -36.513004 -12.994045
v -1.479606 -36.513004 -12.994045
v -1.479606 -39.531803 -12.994045
v 1.479594 -39.531803 -12.994045
v -0.000006 -37.896103 -14.925846
v -0.000005 -32.481903 -11.062246
v -0.000005 -32.481903 -14.925846
v -0.000006 -37.896103 -11.062246
v -0.000005 -32.481903 -11.062246
v -0.000006 -37.896103 -14.925846
v -0.000005 -32.481903 -14.925846
v -0.000006 -37.896103 -11.062246
v -0.000006 -44.121002 -9.078344
v -0.000005 -38.771206 -9.541046
v -0.000005 -37.163807 -14.929646
v -0.000005 -37.163807 -11.058445
v -0.000005 -38.374805 -12.994045
v -0.000005 -38.771206 -16.447044
v -0.000006 -48.838005 -12.994045
v -0.000006 -44.121002 -16.909746
v -0.000006 -38.374805 -12.994045
v -0.000006 -37.163807 -11.058445
v -0.000007 -48.838005 -12.994045
v -0.000006 -38.771206 -9.541046
v -0.000007 -44.121002 -9.078344
v -0.000007 -44.121002 -16.909746
v -0.000006 -38.771206 -16.447044
v -0.000006 -37.163807 -14.929646
vt 0.978393 0.110174
vt 0.931149 0.023560
vt 0.939023 0.354269
vt 0.805165 0.047182
vt 0.781543 0.157418
vt 0.860283 0.377891
vt 0.978393 0.251906
vt 0.805165 0.047182
vt 0.931149 0.023560
vt 0.860283 0.377891
vt 0.781543 0.157418
vt 0.939023 0.354269
vt 0.978393 0.251906
vt 0.978393 0.110174
vt 0.789417 0.795214
vt 0.978393 0.795214
vt 0.789417 0.992064
vt 0.978393 0.795214
vt 0.978393 0.992064
vt 0.789417 0.992064
vt 0.104377 0.755843
vt 0.159495 0.755843
vt 0.009889 0.023560
vt 0.781543 0.157418
vt 0.805165 0.047182
vt 0.742172 0.023560
vt 0.726424 0.102300
vt 0.175243 0.992064
vt 0.253984 0.992064
vt 0.096503 0.992064
vt 0.009889 0.992064
vt 0.253984 0.023560
vt 0.104377 0.755843
vt 0.159495 0.755843
vt 0.253984 0.023560
vt 0.805165 0.047182
vt 0.781543 0.157418
vt 0.742172 0.023560
vt 0.726424 0.102300
vt 0.009889 0.992064
vt 0.088629 0.992064
vt 0.009889 0.023560
vt 0.253984 0.992064
vt 0.167369 0.992064
vt 0.978393 0.795214
vt 0.789417 0.795214
vt 0.789417 0.992064
vt 0.978393 0.992064
vt 0.253984 0.023560
vt 0.009889 0.023560
vt 0.009889 0.992064
vt 0.253984 0.992064
vt 0.009889 0.023560
vt 0.009889 0.992064
vt 0.253984 0.992064
vt 0.253984 0.023560
vt 0.978393 0.795214
vt 0.978393 0.992064
vt 0.789417 0.992064
vt 0.789417 0.795214
vt 0.978393 0.795214
vt 0.789417 0.795214
vt 0.789417 0.992064
vt 0.978393 0.992064
vt 0.978393 0.992064
vt 0.978393 0.795214
vt 0.789417 0.992064
vt 0.789417 0.795214
vt 0.978393 0.795214
vt 0.978393 0.992064
vt 0.789417 0.992064
vt 0.789417 0.795214
vt 0.253984 0.023560
vt 0.009889 0.023560
vt 0.009889 0.992064
vt 0.253984 0.992064
vt 0.009889 0.023560
vt 0.009889 0.992064
vt 0.253984 0.992064
vt 0.253984 0.023560
vt 0.655558 0.023560
vt 0.915401 0.511749
vt 0.356346 0.086552
vt 0.340598 0.511749
vt 0.269732 0.275529
vt 0.269732 0.275529
vt 0.356346 0.944820
vt 0.269732 0.755843
vt 0.655558 0.999938
vt 0.340598 0.511749
vt 0.915401 0.511749
vt 0.269732 0.755843
vt 0.269732 0.755843
vt 0.356346 0.944820
vt 0.655558 0.999938
vt 0.655558 0.023560
vt 0.356346 0.086552
vt 0.269732 0.275529
vt 0.999023 0.238111
vt 0.951779 0.316853
vt 0.951779 0.159371
vt 0.376976 0.773546
vt 0.164377 0.726300
vt 0.337606 0.931026
vt 0.565952 0.190867
vt 0.565952 0.269608
vt 0.526582 0.222364
vt 0.715558 0.175120
vt 0.542330 0.805041
vt 0.455716 0.017640
vt 0.345480 0.175120
vt 0.479338 0.159371
vt 0.266740 0.017640
vt 0.660440 0.994017
vt 0.715558 0.994017
vt 0.715558 0.931026
vt 0.471464 0.206616
vt 0.550204 0.238111
vt 0.471464 0.269608
vt 0.455716 0.017640
vt 0.999023 0.868034
vt 0.802173 0.931026
vt 0.999023 0.931026
vt 0.999023 0.868034
vt 0.786425 0.868034
vt 0.999023 0.805041
vt 0.786425 0.805041
vt 0.786425 0.868034
vt 0.707684 0.805041
vt 0.699810 0.868034
vt 0.573826 0.931026
vt 0.542330 0.805041
vt 0.376976 0.773546
vt 0.699810 0.868034
vt 0.715558 0.285357
vt 0.873039 0.316853
vt 0.873039 0.159371
vt 0.951779 0.316853
vt 0.951779 0.159371
vt 0.959653 0.080631
vt 0.904535 0.127876
vt 0.904535 0.017640
vt 0.699810 0.017640
vt 0.699810 0.127876
vt 0.565952 0.017640
vt 0.565952 0.127876
vt 0.502960 0.080631
vt 0.022645 0.222364
vt 0.117133 0.175120
vt 0.006897 0.017640
vt 0.266740 0.175120
vt 0.266740 0.017640
vt 0.164377 0.726300
vt 0.172251 0.931026
vt 0.077763 0.994017
vt 0.077763 0.663309
vt -0.000977 0.805041
vt 0.660440 0.994017
vt 0.006897 0.017640
vt 0.077763 0.663309
vt 0.778551 0.757797
vt 0.817921 0.631813
vt 0.739180 0.631813
vt 0.778551 0.757797
vt 0.211621 0.694805
vt 0.148629 0.568820
vt 0.148629 0.694805
vt 0.211621 0.568820
vt 0.211621 0.694805
vt 0.148629 0.568820
vt 0.211621 0.568820
vt 0.148629 0.694805
vt 0.345480 0.458584
vt 0.345480 0.175120
vt 0.432094 0.238111
vt 0.203747 0.458584
vt 0.203747 0.553073
vt 0.022645 0.553073
vt 0.337606 0.931026
vt 0.353354 0.994017
vt 0.439968 0.994017
vt 0.479338 0.931026
vt 0.022645 0.458584
vt 0.101385 0.222364
vt 0.101385 0.427088
vt 0.022645 0.222364
vt 0.432094 0.458584
vt 0.022645 0.427088
vt 0.479338 0.159371
vt 0.117133 0.175120
vt 0.132881 0.994017
vt 0.172251 0.931026
vt 0.077763 0.994017
vt 0.432094 0.238111
vt 0.345480 0.175120
vt 0.479338 0.159371
vt 0.203747 0.553073
vt 0.203747 0.458584
vt 0.022645 0.553073
vt 0.353354 0.994017
vt 0.337606 0.931026
vt 0.439968 0.994017
vt 0.479338 0.931026
vt 0.022645 0.458584
vt 0.101385 0.427088
vt 0.022645 0.427088
vt 0.022645 0.222364
vt 0.101385 0.222364
vt 0.117133 0.175120
vt 0.172251 0.931026
vt 0.132881 0.994017
vt 0.077763 0.994017
vt 0.345480 0.458584
vt 0.432094 0.458584
vt 0.825795 0.742049
vt 0.896661 0.773546
vt 0.857291 0.663309
vt 0.227369 0.710553
vt 0.479338 0.710553
vt 0.227369 0.490081
vt 0.920283 0.726300
vt 0.605322 0.710553
vt 0.605322 0.505828
vt 0.518708 0.537325
vt 0.518708 0.710553
vt 0.542330 0.332601
vt 0.479338 0.427088
vt 0.723432 0.521577
vt 0.676188 0.316853
vt 0.597448 0.316853
vt 0.321858 0.238111
vt 0.117133 0.238111
vt 0.321858 0.411341
vt 0.833669 0.395593
vt 0.715558 0.332601
vt 0.321858 0.238111
vt 0.117133 0.238111
vt 0.321858 0.411341
vt 0.786425 0.364097
vt 0.321858 0.238111
vt 0.117133 0.238111
vt 0.321858 0.411341
vt 0.896661 0.458584
vt 0.936031 0.537325
vt 0.337606 0.490081
vt 0.227369 0.490081
vt 0.337606 0.710553
vt 0.983275 0.710553
vt 0.479338 0.490081
vt 0.117133 0.411341
vt 0.117133 0.411341
vt 0.117133 0.411341
vt 0.227369 0.710553
vt 0.707684 0.694805
vt 0.707684 0.553073
vt 0.621070 0.694805
vt 0.707684 0.694805
vt 0.707684 0.553073
vt 0.621070 0.694805
vt 0.621070 0.553073
vt 0.621070 0.694805
vt 0.707684 0.553073
vt 0.707684 0.694805
vt 0.707684 0.553073
vt 0.621070 0.694805
vt 0.621070 0.553073
vt 0.621070 0.553073
vt 0.707684 0.694805
vt 0.621070 0.553073
vt 0.117133 0.411341
vt 0.117133 0.238111
vt 0.321858 0.411341
vt 0.479338 0.710553
vt 0.227369 0.710553
vt 0.227369 0.490081
vt 0.920283 0.726300
vt 0.896661 0.773546
vt 0.857291 0.663309
vt 0.605322 0.505828
vt 0.605322 0.710553
vt 0.518708 0.537325
vt 0.518708 0.710553
vt 0.825795 0.742049
vt 0.479338 0.427088
vt 0.542330 0.332601
vt 0.723432 0.521577
vt 0.676188 0.316853
vt 0.597448 0.316853
vt 0.321858 0.238111
vt 0.833669 0.395593
vt 0.715558 0.332601
vt 0.117133 0.238111
vt 0.321858 0.238111
vt 0.321858 0.411341
vt 0.786425 0.364097
vt 0.117133 0.238111
vt 0.321858 0.238111
vt 0.321858 0.411341
vt 0.896661 0.458584
vt 0.936031 0.537325
vt 0.227369 0.490081
vt 0.337606 0.490081
vt 0.337606 0.710553
vt 0.983275 0.710553
vt 0.479338 0.490081
vt 0.117133 0.411341
vt 0.117133 0.411341
vt 0.227369 0.710553
vt 0.707684 0.553073
vt 0.707684 0.694805
vt 0.621070 0.694805
vt 0.707684 0.553073
vt 0.707684 0.694805
vt 0.621070 0.694805
vt 0.621070 0.694805
vt 0.621070 0.553073
vt 0.707684 0.553073
vt 0.707684 0.553073
vt 0.707684 0.694805
vt 0.621070 0.694805
vt 0.621070 0.553073
vt 0.621070 0.553073
vt 0.707684 0.694805
vt 0.621070 0.553073
vn -1.0000 0.0000 0.0000
vn 1.0000 -0.0000 0.0000
vn 0.0000 0.0000 -1.0000
vn 0.0000 0.0000 1.0000
vn 0.0000 -0.6818 -0.7316
vn -0.8791 -0.0229 0.4760
vn 0.0000 0.0571 -0.9984
vn 0.0000 0.1556 -0.9878
vn -0.8754 -0.0067 0.4833
vn -0.8578 -0.0131 -0.5139
vn -0.8481 -0.0273 -0.5292
vn 0.0000 0.6969 0.7172
vn 0.0000 -0.3593 0.9332
vn 0.8580 -0.0131 -0.5135
vn -0.7579 0.1088 0.6432
vn 0.7579 0.1088 0.6432
vn 0.7893 0.0961 0.6064
vn 0.7584 -0.1020 -0.6437
vn 0.7658 -0.0993 -0.6354
vn -0.7658 -0.0993 -0.6354
vn -0.7651 -0.0268 -0.6433
vn -0.7758 -0.0311 -0.6303
vn -0.7522 0.1521 -0.6411
vn -0.9187 -0.0473 0.3922
vn -0.9221 -0.0346 0.3854
vn 0.9221 -0.0346 0.3854
vn 0.8754 -0.0067 0.4833
vn 0.7651 -0.0268 -0.6433
vn 0.7758 -0.0311 -0.6303
vn 0.7612 0.0320 0.6477
vn -0.7760 0.0367 0.6296
vn -0.6316 0.6585 0.4091
vn -0.9837 -0.1675 -0.0648
vn 0.0000 0.2101 -0.9777
vn 0.0000 0.2329 -0.9725
vn 0.0000 0.9859 -0.1675
vn 0.0000 0.0213 0.9998
vn -0.0000 0.1481 0.9890
vn 0.0000 -0.9414 0.3374
vn -0.9030 -0.1228 -0.4118
vn -0.8502 -0.0404 -0.5250
vn -0.8344 -0.0546 -0.5485
vn -0.8340 -0.0063 -0.5517
vn 0.8346 -0.0063 -0.5508
vn 0.8485 -0.0270 -0.5285
vn 0.8791 -0.0229 0.4760
vn 0.8027 -0.1096 0.5862
vn -0.8027 -0.1096 0.5862
vn -0.8230 0.3078 0.4775
vn -0.9396 -0.1423 0.3114
vn -0.8474 -0.4132 0.3335
vn -0.7584 -0.1020 -0.6437
vn -0.7893 0.0961 0.6064
vn -0.7612 0.0320 0.6477
vn 0.7522 0.1521 -0.6411
vn 0.9187 -0.0473 0.3922
vn 0.9837 -0.1675 -0.0648
vn 0.8350 -0.0545 -0.5475
vn 0.8507 -0.0404 -0.5241
vn 0.9033 -0.1226 -0.4112
vn 0.8230 0.3078 0.4775
vn 0.9396 -0.1423 0.3114
vn 0.8474 -0.4132 0.3335
vn 0.0006 0.9865 -0.1638
vn -0.0006 0.9865 -0.1638
vn 0.6316 0.6585 0.4092
vn 0.7760 0.0367 0.6296
vn 1.0000 -0.0008 0.0019
vn -1.0000 0.0001 -0.0029
vn -1.0000 -0.0001 -0.0014
vn 1.0000 0.0001 0.0025
vn 1.0000 -0.0000 0.0023
vn -1.0000 0.0000 -0.0026
vn 1.0000 -0.0001 0.0029
vn 1.0000 0.0001 0.0014
vn 1.0000 -0.0000 0.0026
vn -1.0000 -0.0001 -0.0025
vn -1.0000 0.0008 -0.0019
vn -1.0000 0.0000 -0.0023
usemtl Brush.003
s off
f 4/1/1 6/2/1 5/3/1
f 1/4/1 2/5/1 7/6/1
f 3/7/2 5/3/2 4/1/2
f 7/6/1 5/3/1 6/2/1
f 6/2/1 1/4/1 7/6/1
f 9/8/2 13/9/2 12/10/2
f 8/11/2 9/8/2 12/10/2
f 11/12/1 10/13/1 14/14/1
f 11/12/2 12/10/2 13/9/2
f 13/9/2 14/14/2 11/12/2
f 56/15/3 58/16/3 57/17/3
f 59/18/3 61/19/3 60/20/3
f 62/21/2 67/22/2 66/23/2
f 63/24/1 64/25/1 62/26/1
f 62/26/1 67/27/1 63/24/1
f 63/28/2 69/29/2 67/22/2
f 64/30/2 62/21/2 65/31/2
f 66/23/2 65/31/2 62/21/2
f 68/32/2 66/23/2 67/22/2
f 67/22/2 69/29/2 68/32/2
f 75/33/1 71/34/1 70/35/1
f 72/36/2 73/37/2 71/38/2
f 75/39/2 71/38/2 73/37/2
f 74/40/1 73/41/1 75/33/1
f 74/40/1 75/33/1 76/42/1
f 70/35/1 76/42/1 75/33/1
f 77/43/1 70/35/1 71/34/1
f 71/34/1 72/44/1 77/43/1
f 78/45/4 79/46/4 81/47/4
f 80/48/4 78/45/4 81/47/4
f 93/49/2 90/50/2 92/51/2
f 91/52/2 93/49/2 92/51/2
f 97/53/1 94/54/1 96/55/1
f 95/56/1 97/53/1 96/55/1
f 206/57/3 207/58/3 209/59/3
f 208/60/3 206/57/3 209/59/3
f 210/61/4 211/62/4 213/63/4
f 212/64/4 210/61/4 213/63/4
f 214/65/4 217/66/4 216/67/4
f 215/68/3 217/66/3 216/67/3
f 220/69/3 219/70/3 218/71/3
f 220/69/4 221/72/4 218/71/4
f 225/73/2 222/74/2 224/75/2
f 223/76/2 225/73/2 224/75/2
f 229/77/1 226/78/1 228/79/1
f 227/80/1 229/77/1 228/79/1
f 230/81/2 236/82/2 231/83/2
f 236/82/1 234/84/1 232/85/1
f 233/86/2 231/83/2 236/82/2
f 236/82/2 234/84/2 233/86/2
f 235/87/2 232/88/2 236/82/2
f 236/82/2 237/89/2 235/87/2
f 238/90/2 240/91/2 245/92/2
f 238/90/1 240/91/1 239/93/1
f 241/94/1 239/93/1 240/91/1
f 240/91/1 242/95/1 241/94/1
f 243/96/1 240/91/1 244/97/1
f 245/98/1 244/97/1 240/91/1
usemtl Brush.004
f 15/99/5 17/100/5 16/101/5
f 34/102/6 46/103/6 30/104/6
f 19/105/7 18/106/7 28/107/7
f 18/106/8 19/105/8 35/108/8
f 30/104/9 18/109/9 34/102/9
f 20/110/10 22/111/10 21/112/10
f 20/110/11 42/113/11 22/111/11
f 32/114/12 23/115/12 54/116/12
f 32/117/13 29/118/13 23/119/13
f 41/120/14 21/112/14 22/111/14
f 50/121/15 31/122/15 53/123/15
f 25/124/16 53/123/16 31/122/16
f 31/122/17 24/125/17 25/124/17
f 27/126/18 25/124/18 24/125/18
f 24/125/19 26/127/19 27/126/19
f 51/128/20 27/126/20 26/127/20
f 26/127/21 28/129/21 51/128/21
f 33/130/22 51/128/22 28/129/22
f 28/129/23 18/109/23 33/130/23
f 29/131/24 33/130/24 18/109/24
f 18/109/25 30/104/25 29/131/25
f 19/132/26 29/131/26 30/104/26
f 30/104/27 35/133/27 19/132/27
f 26/127/28 24/125/28 28/129/28
f 55/134/29 28/129/29 24/125/29
f 24/125/30 31/122/30 55/134/30
f 31/122/31 33/130/31 54/116/31
f 32/114/32 54/116/32 33/130/32
f 33/130/33 29/131/33 32/114/33
f 18/106/8 35/108/8 34/135/8
f 46/136/34 34/135/34 35/108/34
f 35/108/34 52/137/34 46/136/34
f 49/138/35 46/136/35 52/137/35
f 52/137/35 36/139/35 49/138/35
f 37/140/36 39/141/36 38/142/36
f 40/143/37 38/142/37 39/141/37
f 39/141/37 42/144/37 40/143/37
f 41/145/38 40/143/38 42/144/38
f 42/144/38 20/146/38 41/145/38
f 21/147/39 41/145/39 20/146/39
f 37/148/40 43/149/40 39/150/40
f 42/113/41 39/150/41 43/149/41
f 43/149/42 44/151/42 42/113/42
f 22/111/43 42/113/43 44/151/43
f 44/151/44 40/152/44 22/111/44
f 41/120/45 22/111/45 40/152/45
f 35/133/46 30/104/46 52/153/46
f 47/154/47 52/153/47 30/104/47
f 30/104/48 46/103/48 47/154/48
f 45/155/49 47/154/49 46/103/49
f 46/103/50 49/156/50 45/155/50
f 48/157/51 45/155/51 49/156/51
f 27/126/52 51/128/52 50/121/52
f 31/122/53 50/121/53 51/128/53
f 51/128/54 33/130/54 31/122/54
f 28/129/55 55/134/55 19/132/55
f 29/131/56 19/132/56 55/134/56
f 55/134/57 23/158/57 29/131/57
f 44/151/58 43/149/58 40/152/58
f 38/159/59 40/152/59 43/149/59
f 43/149/60 37/148/60 38/159/60
f 47/154/61 45/155/61 52/153/61
f 36/160/62 52/153/62 45/155/62
f 45/155/63 48/157/63 36/160/63
f 50/161/64 53/162/64 27/163/64
f 25/164/65 27/163/65 53/162/65
f 55/134/66 54/116/66 23/158/66
f 54/116/67 55/134/67 31/122/67
f 82/165/2 84/166/2 83/167/2
f 84/166/2 82/165/2 85/168/2
f 86/169/1 88/170/1 87/171/1
f 88/170/1 86/169/1 89/172/1
f 112/173/68 108/174/68 98/175/68
f 99/176/69 101/177/69 100/178/69
f 104/179/1 107/180/1 102/181/1
f 103/182/1 104/179/1 102/181/1
f 105/183/70 99/176/70 100/178/70
f 106/184/71 107/185/71 111/186/71
f 98/175/72 113/187/72 112/173/72
f 102/188/73 107/185/73 111/186/73
f 108/174/1 98/175/1 109/189/1
f 110/190/2 106/184/2 111/186/2
f 112/191/1 114/192/1 113/193/1
f 115/194/2 131/195/2 116/196/2
f 117/197/74 122/198/74 118/199/74
f 124/200/2 120/201/2 121/202/2
f 119/203/2 121/202/2 120/201/2
f 122/198/75 123/204/75 118/199/75
f 124/205/76 121/206/76 125/207/76
f 124/205/77 126/208/77 125/207/77
f 126/208/1 127/209/1 125/207/1
f 128/210/2 130/211/2 129/212/2
f 131/195/78 130/213/78 115/194/78
f 129/214/79 115/194/79 130/213/79
f 132/215/1 133/216/1 154/217/1
f 134/218/1 138/219/1 149/220/1
f 133/216/1 155/221/1 154/217/1
f 136/222/1 139/223/1 135/224/1
f 135/224/1 137/225/1 136/222/1
f 140/226/1 138/227/1 135/224/1
f 139/223/1 145/228/1 141/229/1
f 139/223/1 168/230/1 140/226/1
f 141/231/1 150/232/1 168/233/1
f 141/229/1 168/230/1 139/223/1
f 145/228/1 154/217/1 161/234/1
f 144/235/1 141/229/1 145/228/1
f 143/236/1 142/237/1 144/238/1
f 143/239/1 144/235/1 145/228/1
f 161/234/1 143/239/1 145/228/1
f 147/240/1 146/241/1 161/242/1
f 154/217/1 147/243/1 161/234/1
f 157/244/1 147/243/1 154/217/1
f 148/245/1 156/246/1 157/247/1
f 155/221/1 148/248/1 157/244/1
f 138/219/1 140/249/1 149/220/1
f 150/232/1 151/250/1 168/233/1
f 142/237/1 152/251/1 144/238/1
f 146/241/1 153/252/1 161/242/1
f 135/224/1 139/223/1 140/226/1
f 154/217/1 155/221/1 157/244/1
f 156/246/1 158/253/1 157/247/1
f 159/254/1 166/255/1 157/256/1
f 160/257/1 162/258/1 161/259/1
f 141/260/1 144/261/1 163/262/1
f 164/263/1 165/264/1 168/265/1
f 166/255/1 147/266/1 157/256/1
f 162/258/1 143/267/1 161/259/1
f 144/261/1 167/268/1 163/262/1
f 165/264/1 140/269/1 168/265/1
f 169/270/2 170/271/2 205/272/2
f 171/273/2 172/274/2 186/275/2
f 192/276/2 176/277/2 177/278/2
f 173/279/2 174/280/2 191/281/2
f 175/282/2 191/281/2 174/280/2
f 176/277/2 178/283/2 177/278/2
f 171/284/2 185/285/2 191/281/2
f 179/286/2 173/279/2 180/287/2
f 205/288/2 173/279/2 185/285/2
f 170/271/2 180/289/2 205/272/2
f 205/288/2 180/287/2 173/279/2
f 177/278/2 179/286/2 190/290/2
f 180/287/2 199/291/2 179/286/2
f 188/292/2 181/293/2 199/294/2
f 199/291/2 181/295/2 179/286/2
f 181/295/2 190/290/2 179/286/2
f 182/296/2 183/297/2 190/298/2
f 183/299/2 177/278/2 190/290/2
f 183/299/2 195/300/2 177/278/2
f 194/301/2 184/302/2 195/303/2
f 184/304/2 192/276/2 195/300/2
f 185/305/2 171/273/2 186/275/2
f 187/306/2 188/292/2 199/294/2
f 189/307/2 182/296/2 190/298/2
f 173/279/2 191/281/2 185/285/2
f 192/276/2 177/278/2 195/300/2
f 193/308/2 194/301/2 195/303/2
f 203/309/2 196/310/2 195/311/2
f 197/312/2 198/313/2 190/314/2
f 199/315/2 180/316/2 200/317/2
f 201/318/2 202/319/2 205/320/2
f 183/321/2 203/309/2 195/311/2
f 181/322/2 197/312/2 190/314/2
f 204/323/2 199/315/2 200/317/2
f 185/324/2 201/318/2 205/320/2
