# Blender v2.83.5 OBJ File: ''
# www.blender.org
mtllib woodenstick.mtl
o mesh_mesh.042
v -0.021409 16.904560 0.273183
v -1.661574 24.514963 1.275645
v 1.323148 16.360371 1.878257
v 1.323148 16.360371 1.878257
v -1.661574 24.514963 1.275645
v -0.170360 24.620335 3.064423
v -1.661574 24.514963 1.275645
v -1.238779 31.008287 0.314206
v -0.170360 24.620335 3.064423
v -0.170360 24.620335 3.064423
v -1.238779 31.008287 0.314206
v 0.121792 30.823582 1.732148
v -1.238779 31.008287 0.314206
v -2.012487 37.017155 0.328743
v 0.121792 30.823582 1.732148
v 0.121792 30.823582 1.732148
v -2.012487 37.017155 0.328743
v -0.772918 36.992580 1.569728
v -2.012487 37.017155 0.328743
v -0.028515 41.510799 0.552885
v -0.772918 36.992580 1.569728
v -0.772918 36.992580 1.569728
v -0.028515 41.510799 0.552885
v 0.531160 37.192966 0.413686
v -0.028515 41.510799 0.552885
v 1.051002 41.458233 -0.403611
v 0.531160 37.192966 0.413686
v 0.531160 37.192966 0.413686
v 1.051002 41.458233 -0.403611
v -0.708420 37.217506 -0.827303
v 1.051002 41.458233 -0.403611
v -0.018927 41.544239 -1.368429
v -0.708420 37.217506 -0.827303
v -0.708420 37.217506 -0.827303
v -0.018927 41.544239 -1.368429
v -1.098464 41.596802 -0.411933
v -2.683358 -3.732625 -0.000000
v -1.348423 -4.702510 -1.553685
v 0.000885 6.626982 0.000000
v -1.348423 -4.702510 -1.553685
v 1.770469 6.752024 -1.470195
v 0.000885 6.626982 0.000000
v 0.000885 6.626982 0.000000
v 1.770469 6.752024 -1.470195
v 1.323148 16.360371 -1.410840
v 1.770469 6.752024 -1.470195
v 3.242560 6.856027 0.000000
v 1.323148 16.360371 -1.410840
v 1.323148 16.360371 -1.410840
v 3.242560 6.856027 0.000000
v 3.031805 15.642391 0.317095
v 3.242560 6.856027 0.000000
v 1.770469 6.752024 1.470195
v 3.031805 15.642391 0.317095
v 3.031805 15.642391 0.317095
v 1.770469 6.752024 1.470195
v 1.323148 16.360371 1.878257
v 1.770469 6.752024 1.470195
v 0.000885 6.626982 0.000000
v 1.323148 16.360371 1.878257
v 1.323148 16.360371 1.878257
v 0.000885 6.626982 0.000000
v -0.021409 16.904560 0.273183
v 1.323148 16.360371 1.878257
v 1.387806 24.730431 1.275645
v 2.503814 20.431129 0.008939
v 2.503814 20.431129 0.008939
v 1.387806 24.730431 1.275645
v -0.170360 24.620335 -0.513134
v 1.387806 24.730431 1.275645
v 1.529453 31.203903 0.314206
v -0.170360 24.620335 -0.513134
v -0.170360 24.620335 -0.513134
v 1.529453 31.203903 0.314206
v 0.082542 31.094229 -1.061476
v 1.529453 31.203903 0.314206
v -0.708420 37.217506 -0.827303
v 0.082542 31.094229 -1.061476
v 0.082542 31.094229 -1.061476
v -0.708420 37.217506 -0.827303
v -2.012487 37.017155 0.328743
v -0.708420 37.217506 -0.827303
v -1.098464 41.596802 -0.411933
v -2.012487 37.017155 0.328743
v 6.978235 24.555941 -1.203650
v 7.491390 22.991184 -2.194001
v 3.031805 15.642391 0.317095
v 7.491390 22.991184 -2.194001
v 6.767923 23.822495 -3.768189
v 3.031805 15.642391 0.317095
v 3.031805 15.642391 0.317095
v 6.767923 23.822495 -3.768189
v 1.323148 16.360371 -1.410840
v 6.767923 23.822495 -3.768189
v 6.277761 25.308285 -2.757141
v 1.323148 16.360371 -1.410840
v 1.323148 16.360371 -1.410840
v 6.277761 25.308285 -2.757141
v 2.503814 20.431129 0.008939
v -0.021409 16.904560 0.273183
v 1.323148 16.360371 -1.410840
v -1.661574 24.514963 1.275645
v 1.323148 16.360371 -1.410840
v -0.170360 24.620335 -0.513134
v -1.661574 24.514963 1.275645
v -1.661574 24.514963 1.275645
v -0.170360 24.620335 -0.513134
v -1.238779 31.008287 0.314206
v -0.170360 24.620335 -0.513134
v 0.082542 31.094229 -1.061476
v -1.238779 31.008287 0.314206
v -1.238779 31.008287 0.314206
v 0.082542 31.094229 -1.061476
v -2.012487 37.017155 0.328743
v -2.683358 -3.732625 -0.000000
v 0.000885 6.626982 0.000000
v -1.348423 -4.702511 1.553685
v 0.000885 6.626982 0.000000
v 1.770469 6.752024 1.470195
v -1.348423 -4.702511 1.553685
v -1.348423 -4.702511 1.553685
v 1.770469 6.752024 1.470195
v -0.013489 -5.672396 -0.000000
v 1.770469 6.752024 1.470195
v 3.242560 6.856027 0.000000
v -0.013489 -5.672396 -0.000000
v -0.013489 -5.672396 -0.000000
v 3.242560 6.856027 0.000000
v 1.770469 6.752024 -1.470195
v 1.323148 16.360371 1.878257
v -0.170360 24.620335 3.064423
v 1.387806 24.730431 1.275645
v 1.387806 24.730431 1.275645
v -0.170360 24.620335 3.064423
v 1.529453 31.203903 0.314206
v -0.170360 24.620335 3.064423
v 0.121792 30.823582 1.732148
v 1.529453 31.203903 0.314206
v 1.529453 31.203903 0.314206
v 0.121792 30.823582 1.732148
v 0.531160 37.192966 0.413686
v 0.121792 30.823582 1.732148
v -0.772918 36.992580 1.569728
v 0.531160 37.192966 0.413686
v 6.277761 25.308285 -2.757141
v 6.978235 24.555941 -1.203650
v 2.503814 20.431129 0.008939
v 2.503814 20.431129 0.008939
v 6.978235 24.555941 -1.203650
v 1.323148 16.360371 1.878257
v 6.978235 24.555941 -1.203650
v 3.031805 15.642391 0.317095
v 1.323148 16.360371 1.878257
v -1.348423 -4.702511 1.553685
v -0.013489 -5.672396 -0.000000
v -2.683358 -3.732625 -0.000000
v -2.683358 -3.732625 -0.000000
v -0.013489 -5.672396 -0.000000
v -1.348423 -4.702510 -1.553685
v -0.018927 41.544239 -1.368429
v 1.051002 41.458233 -0.403611
v -1.098464 41.596802 -0.411933
v -1.098464 41.596802 -0.411933
v 1.051002 41.458233 -0.403611
v -0.028515 41.510799 0.552885
v 6.767923 23.822495 -3.768189
v 7.491390 22.991184 -2.194001
v 6.277761 25.308285 -2.757141
v 6.277761 25.308285 -2.757141
v 7.491390 22.991184 -2.194001
v 6.978235 24.555941 -1.203650
v 1.323148 16.360371 -1.410840
v 2.503814 20.431129 0.008939
v -0.170360 24.620335 -0.513134
v -0.021409 16.904560 0.273183
v 0.000885 6.626982 0.000000
v 1.323148 16.360371 -1.410840
v 0.531160 37.192966 0.413686
v -0.708420 37.217506 -0.827303
v 1.529453 31.203903 0.314206
v 1.770469 6.752024 -1.470195
v -1.348423 -4.702510 -1.553685
v -0.013489 -5.672396 -0.000000
v -2.012487 37.017155 0.328743
v -1.098464 41.596802 -0.411933
v -0.028515 41.510799 0.552885
vt 0.056152 0.643311
vt 0.034668 0.568115
vt 0.337402 0.661865
vt 0.034668 0.568115
vt 0.335449 0.581299
vt 0.337402 0.661865
vt 0.337402 0.661865
vt 0.335449 0.581299
vt 0.572266 0.635010
vt 0.335449 0.581299
vt 0.557373 0.557617
vt 0.572266 0.635010
vt 0.572266 0.635010
vt 0.557373 0.557617
vt 0.786377 0.616455
vt 0.557373 0.557617
vt 0.774902 0.557617
vt 0.786377 0.616455
vt 0.786377 0.616455
vt 0.774902 0.557617
vt 0.930420 0.511719
vt 0.774902 0.557617
vt 0.778564 0.487793
vt 0.930420 0.511719
vt 0.930420 0.511719
vt 0.778564 0.487793
vt 0.928223 0.463135
vt 0.778564 0.487793
vt 0.782715 0.393067
vt 0.928223 0.463135
vt 0.928223 0.463135
vt 0.782715 0.393067
vt 0.934570 0.414795
vt 0.782715 0.393067
vt 0.943848 0.364746
vt 0.934570 0.414795
vt 0.228516 0.681152
vt 0.614014 0.683594
vt 0.206299 0.757080
vt 0.206299 0.757080
vt 0.614014 0.683594
vt 0.625000 0.762207
vt 0.614014 0.683594
vt 0.967041 0.744629
vt 0.625000 0.762207
vt 0.625000 0.762207
vt 0.967041 0.744629
vt 0.635498 0.832276
vt 0.967041 0.744629
vt 0.941406 0.832276
vt 0.635498 0.832276
vt 0.635498 0.832276
vt 0.941406 0.832276
vt 0.627686 0.899658
vt 0.941406 0.832276
vt 0.967041 0.916016
vt 0.627686 0.899658
vt 0.627686 0.899658
vt 0.967041 0.916016
vt 0.614014 0.977539
vt 0.967041 0.916016
vt 0.988770 0.990967
vt 0.614014 0.977539
vt 0.034668 0.568115
vt 0.163330 0.468018
vt 0.330322 0.485352
vt 0.163330 0.468018
vt 0.330566 0.387451
vt 0.330322 0.485352
vt 0.330322 0.485352
vt 0.330566 0.387451
vt 0.567139 0.470459
vt 0.330566 0.387451
vt 0.568604 0.396973
vt 0.567139 0.470459
vt 0.567139 0.470459
vt 0.568604 0.396973
vt 0.782715 0.393067
vt 0.568604 0.396973
vt 0.786377 0.316651
vt 0.782715 0.393067
vt 0.782715 0.393067
vt 0.786377 0.316651
vt 0.943848 0.364746
vt 0.761475 0.230225
vt 0.419189 0.198486
vt 0.729980 0.171143
vt 0.729980 0.171143
vt 0.419189 0.198486
vt 0.751221 0.107178
vt 0.419189 0.198486
vt 0.419189 0.109619
vt 0.751221 0.107178
vt 0.751221 0.107178
vt 0.419189 0.109619
vt 0.772949 0.045410
vt 0.419189 0.109619
vt 0.540039 0.010986
vt 0.772949 0.045410
vt 0.056152 0.322266
vt 0.337402 0.302979
vt 0.034668 0.396729
vt 0.034668 0.396729
vt 0.337402 0.302979
vt 0.330566 0.387451
vt 0.337402 0.302979
vt 0.572266 0.327881
vt 0.330566 0.387451
vt 0.330566 0.387451
vt 0.572266 0.327881
vt 0.568604 0.396973
vt 0.572266 0.327881
vt 0.786377 0.316651
vt 0.568604 0.396973
vt 0.228516 0.984619
vt 0.206299 0.908936
vt 0.614014 0.977539
vt 0.614014 0.977539
vt 0.206299 0.908936
vt 0.627686 0.899658
vt 0.206299 0.908936
vt 0.184814 0.832276
vt 0.627686 0.899658
vt 0.627686 0.899658
vt 0.184814 0.832276
vt 0.635498 0.832276
vt 0.184814 0.832276
vt 0.625000 0.762207
vt 0.635498 0.832276
vt 0.034668 0.568115
vt 0.330322 0.485352
vt 0.335449 0.581299
vt 0.330322 0.485352
vt 0.567139 0.470459
vt 0.335449 0.581299
vt 0.335449 0.581299
vt 0.567139 0.470459
vt 0.557373 0.557617
vt 0.567139 0.470459
vt 0.778564 0.487793
vt 0.557373 0.557617
vt 0.557373 0.557617
vt 0.778564 0.487793
vt 0.774902 0.557617
vt 0.794922 0.285889
vt 0.560791 0.310303
vt 0.761475 0.230225
vt 0.560791 0.310303
vt 0.401855 0.281250
vt 0.761475 0.230225
vt 0.761475 0.230225
vt 0.401855 0.281250
vt 0.419189 0.198486
vt 0.012451 0.149658
vt 0.143555 0.010498
vt 0.143555 0.288819
vt 0.143555 0.010498
vt 0.274658 0.149658
vt 0.143555 0.288819
vt 0.011230 0.756836
vt 0.091797 0.665527
vt 0.092773 0.847168
vt 0.091797 0.665527
vt 0.173340 0.755860
vt 0.092773 0.847168
vt 0.763672 0.168457
vt 0.876709 0.059082
vt 0.876709 0.284912
vt 0.876709 0.059082
vt 0.989502 0.168701
vt 0.876709 0.284912
vt 0.034668 0.396729
vt 0.330566 0.387451
vt 0.163330 0.468018
vt 0.988770 0.670166
vt 0.967041 0.744629
vt 0.614014 0.683594
vt 0.778564 0.487793
vt 0.567139 0.470459
vt 0.782715 0.393067
vt 0.625000 0.762207
vt 0.184814 0.832276
vt 0.206299 0.757080
vt 0.786377 0.616455
vt 0.930420 0.511719
vt 0.943848 0.558350
vn -0.7825 -0.2441 0.5728
vn -0.7419 -0.2249 0.6317
vn -0.7643 0.1429 0.6288
vn -0.6976 0.1817 0.6931
vn -0.7244 -0.0949 0.6828
vn -0.7058 -0.0839 0.7034
vn -0.6794 0.2659 0.6839
vn 0.6569 0.0609 0.7515
vn 0.6636 0.0620 0.7455
vn 0.6886 -0.2165 -0.6921
vn 0.6481 -0.1953 -0.7361
vn -0.6628 0.0120 -0.7487
vn -0.6885 0.1784 -0.7029
vn -0.6362 0.1787 -0.7505
vn -0.6378 -0.0249 -0.7698
vn 0.7048 0.0372 -0.7084
vn 0.7192 0.0423 -0.6936
vn 0.7069 -0.0086 0.7072
vn 0.6745 0.0001 0.7382
vn -0.6352 -0.0623 0.7698
vn -0.7695 -0.0186 0.6383
vn 0.8075 0.0361 0.5887
vn 0.6913 0.3634 -0.6245
vn 0.7527 -0.1128 -0.6487
vn 0.6899 -0.0878 -0.7186
vn 0.6798 0.1155 -0.7242
vn -0.6575 -0.0562 -0.7514
vn -0.6643 0.0117 -0.7474
vn 0.7075 -0.1975 0.6786
vn 0.6003 -0.5596 -0.5714
vn 0.4637 -0.5562 -0.6896
vn -0.6614 0.2604 -0.7034
vn -0.8154 0.3867 -0.4307
vn -0.7924 -0.0913 -0.6031
vn -0.7643 -0.0685 -0.6412
vn -0.7660 -0.0451 -0.6412
vn -0.7199 -0.0306 -0.6934
vn -0.7154 -0.0904 -0.6928
vn -0.6885 0.1784 0.7029
vn -0.6362 0.1787 0.7505
vn 0.6868 -0.1819 0.7037
vn 0.7012 -0.1822 0.6892
vn 0.7012 -0.1822 -0.6892
vn 0.7521 0.0415 0.6577
vn 0.7491 0.0813 0.6575
vn 0.6880 0.1213 0.7155
vn 0.6919 0.1035 0.7146
vn 0.6492 0.1140 0.7521
vn -0.4817 0.6837 0.5483
vn -0.1814 0.4534 0.8727
vn 0.6318 -0.1500 0.7605
vn -0.5878 -0.8090 0.0000
vn 0.0643 0.9978 0.0177
vn 0.8882 0.4199 -0.1865
vn 0.8872 0.4165 -0.1983
vn 0.4472 0.1762 -0.8769
vn -0.7790 0.0150 -0.6268
vn 0.7029 0.1288 -0.6995
vn 0.6868 -0.1819 -0.7037
vn -0.6382 0.2454 0.7297
usemtl Brush.070
s off
f 1/1/1 3/2/1 2/3/1
f 4/4/2 6/5/2 5/6/2
f 7/7/3 9/8/3 8/9/3
f 10/10/4 12/11/4 11/12/4
f 13/13/5 15/14/5 14/15/5
f 16/16/6 18/17/6 17/18/6
f 19/19/7 21/20/7 20/21/7
f 22/22/8 24/23/8 23/24/8
f 25/25/9 27/26/9 26/27/9
f 28/28/10 30/29/10 29/30/10
f 31/31/11 33/32/11 32/33/11
f 34/34/12 36/35/12 35/36/12
f 37/37/13 39/38/13 38/39/13
f 40/40/14 42/41/14 41/42/14
f 43/43/15 45/44/15 44/45/15
f 46/46/16 48/47/16 47/48/16
f 49/49/17 51/50/17 50/51/17
f 52/52/18 54/53/18 53/54/18
f 55/55/19 57/56/19 56/57/19
f 58/58/20 60/59/20 59/60/20
f 61/61/21 63/62/21 62/63/21
f 64/64/22 66/65/22 65/66/22
f 67/67/23 69/68/23 68/69/23
f 70/70/24 72/71/24 71/72/24
f 73/73/25 75/74/25 74/75/25
f 76/76/26 78/77/26 77/78/26
f 79/79/27 81/80/27 80/81/27
f 82/82/28 84/83/28 83/84/28
f 85/85/29 87/86/29 86/87/29
f 88/88/30 90/89/30 89/90/30
f 91/91/31 93/92/31 92/93/31
f 94/94/32 96/95/32 95/96/32
f 97/97/33 99/98/33 98/99/33
f 100/100/34 102/101/34 101/102/34
f 103/103/35 105/104/35 104/105/35
f 106/106/36 108/107/36 107/108/36
f 109/109/37 111/110/37 110/111/37
f 112/112/38 114/113/38 113/114/38
f 115/115/39 117/116/39 116/117/39
f 118/118/40 120/119/40 119/120/40
f 121/121/41 123/122/41 122/123/41
f 124/124/42 126/125/42 125/126/42
f 127/127/43 129/128/43 128/129/43
f 130/130/44 132/131/44 131/132/44
f 133/133/45 135/134/45 134/135/45
f 136/136/46 138/137/46 137/138/46
f 139/139/47 141/140/47 140/141/47
f 142/142/48 144/143/48 143/144/48
f 145/145/49 147/146/49 146/147/49
f 148/148/50 150/149/50 149/150/50
f 151/151/51 153/152/51 152/153/51
f 154/154/52 156/155/52 155/156/52
f 157/157/52 159/158/52 158/159/52
f 160/160/53 162/161/53 161/162/53
f 163/163/53 165/164/53 164/165/53
f 166/166/54 168/167/54 167/168/54
f 169/169/55 171/170/55 170/171/55
f 172/172/56 174/173/56 173/174/56
f 175/175/57 177/176/57 176/177/57
f 178/178/58 180/179/58 179/180/58
f 181/181/59 183/182/59 182/183/59
f 184/184/60 186/185/60 185/186/60
