mtllib youngxehanortskeyblade.mtl
v -0.933866 -12.759800 -0.000003
v -0.933866 -14.630599 -0.000003
v 0.933866 -12.759800 -0.000003
v 0.933866 -14.630599 -0.000003
v -0.933866 -18.076099 -0.000004
v 0.933866 -18.076099 -0.000004
v -0.933866 -19.946899 -0.000004
v 0.933866 -19.946899 -0.000004
v 0.000000 -23.554199 -2.362135
v 0.000000 -18.781099 -2.362134
v 0.000000 -23.554199 2.362125
v 0.000000 -18.781099 2.362126
v 0.000000 -13.568500 2.362127
v 0.000000 -13.568500 -2.362132
v 0.000000 -18.570501 2.362126
v 0.000000 -18.570501 -2.362134
v 0.000000 -28.489000 -1.248216
v 0.000000 -28.489000 1.248204
v 0.000000 -30.558199 1.248204
v 0.000000 -30.558199 -1.248216
v 0.000000 -28.489000 -2.362136
v 0.000000 -28.489000 2.362124
v 0.000000 -23.746500 -2.362135
v 0.000000 -23.746500 2.362125
v 0.000000 -38.029099 -2.688688
v 0.000000 -30.558199 -2.688686
v 0.000000 -38.029099 2.706982
v 0.000000 -30.558199 2.706984
v 0.933866 -24.896999 -0.000005
v -0.933866 -24.896999 -0.000005
v 0.933866 -23.026199 -0.000005
v -0.933866 -23.026199 -0.000005
v -0.933866 -27.536900 -0.000005
v -0.933866 -29.407600 -0.000006
v 0.933866 -27.536900 -0.000005
v 0.933866 -29.407600 -0.000006
v -0.933866 -12.759800 -0.000003
v 0.933866 -12.759800 -0.000003
v -0.933866 -14.630599 -0.000003
v 0.933866 -14.630599 -0.000003
v -0.933866 -18.076099 -0.000004
v -0.933866 -19.946899 -0.000004
v 0.933866 -18.076099 -0.000004
v 0.933866 -19.946899 -0.000004
v 0.000000 -23.554199 -2.362135
v 0.000000 -23.554199 2.362125
v 0.000000 -18.781099 -2.362134
v 0.000000 -18.781099 2.362126
v 0.000000 -13.568500 2.362127
v 0.000000 -18.570501 2.362126
v 0.000000 -13.568500 -2.362132
v 0.000000 -18.570501 -2.362134
v 0.000000 -28.489000 -1.248216
v 0.000000 -30.558199 1.248204
v 0.000000 -28.489000 1.248204
v 0.000000 -30.558199 -1.248216
v 0.000000 -28.489000 -2.362136
v 0.000000 -23.746500 -2.362135
v 0.000000 -28.489000 2.362124
v 0.000000 -23.746500 2.362125
v 0.000000 -38.029099 -2.688688
v 0.000000 -38.029099 2.706982
v 0.000000 -30.558199 -2.688686
v 0.000000 -30.558199 2.706984
v 0.933866 -24.896999 -0.000005
v 0.933866 -23.026199 -0.000005
v -0.933866 -24.896999 -0.000005
v -0.933866 -23.026199 -0.000005
v -0.933866 -27.536900 -0.000005
v 0.933866 -27.536900 -0.000005
v -0.933866 -29.407600 -0.000006
v 0.933866 -29.407600 -0.000006
vt 0.987305 0.957031
vt 0.987305 0.439453
vt 0.777832 0.957031
vt 0.777832 0.439453
vt 0.987305 0.957031
vt 0.777832 0.957031
vt 0.987305 0.439453
vt 0.777832 0.439453
vt 0.753906 0.167480
vt 0.753906 0.901855
vt 0.386719 0.167480
vt 0.386719 0.901855
vt 0.386719 0.901855
vt 0.753906 0.901855
vt 0.386719 0.167480
vt 0.753906 0.167480
vt 1.009770 0.398926
vt 0.755371 0.398926
vt 0.755371 0.043457
vt 1.009770 0.043457
vt 0.753906 0.167480
vt 0.386719 0.167480
vt 0.753906 0.901855
vt 0.386719 0.901855
vt 0.011719 0.008789
vt 0.011719 0.961914
vt 0.363281 0.008789
vt 0.363281 0.961914
vt 0.777832 0.439453
vt 0.987305 0.439453
vt 0.777832 0.957031
vt 0.987305 0.957031
vt 0.987305 0.957031
vt 0.987305 0.439453
vt 0.777832 0.957031
vt 0.777832 0.439453
vt 0.987305 0.957031
vt 0.777832 0.957031
vt 0.987305 0.439453
vt 0.777832 0.439453
vt 0.987305 0.957031
vt 0.987305 0.439453
vt 0.777832 0.957031
vt 0.777832 0.439453
vt 0.753906 0.167480
vt 0.386719 0.167480
vt 0.753906 0.901855
vt 0.386719 0.901855
vt 0.386719 0.901855
vt 0.386719 0.167480
vt 0.753906 0.901855
vt 0.753906 0.167480
vt 1.009770 0.398926
vt 0.755371 0.043457
vt 0.755371 0.398926
vt 1.009770 0.043457
vt 0.753906 0.167480
vt 0.753906 0.901855
vt 0.386719 0.167480
vt 0.386719 0.901855
vt 0.011719 0.008789
vt 0.363281 0.008789
vt 0.011719 0.961914
vt 0.363281 0.961914
vt 0.777832 0.439453
vt 0.777832 0.957031
vt 0.987305 0.439453
vt 0.987305 0.957031
vt 0.987305 0.957031
vt 0.777832 0.957031
vt 0.987305 0.439453
vt 0.777832 0.439453
vn 0.0000 -0.0000 1.0000
vn 0.0000 0.0000 -1.0000
vn 1.0000 0.0000 0.0000
vn -1.0000 0.0000 0.0000
o keychain
usemtl Brush.071
f 1/1/1 2/2/1 3/3/1
f 4/4/1 3/3/1 2/2/1
f 5/5/2 6/6/2 7/7/2
f 8/8/2 7/7/2 6/6/2
f 9/9/3 10/10/3 11/11/3
f 12/12/3 11/11/3 10/10/3
f 13/13/4 14/14/4 15/15/4
f 16/16/4 15/15/4 14/14/4
f 17/17/3 18/18/3 19/19/3
f 20/20/3 17/17/3 19/19/3
f 21/21/4 22/22/4 23/23/4
f 23/23/4 22/22/4 24/24/4
f 25/25/3 26/26/3 27/27/3
f 28/28/3 27/27/3 26/26/3
f 29/29/2 30/30/2 31/31/2
f 30/30/2 32/32/2 31/31/2
f 33/33/1 34/34/1 35/35/1
f 36/36/1 35/35/1 34/34/1
f 37/37/2 38/38/2 39/39/2
f 40/40/2 39/39/2 38/38/2
f 41/41/1 42/42/1 43/43/1
f 44/44/1 43/43/1 42/42/1
f 45/45/4 46/46/4 47/47/4
f 48/48/4 47/47/4 46/46/4
f 49/49/3 50/50/3 51/51/3
f 52/52/3 51/51/3 50/50/3
f 53/53/4 54/54/4 55/55/4
f 56/56/4 54/54/4 53/53/4
f 57/57/3 58/58/3 59/59/3
f 58/58/3 60/60/3 59/59/3
f 61/61/4 62/62/4 63/63/4
f 64/64/4 63/63/4 62/62/4
f 65/65/1 66/66/1 67/67/1
f 67/67/1 66/66/1 68/68/1
f 69/69/2 70/70/2 71/71/2
f 72/72/2 71/71/2 70/70/2
