# Blender 4.5.3 LTS
# www.blender.org
mtllib dispel_gummi_pyramid.mtl
o Pyramid2
v 1.000000 1.000000 -1.000000
v 1.000000 -1.000000 -1.000000
v 1.000000 1.000000 -1.000000
v 1.000000 -1.000000 1.000000
v -1.000000 -1.000000 -1.000000
v -1.000000 -1.000000 -1.000000
v 0.866667 -0.866667 0.733333
v -0.733333 -0.866667 -0.866667
v 0.866667 0.733333 -0.866667
v 0.888411 -0.866667 -1.000000
v 0.888411 0.733333 -1.000000
v -0.711589 -0.866667 -1.000000
v 1.000000 -0.866667 -0.866667
v 1.000000 0.733333 -0.866667
v 1.000000 -0.866667 0.733333
v 0.866667 -1.000000 -0.866667
v 0.866667 -1.000000 0.733333
v -0.733333 -1.000000 -0.866667
v -0.130071 -0.866667 -1.000000
v -0.711589 -0.866667 -1.000000
v 0.888411 -0.866667 -1.000000
v 0.384214 -0.866667 -1.000000
v -0.130071 -0.616660 -1.000000
v 0.384214 -0.616660 -1.000000
v 0.888411 0.120425 -1.000000
v 0.888411 -0.399252 -1.000000
v 0.610388 0.120425 -1.000000
v 0.610388 -0.399252 -1.000000
v 0.241336 0.086259 -1.000000
v -0.099321 -0.254399 -1.000000
v 0.423136 -0.095541 -1.000000
v 0.082479 -0.436199 -1.000000
v 1.000000 0.120425 -0.866667
v 1.000000 -0.399252 -0.866667
v 1.000000 0.120425 -0.587874
v 1.000000 -0.399252 -0.587874
v 1.000000 -0.866667 0.096188
v 1.000000 -0.866667 -0.418097
v 1.000000 -0.616660 0.096188
v 1.000000 -0.616660 -0.418097
v 1.000000 0.113674 -0.247014
v 1.000000 -0.226983 0.093643
v 1.000000 -0.068125 -0.428814
v 1.000000 -0.408783 -0.088157
v 0.060716 -1.000000 -0.436219
v 0.401373 -1.000000 -0.095561
v -0.121084 -1.000000 -0.254419
v 0.219573 -1.000000 0.086239
v 0.588513 -1.000000 -0.399160
v 0.588513 -1.000000 0.120517
v 0.866667 -1.000000 -0.399160
v 0.866667 -1.000000 0.120517
v 0.362339 -1.000000 -0.616568
v -0.151946 -1.000000 -0.616568
v 0.362339 -1.000000 -0.866574
v -0.151946 -1.000000 -0.866574
v -0.012706 -0.656511 -0.355525
v 0.327952 -0.656511 -0.014867
v -0.117451 -0.866652 -0.250780
v -0.110100 -0.243305 -0.866681
v 0.223204 -0.866667 0.089870
v 0.230557 0.097354 -0.866680
v -0.004920 -0.348485 -0.656975
v 0.335742 -0.007842 -0.656972
v 0.656628 -0.332965 -0.009861
v 0.656626 0.007695 -0.350516
v 0.866769 -0.228220 0.094884
v 0.866781 0.112432 -0.245769
vn -0.5776 0.5773 0.5772
vn -0.5773 0.5774 0.5773
vn -0.5774 0.5774 0.5774
vn -0.5775 0.5775 0.5770
vn -0.0000 -0.0000 -1.0000
vn 1.0000 -0.0000 -0.0000
vn -0.0000 -1.0000 -0.0000
vn -0.0000 -0.0000 1.0000
vn -0.5779 0.5762 0.5780
vn -0.5767 0.5768 0.5785
vn -0.5762 0.5780 0.5779
vn -0.5776 0.5772 0.5772
vn -0.5781 0.5770 0.5770
vn -0.5779 0.5770 0.5771
vn -0.5778 0.5771 0.5771
vn -0.5774 0.5772 0.5775
vn -0.5774 0.5774 0.5773
vn -0.5775 0.5775 0.5771
vn -0.5776 0.5776 0.5769
vn -0.5775 0.5776 0.5769
vn -0.5780 0.5761 0.5780
vn -0.5767 0.5767 0.5786
vn -0.5761 0.5780 0.5780
vt 0.404162 0.294775
vt 0.404160 0.209612
vt 0.433013 0.000000
vt 0.000000 0.250000
vt 0.404145 0.050000
vt 0.264831 0.130433
vt 0.404145 0.450000
vt 0.433013 0.500000
vt 0.192677 0.327922
vt 0.266432 0.370504
vt 0.933013 0.500000
vt 0.913628 0.052718
vt 0.933013 -0.000000
vt 0.450997 0.507984
vt 0.360358 0.515045
vt 0.250000 0.500000
vt 0.293464 0.803955
vt 0.277459 0.852485
vt 0.158240 0.808427
vt 0.250000 0.750000
vt 0.093280 0.873387
vt 0.000000 1.000000
vt 0.016667 0.550000
vt 0.016668 0.709922
vt 0.000000 0.500000
vt 0.524784 0.191562
vt 0.433013 0.250000
vt 0.589744 0.126602
vt 0.666346 0.450000
vt 0.683013 0.500000
vt 0.683013 -0.000000
vt 0.666346 0.296938
vt 0.057735 0.250000
vt 0.398623 0.681029
vt 0.453984 0.616314
vt 0.683013 0.250000
vt 0.271497 0.521967
vt 0.277915 0.604345
vt 0.016667 0.950000
vt 0.666346 0.050000
vt 0.466346 0.250000
vt 0.529399 0.313029
vt 0.433013 0.500000
vt 0.363791 0.559107
vt 0.334049 0.692118
vt 0.285049 0.695935
vt 0.419447 0.586769
vt 0.553486 0.520120
vt 0.553486 0.595138
vt 0.588326 0.575018
vt 0.623094 0.574217
vt 0.654346 0.592266
vt 0.654346 0.518048
vt 0.614564 0.680251
vt 0.614564 0.595087
vt 0.588327 0.595078
vt 0.553486 0.680310
vt 0.579720 0.680302
vt 0.579720 0.595138
vt 0.623094 0.574996
vt 0.623094 0.500000
vt 0.588327 0.520082
vt 0.654335 0.684546
vt 0.654335 0.610311
vt 0.623094 0.592266
vt 0.213804 0.212377
vt 0.191079 0.173016
vt 0.289157 0.331141
vt 0.215402 0.288561
vt 0.358710 0.209612
vt 0.553486 0.500000
vt 0.216667 0.750000
vt 0.016668 0.795086
vt 0.666346 0.211773
vt 0.593684 0.377315
vt 0.454430 0.552046
vt 0.326914 0.600528
vt 0.364086 0.651484
vt 0.588326 0.500000
vt 0.623094 0.500000
vt 0.588327 0.680242
vt 0.553486 0.595145
vt 0.588327 0.595078
vt 0.623094 0.666501
vt 0.287558 0.169795
vt 0.358710 0.294776
s 0
usemtl Material2
f 68/1/1 67/2/1 4/3/1
f 6/4/2 7/5/2 61/6/2
f 9/7/3 4/3/3 3/8/3
f 7/5/3 6/4/3 4/3/3
f 60/9/4 62/10/4 3/8/4
f 3/11/5 12/12/5 6/13/5
f 19/14/5 22/15/5 2/16/5
f 2/16/5 11/17/5 3/18/5
f 34/19/6 2/20/6 33/21/6
f 3/22/6 15/23/6 42/24/6
f 2/20/6 15/23/6 4/25/6
f 51/26/7 2/27/7 52/28/7
f 2/27/7 18/29/7 6/30/7
f 4/31/7 18/29/7 47/32/7
f 3/8/3 6/4/3 8/33/3
f 29/34/5 30/35/5 3/18/5
f 2/36/5 6/13/5 12/12/5
f 2/16/5 21/37/5 26/38/5
f 2/20/6 3/22/6 14/39/6
f 3/22/6 4/25/6 15/23/6
f 2/27/7 4/31/7 17/40/7
f 2/27/7 16/41/7 55/42/7
f 4/31/7 6/30/7 18/29/7
f 10/43/8 2/43/8 21/43/8
f 19/14/5 24/44/5 22/15/5
f 26/38/5 27/45/5 25/46/5
f 29/34/5 32/47/5 30/35/5
f 34/48/6 33/49/6 35/50/6
f 38/51/6 40/52/6 39/53/6
f 41/54/6 42/55/6 44/56/6
f 47/57/7 45/58/7 46/59/7
f 51/60/7 52/61/7 50/62/7
f 56/63/7 55/64/7 53/65/7
f 61/6/9 57/66/9 59/67/9
f 64/68/10 60/9/10 63/69/10
f 68/1/11 65/70/11 67/2/11
f 67/2/2 7/5/2 4/3/12
f 4/3/13 9/7/14 68/1/15
f 61/6/16 59/67/16 6/4/16
f 59/67/17 8/33/17 6/4/17
f 62/10/18 9/7/18 3/8/19
f 3/8/20 8/33/20 60/9/20
f 22/15/5 21/37/5 2/16/5
f 2/16/5 20/71/5 19/14/5
f 34/19/6 13/72/6 2/20/6
f 2/20/6 14/39/6 33/21/6
f 42/24/6 41/73/6 3/22/6
f 41/73/6 14/39/6 3/22/6
f 51/26/7 16/41/7 2/27/7
f 2/27/7 17/40/7 52/28/7
f 47/32/7 48/74/7 4/31/7
f 48/74/7 17/40/7 4/31/7
f 30/35/5 20/71/5 3/18/5
f 3/18/5 11/17/5 29/34/5
f 26/38/5 25/46/5 2/16/5
f 25/46/5 11/17/5 2/16/5
f 55/42/7 56/75/7 2/27/7
f 56/75/7 18/29/7 2/27/7
f 19/14/5 23/76/5 24/44/5
f 26/38/5 28/77/5 27/45/5
f 29/34/5 31/78/5 32/47/5
f 34/48/6 35/50/6 36/79/6
f 38/51/6 39/53/6 37/80/6
f 41/54/6 44/56/6 43/81/6
f 47/57/7 46/59/7 48/82/7
f 51/60/7 50/62/7 49/83/7
f 56/63/7 53/65/7 54/84/7
f 61/6/21 58/85/21 57/66/21
f 64/68/22 62/10/22 60/9/22
f 68/1/23 66/86/23 65/70/23
f 37/80/6 15/23/6 2/20/6
f 2/20/6 13/72/6 38/51/6
f 38/51/6 37/80/6 2/20/6
l 1 2
l 5 6
l 1 3
l 12 20
o Pyramid
v 1.000000 1.000000 -1.000000
v 1.000000 -1.000000 -1.000000
v 1.000000 1.000000 -1.000000
v -1.000000 -1.000000 -1.000000
v -1.000000 -1.000000 -1.000000
v 0.866667 -0.866667 0.733333
v -0.733333 -0.866667 -0.866667
v 0.866667 0.733333 -0.866667
v 0.888411 0.733333 -1.000000
v -0.711589 -0.866667 -1.000000
v 1.000000 -0.866667 -0.866667
v 1.000000 0.733333 -0.866667
v 1.000000 -0.866667 0.733333
v 0.866667 -1.000000 -0.866667
v 0.866667 -1.000000 0.733333
v -0.733333 -1.000000 -0.866667
v -0.130071 -0.866667 -1.000000
v -0.711589 -0.866667 -1.000000
v 0.888411 -0.866667 -1.000000
v 0.384214 -0.866667 -1.000000
v -0.130071 -0.616660 -1.000000
v 0.384214 -0.616660 -1.000000
v 0.888411 0.120425 -1.000000
v 0.888411 -0.399252 -1.000000
v 0.610388 0.120425 -1.000000
v 0.610388 -0.399252 -1.000000
v 0.241336 0.086259 -1.000000
v -0.099321 -0.254399 -1.000000
v 0.423136 -0.095541 -1.000000
v 0.082479 -0.436199 -1.000000
v 1.000000 0.120425 -0.866667
v 1.000000 -0.399252 -0.866667
v 1.000000 0.120425 -0.587874
v 1.000000 -0.399252 -0.587874
v 1.000000 -0.866667 0.096188
v 1.000000 -0.866667 -0.418097
v 1.000000 -0.616660 0.096188
v 1.000000 -0.616660 -0.418097
v 1.000000 0.113674 -0.247014
v 1.000000 -0.226983 0.093643
v 1.000000 -0.068125 -0.428814
v 1.000000 -0.408783 -0.088157
v 0.060716 -1.000000 -0.436219
v 0.401373 -1.000000 -0.095561
v -0.121084 -1.000000 -0.254419
v 0.219573 -1.000000 0.086239
v 0.588513 -1.000000 -0.399160
v 0.588513 -1.000000 0.120517
v 0.866667 -1.000000 -0.399160
v 0.866667 -1.000000 0.120517
v 0.362339 -1.000000 -0.616568
v -0.151946 -1.000000 -0.616568
v 0.362339 -1.000000 -0.866574
v -0.151946 -1.000000 -0.866574
v -0.012706 -0.656511 -0.355525
v 0.327952 -0.656511 -0.014867
v -0.117451 -0.866652 -0.250780
v -0.110100 -0.243305 -0.866681
v 0.223204 -0.866667 0.089870
v 0.230557 0.097354 -0.866680
v -0.004920 -0.348485 -0.656975
v 0.335742 -0.007842 -0.656972
v 0.656628 -0.332965 -0.009861
v 0.656626 0.007695 -0.350516
v 0.866769 -0.228220 0.094884
v 0.866781 0.112432 -0.245769
vn -0.5772 0.5774 0.5774
vn -0.5773 0.5774 0.5773
vn -0.0000 -0.0000 -1.0000
vn 1.0000 -0.0000 -0.0000
vn -0.0000 -1.0000 -0.0000
vn -0.5773 0.5776 0.5772
vn -0.5774 0.5774 0.5773
vn -0.5774 0.5774 0.5772
vn -0.5774 0.5776 0.5771
vn -0.5771 0.5773 0.5777
vn -0.5773 0.5774 0.5774
vn -0.5776 0.5773 0.5771
vn -0.5773 0.5775 0.5772
vn -0.5772 0.5775 0.5773
vn -0.5772 0.5775 0.5774
vn -0.5776 0.5778 0.5767
vn -0.5773 0.5775 0.5773
vt 0.445631 0.257285
vt 0.239251 0.308940
vt 0.243475 0.208062
vt 0.566909 0.216411
vt 0.649608 0.133712
vt 0.644448 0.196909
vt 0.916317 0.225356
vt 0.966245 0.205728
vt 0.964060 0.142657
vt 0.781422 0.298162
vt 0.736674 0.317666
vt 0.733674 0.380863
vt 0.144374 0.363720
vt 0.173608 0.414355
vt 0.000000 0.514570
vt 0.000002 0.316498
vt 0.058470 0.316498
vt 0.058470 0.206940
vt 0.000000 0.206942
vt 0.000000 0.000000
vt 0.148596 0.153283
vt 0.177830 0.102648
vt 0.268488 0.359576
vt 0.272709 0.157424
vt 0.644448 0.306467
vt 0.702916 0.306467
vt 0.649065 0.371306
vt 0.702916 0.514570
vt 0.604358 0.416013
vt 0.565500 0.287740
vt 0.520793 0.332447
vt 0.445631 0.257285
vt 0.526707 0.176209
vt 0.702916 0.000000
vt 0.702916 0.196909
vt 0.609406 0.093510
vt 1.000000 0.514570
vt 0.968983 0.371182
vt 0.943101 0.416013
vt 0.920739 0.287617
vt 0.851466 0.257287
vt 0.894858 0.332448
vt 0.999999 0.315285
vt 0.893108 0.185155
vt 0.966245 0.315285
vt 1.000000 -0.000000
vt 0.999999 0.205727
vt 0.940851 0.102456
vt 0.702916 0.000000
vt 0.733988 0.143269
vt 0.759812 0.098540
vt 0.782236 0.226832
vt 0.851466 0.257277
vt 0.808061 0.182103
vt 0.702916 0.208110
vt 0.804634 0.338363
vt 0.736674 0.208108
vt 0.702916 0.514570
vt 0.702916 0.317667
vt 0.756886 0.421064
s 0
usemtl Material
f 76/87/24 130/88/25 132/89/25
f 90/90/26 89/91/26 98/92/26
f 106/93/27 110/94/27 105/95/27
f 119/96/28 111/97/28 120/98/28
f 129/99/25 126/100/25 75/101/25
f 75/101/29 125/102/29 123/103/29
f 124/104/30 127/105/30 74/106/31
f 129/99/32 75/101/32 123/103/32
f 124/104/33 74/106/34 131/107/25
f 74/106/35 133/108/35 131/107/35
f 129/99/36 123/103/36 124/104/36
f 76/87/31 128/109/30 130/88/25
f 130/88/34 129/99/34 124/104/34
f 132/89/37 134/110/37 76/87/38
f 124/104/39 131/107/39 130/88/39
f 131/107/30 132/89/40 130/88/30
f 97/111/26 95/112/26 93/113/26
f 95/112/26 77/114/26 93/113/26
f 77/114/26 91/115/26 93/113/26
f 94/116/26 92/117/26 87/118/26
f 94/116/26 87/118/26 90/90/26
f 87/118/26 88/119/26 90/90/26
f 97/111/26 93/113/26 94/116/26
f 86/120/26 96/121/26 89/91/26
f 96/121/26 98/92/26 89/91/26
f 98/92/26 97/111/26 90/90/26
f 97/111/26 94/116/26 90/90/26
f 89/91/26 85/122/26 86/120/26
f 80/123/27 101/124/27 99/125/27
f 102/126/27 79/127/27 100/128/27
f 107/129/27 101/124/27 80/123/27
f 102/126/27 106/93/27 79/127/27
f 79/127/27 106/93/27 104/130/27
f 109/131/27 101/124/27 107/129/27
f 81/132/27 105/95/27 108/133/27
f 108/133/27 105/95/27 110/94/27
f 109/131/27 102/126/27 101/124/27
f 110/94/27 102/126/27 109/131/27
f 105/95/27 81/132/27 103/134/27
f 102/126/27 110/94/27 106/93/27
f 83/135/28 116/136/28 118/137/28
f 115/138/28 82/139/28 117/140/28
f 114/141/28 116/136/28 83/135/28
f 115/138/28 119/96/28 82/139/28
f 82/139/28 119/96/28 121/142/28
f 112/143/28 116/136/28 114/141/28
f 84/144/28 120/98/28 113/145/28
f 113/145/28 120/98/28 111/97/28
f 112/143/28 115/138/28 116/136/28
f 111/97/28 119/96/28 112/143/28
f 112/143/28 119/96/28 115/138/28
f 120/98/28 84/144/28 122/146/28
l 69 70
l 72 73
l 69 71
l 78 86
