mtllib dispel_gummi_dome.mtl
o Dome2
v 0.000000 0.350670 -0.848099
v 0.165456 0.350670 -0.831803
v 0.183845 0.177783 -0.924249
v 0.471179 0.350670 -0.705169
v 0.523546 0.177783 -0.783542
v 0.599697 0.350670 -0.599697
v 0.666347 0.177783 -0.666347
v 0.705169 0.350670 -0.471179
v 0.783542 0.177783 -0.523546
v 0.831803 0.350670 -0.165456
v 0.924249 0.177783 -0.183845
v 0.848098 0.350670 -0.000000
v 0.942357 0.177783 -0.000000
v 0.831803 0.350670 0.165456
v 0.924249 0.177783 0.183845
v 0.705168 0.350670 0.471179
v 0.783542 0.177783 0.523546
v 0.599697 0.350670 0.599697
v 0.666347 0.177783 0.666347
v 0.471179 0.350670 0.705169
v 0.523546 0.177783 0.783542
v 0.165456 0.350670 0.831803
v 0.183845 0.177783 0.924249
v 0.000000 0.350670 0.848098
v 0.000000 0.177783 0.942357
v -0.165456 0.350670 0.831803
v -0.183845 0.177783 0.924249
v -0.471179 0.350670 0.705168
v -0.523546 0.177783 0.783542
v -0.599697 0.350670 0.599696
v -0.666347 0.177783 0.666347
v -0.705168 0.350670 0.471178
v -0.783540 0.177783 0.523546
v -0.831803 0.350670 0.165455
v -0.924249 0.177783 0.183845
v -0.848098 0.350670 -0.000000
v -0.941778 0.181492 -0.000000
v -0.831803 0.350670 -0.165456
v -0.924249 0.177783 -0.183845
v -0.705168 0.350670 -0.471179
v -0.783540 0.177783 -0.523546
v -0.599696 0.350670 -0.599697
v -0.666347 0.177783 -0.666347
v -0.471178 0.350670 -0.705168
v -0.523546 0.177783 -0.783540
v -0.165455 0.350670 -0.831803
v -0.183845 0.177783 -0.924249
v 0.000000 0.177783 -0.942357
v 0.183845 0.177783 -0.924249
v 0.360624 0.177783 -0.870624
v 0.523546 0.177783 -0.783542
v 0.666347 0.177783 -0.666347
v 0.783542 0.177783 -0.523546
v 0.870624 0.177783 -0.360624
v 0.924249 0.177783 -0.183845
v 0.942357 0.177783 -0.000000
v 0.924249 0.177783 0.183845
v 0.870624 0.177783 0.360624
v 0.783542 0.177783 0.523546
v 0.666347 0.177783 0.666347
v 0.523546 0.177783 0.783542
v 0.360624 0.177783 0.870624
v 0.183845 0.177783 0.924249
v 0.000000 0.177783 0.942357
v -0.183845 0.177783 0.924249
v -0.360624 0.177783 0.870624
v -0.523546 0.177783 0.783542
v -0.666347 0.177783 0.666347
v -0.783540 0.177783 0.523546
v -0.870624 0.177783 0.360624
v -0.924249 0.177783 0.183845
v -0.941778 0.181492 -0.000000
v -0.924249 0.177783 -0.183845
v -0.870624 0.177783 -0.360624
v -0.783540 0.177783 -0.523546
v -0.666347 0.177783 -0.666347
v -0.523546 0.177783 -0.783540
v -0.360624 0.177783 -0.870624
v -0.183845 0.177783 -0.924249
v 0.000000 0.177783 -0.942357
v 0.000001 -0.009810 -0.799433
v 0.155962 -0.009810 -0.784073
v 0.305930 -0.009810 -0.738579
v 0.444141 -0.009810 -0.664704
v 0.565284 -0.009810 -0.565284
v 0.664704 -0.009810 -0.444141
v 0.738579 -0.009810 -0.305930
v 0.784073 -0.009810 -0.155962
v 0.799433 -0.009810 0.000000
v -0.981178 -0.009810 -0.195169
v -0.738579 -0.009810 -0.305930
v 0.784073 -0.009810 0.155962
v -0.981178 -0.009810 0.195168
v -0.799433 -0.009810 0.000000
v 0.738579 -0.009810 0.305930
v -0.831803 -0.009810 0.555793
v -0.738579 -0.009810 0.305930
v 0.664704 -0.009810 0.444141
v -0.555793 -0.009810 0.831803
v -0.565284 -0.009810 0.565284
v 0.565284 -0.009810 0.565284
v -0.382837 -0.009810 0.924249
v 0.444141 -0.009810 0.664704
v -0.195169 -0.009810 0.981178
v 0.305930 -0.009810 0.738579
v 0.195169 -0.009810 0.981178
v 0.000000 -0.009810 0.799433
v -0.382837 -0.009810 -0.924249
v -0.195168 -0.009810 -0.981178
v -0.555793 -0.009810 -0.831803
v -0.831803 -0.009810 -0.555793
v -0.565283 -0.009810 -0.565284
v 0.000000 -0.009810 -1.000401
v 0.195169 -0.009810 -0.981179
v 0.382837 -0.009810 -0.924249
v 0.555793 -0.009810 -0.831803
v 0.707390 -0.009810 -0.707390
v 0.831803 -0.009810 -0.555793
v 0.924249 -0.009810 -0.382837
v 0.981179 -0.009810 -0.195169
v 1.000401 -0.009810 0.000000
v -0.784072 -0.009810 -0.155962
v -0.924249 -0.009810 -0.382837
v 0.981179 -0.009810 0.195169
v -0.784072 -0.009810 0.155961
v -1.000401 -0.009810 0.000000
v 0.924249 -0.009810 0.382837
v -0.664704 -0.009810 0.444141
v -0.924249 -0.009810 0.382837
v 0.831803 -0.009810 0.555793
v -0.444141 -0.009810 0.664704
v -0.707390 -0.009810 0.707390
v 0.707390 -0.009810 0.707390
v -0.305930 -0.009810 0.738579
v 0.555793 -0.009810 0.831803
v -0.155962 -0.009810 0.784072
v 0.382837 -0.009810 0.924249
v 0.155962 -0.009810 0.784072
v 0.000000 -0.009810 1.000401
v -0.305930 -0.009810 -0.738579
v -0.155961 -0.009810 -0.784072
v -0.444141 -0.009810 -0.664704
v -0.664705 -0.009810 -0.444141
v -0.707389 -0.009810 -0.707390
v -0.302377 -0.009810 -0.522940
v -0.523339 -0.009810 -0.302775
v 0.155962 -0.009810 -0.584274
v -0.155961 -0.009810 -0.583654
v -0.583921 -0.009810 -0.155962
v -0.583802 -0.009810 0.155961
v -0.523466 -0.009810 0.302903
v -0.302942 -0.009810 0.523505
v -0.155962 -0.009810 0.583827
v 0.155962 -0.009810 0.584218
v 0.584076 -0.009810 -0.155962
v 0.583808 -0.009810 0.155962
v 0.523268 -0.009810 0.302705
v 0.302602 -0.009810 0.523165
v 0.302572 -0.009810 -0.523135
v 0.523291 -0.009810 -0.302728
vn -0.0000 0.4787 -0.8780
vn 0.0862 0.4769 -0.8747
vn 0.5576 0.4769 -0.6794
vn 0.6208 0.4787 -0.6208
vn 0.6794 0.4769 -0.5576
vn 0.8747 0.4769 -0.0862
vn 0.8780 0.4787 -0.0000
vn 0.8747 0.4769 0.0862
vn 0.6794 0.4769 0.5576
vn 0.6208 0.4787 0.6208
vn 0.5576 0.4769 0.6794
vn 0.0862 0.4769 0.8747
vn -0.0000 0.4787 0.8780
vn -0.0862 0.4769 0.8747
vn -0.5576 0.4769 0.6794
vn -0.6208 0.4787 0.6208
vn -0.6794 0.4769 0.5576
vn -0.8728 0.4797 0.0896
vn -0.8763 0.4817 -0.0000
vn -0.8728 0.4797 -0.0896
vn -0.6794 0.4769 -0.5576
vn -0.6208 0.4787 -0.6208
vn -0.5576 0.4769 -0.6794
vn -0.0862 0.4769 -0.8747
vn -0.0000 0.2956 -0.9553
vn 0.1864 0.2956 -0.9370
vn 0.3656 0.2956 -0.8826
vn 0.5307 0.2956 -0.7943
vn 0.6755 0.2956 -0.6755
vn 0.7943 0.2956 -0.5307
vn 0.8826 0.2956 -0.3656
vn 0.9370 0.2956 -0.1864
vn 0.9553 0.2956 -0.0000
vn -0.9371 0.2949 -0.1865
vn -0.8826 0.2956 -0.3656
vn -0.9370 0.2949 -0.1871
vn 0.9370 0.2956 0.1864
vn -0.9371 0.2949 0.1865
vn -0.9557 0.2943 -0.0000
vn -0.9370 0.2949 0.1871
vn 0.8826 0.2956 0.3656
vn -0.7943 0.2956 0.5307
vn -0.8826 0.2956 0.3656
vn 0.7943 0.2956 0.5307
vn -0.5307 0.2956 0.7943
vn -0.6755 0.2956 0.6755
vn 0.6755 0.2956 0.6755
vn -0.3656 0.2956 0.8826
vn 0.5307 0.2956 0.7943
vn -0.1864 0.2956 0.9370
vn 0.3656 0.2956 0.8826
vn 0.1864 0.2956 0.9370
vn -0.0000 0.2956 0.9553
vn -0.3656 0.2956 -0.8826
vn -0.1864 0.2956 -0.9370
vn -0.5307 0.2956 -0.7943
vn -0.7943 0.2956 -0.5307
vn -0.6755 0.2956 -0.6755
vn -0.0000 -1.0000 -0.0000
vt 0.525270 0.849237
vt 0.468079 0.848429
vt 0.466285 0.799892
vt 0.523277 0.795306
vt 0.057293 1.000000
vt 0.000000 0.996271
vt 0.002152 0.953874
vt 0.059684 0.952891
vt -0.000000 0.916252
vt 0.057293 0.911087
vt 0.523277 0.688667
vt 0.466285 0.682586
vt 0.468079 0.635149
vt 0.525270 0.635958
vt 0.466285 0.586613
vt 0.523277 0.582027
vt 0.988726 0.914658
vt 0.931433 0.910929
vt 0.933585 0.868532
vt 0.991117 0.867549
vt 0.931433 0.830910
vt 0.988726 0.825745
vt 0.468278 0.688667
vt 0.525270 0.694747
vt 0.523476 0.742184
vt 0.466285 0.741376
vt 0.525270 0.790720
vt 0.468278 0.795306
vt 0.062075 0.911087
vt 0.119367 0.914816
vt 0.117215 0.957213
vt 0.059684 0.958196
vt 0.119367 0.994835
vt 0.062075 0.999999
vt 0.874439 0.825745
vt 0.931433 0.831823
vt 0.929637 0.879260
vt 0.873511 0.878423
vt 0.931433 0.927796
vt 0.874439 0.932385
vt 0.468678 0.901946
vt 0.525971 0.905691
vt 0.523817 0.948092
vt 0.466285 0.949058
vt 0.525971 0.985719
vt 0.468678 0.990868
vt 0.523277 0.901946
vt 0.466285 0.895865
vt 0.901731 0.668432
vt 0.903713 0.614501
vt 0.960911 0.614775
vt 0.958808 0.672028
vt 0.901731 0.561131
vt 0.958808 0.558117
vt 0.895864 0.510371
vt 0.952579 0.504231
vt 0.886335 0.464174
vt 0.942463 0.455188
vt 0.873511 0.424314
vt 0.928849 0.412873
vt 0.291484 0.982385
vt 0.304308 0.938897
vt 0.360436 0.948733
vt 0.346822 0.994899
vt 0.313836 0.890005
vt 0.370552 0.896830
vt 0.319704 0.837586
vt 0.376781 0.841182
vt 0.930707 0.211241
vt 0.932691 0.264612
vt 0.875616 0.267624
vt 0.873511 0.210966
vt 0.321686 0.783655
vt 0.378884 0.783928
vt 0.938565 0.104891
vt 0.933758 0.157357
vt 0.875616 0.153713
vt 0.881852 0.098066
vt 0.319704 0.730284
vt 0.376781 0.727270
vt 0.960942 0.012515
vt 0.948104 0.056000
vt 0.891979 0.046163
vt 0.905607 0.000000
vt 0.313837 0.679525
vt 0.370552 0.673385
vt 0.443932 0.897401
vt 0.453461 0.943598
vt 0.397333 0.952584
vt 0.387217 0.903541
vt 0.466284 0.983458
vt 0.410946 0.994899
vt 0.304308 0.633328
vt 0.360436 0.624342
vt 0.438064 0.846642
vt 0.380988 0.849656
vt 0.291484 0.593468
vt 0.346822 0.582027
vt 0.436083 0.793271
vt 0.378884 0.792998
vt 0.466284 0.594541
vt 0.453461 0.638029
vt 0.397333 0.628193
vt 0.410946 0.582027
vt 0.443932 0.686921
vt 0.438064 0.739340
vt 0.380988 0.735744
vt 0.387217 0.680097
vt 0.886335 0.769744
vt 0.895863 0.720852
vt 0.952579 0.727676
vt 0.942463 0.779580
vt 0.873511 0.813231
vt 0.928849 0.825745
vt 0.938565 0.315373
vt 0.948104 0.361571
vt 0.891979 0.370556
vt 0.881852 0.321511
vt 0.960942 0.401433
vt 0.905607 0.412873
vt 0.497099 0.401169
vt 0.514629 0.358847
vt 0.570843 0.375899
vt 0.548906 0.428860
vt 0.471648 0.439257
vt 0.517058 0.476524
vt 0.439257 0.471649
vt 0.476523 0.517058
vt 0.401168 0.497099
vt 0.428860 0.548906
vt 0.358846 0.514629
vt 0.375899 0.570843
vt 0.313918 0.523566
vt 0.319676 0.582027
vt 0.268109 0.523566
vt 0.262351 0.582027
vt 0.223180 0.514629
vt 0.206128 0.570843
vt 0.439257 0.110378
vt 0.401169 0.084928
vt 0.428860 0.033121
vt 0.476524 0.064969
vt 0.180858 0.497099
vt 0.153166 0.548906
vt 0.358847 0.067398
vt 0.313918 0.058461
vt 0.319676 0.000000
vt 0.375899 0.011183
vt 0.142770 0.471648
vt 0.105503 0.517058
vt 0.268109 0.058461
vt 0.223181 0.067398
vt 0.206128 0.011183
vt 0.262351 0.000000
vt 0.110378 0.439257
vt 0.064968 0.476523
vt 0.180859 0.084928
vt 0.142770 0.110378
vt 0.105503 0.064968
vt 0.153167 0.033120
vt 0.084928 0.401168
vt 0.033121 0.428860
vt 0.110378 0.142770
vt 0.064969 0.105503
vt 0.067398 0.358846
vt 0.011183 0.375899
vt 0.084928 0.180858
vt 0.033121 0.153166
vt 0.058461 0.313918
vt 0.000000 0.319675
vt 0.067398 0.223180
vt 0.058461 0.268109
vt 0.000000 0.262351
vt 0.011183 0.206128
vt 0.523566 0.313918
vt 0.523566 0.268109
vt 0.582027 0.262351
vt 0.582027 0.319676
vt 0.514629 0.223181
vt 0.570844 0.206128
vt 0.497099 0.180859
vt 0.471649 0.142770
vt 0.517059 0.105503
vt 0.548906 0.153167
vt 0.462946 0.250806
vt 0.420111 0.170317
vt 0.441212 0.384215
vt 0.467505 0.296912
vt 0.384185 0.140914
vt 0.296925 0.114480
vt 0.250703 0.118889
vt 0.170285 0.161855
vt 0.114364 0.285067
vt 0.140940 0.197849
vt 0.285079 0.467623
vt 0.197851 0.441081
vt 0.161941 0.411696
vt 0.118998 0.331265
vt 0.411670 0.420037
vt 0.331290 0.463074
s 1
usemtl Material2
f 48/1/1 1/2/1 2/3/2 3/4/2
f 5/5/3 4/6/3 6/7/4 7/8/4
f 7/8/4 6/7/4 8/9/5 9/10/5
f 11/11/6 10/12/6 12/13/7 13/14/7
f 13/14/7 12/13/7 14/15/8 15/16/8
f 17/17/9 16/18/9 18/19/10 19/20/10
f 19/20/10 18/19/10 20/21/11 21/22/11
f 23/23/12 22/24/12 24/25/13 25/26/13
f 25/26/13 24/25/13 26/27/14 27/28/14
f 29/29/15 28/30/15 30/31/16 31/32/16
f 31/32/16 30/31/16 32/33/17 33/34/17
f 35/35/18 34/36/18 36/37/19 37/38/19
f 37/38/19 36/37/19 38/39/20 39/40/20
f 41/41/21 40/42/21 42/43/22 43/44/22
f 43/44/22 42/43/22 44/45/23 45/46/23
f 47/47/24 46/48/24 1/2/1 48/1/1
f 80/49/25 49/50/26 114/51/26 113/52/25
f 49/50/26 50/53/27 115/54/27 114/51/26
f 50/53/27 51/55/28 116/56/28 115/54/27
f 51/55/28 52/57/29 117/58/29 116/56/28
f 52/57/29 53/59/30 118/60/30 117/58/29
f 53/61/30 54/62/31 119/63/31 118/64/30
f 54/62/31 55/65/32 120/66/32 119/63/31
f 55/65/32 56/67/33 121/68/33 120/66/32
f 73/69/34 74/70/35 123/71/35 90/72/36
f 56/67/33 57/73/37 124/74/37 121/68/33
f 71/75/38 72/76/39 126/77/39 93/78/40
f 72/76/39 73/69/34 90/72/36 126/77/39
f 57/73/37 58/79/41 127/80/41 124/74/37
f 69/81/42 70/82/43 129/83/43 96/84/42
f 70/82/43 71/75/38 93/78/40 129/83/43
f 58/79/41 59/85/44 130/86/44 127/80/41
f 67/87/45 68/88/46 132/89/46 99/90/45
f 68/88/46 69/91/42 96/92/42 132/89/46
f 59/85/44 60/93/47 133/94/47 130/86/44
f 66/95/48 67/87/45 99/90/45 102/96/48
f 60/93/47 61/97/49 135/98/49 133/94/47
f 65/99/50 66/95/48 102/96/48 104/100/50
f 61/101/49 62/102/51 137/103/51 135/104/49
f 63/105/52 64/106/53 139/107/53 106/108/52
f 64/106/53 65/99/50 104/100/50 139/107/53
f 62/102/51 63/105/52 106/108/52 137/103/51
f 78/109/54 79/110/55 109/111/55 108/112/54
f 77/113/56 78/109/54 108/112/54 110/114/56
f 75/115/57 76/116/58 144/117/58 111/118/57
f 76/116/58 77/119/56 110/120/56 144/117/58
f 79/110/55 80/49/25 113/52/25 109/111/55
f 74/70/35 75/115/57 111/118/57 123/71/35
f 82/121/59 81/122/59 113/123/59 114/124/59
f 83/125/59 82/121/59 114/124/59 115/126/59
f 84/127/59 83/125/59 115/126/59 116/128/59
f 85/129/59 84/127/59 116/128/59 117/130/59
f 86/131/59 85/129/59 117/130/59 118/132/59
f 87/133/59 86/131/59 118/132/59 119/134/59
f 88/135/59 87/133/59 119/134/59 120/136/59
f 89/137/59 88/135/59 120/136/59 121/138/59
f 91/139/59 122/140/59 90/141/59 123/142/59
f 92/143/59 89/137/59 121/138/59 124/144/59
f 94/145/59 125/146/59 93/147/59 126/148/59
f 122/140/59 94/145/59 126/148/59 90/141/59
f 95/149/59 92/143/59 124/144/59 127/150/59
f 97/151/59 128/152/59 96/153/59 129/154/59
f 125/146/59 97/151/59 129/154/59 93/147/59
f 98/155/59 95/149/59 127/150/59 130/156/59
f 100/157/59 131/158/59 99/159/59 132/160/59
f 128/152/59 100/157/59 132/160/59 96/153/59
f 101/161/59 98/155/59 130/156/59 133/162/59
f 131/158/59 134/163/59 102/164/59 99/159/59
f 103/165/59 101/161/59 133/162/59 135/166/59
f 134/163/59 136/167/59 104/168/59 102/164/59
f 105/169/59 103/165/59 135/166/59 137/170/59
f 107/171/59 138/172/59 106/173/59 139/174/59
f 136/167/59 107/171/59 139/174/59 104/168/59
f 138/172/59 105/169/59 137/170/59 106/173/59
f 141/175/59 140/176/59 108/177/59 109/178/59
f 140/176/59 142/179/59 110/180/59 108/177/59
f 112/181/59 143/182/59 111/183/59 144/184/59
f 142/179/59 112/181/59 144/184/59 110/180/59
f 81/122/59 141/175/59 109/178/59 113/123/59
f 143/182/59 91/139/59 123/142/59 111/183/59
f 142/179/59 145/185/59 112/181/59
f 145/185/59 146/186/59 112/181/59
f 112/181/59 146/186/59 143/182/59
f 82/121/59 147/187/59 81/122/59
f 141/175/59 81/122/59 148/188/59
f 147/187/59 148/188/59 81/122/59
f 122/140/59 149/189/59 94/145/59
f 125/146/59 94/145/59 150/190/59
f 149/189/59 150/190/59 94/145/59
f 128/152/59 151/191/59 100/157/59
f 131/158/59 100/157/59 152/192/59
f 151/191/59 152/192/59 100/157/59
f 138/172/59 107/171/59 154/193/59
f 136/167/59 153/194/59 107/171/59
f 153/194/59 154/193/59 107/171/59
f 89/137/59 155/195/59 88/135/59
f 92/143/59 156/196/59 89/137/59
f 155/195/59 89/137/59 156/196/59
f 101/161/59 157/197/59 98/155/59
f 103/165/59 158/198/59 101/161/59
f 157/197/59 101/161/59 158/198/59
f 85/129/59 159/199/59 84/127/59
f 86/131/59 160/200/59 85/129/59
f 159/199/59 85/129/59 160/200/59
o Dome
v 0.000000 0.626570 -0.566681
v 0.000000 0.350670 -0.848099
v 0.038821 0.775885 -0.195169
v 0.076151 0.718980 -0.382837
v 0.110554 0.626570 -0.555793
v 0.140709 0.502207 -0.707390
v 0.165456 0.350670 -0.831803
v 0.183845 0.177783 -0.924249
v 0.076151 0.775885 -0.183845
v 0.149376 0.718980 -0.360624
v 0.216860 0.626570 -0.523546
v 0.276010 0.502207 -0.666347
v 0.324554 0.350670 -0.783542
v 0.360624 0.177783 -0.870624
v 0.110554 0.775885 -0.165456
v 0.216860 0.718980 -0.324554
v 0.314831 0.626570 -0.471179
v 0.400704 0.502207 -0.599697
v 0.471179 0.350670 -0.705169
v 0.523546 0.177783 -0.783542
v 0.140709 0.775885 -0.140709
v 0.276010 0.718980 -0.276010
v 0.400704 0.626570 -0.400704
v 0.510000 0.502207 -0.510000
v 0.599697 0.350670 -0.599697
v 0.165456 0.775885 -0.110554
v 0.324554 0.718980 -0.216860
v 0.471179 0.626570 -0.314831
v 0.599697 0.502207 -0.400704
v 0.705169 0.350670 -0.471179
v 0.783542 0.177783 -0.523546
v 0.000000 0.795100 -0.000000
v 0.183845 0.775885 -0.076151
v 0.360624 0.718980 -0.149376
v 0.523546 0.626570 -0.216859
v 0.666347 0.502207 -0.276010
v 0.783542 0.350670 -0.324554
v 0.870624 0.177783 -0.360624
v 0.195169 0.775885 -0.038821
v 0.382837 0.718980 -0.076151
v 0.555793 0.626570 -0.110554
v 0.707390 0.502207 -0.140709
v 0.831803 0.350670 -0.165456
v 0.924249 0.177783 -0.183845
v 0.198992 0.775885 -0.000000
v 0.390337 0.718980 -0.000000
v 0.566681 0.626570 -0.000000
v 0.721249 0.502207 -0.000000
v 0.848098 0.350670 -0.000000
v 0.195169 0.775885 0.038821
v 0.382837 0.718980 0.076151
v 0.555793 0.626570 0.110554
v 0.707390 0.502207 0.140709
v 0.831803 0.350670 0.165456
v 0.924249 0.177783 0.183845
v 0.183845 0.775885 0.076151
v 0.360624 0.718980 0.149376
v 0.523546 0.626570 0.216860
v 0.666347 0.502207 0.276010
v 0.783542 0.350670 0.324554
v 0.870624 0.177783 0.360624
v 0.165456 0.775885 0.110554
v 0.324554 0.718980 0.216860
v 0.471179 0.626570 0.314831
v 0.599697 0.502207 0.400704
v 0.705168 0.350670 0.471179
v 0.783542 0.177783 0.523546
v 0.140709 0.775885 0.140709
v 0.276010 0.718980 0.276010
v 0.400704 0.626570 0.400704
v 0.510000 0.502207 0.510000
v 0.599697 0.350670 0.599697
v 0.110554 0.775885 0.165456
v 0.216859 0.718980 0.324554
v 0.314831 0.626570 0.471179
v 0.400704 0.502207 0.599697
v 0.471179 0.350670 0.705169
v 0.523546 0.177783 0.783542
v 0.076151 0.775885 0.183845
v 0.149376 0.718980 0.360624
v 0.216859 0.626570 0.523546
v 0.276010 0.502207 0.666347
v 0.324553 0.350670 0.783542
v 0.360624 0.177783 0.870624
v 0.038821 0.775885 0.195169
v 0.076151 0.718980 0.382837
v 0.110554 0.626570 0.555793
v 0.140709 0.502207 0.707390
v 0.165456 0.350670 0.831803
v 0.183845 0.177783 0.924249
v 0.000000 0.775885 0.198992
v 0.000000 0.718980 0.390337
v 0.000000 0.626570 0.566681
v 0.000000 0.502207 0.721249
v 0.000000 0.350670 0.848098
v -0.038821 0.775885 0.195169
v -0.076151 0.718980 0.382837
v -0.110554 0.626570 0.555793
v -0.140709 0.502207 0.707390
v -0.165456 0.350670 0.831803
v -0.183845 0.177783 0.924249
v -0.076151 0.775885 0.183845
v -0.149376 0.718980 0.360624
v -0.216860 0.626570 0.523546
v -0.276010 0.502207 0.666347
v -0.324554 0.350670 0.783540
v -0.360624 0.177783 0.870624
v -0.110554 0.775885 0.165456
v -0.216860 0.718980 0.324554
v -0.314831 0.626570 0.471178
v -0.400704 0.502207 0.599697
v -0.471179 0.350670 0.705168
v -0.523546 0.177783 0.783542
v -0.140709 0.775885 0.140709
v -0.276010 0.718980 0.276010
v -0.400704 0.626570 0.400704
v -0.510000 0.502207 0.510000
v -0.599697 0.350670 0.599696
v -0.165456 0.775885 0.110554
v -0.324554 0.718980 0.216859
v -0.471179 0.626570 0.314831
v -0.599697 0.502207 0.400704
v -0.705168 0.350670 0.471178
v -0.783540 0.177783 0.523546
v -0.183845 0.775885 0.076151
v -0.360624 0.718980 0.149376
v -0.523546 0.626570 0.216859
v -0.666347 0.502207 0.276010
v -0.783540 0.350670 0.324553
v -0.870624 0.177783 0.360624
v -0.195169 0.775885 0.038821
v -0.382837 0.718980 0.076151
v -0.555793 0.626570 0.110554
v -0.707390 0.502207 0.140709
v -0.831803 0.350670 0.165455
v -0.924249 0.177783 0.183845
v -0.198992 0.775885 -0.000000
v -0.390337 0.718980 -0.000000
v -0.566681 0.626570 -0.000000
v -0.721249 0.502207 -0.000000
v -0.848098 0.350670 -0.000000
v -0.195169 0.775885 -0.038821
v -0.382837 0.718980 -0.076151
v -0.555793 0.626570 -0.110554
v -0.707390 0.502207 -0.140709
v -0.831803 0.350670 -0.165456
v -0.924249 0.177783 -0.183845
v -0.183845 0.775885 -0.076151
v -0.360624 0.718980 -0.149376
v -0.523545 0.626570 -0.216859
v -0.666347 0.502207 -0.276010
v -0.783540 0.350670 -0.324554
v -0.870624 0.177783 -0.360624
v -0.165456 0.775885 -0.110554
v -0.324553 0.718980 -0.216859
v -0.471178 0.626570 -0.314831
v -0.599697 0.502207 -0.400704
v -0.705168 0.350670 -0.471179
v -0.783540 0.177783 -0.523546
v -0.140709 0.775885 -0.140709
v -0.276010 0.718980 -0.276010
v -0.400704 0.626570 -0.400704
v -0.510000 0.502207 -0.510000
v -0.599696 0.350670 -0.599697
v -0.110554 0.775885 -0.165456
v -0.216859 0.718980 -0.324554
v -0.314831 0.626570 -0.471178
v -0.400704 0.502207 -0.599697
v -0.471178 0.350670 -0.705168
v -0.523546 0.177783 -0.783540
v -0.076151 0.775885 -0.183845
v -0.149375 0.718980 -0.360624
v -0.216859 0.626570 -0.523545
v -0.276010 0.502207 -0.666347
v -0.324553 0.350670 -0.783540
v -0.360624 0.177783 -0.870624
v -0.038821 0.775885 -0.195169
v -0.076151 0.718980 -0.382837
v -0.110554 0.626570 -0.555793
v -0.140709 0.502207 -0.707390
v -0.165455 0.350670 -0.831803
v -0.183845 0.177783 -0.924249
v 0.000000 0.775885 -0.198992
v 0.000000 0.718980 -0.390337
v 0.000000 0.502207 -0.721249
v 0.155962 -0.009810 -0.784073
v 0.305930 -0.009810 -0.738579
v 0.444141 -0.009810 -0.664704
v 0.664704 -0.009810 -0.444141
v 0.738579 -0.009810 -0.305930
v 0.784073 -0.009810 -0.155962
v -0.738579 -0.009810 -0.305930
v 0.784073 -0.009810 0.155962
v 0.738579 -0.009810 0.305930
v -0.738579 -0.009810 0.305930
v 0.664704 -0.009810 0.444141
v 0.444141 -0.009810 0.664704
v 0.305930 -0.009810 0.738579
v -0.784072 -0.009810 -0.155962
v -0.784072 -0.009810 0.155961
v -0.664704 -0.009810 0.444141
v -0.444141 -0.009810 0.664704
v -0.305930 -0.009810 0.738579
v -0.155962 -0.009810 0.784072
v 0.155962 -0.009810 0.784072
v -0.305930 -0.009810 -0.738579
v -0.155961 -0.009810 -0.784072
v -0.444141 -0.009810 -0.664704
v -0.664705 -0.009810 -0.444141
v -0.302377 -0.009810 -0.522940
v -0.523339 -0.009810 -0.302775
v 0.155962 -0.009810 -0.584274
v -0.155961 -0.009810 -0.583654
v -0.583921 -0.009810 -0.155962
v -0.583802 -0.009810 0.155961
v -0.523466 -0.009810 0.302903
v -0.302942 -0.009810 0.523505
v -0.155962 -0.009810 0.583827
v 0.155962 -0.009810 0.584218
v 0.584076 -0.009810 -0.155962
v 0.583808 -0.009810 0.155962
v 0.523268 -0.009810 0.302705
v 0.302602 -0.009810 0.523165
v 0.302572 -0.009810 -0.523135
v 0.523291 -0.009810 -0.302728
vn -0.0000 0.9804 -0.1973
vn -0.0000 1.0000 -0.0000
vn 0.0385 0.9804 -0.1935
vn -0.0000 0.9244 -0.3815
vn 0.0744 0.9244 -0.3742
vn -0.0000 0.8336 -0.5523
vn 0.1078 0.8336 -0.5417
vn -0.0000 0.7109 -0.7033
vn 0.1372 0.7109 -0.6898
vn -0.0000 0.5603 -0.8283
vn 0.1616 0.5602 -0.8124
vn 0.0755 0.9804 -0.1822
vn 0.1460 0.9244 -0.3525
vn 0.2114 0.8336 -0.5103
vn 0.2691 0.7109 -0.6498
vn 0.3170 0.5602 -0.7653
vn 0.1713 0.4787 -0.8611
vn 0.3360 0.4787 -0.8112
vn 0.2120 0.9244 -0.3172
vn 0.3069 0.8336 -0.4593
vn 0.3907 0.7109 -0.5848
vn 0.4602 0.5602 -0.6888
vn 0.4878 0.4787 -0.7300
vn 0.1096 0.9804 -0.1640
vn 0.1395 0.9804 -0.1395
vn 0.2698 0.9244 -0.2698
vn 0.3906 0.8336 -0.3906
vn 0.4973 0.7109 -0.4973
vn 0.5857 0.5603 -0.5857
vn 0.4593 0.8336 -0.3069
vn 0.5848 0.7109 -0.3907
vn 0.6888 0.5602 -0.4602
vn 0.1640 0.9804 -0.1096
vn 0.3172 0.9244 -0.2120
vn 0.1822 0.9804 -0.0755
vn 0.3525 0.9244 -0.1460
vn 0.5103 0.8336 -0.2114
vn 0.6498 0.7109 -0.2691
vn 0.7653 0.5602 -0.3170
vn 0.7300 0.4787 -0.4878
vn 0.8112 0.4787 -0.3360
vn 0.6898 0.7109 -0.1372
vn 0.8124 0.5602 -0.1616
vn 0.8611 0.4787 -0.1713
vn 0.1935 0.9804 -0.0385
vn 0.3742 0.9244 -0.0744
vn 0.5417 0.8336 -0.1078
vn 0.1973 0.9804 -0.0000
vn 0.3815 0.9244 -0.0000
vn 0.5523 0.8336 -0.0000
vn 0.7033 0.7109 -0.0000
vn 0.8283 0.5603 -0.0000
vn 0.6898 0.7109 0.1372
vn 0.8124 0.5602 0.1616
vn 0.1935 0.9804 0.0385
vn 0.3742 0.9244 0.0744
vn 0.5417 0.8336 0.1078
vn 0.1822 0.9804 0.0755
vn 0.3525 0.9244 0.1460
vn 0.5103 0.8336 0.2114
vn 0.6498 0.7109 0.2691
vn 0.7653 0.5602 0.3170
vn 0.8611 0.4787 0.1713
vn 0.8112 0.4787 0.3360
vn 0.6888 0.5602 0.4602
vn 0.7300 0.4787 0.4878
vn 0.1640 0.9804 0.1096
vn 0.3172 0.9244 0.2120
vn 0.4593 0.8336 0.3069
vn 0.5848 0.7109 0.3907
vn 0.1395 0.9804 0.1395
vn 0.2698 0.9244 0.2698
vn 0.3906 0.8336 0.3906
vn 0.4973 0.7109 0.4973
vn 0.5857 0.5603 0.5857
vn 0.1096 0.9804 0.1640
vn 0.2120 0.9244 0.3172
vn 0.3069 0.8336 0.4593
vn 0.3907 0.7109 0.5848
vn 0.4602 0.5602 0.6888
vn 0.1460 0.9244 0.3525
vn 0.2114 0.8336 0.5103
vn 0.2691 0.7109 0.6498
vn 0.3170 0.5602 0.7653
vn 0.4878 0.4787 0.7300
vn 0.3360 0.4787 0.8112
vn 0.0755 0.9804 0.1822
vn 0.0385 0.9804 0.1935
vn 0.0744 0.9244 0.3742
vn 0.1078 0.8336 0.5417
vn 0.1372 0.7109 0.6898
vn 0.1616 0.5602 0.8124
vn 0.1713 0.4787 0.8611
vn -0.0000 0.8336 0.5523
vn -0.0000 0.7109 0.7033
vn -0.0000 0.5603 0.8283
vn -0.0000 0.9804 0.1973
vn -0.0000 0.9244 0.3815
vn -0.0385 0.9804 0.1935
vn -0.0744 0.9244 0.3742
vn -0.1078 0.8336 0.5417
vn -0.1372 0.7109 0.6898
vn -0.1616 0.5602 0.8124
vn -0.2114 0.8336 0.5103
vn -0.2691 0.7109 0.6498
vn -0.3170 0.5602 0.7653
vn -0.1713 0.4787 0.8611
vn -0.3360 0.4787 0.8112
vn -0.0755 0.9804 0.1822
vn -0.1460 0.9244 0.3525
vn -0.1096 0.9804 0.1640
vn -0.2120 0.9244 0.3172
vn -0.3069 0.8336 0.4593
vn -0.3907 0.7109 0.5848
vn -0.4602 0.5602 0.6888
vn -0.4878 0.4787 0.7300
vn -0.4973 0.7109 0.4973
vn -0.5857 0.5603 0.5857
vn -0.1395 0.9804 0.1395
vn -0.2698 0.9244 0.2698
vn -0.3906 0.8336 0.3906
vn -0.1640 0.9804 0.1096
vn -0.3172 0.9244 0.2120
vn -0.4593 0.8336 0.3069
vn -0.5848 0.7109 0.3907
vn -0.6888 0.5602 0.4602
vn -0.6498 0.7109 0.2691
vn -0.7653 0.5602 0.3170
vn -0.7300 0.4787 0.4878
vn -0.8112 0.4787 0.3360
vn -0.1822 0.9804 0.0755
vn -0.3525 0.9244 0.1460
vn -0.5103 0.8336 0.2114
vn -0.1935 0.9804 0.0385
vn -0.3742 0.9244 0.0744
vn -0.5417 0.8336 0.1078
vn -0.6898 0.7109 0.1372
vn -0.8118 0.5609 0.1625
vn -0.8599 0.4800 0.1735
vn -0.1973 0.9804 -0.0000
vn -0.3815 0.9244 -0.0000
vn -0.5523 0.8336 -0.0000
vn -0.7033 0.7109 -0.0000
vn -0.8273 0.5617 -0.0000
vn -0.3742 0.9244 -0.0744
vn -0.5417 0.8336 -0.1078
vn -0.6898 0.7109 -0.1372
vn -0.8118 0.5609 -0.1625
vn -0.1935 0.9804 -0.0385
vn -0.1822 0.9804 -0.0755
vn -0.3525 0.9244 -0.1460
vn -0.5103 0.8336 -0.2114
vn -0.6498 0.7109 -0.2691
vn -0.7653 0.5602 -0.3170
vn -0.8599 0.4800 -0.1735
vn -0.8112 0.4787 -0.3360
vn -0.3172 0.9244 -0.2120
vn -0.4593 0.8336 -0.3069
vn -0.5848 0.7109 -0.3907
vn -0.6888 0.5602 -0.4602
vn -0.7300 0.4787 -0.4878
vn -0.1640 0.9804 -0.1096
vn -0.1395 0.9804 -0.1395
vn -0.2698 0.9244 -0.2698
vn -0.3906 0.8336 -0.3906
vn -0.4973 0.7109 -0.4973
vn -0.5857 0.5603 -0.5857
vn -0.3069 0.8336 -0.4593
vn -0.3907 0.7109 -0.5848
vn -0.4602 0.5602 -0.6888
vn -0.1096 0.9804 -0.1640
vn -0.2120 0.9244 -0.3172
vn -0.0755 0.9804 -0.1822
vn -0.1460 0.9244 -0.3525
vn -0.2114 0.8336 -0.5103
vn -0.2691 0.7109 -0.6498
vn -0.3170 0.5602 -0.7653
vn -0.4878 0.4787 -0.7300
vn -0.3360 0.4787 -0.8112
vn -0.1078 0.8336 -0.5417
vn -0.1372 0.7109 -0.6898
vn -0.1616 0.5602 -0.8124
vn -0.1713 0.4787 -0.8611
vn -0.0385 0.9804 -0.1935
vn -0.0744 0.9244 -0.3742
vn -0.0000 -1.0000 -0.0000
vt 0.652066 0.339505
vt 0.604982 0.329060
vt 0.656174 0.330030
vt 0.702677 0.355776
vt 0.710736 0.337190
vt 0.754872 0.377250
vt 0.766571 0.350267
vt 0.806643 0.403101
vt 0.821534 0.368758
vt 0.856001 0.432335
vt 0.873511 0.391952
vt 0.591371 0.709593
vt 0.604982 0.658121
vt 0.601150 0.708245
vt 0.583620 0.765315
vt 0.602803 0.762671
vt 0.582027 0.823147
vt 0.609876 0.819309
vt 0.586653 0.880866
vt 0.622098 0.875981
vt 0.597320 0.936253
vt 0.639000 0.930510
vt 0.613619 0.987181
vt 0.659931 0.980799
vt 0.622476 0.756484
vt 0.638436 0.810327
vt 0.658449 0.864549
vt 0.681744 0.917066
vt 0.707425 0.965862
vt 0.611179 0.705091
vt 0.621073 0.700251
vt 0.641883 0.746991
vt 0.666611 0.796544
vt 0.694308 0.847007
vt 0.723910 0.896440
vt 0.693317 0.778493
vt 0.728298 0.824032
vt 0.763877 0.869424
vt 0.630451 0.693912
vt 0.660278 0.734557
vt 0.638952 0.686317
vt 0.676954 0.719659
vt 0.717527 0.756865
vt 0.759112 0.796505
vt 0.800111 0.837055
vt 0.798687 0.912924
vt 0.838947 0.876958
vt 0.785565 0.765484
vt 0.831217 0.800579
vt 0.873511 0.836427
vt 0.646251 0.677759
vt 0.691271 0.702871
vt 0.738311 0.732492
vt 0.652066 0.668565
vt 0.702678 0.684837
vt 0.754872 0.706311
vt 0.806643 0.732161
vt 0.856001 0.761396
vt 0.821534 0.697818
vt 0.873511 0.721012
vt 0.656174 0.659090
vt 0.710736 0.666250
vt 0.766571 0.679327
vt 0.289891 0.803893
vt 0.282140 0.859615
vt 0.272361 0.860963
vt 0.270708 0.806537
vt 0.291484 0.746061
vt 0.263635 0.749899
vt 0.286858 0.688342
vt 0.251413 0.693227
vt 0.276191 0.632955
vt 0.234511 0.638698
vt 0.259892 0.582027
vt 0.213580 0.588409
vt 0.268529 0.911087
vt 0.191767 0.652142
vt 0.166086 0.603346
vt 0.262331 0.864117
vt 0.251035 0.812724
vt 0.235074 0.758881
vt 0.215062 0.704659
vt 0.252438 0.868957
vt 0.231628 0.822217
vt 0.206900 0.772664
vt 0.179203 0.722201
vt 0.149601 0.672768
vt 0.243060 0.875296
vt 0.213233 0.834651
vt 0.180194 0.790715
vt 0.145213 0.745176
vt 0.109634 0.699784
vt 0.196557 0.849549
vt 0.155984 0.812343
vt 0.114399 0.772703
vt 0.073400 0.732153
vt 0.074824 0.656284
vt 0.034563 0.692250
vt 0.234559 0.882891
vt 0.227260 0.891449
vt 0.182240 0.866337
vt 0.135199 0.836716
vt 0.087945 0.803724
vt 0.042294 0.768629
vt 0.000000 0.732781
vt 0.118639 0.862897
vt 0.066868 0.837047
vt 0.017510 0.807812
vt 0.221445 0.900643
vt 0.170833 0.884371
vt 0.217336 0.910118
vt 0.162774 0.902958
vt 0.106939 0.889881
vt 0.051977 0.871390
vt -0.000000 0.848196
vt 0.868885 0.106315
vt 0.873511 0.164034
vt 0.845662 0.167872
vt 0.833439 0.111200
vt 0.858217 0.050928
vt 0.816538 0.056672
vt 0.841918 -0.000000
vt 0.795607 0.006382
vt 0.864167 0.277588
vt 0.850556 0.329060
vt 0.854387 0.278936
vt 0.871918 0.221866
vt 0.852735 0.224510
vt 0.844358 0.282090
vt 0.833062 0.230697
vt 0.817101 0.176855
vt 0.797089 0.122632
vt 0.773794 0.070115
vt 0.748112 0.021319
vt 0.761229 0.140174
vt 0.731628 0.090741
vt 0.834465 0.286930
vt 0.813655 0.240190
vt 0.788927 0.190637
vt 0.825087 0.293269
vt 0.795260 0.252624
vt 0.762221 0.208688
vt 0.727240 0.163149
vt 0.691660 0.117758
vt 0.696426 0.190676
vt 0.655427 0.150126
vt 0.656851 0.074257
vt 0.616590 0.110223
vt 0.816585 0.300864
vt 0.778584 0.267522
vt 0.738011 0.230316
vt 0.809287 0.309422
vt 0.764267 0.284310
vt 0.717226 0.254689
vt 0.669972 0.221697
vt 0.624321 0.186603
vt 0.582027 0.150754
vt 0.803472 0.318616
vt 0.752860 0.302344
vt 0.700666 0.280870
vt 0.648895 0.255020
vt 0.599537 0.225785
vt 0.744801 0.320931
vt 0.688966 0.307854
vt 0.634004 0.289363
vt 0.582027 0.266169
vt 0.799363 0.328091
vt 0.591371 0.380532
vt 0.601150 0.379185
vt 0.583620 0.436255
vt 0.602803 0.433611
vt 0.582027 0.494087
vt 0.609876 0.490248
vt 0.586653 0.551805
vt 0.622098 0.546921
vt 0.597320 0.607193
vt 0.639000 0.601449
vt 0.613619 0.658121
vt 0.659931 0.651738
vt 0.622475 0.427424
vt 0.638437 0.481266
vt 0.658449 0.535488
vt 0.681744 0.588006
vt 0.707425 0.636801
vt 0.611179 0.376030
vt 0.621073 0.371191
vt 0.641882 0.417931
vt 0.666611 0.467484
vt 0.694308 0.517947
vt 0.723910 0.567379
vt 0.693316 0.449432
vt 0.728298 0.494971
vt 0.763877 0.540363
vt 0.630451 0.364852
vt 0.660278 0.405496
vt 0.638952 0.357257
vt 0.676954 0.390599
vt 0.717527 0.427804
vt 0.759112 0.467444
vt 0.800110 0.507995
vt 0.798687 0.583864
vt 0.838947 0.547897
vt 0.738311 0.403431
vt 0.785565 0.436423
vt 0.831217 0.471518
vt 0.873511 0.507367
vt 0.646251 0.348698
vt 0.691271 0.373810
vt 0.497099 0.401169
vt 0.471648 0.439257
vt 0.441212 0.384215
vt 0.523566 0.268109
vt 0.467505 0.296912
vt 0.462946 0.250806
vt 0.514629 0.223181
vt 0.331290 0.463074
vt 0.358846 0.514629
vt 0.313918 0.523566
vt 0.411670 0.420037
vt 0.197851 0.441081
vt 0.523566 0.313918
vt 0.285079 0.467623
vt 0.142770 0.471648
vt 0.161941 0.411696
vt 0.180858 0.497099
vt 0.058461 0.313918
vt 0.114364 0.285067
vt 0.118998 0.331265
vt 0.067398 0.358846
vt 0.439257 0.110378
vt 0.471649 0.142770
vt 0.420111 0.170317
vt 0.384185 0.140914
vt 0.296925 0.114480
vt 0.110378 0.439257
vt 0.268109 0.523566
vt 0.401169 0.084928
vt 0.250703 0.118889
vt 0.268109 0.058461
vt 0.313918 0.058461
vt 0.110378 0.142770
vt 0.170285 0.161855
vt 0.140940 0.197849
vt 0.084928 0.180858
vt 0.058461 0.268109
vt 0.223181 0.067398
vt 0.439257 0.471649
vt 0.142770 0.110378
s 1
usemtl Material
f 343/201/60 192/202/61 163/203/62
f 344/204/63 343/201/60 163/203/62 164/205/64
f 161/206/65 344/204/63 164/205/64 165/207/66
f 345/208/67 161/206/65 165/207/66 166/209/68
f 162/210/69 345/208/67 166/209/68 167/211/70
f 163/212/62 192/213/61 169/214/71
f 164/215/64 163/212/62 169/214/71 170/216/72
f 165/217/66 164/215/64 170/216/72 171/218/73
f 166/219/68 165/217/66 171/218/73 172/220/74
f 167/221/70 166/219/68 172/220/74 173/222/75
f 168/223/76 167/221/70 173/222/75 174/224/77
f 171/218/73 170/216/72 176/225/78 177/226/79
f 172/220/74 171/218/73 177/226/79 178/227/80
f 173/222/75 172/220/74 178/227/80 179/228/81
f 174/224/77 173/222/75 179/228/81 180/229/82
f 169/214/71 192/213/61 175/230/83
f 170/216/72 169/214/71 175/230/83 176/225/78
f 175/230/83 192/213/61 181/231/84
f 176/225/78 175/230/83 181/231/84 182/232/85
f 177/226/79 176/225/78 182/232/85 183/233/86
f 178/227/80 177/226/79 183/233/86 184/234/87
f 179/228/81 178/227/80 184/234/87 185/235/88
f 184/234/87 183/233/86 188/236/89 189/237/90
f 185/235/88 184/234/87 189/237/90 190/238/91
f 181/231/84 192/213/61 186/239/92
f 182/232/85 181/231/84 186/239/92 187/240/93
f 183/233/86 182/232/85 187/240/93 188/236/89
f 186/239/92 192/213/61 193/241/94
f 187/240/93 186/239/92 193/241/94 194/242/95
f 188/236/89 187/240/93 194/242/95 195/243/96
f 189/237/90 188/236/89 195/243/96 196/244/97
f 190/238/91 189/237/90 196/244/97 197/245/98
f 191/246/99 190/238/91 197/245/98 198/247/100
f 197/245/98 196/244/97 202/248/101 203/249/102
f 198/247/100 197/245/98 203/249/102 204/250/103
f 193/241/94 192/213/61 199/251/104
f 194/242/95 193/241/94 199/251/104 200/252/105
f 195/243/96 194/242/95 200/252/105 201/253/106
f 196/244/97 195/243/96 201/253/106 202/248/101
f 199/251/104 192/213/61 205/254/107
f 200/252/105 199/251/104 205/254/107 206/255/108
f 201/253/106 200/252/105 206/255/108 207/256/109
f 202/248/101 201/253/106 207/256/109 208/257/110
f 203/249/102 202/248/101 208/257/110 209/258/111
f 209/258/111 208/257/110 213/259/112 214/260/113
f 205/254/107 192/213/61 210/261/114
f 206/255/108 205/254/107 210/261/114 211/262/115
f 207/256/109 206/255/108 211/262/115 212/263/116
f 208/257/110 207/256/109 212/263/116 213/259/112
f 211/264/115 210/265/114 216/266/117 217/267/118
f 212/268/116 211/264/115 217/267/118 218/269/119
f 213/270/112 212/268/116 218/269/119 219/271/120
f 214/272/113 213/270/112 219/271/120 220/273/121
f 215/274/122 214/272/113 220/273/121 221/275/123
f 210/265/114 192/276/61 216/266/117
f 221/275/123 220/273/121 226/277/124 227/278/125
f 216/266/117 192/276/61 222/279/126
f 217/267/118 216/266/117 222/279/126 223/280/127
f 218/269/119 217/267/118 223/280/127 224/281/128
f 219/271/120 218/269/119 224/281/128 225/282/129
f 220/273/121 219/271/120 225/282/129 226/277/124
f 223/280/127 222/279/126 228/283/130 229/284/131
f 224/281/128 223/280/127 229/284/131 230/285/132
f 225/282/129 224/281/128 230/285/132 231/286/133
f 226/277/124 225/282/129 231/286/133 232/287/134
f 222/279/126 192/276/61 228/283/130
f 228/283/130 192/276/61 233/288/135
f 229/284/131 228/283/130 233/288/135 234/289/136
f 230/285/132 229/284/131 234/289/136 235/290/137
f 231/286/133 230/285/132 235/290/137 236/291/138
f 232/287/134 231/286/133 236/291/138 237/292/139
f 235/290/137 234/289/136 240/293/140 241/294/141
f 236/291/138 235/290/137 241/294/141 242/295/142
f 237/292/139 236/291/138 242/295/142 243/296/143
f 238/297/144 237/292/139 243/296/143 244/298/145
f 233/288/135 192/276/61 239/299/146
f 234/289/136 233/288/135 239/299/146 240/293/140
f 239/299/146 192/276/61 245/300/147
f 240/293/140 239/299/146 245/300/147 246/301/148
f 241/294/141 240/293/140 246/301/148 247/302/149
f 242/295/142 241/294/141 247/302/149 248/303/150
f 243/296/143 242/295/142 248/303/150 249/304/151
f 244/298/145 243/296/143 249/304/151 250/305/152
f 248/303/150 247/302/149 253/306/153 254/307/154
f 249/304/151 248/303/150 254/307/154 255/308/155
f 245/300/147 192/276/61 251/309/156
f 246/301/148 245/300/147 251/309/156 252/310/157
f 247/302/149 246/301/148 252/310/157 253/306/153
f 251/309/156 192/276/61 256/311/158
f 252/310/157 251/309/156 256/311/158 257/312/159
f 253/306/153 252/310/157 257/312/159 258/313/160
f 254/307/154 253/306/153 258/313/160 259/314/161
f 255/308/155 254/307/154 259/314/161 260/315/162
f 259/316/161 258/317/160 264/318/163 265/319/164
f 260/320/162 259/316/161 265/319/164 266/321/165
f 261/322/166 260/320/162 266/321/165 267/323/167
f 256/324/158 192/325/61 262/326/168
f 257/327/159 256/324/158 262/326/168 263/328/169
f 258/317/160 257/327/159 263/328/169 264/318/163
f 262/326/168 192/325/61 268/329/170
f 263/328/169 262/326/168 268/329/170 269/330/171
f 264/318/163 263/328/169 269/330/171 270/331/172
f 265/319/164 264/318/163 270/331/172 271/332/173
f 266/321/165 265/319/164 271/332/173 272/333/174
f 267/323/167 266/321/165 272/333/174 273/334/175
f 272/333/174 271/332/173 277/335/176 278/336/177
f 268/329/170 192/325/61 274/337/178
f 269/330/171 268/329/170 274/337/178 275/338/179
f 270/331/172 269/330/171 275/338/179 276/339/180
f 271/332/173 270/331/172 276/339/180 277/335/176
f 274/337/178 192/325/61 279/340/181
f 275/338/179 274/337/178 279/340/181 280/341/182
f 276/339/180 275/338/179 280/341/182 281/342/183
f 277/335/176 276/339/180 281/342/183 282/343/184
f 278/336/177 277/335/176 282/343/184 283/344/185
f 283/344/185 282/343/184 288/345/186 289/346/187
f 284/347/188 283/344/185 289/346/187 290/348/189
f 279/340/181 192/325/61 285/349/190
f 280/341/182 279/340/181 285/349/190 286/350/191
f 281/342/183 280/341/182 286/350/191 287/351/192
f 282/343/184 281/342/183 287/351/192 288/345/186
f 286/350/191 285/349/190 291/352/193 292/353/194
f 287/351/192 286/350/191 292/353/194 293/354/195
f 288/345/186 287/351/192 293/354/195 294/355/196
f 289/346/187 288/345/186 294/355/196 295/356/197
f 290/348/189 289/346/187 295/356/197 296/357/198
f 285/349/190 192/325/61 291/352/193
f 291/352/193 192/325/61 297/358/199
f 292/353/194 291/352/193 297/358/199 298/359/200
f 293/354/195 292/353/194 298/359/200 299/360/201
f 294/355/196 293/354/195 299/360/201 300/361/202
f 295/356/197 294/355/196 300/361/202 301/362/203
f 299/360/201 298/359/200 303/363/204 304/364/205
f 300/361/202 299/360/201 304/364/205 305/365/206
f 301/362/203 300/361/202 305/365/206 306/366/207
f 297/358/199 192/325/61 302/367/208
f 298/359/200 297/358/199 302/367/208 303/363/204
f 302/368/208 192/202/61 308/369/209
f 303/370/204 302/368/208 308/369/209 309/371/210
f 304/372/205 303/370/204 309/371/210 310/373/211
f 305/374/206 304/372/205 310/373/211 311/375/212
f 306/376/207 305/374/206 311/375/212 312/377/213
f 307/378/214 306/376/207 312/377/213 313/379/215
f 310/373/211 309/371/210 315/380/216 316/381/217
f 311/375/212 310/373/211 316/381/217 317/382/218
f 312/377/213 311/375/212 317/382/218 318/383/219
f 313/379/215 312/377/213 318/383/219 319/384/220
f 308/369/209 192/202/61 314/385/221
f 309/371/210 308/369/209 314/385/221 315/380/216
f 314/385/221 192/202/61 320/386/222
f 315/380/216 314/385/221 320/386/222 321/387/223
f 316/381/217 315/380/216 321/387/223 322/388/224
f 317/382/218 316/381/217 322/388/224 323/389/225
f 318/383/219 317/382/218 323/389/225 324/390/226
f 323/389/225 322/388/224 327/391/227 328/392/228
f 324/390/226 323/389/225 328/392/228 329/393/229
f 320/386/222 192/202/61 325/394/230
f 321/387/223 320/386/222 325/394/230 326/395/231
f 322/388/224 321/387/223 326/395/231 327/391/227
f 325/394/230 192/202/61 331/396/232
f 326/395/231 325/394/230 331/396/232 332/397/233
f 327/391/227 326/395/231 332/397/233 333/398/234
f 328/392/228 327/391/227 333/398/234 334/399/235
f 329/393/229 328/392/228 334/399/235 335/400/236
f 330/401/237 329/393/229 335/400/236 336/402/238
f 334/399/235 333/398/234 339/403/239 340/404/240
f 335/400/236 334/399/235 340/404/240 341/405/241
f 336/402/238 335/400/236 341/405/241 342/406/242
f 331/396/232 192/202/61 337/407/243
f 332/397/233 331/396/232 337/407/243 338/408/244
f 333/398/234 332/397/233 338/408/244 339/403/239
f 337/407/243 192/202/61 343/201/60
f 338/408/244 337/407/243 343/201/60 344/204/63
f 339/403/239 338/408/244 344/204/63 161/206/65
f 340/404/240 339/403/239 161/206/65 345/208/67
f 341/405/241 340/404/240 345/208/67 162/210/69
f 346/409/245 347/410/245 372/411/245
f 366/412/245 373/413/245 370/414/245 368/415/245
f 385/416/245 349/417/245 350/418/245
f 372/411/245 384/419/245 373/413/245
f 384/419/245 385/416/245 381/420/245
f 373/413/245 384/419/245 381/420/245
f 366/412/245 367/421/245 373/413/245
f 381/420/245 385/416/245 380/422/245
f 354/423/245 382/424/245 381/420/245 353/425/245
f 358/426/245 379/427/245 383/428/245 357/429/245
f 352/430/245 369/431/245 371/432/245
f 371/432/245 370/414/245 374/433/245
f 370/414/245 373/413/245 381/420/245
f 374/433/245 370/414/245 375/434/245
f 354/423/245 356/435/245 382/424/245
f 350/418/245 351/436/245 380/422/245 385/416/245
f 352/430/245 371/432/245 374/433/245 359/437/245
f 381/420/245 382/424/245 383/428/245
f 375/434/245 376/438/245 355/439/245 360/440/245
f 363/441/245 377/442/245 378/443/245 364/444/245
f 358/426/245 365/445/245 379/427/245
f 381/420/245 383/428/245 378/443/245
f 361/446/245 355/439/245 376/438/245
f 384/419/245 372/411/245 347/410/245 348/447/245
f 383/428/245 379/427/245 378/443/245
f 376/438/245 375/434/245 378/443/245
f 363/441/245 362/448/245 377/442/245
f 377/442/245 376/438/245 378/443/245
f 370/414/245 381/420/245 378/443/245 375/434/245
