mtllib dispel_gummi_round_corner.mtl
o RoundCorner2
v 0.602035 0.952524 -0.800170
v 0.230794 0.833422 -0.800593
v -0.109180 0.645540 -0.801078
v -0.399602 0.400176 -0.801971
v -0.634411 0.102377 -0.802901
v -0.813547 -0.238688 -0.803413
v -0.933727 -0.606297 -0.801797
v 0.603784 -0.800984 0.942025
v 0.232781 -0.801118 0.828160
v -0.109316 -0.801135 0.645131
v -0.404822 -0.801140 0.404853
v -0.644967 -0.801158 0.109183
v -0.828160 -0.801118 -0.232781
v -0.942025 -0.800984 -0.603784
v -0.961763 -0.800908 -0.800907
v 1.000000 -0.800000 -0.800000
v 0.800195 0.951602 -0.602315
v -0.386723 0.143865 -1.000000
v 0.801283 0.644051 0.108483
v -0.143865 0.386722 -1.000000
v 0.802634 0.103316 0.635558
v 0.145818 0.578853 -1.000000
v 0.801805 -0.606322 0.933645
v 0.800908 -0.800907 0.961763
v 0.799705 0.989770 -0.799705
v 0.638790 0.764393 -1.000000
v 0.224633 0.847759 -1.000000
v 0.800000 0.779874 -1.000000
v -0.961571 -0.599819 -1.000000
v -0.779874 -0.800000 -1.000000
v -0.662089 -0.301540 -1.000000
v -0.495618 0.009904 -1.000000
v -0.277827 0.277827 -1.000000
v -0.009904 0.495618 -1.000000
v -0.961571 -1.000000 -0.599819
v -0.662089 -1.000000 -0.301540
v -0.009904 -1.000000 0.495618
v 1.000000 0.764393 -0.638790
v 1.000000 -0.599819 0.961571
v 1.000000 -0.301540 0.662089
v 1.000000 0.277827 0.277827
v 1.000000 0.495618 0.009904
v -0.420000 -1.000000 0.420000
v 0.599819 0.961571 -1.000000
v 0.301540 0.662089 -1.000000
v 0.800000 -0.800000 -1.000000
v -0.779874 -1.000000 -0.800000
v -0.764393 -0.638790 -1.000000
v -0.847759 -0.224633 -1.000000
v -0.662939 0.121140 -1.000000
v -0.420000 0.420000 -1.000000
v -0.121140 0.662939 -1.000000
v 0.800000 -1.000000 -0.800000
v 1.000000 1.000000 -1.000000
v 1.000000 0.961571 -0.599819
v 1.000000 0.847759 -0.224633
v 1.000000 -0.638790 0.764393
v 1.000000 -0.224633 0.847759
v 1.000000 0.121140 0.662939
v 1.000000 0.420000 0.420000
v 1.000000 0.662939 0.121140
v -1.000000 -1.000000 -1.000000
v 1.000000 -1.000000 -1.000000
v 0.599819 -1.000000 0.961571
v 0.224633 -1.000000 0.847759
v 1.000000 -1.000000 1.000000
v -0.764393 -1.000000 -0.638790
v -0.847759 -1.000000 -0.224633
v -0.662939 -1.000000 0.121140
v -0.121140 -1.000000 0.662939
v -0.277827 -1.000000 0.277827
v -0.873637 -0.422493 -0.802605
v -0.517007 0.251276 -0.802436
v -0.254391 0.522858 -0.801525
v 0.060807 0.739481 -0.800836
v 0.416414 0.892973 -0.800382
v -0.723979 -0.068156 -0.803157
v 0.072782 0.722061 -0.601671
v -0.496657 0.231500 -0.604882
v -0.242409 0.505427 -0.602242
v -0.379167 0.380316 -0.603588
v 0.422565 0.878660 -0.601315
v 0.236969 0.819052 -0.600727
v -0.689847 -0.082178 -0.607029
v -0.779410 -0.252712 -0.607259
v -0.839255 -0.435449 -0.606400
v 0.800837 0.830653 -0.232062
v 0.801721 0.401486 0.401065
v 0.803432 -0.238722 0.813447
v 0.802624 -0.422526 0.873537
v 0.802186 0.252587 0.518470
v 0.801274 0.524168 0.255854
v 0.801079 0.736712 -0.062075
v 0.800626 0.890204 -0.417682
v 0.803176 -0.068189 0.723879
v 0.601915 0.719292 -0.074050
v 0.604632 0.232810 0.498120
v 0.601992 0.506738 0.243872
v 0.603338 0.381627 0.380630
v 0.601559 0.875891 -0.423833
v 0.600971 0.816283 -0.238237
v 0.607048 -0.082212 0.689747
v 0.607278 -0.252746 0.779310
v 0.606420 -0.435483 0.839155
v -0.241915 -0.602597 0.509869
v -0.509705 -0.602135 0.241859
v 0.418283 -0.801051 0.885093
v 0.061733 -0.801126 0.736646
v -0.257069 -0.801137 0.524992
v -0.524894 -0.801149 0.257018
v -0.736564 -0.801138 -0.061799
v -0.885092 -0.801051 -0.418282
v -0.389620 -0.601971 0.389683
v -0.808522 -0.601839 -0.240945
v -0.865476 -0.601996 -0.426438
v -0.716932 -0.601921 -0.069961
v 0.069867 -0.602568 0.717078
v 0.426418 -0.602472 0.865523
v 0.240936 -0.602059 0.808544
v -0.578853 -0.145818 -1.000000
v -0.412236 -0.256586 -1.000000
v -0.220228 0.033179 -1.000000
v 0.256789 0.411931 -1.000000
v -0.033177 0.220225 -1.000000
v 0.800000 0.578598 -1.000000
v -0.581586 -0.800000 -1.000000
v -0.458989 -0.800000 -1.000000
v 0.519863 -0.800000 -1.000000
v 0.519863 -0.600227 -1.000000
v 0.120021 -0.600494 -1.000000
v -0.059147 -0.600043 -1.000000
v -0.458989 -0.600079 -1.000000
v 0.800000 -0.120021 -1.000000
v 0.800000 -0.519863 -1.000000
v 0.800000 0.458989 -1.000000
v 0.800000 0.059147 -1.000000
v 0.600227 0.458989 -1.000000
v 0.600494 0.059147 -1.000000
v 0.600043 -0.120021 -1.000000
v 0.600079 -0.519863 -1.000000
v 1.000000 0.143865 0.386723
v 1.000000 0.386722 0.143866
v 1.000000 0.578853 -0.145818
v 1.000000 0.779874 -0.800000
v 1.000000 -0.800000 0.779874
v 1.000000 0.009904 0.495618
v 1.000000 0.662089 -0.301540
v 1.000000 -0.145818 0.578854
v 1.000000 -0.256586 0.412236
v 1.000000 0.033179 0.220228
v 1.000000 -0.800000 0.040277
v 1.000000 0.411931 -0.256789
v 1.000000 0.220225 0.033177
v 1.000000 0.580325 -0.800000
v 1.000000 -0.800000 0.581586
v 1.000000 -0.800000 -0.541325
v 1.000000 -0.800000 -0.141483
v 1.000000 -0.600227 -0.541325
v 1.000000 -0.600494 -0.141483
v 1.000000 -0.600042 0.040277
v 1.000000 -0.600079 0.440119
v 1.000000 -0.120021 -0.800000
v 1.000000 -0.519863 -0.800000
v 1.000000 0.458989 -0.800000
v 1.000000 0.059147 -0.800000
v 1.000000 0.458989 -0.600227
v 1.000000 0.059147 -0.600494
v 1.000000 -0.120021 -0.600043
v 1.000000 -0.519863 -0.600079
v -0.143865 -1.000000 0.386722
v -0.386723 -1.000000 0.143865
v -0.578853 -1.000000 -0.145818
v 0.800000 -1.000000 0.779874
v 0.301540 -1.000000 0.662089
v -0.495618 -1.000000 0.009904
v 0.638790 -1.000000 0.764393
v 0.145818 -1.000000 0.578853
v 0.256586 -1.000000 0.412236
v -0.033179 -1.000000 0.220228
v 0.800000 -1.000000 0.037685
v -0.411931 -1.000000 -0.256789
v -0.220225 -1.000000 0.033177
v -0.578853 -1.000000 -0.800000
v 0.800000 -1.000000 0.581586
v 0.800000 -1.000000 0.437527
v 0.800000 -1.000000 -0.541325
v 0.800000 -1.000000 -0.141483
v 0.600227 -1.000000 -0.541325
v 0.600494 -1.000000 -0.141483
v 0.600042 -1.000000 0.037685
v 0.600079 -1.000000 0.437527
v 0.120021 -1.000000 -0.800000
v 0.519863 -1.000000 -0.800000
v -0.458989 -1.000000 -0.800000
v -0.059147 -1.000000 -0.800000
v -0.458989 -1.000000 -0.600227
v -0.059147 -1.000000 -0.600494
v 0.120021 -1.000000 -0.600043
v 0.519863 -1.000000 -0.600079
v -0.458989 -1.000000 -1.000000
v 0.519863 -1.000000 -1.000000
v 1.000000 -1.000000 -0.541325
v -0.059147 -0.800000 -1.000000
v 0.120021 -0.800000 -1.000000
v 1.000000 -1.000000 0.440119
v 1.000000 -0.800000 0.440119
v 1.000000 -0.519863 -1.000000
v 1.000000 0.458989 -1.000000
vn -0.3907 0.9173 0.0774
vn -0.3985 0.9136 0.0815
vn -0.2998 0.9516 0.0673
vn -0.2111 0.9772 0.0213
vn -0.0567 0.9968 0.0566
vn -0.0567 0.9968 0.0567
vn -0.2113 0.9772 0.0214
vn -0.9892 0.1035 0.1036
vn -0.9700 0.2028 0.1341
vn -0.9699 0.2033 0.1342
vn -0.9078 0.3811 0.1754
vn -0.9386 0.3000 0.1704
vn -0.9051 0.3828 0.1848
vn -0.8699 0.4594 0.1794
vn -0.7079 0.6921 0.1409
vn -0.7734 0.6157 0.1509
vn -0.7157 0.6847 0.1376
vn -0.6408 0.7577 0.1234
vn -0.4818 0.8715 0.0913
vn -0.3817 0.1052 0.9183
vn -0.2908 0.1035 0.9512
vn -0.3822 0.1061 0.9180
vn -0.1037 0.1036 0.9892
vn -0.1941 0.0994 0.9759
vn -0.9759 0.0994 0.1941
vn -0.9182 0.1053 0.3818
vn -0.9179 0.1061 0.3825
vn -0.9512 0.1035 0.2908
vn -0.8766 0.1062 0.4693
vn -0.4690 0.1059 0.8768
vn -0.0911 0.9161 0.3905
vn -0.0757 0.9505 0.3013
vn -0.0891 0.9130 0.3982
vn -0.0280 0.9765 0.2135
vn -0.0281 0.9765 0.2137
vn -0.1344 0.2029 0.9699
vn -0.1345 0.2034 0.9698
vn -0.1707 0.3000 0.9385
vn -0.1752 0.3804 0.9081
vn -0.1851 0.3828 0.9051
vn -0.1785 0.4583 0.8707
vn -0.1328 0.6939 0.7077
vn -0.1327 0.6852 0.7162
vn -0.1448 0.6160 0.7744
vn -0.1199 0.7601 0.6387
vn -0.1003 0.8713 0.4804
vn -0.7032 0.1073 0.7029
vn -0.6273 0.1066 0.7715
vn -0.7032 0.1072 0.7028
vn -0.7717 0.1069 0.6269
vn -0.0000 -0.0000 -1.0000
vn 1.0000 -0.0000 -0.0000
vn -0.0000 -1.0000 -0.0000
vn -0.7194 0.6818 0.1329
vn -0.6555 0.7450 0.1233
vn -0.7776 0.6127 0.1414
vn -0.4017 0.9118 0.0850
vn -0.3046 0.9493 0.0777
vn -0.4943 0.8645 0.0914
vn -0.9051 0.3829 0.1848
vn -0.9339 0.3064 0.1842
vn -0.8703 0.4568 0.1841
vn -0.8228 0.5428 0.1683
vn -0.8229 0.5427 0.1683
vn -0.5548 0.8251 0.1070
vn -0.5550 0.8249 0.1071
vn -0.1233 0.7450 0.6555
vn -0.1329 0.6818 0.7194
vn -0.1414 0.6127 0.7776
vn -0.0777 0.9493 0.3046
vn -0.0850 0.9118 0.4017
vn -0.0914 0.8645 0.4943
vn -0.1848 0.3829 0.9051
vn -0.1842 0.3064 0.9339
vn -0.1841 0.4568 0.8703
vn -0.7033 0.1072 0.7028
vn -0.7718 0.1067 0.6269
vn -0.9178 0.1061 0.3825
vn -0.9506 0.1056 0.2918
vn -0.8765 0.1056 0.4696
vn -0.4691 0.1056 0.8768
vn -0.2918 0.1056 0.9506
vn -0.1116 0.8269 0.5511
vn -0.1116 0.8269 0.5512
vn -0.1628 0.5419 0.8245
vn -0.1628 0.5417 0.8246
vn -0.8279 0.1075 0.5505
vn -0.5505 0.1068 0.8280
vt 0.039916 0.803947
vt 0.041457 0.758352
vt 0.085545 0.760619
vt 0.129632 0.762886
vt 0.175863 0.763959
vt 0.221421 0.808867
vt 0.128847 0.808303
vt 0.664076 0.634283
vt 0.709238 0.634312
vt 0.710189 0.680349
vt 0.617619 0.680349
vt 0.930260 0.861925
vt 0.973497 0.814228
vt 0.930510 0.816178
vt 0.456535 0.951699
vt 0.410668 0.952380
vt 0.410934 0.911772
vt 0.424118 0.554588
vt 0.459819 0.506723
vt 0.424118 0.508565
vt 0.313138 0.796755
vt 0.267464 0.801043
vt 0.267369 0.835453
vt 0.000000 0.754349
vt 0.933271 0.861925
vt 0.890168 0.909342
vt 0.933271 0.907813
vt 0.752987 0.045996
vt 0.707383 0.046007
vt 0.706804 0.000000
vt 0.799333 0.000000
vt 0.664470 0.588656
vt 0.618429 0.587754
vt 0.620395 0.499486
vt 0.666404 0.501348
vt 0.665437 0.545002
vt 0.667912 0.460378
vt 0.847139 0.771552
vt 0.845639 0.813507
vt 0.801217 0.768581
vt 0.219284 0.626908
vt 0.174345 0.673097
vt 0.173247 0.628399
vt 0.175447 0.717664
vt 0.221421 0.716930
vt 0.752590 0.091282
vt 0.798704 0.092454
vt 0.751158 0.135223
vt 0.795678 0.181836
vt 0.749724 0.179164
vt 0.747106 0.221105
vt 0.783206 0.343479
vt 0.737338 0.339259
vt 0.740907 0.301278
vt 0.163324 0.464818
vt 0.209228 0.460810
vt 0.166211 0.503530
vt 0.171169 0.585526
vt 0.798183 0.929564
vt 0.844139 0.893124
vt 0.844140 0.930786
vt 0.627377 0.343479
vt 0.673308 0.347029
vt 0.671364 0.383219
vt 0.663686 0.768338
vt 0.679717 0.847890
vt 0.635453 0.861412
vt 0.617619 0.772912
vt 0.663686 0.731050
vt 0.617619 0.680349
vt 0.709834 0.735498
vt 0.882180 0.402185
vt 0.838457 0.415321
vt 0.917475 0.343479
vt 0.889440 0.438778
vt 0.935497 0.434313
vt 0.889211 0.519960
vt 0.935242 0.524627
vt 0.881167 0.559829
vt 0.842840 0.673237
vt 0.873124 0.599699
vt 0.917383 0.613156
vt 0.883602 0.695185
vt 0.798183 0.739035
vt 0.833789 0.768581
vt 0.695372 0.885417
vt 0.527979 0.477938
vt 0.561424 0.551849
vt 0.521489 0.575088
vt 0.484282 0.492863
vt 0.583179 0.582097
vt 0.575494 0.650175
vt 0.616456 0.068500
vt 0.590979 0.095692
vt 0.554376 0.067500
vt 0.617619 -0.000000
vt 0.548276 0.164675
vt 0.506870 0.144242
vt 0.534013 0.202755
vt 0.519749 0.240836
vt 0.475199 0.228799
vt 0.506510 0.319260
vt 0.460431 0.316278
vt 0.509519 0.398736
vt 0.463787 0.404931
vt 0.160796 0.077877
vt 0.083156 0.054292
vt 0.092128 0.008875
vt 0.178501 0.035113
vt 0.046043 0.050717
vt 0.000000 0.000000
vt 0.409754 0.414728
vt 0.406190 0.377593
vt 0.451584 0.368628
vt 0.460431 0.460811
vt 0.382638 0.299902
vt 0.425382 0.282198
vt 0.363476 0.264027
vt 0.196646 0.097059
vt 0.294175 0.166424
vt 0.232495 0.116241
vt 0.258104 0.077706
vt 0.326906 0.133683
vt 0.344314 0.228152
vt 0.382834 0.202539
vt 0.221709 0.805339
vt 0.221421 0.837821
vt 0.459819 0.460810
vt 0.424118 0.462460
vt 0.709540 0.968509
vt 0.709599 0.925301
vt 0.663533 0.926503
vt 0.663659 0.969707
vt 0.709599 0.885417
vt 0.663687 0.887931
vt 0.930759 0.770531
vt 0.973497 0.768581
vt 0.890168 0.817348
vt 0.890417 0.771707
vt 0.411199 0.871164
vt 0.457135 0.869316
vt 0.752413 0.633703
vt 0.798183 0.678893
vt 0.410668 0.835067
vt 0.456151 0.796755
vt 0.267274 0.869862
vt 0.313138 0.867498
vt 0.267146 0.909745
vt 0.312982 0.948576
vt 0.120125 0.506029
vt 0.117355 0.469097
vt 0.691396 0.334786
vt 0.695157 0.296823
vt 0.128411 0.674436
vt 0.127128 0.629744
vt 0.125111 0.588024
vt 0.703871 0.176503
vt 0.705287 0.132813
vt 0.701258 0.218444
vt 0.719311 0.350586
vt 0.717331 0.386772
vt 0.890022 0.894345
vt 0.890168 0.932010
vt 0.140771 0.942215
vt 0.140550 0.985612
vt 0.186609 0.984877
vt 0.186882 0.941480
vt 0.186646 0.900967
vt 0.140550 0.901703
vt 0.973307 0.952304
vt 0.973307 0.906491
vt 0.933271 0.953741
vt 0.890168 0.955160
vt 0.169119 0.542589
vt 0.215116 0.540011
vt 0.744462 0.263223
vt 0.790386 0.266988
vt 0.669420 0.419408
vt 0.623448 0.416641
vt 0.844139 0.855463
vt 0.798183 0.853388
vt 0.663266 0.047351
vt 0.617619 0.002703
vt 0.813942 0.623078
vt 0.857982 0.636468
vt 0.837095 0.546429
vt 0.365505 0.882978
vt 0.365505 0.842351
vt 0.320450 0.838373
vt 0.358079 0.922045
vt 0.313138 0.918077
vt 0.424119 0.703894
vt 0.443081 0.667963
vt 0.424118 0.554588
vt 0.378050 0.663432
vt 0.332095 0.663418
vt 0.332034 0.571361
vt 0.378050 0.571375
vt 0.955831 0.314954
vt 0.909780 0.314940
vt 0.909772 0.222882
vt 0.955831 0.222897
vt 0.137872 0.808867
vt 0.183805 0.808867
vt 0.183838 0.900967
vt 0.137843 0.900967
vt 0.313522 0.506857
vt 0.313522 0.552886
vt 0.221421 0.552866
vt 0.221421 0.506829
vt 0.709834 0.979728
vt 0.755634 0.979746
vt 0.759478 0.940164
vt 0.709834 0.899660
vt 0.755668 0.899678
vt 0.564372 0.432157
vt 0.518749 0.438337
vt 0.508015 0.358998
vt 0.553521 0.352834
vt 0.617619 0.551754
vt 0.617619 0.921454
vt 0.503182 0.903291
vt 0.540192 0.945393
vt 0.503182 0.949155
vt 0.763628 0.778888
vt 0.750734 0.743950
vt 0.709834 0.763940
vt 0.776181 0.859027
vt 0.774552 0.899660
vt 0.617619 0.885417
vt 0.617619 0.977215
vt 0.663533 0.977467
vt 0.663472 0.885669
vt 0.091796 0.854834
vt 0.000000 0.855339
vt -0.000000 0.901296
vt 0.091796 0.900783
vt 0.503182 0.783505
vt 0.503182 0.875404
vt 0.549046 0.875151
vt 0.548984 0.783253
vt 0.503182 0.650427
vt 0.503182 0.742326
vt 0.549088 0.742073
vt 0.549080 0.650175
vt 0.237854 0.179678
vt 0.263335 0.141333
vt 0.171145 0.135433
vt 0.091796 0.941405
vt 0.095494 0.981550
vt 0.140550 0.980530
vt 0.095608 0.901985
vt 0.140550 0.900967
vt 0.795212 0.680349
vt 0.776181 0.715890
vt 0.795212 0.827559
vt 0.363476 0.414717
vt 0.046043 0.096392
vt 0.046043 0.262949
vt 0.091972 0.262961
vt 0.092034 0.355064
vt 0.046043 0.355052
vt 0.046043 0.129576
vt 0.092068 0.129587
vt 0.092076 0.221690
vt 0.046043 0.221679
vt 0.243832 0.414687
vt 0.243832 0.368731
vt 0.335882 0.368692
vt 0.335882 0.414710
vt 0.110535 0.414653
vt 0.110535 0.368602
vt 0.202585 0.368617
vt 0.202585 0.414676
vt 0.110535 0.460723
vt 0.335882 0.460779
vt 0.000000 0.460695
vt 0.046043 0.414637
vt 0.811425 0.423443
vt 0.798183 0.379318
vt 0.935497 0.699369
vt 0.975900 0.678357
vt 0.935497 0.596531
vt 0.424118 0.460845
vt 0.424118 0.571389
vt 0.378050 0.506877
vt 0.424118 0.796755
vt 0.378050 0.704683
vt 0.000000 0.355041
vt 0.000000 0.128967
vt 0.410668 0.886965
vt 0.410668 0.796755
vt 0.863769 0.225869
vt 0.909772 0.225730
vt 0.909772 0.331224
vt 0.863769 0.285363
vt 0.863769 0.133906
vt 0.091796 0.808867
vt 0.981500 0.472250
vt 0.935497 0.472389
vt 0.935497 0.439852
vt 0.981500 0.343479
vt 0.776181 0.680349
vt 0.863769 0.092102
vt 0.909772 0.000000
vt 0.799333 0.331557
vt 0.799333 0.285558
vt 0.457265 0.650680
vt 0.457265 1.000000
vt 0.457265 0.875656
vt 0.935497 0.499623
vt 0.981134 0.596531
vt 0.981134 0.473344
vt 0.935497 0.472389
vt 0.091796 0.900967
vt 0.313522 0.460810
vt 0.955409 0.222882
vt 0.955409 -0.000000
vt 0.909772 0.090088
vt 0.909772 0.130884
s 1
usemtl Material2
f 27/1/1 2/2/2 76/3/3
f 1/4/4 25/5/5 54/6/6 44/7/7
f 15/8/8 7/9/9 29/10/10 62/11/8
f 49/12/11 72/13/12 6/14/13
f 49/15/11 6/16/13 77/17/14
f 51/18/15 73/19/16 4/20/17
f 51/21/15 4/22/17 74/23/18
f 27/1/1 75/24/19 2/2/2
f 65/25/20 107/26/21 9/27/22
f 24/28/23 8/29/24 64/30/24 66/31/23
f 14/32/25 15/8/8 62/11/8 35/33/25
f 68/34/26 13/35/27 112/36/28
f 68/34/26 111/37/29 13/35/27
f 9/38/22 108/39/30 65/40/20
f 56/41/31 94/42/32 87/43/33
f 25/5/5 17/44/34 55/45/35 54/6/6
f 23/46/36 24/28/23 66/31/23 39/47/37
f 90/48/38 58/49/39 89/50/40
f 58/49/39 95/51/41 89/50/40
f 60/52/42 88/53/43 91/54/44
f 88/55/43 60/56/42 92/57/45
f 93/58/46 56/41/31 87/43/33
f 43/59/47 109/60/48 11/61/49
f 43/62/47 11/63/49 110/64/50
f 26/65/51 45/66/51 27/67/51 44/68/51
f 28/69/51 26/65/51 44/68/51 54/70/51
f 54/70/51 125/71/51 28/69/51
f 30/72/51 126/73/51 62/74/51
f 48/75/51 30/72/51 62/74/51 29/76/51
f 31/77/51 48/75/51 29/76/51 49/78/51
f 31/77/51 49/78/51 120/79/51
f 33/80/51 32/81/51 50/82/51 51/83/51
f 34/84/51 33/80/51 51/83/51 52/85/51
f 45/66/51 22/86/51 27/67/51
f 147/87/52 38/88/52 55/89/52 56/90/52
f 38/88/52 144/91/52 54/92/52 55/89/52
f 145/93/52 57/94/52 39/95/52 66/96/52
f 57/94/52 40/97/52 58/98/52 39/95/52
f 58/98/52 148/99/52 146/100/52 59/101/52
f 146/100/52 41/102/52 60/103/52 59/101/52
f 41/102/52 42/104/52 61/105/52 60/103/52
f 40/97/52 148/99/52 58/98/52
f 174/106/53 176/107/53 64/108/53 65/109/53
f 176/107/53 173/110/53 66/111/53 64/108/53
f 47/112/53 67/113/53 35/114/53 62/115/53
f 67/113/53 36/116/53 68/117/53 35/114/53
f 36/116/53 172/118/53 68/117/53
f 174/106/53 65/109/53 177/119/53
f 71/120/53 37/121/53 70/122/53 43/123/53
f 175/124/53 71/120/53 43/123/53 69/125/53
f 74/23/18 4/22/17 81/126/54 80/127/55
f 73/19/16 79/128/56 81/129/54 4/20/17
f 76/130/3 2/131/2 83/132/57 82/133/58
f 75/134/19 78/135/59 83/132/57 2/131/2
f 85/136/60 6/14/13 72/13/12 86/137/61
f 77/138/14 6/14/13 85/136/60 84/139/62
f 49/15/11 77/17/14 5/140/63 50/141/64
f 7/9/9 72/142/12 49/143/11 29/10/10
f 5/140/63 73/144/16 51/145/15 50/141/64
f 51/21/15 74/23/18 3/146/65 52/147/66
f 3/146/65 75/148/19 27/149/1 52/147/66
f 27/1/1 76/3/3 1/4/4 44/7/7
f 92/57/45 98/150/67 99/151/68 88/55/43
f 91/54/44 88/53/43 99/152/68 97/153/69
f 94/42/32 100/154/70 101/155/71 87/43/33
f 93/58/46 87/43/33 101/155/71 96/156/72
f 103/157/73 104/158/74 90/48/38 89/50/40
f 95/51/41 102/159/75 103/157/73 89/50/40
f 110/64/50 11/63/49 113/160/76 106/161/77
f 109/60/48 105/162/48 113/163/76 11/61/49
f 114/164/78 115/165/79 112/166/28 13/167/27
f 114/164/78 13/167/27 111/168/29 116/169/80
f 117/170/81 108/171/30 9/27/22 119/172/22
f 118/173/82 119/172/22 9/27/22 107/26/21
f 55/45/35 17/44/34 94/42/32 56/41/31
f 19/174/83 61/175/84 56/41/31 93/58/46
f 19/174/83 92/57/45 60/56/42 61/175/84
f 21/176/85 59/177/86 60/52/42 91/54/44
f 59/177/86 21/176/85 95/51/41 58/49/39
f 39/47/37 58/49/39 90/48/38 23/46/36
f 14/32/25 35/33/25 68/34/26 112/36/28
f 12/178/87 111/37/29 68/34/26 69/179/87
f 12/178/87 69/179/87 43/62/47 110/64/50
f 10/180/88 109/60/48 43/59/47 70/181/88
f 65/40/20 108/39/30 10/180/88 70/181/88
f 8/29/24 107/182/21 65/183/20 64/30/24
s 0
f 122/184/51 32/81/51 18/185/51
f 121/186/51 120/79/51 32/81/51
f 32/81/51 122/184/51 121/186/51
f 34/187/51 22/188/51 123/189/51
f 20/190/51 34/187/51 124/191/51
f 123/189/51 124/191/51 34/187/51
f 22/192/51 45/193/51 125/194/51
s 1
f 45/66/51 26/65/51 125/71/51
f 28/69/51 125/71/51 26/65/51
f 48/75/51 126/73/51 30/72/51
f 48/75/51 31/77/51 126/73/51
f 126/73/51 31/77/51 120/79/51
s 0
f 204/195/51 130/196/51 129/197/51 128/198/51
f 127/199/51 132/200/51 131/201/51 203/202/51
f 136/203/51 138/204/51 137/205/51 135/206/51
f 134/207/51 140/208/51 139/209/51 133/210/51
f 150/211/52 141/212/52 146/213/52
f 149/214/52 146/213/52 148/215/52
f 146/213/52 149/214/52 150/211/52
f 42/104/52 152/216/52 143/217/52
f 142/218/52 153/219/52 42/104/52
f 152/216/52 42/104/52 153/219/52
f 143/217/52 154/220/52 147/87/52
s 1
f 147/221/52 154/222/52 38/223/52
f 144/224/52 38/223/52 154/222/52
f 57/225/52 145/226/52 155/227/52
f 57/225/52 155/227/52 40/228/52
f 155/227/52 148/229/52 40/228/52
s 0
f 157/230/52 156/231/52 158/232/52 159/233/52
f 206/234/52 151/235/52 160/236/52 161/237/52
f 165/238/52 164/239/52 166/240/52 167/241/52
f 163/242/52 162/243/52 168/244/52 169/245/52
f 179/246/53 37/121/53 170/247/53
f 178/248/53 177/119/53 37/121/53
f 37/121/53 179/246/53 178/248/53
f 175/249/53 172/250/53 181/251/53
f 171/252/53 175/249/53 182/253/53
f 181/251/53 182/253/53 175/249/53
f 172/254/53 36/255/53 183/256/53
s 1
f 36/116/53 67/113/53 183/257/53
f 47/112/53 183/257/53 67/113/53
f 176/107/53 184/258/53 173/110/53
f 176/107/53 174/106/53 184/258/53
f 184/258/53 174/106/53 177/119/53
s 0
f 187/259/53 189/260/53 188/261/53 186/262/53
f 185/263/53 191/264/53 190/265/53 180/266/53
f 195/267/53 197/268/53 196/269/53 194/270/53
f 193/271/53 199/272/53 198/273/53 192/274/53
f 192/274/53 201/275/53 193/271/53
s 1
f 47/112/53 62/115/53 183/257/53
f 200/276/53 194/270/53 183/257/53 62/115/53
f 63/277/53 53/278/53 193/271/53 201/275/53
s 0
f 194/270/53 200/276/53 195/267/53
f 195/267/53 200/276/53 201/275/53 192/274/53
s 1
f 62/74/51 126/73/51 127/279/51 200/280/51
s 0
f 200/281/51 127/282/51 203/283/51
s 1
f 63/284/51 201/285/51 128/198/51 46/286/51
f 204/195/51 128/198/51 201/285/51
s 0
f 201/285/51 200/287/51 203/288/51 204/195/51
s 1
f 63/277/53 202/289/53 186/262/53 53/278/53
f 186/262/53 202/289/53 187/259/53
f 184/258/53 66/111/53 173/110/53
f 205/290/53 66/111/53 184/258/53 185/263/53
s 0
f 180/266/53 205/290/53 185/263/53
s 1
f 180/266/53 187/259/53 202/289/53 205/290/53
f 68/117/53 172/118/53 175/124/53 69/125/53
f 65/109/53 70/122/53 37/121/53 177/119/53
f 50/82/51 32/81/51 120/79/51 49/78/51
s 0
f 52/291/51 27/292/51 22/188/51 34/187/51
s 1
f 156/293/52 202/294/52 63/295/52 16/296/52
f 156/293/52 157/297/52 202/294/52
s 0
f 206/234/52 205/298/52 151/235/52
s 1
f 205/299/52 206/300/52 155/301/52 66/302/52
f 155/227/52 145/226/52 66/303/52
f 151/304/52 205/305/52 202/294/52 157/297/52
s 0
f 147/87/52 56/90/52 143/217/52
f 56/90/52 61/105/52 42/104/52 143/217/52
s 1
f 63/295/52 207/306/52 163/307/52 16/296/52
s 0
f 162/243/52 163/242/52 207/308/52
s 1
f 144/224/52 154/222/52 54/309/52
f 208/310/52 54/309/52 154/222/52 164/239/52
s 0
f 164/239/52 165/238/52 208/310/52
f 165/238/52 162/243/52 207/308/52 208/310/52
s 1
f 125/311/51 54/312/51 208/313/51 135/314/51
s 0
f 135/206/51 208/315/51 136/203/51
s 1
f 63/284/51 46/286/51 134/207/51 207/316/51
s 0
f 133/210/51 207/316/51 134/207/51
f 208/317/51 207/318/51 133/319/51 136/320/51
o RoundCorner
v 1.000000 -0.800000 -0.800000
v -0.386723 0.143865 -1.000000
v -0.143865 0.386722 -1.000000
v 0.145818 0.578853 -1.000000
v -0.277827 0.277827 -1.000000
v 1.000000 0.277827 0.277827
v 0.800000 -0.800000 -1.000000
v 0.800000 -1.000000 -0.800000
v -0.277827 -1.000000 0.277827
v -0.578853 -0.145818 -1.000000
v -0.412236 -0.256586 -1.000000
v -0.220228 0.033179 -1.000000
v 0.256789 0.411931 -1.000000
v -0.033177 0.220225 -1.000000
v 0.800000 0.578598 -1.000000
v -0.581586 -0.800000 -1.000000
v -0.458989 -0.800000 -1.000000
v 0.519863 -0.800000 -1.000000
v 0.519863 -0.600227 -1.000000
v 0.120021 -0.600494 -1.000000
v -0.059147 -0.600043 -1.000000
v -0.458989 -0.600079 -1.000000
v 0.800000 -0.120021 -1.000000
v 0.800000 -0.519863 -1.000000
v 0.800000 0.458989 -1.000000
v 0.800000 0.059147 -1.000000
v 0.600227 0.458989 -1.000000
v 0.600494 0.059147 -1.000000
v 0.600043 -0.120021 -1.000000
v 0.600079 -0.519863 -1.000000
v 1.000000 0.143865 0.386723
v 1.000000 0.386722 0.143866
v 1.000000 0.578853 -0.145818
v 1.000000 -0.145818 0.578854
v 1.000000 -0.256586 0.412236
v 1.000000 0.033179 0.220228
v 1.000000 -0.800000 0.040277
v 1.000000 0.411931 -0.256789
v 1.000000 0.220225 0.033177
v 1.000000 0.580325 -0.800000
v 1.000000 -0.800000 0.581586
v 1.000000 -0.800000 -0.541325
v 1.000000 -0.800000 -0.141483
v 1.000000 -0.600227 -0.541325
v 1.000000 -0.600494 -0.141483
v 1.000000 -0.600042 0.040277
v 1.000000 -0.600079 0.440119
v 1.000000 -0.120021 -0.800000
v 1.000000 -0.519863 -0.800000
v 1.000000 0.458989 -0.800000
v 1.000000 0.059147 -0.800000
v 1.000000 0.458989 -0.600227
v 1.000000 0.059147 -0.600494
v 1.000000 -0.120021 -0.600043
v 1.000000 -0.519863 -0.600079
v -0.143865 -1.000000 0.386722
v -0.386723 -1.000000 0.143865
v -0.578853 -1.000000 -0.145818
v 0.145818 -1.000000 0.578853
v 0.256586 -1.000000 0.412236
v -0.033179 -1.000000 0.220228
v 0.800000 -1.000000 0.037685
v -0.411931 -1.000000 -0.256789
v -0.220225 -1.000000 0.033177
v -0.578853 -1.000000 -0.800000
v 0.800000 -1.000000 0.581586
v 0.800000 -1.000000 0.437527
v 0.800000 -1.000000 -0.541325
v 0.800000 -1.000000 -0.141483
v 0.600227 -1.000000 -0.541325
v 0.600494 -1.000000 -0.141483
v 0.600042 -1.000000 0.037685
v 0.600079 -1.000000 0.437527
v 0.120021 -1.000000 -0.800000
v 0.519863 -1.000000 -0.800000
v -0.458989 -1.000000 -0.800000
v -0.059147 -1.000000 -0.800000
v -0.458989 -1.000000 -0.600227
v -0.059147 -1.000000 -0.600494
v 0.120021 -1.000000 -0.600043
v 0.519863 -1.000000 -0.600079
v -0.059147 -0.800000 -1.000000
v 0.120021 -0.800000 -1.000000
v 1.000000 -0.800000 0.440119
v -0.109180 0.645540 -0.801078
v -0.634411 0.102377 -0.802901
v -0.109316 -0.801135 0.645131
v -0.644967 -0.801158 0.109183
v 0.801283 0.644051 0.108483
v 0.802634 0.103316 0.635558
v -0.873637 -0.422493 -0.802605
v -0.517007 0.251276 -0.802436
v -0.254391 0.522858 -0.801525
v 0.060807 0.739481 -0.800836
v 0.416414 0.892973 -0.800382
v -0.723979 -0.068156 -0.803157
v 0.072782 0.722061 -0.601671
v -0.496657 0.231500 -0.604882
v -0.242409 0.505427 -0.602242
v -0.379167 0.380316 -0.603588
v 0.422565 0.878660 -0.601315
v 0.236969 0.819052 -0.600727
v -0.689847 -0.082178 -0.607029
v -0.779410 -0.252712 -0.607259
v -0.839255 -0.435449 -0.606400
v 0.802624 -0.422526 0.873537
v 0.802186 0.252587 0.518470
v 0.801274 0.524168 0.255854
v 0.801079 0.736712 -0.062075
v 0.800626 0.890204 -0.417682
v 0.803176 -0.068189 0.723879
v 0.601915 0.719292 -0.074050
v 0.604632 0.232810 0.498120
v 0.601992 0.506738 0.243872
v 0.603338 0.381627 0.380630
v 0.601559 0.875891 -0.423833
v 0.600971 0.816283 -0.238237
v 0.607048 -0.082212 0.689747
v 0.607278 -0.252746 0.779310
v 0.606420 -0.435483 0.839155
v -0.241915 -0.602597 0.509869
v -0.509705 -0.602135 0.241859
v 0.418283 -0.801051 0.885093
v 0.061733 -0.801126 0.736646
v -0.257069 -0.801137 0.524992
v -0.524894 -0.801149 0.257018
v -0.736564 -0.801138 -0.061799
v -0.885092 -0.801051 -0.418282
v -0.389620 -0.601971 0.389683
v -0.808522 -0.601839 -0.240945
v -0.865476 -0.601996 -0.426438
v -0.716932 -0.601921 -0.069961
v 0.069867 -0.602568 0.717078
v 0.426418 -0.602472 0.865523
v 0.240936 -0.602059 0.808544
v 0.724100 0.961571 -0.718314
v 0.214305 0.662939 -0.208519
v 0.000000 0.414214 0.005787
v -0.175875 0.111140 0.181662
v -0.306563 -0.234633 0.312349
v -0.039996 0.662939 -0.571348
v -0.320000 0.414214 -0.455367
v -0.535159 0.111140 -0.360184
v -0.705911 -0.234633 -0.291697
v 0.571348 0.662939 0.039996
v 0.455367 0.414214 0.320000
v 0.360184 0.111140 0.535159
v 0.291697 -0.234633 0.705911
v 0.602035 0.952524 -0.800170
v -0.933727 -0.606297 -0.801797
v 0.603784 -0.800984 0.942025
v -0.942025 -0.800984 -0.603784
v -0.961763 -0.800908 -0.800907
v 0.800195 0.951602 -0.602315
v 0.801805 -0.606322 0.933645
v 0.800908 -0.800907 0.961763
v 0.799705 0.989770 -0.799705
vn -0.0000 -0.0000 -1.0000
vn 1.0000 -0.0000 -0.0000
vn -0.0000 -1.0000 -0.0000
vn -0.1547 0.9614 0.2275
vn -0.1716 0.9692 0.1764
vn -0.2187 0.9634 0.1550
vn -0.1799 0.9659 0.1861
vn -0.4009 0.8220 0.4044
vn -0.5166 0.8289 0.2146
vn -0.6590 0.6970 0.2826
vn -0.5070 0.6961 0.5084
vn -0.2098 0.8351 0.5085
vn -0.2880 0.6965 0.6572
vn -0.5924 0.5445 0.5938
vn -0.7747 0.5411 0.3273
vn -0.3282 0.5399 0.7751
vn -0.6481 0.3968 0.6500
vn -0.8488 0.3959 0.3505
vn -0.3497 0.3955 0.8493
vn -0.9566 0.2464 0.1555
vn -0.9849 0.1423 0.0987
vn -0.9633 0.1951 0.1842
vn -0.1555 0.2467 0.9565
vn -0.1842 0.1954 0.9633
vn -0.0987 0.1428 0.9848
vn -0.6761 0.2950 0.6752
vn -0.7821 0.2648 0.5640
vn -0.5641 0.2635 0.7826
vn -0.3681 0.2970 0.8811
vn -0.5014 0.2646 0.8237
vn -0.8232 0.2654 0.5020
vn -0.8810 0.2971 0.3682
vn -0.8694 0.4593 0.1819
vn -0.8343 0.5234 0.1731
vn -0.8695 0.4579 0.1853
vn -0.7816 0.6017 0.1645
vn -0.7862 0.5977 0.1571
vn -0.7300 0.6647 0.1589
vn -0.6376 0.7600 0.1262
vn -0.5657 0.8177 0.1071
vn -0.6296 0.7678 0.1192
vn -0.4488 0.8683 0.2112
vn -0.4669 0.8799 0.0884
vn -0.3759 0.8682 0.3239
vn -0.2638 0.9329 0.2452
vn -0.2017 0.8754 0.4393
vn -0.3165 0.8709 0.3759
vn -0.2351 0.9322 0.2753
vn -0.3046 0.9493 0.0777
vn -0.0777 0.9460 0.3148
vn -0.1013 0.8254 0.5554
vn -0.0824 0.8865 0.4554
vn -0.1343 0.7635 0.6317
vn -0.1136 0.7763 0.6201
vn -0.1710 0.6650 0.7270
vn -0.1703 0.5991 0.7823
vn -0.1758 0.5185 0.8368
vn -0.1600 0.5930 0.7892
vn -0.9043 0.3862 0.1821
vn -0.1831 0.4567 0.8705
vn -0.1880 0.4528 0.8716
vn -0.1819 0.3861 0.9043
vn -0.9391 0.2627 0.2215
vn -0.9361 0.3021 0.1799
vn -0.9506 0.1056 0.2918
vn -0.9340 0.3062 0.1839
vn -0.8765 0.1056 0.4696
vn -0.8233 0.1483 0.5478
vn -0.7718 0.1067 0.6269
vn -0.6273 0.1066 0.7715
vn -0.5478 0.1487 0.8233
vn -0.4691 0.1056 0.8768
vn -0.2214 0.2626 0.9391
vn -0.2918 0.1056 0.9506
vn -0.1839 0.3063 0.9340
vn -0.1797 0.3022 0.9361
vt 0.330818 0.032214
vt 0.330818 -0.000000
vt 0.383351 0.032214
vt 0.473609 0.044499
vt 0.502715 0.000718
vt 0.163757 0.764591
vt 0.204093 0.712298
vt 0.209120 0.764591
vt 0.066221 0.717377
vt 0.059430 0.786525
vt 0.115997 0.757661
vt 0.115997 0.712298
vt 0.708169 0.842807
vt 0.750732 0.869351
vt 0.720205 0.753735
vt 0.750732 0.700789
vt 0.720225 0.702259
vt 0.556572 0.310609
vt 0.556572 0.363033
vt 0.509493 0.363032
vt 0.509493 0.310491
vt 0.404429 0.310500
vt 0.404429 0.363032
vt 0.330818 0.363032
vt 0.330818 0.137279
vt 0.383360 0.137279
vt 0.383242 0.184358
vt 0.330818 0.184358
vt 0.383312 0.289422
vt 0.696006 0.820121
vt 0.664242 0.700789
vt 0.708169 0.729850
vt 0.696124 0.872614
vt 0.664242 0.872686
vt 0.254421 0.712298
vt 0.209120 0.712298
vt 0.214865 0.762732
vt 0.052294 0.781439
vt 0.000000 0.786466
vt 0.000000 0.741103
vt 0.059430 0.712298
vt 0.320166 0.733770
vt 0.289822 0.776652
vt 0.289822 0.712298
vt 0.508873 0.369948
vt 0.340820 0.363032
vt 0.392177 0.401550
vt 0.480417 0.412028
vt 0.115997 0.712298
vt 0.163757 0.712298
vt 0.163757 0.764721
vt 0.115997 0.764840
vt 0.561526 0.677179
vt 0.515500 0.675362
vt 0.515500 0.727123
vt 0.561526 0.728823
vt 0.392187 0.505053
vt 0.392071 0.552100
vt 0.554855 0.464481
vt 0.340820 0.773836
vt 0.367827 0.728823
vt 0.367827 0.790041
vt 0.793458 0.726986
vt 0.750732 0.868316
vt 0.781412 0.815562
vt 0.178675 0.363032
vt 0.178675 0.310491
vt 0.225754 0.310609
vt 0.225754 0.363032
vt 0.052423 0.189997
vt 0.000000 0.189997
vt 0.000000 0.142918
vt 0.052542 0.142918
vt 0.289822 0.775915
vt 0.289822 0.712298
vt 0.254421 0.740620
vt 0.268080 0.144103
vt 0.218930 0.094952
vt 0.248015 0.051203
vt 0.283215 0.079817
vt 0.000000 0.037854
vt 0.000000 -0.000000
vt 0.052532 0.037854
vt 0.171896 0.000718
vt 0.142790 0.044499
vt 0.999097 0.648002
vt 0.999097 0.700789
vt 0.946307 0.699260
vt 0.978957 0.678500
vt 0.836568 0.531710
vt 0.767622 0.625289
vt 0.682879 0.581578
vt 0.769684 0.462648
vt 0.930657 0.467082
vt 0.889656 0.380923
vt 0.969394 0.255659
vt 0.938088 0.346988
vt 0.803479 0.343300
vt 0.812060 0.252167
vt 0.187461 0.615947
vt 0.194138 0.708279
vt 0.059686 0.712298
vt 0.030120 0.619747
vt 0.990569 0.156871
vt 0.815233 0.153037
vt 0.185840 0.516076
vt 0.010297 0.520262
vt 0.666167 0.059986
vt 0.661637 0.008636
vt 0.713365 0.004298
vt 0.335980 0.423959
vt 0.289256 0.367874
vt 0.340820 0.372766
vt 1.000000 0.056388
vt 0.955979 0.054282
vt -0.000000 0.419767
vt 0.044665 0.417265
vt 0.185252 0.415102
vt 0.136269 0.414971
vt 0.865418 0.052304
vt 0.816852 0.052321
vt 0.737486 0.201446
vt 0.693003 0.256851
vt 0.685540 0.208609
vt 0.753056 0.291570
vt 0.701527 0.300941
vt 0.761796 0.335621
vt 0.664242 0.617652
vt 0.706441 0.624379
vt 0.746511 0.683234
vt 0.702293 0.676446
vt 0.799583 0.636250
vt 0.795438 0.688286
vt 0.847204 0.641321
vt 0.898164 0.644490
vt 0.940520 0.499539
vt 0.944103 0.547344
vt 0.945725 0.598391
vt 0.895335 0.696299
vt 0.997624 0.597092
vt 0.989221 0.447760
vt 0.992682 0.496935
vt 0.931720 0.405499
vt 0.983913 0.402894
vt 0.926351 0.363032
vt 0.245728 0.656480
vt 0.236040 0.701030
vt 0.306542 0.621700
vt 0.297085 0.666369
vt 0.730030 0.153203
vt 0.262893 0.565412
vt 0.314775 0.573007
vt 0.271101 0.516886
vt 0.766267 0.054411
vt 0.724118 0.103297
vt 0.763948 0.002149
vt 0.672122 0.110176
vt 0.863097 0.000000
vt 0.911663 0.000000
vt 0.955684 0.002065
vt 0.045186 0.365370
vt 0.089849 0.363032
vt 0.138840 0.363032
vt 0.235972 0.417398
vt 0.238543 0.365453
vt 0.329486 0.474220
vt 0.277551 0.466908
vt 0.549749 0.094952
vt 0.330818 0.289422
vt 0.598898 0.144103
vt 0.649272 0.220296
vt 0.661637 0.310539
vt 0.073610 0.310500
vt 0.073610 0.363032
vt 0.052494 0.295062
vt 0.318453 0.220296
vt 0.330819 0.310539
vt 0.000000 0.363032
vt 0.000000 0.295062
vt 0.392139 0.655605
vt 0.412784 0.723328
vt 0.412784 0.671577
vt 0.602905 0.514676
vt 0.652153 0.591556
vt 0.664242 0.680905
vt 0.340820 0.720670
vt 0.340820 0.653709
s 1
usemtl Material
f 225/321/89 224/322/89 230/323/89
s 0
f 219/324/89 230/323/89 224/322/89 218/325/89
f 213/326/89 220/327/89 210/328/89
f 222/329/89 220/330/89 213/331/89 211/332/89
f 221/333/89 212/334/89 235/335/89
s 1
f 223/336/89 233/337/89 235/335/89 212/334/89
s 0
f 236/338/89 234/339/89 231/340/89 237/341/89
f 238/342/89 232/343/89 215/344/89
f 290/345/89 229/346/89 228/347/89 291/348/89
f 227/349/89 238/342/89 215/344/89
f 260/350/90 241/351/90 246/352/90
f 241/351/90 260/350/90 258/353/90 248/354/90
f 214/355/90 239/356/90 244/357/90
f 247/358/90 240/359/90 214/360/90 244/361/90
f 292/362/90 255/363/90 249/364/90
f 242/365/90 249/366/90 255/367/90 243/368/90
s 1
f 245/369/90 251/370/90 253/371/90 254/372/90
s 0
f 261/373/90 262/374/90 256/375/90 259/376/90
f 254/377/90 253/378/90 244/379/90
s 1
f 284/380/91 286/381/91 273/382/91
s 0
f 271/383/91 266/336/91 273/384/91 286/385/91
f 282/386/91 288/387/91 287/388/91 285/389/91
f 243/368/90 254/377/90 244/379/90
f 279/390/91 277/391/91 270/392/91 280/393/91
f 272/394/91 217/395/91 265/396/91
f 272/397/91 269/398/91 264/399/91 217/400/91
f 275/401/91 274/402/91 281/403/91
f 267/404/91 268/405/91 281/403/91 274/402/91
f 280/393/91 281/403/91 268/405/91
s 1
f 362/406/92 365/407/93 357/408/94 344/409/95
f 345/410/96 349/411/97 350/412/98 346/413/99
f 353/414/100 345/410/96 346/413/99 354/415/101
f 347/416/102 346/417/99 350/418/98 351/419/103
f 355/420/104 354/421/101 346/422/99 347/423/102
f 348/424/105 347/416/102 351/419/103 352/425/106
f 356/426/107 355/420/104 347/423/102 348/427/105
f 358/428/108 361/429/109 360/430/110
f 363/431/111 359/432/112 364/433/113
f 337/434/114 348/424/105 330/435/115
f 337/436/114 329/437/116 348/427/105
f 343/438/117 356/426/107 341/439/118
f 356/426/107 348/427/105 329/437/116 341/439/118
f 348/424/105 352/425/106 340/440/119 330/435/115
f 340/440/119 352/425/106 338/441/120
f 311/442/121 351/419/103 294/443/122 304/444/123
f 306/445/124 300/446/125 294/443/122 351/419/103
f 306/445/124 351/419/103 350/418/98 308/447/126
f 308/448/126 350/412/98 349/411/97 307/449/127
f 307/449/127 349/411/97 293/450/128 301/451/129
f 305/452/130 302/453/131 293/450/128 349/411/97
f 349/411/97 345/410/96 305/452/130
f 305/452/130 345/410/96 310/454/132
f 310/454/132 345/410/96 309/455/133
f 345/410/96 353/414/100 320/456/134
f 320/456/134 325/457/135 345/410/96
f 324/458/136 345/410/96 325/457/135
f 345/410/96 324/458/136 309/455/133
f 303/459/137 309/455/133 357/408/94
f 357/408/94 309/455/133 344/409/95
f 362/406/92 324/458/136 318/460/138
f 362/406/92 344/409/95 324/458/136
f 309/455/133 324/458/136 344/409/95
f 297/461/139 317/462/140 320/456/134 353/414/100
f 322/463/141 316/464/142 297/461/139 353/414/100
f 323/465/143 322/463/141 353/414/100 354/415/101
f 321/466/144 323/467/143 354/421/101 355/420/104
f 298/468/145 315/469/146 321/466/144 355/420/104
f 312/470/147 352/425/106 311/442/121
f 351/419/103 311/442/121 352/425/106
f 326/471/148 319/472/149 298/468/145 355/420/104
f 326/471/148 356/426/107 327/473/150
f 355/420/104 356/426/107 326/471/148
f 339/474/151 338/441/120 352/425/106
f 312/470/147 313/475/152 339/474/151 352/425/106
f 336/476/153 339/474/151 360/430/110
f 313/475/152 299/477/154 358/428/108
f 360/430/110 339/474/151 313/475/152 358/428/108
f 335/478/155 296/479/156 340/440/119
f 334/480/157 330/435/115 296/479/156
f 330/435/115 340/440/119 296/479/156
f 333/481/158 295/482/159 329/437/116
f 341/439/118 295/482/159 332/483/160
f 341/439/118 329/437/116 295/482/159
f 342/484/161 331/485/162 359/432/112
f 314/486/163 328/487/164 363/431/111
f 359/432/112 363/431/111 328/487/164 342/484/161
f 343/438/117 342/484/161 356/426/107
f 327/473/150 356/426/107 342/484/161 328/487/164
s 0
f 230/323/89 219/324/89 229/346/89
f 219/324/89 220/488/89 229/346/89
f 215/344/89 226/489/89 227/349/89
f 222/490/89 221/491/89 236/338/89
f 237/341/89 222/490/89 236/338/89
f 221/491/89 235/492/89 236/338/89
f 237/341/89 238/342/89 228/347/89
f 238/342/89 227/349/89 228/347/89
f 229/346/89 220/488/89 228/347/89
f 237/341/89 228/347/89 220/488/89 222/490/89
s 1
f 289/493/91 283/494/91 278/495/91
s 0
f 272/397/91 271/496/91 287/388/91
f 288/387/91 272/397/91 287/388/91
f 271/496/91 286/497/91 287/388/91
f 288/387/91 289/493/91 279/390/91
f 289/493/91 278/495/91 279/390/91
f 268/405/91 269/398/91 280/393/91
f 255/367/90 254/377/90 243/368/90
f 280/393/91 269/398/91 279/390/91
f 272/397/91 288/387/91 279/390/91 269/398/91
s 1
f 216/498/91 276/499/91 278/495/91 283/494/91
s 0
f 252/500/90 257/501/90 263/502/90
f 247/503/90 261/373/90 246/504/90
f 262/374/90 261/373/90 247/503/90
f 246/504/90 261/373/90 260/505/90
f 262/374/90 253/378/90 263/502/90
f 263/502/90 253/378/90 252/500/90
f 247/503/90 244/379/90 253/378/90 262/374/90
f 209/506/90 257/501/90 252/500/90 250/507/90
