mtllib dispel_gummi_cone.mtl
o Cone2
v 0.000000 -0.500000 -0.799032
v 0.000000 0.500000 -0.241147
v 0.155883 -0.500000 -0.783679
v 0.047045 0.500000 -0.236513
v 0.305776 -0.500000 -0.738210
v 0.092284 0.500000 -0.222791
v 0.443918 -0.500000 -0.664371
v 0.133974 0.500000 -0.200507
v 0.565001 -0.500000 -0.565001
v 0.170516 0.500000 -0.170517
v 0.664371 -0.500000 -0.443918
v 0.200507 0.500000 -0.133974
v 0.738210 -0.500000 -0.305776
v 0.222791 0.500000 -0.092283
v 0.783679 -0.500000 -0.155883
v 0.236514 0.500000 -0.047045
v 0.799032 -0.500000 0.000000
v 0.241147 0.500000 -0.000000
v 0.783679 -0.500000 0.155883
v 0.236514 0.500000 0.047045
v 0.738210 -0.500000 0.305776
v 0.222791 0.500000 0.092283
v 0.664371 -0.500000 0.443918
v 0.200507 0.500000 0.133974
v 0.565001 -0.500000 0.565001
v 0.170516 0.500000 0.170516
v 0.443918 -0.500000 0.664371
v 0.133974 0.500000 0.200507
v 0.305776 -0.500000 0.738210
v 0.092284 0.500000 0.222791
v 0.155883 -0.500000 0.783679
v 0.047045 0.500000 0.236513
v 0.000000 -0.500000 0.799032
v 0.000000 0.500000 0.241147
v -0.155883 -0.500000 0.783679
v -0.047045 0.500000 0.236513
v -0.305776 -0.500000 0.738210
v -0.092284 0.500000 0.222791
v -0.443918 -0.500000 0.664371
v -0.133974 0.500000 0.200507
v -0.565001 -0.500000 0.565001
v -0.170516 0.500000 0.170516
v -0.664371 -0.500000 0.443918
v -0.200506 0.500000 0.133974
v -0.738210 -0.500000 0.305776
v -0.222790 0.500000 0.092284
v -0.783679 -0.500000 0.155883
v -0.236513 0.500000 0.047045
v -0.799032 -0.500000 0.000000
v -0.241146 0.500000 -0.000000
v -0.783679 -0.500000 -0.155883
v -0.236513 0.500000 -0.047045
v -0.738210 -0.500000 -0.305776
v -0.222790 0.500000 -0.092284
v -0.664371 -0.500000 -0.443918
v -0.200506 0.500000 -0.133974
v -0.565001 -0.500000 -0.565001
v -0.170516 0.500000 -0.170517
v -0.443918 -0.500000 -0.664371
v -0.133974 0.500000 -0.200507
v -0.305776 -0.500000 -0.738210
v -0.092284 0.500000 -0.222791
v -0.155883 -0.500000 -0.783679
v -0.047045 0.500000 -0.236513
v 0.000000 0.500000 -0.442115
v 0.086252 0.500000 -0.433619
v 0.169190 0.500000 -0.408461
v 0.245626 0.500000 -0.367605
v 0.312622 0.500000 -0.312622
v 0.367605 0.500000 -0.245626
v 0.408461 0.500000 -0.169190
v 0.433620 0.500000 -0.086252
v 0.442115 0.500000 -0.000000
v 0.433620 0.500000 0.086252
v 0.408461 0.500000 0.169190
v 0.367605 0.500000 0.245626
v 0.312622 0.500000 0.312622
v 0.245626 0.500000 0.367605
v 0.169190 0.500000 0.408461
v 0.086252 0.500000 0.433619
v 0.000000 0.500000 0.442115
v -0.086252 0.500000 0.433619
v -0.169190 0.500000 0.408461
v -0.245626 0.500000 0.367605
v -0.312622 0.500000 0.312622
v -0.367605 0.500000 0.245626
v -0.408460 0.500000 0.169190
v -0.433619 0.500000 0.086252
v -0.442114 0.500000 -0.000000
v -0.433619 0.500000 -0.086252
v -0.408460 0.500000 -0.169190
v -0.367605 0.500000 -0.245626
v -0.312622 0.500000 -0.312622
v -0.245626 0.500000 -0.367605
v -0.169190 0.500000 -0.408461
v -0.086252 0.500000 -0.433619
v 0.000000 -0.500000 -1.000000
v 0.195090 -0.500000 -0.980785
v 0.382683 -0.500000 -0.923880
v 0.555570 -0.500000 -0.831470
v 0.707107 -0.500000 -0.707107
v 0.831470 -0.500000 -0.555570
v 0.923880 -0.500000 -0.382683
v 0.980785 -0.500000 -0.195090
v 1.000000 -0.500000 0.000000
v 0.980785 -0.500000 0.195090
v 0.923880 -0.500000 0.382683
v 0.831470 -0.500000 0.555570
v 0.707107 -0.500000 0.707107
v 0.555570 -0.500000 0.831470
v 0.382683 -0.500000 0.923880
v 0.195090 -0.500000 0.980785
v 0.000000 -0.500000 1.000000
v -0.195090 -0.500000 0.980785
v -0.382683 -0.500000 0.923880
v -0.555570 -0.500000 0.831470
v -0.707107 -0.500000 0.707107
v -0.831470 -0.500000 0.555570
v -0.923880 -0.500000 0.382683
v -0.980785 -0.500000 0.195090
v -1.000000 -0.500000 0.000000
v -0.980785 -0.500000 -0.195090
v -0.923880 -0.500000 -0.382683
v -0.831470 -0.500000 -0.555570
v -0.707107 -0.500000 -0.707107
v -0.555570 -0.500000 -0.831470
v -0.382683 -0.500000 -0.923880
v -0.195090 -0.500000 -0.980785
v 0.000000 -0.200000 -0.832635
v 0.318635 -0.200000 -0.769254
v 0.462587 -0.200000 -0.692311
v 0.692311 -0.200000 -0.462587
v 0.769254 -0.200000 -0.318635
v 0.832635 -0.200000 0.000000
v 0.769254 -0.200000 0.318635
v 0.692311 -0.200000 0.462587
v 0.462587 -0.200000 0.692311
v 0.318635 -0.200000 0.769254
v 0.000000 -0.200000 0.832635
v -0.318635 -0.200000 0.769254
v -0.462587 -0.200000 0.692311
v -0.692311 -0.200000 0.462587
v -0.769254 -0.200000 0.318635
v -0.832634 -0.200000 0.000000
v -0.816635 -0.200000 -0.162439
v -0.692311 -0.200000 -0.462587
v -0.462587 -0.200000 -0.692311
v -0.318635 -0.200000 -0.769254
v 0.162439 -0.200000 -0.816635
v 0.588762 -0.200000 -0.588762
v 0.816635 -0.200000 -0.162439
v 0.816635 -0.200000 0.162439
v 0.588762 -0.200000 0.588762
v 0.162439 -0.200000 0.816635
v -0.162439 -0.200000 0.816635
v -0.588762 -0.200000 0.588762
v -0.816635 -0.200000 0.162439
v -0.769254 -0.200000 -0.318635
v -0.588762 -0.200000 -0.588762
v -0.162439 -0.200000 -0.816635
v 0.000000 0.290000 -0.559271
v 0.214024 0.290000 -0.516699
v 0.310714 0.290000 -0.465017
v 0.465017 0.290000 -0.310714
v 0.516699 0.290000 -0.214024
v 0.559271 0.290000 -0.000000
v 0.516699 0.290000 0.214024
v 0.465017 0.290000 0.310714
v 0.310714 0.290000 0.465017
v 0.214024 0.290000 0.516699
v 0.000000 0.290000 0.559271
v -0.214024 0.290000 0.516699
v -0.310714 0.290000 0.465017
v -0.465017 0.290000 0.310714
v -0.516698 0.290000 0.214024
v -0.559270 0.290000 -0.000000
v -0.548524 0.290000 -0.109108
v -0.465017 0.290000 -0.310714
v -0.310714 0.290000 -0.465017
v -0.214024 0.290000 -0.516699
v 0.109108 0.290000 -0.548524
v 0.395464 0.290000 -0.395464
v 0.548525 0.290000 -0.109108
v 0.548525 0.290000 0.109108
v 0.395464 0.290000 0.395464
v 0.109108 0.290000 0.548524
v -0.109108 0.290000 0.548524
v -0.395464 0.290000 0.395464
v -0.548524 0.290000 0.109108
v -0.516698 0.290000 -0.214024
v -0.395464 0.290000 -0.395464
v -0.109108 0.290000 -0.548524
v 0.236514 0.500000 0.047045
v 0.222791 0.500000 0.092283
v -0.136116 0.500000 0.047045
v -0.136177 0.500000 -0.047045
v -0.047045 0.500000 -0.136218
v 0.047045 0.500000 -0.136088
v -0.047045 0.500000 0.136065
v 0.047045 0.500000 0.136256
v 0.136229 0.500000 0.047045
v 0.136410 0.500000 -0.047045
v -0.128074 0.115744 0.643871
v 0.128156 0.114990 0.644283
v -0.000871 0.115005 0.656883
v -0.644097 0.115330 -0.128119
v -0.656665 0.115421 -0.000000
v -0.638930 0.112234 0.127091
v 0.128127 0.115252 -0.644140
v 0.000000 0.115777 -0.656467
v -0.127031 0.112826 -0.638629
v 0.644214 0.115119 0.128142
v 0.638759 0.112573 -0.127057
v 0.656872 0.115052 -0.000000
v -0.143390 -0.024977 0.720868
v 0.000000 -0.025391 0.735223
v 0.143477 -0.025775 0.721305
v 0.408354 -0.025023 0.611146
v 0.519704 -0.024940 0.519704
v 0.611397 -0.025566 0.408522
v 0.721070 -0.025346 0.143430
v 0.735404 -0.025715 0.000000
v 0.721050 -0.025309 -0.143426
v 0.611097 -0.024919 -0.408322
v 0.519781 -0.025136 -0.519781
v 0.408398 -0.025166 -0.611212
v 0.143460 -0.025624 -0.721222
v 0.000000 -0.025362 -0.735207
v -0.143384 -0.024928 -0.720841
v -0.721118 -0.025433 -0.143440
v -0.735093 -0.025160 0.000000
v -0.721152 -0.025495 0.143446
v -0.611176 -0.025090 0.408375
v -0.519898 -0.025433 0.519898
v -0.408487 -0.025453 0.611345
v -0.408475 -0.025412 -0.611326
v -0.519875 -0.025374 -0.519875
v -0.630950 -0.014454 -0.421587
v 0.584018 -0.500000 0.155883
v 0.584171 -0.500000 -0.155883
v -0.583935 -0.500000 0.155883
v -0.584151 -0.500000 -0.155883
v 0.155883 -0.500000 0.583951
v -0.155883 -0.500000 0.583843
v -0.155883 -0.500000 -0.583536
v 0.155883 -0.500000 -0.583901
v 0.302500 -0.500000 -0.522953
v 0.523076 -0.500000 -0.302623
v -0.522906 -0.500000 -0.302453
v -0.302665 -0.500000 -0.523118
v -0.302746 -0.500000 0.523199
v -0.522597 -0.500000 0.302144
v 0.523130 -0.500000 0.302678
v 0.302254 -0.500000 0.522707
vn -0.0000 0.4872 0.8733
vn -0.1433 0.4870 0.8616
vn -0.1704 0.4872 0.8565
vn 0.6175 0.4872 -0.6175
vn 0.7261 0.4872 -0.4852
vn -0.8733 0.4872 -0.0000
vn -0.8616 0.4870 -0.1433
vn -0.8565 0.4872 -0.1704
vn 0.1409 0.4869 0.8620
vn 0.1704 0.4872 0.8565
vn 0.6175 0.4872 0.6175
vn 0.4852 0.4872 0.7261
vn 0.3342 0.4872 -0.8068
vn 0.5079 0.4870 -0.7106
vn 0.4852 0.4872 -0.7261
vn 0.8620 0.4870 0.1410
vn 0.8565 0.4872 0.1704
vn 0.8068 0.4872 0.3342
vn 0.8733 0.4872 -0.0000
vn 0.8616 0.4870 0.1433
vn -0.8068 0.4872 -0.3342
vn 0.3342 0.4872 0.8068
vn 0.1433 0.4870 0.8616
vn 0.7106 0.4870 -0.5079
vn 0.8068 0.4872 -0.3342
vn -0.5079 0.4870 0.7106
vn -0.6175 0.4872 0.6175
vn -0.4852 0.4872 0.7261
vn -0.7020 0.4694 -0.5357
vn -0.6092 0.4726 -0.6368
vn -0.6175 0.4872 -0.6175
vn -0.7261 0.4872 -0.4852
vn -0.5079 0.4870 -0.7106
vn -0.3342 0.4872 -0.8068
vn -0.4852 0.4872 -0.7261
vn -0.1433 0.4870 -0.8616
vn -0.1704 0.4872 -0.8565
vn -0.1501 0.4821 -0.8632
vn -0.0000 0.4872 -0.8733
vn -0.0067 0.4840 -0.8750
vn 0.1410 0.4870 -0.8620
vn 0.1704 0.4872 -0.8565
vn 0.5079 0.4870 0.7106
vn -0.7261 0.4872 0.4852
vn -0.8632 0.4821 0.1501
vn -0.8565 0.4872 0.1704
vn -0.8750 0.4840 0.0068
vn 0.8616 0.4870 -0.1433
vn 0.8565 0.4872 -0.1704
vn 0.8632 0.4821 -0.1501
vn 0.8750 0.4840 -0.0068
vn -0.8068 0.4872 0.3342
vn -0.8616 0.4870 0.1433
vn -0.7106 0.4870 0.5079
vn 0.7106 0.4870 0.5079
vn 0.7261 0.4872 0.4852
vn -0.3342 0.4872 0.8068
vn -0.1411 0.4870 0.8619
vn 0.1433 0.4870 -0.8616
vn -0.0000 1.0000 -0.0000
vn -0.0000 -1.0000 -0.0000
vn -0.8620 0.4870 -0.1410
vn -0.0000 -0.0000 1.0000
vn 0.0853 0.4852 0.8702
vn -0.0003 0.4872 0.8733
vn -0.0859 0.4855 0.8700
vn -0.8701 0.4854 -0.0857
vn -0.8766 0.4810 0.0132
vn -0.8746 0.4719 0.1118
vn 0.0857 0.4854 -0.8701
vn -0.0129 0.4810 -0.8766
vn -0.1118 0.4719 -0.8746
vn 0.8766 0.4810 -0.0130
vn 0.8701 0.4854 0.0857
vn 0.8745 0.4719 -0.1118
vn -0.0857 0.4854 0.8701
vn -0.0002 0.4872 0.8733
vn 0.0857 0.4854 0.8701
vn 0.6174 0.4872 0.6176
vn 0.5546 0.4854 0.6758
vn 0.6758 0.4854 0.5546
vn 0.8701 0.4854 -0.0857
vn 0.5546 0.4854 -0.6758
vn 0.6758 0.4854 -0.5546
vn -0.0857 0.4854 -0.8701
vn -0.0001 0.4872 -0.8733
vn -0.8701 0.4854 0.0857
vn -0.5546 0.4854 0.6758
vn -0.6176 0.4872 0.6175
vn -0.6758 0.4854 0.5546
vn -0.6432 0.4266 -0.6358
vn -0.5997 0.4569 -0.6570
vn -0.5546 0.4854 -0.6758
vt 0.065549 0.672134
vt 0.054322 0.631814
vt 0.147434 0.605805
vt 0.160917 0.654229
vt 0.686597 0.767359
vt 0.621220 0.786238
vt 0.613339 0.763024
vt 0.676627 0.737993
vt 0.278446 0.855428
vt 0.289684 0.895716
vt 0.196582 0.921785
vt 0.183085 0.873400
vt 0.755893 0.077342
vt 0.689239 0.090933
vt 0.683090 0.068125
vt 0.748114 0.048489
vt 0.761041 0.168972
vt 0.693309 0.163369
vt 0.694449 0.139489
vt 0.762484 0.138764
vt 0.382654 0.883652
vt 0.398052 0.843576
vt 0.491041 0.871598
vt 0.472548 0.919730
vt 0.738781 0.244004
vt 0.675712 0.222683
vt 0.683757 0.205781
vt 0.748958 0.222623
vt 0.409446 0.623239
vt 0.397989 0.587128
vt 0.490965 0.563602
vt 0.504726 0.606971
vt 0.304809 0.930811
vt 0.214747 0.963935
vt 0.074751 0.761980
vt 0.072446 0.716086
vt 0.169201 0.707016
vt 0.171969 0.762135
vt 0.416529 0.754252
vt 0.418898 0.708438
vt 0.516077 0.709296
vt 0.513232 0.764319
vt 0.289691 0.633819
vt 0.278451 0.675031
vt 0.183091 0.656742
vt 0.196591 0.607246
vt 0.681249 0.319002
vt 0.670072 0.360152
vt 0.574693 0.341847
vt 0.588117 0.292426
vt 0.663180 0.404615
vt 0.660837 0.450684
vt 0.563603 0.450577
vt 0.566416 0.395248
vt 0.663135 0.496588
vt 0.566362 0.505708
vt 0.867277 0.368473
vt 0.934606 0.358658
vt 0.939424 0.381793
vt 0.873371 0.397738
vt 0.882219 0.223894
vt 0.946418 0.244365
vt 0.939424 0.263996
vt 0.873371 0.248727
vt 0.696272 0.852212
vt 0.628869 0.853316
vt 0.629138 0.832268
vt 0.696612 0.825587
vt 0.072374 0.808054
vt 0.169114 0.817470
vt 0.872418 0.052090
vt 0.939171 0.064891
vt 0.935496 0.088520
vt 0.867769 0.081981
vt 0.409490 0.799883
vt 0.504778 0.819122
vt 0.867769 0.143753
vt 0.935496 0.137353
vt 0.939171 0.160679
vt 0.872418 0.173261
vt 0.416506 0.664200
vt 0.513205 0.656166
vt 0.648663 0.684358
vt 0.591233 0.720624
vt 0.577858 0.703068
vt 0.631744 0.662150
vt 0.269191 0.765611
vt 0.271527 0.811497
vt 0.174774 0.820638
vt 0.171969 0.765528
vt 0.271529 0.719532
vt 0.174777 0.710187
vt 0.867277 0.276712
vt 0.934606 0.286119
vt 0.932150 0.309883
vt 0.864170 0.306774
vt 0.054115 0.893718
vt 0.065406 0.852536
vt 0.160746 0.870894
vt 0.147185 0.920353
vt 0.038936 0.930015
vt 0.128955 0.963947
vt 0.304818 0.597480
vt 0.214757 0.563602
vt 0.737707 0.022374
vt 0.674863 0.047480
vt 0.664874 0.029793
vt 0.725071 -0.000000
vt 0.669984 0.540563
vt 0.681121 0.580919
vt 0.587964 0.606989
vt 0.574587 0.558522
vt 0.599537 0.155160
vt 0.604025 0.166420
vt 0.583189 0.201404
vt 0.574962 0.180760
vt 0.609473 0.176068
vt 0.593178 0.219091
vt 0.615672 0.183731
vt 0.604544 0.233141
vt 0.622385 0.189116
vt 0.616851 0.243013
vt 0.629353 0.192015
vt 0.629626 0.248329
vt 0.636309 0.192318
vt 0.642378 0.248884
vt 0.642984 0.190012
vt 0.654617 0.244657
vt 0.649123 0.185187
vt 0.665872 0.235810
vt 0.654490 0.178027
vt 0.658878 0.168808
vt 0.662119 0.157884
vt 0.689699 0.185753
vt 0.664088 0.145674
vt 0.664710 0.132649
vt 0.663961 0.119309
vt 0.693075 0.115030
vt 0.661869 0.106165
vt 0.658514 0.093724
vt 0.654027 0.082464
vt 0.648579 0.072816
vt 0.642379 0.065153
vt 0.653508 0.015743
vt 0.635666 0.059769
vt 0.641201 0.005871
vt 0.628698 0.056869
vt 0.628426 0.000555
vt 0.621743 0.056566
vt 0.615674 -0.000000
vt 0.615067 0.058872
vt 0.603435 0.004227
vt 0.608929 0.063698
vt 0.592180 0.013074
vt 0.603562 0.070858
vt 0.582340 0.026201
vt 0.599173 0.080077
vt 0.574295 0.043104
vt 0.595932 0.091001
vt 0.568353 0.063131
vt 0.593963 0.103210
vt 0.564743 0.085516
vt 0.593341 0.116235
vt 0.563603 0.109396
vt 0.594091 0.129576
vt 0.564977 0.133854
vt 0.596183 0.142719
vt 0.568812 0.157951
vt 0.056633 0.259625
vt 0.056633 0.303979
vt 0.000000 0.309557
vt 0.000000 0.254047
vt 0.065286 0.216123
vt 0.010829 0.199603
vt 0.082260 0.175145
vt 0.032072 0.148319
vt 0.106901 0.138265
vt 0.062912 0.102164
vt 0.138265 0.106902
vt 0.102163 0.062912
vt 0.175144 0.082260
vt 0.148318 0.032072
vt 0.216122 0.065286
vt 0.199603 0.010830
vt 0.259624 0.056633
vt 0.254046 0.000000
vt 0.303978 0.056633
vt 0.309556 0.000000
vt 0.347480 0.065286
vt 0.363999 0.010829
vt 0.388458 0.082260
vt 0.415284 0.032072
vt 0.425337 0.106901
vt 0.461439 0.062912
vt 0.456701 0.138265
vt 0.500690 0.102163
vt 0.481343 0.175144
vt 0.531530 0.148318
vt 0.498316 0.216122
vt 0.552773 0.199603
vt 0.506969 0.259624
vt 0.563603 0.254046
vt 0.506970 0.303978
vt 0.563603 0.309556
vt 0.498317 0.347480
vt 0.552773 0.363999
vt 0.481343 0.388458
vt 0.531531 0.415284
vt 0.456701 0.425337
vt 0.500691 0.461439
vt 0.425338 0.456701
vt 0.461439 0.500690
vt 0.388459 0.481343
vt 0.415285 0.531530
vt 0.347481 0.498316
vt 0.364000 0.552773
vt 0.303979 0.506969
vt 0.309557 0.563603
vt 0.259625 0.506970
vt 0.254047 0.563603
vt 0.216123 0.498317
vt 0.199603 0.552773
vt 0.175145 0.481343
vt 0.148319 0.531531
vt 0.138265 0.456701
vt 0.102164 0.500691
vt 0.106902 0.425338
vt 0.062912 0.461439
vt 0.082260 0.388459
vt 0.032072 0.415285
vt 0.065286 0.347481
vt 0.010830 0.364000
vt 0.039200 0.596675
vt 0.129272 0.563603
vt 0.450010 0.961668
vt 0.363888 0.918571
vt 0.606172 0.248885
vt 0.696282 0.282749
vt 0.106754 1.000000
vt 0.020451 0.960034
vt 0.945138 0.182071
vt 0.879967 0.200321
vt 0.626555 0.809619
vt 0.693345 0.796936
vt 0.563603 0.688875
vt 0.613711 0.644196
vt 0.953170 0.200706
vt 0.890127 0.223894
vt 0.760745 0.107824
vt 0.603214 0.740868
vt 0.663818 0.709967
vt 0.945138 0.043009
vt 0.879967 0.024409
vt 0.932150 0.334377
vt 0.864170 0.337758
vt 0.934255 0.112987
vt 0.866200 0.112931
vt 0.756474 0.197288
vt 0.953170 0.023713
vt 0.890127 0.000000
vt 0.946418 0.402893
vt 0.882219 0.424430
vt 0.811441 0.442352
vt 0.646132 0.152765
vt 0.634641 0.164796
vt 0.616305 0.153628
vt 0.608448 0.129943
vt 0.649609 0.118936
vt 0.641744 0.095259
vt 0.611924 0.096132
vt 0.623435 0.084162
vt 0.811441 0.066016
vt 0.802225 0.031910
vt 0.789855 0.001542
vt 0.825761 0.215501
vt 0.816925 0.183721
vt 0.811441 0.148744
vt 0.828796 0.442352
vt 0.818572 0.410968
vt 0.811441 0.376284
vt 0.676636 0.628061
vt 0.655439 0.606989
vt 0.696612 0.654822
vt 0.000000 0.646988
vt 0.010041 0.682555
vt 0.016256 0.721353
vt 0.009772 0.841824
vt 0.015949 0.802562
vt -0.000000 0.878231
vt 0.360199 0.668878
vt 0.354094 0.632689
vt 0.343860 0.600824
vt 0.343860 0.827245
vt 0.353948 0.788668
vt 0.360092 0.748377
vt 0.719609 0.491266
vt 0.725516 0.530109
vt 0.735269 0.565765
vt 0.327806 0.806180
vt 0.334023 0.844954
vt 0.343860 0.880546
vt 0.343860 0.649280
vt 0.333940 0.685674
vt 0.327938 0.724980
vt 0.735269 0.330893
vt 0.725590 0.370807
vt 0.719492 0.410067
vt 0.309520 0.112898
vt 0.221659 0.121508
vt 0.341937 0.442028
vt 0.254087 0.450742
vt 0.442033 0.221665
vt 0.450655 0.309524
vt 0.121687 0.341926
vt 0.112931 0.254080
vt 0.182003 0.142797
vt 0.126036 0.211071
vt 0.211083 0.437552
vt 0.142786 0.381612
vt 0.437642 0.352594
vt 0.381451 0.420684
vt 0.352576 0.125981
vt 0.420711 0.182118
s 1
usemtl Material2
f 139/1/1 155/2/2 114/3/3 113/4/1
f 182/5/4 69/6/4 70/7/5 164/8/5
f 144/9/6 145/10/7 122/11/8 121/12/6
f 186/13/9 80/14/10 81/15/1 171/16/1
f 185/17/11 77/18/11 78/19/12 169/20/12
f 130/21/13 131/22/14 100/23/15 99/24/13
f 184/25/16 74/26/17 75/27/18 167/28/18
f 134/29/19 152/30/20 106/31/17 105/32/19
f 145/10/7 158/33/21 123/34/21 122/11/8
f 138/35/22 154/36/23 112/37/10 111/38/22
f 132/39/24 133/40/25 103/41/25 102/42/5
f 141/43/26 156/44/27 117/45/27 116/46/28
f 146/47/29 159/48/30 125/49/31 124/50/32
f 147/51/33 148/52/34 127/53/34 126/54/35
f 148/52/34 160/55/36 128/56/37 127/53/34
f 192/57/38 96/58/37 65/59/39 161/60/40
f 190/61/21 91/62/21 92/63/32 178/64/32
f 181/65/41 66/66/42 67/67/13 162/68/13
f 137/69/43 138/35/22 111/38/22 110/70/12
f 188/71/27 85/72/27 86/73/44 174/74/44
f 131/22/14 150/75/4 101/76/4 100/23/15
f 189/77/45 88/78/46 89/79/6 176/80/47
f 133/40/25 151/81/48 104/82/49 103/41/25
f 183/83/50 72/84/49 73/85/19 166/86/51
f 143/87/52 157/88/53 120/89/46 119/90/52
f 142/91/54 143/87/52 119/90/52 118/92/44
f 191/93/31 93/94/31 94/95/35 179/96/35
f 136/97/55 153/98/11 109/99/11 108/100/56
f 135/101/18 136/97/55 108/100/56 107/102/18
f 140/103/57 141/43/26 116/46/28 115/104/57
f 187/105/58 82/106/3 83/107/57 172/108/57
f 129/109/39 149/110/59 98/111/42 97/112/39
f 2/113/60 4/114/60 66/115/60 65/116/60
f 4/114/60 6/117/60 67/118/60 66/115/60
f 6/117/60 8/119/60 68/120/60 67/118/60
f 8/119/60 10/121/60 69/122/60 68/120/60
f 10/121/60 12/123/60 70/124/60 69/122/60
f 12/123/60 14/125/60 71/126/60 70/124/60
f 14/125/60 16/127/60 72/128/60 71/126/60
f 16/127/60 18/129/60 73/130/60 72/128/60
f 18/129/60 20/131/60 74/26/60 73/130/60
s 0
f 20/131/60 22/132/60 75/27/60 74/26/60
f 22/132/60 24/133/60 76/134/60 75/27/60
f 24/133/60 26/135/60 77/18/60 76/134/60
s 1
f 26/135/60 28/136/60 78/19/60 77/18/60
f 28/136/60 30/137/60 79/138/60 78/19/60
f 30/137/60 32/139/60 80/14/60 79/138/60
f 32/139/60 34/140/60 81/15/60 80/14/60
f 34/140/60 36/141/60 82/106/60 81/15/60
f 36/141/60 38/142/60 83/107/60 82/106/60
f 38/142/60 40/143/60 84/144/60 83/107/60
f 40/143/60 42/145/60 85/146/60 84/144/60
f 42/145/60 44/147/60 86/148/60 85/146/60
f 44/147/60 46/149/60 87/150/60 86/148/60
f 46/149/60 48/151/60 88/152/60 87/150/60
f 48/151/60 50/153/60 89/154/60 88/152/60
f 50/153/60 52/155/60 90/156/60 89/154/60
f 52/155/60 54/157/60 91/158/60 90/156/60
f 54/157/60 56/159/60 92/160/60 91/158/60
f 56/159/60 58/161/60 93/162/60 92/160/60
f 58/161/60 60/163/60 94/164/60 93/162/60
f 60/163/60 62/165/60 95/166/60 94/164/60
f 64/167/60 2/113/60 65/116/60 96/168/60
f 62/165/60 64/167/60 96/168/60 95/166/60
f 3/169/61 1/170/61 97/171/61 98/172/61
f 5/173/61 3/169/61 98/172/61 99/174/61
f 7/175/61 5/173/61 99/174/61 100/176/61
f 9/177/61 7/175/61 100/176/61 101/178/61
f 11/179/61 9/177/61 101/178/61 102/180/61
f 13/181/61 11/179/61 102/180/61 103/182/61
f 15/183/61 13/181/61 103/182/61 104/184/61
f 17/185/61 15/183/61 104/184/61 105/186/61
f 19/187/61 17/185/61 105/186/61 106/188/61
f 21/189/61 19/187/61 106/188/61 107/190/61
f 23/191/61 21/189/61 107/190/61 108/192/61
f 25/193/61 23/191/61 108/192/61 109/194/61
f 27/195/61 25/193/61 109/194/61 110/196/61
f 29/197/61 27/195/61 110/196/61 111/198/61
f 31/199/61 29/197/61 111/198/61 112/200/61
f 33/201/61 31/199/61 112/200/61 113/202/61
f 35/203/61 33/201/61 113/202/61 114/204/61
f 37/205/61 35/203/61 114/204/61 115/206/61
f 39/207/61 37/205/61 115/206/61 116/208/61
f 41/209/61 39/207/61 116/208/61 117/210/61
f 43/211/61 41/209/61 117/210/61 118/212/61
f 45/213/61 43/211/61 118/212/61 119/214/61
f 47/215/61 45/213/61 119/214/61 120/216/61
f 49/217/61 47/215/61 120/216/61 121/218/61
f 51/219/61 49/217/61 121/218/61 122/220/61
f 53/221/61 51/219/61 122/220/61 123/222/61
f 55/223/61 53/221/61 123/222/61 124/224/61
f 57/225/61 55/223/61 124/224/61 125/226/61
f 59/227/61 57/225/61 125/226/61 126/228/61
f 61/229/61 59/227/61 126/228/61 127/230/61
f 63/231/61 61/229/61 127/230/61 128/232/61
f 1/170/61 63/231/61 128/232/61 97/171/61
f 114/3/3 155/2/2 140/233/57 115/234/57
f 125/49/31 159/48/30 147/51/33 126/54/35
f 104/82/49 151/81/48 134/29/19 105/32/19
f 120/89/46 157/88/53 144/9/6 121/12/6
f 117/45/27 156/44/27 142/91/54 118/92/44
f 98/235/42 149/236/59 130/21/13 99/24/13
f 123/237/21 158/238/21 146/47/29 124/50/32
f 128/56/37 160/55/36 129/109/39 97/112/39
f 106/239/17 152/240/20 135/101/18 107/102/18
f 109/99/11 153/98/11 137/69/43 110/70/12
f 112/37/10 154/36/23 139/1/1 113/4/1
f 101/76/4 150/75/4 132/39/24 102/42/5
f 81/15/1 82/106/3 187/105/58 171/16/1
f 89/79/6 90/241/8 177/242/62 176/80/47
f 67/67/13 68/243/15 163/244/15 162/68/13
f 73/85/19 74/245/17 184/246/16 166/86/51
f 90/241/8 91/247/21 190/248/21 177/242/62
f 79/138/22 80/14/10 186/13/9 170/249/22
f 70/7/5 71/250/25 165/251/25 164/8/5
f 84/252/28 85/72/27 188/71/27 173/253/28
f 92/63/32 93/94/31 191/93/31 178/64/32
f 94/95/35 95/254/34 180/255/34 179/96/35
f 95/254/34 96/58/37 192/57/38 180/255/34
f 78/19/12 79/138/22 170/249/22 169/20/12
f 68/243/15 69/6/4 182/5/4 163/244/15
f 71/250/25 72/84/49 183/83/50 165/251/25
f 87/256/52 88/78/46 189/77/45 175/257/52
f 86/73/44 87/256/52 175/257/52 174/74/44
f 76/134/56 77/18/11 185/17/11 168/258/56
f 75/27/18 76/134/56 168/258/56 167/28/18
f 83/259/57 84/252/28 173/253/28 172/260/57
f 65/59/39 66/261/42 181/262/41 161/60/40
f 22/263/63 20/263/63 193/263/63 194/263/63
s 0
f 18/129/60 201/264/60 193/131/60
s 1
f 18/129/60 16/127/60 202/265/60
f 201/264/60 18/129/60 202/265/60
f 4/114/60 2/113/60 198/266/60
f 64/167/60 197/267/60 2/113/60
f 197/267/60 198/266/60 2/113/60
f 34/140/60 32/139/60 200/268/60
f 36/141/60 34/140/60 199/269/60
f 199/269/60 34/140/60 200/268/60
f 52/155/60 50/153/60 196/270/60
f 50/153/60 48/151/60 195/271/60
f 195/271/60 196/270/60 50/153/60
f 204/272/64 186/13/9 171/16/1 205/273/65
f 203/274/66 205/273/65 171/16/1 187/105/58
f 206/275/67 207/276/68 176/80/47 177/242/62
f 189/77/45 176/80/47 207/276/68 208/277/69
f 209/278/70 210/279/71 161/60/40 181/262/41
f 192/57/38 161/60/40 210/279/71 211/280/72
f 214/281/73 166/86/51 184/246/16 212/282/74
f 213/283/75 183/83/50 166/86/51 214/281/73
f 215/284/76 155/2/2 139/1/1 216/285/77
f 154/36/23 217/286/78 216/285/77 139/1/1
f 219/287/79 218/288/80 137/69/43 153/98/11
f 220/289/81 219/287/79 153/98/11 136/97/55
f 151/81/48 223/290/82 222/291/19 134/29/19
f 221/292/74 152/30/20 134/29/19 222/291/19
f 226/293/83 225/294/4 150/75/4 131/22/14
f 225/294/4 224/295/84 132/39/24 150/75/4
f 160/55/36 229/296/85 228/297/86 129/109/39
f 227/298/70 149/110/59 129/109/39 228/297/86
f 157/88/53 232/299/87 231/300/6 144/9/6
f 230/301/67 145/10/7 144/9/6 231/300/6
f 235/302/88 234/303/89 156/44/27 141/43/26
f 234/303/89 233/304/90 142/91/54 156/44/27
f 238/305/91 237/306/92 159/48/30 146/47/29
f 237/306/92 236/307/93 147/51/33 159/48/30
f 19/187/61 239/308/61 17/185/61
f 17/185/61 240/309/61 15/183/61
f 239/308/61 240/309/61 17/185/61
f 49/217/61 241/310/61 47/215/61
f 51/219/61 242/311/61 49/217/61
f 241/310/61 49/217/61 242/311/61
f 33/201/61 243/312/61 31/199/61
f 35/203/61 244/313/61 33/201/61
f 243/312/61 33/201/61 244/313/61
f 63/231/61 1/170/61 245/314/61
f 3/169/61 246/315/61 1/170/61
f 245/314/61 1/170/61 246/315/61
f 11/179/61 248/316/61 9/177/61
f 9/177/61 247/317/61 7/175/61
f 247/317/61 9/177/61 248/316/61
f 57/225/61 249/318/61 55/223/61
f 59/227/61 250/319/61 57/225/61
f 249/318/61 57/225/61 250/319/61
f 41/209/61 251/320/61 39/207/61
f 43/211/61 252/321/61 41/209/61
f 251/320/61 41/209/61 252/321/61
f 25/193/61 253/322/61 23/191/61
f 27/195/61 254/323/61 25/193/61
f 253/322/61 25/193/61 254/323/61
o Cone
v 0.155883 -0.500000 -0.783679
v 0.047045 0.500000 -0.236513
v 0.305776 -0.500000 -0.738210
v 0.092284 0.500000 -0.222791
v 0.443918 -0.500000 -0.664371
v 0.133974 0.500000 -0.200507
v 0.170516 0.500000 -0.170517
v 0.664371 -0.500000 -0.443918
v 0.200507 0.500000 -0.133974
v 0.738210 -0.500000 -0.305776
v 0.222791 0.500000 -0.092283
v 0.783679 -0.500000 -0.155883
v 0.236514 0.500000 -0.047045
v 0.783679 -0.500000 0.155883
v 0.738210 -0.500000 0.305776
v 0.222791 0.500000 0.092283
v 0.664371 -0.500000 0.443918
v 0.200507 0.500000 0.133974
v 0.170516 0.500000 0.170516
v 0.443918 -0.500000 0.664371
v 0.133974 0.500000 0.200507
v 0.305776 -0.500000 0.738210
v 0.092284 0.500000 0.222791
v 0.155883 -0.500000 0.783679
v 0.047045 0.500000 0.236513
v -0.155883 -0.500000 0.783679
v -0.047045 0.500000 0.236513
v -0.305776 -0.500000 0.738210
v -0.092284 0.500000 0.222791
v -0.443918 -0.500000 0.664371
v -0.133974 0.500000 0.200507
v -0.170516 0.500000 0.170516
v -0.664371 -0.500000 0.443918
v -0.200506 0.500000 0.133974
v -0.738210 -0.500000 0.305776
v -0.222790 0.500000 0.092284
v -0.783679 -0.500000 0.155883
v -0.236513 0.500000 0.047045
v -0.783679 -0.500000 -0.155883
v -0.236513 0.500000 -0.047045
v -0.738210 -0.500000 -0.305776
v -0.222790 0.500000 -0.092284
v -0.664371 -0.500000 -0.443918
v -0.200506 0.500000 -0.133974
v -0.170516 0.500000 -0.170517
v -0.443918 -0.500000 -0.664371
v -0.133974 0.500000 -0.200507
v -0.305776 -0.500000 -0.738210
v -0.092284 0.500000 -0.222791
v -0.155883 -0.500000 -0.783679
v -0.047045 0.500000 -0.236513
v 0.318635 -0.200000 -0.769254
v 0.462587 -0.200000 -0.692311
v 0.692311 -0.200000 -0.462587
v 0.769254 -0.200000 -0.318635
v 0.769254 -0.200000 0.318635
v 0.692311 -0.200000 0.462587
v 0.462587 -0.200000 0.692311
v 0.318635 -0.200000 0.769254
v -0.318635 -0.200000 0.769254
v -0.462587 -0.200000 0.692311
v -0.692311 -0.200000 0.462587
v -0.769254 -0.200000 0.318635
v -0.816635 -0.200000 -0.162439
v -0.692311 -0.200000 -0.462587
v -0.462587 -0.200000 -0.692311
v -0.318635 -0.200000 -0.769254
v 0.162439 -0.200000 -0.816635
v 0.816635 -0.200000 -0.162439
v 0.816635 -0.200000 0.162439
v 0.162439 -0.200000 0.816635
v -0.162439 -0.200000 0.816635
v -0.816635 -0.200000 0.162439
v -0.769254 -0.200000 -0.318635
v -0.162439 -0.200000 -0.816635
v 0.214024 0.290000 -0.516699
v 0.310714 0.290000 -0.465017
v 0.465017 0.290000 -0.310714
v 0.516699 0.290000 -0.214024
v 0.516699 0.290000 0.214024
v 0.465017 0.290000 0.310714
v 0.310714 0.290000 0.465017
v 0.214024 0.290000 0.516699
v -0.214024 0.290000 0.516699
v -0.310714 0.290000 0.465017
v -0.465017 0.290000 0.310714
v -0.516698 0.290000 0.214024
v -0.548524 0.290000 -0.109108
v -0.465017 0.290000 -0.310714
v -0.310714 0.290000 -0.465017
v -0.214024 0.290000 -0.516699
v 0.109108 0.290000 -0.548524
v 0.395464 0.290000 -0.395464
v 0.548525 0.290000 -0.109108
v 0.548525 0.290000 0.109108
v 0.395464 0.290000 0.395464
v 0.109108 0.290000 0.548524
v -0.109108 0.290000 0.548524
v -0.395464 0.290000 0.395464
v -0.548524 0.290000 0.109108
v -0.516698 0.290000 -0.214024
v -0.395464 0.290000 -0.395464
v -0.109108 0.290000 -0.548524
v 0.236514 0.500000 0.047045
v 0.222791 0.500000 0.092283
v -0.136116 0.500000 0.047045
v -0.136177 0.500000 -0.047045
v -0.047045 0.500000 -0.136218
v 0.047045 0.500000 -0.136088
v -0.047045 0.500000 0.136065
v 0.047045 0.500000 0.136256
v 0.136229 0.500000 0.047045
v 0.136410 0.500000 -0.047045
v -0.128074 0.115744 0.643871
v 0.128156 0.114990 0.644283
v -0.000871 0.115005 0.656883
v -0.644097 0.115330 -0.128119
v -0.656665 0.115421 -0.000000
v -0.638930 0.112234 0.127091
v 0.128127 0.115252 -0.644140
v 0.000000 0.115777 -0.656467
v -0.127031 0.112826 -0.638629
v 0.644214 0.115119 0.128142
v 0.638759 0.112573 -0.127057
v 0.656872 0.115052 -0.000000
v -0.143390 -0.024977 0.720868
v 0.000000 -0.025391 0.735223
v 0.143477 -0.025775 0.721305
v 0.408354 -0.025023 0.611146
v 0.519704 -0.024940 0.519704
v 0.611397 -0.025566 0.408522
v 0.721070 -0.025346 0.143430
v 0.735404 -0.025715 0.000000
v 0.721050 -0.025309 -0.143426
v 0.611097 -0.024919 -0.408322
v 0.519781 -0.025136 -0.519781
v 0.408398 -0.025166 -0.611212
v 0.143460 -0.025624 -0.721222
v 0.000000 -0.025362 -0.735207
v -0.143384 -0.024928 -0.720841
v -0.721118 -0.025433 -0.143440
v -0.735093 -0.025160 0.000000
v -0.721152 -0.025495 0.143446
v -0.611176 -0.025090 0.408375
v -0.519898 -0.025433 0.519898
v -0.408487 -0.025453 0.611345
v -0.408475 -0.025412 -0.611326
v -0.519875 -0.025374 -0.519875
v -0.630950 -0.014454 -0.421587
v 0.584018 -0.500000 0.155883
v 0.584171 -0.500000 -0.155883
v -0.583935 -0.500000 0.155883
v -0.584151 -0.500000 -0.155883
v 0.155883 -0.500000 0.583951
v -0.155883 -0.500000 0.583843
v -0.155883 -0.500000 -0.583536
v 0.155883 -0.500000 -0.583901
v 0.302500 -0.500000 -0.522953
v 0.523076 -0.500000 -0.302623
v -0.522906 -0.500000 -0.302453
v -0.302665 -0.500000 -0.523118
v -0.302746 -0.500000 0.523199
v -0.522597 -0.500000 0.302144
v 0.523130 -0.500000 0.302678
v 0.302254 -0.500000 0.522707
vn -0.0000 -1.0000 -0.0000
vn -0.0000 1.0000 -0.0000
vn -0.0000 0.8824 0.4706
vn 0.3342 0.4872 -0.8068
vn 0.4121 0.4854 -0.7711
vn 0.7711 0.4854 -0.4121
vn 0.8077 0.4887 -0.3298
vn 0.8068 0.4872 0.3342
vn 0.7711 0.4854 0.4121
vn 0.4121 0.4854 0.7711
vn 0.3342 0.4872 0.8068
vn -0.3342 0.4872 0.8068
vn -0.4121 0.4854 0.7711
vn -0.7711 0.4854 0.4121
vn -0.8077 0.4888 0.3298
vn -0.8366 0.4854 -0.2538
vn -0.8200 0.3680 -0.4383
vn -0.4121 0.4854 -0.7711
vn -0.3298 0.4887 -0.8077
vn 0.2538 0.4854 -0.8366
vn 0.8366 0.4854 -0.2538
vn 0.8366 0.4854 0.2538
vn 0.2538 0.4854 0.8366
vn -0.2538 0.4854 0.8366
vn -0.8366 0.4854 0.2538
vn -0.8301 0.4572 -0.3193
vn -0.2538 0.4854 -0.8366
vn 0.4852 0.4872 -0.7261
vn 0.7261 0.4872 -0.4852
vn 0.8121 0.4801 -0.3316
vn 0.7261 0.4872 0.4852
vn 0.4852 0.4872 0.7261
vn -0.4852 0.4872 0.7261
vn -0.7261 0.4872 0.4852
vn -0.8121 0.4801 0.3316
vn -0.7153 0.5199 -0.4670
vn -0.4852 0.4872 -0.7261
vn -0.3316 0.4801 -0.8121
vn 0.6175 0.4872 -0.6175
vn 0.8504 0.4586 -0.2580
vn 0.6175 0.4872 0.6175
vn -0.6175 0.4872 0.6175
vn -0.8504 0.4586 0.2580
vn -0.8230 0.4964 -0.2762
vn -0.5754 0.4998 -0.6474
vn -0.2580 0.4586 -0.8504
vn -0.0000 -0.0000 1.0000
vn -0.1975 0.4869 0.8508
vn 0.1972 0.4871 0.8508
vn -0.0008 0.4872 0.8733
vn -0.8508 0.4870 -0.1973
vn -0.8683 0.4959 0.0107
vn -0.8486 0.4929 0.1921
vn 0.1972 0.4870 -0.8508
vn -0.0108 0.4959 -0.8683
vn -0.1921 0.4929 -0.8486
vn 0.8508 0.4870 0.1973
vn 0.8486 0.4929 -0.1922
vn 0.8683 0.4959 -0.0107
vn -0.1995 0.4869 0.8503
vn 0.0002 0.4872 0.8733
vn 0.1995 0.4871 0.8503
vn 0.4601 0.4870 0.7424
vn 0.6176 0.4872 0.6174
vn 0.7424 0.4870 0.4600
vn 0.8503 0.4870 0.1995
vn 0.8683 0.4959 -0.0106
vn 0.8467 0.4952 -0.1944
vn 0.7423 0.4870 -0.4602
vn 0.4601 0.4870 -0.7424
vn 0.1996 0.4870 -0.8503
vn -0.0105 0.4959 -0.8683
vn -0.1944 0.4952 -0.8468
vn -0.8503 0.4870 -0.1996
vn -0.8467 0.4952 0.1945
vn -0.7423 0.4870 0.4602
vn -0.6175 0.4872 0.6176
vn -0.4602 0.4870 0.7424
vn -0.4601 0.4870 -0.7424
vn -0.5755 0.4999 -0.6473
vn -0.7537 0.4962 -0.4309
vt 0.287718 0.531581
vt 0.302927 0.526968
vt 0.703331 0.082228
vt 0.663251 0.066678
vt 0.670435 0.041280
vt 0.715568 0.058902
vt 0.740041 0.105726
vt 0.756404 0.085004
vt 0.776656 0.059357
vt 0.816185 0.097423
vt 0.719698 0.131489
vt 0.746249 0.157058
vt 0.847528 0.142471
vt 0.818880 0.158484
vt 0.767302 0.187315
vt 0.782047 0.221099
vt 0.838244 0.202889
vt 0.789918 0.257110
vt 0.848704 0.250200
vt 0.881199 0.246380
vt 0.882232 0.301249
vt 0.790613 0.293965
vt 0.872542 0.355265
vt 0.841019 0.346348
vt 0.784104 0.330247
vt 0.815668 0.339176
vt 0.799868 0.379483
vt 0.823384 0.391489
vt 0.775020 0.414761
vt 0.797160 0.432243
vt 0.822876 0.452549
vt 0.784809 0.492078
vt 0.739762 0.523421
vt 0.723738 0.494756
vt 0.750744 0.395591
vt 0.725175 0.422143
vt 0.694917 0.443195
vt 0.661133 0.457940
vt 0.679355 0.514172
vt 0.625122 0.465812
vt 0.632024 0.524523
vt 0.635852 0.557092
vt 0.580983 0.558126
vt 0.588268 0.466506
vt 0.526968 0.548435
vt 0.535871 0.516963
vt 0.551985 0.459997
vt 0.543063 0.491536
vt 0.201787 0.955273
vt 0.223569 0.970158
vt 0.181687 1.000000
vt 0.157194 0.983399
vt 0.180708 0.931553
vt 0.134194 0.958249
vt 0.075806 0.989806
vt 0.052216 0.952850
vt 0.239226 0.901483
vt 0.223380 0.876660
vt 0.032155 0.908750
vt 0.095487 0.886762
vt 0.209905 0.847039
vt 0.199318 0.813758
vt 0.081583 0.843007
vt 0.192025 0.778097
vt 0.071210 0.796899
vt -0.000000 0.751515
vt 0.005535 0.806111
vt 0.188307 0.741426
vt 0.000000 0.697514
vt 0.067086 0.700235
vt 0.121182 0.702430
vt 0.188307 0.705154
vt 0.125582 0.661948
vt 0.072078 0.654921
vt 0.134027 0.626274
vt 0.081538 0.613673
vt 0.199318 0.639314
vt 0.209905 0.612276
vt 0.016392 0.599491
vt 0.032155 0.559238
vt 0.052216 0.526968
vt 0.113315 0.549682
vt 0.223380 0.590600
vt 0.239226 0.575120
vt 0.134026 0.529286
vt 0.581217 0.092314
vt 0.545206 0.100185
vt 0.526967 0.043901
vt 0.574309 0.033549
vt 0.570487 0.001034
vt 0.625356 -0.000000
vt 0.679372 0.009690
vt 0.654354 0.098129
vt 0.618072 0.091619
vt 0.087608 0.365240
vt 0.040113 0.412736
vt 0.015287 0.366290
vt 0.015287 0.160677
vt 0.087544 0.161663
vt 0.067183 0.211073
vt -0.000000 0.211073
vt 0.511680 0.160677
vt 0.459843 0.211073
vt 0.439346 0.161741
vt 0.486855 0.114232
vt 0.376075 0.549157
vt 0.386158 0.561443
vt 0.364499 0.590670
vt 0.364543 0.622304
vt 0.393650 0.637514
vt 0.386158 0.651531
vt 0.040113 0.114232
vt 0.067241 0.315894
vt 0.161814 0.439273
vt 0.315894 0.067358
vt 0.511680 0.366290
vt 0.439368 0.365249
vt 0.459557 0.315894
vt 0.526968 0.315894
vt -0.000000 0.315894
vt 0.161699 0.087580
vt 0.114232 0.040113
vt 0.160677 0.015287
vt 0.211073 0.526968
vt 0.160677 0.511680
vt 0.211073 0.459805
vt 0.261415 0.549157
vt 0.302927 0.560685
vt 0.272933 0.590670
vt 0.251331 0.561443
vt 0.393650 0.575460
vt 0.398264 0.590670
vt 0.398264 0.622304
vt 0.315894 0.459704
vt 0.211073 0.067157
vt 0.365300 0.439419
vt 0.366290 0.511680
vt 0.315894 0.526968
vt 0.366290 0.015287
vt 0.412736 0.040113
vt 0.365252 0.087596
vt 0.211073 0.000000
vt 0.526968 0.211073
vt 0.376075 0.663817
vt 0.363789 0.673900
vt 0.334562 0.652272
vt 0.114232 0.486855
vt 0.412735 0.486855
vt 0.315894 0.000000
vt 0.486854 0.412736
vt 0.334562 0.560624
vt 0.334562 0.526968
vt 0.349771 0.531581
vt 0.363789 0.539074
vt 0.302927 0.652251
vt 0.349772 0.681392
vt 0.334562 0.686006
vt 0.272998 0.622304
vt 0.261415 0.663817
vt 0.251331 0.651531
vt 0.273701 0.539074
vt 0.239226 0.590670
vt 0.243839 0.575460
vt 0.302927 0.686006
vt 0.287717 0.681392
vt 0.273701 0.673900
vt 0.243839 0.637514
vt 0.239226 0.622304
s 1
usemtl Material
f 270/324/96 359/324/140 358/325/95
f 370/326/143 368/327/141 380/328/153 381/329/154
f 369/330/142 370/326/143 381/329/154 382/331/155
f 325/332/116 313/333/104 382/331/155
f 351/334/116 369/330/142 337/335/104
f 313/333/104 312/336/103 383/337/156
f 369/330/142 382/331/155 313/333/104 337/335/104
f 336/338/125 337/335/104 313/333/104 383/337/156
f 350/339/134 336/338/125 383/337/156 384/340/157
f 335/341/124 350/339/134 384/340/157 385/342/158
f 311/343/102 310/344/101 385/342/158
f 335/341/124 385/342/158 310/344/101 334/345/101
f 324/346/115 386/347/159 310/344/101
f 349/348/115 334/345/101 377/349/150
f 379/350/152 377/349/150 386/347/159 387/351/160
f 378/352/151 379/350/152 387/351/160 388/353/161
f 323/354/114 309/355/100 388/353/161
f 310/344/101 386/347/159 377/349/150 334/345/101
f 309/355/100 308/356/99 389/357/162
f 348/358/133 378/352/151 333/359/123
f 378/352/151 388/353/161 309/355/100 333/359/123
f 332/360/122 333/359/123 309/355/100 389/357/162
f 347/361/132 332/360/122 389/357/162 390/362/132
f 331/363/121 347/361/132 390/362/132 391/364/163
f 307/365/98 306/366/97 391/364/163
f 331/363/121 391/364/163 306/366/97 330/367/97
f 322/368/113 392/369/164 306/366/97
f 346/370/113 330/367/97 374/371/147
f 330/367/97 306/366/97 392/369/164 374/371/147
f 375/372/148 374/373/147 392/374/164 393/375/165
f 376/376/149 375/372/148 393/375/165 394/377/166
f 329/378/120 321/379/112 394/377/166
f 357/380/139 376/376/149 345/381/131
f 376/376/149 394/377/166 321/379/112 345/381/131
f 321/379/112 320/382/111 401/383/172
f 344/384/130 345/381/131 321/379/112 401/383/172
f 356/385/138 344/384/130 401/383/172 402/386/173
f 343/387/129 356/385/138 402/386/173 403/388/174
f 328/389/119 403/388/174 319/390/110
f 343/387/129 403/388/174 328/389/119 355/391/137
f 328/389/119 318/392/109 395/393/167
f 355/391/137 371/394/144 342/395/109
f 355/391/137 328/389/119 395/393/167 371/394/144
f 372/396/145 371/394/144 395/393/167 396/397/145
f 373/398/146 372/396/145 396/397/145 397/399/168
f 354/400/136 373/398/146 341/401/128
f 327/402/118 317/403/108 397/399/168
f 397/399/168 317/403/108 341/401/128 373/398/146
f 317/403/108 316/404/107 398/405/169
f 340/406/127 341/401/128 317/403/108 398/405/169
f 353/407/135 340/406/127 398/405/169 399/408/170
f 339/409/126 353/410/135 399/411/170 400/412/171
f 315/413/106 314/414/105 400/412/171
f 326/415/117 380/328/153 314/414/105
f 352/416/117 338/417/105 368/327/141
f 368/327/141 338/417/105 314/414/105 380/328/153
f 339/409/126 400/412/171 314/414/105 338/417/105
f 411/418/94 255/419/94 257/420/94
f 264/421/94 405/422/94 413/423/94 262/424/94
f 282/425/94 416/426/94 409/427/94 280/428/94
f 261/429/95 260/430/95 363/431/95
f 362/432/95 303/433/95 301/434/95
f 264/421/94 266/435/94 405/422/94
f 411/418/94 412/436/94 410/437/94
f 412/436/94 413/423/94 419/438/94
f 289/439/94 406/440/94 417/441/94 287/442/94
f 411/418/94 257/420/94 259/443/94 412/436/94
f 404/444/94 268/445/94 269/446/94
f 413/423/94 405/422/94 404/444/94
f 300/447/94 302/448/94 415/449/94
f 273/450/95 366/451/95 365/452/95 275/453/95
f 413/423/94 404/444/94 419/438/94
f 258/454/95 256/455/95 363/431/95
f 362/432/95 305/456/95 303/433/95
f 415/449/94 410/437/94 414/457/94
f 404/444/94 418/458/94 419/438/94
f 414/457/94 407/459/94 295/460/94 297/461/94
f 276/462/94 278/463/94 408/464/94
f 269/446/94 271/465/94 418/458/94 404/444/94
f 260/430/95 258/454/95 363/431/95
f 282/425/94 284/466/94 416/426/94
f 419/438/94 408/464/94 409/427/94
f 299/467/95 298/468/95 361/469/95
f 414/457/94 410/437/94 417/441/94
f 410/437/94 415/449/94 302/448/94 304/470/94
f 419/438/94 409/427/94 417/441/94
f 293/471/94 295/460/94 407/459/94
f 409/427/94 416/426/94 417/441/94
f 276/462/94 408/464/94 419/438/94 274/472/94
f 406/440/94 407/459/94 417/441/94
f 407/459/94 414/457/94 417/441/94
f 289/439/94 291/473/94 406/440/94
f 419/438/94 417/441/94 410/437/94 412/436/94
f 363/431/95 362/432/95 361/469/95
f 367/474/95 363/431/95 366/451/95
f 267/475/95 265/476/95 367/474/95
f 265/476/95 263/477/95 367/474/95
f 363/431/95 361/469/95 360/478/95
f 298/468/95 296/479/95 361/469/95
f 296/479/95 294/480/95 361/469/95
f 364/481/95 360/478/95 286/482/95 285/483/95
f 261/429/95 363/431/95 367/474/95 263/477/95
f 273/450/95 272/484/95 366/451/95
f 279/485/95 277/486/95 365/452/95
f 277/486/95 275/453/95 365/452/95
f 360/478/95 292/487/95 290/488/95
f 290/488/95 288/489/95 360/478/95
f 288/489/95 286/482/95 360/478/95
f 299/467/95 361/469/95 362/432/95 301/434/95
f 285/483/95 283/490/95 364/481/95
f 283/490/95 281/491/95 364/481/95
f 364/481/95 365/452/95 366/451/95
f 358/325/95 366/451/95 270/324/96
f 366/451/95 272/484/95 270/324/96
f 363/431/95 360/478/95 364/481/95 366/451/95
