mtllib dispel_gummi_pie.mtl
o Pie2
v 0.800000 -0.800000 -1.000000
v 0.800000 0.800000 -1.000000
v 0.800000 -1.000000 0.779874
v 1.000000 0.800000 0.800000
v 0.638790 -1.000000 0.764393
v 0.638790 1.000000 0.764393
v 0.301540 -1.000000 0.662089
v 0.301540 1.000000 0.662089
v -0.009904 -1.000000 0.495618
v -0.009904 1.000000 0.495618
v -0.277827 -1.000000 0.277827
v -0.277827 1.000000 0.277827
v -0.495618 -1.000000 0.009904
v -0.495618 1.000000 0.009904
v -0.662089 -1.000000 -0.301540
v -0.662089 1.000000 -0.301540
v -0.764393 -1.000000 -0.638790
v -0.764393 1.000000 -0.638790
v -0.779874 -1.000000 -0.800000
v -0.800000 0.800000 -1.000000
v 1.000000 -0.800000 0.800000
v 0.599819 -0.800000 0.961571
v 0.224633 -0.800000 0.847759
v -0.121140 -0.800000 0.662939
v -0.420000 -1.000000 0.420000
v -0.662939 -1.000000 0.121140
v -0.847759 -1.000000 -0.224633
v -0.961571 -0.800000 -0.599819
v -0.800000 -0.800000 -1.000000
v 0.800000 -1.000000 -0.800000
v -0.980882 -0.800000 -0.800916
v -0.779874 1.000000 -0.800000
v 1.000000 -0.800000 -0.800000
v 1.000000 0.800000 -0.800000
v 0.800916 -0.800000 0.980882
v 0.800000 1.000000 0.779874
v 1.000000 -1.000000 -1.000000
v 1.000000 1.000000 -1.000000
v -0.961571 0.800000 -0.599819
v -0.980882 0.800000 -0.800916
v -0.662939 0.800000 0.121140
v -0.847759 0.800000 -0.224633
v -0.121140 0.800000 0.662939
v 0.599819 1.000000 0.961571
v 0.224633 1.000000 0.847759
v 0.800916 0.800000 0.980882
v 0.800000 1.000000 -0.800000
v -0.961571 1.000000 -0.599819
v -1.000000 1.000000 -1.000000
v -1.000000 -1.000000 -1.000000
v -0.662939 1.000000 0.121140
v -0.847759 1.000000 -0.224633
v -0.420000 1.000000 0.420000
v -0.121140 1.000000 0.662939
v 1.000000 -1.000000 1.000000
v 1.000000 1.000000 1.000000
v 0.599819 -1.000000 0.961571
v 0.224633 -1.000000 0.847759
v -0.121140 -1.000000 0.662939
v -0.420000 -0.800000 0.420000
v -0.662939 -0.800000 0.121140
v -0.847759 -0.800000 -0.224633
v -0.961571 -1.000000 -0.599819
v 0.599819 0.800000 0.961571
v 0.224633 0.800000 0.847759
v -0.578853 1.000000 -0.145818
v -0.386723 1.000000 0.143865
v 0.145818 1.000000 0.578853
v -0.143865 1.000000 0.386722
v -0.412219 1.000000 -0.256598
v -0.219855 1.000000 0.032931
v -0.033069 1.000000 0.220063
v 0.256660 1.000000 0.412126
v 0.800000 1.000000 0.578853
v -0.578853 1.000000 -0.800000
v 0.499719 1.000000 -0.800000
v 0.100212 1.000000 -0.800000
v -0.500142 1.000000 -0.800000
v -0.099788 1.000000 -0.800000
v -0.099788 1.000000 -0.600367
v -0.500142 1.000000 -0.599802
v 0.100212 1.000000 -0.600053
v 0.499719 1.000000 -0.599719
v 0.600278 1.000000 -0.499719
v 0.600278 1.000000 -0.100212
v 0.600278 1.000000 0.500142
v 0.600278 1.000000 0.099788
v 0.799911 1.000000 0.099788
v 0.800476 1.000000 0.500142
v 0.800225 1.000000 -0.100212
v 0.800559 1.000000 -0.499719
v 0.638789 -1.000000 0.764393
v 0.301539 -1.000000 0.662089
v -0.009905 -1.000000 0.495618
v -0.495619 -1.000000 0.009904
v -0.662090 -1.000000 -0.301540
v -0.764394 -1.000000 -0.638790
v -0.779875 -1.000000 -0.800000
v 0.799999 -1.000000 0.779874
v -0.578854 -1.000000 -0.145818
v -0.386723 -1.000000 0.143866
v 0.145817 -1.000000 0.578853
v -0.143866 -1.000000 0.386723
v -0.412219 -1.000000 -0.256598
v -0.219856 -1.000000 0.032931
v -0.033070 -1.000000 0.220063
v 0.256659 -1.000000 0.412126
v 0.799999 -1.000000 0.578853
v -0.578854 -1.000000 -0.800000
v 0.499719 -1.000000 -0.800000
v 0.100212 -1.000000 -0.800000
v -0.500142 -1.000000 -0.800000
v -0.099788 -1.000000 -0.800000
v -0.099788 -1.000000 -0.600367
v -0.500142 -1.000000 -0.599802
v 0.100212 -1.000000 -0.600053
v 0.499719 -1.000000 -0.599719
v 0.600277 -1.000000 -0.499719
v 0.600278 -1.000000 -0.100212
v 0.600278 -1.000000 0.500142
v 0.600278 -1.000000 0.099788
v 0.799910 -1.000000 0.099788
v 0.800475 -1.000000 0.500142
v 0.800225 -1.000000 -0.100212
v 0.800558 -1.000000 -0.499719
v 1.000000 0.800000 -0.499719
v 1.000000 0.800000 -0.100212
v 1.000000 0.800000 0.500142
v 1.000000 0.800000 0.099788
v 1.000000 0.600367 0.099788
v 1.000000 0.599802 0.500142
v 1.000000 0.600053 -0.100212
v 1.000000 0.599719 -0.499719
v 1.000000 0.499719 0.800000
v 1.000000 0.100212 0.800000
v 1.000000 -0.500142 0.800000
v 1.000000 -0.099788 0.800000
v 1.000000 -0.099788 0.600367
v 1.000000 -0.500142 0.599802
v 1.000000 0.100212 0.600053
v 1.000000 0.499719 0.599719
v 1.000000 0.499719 -0.601283
v 1.000000 0.100212 -0.601283
v 1.000000 -0.500142 -0.601283
v 1.000000 -0.099788 -0.601283
v 1.000000 -0.099788 -0.800916
v 1.000000 -0.500142 -0.801481
v 1.000000 0.100212 -0.801230
v 1.000000 0.499719 -0.801564
v 1.000000 -0.600053 -0.499719
v 1.000000 -0.600053 -0.100212
v 1.000000 -0.600053 0.500142
v 1.000000 -0.600053 0.099788
v 1.000000 -0.799686 0.099788
v 1.000000 -0.800251 0.500142
v 1.000000 -0.800000 -0.100212
v 1.000000 -0.800334 -0.499719
v -0.499719 0.800000 -1.000000
v -0.100212 0.800000 -1.000000
v 0.500142 0.800000 -1.000000
v 0.099788 0.800000 -1.000000
v 0.099788 0.600367 -1.000000
v 0.500142 0.599802 -1.000000
v -0.100212 0.600053 -1.000000
v -0.499719 0.599719 -1.000000
v 0.800000 0.499719 -1.000000
v 0.800000 0.100212 -1.000000
v 0.800000 -0.500142 -1.000000
v 0.800000 -0.099788 -1.000000
v 0.600367 -0.099788 -1.000000
v 0.599802 -0.500142 -1.000000
v 0.600053 0.100212 -1.000000
v 0.599719 0.499719 -1.000000
v -0.600053 0.499719 -1.000000
v -0.600053 0.100212 -1.000000
v -0.600053 -0.500142 -1.000000
v -0.600053 -0.099788 -1.000000
v -0.799686 -0.099788 -1.000000
v -0.800251 -0.500142 -1.000000
v -0.800000 0.100212 -1.000000
v -0.800334 0.499719 -1.000000
v -0.499719 -0.600053 -1.000000
v -0.100212 -0.600053 -1.000000
v 0.500142 -0.600053 -1.000000
v 0.099788 -0.600053 -1.000000
v 0.099788 -0.799686 -1.000000
v 0.500142 -0.800251 -1.000000
v -0.100212 -0.800000 -1.000000
v -0.499719 -0.800333 -1.000000
v -0.980882 0.499719 -0.800916
v -0.980882 0.100212 -0.800916
v -0.980882 -0.500142 -0.800916
v -0.980882 -0.099788 -0.800916
v -0.961571 -0.099788 -0.601283
v -0.961571 -0.500142 -0.600718
v -0.961571 0.100212 -0.600969
v -0.961571 0.499719 -0.600635
v 0.600969 0.499719 0.961571
v 0.600969 0.100212 0.961571
v 0.600969 -0.500142 0.961571
v 0.600969 -0.099788 0.961571
v 0.800602 -0.099788 0.980882
v 0.801167 -0.500142 0.980882
v 0.800916 0.100212 0.980882
v 0.801250 0.499719 0.980882
v -0.904665 -0.800000 -0.412226
v -0.755349 -0.800000 -0.051746
v -0.541470 -0.800000 0.270570
v -0.270570 -0.800000 0.541470
v 0.051746 -0.800000 0.755349
v 0.412226 -0.800000 0.904665
v 0.412226 -0.600270 0.904665
v 0.051746 -0.599939 0.755349
v 0.224633 -0.600032 0.847759
v -0.270570 -0.600491 0.541470
v -0.541470 -0.600004 0.270570
v -0.420000 -0.599574 0.420000
v -0.755349 -0.599796 -0.051746
v -0.904665 -0.599520 -0.412226
v -0.847759 -0.599884 -0.224633
v 0.224633 0.599574 0.847759
v -0.420000 0.599574 0.420000
v -0.847759 0.599574 -0.224633
v -0.904665 0.599574 -0.412226
v -0.755349 0.599574 -0.051747
v -0.541470 0.599574 0.270570
v -0.270570 0.599574 0.541469
v 0.051746 0.599574 0.755349
v 0.412226 0.599574 0.904665
v 0.412226 0.799305 0.904665
v 0.051746 0.799635 0.755349
v 0.224633 0.799542 0.847759
v -0.270570 0.799083 0.541469
v -0.541470 0.799570 0.270570
v -0.420000 0.800000 0.420000
v -0.755349 0.799778 -0.051747
v -0.904665 0.800054 -0.412226
v -0.847759 0.799690 -0.224633
v 1.000000 -1.000000 0.500142
v 1.000000 1.000000 -0.499719
v 0.499719 1.000000 -1.000000
v -0.500142 1.000000 -1.000000
v 1.000000 1.000000 0.500142
v -1.000000 0.499719 -1.000000
v -1.000000 -0.500142 -1.000000
v 1.000000 0.499719 -1.000000
v 1.000000 -0.500142 -1.000000
v 1.000000 -1.000000 -0.499719
v 0.499719 -1.000000 -1.000000
v -0.500142 -1.000000 -1.000000
v 1.000000 0.499719 1.000000
v 1.000000 -0.500142 1.000000
vn -0.0000 -1.0000 -0.0000
vn -0.0000 1.0000 -0.0000
vn -0.0000 -0.0000 -1.0000
vn 1.0000 -0.0000 -0.0000
vn -0.9954 -0.0000 0.0956
vn -0.9658 -0.0890 0.2433
vn -0.9659 0.0891 0.2433
vn -0.9954 -0.0000 0.0957
vn -0.9268 0.1017 0.3616
vn -0.9268 -0.1015 0.3617
vn -0.8819 -0.0000 0.4714
vn -0.7319 -0.0363 0.6805
vn -0.7760 -0.0000 0.6308
vn -0.7071 -0.0000 0.7071
vn -0.6308 -0.0000 0.7760
vn -0.0957 -0.0000 0.9954
vn -0.0956 -0.0000 0.9954
vn -0.0958 -0.0000 0.9954
vn -0.2436 0.0895 0.9657
vn -0.2436 -0.0895 0.9657
vn -0.3997 -0.1021 0.9109
vn -0.2903 -0.0000 0.9569
vn -0.3825 -0.0307 0.9234
vn -0.4714 -0.0000 0.8819
vn -0.6961 0.0054 0.7179
vn -0.7183 -0.1071 0.6874
vn -0.9182 0.0051 0.3962
vn -0.9268 -0.1019 0.3616
vn -0.9569 -0.0000 0.2903
vn -0.9658 0.0893 0.2435
vn -0.9658 -0.0893 0.2435
vn -0.3809 0.0769 0.9214
vn -0.3997 -0.1018 0.9110
vn -0.2433 -0.0894 0.9658
vn -0.2434 0.0893 0.9658
vn -0.9954 -0.0000 0.0958
vn -0.9954 0.0001 0.0961
vn -0.9954 -0.0000 0.0961
vn -0.0961 -0.0001 0.9954
vn -0.0958 -0.0001 0.9954
vn -0.0961 -0.0000 0.9954
vn -0.7072 -0.0000 0.7070
vn -0.3827 -0.0000 0.9239
vn -0.9239 -0.0000 0.3826
vn -0.9239 -0.0000 0.3827
vn -0.8396 0.0991 0.5342
vn -0.8396 -0.0991 0.5341
vn -0.5674 0.0993 0.8174
vn -0.5675 -0.0994 0.8174
vn -0.8396 -0.0993 0.5341
vn -0.8396 0.0993 0.5341
vn -0.5675 0.0994 0.8174
vt 0.015001 0.805998
vt 0.001147 0.780002
vt 0.014419 0.727559
vt 0.048811 0.792090
vt 0.033385 0.867408
vt 0.069262 0.860408
vt 0.036416 0.899382
vt 0.241554 0.797243
vt 0.235106 0.734773
vt 0.270933 0.727559
vt 0.278125 0.797243
vt 0.235106 0.859713
vt 0.270933 0.866927
vt 0.123090 0.789779
vt 0.162332 0.822303
vt 0.125782 0.821782
vt 0.198728 0.801096
vt 0.186069 0.738256
vt 0.221023 0.727559
vt 0.235106 0.797468
vt 0.198728 0.830553
vt 0.235106 0.870592
vt 0.040039 0.691181
vt 0.076602 0.691181
vt 0.000000 0.727559
vt 0.363780 0.000000
vt 0.327402 0.036378
vt 0.272784 0.036317
vt 0.272784 0.000000
vt 0.036332 0.272861
vt 0.036378 0.327402
vt 0.000000 0.363780
vt 0.000000 0.272784
vt 0.272784 0.363780
vt 0.272784 0.327402
vt 0.327402 0.327402
vt 0.363780 0.363780
vt 0.327402 0.272861
vt 0.363780 0.272784
vt 0.363780 0.272784
vt 0.400116 0.272784
vt 0.400116 0.327402
vt 0.363780 0.363780
vt 0.454594 0.327402
vt 0.454594 0.363780
vt 0.454594 0.000000
vt 0.454594 0.036332
vt 0.400116 0.036378
vt 0.363780 0.000000
vt 0.042855 0.661859
vt 0.006990 0.654770
vt 0.091742 0.543868
vt 0.076602 0.572192
vt 0.027691 0.586528
vt 0.061308 0.523635
vt 0.131356 0.495136
vt 0.105496 0.469276
vt 0.180088 0.455522
vt 0.159856 0.425088
vt 0.298079 0.406634
vt 0.236737 0.425242
vt 0.222748 0.391471
vt 0.290991 0.370769
vt 0.061463 0.600516
vt 0.327402 0.403818
vt 0.363780 0.363780
vt 0.363780 0.636563
vt 0.363780 0.727559
vt 0.327402 0.691181
vt 0.327503 0.636563
vt 0.676713 0.691181
vt 0.713102 0.691181
vt 0.713102 0.727559
vt 0.640688 0.727559
vt 0.676713 0.636563
vt 0.640688 0.636563
vt 0.784290 0.727559
vt 0.784290 0.691181
vt 0.818786 0.691141
vt 0.436710 0.800393
vt 0.464920 0.763937
vt 0.436710 0.764015
vt 0.492100 0.764015
vt 0.464920 0.763848
vt 0.492100 0.800393
vt 0.363780 0.454776
vt 0.363780 0.363780
vt 0.399636 0.400158
vt 0.399577 0.454776
vt 0.399636 0.691181
vt 0.435855 0.691181
vt 0.435855 0.727559
vt 0.363780 0.727559
vt 0.507137 0.727559
vt 0.471496 0.691181
vt 0.507137 0.691181
vt 0.541891 0.691181
vt 0.608666 0.691181
vt 0.640688 0.691181
vt 0.640688 0.727559
vt 0.916441 0.400158
vt 0.884862 0.400158
vt 0.916441 0.363780
vt 0.818786 0.400158
vt 0.784290 0.400158
vt 0.784290 0.363780
vt 0.748696 0.400158
vt 0.713102 0.400158
vt 0.676713 0.400158
vt 0.640688 0.363780
vt 0.713102 0.363780
vt 0.507137 0.363780
vt 0.507137 0.400158
vt 0.471496 0.400284
vt 0.541891 0.400224
vt 0.435855 0.400158
vt 0.435855 0.363780
vt 0.163739 0.691181
vt 0.090919 0.691181
vt 0.090919 0.654767
vt 0.163739 0.654870
vt 0.200117 0.691181
vt 0.200117 0.654813
vt 0.272784 0.654752
vt 0.272784 0.691181
vt 0.106911 0.592342
vt 0.141900 0.539680
vt 0.111549 0.519502
vt 0.175875 0.505642
vt 0.155722 0.475329
vt 0.228574 0.470708
vt 0.208413 0.440382
vt 0.327402 0.440382
vt 0.291074 0.527519
vt 0.291074 0.454699
vt 0.327488 0.454699
vt 0.327385 0.527519
vt 0.291074 0.563897
vt 0.327443 0.563897
vt 0.291074 0.636563
vt 0.927180 0.327402
vt 0.927180 0.291091
vt 1.000000 0.290988
vt 1.000000 0.327402
vt 0.890802 0.327402
vt 0.818135 0.327402
vt 0.818135 0.290973
vt 0.890802 0.291033
vt 0.120397 0.757775
vt 0.087280 0.796286
vt 0.118591 0.885480
vt 0.109570 0.913523
vt 0.075993 0.899051
vt 0.075993 0.734076
vt 0.111852 0.727559
vt 0.039447 0.931355
vt 0.036401 0.962608
vt 0.000000 0.962560
vt 0.000000 0.899334
vt 0.763517 0.076602
vt 0.763517 0.040039
vt 0.792840 0.042855
vt 0.854182 0.061463
vt 0.882506 0.076602
vt 0.799845 0.163739
vt 0.763534 0.163739
vt 0.763431 0.090919
vt 0.799845 0.090919
vt 0.799845 0.200117
vt 0.799845 0.272784
vt 0.763416 0.272784
vt 0.763476 0.200117
vt 0.527330 0.327402
vt 0.454594 0.290988
vt 0.527330 0.291091
vt 0.563666 0.327402
vt 0.563666 0.291033
vt 0.636248 0.290973
vt 0.636248 0.327402
vt 0.400116 0.163739
vt 0.400116 0.090919
vt 0.436488 0.090919
vt 0.436385 0.163739
vt 0.400116 0.200117
vt 0.436442 0.200117
vt 0.436503 0.272784
vt 0.654701 0.163739
vt 0.654701 0.090919
vt 0.691073 0.090919
vt 0.690970 0.163739
vt 0.654701 0.200117
vt 0.691027 0.200117
vt 0.691088 0.272784
vt 0.654701 0.272784
vt 0.527330 0.072746
vt 0.454594 0.072746
vt 0.527330 0.036435
vt 0.563666 0.072746
vt 0.563666 0.036378
vt 0.636248 0.036317
vt 0.636248 0.072746
vt 0.327402 0.200040
vt 0.290988 0.272861
vt 0.291091 0.200040
vt 0.327402 0.163662
vt 0.291033 0.163662
vt 0.290973 0.090996
vt 0.327402 0.090996
vt 0.163739 0.327402
vt 0.090919 0.327402
vt 0.090919 0.290988
vt 0.163739 0.291091
vt 0.200117 0.327402
vt 0.200117 0.291033
vt 0.272784 0.290973
vt 0.163739 0.072746
vt 0.090919 0.072746
vt 0.090919 0.036332
vt 0.163739 0.036435
vt 0.200117 0.072746
vt 0.200117 0.036378
vt 0.272784 0.072746
vt 0.072746 0.200040
vt 0.072746 0.272861
vt 0.036435 0.200040
vt 0.072746 0.163662
vt 0.036378 0.163662
vt 0.036317 0.090996
vt 0.072746 0.090996
vt 0.676713 0.527519
vt 0.676713 0.454699
vt 0.712943 0.454699
vt 0.712843 0.527519
vt 0.676713 0.563897
vt 0.712899 0.563897
vt 0.712958 0.636563
vt 0.435653 0.563820
vt 0.435653 0.636640
vt 0.399592 0.636640
vt 0.399691 0.563820
vt 0.435653 0.527442
vt 0.399636 0.527442
vt 0.435653 0.454776
vt 0.520309 0.763937
vt 0.520309 0.727559
vt 0.492100 0.727559
vt 0.492100 0.764015
vt 0.520309 0.763848
vt 0.547489 0.764015
vt 0.547489 0.727559
vt 0.520309 0.727559
vt 0.471496 0.654852
vt 0.507137 0.654809
vt 0.541891 0.654792
vt 0.363780 0.794356
vt 0.400245 0.794356
vt 0.400245 0.759777
vt 0.363846 0.759777
vt 0.363830 0.727559
vt 0.400245 0.727559
vt 0.464920 0.727559
vt 0.436710 0.727559
vt 0.492100 0.727559
vt 0.464920 0.727559
vt 0.314503 0.727559
vt 0.350832 0.727559
vt 0.350875 0.763201
vt 0.314503 0.763201
vt 0.350892 0.797954
vt 0.314503 0.797954
vt 0.436710 0.794356
vt 0.436710 0.759777
vt 0.400311 0.759777
vt 0.400295 0.727559
vt 0.436710 0.727559
vt 0.075993 0.931403
vt 0.156354 0.751241
vt 0.090919 0.727559
vt 0.272784 0.727559
vt 0.363780 0.454699
vt 0.636248 0.363780
vt 0.690803 0.327402
vt 0.727139 0.363780
vt 0.363780 0.090919
vt 0.000000 0.000000
vt 0.090919 0.000000
vt 0.036378 0.036378
vt 0.090919 0.363780
vt 0.727139 0.363780
vt 0.727139 0.272784
vt 0.763517 0.327402
vt 0.727139 0.090919
vt 0.727139 0.000000
vt 0.818135 0.363780
vt 0.278125 0.818478
vt 0.314503 0.818478
vt 0.314503 0.804161
vt 0.278125 0.727559
vt 0.162332 0.827058
vt 1.000000 0.363780
vt 0.640688 0.454699
vt 0.000000 0.090919
vt 0.727139 0.272784
vt 0.727139 0.090919
vt 0.690803 0.036378
vt 0.727139 0.000000
vt 0.636248 0.000000
vt 0.363780 0.636640
vt 0.748696 0.691191
vt 0.853283 0.727559
vt 0.853283 0.691181
vt 0.916441 0.727559
vt 0.884862 0.691103
vt 0.576644 0.363780
vt 0.640688 0.363780
vt 0.608666 0.400325
vt 0.576644 0.400158
vt 0.853283 0.363780
vt 0.853283 0.400158
vt 0.576644 0.727559
vt 0.576644 0.691181
s 1
usemtl Material2
f 5/1/1 3/2/1 55/3/1 57/4/1
f 7/5/1 5/1/1 57/4/1 58/6/1
f 7/5/1 58/6/1 102/7/1
f 11/8/1 9/9/1 59/10/1 25/11/1
f 13/12/1 11/8/1 25/11/1 26/13/1
f 100/14/1 27/15/1 96/16/1
f 17/17/1 15/18/1 27/19/1 63/20/1
f 19/21/1 17/17/1 63/20/1 50/22/1
f 32/23/2 75/24/2 49/25/2
f 49/26/3 20/27/3 181/28/3 244/29/3
f 187/30/3 1/31/3 37/32/3 249/33/3
f 246/34/3 166/35/3 2/36/3 38/37/3
f 38/37/3 2/36/3 160/38/3 241/39/3
f 251/40/4 134/41/4 4/42/4 56/43/4
f 56/43/4 4/42/4 128/44/4 243/45/4
f 239/46/4 155/47/4 21/48/4 55/49/4
f 18/50/2 32/23/2 49/25/2 48/51/2
f 14/52/2 66/53/2 52/54/2 51/55/2
f 12/56/2 14/52/2 51/55/2 53/57/2
f 10/58/2 12/56/2 53/57/2 54/59/2
f 6/60/2 8/61/2 45/62/2 44/63/2
f 52/54/2 66/53/2 16/64/2
f 36/65/2 6/60/2 44/63/2 56/66/2
f 240/67/2 38/68/2 47/69/2 91/70/2
f 16/64/2 18/50/2 48/51/2 52/54/2
f 40/71/5 39/72/6 48/73/7 49/74/5
f 190/75/8 40/71/5 49/74/5 244/76/5
f 52/77/9 42/78/10 236/79/11
f 53/80/12 234/81/13 235/82/14
f 235/83/14 233/84/15 53/85/12
f 251/86/16 56/87/17 46/88/17 205/89/18
f 35/90/17 22/91/19 57/92/20 55/93/17
f 58/94/21 211/95/22 23/96/23
f 58/94/21 23/96/23 210/97/24
f 209/98/15 60/99/25 25/100/26
f 60/101/25 208/102/13 25/103/26
f 207/104/11 62/105/27 27/106/28
f 62/105/27 206/107/29 27/106/28
f 28/108/30 31/109/5 50/110/5 63/111/31
f 45/112/32 65/113/33 230/114/22
f 65/113/33 45/112/32 231/115/24
f 64/116/34 46/88/17 56/87/17 44/117/35
s 0
f 79/118/2 78/119/2 81/120/2 80/121/2
f 77/122/2 82/123/2 83/124/2 76/125/2
f 14/52/2 70/126/2 66/53/2
s 1
f 18/50/2 75/24/2 32/23/2
f 18/50/2 16/64/2 66/53/2 75/24/2
s 0
f 71/127/2 70/126/2 14/52/2 67/128/2
f 10/58/2 72/129/2 69/130/2
f 73/131/2 72/129/2 10/58/2 68/132/2
s 1
f 74/133/2 6/60/2 36/65/2
f 6/60/2 74/133/2 68/132/2 8/61/2
s 0
f 87/134/2 86/135/2 89/136/2 88/137/2
f 85/138/2 90/139/2 91/70/2 84/140/2
f 113/141/1 114/142/1 115/143/1 112/144/1
f 111/145/1 110/146/1 117/147/1 116/148/1
f 95/149/1 100/14/1 104/150/1
s 1
f 97/151/1 98/152/1 109/153/1
f 97/151/1 109/153/1 100/14/1 96/16/1
s 0
f 105/154/1 101/155/1 95/149/1 104/150/1
f 94/156/1 103/157/1 106/158/1
f 107/159/1 102/7/1 94/156/1 106/158/1
s 1
f 108/160/1 99/161/1 92/162/1
f 92/162/1 93/163/1 102/164/1 108/160/1
s 0
f 121/165/1 122/166/1 123/167/1 120/168/1
f 119/169/1 118/170/1 125/171/1 124/172/1
f 129/173/4 128/44/4 131/174/4 130/175/4
f 127/176/4 132/177/4 133/178/4 126/179/4
f 137/180/4 136/181/4 139/182/4 138/183/4
f 135/184/4 140/185/4 141/186/4 134/41/4
f 145/187/4 144/188/4 147/189/4 146/190/4
f 143/191/4 148/192/4 149/193/4 142/194/4
f 153/195/4 152/196/4 155/47/4 154/197/4
f 151/198/4 156/199/4 157/200/4 150/201/4
f 161/202/3 160/38/3 163/203/3 162/204/3
f 159/205/3 164/206/3 165/207/3 158/208/3
f 169/209/3 168/210/3 171/211/3 170/212/3
f 167/213/3 172/214/3 173/215/3 166/35/3
f 177/216/3 176/217/3 179/218/3 178/219/3
f 175/220/3 180/221/3 181/28/3 174/222/3
f 185/223/3 184/224/3 187/30/3 186/225/3
f 183/226/3 188/227/3 189/228/3 182/229/3
s 1
f 193/230/36 192/231/36 195/232/37 194/233/37
f 191/234/8 196/235/38 197/236/38 190/75/8
f 201/237/39 200/238/39 203/239/40 202/240/16
f 199/241/41 204/242/16 205/89/18 198/243/41
f 216/244/13 208/245/13 60/246/25 217/247/42
f 215/248/15 217/249/42 60/250/25 209/251/15
f 211/95/22 212/252/22 214/253/43 23/96/23
f 213/254/24 210/97/24 23/96/23 214/253/43
f 219/255/29 206/256/29 62/257/27 220/258/44
f 218/259/11 220/258/44 62/257/27 207/260/11
f 234/81/13 226/261/13 222/262/14 235/82/14
f 233/84/15 235/83/14 222/263/14 227/264/15
f 229/265/22 230/266/22 232/267/43 221/268/43
f 231/269/24 228/270/24 221/268/43 232/267/43
f 237/256/29 224/271/29 223/272/45 238/273/44
f 236/274/11 238/273/44 223/272/45 225/275/11
s 0
f 45/62/2 68/132/2 10/58/2 54/59/2
f 45/62/2 8/61/2 68/132/2
s 1
f 59/276/1 94/156/1 102/7/1 58/6/1
f 100/14/1 95/149/1 26/277/1 27/15/1
s 0
f 78/119/2 242/278/2 49/25/2 75/24/2
f 242/278/2 79/118/2 77/122/2 241/279/2
f 79/118/2 242/278/2 78/119/2
f 77/122/2 76/125/2 241/279/2
s 1
f 241/279/2 76/125/2 47/69/2 38/68/2
s 0
f 240/67/2 91/70/2 90/139/2
f 89/136/2 243/280/2 88/137/2
f 240/67/2 90/139/2 88/137/2 243/280/2
f 89/136/2 74/133/2 56/66/2 243/280/2
s 1
f 36/65/2 56/66/2 74/133/2
f 243/45/4 128/44/4 129/173/4
s 0
f 127/176/4 126/179/4 240/281/4
s 1
f 34/282/4 38/283/4 240/281/4 126/179/4
s 0
f 240/281/4 243/45/4 129/173/4 127/176/4
s 1
f 241/39/3 160/38/3 161/202/3
s 0
f 159/205/3 158/208/3 242/284/3
s 1
f 20/27/3 49/26/3 242/284/3 158/208/3
s 0
f 242/284/3 241/39/3 161/202/3 159/205/3
s 1
f 50/285/3 245/286/3 179/218/3 29/287/3
s 0
f 179/218/3 245/286/3 178/219/3
s 1
f 244/29/3 181/28/3 180/221/3
s 0
f 178/219/3 245/286/3 244/29/3 180/221/3
s 1
f 166/35/3 246/34/3 167/213/3
f 37/32/3 1/31/3 168/210/3 247/288/3
s 0
f 169/209/3 247/288/3 168/210/3
s 1
f 246/34/3 247/288/3 169/209/3 167/213/3
s 0
f 37/289/1 248/290/1 125/171/1 30/291/1
f 124/172/1 125/171/1 248/290/1
f 123/167/1 122/166/1 239/292/1
f 122/166/1 124/172/1 248/290/1 239/292/1
f 123/167/1 239/292/1 55/293/1 108/160/1
s 1
f 108/160/1 55/293/1 99/161/1
s 0
f 37/289/1 30/291/1 110/146/1 249/294/1
f 110/146/1 111/145/1 249/294/1
f 250/295/1 112/296/1 109/297/1 50/298/1
s 1
f 50/22/1 109/299/1 19/21/1
s 0
f 113/141/1 112/144/1 250/300/1
f 249/294/1 111/145/1 113/141/1 250/300/1
s 1
f 190/75/8 244/76/5 191/234/8
f 50/110/5 31/109/5 192/231/36 245/301/5
f 193/230/36 245/301/5 192/231/36
f 245/301/5 193/230/36 191/234/8 244/76/5
f 187/30/3 249/33/3 186/225/3
s 0
f 189/228/3 188/227/3 250/302/3
s 1
f 29/287/3 189/228/3 250/302/3 50/285/3
s 0
f 250/302/3 188/227/3 186/225/3 249/33/3
s 1
f 38/283/4 34/282/4 149/193/4 246/303/4
s 0
f 148/192/4 246/303/4 149/193/4
f 146/190/4 147/189/4 247/304/4
s 1
f 33/305/4 37/306/4 247/304/4 147/189/4
f 247/304/4 246/303/4 148/192/4 146/190/4
f 37/306/4 33/305/4 157/200/4 248/307/4
s 0
f 156/199/4 248/307/4 157/200/4
s 1
f 155/47/4 239/46/4 154/197/4
s 0
f 239/46/4 248/307/4 156/199/4 154/197/4
s 1
f 134/41/4 251/40/4 135/184/4
f 55/49/4 21/48/4 136/181/4 252/284/4
s 0
f 137/180/4 252/284/4 136/181/4
s 1
f 251/40/4 252/284/4 137/180/4 135/184/4
f 251/86/16 205/89/18 204/242/16
f 202/240/16 203/239/40 252/308/17
f 35/90/17 55/93/17 252/308/17 203/239/40
f 252/308/17 251/86/16 204/242/16 202/240/16
f 42/78/10 52/77/9 237/309/29
f 52/77/9 48/73/7 39/72/6 237/309/29
f 51/310/46 52/77/9 236/79/11 41/311/47
f 53/312/12 51/310/46 41/311/47 234/313/13
f 54/314/48 53/315/12 233/316/15 43/317/49
f 45/112/32 54/314/48 43/317/49 231/115/24
f 44/117/35 45/112/32 230/114/22 64/116/34
f 63/111/31 27/106/28 206/107/29 28/108/30
f 27/106/28 26/318/50 61/319/51 207/104/11
f 26/318/50 25/103/26 208/102/13 61/319/51
f 25/100/26 59/320/49 24/321/52 209/98/15
f 59/320/49 58/94/21 210/97/24 24/321/52
f 58/94/21 57/92/20 22/91/19 211/95/22
o Pie
v 0.800000 -0.800000 -1.000000
v 0.800000 0.800000 -1.000000
v 1.000000 0.800000 0.800000
v -0.277827 -1.000000 0.277827
v -0.277827 1.000000 0.277827
v -0.800000 0.800000 -1.000000
v 1.000000 -0.800000 0.800000
v 0.599819 -0.800000 0.961571
v -0.121140 -0.800000 0.662939
v -0.961571 -0.800000 -0.599819
v -0.800000 -0.800000 -1.000000
v 0.800000 -1.000000 -0.800000
v -0.980882 -0.800000 -0.800916
v 1.000000 -0.800000 -0.800000
v 1.000000 0.800000 -0.800000
v 0.800916 -0.800000 0.980882
v -0.961571 0.800000 -0.599819
v -0.980882 0.800000 -0.800916
v -0.662939 0.800000 0.121140
v -0.121140 0.800000 0.662939
v 0.800916 0.800000 0.980882
v 0.800000 1.000000 -0.800000
v -0.662939 -0.800000 0.121140
v 0.599819 0.800000 0.961571
v -0.578853 1.000000 -0.145818
v -0.386723 1.000000 0.143865
v 0.145818 1.000000 0.578853
v -0.143865 1.000000 0.386722
v -0.412219 1.000000 -0.256598
v -0.219855 1.000000 0.032931
v -0.033069 1.000000 0.220063
v 0.256660 1.000000 0.412126
v 0.800000 1.000000 0.578853
v -0.578853 1.000000 -0.800000
v 0.499719 1.000000 -0.800000
v 0.100212 1.000000 -0.800000
v -0.500142 1.000000 -0.800000
v -0.099788 1.000000 -0.800000
v -0.099788 1.000000 -0.600367
v -0.500142 1.000000 -0.599802
v 0.100212 1.000000 -0.600053
v 0.499719 1.000000 -0.599719
v 0.600278 1.000000 -0.499719
v 0.600278 1.000000 -0.100212
v 0.600278 1.000000 0.500142
v 0.600278 1.000000 0.099788
v 0.799911 1.000000 0.099788
v 0.800476 1.000000 0.500142
v 0.800225 1.000000 -0.100212
v 0.800559 1.000000 -0.499719
v -0.578854 -1.000000 -0.145818
v -0.386723 -1.000000 0.143866
v 0.145817 -1.000000 0.578853
v -0.143866 -1.000000 0.386723
v -0.412219 -1.000000 -0.256598
v -0.219856 -1.000000 0.032931
v -0.033070 -1.000000 0.220063
v 0.256659 -1.000000 0.412126
v 0.799999 -1.000000 0.578853
v -0.578854 -1.000000 -0.800000
v 0.499719 -1.000000 -0.800000
v 0.100212 -1.000000 -0.800000
v -0.500142 -1.000000 -0.800000
v -0.099788 -1.000000 -0.800000
v -0.099788 -1.000000 -0.600367
v -0.500142 -1.000000 -0.599802
v 0.100212 -1.000000 -0.600053
v 0.499719 -1.000000 -0.599719
v 0.600277 -1.000000 -0.499719
v 0.600278 -1.000000 -0.100212
v 0.600278 -1.000000 0.500142
v 0.600278 -1.000000 0.099788
v 0.799910 -1.000000 0.099788
v 0.800475 -1.000000 0.500142
v 0.800225 -1.000000 -0.100212
v 0.800558 -1.000000 -0.499719
v 1.000000 0.800000 -0.499719
v 1.000000 0.800000 -0.100212
v 1.000000 0.800000 0.500142
v 1.000000 0.800000 0.099788
v 1.000000 0.600367 0.099788
v 1.000000 0.599802 0.500142
v 1.000000 0.600053 -0.100212
v 1.000000 0.599719 -0.499719
v 1.000000 0.499719 0.800000
v 1.000000 0.100212 0.800000
v 1.000000 -0.500142 0.800000
v 1.000000 -0.099788 0.800000
v 1.000000 -0.099788 0.600367
v 1.000000 -0.500142 0.599802
v 1.000000 0.100212 0.600053
v 1.000000 0.499719 0.599719
v 1.000000 0.499719 -0.601283
v 1.000000 0.100212 -0.601283
v 1.000000 -0.500142 -0.601283
v 1.000000 -0.099788 -0.601283
v 1.000000 -0.099788 -0.800916
v 1.000000 -0.500142 -0.801481
v 1.000000 0.100212 -0.801230
v 1.000000 0.499719 -0.801564
v 1.000000 -0.600053 -0.499719
v 1.000000 -0.600053 -0.100212
v 1.000000 -0.600053 0.500142
v 1.000000 -0.600053 0.099788
v 1.000000 -0.799686 0.099788
v 1.000000 -0.800251 0.500142
v 1.000000 -0.800000 -0.100212
v 1.000000 -0.800334 -0.499719
v -0.499719 0.800000 -1.000000
v -0.100212 0.800000 -1.000000
v 0.500142 0.800000 -1.000000
v 0.099788 0.800000 -1.000000
v 0.099788 0.600367 -1.000000
v 0.500142 0.599802 -1.000000
v -0.100212 0.600053 -1.000000
v -0.499719 0.599719 -1.000000
v 0.800000 0.499719 -1.000000
v 0.800000 0.100212 -1.000000
v 0.800000 -0.500142 -1.000000
v 0.800000 -0.099788 -1.000000
v 0.600367 -0.099788 -1.000000
v 0.599802 -0.500142 -1.000000
v 0.600053 0.100212 -1.000000
v 0.599719 0.499719 -1.000000
v -0.600053 0.499719 -1.000000
v -0.600053 0.100212 -1.000000
v -0.600053 -0.500142 -1.000000
v -0.600053 -0.099788 -1.000000
v -0.799686 -0.099788 -1.000000
v -0.800251 -0.500142 -1.000000
v -0.800000 0.100212 -1.000000
v -0.800334 0.499719 -1.000000
v -0.499719 -0.600053 -1.000000
v -0.100212 -0.600053 -1.000000
v 0.500142 -0.600053 -1.000000
v 0.099788 -0.600053 -1.000000
v 0.099788 -0.799686 -1.000000
v 0.500142 -0.800251 -1.000000
v -0.100212 -0.800000 -1.000000
v -0.499719 -0.800333 -1.000000
v -0.980882 0.499719 -0.800916
v -0.980882 0.100212 -0.800916
v -0.980882 -0.500142 -0.800916
v -0.980882 -0.099788 -0.800916
v -0.961571 -0.099788 -0.601283
v -0.961571 -0.500142 -0.600718
v -0.961571 0.100212 -0.600969
v -0.961571 0.499719 -0.600635
v 0.600969 0.499719 0.961571
v 0.600969 0.100212 0.961571
v 0.600969 -0.500142 0.961571
v 0.600969 -0.099788 0.961571
v 0.800602 -0.099788 0.980882
v 0.801167 -0.500142 0.980882
v 0.800916 0.100212 0.980882
v 0.801250 0.499719 0.980882
v -0.904665 -0.800000 -0.412226
v -0.755349 -0.800000 -0.051746
v -0.541470 -0.800000 0.270570
v -0.270570 -0.800000 0.541470
v 0.051746 -0.800000 0.755349
v 0.412226 -0.800000 0.904665
v 0.412226 -0.600270 0.904665
v 0.051746 -0.599939 0.755349
v 0.224633 -0.600032 0.847759
v -0.270570 -0.600491 0.541470
v -0.541470 -0.600004 0.270570
v -0.420000 -0.599574 0.420000
v -0.755349 -0.599796 -0.051746
v -0.904665 -0.599520 -0.412226
v -0.847759 -0.599884 -0.224633
v 0.224633 0.599574 0.847759
v -0.420000 0.599574 0.420000
v -0.847759 0.599574 -0.224633
v -0.904665 0.599574 -0.412226
v -0.755349 0.599574 -0.051747
v -0.541470 0.599574 0.270570
v -0.270570 0.599574 0.541469
v 0.051746 0.599574 0.755349
v 0.412226 0.599574 0.904665
v 0.412226 0.799305 0.904665
v 0.051746 0.799635 0.755349
v -0.270570 0.799083 0.541469
v -0.541470 0.799570 0.270570
v -0.755349 0.799778 -0.051747
v -0.904665 0.800054 -0.412226
vn -0.0000 1.0000 -0.0000
vn -0.0000 -1.0000 -0.0000
vn -0.0000 -0.0000 -1.0000
vn 1.0000 -0.0000 -0.0000
vn -0.1939 0.0004 0.9810
vn -0.0958 0.0002 0.9954
vn -0.2254 0.0002 0.9743
vn -0.2255 -0.0000 0.9742
vn -0.0962 0.0001 0.9954
vn -0.0958 -0.0002 0.9954
vn -0.1938 -0.0005 0.9810
vn -0.2254 -0.0002 0.9743
vn -0.2896 -0.0003 0.9571
vn -0.2896 -0.0007 0.9571
vn -0.2896 0.0003 0.9571
vn -0.2896 0.0007 0.9571
vn -0.3826 -0.0000 0.9239
vn -0.3827 -0.0000 0.9239
vn -0.4714 -0.0000 0.8819
vn -0.5536 -0.0000 0.8328
vn -0.6308 -0.0000 0.7760
vn -0.7071 -0.0000 0.7071
vn -0.7070 -0.0000 0.7072
vn -0.7760 -0.0000 0.6308
vn -0.8328 -0.0000 0.5536
vn -0.8819 -0.0000 0.4714
vn -0.9954 -0.0001 0.0958
vn -0.9742 -0.0003 0.2258
vn -0.9810 -0.0003 0.1939
vn -0.9954 -0.0001 0.0962
vn -0.9743 -0.0000 0.2253
vn -0.9743 -0.0001 0.2254
vn -0.9954 0.0001 0.0958
vn -0.9810 0.0003 0.1939
vn -0.9742 0.0003 0.2258
vn -0.9571 0.0003 0.2898
vn -0.9571 0.0005 0.2898
vn -0.9571 -0.0002 0.2898
vn -0.9571 -0.0005 0.2898
vn -0.9239 -0.0000 0.3827
vt 0.348797 0.382981
vt 0.348797 0.430888
vt 0.329961 0.383095
vt 0.369859 0.513117
vt 0.329961 0.539641
vt 0.415820 0.582449
vt 0.401997 0.641020
vt 0.375938 0.608963
vt 0.460601 0.627147
vt 0.434054 0.667079
vt 0.659922 0.694220
vt 0.659922 0.713056
vt 0.612014 0.694220
vt 0.529885 0.673180
vt 0.503375 0.713056
vt 0.612149 0.598415
vt 0.612074 0.550555
vt 0.659922 0.550555
vt 0.659922 0.598415
vt 0.444602 0.383116
vt 0.492462 0.383041
vt 0.492462 0.430888
vt 0.444602 0.430888
vt 0.659922 0.454952
vt 0.611994 0.454952
vt 0.659922 0.383095
vt 0.588064 0.382961
vt 0.588064 0.430889
vt 0.329961 0.401797
vt 0.282053 0.401797
vt 0.329961 0.382961
vt 0.173415 0.382961
vt 0.199924 0.422837
vt 0.130640 0.468870
vt 0.072036 0.454997
vt 0.104093 0.428938
vt 0.085859 0.513568
vt 0.045977 0.487054
vt 0.018836 0.713036
vt 0.000000 0.712922
vt 0.018836 0.665128
vt 0.000000 0.556376
vt 0.039898 0.582900
vt 0.114641 0.665128
vt 0.162501 0.665128
vt 0.162501 0.712976
vt 0.114641 0.712901
vt 0.258103 0.713056
vt 0.258103 0.665128
vt 0.329961 0.712922
vt 0.329961 0.641065
vt 0.282033 0.641065
vt 0.329961 0.497602
vt 0.329961 0.545462
vt 0.282113 0.545462
vt 0.282189 0.497602
vt 0.335114 0.167540
vt 0.335189 0.215400
vt 0.215501 0.335114
vt 0.071836 0.000020
vt 0.071836 0.047927
vt 0.000080 0.000080
vt 0.047927 0.071937
vt -0.000000 0.071937
vt 0.047927 0.215400
vt 0.000155 0.215400
vt 0.000080 0.167540
vt 0.047927 0.167540
vt 0.000080 0.382961
vt 0.000020 0.311205
vt 0.047927 0.311205
vt 0.071836 0.382961
vt 0.071836 0.335054
vt 0.167641 0.382961
vt 0.167641 0.335189
vt 0.215501 0.382961
vt 0.167641 0.047927
vt 0.167641 0.000155
vt 0.215501 0.000080
vt 0.215501 0.047927
vt 0.311104 -0.000000
vt 0.382961 0.000080
vt 0.311104 0.047927
vt 0.382961 0.071937
vt 0.335034 0.071937
vt 0.382961 0.215400
vt 0.382961 0.167540
vt 0.382961 0.311205
vt 0.382961 0.382961
vt 0.335054 0.311205
vt 0.311104 0.335034
vt 0.311104 0.382961
vt 0.549372 0.335189
vt 0.454225 0.335054
vt 0.430560 0.311103
vt 0.763567 0.071836
vt 0.715988 0.071836
vt 0.763215 0.000080
vt 0.691851 0.047927
vt 0.691851 -0.000000
vt 0.549372 0.047927
vt 0.549372 0.000155
vt 0.596904 0.000080
vt 0.596904 0.047927
vt 0.382961 0.000080
vt 0.454225 0.000020
vt 0.454225 0.047927
vt 0.382961 0.071836
vt 0.430540 0.071836
vt 0.382961 0.167641
vt 0.430406 0.167641
vt 0.430480 0.215501
vt 0.382961 0.215501
vt 0.382961 0.382961
vt 0.382961 0.311103
vt 0.454225 0.382961
vt 0.549372 0.382961
vt 0.596904 0.335114
vt 0.596904 0.382961
vt 0.691850 0.382961
vt 0.691850 0.335034
vt 0.763215 0.382961
vt 0.763587 0.311104
vt 0.715988 0.311104
vt 0.715988 0.167641
vt 0.763433 0.167641
vt 0.763507 0.215501
vt 0.715988 0.215501
vt 0.888904 0.382961
vt 0.936156 0.382961
vt 0.936213 0.454718
vt 0.889166 0.454717
vt 0.889166 0.550522
vt 0.936084 0.550523
vt 0.936156 0.598383
vt 0.889166 0.598383
vt 0.936232 0.693985
vt 0.936156 0.765843
vt 0.888904 0.765843
vt 0.889166 0.693985
vt 0.841998 0.717880
vt 0.841998 0.765676
vt 0.841998 0.430757
vt 0.841998 0.382961
vt 0.795091 0.430814
vt 0.795091 0.717880
vt 0.748956 0.430836
vt 0.748956 0.717880
vt 0.748956 0.765755
vt 0.702822 0.765843
vt 0.702822 0.382961
vt 0.748956 0.382961
vt 0.319519 0.713056
vt 0.283760 0.713056
vt 0.319519 0.760798
vt 0.659922 0.765623
vt 0.659922 0.717881
vt 0.659922 0.430704
vt 0.936232 0.382961
vt 0.936232 0.670138
vt 0.971991 0.670138
vt 0.971991 0.383181
vt 0.763587 0.047962
vt 0.763587 0.334919
vt 0.802500 0.334919
vt 0.802500 0.047859
vt 0.802500 0.382779
vt 0.841412 0.382881
vt 0.885087 0.382828
vt 0.885087 0.334919
vt 0.094785 0.713056
vt 0.142701 0.713056
vt 0.142893 0.784913
vt 0.094785 0.784913
vt -0.000000 0.832642
vt 0.047764 0.832642
vt 0.047838 0.880502
vt 0.000000 0.880502
vt 0.142893 0.713056
vt 0.191001 0.713056
vt 0.190790 0.784812
vt 0.142893 0.784812
vt 0.237371 0.761031
vt 0.283760 0.784812
vt 0.283546 0.713056
vt 0.237371 0.713056
vt 0.191001 0.736951
vt 0.191001 0.784926
vt 0.237177 0.784913
vt 0.841412 0.000000
vt 0.802500 0.000000
vt 0.885087 0.000000
vt 0.885087 0.047909
vt 0.928761 0.334919
vt 0.928761 0.047888
vt 0.974937 0.334919
vt 0.974937 0.047975
vt 0.047916 0.976104
vt 0.094785 1.000000
vt 0.047897 0.736837
vt 0.094785 0.713056
s 0
usemtl Material
f 300/322/53 297/323/53 285/324/53
f 284/325/53 279/326/53 285/324/53 297/323/53
f 283/327/53 257/328/53 280/329/53
f 282/330/53 278/331/53 257/328/53 283/327/53
f 289/332/53 286/333/53 292/334/53
f 281/335/53 292/334/53 286/333/53 277/336/53
f 291/337/53 293/338/53 288/339/53 290/340/53
f 299/341/53 301/342/53 296/343/53 298/344/53
f 287/345/53 294/346/53 274/347/53
f 302/348/53 274/347/53 295/349/53
f 295/349/53 274/347/53 294/346/53
f 294/346/53 293/338/53 296/343/53
f 315/350/54 318/351/54 312/352/54
f 303/353/54 312/352/54 318/351/54 307/354/54
f 308/355/54 256/356/54 304/357/54
f 309/358/54 306/359/54 256/356/54 308/355/54
f 326/360/54 311/361/54 323/362/54
f 305/363/54 310/364/54 323/362/54 311/361/54
f 324/365/54 322/366/54 327/367/54 325/368/54
f 328/369/54 321/370/54 264/371/54
f 313/372/54 264/371/54 320/373/54
f 264/371/54 321/370/54 320/373/54
f 316/374/54 314/375/54 319/376/54 317/377/54
f 367/378/55 365/379/55 375/380/55
f 382/381/55 379/382/55 263/383/55
f 385/384/55 263/383/55 379/382/55
f 392/385/55 263/383/55 385/384/55
f 388/386/55 389/387/55 391/388/55 386/389/55
s 1
f 253/390/55 390/391/55 387/392/55
s 0
f 371/393/55 253/390/55 374/394/55
s 1
f 253/390/55 387/392/55 374/394/55
s 0
f 372/395/55 373/396/55 375/380/55 370/397/55
f 380/398/55 381/399/55 383/400/55 378/401/55
f 384/402/55 258/403/55 377/404/55
f 361/405/55 368/406/55 258/403/55
f 258/403/55 368/406/55 377/404/55
f 364/407/55 365/379/55 367/378/55 362/408/55
s 1
f 363/409/55 254/410/55 366/411/55
s 0
f 376/412/55 254/410/55 369/413/55
s 1
f 254/410/55 376/412/55 366/411/55
s 0
f 333/414/56 334/415/56 344/416/56
f 350/417/56 347/418/56 266/419/56
f 266/419/56 347/418/56 353/420/56
f 353/420/56 360/421/56 266/419/56
f 356/422/56 357/423/56 359/424/56 354/425/56
s 1
f 259/426/56 358/427/56 355/428/56
s 0
f 339/429/56 259/426/56 342/430/56
s 1
f 259/426/56 355/428/56 342/430/56
s 0
f 340/431/56 341/432/56 343/433/56 338/434/56
f 344/416/56 255/435/56 337/436/56
s 1
f 331/437/56 255/435/56 334/415/56
s 0
f 255/435/56 344/416/56 334/415/56
f 332/438/56 333/414/56 335/439/56 330/440/56
f 329/441/56 336/442/56 267/443/56
f 352/444/56 267/443/56 345/445/56
f 267/443/56 336/442/56 345/445/56
f 348/446/56 349/447/56 351/448/56 346/449/56
s 1
f 260/450/57 268/451/58 406/452/58 403/453/59
f 404/454/60 405/455/61 407/456/61 402/457/60
f 408/458/62 273/459/62 276/460/63 401/461/64
f 432/462/65 401/461/64 276/460/63 433/463/66
f 415/464/67 414/465/68 260/450/57 403/453/59
f 403/453/59 404/454/60 415/464/67
f 401/461/64 432/462/65 402/457/60
f 402/457/60 432/462/65 415/464/67 404/454/60
f 417/466/69 415/464/67 432/462/65 424/467/70
f 416/468/71 417/466/69 424/467/70 431/469/71
f 434/470/71 272/471/72 431/469/71
f 416/468/71 261/472/72 413/473/71
f 416/468/71 431/469/71 272/471/72 261/472/72
f 412/474/73 261/475/72 418/476/73
f 435/477/73 430/478/73 272/471/72
f 272/471/72 430/478/73 418/479/73 261/472/72
f 418/480/73 430/481/73 425/482/74 420/483/75
f 420/484/75 425/485/74 429/486/76 419/487/76
f 436/488/76 271/489/77 429/486/76
f 437/490/78 428/491/78 271/489/77
f 393/492/79 400/493/80 269/494/81 270/495/79
f 396/496/82 397/497/83 399/498/84 394/499/82
f 265/500/85 262/501/86 398/502/87 395/503/85
f 422/504/88 398/505/87 262/506/86 409/507/89
f 427/508/90 438/509/91 269/510/81 400/507/80
f 419/487/76 275/511/77 411/512/76
f 410/513/78 275/511/77 421/514/78
f 419/487/76 429/486/76 271/489/77 275/511/77
f 271/489/77 428/491/78 421/514/78 275/511/77
f 421/514/78 428/491/78 426/515/92 423/516/92
f 423/516/92 426/515/92 427/517/90 422/518/88
f 400/519/80 399/498/84 427/520/90
f 398/521/87 422/522/88 397/497/83
f 399/498/84 397/497/83 422/522/88 427/520/90
s 0
f 308/355/54 307/354/54 317/377/54
f 307/354/54 318/351/54 317/377/54
f 308/355/54 317/377/54 319/376/54
f 319/376/54 320/373/54 322/366/54
f 320/373/54 321/370/54 322/366/54
f 322/366/54 324/365/54 309/358/54
f 281/335/53 282/330/53 291/337/53
f 324/365/54 323/362/54 310/364/54
f 310/364/54 309/358/54 324/365/54
f 309/358/54 308/355/54 319/376/54 322/366/54
f 365/379/55 366/411/55 376/412/55
f 283/327/53 284/325/53 298/344/53
f 284/325/53 297/323/53 298/344/53
f 298/344/53 296/343/53 283/327/53
f 296/343/53 295/349/53 294/346/53
f 292/334/53 281/335/53 291/337/53
f 282/330/53 293/338/53 291/337/53
f 293/338/53 282/330/53 283/327/53 296/343/53
f 375/380/55 365/379/55 376/412/55
f 375/380/55 373/396/55 388/386/55
f 373/396/55 374/394/55 388/386/55
f 374/394/55 387/392/55 388/386/55
f 388/386/55 386/389/55 380/398/55
f 386/389/55 385/384/55 380/398/55
f 335/439/56 333/414/56 343/433/56
f 385/384/55 379/382/55 380/398/55
f 378/401/55 377/404/55 368/406/55
f 380/398/55 378/401/55 367/378/55
f 368/406/55 367/378/55 378/401/55
f 375/380/55 388/386/55 380/398/55 367/378/55
f 343/433/56 333/414/56 344/416/56
f 343/433/56 341/432/56 356/422/56
f 341/432/56 342/430/56 356/422/56
f 342/430/56 355/428/56 356/422/56
f 354/425/56 353/420/56 348/446/56
f 353/420/56 347/418/56 348/446/56
f 348/446/56 346/449/56 335/439/56
f 346/449/56 345/445/56 336/442/56
f 335/439/56 346/449/56 336/442/56
f 354/425/56 348/446/56 335/439/56
f 335/439/56 343/433/56 356/422/56 354/425/56
