mtllib dispel_gummi_cylinder.mtl
o Cylinder2
v -0.155883 1.500000 -0.783679
v -0.305776 1.500000 -0.738210
v -0.443918 1.500000 -0.664372
v -0.565001 1.500000 -0.565001
v -0.664371 1.500000 -0.443919
v -0.738210 1.500000 -0.305776
v -0.783679 1.500000 -0.155883
v -0.799032 1.500000 -0.000000
v -0.783679 1.500000 0.155883
v -0.738210 1.500000 0.305776
v -0.664371 1.500000 0.443918
v -0.574002 1.499725 0.557602
v -0.443918 1.500000 0.664371
v -0.305776 1.500000 0.738210
v -0.155883 1.500000 0.783679
v 0.000000 1.500000 0.799032
v 0.155883 1.500000 0.783679
v 0.305776 1.500000 0.738210
v 0.443918 1.500000 0.664371
v 0.565001 1.500000 0.565001
v 0.664371 1.500000 0.443918
v 0.738210 1.500000 0.305776
v 0.783679 1.500000 0.155883
v 0.799032 1.500000 -0.000000
v 0.783679 1.500000 -0.155883
v 0.738210 1.500000 -0.305776
v 0.664371 1.500000 -0.443919
v 0.565001 1.500000 -0.565001
v 0.443918 1.500000 -0.664372
v 0.305776 1.500000 -0.738210
v 0.155883 1.500000 -0.783679
v 0.000000 1.500000 -0.799032
v 0.000000 1.500000 -1.000000
v 0.195090 1.500000 -0.980785
v 0.382683 1.500000 -0.923880
v 0.555570 1.500000 -0.831470
v 0.707107 1.500000 -0.707107
v 0.831470 1.500000 -0.555570
v 0.923880 1.500000 -0.382683
v 0.980785 1.500000 -0.195090
v 1.000000 1.500000 -0.000000
v 0.980785 1.500000 0.195090
v 0.923880 1.500000 0.382683
v 0.831470 1.500000 0.555570
v 0.707107 1.500000 0.707107
v 0.555570 1.500000 0.831470
v 0.382683 1.500000 0.923880
v 0.195090 1.500000 0.980785
v 0.000000 1.500000 1.000000
v -0.195090 1.500000 0.980785
v -0.382683 1.500000 0.923880
v -0.555570 1.500000 0.831470
v -0.707107 1.500000 0.707107
v -0.831470 1.500000 0.555570
v -0.923880 1.500000 0.382683
v -0.980785 1.500000 0.195090
v -1.000000 1.500000 -0.000000
v -0.980785 1.500000 -0.195090
v -0.923880 1.500000 -0.382683
v -0.831470 1.500000 -0.555570
v -0.707107 1.500000 -0.707107
v -0.555570 1.500000 -0.831470
v -0.382683 1.500000 -0.923880
v -0.195090 1.500000 -0.980785
v 0.000000 1.500000 -1.000000
v 0.195090 1.500000 -0.980785
v 0.382683 1.500000 -0.923880
v 0.555570 1.500000 -0.831470
v 0.707107 1.500000 -0.707107
v 0.831470 1.500000 -0.555570
v 0.923880 1.500000 -0.382683
v 0.980785 1.500000 -0.195090
v 1.000000 1.500000 -0.000000
v 0.980785 1.500000 0.195090
v 0.923880 1.500000 0.382683
v 0.831470 1.500000 0.555570
v 0.707107 1.500000 0.707107
v 0.555570 1.500000 0.831470
v 0.382683 1.500000 0.923880
v 0.195090 1.500000 0.980785
v 0.000000 1.500000 1.000000
v -0.195090 1.500000 0.980785
v -0.382683 1.500000 0.923880
v -0.555570 1.500000 0.831470
v -0.707107 1.500000 0.707107
v -0.831470 1.500000 0.555570
v -0.923880 1.500000 0.382683
v -0.980785 1.500000 0.195090
v -1.000000 1.500000 -0.000000
v -0.980785 1.500000 -0.195090
v -0.923880 1.500000 -0.382683
v -0.831470 1.500000 -0.555570
v -0.707107 1.500000 -0.707107
v -0.555570 1.500000 -0.831470
v -0.382683 1.500000 -0.923880
v -0.195090 1.500000 -0.980785
v 0.000000 1.300000 -1.000000
v 0.382683 1.300000 -0.923880
v 0.555570 1.300000 -0.831470
v 0.831470 1.300000 -0.555570
v 0.923880 1.300000 -0.382683
v 1.000000 1.300000 -0.000000
v 0.923880 1.300000 0.382683
v 0.831470 1.300000 0.555570
v 0.555570 1.300000 0.831470
v 0.382683 1.300000 0.923880
v 0.000000 1.300000 1.000000
v -0.382683 1.300000 0.923880
v -0.555570 1.300000 0.831470
v -0.831470 1.300000 0.555570
v -0.923880 1.300000 0.382683
v -1.000000 1.300000 -0.000000
v -0.980785 1.300000 -0.195090
v -0.831470 1.300000 -0.555570
v -0.555570 1.300000 -0.831470
v -0.382683 1.300000 -0.923880
v 0.195090 1.300000 -0.980785
v 0.707107 1.300000 -0.707107
v 0.980785 1.300000 -0.195090
v 0.980785 1.300000 0.195090
v 0.707107 1.300000 0.707107
v 0.195090 1.300000 0.980785
v -0.195090 1.300000 0.980785
v -0.707107 1.300000 0.707107
v -0.980785 1.300000 0.195090
v -0.923880 1.300000 -0.382683
v -0.707107 1.300000 -0.707107
v -0.195090 1.300000 -0.980785
v -0.155883 1.500000 0.583679
v 0.155883 1.500000 0.583679
v -0.583679 1.500000 -0.155883
v -0.583679 1.500000 0.155883
v -0.531595 1.499726 0.294783
v -0.311072 1.499726 0.515158
v 0.583490 1.500000 0.155883
v 0.583282 1.500000 -0.155883
v 0.155883 1.500000 -0.584154
v -0.155883 1.500000 -0.583602
v -0.302291 1.500000 -0.522746
v -0.522830 1.500000 -0.302378
v 0.522763 1.500000 -0.302312
v 0.302729 1.500000 -0.523183
v 0.302265 1.500000 0.522718
v 0.523300 1.500000 0.302847
v 0.555570 1.100000 0.831470
v 0.831470 1.100000 0.555570
v 0.195090 1.100000 0.980785
v -0.195090 1.100000 0.980785
v -0.831470 1.100000 0.555570
v -0.555570 1.100000 0.831470
v 0.000000 1.100000 1.000000
v 0.707107 1.100000 0.707107
v -0.707107 1.100000 0.707107
v -0.980785 1.100000 -0.195090
v -1.000000 1.100000 -0.000000
v -0.980785 1.100000 0.195090
v -0.555570 1.100000 -0.831470
v -0.707107 1.100000 -0.707107
v -0.831470 1.100000 -0.555570
v 0.195090 1.100000 -0.980785
v 0.000000 1.100000 -1.000000
v -0.195090 1.100000 -0.980785
v 0.831470 1.100000 -0.555570
v 0.707107 1.100000 -0.707107
v 0.555570 1.100000 -0.831470
v 0.980785 1.100000 0.195090
v 1.000000 1.100000 -0.000000
v 0.980785 1.100000 -0.195090
v -0.155883 -0.500000 -0.783679
v -0.305776 -0.500000 -0.738210
v -0.443918 -0.500000 -0.664372
v -0.565001 -0.500000 -0.565001
v -0.664371 -0.500000 -0.443919
v -0.738210 -0.500000 -0.305776
v -0.783679 -0.500000 -0.155883
v -0.799032 -0.500000 -0.000000
v -0.783679 -0.500000 0.155883
v -0.738210 -0.500000 0.305776
v -0.664371 -0.500000 0.443918
v -0.574002 -0.499725 0.557602
v -0.443918 -0.500000 0.664371
v -0.305776 -0.500000 0.738210
v -0.155883 -0.500000 0.783679
v 0.000000 -0.500000 0.799032
v 0.155883 -0.500000 0.783679
v 0.305776 -0.500000 0.738210
v 0.443918 -0.500000 0.664371
v 0.565001 -0.500000 0.565001
v 0.664371 -0.500000 0.443918
v 0.738210 -0.500000 0.305776
v 0.783679 -0.500000 0.155883
v 0.799032 -0.500000 -0.000000
v 0.783679 -0.500000 -0.155883
v 0.738210 -0.500000 -0.305776
v 0.664371 -0.500000 -0.443919
v 0.565001 -0.500000 -0.565001
v 0.443918 -0.500000 -0.664372
v 0.305776 -0.500000 -0.738210
v 0.155883 -0.500000 -0.783679
v 0.000000 -0.500000 -0.799032
v 0.000000 -0.500000 -1.000000
v 0.195090 -0.500000 -0.980785
v 0.382683 -0.500000 -0.923880
v 0.555570 -0.500000 -0.831470
v 0.707107 -0.500000 -0.707107
v 0.831470 -0.500000 -0.555570
v 0.923880 -0.500000 -0.382683
v 0.980785 -0.500000 -0.195090
v 1.000000 -0.500000 -0.000000
v 0.980785 -0.500000 0.195090
v 0.923880 -0.500000 0.382683
v 0.831470 -0.500000 0.555570
v 0.707107 -0.500000 0.707107
v 0.555570 -0.500000 0.831470
v 0.382683 -0.500000 0.923880
v 0.195090 -0.500000 0.980785
v 0.000000 -0.500000 1.000000
v -0.195090 -0.500000 0.980785
v -0.382683 -0.500000 0.923880
v -0.555570 -0.500000 0.831470
v -0.707107 -0.500000 0.707107
v -0.831470 -0.500000 0.555570
v -0.923880 -0.500000 0.382683
v -0.980785 -0.500000 0.195090
v -1.000000 -0.500000 -0.000000
v -0.980785 -0.500000 -0.195090
v -0.923880 -0.500000 -0.382683
v -0.831470 -0.500000 -0.555570
v -0.707107 -0.500000 -0.707107
v -0.555570 -0.500000 -0.831470
v -0.382683 -0.500000 -0.923880
v -0.195090 -0.500000 -0.980785
v 0.000000 -0.500000 -1.000000
v 0.195090 -0.500000 -0.980785
v 0.382683 -0.500000 -0.923880
v 0.555570 -0.500000 -0.831470
v 0.707107 -0.500000 -0.707107
v 0.831470 -0.500000 -0.555570
v 0.923880 -0.500000 -0.382683
v 0.980785 -0.500000 -0.195090
v 1.000000 -0.500000 -0.000000
v 0.980785 -0.500000 0.195090
v 0.923880 -0.500000 0.382683
v 0.831470 -0.500000 0.555570
v 0.707107 -0.500000 0.707107
v 0.555570 -0.500000 0.831470
v 0.382683 -0.500000 0.923880
v 0.195090 -0.500000 0.980785
v 0.000000 -0.500000 1.000000
v -0.195090 -0.500000 0.980785
v -0.382683 -0.500000 0.923880
v -0.555570 -0.500000 0.831470
v -0.707107 -0.500000 0.707107
v -0.831470 -0.500000 0.555570
v -0.923880 -0.500000 0.382683
v -0.980785 -0.500000 0.195090
v -1.000000 -0.500000 -0.000000
v -0.980785 -0.500000 -0.195090
v -0.923880 -0.500000 -0.382683
v -0.831470 -0.500000 -0.555570
v -0.707107 -0.500000 -0.707107
v -0.555570 -0.500000 -0.831470
v -0.382683 -0.500000 -0.923880
v -0.195090 -0.500000 -0.980785
v 0.000000 -0.300000 -1.000000
v 0.382683 -0.300000 -0.923880
v 0.555570 -0.300000 -0.831470
v 0.831470 -0.300000 -0.555570
v 0.923880 -0.300000 -0.382683
v 1.000000 -0.300000 -0.000000
v 0.923880 -0.300000 0.382683
v 0.831470 -0.300000 0.555570
v 0.555570 -0.300000 0.831470
v 0.382683 -0.300000 0.923880
v 0.000000 -0.300000 1.000000
v -0.382683 -0.300000 0.923880
v -0.555570 -0.300000 0.831470
v -0.831470 -0.300000 0.555570
v -0.923880 -0.300000 0.382683
v -1.000000 -0.300000 -0.000000
v -0.980785 -0.300000 -0.195090
v -0.831470 -0.300000 -0.555570
v -0.555570 -0.300000 -0.831470
v -0.382683 -0.300000 -0.923880
v 0.195090 -0.300000 -0.980785
v 0.707107 -0.300000 -0.707107
v 0.980785 -0.300000 -0.195090
v 0.980785 -0.300000 0.195090
v 0.707107 -0.300000 0.707107
v 0.195090 -0.300000 0.980785
v -0.195090 -0.300000 0.980785
v -0.707107 -0.300000 0.707107
v -0.980785 -0.300000 0.195090
v -0.923880 -0.300000 -0.382683
v -0.707107 -0.300000 -0.707107
v -0.195090 -0.300000 -0.980785
v -0.155883 -0.500000 0.583679
v 0.155883 -0.500000 0.583679
v -0.583679 -0.500000 -0.155883
v -0.583679 -0.500000 0.155883
v -0.531595 -0.499726 0.294783
v -0.311072 -0.499726 0.515158
v 0.583490 -0.500000 0.155883
v 0.583282 -0.500000 -0.155883
v 0.155883 -0.500000 -0.584154
v -0.155883 -0.500000 -0.583602
v -0.302291 -0.500000 -0.522746
v -0.522830 -0.500000 -0.302378
v 0.522763 -0.500000 -0.302312
v 0.302729 -0.500000 -0.523183
v 0.302265 -0.500000 0.522718
v 0.523300 -0.500000 0.302847
v 0.555570 -0.100000 0.831470
v 0.831470 -0.100000 0.555570
v 0.195090 -0.100000 0.980785
v -0.195090 -0.100000 0.980785
v -0.831470 -0.100000 0.555570
v -0.555570 -0.100000 0.831470
v 0.000000 -0.100000 1.000000
v 0.707107 -0.100000 0.707107
v -0.707107 -0.100000 0.707107
v -0.980785 -0.100000 -0.195090
v -1.000000 -0.100000 -0.000000
v -0.980785 -0.100000 0.195090
v -0.555570 -0.100000 -0.831470
v -0.707107 -0.100000 -0.707107
v -0.831470 -0.100000 -0.555570
v 0.195090 -0.100000 -0.980785
v 0.000000 -0.100000 -1.000000
v -0.195090 -0.100000 -0.980785
v 0.831470 -0.100000 -0.555570
v 0.707107 -0.100000 -0.707107
v 0.555570 -0.100000 -0.831470
v 0.980785 -0.100000 0.195090
v 1.000000 -0.100000 -0.000000
v 0.980785 -0.100000 -0.195090
vn -0.9239 -0.0000 -0.3827
vn -0.8315 -0.0000 -0.5556
vn -0.8128 -0.0000 -0.5826
vn 0.7069 0.0233 0.7069
vn 0.7071 -0.0000 0.7071
vn 0.5556 -0.0000 0.8315
vn 0.5822 -0.0325 0.8124
vn 0.1628 -0.0000 -0.9867
vn 0.1951 -0.0000 -0.9808
vn 0.3827 -0.0000 -0.9239
vn -0.1627 -0.0325 0.9861
vn -0.1951 -0.0000 0.9808
vn -0.3827 -0.0000 0.9239
vn 0.7071 -0.0000 -0.7071
vn 0.8315 -0.0000 -0.5556
vn 0.8128 -0.0000 -0.5826
vn -0.7071 -0.0000 0.7071
vn -0.8315 -0.0000 0.5556
vn -0.8128 -0.0000 0.5826
vn 0.1627 -0.0325 0.9861
vn 0.1951 -0.0000 0.9808
vn -0.0000 -0.0000 1.0000
vn 0.0233 -0.0000 0.9997
vn -0.9867 -0.0000 0.1628
vn -0.9808 -0.0000 0.1951
vn -1.0000 -0.0000 -0.0000
vn 0.9867 -0.0000 0.1628
vn 0.9808 -0.0000 0.1951
vn 0.9239 -0.0000 0.3827
vn 0.9867 -0.0000 -0.1628
vn 0.9808 -0.0000 -0.1951
vn 1.0000 -0.0000 -0.0000
vn -0.7071 -0.0000 -0.7071
vn -0.5556 -0.0000 -0.8315
vn -0.5826 -0.0000 -0.8128
vn -0.1628 -0.0000 -0.9867
vn -0.1951 -0.0000 -0.9808
vn -0.0000 -0.0000 -1.0000
vn -0.0000 1.0000 -0.0000
vn -0.0002 1.0000 -0.0010
vn -0.0001 1.0000 -0.0005
vn 0.0005 1.0000 -0.0004
vn 0.0004 1.0000 -0.0004
vn 0.0012 1.0000 0.0002
vn 0.0005 1.0000 0.0001
vn 0.8315 -0.0000 0.5556
vn 0.8124 -0.0325 0.5822
vn -0.9808 -0.0000 -0.1951
vn -0.9867 -0.0000 -0.1628
vn 0.3827 -0.0000 0.9239
vn -0.9239 -0.0000 0.3827
vn 0.5556 -0.0000 -0.8315
vn 0.5826 -0.0000 -0.8128
vn -0.5556 -0.0000 0.8315
vn -0.5826 -0.0000 0.8128
vn 0.9239 -0.0000 -0.3827
vn -0.3827 -0.0000 -0.9239
vn 0.0009 1.0000 0.0002
vn -0.0001 1.0000 -0.0009
vn 0.6344 -0.0000 0.7730
vn 0.7730 -0.0000 0.6344
vn -0.6344 -0.0000 0.7730
vn 0.0491 -0.0000 0.9988
vn -0.0425 -0.0000 0.9991
vn -0.7730 -0.0000 0.6344
vn -0.9952 -0.0000 0.0980
vn -0.9952 -0.0000 -0.0980
vn -0.6344 -0.0000 -0.7730
vn -0.7730 -0.0000 -0.6344
vn -0.0980 -0.0000 -0.9952
vn 0.0980 -0.0000 -0.9952
vn 0.6344 -0.0000 -0.7730
vn 0.7730 -0.0000 -0.6344
vn 0.9952 -0.0000 -0.0980
vn 0.9952 -0.0000 0.0980
vn 0.7069 0.0219 0.7069
vn 0.5823 -0.0305 0.8124
vn -0.1627 -0.0305 0.9862
vn 0.1627 -0.0305 0.9862
vn -0.0219 -0.0000 0.9998
vn -0.0000 -1.0000 -0.0000
vn -0.0001 -1.0000 -0.0005
vn -0.0002 -1.0000 -0.0010
vn 0.0004 -1.0000 -0.0004
vn 0.0005 -1.0000 -0.0004
vn 0.0005 -1.0000 0.0001
vn 0.0012 -1.0000 0.0002
vn 0.8124 -0.0305 0.5823
vn 0.0009 -1.0000 0.0002
vn -0.0001 -1.0000 -0.0009
vn 0.0980 -0.0000 0.9952
vn -0.0980 -0.0000 0.9952
vt 0.502578 0.772192
vt 0.538287 0.772192
vt 0.538287 0.806521
vt 0.502578 0.806521
vt 0.573997 0.831271
vt 0.538288 0.831271
vt 0.538288 0.796942
vt 0.573997 0.796942
vt 0.609707 0.932939
vt 0.573997 0.932939
vt 0.573997 0.900602
vt 0.609707 0.900602
vt 0.609707 0.739855
vt 0.645416 0.739855
vt 0.645416 0.772192
vt 0.609707 0.772192
vt 0.609707 0.831271
vt 0.609707 0.796942
vt 0.609707 0.841523
vt 0.645416 0.841523
vt 0.645416 0.875852
vt 0.609707 0.875852
vt 0.573997 0.735502
vt 0.538288 0.735502
vt 0.538288 0.710752
vt 0.573997 0.710752
vt 0.609707 0.937292
vt 0.645416 0.937292
vt 0.645416 0.962041
vt 0.609707 0.962041
vt 0.538288 0.932939
vt 0.538288 0.900602
vt 0.609707 0.735502
vt 0.609707 0.710752
vt 0.502578 0.841523
vt 0.538287 0.841523
vt 0.538287 0.875852
vt 0.502578 0.875852
vt 0.502578 0.937292
vt 0.538287 0.937292
vt 0.538287 0.962041
vt 0.502578 0.962041
vt 0.773971 0.710752
vt 0.035710 0.191672
vt 0.041166 0.219102
vt 0.006829 0.229518
vt 0.000000 0.195189
vt 0.051868 0.244940
vt 0.020223 0.261855
vt 0.067406 0.268194
vt 0.039669 0.290958
vt 0.087182 0.287970
vt 0.064419 0.315708
vt 0.110436 0.303508
vt 0.093522 0.335153
vt 0.136275 0.314211
vt 0.125859 0.348548
vt 0.163705 0.319667
vt 0.160188 0.355376
vt 0.191672 0.319667
vt 0.195189 0.355376
vt 0.219102 0.314210
vt 0.229518 0.348548
vt 0.244940 0.303508
vt 0.261855 0.335153
vt 0.268194 0.287970
vt 0.290958 0.315707
vt 0.287970 0.268194
vt 0.315708 0.290958
vt 0.303508 0.244940
vt 0.335153 0.261855
vt 0.314211 0.219101
vt 0.348548 0.229517
vt 0.319667 0.191671
vt 0.355376 0.195189
vt 0.319667 0.163704
vt 0.355376 0.160187
vt 0.314210 0.136274
vt 0.348548 0.125858
vt 0.303508 0.110436
vt 0.335153 0.093521
vt 0.287970 0.087182
vt 0.315707 0.064418
vt 0.268194 0.067406
vt 0.290958 0.039669
vt 0.244940 0.051868
vt 0.261855 0.020223
vt 0.219101 0.041166
vt 0.229517 0.006828
vt 0.191671 0.035710
vt 0.195189 0.000000
vt 0.163704 0.035710
vt 0.160187 0.000000
vt 0.136274 0.041166
vt 0.125858 0.006829
vt 0.110436 0.051868
vt 0.093521 0.020223
vt 0.087182 0.067406
vt 0.064418 0.039669
vt 0.067406 0.087182
vt 0.039669 0.064419
vt 0.051868 0.110436
vt 0.020223 0.093522
vt 0.041166 0.136275
vt 0.006828 0.125859
vt 0.035710 0.163705
vt 0.000000 0.160188
vt 0.573997 0.962041
vt 0.645416 0.710752
vt 0.538288 0.866273
vt 0.573997 0.866273
vt 0.538287 0.739855
vt 0.502578 0.739855
vt 0.538288 0.764605
vt 0.573997 0.764605
vt 0.645416 0.908189
vt 0.609707 0.908189
vt 0.609707 0.866273
vt 0.538288 0.962041
vt 0.645416 0.806521
vt 0.609707 0.806521
vt 0.609707 0.764605
vt 0.538287 0.710752
vt 0.502578 0.710752
vt 0.538287 0.908189
vt 0.502578 0.908189
vt 0.500000 0.899516
vt 0.422058 0.791839
vt 0.422058 0.891840
vt 0.577941 0.891840
vt 0.577941 0.791839
vt 0.100484 0.500000
vt 0.208160 0.422058
vt 0.108160 0.422058
vt 0.108160 0.577941
vt 0.208160 0.577941
vt 0.212999 0.778801
vt 0.234203 0.647391
vt 0.167814 0.721959
vt 0.278041 0.832186
vt 0.344464 0.757579
vt 0.891840 0.422058
vt 0.791641 0.422058
vt 0.899516 0.500000
vt 0.791745 0.577941
vt 0.891840 0.577941
vt 0.500000 0.100484
vt 0.577941 0.207923
vt 0.577941 0.108160
vt 0.422058 0.108160
vt 0.422058 0.208199
vt 0.217499 0.217499
vt 0.348854 0.238627
vt 0.278041 0.167814
vt 0.167814 0.278040
vt 0.238585 0.348811
vt 0.782501 0.217499
vt 0.761382 0.348844
vt 0.832186 0.278040
vt 0.721959 0.167814
vt 0.651365 0.238408
vt 0.782501 0.782501
vt 0.651132 0.761359
vt 0.721959 0.832186
vt 0.832186 0.721959
vt 0.761650 0.651423
vt 0.717911 0.435655
vt 0.717911 0.535654
vt 0.642143 0.535654
vt 0.642143 0.435655
vt 0.392249 0.705510
vt 0.392249 0.629741
vt 0.492249 0.629741
vt 0.492249 0.705510
vt 0.289065 0.368996
vt 0.364833 0.368996
vt 0.364833 0.468996
vt 0.289065 0.468996
vt 0.597545 0.400000
vt 0.597545 0.500000
vt 0.500000 0.500000
vt 0.500000 0.400000
vt 0.402455 0.400000
vt 0.402455 0.500000
vt 0.540293 0.717136
vt 0.640293 0.717136
vt 0.640293 0.641368
vt 0.540293 0.641368
vt 0.500000 0.597545
vt 0.400000 0.500000
vt 0.400000 0.597545
vt 0.400000 0.402455
vt 0.500000 0.402455
vt 0.298790 0.590820
vt 0.374559 0.590820
vt 0.374559 0.490820
vt 0.298790 0.490820
vt 0.553320 0.368699
vt 0.653320 0.368699
vt 0.653320 0.292931
vt 0.553320 0.292931
vt 0.540480 0.513281
vt 0.540480 0.613281
vt 0.616249 0.613281
vt 0.616249 0.513281
vt 0.420508 0.289025
vt 0.520508 0.289025
vt 0.520508 0.364793
vt 0.420508 0.364793
s 1
usemtl Material2
f 126/1/1 59/2/1 60/3/2 114/4/3
f 121/5/4 45/6/5 46/7/6 105/8/7
f 117/9/8 34/10/9 35/11/10 98/12/10
f 123/13/11 50/14/12 51/15/13 108/16/13
f 118/17/14 37/5/14 38/8/15 100/18/16
f 124/19/17 53/20/17 54/21/18 110/22/19
f 122/23/20 48/24/21 49/25/22 107/26/23
f 125/27/24 56/28/25 57/29/26 112/30/26
f 120/10/27 42/31/28 43/32/29 103/11/29
f 119/33/30 40/23/31 41/26/32 102/34/32
f 127/35/33 61/36/33 62/37/34 115/38/35
f 128/39/36 64/40/37 33/41/38 97/42/38
s 0
f 65/43/22 66/43/22 34/43/22 33/43/22
f 66/43/22 67/43/22 35/43/22 34/43/22
f 67/43/22 68/43/22 36/43/22 35/43/22
f 68/43/22 69/43/22 37/43/22 36/43/22
f 69/43/22 70/43/22 38/43/22 37/43/22
f 70/43/22 71/43/22 39/43/22 38/43/22
f 71/43/22 72/43/22 40/43/22 39/43/22
f 72/43/22 73/43/22 41/43/22 40/43/22
f 73/43/22 74/43/22 42/43/22 41/43/22
f 74/43/22 75/43/22 43/43/22 42/43/22
f 75/43/22 76/43/22 44/43/22 43/43/22
f 76/43/22 77/43/22 45/43/22 44/43/22
f 77/43/22 78/43/22 46/43/22 45/43/22
f 78/43/22 79/43/22 47/43/22 46/43/22
f 79/43/22 80/43/22 48/43/22 47/43/22
f 80/43/22 81/43/22 49/43/22 48/43/22
f 81/43/22 82/43/22 50/43/22 49/43/22
f 82/43/22 83/43/22 51/43/22 50/43/22
f 83/43/22 84/43/22 52/43/22 51/43/22
f 84/43/22 85/43/22 53/43/22 52/43/22
f 85/43/22 86/43/22 54/43/22 53/43/22
f 86/43/22 87/43/22 55/43/22 54/43/22
f 87/43/22 88/43/22 56/43/22 55/43/22
f 88/43/22 89/43/22 57/43/22 56/43/22
f 89/43/22 90/43/22 58/43/22 57/43/22
f 90/43/22 91/43/22 59/43/22 58/43/22
f 91/43/22 92/43/22 60/43/22 59/43/22
f 92/43/22 93/43/22 61/43/22 60/43/22
f 93/43/22 94/43/22 62/43/22 61/43/22
f 94/43/22 95/43/22 63/43/22 62/43/22
f 96/43/22 65/43/22 33/43/22 64/43/22
f 95/43/22 96/43/22 64/43/22 63/43/22
s 1
f 32/44/39 31/45/39 66/46/39 65/47/39
f 31/45/39 30/48/39 67/49/39 66/46/39
f 30/48/39 29/50/39 68/51/39 67/49/39
f 29/50/39 28/52/39 69/53/39 68/51/39
f 28/52/39 27/54/39 70/55/39 69/53/39
f 27/54/39 26/56/39 71/57/39 70/55/39
f 26/56/39 25/58/39 72/59/39 71/57/39
f 25/58/39 24/60/39 73/61/39 72/59/39
f 24/60/39 23/62/39 74/63/39 73/61/39
f 23/62/39 22/64/39 75/65/39 74/63/39
f 22/64/39 21/66/39 76/67/39 75/65/39
f 21/66/39 20/68/39 77/69/39 76/67/39
f 20/68/39 19/70/39 78/71/39 77/69/39
f 19/70/39 18/72/39 79/73/39 78/71/39
f 18/72/39 17/74/39 80/75/39 79/73/39
f 17/74/39 16/76/39 81/77/39 80/75/39
f 16/76/39 15/78/39 82/79/39 81/77/39
f 15/78/39 14/80/39 83/81/39 82/79/39
f 14/80/39 13/82/40 84/83/41 83/81/39
f 13/82/40 12/84/42 85/85/43 84/83/41
f 12/84/42 11/86/44 86/87/45 85/85/43
f 11/86/44 10/88/39 87/89/39 86/87/45
f 10/88/39 9/90/39 88/91/39 87/89/39
f 9/90/39 8/92/39 89/93/39 88/91/39
f 8/92/39 7/94/39 90/95/39 89/93/39
f 7/94/39 6/96/39 91/97/39 90/95/39
f 6/96/39 5/98/39 92/99/39 91/97/39
f 5/98/39 4/100/39 93/101/39 92/99/39
f 4/100/39 3/102/39 94/103/39 93/101/39
f 3/102/39 2/104/39 95/105/39 94/103/39
f 1/106/39 32/44/39 65/47/39 96/107/39
f 2/104/39 1/106/39 96/107/39 95/105/39
f 33/108/38 34/10/9 117/9/8 97/30/38
f 49/109/22 50/14/12 123/13/11 107/34/23
f 44/110/46 45/6/5 121/5/4 104/111/47
f 58/112/48 59/2/1 126/1/1 113/113/49
f 47/114/50 48/24/21 122/23/20 106/115/50
f 43/32/29 44/110/46 104/111/47 103/11/29
f 54/21/18 55/116/51 111/117/51 110/22/19
f 36/111/52 37/5/14 118/17/14 99/118/53
f 41/119/32 42/31/28 120/10/27 102/108/32
f 52/120/54 53/20/17 124/19/17 109/121/55
f 35/11/10 36/111/52 99/118/53 98/12/10
f 46/7/6 47/114/50 106/115/50 105/8/7
f 38/8/15 39/115/56 101/122/56 100/18/16
f 57/123/26 58/112/48 113/113/49 112/124/26
f 51/15/13 52/120/54 109/121/55 108/16/13
f 55/116/51 56/28/25 125/27/24 111/117/51
f 62/37/34 63/125/57 116/126/57 115/38/35
f 39/115/56 40/23/31 119/33/30 101/122/56
f 60/3/2 61/36/33 127/35/33 114/4/3
f 63/125/57 64/40/37 128/39/36 116/126/57
f 16/127/39 129/128/39 15/129/39
f 17/130/39 130/131/39 16/127/39
f 129/128/39 16/127/39 130/131/39
f 8/132/39 131/133/39 7/134/39
f 9/135/39 132/136/39 8/132/39
f 131/133/39 8/132/39 132/136/39
f 12/137/42 133/138/58 11/139/44
f 13/140/40 134/141/59 12/137/42
f 133/138/58 12/137/42 134/141/59
f 25/142/39 136/143/39 24/144/39
f 24/144/39 135/145/39 23/146/39
f 135/145/39 24/144/39 136/143/39
f 32/147/39 137/148/39 31/149/39
f 32/147/39 1/150/39 138/151/39
f 137/148/39 32/147/39 138/151/39
f 4/152/39 139/153/39 3/154/39
f 5/155/39 140/156/39 4/152/39
f 139/153/39 4/152/39 140/156/39
f 28/157/39 141/158/39 27/159/39
f 29/160/39 142/161/39 28/157/39
f 141/158/39 28/157/39 142/161/39
f 20/162/39 143/163/39 19/164/39
f 21/165/39 144/166/39 20/162/39
f 143/163/39 20/162/39 144/166/39
f 152/167/5 121/168/4 105/169/7 145/170/60
f 152/171/5 146/172/61 104/173/47 121/174/4
f 153/175/17 150/176/62 109/177/55 124/178/17
f 147/179/63 122/180/20 107/181/23 151/182/22
f 148/183/64 151/182/22 107/181/23 123/184/11
f 153/185/17 124/186/17 110/187/19 149/188/65
f 125/189/24 112/181/26 155/190/26 156/191/66
f 154/192/67 155/190/26 112/181/26 113/193/49
f 127/194/33 115/195/35 157/196/68 158/197/33
f 159/198/69 114/199/3 127/200/33 158/201/33
f 128/184/36 97/181/38 161/182/38 162/183/70
f 160/179/71 161/182/38 97/181/38 117/180/8
f 165/202/72 99/203/53 118/204/14 164/205/14
f 164/206/14 118/207/14 100/208/16 163/209/73
f 119/193/30 102/181/32 167/190/32 168/192/74
f 166/191/75 167/190/32 102/181/32 120/189/27
f 294/1/1 282/4/3 228/3/2 227/2/1
f 289/5/76 273/8/77 214/7/6 213/6/5
f 285/9/8 266/12/10 203/11/10 202/10/9
f 291/13/78 276/16/13 219/15/13 218/14/12
f 286/17/14 268/18/16 206/8/15 205/5/14
f 292/19/17 278/22/19 222/21/18 221/20/17
f 290/23/79 275/26/80 217/25/22 216/24/21
f 293/27/24 280/30/26 225/29/26 224/28/25
f 288/10/27 271/11/29 211/32/29 210/31/28
f 287/33/30 270/34/32 209/26/32 208/23/31
f 295/35/33 283/38/35 230/37/34 229/36/33
f 296/39/36 265/42/38 201/41/38 232/40/37
s 0
f 233/43/22 201/43/22 202/43/22 234/43/22
f 234/43/22 202/43/22 203/43/22 235/43/22
f 235/43/22 203/43/22 204/43/22 236/43/22
f 236/43/22 204/43/22 205/43/22 237/43/22
f 237/43/22 205/43/22 206/43/22 238/43/22
f 238/43/22 206/43/22 207/43/22 239/43/22
f 239/43/22 207/43/22 208/43/22 240/43/22
f 240/43/22 208/43/22 209/43/22 241/43/22
f 241/43/22 209/43/22 210/43/22 242/43/22
f 242/43/22 210/43/22 211/43/22 243/43/22
f 243/43/22 211/43/22 212/43/22 244/43/22
f 244/43/22 212/43/22 213/43/22 245/43/22
f 245/43/22 213/43/22 214/43/22 246/43/22
f 246/43/22 214/43/22 215/43/22 247/43/22
f 247/43/22 215/43/22 216/43/22 248/43/22
f 248/43/22 216/43/22 217/43/22 249/43/22
f 249/43/22 217/43/22 218/43/22 250/43/22
f 250/43/22 218/43/22 219/43/22 251/43/22
f 251/43/22 219/43/22 220/43/22 252/43/22
f 252/43/22 220/43/22 221/43/22 253/43/22
f 253/43/22 221/43/22 222/43/22 254/43/22
f 254/43/22 222/43/22 223/43/22 255/43/22
f 255/43/22 223/43/22 224/43/22 256/43/22
f 256/43/22 224/43/22 225/43/22 257/43/22
f 257/43/22 225/43/22 226/43/22 258/43/22
f 258/43/22 226/43/22 227/43/22 259/43/22
f 259/43/22 227/43/22 228/43/22 260/43/22
f 260/43/22 228/43/22 229/43/22 261/43/22
f 261/43/22 229/43/22 230/43/22 262/43/22
f 262/43/22 230/43/22 231/43/22 263/43/22
f 264/43/22 232/43/22 201/43/22 233/43/22
f 263/43/22 231/43/22 232/43/22 264/43/22
s 1
f 200/44/81 233/47/81 234/46/81 199/45/81
f 199/45/81 234/46/81 235/49/81 198/48/81
f 198/48/81 235/49/81 236/51/81 197/50/81
f 197/50/81 236/51/81 237/53/81 196/52/81
f 196/52/81 237/53/81 238/55/81 195/54/81
f 195/54/81 238/55/81 239/57/81 194/56/81
f 194/56/81 239/57/81 240/59/81 193/58/81
f 193/58/81 240/59/81 241/61/81 192/60/81
f 192/60/81 241/61/81 242/63/81 191/62/81
f 191/62/81 242/63/81 243/65/81 190/64/81
f 190/64/81 243/65/81 244/67/81 189/66/81
f 189/66/81 244/67/81 245/69/81 188/68/81
f 188/68/81 245/69/81 246/71/81 187/70/81
f 187/70/81 246/71/81 247/73/81 186/72/81
f 186/72/81 247/73/81 248/75/81 185/74/81
f 185/74/81 248/75/81 249/77/81 184/76/81
f 184/76/81 249/77/81 250/79/81 183/78/81
f 183/78/81 250/79/81 251/81/81 182/80/81
f 182/80/81 251/81/81 252/83/82 181/82/83
f 181/82/83 252/83/82 253/85/84 180/84/85
f 180/84/85 253/85/84 254/87/86 179/86/87
f 179/86/87 254/87/86 255/89/81 178/88/81
f 178/88/81 255/89/81 256/91/81 177/90/81
f 177/90/81 256/91/81 257/93/81 176/92/81
f 176/92/81 257/93/81 258/95/81 175/94/81
f 175/94/81 258/95/81 259/97/81 174/96/81
f 174/96/81 259/97/81 260/99/81 173/98/81
f 173/98/81 260/99/81 261/101/81 172/100/81
f 172/100/81 261/101/81 262/103/81 171/102/81
f 171/102/81 262/103/81 263/105/81 170/104/81
f 169/106/81 264/107/81 233/47/81 200/44/81
f 170/104/81 263/105/81 264/107/81 169/106/81
f 201/108/38 265/30/38 285/9/8 202/10/9
f 217/109/22 275/34/80 291/13/78 218/14/12
f 212/110/46 272/111/88 289/5/76 213/6/5
f 226/112/48 281/113/49 294/1/1 227/2/1
f 215/114/50 274/115/50 290/23/79 216/24/21
f 211/32/29 271/11/29 272/111/88 212/110/46
f 222/21/18 278/22/19 279/117/51 223/116/51
f 204/111/52 267/118/53 286/17/14 205/5/14
f 209/119/32 270/108/32 288/10/27 210/31/28
f 220/120/54 277/121/55 292/19/17 221/20/17
f 203/11/10 266/12/10 267/118/53 204/111/52
f 214/7/6 273/8/77 274/115/50 215/114/50
f 206/8/15 268/18/16 269/122/56 207/115/56
f 225/123/26 280/124/26 281/113/49 226/112/48
f 219/15/13 276/16/13 277/121/55 220/120/54
f 223/116/51 279/117/51 293/27/24 224/28/25
f 230/37/34 283/38/35 284/126/57 231/125/57
f 207/115/56 269/122/56 287/33/30 208/23/31
f 228/3/2 282/4/3 295/35/33 229/36/33
f 231/125/57 284/126/57 296/39/36 232/40/37
f 184/127/81 183/129/81 297/128/81
f 185/130/81 184/127/81 298/131/81
f 297/128/81 298/131/81 184/127/81
f 176/132/81 175/134/81 299/133/81
f 177/135/81 176/132/81 300/136/81
f 299/133/81 300/136/81 176/132/81
f 180/137/85 179/139/87 301/138/89
f 181/140/83 180/137/85 302/141/90
f 301/138/89 302/141/90 180/137/85
f 193/142/81 192/144/81 304/143/81
f 192/144/81 191/146/81 303/145/81
f 303/145/81 304/143/81 192/144/81
f 200/147/81 199/149/81 305/148/81
f 200/147/81 306/151/81 169/150/81
f 305/148/81 306/151/81 200/147/81
f 172/152/81 171/154/81 307/153/81
f 173/155/81 172/152/81 308/156/81
f 307/153/81 308/156/81 172/152/81
f 196/157/81 195/159/81 309/158/81
f 197/160/81 196/157/81 310/161/81
f 309/158/81 310/161/81 196/157/81
f 188/162/81 187/164/81 311/163/81
f 189/165/81 188/162/81 312/166/81
f 311/163/81 312/166/81 188/162/81
f 320/167/5 313/170/60 273/169/77 289/168/76
f 320/171/5 289/174/76 272/173/88 314/172/61
f 321/175/17 292/178/17 277/177/55 318/176/62
f 315/179/91 319/182/22 275/181/80 290/180/79
f 316/183/92 291/184/78 275/181/80 319/182/22
f 321/185/17 317/188/65 278/187/19 292/186/17
f 293/189/24 324/191/66 323/190/26 280/181/26
f 322/192/67 281/193/49 280/181/26 323/190/26
f 295/194/33 326/197/33 325/196/68 283/195/35
f 327/198/69 326/201/33 295/200/33 282/199/3
f 296/184/36 330/183/70 329/182/38 265/181/38
f 328/179/71 285/180/8 265/181/38 329/182/38
f 333/202/72 332/205/14 286/204/14 267/203/53
f 332/206/14 331/209/73 268/208/16 286/207/14
f 287/193/30 336/192/74 335/190/32 270/181/32
f 334/191/75 288/189/27 270/181/32 335/190/32
o Cylinder
v -0.155883 1.500000 -0.783679
v -0.305776 1.500000 -0.738210
v -0.443918 1.500000 -0.664372
v -0.664371 1.500000 -0.443919
v -0.738210 1.500000 -0.305776
v -0.783679 1.500000 -0.155883
v -0.783679 1.500000 0.155883
v -0.738210 1.500000 0.305776
v -0.664371 1.500000 0.443918
v -0.443918 1.500000 0.664371
v -0.305776 1.500000 0.738210
v -0.155883 1.500000 0.783679
v 0.155883 1.500000 0.783679
v 0.305776 1.500000 0.738210
v 0.443918 1.500000 0.664371
v 0.664371 1.500000 0.443918
v 0.738210 1.500000 0.305776
v 0.783679 1.500000 0.155883
v 0.783679 1.500000 -0.155883
v 0.738210 1.500000 -0.305776
v 0.664371 1.500000 -0.443919
v 0.443918 1.500000 -0.664372
v 0.305776 1.500000 -0.738210
v 0.155883 1.500000 -0.783679
v 0.382683 1.300000 -0.923880
v 0.555570 1.300000 -0.831470
v 0.831470 1.300000 -0.555570
v 0.923880 1.300000 -0.382683
v 0.923880 1.300000 0.382683
v 0.831470 1.300000 0.555570
v 0.555570 1.300000 0.831470
v 0.382683 1.300000 0.923880
v -0.382683 1.300000 0.923880
v -0.555570 1.300000 0.831470
v -0.831470 1.300000 0.555570
v -0.923880 1.300000 0.382683
v -0.980785 1.300000 -0.195090
v -0.831470 1.300000 -0.555570
v -0.555570 1.300000 -0.831470
v -0.382683 1.300000 -0.923880
v 0.195090 1.300000 -0.980785
v 0.980785 1.300000 -0.195090
v 0.980785 1.300000 0.195090
v 0.195090 1.300000 0.980785
v -0.195090 1.300000 0.980785
v -0.980785 1.300000 0.195090
v -0.923880 1.300000 -0.382683
v -0.195090 1.300000 -0.980785
v -0.155883 1.500000 0.583679
v 0.155883 1.500000 0.583679
v -0.583679 1.500000 -0.155883
v -0.583679 1.500000 0.155883
v -0.531595 1.499726 0.294783
v -0.311072 1.499726 0.515158
v 0.583490 1.500000 0.155883
v 0.583282 1.500000 -0.155883
v 0.155883 1.500000 -0.584154
v -0.155883 1.500000 -0.583602
v -0.302291 1.500000 -0.522746
v -0.522830 1.500000 -0.302378
v 0.522763 1.500000 -0.302312
v 0.302729 1.500000 -0.523183
v 0.302265 1.500000 0.522718
v 0.523300 1.500000 0.302847
v 0.555570 1.100000 0.831470
v 0.831470 1.100000 0.555570
v 0.195090 1.100000 0.980785
v -0.195090 1.100000 0.980785
v -0.831470 1.100000 0.555570
v -0.555570 1.100000 0.831470
v 0.000000 1.100000 1.000000
v 0.707107 1.100000 0.707107
v -0.707107 1.100000 0.707107
v -0.980785 1.100000 -0.195090
v -1.000000 1.100000 -0.000000
v -0.980785 1.100000 0.195090
v -0.555570 1.100000 -0.831470
v -0.707107 1.100000 -0.707107
v -0.831470 1.100000 -0.555570
v 0.195090 1.100000 -0.980785
v 0.000000 1.100000 -1.000000
v -0.195090 1.100000 -0.980785
v 0.831470 1.100000 -0.555570
v 0.707107 1.100000 -0.707107
v 0.555570 1.100000 -0.831470
v 0.980785 1.100000 0.195090
v 1.000000 1.100000 -0.000000
v 0.980785 1.100000 -0.195090
v -0.155883 -0.500000 -0.783679
v -0.305776 -0.500000 -0.738210
v -0.443918 -0.500000 -0.664372
v -0.664371 -0.500000 -0.443919
v -0.738210 -0.500000 -0.305776
v -0.783679 -0.500000 -0.155883
v -0.783679 -0.500000 0.155883
v -0.738210 -0.500000 0.305776
v -0.664371 -0.500000 0.443918
v -0.443918 -0.500000 0.664371
v -0.305776 -0.500000 0.738210
v -0.155883 -0.500000 0.783679
v 0.155883 -0.500000 0.783679
v 0.305776 -0.500000 0.738210
v 0.443918 -0.500000 0.664371
v 0.664371 -0.500000 0.443918
v 0.738210 -0.500000 0.305776
v 0.783679 -0.500000 0.155883
v 0.783679 -0.500000 -0.155883
v 0.738210 -0.500000 -0.305776
v 0.664371 -0.500000 -0.443919
v 0.443918 -0.500000 -0.664372
v 0.305776 -0.500000 -0.738210
v 0.155883 -0.500000 -0.783679
v 0.382683 -0.300000 -0.923880
v 0.555570 -0.300000 -0.831470
v 0.831470 -0.300000 -0.555570
v 0.923880 -0.300000 -0.382683
v 0.923880 -0.300000 0.382683
v 0.831470 -0.300000 0.555570
v 0.555570 -0.300000 0.831470
v 0.382683 -0.300000 0.923880
v -0.382683 -0.300000 0.923880
v -0.555570 -0.300000 0.831470
v -0.831470 -0.300000 0.555570
v -0.923880 -0.300000 0.382683
v -0.980785 -0.300000 -0.195090
v -0.831470 -0.300000 -0.555570
v -0.555570 -0.300000 -0.831470
v -0.382683 -0.300000 -0.923880
v 0.195090 -0.300000 -0.980785
v 0.980785 -0.300000 -0.195090
v 0.980785 -0.300000 0.195090
v 0.195090 -0.300000 0.980785
v -0.195090 -0.300000 0.980785
v -0.980785 -0.300000 0.195090
v -0.923880 -0.300000 -0.382683
v -0.195090 -0.300000 -0.980785
v -0.155883 -0.500000 0.583679
v 0.155883 -0.500000 0.583679
v -0.583679 -0.500000 -0.155883
v -0.583679 -0.500000 0.155883
v -0.531595 -0.499726 0.294783
v -0.311072 -0.499726 0.515158
v 0.583490 -0.500000 0.155883
v 0.583282 -0.500000 -0.155883
v 0.155883 -0.500000 -0.584154
v -0.155883 -0.500000 -0.583602
v -0.302291 -0.500000 -0.522746
v -0.522830 -0.500000 -0.302378
v 0.522763 -0.500000 -0.302312
v 0.302729 -0.500000 -0.523183
v 0.302265 -0.500000 0.522718
v 0.523300 -0.500000 0.302847
v 0.555570 -0.100000 0.831470
v 0.831470 -0.100000 0.555570
v 0.195090 -0.100000 0.980785
v -0.195090 -0.100000 0.980785
v -0.831470 -0.100000 0.555570
v -0.555570 -0.100000 0.831470
v 0.000000 -0.100000 1.000000
v 0.707107 -0.100000 0.707107
v -0.707107 -0.100000 0.707107
v -0.980785 -0.100000 -0.195090
v -1.000000 -0.100000 -0.000000
v -0.980785 -0.100000 0.195090
v -0.555570 -0.100000 -0.831470
v -0.707107 -0.100000 -0.707107
v -0.831470 -0.100000 -0.555570
v 0.195090 -0.100000 -0.980785
v 0.000000 -0.100000 -1.000000
v -0.195090 -0.100000 -0.980785
v 0.831470 -0.100000 -0.555570
v 0.707107 -0.100000 -0.707107
v 0.555570 -0.100000 -0.831470
v 0.980785 -0.100000 0.195090
v 1.000000 -0.100000 -0.000000
v 0.980785 -0.100000 -0.195090
vn -0.0000 1.0000 -0.0000
vn 0.0008 1.0000 0.0001
vn 0.0013 1.0000 -0.0007
vn 0.0007 1.0000 -0.0012
vn -0.0001 1.0000 -0.0008
vn 0.3827 -0.0000 -0.9239
vn 0.4714 -0.0000 -0.8819
vn 0.8819 -0.0000 -0.4714
vn 0.9239 -0.0000 -0.3827
vn 0.9239 -0.0000 0.3827
vn 0.8819 -0.0000 0.4714
vn 0.4714 -0.0000 0.8819
vn 0.3827 -0.0000 0.9239
vn -0.3827 -0.0000 0.9239
vn -0.4714 -0.0000 0.8819
vn -0.8819 -0.0000 0.4714
vn -0.9239 -0.0000 0.3827
vn -0.9569 -0.0000 -0.2903
vn -0.8819 -0.0000 -0.4714
vn -0.4714 -0.0000 -0.8819
vn -0.3827 -0.0000 -0.9239
vn 0.2903 -0.0000 -0.9569
vn 0.9569 -0.0000 -0.2903
vn 0.9569 -0.0000 0.2903
vn 0.2903 -0.0000 0.9569
vn -0.2903 -0.0000 0.9569
vn -0.9569 -0.0000 0.2903
vn -0.9239 -0.0000 -0.3827
vn -0.2903 -0.0000 -0.9569
vn -0.0003 1.0000 -0.0026
vn -0.0002 1.0000 -0.0007
vn 0.0003 1.0000 0.0001
vn 0.0007 1.0000 0.0006
vn -0.0012 1.0000 0.0021
vn -0.0003 1.0000 -0.0006
vn -0.0002 1.0000 -0.0000
vn -0.0000 1.0000 0.0001
vn 0.0002 1.0000 0.0001
vn -0.0001 1.0000 0.0001
vn -0.0002 1.0000 -0.0002
vn 0.5280 -0.0000 0.8493
vn 0.8493 -0.0000 0.5280
vn 0.2272 -0.0000 0.9739
vn -0.2272 -0.0000 0.9739
vn -0.8493 -0.0000 0.5280
vn -0.5280 -0.0000 0.8493
vn -0.0000 -0.0000 1.0000
vn 0.7071 -0.0000 0.7071
vn -0.7071 -0.0000 0.7071
vn -0.9739 -0.0000 -0.2272
vn -1.0000 -0.0000 -0.0000
vn -0.9739 -0.0000 0.2272
vn -0.5280 -0.0000 -0.8493
vn -0.7071 -0.0000 -0.7071
vn -0.8493 -0.0000 -0.5280
vn 0.2272 -0.0000 -0.9739
vn -0.0000 -0.0000 -1.0000
vn -0.2272 -0.0000 -0.9739
vn 0.8493 -0.0000 -0.5280
vn 0.7071 -0.0000 -0.7071
vn 0.5280 -0.0000 -0.8493
vn 0.9739 -0.0000 0.2272
vn 1.0000 -0.0000 -0.0000
vn 0.9739 -0.0000 -0.2272
vn -0.0000 -1.0000 -0.0000
vn 0.0008 -1.0000 0.0001
vn 0.0013 -1.0000 -0.0007
vn 0.0007 -1.0000 -0.0012
vn -0.0001 -1.0000 -0.0008
vn -0.0003 -1.0000 -0.0026
vn -0.0002 -1.0000 -0.0007
vn 0.0003 -1.0000 0.0001
vn 0.0007 -1.0000 0.0006
vn -0.0012 -1.0000 0.0021
vn -0.0003 -1.0000 -0.0006
vn -0.0002 -1.0000 -0.0000
vn -0.0000 -1.0000 0.0001
vn 0.0002 -1.0000 0.0001
vn -0.0001 -1.0000 0.0001
vn -0.0002 -1.0000 -0.0002
vt 0.064088 0.261283
vt 0.010852 0.260019
vt 0.047734 0.224245
vt 0.396104 0.062500
vt 0.396104 0.437500
vt 0.343706 0.437500
vt 0.343706 0.062500
vt 0.441304 0.500000
vt 0.396104 0.500000
vt 0.833235 0.500000
vt 0.882609 0.500000
vt 0.833235 0.562500
vt 0.777736 0.937500
vt 0.777735 0.562500
vt 0.833235 0.937500
vt 0.286122 0.437500
vt 0.286122 0.062500
vt 0.225567 0.500000
vt 0.164367 0.500000
vt 0.164367 0.437500
vt 0.286122 0.500000
vt 0.164367 0.062500
vt 0.104873 0.437500
vt 0.104873 0.062500
vt 0.049374 0.437500
vt 0.049374 0.062500
vt 0.049374 0.500000
vt 0.000000 0.500000
vt 0.882609 0.500000
vt 0.837409 0.500000
vt 0.837409 0.437500
vt 0.837409 0.062500
vt 0.785010 0.437500
vt 0.785010 0.062500
vt 0.727427 0.437500
vt 0.727427 0.062500
vt 0.718242 0.937500
vt 0.718242 0.562500
vt 0.657042 1.000000
vt 0.718242 1.000000
vt 0.596487 1.000000
vt 0.596487 0.937500
vt 0.596487 0.500000
vt 0.657042 0.500000
vt 0.596487 0.562500
vt 0.486505 0.937500
vt 0.486505 0.562500
vt 0.538903 0.562500
vt 0.538903 0.937500
vt 0.049374 1.000000
vt 0.000000 1.000000
vt 0.049374 0.937500
vt 0.441304 0.500000
vt 0.486505 0.500000
vt 0.104873 0.562500
vt 0.104873 0.937500
vt 0.049374 0.562500
vt 0.164367 0.562500
vt 0.164367 0.937500
vt 0.286122 0.500000
vt 0.286122 0.562500
vt 0.225567 0.500000
vt 0.164367 0.500000
vt 0.343706 0.562500
vt 0.343706 0.937500
vt 0.286122 0.937500
vt 0.396104 0.562500
vt 0.396104 0.937500
vt 0.490678 0.000000
vt 0.490678 0.062500
vt 0.441305 0.000000
vt 0.396104 0.500000
vt 0.441304 0.500000
vt 0.546178 0.062500
vt 0.546178 0.437500
vt 0.490678 0.437500
vt 0.605671 0.062500
vt 0.605671 0.437500
vt 0.727427 0.500000
vt 0.666871 0.500000
vt 0.605671 0.500000
vt 0.064088 0.635364
vt 0.047734 0.598325
vt 0.010852 0.634100
vt 0.345605 0.081091
vt 0.363228 0.114061
vt 0.311908 0.114788
vt 0.374080 0.149836
vt 0.326460 0.149836
vt 0.326328 0.224245
vt 0.374080 0.224245
vt 0.363228 0.260019
vt 0.260019 0.010852
vt 0.292990 0.028475
vt 0.259193 0.062273
vt 0.311803 0.259188
vt 0.345605 0.292990
vt 0.224245 0.000000
vt 0.224245 0.047829
vt 0.259208 0.311823
vt 0.292990 0.345605
vt 0.260019 0.363228
vt 0.114061 0.010852
vt 0.149836 -0.000000
vt 0.149836 0.047779
vt 0.224245 0.326346
vt 0.224245 0.374080
vt 0.081091 0.028475
vt 0.114760 0.062144
vt 0.149836 0.326346
vt 0.149836 0.374080
vt 0.114061 0.363228
vt 0.062283 0.114899
vt 0.010852 0.114061
vt 0.028475 0.081090
vt 0.116684 0.313915
vt 0.081091 0.345605
vt 0.000000 0.149836
vt 0.047734 0.149836
vt 0.028475 0.292990
vt -0.000000 0.224245
vt 0.345605 0.455171
vt 0.311908 0.488868
vt 0.363228 0.488141
vt 0.326460 0.523916
vt 0.374080 0.523916
vt 0.326328 0.598325
vt 0.363228 0.634100
vt 0.374080 0.598325
vt 0.260019 0.384932
vt 0.259193 0.436353
vt 0.292990 0.402555
vt 0.311803 0.633268
vt 0.345605 0.667070
vt 0.224245 0.374080
vt 0.224245 0.421909
vt 0.259208 0.685904
vt 0.260019 0.737308
vt 0.292990 0.719685
vt 0.114061 0.384932
vt 0.149836 0.421859
vt 0.149836 0.374080
vt 0.224245 0.700426
vt 0.224245 0.748160
vt 0.081090 0.402555
vt 0.114760 0.436225
vt 0.149836 0.700426
vt 0.114061 0.737308
vt 0.149836 0.748160
vt 0.062283 0.488979
vt 0.010852 0.488141
vt 0.028475 0.455171
vt 0.116684 0.687995
vt 0.081090 0.719685
vt 0.000000 0.523916
vt 0.047734 0.523916
vt 0.028475 0.667070
vt -0.000000 0.598325
vt 0.718242 0.500000
vt 0.833235 1.000000
vt 0.882609 1.000000
vt 0.396104 0.000000
vt 0.441304 0.000000
vt 0.286122 0.000000
vt 0.225567 0.000000
vt 0.164367 0.000000
vt 0.441304 1.000000
vt 0.486505 1.000000
vt -0.000000 0.500000
vt 0.049374 0.500000
vt 0.286122 1.000000
vt 0.225567 1.000000
vt 0.164367 1.000000
vt 0.441304 1.000000
vt 0.396104 1.000000
vt 0.490678 0.500000
vt 0.441304 0.500000
vt 0.727427 -0.000000
vt 0.666871 -0.000000
vt 0.605671 -0.000000
vt 0.049374 0.000000
vt 0.000000 0.000000
vt 0.837409 -0.000000
vt 0.882609 -0.000000
s 1
usemtl Material
f 390/210/127 347/211/97 385/212/122
f 404/213/136 492/214/136 495/215/139 407/216/139
f 492/214/136 457/217/106 469/218/118
f 458/219/107 457/220/106 494/221/138
f 409/222/141 497/223/141 494/221/138 406/224/138
f 407/216/139 495/215/139 491/225/135 403/226/135
f 456/227/105 455/228/104 489/229/133
f 468/230/117 456/227/105 491/225/135
f 401/231/133 489/229/133 496/232/140 408/233/140
f 408/233/140 496/232/140 490/234/134 402/235/134
f 454/236/103 453/237/102 490/234/134
f 453/238/102 467/239/116 510/240/154
f 422/241/154 510/240/154 511/242/155 423/243/155
f 423/243/155 511/242/155 512/244/156 424/245/156
f 405/246/137 493/247/137 497/223/141 409/222/141
f 372/248/109 405/246/137 371/249/108
f 382/250/119 412/251/144 372/248/109
f 470/252/119 460/253/109 500/254/144
f 410/255/142 498/256/142 499/257/143 411/258/143
f 462/259/111 471/260/120 503/261/147
f 471/262/120 461/263/110 498/256/142
f 414/264/146 502/265/146 503/261/147 415/266/147
f 413/267/145 501/268/145 502/265/146 414/264/146
f 384/269/121 418/270/150 376/271/113
f 376/271/113 413/267/145 375/272/112
f 417/273/149 505/274/149 506/275/150 418/270/150
f 416/276/148 504/277/148 505/274/149 417/273/149
f 362/278/99 421/279/153 361/280/98
f 377/281/114 361/282/98 416/276/148
f 420/283/152 508/284/152 509/285/153 421/279/153
f 419/286/151 507/287/151 508/284/152 420/283/152
f 466/288/115 452/289/101 512/244/156
f 452/289/101 451/290/100 507/287/151
f 478/291/167 473/292/162 435/293/161
f 358/294/93 359/295/93 398/296/93
f 359/295/93 360/297/93 393/298/93
f 359/295/93 393/298/93 398/296/93
f 394/299/93 337/300/93 338/301/93
f 398/296/93 393/298/93 394/299/93
f 356/302/93 357/303/93 397/304/131
f 397/304/131 398/296/93 394/299/93
f 394/299/93 338/301/93 395/305/129
f 338/301/93 339/306/93 395/305/129
f 355/307/93 356/302/93 392/308/128
f 356/302/93 397/304/131 392/308/128
f 397/304/131 394/299/93 395/305/129
f 396/309/130 340/310/93 341/311/93
f 397/304/131 395/305/129 390/210/127
f 395/305/129 396/309/130 390/210/127
f 353/312/93 354/313/93 391/314/128
f 391/314/128 392/308/128 390/210/127
f 392/308/128 397/304/131 390/210/127
f 396/309/130 341/311/93 387/315/124
f 341/311/93 342/316/93 387/315/124
f 352/317/93 353/312/93 400/318/93
f 353/312/93 391/314/128 400/318/93
f 388/319/125 343/320/93 344/321/94
f 396/309/130 387/315/124 390/210/127
f 387/315/124 388/319/125 390/210/127
f 400/318/93 391/314/128 399/322/132
f 399/322/132 391/314/128 390/210/127
f 350/323/93 351/324/93 399/322/132
f 388/319/125 344/321/94 389/325/126
f 344/321/94 345/326/95 389/325/126
f 349/327/93 350/323/93 386/328/123
f 350/323/93 399/322/132 386/328/123
f 390/210/127 346/329/96 347/211/97
f 388/319/125 389/325/126 390/210/127
f 386/328/123 399/322/132 390/210/127
f 347/211/97 348/330/93 385/212/122
f 385/212/122 386/328/123 390/210/127
f 446/331/157 486/332/157 447/333/157
f 447/333/157 481/334/157 448/335/157
f 447/333/157 486/332/157 481/334/157
f 482/336/157 426/337/157 425/338/157
f 486/332/157 482/336/157 481/334/157
f 444/339/157 485/340/171 445/341/157
f 485/340/171 482/336/157 486/332/157
f 482/336/157 483/342/169 426/337/157
f 426/337/157 483/342/169 427/343/157
f 443/344/157 480/345/168 444/339/157
f 444/339/157 480/345/168 485/340/171
f 485/340/171 483/342/169 482/336/157
f 484/346/170 429/347/157 428/348/157
f 485/340/171 478/291/167 483/342/169
f 483/342/169 478/291/167 484/346/170
f 441/349/157 479/350/168 442/351/157
f 479/350/168 478/291/167 480/345/168
f 480/345/168 478/291/167 485/340/171
f 484/346/170 475/352/164 429/347/157
f 429/347/157 475/352/164 430/353/157
f 440/354/157 488/355/157 441/349/157
f 441/349/157 488/355/157 479/350/168
f 476/356/165 432/357/158 431/358/157
f 484/346/170 478/291/167 475/352/164
f 475/352/164 478/291/167 476/356/165
f 488/355/157 487/359/172 479/350/168
f 487/359/172 478/291/167 479/350/168
f 438/360/157 487/359/172 439/361/157
f 476/356/165 477/362/166 432/357/158
f 432/357/158 477/362/166 433/363/159
f 437/364/157 474/365/163 438/360/157
f 438/360/157 474/365/163 487/359/172
f 478/291/167 435/293/161 434/366/160
f 476/356/165 478/291/167 477/362/166
f 474/365/163 478/291/167 487/359/172
f 435/293/161 473/292/162 436/367/157
f 473/292/162 478/291/167 474/365/163
f 460/253/109 372/248/109 412/251/144 500/254/144
f 411/258/143 499/257/143 500/254/144 412/251/144
f 460/253/109 459/368/108 493/247/137
f 493/247/137 405/246/137 372/248/109 460/253/109
f 370/369/107 406/224/138 369/370/106
f 381/371/118 369/372/106 404/213/136
f 492/214/136 404/213/136 369/372/106 457/217/106
f 457/220/106 369/370/106 406/224/138 494/221/138
f 380/373/117 403/226/135 368/374/105
f 368/374/105 401/231/133 367/375/104
f 456/227/105 489/229/133 401/231/133 368/374/105
f 491/225/135 456/227/105 368/374/105 403/226/135
f 383/376/120 410/255/142 373/377/110
f 383/378/120 374/379/111 415/266/147
f 471/260/120 383/378/120 415/266/147 503/261/147
f 498/256/142 410/255/142 383/376/120 471/262/120
f 472/380/121 464/381/113 506/275/150
f 464/381/113 463/382/112 501/268/145
f 501/268/145 413/267/145 376/271/113 464/381/113
f 464/381/113 376/271/113 418/270/150 506/275/150
f 449/383/98 465/384/114 504/277/148
f 450/385/99 449/386/98 509/285/153
f 449/386/98 361/280/98 421/279/153 509/285/153
f 504/277/148 416/276/148 361/282/98 449/383/98
f 378/387/115 424/245/156 364/388/101
f 364/388/101 419/286/151 363/389/100
f 507/287/151 419/286/151 364/388/101 452/289/101
f 512/244/156 452/289/101 364/388/101 424/245/156
f 366/390/103 402/235/134 365/391/102
f 379/392/116 365/393/102 422/241/154
f 453/238/102 510/240/154 422/241/154 365/393/102
f 490/234/134 453/237/102 365/391/102 402/235/134