mtllib dispel_gummi_inner_corner.mtl
o InnerCorner
v 1.000000 1.000000 -1.000000
v 1.000000 1.000000 1.000000
v 1.000000 -1.000000 1.000000
v 1.000000 -1.000000 -1.000000
v 1.002000 1.000000 -1.000000
v 1.002000 1.000000 1.000000
v 1.002000 -1.000000 1.000000
v 1.002000 -1.000000 -1.000000
v 1.000000 -1.000000 -1.000000
v 1.000000 -1.000000 1.000000
v -1.000000 -1.000000 1.000000
v -1.000000 -1.000000 -1.000000
v 1.000000 -1.002000 -1.000000
v 1.000000 -1.002000 1.000000
v -1.000000 -1.002000 1.000000
v -1.000000 -1.002000 -1.000000
v 1.000000 1.000000 -1.000000
v 1.000000 -1.000000 -1.000000
v -1.000000 -1.000000 -1.000000
v -1.000000 1.000000 -1.000000
v 1.000000 1.000000 -1.002000
v 1.000000 -1.000000 -1.002000
v -1.000000 -1.000000 -1.002000
v -1.000000 1.000000 -1.002000
v -1.000000 -1.000000 -1.000000
v -1.000000 -1.000000 1.000000
v -1.000000 1.000000 -1.000000
v -1.002000 -0.866667 -0.399252
v -1.002000 -1.000000 -1.000000
v -1.002000 -0.866667 0.120425
v -1.002000 -1.000000 1.000000
v -1.002000 0.733333 -0.866667
v -1.002000 0.093643 -0.226983
v -1.002000 -1.000000 -1.000000
v -1.002000 0.733333 -0.866667
v -1.002000 1.000000 -1.000000
v -1.002000 -1.000000 -1.000000
v -1.002000 -1.000000 1.000000
v -1.002000 -0.866667 0.733333
v -1.002000 -1.000000 1.000000
v -1.002000 1.000000 -1.000000
v -1.002000 0.733333 -0.866667
v -1.002000 -0.866667 -0.399252
v -1.002000 -0.866667 0.120425
v -1.002000 -0.587874 0.120425
v -1.002000 -0.418097 -0.866667
v -1.002000 -0.418097 -0.616660
v -1.002000 0.096188 -0.616660
v -1.002000 -0.247014 0.113674
v -1.002000 0.093643 -0.226983
v -1.002000 -0.088157 -0.408783
v -1.002000 -0.866667 -0.399252
v -1.002000 -0.866667 -0.866667
v -1.002000 -1.000000 -1.000000
v -1.002000 -1.000000 -1.000000
v -1.002000 -0.866667 0.733333
v -1.002000 -0.866667 0.120425
v -1.002000 0.093643 -0.226983
v -1.002000 -0.247014 0.113674
v -1.002000 -1.000000 1.000000
v -1.002000 -0.247014 0.113674
v -1.002000 -0.866667 0.733333
v -1.002000 -1.000000 1.000000
v -1.002000 -0.866667 -0.399252
v -1.002000 -0.587874 0.120425
v -1.002000 -0.587874 -0.399252
v -1.002000 -0.418097 -0.866667
v -1.002000 0.096188 -0.616660
v -1.002000 0.096188 -0.866667
v -1.002000 -0.247014 0.113674
v -1.002000 -0.088157 -0.408783
v -1.002000 -0.428814 -0.068125
v -1.002000 0.096188 -0.866667
v -1.002000 0.733333 -0.866667
v -1.002000 -1.000000 -1.000000
v -1.002000 -1.000000 -1.000000
v -1.002000 -0.866667 -0.866667
v -1.002000 -0.418097 -0.866667
v -1.002000 -0.418097 -0.866667
v -1.002000 0.096188 -0.866667
v -1.002000 -1.000000 -1.000000
v -1.000000 1.000000 -1.000000
v 1.000000 1.000000 1.000000
v 1.000000 1.000000 -1.000000
v 0.399252 1.002000 -0.866667
v 1.000000 1.002000 -1.000000
v -0.120425 1.002000 -0.866667
v -1.000000 1.002000 -1.000000
v 0.866667 1.002000 0.733333
v 0.226983 1.002000 0.093643
v 1.000000 1.002000 -1.000000
v 0.866667 1.002000 0.733333
v 1.000000 1.002000 1.000000
v 1.000000 1.002000 -1.000000
v -1.000000 1.002000 -1.000000
v -0.733333 1.002000 -0.866667
v -1.000000 1.002000 -1.000000
v 1.000000 1.002000 1.000000
v 0.866667 1.002000 0.733333
v 0.399252 1.002000 -0.866667
v -0.120425 1.002000 -0.866667
v -0.120425 1.002000 -0.587874
v 0.866667 1.002000 -0.418097
v 0.616660 1.002000 -0.418097
v 0.616660 1.002000 0.096188
v -0.113674 1.002000 -0.247014
v 0.226983 1.002000 0.093643
v 0.408783 1.002000 -0.088157
v 0.399252 1.002000 -0.866667
v 0.866667 1.002000 -0.866667
v 1.000000 1.002000 -1.000000
v 1.000000 1.002000 -1.000000
v -0.733333 1.002000 -0.866667
v -0.120425 1.002000 -0.866667
v 0.226983 1.002000 0.093643
v -0.113674 1.002000 -0.247014
v -1.000000 1.002000 -1.000000
v -0.113674 1.002000 -0.247014
v -0.733333 1.002000 -0.866667
v -1.000000 1.002000 -1.000000
v 0.399252 1.002000 -0.866667
v -0.120425 1.002000 -0.587874
v 0.399252 1.002000 -0.587874
v 0.866667 1.002000 -0.418097
v 0.616660 1.002000 0.096188
v 0.866667 1.002000 0.096188
v -0.113674 1.002000 -0.247014
v 0.408783 1.002000 -0.088157
v 0.068125 1.002000 -0.428814
v 0.866667 1.002000 0.096188
v 0.866667 1.002000 0.733333
v 1.000000 1.002000 -1.000000
v 1.000000 1.002000 -1.000000
v 0.866667 1.002000 -0.866667
v 0.866667 1.002000 -0.418097
v 0.866667 1.002000 -0.418097
v 0.866667 1.002000 0.096188
v 1.000000 1.002000 -1.000000
v -1.000000 -1.000000 1.000000
v 1.000000 -1.000000 1.000000
v 1.000000 1.000000 1.000000
v -0.120425 -0.866667 1.002000
v 1.000000 -1.000000 1.002000
v 0.399252 -0.866667 1.002000
v 0.226983 0.093643 1.002000
v 0.866667 0.733333 1.002000
v -1.000000 -1.000000 1.002000
v 1.000000 1.000000 1.002000
v 0.866667 0.733333 1.002000
v 1.000000 -1.000000 1.002000
v -0.733333 -0.866667 1.002000
v -1.000000 -1.000000 1.002000
v 1.000000 -1.000000 1.002000
v 0.866667 0.733333 1.002000
v 1.000000 1.000000 1.002000
v -1.000000 -1.000000 1.002000
v -0.120425 -0.587874 1.002000
v -0.120425 -0.866667 1.002000
v 0.399252 -0.866667 1.002000
v 0.616660 0.096188 1.002000
v 0.616660 -0.418097 1.002000
v 0.866667 -0.418097 1.002000
v 0.408783 -0.088157 1.002000
v 0.226983 0.093643 1.002000
v -0.113674 -0.247014 1.002000
v 1.000000 -1.000000 1.002000
v 0.866667 -0.866667 1.002000
v 0.399252 -0.866667 1.002000
v -0.120425 -0.866667 1.002000
v -0.733333 -0.866667 1.002000
v 1.000000 -1.000000 1.002000
v -1.000000 -1.000000 1.002000
v -0.113674 -0.247014 1.002000
v 0.226983 0.093643 1.002000
v -1.000000 -1.000000 1.002000
v -0.733333 -0.866667 1.002000
v -0.113674 -0.247014 1.002000
v 0.399252 -0.587874 1.002000
v -0.120425 -0.587874 1.002000
v 0.399252 -0.866667 1.002000
v 0.866667 0.096188 1.002000
v 0.616660 0.096188 1.002000
v 0.866667 -0.418097 1.002000
v 0.068125 -0.428814 1.002000
v 0.408783 -0.088157 1.002000
v -0.113674 -0.247014 1.002000
v 1.000000 -1.000000 1.002000
v 0.866667 0.733333 1.002000
v 0.866667 0.096188 1.002000
v 0.866667 -0.418097 1.002000
v 0.866667 -0.866667 1.002000
v 1.000000 -1.000000 1.002000
v 1.000000 -1.000000 1.002000
v 0.866667 0.096188 1.002000
v 0.866667 -0.418097 1.002000
v -1.000000 1.000000 -1.000000
v -1.000000 -1.000000 1.000000
v 1.000000 1.000000 1.000000
v -1.001155 -0.998845 1.001155
v -0.867924 -0.093729 0.229375
v -0.867936 0.246924 -0.111277
v -0.224359 -0.088715 0.867822
v -0.867822 -0.732178 0.867822
v 0.998845 1.001155 1.001155
v -1.001155 1.001155 -0.998845
v -1.001155 -0.998845 1.001155
v -0.867822 0.867822 -0.732178
v -1.001155 -0.998845 1.001155
v 0.998845 1.001155 1.001155
v -0.867822 -0.732178 0.867822
v -1.001155 1.001155 -0.998845
v -0.231712 0.867835 -0.096199
v 0.108945 0.867836 0.244460
v 0.732178 0.867822 0.867822
v 0.998845 1.001155 1.001155
v -1.001155 1.001155 -0.998845
v 0.116296 0.251935 0.867807
v 0.011551 0.356680 0.657666
v -0.224359 -0.088715 0.867822
v 0.003765 0.658130 0.349640
v 0.108945 0.867836 0.244460
v -0.336897 0.658127 0.008997
v -0.867924 -0.093729 0.229375
v -0.657783 0.011016 0.334120
v -0.867936 0.246924 -0.111277
v -1.001155 -0.998845 1.001155
v -0.867822 -0.732178 0.867822
v -0.867924 -0.093729 0.229375
v -0.867936 0.246924 -0.111277
v -0.867822 0.867822 -0.732178
v -1.001155 -0.998845 1.001155
v 0.998845 1.001155 1.001155
v 0.116296 0.251935 0.867807
v -0.224359 -0.088715 0.867822
v 0.998845 1.001155 1.001155
v 0.732178 0.867822 0.867822
v 0.116296 0.251935 0.867807
v -1.001155 1.001155 -0.998845
v -0.867822 0.867822 -0.732178
v -0.231712 0.867835 -0.096199
v 0.108945 0.867836 0.244460
v 0.732178 0.867822 0.867822
v -1.001155 1.001155 -0.998845
v 0.011551 0.356680 0.657666
v -0.329107 0.016022 0.657666
v -0.224359 -0.088715 0.867822
v 0.108945 0.867836 0.244460
v -0.231712 0.867835 -0.096199
v -0.336897 0.658127 0.008997
v -0.657783 0.011016 0.334120
v -0.657781 0.351671 -0.006540
v -0.867936 0.246924 -0.111277
vn 1.0000 0.0000 0.0000
vn 1.0000 0.0000 0.0000
vn -0.0000 -1.0000 -0.0000
vn -0.0000 -1.0000 -0.0000
vn -0.0000 -0.0000 -1.0000
vn -0.0000 -0.0000 -1.0000
vn -1.0000 -0.0000 -0.0000
vn -1.0000 -0.0000 -0.0000
vn -1.0000 -0.0000 -0.0000
vn -1.0000 -0.0000 -0.0000
vn -1.0000 -0.0000 -0.0000
vn -1.0000 -0.0000 -0.0000
vn -1.0000 -0.0000 -0.0000
vn -1.0000 -0.0000 -0.0000
vn -1.0000 -0.0000 -0.0000
vn -1.0000 -0.0000 -0.0000
vn -1.0000 -0.0000 -0.0000
vn -1.0000 -0.0000 -0.0000
vn -1.0000 -0.0000 -0.0000
vn -1.0000 -0.0000 -0.0000
vn -1.0000 -0.0000 -0.0000
vn -1.0000 -0.0000 -0.0000
vn -1.0000 -0.0000 -0.0000
vn -1.0000 -0.0000 -0.0000
vn -1.0000 -0.0000 -0.0000
vn 0.0000 1.0000 0.0000
vn 0.0000 1.0000 0.0000
vn 0.0000 1.0000 0.0000
vn 0.0000 1.0000 0.0000
vn 0.0000 1.0000 0.0000
vn 0.0000 1.0000 0.0000
vn 0.0000 1.0000 0.0000
vn 0.0000 1.0000 0.0000
vn 0.0000 1.0000 0.0000
vn 0.0000 1.0000 0.0000
vn 0.0000 1.0000 0.0000
vn 0.0000 1.0000 0.0000
vn 0.0000 1.0000 0.0000
vn 0.0000 1.0000 0.0000
vn 0.0000 1.0000 0.0000
vn 0.0000 1.0000 0.0000
vn 0.0000 1.0000 0.0000
vn 0.0000 1.0000 0.0000
vn 0.0000 1.0000 0.0000
vn 0.0000 0.0000 1.0000
vn 0.0000 0.0000 1.0000
vn 0.0000 0.0000 1.0000
vn 0.0000 0.0000 1.0000
vn 0.0000 0.0000 1.0000
vn 0.0000 0.0000 1.0000
vn 0.0000 0.0000 1.0000
vn 0.0000 0.0000 1.0000
vn 0.0000 0.0000 1.0000
vn 0.0000 0.0000 1.0000
vn 0.0000 0.0000 1.0000
vn 0.0000 0.0000 1.0000
vn 0.0000 0.0000 1.0000
vn 0.0000 0.0000 1.0000
vn 0.0000 0.0000 1.0000
vn 0.0000 0.0000 1.0000
vn 0.0000 0.0000 1.0000
vn 0.0000 0.0000 1.0000
vn 0.0000 0.0000 1.0000
vn -0.5774 0.5774 0.5774
vn -0.5774 0.5774 0.5774
vn -0.5774 0.5774 0.5774
vn -0.5774 0.5774 0.5774
vn -0.5774 0.5774 0.5774
vn -0.5774 0.5774 0.5774
vn -0.5774 0.5774 0.5774
vn -0.5774 0.5774 0.5774
vn -0.5774 0.5774 0.5774
vn -0.5774 0.5774 0.5774
vn -0.5774 0.5774 0.5774
vn -0.5774 0.5774 0.5774
vn -0.5774 0.5774 0.5774
vn -0.5774 0.5774 0.5774
vn -0.5774 0.5774 0.5774
vn -0.5774 0.5774 0.5774
vn -0.5774 0.5774 0.5774
vn -0.5774 0.5774 0.5774
vn -0.5774 0.5774 0.5774
vt 1.000000 0.000000
vt 1.000000 1.000000
vt 0.000000 1.000000
vt 0.000000 0.000000
vt 1.000000 0.000000
vt 1.000000 1.000000
vt 0.000000 1.000000
vt 0.000000 0.000000
vt 1.000000 0.000000
vt 1.000000 1.000000
vt 0.000000 1.000000
vt 0.000000 0.000000
vt 1.000000 0.000000
vt 1.000000 1.000000
vt 0.000000 1.000000
vt 0.000000 0.000000
vt 0.000000 1.000000
vt 0.000000 0.000000
vt 1.000000 0.000000
vt 1.000000 1.000000
vt 0.000000 1.000000
vt 0.000000 0.000000
vt 1.000000 0.000000
vt 1.000000 1.000000
vt 1.000000 0.000000
vt 1.000000 1.000000
vt 0.000000 0.000000
vt 0.933334 0.300374
vt 1.000000 0.000000
vt 0.933334 0.560213
vt 1.000000 1.000000
vt 0.133333 0.066667
vt 0.453179 0.386509
vt 1.000000 0.000000
vt 0.133333 0.066667
vt 0.000000 0.000000
vt 1.000000 0.000000
vt 1.000000 1.000000
vt 0.933334 0.866667
vt 1.000000 1.000000
vt 0.000000 0.000000
vt 0.133333 0.066667
vt 0.933334 0.300374
vt 0.933334 0.560213
vt 0.793937 0.560213
vt 0.709048 0.066667
vt 0.709048 0.191670
vt 0.451906 0.191670
vt 0.623507 0.556837
vt 0.453179 0.386509
vt 0.544079 0.295608
vt 0.933334 0.300374
vt 0.933334 0.066667
vt 1.000000 0.000000
vt 1.000000 0.000000
vt 0.933334 0.866667
vt 0.933334 0.560213
vt 0.453179 0.386509
vt 0.623507 0.556837
vt 1.000000 1.000000
vt 0.623507 0.556837
vt 0.933334 0.866667
vt 1.000000 1.000000
vt 0.933334 0.300374
vt 0.793937 0.560213
vt 0.793937 0.300374
vt 0.709048 0.066667
vt 0.451906 0.191670
vt 0.451906 0.066667
vt 0.623507 0.556837
vt 0.544079 0.295608
vt 0.714407 0.465938
vt 0.451906 0.066667
vt 0.133333 0.066667
vt 1.000000 0.000000
vt 1.000000 0.000000
vt 0.933334 0.066667
vt 0.709048 0.066667
vt 0.709048 0.066667
vt 0.451906 0.066667
vt 1.000000 0.000000
vt 1.000000 0.000000
vt 0.000000 1.000000
vt 0.000000 0.000000
vt 0.300374 0.066666
vt 0.000000 -0.000000
vt 0.560213 0.066666
vt 1.000000 0.000000
vt 0.066667 0.866666
vt 0.386509 0.546821
vt 0.000000 -0.000000
vt 0.066667 0.866666
vt 0.000000 1.000000
vt 0.000000 -0.000000
vt 1.000000 0.000000
vt 0.866667 0.066666
vt 1.000000 0.000000
vt 0.000000 1.000000
vt 0.066667 0.866666
vt 0.300374 0.066666
vt 0.560213 0.066666
vt 0.560213 0.206063
vt 0.066667 0.290951
vt 0.191670 0.290951
vt 0.191670 0.548094
vt 0.556837 0.376493
vt 0.386509 0.546821
vt 0.295609 0.455921
vt 0.300374 0.066666
vt 0.066667 0.066666
vt 0.000000 -0.000000
vt 0.000000 -0.000000
vt 0.866667 0.066666
vt 0.560213 0.066666
vt 0.386509 0.546821
vt 0.556837 0.376493
vt 1.000000 0.000000
vt 0.556837 0.376493
vt 0.866667 0.066666
vt 1.000000 0.000000
vt 0.300374 0.066666
vt 0.560213 0.206063
vt 0.300374 0.206063
vt 0.066667 0.290951
vt 0.191670 0.548094
vt 0.066666 0.548094
vt 0.556837 0.376493
vt 0.295609 0.455921
vt 0.465938 0.285593
vt 0.066666 0.548094
vt 0.066667 0.866666
vt 0.000000 -0.000000
vt 0.000000 -0.000000
vt 0.066667 0.066666
vt 0.066667 0.290951
vt 0.066667 0.290951
vt 0.066666 0.548094
vt 0.000000 -0.000000
vt 0.000000 0.000000
vt 1.000000 0.000000
vt 1.000000 1.000000
vt 0.439787 0.066667
vt 1.000000 0.000000
vt 0.699626 0.066667
vt 0.613491 0.546821
vt 0.933334 0.866667
vt 0.000000 0.000000
vt 1.000000 1.000000
vt 0.933334 0.866667
vt 1.000000 0.000000
vt 0.133333 0.066667
vt 0.000000 0.000000
vt 1.000000 0.000000
vt 0.933334 0.866667
vt 1.000000 1.000000
vt 0.000000 0.000000
vt 0.439787 0.206063
vt 0.439787 0.066667
vt 0.699626 0.066667
vt 0.808330 0.548094
vt 0.808330 0.290952
vt 0.933334 0.290952
vt 0.704392 0.455921
vt 0.613491 0.546821
vt 0.443163 0.376493
vt 1.000000 0.000000
vt 0.933334 0.066667
vt 0.699626 0.066667
vt 0.439787 0.066667
vt 0.133333 0.066667
vt 1.000000 0.000000
vt 0.000000 0.000000
vt 0.443163 0.376493
vt 0.613491 0.546821
vt 0.000000 0.000000
vt 0.133333 0.066667
vt 0.443163 0.376493
vt 0.699626 0.206063
vt 0.439787 0.206063
vt 0.699626 0.066667
vt 0.933334 0.548094
vt 0.808330 0.548094
vt 0.933334 0.290952
vt 0.534062 0.285593
vt 0.704392 0.455921
vt 0.443163 0.376493
vt 1.000000 0.000000
vt 0.933334 0.866667
vt 0.933334 0.548094
vt 0.933334 0.290952
vt 0.933334 0.066667
vt 1.000000 0.000000
vt 1.000000 0.000000
vt 0.933334 0.548094
vt 0.933334 0.290952
vt 0.500000 0.000000
vt 1.000000 1.000000
vt 0.000000 1.000000
vt 1.000000 1.000000
vt 0.247022 0.306216
vt 0.000000 0.000000
vt 0.642521 0.000000
vt 1.000000 0.000000
vt 0.000000 1.000000
vt 0.000000 0.000000
vt 1.000000 1.000000
vt 0.000000 0.133333
vt 1.000000 1.000000
vt 0.000000 1.000000
vt 0.900000 0.000000
vt 1.000000 0.000000
vt 0.348756 0.726014
vt 0.000000 1.000000
vt 0.200000 0.933333
vt 0.000000 1.000000
vt 1.000000 0.000000
vt 0.369811 0.826594
vt 0.369811 0.698042
vt 0.610688 0.826599
vt 0.265985 0.509168
vt 0.154656 0.444892
vt 0.386428 0.300565
vt 0.839996 0.435610
vt 0.728667 0.499886
vt 0.719561 0.227002
vt 1.000000 1.000000
vt 0.614772 0.827247
vt 0.000000 0.000000
vt 0.310506 0.358190
vt 0.000000 0.000000
vt 1.000000 1.000000
vt 0.000000 1.000000
vt 0.705455 0.000000
vt 1.000000 0.000062
vt 0.000000 1.000000
vt 0.245133 0.000062
vt 1.000000 0.000000
vt 1.000000 0.000000
vt 1.000000 0.295415
vt 0.000000 1.000000
vt 0.389512 0.666077
vt 0.000000 1.000000
vt 1.000000 0.000000
vt 0.369811 0.698042
vt 0.610692 0.698042
vt 0.610688 0.826599
vt 0.154656 0.444892
vt 0.275097 0.236283
vt 0.386428 0.300565
vt 0.728667 0.499886
vt 0.608226 0.291277
vt 0.719561 0.227002
s 0
usemtl Material
f 1/1/1 2/2/1 3/3/1
f 1/1/1 3/3/1 4/4/1
usemtl Material3
f 5/5/2 6/6/2 7/7/2
f 5/5/2 7/7/2 8/8/2
usemtl Material
f 9/9/3 10/10/3 11/11/3
f 9/9/3 11/11/3 12/12/3
usemtl Material3
f 13/13/4 14/14/4 15/15/4
f 13/13/4 15/15/4 16/16/4
usemtl Material
f 17/17/5 18/18/5 19/19/5
f 17/17/5 19/19/5 20/20/5
usemtl Material3
f 21/21/6 22/22/6 23/23/6
f 21/21/6 23/23/6 24/24/6
usemtl Material
f 25/25/7 26/26/7 27/27/7
usemtl Material2
f 28/28/8 29/29/8 30/30/8
f 31/31/9 32/32/9 33/33/9
f 34/34/10 35/35/10 36/36/10
f 37/37/11 38/38/11 39/39/11
f 40/40/12 41/41/12 42/42/12
f 43/43/13 44/44/13 45/45/13
f 46/46/14 47/47/14 48/48/14
f 49/49/15 50/50/15 51/51/15
f 52/52/16 53/53/16 54/54/16
f 55/55/17 56/56/17 57/57/17
f 58/58/18 59/59/18 60/60/18
f 61/61/19 62/62/19 63/63/19
f 64/64/20 65/65/20 66/66/20
f 67/67/21 68/68/21 69/69/21
f 70/70/22 71/71/22 72/72/22
f 73/73/23 74/74/23 75/75/23
f 76/76/24 77/77/24 78/78/24
f 79/79/25 80/80/25 81/81/25
usemtl Material
f 82/82/26 83/83/26 84/84/26
usemtl Material2
f 85/85/27 86/86/27 87/87/27
f 88/88/28 89/89/28 90/90/28
f 91/91/29 92/92/29 93/93/29
f 94/94/30 95/95/30 96/96/30
f 97/97/31 98/98/31 99/99/31
f 100/100/32 101/101/32 102/102/32
f 103/103/33 104/104/33 105/105/33
f 106/106/34 107/107/34 108/108/34
f 109/109/35 110/110/35 111/111/35
f 112/112/36 113/113/36 114/114/36
f 115/115/37 116/116/37 117/117/37
f 118/118/38 119/119/38 120/120/38
f 121/121/39 122/122/39 123/123/39
f 124/124/40 125/125/40 126/126/40
f 127/127/41 128/128/41 129/129/41
f 130/130/42 131/131/42 132/132/42
f 133/133/43 134/134/43 135/135/43
f 136/136/44 137/137/44 138/138/44
usemtl Material
f 139/139/45 140/140/45 141/141/45
usemtl Material2
f 142/142/46 143/143/46 144/144/46
f 145/145/47 146/146/47 147/147/47
f 148/148/48 149/149/48 150/150/48
f 151/151/49 152/152/49 153/153/49
f 154/154/50 155/155/50 156/156/50
f 157/157/51 158/158/51 159/159/51
f 160/160/52 161/161/52 162/162/52
f 163/163/53 164/164/53 165/165/53
f 166/166/54 167/167/54 168/168/54
f 169/169/55 170/170/55 171/171/55
f 172/172/56 173/173/56 174/174/56
f 175/175/57 176/176/57 177/177/57
f 178/178/58 179/179/58 180/180/58
f 181/181/59 182/182/59 183/183/59
f 184/184/60 185/185/60 186/186/60
f 187/187/61 188/188/61 189/189/61
f 190/190/62 191/191/62 192/192/62
f 193/193/63 194/194/63 195/195/63
usemtl Material
f 196/196/64 197/197/64 198/198/64
usemtl Material2
f 199/199/65 200/200/65 201/201/65
f 202/202/66 203/203/66 204/204/66
f 205/205/67 206/206/67 207/207/67
f 208/208/68 209/209/68 210/210/68
f 211/211/69 212/212/69 213/213/69
f 214/214/70 215/215/70 216/216/70
f 217/217/71 218/218/71 219/219/71
f 220/220/72 221/221/72 222/222/72
f 223/223/73 224/224/73 225/225/73
f 226/226/74 227/227/74 228/228/74
f 229/229/75 230/230/75 231/231/75
f 232/232/76 233/233/76 234/234/76
f 235/235/77 236/236/77 237/237/77
f 238/238/78 239/239/78 240/240/78
f 241/241/79 242/242/79 243/243/79
f 244/244/80 245/245/80 246/246/80
f 247/247/81 248/248/81 249/249/81
f 250/250/82 251/251/82 252/252/82
