mtllib dispel_gummi_wedge.mtl
o Wedge2
v 0.000000 -1.000000 -1.000000
v -1.000000 0.000000 1.000000
v -0.850000 -1.000000 -0.850000
v -1.000000 1.000000 -1.000000
v 0.000000 -1.000000 1.000000
v 0.850000 -1.000000 -0.850000
v -1.000000 1.000000 1.000000
v -0.855523 0.644477 -1.000000
v 0.800000 -0.800000 -0.800000
v 0.800000 -0.800000 0.800000
v -0.855523 -0.855523 -1.000000
v 0.644477 -0.855523 -1.000000
v -0.800000 0.800000 0.800000
v -0.800000 0.800000 -0.800000
v -1.000000 -1.000000 1.000000
v -0.855523 0.644477 1.000000
v 1.000000 -1.000000 1.000000
v 0.644477 -0.855523 1.000000
v -1.000000 -0.850000 -0.850000
v -0.850000 -1.000000 0.850000
v 0.850000 -1.000000 0.850000
v 1.000000 -1.000000 -1.000000
v -1.000000 -1.000000 -1.000000
v -1.000000 -0.850000 0.850000
v -1.000000 0.850000 0.850000
v -1.000000 0.850000 -0.850000
v -0.800000 0.800000 0.500000
v -0.800000 0.800000 0.100000
v -0.800000 0.800000 -0.100000
v -0.800000 0.800000 -0.500000
v -0.658858 0.658858 0.493155
v -1.000000 0.850000 0.500000
v -1.000000 0.650322 0.500000
v -0.658487 0.658487 0.100000
v -0.658724 0.658724 -0.100000
v -0.658916 0.658916 -0.500000
v -1.000000 1.000000 -0.000000
v -1.000000 0.850000 0.100000
v -1.000000 0.649795 0.100000
v -1.000000 0.850000 -0.100000
v -1.000000 0.850000 -0.500000
v -1.000000 0.650000 -0.100000
v -1.000000 0.650000 -0.500000
v -0.500000 0.500000 0.800000
v 0.100000 -0.100000 0.800000
v -0.100000 0.100000 0.800000
v 0.500000 -0.500000 0.800000
v -0.500000 0.500000 0.600412
v -0.100000 0.100000 0.599540
v 0.100000 -0.100000 0.599634
v 0.500000 -0.500000 0.600172
v -0.500000 0.500000 -0.599540
v 0.100000 -0.100000 -0.599540
v -0.100000 0.100000 -0.599540
v 0.500000 -0.500000 -0.599540
v -0.500000 0.500000 -0.799129
v -0.100000 0.100000 -0.800000
v 0.100000 -0.100000 -0.799906
v 0.500000 -0.500000 -0.799368
v 0.658487 -0.658487 0.500000
v 0.658487 -0.658487 0.100000
v 0.658487 -0.658487 -0.100000
v 0.658487 -0.658487 -0.500000
v 0.799629 -0.799629 0.493155
v 0.800000 -0.800000 0.100000
v 0.799763 -0.799763 -0.100000
v 0.799571 -0.799571 -0.500000
v -1.000000 -0.649795 0.500000
v -1.000000 -0.849473 0.500000
v -1.000000 -0.649795 0.100000
v -1.000000 -0.850000 0.100000
v -1.000000 -0.649795 -0.100000
v -1.000000 -0.649795 -0.500000
v -1.000000 -0.849795 -0.100000
v -1.000000 -0.849795 -0.500000
v 0.000000 0.000000 1.000000
v 0.000000 -0.000000 -1.000000
v 1.000000 -1.000000 0.000000
v -0.850000 -1.000000 0.500000
v -0.650322 -1.000000 0.500000
v -0.850000 -1.000000 0.100000
v -0.649795 -1.000000 0.100000
v -0.850000 -1.000000 -0.100000
v -0.850000 -1.000000 -0.500000
v -0.650000 -1.000000 -0.100000
v -0.650000 -1.000000 -0.500000
v 0.650000 -1.000000 0.500000
v 0.849678 -1.000000 0.500000
v 0.650000 -1.000000 0.100000
v 0.850205 -1.000000 0.100000
v 0.650000 -1.000000 -0.100000
v 0.650000 -1.000000 -0.500000
v 0.850000 -1.000000 -0.100000
v 0.850000 -1.000000 -0.500000
v 0.500000 -1.000000 0.850000
v 0.500000 -1.000000 0.650322
v 0.100000 -1.000000 0.850000
v 0.100000 -1.000000 0.649795
v -0.100000 -1.000000 0.850000
v -0.500000 -1.000000 0.850000
v -0.100000 -1.000000 0.650000
v -0.500000 -1.000000 0.650000
v 0.500000 -1.000000 -0.650000
v 0.500000 -1.000000 -0.849678
v 0.100000 -1.000000 -0.650000
v 0.100000 -1.000000 -0.850205
v -0.100000 -1.000000 -0.650000
v -0.500000 -1.000000 -0.650000
v -0.100000 -1.000000 -0.850000
v -0.500000 -1.000000 -0.850000
v -1.000000 0.500000 0.650000
v -1.000000 0.500000 0.849678
v -1.000000 0.100000 0.650000
v -1.000000 0.100000 0.850205
v -1.000000 -0.100000 0.650000
v -1.000000 -0.500000 0.650000
v -1.000000 -0.100000 0.850000
v -1.000000 -0.500000 0.850000
v -1.000000 0.500000 -0.850000
v -1.000000 0.500000 -0.650322
v -1.000000 0.100000 -0.850000
v -1.000000 0.100000 -0.649795
v -1.000000 -0.100000 -0.850000
v -1.000000 -0.500000 -0.850000
v -1.000000 -0.100000 -0.650000
v -1.000000 -0.500000 -0.650000
v -1.000000 -1.000000 0.000000
v -1.000000 -0.000000 -1.000000
v -0.374277 0.163231 1.000000
v 0.163037 -0.374083 1.000000
v -0.516051 0.021457 1.000000
v 0.021651 -0.515469 1.000000
v -0.855523 -0.855523 1.000000
v -0.855523 0.254525 1.000000
v -0.485387 -0.855523 1.000000
v -0.485387 -0.655409 1.000000
v 0.274431 -0.855523 1.000000
v 0.274431 -0.655740 1.000000
v -0.655409 0.254525 1.000000
v -0.855523 -0.505293 1.000000
v -0.655740 -0.505293 1.000000
v 0.163037 -0.374083 -1.000000
v -0.374277 0.163231 -1.000000
v -0.516051 0.021457 -1.000000
v 0.021651 -0.515469 -1.000000
v -0.855523 0.254525 -1.000000
v -0.485387 -0.855523 -1.000000
v -0.485387 -0.655409 -1.000000
v 0.274431 -0.855523 -1.000000
v 0.274431 -0.655740 -1.000000
v -0.655409 0.254525 -1.000000
v -0.855523 -0.505293 -1.000000
v -0.655740 -0.505293 -1.000000
vn -1.0000 -0.0000 -0.0000
vn -0.0000 -1.0000 -0.0000
vn 0.7071 0.7071 -0.0000
vn -0.0000 -0.0000 1.0000
vn -0.0000 -0.0000 -1.0000
vt 0.680590 0.327037
vt 0.680533 0.265165
vt 0.707107 0.353553
vt 0.026517 0.588388
vt 0.000000 0.500000
vt 0.026517 0.526517
vt 0.000000 0.000000
vt 0.089598 0.050093
vt 0.035355 0.050000
vt 0.318198 0.450000
vt 0.353553 0.500000
vt 0.265165 0.450000
vt 0.353553 0.250000
vt 0.318198 0.275000
vt 0.318181 0.225000
vt 0.035355 0.275000
vt 0.035355 0.375000
vt 0.000000 0.500000
vt 0.000000 0.250000
vt 0.380070 0.026517
vt 0.380070 0.088388
vt 0.353553 0.000000
vt 0.318044 0.375000
vt 0.353553 0.500000
vt 0.327037 0.588389
vt 0.327037 0.526517
vt 0.035355 0.450000
vt 0.548008 0.026517
vt 0.512652 0.026553
vt 0.530330 0.000000
vt 0.026516 0.765165
vt 0.026516 0.827037
vt -0.000000 0.853553
vt 0.327037 0.827037
vt 0.326980 0.765165
vt 0.353553 0.853553
vt 0.194454 0.050059
vt 0.159099 0.050000
vt 0.176777 0.000000
vt 0.680590 0.026517
vt 0.618718 0.026610
vt 0.707107 0.000000
vt 0.680590 0.088388
vt 0.194454 0.450000
vt 0.176777 0.500000
vt 0.159099 0.450000
vt 0.380070 0.265165
vt 0.380070 0.327037
vt 0.353553 0.353553
vt 0.088388 0.450000
vt 0.089598 0.414714
vt 0.159099 0.414622
vt 0.194454 0.414681
vt 0.265165 0.414729
vt 0.441942 0.327037
vt 0.618719 0.327037
vt 0.530330 0.353553
vt 0.548008 0.327037
vt 0.512652 0.327037
vt 0.441942 0.291682
vt 0.512652 0.291682
vt 0.618719 0.291739
vt 0.548008 0.291645
vt 0.070775 0.225000
vt 0.035355 0.225000
vt 0.035355 0.125000
vt 0.070680 0.125000
vt 0.070638 0.375000
vt 0.070792 0.275000
vt 0.282761 0.225000
vt 0.282761 0.125000
vt 0.318086 0.125000
vt 0.282761 0.375000
vt 0.282761 0.275000
vt 0.159099 0.085378
vt 0.088388 0.085378
vt 0.265165 0.050107
vt 0.265165 0.085378
vt 0.194454 0.085378
vt 0.441942 0.061908
vt 0.441942 0.026553
vt 0.512652 0.061908
vt 0.618718 0.061908
vt 0.548008 0.061908
vt 0.353553 0.000000
vt 0.318198 0.050000
vt 0.265165 0.526517
vt 0.265165 0.561872
vt 0.194454 0.561872
vt 0.194454 0.526517
vt 0.088388 0.561815
vt 0.088388 0.526517
vt 0.159099 0.526517
vt 0.159099 0.561908
vt 0.265165 0.791682
vt 0.265165 0.827037
vt 0.194454 0.827037
vt 0.194454 0.791682
vt 0.088388 0.826980
vt 0.088388 0.791682
vt 0.159099 0.791682
vt 0.159099 0.827073
vt 0.061872 0.588388
vt 0.061872 0.659099
vt 0.026517 0.659099
vt 0.061815 0.765165
vt 0.026516 0.694454
vt 0.061908 0.694454
vt 0.291682 0.588389
vt 0.327037 0.659099
vt 0.291682 0.659099
vt 0.291681 0.765165
vt 0.291681 0.694454
vt 0.327073 0.694454
vt 0.645235 0.088388
vt 0.680590 0.159099
vt 0.645235 0.159099
vt 0.645235 0.265165
vt 0.645235 0.194454
vt 0.680627 0.194454
vt 0.415425 0.088388
vt 0.415425 0.159099
vt 0.380070 0.159099
vt 0.415368 0.265165
vt 0.380070 0.194454
vt 0.415461 0.194454
vt 0.176777 0.500000
vt 0.176777 0.853553
vt 0.707107 0.176777
vt 0.353553 0.176777
vt 0.000000 0.676777
vt 0.353553 0.676777
vt 0.577173 0.817188
vt 0.577173 0.682860
vt 0.603553 0.750000
vt 0.435940 0.703733
vt 0.478553 0.625000
vt 0.530917 0.608756
vt 0.433451 0.793779
vt 0.528429 0.888756
vt 0.478553 0.875000
vt 0.541729 0.817188
vt 0.541826 0.682860
vt 0.460954 0.728747
vt 0.555890 0.633729
vt 0.553443 0.863742
vt 0.458424 0.768806
vt 0.768931 0.317188
vt 0.733487 0.317188
vt 0.733487 0.182860
vt 0.768834 0.182860
vt 0.849706 0.228747
vt 0.754770 0.133729
vt 0.779743 0.108756
vt 0.874721 0.203733
vt 0.757217 0.363742
vt 0.852236 0.268806
vt 0.877209 0.293779
vt 0.782232 0.388756
vt 0.577173 0.937500
vt 0.603553 1.000000
vt 0.577173 0.562500
vt 0.603553 0.500000
vt 0.353553 0.750000
vt 0.389673 0.750000
vt 0.707107 0.250000
vt 0.707107 0.000000
vt 0.733487 0.062500
vt 0.733487 0.437500
vt 0.707107 0.500000
vt 0.832107 0.375000
vt 0.957107 0.250000
vt 0.920987 0.250000
vt 0.832107 0.125000
s 0
usemtl Material2
f 25/1/1 112/2/1 7/3/1
f 100/4/2 15/5/2 20/6/2
f 17/7/3 64/8/3 10/9/3
s 1
f 14/10/3 4/11/3 30/12/3
s 0
f 77/13/3 57/14/3 58/15/3
s 1
f 46/16/3 44/17/3 7/18/3 76/19/3
f 19/20/1 124/21/1 23/22/1
f 14/10/3 56/23/3 4/11/3
f 23/24/2 110/25/2 3/26/2
f 7/18/3 44/17/3 13/27/3
s 0
f 71/28/1 74/29/1 127/30/1
f 95/31/2 21/32/2 17/33/2
s 1
f 6/34/2 104/35/2 22/36/2
s 0
f 66/37/3 65/38/3 78/39/3
f 24/40/1 69/41/1 15/42/1
f 15/42/1 118/43/1 24/40/1
f 29/44/3 37/45/3 28/46/3
s 1
f 119/47/1 26/48/1 4/49/1
f 13/27/3 27/50/3 7/18/3
f 7/18/3 27/50/3 28/46/3 37/45/3
s 0
f 29/44/3 30/12/3 4/11/3 37/45/3
s 1
f 31/51/3 34/52/3 28/46/3 27/50/3
s 0
f 35/53/3 36/54/3 30/12/3 29/44/3
s 1
f 26/48/1 41/55/1 4/49/1
s 0
f 25/1/1 7/3/1 32/56/1
f 37/57/1 38/58/1 32/56/1 7/3/1
f 38/58/1 37/57/1 40/59/1
f 4/49/1 41/55/1 40/59/1 37/57/1
f 41/55/1 43/60/1 42/61/1 40/59/1
s 1
f 33/62/1 32/56/1 38/58/1 39/63/1
s 0
f 50/64/3 45/65/3 47/66/3 51/67/3
f 48/68/3 44/17/3 46/16/3 49/69/3
f 58/15/3 53/70/3 55/71/3 59/72/3
f 56/23/3 52/73/3 54/74/3 57/14/3
s 1
f 64/8/3 65/38/3 61/75/3 60/76/3
s 0
f 66/37/3 67/77/3 63/78/3 62/79/3
f 73/80/1 75/81/1 74/29/1 72/82/1
s 1
f 69/41/1 68/83/1 70/84/1 71/28/1
f 46/16/3 76/19/3 45/65/3
s 0
f 17/7/3 10/9/3 47/66/3
s 1
f 17/7/3 47/66/3 45/65/3 76/19/3
f 22/85/3 59/72/3 9/86/3
f 77/13/3 58/15/3 59/72/3 22/85/3
s 0
f 4/11/3 56/23/3 57/14/3 77/13/3
s 1
f 22/85/3 9/86/3 67/77/3
s 0
f 66/37/3 78/39/3 22/85/3 67/77/3
f 17/7/3 78/39/3 65/38/3 64/8/3
f 84/87/2 86/88/2 85/89/2 83/90/2
s 1
f 80/91/2 79/92/2 81/93/2 82/94/2
s 0
f 92/95/2 94/96/2 93/97/2 91/98/2
s 1
f 88/99/2 87/100/2 89/101/2 90/102/2
s 0
f 100/4/2 102/103/2 101/104/2 99/105/2
s 1
f 96/106/2 95/31/2 97/107/2 98/108/2
s 0
f 108/109/2 110/25/2 109/110/2 107/111/2
s 1
f 104/35/2 103/112/2 105/113/2 106/114/2
s 0
f 116/115/1 118/43/1 117/116/1 115/117/1
s 1
f 112/2/1 111/118/1 113/119/1 114/120/1
s 0
f 124/21/1 126/121/1 125/122/1 123/123/1
s 1
f 120/124/1 119/47/1 121/125/1 122/126/1
s 0
f 127/30/1 15/42/1 69/41/1 71/28/1
s 1
f 75/81/1 19/20/1 23/22/1
s 0
f 74/29/1 75/81/1 23/22/1 127/30/1
f 81/93/2 127/127/2 83/90/2
f 20/6/2 15/5/2 79/92/2
s 1
f 23/24/2 3/26/2 84/87/2
s 0
f 83/90/2 127/127/2 23/24/2 84/87/2
f 15/5/2 127/127/2 81/93/2 79/92/2
s 1
f 22/36/2 94/96/2 6/34/2
s 0
f 21/32/2 88/99/2 17/33/2
f 90/102/2 93/97/2 78/128/2
f 22/36/2 78/128/2 93/97/2 94/96/2
f 78/128/2 17/33/2 88/99/2 90/102/2
f 114/120/1 117/116/1 2/129/1
f 2/129/1 7/3/1 112/2/1 114/120/1
f 15/42/1 2/129/1 117/116/1 118/43/1
f 121/125/1 128/130/1 123/123/1
f 4/49/1 128/130/1 121/125/1 119/47/1
s 1
f 128/130/1 23/22/1 124/21/1 123/123/1
s 0
f 97/107/2 5/131/2 99/105/2
f 17/33/2 5/131/2 97/107/2 95/31/2
f 5/131/2 15/5/2 100/4/2 99/105/2
f 106/114/2 109/110/2 1/132/2
s 1
f 1/132/2 22/36/2 104/35/2 106/114/2
s 0
f 23/24/2 1/132/2 109/110/2 110/25/2
f 129/133/4 130/134/4 76/135/4
f 135/136/4 5/137/4 137/138/4
f 140/139/4 134/140/4 2/141/4
f 131/142/4 132/143/4 130/134/4 129/133/4
f 136/144/4 135/136/4 137/138/4 138/145/4
f 139/146/4 134/140/4 140/139/4 141/147/4
f 144/148/5 143/149/5 142/150/5 145/151/5
f 148/152/5 150/153/5 149/154/5 147/155/5
f 151/156/5 153/157/5 152/158/5 146/159/5
s 1
f 16/160/4 129/133/4 76/135/4 7/161/4
s 0
f 18/162/4 17/163/4 76/135/4 130/134/4
f 15/164/4 133/165/4 140/139/4 2/141/4
s 1
f 16/160/4 7/161/4 2/141/4 134/140/4
s 0
f 137/138/4 5/137/4 17/163/4 18/162/4
f 5/137/4 135/136/4 133/165/4 15/164/4
f 143/149/5 77/166/5 142/150/5
s 1
f 77/166/5 22/167/5 12/168/5 142/150/5
s 0
f 77/166/5 143/149/5 8/169/5 4/170/5
f 146/159/5 152/158/5 128/171/5
f 23/172/5 128/171/5 152/158/5 11/173/5
f 8/169/5 146/159/5 128/171/5 4/170/5
f 147/155/5 149/154/5 1/174/5
f 23/172/5 11/173/5 147/155/5 1/174/5
s 1
f 12/168/5 22/167/5 1/174/5 149/154/5
o Wedge
v -0.850000 -1.000000 -0.850000
v 0.850000 -1.000000 -0.850000
v -0.855523 0.644477 -1.000000
v 0.800000 -0.800000 -0.800000
v 0.800000 -0.800000 0.800000
v -0.855523 -0.855523 -1.000000
v 0.644477 -0.855523 -1.000000
v -0.800000 0.800000 0.800000
v -0.800000 0.800000 -0.800000
v -0.855523 0.644477 1.000000
v 0.644477 -0.855523 1.000000
v -1.000000 -0.850000 -0.850000
v -0.850000 -1.000000 0.850000
v 0.850000 -1.000000 0.850000
v -1.000000 -0.850000 0.850000
v -1.000000 0.850000 0.850000
v -1.000000 0.850000 -0.850000
v -0.800000 0.800000 0.500000
v -0.800000 0.800000 0.100000
v -0.800000 0.800000 -0.100000
v -0.800000 0.800000 -0.500000
v -0.658858 0.658858 0.493155
v -1.000000 0.850000 0.500000
v -1.000000 0.650322 0.500000
v -0.658487 0.658487 0.100000
v -0.658724 0.658724 -0.100000
v -0.658916 0.658916 -0.500000
v -1.000000 0.850000 0.100000
v -1.000000 0.649795 0.100000
v -1.000000 0.850000 -0.100000
v -1.000000 0.850000 -0.500000
v -1.000000 0.650000 -0.100000
v -1.000000 0.650000 -0.500000
v -0.500000 0.500000 0.800000
v 0.100000 -0.100000 0.800000
v -0.100000 0.100000 0.800000
v 0.500000 -0.500000 0.800000
v -0.500000 0.500000 0.600412
v -0.100000 0.100000 0.599540
v 0.100000 -0.100000 0.599634
v 0.500000 -0.500000 0.600172
v -0.500000 0.500000 -0.599540
v 0.100000 -0.100000 -0.599540
v -0.100000 0.100000 -0.599540
v 0.500000 -0.500000 -0.599540
v -0.500000 0.500000 -0.799129
v -0.100000 0.100000 -0.800000
v 0.100000 -0.100000 -0.799906
v 0.500000 -0.500000 -0.799368
v 0.658487 -0.658487 0.500000
v 0.658487 -0.658487 0.100000
v 0.658487 -0.658487 -0.100000
v 0.658487 -0.658487 -0.500000
v 0.799629 -0.799629 0.493155
v 0.800000 -0.800000 0.100000
v 0.799763 -0.799763 -0.100000
v 0.799571 -0.799571 -0.500000
v -1.000000 -0.649795 0.500000
v -1.000000 -0.849473 0.500000
v -1.000000 -0.649795 0.100000
v -1.000000 -0.850000 0.100000
v -1.000000 -0.649795 -0.100000
v -1.000000 -0.649795 -0.500000
v -1.000000 -0.849795 -0.100000
v -1.000000 -0.849795 -0.500000
v -0.850000 -1.000000 0.500000
v -0.650322 -1.000000 0.500000
v -0.850000 -1.000000 0.100000
v -0.649795 -1.000000 0.100000
v -0.850000 -1.000000 -0.100000
v -0.850000 -1.000000 -0.500000
v -0.650000 -1.000000 -0.100000
v -0.650000 -1.000000 -0.500000
v 0.650000 -1.000000 0.500000
v 0.849678 -1.000000 0.500000
v 0.650000 -1.000000 0.100000
v 0.850205 -1.000000 0.100000
v 0.650000 -1.000000 -0.100000
v 0.650000 -1.000000 -0.500000
v 0.850000 -1.000000 -0.100000
v 0.850000 -1.000000 -0.500000
v 0.500000 -1.000000 0.850000
v 0.500000 -1.000000 0.650322
v 0.100000 -1.000000 0.850000
v 0.100000 -1.000000 0.649795
v -0.100000 -1.000000 0.850000
v -0.500000 -1.000000 0.850000
v -0.100000 -1.000000 0.650000
v -0.500000 -1.000000 0.650000
v 0.500000 -1.000000 -0.650000
v 0.500000 -1.000000 -0.849678
v 0.100000 -1.000000 -0.650000
v 0.100000 -1.000000 -0.850205
v -0.100000 -1.000000 -0.650000
v -0.500000 -1.000000 -0.650000
v -0.100000 -1.000000 -0.850000
v -0.500000 -1.000000 -0.850000
v -1.000000 0.500000 0.650000
v -1.000000 0.500000 0.849678
v -1.000000 0.100000 0.650000
v -1.000000 0.100000 0.850205
v -1.000000 -0.100000 0.650000
v -1.000000 -0.500000 0.650000
v -1.000000 -0.100000 0.850000
v -1.000000 -0.500000 0.850000
v -1.000000 0.500000 -0.850000
v -1.000000 0.500000 -0.650322
v -1.000000 0.100000 -0.850000
v -1.000000 0.100000 -0.649795
v -1.000000 -0.100000 -0.850000
v -1.000000 -0.500000 -0.850000
v -1.000000 -0.100000 -0.650000
v -1.000000 -0.500000 -0.650000
v -0.374277 0.163231 1.000000
v 0.163037 -0.374083 1.000000
v -0.516051 0.021457 1.000000
v 0.021651 -0.515469 1.000000
v -0.855523 -0.855523 1.000000
v -0.855523 0.254525 1.000000
v -0.485387 -0.855523 1.000000
v -0.485387 -0.655409 1.000000
v 0.274431 -0.855523 1.000000
v 0.274431 -0.655740 1.000000
v -0.655409 0.254525 1.000000
v -0.855523 -0.505293 1.000000
v -0.655740 -0.505293 1.000000
v 0.163037 -0.374083 -1.000000
v -0.374277 0.163231 -1.000000
v -0.516051 0.021457 -1.000000
v 0.021651 -0.515469 -1.000000
v -0.855523 0.254525 -1.000000
v -0.485387 -0.855523 -1.000000
v -0.485387 -0.655409 -1.000000
v 0.274431 -0.855523 -1.000000
v 0.274431 -0.655740 -1.000000
v -0.655409 0.254525 -1.000000
v -0.855523 -0.505293 -1.000000
v -0.655740 -0.505293 -1.000000
vn -0.0000 -0.0000 1.0000
vn -1.0000 -0.0000 -0.0000
vn -0.0000 -1.0000 -0.0000
vn -0.0000 -0.0000 -1.0000
vn 0.7071 0.7071 -0.0000
vt 0.041690 0.706793
vt 0.041621 0.548498
vt 0.070845 0.601160
vt 0.614583 0.395919
vt 0.645900 0.427169
vt 0.645791 0.510502
vt 0.614626 0.041709
vt 0.645943 0.072959
vt 0.645833 0.156293
vt 0.760465 0.395831
vt 0.918760 0.395900
vt 0.870204 0.424933
vt 0.063926 0.429820
vt 0.062500 0.471405
vt -0.000000 0.471404
vt 0.000000 0.088388
vt 0.000000 0.000000
vt 0.062500 0.041694
vt 0.041631 0.088388
vt 0.489583 0.354252
vt 0.531250 0.354209
vt 0.531250 0.395919
vt 0.489583 0.395919
vt 0.041581 0.383016
vt 0.145833 0.429711
vt 0.041762 0.265165
vt 0.531293 0.312500
vt 0.375043 0.156293
vt 0.489626 0.041709
vt 0.145833 0.041694
vt 0.187500 0.041694
vt 0.291571 0.206240
vt 0.041743 0.206239
vt 0.000000 0.265165
vt 0.000000 0.206239
vt 0.333333 0.471405
vt 0.270833 0.471405
vt 0.270833 0.429837
vt 0.187500 0.429781
vt 0.291571 0.383016
vt 0.333152 0.383016
vt 0.063926 0.000109
vt 0.145833 0.471405
vt 0.187500 0.471405
vt 0.291571 0.265165
vt 0.333202 0.088388
vt 0.291571 0.088388
vt 0.270833 0.041694
vt 0.333333 0.000000
vt 0.270833 0.000126
vt 0.182704 0.713181
vt 0.072965 0.742283
vt 0.212240 0.683645
vt 0.231260 0.742214
vt 0.312500 0.783905
vt 0.231260 0.783905
vt 0.072965 0.783905
vt 0.000000 0.783905
vt 0.000000 0.706793
vt 0.000000 0.471405
vt 0.100300 0.571704
vt 0.729190 0.431321
vt 0.758345 0.536954
vt 0.000000 0.548498
vt 0.406250 0.708419
vt 0.333333 0.708419
vt 0.406250 0.666752
vt 0.333376 0.635502
vt 0.375043 0.635502
vt 0.333376 0.197959
vt 0.333333 0.156293
vt 0.375043 0.197959
vt 0.489583 0.666752
vt 0.375043 0.552169
vt 0.187500 0.000070
vt 0.145833 -0.000000
vt 0.375043 0.427169
vt 0.333443 0.427169
vt 0.333333 0.354252
vt 0.531250 0.666709
vt 0.375043 0.510502
vt 0.406250 0.395919
vt 0.406250 0.354252
vt 0.687500 0.708419
vt 0.614583 0.708419
vt 0.614583 0.666819
vt -0.000000 0.383016
vt 0.687500 0.635502
vt 0.645833 0.635502
vt 0.531293 0.354209
vt 0.489626 0.354209
vt 0.489626 0.312543
vt 0.333376 0.552169
vt 0.333333 0.510502
vt 0.645833 0.552169
vt 0.614583 0.354319
vt 0.687500 0.354252
vt 0.687500 0.427169
vt 0.406293 0.354209
vt 0.333376 0.354209
vt 0.406293 0.312543
vt 0.333376 0.281293
vt 0.375043 0.281293
vt 0.687543 0.156293
vt 0.687543 0.197959
vt 0.645876 0.197959
vt 0.489626 0.000043
vt 0.531293 -0.000000
vt 0.531293 0.041709
vt 0.375043 0.072959
vt 0.333443 0.072959
vt 0.333376 0.000043
vt 0.406293 0.041709
vt 0.406293 0.000043
vt 0.687543 0.354209
vt 0.614626 0.354209
vt 0.614626 0.312610
vt 0.687543 0.281293
vt 0.645876 0.281293
vt 0.687500 0.510502
vt 0.687500 0.552169
vt 0.531250 0.708419
vt 0.489583 0.708419
vt 0.614626 0.000110
vt 0.687543 0.000043
vt 0.687543 0.072959
vt 0.787800 0.566409
vt 0.729122 0.589616
vt 0.687500 0.666709
vt 0.687500 0.589616
vt 0.687500 0.431321
vt 0.687500 0.354209
vt 0.760465 0.354209
vt 1.000000 0.354209
vt 0.899740 0.454469
vt 0.918760 0.354209
vt 0.333314 0.206240
vt 0.333333 0.265165
s 0
usemtl Material
f 274/175/6 276/176/6 270/177/6
s 1
f 251/178/7 177/179/7 182/180/7
f 227/181/8 236/182/8 238/183/8
s 0
f 291/184/9 289/185/9 282/186/9
s 1
f 175/187/10 171/188/10 161/189/10
f 190/190/10 158/191/10 203/192/10 194/193/10
f 257/194/7 254/195/7 253/196/7 255/197/7
f 175/187/10 191/198/10 178/199/10
f 191/198/10 192/200/10 178/199/10
f 222/201/8 245/202/8 231/203/8 238/183/8
f 204/204/10 205/205/10 196/206/10 193/207/10
f 189/208/10 188/209/10 193/207/10 192/200/10
f 162/210/10 174/211/10 180/212/10
f 180/212/10 179/213/10 195/214/10
f 193/207/10 194/193/10 204/204/10
f 195/214/10 199/215/10 162/210/10 180/212/10
f 158/191/10 207/216/10 203/192/10
f 172/217/10 178/199/10 179/213/10 173/218/10
f 194/193/10 203/192/10 204/204/10
f 179/213/10 197/219/10 195/214/10
f 202/220/10 198/221/10 206/222/10 157/223/10
f 197/219/10 192/200/10 193/207/10 196/206/10
f 206/222/10 210/224/10 157/223/10
f 205/205/10 206/222/10 198/221/10
f 196/206/10 205/205/10 198/221/10
s 0
f 269/225/6 279/226/6 274/175/6 270/177/6
f 269/225/6 267/227/6 277/228/6
f 267/227/6 163/229/6 277/228/6
f 163/229/6 272/230/6 277/228/6
f 279/226/6 278/231/6 271/232/6
f 279/226/6 271/232/6 274/175/6
f 271/232/6 273/233/6 274/175/6
f 269/225/6 277/228/6 279/226/6
f 164/234/6 268/235/6 276/176/6
f 268/235/6 270/177/6 276/176/6
f 286/236/9 291/184/9 282/186/9 283/237/9
f 276/176/6 275/238/6 164/234/6
s 1
f 264/239/7 165/240/7 266/241/7
f 165/240/7 218/242/7 216/243/7
f 165/240/7 216/243/7 266/241/7
f 249/244/8 246/245/8 245/202/8 247/246/8
f 266/241/7 216/243/7 265/247/7
f 216/243/7 215/248/7 265/247/7
f 209/249/10 205/205/10 204/204/10 208/250/10
f 211/251/7 212/252/7 168/253/7
f 265/247/7 215/248/7 262/254/7
f 215/248/7 213/255/7 262/254/7
f 211/251/7 168/253/7 256/256/7
f 168/253/7 258/257/7 256/256/7
f 213/255/7 211/251/7 255/197/7
f 170/258/7 259/259/7 260/260/7
f 187/261/10 191/198/10 175/187/10 161/189/10
f 184/262/7 170/258/7 186/263/7
f 170/258/7 260/260/7 186/263/7
f 260/260/7 262/254/7 186/263/7
f 222/201/8 221/264/8 223/265/8 225/266/8
f 211/251/7 256/256/7 255/197/7
f 217/267/7 214/268/7 213/255/7 215/248/7
f 185/269/7 186/263/7 262/254/7
f 182/180/7 255/197/7 253/196/7
f 251/178/7 252/270/7 169/271/7
f 185/269/7 262/254/7 182/180/7
f 251/178/7 169/271/7 177/179/7
f 169/271/7 176/272/7 177/179/7
f 253/196/7 251/178/7 182/180/7
f 224/273/8 154/274/8 226/275/8
f 154/274/8 250/276/8 248/277/8
f 154/274/8 248/277/8 226/275/8
f 238/183/8 237/278/8 239/279/8 241/280/8
f 226/275/8 248/277/8 225/266/8
f 248/277/8 247/246/8 225/266/8
f 233/281/8 230/282/8 229/283/8 231/203/8
f 243/284/8 244/285/8 155/286/8
f 225/266/8 247/246/8 222/201/8
f 247/246/8 245/202/8 222/201/8
f 243/284/8 155/286/8 232/287/8
f 155/286/8 234/288/8 232/287/8
f 245/202/8 243/284/8 231/203/8
f 166/289/8 219/290/8 220/291/8
f 262/254/7 213/255/7 255/197/7 182/180/7
f 240/292/8 166/289/8 242/293/8
f 166/289/8 220/291/8 242/293/8
f 220/291/8 222/201/8 242/293/8
f 182/180/7 181/294/7 183/295/7 185/269/7
f 243/284/8 232/287/8 231/203/8
f 262/254/7 261/296/7 263/297/7 265/247/7
f 241/280/8 242/293/8 222/201/8
f 238/183/8 231/203/8 229/283/8
f 227/181/8 228/298/8 167/299/8
f 241/280/8 222/201/8 238/183/8
f 227/181/8 167/299/8 236/182/8
f 167/299/8 235/300/8 236/182/8
f 229/283/8 227/181/8 238/183/8
s 0
f 283/237/9 280/301/9 288/302/9
f 280/301/9 160/303/9 288/302/9
f 160/303/9 287/304/9 288/302/9
f 286/236/9 285/305/9 159/306/9
f 286/236/9 159/306/9 291/184/9
f 159/306/9 290/307/9 291/184/9
f 283/237/9 288/302/9 286/236/9
f 156/308/9 281/309/9 289/185/9
f 281/309/9 282/186/9 289/185/9
s 1
f 179/213/10 178/199/10 192/200/10 197/219/10
s 0
f 289/185/9 284/310/9 156/308/9
s 1
f 196/206/10 201/311/10 200/312/10 197/219/10
