mtllib gummi_thruster.mtl
o Cube.010
v -0.800000 0.003213 0.800000
v -0.475000 0.360794 0.475000
v -0.800000 0.003213 -0.800000
v -0.475000 0.360794 -0.475000
v 0.800000 0.003213 0.800000
v 0.475000 0.360794 0.475000
v 0.800000 0.003213 -0.800000
v 0.475000 0.360794 -0.475000
v -0.800000 0.360794 0.800000
v -0.800000 0.360794 -0.800000
v 0.800000 0.360794 -0.800000
v 0.800000 0.360794 0.800000
v -0.600000 0.360794 0.600000
v -0.600000 0.360794 -0.600000
v 0.600000 0.360794 -0.600000
v 0.600000 0.360794 0.600000
v -0.984553 2.003213 0.984553
v -0.984553 2.003213 -0.984553
v 0.984553 2.003213 -0.984553
v 0.984553 2.003213 0.984553
v -0.779438 2.003213 0.779438
v -0.779438 2.003213 -0.779438
v 0.779438 2.003213 -0.779438
v 0.779438 2.003213 0.779438
vn -1.0000 -0.0000 -0.0000
vn -0.0000 -0.0000 -1.0000
vn 1.0000 -0.0000 -0.0000
vn -0.0000 -0.0000 1.0000
vn -0.0000 -1.0000 -0.0000
vn -0.0000 1.0000 -0.0000
vn 0.9737 -0.2280 -0.0000
vn 0.9833 0.1823 -0.0000
vn -0.9833 0.1823 -0.0000
vn -0.0000 -0.2280 -0.9737
vn -0.0000 0.1823 -0.9833
vn -0.9737 -0.2280 -0.0000
vn -0.0000 0.1823 0.9833
vn -0.0000 -0.2280 0.9737
vt 0.410936 0.466010
vt 0.471876 0.466010
vt 0.471876 0.526950
vt 0.410936 0.526950
vt 0.471876 0.587891
vt 0.410936 0.587891
vt 0.471876 0.648831
vt 0.410936 0.648831
vt 0.471876 0.709771
vt 0.410936 0.709771
vt 0.349996 0.587891
vt 0.349996 0.648831
vt 0.667969 0.787109
vt 0.816406 0.787109
vt 0.816406 0.935547
vt 0.667969 0.935547
vt 0.525199 0.641213
vt 0.525199 0.595508
vt 0.532817 0.587891
vt 0.532817 0.648831
vt 0.479494 0.595508
vt 0.479494 0.641213
vt 0.520438 0.636452
vt 0.520438 0.600269
vt 0.484255 0.600269
vt 0.484255 0.636452
s 0
usemtl Material
f 1/1/1 9/2/1 10/3/1 3/4/1
f 3/4/2 10/3/2 11/5/2 7/6/2
f 7/6/3 11/5/3 12/7/3 5/8/3
f 5/8/4 12/7/4 9/9/4 1/10/4
f 3/11/5 7/6/5 5/8/5 1/12/5
f 8/13/6 4/14/6 2/15/6 6/16/6
f 13/17/6 14/18/6 10/19/6 9/20/6
f 14/18/6 15/21/6 11/5/6 10/19/6
f 15/21/6 16/22/6 12/7/6 11/5/6
f 16/22/6 13/17/6 9/20/6 12/7/6
f 16/22/7 15/21/7 19/21/7 20/22/7
f 2/23/8 4/24/8 22/24/8 21/23/8
f 8/25/9 6/26/9 24/26/9 23/25/9
f 15/21/10 14/18/10 18/18/10 19/21/10
f 21/23/6 22/24/6 18/18/6 17/17/6
f 22/24/6 23/25/6 19/21/6 18/18/6
f 23/25/6 24/26/6 20/22/6 19/21/6
f 24/26/6 21/23/6 17/17/6 20/22/6
f 6/26/11 2/23/11 21/23/11 24/26/11
f 14/18/12 13/17/12 17/17/12 18/18/12
f 4/24/13 8/25/13 23/25/13 22/24/13
f 13/17/14 16/22/14 20/22/14 17/17/14
