# Blender 4.5.3 LTS
# www.blender.org
mtllib gummi_fire.mtl
o Cube.002
v 0.900000 -0.650000 -0.800000
v 1.000000 -1.000000 -1.000000
v 0.900000 -0.650000 0.700000
v 1.000000 -1.000000 1.000000
v -0.900000 -0.650000 -0.800000
v -1.000000 -1.000000 -1.000000
v -0.900000 -0.650000 0.700000
v -1.000000 -1.000000 1.000000
v 0.900000 0.779426 0.700000
v -0.900000 0.779426 0.700000
v 0.900000 0.779426 -0.800000
v -0.900000 0.779426 -0.800000
v -0.330572 -0.237714 0.700000
v -0.178905 -0.339055 0.700000
v -0.259729 -0.295854 0.700000
v -0.000000 -0.374641 0.700000
v -0.091205 -0.365658 0.700000
v 0.091205 -0.365658 0.700000
v 0.178904 -0.339055 0.700000
v 0.259729 -0.295854 0.700000
v 0.388712 0.352588 0.700000
v 0.467500 0.092859 0.700000
v 0.458517 0.001654 0.700000
v 0.458517 0.184063 0.700000
v 0.431914 0.271763 0.700000
v 0.330572 -0.237714 0.700000
v 0.388712 -0.166871 0.700000
v 0.431914 -0.086046 0.700000
v -0.467500 0.092859 0.700000
v -0.458517 0.001654 0.700000
v -0.458517 0.184063 0.700000
v -0.388712 -0.166871 0.700000
v -0.431914 -0.086046 0.700000
v -0.431914 0.271763 0.700000
v -0.388712 0.352588 0.700000
v -0.330572 0.423431 0.700000
v -0.000000 0.560359 0.700000
v 0.000065 0.560352 0.700000
v 0.330572 0.423431 0.700000
v 0.259729 0.481571 0.700000
v 0.178904 0.524772 0.700000
v 0.091205 0.551376 0.700000
v -0.259729 0.481571 0.700000
v -0.178905 0.524772 0.700000
v -0.091205 0.551376 0.700000
v -0.000000 0.560359 1.300000
v -0.091205 0.551376 1.300000
v -0.178905 0.524772 1.300000
v -0.259729 0.481571 1.300000
v -0.330572 0.423431 1.300000
v -0.388712 0.352588 1.300000
v -0.431914 0.271763 1.300000
v -0.458517 0.184063 1.300000
v -0.467500 0.092859 1.300000
v -0.458517 0.001654 1.300000
v -0.431914 -0.086046 1.300000
v -0.388712 -0.166871 1.300000
v -0.330572 -0.237714 1.300000
v -0.259729 -0.295854 1.300000
v -0.178905 -0.339055 1.300000
v -0.091205 -0.365658 1.300000
v -0.000000 -0.374641 1.300000
v 0.091205 -0.365658 1.300000
v 0.178904 -0.339055 1.300000
v 0.259729 -0.295854 1.300000
v 0.330572 -0.237714 1.300000
v 0.388712 -0.166871 1.300000
v 0.431914 -0.086046 1.300000
v 0.458517 0.001654 1.300000
v 0.467500 0.092859 1.300000
v 0.458517 0.184063 1.300000
v 0.431914 0.271763 1.300000
v 0.388712 0.352588 1.300000
v 0.330572 0.423431 1.300000
v 0.259729 0.481571 1.300000
v 0.178904 0.524772 1.300000
v 0.091205 0.551376 1.300000
v 0.000065 0.560352 1.300000
vn 1.0000 -0.0000 -0.0000
vn -0.0000 0.6508 0.7593
vn -0.9615 0.2747 -0.0000
vn -0.0000 -1.0000 -0.0000
vn 0.9615 0.2747 -0.0000
vn -0.0000 0.4961 -0.8682
vn -0.0000 1.0000 -0.0000
vn -0.0000 -0.0000 -1.0000
vn -1.0000 -0.0000 -0.0000
vn -0.9569 -0.2903 -0.0000
vn -0.0000 -0.0000 1.0000
vn 0.9952 -0.0980 -0.0000
vn -0.8819 -0.4714 -0.0000
vn 0.9952 0.0980 -0.0000
vn -0.7730 -0.6344 -0.0000
vn 0.9569 0.2903 -0.0000
vn -0.6344 -0.7730 -0.0000
vn 0.8819 0.4714 -0.0000
vn -0.4714 -0.8819 -0.0000
vn -0.0980 0.9952 -0.0000
vn 0.7730 0.6344 -0.0000
vn -0.2903 -0.9569 -0.0000
vn -0.2903 0.9569 -0.0000
vn 0.6344 0.7730 -0.0000
vn -0.0980 -0.9952 -0.0000
vn -0.4714 0.8819 -0.0000
vn 0.4714 0.8819 -0.0000
vn 0.0980 -0.9952 -0.0000
vn -0.6344 0.7730 -0.0000
vn 0.2903 0.9569 -0.0000
vn 0.2903 -0.9569 -0.0000
vn -0.7730 0.6344 -0.0000
vn 0.0980 0.9952 -0.0000
vn 0.4714 -0.8819 -0.0000
vn -0.8819 0.4714 -0.0000
vn 0.0971 0.9953 -0.0000
vn 0.6344 -0.7730 -0.0000
vn -0.9569 0.2903 -0.0000
vn 0.7730 -0.6344 -0.0000
vn -0.9952 0.0980 -0.0000
vn 0.8819 -0.4714 -0.0000
vn -0.9952 -0.0980 -0.0000
vn 0.9569 -0.2903 -0.0000
vn -0.0000 0.0059 1.0000
vn 0.1001 0.9950 -0.0000
vt 0.071912 0.942316
vt 0.108519 0.756124
vt 0.108519 0.942316
vt 0.020662 0.942228
vt 0.067031 0.987970
vt 0.018221 0.987970
vt 0.110597 0.759747
vt 0.052636 0.817708
vt 0.052636 0.759747
vt 0.125693 0.788693
vt 0.076883 0.756124
vt 0.125693 0.756124
vt 0.067031 0.987935
vt 0.115840 0.987935
vt 0.089528 0.942227
vt 0.135898 0.987912
vt 0.087088 0.987912
vt 0.113491 0.818006
vt 0.076883 0.788693
vt 0.113491 0.788693
vt 0.133457 0.756124
vt 0.133457 0.942227
vt 0.026997 0.946659
vt 0.063605 0.760437
vt 0.063605 0.946659
vt 0.895787 0.785438
vt 0.881285 0.888186
vt 0.881285 0.785438
vt 0.042626 0.784646
vt 0.020662 0.756124
vt 0.064590 0.756124
vt 0.064590 0.942228
vt 0.042626 0.906378
vt 0.462532 0.068504
vt 0.542155 0.060859
vt 0.620360 0.068747
vt 0.866203 0.990933
vt 0.881285 0.990933
vt 0.909152 0.785438
vt 0.895787 0.888186
vt 0.851122 0.990933
vt 0.866203 0.888186
vt 0.920867 0.785438
vt 0.909152 0.888186
vt 0.836619 0.990933
vt 0.851122 0.888186
vt 0.930481 0.785438
vt 0.920867 0.888186
vt 0.823254 0.990933
vt 0.836619 0.888186
vt 0.937624 0.785438
vt 0.930481 0.888186
vt 0.790383 0.785438
vt 0.788897 0.888186
vt 0.788897 0.785438
vt 0.811540 0.990933
vt 0.823254 0.888186
vt 0.942024 0.785438
vt 0.937624 0.888186
vt 0.794782 0.785438
vt 0.790383 0.888186
vt 0.801926 0.990933
vt 0.811540 0.888186
vt 0.943509 0.785438
vt 0.942024 0.888186
vt 0.801926 0.785438
vt 0.794782 0.888186
vt 0.794782 0.990933
vt 0.801926 0.888186
vt 0.942024 0.990933
vt 0.943509 0.888186
vt 0.943509 0.990933
vt 0.811540 0.785438
vt 0.790383 0.990933
vt 0.937624 0.990933
vt 0.942024 0.888186
vt 0.823254 0.785438
vt 0.788898 0.990933
vt 0.930481 0.990933
vt 0.836619 0.785438
vt 0.788897 0.990933
vt 0.788898 0.888186
vt 0.920867 0.990933
vt 0.851121 0.785438
vt 0.909152 0.990933
vt 0.866203 0.785438
vt 0.895787 0.990933
vt 0.895787 0.888186
vt 0.071912 0.756124
vt 0.110597 0.817708
vt 0.076883 0.818006
vt 0.089528 0.756124
vt 0.026997 0.760437
vt 0.042624 0.784646
vt 0.044852 0.785815
vt 0.040400 0.785815
vt 0.038260 0.789279
vt 0.046992 0.789279
vt 0.048965 0.794903
vt 0.036287 0.794903
vt 0.034558 0.802473
vt 0.050693 0.802473
vt 0.052112 0.811696
vt 0.033139 0.811696
vt 0.032085 0.822219
vt 0.053167 0.822219
vt 0.053816 0.833637
vt 0.031217 0.845512
vt 0.031436 0.833637
vt 0.054035 0.845512
vt 0.031436 0.857386
vt 0.053816 0.857386
vt 0.053167 0.868804
vt 0.032085 0.868804
vt 0.033139 0.879327
vt 0.052112 0.879327
vt 0.050693 0.888551
vt 0.034558 0.888551
vt 0.036287 0.896120
vt 0.048965 0.896120
vt 0.046992 0.901745
vt 0.038260 0.901745
vt 0.040400 0.905208
vt 0.044852 0.905208
vt 0.542212 0.060853
vt 0.693975 0.091882
vt 0.384383 0.091406
vt 0.760226 0.129370
vt 0.310769 0.128678
vt 0.816568 0.179769
vt 0.860836 0.241143
vt 0.244517 0.178889
vt 0.891328 0.311134
vt 0.143908 0.309983
vt 0.906872 0.387051
vt 0.113416 0.385829
vt 0.906872 0.465977
vt 0.891328 0.544879
vt 0.097871 0.464732
vt 0.860836 0.620725
vt 0.113415 0.619575
vt 0.816568 0.690601
vt 0.143907 0.689566
vt 0.760226 0.751820
vt 0.693975 0.802030
vt 0.188175 0.750940
vt 0.620360 0.839303
vt 0.310768 0.838826
vt 0.542211 0.862204
vt 0.384383 0.861961
vt 0.462531 0.869855
vt 0.244517 0.801339
vt 0.097871 0.543658
vt 0.188175 0.240108
s 0
usemtl Material
f 1/1/1 9/2/1 3/3/1
f 3/4/2 8/5/2 4/6/2
f 7/7/3 6/8/3 8/9/3
f 2/10/4 8/11/4 6/12/4
f 2/13/5 3/3/5 4/14/5
f 5/15/6 2/16/6 6/17/6
f 12/18/7 9/19/7 11/20/7
f 5/15/8 11/21/8 1/22/8
f 7/23/9 12/24/9 5/25/9
f 33/26/10 55/27/10 30/28/10
f 37/29/11 9/30/11 10/31/11
f 7/32/11 3/4/11 16/33/11
f 77/34/11 78/35/11 47/36/11
f 22/37/12 69/27/12 23/38/12
f 32/39/13 56/40/13 33/26/13
f 24/41/14 70/42/14 22/37/14
f 13/43/15 57/44/15 32/39/15
f 25/45/16 71/46/16 24/41/16
f 15/47/17 58/48/17 13/43/17
f 21/49/18 72/50/18 25/45/18
f 14/51/19 59/52/19 15/47/19
f 45/53/20 46/54/20 37/55/20
f 39/56/21 73/57/21 21/49/21
f 17/58/22 60/59/22 14/51/22
f 44/60/23 47/61/23 45/53/23
f 40/62/24 74/63/24 39/56/24
f 16/64/25 61/65/25 17/58/25
f 43/66/26 48/67/26 44/60/26
f 41/68/27 75/69/27 40/62/27
f 18/70/28 62/71/28 16/72/28
f 36/73/29 49/69/29 43/66/29
f 42/74/30 76/67/30 41/68/30
f 19/75/31 63/76/31 18/70/31
f 35/77/32 50/63/32 36/73/32
f 38/78/33 77/61/33 42/74/33
f 20/79/34 64/59/34 19/75/34
f 34/80/35 51/57/35 35/77/35
f 37/81/36 78/82/36 38/78/36
f 26/83/37 65/52/37 20/79/37
f 31/84/38 52/50/38 34/80/38
f 27/85/39 66/48/39 26/83/39
f 29/86/40 53/46/40 31/84/40
f 28/87/41 67/44/41 27/85/41
f 30/28/42 54/42/42 29/86/42
f 23/38/43 68/88/43 28/87/43
f 1/1/1 11/89/1 9/2/1
f 3/4/2 7/32/2 8/5/2
f 7/7/3 5/90/3 6/8/3
f 2/10/4 4/19/4 8/11/4
f 2/13/5 1/1/5 3/3/5
f 5/15/6 1/22/6 2/16/6
f 12/18/7 10/91/7 9/19/7
f 5/15/8 12/92/8 11/21/8
f 7/23/9 10/93/9 12/24/9
f 33/26/10 56/40/10 55/27/10
f 37/29/44 38/94/44 9/30/44
f 45/95/11 37/29/11 10/31/11
f 9/30/11 38/94/11 42/96/11
f 9/30/11 42/96/11 41/97/11
f 44/98/11 45/95/11 10/31/11
f 43/99/11 44/98/11 10/31/11
f 9/30/11 41/97/11 40/100/11
f 9/30/11 40/100/11 39/101/11
f 36/102/11 43/99/11 10/31/11
f 35/103/11 36/102/11 10/31/11
f 9/30/11 39/101/11 21/104/11
f 9/30/11 21/104/11 25/105/11
f 34/106/11 35/103/11 10/31/11
f 31/107/11 34/106/11 10/31/11
f 3/4/11 9/30/11 22/108/11
f 9/30/11 25/105/11 24/109/11
f 9/30/11 24/109/11 22/108/11
f 31/107/11 10/31/11 29/110/11
f 10/31/11 7/32/11 29/110/11
f 3/4/11 22/108/11 23/111/11
f 30/112/11 29/110/11 7/32/11
f 33/113/11 30/112/11 7/32/11
f 3/4/11 23/111/11 28/114/11
f 3/4/11 28/114/11 27/115/11
f 32/116/11 33/113/11 7/32/11
f 13/117/11 32/116/11 7/32/11
f 3/4/11 27/115/11 26/118/11
f 3/4/11 26/118/11 20/119/11
f 15/120/11 13/117/11 7/32/11
f 14/121/11 15/120/11 7/32/11
f 3/4/11 20/119/11 19/122/11
f 3/4/11 19/122/11 18/123/11
f 17/124/11 14/121/11 7/32/11
f 3/4/11 18/123/11 16/33/11
f 16/33/11 17/124/11 7/32/11
f 78/35/11 46/125/11 47/36/11
f 47/36/11 48/126/11 76/127/11
f 48/126/11 49/128/11 75/129/11
f 49/128/11 50/130/11 75/129/11
f 50/130/11 51/131/11 74/132/11
f 75/129/11 50/130/11 74/132/11
f 51/131/11 52/133/11 72/134/11
f 52/133/11 53/135/11 71/136/11
f 53/135/11 54/137/11 71/136/11
f 54/137/11 55/138/11 70/139/11
f 71/136/11 54/137/11 70/139/11
f 55/138/11 56/140/11 68/141/11
f 56/140/11 57/142/11 67/143/11
f 57/142/11 58/144/11 67/143/11
f 58/144/11 59/145/11 66/146/11
f 67/143/11 58/144/11 66/146/11
f 59/145/11 60/147/11 64/148/11
f 60/147/11 61/149/11 63/150/11
f 61/149/11 62/151/11 63/150/11
f 63/150/11 64/148/11 60/147/11
f 64/148/11 65/152/11 59/145/11
f 65/152/11 66/146/11 59/145/11
f 67/143/11 68/141/11 56/140/11
f 68/141/11 69/153/11 55/138/11
f 69/153/11 70/139/11 55/138/11
f 71/136/11 72/134/11 52/133/11
f 72/134/11 73/154/11 51/131/11
f 73/154/11 74/132/11 51/131/11
f 75/129/11 76/127/11 48/126/11
f 76/127/11 77/34/11 47/36/11
f 22/37/12 70/42/12 69/27/12
f 32/39/13 57/44/13 56/40/13
f 24/41/14 71/46/14 70/42/14
f 13/43/15 58/48/15 57/44/15
f 25/45/16 72/50/16 71/46/16
f 15/47/17 59/52/17 58/48/17
f 21/49/18 73/57/18 72/50/18
f 14/51/19 60/59/19 59/52/19
f 45/53/20 47/61/20 46/54/20
f 39/56/21 74/63/21 73/57/21
f 17/58/22 61/65/22 60/59/22
f 44/60/23 48/67/23 47/61/23
f 40/62/24 75/69/24 74/63/24
f 16/64/25 62/71/25 61/65/25
f 43/66/26 49/69/26 48/67/26
f 41/68/27 76/67/27 75/69/27
f 18/70/28 63/76/28 62/71/28
f 36/73/29 50/63/29 49/69/29
f 42/74/30 77/61/30 76/67/30
f 19/75/31 64/59/31 63/76/31
f 35/77/32 51/57/32 50/63/32
f 38/78/33 78/82/33 77/61/33
f 20/79/34 65/52/34 64/59/34
f 34/80/35 52/50/35 51/57/35
f 37/81/45 46/54/45 78/82/45
f 26/83/37 66/48/37 65/52/37
f 31/84/38 53/46/38 52/50/38
f 27/85/39 67/44/39 66/48/39
f 29/86/40 54/42/40 53/46/40
f 28/87/41 68/88/41 67/44/41
f 30/28/42 55/27/42 54/42/42
f 23/38/43 69/27/43 68/88/43
