mtllib gummi_wedge.mtl
o Wedge
v -1.000000 -1.000000 1.000000
v -1.000000 1.000000 1.000000
v -1.000000 -1.000000 -1.000000
v -1.000000 1.000000 -1.000000
v 1.000000 -1.000000 1.000000
v 1.000000 -1.000000 1.000000
v 1.000000 -1.000000 -1.000000
v -1.000000 1.000000 1.000000
vn -0.0000 -0.0000 -1.0000
vn -0.0000 -0.0000 1.0000
vn -1.0000 -0.0000 -0.0000
vn 0.7071 0.7071 -0.0000
vn -0.0000 -1.0000 -0.0000
vt 0.603553 0.750000
vt 0.353553 1.000000
vt 0.353553 0.500000
vt 0.957107 -0.000000
vt 0.957107 0.500000
vt 0.707107 0.250000
vt 0.353553 0.000000
vt 0.707107 0.000000
vt 0.707107 0.353553
vt 0.353553 0.353553
vt 0.342489 0.491903
vt 0.342489 0.154581
vt 0.005167 0.154581
vt 0.005167 0.491903
vt 0.353553 0.853553
vt -0.000000 0.853553
vt 0.000000 0.500000
s 1
usemtl Material.004
f 3/1/1 4/2/1 7/3/1
f 6/4/2 8/5/2 1/6/2
f 2/7/3 4/8/3 3/9/3 1/10/3
f 5/11/4 7/12/4 4/13/4 2/14/4
f 7/15/5 5/16/5 1/17/5 3/3/5
l 2 8