mtllib gummi_water.mtl
o Cube.003
v -0.800000 -0.650000 -0.900000
v -1.000000 -1.000000 -1.000000
v 0.700000 -0.650000 -0.900000
v 1.000000 -1.000000 -1.000000
v -0.800000 -0.650000 0.900000
v -1.000000 -1.000000 1.000000
v 0.700000 -0.650000 0.900000
v 1.000000 -1.000000 1.000000
v 0.700000 0.779426 -0.900000
v 0.700000 0.779426 0.900000
v -0.800000 0.779426 -0.900000
v -0.800000 0.779426 0.900000
v 0.700000 0.468262 0.467500
v 0.700000 0.468262 -0.467500
v 0.700000 -0.314038 -0.000000
v 1.300000 0.468262 0.467500
v 1.300000 -0.314038 -0.000000
v 1.300000 0.468262 -0.467500
v 1.300000 0.396693 0.339191
v 1.300000 -0.170899 -0.000000
v 1.300000 0.396693 -0.339191
vn -0.0000 -0.0000 -1.0000
vn 0.7593 0.6508 -0.0000
vn -0.0000 0.2747 0.9615
vn -0.0000 -1.0000 -0.0000
vn -0.0000 0.2747 -0.9615
vn -0.8682 0.4961 -0.0000
vn -0.0000 1.0000 -0.0000
vn -1.0000 -0.0000 -0.0000
vn -0.0000 -0.0000 1.0000
vn 1.0000 -0.0000 -0.0000
vn -0.0000 -0.5130 -0.8584
vn -0.0000 -0.5130 0.8584
vt 0.763660 0.085975
vt 0.763660 0.169220
vt 0.129085 0.169220
vt 0.129085 0.085975
vt 0.842977 0.184447
vt 0.700965 0.179381
vt 0.700965 0.088197
vt 0.842977 0.083131
vt 0.930366 0.187327
vt 0.760915 0.169162
vt 0.760915 0.078335
vt 0.930366 0.066225
vt 0.967711 0.028989
vt 0.967711 0.131825
vt 0.864874 0.131825
vt 0.864874 0.028989
vt 0.918966 0.180320
vt 0.918966 0.069326
vt 0.937230 0.195062
vt 0.767982 0.189026
vt 0.767982 0.080377
vt 0.937230 0.074341
vt 0.864874 0.224378
vt 0.942002 0.131825
vt 0.942002 0.224378
vt 0.077928 0.189026
vt 0.077928 0.080377
vt 0.068546 0.169162
vt 0.068546 0.078335
vt 0.834120 0.708392
vt 0.566243 0.708392
vt 0.603004 0.686172
vt 0.797360 0.686172
vt 0.850336 0.703812
vt 0.850336 0.503858
vt 0.869489 0.503858
vt 0.869489 0.703812
vt 0.964850 0.653320
vt 0.964850 0.718990
vt 0.922710 0.718990
vt 0.922710 0.653320
vt 0.888642 0.503858
vt 0.888642 0.703812
vt 0.846666 0.790223
vt 0.943844 0.966445
vt 0.749488 0.966445
vt 0.700182 0.465509
vt 0.700182 0.509950
vt 0.526951 0.133789
vt 0.209936 0.110107
vt 0.121711 0.088197
vt 0.121711 0.179381
vt 0.209936 0.157472
s 0
usemtl Material
f 3/1/1 1/2/1 11/3/1 9/4/1
f 4/5/2 3/6/2 7/7/2 8/8/2
f 8/9/3 7/10/3 5/11/3 6/12/3
f 6/13/4 2/14/4 4/15/4 8/16/4
f 2/17/5 1/2/5 3/1/5 4/18/5
f 6/19/6 5/20/6 1/21/6 2/22/6
f 11/23/7 12/15/7 10/24/7 9/25/7
f 1/21/8 5/20/8 12/26/8 11/27/8
f 5/11/9 7/10/9 10/28/9 12/29/9
f 18/30/10 16/31/10 19/32/10 21/33/10
f 15/34/11 14/35/11 18/36/11 17/37/11
f 14/38/7 13/39/7 16/40/7 18/41/7
f 13/42/12 15/43/12 17/37/12 16/36/12
f 20/44/10 21/45/10 19/46/10
f 17/47/10 20/48/10 19/32/10 16/31/10
f 17/47/10 18/30/10 21/33/10 20/48/10
f 7/7/10 15/49/10 13/50/10 10/51/10
f 7/7/10 3/6/10 15/49/10
f 15/49/10 3/6/10 9/52/10 14/53/10
f 14/53/10 9/52/10 10/51/10 13/50/10
