mtllib gummi_bubble_helm.mtl
o Cube.009
v -3.000000 -1.000000 1.004017
v -3.000000 1.000000 1.004017
v -3.000000 -1.000000 -2.995983
v 1.000000 -1.000000 1.004017
v 1.000000 1.000000 1.004017
v 1.000000 -1.000000 -2.995983
v -3.000000 1.000000 -2.995983
v 1.000000 1.000000 -2.995983
v -2.716374 1.000000 -0.658593
v -0.330304 1.000000 -2.616790
v 0.455073 1.000000 -1.972248
v 0.455072 1.000000 -0.027752
v -0.027752 1.000000 0.455072
v -1.669697 1.000000 0.616788
v -1.000000 1.000000 -2.750001
v -1.341407 1.000000 -2.716373
v -1.972247 1.000000 -2.455071
v 0.237438 1.000000 -2.237437
v -1.972248 1.000000 0.455071
v -2.237436 1.000000 -2.237437
v 0.750001 1.000000 -1.000000
v -0.658592 1.000000 0.716374
v -1.000001 1.000000 0.749999
v -2.750000 1.000000 -1.000001
v -2.716373 1.000000 -1.341409
v 0.616790 1.000000 -1.669696
v -0.330304 1.000000 0.616789
v -2.237437 1.000000 0.237436
v -2.455072 1.000000 -0.027753
v -1.000000 2.455072 -1.972248
v -1.000000 1.972248 -2.455072
v -1.000000 1.341408 -2.716375
v -0.933395 2.716374 -1.334848
v -0.869349 2.616789 -1.656828
v -0.810324 2.455072 -1.953567
v -0.758588 2.237437 -2.213660
v -0.716129 1.972248 -2.427114
v -0.684580 1.669696 -2.585724
v -0.665152 1.341408 -2.683395
v -0.658592 1.000000 -2.716375
v -0.869349 2.716374 -1.315420
v -0.743718 2.616789 -1.618719
v -0.627937 2.455072 -1.898240
v -0.526453 2.237437 -2.143243
v -0.443168 1.972248 -2.344311
v -0.381281 1.669696 -2.493719
v -0.343172 1.341408 -2.585724
v -0.810324 2.716374 -1.283870
v -0.627937 2.616789 -1.556832
v -0.459848 2.455072 -1.808395
v -0.312517 2.237437 -2.028892
v -0.191605 1.972248 -2.209848
v -0.101760 1.669696 -2.344311
v -0.046433 1.341408 -2.427114
v -0.027751 1.000000 -2.455072
v -0.758588 2.716374 -1.241412
v -0.526453 2.616789 -1.473547
v -0.312517 2.455072 -1.687483
v -0.124999 2.237437 -1.875000
v 0.028892 1.972248 -2.028891
v 0.143243 1.669696 -2.143243
v 0.213661 1.341408 -2.213660
v -0.716129 2.716374 -1.189676
v -0.443168 2.616789 -1.372063
v -0.191605 2.455072 -1.540152
v 0.028892 2.237437 -1.687483
v 0.209849 1.972248 -1.808395
v 0.344312 1.669696 -1.898240
v 0.427114 1.341408 -1.953567
v -1.000000 2.750000 -1.000000
v -0.684580 2.716374 -1.130651
v -0.381281 2.616789 -1.256282
v -0.101760 2.455072 -1.372063
v 0.143243 2.237437 -1.473547
v 0.344312 1.972248 -1.556832
v 0.493719 1.669696 -1.618719
v 0.585724 1.341408 -1.656828
v -0.665152 2.716374 -1.066605
v -0.343172 2.616789 -1.130651
v -0.046433 2.455072 -1.189676
v 0.213661 2.237437 -1.241412
v 0.427114 1.972248 -1.283870
v 0.585724 1.669696 -1.315420
v 0.683395 1.341408 -1.334848
v 0.716375 1.000000 -1.341408
v -0.658592 2.716374 -1.000000
v -0.330304 2.616789 -1.000000
v -0.027752 2.455072 -1.000000
v 0.237437 2.237437 -1.000000
v 0.455072 1.972248 -1.000000
v 0.616790 1.669696 -1.000000
v 0.716375 1.341408 -1.000000
v -0.665152 2.716374 -0.933395
v -0.343172 2.616789 -0.869349
v -0.046433 2.455072 -0.810324
v 0.213660 2.237437 -0.758588
v 0.427114 1.972248 -0.716129
v 0.585724 1.669696 -0.684580
v 0.683395 1.341408 -0.665152
v 0.716375 1.000000 -0.658592
v -0.684580 2.716374 -0.869349
v -0.381281 2.616789 -0.743718
v -0.101760 2.455072 -0.627937
v 0.143243 2.237437 -0.526453
v 0.344311 1.972248 -0.443168
v 0.493719 1.669696 -0.381281
v 0.585724 1.341408 -0.343172
v 0.616789 1.000000 -0.330304
v -0.716130 2.716374 -0.810324
v -0.443168 2.616789 -0.627937
v -0.191605 2.455072 -0.459848
v 0.028892 2.237437 -0.312517
v 0.209848 1.972248 -0.191605
v 0.344312 1.669696 -0.101760
v 0.427114 1.341408 -0.046433
v -0.758588 2.716374 -0.758588
v -0.526453 2.616789 -0.526453
v -0.312517 2.455072 -0.312517
v -0.125000 2.237437 -0.125000
v 0.028891 1.972248 0.028891
v 0.143243 1.669696 0.143243
v 0.213660 1.341408 0.213660
v 0.237437 1.000000 0.237437
v -0.810324 2.716374 -0.716130
v -0.627937 2.616789 -0.443168
v -0.459848 2.455072 -0.191605
v -0.312517 2.237437 0.028891
v -0.191605 1.972248 0.209848
v -0.101760 1.669696 0.344311
v -0.046433 1.341408 0.427113
v -0.869349 2.716374 -0.684580
v -0.743718 2.616789 -0.381281
v -0.627937 2.455072 -0.101760
v -0.526453 2.237437 0.143243
v -0.443168 1.972248 0.344311
v -0.381281 1.669696 0.493719
v -0.343172 1.341408 0.585723
v -0.933395 2.716374 -0.665152
v -0.869349 2.616789 -0.343172
v -0.810324 2.455072 -0.046434
v -0.758588 2.237437 0.213660
v -0.716130 1.972248 0.427113
v -0.684580 1.669696 0.585723
v -0.665152 1.341408 0.683395
v -1.000000 2.716374 -0.658592
v -1.000000 2.616789 -0.330304
v -1.000000 2.455072 -0.027752
v -1.000000 2.237437 0.237437
v -1.000000 1.972248 0.455072
v -1.000000 1.669696 0.616789
v -1.000000 1.341408 0.716374
v -1.066605 2.716374 -0.665152
v -1.130651 2.616789 -0.343172
v -1.189676 2.455072 -0.046434
v -1.241412 2.237437 0.213660
v -1.283871 1.972248 0.427113
v -1.315420 1.669696 0.585723
v -1.334848 1.341408 0.683394
v -1.341409 1.000000 0.716374
v -1.130651 2.716374 -0.684580
v -1.256282 2.616789 -0.381281
v -1.372063 2.455072 -0.101760
v -1.473547 2.237437 0.143243
v -1.556832 1.972248 0.344311
v -1.618719 1.669696 0.493718
v -1.656828 1.341408 0.585723
v -1.189676 2.716374 -0.716130
v -1.372063 2.616789 -0.443168
v -1.540152 2.455072 -0.191606
v -1.687483 2.237437 0.028891
v -1.808395 1.972248 0.209848
v -1.898240 1.669696 0.344311
v -1.953567 1.341408 0.427113
v -1.241412 2.716374 -0.758588
v -1.473547 2.616789 -0.526453
v -1.687483 2.455072 -0.312517
v -1.875000 2.237437 -0.125000
v -2.028892 1.972248 0.028891
v -2.143243 1.669696 0.143243
v -2.213660 1.341408 0.213660
v -1.283870 2.716374 -0.810324
v -1.556832 2.616789 -0.627937
v -1.808395 2.455072 -0.459848
v -2.028892 2.237437 -0.312517
v -2.209848 1.972248 -0.191606
v -2.344311 1.669696 -0.101760
v -2.427114 1.341408 -0.046434
v -1.315420 2.716374 -0.869349
v -1.618719 2.616789 -0.743719
v -1.898240 2.455072 -0.627937
v -2.143243 2.237437 -0.526453
v -2.344311 1.972248 -0.443169
v -2.493719 1.669696 -0.381282
v -2.585723 1.341408 -0.343172
v -2.616789 1.000000 -0.330305
v -1.334848 2.716374 -0.933395
v -1.656828 2.616789 -0.869349
v -1.953566 2.455072 -0.810324
v -2.213660 2.237437 -0.758588
v -2.427113 1.972248 -0.716130
v -2.585723 1.669696 -0.684580
v -2.683395 1.341408 -0.665152
v -1.341408 2.716374 -1.000000
v -1.669696 2.616789 -1.000000
v -1.972248 2.455072 -1.000000
v -2.237437 2.237437 -1.000000
v -2.455072 1.972248 -1.000000
v -2.616789 1.669696 -1.000000
v -2.716374 1.341408 -1.000000
v -1.334848 2.716374 -1.066605
v -1.656828 2.616789 -1.130651
v -1.953566 2.455072 -1.189676
v -2.213660 2.237437 -1.241412
v -2.427113 1.972248 -1.283871
v -2.585723 1.669696 -1.315420
v -2.683395 1.341408 -1.334848
v -1.315420 2.716374 -1.130651
v -1.618719 2.616789 -1.256282
v -1.898240 2.455072 -1.372063
v -2.143243 2.237437 -1.473547
v -2.344311 1.972248 -1.556832
v -2.493719 1.669696 -1.618718
v -2.585723 1.341408 -1.656828
v -2.616788 1.000000 -1.669696
v -1.283870 2.716374 -1.189676
v -1.556832 2.616789 -1.372063
v -1.808394 2.455072 -1.540152
v -2.028892 2.237437 -1.687483
v -2.209848 1.972248 -1.808395
v -2.344311 1.669696 -1.898240
v -2.427113 1.341408 -1.953567
v -2.455071 1.000000 -1.972248
v -1.241412 2.716374 -1.241412
v -1.473547 2.616789 -1.473547
v -1.687483 2.455072 -1.687483
v -1.875000 2.237437 -1.875000
v -2.028891 1.972248 -2.028891
v -2.143243 1.669696 -2.143242
v -2.213660 1.341408 -2.213660
v -1.189676 2.716374 -1.283870
v -1.372063 2.616789 -1.556832
v -1.540151 2.455072 -1.808394
v -1.687483 2.237437 -2.028891
v -1.808394 1.972248 -2.209848
v -1.898240 1.669696 -2.344311
v -1.953566 1.341408 -2.427113
v -1.130651 2.716374 -1.315420
v -1.256281 2.616789 -1.618718
v -1.372063 2.455072 -1.898239
v -1.473547 2.237437 -2.143243
v -1.556831 1.972248 -2.344311
v -1.618718 1.669696 -2.493718
v -1.656828 1.341408 -2.585723
v -1.669695 1.000000 -2.616788
v -1.066605 2.716374 -1.334848
v -1.130651 2.616789 -1.656828
v -1.189676 2.455072 -1.953566
v -1.241412 2.237437 -2.213660
v -1.283870 1.972248 -2.427113
v -1.315420 1.669696 -2.585723
v -1.334848 1.341408 -2.683394
v -1.000000 2.716374 -1.341408
v -1.000000 2.616789 -1.669696
v -1.000000 2.237437 -2.237437
v -1.000000 1.669696 -2.616789
v -2.616788 0.000000 -1.669696
v 0.455073 0.000000 -1.972248
v 0.716375 0.000000 -1.341408
v 0.616790 0.000000 -1.669696
v 0.616789 0.000000 -0.330304
v 0.455072 0.000000 -0.027752
v 0.237437 0.000000 0.237437
v -0.027752 0.000000 0.455072
v -1.000001 0.000000 0.749999
v -2.237437 0.000000 0.237436
v -2.616789 0.000000 -0.330305
v -2.716374 0.000000 -0.658593
v -2.750000 0.000000 -1.000001
v -2.716373 0.000000 -1.341409
v -0.658592 0.000000 -2.716375
v -1.000000 0.000000 -2.750001
v -1.341407 0.000000 -2.716373
v -1.669695 0.000000 -2.616788
v -2.455071 0.000000 -1.972248
v -1.972247 0.000000 -2.455071
v -2.237436 0.000000 -2.237437
v -0.027751 0.000000 -2.455072
v 0.237438 0.000000 -2.237437
v 0.750001 0.000000 -1.000000
v 0.716375 0.000000 -0.658592
v -0.330304 0.000000 0.616789
v -0.658592 0.000000 0.716374
v -1.341409 0.000000 0.716374
v -1.669697 0.000000 0.616788
v -1.972248 0.000000 0.455071
v -2.455072 0.000000 -0.027753
v -0.330304 0.000000 -2.616790
v 0.631596 0.000000 -0.985193
v 0.480880 0.000000 -0.632783
v 0.270020 0.000000 -0.297720
v 0.007118 0.000000 0.007119
v -0.297721 0.000000 0.270020
v -0.632784 0.000000 0.480880
v -0.985194 0.000000 0.631595
v 0.472322 0.000000 -1.324158
v 0.267503 0.000000 -0.969933
v 0.010207 0.000000 -0.620633
v -0.289680 0.000000 -0.289680
v -0.620633 0.000000 0.010207
v -0.969934 0.000000 0.267503
v -1.324160 0.000000 0.472320
v 0.248343 0.000000 -1.658790
v -0.008744 0.000000 -1.322399
v -0.306306 0.000000 -0.976002
v -0.632909 0.000000 -0.632909
v -0.976002 0.000000 -0.306306
v -1.322400 0.000000 -0.008744
v -1.658792 0.000000 0.248341
v -0.027751 0.000000 -1.972247
v -0.330303 0.000000 -1.669695
v -0.658591 0.000000 -1.341407
v -0.999999 0.000000 -1.000000
v -1.341408 0.000000 -0.658592
v -1.669696 0.000000 -0.330304
v -1.972248 0.000000 -0.027753
v -0.341208 0.000000 -2.248340
v -0.677599 0.000000 -1.991255
v -1.023997 0.000000 -1.693693
v -1.367090 0.000000 -1.367090
v -1.693693 0.000000 -1.023998
v -1.991255 0.000000 -0.677600
v -2.248342 0.000000 -0.341210
v -0.675840 0.000000 -2.472319
v -1.030065 0.000000 -2.267502
v -1.379366 0.000000 -2.010206
v -1.710319 0.000000 -1.710320
v -2.010206 0.000000 -1.379367
v -2.267502 0.000000 -1.030066
v -2.472320 0.000000 -0.675842
v -1.014805 0.000000 -2.631594
v -1.367215 0.000000 -2.480879
v -1.702278 0.000000 -2.270019
v -2.007118 0.000000 -2.007118
v -2.270019 0.000000 -1.702279
v -2.480879 0.000000 -1.367217
v -2.631595 0.000000 -1.014807
vn -1.0000 -0.0000 -0.0000
vn -0.0000 -0.0000 -1.0000
vn -0.0000 -0.0000 1.0000
vn -0.0000 -1.0000 -0.0000
vn 1.0000 -0.0000 -0.0000
vn 0.7730 -0.0000 -0.6344
vn -0.9952 -0.0000 0.0980
vn 0.8819 -0.0000 -0.4714
vn -0.9952 -0.0000 -0.0980
vn 0.9569 -0.0000 -0.2903
vn -0.9569 -0.0000 -0.2903
vn 0.9952 -0.0000 -0.0980
vn -0.8819 -0.0000 -0.4714
vn 0.9952 -0.0000 0.0980
vn -0.7730 -0.0000 -0.6344
vn 0.9569 -0.0000 0.2903
vn -0.6344 -0.0000 -0.7730
vn -0.4714 -0.0000 0.8819
vn -0.4714 -0.0000 -0.8819
vn 0.8819 -0.0000 0.4714
vn -0.2903 -0.0000 0.9569
vn -0.2903 -0.0000 -0.9569
vn 0.6344 -0.0000 0.7730
vn -0.0980 -0.0000 0.9952
vn -0.0980 -0.0000 -0.9952
vn 0.7730 -0.0000 0.6344
vn 0.0980 -0.0000 0.9952
vn 0.0980 -0.0000 -0.9952
vn -0.6344 -0.0000 0.7730
vn 0.2903 -0.0000 0.9569
vn 0.2903 -0.0000 -0.9569
vn -0.7730 -0.0000 0.6344
vn 0.4714 -0.0000 0.8819
vn 0.4714 -0.0000 -0.8819
vn 0.6344 -0.0000 -0.7730
vn -0.9569 -0.0000 0.2903
vn -0.8819 -0.0000 0.4714
vn 0.0286 0.9565 -0.2902
vn 0.0464 0.8810 -0.4709
vn 0.0624 0.7715 -0.6332
vn 0.0759 0.6326 -0.7708
vn 0.0865 0.4696 -0.8786
vn 0.0938 0.2890 -0.9527
vn 0.0975 0.0976 -0.9904
vn 0.0097 0.9951 -0.0980
vn 0.0286 0.9951 -0.0942
vn 0.0846 0.9565 -0.2790
vn 0.1374 0.8810 -0.4528
vn 0.1847 0.7715 -0.6088
vn 0.2248 0.6326 -0.7412
vn 0.2563 0.4696 -0.8448
vn 0.2779 0.2890 -0.9161
vn 0.2889 0.0975 -0.9524
vn 0.3651 0.6326 -0.6831
vn 0.4162 0.4696 -0.7786
vn 0.4513 0.2890 -0.8443
vn 0.4691 0.0975 -0.8777
vn 0.0464 0.9951 -0.0869
vn 0.1374 0.9565 -0.2571
vn 0.2230 0.8810 -0.4173
vn 0.2999 0.7715 -0.5611
vn 0.1850 0.9565 -0.2254
vn 0.3002 0.8810 -0.3658
vn 0.4036 0.7715 -0.4918
vn 0.4913 0.6326 -0.5987
vn 0.5601 0.4696 -0.6825
vn 0.6073 0.2890 -0.7400
vn 0.6314 0.0975 -0.7693
vn 0.0625 0.9951 -0.0761
vn 0.6825 0.4696 -0.5601
vn 0.7400 0.2890 -0.6073
vn 0.7693 0.0975 -0.6314
vn 0.0761 0.9951 -0.0625
vn 0.2254 0.9565 -0.1850
vn 0.3658 0.8810 -0.3002
vn 0.4918 0.7715 -0.4036
vn 0.5987 0.6326 -0.4913
vn 0.2571 0.9565 -0.1374
vn 0.4173 0.8810 -0.2230
vn 0.5611 0.7715 -0.2999
vn 0.6831 0.6326 -0.3651
vn 0.7786 0.4696 -0.4162
vn 0.8443 0.2890 -0.4513
vn 0.8777 0.0975 -0.4691
vn 0.0869 0.9951 -0.0464
vn 0.8448 0.4696 -0.2563
vn 0.9161 0.2890 -0.2779
vn 0.9524 0.0975 -0.2889
vn 0.0942 0.9951 -0.0286
vn 0.2790 0.9565 -0.0846
vn 0.4528 0.8810 -0.1374
vn 0.6088 0.7715 -0.1847
vn 0.7412 0.6326 -0.2248
vn 0.4709 0.8810 -0.0464
vn 0.6332 0.7715 -0.0624
vn 0.7708 0.6326 -0.0759
vn 0.8786 0.4696 -0.0865
vn 0.9527 0.2890 -0.0938
vn 0.9904 0.0975 -0.0975
vn 0.0980 0.9951 -0.0097
vn 0.2902 0.9565 -0.0286
vn 0.9527 0.2890 0.0938
vn 0.9904 0.0975 0.0976
vn 0.0980 0.9951 0.0097
vn 0.2902 0.9565 0.0286
vn 0.4709 0.8810 0.0464
vn 0.6332 0.7715 0.0624
vn 0.7708 0.6326 0.0759
vn 0.8786 0.4696 0.0865
vn 0.6088 0.7715 0.1847
vn 0.7412 0.6326 0.2248
vn 0.8448 0.4696 0.2563
vn 0.9161 0.2890 0.2779
vn 0.9524 0.0975 0.2889
vn 0.0942 0.9951 0.0286
vn 0.2790 0.9565 0.0846
vn 0.4528 0.8810 0.1374
vn 0.8777 0.0975 0.4691
vn 0.0869 0.9951 0.0464
vn 0.2571 0.9565 0.1374
vn 0.4173 0.8810 0.2230
vn 0.5611 0.7715 0.2999
vn 0.6831 0.6326 0.3651
vn 0.7786 0.4696 0.4162
vn 0.8443 0.2890 0.4513
vn 0.4918 0.7715 0.4036
vn 0.5987 0.6326 0.4913
vn 0.6825 0.4696 0.5601
vn 0.7400 0.2890 0.6073
vn 0.7693 0.0975 0.6314
vn 0.0761 0.9951 0.0625
vn 0.2254 0.9565 0.1850
vn 0.3658 0.8810 0.3002
vn 0.6314 0.0975 0.7693
vn 0.0625 0.9951 0.0761
vn 0.1850 0.9565 0.2254
vn 0.3002 0.8810 0.3658
vn 0.4036 0.7715 0.4918
vn 0.4913 0.6326 0.5987
vn 0.5601 0.4696 0.6825
vn 0.6073 0.2890 0.7400
vn 0.3651 0.6326 0.6831
vn 0.4162 0.4696 0.7786
vn 0.4513 0.2890 0.8443
vn 0.4691 0.0975 0.8777
vn 0.0464 0.9951 0.0869
vn 0.1374 0.9565 0.2571
vn 0.2231 0.8810 0.4173
vn 0.2999 0.7715 0.5611
vn 0.0286 0.9951 0.0942
vn 0.0846 0.9565 0.2790
vn 0.1374 0.8810 0.4528
vn 0.1847 0.7715 0.6088
vn 0.2248 0.6326 0.7412
vn 0.2563 0.4696 0.8448
vn 0.2779 0.2890 0.9161
vn 0.2889 0.0975 0.9524
vn 0.0759 0.6326 0.7708
vn 0.0865 0.4696 0.8786
vn 0.0938 0.2890 0.9527
vn 0.0975 0.0975 0.9904
vn 0.0097 0.9951 0.0980
vn 0.0286 0.9565 0.2902
vn 0.0464 0.8810 0.4709
vn 0.0624 0.7715 0.6332
vn -0.0286 0.9565 0.2902
vn -0.0464 0.8810 0.4709
vn -0.0624 0.7715 0.6332
vn -0.0759 0.6326 0.7708
vn -0.0865 0.4696 0.8786
vn -0.0938 0.2890 0.9527
vn -0.0975 0.0975 0.9904
vn -0.0097 0.9951 0.0980
vn -0.2563 0.4696 0.8448
vn -0.2779 0.2890 0.9161
vn -0.2889 0.0975 0.9524
vn -0.0286 0.9951 0.0942
vn -0.0846 0.9565 0.2790
vn -0.1374 0.8810 0.4528
vn -0.1847 0.7715 0.6088
vn -0.2248 0.6326 0.7412
vn -0.2231 0.8810 0.4173
vn -0.2999 0.7715 0.5611
vn -0.3651 0.6326 0.6831
vn -0.4162 0.4696 0.7786
vn -0.4513 0.2890 0.8443
vn -0.4691 0.0975 0.8777
vn -0.0464 0.9951 0.0869
vn -0.1374 0.9565 0.2571
vn -0.6073 0.2890 0.7400
vn -0.6314 0.0975 0.7693
vn -0.0625 0.9951 0.0761
vn -0.1850 0.9565 0.2254
vn -0.3002 0.8810 0.3658
vn -0.4036 0.7715 0.4918
vn -0.4913 0.6326 0.5987
vn -0.5601 0.4696 0.6825
vn -0.3658 0.8810 0.3002
vn -0.4918 0.7715 0.4036
vn -0.5987 0.6326 0.4913
vn -0.6825 0.4696 0.5601
vn -0.7400 0.2890 0.6073
vn -0.7693 0.0975 0.6314
vn -0.0761 0.9951 0.0625
vn -0.2254 0.9565 0.1850
vn -0.8443 0.2890 0.4513
vn -0.8777 0.0975 0.4691
vn -0.0869 0.9951 0.0464
vn -0.2571 0.9565 0.1374
vn -0.4173 0.8810 0.2230
vn -0.5611 0.7715 0.2999
vn -0.6831 0.6326 0.3651
vn -0.7786 0.4696 0.4162
vn -0.6088 0.7715 0.1847
vn -0.7412 0.6326 0.2248
vn -0.8448 0.4696 0.2563
vn -0.9161 0.2890 0.2779
vn -0.9524 0.0975 0.2889
vn -0.0942 0.9951 0.0286
vn -0.2790 0.9565 0.0846
vn -0.4528 0.8810 0.1374
vn -0.9904 0.0975 0.0975
vn -0.0980 0.9951 0.0097
vn -0.2902 0.9565 0.0286
vn -0.4709 0.8810 0.0464
vn -0.6332 0.7715 0.0624
vn -0.7708 0.6326 0.0759
vn -0.8786 0.4696 0.0865
vn -0.9527 0.2890 0.0938
vn -0.6332 0.7715 -0.0624
vn -0.7708 0.6326 -0.0759
vn -0.8786 0.4696 -0.0865
vn -0.9527 0.2890 -0.0938
vn -0.9904 0.0975 -0.0976
vn -0.0980 0.9951 -0.0097
vn -0.2902 0.9565 -0.0286
vn -0.4709 0.8810 -0.0464
vn -0.9524 0.0975 -0.2889
vn -0.0942 0.9951 -0.0286
vn -0.2790 0.9565 -0.0846
vn -0.4528 0.8810 -0.1374
vn -0.6088 0.7715 -0.1847
vn -0.7412 0.6326 -0.2248
vn -0.8448 0.4696 -0.2563
vn -0.9161 0.2890 -0.2779
vn -0.6831 0.6326 -0.3651
vn -0.7786 0.4696 -0.4162
vn -0.8443 0.2890 -0.4513
vn -0.8777 0.0975 -0.4691
vn -0.0869 0.9951 -0.0464
vn -0.2571 0.9565 -0.1374
vn -0.4173 0.8810 -0.2230
vn -0.5611 0.7715 -0.2999
vn -0.2254 0.9565 -0.1850
vn -0.3658 0.8810 -0.3002
vn -0.4918 0.7715 -0.4036
vn -0.5987 0.6326 -0.4913
vn -0.6825 0.4696 -0.5601
vn -0.7400 0.2890 -0.6073
vn -0.7693 0.0975 -0.6314
vn -0.0761 0.9951 -0.0625
vn -0.5601 0.4696 -0.6825
vn -0.6073 0.2890 -0.7400
vn -0.6314 0.0975 -0.7693
vn -0.0625 0.9951 -0.0761
vn -0.1850 0.9565 -0.2254
vn -0.3002 0.8810 -0.3658
vn -0.4036 0.7715 -0.4918
vn -0.4913 0.6326 -0.5987
vn -0.1374 0.9565 -0.2571
vn -0.2230 0.8810 -0.4173
vn -0.2999 0.7715 -0.5611
vn -0.3651 0.6326 -0.6831
vn -0.4162 0.4696 -0.7786
vn -0.4513 0.2890 -0.8443
vn -0.4691 0.0975 -0.8777
vn -0.0464 0.9951 -0.0869
vn -0.2563 0.4696 -0.8448
vn -0.2779 0.2890 -0.9161
vn -0.2889 0.0975 -0.9524
vn -0.0286 0.9951 -0.0942
vn -0.0846 0.9565 -0.2790
vn -0.1374 0.8810 -0.4528
vn -0.1847 0.7715 -0.6088
vn -0.2248 0.6326 -0.7412
vn -0.0464 0.8810 -0.4709
vn -0.0624 0.7715 -0.6332
vn -0.0759 0.6326 -0.7708
vn -0.0865 0.4696 -0.8786
vn -0.0938 0.2890 -0.9527
vn -0.0976 0.0975 -0.9904
vn -0.0097 0.9951 -0.0980
vn -0.0286 0.9565 -0.2902
vn -0.0000 1.0000 -0.0000
vt 0.571997 0.000000
vt 0.855619 -0.000000
vt 0.855619 0.288374
vt 0.571997 0.288374
vt 0.288374 0.000000
vt 0.571996 -0.000000
vt 0.571996 0.288374
vt 0.288374 0.288374
vt 0.874221 0.424829
vt 0.590599 0.424829
vt 0.590599 0.136455
vt 0.874221 0.136455
vt 0.288374 0.000000
vt 0.288374 0.288374
vt 0.000000 0.288374
vt 0.000000 0.000000
vt 0.306976 0.424829
vt 0.306976 0.136455
vt 0.590599 0.136455
vt 0.590599 0.424829
vt 0.947348 0.450327
vt 0.944511 0.469445
vt 0.802700 0.469445
vt 0.805536 0.450327
vt 0.654208 0.380234
vt 0.653770 0.404847
vt 0.511959 0.404847
vt 0.512397 0.380234
vt 0.949455 0.428515
vt 0.807644 0.428515
vt 0.653770 0.355621
vt 0.511959 0.355621
vt 0.950753 0.404847
vt 0.808942 0.404847
vt 0.652472 0.331953
vt 0.510661 0.331953
vt 0.951191 0.380234
vt 0.809380 0.380234
vt 0.650364 0.310141
vt 0.508553 0.310141
vt 0.950753 0.355621
vt 0.808942 0.355621
vt 0.647528 0.291023
vt 0.505717 0.291023
vt 0.949455 0.331953
vt 0.807644 0.331953
vt 0.501873 0.450327
vt 0.499036 0.469445
vt 0.357225 0.469445
vt 0.360062 0.450327
vt 0.798856 0.310141
vt 0.800964 0.331953
vt 0.659153 0.331953
vt 0.657045 0.310141
vt 0.503981 0.428515
vt 0.362169 0.428515
vt 0.947348 0.310141
vt 0.805536 0.310141
vt 0.802262 0.355621
vt 0.660451 0.355621
vt 0.505278 0.404847
vt 0.363467 0.404847
vt 0.798856 0.450327
vt 0.796020 0.469445
vt 0.654208 0.469445
vt 0.657045 0.450327
vt 0.802700 0.380234
vt 0.660889 0.380234
vt 0.505717 0.380234
vt 0.363905 0.380234
vt 0.944511 0.291023
vt 0.802700 0.291023
vt 0.802262 0.404847
vt 0.660450 0.404847
vt 0.505278 0.355621
vt 0.363467 0.355621
vt 0.796020 0.291023
vt 0.654208 0.291023
vt 0.800964 0.428515
vt 0.659153 0.428515
vt 0.503981 0.331953
vt 0.362169 0.331953
vt 0.650364 0.450327
vt 0.647528 0.469445
vt 0.505717 0.469445
vt 0.508553 0.450327
vt 0.501873 0.310141
vt 0.360062 0.310141
vt 0.499036 0.291023
vt 0.357225 0.291023
vt 0.652472 0.428515
vt 0.510661 0.428515
vt 0.106561 0.886140
vt 0.082893 0.886140
vt 0.082420 0.881338
vt 0.105633 0.876721
vt 0.605706 0.780268
vt 0.605706 0.753391
vt 0.615125 0.753223
vt 0.619381 0.780024
vt 0.605706 0.814587
vt 0.623110 0.814277
vt 0.605706 0.855030
vt 0.626171 0.854666
vt 0.605706 0.900043
vt 0.628446 0.899638
vt 0.605706 0.947896
vt 0.629846 0.947466
vt 0.605706 0.996750
vt 0.630319 0.996312
vt 0.058280 0.886140
vt 0.081020 0.876721
vt 0.102886 0.867664
vt 0.624182 0.752727
vt 0.632529 0.779303
vt 0.639846 0.813359
vt 0.645850 0.853587
vt 0.650312 0.898439
vt 0.653059 0.946193
vt 0.653987 0.995014
vt 0.655269 0.811869
vt 0.663986 0.851834
vt 0.670463 0.896492
vt 0.674452 0.944126
vt 0.675799 0.992906
vt 0.078745 0.872466
vt 0.098424 0.859317
vt 0.632529 0.751920
vt 0.644648 0.778132
vt 0.075684 0.868736
vt 0.092420 0.852001
vt 0.116560 0.847199
vt 0.107843 0.836577
vt 0.655269 0.776556
vt 0.668788 0.809863
vt 0.679883 0.849476
vt 0.688127 0.893871
vt 0.693203 0.941344
vt 0.694917 0.990070
vt 0.166441 0.893871
vt 0.174685 0.849476
vt 0.190582 0.851834
vt 0.184104 0.896492
vt 0.161365 0.941344
vt 0.180116 0.944126
vt 0.159650 0.990070
vt 0.178769 0.992906
vt 0.071954 0.865675
vt 0.085103 0.845996
vt 0.097221 0.827860
vt 0.185780 0.809863
vt 0.199299 0.776556
vt 0.209920 0.778132
vt 0.199299 0.811869
vt 0.067699 0.863400
vt 0.076756 0.841535
vt 0.222038 0.751920
vt 0.230385 0.752727
vt 0.222038 0.779303
vt 0.214722 0.813359
vt 0.208718 0.853587
vt 0.204256 0.898439
vt 0.201509 0.946193
vt 0.200581 0.995014
vt 0.228396 0.854666
vt 0.226122 0.899638
vt 0.224721 0.947466
vt 0.224248 0.996312
vt 0.063082 0.862000
vt 0.067699 0.838787
vt 0.239443 0.753223
vt 0.235187 0.780024
vt 0.231457 0.814277
vt 0.248862 0.753391
vt 0.248862 0.780268
vt 0.248862 0.814587
vt 0.248862 0.855030
vt 0.248862 0.900043
vt 0.248862 0.947896
vt 0.248862 0.996750
vt 0.058280 0.861527
vt 0.058280 0.837859
vt 0.271601 0.899638
vt 0.273002 0.947466
vt 0.273475 0.996312
vt 0.053478 0.862000
vt 0.048861 0.838787
vt 0.258281 0.753223
vt 0.262536 0.780024
vt 0.266266 0.814277
vt 0.269327 0.854666
vt 0.275685 0.779303
vt 0.283001 0.813359
vt 0.289006 0.853587
vt 0.293467 0.898439
vt 0.296215 0.946193
vt 0.297142 0.995014
vt 0.048861 0.863400
vt 0.039804 0.841535
vt 0.267338 0.752727
vt 0.317608 0.944126
vt 0.318954 0.992906
vt 0.044606 0.865675
vt 0.031457 0.845996
vt 0.275685 0.751920
vt 0.287803 0.778132
vt 0.298425 0.811869
vt 0.307142 0.851834
vt 0.313619 0.896492
vt 0.298425 0.776556
vt 0.311943 0.809863
vt 0.323038 0.849476
vt 0.331282 0.893871
vt 0.336359 0.941344
vt 0.338073 0.990070
vt 0.040876 0.868736
vt 0.024140 0.852000
vt 0.019339 0.827860
vt 0.008717 0.836577
vt 0.339787 0.941344
vt 0.358538 0.944126
vt 0.357191 0.992906
vt 0.037815 0.872466
vt 0.018136 0.859317
vt -0.000000 0.847199
vt 0.364202 0.809863
vt 0.377721 0.776556
vt 0.388342 0.778132
vt 0.377721 0.811869
vt 0.353108 0.849476
vt 0.369004 0.851834
vt 0.344864 0.893871
vt 0.362527 0.896492
vt 0.393144 0.813359
vt 0.387140 0.853587
vt 0.382678 0.898439
vt 0.379931 0.946193
vt 0.379003 0.995014
vt 0.035540 0.876721
vt 0.013674 0.867664
vt 0.400461 0.751920
vt 0.408808 0.752727
vt 0.400461 0.779303
vt 0.034140 0.881338
vt 0.010927 0.876721
vt 0.417865 0.753223
vt 0.413609 0.780024
vt 0.409880 0.814277
vt 0.406819 0.854666
vt 0.404544 0.899638
vt 0.403144 0.947466
vt 0.402671 0.996312
vt 0.427284 0.814587
vt 0.427284 0.855030
vt 0.427284 0.900043
vt 0.427284 0.947896
vt 0.427284 0.996750
vt 0.033667 0.886140
vt 0.009999 0.886140
vt 0.427284 0.753391
vt 0.427284 0.780268
vt 0.034140 0.890942
vt 0.010927 0.895559
vt 0.436703 0.753223
vt 0.440958 0.780024
vt 0.444688 0.814277
vt 0.447749 0.854666
vt 0.450024 0.899638
vt 0.451424 0.947466
vt 0.451897 0.996312
vt 0.467428 0.853587
vt 0.471889 0.898439
vt 0.474637 0.946193
vt 0.475565 0.995014
vt 0.035540 0.895559
vt 0.013674 0.904616
vt 0.445760 0.752727
vt 0.454107 0.779303
vt 0.461424 0.813359
vt 0.454107 0.751920
vt 0.466225 0.778132
vt 0.476847 0.811869
vt 0.485564 0.851834
vt 0.492041 0.896492
vt 0.496030 0.944126
vt 0.497377 0.992906
vt 0.037815 0.899815
vt 0.018136 0.912963
vt 0.509704 0.893871
vt 0.514781 0.941344
vt 0.516495 0.990070
vt 0.040876 0.903544
vt 0.024140 0.920280
vt -0.000000 0.925082
vt 0.008717 0.935703
vt 0.476847 0.776556
vt 0.490366 0.809863
vt 0.501460 0.849476
vt 0.031457 0.926284
vt 0.019339 0.944420
vt 0.721047 0.809863
vt 0.734565 0.776556
vt 0.745187 0.778132
vt 0.734565 0.811869
vt 0.709952 0.849476
vt 0.725848 0.851834
vt 0.701708 0.893871
vt 0.719371 0.896492
vt 0.696631 0.941344
vt 0.715382 0.944126
vt 0.714036 0.992906
vt 0.044606 0.906605
vt 0.739523 0.898439
vt 0.736775 0.946193
vt 0.735848 0.995014
vt 0.048861 0.908880
vt 0.039804 0.930746
vt 0.757305 0.751920
vt 0.765652 0.752727
vt 0.757305 0.779303
vt 0.749989 0.813359
vt 0.743984 0.853587
vt 0.770454 0.780024
vt 0.766724 0.814277
vt 0.763663 0.854666
vt 0.761389 0.899638
vt 0.759988 0.947466
vt 0.759515 0.996312
vt 0.053478 0.910281
vt 0.048861 0.933493
vt 0.774709 0.753223
vt 0.784128 0.947896
vt 0.784128 0.996750
vt 0.058280 0.910753
vt 0.058280 0.934421
vt 0.784128 0.753391
vt 0.784128 0.780268
vt 0.784128 0.814587
vt 0.784128 0.855030
vt 0.784128 0.900043
vt 0.797803 0.780024
vt 0.801533 0.814277
vt 0.804594 0.854666
vt 0.806868 0.899638
vt 0.808269 0.947466
vt 0.808742 0.996312
vt 0.063082 0.910281
vt 0.067699 0.933493
vt 0.793548 0.753223
vt 0.831481 0.946193
vt 0.832409 0.995014
vt 0.067699 0.908880
vt 0.076756 0.930746
vt 0.802605 0.752727
vt 0.810952 0.779303
vt 0.818268 0.813359
vt 0.824272 0.853587
vt 0.828734 0.898439
vt 0.833691 0.811869
vt 0.842408 0.851834
vt 0.848886 0.896492
vt 0.852874 0.944126
vt 0.854221 0.992906
vt 0.071954 0.906605
vt 0.085103 0.926284
vt 0.810952 0.751920
vt 0.823070 0.778132
vt 0.075684 0.903544
vt 0.092420 0.920280
vt 0.097221 0.944420
vt 0.107843 0.935703
vt 0.833691 0.776556
vt 0.847210 0.809863
vt 0.858305 0.849476
vt 0.866549 0.893871
vt 0.871625 0.941344
vt 0.873340 0.990070
vt 0.523286 0.893871
vt 0.531530 0.849476
vt 0.547426 0.851834
vt 0.540949 0.896492
vt 0.518209 0.941344
vt 0.536960 0.944126
vt 0.535613 0.992906
vt 0.078745 0.899815
vt 0.098424 0.912964
vt 0.116560 0.925082
vt 0.542624 0.809863
vt 0.556143 0.776556
vt 0.566765 0.778132
vt 0.556143 0.811869
vt 0.081020 0.895559
vt 0.102886 0.904616
vt 0.578883 0.751920
vt 0.587230 0.752727
vt 0.578883 0.779303
vt 0.571566 0.813359
vt 0.565562 0.853587
vt 0.561101 0.898439
vt 0.558353 0.946193
vt 0.557425 0.995014
vt 0.585241 0.854666
vt 0.582966 0.899638
vt 0.581566 0.947466
vt 0.581093 0.996312
vt 0.082420 0.890942
vt 0.105633 0.895559
vt 0.596287 0.753223
vt 0.592032 0.780024
vt 0.588302 0.814277
vt 0.511959 0.380234
vt 0.018602 0.136455
vt 0.163079 0.154478
vt 0.289243 0.280642
vt 0.286818 0.256028
vt 0.306976 0.424829
vt 0.018602 0.424829
vt 0.163079 0.406805
vt 0.036915 0.280642
vt 0.039340 0.305255
vt 0.092986 0.175741
vt 0.073868 0.191431
vt 0.252290 0.191431
vt 0.233172 0.175741
vt 0.211360 0.164082
vt 0.114798 0.164082
vt 0.138466 0.156902
vt 0.187692 0.156902
vt 0.252290 0.369853
vt 0.267980 0.350734
vt 0.279639 0.328922
vt 0.267980 0.210549
vt 0.279639 0.232361
vt 0.286818 0.305255
vt 0.233172 0.385543
vt 0.073868 0.369853
vt 0.092986 0.385543
vt 0.114798 0.397202
vt 0.211360 0.397202
vt 0.187692 0.404381
vt 0.138466 0.404381
vt 0.058178 0.210549
vt 0.046519 0.232361
vt 0.058178 0.350735
vt 0.046519 0.328923
vt 0.039340 0.256028
vt 0.513093 0.398570
vt 0.514699 0.414119
vt 0.556038 0.442294
vt 0.653066 0.346349
vt 0.657677 0.361898
vt 0.660451 0.380234
vt 0.509185 0.361898
vt 0.510661 0.380234
vt 0.513615 0.394340
vt 0.582081 0.431212
vt 0.653857 0.366129
vt 0.659153 0.380234
vt 0.661585 0.398570
vt 0.504575 0.346349
vt 0.505365 0.366128
vt 0.508553 0.380234
vt 0.600495 0.426279
vt 0.657045 0.380234
vt 0.662106 0.394340
vt 0.663191 0.414119
vt 0.407546 0.442294
vt 0.433590 0.431212
vt 0.452004 0.426279
vt 0.579963 0.469445
vt 0.634026 0.426279
vt 0.645721 0.431212
vt 0.652880 0.442294
vt 0.416830 0.414119
vt 0.447618 0.394340
vt 0.471430 0.380234
vt 0.638816 0.426279
vt 0.694168 0.380234
vt 0.719853 0.366128
vt 0.750936 0.346349
vt 0.411493 0.398570
vt 0.436415 0.380234
vt 0.455868 0.366128
vt 0.666934 0.431212
vt 0.711604 0.394340
vt 0.733398 0.380234
vt 0.759276 0.361898
vt 0.400590 0.380234
vt 0.415401 0.361898
vt 0.426954 0.346349
vt 0.710985 0.442294
vt 0.740811 0.414119
vt 0.755369 0.398570
vt 0.771819 0.380234
s 0
usemtl Material
f 29/21/6 28/22/6 275/23/6 296/24/6
f 21/25/7 85/26/7 268/27/7 289/28/7
f 195/29/8 29/21/8 296/24/8 276/30/8
f 100/31/9 21/25/9 289/28/9 290/32/9
f 9/33/10 195/29/10 276/30/10 277/34/10
f 108/35/11 100/31/11 290/32/11 270/36/11
f 24/37/12 9/33/12 277/34/12 278/38/12
f 12/39/13 108/35/13 270/36/13 271/40/13
f 25/41/14 24/37/14 278/38/14 279/42/14
f 123/43/15 12/39/15 271/40/15 272/44/15
f 224/45/16 25/41/16 279/42/16 266/46/16
f 13/47/17 123/48/17 272/49/17 273/50/17
f 55/51/18 10/52/18 297/53/18 287/54/18
f 27/55/19 13/47/19 273/50/19 291/56/19
f 232/57/20 224/45/20 266/46/20 284/58/20
f 10/52/21 40/59/21 280/60/21 297/53/21
f 22/61/22 27/55/22 291/56/22 292/62/22
f 17/63/23 20/64/23 286/65/23 285/66/23
f 40/59/24 15/67/24 281/68/24 280/60/24
f 23/69/25 22/61/25 292/62/25 274/70/25
f 20/71/26 232/57/26 284/58/26 286/72/26
f 15/67/27 16/73/27 282/74/27 281/68/27
f 159/75/28 23/69/28 274/70/28 293/76/28
f 18/77/29 55/51/29 287/54/29 288/78/29
f 16/73/30 254/79/30 283/80/30 282/74/30
f 14/81/31 159/75/31 293/76/31 294/82/31
f 11/83/32 18/84/32 288/85/32 267/86/32
f 254/79/33 17/63/33 285/66/33 283/80/33
f 19/87/34 14/81/34 294/82/34 295/88/34
f 28/89/35 19/87/35 295/88/35 275/90/35
f 85/26/36 26/91/36 269/92/36 268/27/36
f 26/91/37 11/83/37 267/86/37 269/92/37
f 263/93/38 262/94/38 33/95/38 34/96/38
f 30/97/39 263/98/39 34/99/39 35/100/39
f 264/101/40 30/97/40 35/100/40 36/102/40
f 31/103/41 264/101/41 36/102/41 37/104/41
f 265/105/42 31/103/42 37/104/42 38/106/42
f 32/107/43 265/105/43 38/106/43 39/108/43
f 15/109/44 32/107/44 39/108/44 40/110/44
f 262/94/45 70/111/45 33/95/45
f 33/95/46 70/111/46 41/112/46
f 34/96/47 33/95/47 41/112/47 42/113/47
f 35/100/48 34/99/48 42/114/48 43/115/48
f 36/102/49 35/100/49 43/115/49 44/116/49
f 37/104/50 36/102/50 44/116/50 45/117/50
f 38/106/51 37/104/51 45/117/51 46/118/51
f 39/108/52 38/106/52 46/118/52 47/119/52
f 40/110/53 39/108/53 47/119/53 10/120/53
f 45/117/54 44/116/54 51/121/54 52/122/54
f 46/118/55 45/117/55 52/122/55 53/123/55
f 47/119/56 46/118/56 53/123/56 54/124/56
f 10/120/57 47/119/57 54/124/57 55/125/57
f 41/112/58 70/111/58 48/126/58
f 42/113/59 41/112/59 48/126/59 49/127/59
f 43/115/60 42/114/60 49/128/60 50/129/60
f 44/116/61 43/115/61 50/129/61 51/121/61
f 49/127/62 48/126/62 56/130/62 57/131/62
f 50/132/63 49/127/63 57/131/63 58/133/63
f 51/121/64 50/129/64 58/134/64 59/135/64
f 52/122/65 51/121/65 59/135/65 60/136/65
f 53/123/66 52/122/66 60/136/66 61/137/66
f 54/124/67 53/123/67 61/137/67 62/138/67
f 55/125/68 54/124/68 62/138/68 18/139/68
f 48/126/69 70/111/69 56/130/69
f 61/140/70 60/141/70 67/142/70 68/143/70
f 62/144/71 61/140/71 68/143/71 69/145/71
f 18/146/72 62/144/72 69/145/72 11/147/72
f 56/130/73 70/111/73 63/148/73
f 57/131/74 56/130/74 63/148/74 64/149/74
f 58/133/75 57/131/75 64/149/75 65/150/75
f 59/151/76 58/152/76 65/153/76 66/154/76
f 60/141/77 59/151/77 66/154/77 67/142/77
f 64/149/78 63/148/78 71/155/78 72/156/78
f 65/153/79 64/157/79 72/158/79 73/159/79
f 66/154/80 65/153/80 73/159/80 74/160/80
f 67/142/81 66/154/81 74/160/81 75/161/81
f 68/143/82 67/142/82 75/161/82 76/162/82
f 69/145/83 68/143/83 76/162/83 77/163/83
f 11/147/84 69/145/84 77/163/84 26/164/84
f 63/148/85 70/111/85 71/155/85
f 76/162/86 75/161/86 82/165/86 83/166/86
f 77/163/87 76/162/87 83/166/87 84/167/87
f 26/164/88 77/163/88 84/167/88 85/168/88
f 71/155/89 70/111/89 78/169/89
f 72/156/90 71/155/90 78/169/90 79/170/90
f 73/159/91 72/158/91 79/171/91 80/172/91
f 74/160/92 73/159/92 80/172/92 81/173/92
f 75/161/93 74/160/93 81/173/93 82/165/93
f 80/172/94 79/171/94 87/174/94 88/175/94
f 81/173/95 80/172/95 88/175/95 89/176/95
f 82/165/96 81/173/96 89/176/96 90/177/96
f 83/166/97 82/165/97 90/177/97 91/178/97
f 84/167/98 83/166/98 91/178/98 92/179/98
f 85/168/99 84/167/99 92/179/99 21/180/99
f 78/169/100 70/111/100 86/181/100
f 79/170/101 78/169/101 86/181/101 87/182/101
f 92/179/102 91/178/102 98/183/102 99/184/102
f 21/180/103 92/179/103 99/184/103 100/185/103
f 86/181/104 70/111/104 93/186/104
f 87/182/105 86/181/105 93/186/105 94/187/105
f 88/175/106 87/174/106 94/188/106 95/189/106
f 89/176/107 88/175/107 95/189/107 96/190/107
f 90/177/108 89/176/108 96/190/108 97/191/108
f 91/178/109 90/177/109 97/191/109 98/183/109
f 96/190/110 95/189/110 103/192/110 104/193/110
f 97/191/111 96/190/111 104/193/111 105/194/111
f 98/183/112 97/191/112 105/194/112 106/195/112
f 99/184/113 98/183/113 106/195/113 107/196/113
f 100/185/114 99/184/114 107/196/114 108/197/114
f 93/186/115 70/111/115 101/198/115
f 94/187/116 93/186/116 101/198/116 102/199/116
f 95/189/117 94/188/117 102/200/117 103/192/117
f 108/197/118 107/196/118 115/201/118 12/202/118
f 101/198/119 70/111/119 109/203/119
f 102/199/120 101/198/120 109/203/120 110/204/120
f 103/192/121 102/200/121 110/205/121 111/206/121
f 104/193/122 103/192/122 111/206/122 112/207/122
f 105/194/123 104/193/123 112/207/123 113/208/123
f 106/195/124 105/194/124 113/208/124 114/209/124
f 107/196/125 106/195/125 114/209/125 115/201/125
f 112/207/126 111/206/126 118/210/126 119/211/126
f 113/208/127 112/207/127 119/211/127 120/212/127
f 114/209/128 113/208/128 120/212/128 121/213/128
f 115/201/129 114/209/129 121/213/129 122/214/129
f 12/202/130 115/201/130 122/214/130 123/215/130
f 109/203/131 70/111/131 116/216/131
f 110/204/132 109/203/132 116/216/132 117/217/132
f 111/218/133 110/204/133 117/217/133 118/219/133
f 123/215/134 122/220/134 130/221/134 13/222/134
f 116/216/135 70/111/135 124/223/135
f 117/217/136 116/216/136 124/223/136 125/224/136
f 118/219/137 117/217/137 125/224/137 126/225/137
f 119/226/138 118/227/138 126/228/138 127/229/138
f 120/230/139 119/226/139 127/229/139 128/231/139
f 121/232/140 120/230/140 128/231/140 129/233/140
f 122/220/141 121/232/141 129/233/141 130/221/141
f 128/231/142 127/229/142 134/234/142 135/235/142
f 129/233/143 128/231/143 135/235/143 136/236/143
f 130/221/144 129/233/144 136/236/144 137/237/144
f 13/222/145 130/221/145 137/237/145 27/238/145
f 124/223/146 70/111/146 131/239/146
f 125/224/147 124/223/147 131/239/147 132/240/147
f 126/228/148 125/241/148 132/242/148 133/243/148
f 127/229/149 126/228/149 133/243/149 134/234/149
f 131/239/150 70/111/150 138/244/150
f 132/240/151 131/239/151 138/244/151 139/245/151
f 133/243/152 132/242/152 139/246/152 140/247/152
f 134/234/153 133/243/153 140/247/153 141/248/153
f 135/235/154 134/234/154 141/248/154 142/249/154
f 136/236/155 135/235/155 142/249/155 143/250/155
f 137/237/156 136/236/156 143/250/156 144/251/156
f 27/238/157 137/237/157 144/251/157 22/252/157
f 142/249/158 141/248/158 148/253/158 149/254/158
f 143/250/159 142/249/159 149/254/159 150/255/159
f 144/251/160 143/250/160 150/255/160 151/256/160
f 22/252/161 144/251/161 151/256/161 23/257/161
f 138/244/162 70/111/162 145/258/162
f 139/245/163 138/244/163 145/258/163 146/259/163
f 140/247/164 139/246/164 146/260/164 147/261/164
f 141/248/165 140/247/165 147/261/165 148/253/165
f 146/259/166 145/258/166 152/262/166 153/263/166
f 147/261/167 146/260/167 153/264/167 154/265/167
f 148/253/168 147/261/168 154/265/168 155/266/168
f 149/254/169 148/253/169 155/266/169 156/267/169
f 150/255/170 149/254/170 156/267/170 157/268/170
f 151/256/171 150/255/171 157/268/171 158/269/171
f 23/257/172 151/256/172 158/269/172 159/270/172
f 145/258/173 70/111/173 152/262/173
f 157/268/174 156/267/174 164/271/174 165/272/174
f 158/269/175 157/268/175 165/272/175 166/273/175
f 159/270/176 158/269/176 166/273/176 14/274/176
f 152/262/177 70/111/177 160/275/177
f 153/263/178 152/262/178 160/275/178 161/276/178
f 154/265/179 153/264/179 161/277/179 162/278/179
f 155/266/180 154/265/180 162/278/180 163/279/180
f 156/267/181 155/266/181 163/279/181 164/271/181
f 162/278/182 161/277/182 168/280/182 169/281/182
f 163/279/183 162/278/183 169/281/183 170/282/183
f 164/271/184 163/279/184 170/282/184 171/283/184
f 165/272/185 164/271/185 171/283/185 172/284/185
f 166/273/186 165/272/186 172/284/186 173/285/186
f 14/274/187 166/273/187 173/285/187 19/286/187
f 160/275/188 70/111/188 167/287/188
f 161/276/189 160/275/189 167/287/189 168/288/189
f 173/285/190 172/284/190 179/289/190 180/290/190
f 19/286/191 173/285/191 180/290/191 28/291/191
f 167/287/192 70/111/192 174/292/192
f 168/288/193 167/287/193 174/292/193 175/293/193
f 169/294/194 168/288/194 175/293/194 176/295/194
f 170/282/195 169/281/195 176/296/195 177/297/195
f 171/283/196 170/282/196 177/297/196 178/298/196
f 172/284/197 171/283/197 178/298/197 179/289/197
f 176/295/198 175/293/198 182/299/198 183/300/198
f 177/301/199 176/302/199 183/303/199 184/304/199
f 178/305/200 177/301/200 184/304/200 185/306/200
f 179/307/201 178/305/201 185/306/201 186/308/201
f 180/309/202 179/307/202 186/308/202 187/310/202
f 28/139/203 180/309/203 187/310/203 29/311/203
f 174/292/204 70/111/204 181/312/204
f 175/293/205 174/292/205 181/312/205 182/299/205
f 187/310/206 186/308/206 193/313/206 194/314/206
f 29/311/207 187/310/207 194/314/207 195/315/207
f 181/312/208 70/111/208 188/316/208
f 182/299/209 181/312/209 188/316/209 189/317/209
f 183/303/210 182/318/210 189/319/210 190/320/210
f 184/304/211 183/303/211 190/320/211 191/321/211
f 185/306/212 184/304/212 191/321/212 192/322/212
f 186/308/213 185/306/213 192/322/213 193/313/213
f 191/321/214 190/320/214 198/323/214 199/324/214
f 192/322/215 191/321/215 199/324/215 200/325/215
f 193/313/216 192/322/216 200/325/216 201/326/216
f 194/314/217 193/313/217 201/326/217 202/327/217
f 195/315/218 194/314/218 202/327/218 9/328/218
f 188/316/219 70/111/219 196/329/219
f 189/317/220 188/316/220 196/329/220 197/330/220
f 190/320/221 189/319/221 197/331/221 198/323/221
f 9/328/222 202/327/222 209/332/222 24/333/222
f 196/329/223 70/111/223 203/334/223
f 197/330/224 196/329/224 203/334/224 204/335/224
f 198/323/225 197/331/225 204/336/225 205/337/225
f 199/324/226 198/323/226 205/337/226 206/338/226
f 200/325/227 199/324/227 206/338/227 207/339/227
f 201/326/228 200/325/228 207/339/228 208/340/228
f 202/327/229 201/326/229 208/340/229 209/332/229
f 206/338/230 205/337/230 212/341/230 213/342/230
f 207/339/231 206/338/231 213/342/231 214/343/231
f 208/340/232 207/339/232 214/343/232 215/344/232
f 209/332/233 208/340/233 215/344/233 216/345/233
f 24/333/234 209/332/234 216/345/234 25/346/234
f 203/334/235 70/111/235 210/347/235
f 204/335/236 203/334/236 210/347/236 211/348/236
f 205/337/237 204/336/237 211/349/237 212/341/237
f 25/346/238 216/345/238 223/350/238 224/351/238
f 210/347/239 70/111/239 217/352/239
f 211/348/240 210/347/240 217/352/240 218/353/240
f 212/341/241 211/349/241 218/354/241 219/355/241
f 213/342/242 212/341/242 219/355/242 220/356/242
f 214/343/243 213/342/243 220/356/243 221/357/243
f 215/344/244 214/343/244 221/357/244 222/358/244
f 216/345/245 215/344/245 222/358/245 223/350/245
f 221/357/246 220/356/246 228/359/246 229/360/246
f 222/358/247 221/357/247 229/360/247 230/361/247
f 223/350/248 222/358/248 230/361/248 231/362/248
f 224/351/249 223/350/249 231/362/249 232/363/249
f 217/352/250 70/111/250 225/364/250
f 218/353/251 217/352/251 225/364/251 226/365/251
f 219/355/252 218/354/252 226/366/252 227/367/252
f 220/356/253 219/355/253 227/367/253 228/359/253
f 226/365/254 225/364/254 233/368/254 234/369/254
f 227/370/255 226/365/255 234/369/255 235/371/255
f 228/359/256 227/367/256 235/372/256 236/373/256
f 229/360/257 228/359/257 236/373/257 237/374/257
f 230/361/258 229/360/258 237/374/258 238/375/258
f 231/362/259 230/361/259 238/375/259 239/376/259
f 232/363/260 231/362/260 239/376/260 20/377/260
f 225/364/261 70/111/261 233/368/261
f 238/378/262 237/379/262 244/380/262 245/381/262
f 239/382/263 238/378/263 245/381/263 246/383/263
f 20/291/264 239/382/264 246/383/264 17/384/264
f 233/368/265 70/111/265 240/385/265
f 234/369/266 233/368/266 240/385/266 241/386/266
f 235/371/267 234/369/267 241/386/267 242/387/267
f 236/388/268 235/389/268 242/390/268 243/391/268
f 237/379/269 236/388/269 243/391/269 244/380/269
f 241/386/270 240/385/270 247/392/270 248/393/270
f 242/390/271 241/394/271 248/395/271 249/396/271
f 243/391/272 242/390/272 249/396/272 250/397/272
f 244/380/273 243/391/273 250/397/273 251/398/273
f 245/381/274 244/380/274 251/398/274 252/399/274
f 246/383/275 245/381/275 252/399/275 253/400/275
f 17/384/276 246/383/276 253/400/276 254/401/276
f 240/385/277 70/111/277 247/392/277
f 252/399/278 251/398/278 259/402/278 260/403/278
f 253/400/279 252/399/279 260/403/279 261/404/279
f 254/401/280 253/400/280 261/404/280 16/405/280
f 247/392/281 70/111/281 255/406/281
f 248/393/282 247/392/282 255/406/282 256/407/282
f 249/396/283 248/395/283 256/408/283 257/409/283
f 250/397/284 249/396/284 257/409/284 258/410/284
f 251/398/285 250/397/285 258/410/285 259/402/285
f 257/409/286 256/408/286 263/98/286 30/97/286
f 258/410/287 257/409/287 30/97/287 264/101/287
f 259/402/288 258/410/288 264/101/288 31/103/288
f 260/403/289 259/402/289 31/103/289 265/105/289
f 261/404/290 260/403/290 265/105/290 32/107/290
f 16/405/291 261/404/291 32/107/291 15/109/291
f 255/406/292 70/111/292 262/94/292
f 256/407/293 255/406/293 262/94/293 263/93/293
f 290/32/294 289/28/294 268/27/294 298/411/294
f 298/411/294 268/27/294 269/92/294 305/447/294
f 305/447/294 269/92/294 267/86/294 312/448/294
f 312/448/294 267/86/294 288/85/294 319/449/294
f 319/449/294 288/85/294 287/54/294 326/450/294
f 326/450/294 287/54/294 297/53/294 333/451/294
f 333/451/294 297/53/294 280/60/294 340/452/294
f 340/452/294 280/60/294 281/68/294 282/74/294
f 270/36/294 290/32/294 298/411/294 299/453/294
f 299/453/294 298/411/294 305/447/294 306/454/294
f 306/454/294 305/447/294 312/448/294 313/455/294
f 313/455/294 312/448/294 319/449/294 320/456/294
f 320/456/294 319/449/294 326/450/294 327/457/294
f 327/457/294 326/450/294 333/451/294 334/458/294
f 334/458/294 333/451/294 340/452/294 341/459/294
f 341/459/294 340/452/294 282/74/294 283/80/294
f 271/40/294 270/36/294 299/453/294 300/460/294
f 300/460/294 299/453/294 306/454/294 307/461/294
f 307/461/294 306/454/294 313/455/294 314/462/294
f 314/462/294 313/455/294 320/456/294 321/463/294
f 321/463/294 320/456/294 327/457/294 328/464/294
f 328/464/294 327/457/294 334/458/294 335/465/294
f 335/465/294 334/458/294 341/459/294 342/466/294
f 342/466/294 341/459/294 283/80/294 285/66/294
f 272/49/294 271/40/294 300/460/294 301/467/294
f 301/467/294 300/460/294 307/461/294 308/468/294
f 308/468/294 307/461/294 314/462/294 315/469/294
f 315/469/294 314/462/294 321/463/294 322/470/294
f 322/470/294 321/463/294 328/464/294 329/471/294
f 329/471/294 328/464/294 335/465/294 336/472/294
f 336/472/294 335/465/294 342/466/294 343/473/294
f 343/473/294 342/466/294 285/66/294 286/65/294
f 273/50/294 272/49/294 301/467/294 302/474/294
f 302/474/294 301/467/294 308/468/294 309/475/294
f 309/475/294 308/468/294 315/469/294 316/476/294
f 316/476/294 315/469/294 322/470/294 323/477/294
f 323/477/294 322/470/294 329/471/294 330/478/294
f 330/478/294 329/471/294 336/472/294 337/479/294
f 337/479/294 336/472/294 343/473/294 344/480/294
f 344/480/294 343/473/294 286/65/294 284/58/294
f 291/56/294 273/50/294 302/474/294 303/481/294
f 303/481/294 302/474/294 309/475/294 310/482/294
f 310/482/294 309/475/294 316/476/294 317/483/294
f 317/483/294 316/476/294 323/477/294 324/484/294
f 324/484/294 323/477/294 330/478/294 331/485/294
f 331/485/294 330/478/294 337/479/294 338/486/294
f 338/486/294 337/479/294 344/480/294 345/487/294
f 345/487/294 344/480/294 284/58/294 266/46/294
f 292/62/294 291/56/294 303/481/294 304/488/294
f 304/488/294 303/481/294 310/482/294 311/489/294
f 311/489/294 310/482/294 317/483/294 318/490/294
f 318/490/294 317/483/294 324/484/294 325/491/294
f 325/491/294 324/484/294 331/485/294 332/492/294
f 332/492/294 331/485/294 338/486/294 339/493/294
f 339/493/294 338/486/294 345/487/294 346/494/294
f 346/494/294 345/487/294 266/46/294 279/42/294
f 274/70/294 292/62/294 304/488/294 293/76/294
f 293/76/294 304/488/294 311/489/294 294/82/294
f 294/82/294 311/489/294 318/490/294 295/88/294
f 295/88/294 318/490/294 325/491/294 275/23/294
f 275/23/294 325/491/294 332/492/294 296/24/294
f 296/24/294 332/492/294 339/493/294 276/30/294
f 276/30/294 339/493/294 346/494/294 277/34/294
f 277/34/294 346/494/294 279/42/294 278/38/294
usemtl Material2
f 1/1/1 2/2/1 7/3/1 3/4/1
f 3/5/2 7/6/2 8/7/2 6/8/2
f 4/9/3 5/10/3 2/11/3 1/12/3
f 3/13/4 6/14/4 4/15/4 1/16/4
f 4/17/5 6/18/5 8/19/5 5/20/5
f 5/412/294 8/18/294 21/413/294
f 15/414/294 40/415/294 8/18/294
f 7/416/294 2/417/294 24/418/294
f 23/419/294 159/420/294 2/417/294
f 12/421/294 123/422/294 5/412/294
f 8/18/294 18/423/294 11/424/294
f 8/18/294 11/424/294 26/425/294
f 108/426/294 12/421/294 5/412/294
f 100/427/294 108/426/294 5/412/294
f 8/18/294 26/425/294 85/428/294
f 21/413/294 100/427/294 5/412/294
f 8/18/294 85/428/294 21/413/294
f 7/416/294 20/429/294 17/430/294
f 7/416/294 17/430/294 254/431/294
f 55/432/294 18/423/294 8/18/294
f 10/433/294 55/432/294 8/18/294
f 7/416/294 254/431/294 16/434/294
f 7/416/294 16/434/294 15/414/294
f 40/415/294 10/433/294 8/18/294
f 7/416/294 15/414/294 8/18/294
f 232/435/294 20/429/294 7/416/294
f 2/417/294 28/436/294 29/437/294
f 2/417/294 29/437/294 195/438/294
f 224/439/294 232/435/294 7/416/294
f 25/440/294 224/439/294 7/416/294
f 2/417/294 195/438/294 9/441/294
f 24/418/294 25/440/294 7/416/294
f 2/417/294 9/441/294 24/418/294
f 5/412/294 123/422/294 13/442/294
f 5/412/294 13/442/294 27/443/294
f 19/444/294 28/436/294 2/417/294
f 14/445/294 19/444/294 2/417/294
f 5/412/294 27/443/294 22/446/294
f 5/412/294 22/446/294 23/419/294
f 159/420/294 14/445/294 2/417/294
f 5/412/294 23/419/294 2/417/294
