# Blender 3.6.23
# www.blender.org
mtllib gummi_booster.mtl
o Cylinder
v -0.187388 2.429314 -0.942067
v -0.367576 2.429314 -0.887408
v -0.533638 2.429314 -0.798646
v -0.679192 2.429314 -0.679193
v -0.798646 2.429314 -0.533638
v -0.887408 2.429314 -0.367576
v -0.942066 2.429314 -0.187388
v -0.960523 2.429314 -0.000000
v -0.942066 2.429314 0.187388
v -0.887408 2.429314 0.367576
v -0.798646 2.429314 0.533638
v -0.679192 2.429314 0.679192
v -0.533638 2.429314 0.798646
v -0.367576 2.429314 0.887408
v -0.187388 2.429314 0.942066
v 0.000000 2.429314 0.960523
v 0.187388 2.429314 0.942066
v 0.367576 2.429314 0.887408
v 0.533638 2.429314 0.798646
v 0.679192 2.429314 0.679192
v 0.798646 2.429314 0.533638
v 0.887408 2.429314 0.367576
v 0.942066 2.429314 0.187388
v 0.960523 2.429314 -0.000000
v 0.942066 2.429314 -0.187388
v 0.887408 2.429314 -0.367576
v 0.798646 2.429314 -0.533638
v 0.679192 2.429314 -0.679193
v 0.533638 2.429314 -0.798646
v 0.367576 2.429314 -0.887408
v 0.187388 2.429314 -0.942067
v 0.000000 2.429314 -0.960523
v 0.000000 1.101582 -0.960523
v 0.187388 1.101582 -0.942066
v 0.367576 1.101582 -0.887408
v 0.533638 1.101582 -0.798646
v 0.679192 1.101582 -0.679192
v 0.798646 1.101582 -0.533638
v 0.887408 1.101582 -0.367576
v 0.942066 1.101582 -0.187388
v 0.960523 1.101582 0.000000
v 0.942066 1.101582 0.187388
v 0.887408 1.101582 0.367576
v 0.798646 1.101582 0.533638
v 0.679192 1.101582 0.679192
v 0.533638 1.101582 0.798646
v 0.367576 1.101582 0.887408
v 0.187388 1.101582 0.942066
v 0.000000 1.101582 0.960523
v -0.187388 1.101582 0.942066
v -0.367576 1.101582 0.887408
v -0.533638 1.101582 0.798646
v -0.679192 1.101582 0.679192
v -0.798646 1.101582 0.533638
v -0.887408 1.101582 0.367576
v -0.942066 1.101582 0.187388
v -0.960523 1.101582 0.000000
v -0.942066 1.101582 -0.187388
v -0.887408 1.101582 -0.367576
v -0.798646 1.101582 -0.533638
v -0.679192 1.101582 -0.679192
v -0.533638 1.101582 -0.798646
v -0.367576 1.101582 -0.887408
v -0.187388 1.101582 -0.942066
v -0.824255 1.101582 0.350214
v -0.673808 1.101582 0.497261
v -0.496504 1.101582 0.622879
v -0.299160 1.101582 0.722239
v -0.089358 1.101582 0.791524
v 0.124838 1.101582 0.828071
v 0.335198 1.101582 0.830476
v -0.814687 1.101582 0.144874
v -0.636422 1.101582 0.281477
v -0.432581 1.101582 0.404562
v -0.210997 1.101582 0.509395
v 0.019816 1.101582 0.591949
v 0.250986 1.101582 0.649053
v 0.473630 1.101582 0.678512
v -0.771396 1.101582 -0.071860
v -0.570374 1.101582 0.044722
v -0.346724 1.101582 0.157875
v -0.109042 1.101582 0.263253
v 0.133538 1.101582 0.356806
v 0.371694 1.101582 0.434937
v 0.596273 1.101582 0.494646
v -0.697232 1.101582 -0.288802
v -0.480261 1.101582 -0.198930
v -0.244835 1.101582 -0.101413
v 0.000000 1.101582 0.000000
v 0.244835 1.101582 0.101413
v 0.480261 1.101582 0.198930
v 0.697232 1.101582 0.288802
v -0.596273 1.101582 -0.494646
v -0.371694 1.101582 -0.434937
v -0.133538 1.101582 -0.356805
v 0.109042 1.101582 -0.263253
v 0.346724 1.101582 -0.157875
v 0.570374 1.101582 -0.044722
v 0.771396 1.101582 0.071860
v -0.473630 1.101582 -0.678512
v -0.250986 1.101582 -0.649053
v -0.019816 1.101582 -0.591949
v 0.210997 1.101582 -0.509395
v 0.432581 1.101582 -0.404562
v 0.636422 1.101582 -0.281477
v 0.814687 1.101582 -0.144874
v -0.335198 1.101582 -0.830476
v -0.124838 1.101582 -0.828071
v 0.089358 1.101582 -0.791523
v 0.299160 1.101582 -0.722239
v 0.496504 1.101582 -0.622879
v 0.673808 1.101582 -0.497261
v 0.824255 1.101582 -0.350214
v 0.824255 2.429314 -0.350214
v 0.673808 2.429314 -0.497262
v 0.496504 2.429314 -0.622879
v 0.299160 2.429314 -0.722239
v 0.089358 2.429314 -0.791524
v -0.124838 2.429314 -0.828071
v -0.335198 2.429314 -0.830476
v 0.814687 2.429314 -0.144874
v 0.636422 2.429314 -0.281477
v 0.432581 2.429314 -0.404562
v 0.210997 2.429314 -0.509395
v -0.019816 2.429314 -0.591949
v -0.250986 2.429314 -0.649053
v -0.473630 2.429314 -0.678512
v 0.771396 2.429314 0.071860
v 0.570374 2.429314 -0.044722
v 0.346724 2.429314 -0.157875
v 0.109042 2.429314 -0.263254
v -0.133538 2.429314 -0.356806
v -0.371694 2.429314 -0.434937
v -0.596273 2.429314 -0.494646
v 0.697232 2.429314 0.288802
v 0.480261 2.429314 0.198930
v 0.244835 2.429314 0.101413
v 0.000000 2.429314 -0.000000
v -0.244835 2.429314 -0.101413
v -0.480261 2.429314 -0.198930
v -0.697232 2.429314 -0.288802
v 0.596273 2.429314 0.494646
v 0.371694 2.429314 0.434937
v 0.133538 2.429314 0.356805
v -0.109042 2.429314 0.263253
v -0.346724 2.429314 0.157875
v -0.570374 2.429314 0.044722
v -0.771396 2.429314 -0.071860
v 0.473630 2.429314 0.678511
v 0.250986 2.429314 0.649053
v 0.019816 2.429314 0.591949
v -0.210997 2.429314 0.509395
v -0.432581 2.429314 0.404562
v -0.636422 2.429314 0.281477
v -0.814687 2.429314 0.144874
v 0.335198 2.429314 0.830475
v 0.124838 2.429314 0.828071
v -0.089358 2.429314 0.791523
v -0.299160 2.429314 0.722239
v -0.496504 2.429314 0.622879
v -0.673808 2.429314 0.497261
v -0.824255 2.429314 0.350214
vn -0.3827 -0.0000 -0.9239
vn -0.1951 -0.0000 -0.9808
vn -0.9239 -0.0000 -0.3827
vn -0.8315 -0.0000 -0.5556
vn 0.7071 -0.0000 0.7071
vn 0.5556 -0.0000 0.8315
vn -0.7071 -0.0000 -0.7071
vn 0.1951 -0.0000 -0.9808
vn 0.3827 -0.0000 -0.9239
vn 0.9239 -0.0000 -0.3827
vn 0.9808 -0.0000 -0.1951
vn -0.5556 -0.0000 -0.8315
vn -0.1951 -0.0000 0.9808
vn -0.3827 -0.0000 0.9239
vn -0.9239 -0.0000 0.3827
vn -0.9808 -0.0000 0.1951
vn -0.5556 -0.0000 0.8315
vn 0.7071 -0.0000 -0.7071
vn 0.8315 -0.0000 -0.5556
vn -1.0000 -0.0000 -0.0000
vn -0.9808 -0.0000 -0.1951
vn -0.7071 -0.0000 0.7071
vn -0.8315 -0.0000 0.5556
vn 0.1951 -0.0000 0.9808
vn -0.0000 -0.0000 1.0000
vn 0.3827 -0.0000 0.9239
vn 0.5556 -0.0000 -0.8315
vn 1.0000 -0.0000 -0.0000
vn 0.9808 -0.0000 0.1951
vn 0.9239 -0.0000 0.3827
vn 0.8315 -0.0000 0.5556
vn -0.0000 -0.0000 -1.0000
vn -0.0000 -1.0000 -0.0000
vn -0.0000 1.0000 -0.0000
vt 0.062500 1.000000
vt 0.031250 1.000000
vt 0.031250 0.500000
vt 0.062500 0.500000
vt 0.187500 0.500000
vt 0.187500 1.000000
vt 0.156250 1.000000
vt 0.156250 0.500000
vt 0.625000 0.500000
vt 0.625000 1.000000
vt 0.593750 1.000000
vt 0.593750 0.500000
vt 0.125000 1.000000
vt 0.125000 0.500000
vt 0.968750 0.500000
vt 0.968750 1.000000
vt 0.937500 1.000000
vt 0.937500 0.500000
vt 0.812500 1.000000
vt 0.781250 1.000000
vt 0.781250 0.500000
vt 0.812500 0.500000
vt 0.093750 1.000000
vt 0.093750 0.500000
vt 0.468750 0.500000
vt 0.468750 1.000000
vt 0.437500 1.000000
vt 0.437500 0.500000
vt 0.312500 1.000000
vt 0.281250 1.000000
vt 0.281250 0.500000
vt 0.312500 0.500000
vt 0.406250 1.000000
vt 0.406250 0.500000
vt 0.875000 0.500000
vt 0.875000 1.000000
vt 0.843750 1.000000
vt 0.843750 0.500000
vt 0.250000 1.000000
vt 0.218750 1.000000
vt 0.218750 0.500000
vt 0.250000 0.500000
vt 0.375000 0.500000
vt 0.375000 1.000000
vt 0.343750 1.000000
vt 0.343750 0.500000
vt 0.531250 0.500000
vt 0.531250 1.000000
vt 0.500000 1.000000
vt 0.500000 0.500000
vt 0.562500 1.000000
vt 0.562500 0.500000
vt 0.906250 1.000000
vt 0.906250 0.500000
vt 0.750000 1.000000
vt 0.718750 1.000000
vt 0.718750 0.500000
vt 0.750000 0.500000
vt 0.687500 1.000000
vt 0.687500 0.500000
vt 0.656250 1.000000
vt 0.656250 0.500000
vt 1.000000 1.000000
vt 1.000000 0.500000
vt 0.087502 0.331964
vt 0.085542 0.390668
vt 0.042441 0.358533
vt 0.037674 0.303720
vt 0.146325 0.357892
vt 0.136542 0.417875
vt 0.210535 0.380100
vt 0.192706 0.438875
vt 0.276262 0.397307
vt 0.251072 0.452617
vt 0.339576 0.408429
vt 0.308592 0.458329
vt 0.396698 0.412628
vt 0.362282 0.455555
vt 0.444188 0.409365
vt 0.409366 0.444188
vt 0.055812 0.409366
vt 0.028453 0.368420
vt 0.009608 0.322923
vt 0.090635 0.444188
vt 0.131581 0.471547
vt 0.177078 0.490393
vt 0.225378 0.500000
vt 0.274623 0.500000
vt 0.322923 0.490393
vt 0.368420 0.471547
vt 0.000000 1.000000
vt 0.000000 0.500000
vt 0.177078 0.990393
vt 0.131581 0.971547
vt 0.179978 0.973511
vt 0.225378 1.000000
vt 0.000000 0.274623
vt 0.471547 0.368419
vt 0.424848 0.363260
vt 0.366387 0.352219
vt 0.299979 0.336196
vt 0.229881 0.316324
vt 0.160556 0.293903
vt 0.096439 0.270332
vt 0.041696 0.247033
vt 0.000000 0.225378
vt 0.490393 0.322922
vt 0.445650 0.309349
vt 0.387992 0.291859
vt 0.321314 0.271632
vt 0.250000 0.250000
vt 0.178686 0.228368
vt 0.112008 0.208141
vt 0.054350 0.190651
vt 0.009607 0.177078
vt 0.500000 0.274622
vt 0.458304 0.252967
vt 0.403562 0.229668
vt 0.339444 0.206097
vt 0.270119 0.183676
vt 0.200021 0.163804
vt 0.133614 0.147781
vt 0.075152 0.136740
vt 0.028453 0.131581
vt 0.500000 0.225377
vt 0.462326 0.196280
vt 0.412498 0.168036
vt 0.353675 0.142108
vt 0.289465 0.119900
vt 0.223738 0.102693
vt 0.160424 0.091571
vt 0.103302 0.087372
vt 0.055812 0.090635
vt 0.490393 0.177077
vt 0.457559 0.141467
vt 0.414458 0.109332
vt 0.363458 0.082125
vt 0.307294 0.061125
vt 0.248928 0.047383
vt 0.191408 0.041671
vt 0.137718 0.044445
vt 0.090634 0.055812
vt 0.471547 0.131580
vt 0.444188 0.090634
vt 0.409366 0.055812
vt 0.368419 0.028453
vt 0.322922 0.009607
vt 0.274622 0.000000
vt 0.225377 0.000000
vt 0.177077 0.009607
vt 0.131580 0.028453
vt 0.233178 0.965756
vt 0.274623 1.000000
vt 0.288478 0.948933
vt 0.322923 0.990393
vt 0.343042 0.924068
vt 0.368420 0.971547
vt 0.394030 0.892515
vt 0.409366 0.944188
vt 0.438741 0.855880
vt 0.444188 0.909365
vt 0.474745 0.815954
vt 0.471547 0.868419
vt 0.500000 0.774622
vt 0.490393 0.822922
vt 0.090635 0.944188
vt 0.137849 0.938123
vt 0.193053 0.922861
vt 0.252982 0.899600
vt 0.314088 0.869900
vt 0.372732 0.835593
vt 0.425366 0.798687
vt 0.468726 0.761264
vt 0.500000 0.725377
vt 0.055812 0.909366
vt 0.100608 0.895195
vt 0.155792 0.872961
vt 0.217797 0.844291
vt 0.282672 0.811125
vt 0.346291 0.775610
vt 0.404577 0.739983
vt 0.453723 0.706451
vt 0.490393 0.677077
vt 0.028453 0.868420
vt 0.069688 0.846379
vt 0.122826 0.817976
vt 0.184277 0.785129
vt 0.250000 0.750000
vt 0.315723 0.714871
vt 0.377174 0.682024
vt 0.430312 0.653621
vt 0.471547 0.631580
vt 0.009608 0.822923
vt 0.046277 0.793549
vt 0.095423 0.760017
vt 0.153709 0.724390
vt 0.217328 0.688875
vt 0.282203 0.655709
vt 0.344208 0.627039
vt 0.399392 0.604805
vt 0.444188 0.590634
vt 0.000000 0.774623
vt 0.031274 0.738736
vt 0.074634 0.701313
vt 0.127268 0.664407
vt 0.185912 0.630100
vt 0.247018 0.600400
vt 0.306947 0.577139
vt 0.362151 0.561877
vt 0.409366 0.555812
vt 0.000000 0.725378
vt 0.025255 0.684046
vt 0.061259 0.644120
vt 0.105970 0.607485
vt 0.156958 0.575932
vt 0.211522 0.551067
vt 0.266822 0.534244
vt 0.320022 0.526489
vt 0.368419 0.528453
vt 0.009607 0.677078
vt 0.028453 0.631581
vt 0.055812 0.590635
vt 0.090634 0.555812
vt 0.131580 0.528453
vt 0.177077 0.509607
vt 0.225377 0.500000
vt 0.274622 0.500000
vt 0.322922 0.509607
s 1
usemtl Material.001
f 2/1/1 1/2/2 64/3/2 63/4/1
f 59/5/3 6/6/3 5/7/4 60/8/4
f 45/9/5 20/10/5 19/11/6 46/12/6
f 5/7/4 4/13/7 61/14/7 60/8/4
f 34/15/8 31/16/8 30/17/9 35/18/9
f 26/19/10 25/20/11 40/21/11 39/22/10
f 3/23/12 2/1/1 63/4/1 62/24/12
f 50/25/13 15/26/13 14/27/14 51/28/14
f 10/29/15 9/30/16 56/31/16 55/32/15
f 14/27/14 13/33/17 52/34/17 51/28/14
f 37/35/18 28/36/18 27/37/19 38/38/19
f 8/39/20 7/40/21 58/41/21 57/42/20
f 53/43/22 12/44/22 11/45/23 54/46/23
f 48/47/24 17/48/24 16/49/25 49/50/25
f 27/37/19 26/19/10 39/22/10 38/38/19
f 56/31/16 9/30/16 8/39/20 57/42/20
f 19/11/6 18/51/26 47/52/26 46/12/6
f 30/17/9 29/53/27 36/54/27 35/18/9
f 13/33/17 12/44/22 53/43/22 52/34/17
f 24/55/28 23/56/29 42/57/29 41/58/28
f 29/53/27 28/36/18 37/35/18 36/54/27
f 42/57/29 23/56/29 22/59/30 43/60/30
f 11/45/23 10/29/15 55/32/15 54/46/23
f 40/21/11 25/20/11 24/55/28 41/58/28
f 22/59/30 21/61/31 44/62/31 43/60/30
f 18/51/26 17/48/24 48/47/24 47/52/26
f 7/40/21 6/6/3 59/5/3 58/41/21
f 21/61/31 20/10/5 45/9/5 44/62/31
f 16/49/25 15/26/13 50/25/13 49/50/25
f 61/14/7 4/13/7 3/23/12 62/24/12
f 32/63/32 31/16/8 34/15/8 33/64/32
f 101/65/33 100/66/33 107/67/33 108/68/33
f 94/69/33 93/70/33 100/66/33 101/65/33
f 87/71/33 86/72/33 93/70/33 94/69/33
f 80/73/33 79/74/33 86/72/33 87/71/33
f 73/75/33 72/76/33 79/74/33 80/73/33
f 66/77/33 65/78/33 72/76/33 73/75/33
f 53/79/33 54/80/33 65/78/33 66/77/33
f 107/67/33 62/81/33 63/82/33 64/83/33
f 100/66/33 61/84/33 62/81/33 107/67/33
f 93/70/33 60/85/33 61/84/33 100/66/33
f 86/72/33 59/86/33 60/85/33 93/70/33
f 79/74/33 58/87/33 59/86/33 86/72/33
f 72/76/33 57/88/33 58/87/33 79/74/33
f 65/78/33 56/89/33 57/88/33 72/76/33
f 54/80/33 55/90/33 56/89/33 65/78/33
f 64/3/2 1/2/2 32/91/32 33/92/32
f 26/93/34 27/94/34 114/95/34 25/96/34
f 108/68/33 107/67/33 64/83/33 33/97/33
f 52/98/33 53/79/33 66/77/33 67/99/33
f 67/99/33 66/77/33 73/75/33 74/100/33
f 74/100/33 73/75/33 80/73/33 81/101/33
f 81/101/33 80/73/33 87/71/33 88/102/33
f 88/102/33 87/71/33 94/69/33 95/103/33
f 95/103/33 94/69/33 101/65/33 102/104/33
f 102/104/33 101/65/33 108/68/33 109/105/33
f 109/105/33 108/68/33 33/97/33 34/106/33
f 51/107/33 52/98/33 67/99/33 68/108/33
f 68/108/33 67/99/33 74/100/33 75/109/33
f 75/109/33 74/100/33 81/101/33 82/110/33
f 82/110/33 81/101/33 88/102/33 89/111/33
f 89/111/33 88/102/33 95/103/33 96/112/33
f 96/112/33 95/103/33 102/104/33 103/113/33
f 103/113/33 102/104/33 109/105/33 110/114/33
f 110/114/33 109/105/33 34/106/33 35/115/33
f 50/116/33 51/107/33 68/108/33 69/117/33
f 69/117/33 68/108/33 75/109/33 76/118/33
f 76/118/33 75/109/33 82/110/33 83/119/33
f 83/119/33 82/110/33 89/111/33 90/120/33
f 90/120/33 89/111/33 96/112/33 97/121/33
f 97/121/33 96/112/33 103/113/33 104/122/33
f 104/122/33 103/113/33 110/114/33 111/123/33
f 111/123/33 110/114/33 35/115/33 36/124/33
f 49/125/33 50/116/33 69/117/33 70/126/33
f 70/126/33 69/117/33 76/118/33 77/127/33
f 77/127/33 76/118/33 83/119/33 84/128/33
f 84/128/33 83/119/33 90/120/33 91/129/33
f 91/129/33 90/120/33 97/121/33 98/130/33
f 98/130/33 97/121/33 104/122/33 105/131/33
f 105/131/33 104/122/33 111/123/33 112/132/33
f 112/132/33 111/123/33 36/124/33 37/133/33
f 48/134/33 49/125/33 70/126/33 71/135/33
f 71/135/33 70/126/33 77/127/33 78/136/33
f 78/136/33 77/127/33 84/128/33 85/137/33
f 85/137/33 84/128/33 91/129/33 92/138/33
f 92/138/33 91/129/33 98/130/33 99/139/33
f 99/139/33 98/130/33 105/131/33 106/140/33
f 106/140/33 105/131/33 112/132/33 113/141/33
f 113/141/33 112/132/33 37/133/33 38/142/33
f 47/143/33 48/134/33 71/135/33 46/144/33
f 46/144/33 71/135/33 78/136/33 45/145/33
f 45/145/33 78/136/33 85/137/33 44/146/33
f 44/146/33 85/137/33 92/138/33 43/147/33
f 43/147/33 92/138/33 99/139/33 42/148/33
f 42/148/33 99/139/33 106/140/33 41/149/33
f 41/149/33 106/140/33 113/141/33 40/150/33
f 40/150/33 113/141/33 38/142/33 39/151/33
f 25/96/34 114/95/34 121/152/34 24/153/34
f 24/153/34 121/152/34 128/154/34 23/155/34
f 23/155/34 128/154/34 135/156/34 22/157/34
f 22/157/34 135/156/34 142/158/34 21/159/34
f 21/159/34 142/158/34 149/160/34 20/161/34
f 20/161/34 149/160/34 156/162/34 19/163/34
f 19/163/34 156/162/34 17/164/34 18/165/34
f 27/94/34 28/166/34 115/167/34 114/95/34
f 114/95/34 115/167/34 122/168/34 121/152/34
f 121/152/34 122/168/34 129/169/34 128/154/34
f 128/154/34 129/169/34 136/170/34 135/156/34
f 135/156/34 136/170/34 143/171/34 142/158/34
f 142/158/34 143/171/34 150/172/34 149/160/34
f 149/160/34 150/172/34 157/173/34 156/162/34
f 156/162/34 157/173/34 16/174/34 17/164/34
f 28/166/34 29/175/34 116/176/34 115/167/34
f 115/167/34 116/176/34 123/177/34 122/168/34
f 122/168/34 123/177/34 130/178/34 129/169/34
f 129/169/34 130/178/34 137/179/34 136/170/34
f 136/170/34 137/179/34 144/180/34 143/171/34
f 143/171/34 144/180/34 151/181/34 150/172/34
f 150/172/34 151/181/34 158/182/34 157/173/34
f 157/173/34 158/182/34 15/183/34 16/174/34
f 29/175/34 30/184/34 117/185/34 116/176/34
f 116/176/34 117/185/34 124/186/34 123/177/34
f 123/177/34 124/186/34 131/187/34 130/178/34
f 130/178/34 131/187/34 138/188/34 137/179/34
f 137/179/34 138/188/34 145/189/34 144/180/34
f 144/180/34 145/189/34 152/190/34 151/181/34
f 151/181/34 152/190/34 159/191/34 158/182/34
f 158/182/34 159/191/34 14/192/34 15/183/34
f 30/184/34 31/193/34 118/194/34 117/185/34
f 117/185/34 118/194/34 125/195/34 124/186/34
f 124/186/34 125/195/34 132/196/34 131/187/34
f 131/187/34 132/196/34 139/197/34 138/188/34
f 138/188/34 139/197/34 146/198/34 145/189/34
f 145/189/34 146/198/34 153/199/34 152/190/34
f 152/190/34 153/199/34 160/200/34 159/191/34
f 159/191/34 160/200/34 13/201/34 14/192/34
f 31/193/34 32/202/34 119/203/34 118/194/34
f 118/194/34 119/203/34 126/204/34 125/195/34
f 125/195/34 126/204/34 133/205/34 132/196/34
f 132/196/34 133/205/34 140/206/34 139/197/34
f 139/197/34 140/206/34 147/207/34 146/198/34
f 146/198/34 147/207/34 154/208/34 153/199/34
f 153/199/34 154/208/34 161/209/34 160/200/34
f 160/200/34 161/209/34 12/210/34 13/201/34
f 32/202/34 1/211/34 120/212/34 119/203/34
f 119/203/34 120/212/34 127/213/34 126/204/34
f 126/204/34 127/213/34 134/214/34 133/205/34
f 133/205/34 134/214/34 141/215/34 140/206/34
f 140/206/34 141/215/34 148/216/34 147/207/34
f 147/207/34 148/216/34 155/217/34 154/208/34
f 154/208/34 155/217/34 162/218/34 161/209/34
f 161/209/34 162/218/34 11/219/34 12/210/34
f 1/211/34 2/220/34 3/221/34 120/212/34
f 120/212/34 3/221/34 4/222/34 127/213/34
f 127/213/34 4/222/34 5/223/34 134/214/34
f 134/214/34 5/223/34 6/224/34 141/215/34
f 141/215/34 6/224/34 7/225/34 148/216/34
f 148/216/34 7/225/34 8/226/34 155/217/34
f 155/217/34 8/226/34 9/227/34 162/218/34
f 162/218/34 9/227/34 10/228/34 11/219/34
o Cylinder.001
v 0.000000 0.400000 -0.900000
v 0.000000 1.100000 -0.397904
v 0.175581 0.400000 -0.882706
v 0.077627 1.100000 -0.390257
v 0.344415 0.400000 -0.831492
v 0.152271 1.100000 -0.367615
v 0.500013 0.400000 -0.748323
v 0.221063 1.100000 -0.330845
v 0.636396 0.400000 -0.636396
v 0.281360 1.100000 -0.281360
v 0.748323 0.400000 -0.500013
v 0.330844 1.100000 -0.221063
v 0.831492 0.400000 -0.344415
v 0.367615 1.100000 -0.152271
v 0.882706 0.400000 -0.175581
v 0.390258 1.100000 -0.077627
v 0.900000 0.400000 0.000000
v 0.397904 1.100000 -0.000000
v 0.882706 0.400000 0.175581
v 0.390258 1.100000 0.077627
v 0.831492 0.400000 0.344415
v 0.367615 1.100000 0.152271
v 0.748323 0.400000 0.500013
v 0.330844 1.100000 0.221063
v 0.636396 0.400000 0.636396
v 0.281360 1.100000 0.281360
v 0.500013 0.400000 0.748323
v 0.221063 1.100000 0.330844
v 0.344415 0.400000 0.831492
v 0.152271 1.100000 0.367615
v 0.175581 0.400000 0.882706
v 0.077627 1.100000 0.390257
v 0.000000 0.400000 0.900000
v 0.000000 1.100000 0.397903
v -0.175581 0.400000 0.882706
v -0.077627 1.100000 0.390257
v -0.344415 0.400000 0.831492
v -0.152271 1.100000 0.367615
v -0.500013 0.400000 0.748323
v -0.221063 1.100000 0.330844
v -0.636396 0.400000 0.636396
v -0.281360 1.100000 0.281360
v -0.748323 0.400000 0.500013
v -0.330844 1.100000 0.221063
v -0.831492 0.400000 0.344415
v -0.367614 1.100000 0.152271
v -0.882706 0.400000 0.175581
v -0.390257 1.100000 0.077627
v -0.900000 0.400000 0.000000
v -0.397903 1.100000 -0.000000
v -0.882706 0.400000 -0.175581
v -0.390257 1.100000 -0.077627
v -0.831492 0.400000 -0.344415
v -0.367614 1.100000 -0.152271
v -0.748323 0.400000 -0.500013
v -0.330844 1.100000 -0.221063
v -0.636396 0.400000 -0.636396
v -0.281360 1.100000 -0.281360
v -0.500013 0.400000 -0.748323
v -0.221063 1.100000 -0.330845
v -0.344415 0.400000 -0.831492
v -0.152271 1.100000 -0.367615
v -0.175581 0.400000 -0.882706
v -0.077627 1.100000 -0.390257
vn -0.0000 0.5828 -0.8126
vn 0.1585 0.5828 -0.7970
vn 0.3110 0.5828 -0.7507
vn 0.4514 0.5828 -0.6756
vn 0.5746 0.5828 -0.5746
vn 0.6756 0.5828 -0.4514
vn 0.7507 0.5828 -0.3110
vn 0.7970 0.5828 -0.1585
vn 0.8126 0.5828 -0.0000
vn 0.7970 0.5828 0.1585
vn 0.7507 0.5828 0.3110
vn 0.6756 0.5828 0.4514
vn 0.5746 0.5828 0.5746
vn 0.4514 0.5828 0.6756
vn 0.3110 0.5828 0.7507
vn 0.1585 0.5828 0.7970
vn -0.0000 0.5828 0.8126
vn -0.1585 0.5828 0.7970
vn -0.3110 0.5828 0.7507
vn -0.4514 0.5828 0.6756
vn -0.5746 0.5828 0.5746
vn -0.6756 0.5828 0.4514
vn -0.7507 0.5828 0.3110
vn -0.7970 0.5828 0.1585
vn -0.8126 0.5828 -0.0000
vn -0.7970 0.5828 -0.1585
vn -0.7507 0.5828 -0.3110
vn -0.6756 0.5828 -0.4514
vn -0.5746 0.5828 -0.5746
vn -0.4514 0.5828 -0.6756
vn -0.3110 0.5828 -0.7507
vn -0.0000 1.0000 -0.0000
vn -0.1585 0.5828 -0.7970
vn -0.0000 -1.0000 -0.0000
vt 1.000000 1.000000
vt 0.968750 0.500000
vt 1.000000 0.500000
vt 0.937500 1.000000
vt 0.937500 0.500000
vt 0.906250 0.500000
vt 0.906250 1.000000
vt 0.875000 0.500000
vt 0.843750 1.000000
vt 0.843750 0.500000
vt 0.812500 0.500000
vt 0.812500 1.000000
vt 0.781250 0.500000
vt 0.750000 1.000000
vt 0.750000 0.500000
vt 0.718750 0.500000
vt 0.687500 1.000000
vt 0.687500 0.500000
vt 0.656250 0.500000
vt 0.656250 1.000000
vt 0.625000 0.500000
vt 0.593750 1.000000
vt 0.593750 0.500000
vt 0.562500 0.500000
vt 0.562500 1.000000
vt 0.531250 0.500000
vt 0.500000 1.000000
vt 0.500000 0.500000
vt 0.468750 0.500000
vt 0.437500 1.000000
vt 0.437500 0.500000
vt 0.406250 0.500000
vt 0.406250 1.000000
vt 0.375000 0.500000
vt 0.343750 1.000000
vt 0.343750 0.500000
vt 0.312500 0.500000
vt 0.312500 1.000000
vt 0.281250 0.500000
vt 0.250000 1.000000
vt 0.250000 0.500000
vt 0.218750 0.500000
vt 0.218750 1.000000
vt 0.187500 0.500000
vt 0.156250 1.000000
vt 0.156250 0.500000
vt 0.125000 0.500000
vt 0.093750 1.000000
vt 0.093750 0.500000
vt 0.062500 0.500000
vt 0.028269 0.341844
vt 0.158156 0.028269
vt 0.471731 0.158156
vt 0.062500 1.000000
vt 0.031250 0.500000
vt 0.000000 1.000000
vt 0.000000 0.500000
vt 0.796822 0.014612
vt 0.514612 0.203178
vt 0.703178 0.485388
vt 0.968750 1.000000
vt 0.875000 1.000000
vt 0.781250 1.000000
vt 0.718750 1.000000
vt 0.625000 1.000000
vt 0.531250 1.000000
vt 0.468750 1.000000
vt 0.375000 1.000000
vt 0.281250 1.000000
vt 0.187500 1.000000
vt 0.125000 1.000000
vt 0.341844 0.471731
vt 0.296822 0.485388
vt 0.158156 0.471731
vt 0.250000 0.490000
vt 0.203178 0.485388
vt 0.116663 0.449553
vt 0.080294 0.419706
vt 0.050447 0.383337
vt 0.014612 0.296822
vt 0.010000 0.250000
vt 0.014612 0.203178
vt 0.028269 0.158156
vt 0.050447 0.116663
vt 0.080294 0.080294
vt 0.116663 0.050447
vt 0.203178 0.014612
vt 0.250000 0.010000
vt 0.296822 0.014612
vt 0.341844 0.028269
vt 0.383337 0.050447
vt 0.419706 0.080294
vt 0.449553 0.116663
vt 0.485388 0.203178
vt 0.490000 0.250000
vt 0.485388 0.296822
vt 0.471731 0.341844
vt 0.449553 0.383337
vt 0.419706 0.419706
vt 0.383337 0.449553
vt 0.031250 1.000000
vt 0.750000 0.490000
vt 0.796822 0.485388
vt 0.841844 0.471731
vt 0.883337 0.449553
vt 0.919706 0.419706
vt 0.949553 0.383337
vt 0.971731 0.341844
vt 0.985388 0.296822
vt 0.990000 0.250000
vt 0.985388 0.203178
vt 0.971731 0.158156
vt 0.949553 0.116663
vt 0.919706 0.080294
vt 0.883337 0.050447
vt 0.841844 0.028269
vt 0.750000 0.010000
vt 0.703178 0.014612
vt 0.658156 0.028269
vt 0.616663 0.050447
vt 0.580294 0.080294
vt 0.550447 0.116663
vt 0.528269 0.158156
vt 0.510000 0.250000
vt 0.514612 0.296822
vt 0.528269 0.341844
vt 0.550447 0.383337
vt 0.580294 0.419706
vt 0.616663 0.449553
vt 0.658156 0.471731
s 1
usemtl Material.005
f 164/229/35 165/230/36 163/231/35
f 165/230/36 168/232/37 167/233/37
f 168/232/37 169/234/38 167/233/37
f 170/235/38 171/236/39 169/234/38
f 171/236/39 174/237/40 173/238/40
f 174/237/40 175/239/41 173/238/40
f 176/240/41 177/241/42 175/239/41
f 177/241/42 180/242/43 179/243/43
f 180/242/43 181/244/44 179/243/43
f 181/244/44 184/245/45 183/246/45
f 184/245/45 185/247/46 183/246/45
f 186/248/46 187/249/47 185/247/46
f 187/249/47 190/250/48 189/251/48
f 190/250/48 191/252/49 189/251/48
f 192/253/49 193/254/50 191/252/49
f 193/254/50 196/255/51 195/256/51
f 196/255/51 197/257/52 195/256/51
f 197/257/52 200/258/53 199/259/53
f 200/258/53 201/260/54 199/259/53
f 202/261/54 203/262/55 201/260/54
f 203/262/55 206/263/56 205/264/56
f 206/263/56 207/265/57 205/264/56
f 208/266/57 209/267/58 207/265/57
f 209/267/58 212/268/59 211/269/59
f 212/268/59 213/270/60 211/269/59
f 214/271/60 215/272/61 213/270/60
f 215/272/61 218/273/62 217/274/62
f 218/273/62 219/275/63 217/274/62
f 219/275/63 222/276/64 221/277/64
f 222/276/64 223/278/65 221/277/64
f 216/279/66 200/280/66 184/281/66
f 224/282/65 225/283/67 223/278/65
f 225/283/67 164/284/35 163/285/35
f 193/286/68 209/287/68 225/288/68
f 164/229/35 166/289/36 165/230/36
f 165/230/36 166/289/36 168/232/37
f 168/232/37 170/235/38 169/234/38
f 170/235/38 172/290/39 171/236/39
f 171/236/39 172/290/39 174/237/40
f 174/237/40 176/240/41 175/239/41
f 176/240/41 178/291/42 177/241/42
f 177/241/42 178/291/42 180/242/43
f 180/242/43 182/292/44 181/244/44
f 181/244/44 182/292/44 184/245/45
f 184/245/45 186/248/46 185/247/46
f 186/248/46 188/293/47 187/249/47
f 187/249/47 188/293/47 190/250/48
f 190/250/48 192/253/49 191/252/49
f 192/253/49 194/294/50 193/254/50
f 193/254/50 194/294/50 196/255/51
f 196/255/51 198/295/52 197/257/52
f 197/257/52 198/295/52 200/258/53
f 200/258/53 202/261/54 201/260/54
f 202/261/54 204/296/55 203/262/55
f 203/262/55 204/296/55 206/263/56
f 206/263/56 208/266/57 207/265/57
f 208/266/57 210/297/58 209/267/58
f 209/267/58 210/297/58 212/268/59
f 212/268/59 214/271/60 213/270/60
f 214/271/60 216/298/61 215/272/61
f 215/272/61 216/298/61 218/273/62
f 218/273/62 220/299/63 219/275/63
f 219/275/63 220/299/63 222/276/64
f 222/276/64 224/282/65 223/278/65
f 168/300/66 166/301/66 224/302/66
f 166/301/66 164/303/66 224/302/66
f 164/303/66 226/304/66 224/302/66
f 224/302/66 222/305/66 220/306/66
f 220/306/66 218/307/66 216/279/66
f 216/279/66 214/308/66 212/309/66
f 212/309/66 210/310/66 208/311/66
f 208/311/66 206/312/66 204/313/66
f 204/313/66 202/314/66 200/280/66
f 200/280/66 198/315/66 196/316/66
f 196/316/66 194/317/66 200/280/66
f 194/317/66 192/318/66 200/280/66
f 192/318/66 190/319/66 188/320/66
f 188/320/66 186/321/66 184/281/66
f 184/281/66 182/322/66 180/323/66
f 180/323/66 178/324/66 176/325/66
f 176/325/66 174/326/66 172/327/66
f 172/327/66 170/328/66 168/300/66
f 224/302/66 220/306/66 168/300/66
f 220/306/66 216/279/66 168/300/66
f 216/279/66 212/309/66 208/311/66
f 208/311/66 204/313/66 216/279/66
f 204/313/66 200/280/66 216/279/66
f 192/318/66 188/320/66 200/280/66
f 188/320/66 184/281/66 200/280/66
f 184/281/66 180/323/66 176/325/66
f 176/325/66 172/327/66 184/281/66
f 172/327/66 168/300/66 184/281/66
f 168/300/66 216/279/66 184/281/66
f 224/282/65 226/329/67 225/283/67
f 225/283/67 226/329/67 164/284/35
f 225/288/68 163/330/68 165/331/68
f 165/331/68 167/332/68 169/333/68
f 169/333/68 171/334/68 173/335/68
f 173/335/68 175/336/68 177/337/68
f 177/337/68 179/338/68 181/339/68
f 181/339/68 183/340/68 185/341/68
f 185/341/68 187/342/68 189/343/68
f 189/343/68 191/344/68 193/286/68
f 193/286/68 195/345/68 197/346/68
f 197/346/68 199/347/68 201/348/68
f 201/348/68 203/349/68 205/350/68
f 205/350/68 207/351/68 209/287/68
f 209/287/68 211/352/68 213/353/68
f 213/353/68 215/354/68 217/355/68
f 217/355/68 219/356/68 221/357/68
f 221/357/68 223/358/68 225/288/68
f 225/288/68 165/331/68 177/337/68
f 165/331/68 169/333/68 177/337/68
f 169/333/68 173/335/68 177/337/68
f 177/337/68 181/339/68 193/286/68
f 181/339/68 185/341/68 193/286/68
f 185/341/68 189/343/68 193/286/68
f 193/286/68 197/346/68 209/287/68
f 197/346/68 201/348/68 209/287/68
f 201/348/68 205/350/68 209/287/68
f 209/287/68 213/353/68 225/288/68
f 213/353/68 217/355/68 225/288/68
f 217/355/68 221/357/68 225/288/68
f 225/288/68 177/337/68 193/286/68
o Cylinder.002
v -0.175581 0.400000 -0.882706
v -0.344415 0.400000 -0.831492
v -0.500013 0.400000 -0.748323
v -0.636396 0.400000 -0.636396
v -0.748323 0.400000 -0.500013
v -0.831492 0.400000 -0.344415
v -0.882706 0.400000 -0.175581
v -0.900000 0.400000 -0.000000
v -0.882706 0.400000 0.175581
v -0.831492 0.400000 0.344415
v -0.748323 0.400000 0.500013
v -0.636396 0.400000 0.636396
v -0.500013 0.400000 0.748323
v -0.344415 0.400000 0.831492
v -0.175581 0.400000 0.882706
v 0.000000 0.400000 0.900000
v 0.175581 0.400000 0.882706
v 0.344415 0.400000 0.831492
v 0.500013 0.400000 0.748323
v 0.636396 0.400000 0.636396
v 0.748323 0.400000 0.500013
v 0.831492 0.400000 0.344415
v 0.882706 0.400000 0.175581
v 0.900000 0.400000 -0.000000
v 0.882706 0.400000 -0.175581
v 0.831492 0.400000 -0.344415
v 0.748323 0.400000 -0.500013
v 0.636396 0.400000 -0.636396
v 0.500013 0.400000 -0.748323
v 0.344415 0.400000 -0.831492
v 0.175581 0.400000 -0.882706
v 0.000000 0.400000 -0.900000
v 0.000000 -0.000000 -0.900000
v 0.175581 -0.000000 -0.882706
v 0.344415 -0.000000 -0.831492
v 0.500013 -0.000000 -0.748323
v 0.636396 -0.000000 -0.636396
v 0.748323 -0.000000 -0.500013
v 0.831492 -0.000000 -0.344415
v 0.882706 -0.000000 -0.175581
v 0.900000 -0.000000 0.000000
v 0.882706 0.000000 0.175581
v 0.831492 0.000000 0.344415
v 0.748323 0.000000 0.500013
v 0.636396 0.000000 0.636396
v 0.500013 0.000000 0.748323
v 0.344415 0.000000 0.831492
v 0.175581 0.000000 0.882706
v 0.000000 0.000000 0.900000
v -0.175581 0.000000 0.882706
v -0.344415 0.000000 0.831492
v -0.500013 0.000000 0.748323
v -0.636396 0.000000 0.636396
v -0.748323 0.000000 0.500013
v -0.831492 0.000000 0.344415
v -0.882706 0.000000 0.175581
v -0.900000 -0.000000 0.000000
v -0.882706 -0.000000 -0.175581
v -0.831492 -0.000000 -0.344415
v -0.748323 -0.000000 -0.500013
v -0.636396 -0.000000 -0.636396
v -0.500013 -0.000000 -0.748323
v -0.344415 -0.000000 -0.831492
v -0.175581 -0.000000 -0.882706
v -0.772319 0.000000 0.328147
v -0.631351 0.000000 0.465928
v -0.465219 0.000000 0.583631
v -0.280309 0.000000 0.676731
v -0.083728 0.000000 0.741650
v 0.116972 0.000000 0.775894
v 0.314077 0.000000 0.778147
v -0.763353 0.000000 0.135745
v -0.596321 0.000000 0.263741
v -0.405324 0.000000 0.379070
v -0.197702 0.000000 0.477298
v 0.018567 0.000000 0.554650
v 0.235171 0.000000 0.608156
v 0.443786 0.000000 0.635758
v -0.722790 -0.000000 -0.067332
v -0.534434 -0.000000 0.041904
v -0.324877 0.000000 0.147928
v -0.102172 0.000000 0.246666
v 0.125123 0.000000 0.334323
v 0.348273 0.000000 0.407532
v 0.558702 0.000000 0.463478
v -0.653299 -0.000000 -0.270605
v -0.450000 -0.000000 -0.186395
v -0.229408 -0.000000 -0.095023
v 0.000000 -0.000000 0.000000
v 0.229408 0.000000 0.095023
v 0.450000 0.000000 0.186395
v 0.653299 0.000000 0.270605
v -0.558702 -0.000000 -0.463478
v -0.348273 -0.000000 -0.407532
v -0.125123 -0.000000 -0.334323
v 0.102172 -0.000000 -0.246666
v 0.324877 -0.000000 -0.147928
v 0.534434 -0.000000 -0.041904
v 0.722790 0.000000 0.067332
v -0.443786 -0.000000 -0.635758
v -0.235171 -0.000000 -0.608156
v -0.018567 -0.000000 -0.554650
v 0.197702 -0.000000 -0.477298
v 0.405324 -0.000000 -0.379070
v 0.596321 -0.000000 -0.263741
v 0.763353 -0.000000 -0.135745
v -0.314077 -0.000000 -0.778147
v -0.116972 -0.000000 -0.775894
v 0.083728 -0.000000 -0.741649
v 0.280309 -0.000000 -0.676731
v 0.465219 -0.000000 -0.583631
v 0.631351 -0.000000 -0.465928
v 0.772319 -0.000000 -0.328147
v 0.772319 0.400000 -0.328147
v 0.631351 0.400000 -0.465929
v 0.465219 0.400000 -0.583631
v 0.280309 0.400000 -0.676731
v 0.083728 0.400000 -0.741650
v -0.116972 0.400000 -0.775894
v -0.314077 0.400000 -0.778147
v 0.763353 0.400000 -0.135745
v 0.596321 0.400000 -0.263741
v 0.405324 0.400000 -0.379070
v 0.197702 0.400000 -0.477298
v -0.018567 0.400000 -0.554650
v -0.235171 0.400000 -0.608156
v -0.443786 0.400000 -0.635758
v 0.722790 0.400000 0.067332
v 0.534434 0.400000 -0.041904
v 0.324877 0.400000 -0.147928
v 0.102172 0.400000 -0.246666
v -0.125123 0.400000 -0.334323
v -0.348273 0.400000 -0.407532
v -0.558702 0.400000 -0.463478
v 0.653299 0.400000 0.270605
v 0.450000 0.400000 0.186395
v 0.229408 0.400000 0.095023
v 0.000000 0.400000 -0.000000
v -0.229408 0.400000 -0.095023
v -0.450000 0.400000 -0.186395
v -0.653299 0.400000 -0.270605
v 0.558702 0.400000 0.463478
v 0.348273 0.400000 0.407532
v 0.125123 0.400000 0.334323
v -0.102172 0.400000 0.246666
v -0.324877 0.400000 0.147928
v -0.534434 0.400000 0.041904
v -0.722790 0.400000 -0.067332
v 0.443786 0.400000 0.635758
v 0.235171 0.400000 0.608156
v 0.018567 0.400000 0.554650
v -0.197702 0.400000 0.477298
v -0.405324 0.400000 0.379070
v -0.596321 0.400000 0.263741
v -0.763353 0.400000 0.135745
v 0.314077 0.400000 0.778146
v 0.116972 0.400000 0.775894
v -0.083728 0.400000 0.741649
v -0.280309 0.400000 0.676731
v -0.465219 0.400000 0.583631
v -0.631351 0.400000 0.465928
v -0.772319 0.400000 0.328147
vn -0.3827 -0.0000 -0.9239
vn -0.1951 -0.0000 -0.9808
vn -0.9239 -0.0000 -0.3827
vn -0.8315 -0.0000 -0.5556
vn 0.7071 -0.0000 0.7071
vn 0.5556 -0.0000 0.8315
vn -0.7071 -0.0000 -0.7071
vn 0.1951 -0.0000 -0.9808
vn 0.3827 -0.0000 -0.9239
vn 0.9239 -0.0000 -0.3827
vn 0.9808 -0.0000 -0.1951
vn -0.5556 -0.0000 -0.8315
vn -0.1951 -0.0000 0.9808
vn -0.3827 -0.0000 0.9239
vn -0.9239 -0.0000 0.3827
vn -0.9808 -0.0000 0.1951
vn -0.5556 -0.0000 0.8315
vn 0.7071 -0.0000 -0.7071
vn 0.8315 -0.0000 -0.5556
vn -1.0000 -0.0000 -0.0000
vn -0.9808 -0.0000 -0.1951
vn -0.7071 -0.0000 0.7071
vn -0.8315 -0.0000 0.5556
vn 0.1951 -0.0000 0.9808
vn -0.0000 -0.0000 1.0000
vn 0.3827 -0.0000 0.9239
vn 0.5556 -0.0000 -0.8315
vn 1.0000 -0.0000 -0.0000
vn 0.9808 -0.0000 0.1951
vn 0.9239 -0.0000 0.3827
vn 0.8315 -0.0000 0.5556
vn -0.0000 -0.0000 -1.0000
vn -0.0000 -1.0000 -0.0000
vn -0.0000 1.0000 -0.0000
vt 0.062500 1.000000
vt 0.031250 1.000000
vt 0.031250 0.500000
vt 0.062500 0.500000
vt 0.187500 0.500000
vt 0.187500 1.000000
vt 0.156250 1.000000
vt 0.156250 0.500000
vt 0.625000 0.500000
vt 0.625000 1.000000
vt 0.593750 1.000000
vt 0.593750 0.500000
vt 0.125000 1.000000
vt 0.125000 0.500000
vt 0.968750 0.500000
vt 0.968750 1.000000
vt 0.937500 1.000000
vt 0.937500 0.500000
vt 0.812500 1.000000
vt 0.781250 1.000000
vt 0.781250 0.500000
vt 0.812500 0.500000
vt 0.093750 1.000000
vt 0.093750 0.500000
vt 0.468750 0.500000
vt 0.468750 1.000000
vt 0.437500 1.000000
vt 0.437500 0.500000
vt 0.312500 1.000000
vt 0.281250 1.000000
vt 0.281250 0.500000
vt 0.312500 0.500000
vt 0.406250 1.000000
vt 0.406250 0.500000
vt 0.875000 0.500000
vt 0.875000 1.000000
vt 0.843750 1.000000
vt 0.843750 0.500000
vt 0.250000 1.000000
vt 0.218750 1.000000
vt 0.218750 0.500000
vt 0.250000 0.500000
vt 0.375000 0.500000
vt 0.375000 1.000000
vt 0.343750 1.000000
vt 0.343750 0.500000
vt 0.531250 0.500000
vt 0.531250 1.000000
vt 0.500000 1.000000
vt 0.500000 0.500000
vt 0.562500 1.000000
vt 0.562500 0.500000
vt 0.906250 1.000000
vt 0.906250 0.500000
vt 0.750000 1.000000
vt 0.718750 1.000000
vt 0.718750 0.500000
vt 0.750000 0.500000
vt 0.687500 1.000000
vt 0.687500 0.500000
vt 0.656250 1.000000
vt 0.656250 0.500000
vt 1.000000 1.000000
vt 1.000000 0.500000
vt 0.087502 0.331964
vt 0.085542 0.390668
vt 0.042441 0.358533
vt 0.037674 0.303720
vt 0.146325 0.357892
vt 0.136542 0.417875
vt 0.210535 0.380100
vt 0.192706 0.438875
vt 0.276262 0.397307
vt 0.251072 0.452617
vt 0.339576 0.408429
vt 0.308592 0.458329
vt 0.396698 0.412628
vt 0.362282 0.455555
vt 0.444188 0.409365
vt 0.409366 0.444188
vt 0.055812 0.409366
vt 0.028453 0.368420
vt 0.009608 0.322923
vt 0.090635 0.444188
vt 0.131581 0.471547
vt 0.177078 0.490393
vt 0.225378 0.500000
vt 0.274623 0.500000
vt 0.322923 0.490393
vt 0.368420 0.471547
vt 0.000000 1.000000
vt 0.000000 0.500000
vt 0.177078 0.990393
vt 0.131581 0.971547
vt 0.179978 0.973511
vt 0.225378 1.000000
vt 0.000000 0.274623
vt 0.471547 0.368419
vt 0.424848 0.363260
vt 0.366387 0.352219
vt 0.299979 0.336196
vt 0.229881 0.316324
vt 0.160556 0.293903
vt 0.096439 0.270332
vt 0.041696 0.247033
vt 0.000000 0.225378
vt 0.490393 0.322922
vt 0.445650 0.309349
vt 0.387992 0.291859
vt 0.321314 0.271632
vt 0.250000 0.250000
vt 0.178686 0.228368
vt 0.112008 0.208141
vt 0.054350 0.190651
vt 0.009607 0.177078
vt 0.500000 0.274622
vt 0.458304 0.252967
vt 0.403562 0.229668
vt 0.339444 0.206097
vt 0.270119 0.183676
vt 0.200021 0.163804
vt 0.133614 0.147781
vt 0.075152 0.136740
vt 0.028453 0.131581
vt 0.500000 0.225377
vt 0.462326 0.196280
vt 0.412498 0.168036
vt 0.353675 0.142108
vt 0.289465 0.119900
vt 0.223738 0.102693
vt 0.160424 0.091571
vt 0.103302 0.087372
vt 0.055812 0.090635
vt 0.490393 0.177077
vt 0.457559 0.141467
vt 0.414458 0.109332
vt 0.363458 0.082125
vt 0.307294 0.061125
vt 0.248928 0.047383
vt 0.191408 0.041671
vt 0.137718 0.044445
vt 0.090634 0.055812
vt 0.471547 0.131580
vt 0.444188 0.090634
vt 0.409366 0.055812
vt 0.368419 0.028453
vt 0.322922 0.009607
vt 0.274622 0.000000
vt 0.225377 0.000000
vt 0.177077 0.009607
vt 0.131580 0.028453
vt 0.233178 0.965756
vt 0.274623 1.000000
vt 0.288478 0.948933
vt 0.322923 0.990393
vt 0.343042 0.924068
vt 0.368420 0.971547
vt 0.394030 0.892515
vt 0.409366 0.944188
vt 0.438741 0.855880
vt 0.444188 0.909365
vt 0.474745 0.815954
vt 0.471547 0.868419
vt 0.500000 0.774622
vt 0.490393 0.822922
vt 0.090635 0.944188
vt 0.137849 0.938123
vt 0.193053 0.922861
vt 0.252982 0.899600
vt 0.314088 0.869900
vt 0.372732 0.835593
vt 0.425366 0.798687
vt 0.468726 0.761264
vt 0.500000 0.725377
vt 0.055812 0.909366
vt 0.100608 0.895195
vt 0.155792 0.872961
vt 0.217797 0.844291
vt 0.282672 0.811125
vt 0.346291 0.775610
vt 0.404577 0.739983
vt 0.453723 0.706451
vt 0.490393 0.677077
vt 0.028453 0.868420
vt 0.069688 0.846379
vt 0.122826 0.817976
vt 0.184277 0.785129
vt 0.250000 0.750000
vt 0.315723 0.714871
vt 0.377174 0.682024
vt 0.430312 0.653621
vt 0.471547 0.631580
vt 0.009608 0.822923
vt 0.046277 0.793549
vt 0.095423 0.760017
vt 0.153709 0.724390
vt 0.217328 0.688875
vt 0.282203 0.655709
vt 0.344208 0.627039
vt 0.399392 0.604805
vt 0.444188 0.590634
vt 0.000000 0.774623
vt 0.031274 0.738736
vt 0.074634 0.701313
vt 0.127268 0.664407
vt 0.185912 0.630100
vt 0.247018 0.600400
vt 0.306947 0.577139
vt 0.362151 0.561877
vt 0.409366 0.555812
vt 0.000000 0.725378
vt 0.025255 0.684046
vt 0.061259 0.644120
vt 0.105970 0.607485
vt 0.156958 0.575932
vt 0.211522 0.551067
vt 0.266822 0.534244
vt 0.320022 0.526489
vt 0.368419 0.528453
vt 0.009607 0.677078
vt 0.028453 0.631581
vt 0.055812 0.590635
vt 0.090634 0.555812
vt 0.131580 0.528453
vt 0.177077 0.509607
vt 0.225377 0.500000
vt 0.274622 0.500000
vt 0.322922 0.509607
s 1
usemtl Material.002
f 228/359/69 227/360/70 290/361/70 289/362/69
f 285/363/71 232/364/71 231/365/72 286/366/72
f 271/367/73 246/368/73 245/369/74 272/370/74
f 231/365/72 230/371/75 287/372/75 286/366/72
f 260/373/76 257/374/76 256/375/77 261/376/77
f 252/377/78 251/378/79 266/379/79 265/380/78
f 229/381/80 228/359/69 289/362/69 288/382/80
f 276/383/81 241/384/81 240/385/82 277/386/82
f 236/387/83 235/388/84 282/389/84 281/390/83
f 240/385/82 239/391/85 278/392/85 277/386/82
f 263/393/86 254/394/86 253/395/87 264/396/87
f 234/397/88 233/398/89 284/399/89 283/400/88
f 279/401/90 238/402/90 237/403/91 280/404/91
f 274/405/92 243/406/92 242/407/93 275/408/93
f 253/395/87 252/377/78 265/380/78 264/396/87
f 282/389/84 235/388/84 234/397/88 283/400/88
f 245/369/74 244/409/94 273/410/94 272/370/74
f 256/375/77 255/411/95 262/412/95 261/376/77
f 239/391/85 238/402/90 279/401/90 278/392/85
f 250/413/96 249/414/97 268/415/97 267/416/96
f 255/411/95 254/394/86 263/393/86 262/412/95
f 268/415/97 249/414/97 248/417/98 269/418/98
f 237/403/91 236/387/83 281/390/83 280/404/91
f 266/379/79 251/378/79 250/413/96 267/416/96
f 248/417/98 247/419/99 270/420/99 269/418/98
f 244/409/94 243/406/92 274/405/92 273/410/94
f 233/398/89 232/364/71 285/363/71 284/399/89
f 247/419/99 246/368/73 271/367/73 270/420/99
f 242/407/93 241/384/81 276/383/81 275/408/93
f 287/372/75 230/371/75 229/381/80 288/382/80
f 258/421/100 257/374/76 260/373/76 259/422/100
f 327/423/101 326/424/101 333/425/101 334/426/101
f 320/427/101 319/428/101 326/424/101 327/423/101
f 313/429/101 312/430/101 319/428/101 320/427/101
f 306/431/101 305/432/101 312/430/101 313/429/101
f 299/433/101 298/434/101 305/432/101 306/431/101
f 292/435/101 291/436/101 298/434/101 299/433/101
f 279/437/101 280/438/101 291/436/101 292/435/101
f 333/425/101 288/439/101 289/440/101 290/441/101
f 326/424/101 287/442/101 288/439/101 333/425/101
f 319/428/101 286/443/101 287/442/101 326/424/101
f 312/430/101 285/444/101 286/443/101 319/428/101
f 305/432/101 284/445/101 285/444/101 312/430/101
f 298/434/101 283/446/101 284/445/101 305/432/101
f 291/436/101 282/447/101 283/446/101 298/434/101
f 280/438/101 281/448/101 282/447/101 291/436/101
f 290/361/70 227/360/70 258/449/100 259/450/100
f 252/451/102 253/452/102 340/453/102 251/454/102
f 334/426/101 333/425/101 290/441/101 259/455/101
f 278/456/101 279/437/101 292/435/101 293/457/101
f 293/457/101 292/435/101 299/433/101 300/458/101
f 300/458/101 299/433/101 306/431/101 307/459/101
f 307/459/101 306/431/101 313/429/101 314/460/101
f 314/460/101 313/429/101 320/427/101 321/461/101
f 321/461/101 320/427/101 327/423/101 328/462/101
f 328/462/101 327/423/101 334/426/101 335/463/101
f 335/463/101 334/426/101 259/455/101 260/464/101
f 277/465/101 278/456/101 293/457/101 294/466/101
f 294/466/101 293/457/101 300/458/101 301/467/101
f 301/467/101 300/458/101 307/459/101 308/468/101
f 308/468/101 307/459/101 314/460/101 315/469/101
f 315/469/101 314/460/101 321/461/101 322/470/101
f 322/470/101 321/461/101 328/462/101 329/471/101
f 329/471/101 328/462/101 335/463/101 336/472/101
f 336/472/101 335/463/101 260/464/101 261/473/101
f 276/474/101 277/465/101 294/466/101 295/475/101
f 295/475/101 294/466/101 301/467/101 302/476/101
f 302/476/101 301/467/101 308/468/101 309/477/101
f 309/477/101 308/468/101 315/469/101 316/478/101
f 316/478/101 315/469/101 322/470/101 323/479/101
f 323/479/101 322/470/101 329/471/101 330/480/101
f 330/480/101 329/471/101 336/472/101 337/481/101
f 337/481/101 336/472/101 261/473/101 262/482/101
f 275/483/101 276/474/101 295/475/101 296/484/101
f 296/484/101 295/475/101 302/476/101 303/485/101
f 303/485/101 302/476/101 309/477/101 310/486/101
f 310/486/101 309/477/101 316/478/101 317/487/101
f 317/487/101 316/478/101 323/479/101 324/488/101
f 324/488/101 323/479/101 330/480/101 331/489/101
f 331/489/101 330/480/101 337/481/101 338/490/101
f 338/490/101 337/481/101 262/482/101 263/491/101
f 274/492/101 275/483/101 296/484/101 297/493/101
f 297/493/101 296/484/101 303/485/101 304/494/101
f 304/494/101 303/485/101 310/486/101 311/495/101
f 311/495/101 310/486/101 317/487/101 318/496/101
f 318/496/101 317/487/101 324/488/101 325/497/101
f 325/497/101 324/488/101 331/489/101 332/498/101
f 332/498/101 331/489/101 338/490/101 339/499/101
f 339/499/101 338/490/101 263/491/101 264/500/101
f 273/501/101 274/492/101 297/493/101 272/502/101
f 272/502/101 297/493/101 304/494/101 271/503/101
f 271/503/101 304/494/101 311/495/101 270/504/101
f 270/504/101 311/495/101 318/496/101 269/505/101
f 269/505/101 318/496/101 325/497/101 268/506/101
f 268/506/101 325/497/101 332/498/101 267/507/101
f 267/507/101 332/498/101 339/499/101 266/508/101
f 266/508/101 339/499/101 264/500/101 265/509/101
f 251/454/102 340/453/102 347/510/102 250/511/102
f 250/511/102 347/510/102 354/512/102 249/513/102
f 249/513/102 354/512/102 361/514/102 248/515/102
f 248/515/102 361/514/102 368/516/102 247/517/102
f 247/517/102 368/516/102 375/518/102 246/519/102
f 246/519/102 375/518/102 382/520/102 245/521/102
f 245/521/102 382/520/102 243/522/102 244/523/102
f 253/452/102 254/524/102 341/525/102 340/453/102
f 340/453/102 341/525/102 348/526/102 347/510/102
f 347/510/102 348/526/102 355/527/102 354/512/102
f 354/512/102 355/527/102 362/528/102 361/514/102
f 361/514/102 362/528/102 369/529/102 368/516/102
f 368/516/102 369/529/102 376/530/102 375/518/102
f 375/518/102 376/530/102 383/531/102 382/520/102
f 382/520/102 383/531/102 242/532/102 243/522/102
f 254/524/102 255/533/102 342/534/102 341/525/102
f 341/525/102 342/534/102 349/535/102 348/526/102
f 348/526/102 349/535/102 356/536/102 355/527/102
f 355/527/102 356/536/102 363/537/102 362/528/102
f 362/528/102 363/537/102 370/538/102 369/529/102
f 369/529/102 370/538/102 377/539/102 376/530/102
f 376/530/102 377/539/102 384/540/102 383/531/102
f 383/531/102 384/540/102 241/541/102 242/532/102
f 255/533/102 256/542/102 343/543/102 342/534/102
f 342/534/102 343/543/102 350/544/102 349/535/102
f 349/535/102 350/544/102 357/545/102 356/536/102
f 356/536/102 357/545/102 364/546/102 363/537/102
f 363/537/102 364/546/102 371/547/102 370/538/102
f 370/538/102 371/547/102 378/548/102 377/539/102
f 377/539/102 378/548/102 385/549/102 384/540/102
f 384/540/102 385/549/102 240/550/102 241/541/102
f 256/542/102 257/551/102 344/552/102 343/543/102
f 343/543/102 344/552/102 351/553/102 350/544/102
f 350/544/102 351/553/102 358/554/102 357/545/102
f 357/545/102 358/554/102 365/555/102 364/546/102
f 364/546/102 365/555/102 372/556/102 371/547/102
f 371/547/102 372/556/102 379/557/102 378/548/102
f 378/548/102 379/557/102 386/558/102 385/549/102
f 385/549/102 386/558/102 239/559/102 240/550/102
f 257/551/102 258/560/102 345/561/102 344/552/102
f 344/552/102 345/561/102 352/562/102 351/553/102
f 351/553/102 352/562/102 359/563/102 358/554/102
f 358/554/102 359/563/102 366/564/102 365/555/102
f 365/555/102 366/564/102 373/565/102 372/556/102
f 372/556/102 373/565/102 380/566/102 379/557/102
f 379/557/102 380/566/102 387/567/102 386/558/102
f 386/558/102 387/567/102 238/568/102 239/559/102
f 258/560/102 227/569/102 346/570/102 345/561/102
f 345/561/102 346/570/102 353/571/102 352/562/102
f 352/562/102 353/571/102 360/572/102 359/563/102
f 359/563/102 360/572/102 367/573/102 366/564/102
f 366/564/102 367/573/102 374/574/102 373/565/102
f 373/565/102 374/574/102 381/575/102 380/566/102
f 380/566/102 381/575/102 388/576/102 387/567/102
f 387/567/102 388/576/102 237/577/102 238/568/102
f 227/569/102 228/578/102 229/579/102 346/570/102
f 346/570/102 229/579/102 230/580/102 353/571/102
f 353/571/102 230/580/102 231/581/102 360/572/102
f 360/572/102 231/581/102 232/582/102 367/573/102
f 367/573/102 232/582/102 233/583/102 374/574/102
f 374/574/102 233/583/102 234/584/102 381/575/102
f 381/575/102 234/584/102 235/585/102 388/576/102
f 388/576/102 235/585/102 236/586/102 237/577/102
