# Blender 3.6.23
# www.blender.org
mtllib gummi_engine_big.mtl
o Cylinder
v -0.187388 0.000000 0.942067
v -0.367576 0.000000 0.887408
v -0.533638 0.000000 0.798646
v -0.679192 0.000000 0.679193
v -0.798646 0.000000 0.533638
v -0.887408 0.000000 0.367576
v -0.942066 0.000000 0.187388
v -0.960523 0.000000 0.000000
v -0.942066 0.000000 -0.187388
v -0.887408 0.000000 -0.367576
v -0.798646 0.000000 -0.533638
v -0.679192 0.000000 -0.679192
v -0.533638 0.000000 -0.798646
v -0.367576 0.000000 -0.887408
v -0.187388 0.000000 -0.942066
v 0.000000 0.000000 -0.960523
v 0.187388 0.000000 -0.942066
v 0.367576 0.000000 -0.887408
v 0.533638 0.000000 -0.798646
v 0.679192 0.000000 -0.679192
v 0.798646 0.000000 -0.533638
v 0.887408 0.000000 -0.367576
v 0.942066 0.000000 -0.187388
v 0.960523 0.000000 0.000000
v 0.942066 0.000000 0.187388
v 0.887408 0.000000 0.367576
v 0.798646 0.000000 0.533638
v 0.679192 0.000000 0.679193
v 0.533638 0.000000 0.798646
v 0.367576 0.000000 0.887408
v 0.187388 0.000000 0.942067
v 0.000000 0.000000 0.960523
v 0.000000 1.327732 0.960523
v 0.187388 1.327732 0.942066
v 0.367576 1.327732 0.887408
v 0.533638 1.327732 0.798646
v 0.679192 1.327732 0.679192
v 0.798646 1.327732 0.533638
v 0.887408 1.327732 0.367576
v 0.942066 1.327732 0.187388
v 0.960523 1.327732 -0.000000
v 0.942066 1.327732 -0.187388
v 0.887408 1.327732 -0.367576
v 0.798646 1.327732 -0.533638
v 0.679192 1.327732 -0.679192
v 0.533638 1.327732 -0.798646
v 0.367576 1.327732 -0.887408
v 0.187388 1.327732 -0.942066
v 0.000000 1.327732 -0.960523
v -0.187388 1.327732 -0.942066
v -0.367576 1.327732 -0.887408
v -0.533638 1.327732 -0.798646
v -0.679192 1.327732 -0.679192
v -0.798646 1.327732 -0.533638
v -0.887408 1.327732 -0.367576
v -0.942066 1.327732 -0.187388
v -0.960523 1.327732 -0.000000
v -0.942066 1.327732 0.187388
v -0.887408 1.327732 0.367576
v -0.798646 1.327732 0.533638
v -0.679192 1.327732 0.679192
v -0.533638 1.327732 0.798646
v -0.367576 1.327732 0.887408
v -0.187388 1.327732 0.942066
v -0.824255 1.327732 -0.350214
v -0.673808 1.327732 -0.497261
v -0.496504 1.327732 -0.622879
v -0.299160 1.327732 -0.722239
v -0.089358 1.327732 -0.791524
v 0.124838 1.327732 -0.828071
v 0.335198 1.327732 -0.830476
v -0.814687 1.327732 -0.144874
v -0.636422 1.327732 -0.281477
v -0.432581 1.327732 -0.404562
v -0.210997 1.327732 -0.509395
v 0.019816 1.327732 -0.591949
v 0.250986 1.327732 -0.649053
v 0.473630 1.327732 -0.678512
v -0.771396 1.327732 0.071860
v -0.570374 1.327732 -0.044722
v -0.346724 1.327732 -0.157875
v -0.109042 1.327732 -0.263253
v 0.133538 1.327732 -0.356806
v 0.371694 1.327732 -0.434937
v 0.596273 1.327732 -0.494646
v -0.697232 1.327732 0.288802
v -0.480261 1.327732 0.198930
v -0.244835 1.327732 0.101413
v 0.000000 1.327732 -0.000000
v 0.244835 1.327732 -0.101413
v 0.480261 1.327732 -0.198930
v 0.697232 1.327732 -0.288802
v -0.596273 1.327732 0.494646
v -0.371694 1.327732 0.434937
v -0.133538 1.327732 0.356805
v 0.109042 1.327732 0.263253
v 0.346724 1.327732 0.157875
v 0.570374 1.327732 0.044722
v 0.771396 1.327732 -0.071860
v -0.473630 1.327732 0.678512
v -0.250986 1.327732 0.649053
v -0.019816 1.327732 0.591949
v 0.210997 1.327732 0.509395
v 0.432581 1.327732 0.404562
v 0.636422 1.327732 0.281477
v 0.814687 1.327732 0.144874
v -0.335198 1.327732 0.830476
v -0.124838 1.327732 0.828071
v 0.089358 1.327732 0.791523
v 0.299160 1.327732 0.722239
v 0.496504 1.327732 0.622879
v 0.673808 1.327732 0.497261
v 0.824255 1.327732 0.350214
v 0.824255 0.000000 0.350214
v 0.673808 0.000000 0.497262
v 0.496504 0.000000 0.622879
v 0.299160 0.000000 0.722239
v 0.089358 0.000000 0.791524
v -0.124838 0.000000 0.828071
v -0.335198 0.000000 0.830476
v 0.814687 0.000000 0.144874
v 0.636422 0.000000 0.281477
v 0.432581 0.000000 0.404562
v 0.210997 0.000000 0.509395
v -0.019816 0.000000 0.591949
v -0.250986 0.000000 0.649053
v -0.473630 0.000000 0.678512
v 0.771396 0.000000 -0.071860
v 0.570374 0.000000 0.044722
v 0.346724 0.000000 0.157875
v 0.109042 0.000000 0.263254
v -0.133538 0.000000 0.356806
v -0.371694 0.000000 0.434937
v -0.596273 0.000000 0.494646
v 0.697232 0.000000 -0.288802
v 0.480261 0.000000 -0.198930
v 0.244835 0.000000 -0.101413
v 0.000000 0.000000 0.000000
v -0.244835 0.000000 0.101413
v -0.480261 0.000000 0.198930
v -0.697232 0.000000 0.288802
v 0.596273 0.000000 -0.494646
v 0.371694 0.000000 -0.434937
v 0.133538 0.000000 -0.356805
v -0.109042 0.000000 -0.263253
v -0.346724 0.000000 -0.157875
v -0.570374 0.000000 -0.044722
v -0.771396 0.000000 0.071860
v 0.473630 0.000000 -0.678511
v 0.250986 0.000000 -0.649053
v 0.019816 0.000000 -0.591949
v -0.210997 0.000000 -0.509395
v -0.432581 0.000000 -0.404562
v -0.636422 0.000000 -0.281477
v -0.814687 0.000000 -0.144874
v 0.335198 0.000000 -0.830475
v 0.124838 0.000000 -0.828071
v -0.089358 0.000000 -0.791523
v -0.299160 0.000000 -0.722239
v -0.496504 0.000000 -0.622879
v -0.673808 0.000000 -0.497261
v -0.824255 0.000000 -0.350214
vn -0.3827 0.0000 0.9239
vn -0.1951 0.0000 0.9808
vn -0.9239 0.0000 0.3827
vn -0.8315 0.0000 0.5556
vn 0.7071 0.0000 -0.7071
vn 0.5556 0.0000 -0.8315
vn -0.7071 0.0000 0.7071
vn 0.1951 0.0000 0.9808
vn 0.3827 0.0000 0.9239
vn 0.9239 0.0000 0.3827
vn 0.9808 0.0000 0.1951
vn -0.5556 0.0000 0.8315
vn -0.1951 0.0000 -0.9808
vn -0.3827 0.0000 -0.9239
vn -0.9239 0.0000 -0.3827
vn -0.9808 0.0000 -0.1951
vn -0.5556 0.0000 -0.8315
vn 0.7071 0.0000 0.7071
vn 0.8315 0.0000 0.5556
vn -1.0000 0.0000 0.0000
vn -0.9808 0.0000 0.1951
vn -0.7071 0.0000 -0.7071
vn -0.8315 0.0000 -0.5556
vn 0.1951 0.0000 -0.9808
vn -0.0000 0.0000 -1.0000
vn 0.3827 0.0000 -0.9239
vn 0.5556 0.0000 0.8315
vn 1.0000 0.0000 0.0000
vn 0.9808 0.0000 -0.1951
vn 0.9239 0.0000 -0.3827
vn 0.8315 0.0000 -0.5556
vn -0.0000 0.0000 1.0000
vn -0.0000 1.0000 0.0000
vn -0.0000 -1.0000 0.0000
# UVs packed into bands of one texture: body on top (tinted), nozzle housing, exhaust at the bottom
vt 0.062500 0.468750
vt 0.031250 0.468750
vt 0.031250 0.250000
vt 0.062500 0.250000
vt 0.187500 0.250000
vt 0.187500 0.468750
vt 0.156250 0.468750
vt 0.156250 0.250000
vt 0.625000 0.250000
vt 0.625000 0.468750
vt 0.593750 0.468750
vt 0.593750 0.250000
vt 0.125000 0.468750
vt 0.125000 0.250000
vt 0.968750 0.250000
vt 0.968750 0.468750
vt 0.937500 0.468750
vt 0.937500 0.250000
vt 0.812500 0.468750
vt 0.781250 0.468750
vt 0.781250 0.250000
vt 0.812500 0.250000
vt 0.093750 0.468750
vt 0.093750 0.250000
vt 0.468750 0.250000
vt 0.468750 0.468750
vt 0.437500 0.468750
vt 0.437500 0.250000
vt 0.312500 0.468750
vt 0.281250 0.468750
vt 0.281250 0.250000
vt 0.312500 0.250000
vt 0.406250 0.468750
vt 0.406250 0.250000
vt 0.875000 0.250000
vt 0.875000 0.468750
vt 0.843750 0.468750
vt 0.843750 0.250000
vt 0.250000 0.468750
vt 0.218750 0.468750
vt 0.218750 0.250000
vt 0.250000 0.250000
vt 0.375000 0.250000
vt 0.375000 0.468750
vt 0.343750 0.468750
vt 0.343750 0.250000
vt 0.531250 0.250000
vt 0.531250 0.468750
vt 0.500000 0.468750
vt 0.500000 0.250000
vt 0.562500 0.468750
vt 0.562500 0.250000
vt 0.906250 0.468750
vt 0.906250 0.250000
vt 0.750000 0.468750
vt 0.718750 0.468750
vt 0.718750 0.250000
vt 0.750000 0.250000
vt 0.687500 0.468750
vt 0.687500 0.250000
vt 0.656250 0.468750
vt 0.656250 0.250000
vt 1.000000 0.468750
vt 1.000000 0.250000
vt 0.087502 0.176484
vt 0.085542 0.202167
vt 0.042441 0.188108
vt 0.037674 0.164127
vt 0.146325 0.187828
vt 0.136542 0.214070
vt 0.210535 0.197544
vt 0.192706 0.223258
vt 0.276262 0.205072
vt 0.251072 0.229270
vt 0.339576 0.209938
vt 0.308592 0.231769
vt 0.396698 0.211775
vt 0.362282 0.230555
vt 0.444188 0.210347
vt 0.409366 0.225582
vt 0.055812 0.210348
vt 0.028453 0.192434
vt 0.009608 0.172529
vt 0.090635 0.225582
vt 0.131581 0.237552
vt 0.177078 0.245797
vt 0.225378 0.250000
vt 0.274623 0.250000
vt 0.322923 0.245797
vt 0.368420 0.237552
vt 0.000000 0.468750
vt 0.000000 0.250000
vt 0.177078 0.464547
vt 0.131581 0.456302
vt 0.179978 0.457161
vt 0.225378 0.468750
vt 0.000000 0.151398
vt 0.471547 0.192433
vt 0.424848 0.190176
vt 0.366387 0.185346
vt 0.299979 0.178336
vt 0.229881 0.169642
vt 0.160556 0.159833
vt 0.096439 0.149520
vt 0.041696 0.139327
vt 0.000000 0.129853
vt 0.490393 0.172528
vt 0.445650 0.166590
vt 0.387992 0.158938
vt 0.321314 0.150089
vt 0.250000 0.140625
vt 0.178686 0.131161
vt 0.112008 0.122312
vt 0.054350 0.114660
vt 0.009607 0.108722
vt 0.500000 0.151397
vt 0.458304 0.141923
vt 0.403562 0.131730
vt 0.339444 0.121417
vt 0.270119 0.111608
vt 0.200021 0.102914
vt 0.133614 0.095904
vt 0.075152 0.091074
vt 0.028453 0.088817
vt 0.500000 0.129852
vt 0.462326 0.117123
vt 0.412498 0.104766
vt 0.353675 0.093422
vt 0.289465 0.083706
vt 0.223738 0.076178
vt 0.160424 0.071312
vt 0.103302 0.069475
vt 0.055812 0.070903
vt 0.490393 0.108721
vt 0.457559 0.093142
vt 0.414458 0.079083
vt 0.363458 0.067180
vt 0.307294 0.057992
vt 0.248928 0.051980
vt 0.191408 0.049481
vt 0.137718 0.050695
vt 0.090634 0.055668
vt 0.471547 0.088816
vt 0.444188 0.070902
vt 0.409366 0.055668
vt 0.368419 0.043698
vt 0.322922 0.035453
vt 0.274622 0.031250
vt 0.225377 0.031250
vt 0.177077 0.035453
vt 0.131580 0.043698
vt 0.233178 0.453768
vt 0.274623 0.468750
vt 0.288478 0.446408
vt 0.322923 0.464547
vt 0.343042 0.435530
vt 0.368420 0.456302
vt 0.394030 0.421725
vt 0.409366 0.444332
vt 0.438741 0.405697
vt 0.444188 0.429097
vt 0.474745 0.388230
vt 0.471547 0.411183
vt 0.500000 0.370147
vt 0.490393 0.391278
vt 0.090635 0.444332
vt 0.137849 0.441679
vt 0.193053 0.435002
vt 0.252982 0.424825
vt 0.314088 0.411831
vt 0.372732 0.396822
vt 0.425366 0.380676
vt 0.468726 0.364303
vt 0.500000 0.348602
vt 0.055812 0.429098
vt 0.100608 0.422898
vt 0.155792 0.413170
vt 0.217797 0.400627
vt 0.282672 0.386117
vt 0.346291 0.370579
vt 0.404577 0.354993
vt 0.453723 0.340322
vt 0.490393 0.327471
vt 0.028453 0.411184
vt 0.069688 0.401541
vt 0.122826 0.389115
vt 0.184277 0.374744
vt 0.250000 0.359375
vt 0.315723 0.344006
vt 0.377174 0.329635
vt 0.430312 0.317209
vt 0.471547 0.307566
vt 0.009608 0.391279
vt 0.046277 0.378428
vt 0.095423 0.363757
vt 0.153709 0.348171
vt 0.217328 0.332633
vt 0.282203 0.318123
vt 0.344208 0.305580
vt 0.399392 0.295852
vt 0.444188 0.289652
vt 0.000000 0.370148
vt 0.031274 0.354447
vt 0.074634 0.338074
vt 0.127268 0.321928
vt 0.185912 0.306919
vt 0.247018 0.293925
vt 0.306947 0.283748
vt 0.362151 0.277071
vt 0.409366 0.274418
vt 0.000000 0.348603
vt 0.025255 0.330520
vt 0.061259 0.313053
vt 0.105970 0.297025
vt 0.156958 0.283220
vt 0.211522 0.272342
vt 0.266822 0.264982
vt 0.320022 0.261589
vt 0.368419 0.262448
vt 0.009607 0.327472
vt 0.028453 0.307567
vt 0.055812 0.289653
vt 0.090634 0.274418
vt 0.131580 0.262448
vt 0.177077 0.254203
vt 0.225377 0.250000
vt 0.274622 0.250000
vt 0.322922 0.254203
vt 1.000000 0.718750
vt 0.968750 0.625000
vt 1.000000 0.625000
vt 0.937500 0.718750
vt 0.937500 0.625000
vt 0.906250 0.625000
vt 0.906250 0.718750
vt 0.875000 0.625000
vt 0.843750 0.718750
vt 0.843750 0.625000
vt 0.812500 0.625000
vt 0.812500 0.718750
vt 0.781250 0.625000
vt 0.750000 0.718750
vt 0.750000 0.625000
vt 0.718750 0.625000
vt 0.687500 0.718750
vt 0.687500 0.625000
vt 0.656250 0.625000
vt 0.656250 0.718750
vt 0.625000 0.625000
vt 0.593750 0.718750
vt 0.593750 0.625000
vt 0.562500 0.625000
vt 0.562500 0.718750
vt 0.531250 0.625000
vt 0.500000 0.718750
vt 0.500000 0.625000
vt 0.468750 0.625000
vt 0.437500 0.718750
vt 0.437500 0.625000
vt 0.406250 0.625000
vt 0.406250 0.718750
vt 0.375000 0.625000
vt 0.343750 0.718750
vt 0.343750 0.625000
vt 0.312500 0.625000
vt 0.312500 0.718750
vt 0.281250 0.625000
vt 0.250000 0.718750
vt 0.250000 0.625000
vt 0.218750 0.625000
vt 0.218750 0.718750
vt 0.187500 0.625000
vt 0.156250 0.718750
vt 0.156250 0.625000
vt 0.125000 0.625000
vt 0.093750 0.718750
vt 0.093750 0.625000
vt 0.062500 0.625000
vt 0.028269 0.595346
vt 0.158156 0.536550
vt 0.471731 0.560904
vt 0.062500 0.718750
vt 0.031250 0.625000
vt 0.000000 0.718750
vt 0.000000 0.625000
vt 0.796822 0.533990
vt 0.514612 0.569346
vt 0.703178 0.622260
vt 0.968750 0.718750
vt 0.875000 0.718750
vt 0.781250 0.718750
vt 0.718750 0.718750
vt 0.625000 0.718750
vt 0.531250 0.718750
vt 0.468750 0.718750
vt 0.375000 0.718750
vt 0.281250 0.718750
vt 0.187500 0.718750
vt 0.125000 0.718750
vt 0.341844 0.619700
vt 0.296822 0.622260
vt 0.158156 0.619700
vt 0.250000 0.623125
vt 0.203178 0.622260
vt 0.116663 0.615541
vt 0.080294 0.609945
vt 0.050447 0.603126
vt 0.014612 0.586904
vt 0.010000 0.578125
vt 0.014612 0.569346
vt 0.028269 0.560904
vt 0.050447 0.553124
vt 0.080294 0.546305
vt 0.116663 0.540709
vt 0.203178 0.533990
vt 0.250000 0.533125
vt 0.296822 0.533990
vt 0.341844 0.536550
vt 0.383337 0.540709
vt 0.419706 0.546305
vt 0.449553 0.553124
vt 0.485388 0.569346
vt 0.490000 0.578125
vt 0.485388 0.586904
vt 0.471731 0.595346
vt 0.449553 0.603126
vt 0.419706 0.609945
vt 0.383337 0.615541
vt 0.031250 0.718750
vt 0.750000 0.623125
vt 0.796822 0.622260
vt 0.841844 0.619700
vt 0.883337 0.615541
vt 0.919706 0.609945
vt 0.949553 0.603126
vt 0.971731 0.595346
vt 0.985388 0.586904
vt 0.990000 0.578125
vt 0.985388 0.569346
vt 0.971731 0.560904
vt 0.949553 0.553124
vt 0.919706 0.546305
vt 0.883337 0.540709
vt 0.841844 0.536550
vt 0.750000 0.533125
vt 0.703178 0.533990
vt 0.658156 0.536550
vt 0.616663 0.540709
vt 0.580294 0.546305
vt 0.550447 0.553124
vt 0.528269 0.560904
vt 0.510000 0.578125
vt 0.514612 0.586904
vt 0.528269 0.595346
vt 0.550447 0.603126
vt 0.580294 0.609945
vt 0.616663 0.615541
vt 0.658156 0.619700
vt 0.062500 0.968750
vt 0.031250 0.968750
vt 0.031250 0.875000
vt 0.062500 0.875000
vt 0.187500 0.875000
vt 0.187500 0.968750
vt 0.156250 0.968750
vt 0.156250 0.875000
vt 0.625000 0.875000
vt 0.625000 0.968750
vt 0.593750 0.968750
vt 0.593750 0.875000
vt 0.125000 0.968750
vt 0.125000 0.875000
vt 0.968750 0.875000
vt 0.968750 0.968750
vt 0.937500 0.968750
vt 0.937500 0.875000
vt 0.812500 0.968750
vt 0.781250 0.968750
vt 0.781250 0.875000
vt 0.812500 0.875000
vt 0.093750 0.968750
vt 0.093750 0.875000
vt 0.468750 0.875000
vt 0.468750 0.968750
vt 0.437500 0.968750
vt 0.437500 0.875000
vt 0.312500 0.968750
vt 0.281250 0.968750
vt 0.281250 0.875000
vt 0.312500 0.875000
vt 0.406250 0.968750
vt 0.406250 0.875000
vt 0.875000 0.875000
vt 0.875000 0.968750
vt 0.843750 0.968750
vt 0.843750 0.875000
vt 0.250000 0.968750
vt 0.218750 0.968750
vt 0.218750 0.875000
vt 0.250000 0.875000
vt 0.375000 0.875000
vt 0.375000 0.968750
vt 0.343750 0.968750
vt 0.343750 0.875000
vt 0.531250 0.875000
vt 0.531250 0.968750
vt 0.500000 0.968750
vt 0.500000 0.875000
vt 0.562500 0.968750
vt 0.562500 0.875000
vt 0.906250 0.968750
vt 0.906250 0.875000
vt 0.750000 0.968750
vt 0.718750 0.968750
vt 0.718750 0.875000
vt 0.750000 0.875000
vt 0.687500 0.968750
vt 0.687500 0.875000
vt 0.656250 0.968750
vt 0.656250 0.875000
vt 1.000000 0.968750
vt 1.000000 0.875000
vt 0.087502 0.843493
vt 0.085542 0.854500
vt 0.042441 0.848475
vt 0.037674 0.838198
vt 0.146325 0.848355
vt 0.136542 0.859602
vt 0.210535 0.852519
vt 0.192706 0.863539
vt 0.276262 0.855745
vt 0.251072 0.866116
vt 0.339576 0.857830
vt 0.308592 0.867187
vt 0.396698 0.858618
vt 0.362282 0.866667
vt 0.444188 0.858006
vt 0.409366 0.864535
vt 0.055812 0.858006
vt 0.028453 0.850329
vt 0.009608 0.841798
vt 0.090635 0.864535
vt 0.131581 0.869665
vt 0.177078 0.873199
vt 0.225378 0.875000
vt 0.274623 0.875000
vt 0.322923 0.873199
vt 0.368420 0.869665
vt 0.000000 0.968750
vt 0.000000 0.875000
vt 0.177078 0.966949
vt 0.131581 0.963415
vt 0.179978 0.963783
vt 0.225378 0.968750
vt 0.000000 0.832742
vt 0.471547 0.850329
vt 0.424848 0.849361
vt 0.366387 0.847291
vt 0.299979 0.844287
vt 0.229881 0.840561
vt 0.160556 0.836357
vt 0.096439 0.831937
vt 0.041696 0.827569
vt 0.000000 0.823508
vt 0.490393 0.841798
vt 0.445650 0.839253
vt 0.387992 0.835974
vt 0.321314 0.832181
vt 0.250000 0.828125
vt 0.178686 0.824069
vt 0.112008 0.820276
vt 0.054350 0.816997
vt 0.009607 0.814452
vt 0.500000 0.832742
vt 0.458304 0.828681
vt 0.403562 0.824313
vt 0.339444 0.819893
vt 0.270119 0.815689
vt 0.200021 0.811963
vt 0.133614 0.808959
vt 0.075152 0.806889
vt 0.028453 0.805921
vt 0.500000 0.823508
vt 0.462326 0.818052
vt 0.412498 0.812757
vt 0.353675 0.807895
vt 0.289465 0.803731
vt 0.223738 0.800505
vt 0.160424 0.798420
vt 0.103302 0.797632
vt 0.055812 0.798244
vt 0.490393 0.814452
vt 0.457559 0.807775
vt 0.414458 0.801750
vt 0.363458 0.796648
vt 0.307294 0.792711
vt 0.248928 0.790134
vt 0.191408 0.789063
vt 0.137718 0.789583
vt 0.090634 0.791715
vt 0.471547 0.805921
vt 0.444188 0.798244
vt 0.409366 0.791715
vt 0.368419 0.786585
vt 0.322922 0.783051
vt 0.274622 0.781250
vt 0.225377 0.781250
vt 0.177077 0.783051
vt 0.131580 0.786585
vt 0.233178 0.962329
vt 0.274623 0.968750
vt 0.288478 0.959175
vt 0.322923 0.966949
vt 0.343042 0.954513
vt 0.368420 0.963415
vt 0.394030 0.948597
vt 0.409366 0.958285
vt 0.438741 0.941728
vt 0.444188 0.951756
vt 0.474745 0.934241
vt 0.471547 0.944079
vt 0.500000 0.926492
vt 0.490393 0.935548
vt 0.090635 0.958285
vt 0.137849 0.957148
vt 0.193053 0.954286
vt 0.252982 0.949925
vt 0.314088 0.944356
vt 0.372732 0.937924
vt 0.425366 0.931004
vt 0.468726 0.923987
vt 0.500000 0.917258
vt 0.055812 0.951756
vt 0.100608 0.949099
vt 0.155792 0.944930
vt 0.217797 0.939555
vt 0.282672 0.933336
vt 0.346291 0.926677
vt 0.404577 0.919997
vt 0.453723 0.913710
vt 0.490393 0.908202
vt 0.028453 0.944079
vt 0.069688 0.939946
vt 0.122826 0.934621
vt 0.184277 0.928462
vt 0.250000 0.921875
vt 0.315723 0.915288
vt 0.377174 0.909129
vt 0.430312 0.903804
vt 0.471547 0.899671
vt 0.009608 0.935548
vt 0.046277 0.930040
vt 0.095423 0.923753
vt 0.153709 0.917073
vt 0.217328 0.910414
vt 0.282203 0.904195
vt 0.344208 0.898820
vt 0.399392 0.894651
vt 0.444188 0.891994
vt 0.000000 0.926492
vt 0.031274 0.919763
vt 0.074634 0.912746
vt 0.127268 0.905826
vt 0.185912 0.899394
vt 0.247018 0.893825
vt 0.306947 0.889464
vt 0.362151 0.886602
vt 0.409366 0.885465
vt 0.000000 0.917258
vt 0.025255 0.909509
vt 0.061259 0.902022
vt 0.105970 0.895153
vt 0.156958 0.889237
vt 0.211522 0.884575
vt 0.266822 0.881421
vt 0.320022 0.879967
vt 0.368419 0.880335
vt 0.009607 0.908202
vt 0.028453 0.899671
vt 0.055812 0.891994
vt 0.090634 0.885465
vt 0.131580 0.880335
vt 0.177077 0.876801
vt 0.225377 0.875000
vt 0.274622 0.875000
vt 0.322922 0.876801
vt 0.500000 0.625000
vt 0.500000 0.875000
vt 0.875000 0.875000
s 1
usemtl Material.001
f 2/1/1 1/2/2 64/3/2 63/4/1
f 59/5/3 6/6/3 5/7/4 60/8/4
f 45/9/5 20/10/5 19/11/6 46/12/6
f 5/7/4 4/13/7 61/14/7 60/8/4
f 34/15/8 31/16/8 30/17/9 35/18/9
f 26/19/10 25/20/11 40/21/11 39/22/10
f 3/23/12 2/1/1 63/4/1 62/24/12
f 50/25/13 15/26/13 14/27/14 51/28/14
f 10/29/15 9/30/16 56/31/16 55/32/15
f 14/27/14 13/33/17 52/34/17 51/28/14
f 37/35/18 28/36/18 27/37/19 38/38/19
f 8/39/20 7/40/21 58/41/21 57/42/20
f 53/43/22 12/44/22 11/45/23 54/46/23
f 48/47/24 17/48/24 16/49/25 49/50/25
f 27/37/19 26/19/10 39/22/10 38/38/19
f 56/31/16 9/30/16 8/39/20 57/42/20
f 19/11/6 18/51/26 47/52/26 46/12/6
f 30/17/9 29/53/27 36/54/27 35/18/9
f 13/33/17 12/44/22 53/43/22 52/34/17
f 24/55/28 23/56/29 42/57/29 41/58/28
f 29/53/27 28/36/18 37/35/18 36/54/27
f 42/57/29 23/56/29 22/59/30 43/60/30
f 11/45/23 10/29/15 55/32/15 54/46/23
f 40/21/11 25/20/11 24/55/28 41/58/28
f 22/59/30 21/61/31 44/62/31 43/60/30
f 18/51/26 17/48/24 48/47/24 47/52/26
f 7/40/21 6/6/3 59/5/3 58/41/21
f 21/61/31 20/10/5 45/9/5 44/62/31
f 16/49/25 15/26/13 50/25/13 49/50/25
f 61/14/7 4/13/7 3/23/12 62/24/12
f 32/63/32 31/16/8 34/15/8 33/64/32
f 101/65/33 100/66/33 107/67/33 108/68/33
f 94/69/33 93/70/33 100/66/33 101/65/33
f 87/71/33 86/72/33 93/70/33 94/69/33
f 80/73/33 79/74/33 86/72/33 87/71/33
f 73/75/33 72/76/33 79/74/33 80/73/33
f 66/77/33 65/78/33 72/76/33 73/75/33
f 53/79/33 54/80/33 65/78/33 66/77/33
f 107/67/33 62/81/33 63/82/33 64/83/33
f 100/66/33 61/84/33 62/81/33 107/67/33
f 93/70/33 60/85/33 61/84/33 100/66/33
f 86/72/33 59/86/33 60/85/33 93/70/33
f 79/74/33 58/87/33 59/86/33 86/72/33
f 72/76/33 57/88/33 58/87/33 79/74/33
f 65/78/33 56/89/33 57/88/33 72/76/33
f 54/80/33 55/90/33 56/89/33 65/78/33
f 64/3/2 1/2/2 32/91/32 33/92/32
f 26/93/34 27/94/34 114/95/34 25/96/34
f 108/68/33 107/67/33 64/83/33 33/97/33
f 52/98/33 53/79/33 66/77/33 67/99/33
f 67/99/33 66/77/33 73/75/33 74/100/33
f 74/100/33 73/75/33 80/73/33 81/101/33
f 81/101/33 80/73/33 87/71/33 88/102/33
f 88/102/33 87/71/33 94/69/33 95/103/33
f 95/103/33 94/69/33 101/65/33 102/104/33
f 102/104/33 101/65/33 108/68/33 109/105/33
f 109/105/33 108/68/33 33/97/33 34/106/33
f 51/107/33 52/98/33 67/99/33 68/108/33
f 68/108/33 67/99/33 74/100/33 75/109/33
f 75/109/33 74/100/33 81/101/33 82/110/33
f 82/110/33 81/101/33 88/102/33 89/111/33
f 89/111/33 88/102/33 95/103/33 96/112/33
f 96/112/33 95/103/33 102/104/33 103/113/33
f 103/113/33 102/104/33 109/105/33 110/114/33
f 110/114/33 109/105/33 34/106/33 35/115/33
f 50/116/33 51/107/33 68/108/33 69/117/33
f 69/117/33 68/108/33 75/109/33 76/118/33
f 76/118/33 75/109/33 82/110/33 83/119/33
f 83/119/33 82/110/33 89/111/33 90/120/33
f 90/120/33 89/111/33 96/112/33 97/121/33
f 97/121/33 96/112/33 103/113/33 104/122/33
f 104/122/33 103/113/33 110/114/33 111/123/33
f 111/123/33 110/114/33 35/115/33 36/124/33
f 49/125/33 50/116/33 69/117/33 70/126/33
f 70/126/33 69/117/33 76/118/33 77/127/33
f 77/127/33 76/118/33 83/119/33 84/128/33
f 84/128/33 83/119/33 90/120/33 91/129/33
f 91/129/33 90/120/33 97/121/33 98/130/33
f 98/130/33 97/121/33 104/122/33 105/131/33
f 105/131/33 104/122/33 111/123/33 112/132/33
f 112/132/33 111/123/33 36/124/33 37/133/33
f 48/134/33 49/125/33 70/126/33 71/135/33
f 71/135/33 70/126/33 77/127/33 78/136/33
f 78/136/33 77/127/33 84/128/33 85/137/33
f 85/137/33 84/128/33 91/129/33 92/138/33
f 92/138/33 91/129/33 98/130/33 99/139/33
f 99/139/33 98/130/33 105/131/33 106/140/33
f 106/140/33 105/131/33 112/132/33 113/141/33
f 113/141/33 112/132/33 37/133/33 38/142/33
f 47/143/33 48/134/33 71/135/33 46/144/33
f 46/144/33 71/135/33 78/136/33 45/145/33
f 45/145/33 78/136/33 85/137/33 44/146/33
f 44/146/33 85/137/33 92/138/33 43/147/33
f 43/147/33 92/138/33 99/139/33 42/148/33
f 42/148/33 99/139/33 106/140/33 41/149/33
f 41/149/33 106/140/33 113/141/33 40/150/33
f 40/150/33 113/141/33 38/142/33 39/151/33
f 25/96/34 114/95/34 121/152/34 24/153/34
f 24/153/34 121/152/34 128/154/34 23/155/34
f 23/155/34 128/154/34 135/156/34 22/157/34
f 22/157/34 135/156/34 142/158/34 21/159/34
f 21/159/34 142/158/34 149/160/34 20/161/34
f 20/161/34 149/160/34 156/162/34 19/163/34
f 19/163/34 156/162/34 17/164/34 18/165/34
f 27/94/34 28/166/34 115/167/34 114/95/34
f 114/95/34 115/167/34 122/168/34 121/152/34
f 121/152/34 122/168/34 129/169/34 128/154/34
f 128/154/34 129/169/34 136/170/34 135/156/34
f 135/156/34 136/170/34 143/171/34 142/158/34
f 142/158/34 143/171/34 150/172/34 149/160/34
f 149/160/34 150/172/34 157/173/34 156/162/34
f 156/162/34 157/173/34 16/174/34 17/164/34
f 28/166/34 29/175/34 116/176/34 115/167/34
f 115/167/34 116/176/34 123/177/34 122/168/34
f 122/168/34 123/177/34 130/178/34 129/169/34
f 129/169/34 130/178/34 137/179/34 136/170/34
f 136/170/34 137/179/34 144/180/34 143/171/34
f 143/171/34 144/180/34 151/181/34 150/172/34
f 150/172/34 151/181/34 158/182/34 157/173/34
f 157/173/34 158/182/34 15/183/34 16/174/34
f 29/175/34 30/184/34 117/185/34 116/176/34
f 116/176/34 117/185/34 124/186/34 123/177/34
f 123/177/34 124/186/34 131/187/34 130/178/34
f 130/178/34 131/187/34 138/188/34 137/179/34
f 137/179/34 138/188/34 145/189/34 144/180/34
f 144/180/34 145/189/34 152/190/34 151/181/34
f 151/181/34 152/190/34 159/191/34 158/182/34
f 158/182/34 159/191/34 14/192/34 15/183/34
f 30/184/34 31/193/34 118/194/34 117/185/34
f 117/185/34 118/194/34 125/195/34 124/186/34
f 124/186/34 125/195/34 132/196/34 131/187/34
f 131/187/34 132/196/34 139/197/34 138/188/34
f 138/188/34 139/197/34 146/198/34 145/189/34
f 145/189/34 146/198/34 153/199/34 152/190/34
f 152/190/34 153/199/34 160/200/34 159/191/34
f 159/191/34 160/200/34 13/201/34 14/192/34
f 31/193/34 32/202/34 119/203/34 118/194/34
f 118/194/34 119/203/34 126/204/34 125/195/34
f 125/195/34 126/204/34 133/205/34 132/196/34
f 132/196/34 133/205/34 140/206/34 139/197/34
f 139/197/34 140/206/34 147/207/34 146/198/34
f 146/198/34 147/207/34 154/208/34 153/199/34
f 153/199/34 154/208/34 161/209/34 160/200/34
f 160/200/34 161/209/34 12/210/34 13/201/34
f 32/202/34 1/211/34 120/212/34 119/203/34
f 119/203/34 120/212/34 127/213/34 126/204/34
f 126/204/34 127/213/34 134/214/34 133/205/34
f 133/205/34 134/214/34 141/215/34 140/206/34
f 140/206/34 141/215/34 148/216/34 147/207/34
f 147/207/34 148/216/34 155/217/34 154/208/34
f 154/208/34 155/217/34 162/218/34 161/209/34
f 161/209/34 162/218/34 11/219/34 12/210/34
f 1/211/34 2/220/34 3/221/34 120/212/34
f 120/212/34 3/221/34 4/222/34 127/213/34
f 127/213/34 4/222/34 5/223/34 134/214/34
f 134/214/34 5/223/34 6/224/34 141/215/34
f 141/215/34 6/224/34 7/225/34 148/216/34
f 148/216/34 7/225/34 8/226/34 155/217/34
f 155/217/34 8/226/34 9/227/34 162/218/34
f 162/218/34 9/227/34 10/228/34 11/219/34
o Cylinder.001
v 0.000000 2.029314 0.900000
v 0.000000 1.329314 0.397904
v 0.175581 2.029314 0.882706
v 0.077627 1.329314 0.390257
v 0.344415 2.029314 0.831492
v 0.152271 1.329314 0.367615
v 0.500013 2.029314 0.748323
v 0.221063 1.329314 0.330845
v 0.636396 2.029314 0.636396
v 0.281360 1.329314 0.281360
v 0.748323 2.029314 0.500013
v 0.330844 1.329314 0.221063
v 0.831492 2.029314 0.344415
v 0.367615 1.329314 0.152271
v 0.882706 2.029314 0.175581
v 0.390258 1.329314 0.077627
v 0.900000 2.029314 -0.000000
v 0.397904 1.329314 0.000000
v 0.882706 2.029314 -0.175581
v 0.390258 1.329314 -0.077627
v 0.831492 2.029314 -0.344415
v 0.367615 1.329314 -0.152271
v 0.748323 2.029314 -0.500013
v 0.330844 1.329314 -0.221063
v 0.636396 2.029314 -0.636396
v 0.281360 1.329314 -0.281360
v 0.500013 2.029314 -0.748323
v 0.221063 1.329314 -0.330844
v 0.344415 2.029314 -0.831492
v 0.152271 1.329314 -0.367615
v 0.175581 2.029314 -0.882706
v 0.077627 1.329314 -0.390257
v 0.000000 2.029314 -0.900000
v 0.000000 1.329314 -0.397903
v -0.175581 2.029314 -0.882706
v -0.077627 1.329314 -0.390257
v -0.344415 2.029314 -0.831492
v -0.152271 1.329314 -0.367615
v -0.500013 2.029314 -0.748323
v -0.221063 1.329314 -0.330844
v -0.636396 2.029314 -0.636396
v -0.281360 1.329314 -0.281360
v -0.748323 2.029314 -0.500013
v -0.330844 1.329314 -0.221063
v -0.831492 2.029314 -0.344415
v -0.367614 1.329314 -0.152271
v -0.882706 2.029314 -0.175581
v -0.390257 1.329314 -0.077627
v -0.900000 2.029314 -0.000000
v -0.397903 1.329314 0.000000
v -0.882706 2.029314 0.175581
v -0.390257 1.329314 0.077627
v -0.831492 2.029314 0.344415
v -0.367614 1.329314 0.152271
v -0.748323 2.029314 0.500013
v -0.330844 1.329314 0.221063
v -0.636396 2.029314 0.636396
v -0.281360 1.329314 0.281360
v -0.500013 2.029314 0.748323
v -0.221063 1.329314 0.330845
v -0.344415 2.029314 0.831492
v -0.152271 1.329314 0.367615
v -0.175581 2.029314 0.882706
v -0.077627 1.329314 0.390257
vn -0.0000 -0.5828 0.8126
vn 0.1585 -0.5828 0.7970
vn 0.3110 -0.5828 0.7507
vn 0.4514 -0.5828 0.6756
vn 0.5746 -0.5828 0.5746
vn 0.6756 -0.5828 0.4514
vn 0.7507 -0.5828 0.3110
vn 0.7970 -0.5828 0.1585
vn 0.8126 -0.5828 0.0000
vn 0.7970 -0.5828 -0.1585
vn 0.7507 -0.5828 -0.3110
vn 0.6756 -0.5828 -0.4514
vn 0.5746 -0.5828 -0.5746
vn 0.4514 -0.5828 -0.6756
vn 0.3110 -0.5828 -0.7507
vn 0.1585 -0.5828 -0.7970
vn -0.0000 -0.5828 -0.8126
vn -0.1585 -0.5828 -0.7970
vn -0.3110 -0.5828 -0.7507
vn -0.4514 -0.5828 -0.6756
vn -0.5746 -0.5828 -0.5746
vn -0.6756 -0.5828 -0.4514
vn -0.7507 -0.5828 -0.3110
vn -0.7970 -0.5828 -0.1585
vn -0.8126 -0.5828 0.0000
vn -0.7970 -0.5828 0.1585
vn -0.7507 -0.5828 0.3110
vn -0.6756 -0.5828 0.4514
vn -0.5746 -0.5828 0.5746
vn -0.4514 -0.5828 0.6756
vn -0.3110 -0.5828 0.7507
vn -0.0000 -1.0000 0.0000
vn -0.1585 -0.5828 0.7970
vn -0.0000 1.0000 0.0000
s 1
usemtl Material.005
f 164/587/35 165/587/36 163/587/35
f 165/587/36 168/587/37 167/587/37
f 168/587/37 169/587/38 167/587/37
f 170/587/38 171/587/39 169/587/38
f 171/587/39 174/587/40 173/587/40
f 174/587/40 175/587/41 173/587/40
f 176/587/41 177/587/42 175/587/41
f 177/587/42 180/587/43 179/587/43
f 180/587/43 181/587/44 179/587/43
f 181/587/44 184/587/45 183/587/45
f 184/587/45 185/587/46 183/587/45
f 186/587/46 187/587/47 185/587/46
f 187/587/47 190/587/48 189/587/48
f 190/587/48 191/587/49 189/587/48
f 192/587/49 193/587/50 191/587/49
f 193/587/50 196/587/51 195/587/51
f 196/587/51 197/587/52 195/587/51
f 197/587/52 200/587/53 199/587/53
f 200/587/53 201/587/54 199/587/53
f 202/587/54 203/587/55 201/587/54
f 203/587/55 206/587/56 205/587/56
f 206/587/56 207/587/57 205/587/56
f 208/587/57 209/587/58 207/587/57
f 209/587/58 212/587/59 211/587/59
f 212/587/59 213/587/60 211/587/59
f 214/587/60 215/587/61 213/587/60
f 215/587/61 218/587/62 217/587/62
f 218/587/62 219/587/63 217/587/62
f 219/587/63 222/587/64 221/587/64
f 222/587/64 223/587/65 221/587/64
f 216/587/66 200/587/66 184/587/66
f 224/587/65 225/587/67 223/587/65
f 225/587/67 164/587/35 163/587/35
f 193/587/68 209/587/68 225/587/68
f 164/587/35 166/587/36 165/587/36
f 165/587/36 166/587/36 168/587/37
f 168/587/37 170/587/38 169/587/38
f 170/587/38 172/587/39 171/587/39
f 171/587/39 172/587/39 174/587/40
f 174/587/40 176/587/41 175/587/41
f 176/587/41 178/587/42 177/587/42
f 177/587/42 178/587/42 180/587/43
f 180/587/43 182/587/44 181/587/44
f 181/587/44 182/587/44 184/587/45
f 184/587/45 186/587/46 185/587/46
f 186/587/46 188/587/47 187/587/47
f 187/587/47 188/587/47 190/587/48
f 190/587/48 192/587/49 191/587/49
f 192/587/49 194/587/50 193/587/50
f 193/587/50 194/587/50 196/587/51
f 196/587/51 198/587/52 197/587/52
f 197/587/52 198/587/52 200/587/53
f 200/587/53 202/587/54 201/587/54
f 202/587/54 204/587/55 203/587/55
f 203/587/55 204/587/55 206/587/56
f 206/587/56 208/587/57 207/587/57
f 208/587/57 210/587/58 209/587/58
f 209/587/58 210/587/58 212/587/59
f 212/587/59 214/587/60 213/587/60
f 214/587/60 216/587/61 215/587/61
f 215/587/61 216/587/61 218/587/62
f 218/587/62 220/587/63 219/587/63
f 219/587/63 220/587/63 222/587/64
f 222/587/64 224/587/65 223/587/65
f 168/587/66 166/587/66 224/587/66
f 166/587/66 164/587/66 224/587/66
f 164/587/66 226/587/66 224/587/66
f 224/587/66 222/587/66 220/587/66
f 220/587/66 218/587/66 216/587/66
f 216/587/66 214/587/66 212/587/66
f 212/587/66 210/587/66 208/587/66
f 208/587/66 206/587/66 204/587/66
f 204/587/66 202/587/66 200/587/66
f 200/587/66 198/587/66 196/587/66
f 196/587/66 194/587/66 200/587/66
f 194/587/66 192/587/66 200/587/66
f 192/587/66 190/587/66 188/587/66
f 188/587/66 186/587/66 184/587/66
f 184/587/66 182/587/66 180/587/66
f 180/587/66 178/587/66 176/587/66
f 176/587/66 174/587/66 172/587/66
f 172/587/66 170/587/66 168/587/66
f 224/587/66 220/587/66 168/587/66
f 220/587/66 216/587/66 168/587/66
f 216/587/66 212/587/66 208/587/66
f 208/587/66 204/587/66 216/587/66
f 204/587/66 200/587/66 216/587/66
f 192/587/66 188/587/66 200/587/66
f 188/587/66 184/587/66 200/587/66
f 184/587/66 180/587/66 176/587/66
f 176/587/66 172/587/66 184/587/66
f 172/587/66 168/587/66 184/587/66
f 168/587/66 216/587/66 184/587/66
f 224/587/65 226/587/67 225/587/67
f 225/587/67 226/587/67 164/587/35
f 225/587/68 163/587/68 165/587/68
f 165/587/68 167/587/68 169/587/68
f 169/587/68 171/587/68 173/587/68
f 173/587/68 175/587/68 177/587/68
f 177/587/68 179/587/68 181/587/68
f 181/587/68 183/587/68 185/587/68
f 185/587/68 187/587/68 189/587/68
f 189/587/68 191/587/68 193/587/68
f 193/587/68 195/587/68 197/587/68
f 197/587/68 199/587/68 201/587/68
f 201/587/68 203/587/68 205/587/68
f 205/587/68 207/587/68 209/587/68
f 209/587/68 211/587/68 213/587/68
f 213/587/68 215/587/68 217/587/68
f 217/587/68 219/587/68 221/587/68
f 221/587/68 223/587/68 225/587/68
f 225/587/68 165/587/68 177/587/68
f 165/587/68 169/587/68 177/587/68
f 169/587/68 173/587/68 177/587/68
f 177/587/68 181/587/68 193/587/68
f 181/587/68 185/587/68 193/587/68
f 185/587/68 189/587/68 193/587/68
f 193/587/68 197/587/68 209/587/68
f 197/587/68 201/587/68 209/587/68
f 201/587/68 205/587/68 209/587/68
f 209/587/68 213/587/68 225/587/68
f 213/587/68 217/587/68 225/587/68
f 217/587/68 221/587/68 225/587/68
f 225/587/68 177/587/68 193/587/68
o Cylinder.002
v -0.175581 2.029314 0.882706
v -0.344415 2.029314 0.831492
v -0.500013 2.029314 0.748323
v -0.636396 2.029314 0.636396
v -0.748323 2.029314 0.500013
v -0.831492 2.029314 0.344415
v -0.882706 2.029314 0.175581
v -0.900000 2.029314 0.000000
v -0.882706 2.029314 -0.175581
v -0.831492 2.029314 -0.344415
v -0.748323 2.029314 -0.500013
v -0.636396 2.029314 -0.636396
v -0.500013 2.029314 -0.748323
v -0.344415 2.029314 -0.831492
v -0.175581 2.029314 -0.882706
v 0.000000 2.029314 -0.900000
v 0.175581 2.029314 -0.882706
v 0.344415 2.029314 -0.831492
v 0.500013 2.029314 -0.748323
v 0.636396 2.029314 -0.636396
v 0.748323 2.029314 -0.500013
v 0.831492 2.029314 -0.344415
v 0.882706 2.029314 -0.175581
v 0.900000 2.029314 0.000000
v 0.882706 2.029314 0.175581
v 0.831492 2.029314 0.344415
v 0.748323 2.029314 0.500013
v 0.636396 2.029314 0.636396
v 0.500013 2.029314 0.748323
v 0.344415 2.029314 0.831492
v 0.175581 2.029314 0.882706
v 0.000000 2.029314 0.900000
v 0.000000 2.429314 0.900000
v 0.175581 2.429314 0.882706
v 0.344415 2.429314 0.831492
v 0.500013 2.429314 0.748323
v 0.636396 2.429314 0.636396
v 0.748323 2.429314 0.500013
v 0.831492 2.429314 0.344415
v 0.882706 2.429314 0.175581
v 0.900000 2.429314 -0.000000
v 0.882706 2.429314 -0.175581
v 0.831492 2.429314 -0.344415
v 0.748323 2.429314 -0.500013
v 0.636396 2.429314 -0.636396
v 0.500013 2.429314 -0.748323
v 0.344415 2.429314 -0.831492
v 0.175581 2.429314 -0.882706
v 0.000000 2.429314 -0.900000
v -0.175581 2.429314 -0.882706
v -0.344415 2.429314 -0.831492
v -0.500013 2.429314 -0.748323
v -0.636396 2.429314 -0.636396
v -0.748323 2.429314 -0.500013
v -0.831492 2.429314 -0.344415
v -0.882706 2.429314 -0.175581
v -0.900000 2.429314 -0.000000
v -0.882706 2.429314 0.175581
v -0.831492 2.429314 0.344415
v -0.748323 2.429314 0.500013
v -0.636396 2.429314 0.636396
v -0.500013 2.429314 0.748323
v -0.344415 2.429314 0.831492
v -0.175581 2.429314 0.882706
v -0.772319 2.429314 -0.328147
v -0.631351 2.429314 -0.465928
v -0.465219 2.429314 -0.583631
v -0.280309 2.429314 -0.676731
v -0.083728 2.429314 -0.741650
v 0.116972 2.429314 -0.775894
v 0.314077 2.429314 -0.778147
v -0.763353 2.429314 -0.135745
v -0.596321 2.429314 -0.263741
v -0.405324 2.429314 -0.379070
v -0.197702 2.429314 -0.477298
v 0.018567 2.429314 -0.554650
v 0.235171 2.429314 -0.608156
v 0.443786 2.429314 -0.635758
v -0.722790 2.429314 0.067332
v -0.534434 2.429314 -0.041904
v -0.324877 2.429314 -0.147928
v -0.102172 2.429314 -0.246666
v 0.125123 2.429314 -0.334323
v 0.348273 2.429314 -0.407532
v 0.558702 2.429314 -0.463478
v -0.653299 2.429314 0.270605
v -0.450000 2.429314 0.186395
v -0.229408 2.429314 0.095023
v 0.000000 2.429314 -0.000000
v 0.229408 2.429314 -0.095023
v 0.450000 2.429314 -0.186395
v 0.653299 2.429314 -0.270605
v -0.558702 2.429314 0.463478
v -0.348273 2.429314 0.407532
v -0.125123 2.429314 0.334323
v 0.102172 2.429314 0.246666
v 0.324877 2.429314 0.147928
v 0.534434 2.429314 0.041904
v 0.722790 2.429314 -0.067332
v -0.443786 2.429314 0.635758
v -0.235171 2.429314 0.608156
v -0.018567 2.429314 0.554650
v 0.197702 2.429314 0.477298
v 0.405324 2.429314 0.379070
v 0.596321 2.429314 0.263741
v 0.763353 2.429314 0.135745
v -0.314077 2.429314 0.778147
v -0.116972 2.429314 0.775894
v 0.083728 2.429314 0.741649
v 0.280309 2.429314 0.676731
v 0.465219 2.429314 0.583631
v 0.631351 2.429314 0.465928
v 0.772319 2.429314 0.328147
v 0.772319 2.029314 0.328147
v 0.631351 2.029314 0.465929
v 0.465219 2.029314 0.583631
v 0.280309 2.029314 0.676731
v 0.083728 2.029314 0.741650
v -0.116972 2.029314 0.775894
v -0.314077 2.029314 0.778147
v 0.763353 2.029314 0.135745
v 0.596321 2.029314 0.263741
v 0.405324 2.029314 0.379070
v 0.197702 2.029314 0.477298
v -0.018567 2.029314 0.554650
v -0.235171 2.029314 0.608156
v -0.443786 2.029314 0.635758
v 0.722790 2.029314 -0.067332
v 0.534434 2.029314 0.041904
v 0.324877 2.029314 0.147928
v 0.102172 2.029314 0.246666
v -0.125123 2.029314 0.334323
v -0.348273 2.029314 0.407532
v -0.558702 2.029314 0.463478
v 0.653299 2.029314 -0.270605
v 0.450000 2.029314 -0.186395
v 0.229408 2.029314 -0.095023
v 0.000000 2.029314 0.000000
v -0.229408 2.029314 0.095023
v -0.450000 2.029314 0.186395
v -0.653299 2.029314 0.270605
v 0.558702 2.029314 -0.463478
v 0.348273 2.029314 -0.407532
v 0.125123 2.029314 -0.334323
v -0.102172 2.029314 -0.246666
v -0.324877 2.029314 -0.147928
v -0.534434 2.029314 -0.041904
v -0.722790 2.029314 0.067332
v 0.443786 2.029314 -0.635758
v 0.235171 2.029314 -0.608156
v 0.018567 2.029314 -0.554650
v -0.197702 2.029314 -0.477298
v -0.405324 2.029314 -0.379070
v -0.596321 2.029314 -0.263741
v -0.763353 2.029314 -0.135745
v 0.314077 2.029314 -0.778146
v 0.116972 2.029314 -0.775894
v -0.083728 2.029314 -0.741649
v -0.280309 2.029314 -0.676731
v -0.465219 2.029314 -0.583631
v -0.631351 2.029314 -0.465928
v -0.772319 2.029314 -0.328147
v -0.720000 2.429314 -0.000000
v -0.706165 2.429314 -0.140465
v -0.665193 2.429314 -0.275532
v -0.598658 2.429314 -0.400010
v -0.509117 2.429314 -0.509117
v -0.400010 2.429314 -0.598658
v -0.275532 2.429314 -0.665193
v -0.140465 2.429314 -0.706165
v 0.000000 2.429314 -0.720000
v 0.140465 2.429314 -0.706165
v 0.275532 2.429314 -0.665193
v 0.400010 2.429314 -0.598658
v 0.509117 2.429314 -0.509117
v 0.598658 2.429314 -0.400010
v 0.665193 2.429314 -0.275532
v 0.706165 2.429314 -0.140465
v 0.720000 2.429314 -0.000000
v 0.706165 2.429314 0.140465
v 0.665193 2.429314 0.275532
v 0.598658 2.429314 0.400010
v 0.509117 2.429314 0.509117
v 0.400010 2.429314 0.598658
v 0.275532 2.429314 0.665193
v 0.140465 2.429314 0.706165
v 0.000000 2.429314 0.720000
v -0.140465 2.429314 0.706165
v -0.275532 2.429314 0.665193
v -0.400010 2.429314 0.598658
v -0.509117 2.429314 0.509117
v -0.598658 2.429314 0.400010
v -0.665193 2.429314 0.275532
v -0.706165 2.429314 0.140465
v 0.000000 2.079314 0.000000
v -0.197726 2.079314 -0.039330
v -0.201600 2.079314 0.000000
v -0.186254 2.079314 -0.077149
v -0.167624 2.079314 -0.112003
v -0.142553 2.079314 -0.142553
v -0.112003 2.079314 -0.167624
v -0.077149 2.079314 -0.186254
v -0.039330 2.079314 -0.197726
v 0.000000 2.079314 -0.201600
v 0.039330 2.079314 -0.197726
v 0.077149 2.079314 -0.186254
v 0.112003 2.079314 -0.167624
v 0.142553 2.079314 -0.142553
v 0.167624 2.079314 -0.112003
v 0.186254 2.079314 -0.077149
v 0.197726 2.079314 -0.039330
v 0.201600 2.079314 0.000000
v 0.197726 2.079314 0.039330
v 0.186254 2.079314 0.077149
v 0.167624 2.079314 0.112003
v 0.142553 2.079314 0.142553
v 0.112003 2.079314 0.167624
v 0.077149 2.079314 0.186254
v 0.039330 2.079314 0.197726
v 0.000000 2.079314 0.201600
v -0.039330 2.079314 0.197726
v -0.077149 2.079314 0.186254
v -0.112003 2.079314 0.167624
v -0.142553 2.079314 0.142553
v -0.167624 2.079314 0.112003
v -0.186254 2.079314 0.077149
v -0.197726 2.079314 0.039330
vn -0.3827 0.0000 0.9239
vn -0.1951 0.0000 0.9808
vn -0.9239 0.0000 0.3827
vn -0.8315 0.0000 0.5556
vn 0.7071 0.0000 -0.7071
vn 0.5556 0.0000 -0.8315
vn -0.7071 0.0000 0.7071
vn 0.1951 0.0000 0.9808
vn 0.3827 0.0000 0.9239
vn 0.9239 0.0000 0.3827
vn 0.9808 0.0000 0.1951
vn -0.5556 0.0000 0.8315
vn -0.1951 0.0000 -0.9808
vn -0.3827 0.0000 -0.9239
vn -0.9239 0.0000 -0.3827
vn -0.9808 0.0000 -0.1951
vn -0.5556 0.0000 -0.8315
vn 0.7071 0.0000 0.7071
vn 0.8315 0.0000 0.5556
vn -1.0000 0.0000 0.0000
vn -0.9808 0.0000 0.1951
vn -0.7071 0.0000 -0.7071
vn -0.8315 0.0000 -0.5556
vn 0.1951 0.0000 -0.9808
vn -0.0000 0.0000 -1.0000
vn 0.3827 0.0000 -0.9239
vn 0.5556 0.0000 0.8315
vn 1.0000 0.0000 0.0000
vn 0.9808 0.0000 -0.1951
vn 0.9239 0.0000 -0.3827
vn 0.8315 0.0000 -0.5556
vn -0.0000 0.0000 1.0000
vn -0.0000 1.0000 0.0000
vn -0.0000 -1.0000 0.0000
vn 0.0000 1.0000 0.0000
vn 0.5587 0.8275 0.0550
vn 0.5372 0.8275 0.1630
vn 0.4951 0.8275 0.2647
vn 0.4340 0.8275 0.3562
vn 0.3562 0.8275 0.4340
vn 0.2647 0.8275 0.4951
vn 0.1630 0.8275 0.5372
vn 0.0550 0.8275 0.5587
vn -0.0550 0.8275 0.5587
vn -0.1630 0.8275 0.5372
vn -0.2647 0.8275 0.4951
vn -0.3562 0.8275 0.4340
vn -0.4340 0.8275 0.3562
vn -0.4951 0.8275 0.2647
vn -0.5372 0.8275 0.1630
vn -0.5587 0.8275 0.0550
vn -0.5587 0.8275 -0.0550
vn -0.5372 0.8275 -0.1630
vn -0.4951 0.8275 -0.2647
vn -0.4340 0.8275 -0.3562
vn -0.3562 0.8275 -0.4340
vn -0.2647 0.8275 -0.4951
vn -0.1630 0.8275 -0.5372
vn -0.0550 0.8275 -0.5587
vn 0.0550 0.8275 -0.5587
vn 0.1630 0.8275 -0.5372
vn 0.2647 0.8275 -0.4951
vn 0.3562 0.8275 -0.4340
vn 0.4340 0.8275 -0.3562
vn 0.4951 0.8275 -0.2647
vn 0.5372 0.8275 -0.1630
vn 0.5587 0.8275 -0.0550
s 1
usemtl Material.002
f 228/587/69 227/587/70 290/587/70 289/587/69
f 285/587/71 232/587/71 231/587/72 286/587/72
f 271/587/73 246/587/73 245/587/74 272/587/74
f 231/587/72 230/587/75 287/587/75 286/587/72
f 260/587/76 257/587/76 256/587/77 261/587/77
f 252/587/78 251/587/79 266/587/79 265/587/78
f 229/587/80 228/587/69 289/587/69 288/587/80
f 276/587/81 241/587/81 240/587/82 277/587/82
f 236/587/83 235/587/84 282/587/84 281/587/83
f 240/587/82 239/587/85 278/587/85 277/587/82
f 263/587/86 254/587/86 253/587/87 264/587/87
f 234/587/88 233/587/89 284/587/89 283/587/88
f 279/587/90 238/587/90 237/587/91 280/587/91
f 274/587/92 243/587/92 242/587/93 275/587/93
f 253/587/87 252/587/78 265/587/78 264/587/87
f 282/587/84 235/587/84 234/587/88 283/587/88
f 245/587/74 244/587/94 273/587/94 272/587/74
f 256/587/77 255/587/95 262/587/95 261/587/77
f 239/587/85 238/587/90 279/587/90 278/587/85
f 250/587/96 249/587/97 268/587/97 267/587/96
f 255/587/95 254/587/86 263/587/86 262/587/95
f 268/587/97 249/587/97 248/587/98 269/587/98
f 237/587/91 236/587/83 281/587/83 280/587/91
f 266/587/79 251/587/79 250/587/96 267/587/96
f 248/587/98 247/587/99 270/587/99 269/587/98
f 244/587/94 243/587/92 274/587/92 273/587/94
f 233/587/89 232/587/71 285/587/71 284/587/89
f 247/587/99 246/587/73 271/587/73 270/587/99
f 242/587/93 241/587/81 276/587/81 275/587/93
f 287/587/75 230/587/75 229/587/80 288/587/80
f 258/587/100 257/587/76 260/587/76 259/587/100
f 290/587/70 227/587/70 258/587/100 259/587/100
f 252/587/102 253/587/102 340/587/102 251/587/102
f 251/587/102 340/587/102 347/587/102 250/587/102
f 250/587/102 347/587/102 354/587/102 249/587/102
f 249/587/102 354/587/102 361/587/102 248/587/102
f 248/587/102 361/587/102 368/587/102 247/587/102
f 247/587/102 368/587/102 375/587/102 246/587/102
f 246/587/102 375/587/102 382/587/102 245/587/102
f 245/587/102 382/587/102 243/587/102 244/587/102
f 253/587/102 254/587/102 341/587/102 340/587/102
f 340/587/102 341/587/102 348/587/102 347/587/102
f 347/587/102 348/587/102 355/587/102 354/587/102
f 354/587/102 355/587/102 362/587/102 361/587/102
f 361/587/102 362/587/102 369/587/102 368/587/102
f 368/587/102 369/587/102 376/587/102 375/587/102
f 375/587/102 376/587/102 383/587/102 382/587/102
f 382/587/102 383/587/102 242/587/102 243/587/102
f 254/587/102 255/587/102 342/587/102 341/587/102
f 341/587/102 342/587/102 349/587/102 348/587/102
f 348/587/102 349/587/102 356/587/102 355/587/102
f 355/587/102 356/587/102 363/587/102 362/587/102
f 362/587/102 363/587/102 370/587/102 369/587/102
f 369/587/102 370/587/102 377/587/102 376/587/102
f 376/587/102 377/587/102 384/587/102 383/587/102
f 383/587/102 384/587/102 241/587/102 242/587/102
f 255/587/102 256/587/102 343/587/102 342/587/102
f 342/587/102 343/587/102 350/587/102 349/587/102
f 349/587/102 350/587/102 357/587/102 356/587/102
f 356/587/102 357/587/102 364/587/102 363/587/102
f 363/587/102 364/587/102 371/587/102 370/587/102
f 370/587/102 371/587/102 378/587/102 377/587/102
f 377/587/102 378/587/102 385/587/102 384/587/102
f 384/587/102 385/587/102 240/587/102 241/587/102
f 256/587/102 257/587/102 344/587/102 343/587/102
f 343/587/102 344/587/102 351/587/102 350/587/102
f 350/587/102 351/587/102 358/587/102 357/587/102
f 357/587/102 358/587/102 365/587/102 364/587/102
f 364/587/102 365/587/102 372/587/102 371/587/102
f 371/587/102 372/587/102 379/587/102 378/587/102
f 378/587/102 379/587/102 386/587/102 385/587/102
f 385/587/102 386/587/102 239/587/102 240/587/102
f 257/587/102 258/587/102 345/587/102 344/587/102
f 344/587/102 345/587/102 352/587/102 351/587/102
f 351/587/102 352/587/102 359/587/102 358/587/102
f 358/587/102 359/587/102 366/587/102 365/587/102
f 365/587/102 366/587/102 373/587/102 372/587/102
f 372/587/102 373/587/102 380/587/102 379/587/102
f 379/587/102 380/587/102 387/587/102 386/587/102
f 386/587/102 387/587/102 238/587/102 239/587/102
f 258/587/102 227/587/102 346/587/102 345/587/102
f 345/587/102 346/587/102 353/587/102 352/587/102
f 352/587/102 353/587/102 360/587/102 359/587/102
f 359/587/102 360/587/102 367/587/102 366/587/102
f 366/587/102 367/587/102 374/587/102 373/587/102
f 373/587/102 374/587/102 381/587/102 380/587/102
f 380/587/102 381/587/102 388/587/102 387/587/102
f 387/587/102 388/587/102 237/587/102 238/587/102
f 227/587/102 228/587/102 229/587/102 346/587/102
f 346/587/102 229/587/102 230/587/102 353/587/102
f 353/587/102 230/587/102 231/587/102 360/587/102
f 360/587/102 231/587/102 232/587/102 367/587/102
f 367/587/102 232/587/102 233/587/102 374/587/102
f 374/587/102 233/587/102 234/587/102 381/587/102
f 381/587/102 234/587/102 235/587/102 388/587/102
f 388/587/102 235/587/102 236/587/102 237/587/102

usemtl Material.002
f 389/587/103 390/587/103 282/587/103 283/587/103
f 390/588/104 389/588/104 423/588/104 422/588/104
f 422/589/103 423/589/103 421/589/103
f 390/587/103 391/587/103 281/587/103 282/587/103
f 391/588/105 390/588/105 422/588/105 424/588/105
f 424/589/103 422/589/103 421/589/103
f 391/587/103 392/587/103 280/587/103 281/587/103
f 392/588/106 391/588/106 424/588/106 425/588/106
f 425/589/103 424/589/103 421/589/103
f 392/587/103 393/587/103 279/587/103 280/587/103
f 393/588/107 392/588/107 425/588/107 426/588/107
f 426/589/103 425/589/103 421/589/103
f 393/587/103 394/587/103 278/587/103 279/587/103
f 394/588/108 393/588/108 426/588/108 427/588/108
f 427/589/103 426/589/103 421/589/103
f 394/587/103 395/587/103 277/587/103 278/587/103
f 395/588/109 394/588/109 427/588/109 428/588/109
f 428/589/103 427/589/103 421/589/103
f 395/587/103 396/587/103 276/587/103 277/587/103
f 396/588/110 395/588/110 428/588/110 429/588/110
f 429/589/103 428/589/103 421/589/103
f 396/587/103 397/587/103 275/587/103 276/587/103
f 397/588/111 396/588/111 429/588/111 430/588/111
f 430/589/103 429/589/103 421/589/103
f 397/587/103 398/587/103 274/587/103 275/587/103
f 398/588/112 397/588/112 430/588/112 431/588/112
f 431/589/103 430/589/103 421/589/103
f 398/587/103 399/587/103 273/587/103 274/587/103
f 399/588/113 398/588/113 431/588/113 432/588/113
f 432/589/103 431/589/103 421/589/103
f 399/587/103 400/587/103 272/587/103 273/587/103
f 400/588/114 399/588/114 432/588/114 433/588/114
f 433/589/103 432/589/103 421/589/103
f 400/587/103 401/587/103 271/587/103 272/587/103
f 401/588/115 400/588/115 433/588/115 434/588/115
f 434/589/103 433/589/103 421/589/103
f 401/587/103 402/587/103 270/587/103 271/587/103
f 402/588/116 401/588/116 434/588/116 435/588/116
f 435/589/103 434/589/103 421/589/103
f 402/587/103 403/587/103 269/587/103 270/587/103
f 403/588/117 402/588/117 435/588/117 436/588/117
f 436/589/103 435/589/103 421/589/103
f 403/587/103 404/587/103 268/587/103 269/587/103
f 404/588/118 403/588/118 436/588/118 437/588/118
f 437/589/103 436/589/103 421/589/103
f 404/587/103 405/587/103 267/587/103 268/587/103
f 405/588/119 404/588/119 437/588/119 438/588/119
f 438/589/103 437/589/103 421/589/103
f 405/587/103 406/587/103 266/587/103 267/587/103
f 406/588/120 405/588/120 438/588/120 439/588/120
f 439/589/103 438/589/103 421/589/103
f 406/587/103 407/587/103 265/587/103 266/587/103
f 407/588/121 406/588/121 439/588/121 440/588/121
f 440/589/103 439/589/103 421/589/103
f 407/587/103 408/587/103 264/587/103 265/587/103
f 408/588/122 407/588/122 440/588/122 441/588/122
f 441/589/103 440/589/103 421/589/103
f 408/587/103 409/587/103 263/587/103 264/587/103
f 409/588/123 408/588/123 441/588/123 442/588/123
f 442/589/103 441/589/103 421/589/103
f 409/587/103 410/587/103 262/587/103 263/587/103
f 410/588/124 409/588/124 442/588/124 443/588/124
f 443/589/103 442/589/103 421/589/103
f 410/587/103 411/587/103 261/587/103 262/587/103
f 411/588/125 410/588/125 443/588/125 444/588/125
f 444/589/103 443/589/103 421/589/103
f 411/587/103 412/587/103 260/587/103 261/587/103
f 412/588/126 411/588/126 444/588/126 445/588/126
f 445/589/103 444/589/103 421/589/103
f 412/587/103 413/587/103 259/587/103 260/587/103
f 413/588/127 412/588/127 445/588/127 446/588/127
f 446/589/103 445/589/103 421/589/103
f 413/587/103 414/587/103 290/587/103 259/587/103
f 414/588/128 413/588/128 446/588/128 447/588/128
f 447/589/103 446/589/103 421/589/103
f 414/587/103 415/587/103 289/587/103 290/587/103
f 415/588/129 414/588/129 447/588/129 448/588/129
f 448/589/103 447/589/103 421/589/103
f 415/587/103 416/587/103 288/587/103 289/587/103
f 416/588/130 415/588/130 448/588/130 449/588/130
f 449/589/103 448/589/103 421/589/103
f 416/587/103 417/587/103 287/587/103 288/587/103
f 417/588/131 416/588/131 449/588/131 450/588/131
f 450/589/103 449/589/103 421/589/103
f 417/587/103 418/587/103 286/587/103 287/587/103
f 418/588/132 417/588/132 450/588/132 451/588/132
f 451/589/103 450/589/103 421/589/103
f 418/587/103 419/587/103 285/587/103 286/587/103
f 419/588/133 418/588/133 451/588/133 452/588/133
f 452/589/103 451/589/103 421/589/103
f 419/587/103 420/587/103 284/587/103 285/587/103
f 420/588/134 419/588/134 452/588/134 453/588/134
f 453/589/103 452/589/103 421/589/103
f 420/587/103 389/587/103 283/587/103 284/587/103
f 389/588/135 420/588/135 453/588/135 423/588/135
f 423/589/103 453/589/103 421/589/103
