mtllib gummi_vernier.mtl
o inside
v -0.000000 0.133043 -0.566681
v -0.000000 0.444430 -0.848099
v 0.000000 0.804910 -1.000401
v -0.038821 0.000000 -0.195169
v -0.076151 0.000000 -0.382837
v -0.110554 0.133043 -0.555793
v -0.140709 0.292893 -0.707390
v -0.165456 0.444430 -0.831803
v -0.183845 0.617317 -0.924249
v -0.195169 0.804910 -0.981179
v -0.076151 0.000000 -0.183845
v -0.149376 0.000000 -0.360624
v -0.216860 0.133043 -0.523546
v -0.276010 0.292893 -0.666347
v -0.324554 0.444430 -0.783542
v -0.360624 0.617317 -0.870624
v -0.382837 0.804910 -0.924249
v -0.110554 0.000000 -0.165456
v -0.216860 0.000000 -0.324554
v -0.314831 0.133043 -0.471179
v -0.400704 0.292894 -0.599697
v -0.471179 0.444430 -0.705169
v -0.523546 0.617317 -0.783542
v -0.555793 0.804910 -0.831803
v -0.140709 0.000000 -0.140709
v -0.276010 0.000000 -0.276010
v -0.400704 0.133043 -0.400704
v -0.510000 0.292894 -0.510000
v -0.599697 0.444431 -0.599697
v -0.666347 0.617317 -0.666347
v -0.707390 0.804910 -0.707390
v -0.165456 0.000000 -0.110554
v -0.324554 0.000000 -0.216860
v -0.471179 0.133043 -0.314831
v -0.599697 0.292894 -0.400704
v -0.705169 0.444430 -0.471179
v -0.783542 0.617317 -0.523546
v -0.831803 0.804910 -0.555793
v -0.000000 0.000000 -0.000000
v -0.183845 0.000000 -0.076151
v -0.360624 0.000000 -0.149376
v -0.523546 0.133043 -0.216859
v -0.666347 0.292893 -0.276010
v -0.783542 0.444430 -0.324554
v -0.870624 0.617317 -0.360624
v -0.924249 0.804910 -0.382837
v -0.195169 0.000000 -0.038821
v -0.382837 0.000000 -0.076151
v -0.555793 0.133043 -0.110554
v -0.707390 0.292893 -0.140709
v -0.831803 0.444430 -0.165456
v -0.924249 0.617317 -0.183845
v -0.981179 0.804910 -0.195169
v -0.198992 0.000000 -0.000000
v -0.390337 0.000000 -0.000000
v -0.566681 0.133043 -0.000000
v -0.721249 0.292893 -0.000000
v -0.848098 0.444430 -0.000000
v -0.942357 0.617317 -0.000000
v -1.000401 0.804910 0.000000
v -0.195169 0.000000 0.038821
v -0.382837 0.000000 0.076151
v -0.555793 0.133043 0.110554
v -0.707390 0.292893 0.140709
v -0.831803 0.444430 0.165456
v -0.924249 0.617317 0.183845
v -0.981179 0.804910 0.195169
v -0.183845 0.000000 0.076151
v -0.360624 0.000000 0.149376
v -0.523546 0.133043 0.216860
v -0.666347 0.292893 0.276010
v -0.783542 0.444430 0.324554
v -0.870624 0.617317 0.360624
v -0.924249 0.804910 0.382837
v -0.165456 0.000000 0.110554
v -0.324554 0.000000 0.216860
v -0.471179 0.133043 0.314831
v -0.599697 0.292893 0.400704
v -0.705168 0.444430 0.471179
v -0.783542 0.617317 0.523546
v -0.831803 0.804910 0.555793
v -0.140709 0.000000 0.140709
v -0.276010 0.000000 0.276010
v -0.400704 0.133043 0.400704
v -0.510000 0.292893 0.510000
v -0.599697 0.444430 0.599697
v -0.666347 0.617317 0.666347
v -0.707390 0.804910 0.707390
v -0.110554 0.000000 0.165456
v -0.216859 0.000000 0.324554
v -0.314831 0.133043 0.471179
v -0.400704 0.292893 0.599697
v -0.471179 0.444430 0.705169
v -0.523546 0.617317 0.783542
v -0.555793 0.804910 0.831803
v -0.076151 0.000000 0.183845
v -0.149376 0.000000 0.360624
v -0.216859 0.133043 0.523546
v -0.276010 0.292893 0.666347
v -0.324553 0.444430 0.783542
v -0.360624 0.617317 0.870624
v -0.382837 0.804910 0.924249
v -0.038821 0.000000 0.195169
v -0.076151 0.000000 0.382837
v -0.110554 0.133043 0.555793
v -0.140709 0.292893 0.707390
v -0.165456 0.444430 0.831803
v -0.183845 0.617317 0.924249
v -0.195169 0.804910 0.981178
v -0.000000 0.000000 0.198992
v -0.000000 0.000000 0.390337
v -0.000000 0.133043 0.566681
v -0.000000 0.292893 0.721249
v -0.000000 0.444430 0.848098
v -0.000000 0.617317 0.942357
v 0.000000 0.804910 1.000401
v 0.038821 0.000000 0.195169
v 0.076151 0.000000 0.382837
v 0.110554 0.133043 0.555793
v 0.140709 0.292893 0.707390
v 0.165456 0.444430 0.831803
v 0.183845 0.617317 0.924249
v 0.195169 0.804910 0.981178
v 0.076151 0.000000 0.183845
v 0.149376 0.000000 0.360624
v 0.216860 0.133043 0.523546
v 0.276010 0.292893 0.666347
v 0.324554 0.444430 0.783540
v 0.360624 0.617317 0.870624
v 0.382837 0.804910 0.924249
v 0.110554 0.000000 0.165456
v 0.216860 0.000000 0.324554
v 0.314831 0.133043 0.471178
v 0.400704 0.292893 0.599697
v 0.471179 0.444430 0.705168
v 0.523546 0.617317 0.783542
v 0.555793 0.804910 0.831803
v 0.140709 0.000000 0.140709
v 0.276010 0.000000 0.276010
v 0.400704 0.133043 0.400704
v 0.510000 0.292893 0.510000
v 0.599697 0.444430 0.599696
v 0.666347 0.617317 0.666347
v 0.707390 0.804910 0.707390
v 0.165456 0.000000 0.110554
v 0.324554 0.000000 0.216859
v 0.471179 0.133043 0.314831
v 0.599697 0.292893 0.400704
v 0.705168 0.444430 0.471178
v 0.783540 0.617317 0.523546
v 0.831803 0.804910 0.555793
v 0.183845 0.000000 0.076151
v 0.360624 0.000000 0.149376
v 0.523546 0.133043 0.216859
v 0.666347 0.292893 0.276010
v 0.783540 0.444430 0.324553
v 0.870624 0.617317 0.360624
v 0.924249 0.804910 0.382837
v 0.195169 0.000000 0.038821
v 0.382837 0.000000 0.076151
v 0.555793 0.133043 0.110554
v 0.707390 0.292893 0.140709
v 0.831803 0.444430 0.165455
v 0.924249 0.617317 0.183845
v 0.981178 0.804910 0.195168
v 0.198992 0.000000 -0.000000
v 0.390337 0.000000 -0.000000
v 0.566681 0.133043 -0.000000
v 0.721249 0.292893 -0.000000
v 0.848098 0.444430 -0.000000
v 0.942357 0.617317 -0.000000
v 1.000401 0.804910 0.000000
v 0.195169 0.000000 -0.038821
v 0.382837 0.000000 -0.076151
v 0.555793 0.133043 -0.110554
v 0.707390 0.292893 -0.140709
v 0.831803 0.444430 -0.165456
v 0.924249 0.617317 -0.183845
v 0.981178 0.804910 -0.195169
v 0.183845 0.000000 -0.076151
v 0.360624 0.000000 -0.149376
v 0.523545 0.133043 -0.216859
v 0.666347 0.292893 -0.276010
v 0.783540 0.444430 -0.324554
v 0.870624 0.617317 -0.360624
v 0.924249 0.804910 -0.382837
v 0.165456 0.000000 -0.110554
v 0.324553 0.000000 -0.216859
v 0.471178 0.133043 -0.314831
v 0.599697 0.292893 -0.400704
v 0.705168 0.444430 -0.471179
v 0.783540 0.617317 -0.523546
v 0.831803 0.804910 -0.555793
v 0.140709 0.000000 -0.140709
v 0.276010 0.000000 -0.276010
v 0.400704 0.133043 -0.400704
v 0.510000 0.292893 -0.510000
v 0.599696 0.444430 -0.599697
v 0.666347 0.617317 -0.666347
v 0.707389 0.804910 -0.707390
v 0.110554 0.000000 -0.165456
v 0.216859 0.000000 -0.324554
v 0.314831 0.133043 -0.471178
v 0.400704 0.292893 -0.599697
v 0.471178 0.444430 -0.705168
v 0.523546 0.617317 -0.783540
v 0.555793 0.804910 -0.831803
v 0.076151 0.000000 -0.183845
v 0.149375 0.000000 -0.360624
v 0.216859 0.133043 -0.523545
v 0.276010 0.292893 -0.666347
v 0.324553 0.444430 -0.783540
v 0.360624 0.617317 -0.870624
v 0.382837 0.804910 -0.924249
v 0.038821 0.000000 -0.195169
v 0.076151 0.000000 -0.382837
v 0.110554 0.133043 -0.555793
v 0.140709 0.292893 -0.707390
v 0.165455 0.444430 -0.831803
v 0.183845 0.617317 -0.924249
v 0.195168 0.804910 -0.981178
v -0.000000 0.000000 -0.198992
v -0.000000 0.000000 -0.390337
v -0.000000 0.292893 -0.721249
v -0.000000 0.617317 -0.942357
vn -0.0000 1.0000 -0.0000
vn -0.0000 0.9422 0.3352
vn 0.0654 0.9422 0.3287
vn -0.0000 0.7466 0.6653
vn 0.1298 0.7466 0.6525
vn -0.0000 0.6678 0.7443
vn 0.1452 0.6678 0.7300
vn -0.0000 0.5602 0.8284
vn 0.1616 0.5602 0.8125
vn -0.0000 0.3869 0.9221
vn 0.1799 0.3869 0.9044
vn -0.0000 0.2956 0.9553
vn 0.1864 0.2956 0.9370
vn 0.3656 0.2956 0.8826
vn 0.3529 0.3869 0.8519
vn 0.1283 0.9422 0.3097
vn 0.2546 0.7466 0.6147
vn 0.2848 0.6678 0.6877
vn 0.3170 0.5602 0.7653
vn 0.3696 0.7466 0.5532
vn 0.1862 0.9422 0.2787
vn 0.4135 0.6678 0.6189
vn 0.4602 0.5602 0.6888
vn 0.5123 0.3869 0.7667
vn 0.5307 0.2956 0.7943
vn 0.6755 0.2956 0.6755
vn 0.6521 0.3869 0.6521
vn 0.2370 0.9422 0.2370
vn 0.4704 0.7466 0.4704
vn 0.5263 0.6678 0.5263
vn 0.5857 0.5602 0.5857
vn 0.6189 0.6678 0.4135
vn 0.5532 0.7466 0.3696
vn 0.6888 0.5602 0.4602
vn 0.7667 0.3869 0.5123
vn 0.7943 0.2956 0.5307
vn 0.2787 0.9422 0.1862
vn 0.3097 0.9422 0.1283
vn 0.6147 0.7466 0.2546
vn 0.6877 0.6678 0.2848
vn 0.7653 0.5602 0.3170
vn 0.8519 0.3869 0.3529
vn 0.8826 0.2956 0.3656
vn 0.8125 0.5602 0.1616
vn 0.7300 0.6678 0.1452
vn 0.9044 0.3869 0.1799
vn 0.9370 0.2956 0.1864
vn 0.3287 0.9422 0.0654
vn 0.6525 0.7466 0.1298
vn 0.3352 0.9422 -0.0000
vn 0.6653 0.7466 -0.0000
vn 0.7443 0.6678 -0.0000
vn 0.8284 0.5602 -0.0000
vn 0.9221 0.3869 -0.0000
vn 0.9553 0.2956 -0.0000
vn 0.8125 0.5602 -0.1616
vn 0.7300 0.6678 -0.1452
vn 0.9044 0.3869 -0.1799
vn 0.9370 0.2956 -0.1864
vn 0.3287 0.9422 -0.0654
vn 0.6525 0.7466 -0.1298
vn 0.3097 0.9422 -0.1283
vn 0.6147 0.7466 -0.2546
vn 0.6877 0.6678 -0.2848
vn 0.7653 0.5602 -0.3170
vn 0.8519 0.3869 -0.3529
vn 0.8826 0.2956 -0.3656
vn 0.7667 0.3869 -0.5123
vn 0.6888 0.5602 -0.4602
vn 0.7943 0.2956 -0.5307
vn 0.2787 0.9422 -0.1862
vn 0.5532 0.7466 -0.3696
vn 0.6189 0.6678 -0.4135
vn 0.2370 0.9422 -0.2370
vn 0.4704 0.7466 -0.4704
vn 0.5263 0.6678 -0.5263
vn 0.5857 0.5602 -0.5857
vn 0.6521 0.3869 -0.6521
vn 0.6755 0.2956 -0.6755
vn 0.5123 0.3869 -0.7667
vn 0.4602 0.5602 -0.6888
vn 0.5307 0.2956 -0.7943
vn 0.1862 0.9422 -0.2787
vn 0.3696 0.7466 -0.5532
vn 0.4135 0.6678 -0.6189
vn 0.2546 0.7466 -0.6147
vn 0.1283 0.9422 -0.3097
vn 0.2848 0.6678 -0.6877
vn 0.3170 0.5602 -0.7653
vn 0.3529 0.3869 -0.8519
vn 0.3656 0.2956 -0.8826
vn 0.1864 0.2956 -0.9370
vn 0.1799 0.3869 -0.9044
vn 0.0654 0.9422 -0.3287
vn 0.1298 0.7466 -0.6525
vn 0.1452 0.6678 -0.7300
vn 0.1616 0.5602 -0.8125
vn -0.0000 0.6678 -0.7443
vn -0.0000 0.7466 -0.6653
vn -0.0000 0.5602 -0.8284
vn -0.0000 0.3869 -0.9221
vn -0.0000 0.2956 -0.9553
vn -0.0000 0.9422 -0.3352
vn -0.0654 0.9422 -0.3287
vn -0.1298 0.7466 -0.6525
vn -0.1452 0.6678 -0.7300
vn -0.1616 0.5602 -0.8125
vn -0.1799 0.3869 -0.9044
vn -0.1864 0.2956 -0.9370
vn -0.2848 0.6678 -0.6877
vn -0.2546 0.7466 -0.6147
vn -0.3170 0.5602 -0.7653
vn -0.3529 0.3869 -0.8519
vn -0.3656 0.2956 -0.8826
vn -0.1283 0.9422 -0.3097
vn -0.1862 0.9422 -0.2787
vn -0.3696 0.7466 -0.5532
vn -0.4135 0.6678 -0.6189
vn -0.4602 0.5602 -0.6888
vn -0.5123 0.3869 -0.7667
vn -0.5307 0.2956 -0.7943
vn -0.5857 0.5602 -0.5857
vn -0.5263 0.6678 -0.5263
vn -0.6521 0.3869 -0.6520
vn -0.6755 0.2956 -0.6755
vn -0.2370 0.9422 -0.2370
vn -0.4704 0.7466 -0.4704
vn -0.2787 0.9422 -0.1862
vn -0.5532 0.7466 -0.3696
vn -0.6189 0.6678 -0.4135
vn -0.6888 0.5602 -0.4602
vn -0.7667 0.3869 -0.5123
vn -0.7943 0.2956 -0.5307
vn -0.7653 0.5602 -0.3170
vn -0.6877 0.6678 -0.2848
vn -0.8519 0.3869 -0.3529
vn -0.8826 0.2956 -0.3656
vn -0.3097 0.9422 -0.1283
vn -0.6147 0.7466 -0.2546
vn -0.3287 0.9422 -0.0654
vn -0.6525 0.7466 -0.1298
vn -0.7300 0.6678 -0.1452
vn -0.8125 0.5602 -0.1616
vn -0.9044 0.3869 -0.1799
vn -0.9370 0.2956 -0.1864
vn -0.9221 0.3869 -0.0000
vn -0.8284 0.5602 -0.0000
vn -0.9553 0.2956 -0.0000
vn -0.3352 0.9422 -0.0000
vn -0.6653 0.7466 -0.0000
vn -0.7443 0.6678 -0.0000
vn -0.6525 0.7466 0.1298
vn -0.3287 0.9422 0.0654
vn -0.7300 0.6678 0.1452
vn -0.8125 0.5602 0.1616
vn -0.9044 0.3869 0.1799
vn -0.9370 0.2956 0.1864
vn -0.8826 0.2956 0.3656
vn -0.8519 0.3869 0.3529
vn -0.3097 0.9422 0.1283
vn -0.6147 0.7466 0.2546
vn -0.6877 0.6678 0.2848
vn -0.7653 0.5602 0.3170
vn -0.5532 0.7466 0.3696
vn -0.2787 0.9422 0.1862
vn -0.6189 0.6678 0.4135
vn -0.6888 0.5602 0.4602
vn -0.7667 0.3869 0.5123
vn -0.7943 0.2956 0.5307
vn -0.6755 0.2956 0.6755
vn -0.6521 0.3869 0.6521
vn -0.2370 0.9422 0.2370
vn -0.4704 0.7466 0.4704
vn -0.5263 0.6678 0.5263
vn -0.5857 0.5602 0.5857
vn -0.4135 0.6678 0.6189
vn -0.3696 0.7466 0.5532
vn -0.4602 0.5602 0.6888
vn -0.5123 0.3869 0.7667
vn -0.5307 0.2956 0.7943
vn -0.1862 0.9422 0.2787
vn -0.1283 0.9422 0.3097
vn -0.2546 0.7466 0.6147
vn -0.2848 0.6678 0.6877
vn -0.3170 0.5602 0.7653
vn -0.3529 0.3869 0.8519
vn -0.3656 0.2956 0.8826
vn -0.1452 0.6678 0.7300
vn -0.1298 0.7466 0.6525
vn -0.1616 0.5602 0.8125
vn -0.1799 0.3869 0.9044
vn -0.1864 0.2956 0.9370
vn -0.0654 0.9422 0.3287
vt 0.756731 0.839982
vt 0.747954 0.845913
vt 0.782233 0.887490
vt 0.585616 0.820264
vt 0.573408 0.828512
vt 0.596510 0.856805
vt 0.602733 0.852600
vt 0.473232 0.489778
vt 0.455510 0.501753
vt 0.476521 0.527774
vt 0.488728 0.519525
vt 0.078607 0.521528
vt 0.070742 0.502544
vt 0.040343 0.523392
vt 0.046523 0.538308
vt 0.113219 0.508140
vt 0.103970 0.485817
vt 0.149027 0.498660
vt 0.138751 0.473855
vt 0.184657 0.493449
vt 0.173748 0.467117
vt 0.937091 0.690164
vt 0.947647 0.661265
vt 0.913170 0.654739
vt 0.903226 0.681962
vt 0.740501 0.853443
vt 0.563043 0.838984
vt 0.591226 0.862144
vt 0.440462 0.516957
vt 0.466156 0.538246
vt 0.837417 0.653639
vt 0.845028 0.632803
vt 0.813982 0.618236
vt 0.808002 0.634606
vt 0.869570 0.669628
vt 0.878520 0.645129
vt 0.428667 0.534806
vt 0.458032 0.550541
vt 0.850683 0.609523
vt 0.818425 0.599945
vt 0.885169 0.617754
vt 0.920558 0.624322
vt 0.955491 0.628974
vt 0.734659 0.862283
vt 0.554919 0.851279
vt 0.587084 0.868411
vt 0.960321 0.594532
vt 0.925109 0.591878
vt 0.730653 0.872094
vt 0.549347 0.864922
vt 0.584244 0.875367
vt 0.420579 0.554613
vt 0.452460 0.564184
vt 0.854166 0.584692
vt 0.821161 0.580435
vt 0.889264 0.588556
vt 0.855341 0.559264
vt 0.822085 0.560457
vt 0.890647 0.558656
vt 0.926645 0.558656
vt 0.961952 0.559264
vt 0.728636 0.882497
vt 0.546542 0.879391
vt 0.582814 0.882743
vt 0.416507 0.575617
vt 0.449655 0.578653
vt 0.728686 0.893093
vt 0.546613 0.894128
vt 0.582849 0.890255
vt 0.416608 0.597012
vt 0.449725 0.593390
vt 0.854166 0.534218
vt 0.821161 0.540778
vt 0.889264 0.529205
vt 0.925109 0.525931
vt 0.960321 0.524523
vt 0.885169 0.501333
vt 0.850683 0.510515
vt 0.920558 0.494962
vt 0.955491 0.491646
vt 0.730802 0.903476
vt 0.549554 0.908567
vt 0.584349 0.897617
vt 0.420878 0.617975
vt 0.452667 0.607829
vt 0.818425 0.522154
vt 0.734901 0.913246
vt 0.555254 0.922154
vt 0.587255 0.904543
vt 0.429155 0.637700
vt 0.458367 0.621416
vt 0.845028 0.489066
vt 0.813982 0.505302
vt 0.878520 0.476112
vt 0.913170 0.466937
vt 0.947647 0.461896
vt 0.754819 0.483090
vt 0.744881 0.504255
vt 0.777739 0.518743
vt 0.786190 0.500744
vt 0.721734 0.469973
vt 0.710692 0.493490
vt 0.688207 0.461896
vt 0.676484 0.486861
vt 0.740826 0.922027
vt 0.563495 0.934366
vt 0.591456 0.910769
vt 0.441118 0.655430
vt 0.466608 0.633628
vt 0.837417 0.470696
vt 0.808002 0.490869
vt 0.573959 0.944736
vt 0.596791 0.916055
vt 0.456309 0.670483
vt 0.477072 0.643997
vt 0.771099 0.539907
vt 0.802785 0.553025
vt 0.808002 0.536396
vt 0.737074 0.529142
vt 0.702017 0.521143
vt 0.667274 0.516217
vt 0.748350 0.929483
vt 0.696040 0.551870
vt 0.731696 0.556795
vt 0.660931 0.548836
vt 0.757183 0.935326
vt 0.586244 0.952862
vt 0.603053 0.920198
vt 0.474144 0.682281
vt 0.489356 0.652124
vt 0.766525 0.563424
vt 0.799191 0.571502
vt 0.599877 0.958433
vt 0.610003 0.923038
vt 0.493937 0.690370
vt 0.502990 0.657695
vt 0.764194 0.588390
vt 0.797359 0.591118
vt 0.728954 0.586151
vt 0.692994 0.584488
vt 0.657697 0.583464
vt 0.766986 0.939332
vt 0.692994 0.617746
vt 0.728954 0.616083
vt 0.657697 0.618771
vt 0.777382 0.941348
vt 0.614336 0.961237
vt 0.617374 0.924468
vt 0.514928 0.694439
vt 0.517449 0.660498
vt 0.764194 0.613845
vt 0.797359 0.611117
vt 0.536309 0.694332
vt 0.532177 0.660425
vt 0.766525 0.638810
vt 0.799191 0.630732
vt 0.731696 0.645439
vt 0.696040 0.650365
vt 0.660931 0.653398
vt 0.787973 0.941295
vt 0.629064 0.961163
vt 0.624883 0.924430
vt 0.667274 0.686017
vt 0.702017 0.681091
vt 0.798349 0.939176
vt 0.643496 0.958216
vt 0.632240 0.922928
vt 0.557261 0.690053
vt 0.546608 0.657477
vt 0.771099 0.662326
vt 0.802785 0.649209
vt 0.737074 0.673092
vt 0.777739 0.683491
vt 0.808002 0.665838
vt 0.744881 0.697979
vt 0.710692 0.708744
vt 0.676484 0.715373
vt 0.808114 0.935072
vt 0.657076 0.952508
vt 0.639163 0.920018
vt 0.576976 0.681768
vt 0.560188 0.651770
vt 0.816892 0.929141
vt 0.669283 0.944260
vt 0.645386 0.915813
vt 0.594698 0.669793
vt 0.572396 0.643522
vt 0.376239 0.734323
vt 0.408053 0.712826
vt 0.380053 0.680264
vt 0.355057 0.697154
vt 0.754819 0.719143
vt 0.786190 0.701490
vt 0.721734 0.732261
vt 0.688207 0.740339
vt 0.435066 0.685532
vt 0.401277 0.658820
vt 0.299812 0.489021
vt 0.289542 0.510893
vt 0.323498 0.525865
vt 0.332232 0.507264
vt 0.265620 0.475464
vt 0.254209 0.499768
vt 0.230972 0.467117
vt 0.218858 0.492917
vt 0.824345 0.921611
vt 0.679648 0.933787
vt 0.650670 0.910474
vt 0.609745 0.654589
vt 0.582760 0.633049
vt 0.830186 0.912771
vt 0.687772 0.921493
vt 0.654812 0.904207
vt 0.621540 0.636741
vt 0.590885 0.620755
vt 0.316636 0.547737
vt 0.349381 0.561294
vt 0.354773 0.544109
vt 0.281473 0.536613
vt 0.245243 0.528345
vt 0.209339 0.523255
vt 0.275915 0.565190
vt 0.311909 0.572041
vt 0.239068 0.560099
vt 0.202784 0.556965
vt 0.834193 0.902960
vt 0.693344 0.907849
vt 0.657653 0.897251
vt 0.629629 0.616934
vt 0.596457 0.607111
vt 0.345668 0.580389
vt 0.836209 0.892557
vt 0.696149 0.893382
vt 0.659082 0.889875
vt 0.633701 0.595929
vt 0.599261 0.592644
vt 0.309500 0.597841
vt 0.343774 0.600660
vt 0.273081 0.595528
vt 0.235919 0.593809
vt 0.199441 0.592750
vt 0.273081 0.626460
vt 0.309500 0.624147
vt 0.235919 0.628179
vt 0.199441 0.629238
vt 0.836159 0.881961
vt 0.696079 0.878645
vt 0.659046 0.882363
vt 0.633600 0.574534
vt 0.599191 0.577907
vt 0.343774 0.621328
vt 0.693137 0.864205
vt 0.657547 0.875001
vt 0.629329 0.553571
vt 0.596250 0.563467
vt 0.311909 0.649947
vt 0.345668 0.641599
vt 0.275915 0.656798
vt 0.239068 0.661888
vt 0.202784 0.665023
vt 0.834044 0.871578
vt 0.245243 0.693643
vt 0.281473 0.685375
vt 0.209339 0.698733
vt 0.829945 0.861808
vt 0.687437 0.850618
vt 0.654641 0.868074
vt 0.621053 0.533846
vt 0.590549 0.549880
vt 0.316636 0.674250
vt 0.349381 0.660694
vt 0.609089 0.516116
vt 0.582309 0.537667
vt 0.323498 0.696123
vt 0.354773 0.677879
vt 0.289542 0.711095
vt 0.254209 0.722220
vt 0.218858 0.729071
vt 0.824020 0.853027
vt 0.679196 0.838405
vt 0.650440 0.861849
vt 0.173748 0.729351
vt 0.184657 0.699485
vt 0.149027 0.692741
vt 0.138751 0.720874
vt 0.816496 0.845571
vt 0.668732 0.828037
vt 0.645106 0.856562
vt 0.593899 0.501063
vt 0.571845 0.527299
vt 0.070742 0.691604
vt 0.078607 0.670071
vt 0.046523 0.655018
vt 0.040343 0.671935
vt 0.103970 0.708129
vt 0.113219 0.682810
vt 0.576064 0.489266
vt 0.559560 0.519172
vt 0.084451 0.646013
vt 0.051114 0.636115
vt 0.120091 0.654519
vt 0.156664 0.661307
vt 0.192764 0.666114
vt 0.807663 0.839728
vt 0.656447 0.819910
vt 0.638843 0.852420
vt 0.197756 0.630521
vt 0.161366 0.627778
vt 0.797859 0.835722
vt 0.642814 0.814338
vt 0.631892 0.849580
vt 0.556271 0.481177
vt 0.545927 0.513600
vt 0.088050 0.620351
vt 0.053942 0.615952
vt 0.124323 0.624345
vt 0.089265 0.594074
vt 0.054897 0.595306
vt 0.125751 0.593445
vt 0.162953 0.593445
vt 0.199441 0.594073
vt 0.787463 0.833706
vt 0.628355 0.811536
vt 0.624521 0.848150
vt 0.535281 0.477107
vt 0.531468 0.510798
vt 0.776873 0.833759
vt 0.613627 0.811609
vt 0.617013 0.848188
vt 0.513899 0.477214
vt 0.516740 0.510871
vt 0.088050 0.568190
vt 0.053942 0.574969
vt 0.124323 0.563009
vt 0.161366 0.559626
vt 0.197756 0.558171
vt 0.084451 0.543694
vt 0.051114 0.555723
vt 0.120091 0.534205
vt 0.156664 0.527621
vt 0.192764 0.524194
vt 0.766496 0.835878
vt 0.599196 0.814556
vt 0.609656 0.849690
vt 0.492947 0.481492
vt 0.502308 0.513818
s 1
usemtl Material
f 222/1/1 4/2/1 39/3/1
f 223/4/2 5/5/3 4/6/1 222/7/1
f 1/8/4 6/9/5 5/10/3 223/11/2
f 224/12/6 7/13/7 6/14/5 1/15/4
f 2/16/8 8/17/9 7/13/7 224/12/6
f 225/18/10 9/19/11 8/17/9 2/16/8
f 3/20/12 10/21/13 9/19/11 225/18/10
f 10/22/13 17/23/14 16/24/15 9/25/11
f 4/2/1 11/26/1 39/3/1
f 5/5/3 12/27/16 11/28/1 4/6/1
f 6/9/5 13/29/17 12/30/16 5/10/3
f 7/31/7 14/32/18 13/33/17 6/34/5
f 8/35/9 15/36/19 14/32/18 7/31/7
f 9/25/11 16/24/15 15/36/19 8/35/9
f 13/29/17 20/37/20 19/38/21 12/30/16
f 14/32/18 21/39/22 20/40/20 13/33/17
f 15/36/19 22/41/23 21/39/22 14/32/18
f 16/24/15 23/42/24 22/41/23 15/36/19
f 17/23/14 24/43/25 23/42/24 16/24/15
f 11/26/1 18/44/1 39/3/1
f 12/27/16 19/45/21 18/46/1 11/28/1
f 24/43/25 31/47/26 30/48/27 23/42/24
f 18/44/1 25/49/1 39/3/1
f 19/45/21 26/50/28 25/51/1 18/46/1
f 20/37/20 27/52/29 26/53/28 19/38/21
f 21/39/22 28/54/30 27/55/29 20/40/20
f 22/41/23 29/56/31 28/54/30 21/39/22
f 23/42/24 30/48/27 29/56/31 22/41/23
f 28/54/30 35/57/32 34/58/33 27/55/29
f 29/56/31 36/59/34 35/57/32 28/54/30
f 30/48/27 37/60/35 36/59/34 29/56/31
f 31/47/26 38/61/36 37/60/35 30/48/27
f 25/49/1 32/62/1 39/3/1
f 26/50/28 33/63/37 32/64/1 25/51/1
f 27/52/29 34/65/33 33/66/37 26/53/28
f 32/62/1 40/67/1 39/3/1
f 33/63/37 41/68/38 40/69/1 32/64/1
f 34/65/33 42/70/39 41/71/38 33/66/37
f 35/57/32 43/72/40 42/73/39 34/58/33
f 36/59/34 44/74/41 43/72/40 35/57/32
f 37/60/35 45/75/42 44/74/41 36/59/34
f 38/61/36 46/76/43 45/75/42 37/60/35
f 44/74/41 51/77/44 50/78/45 43/72/40
f 45/75/42 52/79/46 51/77/44 44/74/41
f 46/76/43 53/80/47 52/79/46 45/75/42
f 40/67/1 47/81/1 39/3/1
f 41/68/38 48/82/48 47/83/1 40/69/1
f 42/70/39 49/84/49 48/85/48 41/71/38
f 43/72/40 50/78/45 49/86/49 42/73/39
f 47/81/1 54/87/1 39/3/1
f 48/82/48 55/88/50 54/89/1 47/83/1
f 49/84/49 56/90/51 55/91/50 48/85/48
f 50/78/45 57/92/52 56/93/51 49/86/49
f 51/77/44 58/94/53 57/92/52 50/78/45
f 52/79/46 59/95/54 58/94/53 51/77/44
f 53/80/47 60/96/55 59/95/54 52/79/46
f 58/97/53 65/98/56 64/99/57 57/100/52
f 59/101/54 66/102/58 65/98/56 58/97/53
f 60/103/55 67/104/59 66/102/58 59/101/54
f 54/87/1 61/105/1 39/3/1
f 55/88/50 62/106/60 61/107/1 54/89/1
f 56/90/51 63/108/61 62/109/60 55/91/50
f 57/92/52 64/110/57 63/111/61 56/93/51
f 62/106/60 69/112/62 68/113/1 61/107/1
f 63/108/61 70/114/63 69/115/62 62/109/60
f 64/99/57 71/116/64 70/117/63 63/118/61
f 65/98/56 72/119/65 71/116/64 64/99/57
f 66/102/58 73/120/66 72/119/65 65/98/56
f 67/104/59 74/121/67 73/120/66 66/102/58
f 61/105/1 68/122/1 39/3/1
f 73/120/66 80/123/68 79/124/69 72/119/65
f 74/121/67 81/125/70 80/123/68 73/120/66
f 68/122/1 75/126/1 39/3/1
f 69/112/62 76/127/71 75/128/1 68/113/1
f 70/114/63 77/129/72 76/130/71 69/115/62
f 71/116/64 78/131/73 77/132/72 70/117/63
f 72/119/65 79/124/69 78/131/73 71/116/64
f 76/127/71 83/133/74 82/134/1 75/128/1
f 77/129/72 84/135/75 83/136/74 76/130/71
f 78/131/73 85/137/76 84/138/75 77/132/72
f 79/124/69 86/139/77 85/137/76 78/131/73
f 80/123/68 87/140/78 86/139/77 79/124/69
f 81/125/70 88/141/79 87/140/78 80/123/68
f 75/126/1 82/142/1 39/3/1
f 87/140/78 94/143/80 93/144/81 86/139/77
f 88/141/79 95/145/82 94/143/80 87/140/78
f 82/142/1 89/146/1 39/3/1
f 83/133/74 90/147/83 89/148/1 82/134/1
f 84/135/75 91/149/84 90/150/83 83/136/74
f 85/137/76 92/151/85 91/152/84 84/138/75
f 86/139/77 93/144/81 92/151/85 85/137/76
f 91/149/84 98/153/86 97/154/87 90/150/83
f 92/151/85 99/155/88 98/156/86 91/152/84
f 93/144/81 100/157/89 99/155/88 92/151/85
f 94/143/80 101/158/90 100/157/89 93/144/81
f 95/145/82 102/159/91 101/158/90 94/143/80
f 89/146/1 96/160/1 39/3/1
f 90/147/83 97/161/87 96/162/1 89/148/1
f 102/159/91 109/163/92 108/164/93 101/158/90
f 96/160/1 103/165/1 39/3/1
f 97/161/87 104/166/94 103/167/1 96/162/1
f 98/153/86 105/168/95 104/169/94 97/154/87
f 99/155/88 106/170/96 105/171/95 98/156/86
f 100/157/89 107/172/97 106/170/96 99/155/88
f 101/158/90 108/164/93 107/172/97 100/157/89
f 106/170/96 113/173/98 112/174/99 105/171/95
f 107/172/97 114/175/100 113/173/98 106/170/96
f 108/164/93 115/176/101 114/175/100 107/172/97
f 109/163/92 116/177/102 115/176/101 108/164/93
f 103/165/1 110/178/1 39/3/1
f 104/166/94 111/179/103 110/180/1 103/167/1
f 105/168/95 112/181/99 111/182/103 104/169/94
f 110/178/1 117/183/1 39/3/1
f 111/179/103 118/184/104 117/185/1 110/180/1
f 112/181/99 119/186/105 118/187/104 111/182/103
f 113/188/98 120/189/106 119/190/105 112/191/99
f 114/175/100 121/192/107 120/193/106 113/173/98
f 115/176/101 122/194/108 121/192/107 114/175/100
f 116/177/102 123/195/109 122/194/108 115/176/101
f 120/189/106 127/196/110 126/197/111 119/190/105
f 121/198/107 128/199/112 127/200/110 120/201/106
f 122/202/108 129/203/113 128/199/112 121/198/107
f 123/204/109 130/205/114 129/203/113 122/202/108
f 117/183/1 124/206/1 39/3/1
f 118/184/104 125/207/115 124/208/1 117/185/1
f 119/186/105 126/209/111 125/210/115 118/187/104
f 124/206/1 131/211/1 39/3/1
f 125/207/115 132/212/116 131/213/1 124/208/1
f 126/209/111 133/214/117 132/215/116 125/210/115
f 127/200/110 134/216/118 133/217/117 126/218/111
f 128/199/112 135/219/119 134/216/118 127/200/110
f 129/203/113 136/220/120 135/219/119 128/199/112
f 130/205/114 137/221/121 136/220/120 129/203/113
f 135/219/119 142/222/122 141/223/123 134/216/118
f 136/220/120 143/224/124 142/222/122 135/219/119
f 137/221/121 144/225/125 143/224/124 136/220/120
f 131/211/1 138/226/1 39/3/1
f 132/212/116 139/227/126 138/228/1 131/213/1
f 133/214/117 140/229/127 139/230/126 132/215/116
f 134/216/118 141/223/123 140/231/127 133/217/117
f 138/226/1 145/232/1 39/3/1
f 139/227/126 146/233/128 145/234/1 138/228/1
f 140/229/127 147/235/129 146/236/128 139/230/126
f 141/223/123 148/237/130 147/238/129 140/231/127
f 142/222/122 149/239/131 148/237/130 141/223/123
f 143/224/124 150/240/132 149/239/131 142/222/122
f 144/225/125 151/241/133 150/240/132 143/224/124
f 149/239/131 156/242/134 155/243/135 148/237/130
f 150/240/132 157/244/136 156/242/134 149/239/131
f 151/241/133 158/245/137 157/244/136 150/240/132
f 145/232/1 152/246/1 39/3/1
f 146/233/128 153/247/138 152/248/1 145/234/1
f 147/235/129 154/249/139 153/250/138 146/236/128
f 148/237/130 155/243/135 154/251/139 147/238/129
f 153/247/138 160/252/140 159/253/1 152/248/1
f 154/249/139 161/254/141 160/255/140 153/250/138
f 155/243/135 162/256/142 161/257/141 154/251/139
f 156/242/134 163/258/143 162/256/142 155/243/135
f 157/244/136 164/259/144 163/258/143 156/242/134
f 158/245/137 165/260/145 164/259/144 157/244/136
f 152/246/1 159/261/1 39/3/1
f 164/259/144 171/262/146 170/263/147 163/258/143
f 165/260/145 172/264/148 171/262/146 164/259/144
f 159/261/1 166/265/1 39/3/1
f 160/252/140 167/266/149 166/267/1 159/253/1
f 161/254/141 168/268/150 167/269/149 160/255/140
f 162/256/142 169/270/151 168/271/150 161/257/141
f 163/258/143 170/263/147 169/270/151 162/256/142
f 168/268/150 175/272/152 174/273/153 167/269/149
f 169/270/151 176/274/154 175/275/152 168/271/150
f 170/263/147 177/276/155 176/274/154 169/270/151
f 171/262/146 178/277/156 177/276/155 170/263/147
f 172/264/148 179/278/157 178/277/156 171/262/146
f 166/265/1 173/279/1 39/3/1
f 167/266/149 174/280/153 173/281/1 166/267/1
f 179/282/157 186/283/158 185/284/159 178/285/156
f 173/279/1 180/286/1 39/3/1
f 174/280/153 181/287/160 180/288/1 173/281/1
f 175/272/152 182/289/161 181/290/160 174/273/153
f 176/291/154 183/292/162 182/293/161 175/294/152
f 177/295/155 184/296/163 183/292/162 176/291/154
f 178/285/156 185/284/159 184/296/163 177/295/155
f 182/289/161 189/297/164 188/298/165 181/290/160
f 183/292/162 190/299/166 189/300/164 182/293/161
f 184/296/163 191/301/167 190/299/166 183/292/162
f 185/284/159 192/302/168 191/301/167 184/296/163
f 186/283/158 193/303/169 192/302/168 185/284/159
f 180/286/1 187/304/1 39/3/1
f 181/287/160 188/305/165 187/306/1 180/288/1
f 193/303/169 200/307/170 199/308/171 192/302/168
f 187/304/1 194/309/1 39/3/1
f 188/305/165 195/310/172 194/311/1 187/306/1
f 189/297/164 196/312/173 195/313/172 188/298/165
f 190/299/166 197/314/174 196/315/173 189/300/164
f 191/301/167 198/316/175 197/314/174 190/299/166
f 192/302/168 199/308/171 198/316/175 191/301/167
f 197/314/174 204/317/176 203/318/177 196/315/173
f 198/316/175 205/319/178 204/317/176 197/314/174
f 199/308/171 206/320/179 205/319/178 198/316/175
f 200/307/170 207/321/180 206/320/179 199/308/171
f 194/309/1 201/322/1 39/3/1
f 195/310/172 202/323/181 201/324/1 194/311/1
f 196/312/173 203/325/177 202/326/181 195/313/172
f 201/322/1 208/327/1 39/3/1
f 202/323/181 209/328/182 208/329/1 201/324/1
f 203/325/177 210/330/183 209/331/182 202/326/181
f 204/317/176 211/332/184 210/333/183 203/318/177
f 205/319/178 212/334/185 211/332/184 204/317/176
f 206/320/179 213/335/186 212/334/185 205/319/178
f 207/321/180 214/336/187 213/335/186 206/320/179
f 211/332/184 218/337/188 217/338/189 210/333/183
f 212/334/185 219/339/190 218/337/188 211/332/184
f 213/335/186 220/340/191 219/339/190 212/334/185
f 214/336/187 221/341/192 220/340/191 213/335/186
f 208/327/1 215/342/1 39/3/1
f 209/328/182 216/343/193 215/344/1 208/329/1
f 210/330/183 217/345/189 216/346/193 209/331/182
f 215/342/1 222/1/1 39/3/1
f 216/343/193 223/4/2 222/7/1 215/344/1
f 217/345/189 1/8/4 223/11/2 216/346/193
f 218/337/188 224/12/6 1/15/4 217/338/189
f 219/339/190 2/16/8 224/12/6 218/337/188
f 220/340/191 225/18/10 2/16/8 219/339/190
f 221/341/192 3/20/12 225/18/10 220/340/191
o outside
v -0.000000 0.617604 -0.942357
v -0.000000 0.293180 -0.721249
v -0.000000 0.000000 -0.390337
v -0.000000 0.000582 -0.198992
v 0.195168 0.805197 -0.981178
v 0.183845 0.617604 -0.924249
v 0.165455 0.444717 -0.831803
v 0.140709 0.293180 -0.707390
v 0.110554 0.133330 -0.555793
v 0.076151 0.000000 -0.382837
v 0.038821 0.000582 -0.195169
v 0.382837 0.805197 -0.924249
v 0.360624 0.617604 -0.870624
v 0.324553 0.444717 -0.783540
v 0.276010 0.293180 -0.666347
v 0.216859 0.133330 -0.523545
v 0.149375 0.000000 -0.360624
v 0.076151 0.000582 -0.183845
v 0.555793 0.805197 -0.831803
v 0.523546 0.617604 -0.783540
v 0.471178 0.444717 -0.705168
v 0.400704 0.293180 -0.599697
v 0.314831 0.133330 -0.471178
v 0.216859 0.000000 -0.324554
v 0.110554 0.000582 -0.165456
v 0.707389 0.805197 -0.707390
v 0.666347 0.617604 -0.666347
v 0.599696 0.444717 -0.599697
v 0.510000 0.293180 -0.510000
v 0.400704 0.133329 -0.400704
v 0.276010 0.000000 -0.276010
v 0.140709 0.000582 -0.140709
v 0.831803 0.805197 -0.555793
v 0.783540 0.617604 -0.523546
v 0.705168 0.444717 -0.471179
v 0.599697 0.293180 -0.400704
v 0.471178 0.133329 -0.314831
v 0.324553 0.000000 -0.216859
v 0.165456 0.000582 -0.110554
v 0.924249 0.805197 -0.382837
v 0.870624 0.617604 -0.360624
v 0.783540 0.444717 -0.324554
v 0.666347 0.293180 -0.276010
v 0.523545 0.133329 -0.216859
v 0.360624 -0.000000 -0.149376
v 0.183845 0.000582 -0.076151
v 0.981178 0.805196 -0.195169
v 0.924249 0.617603 -0.183845
v 0.831803 0.444716 -0.165456
v 0.707390 0.293180 -0.140709
v 0.555793 0.133329 -0.110554
v 0.382837 -0.000000 -0.076151
v 0.195169 0.000582 -0.038821
v 1.000401 0.805196 0.000000
v 0.942357 0.617603 -0.000000
v 0.848098 0.444716 -0.000000
v 0.721249 0.293180 -0.000000
v 0.566681 0.133329 -0.000000
v 0.390337 -0.000000 -0.000000
v 0.198992 0.000582 -0.000000
v 0.981178 0.805196 0.195168
v 0.924249 0.617603 0.183845
v 0.831803 0.444716 0.165455
v 0.707390 0.293180 0.140709
v 0.555793 0.133329 0.110554
v 0.382837 -0.000000 0.076151
v 0.195169 0.000582 0.038821
v 0.924249 0.805196 0.382837
v 0.870624 0.617603 0.360624
v 0.783540 0.444716 0.324553
v 0.666347 0.293180 0.276010
v 0.523546 0.133329 0.216859
v 0.360624 -0.000000 0.149376
v 0.183845 0.000582 0.076151
v 0.831803 0.805196 0.555793
v 0.783540 0.617603 0.523546
v 0.705168 0.444716 0.471178
v 0.599697 0.293179 0.400704
v 0.471179 0.133329 0.314831
v 0.324554 0.000000 0.216859
v 0.165456 0.000582 0.110554
v 0.707390 0.805196 0.707390
v 0.666347 0.617603 0.666347
v 0.599697 0.444716 0.599696
v 0.510000 0.293179 0.510000
v 0.400704 0.133329 0.400704
v 0.276010 0.000000 0.276010
v 0.140709 0.000582 0.140709
v 0.555793 0.805196 0.831803
v 0.523546 0.617603 0.783542
v 0.471179 0.444716 0.705168
v 0.400704 0.293179 0.599697
v 0.314831 0.133329 0.471178
v 0.216860 0.000000 0.324554
v 0.110554 0.000582 0.165456
v 0.382837 0.805196 0.924249
v 0.360624 0.617603 0.870624
v 0.324554 0.444716 0.783540
v 0.276010 0.293180 0.666347
v 0.216860 0.133329 0.523546
v 0.149376 0.000000 0.360624
v 0.076151 0.000582 0.183845
v 0.195169 0.805196 0.981178
v 0.183845 0.617603 0.924249
v 0.165456 0.444716 0.831803
v 0.140709 0.293180 0.707390
v 0.110554 0.133329 0.555793
v 0.076151 0.000000 0.382837
v 0.038821 0.000582 0.195169
v 0.000000 0.805196 1.000401
v -0.000000 0.617603 0.942357
v -0.000000 0.444716 0.848098
v -0.000000 0.293180 0.721249
v -0.000000 0.133329 0.566681
v -0.000000 0.000000 0.390337
v -0.000000 0.000582 0.198992
v -0.195169 0.805197 0.981178
v -0.183845 0.617603 0.924249
v -0.165456 0.444716 0.831803
v -0.140709 0.293180 0.707390
v -0.110554 0.133329 0.555793
v -0.076151 0.000000 0.382837
v -0.038821 0.000582 0.195169
v -0.382837 0.805197 0.924249
v -0.360624 0.617604 0.870624
v -0.324553 0.444717 0.783542
v -0.276010 0.293180 0.666347
v -0.216859 0.133329 0.523546
v -0.149376 0.000000 0.360624
v -0.076151 0.000582 0.183845
v -0.555793 0.805197 0.831803
v -0.523546 0.617604 0.783542
v -0.471179 0.444717 0.705169
v -0.400704 0.293180 0.599697
v -0.314831 0.133329 0.471179
v -0.216859 0.000000 0.324554
v -0.110554 0.000582 0.165456
v -0.707390 0.805197 0.707390
v -0.666347 0.617604 0.666347
v -0.599697 0.444717 0.599697
v -0.510000 0.293180 0.510000
v -0.400704 0.133329 0.400704
v -0.276010 0.000000 0.276010
v -0.140709 0.000582 0.140709
v -0.831803 0.805197 0.555793
v -0.783542 0.617604 0.523546
v -0.705168 0.444717 0.471179
v -0.599697 0.293180 0.400704
v -0.471179 0.133330 0.314831
v -0.324554 0.000000 0.216860
v -0.165456 0.000582 0.110554
v -0.924249 0.805197 0.382837
v -0.870624 0.617604 0.360624
v -0.783542 0.444717 0.324554
v -0.666347 0.293180 0.276010
v -0.523546 0.133330 0.216860
v -0.360624 0.000000 0.149376
v -0.183845 0.000582 0.076151
v -0.981179 0.805197 0.195169
v -0.924249 0.617604 0.183845
v -0.831803 0.444717 0.165456
v -0.707390 0.293180 0.140709
v -0.555793 0.133330 0.110554
v -0.382837 0.000000 0.076151
v -0.195169 0.000582 0.038821
v -1.000401 0.805197 0.000000
v -0.942357 0.617604 -0.000000
v -0.848098 0.444717 -0.000000
v -0.721249 0.293180 -0.000000
v -0.566681 0.133330 -0.000000
v -0.390337 0.000000 -0.000000
v -0.198992 0.000582 -0.000000
v -0.981179 0.805197 -0.195169
v -0.924249 0.617604 -0.183845
v -0.831803 0.444717 -0.165456
v -0.707390 0.293180 -0.140709
v -0.555793 0.133330 -0.110554
v -0.382837 0.000000 -0.076151
v -0.195169 0.000582 -0.038821
v -0.924249 0.805197 -0.382837
v -0.870624 0.617604 -0.360624
v -0.783542 0.444717 -0.324554
v -0.666347 0.293180 -0.276010
v -0.523546 0.133330 -0.216859
v -0.360624 0.000000 -0.149376
v -0.183845 0.000582 -0.076151
v -0.000000 0.000000 -0.000000
v -0.831803 0.805197 -0.555793
v -0.783542 0.617604 -0.523546
v -0.705169 0.444717 -0.471179
v -0.599697 0.293180 -0.400704
v -0.471179 0.133330 -0.314831
v -0.324554 0.000000 -0.216860
v -0.165456 0.000582 -0.110554
v -0.707390 0.805197 -0.707390
v -0.666347 0.617604 -0.666347
v -0.599697 0.444717 -0.599697
v -0.510000 0.293180 -0.510000
v -0.400704 0.133330 -0.400704
v -0.276010 0.000000 -0.276010
v -0.140709 0.000582 -0.140709
v -0.555793 0.805197 -0.831803
v -0.523546 0.617604 -0.783542
v -0.471179 0.444717 -0.705169
v -0.400704 0.293180 -0.599697
v -0.314831 0.133330 -0.471179
v -0.216860 0.000000 -0.324554
v -0.110554 0.000582 -0.165456
v -0.382837 0.805197 -0.924249
v -0.360624 0.617604 -0.870624
v -0.324554 0.444717 -0.783542
v -0.276010 0.293180 -0.666347
v -0.216860 0.133330 -0.523546
v -0.149376 0.000000 -0.360624
v -0.076151 0.000582 -0.183845
v -0.195169 0.805197 -0.981179
v -0.183845 0.617604 -0.924249
v -0.165456 0.444717 -0.831803
v -0.140709 0.293180 -0.707390
v -0.110554 0.133330 -0.555793
v -0.076151 0.000000 -0.382837
v -0.038821 0.000582 -0.195169
v 0.000000 0.805197 -1.000401
v -0.000000 0.444717 -0.848099
v -0.000000 0.133330 -0.566681
vn 0.1864 -0.2956 -0.9370
vn 0.1799 -0.3869 -0.9044
vn -0.0000 -0.3869 -0.9221
vn -0.0000 -0.2956 -0.9553
vn 0.1616 -0.5602 -0.8125
vn -0.0000 -0.5602 -0.8284
vn 0.1452 -0.6678 -0.7300
vn -0.0000 -0.6678 -0.7443
vn 0.1299 -0.7463 -0.6529
vn -0.0000 -0.7463 -0.6657
vn 0.0652 -0.9424 -0.3279
vn -0.0000 -0.9424 -0.3344
vn -0.0000 -1.0000 0.0002
vn -0.0000 -1.0000 -0.0000
vn 0.2547 -0.7463 -0.6150
vn 0.1280 -0.9424 -0.3089
vn -0.0001 -1.0000 0.0002
vn 0.3656 -0.2956 -0.8826
vn 0.3529 -0.3869 -0.8519
vn 0.3170 -0.5602 -0.7653
vn 0.2848 -0.6678 -0.6877
vn 0.5307 -0.2956 -0.7943
vn 0.5123 -0.3869 -0.7667
vn 0.4602 -0.5602 -0.6888
vn 0.4135 -0.6678 -0.6189
vn 0.3698 -0.7463 -0.5535
vn 0.1858 -0.9424 -0.2780
vn 0.4707 -0.7463 -0.4707
vn 0.2364 -0.9424 -0.2364
vn -0.0002 -1.0000 0.0002
vn 0.6755 -0.2956 -0.6755
vn 0.6521 -0.3869 -0.6521
vn 0.5857 -0.5602 -0.5857
vn 0.5263 -0.6678 -0.5263
vn 0.7667 -0.3869 -0.5123
vn 0.6888 -0.5602 -0.4602
vn 0.6189 -0.6678 -0.4135
vn 0.5535 -0.7463 -0.3698
vn 0.2780 -0.9424 -0.1858
vn -0.0002 -1.0000 0.0001
vn 0.7943 -0.2956 -0.5307
vn 0.3089 -0.9424 -0.1280
vn 0.8826 -0.2956 -0.3656
vn 0.8519 -0.3869 -0.3529
vn 0.7653 -0.5602 -0.3170
vn 0.6877 -0.6678 -0.2848
vn 0.6150 -0.7463 -0.2547
vn 0.9044 -0.3869 -0.1799
vn 0.8125 -0.5602 -0.1616
vn 0.7300 -0.6678 -0.1452
vn 0.6529 -0.7463 -0.1299
vn 0.3279 -0.9424 -0.0652
vn -0.0002 -1.0000 -0.0000
vn 0.9370 -0.2956 -0.1864
vn 0.3344 -0.9424 -0.0000
vn 0.9553 -0.2956 -0.0000
vn 0.9221 -0.3869 -0.0000
vn 0.8284 -0.5602 -0.0000
vn 0.7443 -0.6678 -0.0000
vn 0.6657 -0.7463 -0.0000
vn 0.8125 -0.5602 0.1616
vn 0.7300 -0.6678 0.1452
vn 0.6529 -0.7463 0.1299
vn 0.3279 -0.9424 0.0652
vn 0.9370 -0.2956 0.1864
vn 0.9044 -0.3869 0.1799
vn -0.0002 -1.0000 -0.0001
vn 0.8826 -0.2956 0.3656
vn 0.8519 -0.3869 0.3529
vn 0.7653 -0.5602 0.3170
vn 0.6877 -0.6678 0.2848
vn 0.6150 -0.7463 0.2547
vn 0.3089 -0.9424 0.1280
vn 0.6189 -0.6678 0.4135
vn 0.5535 -0.7463 0.3698
vn 0.2780 -0.9424 0.1858
vn 0.7943 -0.2956 0.5307
vn 0.7667 -0.3869 0.5123
vn 0.6888 -0.5602 0.4602
vn 0.6755 -0.2956 0.6755
vn 0.6521 -0.3869 0.6520
vn 0.5857 -0.5602 0.5857
vn 0.5263 -0.6678 0.5263
vn 0.4707 -0.7463 0.4707
vn 0.2364 -0.9424 0.2364
vn -0.0002 -1.0000 -0.0002
vn 0.4135 -0.6678 0.6189
vn 0.3698 -0.7463 0.5535
vn 0.1858 -0.9424 0.2780
vn -0.0001 -1.0000 -0.0002
vn 0.5307 -0.2956 0.7943
vn 0.5123 -0.3869 0.7667
vn 0.4602 -0.5602 0.6888
vn 0.3656 -0.2956 0.8826
vn 0.3529 -0.3869 0.8519
vn 0.3170 -0.5602 0.7653
vn 0.2848 -0.6678 0.6877
vn 0.2547 -0.7463 0.6150
vn 0.1280 -0.9424 0.3089
vn 0.1299 -0.7463 0.6529
vn 0.0652 -0.9424 0.3279
vn -0.0000 -1.0000 -0.0002
vn 0.1864 -0.2956 0.9370
vn 0.1799 -0.3869 0.9044
vn 0.1616 -0.5602 0.8125
vn 0.1452 -0.6678 0.7300
vn -0.0000 -0.2956 0.9553
vn -0.0000 -0.3869 0.9221
vn -0.0000 -0.5602 0.8284
vn -0.0000 -0.6678 0.7443
vn -0.0000 -0.7463 0.6657
vn -0.0000 -0.9424 0.3344
vn -0.1299 -0.7463 0.6529
vn -0.0652 -0.9424 0.3279
vn -0.1864 -0.2956 0.9370
vn -0.1799 -0.3869 0.9044
vn -0.1616 -0.5602 0.8125
vn -0.1452 -0.6678 0.7300
vn -0.3529 -0.3869 0.8519
vn -0.3170 -0.5602 0.7653
vn -0.2848 -0.6678 0.6877
vn -0.2547 -0.7463 0.6150
vn -0.1280 -0.9424 0.3089
vn 0.0001 -1.0000 -0.0002
vn -0.3656 -0.2956 0.8826
vn -0.1858 -0.9424 0.2780
vn -0.5307 -0.2956 0.7943
vn -0.5123 -0.3869 0.7667
vn -0.4602 -0.5602 0.6888
vn -0.4135 -0.6678 0.6189
vn -0.3698 -0.7463 0.5535
vn -0.5857 -0.5602 0.5857
vn -0.5263 -0.6678 0.5263
vn -0.4707 -0.7463 0.4707
vn -0.2364 -0.9424 0.2364
vn 0.0002 -1.0000 -0.0002
vn -0.6755 -0.2956 0.6755
vn -0.6521 -0.3869 0.6521
vn 0.0002 -1.0000 -0.0001
vn -0.7943 -0.2956 0.5307
vn -0.7667 -0.3869 0.5123
vn -0.6888 -0.5602 0.4602
vn -0.6189 -0.6678 0.4135
vn -0.5535 -0.7463 0.3698
vn -0.2780 -0.9424 0.1858
vn -0.7653 -0.5602 0.3170
vn -0.6877 -0.6678 0.2848
vn -0.6150 -0.7463 0.2547
vn -0.3089 -0.9424 0.1279
vn -0.8826 -0.2956 0.3656
vn -0.8519 -0.3869 0.3529
vn 0.0002 -1.0000 -0.0000
vn -0.9370 -0.2956 0.1864
vn -0.9044 -0.3869 0.1799
vn -0.8125 -0.5602 0.1616
vn -0.7300 -0.6678 0.1452
vn -0.6529 -0.7463 0.1299
vn -0.3279 -0.9424 0.0652
vn -0.7443 -0.6678 -0.0000
vn -0.6657 -0.7463 -0.0000
vn -0.3344 -0.9424 -0.0000
vn -0.9553 -0.2956 -0.0000
vn -0.9221 -0.3869 -0.0000
vn -0.8284 -0.5602 -0.0000
vn -0.9370 -0.2956 -0.1864
vn -0.9044 -0.3869 -0.1799
vn -0.8125 -0.5602 -0.1616
vn -0.7300 -0.6678 -0.1452
vn -0.6529 -0.7463 -0.1299
vn -0.3279 -0.9424 -0.0652
vn -0.6877 -0.6678 -0.2848
vn -0.6150 -0.7463 -0.2547
vn -0.3089 -0.9424 -0.1279
vn 0.0002 -1.0000 0.0001
vn -0.8826 -0.2956 -0.3656
vn -0.8519 -0.3869 -0.3529
vn -0.7653 -0.5602 -0.3170
vn -0.7943 -0.2956 -0.5307
vn -0.7667 -0.3869 -0.5123
vn -0.6888 -0.5602 -0.4602
vn -0.6189 -0.6678 -0.4135
vn -0.5535 -0.7463 -0.3698
vn -0.2780 -0.9424 -0.1858
vn -0.4707 -0.7463 -0.4707
vn -0.2364 -0.9424 -0.2364
vn 0.0002 -1.0000 0.0002
vn -0.6755 -0.2956 -0.6755
vn -0.6521 -0.3869 -0.6521
vn -0.5857 -0.5602 -0.5857
vn -0.5263 -0.6678 -0.5263
vn -0.5123 -0.3869 -0.7667
vn -0.4602 -0.5602 -0.6888
vn -0.4135 -0.6678 -0.6189
vn -0.3698 -0.7463 -0.5535
vn -0.1858 -0.9424 -0.2780
vn 0.0001 -1.0000 0.0002
vn -0.5307 -0.2956 -0.7943
vn -0.1279 -0.9424 -0.3089
vn -0.3656 -0.2956 -0.8826
vn -0.3529 -0.3869 -0.8519
vn -0.3170 -0.5602 -0.7653
vn -0.2848 -0.6678 -0.6877
vn -0.2547 -0.7463 -0.6150
vn -0.1799 -0.3869 -0.9044
vn -0.1616 -0.5602 -0.8125
vn -0.1452 -0.6678 -0.7300
vn -0.1299 -0.7463 -0.6529
vn -0.0652 -0.9424 -0.3279
vn -0.1864 -0.2956 -0.9370
vt 0.192764 0.524194
vt 0.156664 0.527621
vt 0.149027 0.498660
vt 0.184657 0.493449
vt 0.120091 0.534205
vt 0.113219 0.508140
vt 0.084451 0.543694
vt 0.078607 0.521528
vt 0.051114 0.555723
vt 0.046523 0.538308
vt 0.492947 0.481492
vt 0.502308 0.513818
vt 0.488728 0.519525
vt 0.473232 0.489778
vt 0.500758 0.516143
vt 0.511219 0.551277
vt 0.504295 0.554187
vt 0.487178 0.521851
vt 0.668058 0.537465
vt 0.683795 0.589077
vt 0.658293 0.541569
vt 0.513899 0.477214
vt 0.516740 0.510871
vt 0.515190 0.513196
vt 0.518576 0.549775
vt 0.678435 0.535346
vt 0.197756 0.558171
vt 0.161366 0.559626
vt 0.124323 0.563009
vt 0.088050 0.568190
vt 0.053942 0.574969
vt 0.199441 0.594073
vt 0.162953 0.593445
vt 0.125751 0.593445
vt 0.089265 0.594074
vt 0.054897 0.595306
vt 0.535281 0.477107
vt 0.531468 0.510798
vt 0.529918 0.513123
vt 0.526084 0.549737
vt 0.689025 0.535293
vt 0.556271 0.481177
vt 0.545927 0.513600
vt 0.544377 0.515926
vt 0.533455 0.551167
vt 0.699421 0.537309
vt 0.197756 0.630521
vt 0.161366 0.627778
vt 0.124323 0.624345
vt 0.088050 0.620351
vt 0.053942 0.615952
vt 0.156664 0.661307
vt 0.120091 0.654519
vt 0.084451 0.646013
vt 0.051114 0.636115
vt 0.576064 0.489266
vt 0.559560 0.519172
vt 0.558010 0.521498
vt 0.540406 0.554007
vt 0.709225 0.541315
vt 0.192764 0.666114
vt 0.570295 0.529624
vt 0.546668 0.558150
vt 0.718058 0.547158
vt 0.184657 0.699485
vt 0.149027 0.692741
vt 0.113219 0.682810
vt 0.078607 0.670071
vt 0.046523 0.655018
vt 0.593899 0.501063
vt 0.571845 0.527299
vt 0.138751 0.720874
vt 0.103970 0.708129
vt 0.070742 0.691604
vt 0.040343 0.671935
vt 0.609089 0.516116
vt 0.582309 0.537667
vt 0.580759 0.539992
vt 0.552003 0.563436
vt 0.725582 0.554614
vt 0.173748 0.729351
vt 0.588999 0.552205
vt 0.556203 0.569661
vt 0.731507 0.563395
vt 0.209339 0.698733
vt 0.245243 0.693643
vt 0.254209 0.722220
vt 0.218858 0.729071
vt 0.281473 0.685375
vt 0.289542 0.711095
vt 0.316636 0.674250
vt 0.323498 0.696123
vt 0.349381 0.660694
vt 0.354773 0.677879
vt 0.621053 0.533846
vt 0.590549 0.549880
vt 0.275915 0.656798
vt 0.311909 0.649947
vt 0.345668 0.641599
vt 0.629329 0.553571
vt 0.596250 0.563467
vt 0.594700 0.565792
vt 0.559110 0.576588
vt 0.735606 0.573165
vt 0.202784 0.665023
vt 0.239068 0.661888
vt 0.737721 0.583548
vt 0.199441 0.629238
vt 0.235919 0.628179
vt 0.273081 0.626460
vt 0.309500 0.624147
vt 0.343774 0.621328
vt 0.633600 0.574534
vt 0.599191 0.577907
vt 0.597641 0.580232
vt 0.560609 0.583950
vt 0.309500 0.597841
vt 0.343774 0.600660
vt 0.633701 0.595929
vt 0.599261 0.592644
vt 0.597711 0.594969
vt 0.560645 0.591462
vt 0.737771 0.594144
vt 0.199441 0.592750
vt 0.235919 0.593809
vt 0.273081 0.595528
vt 0.202784 0.556965
vt 0.239068 0.560099
vt 0.275915 0.565190
vt 0.311909 0.572041
vt 0.345668 0.580389
vt 0.629629 0.616934
vt 0.596457 0.607111
vt 0.594907 0.609437
vt 0.559215 0.598838
vt 0.735755 0.604547
vt 0.316636 0.547737
vt 0.349381 0.561294
vt 0.621540 0.636741
vt 0.590885 0.620755
vt 0.589335 0.623080
vt 0.556374 0.605794
vt 0.731748 0.614358
vt 0.209339 0.523255
vt 0.245243 0.528345
vt 0.281473 0.536613
vt 0.218858 0.492917
vt 0.254209 0.499768
vt 0.289542 0.510893
vt 0.323498 0.525865
vt 0.354773 0.544109
vt 0.609745 0.654589
vt 0.582760 0.633049
vt 0.581210 0.635374
vt 0.552233 0.612061
vt 0.725907 0.623198
vt 0.594698 0.669793
vt 0.572396 0.643522
vt 0.570845 0.645847
vt 0.546949 0.617400
vt 0.718454 0.630728
vt 0.230972 0.467117
vt 0.265620 0.475464
vt 0.299812 0.489021
vt 0.332232 0.507264
vt 0.408053 0.712826
vt 0.380053 0.680264
vt 0.401277 0.658820
vt 0.435066 0.685532
vt 0.676484 0.715373
vt 0.710692 0.708744
vt 0.721734 0.732261
vt 0.688207 0.740339
vt 0.744881 0.697979
vt 0.754819 0.719143
vt 0.777739 0.683491
vt 0.786190 0.701490
vt 0.376239 0.734323
vt 0.355057 0.697154
vt 0.576976 0.681768
vt 0.560188 0.651770
vt 0.558638 0.654095
vt 0.540725 0.621605
vt 0.709676 0.636659
vt 0.557261 0.690053
vt 0.546608 0.657477
vt 0.545058 0.659803
vt 0.533802 0.624515
vt 0.699911 0.640763
vt 0.667274 0.686017
vt 0.702017 0.681091
vt 0.737074 0.673092
vt 0.771099 0.662326
vt 0.802785 0.649209
vt 0.808002 0.665838
vt 0.696040 0.650365
vt 0.731696 0.645439
vt 0.766525 0.638810
vt 0.799191 0.630732
vt 0.536309 0.694332
vt 0.532177 0.660425
vt 0.530627 0.662750
vt 0.526446 0.626017
vt 0.689535 0.642882
vt 0.660931 0.653398
vt 0.515899 0.662824
vt 0.518937 0.626055
vt 0.678944 0.642935
vt 0.657697 0.618771
vt 0.692994 0.617746
vt 0.728954 0.616083
vt 0.764194 0.613845
vt 0.797359 0.611117
vt 0.514928 0.694439
vt 0.517449 0.660498
vt 0.728954 0.586151
vt 0.764194 0.588390
vt 0.797359 0.591118
vt 0.493937 0.690370
vt 0.502990 0.657695
vt 0.501439 0.660020
vt 0.511566 0.624625
vt 0.668548 0.640919
vt 0.657697 0.583464
vt 0.692994 0.584488
vt 0.658745 0.636913
vt 0.660931 0.548836
vt 0.696040 0.551870
vt 0.731696 0.556795
vt 0.766525 0.563424
vt 0.799191 0.571502
vt 0.474144 0.682281
vt 0.489356 0.652124
vt 0.487806 0.654449
vt 0.504616 0.621785
vt 0.737074 0.529142
vt 0.771099 0.539907
vt 0.802785 0.553025
vt 0.456309 0.670483
vt 0.477072 0.643997
vt 0.475522 0.646323
vt 0.498353 0.617643
vt 0.649912 0.631070
vt 0.667274 0.516217
vt 0.702017 0.521143
vt 0.642388 0.623614
vt 0.676484 0.486861
vt 0.710692 0.493490
vt 0.744881 0.504255
vt 0.777739 0.518743
vt 0.808002 0.536396
vt 0.441118 0.655430
vt 0.466608 0.633628
vt 0.465058 0.635954
vt 0.493019 0.612356
vt 0.845028 0.489066
vt 0.813982 0.505302
vt 0.808002 0.490869
vt 0.837417 0.470696
vt 0.429155 0.637700
vt 0.458367 0.621416
vt 0.456817 0.623741
vt 0.488818 0.606131
vt 0.636463 0.614833
vt 0.688207 0.461896
vt 0.721734 0.469973
vt 0.754819 0.483090
vt 0.786190 0.500744
vt 0.955491 0.491646
vt 0.920558 0.494962
vt 0.913170 0.466937
vt 0.947647 0.461896
vt 0.885169 0.501333
vt 0.878520 0.476112
vt 0.850683 0.510515
vt 0.818425 0.522154
vt 0.420878 0.617975
vt 0.452667 0.607829
vt 0.451117 0.610154
vt 0.485912 0.599204
vt 0.632364 0.605063
vt 0.854166 0.534218
vt 0.821161 0.540778
vt 0.416608 0.597012
vt 0.449725 0.593390
vt 0.448175 0.595715
vt 0.484412 0.591842
vt 0.630248 0.594680
vt 0.960321 0.524523
vt 0.925109 0.525931
vt 0.889264 0.529205
vt 0.961952 0.559264
vt 0.926645 0.558656
vt 0.890647 0.558656
vt 0.855341 0.559264
vt 0.822085 0.560457
vt 0.416507 0.575617
vt 0.449655 0.578653
vt 0.448105 0.580978
vt 0.484376 0.584330
vt 0.630198 0.584084
vt 0.420579 0.554613
vt 0.452460 0.564184
vt 0.450910 0.566509
vt 0.485806 0.576954
vt 0.632215 0.573681
vt 0.960321 0.594532
vt 0.925109 0.591878
vt 0.889264 0.588556
vt 0.854166 0.584692
vt 0.821161 0.580435
vt 0.920558 0.624322
vt 0.885169 0.617754
vt 0.850683 0.609523
vt 0.818425 0.599945
vt 0.428667 0.534806
vt 0.458032 0.550541
vt 0.456482 0.552866
vt 0.488646 0.569998
vt 0.636221 0.563870
vt 0.955491 0.628974
vt 0.464606 0.540572
vt 0.492788 0.563731
vt 0.642063 0.555030
vt 0.947647 0.661265
vt 0.913170 0.654739
vt 0.878520 0.645129
vt 0.845028 0.632803
vt 0.813982 0.618236
vt 0.440462 0.516957
vt 0.466156 0.538246
vt 0.903226 0.681962
vt 0.869570 0.669628
vt 0.837417 0.653639
vt 0.808002 0.634606
vt 0.455510 0.501753
vt 0.476521 0.527774
vt 0.474971 0.530099
vt 0.498072 0.558392
vt 0.649516 0.547500
vt 0.937091 0.690164
vt 0.138751 0.473855
vt 0.173748 0.467117
vt 0.103970 0.485817
vt 0.070742 0.502544
vt 0.040343 0.523392
s 1
usemtl Material
f 230/347/194 231/348/195 226/349/196 448/350/197
f 231/348/195 232/351/198 449/352/199 226/349/196
f 232/351/198 233/353/200 227/354/201 449/352/199
f 233/353/200 234/355/202 450/356/203 227/354/201
f 234/357/202 235/358/204 228/359/205 450/360/203
f 235/361/204 236/362/206 229/363/206 228/364/205
f 236/365/206 412/366/207 229/367/206
f 241/368/208 242/369/209 235/358/204 234/357/202
f 242/370/209 243/371/210 236/362/206 235/361/204
f 243/372/210 412/366/207 236/365/206
f 237/373/211 238/374/212 231/348/195 230/347/194
f 238/374/212 239/375/213 232/351/198 231/348/195
f 239/375/213 240/376/214 233/353/200 232/351/198
f 240/376/214 241/377/208 234/355/202 233/353/200
f 244/378/215 245/379/216 238/374/212 237/373/211
f 245/379/216 246/380/217 239/375/213 238/374/212
f 246/380/217 247/381/218 240/376/214 239/375/213
f 247/381/218 248/382/219 241/377/208 240/376/214
f 248/383/219 249/384/220 242/369/209 241/368/208
f 249/385/220 250/386/210 243/371/210 242/370/209
f 250/387/210 412/366/207 243/372/210
f 255/388/221 256/389/222 249/384/220 248/383/219
f 256/390/222 257/391/223 250/386/210 249/385/220
f 257/392/223 412/366/207 250/387/210
f 251/393/224 252/394/225 245/379/216 244/378/215
f 252/394/225 253/395/226 246/380/217 245/379/216
f 253/395/226 254/396/227 247/381/218 246/380/217
f 254/396/227 255/397/221 248/382/219 247/381/218
f 259/398/228 260/399/229 253/395/226 252/394/225
f 260/399/229 261/400/230 254/396/227 253/395/226
f 261/400/230 262/401/231 255/397/221 254/396/227
f 262/402/231 263/403/232 256/389/222 255/388/221
f 263/404/232 264/405/233 257/391/223 256/390/222
f 264/406/233 412/366/207 257/392/223
f 258/407/234 259/398/228 252/394/225 251/393/224
f 270/408/235 271/409/233 264/405/233 263/404/232
f 271/410/233 412/366/207 264/406/233
f 265/411/236 266/412/237 259/398/228 258/407/234
f 266/412/237 267/413/238 260/399/229 259/398/228
f 267/413/238 268/414/239 261/400/230 260/399/229
f 268/414/239 269/415/240 262/401/231 261/400/230
f 269/416/240 270/417/235 263/403/232 262/402/231
f 273/418/241 274/419/242 267/413/238 266/412/237
f 274/419/242 275/420/243 268/414/239 267/413/238
f 275/420/243 276/421/244 269/415/240 268/414/239
f 276/422/244 277/423/245 270/417/235 269/416/240
f 277/424/245 278/425/246 271/409/233 270/408/235
f 278/426/246 412/366/207 271/410/233
f 272/427/247 273/418/241 266/412/237 265/411/236
f 284/428/248 285/429/246 278/425/246 277/424/245
f 285/430/246 412/366/207 278/426/246
f 279/431/249 280/432/250 273/433/241 272/434/247
f 280/432/250 281/435/251 274/436/242 273/433/241
f 281/435/251 282/437/252 275/438/243 274/436/242
f 282/437/252 283/439/253 276/440/244 275/438/243
f 283/441/253 284/442/248 277/423/245 276/422/244
f 288/443/254 289/444/255 282/437/252 281/435/251
f 289/444/255 290/445/256 283/439/253 282/437/252
f 290/446/256 291/447/257 284/442/248 283/441/253
f 291/448/257 292/449/246 285/429/246 284/428/248
f 292/450/246 412/366/207 285/430/246
f 286/451/258 287/452/259 280/432/250 279/431/249
f 287/452/259 288/443/254 281/435/251 280/432/250
f 299/453/260 412/366/207 292/450/246
f 293/454/261 294/455/262 287/452/259 286/451/258
f 294/455/262 295/456/263 288/443/254 287/452/259
f 295/456/263 296/457/264 289/444/255 288/443/254
f 296/457/264 297/458/265 290/445/256 289/444/255
f 297/459/265 298/460/266 291/447/257 290/446/256
f 298/461/266 299/462/260 292/449/246 291/448/257
f 303/463/267 304/464/268 297/458/265 296/457/264
f 304/465/268 305/466/269 298/460/266 297/459/265
f 305/467/269 306/468/260 299/462/260 298/461/266
f 306/469/260 412/366/207 299/453/260
f 300/470/270 301/471/271 294/455/262 293/454/261
f 301/471/271 302/472/272 295/456/263 294/455/262
f 302/472/272 303/463/267 296/457/264 295/456/263
f 307/473/273 308/474/274 301/471/271 300/470/270
f 308/474/274 309/475/275 302/472/272 301/471/271
f 309/475/275 310/476/276 303/463/267 302/472/272
f 310/476/276 311/477/277 304/464/268 303/463/267
f 311/478/277 312/479/278 305/466/269 304/465/268
f 312/480/278 313/481/279 306/468/260 305/467/269
f 313/482/279 412/366/207 306/469/260
f 317/483/280 318/484/281 311/477/277 310/476/276
f 318/485/281 319/486/282 312/479/278 311/478/277
f 319/487/282 320/488/283 313/481/279 312/480/278
f 320/489/283 412/366/207 313/482/279
f 314/490/284 315/491/285 308/474/274 307/473/273
f 315/491/285 316/492/286 309/475/275 308/474/274
f 316/492/286 317/483/280 310/476/276 309/475/275
f 321/493/287 322/494/288 315/491/285 314/490/284
f 322/494/288 323/495/289 316/492/286 315/491/285
f 323/495/289 324/496/290 317/483/280 316/492/286
f 324/496/290 325/497/291 318/484/281 317/483/280
f 325/498/291 326/499/292 319/486/282 318/485/281
f 326/500/292 327/501/283 320/488/283 319/487/282
f 327/502/283 412/366/207 320/489/283
f 332/503/293 333/504/294 326/499/292 325/498/291
f 333/505/294 334/506/295 327/501/283 326/500/292
f 334/507/295 412/366/207 327/502/283
f 328/508/296 329/509/297 322/494/288 321/493/287
f 329/509/297 330/510/298 323/495/289 322/494/288
f 330/510/298 331/511/299 324/496/290 323/495/289
f 331/512/299 332/513/293 325/514/291 324/515/290
f 335/516/300 336/517/301 329/518/297 328/519/296
f 336/517/301 337/520/302 330/521/298 329/518/297
f 337/520/302 338/522/303 331/523/299 330/521/298
f 338/524/303 339/525/304 332/513/293 331/512/299
f 339/526/304 340/527/305 333/504/294 332/503/293
f 340/528/305 341/529/295 334/506/295 333/505/294
f 341/530/295 412/366/207 334/507/295
f 346/531/306 347/532/307 340/527/305 339/526/304
f 347/533/307 348/534/295 341/529/295 340/528/305
f 348/535/295 412/366/207 341/530/295
f 342/536/308 343/537/309 336/517/301 335/516/300
f 343/537/309 344/538/310 337/520/302 336/517/301
f 344/538/310 345/539/311 338/522/303 337/520/302
f 345/539/311 346/540/306 339/541/304 338/522/303
f 350/542/312 351/543/313 344/538/310 343/537/309
f 351/543/313 352/544/314 345/539/311 344/538/310
f 352/544/314 353/545/315 346/540/306 345/539/311
f 353/546/315 354/547/316 347/532/307 346/531/306
f 354/548/316 355/549/317 348/534/295 347/533/307
f 355/550/317 412/366/207 348/535/295
f 349/551/318 350/542/312 343/537/309 342/536/308
f 361/552/319 362/553/317 355/549/317 354/548/316
f 362/554/317 412/366/207 355/550/317
f 356/555/320 357/556/321 350/542/312 349/551/318
f 357/556/321 358/557/322 351/543/313 350/542/312
f 358/557/322 359/558/323 352/544/314 351/543/313
f 359/558/323 360/559/324 353/545/315 352/544/314
f 360/560/324 361/561/319 354/547/316 353/546/315
f 365/562/325 366/563/326 359/558/323 358/557/322
f 366/563/326 367/564/327 360/559/324 359/558/323
f 367/565/327 368/566/328 361/561/319 360/560/324
f 368/567/328 369/568/329 362/553/317 361/552/319
f 369/569/329 412/366/207 362/554/317
f 363/570/330 364/571/331 357/556/321 356/555/320
f 364/571/331 365/562/325 358/557/322 357/556/321
f 376/572/332 412/366/207 369/569/329
f 370/573/333 371/574/334 364/571/331 363/570/330
f 371/574/334 372/575/335 365/562/325 364/571/331
f 372/575/335 373/576/336 366/563/326 365/562/325
f 373/576/336 374/577/337 367/564/327 366/563/326
f 374/578/337 375/579/338 368/566/328 367/565/327
f 375/580/338 376/581/332 369/568/329 368/567/328
f 379/582/339 380/583/340 373/576/336 372/575/335
f 380/583/340 381/584/341 374/577/337 373/576/336
f 381/585/341 382/586/342 375/579/338 374/578/337
f 382/587/342 383/588/332 376/581/332 375/580/338
f 383/589/332 412/366/207 376/572/332
f 377/590/343 378/591/344 371/574/334 370/573/333
f 378/591/344 379/582/339 372/575/335 371/574/334
f 390/592/345 412/366/207 383/589/332
f 384/593/346 385/594/347 378/591/344 377/590/343
f 385/594/347 386/595/348 379/582/339 378/591/344
f 386/595/348 387/596/349 380/583/340 379/582/339
f 387/596/349 388/597/350 381/584/341 380/583/340
f 388/598/350 389/599/351 382/586/342 381/585/341
f 389/600/351 390/601/345 383/588/332 382/587/342
f 394/602/352 395/603/353 388/604/350 387/605/349
f 395/606/353 396/607/354 389/599/351 388/598/350
f 396/608/354 397/609/345 390/601/345 389/600/351
f 397/610/345 412/366/207 390/592/345
f 391/611/355 392/612/356 385/594/347 384/593/346
f 392/612/356 393/613/357 386/595/348 385/594/347
f 393/613/357 394/614/352 387/596/349 386/595/348
f 398/615/358 399/616/359 392/617/356 391/618/355
f 399/616/359 400/619/360 393/620/357 392/617/356
f 400/619/360 401/621/361 394/602/352 393/620/357
f 401/621/361 402/622/362 395/603/353 394/602/352
f 402/623/362 403/624/363 396/607/354 395/606/353
f 403/625/363 404/626/345 397/609/345 396/608/354
f 404/627/345 412/366/207 397/610/345
f 408/628/364 409/629/365 402/622/362 401/621/361
f 409/630/365 410/631/366 403/624/363 402/623/362
f 410/632/366 411/633/367 404/626/345 403/625/363
f 411/634/367 412/366/207 404/627/345
f 405/635/368 406/636/369 399/616/359 398/615/358
f 406/636/369 407/637/370 400/619/360 399/616/359
f 407/637/370 408/628/364 401/621/361 400/619/360
f 413/638/371 414/639/372 406/636/369 405/635/368
f 414/639/372 415/640/373 407/637/370 406/636/369
f 415/640/373 416/641/374 408/628/364 407/637/370
f 416/641/374 417/642/375 409/629/365 408/628/364
f 417/643/375 418/644/376 410/631/366 409/630/365
f 418/645/376 419/646/367 411/633/367 410/632/366
f 419/647/367 412/366/207 411/634/367
f 424/648/377 425/649/378 418/644/376 417/643/375
f 425/650/378 426/651/379 419/646/367 418/645/376
f 426/652/379 412/366/207 419/647/367
f 420/653/380 421/654/381 414/639/372 413/638/371
f 421/654/381 422/655/382 415/640/373 414/639/372
f 422/655/382 423/656/383 416/641/374 415/640/373
f 423/656/383 424/657/377 417/642/375 416/641/374
f 428/658/384 429/659/385 422/655/382 421/654/381
f 429/659/385 430/660/386 423/656/383 422/655/382
f 430/660/386 431/661/387 424/657/377 423/656/383
f 431/662/387 432/663/388 425/649/378 424/648/377
f 432/664/388 433/665/389 426/651/379 425/650/378
f 433/666/389 412/366/207 426/652/379
f 427/667/390 428/658/384 421/654/381 420/653/380
f 439/668/391 440/669/389 433/665/389 432/664/388
f 440/670/389 412/366/207 433/666/389
f 434/671/392 435/672/393 428/658/384 427/667/390
f 435/672/393 436/673/394 429/659/385 428/658/384
f 436/673/394 437/674/395 430/660/386 429/659/385
f 437/674/395 438/675/396 431/661/387 430/660/386
f 438/676/396 439/677/391 432/663/388 431/662/387
f 442/678/397 443/679/398 436/673/394 435/672/393
f 443/679/398 444/680/399 437/674/395 436/673/394
f 444/680/399 445/681/400 438/675/396 437/674/395
f 445/682/400 446/683/401 439/677/391 438/676/396
f 446/684/401 447/685/206 440/669/389 439/668/391
f 447/686/206 412/366/207 440/670/389
f 441/687/402 442/678/397 435/672/393 434/671/392
f 448/350/197 226/349/196 442/688/397 441/689/402
f 226/349/196 449/352/199 443/690/398 442/688/397
f 449/352/199 227/354/201 444/691/399 443/690/398
f 227/354/201 450/356/203 445/692/400 444/691/399
f 450/360/203 228/359/205 446/683/401 445/682/400
f 228/364/205 229/363/206 447/685/206 446/684/401
f 229/367/206 412/366/207 447/686/206
