mtllib gummi_pyramid.mtl
o Cube
v 1.000000 1.000000 -1.000000
v 1.000000 -1.000000 -1.000000
v 1.000000 1.000000 -1.000000
v 1.000000 -1.000000 1.000000
v -1.000000 -1.000000 -1.000000
v -1.000000 -1.000000 -1.000000
vn -0.5774 0.5774 0.5774
vn -0.0000 -1.0000 -0.0000
vn 1.0000 -0.0000 -0.0000
vn -0.0000 -0.0000 -1.0000
vt -0.000000 0.585786
vt 0.507306 0.292893
vt -0.000000 0.000000
vt 0.507306 -0.000000
vt 0.507306 0.585786
vt 0.800199 0.292893
vt 0.414214 0.585786
vt 0.414214 1.000000
vt 0.828427 1.000000
vt 0.000000 0.585787
vt 0.414214 0.585787
s 1
usemtl Material.003
f 3/1/1 6/2/1 4/3/1
f 4/4/2 6/5/2 2/6/2
f 4/7/3 2/8/3 3/9/3
f 6/10/4 3/8/4 2/11/4
l 1 2
l 5 6
l 1 3
