# Blender 4.5.3 LTS
# www.blender.org
mtllib gummi_blizzard.mtl
o Cube.003
v -0.800000 -0.650000 -0.900000
v -1.000000 -1.000000 -1.000000
v 0.700000 -0.650000 -0.900000
v 1.000000 -1.000000 -1.000000
v -0.800000 -0.650000 0.900000
v -1.000000 -1.000000 1.000000
v 0.700000 -0.650000 0.900000
v 1.000000 -1.000000 1.000000
v 0.700000 0.779426 -0.900000
v 0.700000 0.779426 0.900000
v -0.800000 0.779426 -0.900000
v -0.800000 0.779426 0.900000
v 0.700001 0.544300 0.900000
v 0.700001 -0.336269 0.900000
v 0.700000 0.544300 -0.900000
v 0.700000 -0.336269 -0.900000
v 1.300001 0.544300 0.899999
v 1.300001 -0.336269 0.899999
v 1.299999 0.544300 -0.900000
v 1.299999 -0.336269 -0.900000
vn -0.0000 -0.0000 -1.0000
vn 0.7593 0.6508 -0.0000
vn -0.0000 0.2747 0.9615
vn -0.0000 -1.0000 -0.0000
vn -0.0000 0.2747 -0.9615
vn -0.8682 0.4961 -0.0000
vn -0.0000 1.0000 -0.0000
vn -1.0000 -0.0000 -0.0000
vn -0.0000 -0.0000 1.0000
vn 1.0000 -0.0000 -0.0000
vt 0.083991 0.922829
vt 0.059632 0.923082
vt 0.082877 0.872605
vt 0.034975 0.970082
vt 0.039273 0.880881
vt 0.116634 0.880881
vt 0.120932 0.970082
vt 0.060468 0.926108
vt 0.064777 0.899831
vt 0.083826 0.900029
vt 0.085866 0.926372
vt 0.005447 0.857644
vt 0.005447 0.752921
vt 0.146974 0.752921
vt 0.146974 0.857644
vt 0.057023 0.956771
vt 0.089502 0.956433
vt 0.043560 0.950124
vt 0.044966 0.920939
vt 0.070273 0.920939
vt 0.071679 0.950124
vt 0.148297 0.869512
vt 0.148297 0.995754
vt 0.006122 0.995754
vt 0.006122 0.869512
vt 0.044966 0.802046
vt 0.070273 0.802046
vt 0.085866 0.792575
vt 0.066482 0.810052
vt 0.066817 0.792377
vt 0.065225 0.876247
vt 0.081382 0.785417
vt 0.082355 0.827800
vt 0.057023 0.785670
vt 0.126808 0.885369
vt 0.126808 0.962908
vt 0.026516 0.885369
vt 0.026516 0.962908
vt 0.116634 0.801077
vt 0.039273 0.801077
vt 0.881991 0.790105
vt 0.878329 0.982983
vt 0.856127 0.982752
vt 0.859789 0.789874
vt 0.016047 0.040100
vt 0.986712 0.040100
vt 0.986713 0.707797
vt 0.016048 0.707797
vt 0.923716 0.869512
vt 0.923716 0.995754
vt 0.866846 0.995755
vt 0.866846 0.869512
vt 0.793485 0.989356
vt 0.793485 0.863114
vt 0.850355 0.863114
vt 0.850355 0.989356
vt 0.915006 0.922445
vt 0.913343 0.779517
vt 0.944421 0.780099
vt 0.946084 0.923028
s 0
usemtl Material
f 3/1/1 1/2/1 16/3/1
f 4/4/2 3/5/2 7/6/2 8/7/2
f 8/8/3 7/9/3 5/10/3 6/11/3
f 6/12/4 2/13/4 4/14/4 8/15/4
f 2/16/5 1/2/5 3/1/5 4/17/5
f 6/18/6 5/19/6 1/20/6 2/21/6
f 11/22/7 12/23/7 10/24/7 9/25/7
f 1/20/8 5/19/8 12/26/8 11/27/8
f 12/28/9 13/29/9 10/30/9
f 5/10/9 7/9/9 14/31/9
f 5/10/9 14/31/9 13/29/9 12/28/9
f 9/32/1 15/33/1 11/34/1
f 1/2/1 11/34/1 15/33/1 16/3/1
f 10/35/10 13/36/10 9/37/10
f 15/38/10 9/37/10 13/36/10
f 7/6/10 3/5/10 14/39/10
f 16/40/10 14/39/10 3/5/10
f 13/41/9 14/42/9 18/43/9 17/44/9
f 18/45/10 20/46/10 19/47/10 17/48/10
f 14/49/4 16/50/4 20/51/4 18/52/4
f 15/53/7 13/54/7 17/55/7 19/56/7
f 16/57/1 15/58/1 19/59/1 20/60/1
