mtllib gummi_watera.mtl
o watera
v 0.000000 -1.000000 -1.500000
v 0.000000 -1.000000 -0.500000
v -2.000000 -1.000000 -1.500000
v -1.000000 -1.000000 -1.000000
v -1.000000 -1.000000 -2.077414
v -1.000000 -1.000000 0.092862
v -1.000000 -0.476708 -2.077414
v -2.000000 -1.000000 -0.500000
v -2.000000 -0.476708 -1.500000
v -2.000000 -0.476708 -0.500000
v 0.000000 -0.476708 -0.500000
v 0.000000 -0.476708 -1.500000
v -1.000000 -0.476708 0.092862
v -1.000000 -0.476708 -2.500000
v -2.407864 -0.476708 -0.296068
v 0.407864 -0.476708 -0.296068
v 0.407864 -0.476708 -1.703932
v -1.000000 0.691503 -2.500000
v -2.407864 -0.476708 -1.703932
v -1.000000 -0.476708 0.500000
v -2.407864 0.691503 -1.703932
v -2.407864 0.691503 -0.296068
v -1.000000 0.691503 0.500000
v -1.000000 0.691503 -1.000000
v 0.407864 0.656142 -0.960121
v 0.810250 0.656142 -0.333068
v 0.810250 0.131497 -0.646594
v 0.810250 0.656142 -0.960121
v 0.810250 0.608144 -0.419118
v 0.810250 0.227492 -0.646594
v 0.810250 0.608144 -0.874071
v 0.407864 0.656142 -1.036879
v 0.407864 0.656142 -1.663932
v 0.407864 0.131497 -1.350406
v 0.810250 0.656142 -1.036879
v 0.810250 0.131497 -1.350406
v 0.810250 0.656142 -1.663932
v 0.810250 0.608144 -1.122929
v 0.810250 0.227492 -1.350406
v 0.810250 0.608144 -1.577882
v 0.407864 0.114284 -0.686474
v 0.407864 0.114284 -1.313526
v 0.407864 -0.410361 -1.000000
v 0.810250 0.114284 -0.686474
v 0.810250 -0.410361 -1.000000
v 0.810250 0.114284 -1.313526
v 0.810250 0.066287 -0.772523
v 0.810250 -0.314366 -1.000000
v 0.810250 0.066287 -1.227477
v 0.407864 0.691503 -1.703932
v 0.407864 0.691503 -0.296068
v 0.407864 0.656142 -0.333068
v 0.407864 0.131497 -0.646594
vn -0.0000 -1.0000 -0.0000
vn -0.5000 -0.0000 -0.8660
vn -0.5100 -0.0000 0.8602
vn 1.0000 -0.0000 -0.0000
vn -1.0000 -0.0000 -0.0000
vn 0.5100 -0.0000 0.8602
vn 0.5000 -0.0000 -0.8660
vn -0.4922 -0.0000 -0.8705
vn -0.4922 -0.0000 0.8705
vn 0.4922 -0.0000 0.8705
vn 0.4922 -0.0000 -0.8705
vn -0.0000 1.0000 -0.0000
vn -0.0000 -0.5130 -0.8584
vn -0.0000 -0.5130 0.8584
vt 0.718881 0.120905
vt 0.786842 0.080614
vt 0.787816 0.165284
vt 0.724739 0.202681
vt 0.649947 0.161774
vt 0.649947 0.076526
vt 0.713024 0.039130
vt 0.590023 0.134758
vt 0.682572 0.134758
vt 0.682572 0.218003
vt 0.590023 0.218003
vt 0.407124 0.051513
vt 0.592050 0.051513
vt 0.592050 0.134758
vt 0.407124 0.134758
vt 0.327407 0.134758
vt 0.406331 0.134758
vt 0.406331 0.218003
vt 0.327407 0.218003
vt 0.327407 0.051513
vt 0.327407 0.134758
vt 0.682453 0.051513
vt 0.682453 0.134758
vt 0.182947 0.203454
vt 0.256356 0.161066
vt 0.286297 0.176037
vt 0.182947 0.234475
vt 0.256356 0.087657
vt 0.182947 0.044135
vt 0.182947 0.014247
vt 0.286297 0.072686
vt 0.109537 0.087657
vt 0.109537 0.161066
vt 0.079596 0.176037
vt 0.079596 0.072686
vt 0.546928 0.036250
vt 0.678554 0.036250
vt 0.678554 0.222089
vt 0.546927 0.222089
vt 0.362712 0.038012
vt 0.619985 0.038012
vt 0.619985 0.223851
vt 0.362712 0.223851
vt 0.450443 0.130762
vt 0.379082 0.022737
vt 0.507751 0.034864
vt 0.250481 0.038012
vt 0.250481 0.223851
vt 0.750337 0.038012
vt 0.750337 0.223851
vt 0.289644 0.036250
vt 0.289644 0.222089
vt 0.866575 0.127025
vt 0.870341 0.200842
vt 0.805262 0.161694
vt 0.927887 0.168302
vt 0.927887 0.092356
vt 0.862809 0.053209
vt 0.805262 0.085748
vt 0.834120 0.708392
vt 0.566243 0.708392
vt 0.603004 0.686172
vt 0.797360 0.686172
vt 0.850336 0.703812
vt 0.850336 0.503858
vt 0.869489 0.503858
vt 0.869489 0.703812
vt 0.964850 0.653320
vt 0.964850 0.718990
vt 0.922710 0.718990
vt 0.922710 0.653320
vt 0.888642 0.503858
vt 0.888642 0.703812
vt 0.846666 0.790223
vt 0.943844 0.966445
vt 0.749488 0.966445
vt 0.700182 0.465509
vt 0.700182 0.509950
vt 0.514492 0.229806
vt 0.629108 0.229806
vt 0.636420 0.236269
vt 0.443153 0.133908
vt 0.571800 0.133908
vt 0.500462 0.229806
vt 0.636420 0.022737
vt 0.385845 0.229806
vt 0.379082 0.236269
vt 0.565059 0.130762
vt 0.602997 0.129262
vt 0.610007 0.132533
vt 0.476234 0.132533
vt 0.483814 0.129262
s 0
usemtl Material
f 4/1/1 5/2/1 1/3/1
f 1/3/1 2/4/1 4/1/1
f 2/4/1 6/5/1 4/1/1
f 6/5/1 8/6/1 4/1/1
f 3/7/1 4/1/1 8/6/1
f 3/7/1 5/2/1 4/1/1
f 5/8/2 3/9/2 9/10/2 7/11/2
f 8/12/3 6/13/3 13/14/3 10/15/3
f 2/16/4 1/17/4 12/18/4 11/19/4
f 3/20/5 8/12/5 10/15/5 9/21/5
f 6/13/6 2/22/6 11/23/6 13/14/6
f 1/17/7 5/8/7 7/11/7 12/18/7
f 7/24/1 9/25/1 19/26/1 14/27/1
f 10/28/1 13/29/1 20/30/1 15/31/1
f 11/32/1 12/33/1 17/34/1 16/35/1
f 9/25/1 10/28/1 15/31/1 19/26/1
f 13/29/1 11/32/1 16/35/1 20/30/1
f 12/33/1 7/24/1 14/27/1 17/34/1
f 14/36/8 19/37/8 21/38/8 18/39/8
f 15/40/9 20/41/9 23/42/9 22/43/9
f 41/44/4 16/45/4 43/46/4
f 19/47/5 15/40/5 22/43/5 21/48/5
f 20/41/10 16/49/10 51/50/10 23/42/10
f 17/51/11 14/36/11 18/39/11 50/52/11
f 24/53/12 50/54/12 18/55/12
f 50/54/12 24/53/12 51/56/12
f 51/56/12 24/53/12 23/57/12
f 23/57/12 24/53/12 22/58/12
f 21/59/12 22/58/12 24/53/12
f 21/59/12 24/53/12 18/55/12
f 28/60/4 26/61/4 29/62/4 31/63/4
f 53/64/13 25/65/13 28/66/13 27/67/13
f 25/68/12 52/69/12 26/70/12 28/71/12
f 52/72/14 53/73/14 27/67/14 26/66/14
f 30/74/4 31/75/4 29/76/4
f 27/77/4 30/78/4 29/62/4 26/61/4
f 27/77/4 28/60/4 31/63/4 30/78/4
f 37/60/4 35/61/4 38/62/4 40/63/4
f 34/64/13 33/65/13 37/66/13 36/67/13
f 33/68/12 32/69/12 35/70/12 37/71/12
f 32/72/14 34/73/14 36/67/14 35/66/14
f 39/74/4 40/75/4 38/76/4
f 36/77/4 39/78/4 38/62/4 35/61/4
f 36/77/4 37/60/4 40/63/4 39/78/4
f 46/60/4 44/61/4 47/62/4 49/63/4
f 43/64/13 42/65/13 46/66/13 45/67/13
f 42/68/12 41/69/12 44/70/12 46/71/12
f 41/72/14 43/73/14 45/67/14 44/66/14
f 48/74/4 49/75/4 47/76/4
f 45/77/4 48/78/4 47/62/4 44/61/4
f 45/77/4 46/60/4 49/63/4 48/78/4
f 32/79/4 33/80/4 50/81/4
f 53/82/4 34/83/4 32/79/4 25/84/4
f 43/46/4 16/45/4 17/85/4
f 52/86/4 25/84/4 51/87/4
f 50/81/4 51/87/4 25/84/4 32/79/4
f 43/46/4 17/85/4 42/88/4
f 42/89/4 34/90/4 53/91/4 41/92/4
f 53/82/4 16/45/4 41/44/4
f 51/87/4 16/45/4 53/82/4 52/86/4
f 34/83/4 42/88/4 17/85/4
f 50/81/4 33/80/4 34/83/4 17/85/4
