mtllib gummi_mini_helm.mtl
o Dome
v 0.000000 0.626570 -0.566681
v 0.000000 0.350670 -0.848099
v 0.038821 0.775885 -0.195169
v 0.076151 0.718980 -0.382837
v 0.110554 0.626570 -0.555793
v 0.140709 0.502207 -0.707390
v 0.165456 0.350670 -0.831803
v 0.183845 0.177783 -0.924249
v 0.076151 0.775885 -0.183845
v 0.149376 0.718980 -0.360624
v 0.216860 0.626570 -0.523546
v 0.276010 0.502207 -0.666347
v 0.324554 0.350670 -0.783542
v 0.360624 0.177783 -0.870624
v 0.110554 0.775885 -0.165456
v 0.216860 0.718980 -0.324554
v 0.314831 0.626570 -0.471179
v 0.400704 0.502207 -0.599697
v 0.471179 0.350670 -0.705169
v 0.523546 0.177783 -0.783542
v 0.140709 0.775885 -0.140709
v 0.276010 0.718980 -0.276010
v 0.400704 0.626570 -0.400704
v 0.510000 0.502207 -0.510000
v 0.599697 0.350670 -0.599697
v 0.666347 0.177783 -0.666347
v 0.165456 0.775885 -0.110554
v 0.324554 0.718980 -0.216860
v 0.471179 0.626570 -0.314831
v 0.599697 0.502207 -0.400704
v 0.705169 0.350670 -0.471179
v 0.783542 0.177783 -0.523546
v 0.000000 0.795100 -0.000000
v 0.183845 0.775885 -0.076151
v 0.360624 0.718980 -0.149376
v 0.523546 0.626570 -0.216859
v 0.666347 0.502207 -0.276010
v 0.783542 0.350670 -0.324554
v 0.870624 0.177783 -0.360624
v 0.195169 0.775885 -0.038821
v 0.382837 0.718980 -0.076151
v 0.555793 0.626570 -0.110554
v 0.707390 0.502207 -0.140709
v 0.831803 0.350670 -0.165456
v 0.924249 0.177783 -0.183845
v 0.198992 0.775885 -0.000000
v 0.390337 0.718980 -0.000000
v 0.566681 0.626570 -0.000000
v 0.721249 0.502207 -0.000000
v 0.848098 0.350670 -0.000000
v 0.942357 0.177783 -0.000000
v 0.195169 0.775885 0.038821
v 0.382837 0.718980 0.076151
v 0.555793 0.626570 0.110554
v 0.707390 0.502207 0.140709
v 0.831803 0.350670 0.165456
v 0.924249 0.177783 0.183845
v 0.183845 0.775885 0.076151
v 0.360624 0.718980 0.149376
v 0.523546 0.626570 0.216860
v 0.666347 0.502207 0.276010
v 0.783542 0.350670 0.324554
v 0.870624 0.177783 0.360624
v 0.165456 0.775885 0.110554
v 0.324554 0.718980 0.216860
v 0.471179 0.626570 0.314831
v 0.599697 0.502207 0.400704
v 0.705168 0.350670 0.471179
v 0.783542 0.177783 0.523546
v 0.140709 0.775885 0.140709
v 0.276010 0.718980 0.276010
v 0.400704 0.626570 0.400704
v 0.510000 0.502207 0.510000
v 0.599697 0.350670 0.599697
v 0.666347 0.177783 0.666347
v 0.110554 0.775885 0.165456
v 0.216859 0.718980 0.324554
v 0.314831 0.626570 0.471179
v 0.400704 0.502207 0.599697
v 0.471179 0.350670 0.705169
v 0.523546 0.177783 0.783542
v 0.076151 0.775885 0.183845
v 0.149376 0.718980 0.360624
v 0.216859 0.626570 0.523546
v 0.276010 0.502207 0.666347
v 0.324553 0.350670 0.783542
v 0.360624 0.177783 0.870624
v 0.038821 0.775885 0.195169
v 0.076151 0.718980 0.382837
v 0.110554 0.626570 0.555793
v 0.140709 0.502207 0.707390
v 0.165456 0.350670 0.831803
v 0.183845 0.177783 0.924249
v 0.000000 0.775885 0.198992
v 0.000000 0.718980 0.390337
v 0.000000 0.626570 0.566681
v 0.000000 0.502207 0.721249
v 0.000000 0.350670 0.848098
v 0.000000 0.177783 0.942357
v -0.038821 0.775885 0.195169
v -0.076151 0.718980 0.382837
v -0.110554 0.626570 0.555793
v -0.140709 0.502207 0.707390
v -0.165456 0.350670 0.831803
v -0.183845 0.177783 0.924249
v -0.076151 0.775885 0.183845
v -0.149376 0.718980 0.360624
v -0.216860 0.626570 0.523546
v -0.276010 0.502207 0.666347
v -0.324554 0.350670 0.783540
v -0.360624 0.177783 0.870624
v -0.110554 0.775885 0.165456
v -0.216860 0.718980 0.324554
v -0.314831 0.626570 0.471178
v -0.400704 0.502207 0.599697
v -0.471179 0.350670 0.705168
v -0.523546 0.177783 0.783542
v -0.140709 0.775885 0.140709
v -0.276010 0.718980 0.276010
v -0.400704 0.626570 0.400704
v -0.510000 0.502207 0.510000
v -0.599697 0.350670 0.599696
v -0.666347 0.177783 0.666347
v -0.165456 0.775885 0.110554
v -0.324554 0.718980 0.216859
v -0.471179 0.626570 0.314831
v -0.599697 0.502207 0.400704
v -0.705168 0.350670 0.471178
v -0.783540 0.177783 0.523546
v -0.183845 0.775885 0.076151
v -0.360624 0.718980 0.149376
v -0.523546 0.626570 0.216859
v -0.666347 0.502207 0.276010
v -0.783540 0.350670 0.324553
v -0.870624 0.177783 0.360624
v -0.195169 0.775885 0.038821
v -0.382837 0.718980 0.076151
v -0.555793 0.626570 0.110554
v -0.707390 0.502207 0.140709
v -0.831803 0.350670 0.165455
v -0.924249 0.177783 0.183845
v -0.198992 0.775885 -0.000000
v -0.390337 0.718980 -0.000000
v -0.566681 0.626570 -0.000000
v -0.721249 0.502207 -0.000000
v -0.848098 0.350670 -0.000000
v -0.941778 0.181492 -0.000000
v -0.195169 0.775885 -0.038821
v -0.382837 0.718980 -0.076151
v -0.555793 0.626570 -0.110554
v -0.707390 0.502207 -0.140709
v -0.831803 0.350670 -0.165456
v -0.924249 0.177783 -0.183845
v -0.183845 0.775885 -0.076151
v -0.360624 0.718980 -0.149376
v -0.523545 0.626570 -0.216859
v -0.666347 0.502207 -0.276010
v -0.783540 0.350670 -0.324554
v -0.870624 0.177783 -0.360624
v -0.165456 0.775885 -0.110554
v -0.324553 0.718980 -0.216859
v -0.471178 0.626570 -0.314831
v -0.599697 0.502207 -0.400704
v -0.705168 0.350670 -0.471179
v -0.783540 0.177783 -0.523546
v -0.140709 0.775885 -0.140709
v -0.276010 0.718980 -0.276010
v -0.400704 0.626570 -0.400704
v -0.510000 0.502207 -0.510000
v -0.599696 0.350670 -0.599697
v -0.666347 0.177783 -0.666347
v -0.110554 0.775885 -0.165456
v -0.216859 0.718980 -0.324554
v -0.314831 0.626570 -0.471178
v -0.400704 0.502207 -0.599697
v -0.471178 0.350670 -0.705168
v -0.523546 0.177783 -0.783540
v -0.076151 0.775885 -0.183845
v -0.149375 0.718980 -0.360624
v -0.216859 0.626570 -0.523545
v -0.276010 0.502207 -0.666347
v -0.324553 0.350670 -0.783540
v -0.360624 0.177783 -0.870624
v -0.038821 0.775885 -0.195169
v -0.076151 0.718980 -0.382837
v -0.110554 0.626570 -0.555793
v -0.140709 0.502207 -0.707390
v -0.165455 0.350670 -0.831803
v -0.183845 0.177783 -0.924249
v 0.000000 0.775885 -0.198992
v 0.000000 0.718980 -0.390337
v 0.000000 0.502207 -0.721249
v 0.000000 0.177783 -0.942357
v 0.000001 -0.009810 -0.799433
v 0.155962 -0.009810 -0.784073
v 0.305930 -0.009810 -0.738579
v 0.444141 -0.009810 -0.664704
v 0.565284 -0.009810 -0.565284
v 0.664704 -0.009810 -0.444141
v 0.738579 -0.009810 -0.305930
v 0.784073 -0.009810 -0.155962
v 0.799433 -0.009810 0.000000
v -0.738579 -0.009810 -0.305930
v 0.784073 -0.009810 0.155962
v -0.799433 -0.009810 0.000000
v 0.738579 -0.009810 0.305930
v -0.738579 -0.009810 0.305930
v 0.664704 -0.009810 0.444141
v -0.565284 -0.009810 0.565284
v 0.565284 -0.009810 0.565284
v 0.444141 -0.009810 0.664704
v 0.305930 -0.009810 0.738579
v 0.000000 -0.009810 0.799433
v -0.565283 -0.009810 -0.565284
v -0.784072 -0.009810 -0.155962
v -0.784072 -0.009810 0.155961
v -0.664704 -0.009810 0.444141
v -0.444141 -0.009810 0.664704
v -0.305930 -0.009810 0.738579
v -0.155962 -0.009810 0.784072
v 0.155962 -0.009810 0.784072
v -0.305930 -0.009810 -0.738579
v -0.155961 -0.009810 -0.784072
v -0.444141 -0.009810 -0.664704
v -0.664705 -0.009810 -0.444141
vn -0.0000 0.9804 -0.1973
vn -0.0000 1.0000 -0.0000
vn 0.0385 0.9804 -0.1935
vn -0.0000 0.9244 -0.3815
vn 0.0744 0.9244 -0.3742
vn -0.0000 0.8336 -0.5523
vn 0.1078 0.8336 -0.5417
vn -0.0000 0.7109 -0.7033
vn 0.1372 0.7109 -0.6898
vn -0.0000 0.5602 -0.8284
vn 0.1616 0.5602 -0.8125
vn -0.0000 0.4787 -0.8780
vn 0.1713 0.4787 -0.8611
vn 0.0755 0.9804 -0.1822
vn 0.1460 0.9244 -0.3525
vn 0.2114 0.8336 -0.5103
vn 0.2691 0.7109 -0.6498
vn 0.3170 0.5602 -0.7653
vn 0.3360 0.4787 -0.8112
vn 0.2120 0.9244 -0.3172
vn 0.3069 0.8336 -0.4593
vn 0.3907 0.7109 -0.5848
vn 0.4602 0.5602 -0.6888
vn 0.4878 0.4787 -0.7300
vn 0.1096 0.9804 -0.1640
vn 0.1395 0.9804 -0.1395
vn 0.2698 0.9244 -0.2698
vn 0.3906 0.8336 -0.3906
vn 0.4973 0.7109 -0.4973
vn 0.5857 0.5602 -0.5857
vn 0.6208 0.4787 -0.6208
vn 0.4593 0.8336 -0.3069
vn 0.5848 0.7109 -0.3907
vn 0.6888 0.5602 -0.4602
vn 0.7300 0.4787 -0.4878
vn 0.1640 0.9804 -0.1096
vn 0.3172 0.9244 -0.2120
vn 0.1822 0.9804 -0.0755
vn 0.3525 0.9244 -0.1460
vn 0.5103 0.8336 -0.2114
vn 0.6498 0.7109 -0.2691
vn 0.7653 0.5602 -0.3170
vn 0.8112 0.4787 -0.3360
vn 0.6898 0.7109 -0.1372
vn 0.8125 0.5602 -0.1616
vn 0.8611 0.4787 -0.1713
vn 0.1935 0.9804 -0.0385
vn 0.3742 0.9244 -0.0744
vn 0.5417 0.8336 -0.1078
vn 0.1973 0.9804 -0.0000
vn 0.3815 0.9244 -0.0000
vn 0.5523 0.8336 -0.0000
vn 0.7033 0.7109 -0.0000
vn 0.8284 0.5602 -0.0000
vn 0.8780 0.4787 -0.0000
vn -0.0000 -1.0000 -0.0000
vn 0.6898 0.7109 0.1372
vn 0.8125 0.5602 0.1616
vn 0.8611 0.4787 0.1713
vn 0.1935 0.9804 0.0385
vn 0.3742 0.9244 0.0744
vn 0.5417 0.8336 0.1078
vn 0.1822 0.9804 0.0755
vn 0.3525 0.9244 0.1460
vn 0.5103 0.8336 0.2114
vn 0.6498 0.7109 0.2691
vn 0.7653 0.5602 0.3170
vn 0.8112 0.4787 0.3360
vn 0.6888 0.5602 0.4602
vn 0.7300 0.4787 0.4878
vn 0.1640 0.9804 0.1096
vn 0.3172 0.9244 0.2120
vn 0.4593 0.8336 0.3069
vn 0.5848 0.7109 0.3907
vn 0.1395 0.9804 0.1395
vn 0.2698 0.9244 0.2698
vn 0.3906 0.8336 0.3906
vn 0.4973 0.7109 0.4973
vn 0.5857 0.5602 0.5857
vn 0.6208 0.4787 0.6208
vn 0.4602 0.5602 0.6888
vn 0.4878 0.4787 0.7300
vn 0.1096 0.9804 0.1640
vn 0.2120 0.9244 0.3172
vn 0.3069 0.8336 0.4593
vn 0.3907 0.7109 0.5848
vn 0.1460 0.9244 0.3525
vn 0.2114 0.8336 0.5103
vn 0.2691 0.7109 0.6498
vn 0.3170 0.5602 0.7653
vn 0.3360 0.4787 0.8112
vn 0.0755 0.9804 0.1822
vn 0.0385 0.9804 0.1935
vn 0.0744 0.9244 0.3742
vn 0.1078 0.8336 0.5417
vn 0.1372 0.7109 0.6898
vn 0.1616 0.5602 0.8125
vn 0.1713 0.4787 0.8611
vn -0.0000 0.8336 0.5523
vn -0.0000 0.7109 0.7033
vn -0.0000 0.5602 0.8284
vn -0.0000 0.4787 0.8780
vn -0.0000 0.9804 0.1973
vn -0.0000 0.9244 0.3815
vn -0.0385 0.9804 0.1935
vn -0.0744 0.9244 0.3742
vn -0.1078 0.8336 0.5417
vn -0.1372 0.7109 0.6898
vn -0.1616 0.5602 0.8125
vn -0.1713 0.4787 0.8611
vn -0.2114 0.8336 0.5103
vn -0.2691 0.7109 0.6498
vn -0.3170 0.5602 0.7653
vn -0.3360 0.4787 0.8112
vn -0.0755 0.9804 0.1822
vn -0.1460 0.9244 0.3525
vn -0.1096 0.9804 0.1640
vn -0.2120 0.9244 0.3172
vn -0.3069 0.8336 0.4593
vn -0.3907 0.7109 0.5848
vn -0.4602 0.5602 0.6888
vn -0.4878 0.4787 0.7300
vn -0.4973 0.7109 0.4973
vn -0.5857 0.5602 0.5857
vn -0.6208 0.4787 0.6208
vn -0.1395 0.9804 0.1395
vn -0.2698 0.9244 0.2698
vn -0.3906 0.8336 0.3906
vn -0.1640 0.9804 0.1096
vn -0.3172 0.9244 0.2120
vn -0.4593 0.8336 0.3069
vn -0.5848 0.7109 0.3907
vn -0.6888 0.5602 0.4602
vn -0.7300 0.4787 0.4878
vn -0.6498 0.7109 0.2691
vn -0.7653 0.5602 0.3170
vn -0.8112 0.4787 0.3360
vn -0.1822 0.9804 0.0755
vn -0.3525 0.9244 0.1460
vn -0.5103 0.8336 0.2114
vn -0.1935 0.9804 0.0385
vn -0.3742 0.9244 0.0744
vn -0.5417 0.8336 0.1078
vn -0.6898 0.7109 0.1372
vn -0.8118 0.5608 0.1625
vn -0.8599 0.4800 0.1735
vn -0.8274 0.5616 -0.0000
vn -0.8763 0.4817 -0.0000
vn -0.1973 0.9804 -0.0000
vn -0.3815 0.9244 -0.0000
vn -0.5523 0.8336 -0.0000
vn -0.7033 0.7109 -0.0000
vn -0.3742 0.9244 -0.0744
vn -0.5417 0.8336 -0.1078
vn -0.6898 0.7109 -0.1372
vn -0.8118 0.5608 -0.1625
vn -0.8599 0.4800 -0.1735
vn -0.1935 0.9804 -0.0385
vn -0.1822 0.9804 -0.0755
vn -0.3525 0.9244 -0.1460
vn -0.5103 0.8336 -0.2114
vn -0.6498 0.7109 -0.2691
vn -0.7653 0.5602 -0.3170
vn -0.8112 0.4787 -0.3360
vn -0.3172 0.9244 -0.2120
vn -0.4593 0.8336 -0.3069
vn -0.5848 0.7109 -0.3907
vn -0.6888 0.5602 -0.4602
vn -0.7300 0.4787 -0.4878
vn -0.1640 0.9804 -0.1096
vn -0.1395 0.9804 -0.1395
vn -0.2698 0.9244 -0.2698
vn -0.3906 0.8336 -0.3906
vn -0.4973 0.7109 -0.4973
vn -0.5857 0.5602 -0.5857
vn -0.6208 0.4787 -0.6208
vn -0.3069 0.8336 -0.4593
vn -0.3907 0.7109 -0.5848
vn -0.4602 0.5602 -0.6888
vn -0.4878 0.4787 -0.7300
vn -0.1096 0.9804 -0.1640
vn -0.2120 0.9244 -0.3172
vn -0.0755 0.9804 -0.1822
vn -0.1460 0.9244 -0.3525
vn -0.2114 0.8336 -0.5103
vn -0.2691 0.7109 -0.6498
vn -0.3170 0.5602 -0.7653
vn -0.3360 0.4787 -0.8112
vn -0.1078 0.8336 -0.5417
vn -0.1372 0.7109 -0.6898
vn -0.1616 0.5602 -0.8125
vn -0.1713 0.4787 -0.8611
vn -0.0385 0.9804 -0.1935
vn -0.0744 0.9244 -0.3742
vt 0.690350 0.712860
vt 0.715851 0.760368
vt 0.681572 0.718791
vt 0.666206 0.667251
vt 0.648988 0.678885
vt 0.644350 0.625294
vt 0.619353 0.642184
vt 0.055869 0.620349
vt 0.009023 0.644849
vt 0.000000 0.623070
vt 0.044385 0.592630
vt 0.106405 0.600802
vt 0.092901 0.568208
vt 0.158689 0.586959
vt 0.143685 0.550742
vt 0.674119 0.726321
vt 0.634369 0.693656
vt 0.598130 0.663628
vt 0.271071 0.853438
vt 0.226686 0.824719
vt 0.235709 0.800018
vt 0.282555 0.821999
vt 0.319587 0.877565
vt 0.333091 0.840597
vt 0.370371 0.896175
vt 0.385375 0.855098
vt 0.622910 0.710997
vt 0.581493 0.688803
vt 0.242413 0.772418
vt 0.291088 0.786871
vt 0.343125 0.799291
vt 0.396524 0.809201
vt 0.668278 0.735161
vt 0.664271 0.744972
vt 0.615052 0.730240
vt 0.570085 0.716740
vt 0.246542 0.742980
vt 0.296343 0.749403
vt 0.349304 0.755233
vt 0.403390 0.760247
vt 0.247936 0.712834
vt 0.298117 0.711035
vt 0.351390 0.710117
vt 0.405708 0.710117
vt 0.662255 0.755375
vt 0.611095 0.750647
vt 0.564341 0.746366
vt 0.662305 0.765971
vt 0.611194 0.771433
vt 0.564484 0.776542
vt 0.246542 0.683141
vt 0.296343 0.673242
vt 0.349304 0.665678
vt 0.403390 0.660738
vt 0.291088 0.637476
vt 0.343125 0.623621
vt 0.396524 0.614008
vt 0.664420 0.776354
vt 0.615344 0.791799
vt 0.570508 0.806109
vt 0.242413 0.655039
vt 0.668519 0.786124
vt 0.623384 0.810963
vt 0.582181 0.833931
vt 0.235709 0.629611
vt 0.282555 0.605112
vt 0.333091 0.585565
vt 0.385375 0.571721
vt 0.829852 0.575025
vt 0.865250 0.598675
vt 0.748764 0.550424
vt 0.146437 0.596095
vt 0.193774 0.622733
vt 0.181022 0.649892
vt 0.131442 0.628031
vt 0.096515 0.576302
vt 0.079853 0.611787
vt 0.790521 0.558733
vt 0.674444 0.794905
vt 0.635006 0.828188
vt 0.599055 0.858938
vt 0.226686 0.607832
vt 0.271071 0.577393
vt 0.681969 0.802361
vt 0.649765 0.842813
vt 0.620480 0.880170
vt 0.226686 0.676529
vt 0.218814 0.701621
vt 0.171002 0.681827
vt 0.119661 0.665583
vt 0.066763 0.653513
vt 0.664443 0.558723
vt 0.706192 0.550424
vt 0.111546 0.707309
vt 0.057745 0.699877
vt 0.589715 0.598672
vt 0.625111 0.575015
vt 0.690802 0.808204
vt 0.667093 0.854275
vt 0.645635 0.896810
vt 0.213391 0.729501
vt 0.164101 0.717312
vt 0.700604 0.812210
vt 0.686321 0.862133
vt 0.673553 0.908219
vt 0.210627 0.759099
vt 0.160583 0.754983
vt 0.107409 0.751605
vt 0.053149 0.749096
vt 0.559607 0.628776
vt 0.511362 0.745263
vt 0.895353 0.628778
vt 0.943610 0.787829
vt 0.107409 0.796769
vt 0.053149 0.799279
vt 0.535963 0.664176
vt 0.711001 0.814226
vt 0.706716 0.866087
vt 0.703160 0.913959
vt 0.210627 0.789276
vt 0.160583 0.793392
vt 0.727489 0.865983
vt 0.733317 0.913808
vt 0.213391 0.818874
vt 0.164101 0.831062
vt 0.111546 0.841065
vt 0.057745 0.848498
vt 0.519671 0.703507
vt 0.721591 0.814173
vt 0.519667 0.829590
vt 0.511362 0.787836
vt 0.731968 0.812054
vt 0.747844 0.861826
vt 0.762869 0.907773
vt 0.218814 0.846754
vt 0.171002 0.866547
vt 0.119661 0.882791
vt 0.066763 0.894861
vt 0.226686 0.871846
vt 0.181022 0.898483
vt 0.131442 0.920344
vt 0.079853 0.936587
vt 0.559604 0.904315
vt 0.535952 0.868918
vt 0.741732 0.807950
vt 0.706199 0.982671
vt 0.766998 0.853776
vt 0.790676 0.896086
vt 0.625111 0.958062
vt 0.589713 0.934411
vt 0.750511 0.802019
vt 0.784216 0.842142
vt 0.815672 0.879196
vt 0.811858 0.933255
vt 0.843672 0.911758
vt 0.193774 0.925642
vt 0.146437 0.952279
vt 0.096515 0.972072
vt 0.836896 0.857752
vt 0.870685 0.884464
vt 0.378848 0.572886
vt 0.426184 0.599523
vt 0.413432 0.626682
vt 0.363853 0.604821
vt 0.328925 0.553092
vt 0.312264 0.588577
vt 0.664445 0.974365
vt 0.757963 0.794489
vt 0.798835 0.827371
vt 0.790528 0.974355
vt 0.748773 0.982661
vt 0.763804 0.785649
vt 0.810293 0.810031
vt 0.853531 0.832578
vt 0.459096 0.653319
vt 0.451224 0.678411
vt 0.403413 0.658617
vt 0.352071 0.642374
vt 0.299173 0.630303
vt 0.396511 0.694102
vt 0.343956 0.684100
vt 0.290156 0.676667
vt 0.865252 0.934420
vt 0.829855 0.958071
vt 0.767811 0.775838
vt 0.818152 0.790787
vt 0.864941 0.804641
vt 0.445802 0.706291
vt 0.769827 0.765435
vt 0.943607 0.745262
vt 0.822109 0.770381
vt 0.870685 0.775015
vt 0.443037 0.735889
vt 0.392993 0.731773
vt 0.339819 0.728396
vt 0.285559 0.725886
vt 0.895354 0.904316
vt 0.392993 0.770182
vt 0.339819 0.773559
vt 0.285559 0.776069
vt 0.919012 0.868918
vt 0.769777 0.754839
vt 0.935293 0.703509
vt 0.822010 0.749595
vt 0.870542 0.744838
vt 0.443037 0.766066
vt 0.919002 0.664177
vt 0.767663 0.744456
vt 0.817860 0.729228
vt 0.864518 0.715271
vt 0.445802 0.795664
vt 0.396511 0.807852
vt 0.343956 0.817855
vt 0.290156 0.825288
vt 0.935304 0.829584
vt 0.352071 0.859581
vt 0.299173 0.871652
vt 0.763564 0.734686
vt 0.809820 0.710065
vt 0.852844 0.687449
vt 0.451224 0.823544
vt 0.403413 0.843337
vt 0.798198 0.692839
vt 0.835971 0.662442
vt 0.459096 0.848636
vt 0.413432 0.875273
vt 0.363853 0.897134
vt 0.312264 0.913378
vt 0.757639 0.725905
vt 0.750115 0.718449
vt 0.783439 0.678215
vt 0.814544 0.641211
vt 0.044385 0.868675
vt -0.000000 0.839957
vt 0.009023 0.815256
vt 0.055869 0.837236
vt 0.092901 0.892803
vt 0.106405 0.855835
vt 0.143685 0.911412
vt 0.158689 0.870336
vt 0.766111 0.666753
vt 0.789389 0.624571
vt 0.015727 0.787656
vt 0.064402 0.802108
vt 0.116439 0.814528
vt 0.169839 0.824439
vt 0.741282 0.712606
vt 0.731477 0.708600
vt 0.746882 0.658894
vt 0.761473 0.613162
vt 0.019856 0.758217
vt 0.069657 0.764640
vt 0.122618 0.770471
vt 0.176704 0.775484
vt 0.021250 0.728072
vt 0.071431 0.726273
vt 0.124704 0.725355
vt 0.179022 0.725355
vt 0.721081 0.706584
vt 0.726488 0.654941
vt 0.731866 0.607422
vt 0.710491 0.706637
vt 0.705715 0.655044
vt 0.701708 0.607572
vt 0.019856 0.698378
vt 0.069657 0.688480
vt 0.122618 0.680915
vt 0.176704 0.675976
vt 0.015727 0.670277
vt 0.064402 0.652714
vt 0.116439 0.638859
vt 0.169839 0.629245
vt 0.700114 0.708756
vt 0.685360 0.659201
vt 0.672158 0.613607
s 1
usemtl Material
f 190/1/1 33/2/2 3/3/3
f 191/4/4 190/1/1 3/3/3 4/5/5
f 1/6/6 191/4/4 4/5/5 5/7/7
f 192/8/8 1/9/6 5/10/7 6/11/9
f 2/12/10 192/8/8 6/11/9 7/13/11
f 193/14/12 2/12/10 7/13/11 8/15/13
f 3/3/3 33/2/2 9/16/14
f 4/5/5 3/3/3 9/16/14 10/17/15
f 5/7/7 4/5/5 10/17/15 11/18/16
f 6/19/9 5/20/7 11/21/16 12/22/17
f 7/23/11 6/19/9 12/22/17 13/24/18
f 8/25/13 7/23/11 13/24/18 14/26/19
f 11/18/16 10/17/15 16/27/20 17/28/21
f 12/22/17 11/21/16 17/29/21 18/30/22
f 13/24/18 12/22/17 18/30/22 19/31/23
f 14/26/19 13/24/18 19/31/23 20/32/24
f 9/16/14 33/2/2 15/33/25
f 10/17/15 9/16/14 15/33/25 16/27/20
f 15/33/25 33/2/2 21/34/26
f 16/27/20 15/33/25 21/34/26 22/35/27
f 17/28/21 16/27/20 22/35/27 23/36/28
f 18/30/22 17/29/21 23/37/28 24/38/29
f 19/31/23 18/30/22 24/38/29 25/39/30
f 20/32/24 19/31/23 25/39/30 26/40/31
f 24/38/29 23/37/28 29/41/32 30/42/33
f 25/39/30 24/38/29 30/42/33 31/43/34
f 26/40/31 25/39/30 31/43/34 32/44/35
f 21/34/26 33/2/2 27/45/36
f 22/35/27 21/34/26 27/45/36 28/46/37
f 23/36/28 22/35/27 28/46/37 29/47/32
f 27/45/36 33/2/2 34/48/38
f 28/46/37 27/45/36 34/48/38 35/49/39
f 29/47/32 28/46/37 35/49/39 36/50/40
f 30/42/33 29/41/32 36/51/40 37/52/41
f 31/43/34 30/42/33 37/52/41 38/53/42
f 32/44/35 31/43/34 38/53/42 39/54/43
f 38/53/42 37/52/41 43/55/44 44/56/45
f 39/54/43 38/53/42 44/56/45 45/57/46
f 34/48/38 33/2/2 40/58/47
f 35/49/39 34/48/38 40/58/47 41/59/48
f 36/50/40 35/49/39 41/59/48 42/60/49
f 37/52/41 36/51/40 42/61/49 43/55/44
f 40/58/47 33/2/2 46/62/50
f 41/59/48 40/58/47 46/62/50 47/63/51
f 42/60/49 41/59/48 47/63/51 48/64/52
f 43/55/44 42/61/49 48/65/52 49/66/53
f 44/56/45 43/55/44 49/66/53 50/67/54
f 45/57/46 44/56/45 50/67/54 51/68/55
f 215/69/56 203/70/56 216/71/56
f 50/72/54 49/73/53 55/74/57 56/75/58
f 51/76/55 50/72/54 56/75/58 57/77/59
f 216/71/56 205/78/56 215/69/56
f 46/62/50 33/2/2 52/79/60
f 47/63/51 46/62/50 52/79/60 53/80/61
f 48/64/52 47/63/51 53/80/61 54/81/62
f 49/66/53 48/65/52 54/82/62 55/83/57
f 53/80/61 52/79/60 58/84/63 59/85/64
f 54/81/62 53/80/61 59/85/64 60/86/65
f 55/74/57 54/87/62 60/88/65 61/89/66
f 56/75/58 55/74/57 61/89/66 62/90/67
f 57/77/59 56/75/58 62/90/67 63/91/68
f 217/92/56 207/93/56 216/71/56
f 52/79/60 33/2/2 58/84/63
f 63/91/68 62/90/67 68/94/69 69/95/70
f 218/96/56 209/97/56 217/92/56
f 58/84/63 33/2/2 64/98/71
f 59/85/64 58/84/63 64/98/71 65/99/72
f 60/86/65 59/85/64 65/99/72 66/100/73
f 61/89/66 60/88/65 66/101/73 67/102/74
f 62/90/67 61/89/66 67/102/74 68/94/69
f 65/99/72 64/98/71 70/103/75 71/104/76
f 66/100/73 65/99/72 71/104/76 72/105/77
f 67/102/74 66/101/73 72/106/77 73/107/78
f 68/94/69 67/102/74 73/107/78 74/108/79
f 69/95/70 68/94/69 74/108/79 75/109/80
f 219/110/56 218/96/56 221/111/56
f 64/98/71 33/2/2 70/103/75
f 216/71/56 225/112/56 223/113/56
f 75/109/80 74/108/79 80/114/81 81/115/82
f 220/116/56 219/110/56 221/111/56
f 70/103/75 33/2/2 76/117/83
f 218/96/56 216/71/56 223/113/56
f 71/104/76 70/103/75 76/117/83 77/118/84
f 72/105/77 71/104/76 77/118/84 78/119/85
f 73/107/78 72/106/77 78/120/85 79/121/86
f 74/108/79 73/107/78 79/121/86 80/114/81
f 78/119/85 77/118/84 83/122/87 84/123/88
f 79/121/86 78/120/85 84/124/88 85/125/89
f 80/114/81 79/121/86 85/125/89 86/126/90
f 81/115/82 80/114/81 86/126/90 87/127/91
f 221/111/56 213/128/56 220/116/56
f 76/117/83 33/2/2 82/129/92
f 77/118/84 76/117/83 82/129/92 83/122/87
f 211/130/56 212/131/56 221/111/56
f 82/129/92 33/2/2 88/132/93
f 218/96/56 217/92/56 216/71/56
f 83/122/87 82/129/92 88/132/93 89/133/94
f 84/123/88 83/122/87 89/133/94 90/134/95
f 85/125/89 84/124/88 90/135/95 91/136/96
f 86/126/90 85/125/89 91/136/96 92/137/97
f 87/127/91 86/126/90 92/137/97 93/138/98
f 91/136/96 90/135/95 96/139/99 97/140/100
f 92/137/97 91/136/96 97/140/100 98/141/101
f 93/138/98 92/137/97 98/141/101 99/142/102
f 208/143/56 210/144/56 211/130/56
f 88/132/93 33/2/2 94/145/103
f 211/130/56 221/111/56 201/146/56
f 89/133/94 88/132/93 94/145/103 95/147/104
f 90/134/95 89/133/94 95/147/104 96/148/99
f 204/149/56 206/150/56 208/143/56
f 94/145/103 33/2/2 100/151/105
f 208/143/56 211/130/56 201/146/56
f 95/147/104 94/145/103 100/151/105 101/152/106
f 96/148/99 95/147/104 101/152/106 102/153/107
f 97/154/100 96/148/99 102/153/107 103/155/108
f 98/141/101 97/140/100 103/156/108 104/157/109
f 99/142/102 98/141/101 104/157/109 105/158/110
f 103/155/108 102/153/107 108/159/111 109/160/112
f 104/161/109 103/162/108 109/163/112 110/164/113
f 105/165/110 104/161/109 110/164/113 111/166/114
f 201/146/56 202/167/56 204/149/56
f 100/151/105 33/2/2 106/168/115
f 201/146/56 204/149/56 208/143/56
f 101/152/106 100/151/105 106/168/115 107/169/116
f 102/153/107 101/152/106 107/169/116 108/159/111
f 199/170/56 200/171/56 201/146/56
f 106/168/115 33/2/2 112/172/117
f 199/170/56 201/146/56 223/113/56
f 107/169/116 106/168/115 112/172/117 113/173/118
f 108/159/111 107/169/116 113/173/118 114/174/119
f 109/163/112 108/175/111 114/176/119 115/177/120
f 110/164/113 109/163/112 115/177/120 116/178/121
f 111/166/114 110/164/113 116/178/121 117/179/122
f 116/178/121 115/177/120 121/180/123 122/181/124
f 117/179/122 116/178/121 122/181/124 123/182/125
f 197/183/56 198/184/56 199/170/56
f 112/172/117 33/2/2 118/185/126
f 197/183/56 199/170/56 223/113/56
f 113/173/118 112/172/117 118/185/126 119/186/127
f 114/174/119 113/173/118 119/186/127 120/187/128
f 115/177/120 114/176/119 120/188/128 121/180/123
f 118/185/126 33/2/2 124/189/129
f 222/190/56 223/113/56 225/112/56
f 119/186/127 118/185/126 124/189/129 125/191/130
f 120/187/128 119/186/127 125/191/130 126/192/131
f 121/180/123 120/188/128 126/193/131 127/194/132
f 122/181/124 121/180/123 127/194/132 128/195/133
f 123/182/125 122/181/124 128/195/133 129/196/134
f 196/197/56 197/183/56 223/113/56
f 128/195/133 127/194/132 133/198/135 134/199/136
f 129/196/134 128/195/133 134/199/136 135/200/137
f 195/201/56 196/197/56 223/113/56
f 124/189/129 33/2/2 130/202/138
f 224/203/56 222/190/56 225/112/56
f 125/191/130 124/189/129 130/202/138 131/204/139
f 126/192/131 125/191/130 131/204/139 132/205/140
f 127/194/132 126/193/131 132/206/140 133/198/135
f 225/112/56 214/207/56 224/203/56
f 131/204/139 130/202/138 136/208/141 137/209/142
f 132/205/140 131/204/139 137/209/142 138/210/143
f 133/198/135 132/206/140 138/211/143 139/212/144
f 134/199/136 133/198/135 139/212/144 140/213/145
f 135/200/137 134/199/136 140/213/145 141/214/146
f 223/113/56 194/215/56 195/201/56
f 130/202/138 33/2/2 136/208/141
f 141/214/146 140/213/145 146/216/147 147/217/148
f 136/208/141 33/2/2 142/218/149
f 203/70/56 225/112/56 216/71/56
f 137/209/142 136/208/141 142/218/149 143/219/150
f 138/210/143 137/209/142 143/219/150 144/220/151
f 139/212/144 138/211/143 144/221/151 145/222/152
f 140/213/145 139/212/144 145/222/152 146/216/147
f 144/220/151 143/219/150 149/223/153 150/224/154
f 145/222/152 144/221/151 150/225/154 151/226/155
f 146/216/147 145/222/152 151/226/155 152/227/156
f 147/217/148 146/216/147 152/227/156 153/228/157
f 142/218/149 33/2/2 148/229/158
f 143/219/150 142/218/149 148/229/158 149/223/153
f 148/229/158 33/2/2 154/230/159
f 149/223/153 148/229/158 154/230/159 155/231/160
f 150/224/154 149/223/153 155/231/160 156/232/161
f 151/233/155 150/234/154 156/235/161 157/236/162
f 152/237/156 151/233/155 157/236/162 158/238/163
f 153/239/157 152/237/156 158/238/163 159/240/164
f 156/232/161 155/231/160 161/241/165 162/242/166
f 157/236/162 156/235/161 162/243/166 163/244/167
f 158/238/163 157/236/162 163/244/167 164/245/168
f 159/240/164 158/238/163 164/245/168 165/246/169
f 154/230/159 33/2/2 160/247/170
f 155/231/160 154/230/159 160/247/170 161/241/165
f 160/247/170 33/2/2 166/248/171
f 161/241/165 160/247/170 166/248/171 167/249/172
f 162/242/166 161/241/165 167/249/172 168/250/173
f 163/244/167 162/243/166 168/251/173 169/252/174
f 164/245/168 163/244/167 169/252/174 170/253/175
f 165/246/169 164/245/168 170/253/175 171/254/176
f 169/252/174 168/251/173 174/255/177 175/256/178
f 170/253/175 169/252/174 175/256/178 176/257/179
f 171/254/176 170/253/175 176/257/179 177/258/180
f 166/248/171 33/2/2 172/259/181
f 167/249/172 166/248/171 172/259/181 173/260/182
f 168/250/173 167/249/172 173/260/182 174/261/177
f 172/259/181 33/2/2 178/262/183
f 173/260/182 172/259/181 178/262/183 179/263/184
f 174/261/177 173/260/182 179/263/184 180/264/185
f 175/256/178 174/255/177 180/265/185 181/266/186
f 176/257/179 175/256/178 181/266/186 182/267/187
f 177/258/180 176/257/179 182/267/187 183/268/188
f 181/266/186 180/265/185 186/269/189 187/270/190
f 182/267/187 181/266/186 187/270/190 188/271/191
f 183/268/188 182/267/187 188/271/191 189/272/192
f 178/262/183 33/2/2 184/273/193
f 179/263/184 178/262/183 184/273/193 185/274/194
f 180/264/185 179/263/184 185/274/194 186/275/189
f 184/273/193 33/2/2 190/1/1
f 185/274/194 184/273/193 190/1/1 191/4/4
f 186/275/189 185/274/194 191/4/4 1/6/6
f 187/270/190 186/269/189 1/9/6 192/8/8
f 188/271/191 187/270/190 192/8/8 2/12/10
f 189/272/192 188/271/191 2/12/10 193/14/12
f 223/113/56 201/146/56 221/111/56 218/96/56
o Dome2
v 0.183845 0.177783 -0.924249
v 0.360624 0.177783 -0.870624
v 0.523546 0.177783 -0.783542
v 0.666347 0.177783 -0.666347
v 0.783542 0.177783 -0.523546
v 0.870624 0.177783 -0.360624
v 0.924249 0.177783 -0.183845
v 0.942357 0.177783 -0.000000
v 0.924249 0.177783 0.183845
v 0.870624 0.177783 0.360624
v 0.783542 0.177783 0.523546
v 0.666347 0.177783 0.666347
v 0.523546 0.177783 0.783542
v 0.360624 0.177783 0.870624
v 0.183845 0.177783 0.924249
v 0.000000 0.177783 0.942357
v -0.183845 0.177783 0.924249
v -0.360624 0.177783 0.870624
v -0.523546 0.177783 0.783542
v -0.666347 0.177783 0.666347
v -0.783540 0.177783 0.523546
v -0.870624 0.177783 0.360624
v -0.924249 0.177783 0.183845
v -0.941778 0.181492 -0.000000
v -0.924249 0.177783 -0.183845
v -0.870624 0.177783 -0.360624
v -0.783540 0.177783 -0.523546
v -0.666347 0.177783 -0.666347
v -0.523546 0.177783 -0.783540
v -0.360624 0.177783 -0.870624
v -0.183845 0.177783 -0.924249
v 0.000000 0.177783 -0.942357
v 0.000001 -0.009810 -0.799433
v 0.155962 -0.009810 -0.784073
v 0.305930 -0.009810 -0.738579
v 0.444141 -0.009810 -0.664704
v 0.565284 -0.009810 -0.565284
v 0.664704 -0.009810 -0.444141
v 0.738579 -0.009810 -0.305930
v 0.784073 -0.009810 -0.155962
v 0.799433 -0.009810 0.000000
v -0.981178 -0.009810 -0.195169
v -0.738579 -0.009810 -0.305930
v 0.784073 -0.009810 0.155962
v -0.981178 -0.009810 0.195168
v -0.799433 -0.009810 0.000000
v 0.738579 -0.009810 0.305930
v -0.831803 -0.009810 0.555793
v -0.738579 -0.009810 0.305930
v 0.664704 -0.009810 0.444141
v -0.555793 -0.009810 0.831803
v -0.565284 -0.009810 0.565284
v 0.565284 -0.009810 0.565284
v -0.382837 -0.009810 0.924249
v 0.444141 -0.009810 0.664704
v -0.195169 -0.009810 0.981178
v 0.305930 -0.009810 0.738579
v 0.195169 -0.009810 0.981178
v 0.000000 -0.009810 0.799433
v -0.382837 -0.009810 -0.924249
v -0.195168 -0.009810 -0.981178
v -0.555793 -0.009810 -0.831803
v -0.831803 -0.009810 -0.555793
v -0.565283 -0.009810 -0.565284
v 0.000000 -0.009810 -1.000401
v 0.195169 -0.009810 -0.981179
v 0.382837 -0.009810 -0.924249
v 0.555793 -0.009810 -0.831803
v 0.707390 -0.009810 -0.707390
v 0.831803 -0.009810 -0.555793
v 0.924249 -0.009810 -0.382837
v 0.981179 -0.009810 -0.195169
v 1.000401 -0.009810 0.000000
v -0.784072 -0.009810 -0.155962
v -0.924249 -0.009810 -0.382837
v 0.981179 -0.009810 0.195169
v -0.784072 -0.009810 0.155961
v -1.000401 -0.009810 0.000000
v 0.924249 -0.009810 0.382837
v -0.664704 -0.009810 0.444141
v -0.924249 -0.009810 0.382837
v 0.831803 -0.009810 0.555793
v -0.444141 -0.009810 0.664704
v -0.707390 -0.009810 0.707390
v 0.707390 -0.009810 0.707390
v -0.305930 -0.009810 0.738579
v 0.555793 -0.009810 0.831803
v -0.155962 -0.009810 0.784072
v 0.382837 -0.009810 0.924249
v 0.155962 -0.009810 0.784072
v 0.000000 -0.009810 1.000401
v -0.305930 -0.009810 -0.738579
v -0.155961 -0.009810 -0.784072
v -0.444141 -0.009810 -0.664704
v -0.664705 -0.009810 -0.444141
v -0.707389 -0.009810 -0.707390
vn -0.0000 0.2956 -0.9553
vn 0.1864 0.2956 -0.9370
vn 0.3656 0.2956 -0.8826
vn 0.5307 0.2956 -0.7943
vn 0.6755 0.2956 -0.6755
vn 0.7943 0.2956 -0.5307
vn 0.8826 0.2956 -0.3656
vn 0.9370 0.2956 -0.1864
vn 0.9553 0.2956 -0.0000
vn -0.9371 0.2949 -0.1865
vn -0.8826 0.2956 -0.3656
vn -0.9370 0.2949 -0.1871
vn 0.9370 0.2956 0.1864
vn -0.9371 0.2949 0.1865
vn -0.9557 0.2943 -0.0000
vn -0.9370 0.2949 0.1871
vn 0.8826 0.2956 0.3656
vn -0.7943 0.2956 0.5307
vn -0.8826 0.2956 0.3656
vn 0.7943 0.2956 0.5307
vn -0.5307 0.2956 0.7943
vn -0.6755 0.2956 0.6755
vn 0.6755 0.2956 0.6755
vn -0.3656 0.2956 0.8826
vn 0.5307 0.2956 0.7943
vn -0.1864 0.2956 0.9370
vn 0.3656 0.2956 0.8826
vn 0.1864 0.2956 0.9370
vn -0.0000 0.2956 0.9553
vn -0.3656 0.2956 -0.8826
vn -0.1864 0.2956 -0.9370
vn -0.5307 0.2956 -0.7943
vn -0.7943 0.2956 -0.5307
vn -0.6755 0.2956 -0.6755
vn -0.0000 -1.0000 -0.0000
vt 0.703370 0.078627
vt 0.688383 0.042454
vt 0.740453 0.032440
vt 0.756381 0.070887
vt 0.873211 0.391037
vt 0.888198 0.350009
vt 0.941209 0.360030
vt 0.925281 0.403637
vt 0.899335 0.304167
vt 0.953045 0.311306
vt 0.906195 0.255270
vt 0.960334 0.259336
vt 0.908511 0.205198
vt 0.962795 0.206119
vt 0.906197 0.155876
vt 0.960334 0.153698
vt 0.899341 0.109199
vt 0.953045 0.104089
vt 0.888198 0.066938
vt 0.941209 0.059199
vt 0.688383 0.402725
vt 0.703370 0.361698
vt 0.756381 0.371718
vt 0.740453 0.415325
vt 0.653995 0.039054
vt 0.637351 0.074496
vt 0.584755 0.064315
vt 0.602443 0.026645
vt 0.836829 0.316751
vt 0.845831 0.363036
vt 0.792419 0.370620
vt 0.782847 0.321401
vt 0.858913 0.404736
vt 0.806317 0.414916
vt 0.624276 0.116172
vt 0.570858 0.108611
vt 0.832235 0.217465
vt 0.832235 0.267562
vt 0.777967 0.269151
vt 0.777967 0.215876
vt 0.615267 0.162481
vt 0.561286 0.157830
vt 0.845831 0.121991
vt 0.836829 0.168276
vt 0.782847 0.163626
vt 0.792419 0.114407
vt 0.610675 0.211642
vt 0.556406 0.210081
vt 0.858905 0.080312
vt 0.806317 0.070110
vt 0.610674 0.261767
vt 0.556406 0.263356
vt 0.875556 0.044849
vt 0.824004 0.032440
vt 0.615263 0.310929
vt 0.561286 0.315606
vt 0.624276 0.357264
vt 0.637343 0.398919
vt 0.584755 0.409121
vt 0.570858 0.364825
vt 0.653995 0.434382
vt 0.602443 0.446792
vt 0.721367 0.167539
vt 0.714513 0.120887
vt 0.768217 0.115778
vt 0.775506 0.165387
vt 0.723683 0.216859
vt 0.777967 0.217807
vt 0.714514 0.315830
vt 0.721367 0.266958
vt 0.775506 0.271025
vt 0.768217 0.322994
vt 0.461981 0.372824
vt 0.478273 0.333490
vt 0.530510 0.349340
vt 0.510123 0.398559
vt 0.438323 0.408222
vt 0.480526 0.442855
vt 0.408221 0.438326
vt 0.442855 0.480526
vt 0.378683 0.278383
vt 0.414080 0.254732
vt 0.448714 0.296932
vt 0.404418 0.326529
vt 0.339356 0.294667
vt 0.355199 0.346916
vt 0.297601 0.302973
vt 0.302948 0.357310
vt 0.255027 0.302983
vt 0.249674 0.357310
vt 0.213273 0.294677
vt 0.197423 0.346916
vt 0.408219 0.102581
vt 0.372821 0.078931
vt 0.398559 0.030781
vt 0.442855 0.060378
vt 0.173939 0.278374
vt 0.148204 0.326529
vt 0.333490 0.062639
vt 0.291733 0.054330
vt 0.297089 0.000000
vt 0.349340 0.010393
vt 0.138541 0.254723
vt 0.103908 0.296932
vt 0.249161 0.054330
vt 0.207412 0.062629
vt 0.191564 0.010393
vt 0.243815 0.000000
vt 0.102573 0.408221
vt 0.132682 0.438317
vt 0.098049 0.480526
vt 0.060378 0.442855
vt 0.168080 0.078921
vt 0.132684 0.102578
vt 0.098049 0.060378
vt 0.142345 0.030781
vt 0.078921 0.372824
vt 0.030781 0.398559
vt 0.102576 0.132682
vt 0.060378 0.098049
vt 0.062636 0.333496
vt 0.010393 0.349340
vt 0.078932 0.168082
vt 0.030781 0.142345
vt 0.054331 0.291742
vt 0.000000 0.297089
vt 0.062640 0.207413
vt 0.054331 0.249169
vt 0.000000 0.243815
vt 0.010393 0.191564
vt 0.486579 0.291735
vt 0.486576 0.249168
vt 0.540904 0.243815
vt 0.540904 0.297089
vt 0.478262 0.207415
vt 0.530510 0.191564
vt 0.461971 0.168083
vt 0.438322 0.132684
vt 0.480525 0.098049
vt 0.510123 0.142345
s 1
usemtl Material2
f 257/276/195 226/277/196 291/278/196 290/279/195
f 226/280/196 227/281/197 292/282/197 291/283/196
f 227/281/197 228/284/198 293/285/198 292/282/197
f 228/284/198 229/286/199 294/287/199 293/285/198
f 229/286/199 230/288/200 295/289/200 294/287/199
f 230/288/200 231/290/201 296/291/201 295/289/200
f 231/290/201 232/292/202 297/293/202 296/291/201
f 232/292/202 233/294/203 298/295/203 297/293/202
f 250/296/204 251/297/205 300/298/205 267/299/206
f 233/300/203 234/301/207 301/302/207 298/303/203
f 248/304/208 249/305/209 303/306/209 270/307/210
f 249/305/209 250/308/204 267/309/206 303/306/209
f 234/301/207 235/310/211 304/311/211 301/302/207
f 246/312/212 247/313/213 306/314/213 273/315/212
f 247/313/213 248/304/208 270/307/210 306/314/213
f 235/310/211 236/316/214 307/317/214 304/311/211
f 244/318/215 245/319/216 309/320/216 276/321/215
f 245/319/216 246/312/212 273/315/212 309/320/216
f 236/316/214 237/322/217 310/323/217 307/317/214
f 243/324/218 244/318/215 276/321/215 279/325/218
f 237/322/217 238/326/219 312/327/219 310/323/217
f 242/328/220 243/324/218 279/325/218 281/329/220
f 238/326/219 239/330/221 314/331/221 312/327/219
f 240/332/222 241/333/223 316/334/223 283/335/222
f 241/333/223 242/336/220 281/337/220 316/334/223
f 239/330/221 240/332/222 283/335/222 314/331/221
f 255/338/224 256/339/225 286/340/225 285/341/224
f 254/342/226 255/338/224 285/341/224 287/343/226
f 252/344/227 253/345/228 321/346/228 288/347/227
f 253/345/228 254/342/226 287/343/226 321/346/228
f 256/339/225 257/276/195 290/279/195 286/340/225
f 251/297/205 252/344/227 288/347/227 300/298/205
f 259/348/229 258/349/229 290/350/229 291/351/229
f 260/352/229 259/348/229 291/351/229 292/353/229
f 261/354/229 260/352/229 292/353/229 293/355/229
f 262/356/229 261/357/229 293/358/229 294/359/229
f 263/360/229 262/356/229 294/359/229 295/361/229
f 264/362/229 263/360/229 295/361/229 296/363/229
f 265/364/229 264/362/229 296/363/229 297/365/229
f 266/366/229 265/364/229 297/365/229 298/367/229
f 268/368/229 299/369/229 267/370/229 300/371/229
f 269/372/229 266/366/229 298/367/229 301/373/229
f 271/374/229 302/375/229 270/376/229 303/377/229
f 299/369/229 271/374/229 303/377/229 267/370/229
f 272/378/229 269/372/229 301/373/229 304/379/229
f 274/380/229 305/381/229 273/382/229 306/383/229
f 302/375/229 274/380/229 306/383/229 270/376/229
f 275/384/229 272/385/229 304/386/229 307/387/229
f 277/388/229 308/389/229 276/390/229 309/391/229
f 305/381/229 277/388/229 309/391/229 273/382/229
f 278/392/229 275/384/229 307/387/229 310/393/229
f 308/389/229 311/394/229 279/395/229 276/390/229
f 280/396/229 278/392/229 310/393/229 312/397/229
f 311/394/229 313/398/229 281/399/229 279/395/229
f 282/400/229 280/396/229 312/397/229 314/401/229
f 284/402/229 315/403/229 283/404/229 316/405/229
f 313/398/229 284/402/229 316/405/229 281/399/229
f 315/403/229 282/400/229 314/401/229 283/404/229
f 318/406/229 317/407/229 285/408/229 286/409/229
f 317/407/229 319/410/229 287/411/229 285/408/229
f 289/412/229 320/413/229 288/414/229 321/415/229
f 319/410/229 289/412/229 321/415/229 287/411/229
f 258/349/229 318/406/229 286/409/229 290/350/229
f 320/413/229 268/368/229 300/371/229 288/414/229
