mtllib gummi_blizzara.mtl
o blizzara
v 0.000000 -1.000000 -1.500000
v 0.000000 -1.000000 -0.500000
v -2.000000 -1.000000 -1.500000
v -1.000000 -1.000000 -1.000000
v -1.000000 -1.000000 -2.077414
v -1.000000 -1.000000 0.092862
v -1.000000 -0.476708 -2.077414
v -2.000000 -1.000000 -0.500000
v -2.000000 -0.476708 -1.500000
v -2.000000 -0.476708 -0.500000
v 0.000000 -0.476708 -0.500000
v 0.000000 -0.476708 -1.500000
v -1.000000 -0.476708 0.092862
v -1.000000 -0.476708 -2.500000
v -2.407864 -0.476708 -0.296068
v 0.407864 -0.476708 -0.296068
v 0.407864 -0.476708 -1.703932
v -1.000000 0.691503 -2.500000
v -2.407864 -0.476708 -1.703932
v -1.000000 -0.476708 0.500000
v -2.407864 0.691503 -1.703932
v -2.407864 0.691503 -0.296068
v -1.000000 0.691503 0.500000
v 0.407864 0.691503 -0.296068
v 0.407864 0.691503 -1.703932
v -1.000000 0.691503 -1.000000
v 0.407864 0.691503 -1.405487
v 0.407864 0.691503 -0.594513
v 0.407864 -0.051890 -0.594513
v 0.407864 -0.051890 -1.405487
v 0.407864 0.266685 -0.594513
v 0.407864 0.266685 0.216460
v 0.407864 -0.476708 0.216460
v 0.407864 -0.476708 -0.594513
v 0.407864 0.266685 -2.216460
v 0.407864 0.266685 -1.405487
v 0.407864 -0.476708 -1.405487
v 0.407864 -0.476708 -2.216460
v 0.407864 0.266685 0.216460
v 0.407864 -0.476708 0.216460
v 0.407864 -0.051890 -1.405487
v 0.407864 -0.051890 -0.594513
v -0.498554 -0.476708 0.216460
v 0.407864 0.266685 -0.296068
v -0.498554 0.266685 0.216460
v -0.498554 0.266685 -2.216460
v -0.498554 -0.476708 -2.216460
v 0.407864 0.266685 -1.703932
v 0.407864 -0.476708 -1.405487
v 0.407864 0.266685 -2.216460
v 0.407864 -0.476708 -2.216460
v 0.407864 0.266685 -1.703932
v 0.407864 0.266685 -1.405487
v 0.407864 -0.476708 -1.405487
v 0.407864 -0.476708 -1.703932
v 0.407864 0.691503 -1.405487
v 0.407864 0.691503 -0.594513
v 0.407864 -0.476708 -0.594513
v 0.407864 -0.476708 -0.296068
v 0.407864 0.266685 -0.594513
v 0.407864 0.266685 -0.296068
v 0.407864 -0.476708 -1.405487
v 0.407864 -0.476708 -1.703932
v 0.407864 0.266685 -1.405487
v 0.407864 -0.051890 -1.405487
v 0.407864 0.266685 -2.216460
v 0.407864 -0.476708 -2.216460
v 0.407864 0.691503 -1.405487
v 0.407864 0.691503 -0.594513
v 0.407864 -0.476708 0.216460
v 0.407864 0.266685 0.216460
v 0.407864 0.266685 -0.296068
v 0.407864 0.266685 -0.594513
v 0.407864 -0.051890 -0.594513
v 0.407864 0.266685 -1.703932
v 0.407864 -0.476708 -0.594513
v 0.407864 -0.476708 -0.296068
v 0.407864 -0.476708 -1.405487
v 0.407864 -0.476708 -1.703932
v 0.407864 0.266685 -1.405487
v 0.407864 -0.051890 -1.405487
v 0.407864 0.266685 -2.216460
v 0.407864 -0.476708 -2.216460
v 0.407864 0.691503 -1.405487
v 0.407864 0.691503 -0.594513
v 0.407864 -0.476708 0.216460
v 0.407864 0.266685 0.216460
v 0.407864 0.266685 -0.296068
v 0.407864 0.266685 -0.594513
v 0.407864 -0.051890 -0.594513
v 0.407864 0.266685 -1.703932
v 0.407864 -0.476708 -0.594513
v 0.407864 -0.476708 -0.296068
v 0.959186 -0.406708 -1.475487
v 0.959186 -0.406708 -1.703932
v 0.959186 0.266685 -1.335487
v 0.959186 0.018110 -1.335487
v 0.959186 0.196685 -2.146460
v 0.959186 -0.406708 -2.146460
v 0.959186 0.621503 -1.335487
v 0.959186 0.621503 -0.664513
v 0.959186 0.196685 -1.703932
v 0.959186 -0.051890 -1.703932
v 0.959186 -0.476708 0.216460
v 0.959186 0.266685 0.216460
v 0.959186 0.266685 -0.296068
v 0.959186 0.266685 -0.664513
v 0.959186 0.018110 -0.664513
v 0.959186 -0.476708 -0.594513
v 0.959186 -0.476708 -0.296068
v 0.959186 0.196685 -1.475487
v 0.959186 -0.051890 -1.475487
v 0.959186 0.691503 -1.405487
v 0.959186 0.691503 -0.594513
v 0.959186 -0.051890 -0.594513
v 0.959186 0.266685 -0.594513
v 0.959186 -0.476708 -1.405487
v 0.959186 -0.476708 -1.703932
v 0.959186 0.266685 -1.405487
v 0.959186 -0.051890 -1.405487
v 0.959186 0.266685 -2.216460
v 0.959186 -0.476708 -2.216460
v 0.959186 0.266685 -1.703932
v 0.959186 -0.406708 0.146460
v 0.959186 0.196685 0.146460
v 0.959186 0.196685 -0.296068
v 0.959186 0.196685 -0.524513
v 0.959186 -0.051890 -0.524513
v 0.959186 -0.406708 -0.524513
v 0.959186 -0.406708 -0.296068
vn -0.0000 -1.0000 -0.0000
vn -0.5000 -0.0000 -0.8660
vn -0.5100 -0.0000 0.8602
vn 1.0000 -0.0000 -0.0000
vn -1.0000 -0.0000 -0.0000
vn 0.5100 -0.0000 0.8602
vn 0.5000 -0.0000 -0.8660
vn -0.4922 -0.0000 -0.8705
vn -0.4922 -0.0000 0.8705
vn -0.0000 1.0000 -0.0000
vn 0.4922 -0.0000 -0.8705
vn -0.0000 -0.0000 1.0000
vn -0.0000 -0.0000 -1.0000
vn 0.4922 -0.0000 0.8705
vt 0.197412 0.220863
vt 0.064686 0.299551
vt 0.062783 0.134191
vt 0.185972 0.061156
vt 0.332040 0.141046
vt 0.332040 0.307535
vt 0.208851 0.380569
vt 0.743790 0.250166
vt 0.743790 0.388260
vt 0.668849 0.388260
vt 0.668849 0.250166
vt 0.818731 0.102334
vt 0.818731 0.258030
vt 0.743790 0.258030
vt 0.743790 0.102334
vt 0.576489 0.249134
vt 0.576489 0.392345
vt 0.501547 0.392345
vt 0.501547 0.249134
vt 0.939058 0.280578
vt 0.939058 0.423790
vt 0.864116 0.423790
vt 0.864116 0.280578
vt 0.818731 0.384475
vt 0.743790 0.384475
vt 0.743790 0.102334
vt 0.668849 0.102334
vt 0.069069 0.291808
vt 0.194157 0.365524
vt 0.197078 0.422787
vt 0.022816 0.317961
vt 0.303609 0.303635
vt 0.306609 0.157492
vt 0.351171 0.132295
vt 0.351171 0.335656
vt 0.179234 0.029818
vt 0.139589 0.045788
vt 0.188503 0.089056
vt 0.289104 0.094958
vt 0.022816 0.245529
vt 0.509418 0.231938
vt 0.509418 0.426497
vt 0.342117 0.426497
vt 0.342117 0.231938
vt 0.734077 0.025502
vt 0.734076 0.243750
vt 0.566775 0.243750
vt 0.566775 0.025502
vt 0.860178 0.192923
vt 0.860178 0.394545
vt 0.692876 0.394545
vt 0.692876 0.192923
vt 0.560982 0.225128
vt 0.570831 0.418172
vt 0.400637 0.315794
vt 0.848787 0.280578
vt 0.906857 0.078956
vt 0.790716 0.078956
vt 0.721326 0.333075
vt 0.721326 0.134462
vt 0.551133 0.032084
vt 0.400637 0.117181
vt 0.373988 0.450256
vt 0.677319 0.286007
vt 0.634578 0.286007
vt 0.634578 0.346846
vt 0.677319 0.346846
vt 0.634578 0.407685
vt 0.677319 0.407685
vt 0.993101 0.403626
vt 0.993101 0.287485
vt 0.932262 0.287485
vt 0.932262 0.403626
vt 0.402956 0.157859
vt 0.509418 0.157859
vt 0.049606 0.720205
vt 0.156069 0.720205
vt 0.156069 0.590621
vt 0.049606 0.590621
vt 0.181964 0.657978
vt 0.255364 0.528169
vt 0.181964 0.528169
vt 0.390828 0.668018
vt 0.464228 0.668018
vt 0.390828 0.538208
vt 0.726800 0.590993
vt 0.653400 0.461183
vt 0.653400 0.590993
vt 0.729311 0.718399
vt 0.802711 0.588589
vt 0.729311 0.588589
vt 0.159443 0.502259
vt 0.052981 0.502259
vt 0.052981 0.630128
vt 0.159443 0.630128
vt 0.237837 0.687400
vt 0.237837 0.608445
vt 0.195096 0.608445
vt 0.195096 0.687400
vt 0.872988 0.703185
vt 0.951807 0.703185
vt 0.951807 0.596722
vt 0.872988 0.596722
vt 0.246743 0.694220
vt 0.246743 0.615401
vt 0.185904 0.615401
vt 0.185904 0.694220
vt 0.387499 0.802748
vt 0.387499 0.889161
vt 0.420215 0.853562
vt 0.181253 0.721348
vt 0.181253 0.642530
vt 0.120414 0.642530
vt 0.120414 0.721348
vt 0.048831 0.634944
vt 0.048831 0.712719
vt 0.109670 0.712719
vt 0.109670 0.634944
vt 0.121696 0.608445
vt 0.121696 0.687400
vt 0.359840 0.655692
vt 0.280884 0.655692
vt 0.280884 0.698432
vt 0.359840 0.698432
vt 0.653400 0.633734
vt 0.732356 0.633734
vt 0.732356 0.590993
vt 0.359840 0.582291
vt 0.280884 0.582291
vt 0.576867 0.689131
vt 0.655823 0.689131
vt 0.655823 0.572990
vt 0.576867 0.572990
vt 0.653400 0.707134
vt 0.732356 0.707134
vt 0.977522 0.586770
vt 0.898566 0.586770
vt 0.898566 0.629511
vt 0.977522 0.629511
vt 0.945338 0.607072
vt 0.867563 0.607072
vt 0.867563 0.713535
vt 0.945338 0.713535
vt 0.898566 0.702911
vt 0.977522 0.702911
vt 0.938463 0.566397
vt 0.938463 0.644172
vt 0.999302 0.644172
vt 0.999302 0.566397
vt 0.283678 0.652528
vt 0.283678 0.573573
vt 0.167537 0.573573
vt 0.167537 0.652528
vt 0.435469 0.610901
vt 0.445494 0.620925
vt 0.445494 0.514463
vt 0.435469 0.524488
vt 0.339378 0.610901
vt 0.329353 0.620925
vt 0.372094 0.620925
vt 0.372094 0.610901
vt 0.339378 0.524488
vt 0.329353 0.514463
vt 0.329353 0.575302
vt 0.339378 0.575302
vt 0.372094 0.524488
vt 0.372094 0.514463
vt 0.223237 0.585327
vt 0.213213 0.575302
vt 0.213213 0.620925
vt 0.223237 0.620925
vt 0.223237 0.671739
vt 0.213213 0.681764
vt 0.329353 0.681764
vt 0.319329 0.671739
vt 0.319329 0.585327
vt 0.319329 0.620925
vt 0.203188 0.524488
vt 0.213213 0.514463
vt 0.170472 0.514463
vt 0.170472 0.524488
vt 0.203188 0.610900
vt 0.203188 0.575302
vt 0.107097 0.524488
vt 0.097072 0.514463
vt 0.097072 0.620925
vt 0.107097 0.610900
vt 0.170472 0.610900
vt 0.170472 0.620925
vt 0.179831 0.084732
vt 0.176909 0.027469
vt 0.022816 0.114600
vt 0.070379 0.146621
vt 0.055482 0.096130
vt 0.144244 0.045940
vt 0.689423 0.351114
vt 0.747975 0.078956
vt 0.734076 0.307494
vt 0.627614 0.307494
vt 0.627614 0.422718
vt 0.566775 0.422718
vt 0.342117 0.023952
vt 0.402956 0.023952
vt 0.589122 0.889161
vt 0.589122 0.802748
vt 0.556406 0.853562
vt 0.556406 0.889161
vt 0.556406 0.802748
vt 0.440265 0.950000
vt 0.536356 0.950000
vt 0.536356 0.899186
vt 0.440265 0.899186
vt 0.652497 0.889161
vt 0.652497 0.802748
vt 0.536356 0.863587
vt 0.440265 0.863587
vt 0.420215 0.802748
vt 0.420215 0.889161
vt 0.324124 0.802748
vt 0.324124 0.889161
s 0
usemtl Material
f 4/1/1 5/2/1 1/3/1
f 1/3/1 2/4/1 4/1/1
f 2/4/1 6/5/1 4/1/1
f 6/5/1 8/6/1 4/1/1
f 3/7/1 4/1/1 8/6/1
f 3/7/1 5/2/1 4/1/1
f 5/8/2 3/9/2 9/10/2 7/11/2
f 8/12/3 6/13/3 13/14/3 10/15/3
f 2/16/4 1/17/4 12/18/4 11/19/4
f 3/20/5 8/21/5 10/22/5 9/23/5
f 6/13/6 2/24/6 11/25/6 13/14/6
f 1/26/7 5/8/7 7/11/7 12/27/7
f 7/28/1 9/29/1 19/30/1 14/31/1
f 10/32/1 13/33/1 20/34/1 15/35/1
f 92/36/1 93/37/1 11/38/1
f 9/29/1 10/32/1 15/35/1 19/30/1
f 43/39/1 20/34/1 13/33/1
f 47/40/1 7/28/1 14/31/1
f 14/41/8 19/42/8 21/43/8 18/44/8
f 15/45/9 20/46/9 23/47/9 22/48/9
f 19/49/5 15/50/5 22/51/5 21/52/5
f 26/53/10 25/54/10 18/55/10
f 26/56/10 85/57/10 84/58/10
f 24/59/10 26/53/10 23/60/10
f 23/60/10 26/53/10 22/61/10
f 21/62/10 22/61/10 26/53/10
f 21/62/10 26/53/10 18/55/10
f 54/63/10 41/63/10 65/63/10 62/63/10
f 32/63/10 44/63/10 61/63/10 39/63/10
f 25/64/4 27/65/4 36/66/4 48/67/4
f 48/63/10 35/63/10 50/63/10 52/63/10
f 31/68/4 28/66/4 24/67/4 44/69/4
f 34/70/4 49/71/4 30/72/4 29/73/4
f 16/63/10 33/63/10 40/63/10 59/63/10
f 44/63/10 31/63/10 60/63/10 61/63/10
f 18/44/11 46/74/11 47/75/11 14/41/11
f 45/76/12 43/77/12 33/78/12 32/79/12
f 43/80/1 16/81/1 33/82/1
f 32/83/10 44/84/10 45/85/10
f 17/86/1 47/87/1 38/88/1
f 30/63/10 29/63/10 42/63/10 41/63/10
f 39/63/10 61/63/10 72/63/10 71/63/10
f 46/89/10 48/90/10 35/91/10
f 40/63/10 39/63/10 71/63/10 70/63/10
f 47/92/13 46/93/13 35/94/13 38/95/13
f 33/63/10 32/63/10 39/63/10 40/63/10
f 49/63/10 17/63/10 37/63/10
f 28/63/10 27/63/10 56/63/10 57/63/10
f 38/63/10 17/63/10 55/63/10 51/63/10
f 29/63/10 34/63/10 58/63/10 42/63/10
f 35/63/10 38/63/10 51/63/10 50/63/10
f 36/63/10 48/63/10 52/63/10 53/63/10
f 27/63/10 36/63/10 53/63/10 56/63/10
f 34/63/10 16/63/10 59/63/10 58/63/10
f 49/63/10 30/63/10 41/63/10 54/63/10
f 17/63/10 49/63/10 54/63/10 55/63/10
f 31/63/10 28/63/10 57/63/10 60/63/10
f 68/63/10 64/63/10 80/63/10 84/63/10
f 62/63/10 65/63/10 81/63/10 78/63/10
f 76/63/10 77/63/10 93/63/10 92/63/10
f 51/63/10 55/63/10 63/63/10 67/63/10
f 52/63/10 50/63/10 66/63/10 75/63/10
f 42/63/10 58/63/10 76/63/10 74/63/10
f 55/63/10 54/63/10 62/63/10 63/63/10
f 60/63/10 57/63/10 69/63/10 73/63/10
f 61/63/10 60/63/10 73/63/10 72/63/10
f 58/63/10 59/63/10 77/63/10 76/63/10
f 50/63/10 51/63/10 67/63/10 66/63/10
f 41/63/10 42/63/10 74/63/10 65/63/10
f 56/63/10 53/63/10 64/63/10 68/63/10
f 57/63/10 56/63/10 68/63/10 69/63/10
f 53/63/10 52/63/10 75/63/10 64/63/10
f 59/63/10 40/63/10 70/63/10 77/63/10
f 92/96/1 109/97/1 110/98/1 93/99/1
f 86/100/12 104/101/12 105/102/12 87/103/12
f 89/104/12 116/105/12 114/106/12 85/107/12
f 77/63/10 70/63/10 86/63/10 93/63/10
f 72/63/10 73/63/10 89/63/10 88/63/10
f 63/63/10 62/63/10 78/63/10 79/63/10
f 71/63/10 72/63/10 88/63/10 87/63/10
f 65/63/10 74/63/10 90/63/10 81/63/10
f 67/63/10 63/63/10 79/63/10 83/63/10
f 64/63/10 75/63/10 91/63/10 80/63/10
f 66/63/10 67/63/10 83/63/10 82/63/10
f 75/63/10 66/63/10 82/63/10 91/63/10
f 74/63/10 76/63/10 92/63/10 90/63/10
f 69/63/10 68/63/10 84/63/10 85/63/10
f 73/63/10 69/63/10 85/63/10 89/63/10
f 70/63/10 71/63/10 87/63/10 86/63/10
f 95/108/4 102/109/4 112/110/4
f 78/111/12 117/112/12 120/113/12 81/114/12
f 84/115/13 113/116/13 119/117/13 80/118/13
f 93/99/1 110/98/1 104/119/1 86/120/1
f 88/121/10 106/122/10 116/123/10 89/124/10
f 79/125/1 118/126/1 117/127/1 78/88/1
f 87/128/10 105/129/10 106/122/10 88/121/10
f 81/130/1 120/131/1 115/132/1 90/133/1
f 83/134/1 122/135/1 118/126/1 79/125/1
f 80/136/10 119/137/10 123/138/10 91/139/10
f 82/140/13 121/141/13 122/142/13 83/143/13
f 91/139/10 123/138/10 121/144/10 82/145/10
f 90/146/13 115/147/13 109/148/13 92/149/13
f 85/150/10 114/151/10 113/152/10 84/153/10
f 125/154/4 105/155/4 104/156/4 124/157/4
f 127/158/4 116/159/4 106/160/4 126/161/4
f 129/162/4 109/163/4 115/164/4 128/165/4
f 130/166/4 110/167/4 109/163/4 129/162/4
f 128/165/4 115/164/4 116/159/4 127/158/4
f 124/157/4 104/156/4 110/167/4 130/166/4
f 126/161/4 106/160/4 105/155/4 125/154/4
f 97/168/4 120/169/4 119/170/4 96/171/4
f 100/172/4 113/173/4 114/174/4 101/175/4
f 96/171/4 119/170/4 113/173/4 100/172/4
f 108/176/4 115/164/4 120/169/4 97/168/4
f 101/175/4 114/174/4 116/159/4 107/177/4
f 107/177/4 116/159/4 115/164/4 108/176/4
f 94/178/4 117/179/4 118/180/4 95/181/4
f 111/182/4 119/170/4 120/169/4 112/183/4
f 99/184/4 122/185/4 121/186/4 98/187/4
f 112/183/4 120/169/4 117/179/4 94/178/4
f 102/188/4 123/189/4 119/170/4 111/182/4
f 95/181/4 118/180/4 122/185/4 99/184/4
f 98/187/4 121/186/4 123/189/4 102/188/4
f 13/33/1 11/190/1 93/191/1 43/39/1
f 7/28/1 47/40/1 79/192/1 12/193/1
f 78/194/1 12/193/1 79/192/1
f 11/190/1 12/193/1 78/194/1 92/195/1
f 26/53/10 24/59/10 85/196/10
f 26/56/10 84/58/10 25/197/10
f 23/47/14 20/46/14 43/198/14 45/199/14
f 23/47/14 45/199/14 88/200/14 24/201/14
f 18/44/11 25/202/11 91/203/11 46/74/11
f 126/204/4 130/205/4 128/206/4
f 126/204/4 128/206/4 127/207/4
f 128/206/4 130/205/4 129/208/4
f 100/209/4 101/210/4 107/211/4 96/212/4
f 125/213/4 124/214/4 130/205/4 126/204/4
f 108/215/4 97/216/4 96/212/4 107/211/4
f 95/108/4 112/110/4 94/217/4
f 112/110/4 102/109/4 111/218/4
f 102/109/4 95/108/4 99/219/4 98/220/4
l 16 49
