# Blender 4.5.3 LTS
# www.blender.org
mtllib gummi_gravity.mtl
o Cube.004
v -0.801189 -0.649910 -0.899415
v -1.001189 -0.999910 -0.999415
v 0.698811 -0.649910 -0.899415
v 0.998811 -0.999910 -0.999415
v -0.801189 -0.649910 0.900585
v -1.001189 -0.999910 1.000585
v 0.698811 -0.649910 0.900585
v 0.998811 -0.999910 1.000585
v 0.698811 0.779516 -0.899415
v 0.698811 0.779516 0.900585
v -0.801189 0.779516 -0.899415
v -0.801189 0.779516 0.900585
v 1.295315 0.251733 -0.455582
v 1.295315 0.251733 0.560391
v 1.295315 -0.219857 0.062309
v 1.295315 -0.344551 0.372072
v 0.698811 -0.265608 0.314889
v 0.698811 0.222917 0.469176
v 0.698811 0.021955 0.301924
v 0.698811 -0.163448 0.061105
v 0.698811 0.298115 0.222836
v 0.698811 0.419789 0.138515
v 1.295315 0.343518 -0.060000
v 1.295315 0.343518 0.259714
v 1.295315 0.628371 0.062309
v 1.295315 0.343518 -0.131167
v 0.698811 0.531490 0.061105
v 0.698811 0.298115 -0.097406
v 0.698811 0.222917 -0.363194
v 0.698811 0.021955 -0.203721
v 0.698811 -0.265608 -0.210203
v 1.295315 0.343518 0.184424
v 1.295315 0.521641 0.060983
v 1.295315 0.293499 0.219087
v 1.295315 0.219987 0.459903
v 1.295315 0.023532 0.296401
v 1.295315 -0.257583 0.309076
v 1.295315 -0.157714 0.060983
v 1.295315 -0.257583 -0.204242
v 1.295315 0.023532 -0.197905
v 1.295315 0.219987 -0.353801
v 1.295315 0.293499 -0.093974
v 1.295315 0.006443 0.356247
v 1.295315 -0.344551 -0.268846
v 1.295315 0.006443 -0.260933
vn -0.0000 -0.0000 -1.0000
vn 0.7593 0.6508 -0.0000
vn -0.0000 0.2747 0.9615
vn -0.0000 -1.0000 -0.0000
vn -0.0000 0.2747 -0.9615
vn -0.8682 0.4961 -0.0000
vn -0.0000 1.0000 -0.0000
vn -1.0000 -0.0000 -0.0000
vn -0.0000 -0.0000 1.0000
vn 1.0000 -0.0000 -0.0000
vn -0.0938 0.5671 0.8183
vn -0.0892 0.5596 -0.8239
vn -0.0883 0.9585 -0.2712
vn -0.0909 -0.6190 -0.7801
vn -0.0949 0.0224 -0.9952
vn -0.0889 -0.9322 0.3510
vn -0.0866 -0.9242 -0.3720
vn -0.0894 0.0449 0.9950
vn -0.0863 -0.6373 0.7658
vn -0.0905 0.9525 0.2908
vt 0.774180 0.204081
vt 0.019340 0.074555
vt 0.774180 0.076672
vt 0.766440 0.202721
vt 0.943913 0.046890
vt 0.943913 0.210922
vt 0.778887 0.182165
vt 0.956932 0.044264
vt 0.956748 0.207669
vt 0.709886 0.110508
vt 0.623705 0.044007
vt 0.709886 0.044007
vt 0.959125 0.220561
vt 0.959125 0.050683
vt 0.788866 0.199200
vt 0.961344 0.045212
vt 0.962702 0.205757
vt 0.688340 0.170359
vt 0.623705 0.110508
vt 0.688340 0.110508
vt 0.079766 0.060698
vt 0.787644 0.054709
vt 0.052824 0.059611
vt 0.779025 0.059611
vt 0.520174 0.123943
vt 0.426316 0.145663
vt 0.426316 0.104192
vt 0.278306 0.520706
vt 0.384225 0.576125
vt 0.224017 0.574954
vt 0.278321 0.637604
vt 0.384287 0.582304
vt 0.409627 0.636741
vt 0.436268 0.579104
vt 0.452215 0.634119
vt 0.573812 0.582140
vt 0.564902 0.636607
vt 0.726454 0.637604
vt 0.117096 0.527693
vt 0.172608 0.554973
vt 0.117096 0.597528
vt 0.172478 0.627546
vt 0.117096 0.654642
vt 0.117096 0.597528
vt 0.726352 0.520706
vt 0.573684 0.576006
vt 0.564783 0.521569
vt 0.452026 0.524107
vt 0.436055 0.579104
vt 0.409562 0.521666
vt 0.127564 0.578938
vt 0.285414 0.610994
vt 0.032532 0.576149
vt 0.626037 0.828396
vt 0.844571 0.873815
vt 0.626278 0.924903
vt 0.787830 0.596798
vt 0.897557 0.647607
vt 0.820372 0.636170
vt 0.571891 0.146194
vt 0.571891 0.103128
vt 0.766440 0.055092
vt 0.168370 0.123943
vt 0.042809 0.055092
vt 0.224917 0.117594
vt 0.019340 0.201964
vt 0.623705 0.170359
vt 0.080988 0.205189
vt 0.052686 0.182165
vt 0.286513 0.136943
vt 0.286513 0.110678
vt 0.324581 0.090474
vt 0.324581 0.158742
vt 0.224017 0.583358
vt 0.770999 0.583358
vt 0.172608 0.497758
vt 0.172478 0.697258
vt 0.770892 0.574954
vt 0.285695 0.600728
vt 0.286956 0.554606
vt 0.286659 0.565467
vt 0.240597 0.898939
vt 0.025882 0.875853
vt 0.240478 0.851218
vt 0.300738 0.844301
vt 0.389210 0.797063
vt 0.300890 0.905422
vt 0.389606 0.955930
vt 0.964803 0.825078
vt 0.965052 0.925297
vt 0.397742 0.528733
vt 0.331334 0.561684
vt 0.369871 0.513464
vt 0.330100 0.606847
vt 0.394533 0.646119
vt 0.365864 0.660030
vt 0.572030 0.557103
vt 0.587483 0.548885
vt 0.822397 0.562118
vt 0.585048 0.637920
vt 0.900085 0.555147
vt 0.570080 0.628412
vt 0.732490 0.595477
vt 0.042809 0.202721
s 0
usemtl Material
f 1/1/1 9/2/1 3/3/1
f 3/4/2 8/5/2 4/6/2
f 7/7/3 6/8/3 8/9/3
f 2/10/4 8/11/4 6/12/4
f 2/13/5 3/3/5 4/14/5
f 5/15/6 2/16/6 6/17/6
f 12/18/7 9/19/7 11/20/7
f 5/15/8 11/21/8 1/22/8
f 7/7/9 12/23/9 5/24/9
f 20/25/10 30/26/10 19/27/10
f 27/28/11 24/29/11 25/30/11
f 27/31/12 26/32/12 28/33/12
f 28/33/13 13/34/13 29/35/13
f 29/35/14 45/36/14 30/37/14
f 45/36/15 31/38/15 30/37/15
f 15/39/16 31/40/16 44/41/16
f 15/42/17 17/43/17 20/44/17
f 17/45/18 43/46/18 19/47/18
f 18/48/19 43/46/19 14/49/19
f 14/49/20 21/50/20 18/48/20
f 33/51/10 26/52/10 25/53/10
f 36/54/10 38/55/10 40/56/10
f 15/57/10 44/58/10 39/59/10
f 31/60/10 17/61/10 7/62/10
f 27/63/10 10/64/10 22/65/10
f 1/1/1 11/66/1 9/2/1
f 3/4/2 7/62/2 8/5/2
f 7/7/3 5/24/3 6/8/3
f 2/10/4 4/19/4 8/11/4
f 2/13/5 1/1/5 3/3/5
f 5/15/6 1/22/6 2/16/6
f 12/18/7 10/67/7 9/19/7
f 5/15/8 12/68/8 11/21/8
f 7/7/9 10/69/9 12/23/9
f 28/70/10 27/63/10 22/65/10
f 21/71/10 18/72/10 28/70/10
f 18/72/10 19/27/10 29/73/10
f 28/70/10 18/72/10 29/73/10
f 28/70/10 22/65/10 21/71/10
f 30/26/10 29/73/10 19/27/10
f 20/25/10 31/60/10 30/26/10
f 19/27/10 17/61/10 20/25/10
f 27/28/11 21/50/11 24/29/11
f 27/31/12 25/74/12 26/32/12
f 28/33/13 26/32/13 13/34/13
f 29/35/14 13/34/14 45/36/14
f 45/36/15 44/75/15 31/38/15
f 15/39/16 20/76/16 31/40/16
f 15/42/17 16/77/17 17/43/17
f 17/45/18 16/78/18 43/46/18
f 18/48/19 19/47/19 43/46/19
f 14/49/20 24/29/20 21/50/20
f 33/51/10 23/79/10 26/52/10
f 25/53/10 24/80/10 33/51/10
f 24/80/10 32/81/10 33/51/10
f 23/82/10 33/83/10 32/84/10
f 34/85/10 35/86/10 42/87/10
f 35/86/10 36/54/10 41/88/10
f 41/88/10 36/54/10 40/56/10
f 23/82/10 32/84/10 42/87/10
f 32/84/10 34/85/10 42/87/10
f 41/88/10 42/87/10 35/86/10
f 36/54/10 37/89/10 38/55/10
f 38/55/10 39/90/10 40/56/10
f 35/91/10 34/92/10 14/93/10
f 34/92/10 32/81/10 24/80/10
f 14/93/10 34/92/10 24/80/10
f 23/79/10 42/94/10 26/52/10
f 42/94/10 41/95/10 13/96/10
f 13/96/10 26/52/10 42/94/10
f 36/97/10 35/91/10 43/98/10
f 35/91/10 14/93/10 43/98/10
f 37/99/10 36/97/10 43/98/10
f 45/100/10 13/96/10 41/95/10
f 37/99/10 43/98/10 16/101/10
f 37/99/10 16/101/10 15/57/10
f 45/100/10 41/95/10 40/102/10
f 38/103/10 37/99/10 15/57/10
f 45/100/10 40/102/10 39/59/10
f 39/59/10 38/103/10 15/57/10
f 44/58/10 45/100/10 39/59/10
f 31/60/10 20/25/10 17/61/10
f 17/61/10 19/27/10 7/62/10
f 19/27/10 18/72/10 7/62/10
f 18/72/10 21/71/10 22/65/10
f 9/104/10 27/63/10 29/73/10
f 27/63/10 28/70/10 29/73/10
f 29/73/10 30/26/10 3/4/10
f 30/26/10 31/60/10 3/4/10
f 18/72/10 22/65/10 10/64/10
f 18/72/10 10/64/10 7/62/10
f 3/4/10 9/104/10 29/73/10
f 3/4/10 31/60/10 7/62/10
f 27/63/10 9/104/10 10/64/10
