mtllib gummi_fira.mtl
o fira
v -1.000000 -1.000000 -2.040416
v -2.000000 -1.000000 -0.500000
v 0.000000 -1.000000 -1.500000
v -1.000000 -1.000000 0.071729
v 0.000000 -1.000000 -0.500000
v -2.000000 -1.000000 -1.500000
v -1.000000 -1.000000 -1.000000
v -1.000000 -0.476708 -2.040416
v -2.000000 -0.476708 -1.500000
v -2.000000 -0.476708 -0.500000
v -1.000000 -0.476708 0.071729
v 0.000000 -0.476708 -0.500000
v 0.000000 -0.476708 -1.500000
v -1.000000 -0.476708 -2.500000
v -2.407864 -0.476708 -1.703932
v -2.407864 -0.476708 -0.296068
v -1.000000 -0.476708 0.500000
v 0.407864 -0.476708 -1.703932
v -1.000000 0.691503 -2.500000
v -2.407864 0.691503 -1.703932
v -2.407864 0.691503 -0.296068
v -1.000000 0.691503 0.500000
v 0.407864 0.691503 -1.703932
v -1.000000 0.691503 -1.000000
v 0.960158 0.560359 -0.966246
v 0.960158 0.551376 -0.875041
v 0.960158 0.524772 -0.787341
v 0.960158 0.481571 -0.706517
v 0.960158 0.423431 -0.635673
v 0.960158 0.352588 -0.577533
v 0.960158 0.271763 -0.534332
v 0.960158 0.184063 -0.507728
v 0.960158 0.092859 -0.498746
v 0.960158 0.001654 -0.507728
v 0.960158 -0.086046 -0.534332
v 0.960158 -0.166871 -0.577533
v 0.960158 -0.237714 -0.635673
v 0.960158 -0.295854 -0.706517
v 0.960158 -0.339055 -0.787341
v 0.960158 -0.365658 -0.875041
v 0.960158 -0.374641 -0.966246
v 0.960158 -0.365658 -1.057450
v 0.960158 -0.339055 -1.145150
v 0.960158 -0.295854 -1.225975
v 0.960158 -0.237714 -1.296818
v 0.960158 -0.166871 -1.354958
v 0.960158 -0.086046 -1.398159
v 0.960158 0.001654 -1.424763
v 0.960158 0.092859 -1.433746
v 0.960158 0.184063 -1.424763
v 0.960158 0.271763 -1.398159
v 0.960158 0.352588 -1.354958
v 0.960158 0.423431 -1.296818
v 0.960158 0.481571 -1.225975
v 0.960158 0.524772 -1.145150
v 0.960158 0.551376 -1.057450
v 0.407864 -0.237714 -0.635673
v 0.407864 -0.339055 -0.787341
v 0.407864 -0.295854 -0.706516
v 0.407864 -0.374641 -0.966245
v 0.407864 -0.339055 -1.145150
v 0.407864 -0.365658 -1.057450
v 0.407864 -0.365658 -0.875041
v 0.407864 -0.237714 -1.296818
v 0.407864 -0.166871 -1.354958
v 0.407864 0.352588 -1.354958
v 0.407864 0.092859 -1.433746
v 0.407864 0.001654 -1.424763
v 0.407864 0.184063 -1.424763
v 0.407864 0.271763 -1.398159
v 0.407864 -0.086046 -1.398159
v 0.407864 -0.295854 -1.225975
v 0.407864 0.524772 -0.787341
v 0.407864 0.560359 -0.966245
v 0.407864 0.551376 -0.875041
v 0.407864 0.524772 -1.145150
v 0.407864 0.423431 -1.296818
v 0.407864 0.481571 -1.225975
v 0.407864 0.551376 -1.057450
v 0.407864 0.481571 -0.706516
v 0.960158 0.477961 -0.889644
v 0.960158 0.455617 -0.815986
v 0.960158 0.419333 -0.748103
v 0.960158 0.370502 -0.688602
v 0.960158 0.311002 -0.639772
v 0.960158 0.243118 -0.603487
v 0.960158 0.169460 -0.581143
v 0.960158 0.092859 -0.573599
v 0.960158 0.016257 -0.581143
v 0.960158 -0.057401 -0.603487
v 0.960158 -0.125285 -0.639772
v 0.960158 -0.184785 -0.688602
v 0.960158 -0.233616 -0.748103
v 0.960158 -0.269900 -0.815986
v 0.960158 -0.292244 -0.889644
v 0.960158 -0.299789 -0.966246
v 0.960158 -0.292244 -1.042848
v 0.960158 -0.269900 -1.116506
v 0.960158 -0.233616 -1.184389
v 0.960158 -0.184785 -1.243889
v 0.960158 -0.125285 -1.292720
v 0.960158 -0.057401 -1.329005
v 0.960158 0.016257 -1.351349
v 0.960158 0.092859 -1.358893
v 0.960158 0.169460 -1.351349
v 0.960158 0.243118 -1.329005
v 0.960158 0.311002 -1.292720
v 0.960158 0.370502 -1.243889
v 0.960158 0.419333 -1.184389
v 0.960158 0.455617 -1.116506
v 0.960158 0.477961 -1.042848
v 0.960158 0.485500 -0.966301
v 0.960158 0.024697 -0.606555
v 0.960158 0.108844 -0.624300
v 0.960158 0.191806 -0.656041
v 0.960158 0.270395 -0.700558
v 0.960158 0.341592 -0.756141
v 0.960158 0.402660 -0.820653
v 0.960158 0.451252 -0.891615
v 0.960158 -0.042925 -0.656436
v 0.960158 0.043988 -0.686002
v 0.960158 0.132116 -0.727331
v 0.960158 0.218072 -0.778837
v 0.960158 0.298551 -0.838540
v 0.960158 0.370463 -0.904145
v 0.960158 0.431042 -0.973131
v 0.960158 -0.106760 -0.720373
v 0.960158 -0.021482 -0.762221
v 0.960158 0.067769 -0.812538
v 0.960158 0.157566 -0.869392
v 0.960158 0.244456 -0.930597
v 0.960158 0.325101 -0.993800
v 0.960158 0.396402 -1.056574
v 0.960158 -0.163653 -0.794851
v 0.960158 -0.083832 -0.848185
v 0.960158 0.002780 -0.906057
v 0.960158 0.092854 -0.966243
v 0.960158 0.182928 -1.026428
v 0.960158 0.269542 -1.084302
v 0.960158 0.349366 -1.137639
v 0.960158 -0.210688 -0.875915
v 0.960158 -0.139391 -0.938687
v 0.960158 -0.058748 -1.001889
v 0.960158 0.028142 -1.063093
v 0.960158 0.117939 -1.119947
v 0.960158 0.207193 -1.170266
v 0.960158 0.292473 -1.212116
v 0.960158 -0.245329 -0.959358
v 0.960158 -0.184752 -1.028343
v 0.960158 -0.112843 -1.093947
v 0.960158 -0.032363 -1.153649
v 0.960158 0.053593 -1.205155
v 0.960158 0.141722 -1.246486
v 0.960158 0.228639 -1.276053
v 0.960158 -0.265540 -1.040923
v 0.960158 -0.216949 -1.111876
v 0.960158 -0.155881 -1.176380
v 0.960158 -0.084684 -1.231954
v 0.960158 -0.006093 -1.276464
v 0.960158 0.076870 -1.308200
v 0.960158 0.161019 -1.325940
v 0.407864 -0.476708 -0.296068
v 0.407864 0.691503 -0.296068
v 0.407864 0.092859 -0.498746
v 0.407864 0.001654 -0.507728
v 0.407864 0.184063 -0.507728
v 0.407864 0.423431 -0.635673
v 0.407864 -0.166871 -0.577533
v 0.407864 0.352588 -0.577533
v 0.407864 -0.086046 -0.534332
v 0.407864 0.271763 -0.534332
vn -0.0000 -1.0000 -0.0000
vn -0.0000 1.0000 -0.0000
vn 1.0000 -0.0000 -0.0000
vn -0.4754 -0.0000 -0.8798
vn -0.4963 -0.0000 0.8681
vn -1.0000 -0.0000 -0.0000
vn 0.4963 -0.0000 0.8681
vn 0.4754 -0.0000 -0.8798
vn -0.4922 -0.0000 -0.8705
vn -0.4922 -0.0000 0.8705
vn 0.4922 -0.0000 0.8705
vn 0.4922 -0.0000 -0.8705
vn -0.0000 -0.9808 0.1951
vn -0.0000 -0.9239 0.3827
vn -0.0000 0.5556 -0.8315
vn -0.0000 0.3827 -0.9239
vn -0.0000 0.1951 -0.9808
vn -0.0000 0.9239 0.3827
vn -0.0000 0.9808 0.1951
vn -0.0000 -0.5556 0.8315
vn -0.0000 -0.7071 0.7071
vn -0.0000 0.8315 -0.5556
vn -0.0000 0.7071 -0.7071
vn -0.0000 -0.0000 -1.0000
vn -0.0000 0.3827 0.9239
vn -0.0000 0.5556 0.8315
vn -0.0000 -0.1951 -0.9808
vn -0.0000 -0.1951 0.9808
vn -0.0000 -0.0000 1.0000
vn -0.0000 0.7071 0.7071
vn -0.0000 0.8315 0.5556
vn -0.0000 -0.9808 -0.1951
vn -0.0000 -0.8315 0.5556
vn -0.0000 0.9808 -0.1951
vn -0.0000 0.9239 -0.3827
vn -0.0000 -0.3827 -0.9239
vn -0.0000 -0.5556 -0.8315
vn -0.0000 -0.9239 -0.3827
vn -0.0000 -0.3827 0.9239
vn -0.0000 0.1951 0.9808
vn -0.0000 -0.7071 -0.7071
vn -0.0000 -0.8315 -0.5556
vt 0.212200 0.197862
vt 0.343015 0.263270
vt 0.212200 0.361381
vt 0.081385 0.295974
vt 0.081385 0.132455
vt 0.212200 0.034343
vt 0.343015 0.099751
vt 0.612835 0.124853
vt 0.552380 0.245767
vt 0.491925 0.124853
vt 0.673290 0.245767
vt 0.733745 0.124853
vt 0.673290 0.003940
vt 0.552380 0.003940
vt 0.245958 0.609587
vt 0.238511 0.620732
vt 0.230049 0.613787
vt 0.236303 0.604427
vt 0.558450 0.941137
vt 0.547193 0.941137
vt 0.536152 0.938941
vt 0.548128 0.931639
vt 0.245958 0.545124
vt 0.251087 0.557508
vt 0.240611 0.560686
vt 0.236303 0.550285
vt 0.117612 0.570654
vt 0.120227 0.557508
vt 0.130703 0.560686
vt 0.128507 0.571727
vt 0.229034 0.630210
vt 0.222088 0.621747
vt 0.253701 0.570644
vt 0.242806 0.571719
vt 0.125356 0.545124
vt 0.135011 0.550285
vt 0.217889 0.637657
vt 0.212728 0.628002
vt 0.132803 0.533979
vt 0.141266 0.540924
vt 0.205505 0.642786
vt 0.202327 0.632310
vt 0.142281 0.524502
vt 0.149226 0.532964
vt 0.192359 0.645401
vt 0.191286 0.634506
vt 0.153426 0.517055
vt 0.158586 0.526710
vt 0.178955 0.645401
vt 0.180028 0.634506
vt 0.165809 0.511925
vt 0.168987 0.522402
vt 0.165809 0.642786
vt 0.168987 0.632310
vt 0.178955 0.509310
vt 0.180028 0.520205
vt 0.153426 0.637657
vt 0.158586 0.628002
vt 0.192359 0.509310
vt 0.191286 0.520205
vt 0.142281 0.630210
vt 0.149226 0.621747
vt 0.205505 0.511925
vt 0.202327 0.522402
vt 0.132803 0.620732
vt 0.141266 0.613787
vt 0.217889 0.517055
vt 0.212728 0.526710
vt 0.125356 0.609587
vt 0.135011 0.604427
vt 0.253702 0.584058
vt 0.242808 0.582985
vt 0.229033 0.524502
vt 0.222088 0.532964
vt 0.120227 0.597204
vt 0.130703 0.594026
vt 0.251088 0.597204
vt 0.240611 0.594026
vt 0.238511 0.533979
vt 0.230049 0.540924
vt 0.117612 0.584058
vt 0.128507 0.582985
vt 0.663375 0.217305
vt 0.663375 0.061472
vt 0.739909 0.061472
vt 0.739909 0.217305
vt 0.254333 0.061472
vt 0.258448 0.207727
vt 0.182035 0.207727
vt 0.177920 0.061472
vt 0.586840 0.061472
vt 0.586840 0.207727
vt 0.510306 0.207727
vt 0.510306 0.061472
vt 0.663375 0.061472
vt 0.663375 0.207727
vt 0.586840 0.207727
vt 0.586840 0.061472
vt 0.254333 0.353983
vt 0.177919 0.353983
vt 0.663375 0.350439
vt 0.739909 0.350439
vt 0.205908 0.352164
vt 0.352164 0.279036
vt 0.411816 0.308862
vt 0.205908 0.411816
vt 0.352164 0.132780
vt 0.205908 0.059652
vt 0.205908 0.000000
vt 0.411816 0.102954
vt 0.059652 0.132780
vt 0.059652 0.279036
vt 0.000000 0.308862
vt 0.000000 0.102954
vt 0.720569 0.279709
vt 0.501178 0.279709
vt 0.501178 0.108851
vt 0.720569 0.108851
vt 0.089362 0.109122
vt 0.295270 0.103328
vt 0.295270 0.273915
vt 0.089362 0.279709
vt 0.665003 0.334773
vt 0.678342 0.333460
vt 0.748305 0.374290
vt 0.919163 0.168382
vt 0.919163 0.374290
vt 0.748306 0.374290
vt 0.748306 0.168382
vt 0.501178 0.109122
vt 0.908004 0.279709
vt 0.908004 0.108851
vt 0.434026 0.531722
vt 0.434026 0.518895
vt 0.514802 0.518895
vt 0.514802 0.531722
vt 0.595919 0.507074
vt 0.596900 0.518895
vt 0.517103 0.518895
vt 0.516122 0.507074
vt 0.597504 0.531722
vt 0.517707 0.531722
vt 0.434026 0.518780
vt 0.434026 0.531576
vt 0.353250 0.531576
vt 0.353250 0.518780
vt 0.353250 0.680083
vt 0.434026 0.680083
vt 0.514802 0.496713
vt 0.434026 0.496713
vt 0.434026 0.582980
vt 0.434026 0.593406
vt 0.353250 0.593406
vt 0.353250 0.582980
vt 0.597708 0.545061
vt 0.517910 0.545061
vt 0.353250 0.616388
vt 0.353250 0.604230
vt 0.434026 0.604230
vt 0.434026 0.616388
vt 0.597504 0.558400
vt 0.517707 0.558400
vt 0.353250 0.656049
vt 0.353250 0.642805
vt 0.434026 0.642805
vt 0.434026 0.656049
vt 0.594600 0.496713
vt 0.514802 0.496713
vt 0.434026 0.544904
vt 0.353250 0.544904
vt 0.434026 0.496713
vt 0.434026 0.507008
vt 0.353250 0.507008
vt 0.353250 0.496713
vt 0.434026 0.558400
vt 0.434026 0.545061
vt 0.514802 0.545061
vt 0.514802 0.558400
vt 0.434026 0.507074
vt 0.514802 0.507074
vt 0.434026 0.544914
vt 0.434026 0.558253
vt 0.353250 0.558253
vt 0.353250 0.544914
vt 0.434026 0.571110
vt 0.353250 0.571110
vt 0.353250 0.593406
vt 0.434026 0.593406
vt 0.596900 0.571227
vt 0.595919 0.583048
vt 0.516122 0.583048
vt 0.517103 0.571227
vt 0.434026 0.571227
vt 0.514802 0.571227
vt 0.353250 0.668636
vt 0.434026 0.668636
vt 0.353250 0.629413
vt 0.434026 0.629413
vt 0.434026 0.593409
vt 0.434026 0.583048
vt 0.514802 0.583048
vt 0.514802 0.593409
vt 0.594600 0.593409
vt 0.514802 0.593409
vt 0.525751 0.934633
vt 0.538694 0.924915
vt 0.516390 0.928378
vt 0.529966 0.917539
vt 0.508430 0.920418
vt 0.522155 0.909155
vt 0.502176 0.911058
vt 0.515455 0.899858
vt 0.497868 0.900657
vt 0.509923 0.889859
vt 0.495671 0.889616
vt 0.505170 0.879294
vt 0.495671 0.878358
vt 0.497868 0.867317
vt 0.569492 0.938941
vt 0.558693 0.926885
vt 0.549460 0.918119
vt 0.540866 0.909477
vt 0.532858 0.900371
vt 0.525489 0.890740
vt 0.518689 0.880625
vt 0.511893 0.869859
vt 0.502176 0.856916
vt 0.579892 0.934633
vt 0.568692 0.921353
vt 0.559575 0.911319
vt 0.551069 0.901779
vt 0.542903 0.892127
vt 0.535029 0.882234
vt 0.527332 0.872031
vt 0.519269 0.861131
vt 0.508430 0.847556
vt 0.589253 0.928378
vt 0.577989 0.914652
vt 0.569206 0.903951
vt 0.560961 0.893905
vt 0.552822 0.883987
vt 0.544682 0.874068
vt 0.536438 0.864023
vt 0.527654 0.853320
vt 0.516390 0.839595
vt 0.597213 0.920418
vt 0.586374 0.906841
vt 0.578312 0.895943
vt 0.570614 0.885739
vt 0.562740 0.875847
vt 0.554574 0.866194
vt 0.546068 0.856654
vt 0.536951 0.846620
vt 0.525751 0.833341
vt 0.603468 0.911058
vt 0.593750 0.898113
vt 0.586954 0.887349
vt 0.580154 0.877234
vt 0.572785 0.867603
vt 0.564778 0.858497
vt 0.556183 0.849854
vt 0.546950 0.841088
vt 0.536151 0.829033
vt 0.607776 0.900657
vt 0.600473 0.888677
vt 0.595720 0.878115
vt 0.590188 0.868116
vt 0.583489 0.858819
vt 0.575677 0.850434
vt 0.566950 0.843058
vt 0.557515 0.836335
vt 0.547193 0.826837
vt 0.609972 0.889616
vt 0.609970 0.878350
vt 0.607776 0.867317
vt 0.603468 0.856916
vt 0.597213 0.847556
vt 0.589253 0.839595
vt 0.579893 0.833341
vt 0.569492 0.829033
vt 0.558450 0.826837
vt 0.665003 0.198024
vt 0.651664 0.199338
vt 0.577448 0.168382
vt 0.616655 0.218051
vt 0.608152 0.228412
vt 0.601833 0.240233
vt 0.721855 0.228412
vt 0.713351 0.218051
vt 0.728173 0.240233
vt 0.597942 0.253060
vt 0.596630 0.266408
vt 0.597942 0.279738
vt 0.577448 0.374290
vt 0.596629 0.266399
vt 0.732064 0.253060
vt 0.733378 0.266399
vt 0.732064 0.279738
vt 0.601833 0.292565
vt 0.608152 0.304386
vt 0.728173 0.292565
vt 0.721855 0.304386
vt 0.616655 0.314747
vt 0.627016 0.323250
vt 0.713351 0.314747
vt 0.702990 0.323250
vt 0.638837 0.329569
vt 0.651664 0.333460
vt 0.691169 0.329569
vt 0.627016 0.209548
vt 0.702990 0.209548
vt 0.691169 0.203229
vt 0.638837 0.203229
vt 0.678342 0.199338
vt 0.783372 0.085330
vt 0.767648 0.194037
vt 0.738056 0.126496
s 0
usemtl Material
f 7/1/1 1/2/1 3/3/1
f 3/3/1 5/4/1 7/1/1
f 5/4/1 4/5/1 7/1/1
f 4/5/1 2/6/1 7/1/1
f 6/7/1 7/1/1 2/6/1
f 6/7/1 1/2/1 7/1/1
f 24/8/2 23/9/2 19/10/2
f 23/9/2 24/8/2 163/11/2
f 163/11/2 24/8/2 22/12/2
f 22/12/2 24/8/2 21/13/2
f 20/14/2 21/13/2 24/8/2
f 20/14/2 24/8/2 19/10/2
f 28/15/3 29/16/3 84/17/3 83/18/3
f 88/19/3 89/20/3 90/21/3 113/22/3
f 55/23/3 56/24/3 111/25/3 110/26/3
f 42/27/3 43/28/3 98/29/3 97/30/3
f 29/16/3 30/31/3 85/32/3 84/17/3
f 56/24/3 25/33/3 112/34/3 111/25/3
f 43/28/3 44/35/3 99/36/3 98/29/3
f 30/31/3 31/37/3 86/38/3 85/32/3
f 44/35/3 45/39/3 100/40/3 99/36/3
f 31/37/3 32/41/3 87/42/3 86/38/3
f 45/39/3 46/43/3 101/44/3 100/40/3
f 32/41/3 33/45/3 88/46/3 87/42/3
f 46/43/3 47/47/3 102/48/3 101/44/3
f 33/45/3 34/49/3 89/50/3 88/46/3
f 47/47/3 48/51/3 103/52/3 102/48/3
f 34/49/3 35/53/3 90/54/3 89/50/3
f 48/51/3 49/55/3 104/56/3 103/52/3
f 35/53/3 36/57/3 91/58/3 90/54/3
f 49/55/3 50/59/3 105/60/3 104/56/3
f 36/57/3 37/61/3 92/62/3 91/58/3
f 50/59/3 51/63/3 106/64/3 105/60/3
f 37/61/3 38/65/3 93/66/3 92/62/3
f 51/63/3 52/67/3 107/68/3 106/64/3
f 38/65/3 39/69/3 94/70/3 93/66/3
f 25/33/3 26/71/3 81/72/3 112/34/3
f 52/67/3 53/73/3 108/74/3 107/68/3
f 39/69/3 40/75/3 95/76/3 94/70/3
f 26/71/3 27/77/3 82/78/3 81/72/3
f 53/73/3 54/79/3 109/80/3 108/74/3
f 40/75/3 41/81/3 96/82/3 95/76/3
f 27/77/3 28/15/3 83/18/3 82/78/3
f 54/79/3 55/23/3 110/26/3 109/80/3
f 41/81/3 42/27/3 97/30/3 96/82/3
f 1/83/4 6/84/4 9/85/4 8/86/4
f 2/87/5 4/88/5 11/89/5 10/90/5
f 5/91/3 3/92/3 13/93/3 12/94/3
f 6/95/6 2/96/6 10/97/6 9/98/6
f 4/88/7 5/99/7 12/100/7 11/89/7
f 3/101/8 1/83/8 8/86/8 13/102/8
f 8/103/1 9/104/1 15/105/1 14/106/1
f 10/107/1 11/108/1 17/109/1 16/110/1
f 12/111/1 13/112/1 18/113/1 162/114/1
f 9/104/1 10/107/1 16/110/1 15/105/1
f 11/108/1 12/111/1 162/114/1 17/109/1
f 13/112/1 8/103/1 14/106/1 18/113/1
f 14/115/9 15/116/9 20/117/9 19/118/9
f 16/119/10 17/120/10 22/121/10 21/122/10
f 67/123/3 68/124/3 18/125/3
f 15/126/6 16/127/6 21/128/6 20/129/6
f 17/120/11 162/130/11 163/116/11 22/121/11
f 18/131/12 14/115/12 19/118/12 23/132/12
s 1
f 40/133/13 39/134/14 58/135/14 63/136/13
f 52/137/15 51/138/16 70/139/16 66/140/15
f 51/138/16 50/141/17 69/142/17 70/139/16
f 27/143/18 26/144/19 75/145/19 73/146/18
f 36/147/20 168/148/20 57/149/21 37/150/21
f 54/151/22 53/152/23 77/153/23 78/154/22
f 50/141/17 49/155/24 67/156/24 69/142/17
f 31/157/25 30/158/26 169/159/26 171/160/25
f 49/155/24 48/161/27 68/162/27 67/156/24
f 34/163/28 33/164/29 164/165/29 165/166/28
f 53/167/23 52/137/15 66/140/15 77/168/23
f 26/144/19 25/169/2 74/170/2 75/145/19
f 29/171/30 28/172/31 80/173/31 167/174/30
f 42/175/32 41/176/1 60/177/1 62/178/32
f 39/134/14 38/179/33 59/180/33 58/135/14
f 25/181/2 56/182/34 79/183/34 74/184/2
f 41/176/1 40/133/13 63/136/13 60/177/1
f 55/185/35 54/151/22 78/154/22 76/186/35
f 30/158/26 29/187/30 167/188/30 169/159/26
f 47/189/36 46/190/37 65/191/37 71/192/36
f 43/193/38 42/175/32 62/178/32 61/194/38
f 56/182/34 55/185/35 76/186/35 79/183/34
f 36/147/20 35/195/39 170/196/39 168/148/20
f 33/164/29 32/197/40 166/198/40 164/165/29
f 38/179/33 37/150/21 57/149/21 59/180/33
f 35/195/39 34/163/28 165/166/28 170/196/39
f 45/199/41 44/200/42 72/201/42 64/202/41
f 46/190/37 45/203/41 64/204/41 65/191/37
f 32/197/40 31/157/25 171/160/25 166/198/40
f 44/200/42 43/193/38 61/194/38 72/201/42
f 28/172/31 27/143/18 73/146/18 80/173/31
f 48/161/27 47/189/36 71/192/36 68/162/27
s 0
f 113/22/3 90/21/3 91/205/3 120/206/3
f 120/206/3 91/205/3 92/207/3 127/208/3
f 127/208/3 92/207/3 93/209/3 134/210/3
f 134/210/3 93/209/3 94/211/3 141/212/3
f 141/212/3 94/211/3 95/213/3 148/214/3
f 148/214/3 95/213/3 96/215/3 155/216/3
f 155/216/3 96/215/3 97/217/3 98/218/3
f 87/219/3 88/19/3 113/22/3 114/220/3
f 114/220/3 113/22/3 120/206/3 121/221/3
f 121/221/3 120/206/3 127/208/3 128/222/3
f 128/222/3 127/208/3 134/210/3 135/223/3
f 135/223/3 134/210/3 141/212/3 142/224/3
f 142/224/3 141/212/3 148/214/3 149/225/3
f 149/225/3 148/214/3 155/216/3 156/226/3
f 156/226/3 155/216/3 98/218/3 99/227/3
f 86/228/3 87/219/3 114/220/3 115/229/3
f 115/229/3 114/220/3 121/221/3 122/230/3
f 122/230/3 121/221/3 128/222/3 129/231/3
f 129/231/3 128/222/3 135/223/3 136/232/3
f 136/232/3 135/223/3 142/224/3 143/233/3
f 143/233/3 142/224/3 149/225/3 150/234/3
f 150/234/3 149/225/3 156/226/3 157/235/3
f 157/235/3 156/226/3 99/227/3 100/236/3
f 85/237/3 86/228/3 115/229/3 116/238/3
f 116/238/3 115/229/3 122/230/3 123/239/3
f 123/239/3 122/230/3 129/231/3 130/240/3
f 130/240/3 129/231/3 136/232/3 137/241/3
f 137/241/3 136/232/3 143/233/3 144/242/3
f 144/242/3 143/233/3 150/234/3 151/243/3
f 151/243/3 150/234/3 157/235/3 158/244/3
f 158/244/3 157/235/3 100/236/3 101/245/3
f 84/246/3 85/237/3 116/238/3 117/247/3
f 117/247/3 116/238/3 123/239/3 124/248/3
f 124/248/3 123/239/3 130/240/3 131/249/3
f 131/249/3 130/240/3 137/241/3 138/250/3
f 138/250/3 137/241/3 144/242/3 145/251/3
f 145/251/3 144/242/3 151/243/3 152/252/3
f 152/252/3 151/243/3 158/244/3 159/253/3
f 159/253/3 158/244/3 101/245/3 102/254/3
f 83/255/3 84/246/3 117/247/3 118/256/3
f 118/256/3 117/247/3 124/248/3 125/257/3
f 125/257/3 124/248/3 131/249/3 132/258/3
f 132/258/3 131/249/3 138/250/3 139/259/3
f 139/259/3 138/250/3 145/251/3 146/260/3
f 146/260/3 145/251/3 152/252/3 153/261/3
f 153/261/3 152/252/3 159/253/3 160/262/3
f 160/262/3 159/253/3 102/254/3 103/263/3
f 82/264/3 83/255/3 118/256/3 119/265/3
f 119/265/3 118/256/3 125/257/3 126/266/3
f 126/266/3 125/257/3 132/258/3 133/267/3
f 133/267/3 132/258/3 139/259/3 140/268/3
f 140/268/3 139/259/3 146/260/3 147/269/3
f 147/269/3 146/260/3 153/261/3 154/270/3
f 154/270/3 153/261/3 160/262/3 161/271/3
f 161/271/3 160/262/3 103/263/3 104/272/3
f 81/273/3 82/264/3 119/265/3 112/274/3
f 112/274/3 119/265/3 126/266/3 111/275/3
f 111/275/3 126/266/3 133/267/3 110/276/3
f 110/276/3 133/267/3 140/268/3 109/277/3
f 109/277/3 140/268/3 147/269/3 108/278/3
f 108/278/3 147/269/3 154/270/3 107/279/3
f 107/279/3 154/270/3 161/271/3 106/280/3
f 106/280/3 161/271/3 104/272/3 105/281/3
f 164/282/3 166/283/3 163/284/3
f 163/284/3 167/285/3 80/286/3
f 163/284/3 80/286/3 73/287/3
f 59/288/3 57/289/3 162/129/3
f 58/290/3 59/288/3 162/129/3
f 163/284/3 73/287/3 75/291/3
f 74/292/3 79/293/3 23/294/3
f 163/284/3 75/291/3 74/295/3
f 63/296/3 58/290/3 162/129/3
f 60/297/3 63/296/3 162/129/3
f 23/294/3 163/284/3 74/295/3
f 60/297/3 162/129/3 18/125/3
f 62/298/3 60/297/3 18/125/3
f 23/294/3 79/293/3 76/299/3
f 23/294/3 76/299/3 78/300/3
f 61/301/3 62/298/3 18/125/3
f 72/302/3 61/301/3 18/125/3
f 23/294/3 78/300/3 77/303/3
f 23/294/3 77/303/3 66/304/3
f 64/305/3 72/302/3 18/125/3
f 65/306/3 64/305/3 18/125/3
f 23/294/3 66/304/3 70/307/3
f 23/294/3 70/307/3 69/308/3
f 71/309/3 65/306/3 18/125/3
f 68/124/3 71/309/3 18/125/3
f 18/125/3 23/294/3 67/123/3
f 23/294/3 69/308/3 67/123/3
f 169/310/3 167/285/3 163/284/3
f 162/129/3 168/311/3 170/312/3
f 171/313/3 169/310/3 163/284/3
f 166/283/3 171/313/3 163/284/3
f 163/284/3 162/129/3 164/282/3
f 162/129/3 170/312/3 165/314/3
f 162/129/3 165/314/3 164/282/3
f 162/315/3 57/316/3 168/317/3
