mtllib gummi_round_corner.mtl
o Cylinder.001
v 0.724100 0.961571 -0.718314
v 0.458804 0.847759 -0.453017
v 0.214305 0.662939 -0.208519
v 0.000000 0.414214 0.005787
v -0.175875 0.111140 0.181662
v -0.306563 -0.234633 0.312349
v -0.387040 -0.609819 0.392827
v 0.599819 0.961571 -1.000000
v 0.224633 0.847759 -1.000000
v -0.121140 0.662939 -1.000000
v -0.420000 0.420000 -1.000000
v -0.662939 0.121140 -1.000000
v -0.847759 -0.224633 -1.000000
v -0.961571 -0.599819 -1.000000
v 0.599819 -1.000000 0.961571
v 0.224633 -1.000000 0.847759
v -0.121140 -1.000000 0.662939
v -0.420000 -1.000000 0.420000
v -0.662939 -1.000000 0.121140
v -0.847759 -1.000000 -0.224633
v -0.961571 -1.000000 -0.599819
v -1.000000 -1.000000 -1.000000
v 1.000000 -1.000000 -1.000000
v 1.000000 0.961571 -0.599819
v 1.000000 0.847759 -0.224633
v 1.000000 0.662939 0.121140
v 1.000000 0.420000 0.420000
v 1.000000 0.121140 0.662939
v 1.000000 -0.224633 0.847759
v 1.000000 -0.599819 0.961571
v 1.000000 -1.000000 1.000000
v 1.000000 1.000000 -1.000000
v 0.640716 0.961571 -0.847247
v 0.294089 0.847759 -0.703670
v -0.039996 0.662939 -0.571348
v -0.320000 0.414214 -0.455367
v -0.535159 0.111140 -0.360184
v -0.705911 -0.234633 -0.291697
v -0.811059 -0.609819 -0.245902
v 0.847247 0.961571 -0.640716
v 0.703670 0.847759 -0.294089
v 0.571348 0.662939 0.039996
v 0.455367 0.414214 0.320000
v 0.360184 0.111140 0.535159
v 0.291697 -0.234633 0.705911
v 0.245902 -0.609819 0.811059
vn -0.0000 -0.0000 -1.0000
vn -0.0000 -1.0000 -0.0000
vn 1.0000 -0.0000 -0.0000
vn -0.1869 0.9788 0.0837
vn -0.0645 0.9958 0.0645
vn -0.2070 0.9769 0.0531
vn -0.3537 0.9223 0.1559
vn -0.3879 0.9178 0.0846
vn -0.5158 0.8284 0.2184
vn -0.5593 0.8220 0.1074
vn -0.6671 0.6920 0.2761
vn -0.7084 0.6911 0.1430
vn -0.7769 0.5402 0.3235
vn -0.8233 0.5406 0.1728
vn -0.8551 0.3780 0.3549
vn -0.9089 0.3727 0.1870
vn -0.9009 0.2216 0.3733
vn -0.9621 0.2146 0.1684
vn -0.9909 0.0952 0.0952
vn -0.9699 0.1469 0.1941
vn -0.9182 0.1072 0.3813
vn -0.1459 0.9783 0.1471
vn -0.0813 0.9787 0.1884
vn -0.0561 0.9762 0.2094
vn -0.2780 0.9202 0.2756
vn -0.1489 0.9222 0.3568
vn -0.0929 0.9153 0.3920
vn -0.3973 0.8270 0.3977
vn -0.2162 0.8289 0.5159
vn -0.1090 0.8249 0.5547
vn -0.5021 0.6995 0.5085
vn -0.2820 0.6918 0.6648
vn -0.1360 0.6943 0.7067
vn -0.5891 0.5479 0.5939
vn -0.3264 0.5402 0.7756
vn -0.1689 0.5376 0.8261
vn -0.6539 0.3784 0.6551
vn -0.6887 0.2222 0.6901
vn -0.8228 0.1540 0.5470
vn -0.7034 0.1083 0.7025
vn -0.5466 0.1521 0.8234
vn -0.3722 0.2211 0.9014
vn -0.3813 0.1072 0.9182
vn -0.1941 0.1469 0.9699
vn -0.1686 0.2148 0.9620
vn -0.0952 0.0952 0.9909
vn -0.3535 0.3783 0.8555
vn -0.1874 0.3725 0.9089
vt 0.782063 0.619193
vt 0.770374 0.534646
vt 0.973834 0.482487
vt 0.765714 0.448129
vt 0.973834 0.922725
vt 0.933247 0.907562
vt 0.894252 0.876063
vt 0.858347 0.829437
vt 0.826911 0.769476
vt 0.801153 0.698486
vt 0.706997 0.037361
vt 0.873668 0.438450
vt 0.788700 0.010475
vt 0.873668 0.000000
vt 0.446503 0.362567
vt 0.438135 0.448129
vt 0.471287 0.279887
vt 0.511535 0.203265
vt 0.631699 0.079626
vt 0.404784 0.277181
vt 0.000000 0.439943
vt 0.429716 0.359918
vt 0.438135 0.446619
vt 0.085476 0.009738
vt 0.000000 0.000000
vt 0.167667 0.035973
vt 0.243415 0.077697
vt 0.309808 0.133306
vt 0.364296 0.200664
vt 0.961440 0.051896
vt 0.565699 0.136566
vt 0.281325 0.856125
vt 0.359341 0.891487
vt 0.273040 0.887143
vt 0.203317 0.819118
vt 0.187247 0.881348
vt 0.128551 0.782407
vt 0.105306 0.873402
vt 0.059899 0.747404
vt 0.030365 0.863612
vt 0.692259 0.726950
vt 0.765714 0.861278
vt 0.692271 0.868471
vt 0.765714 0.741135
vt 0.611263 0.716700
vt 0.611285 0.874107
vt 0.525838 0.710781
vt 0.525865 0.877970
vt 0.873668 0.425822
vt 0.960303 0.426655
vt 0.960303 0.340016
vt 0.438135 0.793295
vt 0.439195 0.708011
vt 0.300889 0.828418
vt 0.329199 0.808964
vt 0.362261 0.804063
vt 0.241919 0.765268
vt 0.297622 0.728722
vt 0.362261 0.718380
vt 0.515654 0.877970
vt 0.486375 0.957761
vt 0.515654 0.974572
vt 0.184699 0.704465
vt 0.265647 0.652166
vt 0.359387 0.636809
vt 0.438135 0.949936
vt 0.486375 0.995135
vt 0.486375 0.877970
vt 0.131426 0.648345
vt 0.234502 0.582238
vt 0.353750 0.562486
vt 0.936395 0.246937
vt 0.995143 0.322759
vt 0.995143 0.185534
vt 0.084148 0.599064
vt -0.000000 0.715454
vt 0.205383 0.521626
vt 0.345565 0.498267
vt 0.936395 0.185534
vt 0.873668 0.235320
vt 0.936395 0.340016
vt 0.619104 0.574273
vt 0.699311 0.598719
vt 0.534164 0.559610
vt 0.442436 0.627337
vt 0.956592 0.185534
vt 0.960160 0.114357
vt 0.873668 0.109690
vt 0.960039 0.003272
vt 0.362261 0.960759
vt 0.410025 0.962063
vt 0.417844 0.875900
vt 0.362261 0.791518
vt 0.410738 0.789625
vt 0.179411 0.472659
vt 0.044682 0.558517
vt 0.549660 0.448129
vt 0.633695 0.469163
vt 0.961440 0.167619
vt 0.961440 0.000000
vt 1.000000 0.151945
vt 0.417924 0.614145
vt 0.362261 0.640229
vt 0.417924 0.789625
vt 0.335148 0.446619
vt 0.423681 0.446619
vt 0.362261 0.484460
vt 0.423681 0.614145
s 1
usemtl Material.001
f 9/1/1 8/2/1 23/3/1
f 8/2/1 32/4/1 23/3/1
f 23/3/1 22/5/1 14/6/1
f 14/6/1 13/7/1 23/3/1
f 13/7/1 12/8/1 23/3/1
f 12/8/1 11/9/1 23/3/1
f 11/9/1 10/10/1 23/3/1
f 10/10/1 9/1/1 23/3/1
f 16/11/2 23/12/2 15/13/2
f 15/13/2 23/12/2 31/14/2
f 23/12/2 21/15/2 22/16/2
f 21/15/2 23/12/2 20/17/2
f 20/17/2 23/12/2 19/18/2
f 17/19/2 23/12/2 16/11/2
f 25/20/3 23/21/3 24/22/3
f 24/22/3 23/21/3 32/23/3
f 23/21/3 30/24/3 31/25/3
f 30/24/3 23/21/3 29/26/3
f 29/26/3 23/21/3 28/27/3
f 28/27/3 23/21/3 27/28/3
f 27/28/3 23/21/3 26/29/3
f 26/29/3 23/21/3 25/20/3
f 23/12/2 17/30/2 18/31/2
f 33/32/4 32/33/5 8/34/6
f 34/35/7 8/34/6 9/36/8
f 33/32/4 8/34/6 34/35/7
f 35/37/9 9/36/8 10/38/10
f 34/35/7 9/36/8 35/37/9
f 36/39/11 10/38/10 11/40/12
f 36/39/11 35/37/9 10/38/10
f 37/41/13 11/42/12 12/43/14
f 37/41/13 36/44/11 11/42/12
f 38/45/15 12/43/14 13/46/16
f 38/45/15 37/41/13 12/43/14
f 39/47/17 13/46/16 14/48/18
f 39/47/17 38/45/15 13/46/16
f 14/49/18 22/50/19 21/51/20
f 14/48/18 21/52/20 39/47/17
f 20/53/21 39/47/17 21/52/20
f 32/33/5 33/32/4 1/54/22
f 40/55/23 32/33/5 1/54/22
f 32/33/5 40/55/23 24/56/24
f 2/57/25 33/32/4 34/35/7
f 2/57/25 1/54/22 33/32/4
f 41/58/26 1/54/22 2/57/25
f 41/58/26 40/55/23 1/54/22
f 25/59/27 40/55/23 41/58/26
f 25/60/27 24/61/24 40/62/23
f 35/37/9 3/63/28 34/35/7
f 2/57/25 34/35/7 3/63/28
f 3/63/28 42/64/29 2/57/25
f 41/58/26 2/57/25 42/64/29
f 42/64/29 26/65/30 41/58/26
f 25/66/27 41/67/26 26/68/30
f 4/69/31 35/37/9 36/39/11
f 3/63/28 35/37/9 4/69/31
f 43/70/32 3/63/28 4/69/31
f 42/64/29 3/63/28 43/70/32
f 27/71/33 42/64/29 43/70/32
f 26/72/30 42/73/29 27/74/33
f 5/75/34 36/39/11 37/76/13
f 5/75/34 4/69/31 36/39/11
f 44/77/35 4/69/31 5/75/34
f 44/77/35 43/70/32 4/69/31
f 28/78/36 43/70/32 44/77/35
f 28/79/36 27/80/33 43/81/32
f 6/82/37 37/41/13 38/45/15
f 6/82/37 5/83/34 37/41/13
f 7/84/38 38/45/15 39/47/17
f 7/84/38 6/82/37 38/45/15
f 19/85/39 39/47/17 20/53/21
f 39/47/17 19/85/39 7/84/38
f 19/86/39 18/87/40 7/88/38
f 18/87/40 17/30/41 7/88/38
f 7/88/38 17/30/41 46/14/42
f 46/14/42 17/30/41 16/89/43
f 46/90/42 16/91/43 15/92/44
f 30/93/45 46/90/42 15/92/44
f 30/93/45 15/92/44 31/94/46
f 45/95/47 5/75/34 6/96/37
f 45/95/47 44/77/35 5/75/34
f 7/84/38 46/97/42 6/82/37
f 46/97/42 45/98/47 6/82/37
f 46/99/42 30/100/45 45/101/47
f 30/102/45 29/103/48 45/104/47
f 45/95/47 29/105/48 44/77/35
f 29/106/48 28/107/36 44/108/35
f 18/31/2 19/18/2 23/12/2
