mtllib gummi_gravira.mtl
o gravira
v 0.998845 0.251733 -1.511644
v 0.998845 0.251733 -0.495670
v 0.998845 -0.219857 -0.993753
v 0.998845 -0.344551 -0.683989
v 0.998845 0.343518 -1.116061
v 0.998845 0.343518 -0.796348
v 0.998845 0.628371 -0.993753
v 0.998845 0.343518 -1.187228
v 0.998845 0.343518 -0.871638
v 0.998845 0.521641 -0.995078
v 0.998845 0.293499 -0.836974
v 0.998845 0.219987 -0.596159
v 0.998845 0.023532 -0.759660
v 0.998845 -0.257583 -0.746985
v 0.998845 -0.157714 -0.995078
v 0.998845 -0.257583 -1.260303
v 0.998845 0.023532 -1.253966
v 0.998845 0.219987 -1.409863
v 0.998845 0.293499 -1.150035
v 0.998845 0.006443 -0.699815
v 0.998845 -0.344551 -1.324907
v 0.998845 0.006443 -1.316994
v 0.000000 -1.000000 -1.500000
v 0.000000 -1.000000 -0.500000
v -2.000000 -1.000000 -1.500000
v -1.000000 -1.000000 -1.000000
v -1.000000 -1.000000 -2.077414
v -1.000000 -1.000000 0.092862
v -1.000000 -0.476708 -2.077414
v -2.000000 -1.000000 -0.500000
v -2.000000 -0.476708 -1.500000
v -2.000000 -0.476708 -0.500000
v 0.000000 -0.476708 -0.500000
v 0.000000 -0.476708 -1.500000
v -1.000000 -0.476708 0.092862
v -1.000000 -0.476708 -2.500000
v -2.407864 -0.476708 -0.296068
v 0.407864 -0.476708 -1.703932
v -1.000000 0.691503 -2.500000
v -2.407864 -0.476708 -1.703932
v -1.000000 -0.476708 0.500000
v -2.407864 0.691503 -1.703932
v -2.407864 0.691503 -0.296068
v -1.000000 0.691503 0.500000
v 0.407864 0.691503 -0.296068
v 0.407864 0.691503 -1.703932
v -1.000000 0.691503 -1.000000
v 0.407864 0.298535 -0.832884
v 0.407864 0.529749 -0.993117
v 0.407864 0.223183 -0.586041
v 0.407864 0.021811 -0.753634
v 0.407864 -0.263089 -0.740789
v 0.407864 -0.163970 -0.994945
v 0.407864 -0.265185 -1.263742
v 0.407864 0.021811 -1.260312
v 0.407864 0.220912 -1.418308
v 0.407864 0.297686 -1.156783
v 0.407864 -0.476708 -0.296068
vn 1.0000 -0.0000 -0.0000
vn -0.0000 -1.0000 -0.0000
vn -0.5000 -0.0000 -0.8660
vn -0.5100 -0.0000 0.8602
vn -1.0000 -0.0000 -0.0000
vn 0.5100 -0.0000 0.8602
vn 0.5000 -0.0000 -0.8660
vn -0.4922 -0.0000 -0.8705
vn -0.4922 -0.0000 0.8705
vn 0.4922 -0.0000 0.8705
vn 0.4922 -0.0000 -0.8705
vn -0.0000 1.0000 -0.0000
vn -0.0907 0.5661 -0.8193
vn -0.0909 0.9570 -0.2753
vn -0.0909 -0.6190 -0.7801
vn -0.0978 0.0177 -0.9950
vn -0.0889 -0.9322 0.3510
vn -0.0895 -0.9257 -0.3674
vn -0.0894 0.0449 0.9950
vn -0.0863 -0.6373 0.7658
vn -0.0938 0.5671 0.8183
vn -0.0905 0.9525 0.2908
vt 0.127564 0.578938
vt 0.285414 0.610994
vt 0.032532 0.576149
vt 0.626037 0.828396
vt 0.844571 0.873815
vt 0.626278 0.924903
vt 0.787830 0.596798
vt 0.897557 0.647607
vt 0.820372 0.636170
vt 0.285695 0.600728
vt 0.286956 0.554606
vt 0.286659 0.565467
vt 0.240597 0.898939
vt 0.025882 0.875853
vt 0.240478 0.851218
vt 0.300738 0.844301
vt 0.389210 0.797063
vt 0.300890 0.905422
vt 0.389606 0.955930
vt 0.964803 0.825078
vt 0.965052 0.925297
vt 0.397742 0.528733
vt 0.331334 0.561684
vt 0.369871 0.513464
vt 0.330100 0.606847
vt 0.394533 0.646119
vt 0.365864 0.660030
vt 0.572030 0.557103
vt 0.587483 0.548885
vt 0.822397 0.562118
vt 0.585048 0.637920
vt 0.900085 0.555147
vt 0.570080 0.628412
vt 0.732490 0.595477
vt 0.617113 0.136485
vt 0.528264 0.083810
vt 0.624771 0.029575
vt 0.707236 0.078465
vt 0.707236 0.189915
vt 0.609455 0.243395
vt 0.526990 0.194505
vt 0.589893 0.173593
vt 0.589893 0.224389
vt 0.224379 0.224389
vt 0.224379 0.173593
vt 0.955408 0.073274
vt 0.955408 0.174771
vt 0.589893 0.174771
vt 0.589893 0.073274
vt 0.589893 0.029456
vt 0.589893 0.072773
vt 0.224379 0.072773
vt 0.224379 0.029456
vt 0.955408 0.029521
vt 0.589893 0.029521
vt 0.955408 0.224389
vt 0.589893 0.224389
vt 0.824722 0.161880
vt 0.876831 0.192589
vt 0.878048 0.216443
vt 0.805454 0.172775
vt 0.922426 0.166807
vt 0.923676 0.105927
vt 0.942240 0.095430
vt 0.942240 0.180146
vt 0.870863 0.075617
vt 0.825268 0.101398
vt 0.805454 0.088059
vt 0.869646 0.051762
vt 0.948430 0.164551
vt 0.948430 0.243875
vt 0.052476 0.243875
vt 0.052476 0.164551
vt 0.833643 0.057221
vt 0.833643 0.179714
vt 0.125794 0.179714
vt 0.125794 0.057222
vt 0.833643 0.003786
vt 0.125794 0.003786
vt 0.833643 0.241777
vt 0.125794 0.241777
vt 0.948430 0.009501
vt 0.052476 0.009501
vt 0.873847 0.138636
vt 0.868730 0.038340
vt 0.957154 0.091531
vt 0.790540 0.082552
vt 0.790540 0.185742
vt 0.878964 0.238932
vt 0.957154 0.194720
vt 0.277818 0.637102
vt 0.224017 0.583358
vt 0.384287 0.582304
vt 0.409393 0.636237
vt 0.409393 0.636237
vt 0.436268 0.579104
vt 0.452067 0.633610
vt 0.573812 0.582140
vt 0.564985 0.636102
vt 0.770999 0.583358
vt 0.725041 0.637091
vt 0.564985 0.636102
vt 0.117096 0.527693
vt 0.172094 0.498035
vt 0.172094 0.555367
vt 0.117096 0.597528
vt 0.172478 0.627546
vt 0.172478 0.697258
vt 0.117608 0.654392
vt 0.117608 0.597806
vt 0.726764 0.521209
vt 0.770892 0.574954
vt 0.573684 0.576006
vt 0.564865 0.522073
vt 0.453152 0.524587
vt 0.564865 0.522073
vt 0.436055 0.579104
vt 0.279287 0.521220
vt 0.409327 0.522170
vt 0.384225 0.576125
vt 0.224017 0.574954
vt 0.464490 0.064007
vt 0.466212 0.107816
vt 0.404897 0.031159
vt 0.534567 0.063685
vt 0.498547 0.079249
vt 0.593553 0.031159
vt 0.534107 0.107816
vt 0.593553 0.210795
vt 0.555279 0.138432
vt 0.498303 0.185922
vt 0.520234 0.150238
vt 0.404897 0.210795
vt 0.443754 0.138781
vt 0.476831 0.150368
vt 0.409807 0.522198
vt 0.451878 0.524616
s 0
usemtl Material
f 10/1/1 8/2/1 7/3/1
f 13/4/1 15/5/1 17/6/1
f 3/7/1 21/8/1 16/9/1
f 10/1/1 5/10/1 8/2/1
f 7/3/1 6/11/1 10/1/1
f 6/11/1 9/12/1 10/1/1
f 5/13/1 10/14/1 9/15/1
f 11/16/1 12/17/1 19/18/1
f 12/17/1 13/4/1 18/19/1
f 18/19/1 13/4/1 17/6/1
f 5/13/1 9/15/1 19/18/1
f 9/15/1 11/16/1 19/18/1
f 18/19/1 19/18/1 12/17/1
f 13/4/1 14/20/1 15/5/1
f 15/5/1 16/21/1 17/6/1
f 12/22/1 11/23/1 2/24/1
f 11/23/1 9/12/1 6/11/1
f 2/24/1 11/23/1 6/11/1
f 5/10/1 19/25/1 8/2/1
f 19/25/1 18/26/1 1/27/1
f 1/27/1 8/2/1 19/25/1
f 13/28/1 12/22/1 20/29/1
f 12/22/1 2/24/1 20/29/1
f 14/30/1 13/28/1 20/29/1
f 22/31/1 1/27/1 18/26/1
f 14/30/1 20/29/1 4/32/1
f 14/30/1 4/32/1 3/7/1
f 22/31/1 18/26/1 17/33/1
f 15/34/1 14/30/1 3/7/1
f 22/31/1 17/33/1 16/9/1
f 16/9/1 15/34/1 3/7/1
f 21/8/1 22/31/1 16/9/1
f 26/35/2 27/36/2 23/37/2
f 23/37/2 24/38/2 26/35/2
f 24/38/2 28/39/2 26/35/2
f 28/39/2 30/40/2 26/35/2
f 25/41/2 26/35/2 30/40/2
f 25/41/2 27/36/2 26/35/2
f 27/42/3 25/43/3 31/44/3 29/45/3
f 30/46/4 28/47/4 35/48/4 32/49/4
f 24/50/1 23/51/1 34/52/1 33/53/1
f 25/54/5 30/46/5 32/49/5 31/55/5
f 28/47/6 24/56/6 33/57/6 35/48/6
f 23/51/7 27/42/7 29/45/7 34/52/7
f 29/58/2 31/59/2 40/60/2 36/61/2
f 32/62/2 35/63/2 41/64/2 37/65/2
f 33/66/2 34/67/2 38/68/2 58/69/2
f 31/59/2 32/62/2 37/65/2 40/60/2
f 35/63/2 33/66/2 58/69/2 41/64/2
f 34/67/2 29/58/2 36/61/2 38/68/2
f 36/70/8 40/71/8 42/72/8 39/73/8
f 37/74/9 41/75/9 44/76/9 43/77/9
f 40/78/5 37/74/5 43/77/5 42/79/5
f 41/75/10 58/80/10 45/81/10 44/76/10
f 38/82/11 36/70/11 39/73/11 46/83/11
f 47/84/12 46/85/12 39/86/12
f 46/85/12 47/84/12 45/87/12
f 45/87/12 47/84/12 44/88/12
f 44/88/12 47/84/12 43/89/12
f 42/90/12 43/89/12 47/84/12
f 42/90/12 47/84/12 39/86/12
f 49/91/13 7/92/13 8/93/13 57/94/13
f 57/95/14 8/93/14 1/96/14 56/97/14
f 56/97/15 1/96/15 22/98/15 55/99/15
f 22/98/16 21/100/16 54/101/16 55/102/16
f 3/103/17 53/104/17 54/105/17 21/106/17
f 3/107/18 4/108/18 52/109/18 53/110/18
f 52/111/19 4/112/19 20/113/19 51/114/19
f 50/115/20 51/116/20 20/113/20 2/117/20
f 49/118/21 48/119/21 6/120/21 7/121/21
f 52/122/1 51/123/1 58/124/1
f 54/125/1 53/126/1 52/122/1
f 38/127/1 54/125/1 52/122/1 58/124/1
f 54/125/1 38/127/1 55/128/1
f 55/128/1 38/127/1 46/129/1 56/130/1
f 56/130/1 46/129/1 49/131/1 57/132/1
f 45/133/1 58/124/1 51/123/1 50/134/1
f 48/135/1 49/131/1 45/133/1 50/134/1
f 46/129/1 45/133/1 49/131/1
f 6/120/22 48/136/22 50/137/22 2/117/22
