# Blender 4.5.3 LTS
# www.blender.org
mtllib gummi_dome.mtl
o Sphere
v 0.000000 0.631470 -0.555570
v 0.000000 0.355570 -0.831470
v 0.000000 -0.004910 -0.980785
v 0.038060 0.780785 -0.191342
v 0.074658 0.723880 -0.375330
v 0.108386 0.631470 -0.544895
v 0.137950 0.507107 -0.693520
v 0.162212 0.355570 -0.815493
v 0.180240 0.182683 -0.906127
v 0.191342 -0.004910 -0.961940
v 0.074658 0.780785 -0.180240
v 0.146447 0.723880 -0.353553
v 0.212608 0.631470 -0.513280
v 0.270598 0.507107 -0.653281
v 0.318190 0.355570 -0.768178
v 0.353553 0.182683 -0.853553
v 0.375330 -0.004910 -0.906127
v 0.108386 0.780785 -0.162212
v 0.212608 0.723880 -0.318190
v 0.308658 0.631470 -0.461940
v 0.392847 0.507107 -0.587938
v 0.461940 0.355570 -0.691342
v 0.513280 0.182683 -0.768178
v 0.544895 -0.004910 -0.815493
v 0.137950 0.780785 -0.137950
v 0.270598 0.723880 -0.270598
v 0.392847 0.631470 -0.392847
v 0.500000 0.507107 -0.500000
v 0.587938 0.355570 -0.587938
v 0.653281 0.182683 -0.653281
v 0.693520 -0.004910 -0.693520
v 0.162212 0.780785 -0.108386
v 0.318190 0.723880 -0.212608
v 0.461940 0.631470 -0.308658
v 0.587938 0.507107 -0.392847
v 0.691342 0.355570 -0.461940
v 0.768178 0.182683 -0.513280
v 0.815493 -0.004910 -0.544895
v 0.000000 0.800000 -0.000000
v 0.180240 0.780785 -0.074658
v 0.353553 0.723880 -0.146447
v 0.513280 0.631470 -0.212607
v 0.653281 0.507107 -0.270598
v 0.768178 0.355570 -0.318190
v 0.853553 0.182683 -0.353553
v 0.906127 -0.004910 -0.375330
v 0.191342 0.780785 -0.038060
v 0.375330 0.723880 -0.074658
v 0.544895 0.631470 -0.108386
v 0.693520 0.507107 -0.137950
v 0.815493 0.355570 -0.162212
v 0.906127 0.182683 -0.180240
v 0.961940 -0.004910 -0.191342
v 0.195090 0.780785 -0.000000
v 0.382683 0.723880 -0.000000
v 0.555570 0.631470 -0.000000
v 0.707107 0.507107 -0.000000
v 0.831469 0.355570 -0.000000
v 0.923879 0.182683 -0.000000
v 0.980785 -0.004910 0.000000
v 0.191342 0.780785 0.038060
v 0.375330 0.723880 0.074658
v 0.544895 0.631470 0.108386
v 0.693520 0.507107 0.137950
v 0.815493 0.355570 0.162212
v 0.906127 0.182683 0.180240
v 0.961940 -0.004910 0.191342
v 0.180240 0.780785 0.074658
v 0.353553 0.723880 0.146447
v 0.513280 0.631470 0.212608
v 0.653281 0.507107 0.270598
v 0.768178 0.355570 0.318190
v 0.853553 0.182683 0.353553
v 0.906127 -0.004910 0.375330
v 0.162212 0.780785 0.108386
v 0.318190 0.723880 0.212608
v 0.461940 0.631470 0.308658
v 0.587938 0.507107 0.392847
v 0.691341 0.355570 0.461940
v 0.768178 0.182683 0.513280
v 0.815493 -0.004910 0.544895
v 0.137950 0.780785 0.137950
v 0.270598 0.723880 0.270598
v 0.392847 0.631470 0.392847
v 0.500000 0.507107 0.500000
v 0.587938 0.355570 0.587938
v 0.653281 0.182683 0.653281
v 0.693520 -0.004910 0.693520
v 0.108386 0.780785 0.162212
v 0.212607 0.723880 0.318190
v 0.308658 0.631470 0.461940
v 0.392847 0.507107 0.587938
v 0.461940 0.355570 0.691342
v 0.513280 0.182683 0.768178
v 0.544895 -0.004910 0.815493
v 0.074658 0.780785 0.180240
v 0.146447 0.723880 0.353553
v 0.212607 0.631470 0.513280
v 0.270598 0.507107 0.653281
v 0.318189 0.355570 0.768178
v 0.353553 0.182683 0.853553
v 0.375330 -0.004910 0.906127
v 0.038060 0.780785 0.191342
v 0.074658 0.723880 0.375330
v 0.108386 0.631470 0.544895
v 0.137950 0.507107 0.693520
v 0.162212 0.355570 0.815493
v 0.180240 0.182683 0.906127
v 0.191342 -0.004910 0.961939
v 0.000000 0.780785 0.195090
v 0.000000 0.723880 0.382683
v 0.000000 0.631470 0.555570
v 0.000000 0.507107 0.707107
v 0.000000 0.355570 0.831469
v 0.000000 0.182683 0.923879
v 0.000000 -0.004910 0.980785
v -0.038060 0.780785 0.191342
v -0.074658 0.723880 0.375330
v -0.108386 0.631470 0.544895
v -0.137950 0.507107 0.693520
v -0.162212 0.355570 0.815493
v -0.180240 0.182683 0.906127
v -0.191342 -0.004910 0.961939
v -0.074658 0.780785 0.180240
v -0.146447 0.723880 0.353553
v -0.212608 0.631470 0.513280
v -0.270598 0.507107 0.653281
v -0.318190 0.355570 0.768177
v -0.353553 0.182683 0.853553
v -0.375330 -0.004910 0.906127
v -0.108386 0.780785 0.162212
v -0.212608 0.723880 0.318190
v -0.308658 0.631470 0.461939
v -0.392847 0.507107 0.587938
v -0.461940 0.355570 0.691341
v -0.513280 0.182683 0.768178
v -0.544895 -0.004910 0.815493
v -0.137950 0.780785 0.137950
v -0.270598 0.723880 0.270598
v -0.392847 0.631470 0.392847
v -0.500000 0.507107 0.500000
v -0.587938 0.355570 0.587937
v -0.653281 0.182683 0.653281
v -0.693520 -0.004910 0.693520
v -0.162212 0.780785 0.108386
v -0.318190 0.723880 0.212607
v -0.461940 0.631470 0.308658
v -0.587938 0.507107 0.392847
v -0.691341 0.355570 0.461939
v -0.768177 0.182683 0.513280
v -0.815493 -0.004910 0.544895
v -0.180240 0.780785 0.074658
v -0.353553 0.723880 0.146447
v -0.513280 0.631470 0.212607
v -0.653281 0.507107 0.270598
v -0.768177 0.355570 0.318189
v -0.853553 0.182683 0.353553
v -0.906127 -0.004910 0.375330
v -0.191342 0.780785 0.038060
v -0.375330 0.723880 0.074658
v -0.544895 0.631470 0.108386
v -0.693520 0.507107 0.137950
v -0.815493 0.355570 0.162211
v -0.906127 0.182683 0.180240
v -0.961939 -0.004910 0.191341
v -0.195090 0.780785 -0.000000
v -0.382683 0.723880 -0.000000
v -0.555570 0.631470 -0.000000
v -0.707107 0.507107 -0.000000
v -0.831469 0.355570 -0.000000
v -0.923879 0.182683 -0.000000
v -0.980785 -0.004910 0.000000
v -0.191342 0.780785 -0.038060
v -0.375330 0.723880 -0.074658
v -0.544895 0.631470 -0.108386
v -0.693520 0.507107 -0.137950
v -0.815493 0.355570 -0.162212
v -0.906127 0.182683 -0.180240
v -0.961939 -0.004910 -0.191342
v -0.180240 0.780785 -0.074658
v -0.353553 0.723880 -0.146447
v -0.513279 0.631470 -0.212607
v -0.653281 0.507107 -0.270598
v -0.768177 0.355570 -0.318190
v -0.853553 0.182683 -0.353553
v -0.906127 -0.004910 -0.375330
v -0.162212 0.780785 -0.108386
v -0.318189 0.723880 -0.212607
v -0.461939 0.631470 -0.308658
v -0.587938 0.507107 -0.392847
v -0.691341 0.355570 -0.461940
v -0.768177 0.182683 -0.513280
v -0.815493 -0.004910 -0.544895
v -0.137950 0.780785 -0.137950
v -0.270598 0.723880 -0.270598
v -0.392847 0.631470 -0.392847
v -0.500000 0.507107 -0.500000
v -0.587937 0.355570 -0.587938
v -0.653281 0.182683 -0.653281
v -0.693519 -0.004910 -0.693520
v -0.108386 0.780785 -0.162212
v -0.212607 0.723880 -0.318190
v -0.308658 0.631470 -0.461939
v -0.392847 0.507107 -0.587938
v -0.461939 0.355570 -0.691341
v -0.513280 0.182683 -0.768177
v -0.544895 -0.004910 -0.815493
v -0.074658 0.780785 -0.180240
v -0.146446 0.723880 -0.353553
v -0.212607 0.631470 -0.513279
v -0.270598 0.507107 -0.653281
v -0.318189 0.355570 -0.768177
v -0.353553 0.182683 -0.853553
v -0.375330 -0.004910 -0.906127
v -0.038060 0.780785 -0.191342
v -0.074658 0.723880 -0.375330
v -0.108386 0.631470 -0.544895
v -0.137950 0.507107 -0.693520
v -0.162211 0.355570 -0.815493
v -0.180240 0.182683 -0.906127
v -0.191341 -0.004910 -0.961939
v 0.000000 0.780785 -0.195090
v 0.000000 0.723880 -0.382683
v 0.000000 0.507107 -0.707107
v 0.000000 0.182683 -0.923879
vn 0.0097 0.9951 -0.0980
vn 0.0286 0.9566 -0.2902
vn 0.0464 0.8810 -0.4709
vn 0.0624 0.7715 -0.6332
vn 0.0759 0.6326 -0.7708
vn 0.0865 0.4696 -0.8786
vn 0.0938 0.2890 -0.9527
vn 0.2779 0.2890 -0.9161
vn 0.0286 0.9951 -0.0942
vn 0.0846 0.9566 -0.2790
vn 0.1374 0.8810 -0.4528
vn 0.1847 0.7715 -0.6088
vn 0.2248 0.6326 -0.7412
vn 0.2563 0.4696 -0.8449
vn 0.2230 0.8810 -0.4173
vn 0.2999 0.7715 -0.5611
vn 0.3651 0.6326 -0.6831
vn 0.4162 0.4696 -0.7786
vn 0.4513 0.2890 -0.8443
vn 0.0464 0.9951 -0.0869
vn 0.1374 0.9566 -0.2571
vn 0.6073 0.2890 -0.7400
vn 0.0625 0.9951 -0.0761
vn 0.1850 0.9566 -0.2254
vn 0.3002 0.8810 -0.3658
vn 0.4036 0.7715 -0.4918
vn 0.4913 0.6326 -0.5987
vn 0.5601 0.4696 -0.6825
vn 0.4918 0.7715 -0.4036
vn 0.5987 0.6326 -0.4913
vn 0.6825 0.4696 -0.5601
vn 0.7400 0.2890 -0.6073
vn 0.0761 0.9951 -0.0625
vn 0.2254 0.9566 -0.1850
vn 0.3658 0.8810 -0.3002
vn 0.0869 0.9951 -0.0464
vn 0.2571 0.9566 -0.1374
vn 0.4173 0.8810 -0.2230
vn 0.5611 0.7715 -0.2999
vn 0.6831 0.6326 -0.3651
vn 0.7786 0.4696 -0.4162
vn 0.8443 0.2890 -0.4513
vn 0.7412 0.6326 -0.2248
vn 0.8448 0.4696 -0.2563
vn 0.9161 0.2890 -0.2779
vn 0.0942 0.9951 -0.0286
vn 0.2790 0.9566 -0.0846
vn 0.4528 0.8810 -0.1374
vn 0.6088 0.7715 -0.1847
vn 0.0980 0.9951 -0.0097
vn 0.2902 0.9566 -0.0286
vn 0.4709 0.8810 -0.0464
vn 0.6332 0.7715 -0.0624
vn 0.7708 0.6326 -0.0759
vn 0.8786 0.4696 -0.0865
vn 0.9527 0.2890 -0.0938
vn -0.0000 -1.0000 -0.0000
vn 0.7708 0.6326 0.0759
vn 0.8786 0.4696 0.0865
vn 0.9527 0.2890 0.0938
vn 0.0980 0.9951 0.0097
vn 0.2902 0.9566 0.0286
vn 0.4709 0.8810 0.0464
vn 0.6332 0.7715 0.0624
vn 0.2790 0.9566 0.0846
vn 0.4528 0.8810 0.1374
vn 0.6088 0.7715 0.1847
vn 0.7412 0.6326 0.2248
vn 0.8448 0.4696 0.2563
vn 0.9161 0.2890 0.2779
vn 0.0942 0.9951 0.0286
vn 0.7786 0.4696 0.4162
vn 0.8443 0.2890 0.4513
vn 0.0869 0.9951 0.0464
vn 0.2571 0.9566 0.1374
vn 0.4173 0.8810 0.2230
vn 0.5611 0.7715 0.2999
vn 0.6831 0.6326 0.3651
vn 0.2254 0.9566 0.1850
vn 0.3658 0.8810 0.3002
vn 0.4918 0.7715 0.4036
vn 0.5987 0.6326 0.4913
vn 0.6825 0.4696 0.5601
vn 0.7400 0.2890 0.6073
vn 0.0761 0.9951 0.0625
vn 0.5601 0.4696 0.6825
vn 0.6073 0.2890 0.7400
vn 0.0625 0.9951 0.0761
vn 0.1850 0.9566 0.2254
vn 0.3002 0.8810 0.3658
vn 0.4036 0.7715 0.4918
vn 0.4913 0.6326 0.5987
vn 0.2230 0.8810 0.4173
vn 0.2999 0.7715 0.5611
vn 0.3651 0.6326 0.6831
vn 0.4162 0.4696 0.7786
vn 0.4513 0.2890 0.8443
vn 0.0464 0.9951 0.0869
vn 0.1374 0.9566 0.2571
vn 0.2779 0.2890 0.9161
vn 0.0286 0.9951 0.0942
vn 0.0846 0.9566 0.2790
vn 0.1374 0.8810 0.4528
vn 0.1847 0.7715 0.6088
vn 0.2248 0.6326 0.7412
vn 0.2563 0.4696 0.8448
vn 0.0624 0.7715 0.6332
vn 0.0759 0.6326 0.7708
vn 0.0865 0.4696 0.8786
vn 0.0938 0.2890 0.9527
vn 0.0097 0.9951 0.0980
vn 0.0286 0.9566 0.2902
vn 0.0464 0.8810 0.4709
vn -0.0097 0.9951 0.0980
vn -0.0286 0.9566 0.2902
vn -0.0464 0.8810 0.4709
vn -0.0624 0.7715 0.6332
vn -0.0759 0.6326 0.7708
vn -0.0865 0.4696 0.8786
vn -0.0938 0.2890 0.9527
vn -0.1847 0.7715 0.6088
vn -0.2248 0.6326 0.7412
vn -0.2563 0.4696 0.8448
vn -0.2779 0.2890 0.9161
vn -0.0286 0.9951 0.0942
vn -0.0846 0.9566 0.2790
vn -0.1374 0.8810 0.4528
vn -0.0464 0.9951 0.0869
vn -0.1374 0.9566 0.2571
vn -0.2231 0.8810 0.4173
vn -0.2999 0.7715 0.5611
vn -0.3651 0.6326 0.6831
vn -0.4162 0.4696 0.7786
vn -0.4513 0.2890 0.8443
vn -0.4913 0.6326 0.5987
vn -0.5601 0.4696 0.6825
vn -0.6073 0.2890 0.7400
vn -0.0625 0.9951 0.0761
vn -0.1850 0.9566 0.2254
vn -0.3002 0.8810 0.3658
vn -0.4036 0.7715 0.4918
vn -0.0761 0.9951 0.0625
vn -0.2254 0.9566 0.1850
vn -0.3658 0.8810 0.3002
vn -0.4918 0.7715 0.4036
vn -0.5987 0.6326 0.4913
vn -0.6825 0.4696 0.5601
vn -0.7400 0.2890 0.6073
vn -0.6831 0.6326 0.3651
vn -0.7786 0.4696 0.4162
vn -0.8443 0.2890 0.4513
vn -0.0869 0.9951 0.0464
vn -0.2571 0.9566 0.1374
vn -0.4173 0.8810 0.2230
vn -0.5611 0.7715 0.2999
vn -0.2790 0.9566 0.0846
vn -0.4528 0.8810 0.1374
vn -0.6088 0.7715 0.1847
vn -0.7412 0.6326 0.2248
vn -0.8448 0.4696 0.2563
vn -0.9161 0.2890 0.2779
vn -0.0942 0.9951 0.0286
vn -0.8786 0.4696 0.0865
vn -0.9527 0.2890 0.0938
vn -0.0980 0.9951 0.0097
vn -0.2902 0.9566 0.0286
vn -0.4709 0.8810 0.0464
vn -0.6332 0.7715 0.0624
vn -0.7708 0.6326 0.0759
vn -0.4709 0.8810 -0.0464
vn -0.6332 0.7715 -0.0624
vn -0.7708 0.6326 -0.0759
vn -0.8786 0.4696 -0.0865
vn -0.9527 0.2890 -0.0938
vn -0.0980 0.9951 -0.0097
vn -0.2902 0.9566 -0.0286
vn -0.9161 0.2890 -0.2779
vn -0.0942 0.9951 -0.0286
vn -0.2790 0.9566 -0.0846
vn -0.4528 0.8810 -0.1374
vn -0.6088 0.7715 -0.1847
vn -0.7412 0.6326 -0.2248
vn -0.8448 0.4696 -0.2563
vn -0.4173 0.8810 -0.2231
vn -0.5611 0.7715 -0.2999
vn -0.6831 0.6326 -0.3651
vn -0.7786 0.4696 -0.4162
vn -0.8443 0.2890 -0.4513
vn -0.0869 0.9951 -0.0464
vn -0.2571 0.9566 -0.1374
vn -0.7400 0.2890 -0.6073
vn -0.0761 0.9951 -0.0625
vn -0.2254 0.9566 -0.1850
vn -0.3658 0.8810 -0.3002
vn -0.4918 0.7715 -0.4036
vn -0.5987 0.6326 -0.4913
vn -0.6825 0.4696 -0.5601
vn -0.4036 0.7715 -0.4918
vn -0.4913 0.6326 -0.5987
vn -0.5601 0.4696 -0.6825
vn -0.6073 0.2890 -0.7400
vn -0.0625 0.9951 -0.0761
vn -0.1850 0.9566 -0.2254
vn -0.3002 0.8810 -0.3658
vn -0.0464 0.9951 -0.0869
vn -0.1374 0.9566 -0.2571
vn -0.2230 0.8810 -0.4173
vn -0.2999 0.7715 -0.5611
vn -0.3651 0.6326 -0.6831
vn -0.4162 0.4696 -0.7786
vn -0.4513 0.2890 -0.8443
vn -0.1847 0.7715 -0.6088
vn -0.2248 0.6326 -0.7412
vn -0.2563 0.4696 -0.8448
vn -0.2779 0.2890 -0.9161
vn -0.0286 0.9951 -0.0942
vn -0.0846 0.9566 -0.2790
vn -0.1374 0.8810 -0.4528
vn -0.0097 0.9951 -0.0980
vn -0.0286 0.9566 -0.2902
vn -0.0464 0.8810 -0.4709
vn -0.0624 0.7715 -0.6332
vn -0.0759 0.6326 -0.7708
vn -0.0865 0.4696 -0.8786
vn -0.0938 0.2890 -0.9527
vt 0.666912 0.105438
vt 0.692414 0.152946
vt 0.658135 0.111369
vt 0.642769 0.059829
vt 0.625551 0.071463
vt 0.620912 0.017872
vt 0.595916 0.034762
vt 0.055869 0.620349
vt 0.009023 0.644849
vt 0.000000 0.623070
vt 0.044385 0.592630
vt 0.106405 0.600802
vt 0.092901 0.568208
vt 0.158689 0.586959
vt 0.143685 0.550742
vt 0.210712 0.579351
vt 0.194784 0.540904
vt 0.962486 0.670271
vt 0.911387 0.657894
vt 0.926391 0.616817
vt 0.978414 0.626664
vt 0.650682 0.118899
vt 0.610932 0.086234
vt 0.574692 0.056206
vt 0.812087 0.615157
vt 0.767702 0.586438
vt 0.776725 0.561737
vt 0.823571 0.583718
vt 0.860603 0.639284
vt 0.874107 0.602316
vt 0.599473 0.103575
vt 0.558056 0.081381
vt 0.783429 0.534137
vt 0.832104 0.548590
vt 0.884141 0.561010
vt 0.937540 0.570920
vt 0.990250 0.577940
vt 0.644840 0.127739
vt 0.944406 0.521966
vt 0.997539 0.525970
vt 0.640834 0.137550
vt 0.591614 0.122818
vt 0.546647 0.109318
vt 0.787558 0.504699
vt 0.837359 0.511122
vt 0.890320 0.516952
vt 0.788952 0.474553
vt 0.839133 0.472754
vt 0.892406 0.471836
vt 0.946724 0.471836
vt 1.000000 0.472753
vt 0.638817 0.147953
vt 0.587658 0.143225
vt 0.540904 0.138944
vt 0.638867 0.158549
vt 0.587757 0.164011
vt 0.541047 0.169120
vt 0.787558 0.444860
vt 0.837359 0.434961
vt 0.890320 0.427397
vt 0.944406 0.422457
vt 0.997539 0.420332
vt 0.832104 0.399195
vt 0.884141 0.385340
vt 0.937540 0.375727
vt 0.990250 0.370723
vt 0.640983 0.168932
vt 0.591906 0.184377
vt 0.547070 0.198687
vt 0.783429 0.416758
vt 0.645082 0.178702
vt 0.599946 0.203541
vt 0.558743 0.226509
vt 0.776725 0.391330
vt 0.823571 0.366831
vt 0.874107 0.347284
vt 0.926391 0.333440
vt 0.978414 0.325833
vt 0.398559 0.030781
vt 0.442855 0.060378
vt 0.297089 0.000000
vt 0.687453 0.357814
vt 0.734790 0.384452
vt 0.722038 0.411611
vt 0.672458 0.389750
vt 0.637531 0.338021
vt 0.620869 0.373506
vt 0.586941 0.325833
vt 0.569253 0.363503
vt 0.349340 0.010393
vt 0.651007 0.187483
vt 0.611569 0.220766
vt 0.575617 0.251516
vt 0.767702 0.369551
vt 0.812087 0.339112
vt 0.658531 0.194939
vt 0.626328 0.235391
vt 0.597043 0.272748
vt 0.767702 0.438248
vt 0.759830 0.463340
vt 0.712018 0.443546
vt 0.660677 0.427302
vt 0.607779 0.415232
vt 0.555356 0.407799
vt 0.191564 0.010393
vt 0.243815 0.000000
vt 0.652562 0.469028
vt 0.598761 0.461596
vt 0.545784 0.457018
vt 0.098049 0.060378
vt 0.142345 0.030781
vt 0.667364 0.200782
vt 0.643655 0.246853
vt 0.622198 0.289388
vt 0.754407 0.491220
vt 0.705117 0.479031
vt 0.677167 0.204788
vt 0.662884 0.254711
vt 0.650115 0.300797
vt 0.751643 0.520818
vt 0.701599 0.516702
vt 0.648425 0.513324
vt 0.594165 0.510815
vt 0.540904 0.509269
vt 0.060378 0.098049
vt -0.000000 0.243815
vt 0.480525 0.098049
vt 0.540904 0.297089
vt 0.648425 0.558488
vt 0.594165 0.560998
vt 0.540904 0.562544
vt 0.030781 0.142345
vt 0.687563 0.206804
vt 0.683278 0.258665
vt 0.679722 0.306537
vt 0.751643 0.550995
vt 0.701599 0.555111
vt 0.704051 0.258561
vt 0.709880 0.306386
vt 0.754407 0.580593
vt 0.705117 0.592781
vt 0.652562 0.602784
vt 0.598761 0.610217
vt 0.545784 0.614794
vt 0.010393 0.191564
vt 0.698154 0.206751
vt 0.607779 0.656580
vt 0.555356 0.664013
vt 0.010393 0.349340
vt -0.000000 0.297089
vt 0.708530 0.204632
vt 0.724406 0.254404
vt 0.739431 0.300351
vt 0.759830 0.608473
vt 0.712018 0.628266
vt 0.660677 0.644510
vt 0.767702 0.633565
vt 0.722038 0.660202
vt 0.672458 0.682063
vt 0.620869 0.698306
vt 0.569253 0.708309
vt 0.060378 0.442855
vt 0.030781 0.398559
vt 0.718295 0.200528
vt 0.243815 0.540904
vt 0.743560 0.246354
vt 0.767238 0.288664
vt 0.142345 0.510123
vt 0.098049 0.480526
vt 0.727073 0.194597
vt 0.760778 0.234720
vt 0.792234 0.271774
vt 0.788420 0.325833
vt 0.820234 0.304336
vt 0.734790 0.687361
vt 0.687453 0.713998
vt 0.637531 0.733791
vt 0.586941 0.745980
vt 0.813458 0.250330
vt 0.847247 0.277042
vt 0.378848 0.572886
vt 0.426184 0.599523
vt 0.413432 0.626682
vt 0.363853 0.604821
vt 0.328925 0.553092
vt 0.312264 0.588577
vt 0.278335 0.540904
vt 0.260648 0.578574
vt 0.191564 0.530510
vt 0.734526 0.187067
vt 0.775397 0.219949
vt 0.349340 0.530510
vt 0.297089 0.540904
vt 0.740367 0.178227
vt 0.786856 0.202609
vt 0.830094 0.225156
vt 0.459096 0.653319
vt 0.451224 0.678411
vt 0.403413 0.658617
vt 0.352071 0.642374
vt 0.299173 0.630303
vt 0.246750 0.622871
vt 0.396511 0.694102
vt 0.343956 0.684100
vt 0.290156 0.676667
vt 0.237178 0.672090
vt 0.442855 0.480526
vt 0.398559 0.510123
vt 0.744374 0.168416
vt 0.794715 0.183365
vt 0.841503 0.197219
vt 0.445802 0.706291
vt 0.746390 0.158013
vt 0.540904 0.243815
vt 0.798671 0.162959
vt 0.847247 0.167593
vt 0.443037 0.735889
vt 0.392993 0.731773
vt 0.339819 0.728396
vt 0.285559 0.725886
vt 0.232298 0.724340
vt 0.480526 0.442855
vt 0.392993 0.770182
vt 0.339819 0.773559
vt 0.285559 0.776069
vt 0.232298 0.777615
vt 0.510123 0.398559
vt 0.746340 0.147417
vt 0.530510 0.191564
vt 0.798572 0.142173
vt 0.847104 0.137416
vt 0.443037 0.766066
vt 0.510123 0.142345
vt 0.744225 0.137034
vt 0.794423 0.121806
vt 0.841080 0.107849
vt 0.445802 0.795664
vt 0.396511 0.807852
vt 0.343956 0.817855
vt 0.290156 0.825288
vt 0.237178 0.829865
vt 0.530510 0.349340
vt 0.352071 0.859581
vt 0.299173 0.871652
vt 0.246750 0.879084
vt 0.740126 0.127264
vt 0.786383 0.102643
vt 0.829407 0.080027
vt 0.451224 0.823544
vt 0.403413 0.843337
vt 0.774760 0.085417
vt 0.812533 0.055020
vt 0.459096 0.848636
vt 0.413432 0.875273
vt 0.363853 0.897134
vt 0.312264 0.913378
vt 0.260648 0.923380
vt 0.734201 0.118483
vt 0.194784 0.923789
vt 0.143685 0.911412
vt 0.158689 0.870336
vt 0.210712 0.880182
vt 0.726677 0.111027
vt 0.760001 0.070793
vt 0.791107 0.033789
vt 0.044385 0.868675
vt -0.000000 0.839957
vt 0.009023 0.815256
vt 0.055869 0.837236
vt 0.092901 0.892803
vt 0.106405 0.855835
vt 0.742674 0.059331
vt 0.765952 0.017149
vt 0.015727 0.787656
vt 0.064402 0.802108
vt 0.116439 0.814528
vt 0.169839 0.824439
vt 0.222548 0.831458
vt 0.717844 0.105184
vt 0.176704 0.775484
vt 0.229837 0.779489
vt 0.708040 0.101178
vt 0.723445 0.051472
vt 0.738035 0.005740
vt 0.019856 0.758217
vt 0.069657 0.764640
vt 0.122618 0.770471
vt 0.021250 0.728072
vt 0.071431 0.726273
vt 0.124704 0.725355
vt 0.179022 0.725355
vt 0.232298 0.726271
vt 0.697644 0.099162
vt 0.703051 0.047519
vt 0.708429 0.000000
vt 0.687054 0.099215
vt 0.682278 0.047622
vt 0.678271 0.000150
vt 0.019856 0.698378
vt 0.069657 0.688480
vt 0.122618 0.680915
vt 0.176704 0.675976
vt 0.229837 0.673851
vt 0.015727 0.670277
vt 0.064402 0.652714
vt 0.116439 0.638859
vt 0.169839 0.629245
vt 0.222548 0.624242
vt 0.676677 0.101334
vt 0.661923 0.051779
vt 0.648720 0.006185
s 1
usemtl Material.006
f 222/1/1 39/2/1 4/3/1
f 223/4/2 222/1/2 4/3/2 5/5/2
f 1/6/3 223/4/3 5/5/3 6/7/3
f 224/8/4 1/9/4 6/10/4 7/11/4
f 2/12/5 224/8/5 7/11/5 8/13/5
f 225/14/6 2/12/6 8/13/6 9/15/6
f 3/16/7 225/14/7 9/15/7 10/17/7
f 10/18/8 9/19/8 16/20/8 17/21/8
f 4/3/9 39/2/9 11/22/9
f 5/5/10 4/3/10 11/22/10 12/23/10
f 6/7/11 5/5/11 12/23/11 13/24/11
f 7/25/12 6/26/12 13/27/12 14/28/12
f 8/29/13 7/25/13 14/28/13 15/30/13
f 9/19/14 8/29/14 15/30/14 16/20/14
f 13/24/15 12/23/15 19/31/15 20/32/15
f 14/28/16 13/27/16 20/33/16 21/34/16
f 15/30/17 14/28/17 21/34/17 22/35/17
f 16/20/18 15/30/18 22/35/18 23/36/18
f 17/21/19 16/20/19 23/36/19 24/37/19
f 11/22/20 39/2/20 18/38/20
f 12/23/21 11/22/21 18/38/21 19/31/21
f 24/37/22 23/36/22 30/39/22 31/40/22
f 18/38/23 39/2/23 25/41/23
f 19/31/24 18/38/24 25/41/24 26/42/24
f 20/32/25 19/31/25 26/42/25 27/43/25
f 21/34/26 20/33/26 27/44/26 28/45/26
f 22/35/27 21/34/27 28/45/27 29/46/27
f 23/36/28 22/35/28 29/46/28 30/39/28
f 28/45/29 27/44/29 34/47/29 35/48/29
f 29/46/30 28/45/30 35/48/30 36/49/30
f 30/39/31 29/46/31 36/49/31 37/50/31
f 31/40/32 30/39/32 37/50/32 38/51/32
f 25/41/33 39/2/33 32/52/33
f 26/42/34 25/41/34 32/52/34 33/53/34
f 27/43/35 26/42/35 33/53/35 34/54/35
f 32/52/36 39/2/36 40/55/36
f 33/53/37 32/52/37 40/55/37 41/56/37
f 34/54/38 33/53/38 41/56/38 42/57/38
f 35/48/39 34/47/39 42/58/39 43/59/39
f 36/49/40 35/48/40 43/59/40 44/60/40
f 37/50/41 36/49/41 44/60/41 45/61/41
f 38/51/42 37/50/42 45/61/42 46/62/42
f 44/60/43 43/59/43 50/63/43 51/64/43
f 45/61/44 44/60/44 51/64/44 52/65/44
f 46/62/45 45/61/45 52/65/45 53/66/45
f 40/55/46 39/2/46 47/67/46
f 41/56/47 40/55/47 47/67/47 48/68/47
f 42/57/48 41/56/48 48/68/48 49/69/48
f 43/59/49 42/58/49 49/70/49 50/63/49
f 47/67/50 39/2/50 54/71/50
f 48/68/51 47/67/51 54/71/51 55/72/51
f 49/69/52 48/68/52 55/72/52 56/73/52
f 50/63/53 49/70/53 56/74/53 57/75/53
f 51/64/54 50/63/54 57/75/54 58/76/54
f 52/65/55 51/64/55 58/76/55 59/77/55
f 53/66/56 52/65/56 59/77/56 60/78/56
f 179/79/57 186/80/57 165/81/57
f 58/82/58 57/83/58 64/84/58 65/85/58
f 59/86/59 58/82/59 65/85/59 66/87/59
f 60/88/60 59/86/60 66/87/60 67/89/60
f 165/81/57 172/90/57 179/79/57
f 54/71/61 39/2/61 61/91/61
f 55/72/62 54/71/62 61/91/62 62/92/62
f 56/73/63 55/72/63 62/92/63 63/93/63
f 57/75/64 56/74/64 63/94/64 64/95/64
f 62/92/65 61/91/65 68/96/65 69/97/65
f 63/93/66 62/92/66 69/97/66 70/98/66
f 64/84/67 63/99/67 70/100/67 71/101/67
f 65/85/68 64/84/68 71/101/68 72/102/68
f 66/87/69 65/85/69 72/102/69 73/103/69
f 67/89/70 66/87/70 73/103/70 74/104/70
f 151/105/57 158/106/57 165/81/57
f 61/91/71 39/2/71 68/96/71
f 73/103/72 72/102/72 79/107/72 80/108/72
f 74/104/73 73/103/73 80/108/73 81/109/73
f 137/110/57 144/111/57 151/105/57
f 68/96/74 39/2/74 75/112/74
f 69/97/75 68/96/75 75/112/75 76/113/75
f 70/98/76 69/97/76 76/113/76 77/114/76
f 71/101/77 70/100/77 77/115/77 78/116/77
f 72/102/78 71/101/78 78/116/78 79/107/78
f 76/113/79 75/112/79 82/117/79 83/118/79
f 77/114/80 76/113/80 83/118/80 84/119/80
f 78/116/81 77/115/81 84/120/81 85/121/81
f 79/107/82 78/116/82 85/121/82 86/122/82
f 80/108/83 79/107/83 86/122/83 87/123/83
f 81/109/84 80/108/84 87/123/84 88/124/84
f 130/125/57 137/110/57 109/126/57
f 75/112/85 39/2/85 82/117/85
f 165/81/57 193/127/57 221/128/57
f 87/123/86 86/122/86 93/129/86 94/130/86
f 88/124/87 87/123/87 94/130/87 95/131/87
f 123/132/57 130/125/57 109/126/57
f 82/117/88 39/2/88 89/133/88
f 137/110/57 165/81/57 221/128/57
f 83/118/89 82/117/89 89/133/89 90/134/89
f 84/119/90 83/118/90 90/134/90 91/135/90
f 85/121/91 84/120/91 91/136/91 92/137/91
f 86/122/92 85/121/92 92/137/92 93/129/92
f 91/135/93 90/134/93 97/138/93 98/139/93
f 92/137/94 91/136/94 98/140/94 99/141/94
f 93/129/95 92/137/95 99/141/95 100/142/95
f 94/130/96 93/129/96 100/142/96 101/143/96
f 95/131/97 94/130/97 101/143/97 102/144/97
f 109/126/57 116/145/57 123/132/57
f 89/133/98 39/2/98 96/146/98
f 109/126/57 137/110/57 221/128/57
f 90/134/99 89/133/99 96/146/99 97/138/99
f 102/144/100 101/143/100 108/147/100 109/148/100
f 95/149/57 102/150/57 109/126/57
f 96/146/101 39/2/101 103/151/101
f 137/110/57 151/105/57 165/81/57
f 97/138/102 96/146/102 103/151/102 104/152/102
f 98/139/103 97/138/103 104/152/103 105/153/103
f 99/141/104 98/140/104 105/154/104 106/155/104
f 100/142/105 99/141/105 106/155/105 107/156/105
f 101/143/106 100/142/106 107/156/106 108/147/106
f 106/155/107 105/154/107 112/157/107 113/158/107
f 107/156/108 106/155/108 113/158/108 114/159/108
f 108/147/109 107/156/109 114/159/109 115/160/109
f 109/148/110 108/147/110 115/160/110 116/161/110
f 81/162/57 88/163/57 95/149/57
f 103/151/111 39/2/111 110/164/111
f 95/149/57 109/126/57 53/165/57
f 104/152/112 103/151/112 110/164/112 111/166/112
f 105/153/113 104/152/113 111/166/113 112/167/113
f 67/168/57 74/169/57 81/162/57
f 110/164/114 39/2/114 117/170/114
f 81/162/57 95/149/57 53/165/57
f 111/166/115 110/164/115 117/170/115 118/171/115
f 112/167/116 111/166/116 118/171/116 119/172/116
f 113/173/117 112/167/117 119/172/117 120/174/117
f 114/159/118 113/158/118 120/175/118 121/176/118
f 115/160/119 114/159/119 121/176/119 122/177/119
f 116/161/120 115/160/120 122/177/120 123/178/120
f 120/174/121 119/172/121 126/179/121 127/180/121
f 121/181/122 120/182/122 127/183/122 128/184/122
f 122/185/123 121/181/123 128/184/123 129/186/123
f 123/187/124 122/185/124 129/186/124 130/188/124
f 53/165/57 60/189/57 67/168/57
f 117/170/125 39/2/125 124/190/125
f 53/165/57 67/168/57 81/162/57
f 118/171/126 117/170/126 124/190/126 125/191/126
f 119/172/127 118/171/127 125/191/127 126/179/127
f 38/192/57 46/193/57 53/165/57
f 124/190/128 39/2/128 131/194/128
f 38/192/57 53/165/57 221/128/57
f 125/191/129 124/190/129 131/194/129 132/195/129
f 126/179/130 125/191/130 132/195/130 133/196/130
f 127/183/131 126/197/131 133/198/131 134/199/131
f 128/184/132 127/183/132 134/199/132 135/200/132
f 129/186/133 128/184/133 135/200/133 136/201/133
f 130/188/134 129/186/134 136/201/134 137/202/134
f 135/200/135 134/199/135 141/203/135 142/204/135
f 136/201/136 135/200/136 142/204/136 143/205/136
f 137/202/137 136/201/137 143/205/137 144/206/137
f 24/207/57 31/208/57 38/192/57
f 131/194/138 39/2/138 138/209/138
f 24/207/57 38/192/57 221/128/57
f 132/195/139 131/194/139 138/209/139 139/210/139
f 133/196/140 132/195/140 139/210/140 140/211/140
f 134/199/141 133/198/141 140/212/141 141/203/141
f 138/209/142 39/2/142 145/213/142
f 214/214/57 221/128/57 193/127/57
f 139/210/143 138/209/143 145/213/143 146/215/143
f 140/211/144 139/210/144 146/215/144 147/216/144
f 141/203/145 140/212/145 147/217/145 148/218/145
f 142/204/146 141/203/146 148/218/146 149/219/146
f 143/205/147 142/204/147 149/219/147 150/220/147
f 144/206/148 143/205/148 150/220/148 151/221/148
f 17/222/57 24/207/57 221/128/57
f 149/219/149 148/218/149 155/223/149 156/224/149
f 150/220/150 149/219/150 156/224/150 157/225/150
f 151/221/151 150/220/151 157/225/151 158/226/151
f 10/227/57 17/222/57 221/128/57
f 145/213/152 39/2/152 152/228/152
f 207/229/57 214/214/57 193/127/57
f 146/215/153 145/213/153 152/228/153 153/230/153
f 147/216/154 146/215/154 153/230/154 154/231/154
f 148/218/155 147/217/155 154/232/155 155/223/155
f 193/127/57 200/233/57 207/229/57
f 153/230/156 152/228/156 159/234/156 160/235/156
f 154/231/157 153/230/157 160/235/157 161/236/157
f 155/223/158 154/232/158 161/237/158 162/238/158
f 156/224/159 155/223/159 162/238/159 163/239/159
f 157/225/160 156/224/160 163/239/160 164/240/160
f 158/226/161 157/225/161 164/240/161 165/241/161
f 221/128/57 3/242/57 10/227/57
f 152/228/162 39/2/162 159/234/162
f 164/240/163 163/239/163 170/243/163 171/244/163
f 165/241/164 164/240/164 171/244/164 172/245/164
f 221/128/57 53/165/57 109/126/57
f 159/234/165 39/2/165 166/246/165
f 186/80/57 193/127/57 165/81/57
f 160/235/166 159/234/166 166/246/166 167/247/166
f 161/236/167 160/235/167 167/247/167 168/248/167
f 162/238/168 161/237/168 168/249/168 169/250/168
f 163/239/169 162/238/169 169/250/169 170/243/169
f 168/248/170 167/247/170 174/251/170 175/252/170
f 169/250/171 168/249/171 175/253/171 176/254/171
f 170/243/172 169/250/172 176/254/172 177/255/172
f 171/244/173 170/243/173 177/255/173 178/256/173
f 172/245/174 171/244/174 178/256/174 179/257/174
f 166/246/175 39/2/175 173/258/175
f 167/247/176 166/246/176 173/258/176 174/251/176
f 179/259/177 178/260/177 185/261/177 186/262/177
f 173/258/178 39/2/178 180/263/178
f 174/251/179 173/258/179 180/263/179 181/264/179
f 175/252/180 174/251/180 181/264/180 182/265/180
f 176/266/181 175/267/181 182/268/181 183/269/181
f 177/270/182 176/266/182 183/269/182 184/271/182
f 178/260/183 177/270/183 184/271/183 185/261/183
f 182/265/184 181/264/184 188/272/184 189/273/184
f 183/269/185 182/268/185 189/274/185 190/275/185
f 184/271/186 183/269/186 190/275/186 191/276/186
f 185/261/187 184/271/187 191/276/187 192/277/187
f 186/262/188 185/261/188 192/277/188 193/278/188
f 180/263/189 39/2/189 187/279/189
f 181/264/190 180/263/190 187/279/190 188/272/190
f 193/278/191 192/277/191 199/280/191 200/281/191
f 187/279/192 39/2/192 194/282/192
f 188/272/193 187/279/193 194/282/193 195/283/193
f 189/273/194 188/272/194 195/283/194 196/284/194
f 190/275/195 189/274/195 196/285/195 197/286/195
f 191/276/196 190/275/196 197/286/196 198/287/196
f 192/277/197 191/276/197 198/287/197 199/280/197
f 197/286/198 196/285/198 203/288/198 204/289/198
f 198/287/199 197/286/199 204/289/199 205/290/199
f 199/280/200 198/287/200 205/290/200 206/291/200
f 200/281/201 199/280/201 206/291/201 207/292/201
f 194/282/202 39/2/202 201/293/202
f 195/283/203 194/282/203 201/293/203 202/294/203
f 196/284/204 195/283/204 202/294/204 203/295/204
f 201/293/205 39/2/205 208/296/205
f 202/294/206 201/293/206 208/296/206 209/297/206
f 203/295/207 202/294/207 209/297/207 210/298/207
f 204/289/208 203/288/208 210/299/208 211/300/208
f 205/290/209 204/289/209 211/300/209 212/301/209
f 206/291/210 205/290/210 212/301/210 213/302/210
f 207/292/211 206/291/211 213/302/211 214/303/211
f 211/300/212 210/299/212 217/304/212 218/305/212
f 212/301/213 211/300/213 218/305/213 219/306/213
f 213/302/214 212/301/214 219/306/214 220/307/214
f 214/303/215 213/302/215 220/307/215 221/308/215
f 208/296/216 39/2/216 215/309/216
f 209/297/217 208/296/217 215/309/217 216/310/217
f 210/298/218 209/297/218 216/310/218 217/311/218
f 215/309/219 39/2/219 222/1/219
f 216/310/220 215/309/220 222/1/220 223/4/220
f 217/311/221 216/310/221 223/4/221 1/6/221
f 218/305/222 217/304/222 1/9/222 224/8/222
f 219/306/223 218/305/223 224/8/223 2/12/223
f 220/307/224 219/306/224 2/12/224 225/14/224
f 221/308/225 220/307/225 225/14/225 3/16/225
