mtllib gummi_cylinder.mtl
o Cylinder
v -0.195090 1.500000 -0.980785
v -0.382683 1.500000 -0.923880
v -0.555570 1.500000 -0.831470
v -0.707107 1.500000 -0.707107
v -0.831470 1.500000 -0.555570
v -0.923880 1.500000 -0.382683
v -0.980785 1.500000 -0.195090
v -1.000000 1.500000 -0.000000
v -0.980785 1.500000 0.195090
v -0.923880 1.500000 0.382683
v -0.831470 1.500000 0.555570
v -0.707107 1.500000 0.707107
v -0.555570 1.500000 0.831470
v -0.382683 1.500000 0.923880
v -0.195090 1.500000 0.980785
v 0.000000 1.500000 1.000000
v 0.195090 1.500000 0.980785
v 0.382683 1.500000 0.923880
v 0.555570 1.500000 0.831470
v 0.707107 1.500000 0.707107
v 0.831470 1.500000 0.555570
v 0.923880 1.500000 0.382683
v 0.980785 1.500000 0.195090
v 1.000000 1.500000 -0.000000
v 0.980785 1.500000 -0.195090
v 0.923880 1.500000 -0.382683
v 0.831470 1.500000 -0.555570
v 0.707107 1.500000 -0.707107
v 0.555570 1.500000 -0.831470
v 0.382683 1.500000 -0.923880
v 0.195090 1.500000 -0.980785
v 0.000000 1.500000 -1.000000
v 0.000000 -0.500000 -1.000000
v 0.195090 -0.500000 -0.980785
v 0.382683 -0.500000 -0.923880
v 0.555570 -0.500000 -0.831470
v 0.707107 -0.500000 -0.707107
v 0.831470 -0.500000 -0.555570
v 0.923880 -0.500000 -0.382683
v 0.980785 -0.500000 -0.195090
v 1.000000 -0.500000 0.000000
v 0.980785 -0.500000 0.195090
v 0.923880 -0.500000 0.382683
v 0.831470 -0.500000 0.555570
v 0.707107 -0.500000 0.707107
v 0.555570 -0.500000 0.831470
v 0.382683 -0.500000 0.923880
v 0.195090 -0.500000 0.980785
v 0.000000 -0.500000 1.000000
v -0.195090 -0.500000 0.980785
v -0.382683 -0.500000 0.923880
v -0.555570 -0.500000 0.831470
v -0.707107 -0.500000 0.707107
v -0.831470 -0.500000 0.555570
v -0.923880 -0.500000 0.382683
v -0.980785 -0.500000 0.195090
v -1.000000 -0.500000 0.000000
v -0.980785 -0.500000 -0.195090
v -0.923880 -0.500000 -0.382683
v -0.831470 -0.500000 -0.555570
v -0.707107 -0.500000 -0.707107
v -0.555570 -0.500000 -0.831470
v -0.382683 -0.500000 -0.923880
v -0.195090 -0.500000 -0.980785
v -0.858132 -0.500000 0.364608
v -0.701501 -0.500000 0.517698
v -0.516910 -0.500000 0.648479
v -0.311455 -0.500000 0.751923
v -0.093031 -0.500000 0.824055
v 0.129969 -0.500000 0.862104
v 0.348975 -0.500000 0.864608
v -0.848170 -0.500000 0.150828
v -0.662579 -0.500000 0.293046
v -0.450360 -0.500000 0.421189
v -0.219669 -0.500000 0.530331
v 0.020630 -0.500000 0.616278
v 0.261301 -0.500000 0.675729
v 0.493096 -0.500000 0.706398
v -0.803100 -0.500000 -0.074813
v -0.593816 -0.500000 0.046560
v -0.360974 -0.500000 0.164364
v -0.113524 -0.500000 0.274073
v 0.139026 -0.500000 0.371470
v 0.386970 -0.500000 0.452813
v 0.620780 -0.500000 0.514976
v -0.725888 -0.500000 -0.300672
v -0.500000 -0.500000 -0.207106
v -0.254898 -0.500000 -0.105581
v 0.000000 -0.500000 -0.000000
v 0.254898 -0.500000 0.105581
v 0.500000 -0.500000 0.207106
v 0.725888 -0.500000 0.300672
v -0.620780 -0.500000 -0.514976
v -0.386970 -0.500000 -0.452813
v -0.139026 -0.500000 -0.371470
v 0.113524 -0.500000 -0.274073
v 0.360974 -0.500000 -0.164364
v 0.593816 -0.500000 -0.046560
v 0.803100 -0.500000 0.074813
v -0.493096 -0.500000 -0.706398
v -0.261301 -0.500000 -0.675729
v -0.020630 -0.500000 -0.616278
v 0.219669 -0.500000 -0.530331
v 0.450360 -0.500000 -0.421189
v 0.662579 -0.500000 -0.293046
v 0.848170 -0.500000 -0.150828
v -0.348975 -0.500000 -0.864608
v -0.129969 -0.500000 -0.862104
v 0.093031 -0.500000 -0.824054
v 0.311455 -0.500000 -0.751923
v 0.516910 -0.500000 -0.648479
v 0.701501 -0.500000 -0.517698
v 0.858132 -0.500000 -0.364608
v 0.858132 1.500000 -0.364608
v 0.701501 1.500000 -0.517699
v 0.516910 1.500000 -0.648479
v 0.311455 1.500000 -0.751923
v 0.093031 1.500000 -0.824055
v -0.129969 1.500000 -0.862104
v -0.348975 1.500000 -0.864608
v 0.848170 1.500000 -0.150828
v 0.662579 1.500000 -0.293046
v 0.450360 1.500000 -0.421189
v 0.219669 1.500000 -0.530331
v -0.020630 1.500000 -0.616278
v -0.261301 1.500000 -0.675729
v -0.493096 1.500000 -0.706398
v 0.803100 1.500000 0.074813
v 0.593816 1.500000 -0.046560
v 0.360974 1.500000 -0.164364
v 0.113524 1.500000 -0.274073
v -0.139026 1.500000 -0.371470
v -0.386970 1.500000 -0.452813
v -0.620780 1.500000 -0.514976
v 0.725888 1.500000 0.300672
v 0.500000 1.500000 0.207106
v 0.254898 1.500000 0.105581
v 0.000000 1.500000 -0.000000
v -0.254898 1.500000 -0.105581
v -0.500000 1.500000 -0.207106
v -0.725888 1.500000 -0.300672
v 0.620780 1.500000 0.514976
v 0.386970 1.500000 0.452813
v 0.139026 1.500000 0.371470
v -0.113524 1.500000 0.274073
v -0.360974 1.500000 0.164364
v -0.593816 1.500000 0.046560
v -0.803100 1.500000 -0.074813
v 0.493096 1.500000 0.706398
v 0.261301 1.500000 0.675729
v 0.020630 1.500000 0.616278
v -0.219669 1.500000 0.530331
v -0.450360 1.500000 0.421189
v -0.662579 1.500000 0.293046
v -0.848170 1.500000 0.150828
v 0.348975 1.500000 0.864607
v 0.129969 1.500000 0.862104
v -0.093031 1.500000 0.824054
v -0.311455 1.500000 0.751923
v -0.516910 1.500000 0.648479
v -0.701501 1.500000 0.517698
v -0.858132 1.500000 0.364608
vn -0.3827 -0.0000 -0.9239
vn -0.1951 -0.0000 -0.9808
vn -0.9239 -0.0000 -0.3827
vn -0.8315 -0.0000 -0.5556
vn 0.7071 -0.0000 0.7071
vn 0.5556 -0.0000 0.8315
vn -0.7071 -0.0000 -0.7071
vn 0.1951 -0.0000 -0.9808
vn 0.3827 -0.0000 -0.9239
vn 0.9239 -0.0000 -0.3827
vn 0.9808 -0.0000 -0.1951
vn -0.5556 -0.0000 -0.8315
vn -0.1951 -0.0000 0.9808
vn -0.3827 -0.0000 0.9239
vn -0.9239 -0.0000 0.3827
vn -0.9808 -0.0000 0.1951
vn -0.5556 -0.0000 0.8315
vn 0.7071 -0.0000 -0.7071
vn 0.8315 -0.0000 -0.5556
vn -1.0000 -0.0000 -0.0000
vn -0.9808 -0.0000 -0.1951
vn -0.7071 -0.0000 0.7071
vn -0.8315 -0.0000 0.5556
vn 0.1951 -0.0000 0.9808
vn -0.0000 -0.0000 1.0000
vn 0.3827 -0.0000 0.9239
vn 0.5556 -0.0000 -0.8315
vn 1.0000 -0.0000 -0.0000
vn 0.9808 -0.0000 0.1951
vn 0.9239 -0.0000 0.3827
vn 0.8315 -0.0000 0.5556
vn -0.0000 -0.0000 -1.0000
vn -0.0000 -1.0000 -0.0000
vn -0.0000 1.0000 -0.0000
vt 0.062500 1.000000
vt 0.031250 1.000000
vt 0.031250 0.500000
vt 0.062500 0.500000
vt 0.187500 0.500000
vt 0.187500 1.000000
vt 0.156250 1.000000
vt 0.156250 0.500000
vt 0.625000 0.500000
vt 0.625000 1.000000
vt 0.593750 1.000000
vt 0.593750 0.500000
vt 0.125000 1.000000
vt 0.125000 0.500000
vt 0.968750 0.500000
vt 0.968750 1.000000
vt 0.937500 1.000000
vt 0.937500 0.500000
vt 0.812500 1.000000
vt 0.781250 1.000000
vt 0.781250 0.500000
vt 0.812500 0.500000
vt 0.093750 1.000000
vt 0.093750 0.500000
vt 0.468750 0.500000
vt 0.468750 1.000000
vt 0.437500 1.000000
vt 0.437500 0.500000
vt 0.312500 1.000000
vt 0.281250 1.000000
vt 0.281250 0.500000
vt 0.312500 0.500000
vt 0.406250 1.000000
vt 0.406250 0.500000
vt 0.875000 0.500000
vt 0.875000 1.000000
vt 0.843750 1.000000
vt 0.843750 0.500000
vt 0.250000 1.000000
vt 0.218750 1.000000
vt 0.218750 0.500000
vt 0.250000 0.500000
vt 0.375000 0.500000
vt 0.375000 1.000000
vt 0.343750 1.000000
vt 0.343750 0.500000
vt 0.531250 0.500000
vt 0.531250 1.000000
vt 0.500000 1.000000
vt 0.500000 0.500000
vt 0.562500 1.000000
vt 0.562500 0.500000
vt 0.906250 1.000000
vt 0.906250 0.500000
vt 0.750000 1.000000
vt 0.718750 1.000000
vt 0.718750 0.500000
vt 0.750000 0.500000
vt 0.687500 1.000000
vt 0.687500 0.500000
vt 0.656250 1.000000
vt 0.656250 0.500000
vt 1.000000 1.000000
vt 1.000000 0.500000
vt 0.087502 0.331964
vt 0.085542 0.390668
vt 0.042441 0.358533
vt 0.037674 0.303720
vt 0.146325 0.357892
vt 0.136542 0.417875
vt 0.210535 0.380100
vt 0.192706 0.438875
vt 0.276262 0.397307
vt 0.251072 0.452617
vt 0.339576 0.408429
vt 0.308592 0.458329
vt 0.396698 0.412628
vt 0.362282 0.455555
vt 0.444188 0.409365
vt 0.409366 0.444188
vt 0.055812 0.409366
vt 0.028453 0.368420
vt 0.009608 0.322923
vt 0.090635 0.444188
vt 0.131581 0.471547
vt 0.177078 0.490393
vt 0.225378 0.500000
vt 0.274623 0.500000
vt 0.322923 0.490393
vt 0.368420 0.471547
vt 0.000000 1.000000
vt 0.000000 0.500000
vt 0.177078 0.990393
vt 0.131581 0.971547
vt 0.179978 0.973511
vt 0.225378 1.000000
vt 0.000000 0.274623
vt 0.471547 0.368419
vt 0.424848 0.363260
vt 0.366387 0.352219
vt 0.299979 0.336196
vt 0.229881 0.316324
vt 0.160556 0.293903
vt 0.096439 0.270332
vt 0.041696 0.247033
vt 0.000000 0.225378
vt 0.490393 0.322922
vt 0.445650 0.309349
vt 0.387992 0.291859
vt 0.321314 0.271632
vt 0.250000 0.250000
vt 0.178686 0.228368
vt 0.112008 0.208141
vt 0.054350 0.190651
vt 0.009607 0.177078
vt 0.500000 0.274622
vt 0.458304 0.252967
vt 0.403562 0.229668
vt 0.339444 0.206097
vt 0.270119 0.183676
vt 0.200021 0.163804
vt 0.133614 0.147781
vt 0.075152 0.136740
vt 0.028453 0.131581
vt 0.500000 0.225377
vt 0.462326 0.196280
vt 0.412498 0.168036
vt 0.353675 0.142108
vt 0.289465 0.119900
vt 0.223738 0.102693
vt 0.160424 0.091571
vt 0.103302 0.087372
vt 0.055812 0.090635
vt 0.490393 0.177077
vt 0.457559 0.141467
vt 0.414458 0.109332
vt 0.363458 0.082125
vt 0.307294 0.061125
vt 0.248928 0.047383
vt 0.191408 0.041671
vt 0.137718 0.044445
vt 0.090634 0.055812
vt 0.471547 0.131580
vt 0.444188 0.090634
vt 0.409366 0.055812
vt 0.368419 0.028453
vt 0.322922 0.009607
vt 0.274622 0.000000
vt 0.225377 0.000000
vt 0.177077 0.009607
vt 0.131580 0.028453
vt 0.233178 0.965756
vt 0.274623 1.000000
vt 0.288478 0.948933
vt 0.322923 0.990393
vt 0.343042 0.924068
vt 0.368420 0.971547
vt 0.394030 0.892515
vt 0.409366 0.944188
vt 0.438741 0.855880
vt 0.444188 0.909365
vt 0.474745 0.815954
vt 0.471547 0.868419
vt 0.500000 0.774622
vt 0.490393 0.822922
vt 0.090635 0.944188
vt 0.137849 0.938123
vt 0.193053 0.922861
vt 0.252982 0.899600
vt 0.314088 0.869900
vt 0.372732 0.835593
vt 0.425366 0.798687
vt 0.468726 0.761264
vt 0.500000 0.725377
vt 0.055812 0.909366
vt 0.100608 0.895195
vt 0.155792 0.872961
vt 0.217797 0.844291
vt 0.282672 0.811125
vt 0.346291 0.775610
vt 0.404577 0.739983
vt 0.453723 0.706451
vt 0.490393 0.677077
vt 0.028453 0.868420
vt 0.069688 0.846379
vt 0.122826 0.817976
vt 0.184277 0.785129
vt 0.250000 0.750000
vt 0.315723 0.714871
vt 0.377174 0.682024
vt 0.430312 0.653621
vt 0.471547 0.631580
vt 0.009608 0.822923
vt 0.046277 0.793549
vt 0.095423 0.760017
vt 0.153709 0.724390
vt 0.217328 0.688875
vt 0.282203 0.655709
vt 0.344208 0.627039
vt 0.399392 0.604805
vt 0.444188 0.590634
vt 0.000000 0.774623
vt 0.031274 0.738736
vt 0.074634 0.701313
vt 0.127268 0.664407
vt 0.185912 0.630100
vt 0.247018 0.600400
vt 0.306947 0.577139
vt 0.362151 0.561877
vt 0.409366 0.555812
vt 0.000000 0.725378
vt 0.025255 0.684046
vt 0.061259 0.644120
vt 0.105970 0.607485
vt 0.156958 0.575932
vt 0.211522 0.551067
vt 0.266822 0.534244
vt 0.320022 0.526489
vt 0.368419 0.528453
vt 0.009607 0.677078
vt 0.028453 0.631581
vt 0.055812 0.590635
vt 0.090634 0.555812
vt 0.131580 0.528453
vt 0.177077 0.509607
vt 0.225377 0.500000
vt 0.274622 0.500000
vt 0.322922 0.509607
s 1
usemtl Material
f 2/1/1 1/2/2 64/3/2 63/4/1
f 59/5/3 6/6/3 5/7/4 60/8/4
f 45/9/5 20/10/5 19/11/6 46/12/6
f 5/7/4 4/13/7 61/14/7 60/8/4
f 34/15/8 31/16/8 30/17/9 35/18/9
f 26/19/10 25/20/11 40/21/11 39/22/10
f 3/23/12 2/1/1 63/4/1 62/24/12
f 50/25/13 15/26/13 14/27/14 51/28/14
f 10/29/15 9/30/16 56/31/16 55/32/15
f 14/27/14 13/33/17 52/34/17 51/28/14
f 37/35/18 28/36/18 27/37/19 38/38/19
f 8/39/20 7/40/21 58/41/21 57/42/20
f 53/43/22 12/44/22 11/45/23 54/46/23
f 48/47/24 17/48/24 16/49/25 49/50/25
f 27/37/19 26/19/10 39/22/10 38/38/19
f 56/31/16 9/30/16 8/39/20 57/42/20
f 19/11/6 18/51/26 47/52/26 46/12/6
f 30/17/9 29/53/27 36/54/27 35/18/9
f 13/33/17 12/44/22 53/43/22 52/34/17
f 24/55/28 23/56/29 42/57/29 41/58/28
f 29/53/27 28/36/18 37/35/18 36/54/27
f 42/57/29 23/56/29 22/59/30 43/60/30
f 11/45/23 10/29/15 55/32/15 54/46/23
f 40/21/11 25/20/11 24/55/28 41/58/28
f 22/59/30 21/61/31 44/62/31 43/60/30
f 18/51/26 17/48/24 48/47/24 47/52/26
f 7/40/21 6/6/3 59/5/3 58/41/21
f 21/61/31 20/10/5 45/9/5 44/62/31
f 16/49/25 15/26/13 50/25/13 49/50/25
f 61/14/7 4/13/7 3/23/12 62/24/12
f 32/63/32 31/16/8 34/15/8 33/64/32
f 101/65/33 100/66/33 107/67/33 108/68/33
f 94/69/33 93/70/33 100/66/33 101/65/33
f 87/71/33 86/72/33 93/70/33 94/69/33
f 80/73/33 79/74/33 86/72/33 87/71/33
f 73/75/33 72/76/33 79/74/33 80/73/33
f 66/77/33 65/78/33 72/76/33 73/75/33
f 53/79/33 54/80/33 65/78/33 66/77/33
f 107/67/33 62/81/33 63/82/33 64/83/33
f 100/66/33 61/84/33 62/81/33 107/67/33
f 93/70/33 60/85/33 61/84/33 100/66/33
f 86/72/33 59/86/33 60/85/33 93/70/33
f 79/74/33 58/87/33 59/86/33 86/72/33
f 72/76/33 57/88/33 58/87/33 79/74/33
f 65/78/33 56/89/33 57/88/33 72/76/33
f 54/80/33 55/90/33 56/89/33 65/78/33
f 64/3/2 1/2/2 32/91/32 33/92/32
f 26/93/34 27/94/34 114/95/34 25/96/34
f 108/68/33 107/67/33 64/83/33 33/97/33
f 52/98/33 53/79/33 66/77/33 67/99/33
f 67/99/33 66/77/33 73/75/33 74/100/33
f 74/100/33 73/75/33 80/73/33 81/101/33
f 81/101/33 80/73/33 87/71/33 88/102/33
f 88/102/33 87/71/33 94/69/33 95/103/33
f 95/103/33 94/69/33 101/65/33 102/104/33
f 102/104/33 101/65/33 108/68/33 109/105/33
f 109/105/33 108/68/33 33/97/33 34/106/33
f 51/107/33 52/98/33 67/99/33 68/108/33
f 68/108/33 67/99/33 74/100/33 75/109/33
f 75/109/33 74/100/33 81/101/33 82/110/33
f 82/110/33 81/101/33 88/102/33 89/111/33
f 89/111/33 88/102/33 95/103/33 96/112/33
f 96/112/33 95/103/33 102/104/33 103/113/33
f 103/113/33 102/104/33 109/105/33 110/114/33
f 110/114/33 109/105/33 34/106/33 35/115/33
f 50/116/33 51/107/33 68/108/33 69/117/33
f 69/117/33 68/108/33 75/109/33 76/118/33
f 76/118/33 75/109/33 82/110/33 83/119/33
f 83/119/33 82/110/33 89/111/33 90/120/33
f 90/120/33 89/111/33 96/112/33 97/121/33
f 97/121/33 96/112/33 103/113/33 104/122/33
f 104/122/33 103/113/33 110/114/33 111/123/33
f 111/123/33 110/114/33 35/115/33 36/124/33
f 49/125/33 50/116/33 69/117/33 70/126/33
f 70/126/33 69/117/33 76/118/33 77/127/33
f 77/127/33 76/118/33 83/119/33 84/128/33
f 84/128/33 83/119/33 90/120/33 91/129/33
f 91/129/33 90/120/33 97/121/33 98/130/33
f 98/130/33 97/121/33 104/122/33 105/131/33
f 105/131/33 104/122/33 111/123/33 112/132/33
f 112/132/33 111/123/33 36/124/33 37/133/33
f 48/134/33 49/125/33 70/126/33 71/135/33
f 71/135/33 70/126/33 77/127/33 78/136/33
f 78/136/33 77/127/33 84/128/33 85/137/33
f 85/137/33 84/128/33 91/129/33 92/138/33
f 92/138/33 91/129/33 98/130/33 99/139/33
f 99/139/33 98/130/33 105/131/33 106/140/33
f 106/140/33 105/131/33 112/132/33 113/141/33
f 113/141/33 112/132/33 37/133/33 38/142/33
f 47/143/33 48/134/33 71/135/33 46/144/33
f 46/144/33 71/135/33 78/136/33 45/145/33
f 45/145/33 78/136/33 85/137/33 44/146/33
f 44/146/33 85/137/33 92/138/33 43/147/33
f 43/147/33 92/138/33 99/139/33 42/148/33
f 42/148/33 99/139/33 106/140/33 41/149/33
f 41/149/33 106/140/33 113/141/33 40/150/33
f 40/150/33 113/141/33 38/142/33 39/151/33
f 25/96/34 114/95/34 121/152/34 24/153/34
f 24/153/34 121/152/34 128/154/34 23/155/34
f 23/155/34 128/154/34 135/156/34 22/157/34
f 22/157/34 135/156/34 142/158/34 21/159/34
f 21/159/34 142/158/34 149/160/34 20/161/34
f 20/161/34 149/160/34 156/162/34 19/163/34
f 19/163/34 156/162/34 17/164/34 18/165/34
f 27/94/34 28/166/34 115/167/34 114/95/34
f 114/95/34 115/167/34 122/168/34 121/152/34
f 121/152/34 122/168/34 129/169/34 128/154/34
f 128/154/34 129/169/34 136/170/34 135/156/34
f 135/156/34 136/170/34 143/171/34 142/158/34
f 142/158/34 143/171/34 150/172/34 149/160/34
f 149/160/34 150/172/34 157/173/34 156/162/34
f 156/162/34 157/173/34 16/174/34 17/164/34
f 28/166/34 29/175/34 116/176/34 115/167/34
f 115/167/34 116/176/34 123/177/34 122/168/34
f 122/168/34 123/177/34 130/178/34 129/169/34
f 129/169/34 130/178/34 137/179/34 136/170/34
f 136/170/34 137/179/34 144/180/34 143/171/34
f 143/171/34 144/180/34 151/181/34 150/172/34
f 150/172/34 151/181/34 158/182/34 157/173/34
f 157/173/34 158/182/34 15/183/34 16/174/34
f 29/175/34 30/184/34 117/185/34 116/176/34
f 116/176/34 117/185/34 124/186/34 123/177/34
f 123/177/34 124/186/34 131/187/34 130/178/34
f 130/178/34 131/187/34 138/188/34 137/179/34
f 137/179/34 138/188/34 145/189/34 144/180/34
f 144/180/34 145/189/34 152/190/34 151/181/34
f 151/181/34 152/190/34 159/191/34 158/182/34
f 158/182/34 159/191/34 14/192/34 15/183/34
f 30/184/34 31/193/34 118/194/34 117/185/34
f 117/185/34 118/194/34 125/195/34 124/186/34
f 124/186/34 125/195/34 132/196/34 131/187/34
f 131/187/34 132/196/34 139/197/34 138/188/34
f 138/188/34 139/197/34 146/198/34 145/189/34
f 145/189/34 146/198/34 153/199/34 152/190/34
f 152/190/34 153/199/34 160/200/34 159/191/34
f 159/191/34 160/200/34 13/201/34 14/192/34
f 31/193/34 32/202/34 119/203/34 118/194/34
f 118/194/34 119/203/34 126/204/34 125/195/34
f 125/195/34 126/204/34 133/205/34 132/196/34
f 132/196/34 133/205/34 140/206/34 139/197/34
f 139/197/34 140/206/34 147/207/34 146/198/34
f 146/198/34 147/207/34 154/208/34 153/199/34
f 153/199/34 154/208/34 161/209/34 160/200/34
f 160/200/34 161/209/34 12/210/34 13/201/34
f 32/202/34 1/211/34 120/212/34 119/203/34
f 119/203/34 120/212/34 127/213/34 126/204/34
f 126/204/34 127/213/34 134/214/34 133/205/34
f 133/205/34 134/214/34 141/215/34 140/206/34
f 140/206/34 141/215/34 148/216/34 147/207/34
f 147/207/34 148/216/34 155/217/34 154/208/34
f 154/208/34 155/217/34 162/218/34 161/209/34
f 161/209/34 162/218/34 11/219/34 12/210/34
f 1/211/34 2/220/34 3/221/34 120/212/34
f 120/212/34 3/221/34 4/222/34 127/213/34
f 127/213/34 4/222/34 5/223/34 134/214/34
f 134/214/34 5/223/34 6/224/34 141/215/34
f 141/215/34 6/224/34 7/225/34 148/216/34
f 148/216/34 7/225/34 8/226/34 155/217/34
f 155/217/34 8/226/34 9/227/34 162/218/34
f 162/218/34 9/227/34 10/228/34 11/219/34
