# Blender 4.5.3 LTS
# www.blender.org
mtllib gummi_cone.mtl
o Cylinder
v 0.000000 -0.500000 -1.000000
v 0.000000 0.500000 -0.442115
v 0.195090 -0.500000 -0.980785
v 0.086252 0.500000 -0.433619
v 0.382683 -0.500000 -0.923880
v 0.169190 0.500000 -0.408461
v 0.555570 -0.500000 -0.831470
v 0.245626 0.500000 -0.367605
v 0.707107 -0.500000 -0.707107
v 0.312622 0.500000 -0.312622
v 0.831470 -0.500000 -0.555570
v 0.367605 0.500000 -0.245626
v 0.923880 -0.500000 -0.382683
v 0.408461 0.500000 -0.169190
v 0.980785 -0.500000 -0.195090
v 0.433620 0.500000 -0.086252
v 1.000000 -0.500000 0.000000
v 0.442115 0.500000 -0.000000
v 0.980785 -0.500000 0.195090
v 0.433620 0.500000 0.086252
v 0.923880 -0.500000 0.382683
v 0.408461 0.500000 0.169190
v 0.831470 -0.500000 0.555570
v 0.367605 0.500000 0.245626
v 0.707107 -0.500000 0.707107
v 0.312622 0.500000 0.312622
v 0.555570 -0.500000 0.831470
v 0.245626 0.500000 0.367605
v 0.382683 -0.500000 0.923880
v 0.169190 0.500000 0.408461
v 0.195090 -0.500000 0.980785
v 0.086252 0.500000 0.433619
v 0.000000 -0.500000 1.000000
v 0.000000 0.500000 0.442115
v -0.195090 -0.500000 0.980785
v -0.086252 0.500000 0.433619
v -0.382683 -0.500000 0.923880
v -0.169190 0.500000 0.408461
v -0.555570 -0.500000 0.831470
v -0.245626 0.500000 0.367605
v -0.707107 -0.500000 0.707107
v -0.312622 0.500000 0.312622
v -0.831470 -0.500000 0.555570
v -0.367605 0.500000 0.245626
v -0.923880 -0.500000 0.382683
v -0.408460 0.500000 0.169190
v -0.980785 -0.500000 0.195090
v -0.433619 0.500000 0.086252
v -1.000000 -0.500000 0.000000
v -0.442114 0.500000 -0.000000
v -0.980785 -0.500000 -0.195090
v -0.433619 0.500000 -0.086252
v -0.923880 -0.500000 -0.382683
v -0.408460 0.500000 -0.169190
v -0.831470 -0.500000 -0.555570
v -0.367605 0.500000 -0.245626
v -0.707107 -0.500000 -0.707107
v -0.312622 0.500000 -0.312622
v -0.555570 -0.500000 -0.831470
v -0.245626 0.500000 -0.367605
v -0.382683 -0.500000 -0.923880
v -0.169190 0.500000 -0.408461
v -0.195090 -0.500000 -0.980785
v -0.086252 0.500000 -0.433619
vn 0.0857 0.4854 -0.8701
vn 0.2538 0.4854 -0.8366
vn 0.4121 0.4854 -0.7711
vn 0.5546 0.4854 -0.6758
vn 0.6758 0.4854 -0.5546
vn 0.7711 0.4854 -0.4121
vn 0.8366 0.4854 -0.2538
vn 0.8701 0.4854 -0.0857
vn 0.8701 0.4854 0.0857
vn 0.8366 0.4854 0.2538
vn 0.7711 0.4854 0.4121
vn 0.6758 0.4854 0.5546
vn 0.5546 0.4854 0.6758
vn 0.4121 0.4854 0.7711
vn 0.2538 0.4854 0.8366
vn 0.0857 0.4854 0.8701
vn -0.0857 0.4854 0.8701
vn -0.2538 0.4854 0.8366
vn -0.4121 0.4854 0.7711
vn -0.5546 0.4854 0.6758
vn -0.6758 0.4854 0.5546
vn -0.7711 0.4854 0.4121
vn -0.8366 0.4854 0.2538
vn -0.8701 0.4854 0.0857
vn -0.8701 0.4854 -0.0857
vn -0.8366 0.4854 -0.2538
vn -0.7711 0.4854 -0.4121
vn -0.6758 0.4854 -0.5546
vn -0.5546 0.4854 -0.6758
vn -0.4121 0.4854 -0.7711
vn -0.0000 1.0000 -0.0000
vn -0.2538 0.4854 -0.8366
vn -0.0857 0.4854 -0.8701
vn -0.0000 -1.0000 -0.0000
vt 1.000000 1.000000
vt 0.968750 0.500000
vt 1.000000 0.500000
vt 0.937500 1.000000
vt 0.937500 0.500000
vt 0.906250 0.500000
vt 0.906250 1.000000
vt 0.875000 0.500000
vt 0.843750 1.000000
vt 0.843750 0.500000
vt 0.812500 0.500000
vt 0.812500 1.000000
vt 0.781250 0.500000
vt 0.750000 1.000000
vt 0.750000 0.500000
vt 0.718750 0.500000
vt 0.687500 1.000000
vt 0.687500 0.500000
vt 0.656250 0.500000
vt 0.656250 1.000000
vt 0.625000 0.500000
vt 0.593750 1.000000
vt 0.593750 0.500000
vt 0.562500 0.500000
vt 0.562500 1.000000
vt 0.531250 0.500000
vt 0.500000 1.000000
vt 0.500000 0.500000
vt 0.468750 0.500000
vt 0.437500 1.000000
vt 0.437500 0.500000
vt 0.406250 0.500000
vt 0.406250 1.000000
vt 0.375000 0.500000
vt 0.343750 1.000000
vt 0.343750 0.500000
vt 0.312500 0.500000
vt 0.312500 1.000000
vt 0.281250 0.500000
vt 0.250000 1.000000
vt 0.250000 0.500000
vt 0.218750 0.500000
vt 0.218750 1.000000
vt 0.187500 0.500000
vt 0.156250 1.000000
vt 0.156250 0.500000
vt 0.125000 0.500000
vt 0.093750 1.000000
vt 0.093750 0.500000
vt 0.062500 0.500000
vt 0.028269 0.341844
vt 0.158156 0.028269
vt 0.471731 0.158156
vt 0.062500 1.000000
vt 0.031250 0.500000
vt 0.000000 1.000000
vt 0.000000 0.500000
vt 0.796822 0.014612
vt 0.514612 0.203178
vt 0.703178 0.485388
vt 0.968750 1.000000
vt 0.875000 1.000000
vt 0.781250 1.000000
vt 0.718750 1.000000
vt 0.625000 1.000000
vt 0.531250 1.000000
vt 0.468750 1.000000
vt 0.375000 1.000000
vt 0.281250 1.000000
vt 0.187500 1.000000
vt 0.125000 1.000000
vt 0.341844 0.471731
vt 0.296822 0.485388
vt 0.158156 0.471731
vt 0.250000 0.490000
vt 0.203178 0.485388
vt 0.116663 0.449553
vt 0.080294 0.419706
vt 0.050447 0.383337
vt 0.014612 0.296822
vt 0.010000 0.250000
vt 0.014612 0.203178
vt 0.028269 0.158156
vt 0.050447 0.116663
vt 0.080294 0.080294
vt 0.116663 0.050447
vt 0.203178 0.014612
vt 0.250000 0.010000
vt 0.296822 0.014612
vt 0.341844 0.028269
vt 0.383337 0.050447
vt 0.419706 0.080294
vt 0.449553 0.116663
vt 0.485388 0.203178
vt 0.490000 0.250000
vt 0.485388 0.296822
vt 0.471731 0.341844
vt 0.449553 0.383337
vt 0.419706 0.419706
vt 0.383337 0.449553
vt 0.031250 1.000000
vt 0.750000 0.490000
vt 0.796822 0.485388
vt 0.841844 0.471731
vt 0.883337 0.449553
vt 0.919706 0.419706
vt 0.949553 0.383337
vt 0.971731 0.341844
vt 0.985388 0.296822
vt 0.990000 0.250000
vt 0.985388 0.203178
vt 0.971731 0.158156
vt 0.949553 0.116663
vt 0.919706 0.080294
vt 0.883337 0.050447
vt 0.841844 0.028269
vt 0.750000 0.010000
vt 0.703178 0.014612
vt 0.658156 0.028269
vt 0.616663 0.050447
vt 0.580294 0.080294
vt 0.550447 0.116663
vt 0.528269 0.158156
vt 0.510000 0.250000
vt 0.514612 0.296822
vt 0.528269 0.341844
vt 0.550447 0.383337
vt 0.580294 0.419706
vt 0.616663 0.449553
vt 0.658156 0.471731
s 1
usemtl Material.005
f 2/1/1 3/2/1 1/3/1
f 3/2/2 6/4/2 5/5/2
f 6/4/3 7/6/3 5/5/3
f 8/7/4 9/8/4 7/6/4
f 9/8/5 12/9/5 11/10/5
f 12/9/6 13/11/6 11/10/6
f 14/12/7 15/13/7 13/11/7
f 15/13/8 18/14/8 17/15/8
f 18/14/9 19/16/9 17/15/9
f 19/16/10 22/17/10 21/18/10
f 22/17/11 23/19/11 21/18/11
f 24/20/12 25/21/12 23/19/12
f 25/21/13 28/22/13 27/23/13
f 28/22/14 29/24/14 27/23/14
f 30/25/15 31/26/15 29/24/15
f 31/26/16 34/27/16 33/28/16
f 34/27/17 35/29/17 33/28/17
f 35/29/18 38/30/18 37/31/18
f 38/30/19 39/32/19 37/31/19
f 40/33/20 41/34/20 39/32/20
f 41/34/21 44/35/21 43/36/21
f 44/35/22 45/37/22 43/36/22
f 46/38/23 47/39/23 45/37/23
f 47/39/24 50/40/24 49/41/24
f 50/40/25 51/42/25 49/41/25
f 52/43/26 53/44/26 51/42/26
f 53/44/27 56/45/27 55/46/27
f 56/45/28 57/47/28 55/46/28
f 57/47/29 60/48/29 59/49/29
f 60/48/30 61/50/30 59/49/30
f 54/51/31 38/52/31 22/53/31
f 62/54/32 63/55/32 61/50/32
f 63/55/33 2/56/33 1/57/33
f 31/58/34 47/59/34 63/60/34
f 2/1/1 4/61/1 3/2/1
f 3/2/2 4/61/2 6/4/2
f 6/4/3 8/7/3 7/6/3
f 8/7/4 10/62/4 9/8/4
f 9/8/5 10/62/5 12/9/5
f 12/9/6 14/12/6 13/11/6
f 14/12/7 16/63/7 15/13/7
f 15/13/8 16/63/8 18/14/8
f 18/14/9 20/64/9 19/16/9
f 19/16/10 20/64/10 22/17/10
f 22/17/11 24/20/11 23/19/11
f 24/20/12 26/65/12 25/21/12
f 25/21/13 26/65/13 28/22/13
f 28/22/14 30/25/14 29/24/14
f 30/25/15 32/66/15 31/26/15
f 31/26/16 32/66/16 34/27/16
f 34/27/17 36/67/17 35/29/17
f 35/29/18 36/67/18 38/30/18
f 38/30/19 40/33/19 39/32/19
f 40/33/20 42/68/20 41/34/20
f 41/34/21 42/68/21 44/35/21
f 44/35/22 46/38/22 45/37/22
f 46/38/23 48/69/23 47/39/23
f 47/39/24 48/69/24 50/40/24
f 50/40/25 52/43/25 51/42/25
f 52/43/26 54/70/26 53/44/26
f 53/44/27 54/70/27 56/45/27
f 56/45/28 58/71/28 57/47/28
f 57/47/29 58/71/29 60/48/29
f 60/48/30 62/54/30 61/50/30
f 6/72/31 4/73/31 62/74/31
f 4/73/31 2/75/31 62/74/31
f 2/75/31 64/76/31 62/74/31
f 62/74/31 60/77/31 58/78/31
f 58/78/31 56/79/31 54/51/31
f 54/51/31 52/80/31 50/81/31
f 50/81/31 48/82/31 46/83/31
f 46/83/31 44/84/31 42/85/31
f 42/85/31 40/86/31 38/52/31
f 38/52/31 36/87/31 34/88/31
f 34/88/31 32/89/31 38/52/31
f 32/89/31 30/90/31 38/52/31
f 30/90/31 28/91/31 26/92/31
f 26/92/31 24/93/31 22/53/31
f 22/53/31 20/94/31 18/95/31
f 18/95/31 16/96/31 14/97/31
f 14/97/31 12/98/31 10/99/31
f 10/99/31 8/100/31 6/72/31
f 62/74/31 58/78/31 6/72/31
f 58/78/31 54/51/31 6/72/31
f 54/51/31 50/81/31 46/83/31
f 46/83/31 42/85/31 54/51/31
f 42/85/31 38/52/31 54/51/31
f 30/90/31 26/92/31 38/52/31
f 26/92/31 22/53/31 38/52/31
f 22/53/31 18/95/31 14/97/31
f 14/97/31 10/99/31 22/53/31
f 10/99/31 6/72/31 22/53/31
f 6/72/31 54/51/31 22/53/31
f 62/54/32 64/101/32 63/55/32
f 63/55/33 64/101/33 2/56/33
f 63/60/34 1/102/34 3/103/34
f 3/103/34 5/104/34 7/105/34
f 7/105/34 9/106/34 11/107/34
f 11/107/34 13/108/34 15/109/34
f 15/109/34 17/110/34 19/111/34
f 19/111/34 21/112/34 23/113/34
f 23/113/34 25/114/34 27/115/34
f 27/115/34 29/116/34 31/58/34
f 31/58/34 33/117/34 35/118/34
f 35/118/34 37/119/34 39/120/34
f 39/120/34 41/121/34 43/122/34
f 43/122/34 45/123/34 47/59/34
f 47/59/34 49/124/34 51/125/34
f 51/125/34 53/126/34 55/127/34
f 55/127/34 57/128/34 59/129/34
f 59/129/34 61/130/34 63/60/34
f 63/60/34 3/103/34 15/109/34
f 3/103/34 7/105/34 15/109/34
f 7/105/34 11/107/34 15/109/34
f 15/109/34 19/111/34 31/58/34
f 19/111/34 23/113/34 31/58/34
f 23/113/34 27/115/34 31/58/34
f 31/58/34 35/118/34 47/59/34
f 35/118/34 39/120/34 47/59/34
f 39/120/34 43/122/34 47/59/34
f 47/59/34 51/125/34 63/60/34
f 51/125/34 55/127/34 63/60/34
f 55/127/34 59/129/34 63/60/34
f 63/60/34 15/109/34 31/58/34
