mtllib gummi_pie.mtl
o Cylinder
v 1.000000 -1.000000 -1.000000
v 1.000000 1.000000 -1.000000
v 1.000000 -1.000000 1.000000
v 1.000000 1.000000 1.000000
v 0.599819 -1.000000 0.961571
v 0.599819 1.000000 0.961571
v 0.224633 -1.000000 0.847759
v 0.224633 1.000000 0.847759
v -0.121140 -1.000000 0.662939
v -0.121140 1.000000 0.662939
v -0.420000 -1.000000 0.420000
v -0.420000 1.000000 0.420000
v -0.662939 -1.000000 0.121140
v -0.662939 1.000000 0.121140
v -0.847759 -1.000000 -0.224633
v -0.847759 1.000000 -0.224633
v -0.961571 -1.000000 -0.599819
v -0.961571 1.000000 -0.599819
v -1.000000 -1.000000 -1.000000
v -1.000000 1.000000 -1.000000
vn -0.9810 -0.0000 0.1939
vn -0.9954 -0.0000 0.0956
vn -0.8328 -0.0000 0.5536
vn -0.9239 -0.0000 0.3827
vn -0.7071 -0.0000 0.7071
vn -0.5536 -0.0000 0.8328
vn -0.0956 -0.0000 0.9954
vn -0.1939 -0.0000 0.9810
vn -0.3827 -0.0000 0.9239
vn -0.0000 1.0000 -0.0000
vn -0.0000 -1.0000 -0.0000
vn -0.0000 -0.0000 -1.0000
vn 1.0000 -0.0000 -0.0000
vt 0.930380 0.000000
vt 1.000000 0.000000
vt 1.000000 0.362098
vt 0.789777 -0.000000
vt 0.859397 0.000000
vt 0.859397 0.362098
vt 0.724196 -0.000000
vt 0.789777 0.362098
vt 0.934419 0.362098
vt 1.000000 0.724196
vt 0.724196 0.362098
vt 0.793816 0.724196
vt 0.724196 0.724196
vt 0.793816 0.362098
vt 0.864800 0.724196
vt 0.864800 0.362098
vt 0.934419 0.724196
vt 0.930380 0.362098
vt 0.585627 0.389661
vt 0.653555 0.369056
vt 0.432740 0.355141
vt 0.362098 0.362098
vt 0.362098 0.000000
vt 0.000000 0.000000
vt 0.000000 0.362098
vt 0.362098 0.724197
vt 0.000000 0.724196
vt 0.362098 0.724196
vt 0.369056 0.653555
vt 0.389661 0.585627
vt 0.423123 0.523026
vt 0.468154 0.468154
vt 0.523026 0.423123
vt 0.717239 0.070642
vt 0.696633 0.138569
vt 0.663172 0.201171
vt 0.618140 0.256042
vt 0.563269 0.301074
vt 0.500667 0.334535
s 1
usemtl Material.002
f 18/1/1 20/2/2 19/3/2
f 14/4/3 16/5/4 15/6/4
f 12/7/5 14/4/3 13/8/3
f 10/9/6 12/3/5 11/10/5
f 4/11/7 5/12/8 3/13/7
f 6/14/8 7/15/9 5/12/8
f 8/16/9 9/17/6 7/15/9
f 10/9/6 11/10/5 9/17/6
f 12/7/5 13/8/3 11/11/5
f 14/4/3 15/6/4 13/8/3
f 16/5/4 17/18/1 15/6/4
f 18/1/1 19/3/2 17/18/1
f 8/19/10 6/20/10 2/13/10
f 8/16/9 10/9/6 9/17/6
f 6/14/8 8/16/9 7/15/9
f 4/11/7 6/14/8 5/12/8
f 17/21/11 19/22/11 1/23/11
f 19/24/12 2/22/12 1/25/12
f 3/25/13 2/26/13 4/27/13
f 16/5/4 18/1/1 17/18/1
f 6/20/10 4/11/10 2/13/10
f 2/13/10 20/28/10 18/29/10
f 18/29/10 16/30/10 2/13/10
f 16/30/10 14/31/10 2/13/10
f 14/31/10 12/32/10 2/13/10
f 12/32/10 10/33/10 2/13/10
f 10/33/10 8/19/10 2/13/10
f 1/23/11 3/7/11 5/34/11
f 5/34/11 7/35/11 1/23/11
f 7/35/11 9/36/11 1/23/11
f 9/36/11 11/37/11 1/23/11
f 11/37/11 13/38/11 1/23/11
f 13/38/11 15/39/11 1/23/11
f 15/39/11 17/21/11 1/23/11
f 19/24/12 20/23/12 2/22/12
f 3/25/13 1/22/13 2/26/13
