mtllib gummi_fire.mtl
o fire
v -0.800000 -0.650000 -0.900000
v -1.000000 -1.000000 -1.000000
v 0.700000 -0.650000 -0.900000
v 1.000000 -1.000000 -1.000000
v -0.800000 -0.650000 0.900000
v -1.000000 -1.000000 1.000000
v 0.700000 -0.650000 0.900000
v 1.000000 -1.000000 1.000000
v 0.700000 0.779426 -0.900000
v 0.700000 0.779426 0.900000
v -0.800000 0.779426 -0.900000
v -0.800000 0.779426 0.900000
v 0.700000 -0.237714 0.330572
v 0.700000 -0.339055 0.178905
v 0.700000 -0.295854 0.259729
v 0.700000 -0.374641 0.000000
v 0.700000 -0.365658 0.091205
v 0.700000 -0.365658 -0.091205
v 0.700000 -0.339055 -0.178905
v 0.700000 -0.295854 -0.259729
v 0.700000 0.352588 -0.388712
v 0.700000 0.092859 -0.467500
v 0.700000 0.001654 -0.458517
v 0.700000 0.184063 -0.458517
v 0.700000 0.271763 -0.431914
v 0.700000 -0.237714 -0.330572
v 0.700000 -0.166871 -0.388712
v 0.700000 -0.086046 -0.431914
v 0.700000 0.092859 0.467500
v 0.700000 0.001654 0.458517
v 0.700000 0.184063 0.458517
v 0.700000 -0.166871 0.388712
v 0.700000 -0.086046 0.431914
v 0.700000 0.271763 0.431914
v 0.700000 0.352588 0.388712
v 0.700000 0.423431 0.330572
v 0.700000 0.560359 0.000000
v 0.700000 0.423431 -0.330572
v 0.700000 0.481571 -0.259729
v 0.700000 0.524772 -0.178905
v 0.700000 0.551376 -0.091205
v 0.700000 0.481571 0.259729
v 0.700000 0.524772 0.178905
v 0.700000 0.551376 0.091205
v 1.300000 0.556320 0.001225
v 1.300000 0.547337 0.092430
v 1.300000 0.520733 0.180130
v 1.300000 0.477532 0.260954
v 1.300000 0.419392 0.331798
v 1.300000 0.348549 0.389937
v 1.300000 0.267724 0.433139
v 1.300000 0.180024 0.459742
v 1.300000 0.088820 0.468725
v 1.300000 -0.002385 0.459742
v 1.300000 -0.090085 0.433139
v 1.300000 -0.170909 0.389937
v 1.300000 -0.241753 0.331798
v 1.300000 -0.299893 0.260954
v 1.300000 -0.343094 0.180130
v 1.300000 -0.369697 0.092430
v 1.300000 -0.378680 0.001225
v 1.300000 -0.369697 -0.089980
v 1.300000 -0.343094 -0.177679
v 1.300000 -0.299893 -0.258504
v 1.300000 -0.241753 -0.329347
v 1.300000 -0.170909 -0.387487
v 1.300000 -0.090085 -0.430689
v 1.300000 -0.002385 -0.457292
v 1.300000 0.088820 -0.466275
v 1.300000 0.180024 -0.457292
v 1.300000 0.267724 -0.430689
v 1.300000 0.348549 -0.387487
v 1.300000 0.419392 -0.329347
v 1.300000 0.477532 -0.258504
v 1.300000 0.520733 -0.177679
v 1.300000 0.547337 -0.089980
v 1.300000 0.473922 0.077826
v 1.300000 0.451578 0.151484
v 1.300000 0.415294 0.219368
v 1.300000 0.366463 0.278868
v 1.300000 0.306963 0.327699
v 1.300000 0.239079 0.363984
v 1.300000 0.165421 0.386327
v 1.300000 0.088820 0.393872
v 1.300000 0.012218 0.386327
v 1.300000 -0.061440 0.363984
v 1.300000 -0.129324 0.327699
v 1.300000 -0.188824 0.278868
v 1.300000 -0.237655 0.219368
v 1.300000 -0.273939 0.151484
v 1.300000 -0.296283 0.077826
v 1.300000 -0.303828 0.001225
v 1.300000 -0.296283 -0.075377
v 1.300000 -0.273939 -0.149035
v 1.300000 -0.237655 -0.216918
v 1.300000 -0.188824 -0.276419
v 1.300000 -0.129324 -0.325250
v 1.300000 -0.061440 -0.361534
v 1.300000 0.012218 -0.383878
v 1.300000 0.088820 -0.391423
v 1.300000 0.165421 -0.383878
v 1.300000 0.239079 -0.361534
v 1.300000 0.306963 -0.325250
v 1.300000 0.366463 -0.276419
v 1.300000 0.415294 -0.216918
v 1.300000 0.451578 -0.149035
v 1.300000 0.473922 -0.075377
v 1.300000 0.481461 0.001170
v 1.300000 0.020658 0.360916
v 1.300000 0.104805 0.343171
v 1.300000 0.187767 0.311430
v 1.300000 0.266357 0.266913
v 1.300000 0.337553 0.211330
v 1.300000 0.398621 0.146818
v 1.300000 0.447213 0.075856
v 1.300000 -0.046964 0.311034
v 1.300000 0.039949 0.281469
v 1.300000 0.128077 0.240139
v 1.300000 0.214033 0.188634
v 1.300000 0.294513 0.128931
v 1.300000 0.366424 0.063326
v 1.300000 0.427003 -0.005660
v 1.300000 -0.110798 0.247098
v 1.300000 -0.025521 0.205250
v 1.300000 0.063730 0.154932
v 1.300000 0.153527 0.098079
v 1.300000 0.240417 0.036874
v 1.300000 0.321062 -0.026330
v 1.300000 0.392363 -0.089103
v 1.300000 -0.167692 0.172620
v 1.300000 -0.087871 0.119285
v 1.300000 -0.001259 0.061413
v 1.300000 0.088815 0.001228
v 1.300000 0.178889 -0.058958
v 1.300000 0.265503 -0.116831
v 1.300000 0.345327 -0.170168
v 1.300000 -0.214727 0.091556
v 1.300000 -0.143430 0.028784
v 1.300000 -0.062787 -0.034419
v 1.300000 0.024103 -0.095623
v 1.300000 0.113900 -0.152477
v 1.300000 0.203154 -0.202796
v 1.300000 0.288434 -0.244646
v 1.300000 -0.249367 0.008112
v 1.300000 -0.188791 -0.060872
v 1.300000 -0.116881 -0.126476
v 1.300000 -0.036402 -0.186178
v 1.300000 0.049554 -0.237684
v 1.300000 0.137683 -0.279015
v 1.300000 0.224600 -0.308582
v 1.300000 -0.269579 -0.073452
v 1.300000 -0.220988 -0.144406
v 1.300000 -0.159920 -0.208909
v 1.300000 -0.088723 -0.264484
v 1.300000 -0.010132 -0.308994
v 1.300000 0.072831 -0.340729
v 1.300000 0.156980 -0.358470
vn -0.8682 0.4961 -0.0000
vn -0.0000 1.0000 -0.0000
vn 0.7593 0.6508 -0.0000
vn -0.0000 -0.0000 1.0000
vn -0.0000 0.2747 -0.9615
vn -0.0000 -1.0000 -0.0000
vn -0.0000 -0.0000 -1.0000
vn -0.0000 0.2747 0.9615
vn -0.0007 0.2003 0.9797
vn -0.0007 0.1936 0.9811
vn 0.0007 0.3832 0.9237
vn 0.0007 0.3894 0.9211
vn 1.0000 -0.0000 -0.0000
vn 0.0055 0.9328 0.3603
vn 0.0055 0.9306 0.3661
vn 0.0063 0.9862 0.1656
vn 0.0063 0.9870 0.1609
vn 0.0021 0.5636 0.8261
vn 0.0021 0.5580 0.8298
vn 0.0034 0.7114 0.7028
vn 0.0034 0.7160 0.6981
vn 0.0070 0.9328 -0.3604
vn 0.0070 0.9306 -0.3660
vn 0.0068 0.8373 -0.5468
vn 0.0068 0.8408 -0.5414
vn 0.0070 0.9869 -0.1610
vn 0.0070 0.9862 -0.1654
vn 0.0046 0.8408 0.5413
vn 0.0045 0.8373 0.5468
vn 0.0062 0.7114 -0.7028
vn 0.0062 0.7160 -0.6981
vn 0.0045 0.3894 -0.9211
vn 0.0045 0.3832 -0.9236
vn 0.0033 0.1936 -0.9811
vn 0.0033 0.2002 -0.9797
vn -0.0045 -0.3832 0.9236
vn -0.0045 -0.3894 0.9211
vn -0.0033 -0.2002 0.9797
vn -0.0033 -0.1936 0.9811
vn 0.0067 1.0000 -0.0001
vn 0.0067 1.0000 0.0001
vn 0.0021 0.0034 -1.0000
vn 0.0020 -0.0034 -1.0000
vn 0.0007 -0.2003 -0.9797
vn 0.0007 -0.1936 -0.9811
vn -0.0034 -0.7114 -0.7028
vn -0.0034 -0.7160 -0.6981
vn -0.0046 -0.8408 -0.5413
vn -0.0045 -0.8373 -0.5468
vn -0.0070 -0.9862 0.1654
vn -0.0070 -0.9869 0.1610
vn -0.0070 -0.9328 0.3604
vn -0.0070 -0.9306 0.3660
vn -0.0063 -0.9862 -0.1656
vn -0.0063 -0.9870 -0.1609
vn -0.0067 -1.0000 0.0001
vn -0.0067 -1.0000 -0.0001
vn 0.0055 0.5580 -0.8298
vn 0.0055 0.5636 -0.8261
vn -0.0055 -0.5580 0.8298
vn -0.0055 -0.5636 0.8261
vn -0.0007 -0.3832 -0.9237
vn -0.0007 -0.3894 -0.9211
vn -0.0021 -0.5636 -0.8261
vn -0.0021 -0.5580 -0.8298
vn -0.0055 -0.9306 -0.3661
vn -0.0055 -0.9328 -0.3603
vn -0.0062 -0.7114 0.7028
vn -0.0062 -0.7160 0.6981
vn -0.0068 -0.8373 0.5468
vn -0.0068 -0.8408 0.5414
vn -0.0020 0.0034 1.0000
vn -0.0021 -0.0034 1.0000
vn -1.0000 -0.0000 -0.0000
vt 0.195342 0.330723
vt 0.239271 0.330723
vt 0.241711 0.376407
vt 0.192901 0.376407
vt 0.219304 0.206501
vt 0.182697 0.206501
vt 0.182697 0.177189
vt 0.219304 0.177189
vt 0.126475 0.330724
vt 0.170404 0.330724
vt 0.172844 0.376465
vt 0.124035 0.376465
vt 0.132811 0.335154
vt 0.132811 0.148932
vt 0.169418 0.148932
vt 0.169418 0.335154
vt 0.172844 0.376431
vt 0.177725 0.330812
vt 0.214333 0.330812
vt 0.221654 0.376431
vt 0.231507 0.177189
vt 0.182697 0.144620
vt 0.231507 0.144620
vt 0.177725 0.144620
vt 0.214333 0.144620
vt 0.216411 0.148242
vt 0.216411 0.206204
vt 0.158449 0.206204
vt 0.158449 0.148242
vt 0.110128 0.503303
vt 0.110128 0.606050
vt 0.095626 0.606050
vt 0.095626 0.503303
vt 0.148440 0.173141
vt 0.126475 0.144620
vt 0.170404 0.144620
vt 0.148440 0.294873
vt 0.053788 0.503303
vt 0.053788 0.606050
vt 0.049389 0.606050
vt 0.049389 0.503303
vt 0.082260 0.503303
vt 0.082260 0.606050
vt 0.070546 0.606050
vt 0.070546 0.503303
vt 0.053788 0.708797
vt 0.060932 0.606050
vt 0.060932 0.708797
vt 0.049389 0.708797
vt 0.060932 0.503303
vt 0.070546 0.708797
vt 0.095626 0.708797
vt 0.110128 0.708797
vt 0.154793 0.503303
vt 0.154793 0.606050
vt 0.140291 0.606050
vt 0.140291 0.503303
vt 0.047905 0.708797
vt 0.047905 0.606050
vt 0.125209 0.708797
vt 0.125209 0.606050
vt 0.140291 0.708797
vt 0.179873 0.708797
vt 0.179873 0.606050
vt 0.189487 0.606050
vt 0.189487 0.708797
vt 0.201030 0.503303
vt 0.201030 0.606050
vt 0.196631 0.606050
vt 0.196631 0.503303
vt 0.201030 0.708797
vt 0.201030 0.606050
vt 0.202515 0.606050
vt 0.202515 0.708797
vt 0.082260 0.708797
vt 0.047903 0.606050
vt 0.047903 0.503303
vt 0.202515 0.503303
vt 0.168158 0.503303
vt 0.168158 0.606050
vt 0.154793 0.708797
vt 0.154793 0.606050
vt 0.168158 0.708797
vt 0.196631 0.708797
vt 0.179873 0.503303
vt 0.189487 0.503303
vt 0.125209 0.503303
vt 0.150665 0.174310
vt 0.148438 0.173142
vt 0.146214 0.174310
vt 0.144073 0.177774
vt 0.152806 0.177774
vt 0.154778 0.183399
vt 0.142101 0.183399
vt 0.140372 0.190968
vt 0.156507 0.190968
vt 0.157926 0.200192
vt 0.138953 0.200192
vt 0.137899 0.210715
vt 0.158980 0.210715
vt 0.159630 0.222133
vt 0.137030 0.234007
vt 0.137249 0.222133
vt 0.159849 0.234007
vt 0.137249 0.245881
vt 0.159630 0.245881
vt 0.158980 0.257300
vt 0.137899 0.257300
vt 0.138953 0.267823
vt 0.157926 0.267823
vt 0.156507 0.277046
vt 0.140372 0.277046
vt 0.142101 0.284615
vt 0.154778 0.284615
vt 0.152806 0.290240
vt 0.144073 0.290240
vt 0.146214 0.293704
vt 0.150665 0.293704
vt 0.195342 0.144620
vt 0.239271 0.144620
vt 0.245958 0.609587
vt 0.238511 0.620732
vt 0.230049 0.613787
vt 0.236303 0.604427
vt 0.558450 0.941137
vt 0.547193 0.941137
vt 0.536152 0.938941
vt 0.548128 0.931639
vt 0.245958 0.545124
vt 0.251087 0.557508
vt 0.240611 0.560686
vt 0.236303 0.550285
vt 0.117612 0.570654
vt 0.120227 0.557508
vt 0.130703 0.560686
vt 0.128507 0.571727
vt 0.229034 0.630210
vt 0.222088 0.621747
vt 0.253701 0.570644
vt 0.242806 0.571719
vt 0.125356 0.545124
vt 0.135011 0.550285
vt 0.217889 0.637657
vt 0.212728 0.628002
vt 0.132803 0.533979
vt 0.141266 0.540924
vt 0.205505 0.642786
vt 0.202327 0.632310
vt 0.142281 0.524502
vt 0.149226 0.532964
vt 0.192359 0.645401
vt 0.191286 0.634506
vt 0.153426 0.517055
vt 0.158586 0.526710
vt 0.178955 0.645401
vt 0.180028 0.634506
vt 0.165809 0.511925
vt 0.168987 0.522402
vt 0.165809 0.642786
vt 0.168987 0.632310
vt 0.178955 0.509310
vt 0.180028 0.520205
vt 0.153426 0.637657
vt 0.158586 0.628002
vt 0.192359 0.509310
vt 0.191286 0.520205
vt 0.142281 0.630210
vt 0.149226 0.621747
vt 0.205505 0.511925
vt 0.202327 0.522402
vt 0.132803 0.620732
vt 0.141266 0.613787
vt 0.217889 0.517055
vt 0.212728 0.526710
vt 0.125356 0.609587
vt 0.135011 0.604427
vt 0.253702 0.584058
vt 0.242808 0.582985
vt 0.229033 0.524502
vt 0.222088 0.532964
vt 0.120227 0.597204
vt 0.130703 0.594026
vt 0.251088 0.597204
vt 0.240611 0.594026
vt 0.238511 0.533979
vt 0.230049 0.540924
vt 0.117612 0.584058
vt 0.128507 0.582985
vt 0.525751 0.934633
vt 0.538694 0.924915
vt 0.516390 0.928378
vt 0.529966 0.917539
vt 0.508430 0.920418
vt 0.522155 0.909155
vt 0.502176 0.911058
vt 0.515455 0.899858
vt 0.497868 0.900657
vt 0.509923 0.889859
vt 0.495671 0.889616
vt 0.505170 0.879294
vt 0.495671 0.878358
vt 0.497868 0.867317
vt 0.569492 0.938941
vt 0.558693 0.926885
vt 0.549460 0.918119
vt 0.540866 0.909477
vt 0.532858 0.900371
vt 0.525489 0.890740
vt 0.518689 0.880625
vt 0.511893 0.869859
vt 0.502176 0.856916
vt 0.579892 0.934633
vt 0.568692 0.921353
vt 0.559575 0.911319
vt 0.551069 0.901779
vt 0.542903 0.892127
vt 0.535029 0.882234
vt 0.527332 0.872031
vt 0.519269 0.861131
vt 0.508430 0.847556
vt 0.589253 0.928378
vt 0.577989 0.914652
vt 0.569206 0.903951
vt 0.560961 0.893905
vt 0.552822 0.883987
vt 0.544682 0.874068
vt 0.536438 0.864023
vt 0.527654 0.853320
vt 0.516390 0.839595
vt 0.597213 0.920418
vt 0.586374 0.906841
vt 0.578312 0.895943
vt 0.570614 0.885739
vt 0.562740 0.875847
vt 0.554574 0.866194
vt 0.546068 0.856654
vt 0.536951 0.846620
vt 0.525751 0.833341
vt 0.603468 0.911058
vt 0.593750 0.898113
vt 0.586954 0.887349
vt 0.580154 0.877234
vt 0.572785 0.867603
vt 0.564778 0.858497
vt 0.556183 0.849854
vt 0.546950 0.841088
vt 0.536151 0.829033
vt 0.607776 0.900657
vt 0.600473 0.888677
vt 0.595720 0.878115
vt 0.590188 0.868116
vt 0.583489 0.858819
vt 0.575677 0.850434
vt 0.566950 0.843058
vt 0.557515 0.836335
vt 0.547193 0.826837
vt 0.609972 0.889616
vt 0.609970 0.878350
vt 0.607776 0.867317
vt 0.603468 0.856916
vt 0.597213 0.847556
vt 0.589253 0.839595
vt 0.579893 0.833341
vt 0.569492 0.829033
vt 0.558450 0.826837
s 0
usemtl Material
f 5/1/1 1/2/1 2/3/1 6/4/1
f 12/5/2 10/6/2 9/7/2 11/8/2
f 3/9/3 7/10/3 8/11/3 4/12/3
f 7/13/4 10/14/4 12/15/4 5/16/4
f 2/17/5 1/18/5 3/19/5 4/20/5
f 2/21/6 4/7/6 8/22/6 6/23/6
f 1/18/7 11/24/7 9/25/7 3/19/7
f 7/26/8 5/27/8 6/28/8 8/29/8
s 1
f 31/30/9 52/31/10 51/32/11 34/33/12
s 0
f 37/34/13 9/35/13 10/36/13
f 7/10/13 3/9/13 16/37/13
s 1
f 43/38/14 47/39/15 46/40/16 44/41/17
f 35/42/18 50/43/19 49/44/20 36/45/21
f 40/46/22 75/39/23 74/47/24 39/48/25
f 41/49/26 76/40/27 75/39/23 40/46/22
f 42/50/28 48/47/29 47/39/15 43/38/14
f 39/48/25 74/47/24 73/44/30 38/51/31
f 25/52/32 71/32/33 70/31/34 24/53/35
f 33/54/36 55/55/37 54/56/38 30/57/39
f 37/58/40 45/59/41 76/40/27 41/49/26
f 22/60/42 69/61/43 68/56/44 23/62/45
f 26/63/46 65/64/47 64/65/48 20/66/49
f 17/67/50 60/68/51 59/69/52 14/70/53
f 36/45/21 49/44/20 48/47/29 42/50/28
f 18/71/54 62/72/55 61/73/56 16/74/57
f 38/51/31 73/44/30 72/43/58 21/75/59
f 44/41/17 46/40/16 45/76/41 37/77/40
f 16/78/57 61/73/56 60/68/51 17/67/50
f 24/53/35 70/31/34 69/61/43 22/60/42
f 32/79/60 56/80/61 55/55/37 33/54/36
f 28/81/62 67/82/63 66/80/64 27/83/65
f 19/84/66 63/69/67 62/72/55 18/71/54
f 13/85/68 57/64/69 56/80/61 32/79/60
f 20/66/49 64/65/48 63/69/67 19/84/66
f 15/86/70 58/65/71 57/64/69 13/85/68
f 29/87/72 53/61/73 52/31/10 31/30/9
f 14/70/53 59/69/52 58/65/71 15/86/70
f 21/75/59 72/43/58 71/32/33 25/52/32
f 27/83/65 66/80/64 65/64/47 26/63/46
f 34/33/12 51/32/11 50/43/19 35/42/18
f 30/57/39 54/56/38 53/61/73 29/87/72
s 0
f 44/88/13 37/34/13 10/36/13
f 9/35/13 37/89/13 41/90/13
f 9/35/13 41/90/13 40/91/13
f 43/92/13 44/88/13 10/36/13
f 42/93/13 43/92/13 10/36/13
f 9/35/13 40/91/13 39/94/13
f 9/35/13 39/94/13 38/95/13
f 36/96/13 42/93/13 10/36/13
f 35/97/13 36/96/13 10/36/13
f 9/35/13 38/95/13 21/98/13
f 9/35/13 21/98/13 25/99/13
f 34/100/13 35/97/13 10/36/13
f 31/101/13 34/100/13 10/36/13
f 3/9/13 9/35/13 22/102/13
f 9/35/13 25/99/13 24/103/13
f 9/35/13 24/103/13 22/102/13
f 31/101/13 10/36/13 29/104/13
f 10/36/13 7/10/13 29/104/13
f 3/9/13 22/102/13 23/105/13
f 30/106/13 29/104/13 7/10/13
f 33/107/13 30/106/13 7/10/13
f 3/9/13 23/105/13 28/108/13
f 3/9/13 28/108/13 27/109/13
f 32/110/13 33/107/13 7/10/13
f 13/111/13 32/110/13 7/10/13
f 3/9/13 27/109/13 26/112/13
f 3/9/13 26/112/13 20/113/13
f 15/114/13 13/111/13 7/10/13
f 14/115/13 15/114/13 7/10/13
f 3/9/13 20/113/13 19/116/13
f 3/9/13 19/116/13 18/117/13
f 17/118/13 14/115/13 7/10/13
f 3/9/13 18/117/13 16/37/13
f 16/37/13 17/118/13 7/10/13
f 5/1/74 12/119/74 11/120/74 1/2/74
s 1
f 23/62/45 68/56/44 67/82/63 28/81/62
s 0
f 48/121/13 49/122/13 80/123/13 79/124/13
f 84/125/13 85/126/13 86/127/13 109/128/13
f 75/129/13 76/130/13 107/131/13 106/132/13
f 62/133/13 63/134/13 94/135/13 93/136/13
f 49/122/13 50/137/13 81/138/13 80/123/13
f 76/130/13 45/139/13 108/140/13 107/131/13
f 63/134/13 64/141/13 95/142/13 94/135/13
f 50/137/13 51/143/13 82/144/13 81/138/13
f 64/141/13 65/145/13 96/146/13 95/142/13
f 51/143/13 52/147/13 83/148/13 82/144/13
f 65/145/13 66/149/13 97/150/13 96/146/13
f 52/147/13 53/151/13 84/152/13 83/148/13
f 66/149/13 67/153/13 98/154/13 97/150/13
f 53/151/13 54/155/13 85/156/13 84/152/13
f 67/153/13 68/157/13 99/158/13 98/154/13
f 54/155/13 55/159/13 86/160/13 85/156/13
f 68/157/13 69/161/13 100/162/13 99/158/13
f 55/159/13 56/163/13 87/164/13 86/160/13
f 69/161/13 70/165/13 101/166/13 100/162/13
f 56/163/13 57/167/13 88/168/13 87/164/13
f 70/165/13 71/169/13 102/170/13 101/166/13
f 57/167/13 58/171/13 89/172/13 88/168/13
f 71/169/13 72/173/13 103/174/13 102/170/13
f 58/171/13 59/175/13 90/176/13 89/172/13
f 45/139/13 46/177/13 77/178/13 108/140/13
f 72/173/13 73/179/13 104/180/13 103/174/13
f 59/175/13 60/181/13 91/182/13 90/176/13
f 46/177/13 47/183/13 78/184/13 77/178/13
f 73/179/13 74/185/13 105/186/13 104/180/13
f 60/181/13 61/187/13 92/188/13 91/182/13
f 47/183/13 48/121/13 79/124/13 78/184/13
f 74/185/13 75/129/13 106/132/13 105/186/13
f 61/187/13 62/133/13 93/136/13 92/188/13
f 109/128/13 86/127/13 87/189/13 116/190/13
f 116/190/13 87/189/13 88/191/13 123/192/13
f 123/192/13 88/191/13 89/193/13 130/194/13
f 130/194/13 89/193/13 90/195/13 137/196/13
f 137/196/13 90/195/13 91/197/13 144/198/13
f 144/198/13 91/197/13 92/199/13 151/200/13
f 151/200/13 92/199/13 93/201/13 94/202/13
f 83/203/13 84/125/13 109/128/13 110/204/13
f 110/204/13 109/128/13 116/190/13 117/205/13
f 117/205/13 116/190/13 123/192/13 124/206/13
f 124/206/13 123/192/13 130/194/13 131/207/13
f 131/207/13 130/194/13 137/196/13 138/208/13
f 138/208/13 137/196/13 144/198/13 145/209/13
f 145/209/13 144/198/13 151/200/13 152/210/13
f 152/210/13 151/200/13 94/202/13 95/211/13
f 82/212/13 83/203/13 110/204/13 111/213/13
f 111/213/13 110/204/13 117/205/13 118/214/13
f 118/214/13 117/205/13 124/206/13 125/215/13
f 125/215/13 124/206/13 131/207/13 132/216/13
f 132/216/13 131/207/13 138/208/13 139/217/13
f 139/217/13 138/208/13 145/209/13 146/218/13
f 146/218/13 145/209/13 152/210/13 153/219/13
f 153/219/13 152/210/13 95/211/13 96/220/13
f 81/221/13 82/212/13 111/213/13 112/222/13
f 112/222/13 111/213/13 118/214/13 119/223/13
f 119/223/13 118/214/13 125/215/13 126/224/13
f 126/224/13 125/215/13 132/216/13 133/225/13
f 133/225/13 132/216/13 139/217/13 140/226/13
f 140/226/13 139/217/13 146/218/13 147/227/13
f 147/227/13 146/218/13 153/219/13 154/228/13
f 154/228/13 153/219/13 96/220/13 97/229/13
f 80/230/13 81/221/13 112/222/13 113/231/13
f 113/231/13 112/222/13 119/223/13 120/232/13
f 120/232/13 119/223/13 126/224/13 127/233/13
f 127/233/13 126/224/13 133/225/13 134/234/13
f 134/234/13 133/225/13 140/226/13 141/235/13
f 141/235/13 140/226/13 147/227/13 148/236/13
f 148/236/13 147/227/13 154/228/13 155/237/13
f 155/237/13 154/228/13 97/229/13 98/238/13
f 79/239/13 80/230/13 113/231/13 114/240/13
f 114/240/13 113/231/13 120/232/13 121/241/13
f 121/241/13 120/232/13 127/233/13 128/242/13
f 128/242/13 127/233/13 134/234/13 135/243/13
f 135/243/13 134/234/13 141/235/13 142/244/13
f 142/244/13 141/235/13 148/236/13 149/245/13
f 149/245/13 148/236/13 155/237/13 156/246/13
f 156/246/13 155/237/13 98/238/13 99/247/13
f 78/248/13 79/239/13 114/240/13 115/249/13
f 115/249/13 114/240/13 121/241/13 122/250/13
f 122/250/13 121/241/13 128/242/13 129/251/13
f 129/251/13 128/242/13 135/243/13 136/252/13
f 136/252/13 135/243/13 142/244/13 143/253/13
f 143/253/13 142/244/13 149/245/13 150/254/13
f 150/254/13 149/245/13 156/246/13 157/255/13
f 157/255/13 156/246/13 99/247/13 100/256/13
f 77/257/13 78/248/13 115/249/13 108/258/13
f 108/258/13 115/249/13 122/250/13 107/259/13
f 107/259/13 122/250/13 129/251/13 106/260/13
f 106/260/13 129/251/13 136/252/13 105/261/13
f 105/261/13 136/252/13 143/253/13 104/262/13
f 104/262/13 143/253/13 150/254/13 103/263/13
f 103/263/13 150/254/13 157/255/13 102/264/13
f 102/264/13 157/255/13 100/256/13 101/265/13
