mtllib shell_gummi_pie.mtl
o Pie
v 0.800000 -0.800000 -1.000000
v 0.800000 0.800000 -1.000000
v 0.800000 -1.000000 0.779874
v 1.000000 0.800000 0.800000
v 0.638790 -1.000000 0.764393
v 0.638790 1.000000 0.764393
v 0.301540 -1.000000 0.662089
v 0.301540 1.000000 0.662089
v -0.009904 -1.000000 0.495618
v -0.009904 1.000000 0.495618
v -0.277827 -1.000000 0.277827
v -0.277827 1.000000 0.277827
v -0.495618 -1.000000 0.009904
v -0.495618 1.000000 0.009904
v -0.662089 -1.000000 -0.301540
v -0.662089 1.000000 -0.301540
v -0.764393 -1.000000 -0.638790
v -0.764393 1.000000 -0.638790
v -0.779874 -1.000000 -0.800000
v -0.800000 0.800000 -1.000000
v 1.000000 -0.800000 0.800000
v 0.599819 -0.800000 0.961571
v 0.224633 -0.800000 0.847759
v -0.121140 -0.800000 0.662939
v -0.961571 -0.800000 -0.599819
v -0.800000 -0.800000 -1.000000
v 0.800000 -1.000000 -0.800000
v -0.980882 -0.800000 -0.800916
v -0.779874 1.000000 -0.800000
v 1.000000 -0.800000 -0.800000
v 1.000000 0.800000 -0.800000
v 0.800916 -0.800000 0.980882
v 0.800000 1.000000 0.779874
v -0.961571 0.800000 -0.599819
v -0.980882 0.800000 -0.800916
v -0.662939 0.800000 0.121140
v -0.847759 0.800000 -0.224633
v -0.420000 0.800000 0.420000
v -0.121140 0.800000 0.662939
v 0.800916 0.800000 0.980882
v 0.800000 1.000000 -0.800000
v -0.420000 -0.800000 0.420000
v -0.662939 -0.800000 0.121140
v -0.847759 -0.800000 -0.224633
v 0.599819 0.800000 0.961571
v 0.224633 0.800000 0.847759
vn -0.7071 -0.0000 0.7071
vn -0.5536 -0.0000 0.8328
vn -0.9954 -0.0000 0.0956
vn -0.9810 -0.0000 0.1939
vn -0.1939 -0.0000 0.9810
vn -0.3827 -0.0000 0.9239
vn -0.9239 -0.0000 0.3827
vn -0.8328 -0.0000 0.5536
vn 1.0000 -0.0000 -0.0000
vn -0.0956 -0.0000 0.9954
vn -0.0000 1.0000 -0.0000
vn -0.0000 -1.0000 -0.0000
vn -0.0000 -0.0000 -1.0000
vt 1.000000 0.687986
vt 0.934419 0.687986
vt 0.934419 0.398308
vt 1.000000 0.398308
vt 0.965365 0.325888
vt 0.930380 0.325888
vt 0.930380 0.036210
vt 0.965365 0.036210
vt 0.793816 0.398308
vt 0.864800 0.398308
vt 0.864800 0.687986
vt 0.793816 0.687986
vt 0.859397 0.325888
vt 0.789777 0.325888
vt 0.789777 0.036210
vt 0.859397 0.036210
vt 0.036210 0.398308
vt 0.325888 0.398308
vt 0.325888 0.687987
vt 0.036210 0.687986
vt 0.724196 0.325888
vt 0.724196 0.036210
vt 0.758831 0.398308
vt 0.758831 0.687986
vt 0.599370 0.423276
vt 0.660434 0.404755
vt 0.687986 0.688892
vt 0.425861 0.319442
vt 0.397403 0.322245
vt 0.398308 0.035305
vt 0.036210 0.036210
vt 0.325888 0.036210
vt 0.325888 0.325888
vt 0.036210 0.325888
vt 0.688891 0.401952
vt 0.401952 0.688891
vt 0.404755 0.660429
vt 0.423276 0.599369
vt 0.453420 0.542981
vt 0.493789 0.493789
vt 0.542984 0.453416
vt 0.684343 0.035305
vt 0.681540 0.063768
vt 0.663018 0.124827
vt 0.632875 0.181216
vt 0.592505 0.230407
vt 0.543311 0.270781
vt 0.486925 0.300920
s 1
usemtl Material
f 42/1/1 24/2/2 39/3/2 38/4/1
f 28/5/3 25/6/4 34/7/4 35/8/3
f 45/9/5 46/10/6 23/11/6 22/12/5
f 46/10/6 39/3/2 24/2/2 23/11/6
f 44/13/7 43/14/8 36/15/8 37/16/7
f 21/17/9 30/18/9 31/19/9 4/20/9
f 43/14/8 42/21/1 38/22/1 36/15/8
f 40/23/10 45/9/5 22/12/5 32/24/10
f 8/25/11 6/26/11 41/27/11
f 17/28/12 19/29/12 27/30/12
f 26/31/13 20/32/13 2/33/13 1/34/13
f 6/26/11 33/35/11 41/27/11
f 41/27/11 29/36/11 18/37/11
f 18/37/11 16/38/11 41/27/11
f 16/38/11 14/39/11 41/27/11
f 14/39/11 12/40/11 41/27/11
f 12/40/11 10/41/11 41/27/11
f 10/41/11 8/25/11 41/27/11
f 27/30/12 3/42/12 5/43/12
f 5/43/12 7/44/12 27/30/12
f 7/44/12 9/45/12 27/30/12
f 9/45/12 11/46/12 27/30/12
f 11/46/12 13/47/12 27/30/12
f 13/47/12 15/48/12 27/30/12
f 15/48/12 17/28/12 27/30/12
f 37/16/7 34/7/4 25/6/4 44/13/7
o Pie2
v 0.800000 -0.800000 -1.000000
v 0.800000 0.800000 -1.000000
v 0.800000 -1.000000 0.779874
v 1.000000 0.800000 0.800000
v 0.638790 -1.000000 0.764393
v 0.638790 1.000000 0.764393
v 0.301540 -1.000000 0.662089
v 0.301540 1.000000 0.662089
v -0.009904 -1.000000 0.495618
v -0.009904 1.000000 0.495618
v -0.277827 -1.000000 0.277827
v -0.277827 1.000000 0.277827
v -0.495618 -1.000000 0.009904
v -0.495618 1.000000 0.009904
v -0.662089 -1.000000 -0.301540
v -0.662089 1.000000 -0.301540
v -0.764393 -1.000000 -0.638790
v -0.764393 1.000000 -0.638790
v -0.779874 -1.000000 -0.800000
v -0.800000 0.800000 -1.000000
v 1.000000 -0.800000 0.800000
v 0.599819 -0.800000 0.961571
v 0.224633 -0.800000 0.847759
v -0.121140 -0.800000 0.662939
v -0.420000 -1.000000 0.420000
v -0.662939 -1.000000 0.121140
v -0.847759 -1.000000 -0.224633
v -0.961571 -0.800000 -0.599819
v -0.800000 -0.800000 -1.000000
v 0.800000 -1.000000 -0.800000
v -0.980882 -0.800000 -0.800916
v -0.779874 1.000000 -0.800000
v 1.000000 -0.800000 -0.800000
v 1.000000 0.800000 -0.800000
v 0.800916 -0.800000 0.980882
v 0.800000 1.000000 0.779874
v 1.000000 -1.000000 -1.000000
v 1.000000 1.000000 -1.000000
v -0.961571 0.800000 -0.599819
v -0.980882 0.800000 -0.800916
v -0.662939 0.800000 0.121140
v -0.847759 0.800000 -0.224633
v -0.420000 0.800000 0.420000
v -0.121140 0.800000 0.662939
v 0.599819 1.000000 0.961571
v 0.224633 1.000000 0.847759
v 0.800916 0.800000 0.980882
v 0.800000 1.000000 -0.800000
v -0.961571 1.000000 -0.599819
v -1.000000 1.000000 -1.000000
v -1.000000 -1.000000 -1.000000
v -0.662939 1.000000 0.121140
v -0.847759 1.000000 -0.224633
v -0.420000 1.000000 0.420000
v -0.121140 1.000000 0.662939
v 1.000000 -1.000000 1.000000
v 1.000000 1.000000 1.000000
v 0.599819 -1.000000 0.961571
v 0.224633 -1.000000 0.847759
v -0.121140 -1.000000 0.662939
v -0.420000 -0.800000 0.420000
v -0.662939 -0.800000 0.121140
v -0.847759 -0.800000 -0.224633
v -0.961571 -1.000000 -0.599819
v 0.599819 0.800000 0.961571
v 0.224633 0.800000 0.847759
vn -0.0000 -1.0000 -0.0000
vn -0.0000 -0.0000 -1.0000
vn 1.0000 -0.0000 -0.0000
vn -0.0000 1.0000 -0.0000
vn -0.9954 -0.0000 0.0956
vn -0.9810 -0.0000 0.1939
vn -0.9239 -0.0000 0.3827
vn -0.8328 -0.0000 0.5536
vn -0.7071 -0.0000 0.7071
vn -0.5536 -0.0000 0.8328
vn -0.0956 -0.0000 0.9954
vn -0.1939 -0.0000 0.9810
vn -0.3827 -0.0000 0.9239
vt 0.681540 0.063768
vt 0.684343 0.035305
vt 0.724196 0.000000
vt 0.717239 0.070642
vt 0.663018 0.124827
vt 0.696633 0.138569
vt 0.632875 0.181216
vt 0.663172 0.201171
vt 0.592505 0.230407
vt 0.618140 0.256042
vt 0.543311 0.270781
vt 0.563269 0.301074
vt 0.486925 0.300920
vt 0.500667 0.334535
vt 0.425861 0.319442
vt 0.432740 0.355141
vt 0.397403 0.322245
vt 0.362098 0.362098
vt 0.398308 0.035305
vt 0.362098 0.000000
vt 0.325888 0.036210
vt 0.036210 0.036210
vt 0.000000 0.000000
vt 0.036210 0.325888
vt 0.000000 0.362098
vt 0.325888 0.325888
vt 0.036210 0.398308
vt 0.036210 0.687986
vt 0.000000 0.724196
vt 0.325888 0.687987
vt 0.325888 0.398308
vt 0.362098 0.724197
vt 0.404755 0.660429
vt 0.401952 0.688891
vt 0.362098 0.724196
vt 0.369056 0.653555
vt 0.453420 0.542981
vt 0.423276 0.599369
vt 0.389661 0.585627
vt 0.423123 0.523026
vt 0.493789 0.493789
vt 0.468154 0.468154
vt 0.542984 0.453416
vt 0.523026 0.423123
vt 0.660434 0.404755
vt 0.599370 0.423276
vt 0.585627 0.389661
vt 0.653555 0.369056
vt 0.688891 0.401952
vt 0.724196 0.362098
vt 0.687986 0.688892
vt 0.724196 0.724196
vt 0.965365 0.036210
vt 0.930380 0.036210
vt 0.930380 0.000000
vt 1.000000 0.000000
vt 0.965365 0.325888
vt 1.000000 0.362098
vt 0.859397 0.036210
vt 0.789777 0.036210
vt 0.789777 0.000000
vt 0.859397 0.000000
vt 0.724196 0.036210
vt 1.000000 0.398308
vt 0.934419 0.398308
vt 0.934419 0.362098
vt 0.758831 0.398308
vt 0.758831 0.687986
vt 0.793816 0.687986
vt 0.793816 0.724196
vt 0.864800 0.687986
vt 0.864800 0.724196
vt 0.934419 0.687986
vt 0.934419 0.724196
vt 1.000000 0.687986
vt 1.000000 0.724196
vt 0.724196 0.325888
vt 0.789777 0.325888
vt 0.789777 0.362098
vt 0.859397 0.325888
vt 0.859397 0.362098
vt 0.930380 0.325888
vt 0.930380 0.362098
vt 0.864800 0.398308
vt 0.793816 0.398308
vt 0.793816 0.362098
vt 0.864800 0.362098
s 1
usemtl Material2
f 51/49/14 49/50/14 102/51/14 104/52/14
f 53/53/14 51/49/14 104/52/14 105/54/14
f 55/55/14 53/53/14 105/54/14 106/56/14
f 57/57/14 55/55/14 106/56/14 71/58/14
f 59/59/14 57/57/14 71/58/14 72/60/14
f 61/61/14 59/59/14 72/60/14 73/62/14
f 63/63/14 61/61/14 73/62/14 110/64/14
f 65/65/14 63/63/14 110/64/14 97/66/14
f 76/67/14 65/65/14 97/66/14 83/68/14
f 49/50/14 76/67/14 83/68/14 102/51/14
f 66/69/15 75/70/15 97/71/15 96/68/15
f 75/70/15 47/72/15 83/73/15 97/71/15
f 47/72/15 48/74/15 84/66/15 83/73/15
f 48/74/15 66/69/15 96/68/15 84/66/15
f 67/75/16 50/76/16 103/77/16 102/73/16
f 80/78/16 79/79/16 83/66/16 84/80/16
f 50/76/16 80/78/16 84/80/16 103/77/16
f 79/79/16 67/75/16 102/73/16 83/66/16
f 64/81/17 78/82/17 96/83/17 95/84/17
f 60/85/17 62/86/17 99/87/17 98/88/17
f 58/89/17 60/85/17 98/88/17 100/90/17
f 56/91/17 58/89/17 100/90/17 101/92/17
f 52/93/17 54/94/17 92/95/17 91/96/17
f 54/94/17 56/91/17 101/92/17 92/95/17
f 82/97/17 52/93/17 91/96/17 103/98/17
f 94/99/17 82/97/17 103/98/17 84/100/17
f 62/86/17 64/81/17 95/84/17 99/87/17
f 78/82/17 94/99/17 84/100/17 96/83/17
f 86/101/18 85/102/19 95/103/19 96/104/18
f 77/105/18 86/101/18 96/104/18 97/106/18
f 88/107/20 87/108/21 98/109/21 99/110/20
f 87/108/21 89/111/22 100/51/22 98/109/21
f 89/112/22 90/113/23 101/114/23 100/106/22
f 93/115/24 81/116/24 102/100/24 103/98/24
f 81/116/24 68/117/25 104/118/25 102/100/24
f 68/117/25 69/119/26 105/120/26 104/118/25
f 69/119/26 70/121/23 106/122/23 105/120/26
f 70/121/23 107/123/22 71/124/22 106/122/23
f 107/125/22 108/126/21 72/127/21 71/98/22
f 108/126/21 109/128/20 73/129/20 72/127/21
f 109/128/20 74/130/19 110/131/19 73/129/20
f 74/130/19 77/105/18 97/106/18 110/131/19
f 112/132/26 111/133/25 91/134/25 92/135/26
f 90/113/23 112/132/26 92/135/26 101/114/23
f 111/133/25 93/115/24 103/98/24 91/134/25
f 85/102/19 88/107/20 99/110/20 95/103/19
