mtllib shell_gummi_round_corner.mtl
o RoundCorner2
v 0.602035 0.952524 -0.800170
v 0.230794 0.833422 -0.800593
v -0.109180 0.645540 -0.801078
v -0.399602 0.400176 -0.801971
v -0.634411 0.102377 -0.802901
v -0.813547 -0.238688 -0.803413
v -0.933727 -0.606297 -0.801797
v 0.603784 -0.800984 0.942025
v 0.232781 -0.801118 0.828160
v -0.109316 -0.801135 0.645131
v -0.404822 -0.801140 0.404853
v -0.644967 -0.801158 0.109183
v -0.828160 -0.801118 -0.232781
v -0.942025 -0.800984 -0.603784
v -0.961763 -0.800908 -0.800907
v 1.000000 -0.800000 -0.800000
v 0.800195 0.951602 -0.602315
v 0.800837 0.830653 -0.232062
v 0.801283 0.644051 0.108483
v 0.801721 0.401486 0.401065
v 0.802634 0.103316 0.635558
v 0.803432 -0.238722 0.813447
v 0.801805 -0.606322 0.933645
v 0.800908 -0.800907 0.961763
v 0.799705 0.989770 -0.799705
v 0.638790 0.764393 -1.000000
v 0.224633 0.847759 -1.000000
v 0.800000 0.779874 -1.000000
v -0.961571 -0.599819 -1.000000
v -0.779874 -0.800000 -1.000000
v -0.662089 -0.301540 -1.000000
v -0.495618 0.009904 -1.000000
v -0.277827 0.277827 -1.000000
v -0.009904 0.495618 -1.000000
v 0.638790 -1.000000 0.764393
v 0.301540 -1.000000 0.662089
v 1.000000 -0.800000 0.779874
v -0.961571 -1.000000 -0.599819
v -0.662089 -1.000000 -0.301540
v -0.495618 -1.000000 0.009904
v -0.009904 -1.000000 0.495618
v 1.000000 0.764393 -0.638790
v 1.000000 0.662089 -0.301540
v 1.000000 -0.599819 0.961571
v 1.000000 -0.301540 0.662089
v 1.000000 0.009904 0.495618
v 1.000000 0.277827 0.277827
v 1.000000 0.495618 0.009904
v -0.420000 -1.000000 0.420000
v 0.599819 0.961571 -1.000000
v 0.301540 0.662089 -1.000000
v 1.000000 0.779874 -0.800000
v 0.800000 -0.800000 -1.000000
v -0.779874 -1.000000 -0.800000
v -0.764393 -0.638790 -1.000000
v -0.847759 -0.224633 -1.000000
v -0.662939 0.121140 -1.000000
v -0.420000 0.420000 -1.000000
v -0.121140 0.662939 -1.000000
v 0.800000 -1.000000 -0.800000
v 1.000000 1.000000 -1.000000
v 0.800000 -1.000000 0.779874
v 1.000000 0.961571 -0.599819
v 1.000000 0.847759 -0.224633
v 1.000000 -0.638790 0.764393
v 1.000000 -0.224633 0.847759
v 1.000000 0.121140 0.662939
v 1.000000 0.420000 0.420000
v 1.000000 0.662939 0.121140
v -1.000000 -1.000000 -1.000000
v 1.000000 -1.000000 -1.000000
v 0.599819 -1.000000 0.961571
v 0.224633 -1.000000 0.847759
v 1.000000 -1.000000 1.000000
v -0.764393 -1.000000 -0.638790
v -0.847759 -1.000000 -0.224633
v -0.662939 -1.000000 0.121140
v -0.121140 -1.000000 0.662939
v -0.277827 -1.000000 0.277827
vn -0.3883 0.9183 0.0771
vn -0.2124 0.9769 0.0239
vn -0.2125 0.9769 0.0240
vn -0.3884 0.9183 0.0771
vn -0.0567 0.9968 0.0566
vn -0.0567 0.9968 0.0567
vn -0.9892 0.1035 0.1036
vn -0.9627 0.2076 0.1734
vn -0.9690 0.2049 0.1378
vn -0.9089 0.3803 0.1709
vn -0.9090 0.3802 0.1709
vn -0.8240 0.5414 0.1671
vn -0.8241 0.5413 0.1671
vn -0.7058 0.6944 0.1402
vn -0.7060 0.6942 0.1403
vn -0.5570 0.8235 0.1078
vn -0.5572 0.8234 0.1078
vn -0.1943 0.1000 0.9758
vn -0.3814 0.1047 0.9185
vn -0.1944 0.1000 0.9758
vn -0.1037 0.1036 0.9892
vn -0.9758 0.1000 0.1943
vn -0.9758 0.1000 0.1944
vn -0.9184 0.1050 0.3815
vn -0.8279 0.1073 0.5505
vn -0.5506 0.1067 0.8279
vn -0.0297 0.9763 0.2143
vn -0.0879 0.9173 0.3883
vn -0.0879 0.9173 0.3885
vn -0.0298 0.9763 0.2146
vn -0.1525 0.1746 0.9728
vn -0.1381 0.2050 0.9690
vn -0.1694 0.3795 0.9096
vn -0.1694 0.3794 0.9096
vn -0.1611 0.5409 0.8255
vn -0.1611 0.5407 0.8256
vn -0.1355 0.6962 0.7049
vn -0.1355 0.6961 0.7051
vn -0.1132 0.8247 0.5541
vn -0.1132 0.8247 0.5542
vn -0.7031 0.1073 0.7029
vn -0.0000 -0.0000 -1.0000
vn 1.0000 -0.0000 -0.0000
vn -0.0000 -1.0000 -0.0000
vt 0.969253 0.691453
vt 0.971342 0.635558
vt 1.000000 0.636093
vt 0.997997 0.692409
vt 0.971746 0.606484
vt 1.000000 0.578209
vt 0.028885 0.831830
vt 0.057255 0.831655
vt 0.058058 0.860497
vt 0.000280 0.860497
vt 0.112779 0.829154
vt 0.114466 0.857997
vt 0.166233 0.824378
vt 0.168752 0.853124
vt 0.215161 0.817619
vt 0.218067 0.846238
vt 0.959851 0.792449
vt 0.965324 0.744715
vt 0.994092 0.746413
vt 0.988575 0.795280
vt 0.776977 0.256872
vt 0.721103 0.259841
vt 0.719619 0.231344
vt 0.776081 0.228374
vt 0.805412 0.256852
vt 0.833755 0.228374
vt 0.028760 0.803421
vt 0.000000 0.802876
vt 0.030733 0.747486
vt 0.001976 0.746354
vt 0.034816 0.693416
vt 0.006098 0.691695
vt 0.667184 0.265572
vt 0.665126 0.237133
vt 0.942690 0.606966
vt 0.886917 0.609208
vt 0.885808 0.580436
vt 0.942097 0.578302
vt 0.805590 0.285048
vt 0.834458 0.285615
vt 0.803855 0.340876
vt 0.832725 0.342250
vt 0.799885 0.395335
vt 0.828672 0.397497
vt 0.793952 0.445841
vt 0.822612 0.448426
vt 0.833678 0.613274
vt 0.785820 0.618925
vt 0.783114 0.590215
vt 0.831873 0.584507
vt 0.618083 0.273663
vt 0.615470 0.245314
vt 0.040706 0.644038
vt 0.012055 0.641777
vt 0.581412 0.236891
vt 0.566624 0.188140
vt 0.593463 0.177023
vt 0.609915 0.231257
vt 0.583650 0.260194
vt 0.615470 0.289104
vt 0.355276 0.260194
vt 0.326365 0.289104
vt 0.355276 0.031820
vt 0.326365 0.000000
vt 0.378579 0.034058
vt 0.384212 0.005555
vt 0.427329 0.048846
vt 0.438446 0.022007
vt 0.472349 0.072910
vt 0.488428 0.048723
vt 0.511078 0.104392
vt 0.531629 0.083840
vt 0.542560 0.143121
vt 0.566747 0.127041
vt 0.031820 0.612867
vt 0.260194 0.612867
vt 0.289104 0.641777
vt 0.000000 0.641777
vt 0.260194 0.384493
vt 0.289104 0.352673
vt 0.048846 0.540813
vt 0.034058 0.589564
vt 0.005555 0.583930
vt 0.022007 0.529696
vt 0.236891 0.386730
vt 0.231257 0.358228
vt 0.188140 0.401519
vt 0.177023 0.374680
vt 0.143121 0.425582
vt 0.127041 0.401396
vt 0.104392 0.457065
vt 0.083840 0.436513
vt 0.072910 0.495794
vt 0.048723 0.479714
vt 0.355276 0.318015
vt 0.355276 0.546389
vt 0.326365 0.578209
vt 0.326365 0.289104
vt 0.566624 0.390068
vt 0.581412 0.341318
vt 0.609915 0.346951
vt 0.593463 0.401185
vt 0.583650 0.318015
vt 0.615470 0.289104
vt 0.378579 0.544151
vt 0.384212 0.572654
vt 0.427329 0.529363
vt 0.438446 0.556202
vt 0.472349 0.505299
vt 0.488428 0.529486
vt 0.542560 0.435088
vt 0.566747 0.451168
vt 0.511078 0.473817
vt 0.531629 0.494368
s 1
usemtl Material2
f 2/1/1 1/2/2 50/3/3 27/4/4
f 1/2/2 25/5/5 61/6/6 50/3/3
f 15/7/7 7/8/8 29/9/9 70/10/7
f 7/8/8 6/11/10 56/12/11 29/9/9
f 6/11/10 5/13/12 57/14/13 56/12/11
f 5/13/12 4/15/14 58/16/15 57/14/13
f 4/17/14 3/18/16 59/19/17 58/20/15
f 3/18/16 2/1/1 27/4/4 59/19/17
f 8/21/18 9/22/19 73/23/19 72/24/20
f 24/25/21 8/21/18 72/24/20 74/26/21
f 14/27/22 15/7/7 70/10/7 38/28/23
f 13/29/24 14/27/22 38/28/23 76/30/24
f 12/31/25 13/29/24 76/30/24 77/32/25
f 9/22/19 10/33/26 78/34/26 73/23/19
f 17/35/27 18/36/28 64/37/29 63/38/30
f 25/5/5 17/35/27 63/38/30 61/6/6
f 23/39/31 24/25/21 74/26/21 44/40/32
f 22/41/33 23/39/31 44/40/32 66/42/34
f 21/43/35 22/41/33 66/42/34 67/44/36
f 20/45/37 21/43/35 67/44/36 68/46/38
f 19/47/39 20/48/37 68/49/38 69/50/40
f 18/36/28 19/47/39 69/50/40 64/37/29
f 10/33/26 11/51/41 49/52/41 78/34/26
f 11/53/41 12/31/25 77/32/25 49/54/41
f 26/55/42 51/56/42 27/57/42 50/58/42
f 28/59/42 26/55/42 50/58/42 61/60/42
f 53/61/42 28/59/42 61/60/42 71/62/42
f 30/63/42 53/61/42 71/62/42 70/64/42
f 55/65/42 30/63/42 70/64/42 29/66/42
f 31/67/42 55/65/42 29/66/42 56/68/42
f 32/69/42 31/67/42 56/68/42 57/70/42
f 33/71/42 32/69/42 57/70/42 58/72/42
f 34/73/42 33/71/42 58/72/42 59/74/42
f 51/56/42 34/73/42 59/74/42 27/57/42
f 52/75/43 16/76/43 71/77/43 61/78/43
f 16/76/43 37/79/43 74/80/43 71/77/43
f 43/81/43 42/82/43 63/83/43 64/84/43
f 42/82/43 52/75/43 61/78/43 63/83/43
f 37/79/43 65/85/43 44/86/43 74/80/43
f 65/85/43 45/87/43 66/88/43 44/86/43
f 45/87/43 46/89/43 67/90/43 66/88/43
f 46/89/43 47/91/43 68/92/43 67/90/43
f 47/91/43 48/93/43 69/94/43 68/92/43
f 48/93/43 43/81/43 64/84/43 69/94/43
f 60/95/44 54/96/44 70/97/44 71/98/44
f 36/99/44 35/100/44 72/101/44 73/102/44
f 35/100/44 62/103/44 74/104/44 72/101/44
f 62/103/44 60/95/44 71/98/44 74/104/44
f 54/96/44 75/105/44 38/106/44 70/97/44
f 75/105/44 39/107/44 76/108/44 38/106/44
f 39/107/44 40/109/44 77/110/44 76/108/44
f 41/111/44 36/99/44 73/102/44 78/112/44
f 79/113/44 41/111/44 78/112/44 49/114/44
f 40/109/44 79/113/44 49/114/44 77/110/44
o RoundCorner
v 0.724100 0.961571 -0.718314
v 0.458804 0.847759 -0.453017
v 0.214305 0.662939 -0.208519
v 0.000000 0.414214 0.005787
v -0.175875 0.111140 0.181662
v -0.306563 -0.234633 0.312349
v 0.294089 0.847759 -0.703670
v -0.039996 0.662939 -0.571348
v -0.320000 0.414214 -0.455367
v -0.535159 0.111140 -0.360184
v -0.705911 -0.234633 -0.291697
v -0.811059 -0.609819 -0.245902
v 0.703670 0.847759 -0.294089
v 0.571348 0.662939 0.039996
v 0.455367 0.414214 0.320000
v 0.360184 0.111140 0.535159
v 0.291697 -0.234633 0.705911
v 0.245902 -0.609819 0.811059
v -0.387040 -0.609819 0.392827
v 0.602035 0.952524 -0.800170
v 0.230794 0.833422 -0.800593
v -0.109180 0.645540 -0.801078
v -0.399602 0.400176 -0.801971
v -0.634411 0.102377 -0.802901
v -0.813547 -0.238688 -0.803413
v -0.933727 -0.606297 -0.801797
v 0.603784 -0.800984 0.942025
v 0.232781 -0.801118 0.828160
v -0.109316 -0.801135 0.645131
v -0.404822 -0.801140 0.404853
v -0.644967 -0.801158 0.109183
v -0.828160 -0.801118 -0.232781
v -0.942025 -0.800984 -0.603784
v -0.961763 -0.800908 -0.800907
v 1.000000 -0.800000 -0.800000
v 0.800195 0.951602 -0.602315
v 0.800837 0.830653 -0.232062
v 0.801283 0.644051 0.108483
v 0.801721 0.401486 0.401065
v 0.802634 0.103316 0.635558
v 0.803432 -0.238722 0.813447
v 0.801805 -0.606322 0.933645
v 0.800908 -0.800907 0.961763
v 0.799705 0.989770 -0.799705
v 0.638790 0.764393 -1.000000
v 0.800000 0.779874 -1.000000
v -0.779874 -0.800000 -1.000000
v -0.662089 -0.301540 -1.000000
v -0.495618 0.009904 -1.000000
v -0.277827 0.277827 -1.000000
v -0.009904 0.495618 -1.000000
v 0.638790 -1.000000 0.764393
v 0.301540 -1.000000 0.662089
v 1.000000 -0.800000 0.779874
v -0.662089 -1.000000 -0.301540
v -0.495618 -1.000000 0.009904
v -0.009904 -1.000000 0.495618
v 1.000000 0.764393 -0.638790
v 1.000000 0.662089 -0.301540
v 1.000000 -0.301540 0.662089
v 1.000000 0.009904 0.495618
v 1.000000 0.277827 0.277827
v 1.000000 0.495618 0.009904
v 0.301540 0.662089 -1.000000
v 1.000000 0.779874 -0.800000
v 0.800000 -0.800000 -1.000000
v -0.779874 -1.000000 -0.800000
v -0.764393 -0.638790 -1.000000
v 0.800000 -1.000000 -0.800000
v 0.800000 -1.000000 0.779874
v 1.000000 -0.638790 0.764393
v -0.764393 -1.000000 -0.638790
v -0.277827 -1.000000 0.277827
vn -0.1673 0.9256 0.3395
vn -0.1885 0.9627 0.1942
vn -0.2719 0.9220 0.2755
vn -0.3971 0.8271 0.3977
vn -0.2146 0.8291 0.5162
vn -0.1048 0.9064 0.4091
vn -0.1433 0.9552 0.2588
vn -0.3440 0.9216 0.1798
vn -0.1716 0.9692 0.1764
vn -0.2538 0.9535 0.1624
vn -0.5175 0.8263 0.2224
vn -0.4070 0.9053 0.1215
vn -0.6623 0.6944 0.2813
vn -0.5021 0.6995 0.5085
vn -0.3570 0.3787 0.8539
vn -0.2604 0.2296 0.9378
vn -0.1635 0.2767 0.9470
vn -0.1936 0.3744 0.9068
vn -0.2695 0.6957 0.6658
vn -0.1750 0.5285 0.8307
vn -0.3284 0.5408 0.7744
vn -0.5892 0.5479 0.5939
vn -0.7716 0.5427 0.3319
vn -0.1459 0.6808 0.7178
vn -0.1093 0.8163 0.5673
vn -0.6537 0.3788 0.6552
vn -0.6966 0.1651 0.6982
vn -0.5689 0.8143 0.1153
vn -0.7194 0.6795 0.1436
vn -0.8530 0.3802 0.3575
vn -0.0000 -0.0000 -1.0000
vn -0.0000 -1.0000 -0.0000
vn 1.0000 -0.0000 -0.0000
vn -0.9594 0.2436 0.1422
vn -0.9849 0.1423 0.0987
vn -0.9594 0.2039 0.1949
vn -0.9383 0.2299 0.2583
vn -0.9170 0.1083 0.3840
vn -0.8089 0.2379 0.5376
vn -0.7040 0.1095 0.7017
vn -0.5371 0.2348 0.8102
vn -0.3837 0.1083 0.9171
vn -0.1948 0.2042 0.9593
vn -0.0987 0.1428 0.9848
vn -0.8306 0.5296 0.1721
vn -0.9066 0.3753 0.1930
vt 0.291370 0.166949
vt 0.317437 0.217080
vt 0.284549 0.205564
vt 0.243352 0.194583
vt 0.252914 0.136252
vt 0.291770 0.151673
vt 0.316677 0.196991
vt 0.283246 0.248898
vt 0.326365 0.221041
vt 0.312865 0.236606
vt 0.240788 0.258569
vt 0.280806 0.265556
vt 0.192309 0.265630
vt 0.195430 0.184559
vt 0.103508 0.073892
vt 0.048050 0.063102
vt 0.069454 0.004219
vt 0.122338 0.020296
vt 0.207688 0.110495
vt 0.172955 0.043414
vt 0.157429 0.090670
vt 0.142624 0.175878
vt 0.139670 0.269809
vt 0.218886 0.073174
vt 0.258592 0.109656
vt 0.086964 0.168873
vt 0.030589 0.163812
vt 0.240715 0.291718
vt 0.194919 0.313734
vt 0.083721 0.273492
vt 0.537713 0.734529
vt 0.552502 0.783280
vt 0.326365 0.806583
vt 0.554739 0.806583
vt 0.326365 0.578209
vt 0.349669 0.580447
vt 0.398419 0.595235
vt 0.443439 0.619299
vt 0.482168 0.650781
vt 0.513650 0.689510
vt 0.766088 0.650262
vt 0.554739 0.578209
vt 0.780876 0.601512
vt 0.783114 0.578209
vt 0.578043 0.804345
vt 0.554739 0.806583
vt 0.626793 0.789557
vt 0.671813 0.765493
vt 0.742024 0.695282
vt 0.632496 0.156321
vt 0.843844 0.228374
vt 0.617707 0.205071
vt 0.615470 0.228374
vt 0.820540 0.002238
vt 0.843844 0.000000
vt 0.771790 0.017026
vt 0.726770 0.041090
vt 0.688042 0.072572
vt 0.656559 0.111301
vt 0.710542 0.734011
vt 0.035032 0.351452
vt 0.007308 0.352673
vt 0.003636 0.327303
vt 0.027085 0.274577
vt 0.000000 0.273469
vt 0.000000 0.217643
vt 0.003497 0.162891
vt 0.010621 0.110435
vt 0.021044 0.061198
vt 0.034296 0.018019
vt 0.042270 0.000000
vt 0.144356 0.331102
vt 0.090268 0.343805
s 1
usemtl Material
f 92/115/45 80/116/46 81/117/47
f 92/115/45 81/117/47 82/118/48 93/119/49
f 92/115/45 116/120/50 115/121/51 80/116/46
f 81/117/47 80/116/46 86/122/52
f 115/121/51 123/123/53 99/124/54 80/116/46
f 81/117/47 86/122/52 87/125/55 82/118/48
f 99/124/54 100/126/56 86/122/52 80/116/46
f 82/118/48 87/125/55 88/127/57 83/128/58
f 96/129/59 97/130/60 121/131/61 120/132/62
f 93/119/49 82/118/48 83/128/58 94/133/63
f 120/132/62 119/134/64 95/135/65 96/129/59
f 84/136/66 83/128/58 88/127/57 89/137/67
f 95/135/65 119/134/64 118/138/68 94/133/63
f 95/135/65 94/133/63 83/128/58 84/136/66
f 94/133/63 118/138/68 117/139/69 93/119/49
f 97/130/60 96/129/59 85/140/70 98/141/71
f 88/127/57 87/125/55 101/142/72 102/143/73
f 85/140/70 84/136/66 89/137/67 90/144/74
f 93/119/49 117/139/69 116/120/50 92/115/45
f 96/129/59 95/135/65 84/136/66 85/140/70
f 87/125/55 86/122/52 100/126/56 101/142/72
f 143/145/75 124/146/75 145/147/75
f 124/146/75 125/148/75 145/147/75
f 145/147/75 126/149/75 147/150/75
f 147/150/75 127/151/75 145/147/75
f 127/151/75 128/152/75 145/147/75
f 128/152/75 129/153/75 145/147/75
f 129/153/75 130/154/75 145/147/75
f 130/154/75 143/145/75 145/147/75
f 132/155/76 148/156/76 131/157/76
f 131/157/76 148/156/76 149/158/76
f 148/156/76 151/159/76 146/160/76
f 151/159/76 148/156/76 134/161/76
f 134/161/76 148/156/76 135/162/76
f 136/163/76 148/156/76 132/155/76
f 138/164/77 114/165/77 137/166/77
f 137/166/77 114/165/77 144/167/77
f 114/165/77 150/168/77 133/169/77
f 150/168/77 114/165/77 139/170/77
f 139/170/77 114/165/77 140/171/77
f 140/171/77 114/165/77 141/172/77
f 141/172/77 114/165/77 142/173/77
f 142/173/77 114/165/77 138/164/77
f 148/156/76 136/163/76 152/174/76
f 105/175/78 113/176/79 112/177/80
f 105/175/78 112/177/80 91/178/81
f 111/179/82 91/178/81 112/177/80
f 110/180/83 91/178/81 111/179/82
f 91/178/81 110/180/83 98/141/71
f 110/180/83 109/181/84 98/141/71
f 109/181/84 108/182/85 98/141/71
f 98/141/71 108/182/85 97/130/60
f 97/130/60 108/182/85 107/183/86
f 97/130/60 107/183/86 106/184/87
f 121/131/61 97/130/60 106/184/87
f 121/131/61 106/184/87 122/185/88
f 152/174/76 135/162/76 148/156/76
f 98/141/71 85/140/70 90/144/74 91/178/81
f 89/137/67 88/127/57 102/143/73 103/186/89
f 90/144/74 89/137/67 103/186/89 104/187/90
f 91/178/81 90/144/74 104/187/90 105/175/78
