mtllib shell_gummi_wedge.mtl
o Wedge2
v -1.000000 -1.000000 1.000000
v -1.000000 1.000000 1.000000
v -0.850000 -1.000000 -0.850000
v -1.000000 1.000000 -1.000000
v 1.000000 -1.000000 1.000000
v 0.850000 -1.000000 -0.850000
v -1.000000 1.000000 1.000000
v -0.855523 0.644477 -1.000000
v 0.800000 -0.800000 -0.800000
v 0.800000 -0.800000 0.800000
v -0.855523 -0.855523 -1.000000
v 0.644477 -0.855523 -1.000000
v -0.800000 0.800000 0.800000
v -0.800000 0.800000 -0.800000
v -0.855523 -0.855523 1.000000
v -1.000000 -1.000000 1.000000
v -0.855523 0.644477 1.000000
v 1.000000 -1.000000 1.000000
v 0.644477 -0.855523 1.000000
v -1.000000 -0.850000 -0.850000
v -0.850000 -1.000000 0.850000
v 0.850000 -1.000000 0.850000
v 1.000000 -1.000000 -1.000000
v -1.000000 -1.000000 -1.000000
v -1.000000 -0.850000 0.850000
v -1.000000 0.850000 0.850000
v -1.000000 0.850000 -0.850000
vn -0.0000 -0.0000 1.0000
vn 0.7071 0.7071 -0.0000
vn -0.0000 -0.0000 -1.0000
vn -0.0000 -1.0000 -0.0000
vn -1.0000 -0.0000 -0.0000
vt 0.603553 1.000000
vt 0.353553 0.750000
vt 0.389673 0.750000
vt 0.577173 0.937500
vt 0.577173 0.562500
vt 0.603553 0.500000
vt 0.000000 0.000000
vt 0.353553 0.000000
vt 0.318198 0.050000
vt 0.035355 0.050000
vt 0.035355 0.450000
vt 0.318198 0.450000
vt 0.353553 0.500000
vt 0.000000 0.500000
vt 0.957107 0.250000
vt 0.707107 0.500000
vt 0.733487 0.437500
vt 0.920987 0.250000
vt 0.733487 0.062500
vt 0.707107 0.000000
vt 0.327037 0.526517
vt 0.026517 0.526517
vt 0.000000 0.500000
vt 0.353553 0.500000
vt 0.026516 0.827037
vt -0.000000 0.853553
vt 0.327037 0.827037
vt 0.353553 0.853553
vt 0.380070 0.327037
vt 0.680590 0.327037
vt 0.707107 0.353553
vt 0.353553 0.353553
vt 0.380070 0.026517
vt 0.353553 0.000000
vt 0.680590 0.026517
vt 0.707107 0.000000
s 1
usemtl Material2
f 7/1/1 16/2/1 15/3/1 17/4/1
f 19/5/1 15/3/1 16/2/1 18/6/1
f 5/7/2 23/8/2 9/9/2 10/10/2
f 13/11/2 14/12/2 4/13/2 7/14/2
f 9/9/2 23/8/2 4/13/2 14/12/2
f 7/14/2 18/7/2 10/10/2 13/11/2
f 24/15/3 4/16/3 8/17/3 11/18/3
f 12/19/3 8/17/3 4/16/3 23/20/3
f 11/18/3 12/19/3 23/20/3 24/15/3
f 19/5/1 18/6/1 7/1/1 17/4/1
f 3/21/4 21/22/4 1/23/4 24/24/4
f 21/22/4 22/25/4 5/26/4 1/23/4
f 6/27/4 3/21/4 24/24/4 23/28/4
f 22/25/4 6/27/4 23/28/4 5/26/4
f 25/29/5 20/30/5 24/31/5 1/32/5
f 26/33/5 25/29/5 1/32/5 2/34/5
f 27/35/5 26/33/5 2/34/5 4/36/5
f 20/30/5 27/35/5 4/36/5 24/31/5
o Wedge
v -0.850000 -1.000000 -0.850000
v 0.850000 -1.000000 -0.850000
v -0.855523 0.644477 -1.000000
v 0.800000 -0.800000 -0.800000
v 0.800000 -0.800000 0.800000
v -0.855523 -0.855523 -1.000000
v 0.644477 -0.855523 -1.000000
v -0.800000 0.800000 0.800000
v -0.800000 0.800000 -0.800000
v -0.855523 -0.855523 1.000000
v -0.855523 0.644477 1.000000
v 0.644477 -0.855523 1.000000
v -1.000000 -0.850000 -0.850000
v -0.850000 -1.000000 0.850000
v 0.850000 -1.000000 0.850000
v -1.000000 -0.850000 0.850000
v -1.000000 0.850000 0.850000
v -1.000000 0.850000 -0.850000
vn -0.0000 -1.0000 -0.0000
vn -0.0000 -0.0000 -1.0000
vn 0.7071 0.7071 -0.0000
vn -0.0000 -0.0000 1.0000
vn -1.0000 -0.0000 -0.0000
vt 0.380070 0.026517
vt 0.680590 0.026517
vt 0.680590 0.327037
vt 0.380070 0.327037
vt 0.318198 0.050000
vt 0.318198 0.450000
vt 0.035355 0.450000
vt 0.035355 0.050000
vt 0.577173 0.562500
vt 0.577173 0.937500
vt 0.389673 0.750000
vt 0.733487 0.062500
vt 0.920987 0.250000
vt 0.733487 0.437500
vt 0.327037 0.827037
vt 0.026516 0.827037
vt 0.026517 0.526517
vt 0.327037 0.526517
s 1
usemtl Material
f 44/37/10 45/38/10 40/39/10 43/40/10
f 31/41/8 36/42/8 35/43/8 32/44/8
f 39/45/9 38/46/9 37/47/9
f 34/48/7 33/49/7 30/50/7
f 29/51/6 42/52/6 41/53/6 28/54/6
