mtllib shell_gummi_cylinder.mtl
o Cylinder
v 0.167610 1.500000 -0.167610
v 0.010957 1.500000 -0.316734
v -0.147205 1.500000 -0.452598
v -0.300797 1.500000 -0.569980
v 0.443919 1.500000 0.443919
v 0.305777 1.500000 0.305777
v 0.155884 1.500000 0.155884
v 0.000000 1.500000 -0.000000
v -0.155884 1.500000 -0.155884
v -0.305777 1.500000 -0.305777
v -0.443919 1.500000 -0.443919
v 0.300797 1.500000 0.569980
v 0.147205 1.500000 0.452598
v -0.010957 1.500000 0.316734
v -0.167610 1.500000 0.167610
v -0.316734 1.500000 0.010957
v -0.452598 1.500000 -0.147205
v -0.569980 1.500000 -0.300797
v 0.148008 1.500000 0.672247
v -0.013728 1.500000 0.578730
v -0.173215 1.500000 0.461251
v -0.324325 1.500000 0.324325
v -0.461251 1.500000 0.173215
v -0.578730 1.500000 0.013728
v -0.672247 1.500000 -0.148008
v -0.006760 1.500000 0.744969
v -0.167667 1.500000 0.676155
v -0.320653 1.500000 0.579878
v -0.459840 1.500000 0.459840
v -0.579878 1.500000 0.320653
v -0.676155 1.500000 0.167667
v -0.744969 1.500000 0.006760
v -0.155883 1.500000 -0.783679
v -0.305776 1.500000 -0.738210
v -0.443918 1.500000 -0.664372
v -0.565001 1.500000 -0.565001
v -0.664371 1.500000 -0.443919
v -0.738210 1.500000 -0.305776
v -0.783679 1.500000 -0.155883
v -0.799032 1.500000 -0.000000
v -0.783679 1.500000 0.155883
v -0.738210 1.500000 0.305776
v -0.664371 1.500000 0.443918
v -0.565001 1.500000 0.565001
v -0.443918 1.500000 0.664371
v -0.305776 1.500000 0.738210
v -0.155883 1.500000 0.783679
v 0.000000 1.500000 0.799032
v 0.155883 1.500000 0.783679
v 0.305776 1.500000 0.738210
v 0.443918 1.500000 0.664371
v 0.565001 1.500000 0.565001
v 0.664371 1.500000 0.443918
v 0.738210 1.500000 0.305776
v 0.783679 1.500000 0.155883
v 0.799032 1.500000 -0.000000
v 0.783679 1.500000 -0.155883
v 0.738210 1.500000 -0.305776
v 0.664371 1.500000 -0.443919
v 0.565001 1.500000 -0.565001
v 0.443918 1.500000 -0.664372
v 0.305776 1.500000 -0.738210
v 0.155883 1.500000 -0.783679
v 0.000000 1.500000 -0.799032
v 0.000000 1.300000 -1.000000
v 0.382683 1.300000 -0.923880
v 0.555570 1.300000 -0.831470
v 0.831470 1.300000 -0.555570
v 0.923880 1.300000 -0.382683
v 1.000000 1.300000 -0.000000
v 0.923880 1.300000 0.382683
v 0.831470 1.300000 0.555570
v 0.555570 1.300000 0.831470
v 0.382683 1.300000 0.923880
v 0.000000 1.300000 1.000000
v -0.382683 1.300000 0.923880
v -0.555570 1.300000 0.831470
v -0.831470 1.300000 0.555570
v -0.923880 1.300000 0.382683
v -1.000000 1.300000 -0.000000
v -0.980785 1.300000 -0.195090
v -0.831470 1.300000 -0.555570
v -0.555570 1.300000 -0.831470
v -0.382683 1.300000 -0.923880
v 0.195090 1.300000 -0.980785
v 0.707107 1.300000 -0.707107
v 0.980785 1.300000 -0.195090
v 0.980785 1.300000 0.195090
v 0.707107 1.300000 0.707107
v 0.195090 1.300000 0.980785
v -0.195090 1.300000 0.980785
v -0.707107 1.300000 0.707107
v -0.980785 1.300000 0.195090
v -0.923880 1.300000 -0.382683
v -0.707107 1.300000 -0.707107
v -0.195090 1.300000 -0.980785
v 0.000000 -0.320000 -1.000000
v 0.382683 -0.320000 -0.923880
v 0.555570 -0.320000 -0.831470
v 0.831470 -0.320000 -0.555570
v 0.923880 -0.320000 -0.382683
v 1.000000 -0.320000 0.000000
v 0.923880 -0.320000 0.382683
v 0.831470 -0.320000 0.555570
v 0.555570 -0.320000 0.831470
v 0.382683 -0.320000 0.923880
v 0.000000 -0.320000 1.000000
v -0.382683 -0.320000 0.923880
v -0.555570 -0.320000 0.831470
v -0.831470 -0.320000 0.555570
v -0.923880 -0.320000 0.382683
v -1.000000 -0.320000 0.000000
v -0.980785 -0.320000 -0.195090
v -0.831470 -0.320000 -0.555570
v -0.555570 -0.320000 -0.831470
v -0.382683 -0.320000 -0.923880
v 0.195090 -0.320000 -0.980785
v 0.707107 -0.320000 -0.707107
v 0.980785 -0.320000 -0.195090
v 0.980785 -0.320000 0.195090
v 0.707107 -0.320000 0.707107
v 0.195090 -0.320000 0.980785
v -0.195090 -0.320000 0.980785
v -0.707107 -0.320000 0.707107
v -0.980785 -0.320000 0.195090
v -0.923880 -0.320000 -0.382683
v -0.707107 -0.320000 -0.707107
v -0.195090 -0.320000 -0.980785
v -0.155883 -0.500000 -0.783679
v -0.305776 -0.500000 -0.738210
v -0.443918 -0.500000 -0.664371
v -0.565001 -0.500000 -0.565001
v -0.664371 -0.500000 -0.443918
v -0.738210 -0.500000 -0.305776
v -0.783679 -0.500000 -0.155883
v -0.799032 -0.500000 0.000000
v -0.783679 -0.500000 0.155883
v -0.738210 -0.500000 0.305776
v -0.664371 -0.500000 0.443918
v -0.565001 -0.500000 0.565001
v -0.443918 -0.500000 0.664371
v -0.305776 -0.500000 0.738210
v -0.155883 -0.500000 0.783679
v 0.000000 -0.500000 0.799032
v 0.155883 -0.500000 0.783679
v 0.305776 -0.500000 0.738210
v 0.443918 -0.500000 0.664371
v 0.565001 -0.500000 0.565001
v 0.664371 -0.500000 0.443918
v 0.738210 -0.500000 0.305776
v 0.783679 -0.500000 0.155883
v 0.799032 -0.500000 0.000000
v 0.783679 -0.500000 -0.155883
v 0.738210 -0.500000 -0.305776
v 0.664371 -0.500000 -0.443918
v 0.565001 -0.500000 -0.565001
v 0.443918 -0.500000 -0.664371
v 0.305776 -0.500000 -0.738210
v 0.155883 -0.500000 -0.783679
v 0.000000 -0.500000 -0.799032
v 0.316734 1.500000 -0.010957
v 0.452598 1.500000 0.147205
v 0.569980 1.500000 0.300797
v -0.148008 1.500000 -0.672247
v 0.013728 1.500000 -0.578730
v 0.173215 1.500000 -0.461251
v 0.324325 1.500000 -0.324325
v 0.461251 1.500000 -0.173215
v 0.578730 1.500000 -0.013728
v 0.672247 1.500000 0.148008
v 0.006760 1.500000 -0.744969
v 0.167667 1.500000 -0.676155
v 0.320653 1.500000 -0.579879
v 0.459840 1.500000 -0.459840
v 0.579878 1.500000 -0.320653
v 0.676155 1.500000 -0.167667
v 0.744969 1.500000 -0.006760
v -0.744969 -0.500000 -0.006760
v -0.676155 -0.500000 -0.167667
v -0.579879 -0.500000 -0.320653
v -0.459840 -0.500000 -0.459840
v -0.320653 -0.500000 -0.579878
v -0.167667 -0.500000 -0.676155
v -0.006760 -0.500000 -0.744969
v -0.672247 -0.500000 0.148008
v -0.578730 -0.500000 -0.013728
v -0.461251 -0.500000 -0.173215
v -0.324325 -0.500000 -0.324325
v -0.173215 -0.500000 -0.461251
v -0.013728 -0.500000 -0.578730
v 0.148008 -0.500000 -0.672247
v -0.569980 -0.500000 0.300797
v -0.452598 -0.500000 0.147205
v -0.316734 -0.500000 -0.010957
v -0.167610 -0.500000 -0.167610
v -0.010957 -0.500000 -0.316734
v 0.147205 -0.500000 -0.452598
v 0.300797 -0.500000 -0.569980
v -0.443919 -0.500000 0.443919
v -0.305777 -0.500000 0.305777
v -0.155884 -0.500000 0.155884
v 0.000000 -0.500000 0.000000
v 0.155884 -0.500000 -0.155884
v 0.305777 -0.500000 -0.305777
v 0.443919 -0.500000 -0.443919
v -0.300797 -0.500000 0.569980
v -0.147205 -0.500000 0.452598
v 0.010957 -0.500000 0.316734
v 0.167610 -0.500000 0.167610
v 0.316734 -0.500000 0.010957
v 0.452598 -0.500000 -0.147205
v 0.569980 -0.500000 -0.300797
v -0.148008 -0.500000 0.672247
v 0.013728 -0.500000 0.578730
v 0.173215 -0.500000 0.461251
v 0.324325 -0.500000 0.324325
v 0.461251 -0.500000 0.173215
v 0.578730 -0.500000 0.013728
v 0.672247 -0.500000 -0.148008
v 0.006760 -0.500000 0.744969
v 0.167667 -0.500000 0.676155
v 0.320653 -0.500000 0.579879
v 0.459840 -0.500000 0.459840
v 0.579879 -0.500000 0.320653
v 0.676155 -0.500000 0.167667
v 0.744969 -0.500000 0.006760
vn -0.0000 1.0000 -0.0000
vn -0.1951 -0.0000 -0.9808
vn -0.0000 -0.0000 -1.0000
vn -0.7071 -0.0000 -0.7071
vn -0.5556 -0.0000 -0.8315
vn 0.9808 -0.0000 -0.1951
vn 1.0000 -0.0000 -0.0000
vn 0.9808 -0.0000 0.1951
vn 0.9239 -0.0000 0.3827
vn -0.9808 -0.0000 0.1951
vn -1.0000 -0.0000 -0.0000
vn 0.1951 -0.0000 0.9808
vn -0.0000 -0.0000 1.0000
vn -0.7071 -0.0000 0.7071
vn -0.8315 -0.0000 0.5556
vn 0.7071 -0.0000 -0.7071
vn 0.8315 -0.0000 -0.5556
vn -0.1951 -0.0000 0.9808
vn -0.3827 -0.0000 0.9239
vn 0.1951 -0.0000 -0.9808
vn 0.3827 -0.0000 -0.9239
vn 0.7071 -0.0000 0.7071
vn 0.5556 -0.0000 0.8315
vn -0.9239 -0.0000 -0.3827
vn -0.8315 -0.0000 -0.5556
vn 0.8315 -0.0000 0.5556
vn -0.9808 -0.0000 -0.1951
vn 0.3827 -0.0000 0.9239
vn -0.9239 -0.0000 0.3827
vn 0.5556 -0.0000 -0.8315
vn -0.5556 -0.0000 0.8315
vn 0.9239 -0.0000 -0.3827
vn -0.3827 -0.0000 -0.9239
vn -0.0000 -1.0000 -0.0000
vt 0.455941 0.005456
vt 0.485519 0.009488
vt 0.459291 0.025118
vt 0.430103 0.016159
vt 0.222186 1.000000
vt 0.222186 0.710752
vt 0.251289 0.710752
vt 0.251289 1.000000
vt 0.120519 1.000000
vt 0.120519 0.710752
vt 0.155520 0.710752
vt 0.155520 1.000000
vt 0.668436 0.000000
vt 0.668436 0.289248
vt 0.639333 0.289248
vt 0.639333 0.000000
vt 0.477828 0.710752
vt 0.477828 1.000000
vt 0.448726 1.000000
vt 0.448726 0.710752
vt 0.861519 0.578495
vt 0.861519 0.289248
vt 0.890622 0.289248
vt 0.890622 0.578495
vt 0.280392 0.710752
vt 0.280392 1.000000
vt 0.251289 1.000000
vt 0.251289 0.710752
vt 0.759852 0.578495
vt 0.759852 0.289248
vt 0.794853 0.289248
vt 0.794853 0.578495
vt 0.770104 0.000000
vt 0.770104 0.289248
vt 0.735102 0.289248
vt 0.735102 0.000000
vt 0.664083 0.578495
vt 0.664083 0.289248
vt 0.693186 0.289248
vt 0.693186 0.578495
vt 0.865872 0.000000
vt 0.865872 0.289248
vt 0.836770 0.289248
vt 0.836770 0.000000
vt 0.382059 0.710752
vt 0.382059 1.000000
vt 0.347058 1.000000
vt 0.347058 0.710752
vt 0.053852 1.000000
vt 0.053852 0.710752
vt 0.086190 0.710752
vt 0.086190 1.000000
vt 0.890622 0.289248
vt 0.890622 0.000000
vt 0.639333 0.289248
vt 0.639333 0.578495
vt 0.416388 1.000000
vt 0.416388 0.710752
vt 0.024750 0.710752
vt 0.024750 1.000000
vt 0.312729 1.000000
vt 0.312729 0.710752
vt 0.829182 0.289248
vt 0.829182 0.578495
vt 0.804433 0.289248
vt 0.804433 0.000000
vt 0.502578 1.000000
vt 0.502578 0.710752
vt 0.725523 0.289248
vt 0.725523 0.578495
vt 0.700773 0.289248
vt 0.700773 0.000000
vt 0.000000 0.710752
vt 0.000000 1.000000
vt 0.189849 0.710752
vt 0.189849 1.000000
vt 0.587861 0.536218
vt 0.564607 0.551755
vt 0.580804 0.529521
vt 0.607636 0.516442
vt 0.483371 0.000000
vt 0.511338 0.000000
vt 0.433932 0.045964
vt 0.406849 0.031696
vt 0.410707 0.070868
vt 0.387073 0.051472
vt 0.390812 0.098505
vt 0.371535 0.074726
vt 0.375314 0.127444
vt 0.360832 0.100565
vt 0.365101 0.156217
vt 0.355376 0.127995
vt 0.360832 0.183392
vt 0.355376 0.155962
vt 0.538768 0.005456
vt 0.515314 0.018900
vt 0.489666 0.038905
vt 0.463277 0.064133
vt 0.437670 0.092997
vt 0.414357 0.123743
vt 0.394762 0.154546
vt 0.380144 0.183604
vt 0.371535 0.209230
vt 0.564607 0.016159
vt 0.544183 0.033329
vt 0.520061 0.056988
vt 0.493759 0.085507
vt 0.466928 0.117008
vt 0.441267 0.149468
vt 0.418427 0.180829
vt 0.399929 0.209103
vt 0.387073 0.232484
vt 0.587861 0.031697
vt 0.571015 0.052223
vt 0.549308 0.078674
vt 0.524204 0.109263
vt 0.497355 0.141979
vt 0.470506 0.174694
vt 0.445402 0.205283
vt 0.423694 0.231734
vt 0.406849 0.252260
vt 0.607637 0.051473
vt 0.594781 0.074854
vt 0.576282 0.103128
vt 0.553443 0.134489
vt 0.527781 0.166949
vt 0.500951 0.198450
vt 0.474649 0.226969
vt 0.450527 0.250628
vt 0.430102 0.267798
vt 0.623175 0.074727
vt 0.614565 0.100353
vt 0.599948 0.129411
vt 0.580352 0.160214
vt 0.557039 0.190960
vt 0.531432 0.219824
vt 0.505044 0.245052
vt 0.479395 0.265058
vt 0.455941 0.278501
vt 0.633877 0.100565
vt 0.629609 0.127740
vt 0.619395 0.156513
vt 0.603898 0.185452
vt 0.584003 0.213089
vt 0.560778 0.237993
vt 0.535419 0.258839
vt 0.509191 0.274469
vt 0.483371 0.283957
vt 0.639333 0.127995
vt 0.639333 0.155962
vt 0.633877 0.183392
vt 0.623174 0.209231
vt 0.607637 0.232485
vt 0.587861 0.252261
vt 0.564607 0.267798
vt 0.538768 0.278501
vt 0.511338 0.283957
vt 0.593928 0.501954
vt 0.623174 0.493188
vt 0.603432 0.470533
vt 0.633877 0.467349
vt 0.608907 0.436923
vt 0.639333 0.439919
vt 0.610094 0.402890
vt 0.639333 0.411952
vt 0.606903 0.370218
vt 0.633877 0.384522
vt 0.599409 0.340620
vt 0.623174 0.358684
vt 0.587861 0.315654
vt 0.607637 0.335430
vt 0.538768 0.562458
vt 0.550801 0.538250
vt 0.561012 0.507366
vt 0.568937 0.471729
vt 0.574193 0.433504
vt 0.576496 0.394987
vt 0.575676 0.358488
vt 0.571686 0.326207
vt 0.564607 0.300116
vt 0.511338 0.567914
vt 0.518781 0.542290
vt 0.525693 0.509217
vt 0.531719 0.470892
vt 0.536527 0.429794
vt 0.539829 0.388547
vt 0.541396 0.349783
vt 0.541069 0.315997
vt 0.538769 0.289413
vt 0.483371 0.567914
vt 0.485974 0.541488
vt 0.489328 0.507435
vt 0.493206 0.468054
vt 0.497355 0.425936
vt 0.501503 0.383817
vt 0.505382 0.344436
vt 0.508736 0.310383
vt 0.511339 0.283957
vt 0.455941 0.562458
vt 0.453640 0.535874
vt 0.453313 0.502088
vt 0.454880 0.463324
vt 0.458183 0.422077
vt 0.462991 0.380979
vt 0.469016 0.342654
vt 0.475929 0.309581
vt 0.483371 0.283957
vt 0.430102 0.551755
vt 0.423024 0.525665
vt 0.419034 0.493383
vt 0.418214 0.456884
vt 0.420516 0.418367
vt 0.425772 0.380142
vt 0.433697 0.344505
vt 0.443908 0.313621
vt 0.455941 0.289413
vt 0.406848 0.536217
vt 0.395300 0.511251
vt 0.387807 0.481653
vt 0.384615 0.448981
vt 0.385803 0.414948
vt 0.391278 0.381338
vt 0.400782 0.349917
vt 0.413906 0.322350
vt 0.430103 0.300116
vt 0.387073 0.516441
vt 0.371535 0.493187
vt 0.360832 0.467349
vt 0.355376 0.439919
vt 0.355376 0.411952
vt 0.360832 0.384522
vt 0.371535 0.358683
vt 0.387073 0.335429
vt 0.406849 0.315653
s 1
usemtl Material
f 39/1/1 32/2/1 25/3/1 38/4/1
f 128/5/2 96/6/2 65/7/3 97/8/3
f 127/9/4 95/10/4 83/11/5 115/12/5
f 119/13/6 87/14/6 70/15/7 102/16/7
f 120/17/8 88/18/8 71/19/9 103/20/9
f 125/21/10 93/22/10 80/23/11 112/24/11
f 122/25/12 90/26/12 75/27/13 107/28/13
f 124/29/14 92/30/14 78/31/15 110/32/15
f 118/33/16 86/34/16 68/35/17 100/36/17
f 123/37/18 91/38/18 76/39/19 108/40/19
f 117/41/20 85/42/20 66/43/21 98/44/21
f 121/45/22 89/46/22 73/47/23 105/48/23
f 126/49/24 94/50/24 82/51/25 114/52/25
f 65/53/3 85/42/20 117/41/20 97/54/3
f 75/55/13 91/38/18 123/37/18 107/56/13
f 72/57/26 89/46/22 121/45/22 104/58/26
f 81/59/27 94/50/24 126/49/24 113/60/27
f 74/61/28 90/26/12 122/25/12 106/62/28
f 71/19/9 72/57/26 104/58/26 103/20/9
f 78/31/15 79/63/29 111/64/29 110/32/15
f 67/65/30 86/34/16 118/33/16 99/66/30
f 70/67/7 88/18/8 120/17/8 102/68/7
f 77/69/31 92/30/14 124/29/14 109/70/31
f 66/43/21 67/65/30 99/66/30 98/44/21
f 73/47/23 74/61/28 106/62/28 105/48/23
f 68/35/17 69/71/32 101/72/32 100/36/17
f 80/73/11 81/59/27 113/60/27 112/74/11
f 76/39/19 77/69/31 109/70/31 108/40/19
f 79/63/29 93/22/10 125/21/10 111/64/29
f 83/11/5 84/75/33 116/76/33 115/12/5
f 69/71/32 87/14/6 119/13/6 101/72/32
f 82/51/25 95/10/4 127/9/4 114/52/25
f 84/75/33 96/6/2 128/5/2 116/76/33
f 136/77/34 135/78/34 178/79/34 137/80/34
f 40/81/1 41/82/1 32/2/1 39/1/1
f 38/4/1 25/3/1 18/83/1 37/84/1
f 37/84/1 18/83/1 11/85/1 36/86/1
f 36/86/1 11/85/1 4/87/1 35/88/1
f 35/88/1 4/87/1 164/89/1 34/90/1
f 34/90/1 164/89/1 171/91/1 33/92/1
f 33/92/1 171/91/1 63/93/1 64/94/1
f 41/82/1 42/95/1 31/96/1 32/2/1
f 32/2/1 31/96/1 24/97/1 25/3/1
f 25/3/1 24/97/1 17/98/1 18/83/1
f 18/83/1 17/98/1 10/99/1 11/85/1
f 11/85/1 10/99/1 3/100/1 4/87/1
f 4/87/1 3/100/1 165/101/1 164/89/1
f 164/89/1 165/101/1 172/102/1 171/91/1
f 171/91/1 172/102/1 62/103/1 63/93/1
f 42/95/1 43/104/1 30/105/1 31/96/1
f 31/96/1 30/105/1 23/106/1 24/97/1
f 24/97/1 23/106/1 16/107/1 17/98/1
f 17/98/1 16/107/1 9/108/1 10/99/1
f 10/99/1 9/108/1 2/109/1 3/100/1
f 3/100/1 2/109/1 166/110/1 165/101/1
f 165/101/1 166/110/1 173/111/1 172/102/1
f 172/102/1 173/111/1 61/112/1 62/103/1
f 43/104/1 44/113/1 29/114/1 30/105/1
f 30/105/1 29/114/1 22/115/1 23/106/1
f 23/106/1 22/115/1 15/116/1 16/107/1
f 16/107/1 15/116/1 8/117/1 9/108/1
f 9/108/1 8/117/1 1/118/1 2/109/1
f 2/109/1 1/118/1 167/119/1 166/110/1
f 166/110/1 167/119/1 174/120/1 173/111/1
f 173/111/1 174/120/1 60/121/1 61/112/1
f 44/113/1 45/122/1 28/123/1 29/114/1
f 29/114/1 28/123/1 21/124/1 22/115/1
f 22/115/1 21/124/1 14/125/1 15/116/1
f 15/116/1 14/125/1 7/126/1 8/117/1
f 8/117/1 7/126/1 161/127/1 1/118/1
f 1/118/1 161/127/1 168/128/1 167/119/1
f 167/119/1 168/128/1 175/129/1 174/120/1
f 174/120/1 175/129/1 59/130/1 60/121/1
f 45/122/1 46/131/1 27/132/1 28/123/1
f 28/123/1 27/132/1 20/133/1 21/124/1
f 21/124/1 20/133/1 13/134/1 14/125/1
f 14/125/1 13/134/1 6/135/1 7/126/1
f 7/126/1 6/135/1 162/136/1 161/127/1
f 161/127/1 162/136/1 169/137/1 168/128/1
f 168/128/1 169/137/1 176/138/1 175/129/1
f 175/129/1 176/138/1 58/139/1 59/130/1
f 46/131/1 47/140/1 26/141/1 27/132/1
f 27/132/1 26/141/1 19/142/1 20/133/1
f 20/133/1 19/142/1 12/143/1 13/134/1
f 13/134/1 12/143/1 5/144/1 6/135/1
f 6/135/1 5/144/1 163/145/1 162/136/1
f 162/136/1 163/145/1 170/146/1 169/137/1
f 169/137/1 170/146/1 177/147/1 176/138/1
f 176/138/1 177/147/1 57/148/1 58/139/1
f 47/140/1 48/149/1 49/150/1 26/141/1
f 26/141/1 49/150/1 50/151/1 19/142/1
f 19/142/1 50/151/1 51/152/1 12/143/1
f 12/143/1 51/152/1 52/153/1 5/144/1
f 5/144/1 52/153/1 53/154/1 163/145/1
f 163/145/1 53/154/1 54/155/1 170/146/1
f 170/146/1 54/155/1 55/156/1 177/147/1
f 177/147/1 55/156/1 56/157/1 57/148/1
f 137/80/34 178/79/34 185/158/34 138/159/34
f 138/159/34 185/158/34 192/160/34 139/161/34
f 139/161/34 192/160/34 199/162/34 140/163/34
f 140/163/34 199/162/34 206/164/34 141/165/34
f 141/165/34 206/164/34 213/166/34 142/167/34
f 142/167/34 213/166/34 220/168/34 143/169/34
f 143/169/34 220/168/34 145/170/34 144/171/34
f 135/78/34 134/172/34 179/173/34 178/79/34
f 178/79/34 179/173/34 186/174/34 185/158/34
f 185/158/34 186/174/34 193/175/34 192/160/34
f 192/160/34 193/175/34 200/176/34 199/162/34
f 199/162/34 200/176/34 207/177/34 206/164/34
f 206/164/34 207/177/34 214/178/34 213/166/34
f 213/166/34 214/178/34 221/179/34 220/168/34
f 220/168/34 221/179/34 146/180/34 145/170/34
f 134/172/34 133/181/34 180/182/34 179/173/34
f 179/173/34 180/182/34 187/183/34 186/174/34
f 186/174/34 187/183/34 194/184/34 193/175/34
f 193/175/34 194/184/34 201/185/34 200/176/34
f 200/176/34 201/185/34 208/186/34 207/177/34
f 207/177/34 208/186/34 215/187/34 214/178/34
f 214/178/34 215/187/34 222/188/34 221/179/34
f 221/179/34 222/188/34 147/189/34 146/180/34
f 133/181/34 132/190/34 181/191/34 180/182/34
f 180/182/34 181/191/34 188/192/34 187/183/34
f 187/183/34 188/192/34 195/193/34 194/184/34
f 194/184/34 195/193/34 202/194/34 201/185/34
f 201/185/34 202/194/34 209/195/34 208/186/34
f 208/186/34 209/195/34 216/196/34 215/187/34
f 215/187/34 216/196/34 223/197/34 222/188/34
f 222/188/34 223/197/34 148/198/34 147/189/34
f 132/190/34 131/199/34 182/200/34 181/191/34
f 181/191/34 182/200/34 189/201/34 188/192/34
f 188/192/34 189/201/34 196/202/34 195/193/34
f 195/193/34 196/202/34 203/203/34 202/194/34
f 202/194/34 203/203/34 210/204/34 209/195/34
f 209/195/34 210/204/34 217/205/34 216/196/34
f 216/196/34 217/205/34 224/206/34 223/197/34
f 223/197/34 224/206/34 149/207/34 148/198/34
f 131/199/34 130/208/34 183/209/34 182/200/34
f 182/200/34 183/209/34 190/210/34 189/201/34
f 189/201/34 190/210/34 197/211/34 196/202/34
f 196/202/34 197/211/34 204/212/34 203/203/34
f 203/203/34 204/212/34 211/213/34 210/204/34
f 210/204/34 211/213/34 218/214/34 217/205/34
f 217/205/34 218/214/34 225/215/34 224/206/34
f 224/206/34 225/215/34 150/216/34 149/207/34
f 130/208/34 129/217/34 184/218/34 183/209/34
f 183/209/34 184/218/34 191/219/34 190/210/34
f 190/210/34 191/219/34 198/220/34 197/211/34
f 197/211/34 198/220/34 205/221/34 204/212/34
f 204/212/34 205/221/34 212/222/34 211/213/34
f 211/213/34 212/222/34 219/223/34 218/214/34
f 218/214/34 219/223/34 226/224/34 225/215/34
f 225/215/34 226/224/34 151/225/34 150/216/34
f 129/217/34 160/226/34 159/227/34 184/218/34
f 184/218/34 159/227/34 158/228/34 191/219/34
f 191/219/34 158/228/34 157/229/34 198/220/34
f 198/220/34 157/229/34 156/230/34 205/221/34
f 205/221/34 156/230/34 155/231/34 212/222/34
f 212/222/34 155/231/34 154/232/34 219/223/34
f 219/223/34 154/232/34 153/233/34 226/224/34
f 226/224/34 153/233/34 152/234/34 151/225/34
o Cylinder2
v -0.155883 1.500000 -0.783679
v -0.305776 1.500000 -0.738210
v -0.443918 1.500000 -0.664372
v -0.565001 1.500000 -0.565001
v -0.664371 1.500000 -0.443919
v -0.738210 1.500000 -0.305776
v -0.783679 1.500000 -0.155883
v -0.799032 1.500000 -0.000000
v -0.783679 1.500000 0.155883
v -0.738210 1.500000 0.305776
v -0.664371 1.500000 0.443918
v -0.565001 1.500000 0.565001
v -0.443918 1.500000 0.664371
v -0.305776 1.500000 0.738210
v -0.155883 1.500000 0.783679
v 0.000000 1.500000 0.799032
v 0.155883 1.500000 0.783679
v 0.305776 1.500000 0.738210
v 0.443918 1.500000 0.664371
v 0.565001 1.500000 0.565001
v 0.664371 1.500000 0.443918
v 0.738210 1.500000 0.305776
v 0.783679 1.500000 0.155883
v 0.799032 1.500000 -0.000000
v 0.783679 1.500000 -0.155883
v 0.738210 1.500000 -0.305776
v 0.664371 1.500000 -0.443919
v 0.565001 1.500000 -0.565001
v 0.443918 1.500000 -0.664372
v 0.305776 1.500000 -0.738210
v 0.155883 1.500000 -0.783679
v 0.000000 1.500000 -0.799032
v 0.000000 1.500000 -1.000000
v 0.195090 1.500000 -0.980785
v 0.382683 1.500000 -0.923880
v 0.555570 1.500000 -0.831470
v 0.707107 1.500000 -0.707107
v 0.831470 1.500000 -0.555570
v 0.923880 1.500000 -0.382683
v 0.980785 1.500000 -0.195090
v 1.000000 1.500000 -0.000000
v 0.980785 1.500000 0.195090
v 0.923880 1.500000 0.382683
v 0.831470 1.500000 0.555570
v 0.707107 1.500000 0.707107
v 0.555570 1.500000 0.831470
v 0.382683 1.500000 0.923880
v 0.195090 1.500000 0.980785
v 0.000000 1.500000 1.000000
v -0.195090 1.500000 0.980785
v -0.382683 1.500000 0.923880
v -0.555570 1.500000 0.831470
v -0.707107 1.500000 0.707107
v -0.831470 1.500000 0.555570
v -0.923880 1.500000 0.382683
v -0.980785 1.500000 0.195090
v -1.000000 1.500000 -0.000000
v -0.980785 1.500000 -0.195090
v -0.923880 1.500000 -0.382683
v -0.831470 1.500000 -0.555570
v -0.707107 1.500000 -0.707107
v -0.555570 1.500000 -0.831470
v -0.382683 1.500000 -0.923880
v -0.195090 1.500000 -0.980785
v 0.000000 1.500000 -1.000000
v 0.195090 1.500000 -0.980785
v 0.382683 1.500000 -0.923880
v 0.555570 1.500000 -0.831470
v 0.707107 1.500000 -0.707107
v 0.831470 1.500000 -0.555570
v 0.923880 1.500000 -0.382683
v 0.980785 1.500000 -0.195090
v 1.000000 1.500000 -0.000000
v 0.980785 1.500000 0.195090
v 0.923880 1.500000 0.382683
v 0.831470 1.500000 0.555570
v 0.707107 1.500000 0.707107
v 0.555570 1.500000 0.831470
v 0.382683 1.500000 0.923880
v 0.195090 1.500000 0.980785
v 0.000000 1.500000 1.000000
v -0.195090 1.500000 0.980785
v -0.382683 1.500000 0.923880
v -0.555570 1.500000 0.831470
v -0.707107 1.500000 0.707107
v -0.831470 1.500000 0.555570
v -0.923880 1.500000 0.382683
v -0.980785 1.500000 0.195090
v -1.000000 1.500000 -0.000000
v -0.980785 1.500000 -0.195090
v -0.923880 1.500000 -0.382683
v -0.831470 1.500000 -0.555570
v -0.707107 1.500000 -0.707107
v -0.555570 1.500000 -0.831470
v -0.382683 1.500000 -0.923880
v -0.195090 1.500000 -0.980785
v 0.000000 -0.500000 -1.000000
v 0.195090 -0.500000 -0.980785
v 0.382683 -0.500000 -0.923880
v 0.555570 -0.500000 -0.831470
v 0.707107 -0.500000 -0.707107
v 0.831470 -0.500000 -0.555570
v 0.923880 -0.500000 -0.382683
v 0.980785 -0.500000 -0.195090
v 1.000000 -0.500000 0.000000
v 0.980785 -0.500000 0.195090
v 0.923880 -0.500000 0.382683
v 0.831470 -0.500000 0.555570
v 0.707107 -0.500000 0.707107
v 0.555570 -0.500000 0.831470
v 0.382683 -0.500000 0.923880
v 0.195090 -0.500000 0.980785
v 0.000000 -0.500000 1.000000
v -0.195090 -0.500000 0.980785
v -0.382683 -0.500000 0.923880
v -0.555570 -0.500000 0.831470
v -0.707107 -0.500000 0.707107
v -0.831470 -0.500000 0.555570
v -0.923880 -0.500000 0.382683
v -0.980785 -0.500000 0.195090
v -1.000000 -0.500000 0.000000
v -0.980785 -0.500000 -0.195090
v -0.923880 -0.500000 -0.382683
v -0.831470 -0.500000 -0.555570
v -0.707107 -0.500000 -0.707107
v -0.555570 -0.500000 -0.831470
v -0.382683 -0.500000 -0.923880
v -0.195090 -0.500000 -0.980785
v 0.000000 1.300000 -1.000000
v 0.382683 1.300000 -0.923880
v 0.555570 1.300000 -0.831470
v 0.831470 1.300000 -0.555570
v 0.923880 1.300000 -0.382683
v 1.000000 1.300000 -0.000000
v 0.923880 1.300000 0.382683
v 0.831470 1.300000 0.555570
v 0.555570 1.300000 0.831470
v 0.382683 1.300000 0.923880
v 0.000000 1.300000 1.000000
v -0.382683 1.300000 0.923880
v -0.555570 1.300000 0.831470
v -0.831470 1.300000 0.555570
v -0.923880 1.300000 0.382683
v -1.000000 1.300000 -0.000000
v -0.980785 1.300000 -0.195090
v -0.831470 1.300000 -0.555570
v -0.555570 1.300000 -0.831470
v -0.382683 1.300000 -0.923880
v 0.195090 1.300000 -0.980785
v 0.707107 1.300000 -0.707107
v 0.980785 1.300000 -0.195090
v 0.980785 1.300000 0.195090
v 0.707107 1.300000 0.707107
v 0.195090 1.300000 0.980785
v -0.195090 1.300000 0.980785
v -0.707107 1.300000 0.707107
v -0.980785 1.300000 0.195090
v -0.923880 1.300000 -0.382683
v -0.707107 1.300000 -0.707107
v -0.195090 1.300000 -0.980785
v 0.000000 -0.320000 -1.000000
v 0.382683 -0.320000 -0.923880
v 0.555570 -0.320000 -0.831470
v 0.831470 -0.320000 -0.555570
v 0.923880 -0.320000 -0.382683
v 1.000000 -0.320000 0.000000
v 0.923880 -0.320000 0.382683
v 0.831470 -0.320000 0.555570
v 0.555570 -0.320000 0.831470
v 0.382683 -0.320000 0.923880
v 0.000000 -0.320000 1.000000
v -0.382683 -0.320000 0.923880
v -0.555570 -0.320000 0.831470
v -0.831470 -0.320000 0.555570
v -0.923880 -0.320000 0.382683
v -1.000000 -0.320000 0.000000
v -0.980785 -0.320000 -0.195090
v -0.831470 -0.320000 -0.555570
v -0.555570 -0.320000 -0.831470
v -0.382683 -0.320000 -0.923880
v 0.195090 -0.320000 -0.980785
v 0.707107 -0.320000 -0.707107
v 0.980785 -0.320000 -0.195090
v 0.980785 -0.320000 0.195090
v 0.707107 -0.320000 0.707107
v 0.195090 -0.320000 0.980785
v -0.195090 -0.320000 0.980785
v -0.707107 -0.320000 0.707107
v -0.980785 -0.320000 0.195090
v -0.923880 -0.320000 -0.382683
v -0.707107 -0.320000 -0.707107
v -0.195090 -0.320000 -0.980785
v -0.155883 -0.500000 -0.783679
v -0.305776 -0.500000 -0.738210
v -0.443918 -0.500000 -0.664371
v -0.565001 -0.500000 -0.565001
v -0.664371 -0.500000 -0.443918
v -0.738210 -0.500000 -0.305776
v -0.783679 -0.500000 -0.155883
v -0.799032 -0.500000 0.000000
v -0.783679 -0.500000 0.155883
v -0.738210 -0.500000 0.305776
v -0.664371 -0.500000 0.443918
v -0.565001 -0.500000 0.565001
v -0.443918 -0.500000 0.664371
v -0.305776 -0.500000 0.738210
v -0.155883 -0.500000 0.783679
v 0.000000 -0.500000 0.799032
v 0.155883 -0.500000 0.783679
v 0.305776 -0.500000 0.738210
v 0.443918 -0.500000 0.664371
v 0.565001 -0.500000 0.565001
v 0.664371 -0.500000 0.443918
v 0.738210 -0.500000 0.305776
v 0.783679 -0.500000 0.155883
v 0.799032 -0.500000 0.000000
v 0.783679 -0.500000 -0.155883
v 0.738210 -0.500000 -0.305776
v 0.664371 -0.500000 -0.443918
v 0.565001 -0.500000 -0.565001
v 0.443918 -0.500000 -0.664371
v 0.305776 -0.500000 -0.738210
v 0.155883 -0.500000 -0.783679
v 0.000000 -0.500000 -0.799032
vn -0.3827 -0.0000 -0.9239
vn -0.1951 -0.0000 -0.9808
vn -0.9239 -0.0000 -0.3827
vn -0.8315 -0.0000 -0.5556
vn 0.7071 -0.0000 0.7071
vn 0.5556 -0.0000 0.8315
vn -0.7071 -0.0000 -0.7071
vn 0.1951 -0.0000 -0.9808
vn 0.3827 -0.0000 -0.9239
vn 0.9239 -0.0000 -0.3827
vn 0.9808 -0.0000 -0.1951
vn -0.5556 -0.0000 -0.8315
vn -0.1951 -0.0000 0.9808
vn -0.3827 -0.0000 0.9239
vn -0.9239 -0.0000 0.3827
vn -0.9808 -0.0000 0.1951
vn -0.5556 -0.0000 0.8315
vn 0.7071 -0.0000 -0.7071
vn 0.8315 -0.0000 -0.5556
vn -1.0000 -0.0000 -0.0000
vn -0.9808 -0.0000 -0.1951
vn -0.7071 -0.0000 0.7071
vn -0.8315 -0.0000 0.5556
vn 0.1951 -0.0000 0.9808
vn -0.0000 -0.0000 1.0000
vn 0.3827 -0.0000 0.9239
vn 0.5556 -0.0000 -0.8315
vn 1.0000 -0.0000 -0.0000
vn 0.9808 -0.0000 0.1951
vn 0.9239 -0.0000 0.3827
vn 0.8315 -0.0000 0.5556
vn -0.0000 -0.0000 -1.0000
vn -0.0000 1.0000 -0.0000
vn -0.0000 -1.0000 -0.0000
vt 0.677555 0.908189
vt 0.677555 0.937292
vt 0.645416 0.937292
vt 0.645416 0.908189
vt 0.502578 0.772192
vt 0.538287 0.772192
vt 0.538287 0.806521
vt 0.502578 0.806521
vt 0.573997 0.831271
vt 0.538288 0.831271
vt 0.538288 0.796942
vt 0.573997 0.796942
vt 0.677555 0.806521
vt 0.677555 0.841523
vt 0.645416 0.841523
vt 0.645416 0.806521
vt 0.609707 0.932939
vt 0.573997 0.932939
vt 0.573997 0.900602
vt 0.609707 0.900602
vt 0.709694 0.764605
vt 0.709694 0.735502
vt 0.741832 0.735502
vt 0.741832 0.764605
vt 0.677555 0.875852
vt 0.645416 0.875852
vt 0.609707 0.739855
vt 0.645416 0.739855
vt 0.645416 0.772192
vt 0.609707 0.772192
vt 0.773971 0.908189
vt 0.773971 0.937292
vt 0.741832 0.937292
vt 0.741832 0.908189
vt 0.773971 0.772192
vt 0.773971 0.806521
vt 0.741832 0.806521
vt 0.741832 0.772192
vt 0.609707 0.831271
vt 0.609707 0.796942
vt 0.677555 0.710752
vt 0.677555 0.739855
vt 0.645416 0.739855
vt 0.645416 0.710752
vt 0.609707 0.841523
vt 0.609707 0.875852
vt 0.573997 0.735502
vt 0.538288 0.735502
vt 0.538288 0.710752
vt 0.573997 0.710752
vt 0.709694 0.796942
vt 0.741832 0.796942
vt 0.609707 0.937292
vt 0.645416 0.962041
vt 0.609707 0.962041
vt 0.677555 0.796942
vt 0.677555 0.764605
vt 0.709693 0.764605
vt 0.709693 0.796942
vt 0.709694 0.900602
vt 0.709694 0.866273
vt 0.741832 0.866273
vt 0.741832 0.900602
vt 0.773971 0.841523
vt 0.741832 0.841523
vt 0.677555 0.962041
vt 0.677555 0.932939
vt 0.709693 0.932939
vt 0.709693 0.962041
vt 0.709694 0.831271
vt 0.741832 0.831271
vt 0.538288 0.932939
vt 0.538288 0.900602
vt 0.773971 0.875852
vt 0.741832 0.875852
vt 0.609707 0.735502
vt 0.609707 0.710752
vt 0.677555 0.900602
vt 0.677555 0.866273
vt 0.709693 0.866273
vt 0.709693 0.900602
vt 0.677555 0.735502
vt 0.709693 0.735502
vt 0.677555 0.772192
vt 0.677555 0.831271
vt 0.709693 0.831271
vt 0.773971 0.710752
vt 0.773971 0.739855
vt 0.741832 0.739855
vt 0.741832 0.710752
vt 0.502578 0.841523
vt 0.538287 0.841523
vt 0.538287 0.875852
vt 0.502578 0.875852
vt 0.709694 0.962041
vt 0.709694 0.932939
vt 0.741832 0.932939
vt 0.741832 0.962041
vt 0.502578 0.937292
vt 0.538287 0.937292
vt 0.538287 0.962041
vt 0.502578 0.962041
vt 0.773971 0.710752
vt 0.035710 0.191672
vt 0.041166 0.219102
vt 0.006829 0.229518
vt 0.000000 0.195189
vt 0.051868 0.244940
vt 0.020223 0.261855
vt 0.067406 0.268194
vt 0.039669 0.290958
vt 0.087182 0.287970
vt 0.064419 0.315708
vt 0.110436 0.303508
vt 0.093522 0.335153
vt 0.136275 0.314211
vt 0.125859 0.348548
vt 0.163705 0.319667
vt 0.160188 0.355376
vt 0.191672 0.319667
vt 0.195189 0.355376
vt 0.219102 0.314210
vt 0.229518 0.348548
vt 0.244940 0.303508
vt 0.261855 0.335153
vt 0.268194 0.287970
vt 0.290958 0.315707
vt 0.287970 0.268194
vt 0.315708 0.290958
vt 0.303508 0.244940
vt 0.335153 0.261855
vt 0.314211 0.219101
vt 0.348548 0.229517
vt 0.319667 0.191671
vt 0.355376 0.195189
vt 0.319667 0.163704
vt 0.355376 0.160187
vt 0.314210 0.136274
vt 0.348548 0.125858
vt 0.303508 0.110436
vt 0.335153 0.093521
vt 0.287970 0.087182
vt 0.315707 0.064418
vt 0.268194 0.067406
vt 0.290958 0.039669
vt 0.244940 0.051868
vt 0.261855 0.020223
vt 0.219101 0.041166
vt 0.229517 0.006828
vt 0.191671 0.035710
vt 0.195189 0.000000
vt 0.163704 0.035710
vt 0.160187 0.000000
vt 0.136274 0.041166
vt 0.125858 0.006829
vt 0.110436 0.051868
vt 0.093521 0.020223
vt 0.087182 0.067406
vt 0.064418 0.039669
vt 0.067406 0.087182
vt 0.039669 0.064419
vt 0.051868 0.110436
vt 0.020223 0.093522
vt 0.041166 0.136275
vt 0.006828 0.125859
vt 0.035710 0.163705
vt 0.000000 0.160188
vt 0.035710 0.519081
vt 0.035710 0.547048
vt 0.000000 0.550565
vt 0.000000 0.515564
vt 0.041166 0.491651
vt 0.006828 0.481235
vt 0.051868 0.465813
vt 0.020223 0.448898
vt 0.067406 0.442558
vt 0.039669 0.419795
vt 0.087182 0.422783
vt 0.064418 0.395045
vt 0.110436 0.407245
vt 0.093521 0.375599
vt 0.136274 0.396542
vt 0.125858 0.362205
vt 0.163704 0.391086
vt 0.160187 0.355376
vt 0.191671 0.391086
vt 0.195189 0.355376
vt 0.219101 0.396542
vt 0.229517 0.362204
vt 0.244940 0.407244
vt 0.261855 0.375599
vt 0.268194 0.422782
vt 0.290958 0.395045
vt 0.287970 0.442558
vt 0.315707 0.419795
vt 0.303508 0.465812
vt 0.335153 0.448897
vt 0.314210 0.491651
vt 0.348548 0.481234
vt 0.319667 0.519080
vt 0.355376 0.515563
vt 0.319667 0.547048
vt 0.355376 0.550565
vt 0.314211 0.574478
vt 0.348548 0.584894
vt 0.303508 0.600316
vt 0.335153 0.617231
vt 0.287970 0.623570
vt 0.315708 0.646334
vt 0.268194 0.643346
vt 0.290958 0.671084
vt 0.244940 0.658884
vt 0.261855 0.690529
vt 0.219102 0.669587
vt 0.229518 0.703924
vt 0.191672 0.675043
vt 0.195189 0.710752
vt 0.163705 0.675043
vt 0.160188 0.710752
vt 0.136275 0.669587
vt 0.125859 0.703924
vt 0.110436 0.658884
vt 0.093522 0.690530
vt 0.087182 0.643346
vt 0.064419 0.671084
vt 0.067406 0.623570
vt 0.039669 0.646334
vt 0.051868 0.600317
vt 0.020223 0.617231
vt 0.041166 0.574478
vt 0.006829 0.584894
vt 0.573997 0.962041
vt 0.609707 0.962041
vt 0.609707 0.710752
vt 0.538288 0.866273
vt 0.573997 0.866273
vt 0.538287 0.739855
vt 0.502578 0.739855
vt 0.538288 0.764605
vt 0.573997 0.764605
vt 0.609707 0.908189
vt 0.609707 0.866273
vt 0.538288 0.962041
vt 0.573997 0.962041
vt 0.609707 0.806521
vt 0.609707 0.764605
vt 0.538287 0.710752
vt 0.502578 0.710752
vt 0.538287 0.908189
vt 0.502578 0.908189
vt 0.677555 0.710752
vt 0.709693 0.710752
vt 0.773971 0.962041
vt 0.741832 0.962041
vt 0.709694 0.710752
vt 0.741832 0.710752
vt 0.677555 0.962041
s 1
usemtl Material2
f 406/235/35 418/236/36 354/237/36 353/238/35
f 384/239/37 285/240/37 286/241/38 372/242/38
f 379/243/39 271/244/39 272/245/40 363/246/40
f 404/247/38 417/248/41 351/249/41 350/250/38
f 375/251/42 260/252/42 261/253/43 356/254/43
f 391/255/44 409/256/45 330/257/45 329/258/44
f 405/259/46 406/235/35 353/238/35 352/260/46
f 381/261/47 276/262/47 277/263/48 366/264/48
f 401/265/49 415/266/50 346/267/50 345/268/49
f 398/269/48 399/270/51 342/271/51 341/272/48
f 376/273/52 263/243/52 264/246/53 358/274/53
f 402/275/54 403/276/55 348/277/55 347/278/54
f 382/279/56 279/249/56 280/260/57 368/280/57
f 380/281/58 274/282/58 275/283/59 365/284/59
f 390/285/53 391/255/44 329/258/44 328/286/53
f 383/287/50 282/237/50 283/288/54 370/289/54
f 395/290/40 396/291/60 337/292/60 336/293/40
f 388/294/43 389/295/61 326/296/61 325/297/43
f 399/270/51 414/298/56 343/299/56 342/271/51
f 392/300/62 410/301/63 332/302/63 331/303/62
f 389/295/61 408/304/52 327/305/52 326/296/61
f 378/252/63 268/306/63 269/307/64 361/253/64
f 400/308/57 401/265/49 345/268/49 344/309/57
f 377/310/45 266/281/45 267/284/62 360/311/62
f 393/312/64 394/313/65 334/314/65 333/315/64
f 396/291/60 412/316/58 338/317/58 337/292/60
f 403/276/55 416/318/37 349/263/37 348/277/55
f 394/313/65 411/319/39 335/320/39 334/314/65
f 397/321/59 413/322/47 340/323/47 339/324/59
f 385/325/41 287/326/41 288/327/46 373/328/46
f 387/329/66 407/330/42 324/331/42 323/332/66
f 386/333/36 290/334/36 259/335/66 355/336/66
s 0
f 291/337/59 292/337/59 260/337/59 259/337/59
f 292/337/59 293/337/59 261/337/59 260/337/59
f 293/337/59 294/337/59 262/337/59 261/337/59
f 294/337/59 295/337/59 263/337/59 262/337/59
f 295/337/59 296/337/59 264/337/59 263/337/59
f 296/337/59 297/337/59 265/337/59 264/337/59
f 297/337/59 298/337/59 266/337/59 265/337/59
f 298/337/59 299/337/59 267/337/59 266/337/59
f 299/337/59 300/337/59 268/337/59 267/337/59
f 300/337/59 301/337/59 269/337/59 268/337/59
f 301/337/59 302/337/59 270/337/59 269/337/59
f 302/337/59 303/337/59 271/337/59 270/337/59
f 303/337/59 304/337/59 272/337/59 271/337/59
f 304/337/59 305/337/59 273/337/59 272/337/59
f 305/337/59 306/337/59 274/337/59 273/337/59
f 306/337/59 307/337/59 275/337/59 274/337/59
f 307/337/59 308/337/59 276/337/59 275/337/59
f 308/337/59 309/337/59 277/337/59 276/337/59
f 309/337/59 310/337/59 278/337/59 277/337/59
f 310/337/59 311/337/59 279/337/59 278/337/59
f 311/337/59 312/337/59 280/337/59 279/337/59
f 312/337/59 313/337/59 281/337/59 280/337/59
f 313/337/59 314/337/59 282/337/59 281/337/59
f 314/337/59 315/337/59 283/337/59 282/337/59
f 315/337/59 316/337/59 284/337/59 283/337/59
f 316/337/59 317/337/59 285/337/59 284/337/59
f 317/337/59 318/337/59 286/337/59 285/337/59
f 318/337/59 319/337/59 287/337/59 286/337/59
f 319/337/59 320/337/59 288/337/59 287/337/59
f 320/337/59 321/337/59 289/337/59 288/337/59
f 322/337/59 291/337/59 259/337/59 290/337/59
f 321/337/59 322/337/59 290/337/59 289/337/59
f 258/338/67 257/339/67 292/340/67 291/341/67
f 257/339/67 256/342/67 293/343/67 292/340/67
f 256/342/67 255/344/67 294/345/67 293/343/67
f 255/344/67 254/346/67 295/347/67 294/345/67
f 254/346/67 253/348/67 296/349/67 295/347/67
f 253/348/67 252/350/67 297/351/67 296/349/67
f 252/350/67 251/352/67 298/353/67 297/351/67
f 251/352/67 250/354/67 299/355/67 298/353/67
f 250/354/67 249/356/67 300/357/67 299/355/67
f 249/356/67 248/358/67 301/359/67 300/357/67
f 248/358/67 247/360/67 302/361/67 301/359/67
f 247/360/67 246/362/67 303/363/67 302/361/67
f 246/362/67 245/364/67 304/365/67 303/363/67
f 245/364/67 244/366/67 305/367/67 304/365/67
f 244/366/67 243/368/67 306/369/67 305/367/67
f 243/368/67 242/370/67 307/371/67 306/369/67
f 242/370/67 241/372/67 308/373/67 307/371/67
f 241/372/67 240/374/67 309/375/67 308/373/67
f 240/374/67 239/376/67 310/377/67 309/375/67
f 239/376/67 238/378/67 311/379/67 310/377/67
f 238/378/67 237/380/67 312/381/67 311/379/67
f 237/380/67 236/382/67 313/383/67 312/381/67
f 236/382/67 235/384/67 314/385/67 313/383/67
f 235/384/67 234/386/67 315/387/67 314/385/67
f 234/386/67 233/388/67 316/389/67 315/387/67
f 233/388/67 232/390/67 317/391/67 316/389/67
f 232/390/67 231/392/67 318/393/67 317/391/67
f 231/392/67 230/394/67 319/395/67 318/393/67
f 230/394/67 229/396/67 320/397/67 319/395/67
f 229/396/67 228/398/67 321/399/67 320/397/67
f 227/400/67 258/338/67 291/341/67 322/401/67
f 228/398/67 227/400/67 322/401/67 321/399/67
f 449/402/68 450/403/68 323/404/68 324/405/68
f 448/406/68 449/402/68 324/405/68 325/407/68
f 447/408/68 448/406/68 325/407/68 326/409/68
f 446/410/68 447/408/68 326/409/68 327/411/68
f 445/412/68 446/410/68 327/411/68 328/413/68
f 444/414/68 445/412/68 328/413/68 329/415/68
f 443/416/68 444/414/68 329/415/68 330/417/68
f 442/418/68 443/416/68 330/417/68 331/419/68
f 441/420/68 442/418/68 331/419/68 332/421/68
f 440/422/68 441/420/68 332/421/68 333/423/68
f 439/424/68 440/422/68 333/423/68 334/425/68
f 438/426/68 439/424/68 334/425/68 335/427/68
f 437/428/68 438/426/68 335/427/68 336/429/68
f 436/430/68 437/428/68 336/429/68 337/431/68
f 435/432/68 436/430/68 337/431/68 338/433/68
f 434/434/68 435/432/68 338/433/68 339/435/68
f 433/436/68 434/434/68 339/435/68 340/437/68
f 432/438/68 433/436/68 340/437/68 341/439/68
f 431/440/68 432/438/68 341/439/68 342/441/68
f 430/442/68 431/440/68 342/441/68 343/443/68
f 429/444/68 430/442/68 343/443/68 344/445/68
f 428/446/68 429/444/68 344/445/68 345/447/68
f 427/448/68 428/446/68 345/447/68 346/449/68
f 426/450/68 427/448/68 346/449/68 347/451/68
f 425/452/68 426/450/68 347/451/68 348/453/68
f 424/454/68 425/452/68 348/453/68 349/455/68
f 423/456/68 424/454/68 349/455/68 350/457/68
f 422/458/68 423/456/68 350/457/68 351/459/68
f 421/460/68 422/458/68 351/459/68 352/461/68
f 420/462/68 421/460/68 352/461/68 353/463/68
f 419/464/68 420/462/68 353/463/68 354/465/68
f 450/403/68 419/464/68 354/465/68 323/404/68
s 1
f 259/466/66 260/252/42 375/251/42 355/467/66
f 275/278/59 276/262/47 381/261/47 365/468/59
f 270/469/65 271/244/39 379/243/39 362/470/65
f 284/471/55 285/240/37 384/239/37 371/472/55
f 273/473/60 274/282/58 380/281/58 364/474/60
f 269/307/64 270/469/65 362/470/65 361/253/64
f 280/260/57 281/238/49 369/475/49 368/280/57
f 262/470/61 263/243/52 376/273/52 357/476/61
f 267/477/62 268/306/63 378/252/63 360/478/62
f 278/250/51 279/249/56 382/279/56 367/479/51
f 261/253/43 262/470/61 357/476/61 356/254/43
f 272/245/40 273/473/60 364/474/60 363/246/40
f 264/246/53 265/474/44 359/480/44 358/274/53
f 283/481/54 284/471/55 371/472/55 370/482/54
f 277/263/48 278/250/51 367/479/51 366/264/48
f 281/238/49 282/237/50 383/287/50 369/475/49
f 288/327/46 289/483/35 374/484/35 373/328/46
f 265/474/44 266/281/45 377/310/45 359/480/44
f 286/241/38 287/326/41 385/325/41 372/242/38
f 289/483/35 290/334/36 386/333/36 374/484/35
f 349/263/37 416/318/37 404/247/38 350/250/38
f 335/320/39 411/319/39 395/290/40 336/293/40
f 324/331/42 407/330/42 388/294/43 325/297/43
f 340/323/47 413/322/47 398/269/48 341/272/48
f 327/305/52 408/304/52 390/285/53 328/286/53
f 343/299/56 414/298/56 400/308/57 344/309/57
f 338/317/58 412/316/58 397/485/59 339/486/59
f 346/267/50 415/266/50 402/487/54 347/488/54
f 332/302/63 410/301/63 393/312/64 333/315/64
f 330/257/45 409/256/45 392/489/62 331/490/62
f 351/249/41 417/248/41 405/259/46 352/260/46
f 354/237/36 418/236/36 387/491/66 323/288/66
