mtllib shell_gummi_pyramid.mtl
o Pyramid2
v 1.000000 1.000000 -1.000000
v 1.000000 -1.000000 -1.000000
v 1.000000 1.000000 -1.000000
v 1.000000 -1.000000 1.000000
v -1.000000 -1.000000 -1.000000
v -1.000000 -1.000000 -1.000000
v 0.866667 -0.866667 0.733333
v -0.733333 -0.866667 -0.866667
v 0.866667 0.733333 -0.866667
v 0.888411 -0.866667 -1.000000
v 0.888411 0.733333 -1.000000
v -0.711589 -0.866667 -1.000000
v 1.000000 -0.866667 -0.866667
v 1.000000 0.733333 -0.866667
v 1.000000 -0.866667 0.733333
v 0.866667 -1.000000 -0.866667
v 0.866667 -1.000000 0.733333
v -0.733333 -1.000000 -0.866667
vn -0.5774 0.5774 0.5774
vn -0.5773 0.5774 0.5774
vn -0.0000 -0.0000 -1.0000
vn 1.0000 -0.0000 -0.0000
vn -0.0000 -1.0000 -0.0000
vt 0.390913 0.225694
vt 0.032042 0.048099
vt -0.000000 -0.000000
vt 0.057676 0.447688
vt 0.032042 0.499487
vt 0.448589 0.221994
vt 0.698846 0.500513
vt 0.679441 0.052772
vt 0.698846 -0.000000
vt 0.448589 0.250257
vt 0.479236 0.252977
vt 0.679441 0.453183
vt 0.949102 0.250257
vt 0.715530 0.450462
vt 0.915735 0.250257
vt 0.698846 0.500513
vt 0.715530 0.050051
vt 0.698846 -0.000000
vt -0.000000 0.749743
vt 0.233573 0.549538
vt 0.033368 0.749743
vt 0.233573 0.949949
vt 0.250257 1.000000
vt 0.250257 0.499487
s 0
usemtl Material2
f 9/1/1 7/2/1 4/3/1
f 7/2/1 8/4/1 6/5/1
f 9/1/1 4/3/1 3/6/1
f 7/2/1 6/5/1 4/3/1
f 3/6/2 8/4/2 9/1/2
f 3/7/3 12/8/3 6/9/3
f 2/10/3 12/8/3 10/11/3
f 2/10/3 11/12/3 3/7/3
f 2/13/4 14/14/4 13/15/4
f 3/16/4 15/17/4 14/14/4
f 2/13/4 15/17/4 4/18/4
f 2/19/5 17/20/5 16/21/5
f 2/19/5 18/22/5 6/23/5
f 4/24/5 18/22/5 17/20/5
f 3/6/1 6/5/1 8/4/1
f 3/7/3 11/12/3 12/8/3
f 2/10/3 6/9/3 12/8/3
f 2/10/3 10/11/3 11/12/3
f 2/13/4 3/16/4 14/14/4
f 3/16/4 4/18/4 15/17/4
f 2/13/4 13/15/4 15/17/4
f 2/19/5 4/24/5 17/20/5
f 2/19/5 16/21/5 18/22/5
f 4/24/5 6/23/5 18/22/5
l 1 2
l 5 6
l 1 3
o Pyramid
v 1.000000 1.000000 -1.000000
v 1.000000 -1.000000 -1.000000
v 1.000000 1.000000 -1.000000
v -1.000000 -1.000000 -1.000000
v -1.000000 -1.000000 -1.000000
v 0.866667 -0.866667 0.733333
v -0.733333 -0.866667 -0.866667
v 0.866667 0.733333 -0.866667
v 0.888411 -0.866667 -1.000000
v 0.888411 0.733333 -1.000000
v -0.711589 -0.866667 -1.000000
v 1.000000 -0.866667 -0.866667
v 1.000000 0.733333 -0.866667
v 1.000000 -0.866667 0.733333
v 0.866667 -1.000000 -0.866667
v 0.866667 -1.000000 0.733333
v -0.733333 -1.000000 -0.866667
vn -0.5774 0.5774 0.5774
vn -0.0000 -0.0000 -1.0000
vn 1.0000 -0.0000 -0.0000
vn -0.0000 -1.0000 -0.0000
vt 0.032042 0.048099
vt 0.390913 0.225694
vt 0.057676 0.447688
vt 0.679441 0.453183
vt 0.479236 0.252977
vt 0.679441 0.052772
vt 0.715530 0.450462
vt 0.715530 0.050051
vt 0.915735 0.250257
vt 0.233573 0.549538
vt 0.233573 0.949949
vt 0.033368 0.749743
s 0
usemtl Material
f 24/25/6 26/26/6 25/27/6
f 28/28/7 27/29/7 29/30/7
f 31/31/8 32/32/8 30/33/8
f 34/34/9 35/35/9 33/36/9
l 19 20
l 22 23
l 19 21
