mtllib shell_gummi_dome.mtl
o Dome
v 0.000000 0.626570 -0.566681
v 0.000000 0.350670 -0.848099
v 0.038821 0.775885 -0.195169
v 0.076151 0.718980 -0.382837
v 0.110554 0.626570 -0.555793
v 0.140709 0.502207 -0.707390
v 0.165456 0.350670 -0.831803
v 0.183845 0.177783 -0.924249
v 0.076151 0.775885 -0.183845
v 0.149376 0.718980 -0.360624
v 0.216860 0.626570 -0.523546
v 0.276010 0.502207 -0.666347
v 0.324554 0.350670 -0.783542
v 0.360624 0.177783 -0.870624
v 0.110554 0.775885 -0.165456
v 0.216860 0.718980 -0.324554
v 0.314831 0.626570 -0.471179
v 0.400704 0.502207 -0.599697
v 0.471179 0.350670 -0.705169
v 0.523546 0.177783 -0.783542
v 0.140709 0.775885 -0.140709
v 0.276010 0.718980 -0.276010
v 0.400704 0.626570 -0.400704
v 0.510000 0.502207 -0.510000
v 0.599697 0.350670 -0.599697
v 0.666347 0.177783 -0.666347
v 0.165456 0.775885 -0.110554
v 0.324554 0.718980 -0.216860
v 0.471179 0.626570 -0.314831
v 0.599697 0.502207 -0.400704
v 0.705169 0.350670 -0.471179
v 0.783542 0.177783 -0.523546
v 0.000000 0.795100 -0.000000
v 0.183845 0.775885 -0.076151
v 0.360624 0.718980 -0.149376
v 0.523546 0.626570 -0.216859
v 0.666347 0.502207 -0.276010
v 0.783542 0.350670 -0.324554
v 0.870624 0.177783 -0.360624
v 0.195169 0.775885 -0.038821
v 0.382837 0.718980 -0.076151
v 0.555793 0.626570 -0.110554
v 0.707390 0.502207 -0.140709
v 0.831803 0.350670 -0.165456
v 0.924249 0.177783 -0.183845
v 0.198992 0.775885 -0.000000
v 0.390337 0.718980 -0.000000
v 0.566681 0.626570 -0.000000
v 0.721249 0.502207 -0.000000
v 0.848098 0.350670 -0.000000
v 0.942357 0.177783 -0.000000
v 0.195169 0.775885 0.038821
v 0.382837 0.718980 0.076151
v 0.555793 0.626570 0.110554
v 0.707390 0.502207 0.140709
v 0.831803 0.350670 0.165456
v 0.924249 0.177783 0.183845
v 0.183845 0.775885 0.076151
v 0.360624 0.718980 0.149376
v 0.523546 0.626570 0.216860
v 0.666347 0.502207 0.276010
v 0.783542 0.350670 0.324554
v 0.870624 0.177783 0.360624
v 0.165456 0.775885 0.110554
v 0.324554 0.718980 0.216860
v 0.471179 0.626570 0.314831
v 0.599697 0.502207 0.400704
v 0.705168 0.350670 0.471179
v 0.783542 0.177783 0.523546
v 0.140709 0.775885 0.140709
v 0.276010 0.718980 0.276010
v 0.400704 0.626570 0.400704
v 0.510000 0.502207 0.510000
v 0.599697 0.350670 0.599697
v 0.666347 0.177783 0.666347
v 0.110554 0.775885 0.165456
v 0.216859 0.718980 0.324554
v 0.314831 0.626570 0.471179
v 0.400704 0.502207 0.599697
v 0.471179 0.350670 0.705169
v 0.523546 0.177783 0.783542
v 0.076151 0.775885 0.183845
v 0.149376 0.718980 0.360624
v 0.216859 0.626570 0.523546
v 0.276010 0.502207 0.666347
v 0.324553 0.350670 0.783542
v 0.360624 0.177783 0.870624
v 0.038821 0.775885 0.195169
v 0.076151 0.718980 0.382837
v 0.110554 0.626570 0.555793
v 0.140709 0.502207 0.707390
v 0.165456 0.350670 0.831803
v 0.183845 0.177783 0.924249
v 0.000000 0.775885 0.198992
v 0.000000 0.718980 0.390337
v 0.000000 0.626570 0.566681
v 0.000000 0.502207 0.721249
v 0.000000 0.350670 0.848098
v 0.000000 0.177783 0.942357
v -0.038821 0.775885 0.195169
v -0.076151 0.718980 0.382837
v -0.110554 0.626570 0.555793
v -0.140709 0.502207 0.707390
v -0.165456 0.350670 0.831803
v -0.183845 0.177783 0.924249
v -0.076151 0.775885 0.183845
v -0.149376 0.718980 0.360624
v -0.216860 0.626570 0.523546
v -0.276010 0.502207 0.666347
v -0.324554 0.350670 0.783540
v -0.360624 0.177783 0.870624
v -0.110554 0.775885 0.165456
v -0.216860 0.718980 0.324554
v -0.314831 0.626570 0.471178
v -0.400704 0.502207 0.599697
v -0.471179 0.350670 0.705168
v -0.523546 0.177783 0.783542
v -0.140709 0.775885 0.140709
v -0.276010 0.718980 0.276010
v -0.400704 0.626570 0.400704
v -0.510000 0.502207 0.510000
v -0.599697 0.350670 0.599696
v -0.666347 0.177783 0.666347
v -0.165456 0.775885 0.110554
v -0.324554 0.718980 0.216859
v -0.471179 0.626570 0.314831
v -0.599697 0.502207 0.400704
v -0.705168 0.350670 0.471178
v -0.783540 0.177783 0.523546
v -0.183845 0.775885 0.076151
v -0.360624 0.718980 0.149376
v -0.523546 0.626570 0.216859
v -0.666347 0.502207 0.276010
v -0.783540 0.350670 0.324553
v -0.870624 0.177783 0.360624
v -0.195169 0.775885 0.038821
v -0.382837 0.718980 0.076151
v -0.555793 0.626570 0.110554
v -0.707390 0.502207 0.140709
v -0.831803 0.350670 0.165455
v -0.924249 0.177783 0.183845
v -0.198992 0.775885 -0.000000
v -0.390337 0.718980 -0.000000
v -0.566681 0.626570 -0.000000
v -0.721249 0.502207 -0.000000
v -0.848098 0.350670 -0.000000
v -0.941778 0.181492 -0.000000
v -0.195169 0.775885 -0.038821
v -0.382837 0.718980 -0.076151
v -0.555793 0.626570 -0.110554
v -0.707390 0.502207 -0.140709
v -0.831803 0.350670 -0.165456
v -0.924249 0.177783 -0.183845
v -0.183845 0.775885 -0.076151
v -0.360624 0.718980 -0.149376
v -0.523545 0.626570 -0.216859
v -0.666347 0.502207 -0.276010
v -0.783540 0.350670 -0.324554
v -0.870624 0.177783 -0.360624
v -0.165456 0.775885 -0.110554
v -0.324553 0.718980 -0.216859
v -0.471178 0.626570 -0.314831
v -0.599697 0.502207 -0.400704
v -0.705168 0.350670 -0.471179
v -0.783540 0.177783 -0.523546
v -0.140709 0.775885 -0.140709
v -0.276010 0.718980 -0.276010
v -0.400704 0.626570 -0.400704
v -0.510000 0.502207 -0.510000
v -0.599696 0.350670 -0.599697
v -0.666347 0.177783 -0.666347
v -0.110554 0.775885 -0.165456
v -0.216859 0.718980 -0.324554
v -0.314831 0.626570 -0.471178
v -0.400704 0.502207 -0.599697
v -0.471178 0.350670 -0.705168
v -0.523546 0.177783 -0.783540
v -0.076151 0.775885 -0.183845
v -0.149375 0.718980 -0.360624
v -0.216859 0.626570 -0.523545
v -0.276010 0.502207 -0.666347
v -0.324553 0.350670 -0.783540
v -0.360624 0.177783 -0.870624
v -0.038821 0.775885 -0.195169
v -0.076151 0.718980 -0.382837
v -0.110554 0.626570 -0.555793
v -0.140709 0.502207 -0.707390
v -0.165455 0.350670 -0.831803
v -0.183845 0.177783 -0.924249
v 0.000000 0.775885 -0.198992
v 0.000000 0.718980 -0.390337
v 0.000000 0.502207 -0.721249
v 0.000000 0.177783 -0.942357
v 0.000001 -0.009810 -0.799433
v 0.155962 -0.009810 -0.784073
v 0.305930 -0.009810 -0.738579
v 0.444141 -0.009810 -0.664704
v 0.565284 -0.009810 -0.565284
v 0.664704 -0.009810 -0.444141
v 0.738579 -0.009810 -0.305930
v 0.784073 -0.009810 -0.155962
v 0.799433 -0.009810 0.000000
v -0.738579 -0.009810 -0.305930
v 0.784073 -0.009810 0.155962
v -0.799433 -0.009810 -0.000000
v 0.738579 -0.009810 0.305930
v -0.738579 -0.009810 0.305930
v 0.664704 -0.009810 0.444141
v -0.565284 -0.009810 0.565284
v 0.565284 -0.009810 0.565284
v 0.444141 -0.009810 0.664704
v 0.305930 -0.009810 0.738579
v 0.000000 -0.009810 0.799433
v -0.565283 -0.009810 -0.565284
v -0.784072 -0.009810 -0.155962
v -0.784072 -0.009810 0.155961
v -0.664704 -0.009810 0.444141
v -0.444141 -0.009810 0.664704
v -0.305930 -0.009810 0.738579
v -0.155962 -0.009810 0.784072
v 0.155962 -0.009810 0.784072
v -0.305930 -0.009810 -0.738579
v -0.155961 -0.009810 -0.784072
v -0.444141 -0.009810 -0.664704
v -0.664705 -0.009810 -0.444141
vn -0.0000 0.8336 -0.5523
vn -0.0000 0.5602 -0.8284
vn 0.0385 0.9804 -0.1935
vn 0.0744 0.9244 -0.3742
vn 0.1078 0.8336 -0.5417
vn 0.1372 0.7109 -0.6898
vn 0.1616 0.5602 -0.8125
vn 0.1713 0.4787 -0.8611
vn 0.0755 0.9804 -0.1822
vn 0.1460 0.9244 -0.3525
vn 0.2114 0.8336 -0.5103
vn 0.2691 0.7109 -0.6498
vn 0.3170 0.5602 -0.7653
vn 0.3360 0.4787 -0.8112
vn 0.1096 0.9804 -0.1640
vn 0.2120 0.9244 -0.3172
vn 0.3069 0.8336 -0.4593
vn 0.3907 0.7109 -0.5848
vn 0.4602 0.5602 -0.6888
vn 0.4878 0.4787 -0.7300
vn 0.1395 0.9804 -0.1395
vn 0.2698 0.9244 -0.2698
vn 0.3906 0.8336 -0.3906
vn 0.4973 0.7109 -0.4973
vn 0.5857 0.5602 -0.5857
vn 0.6208 0.4787 -0.6208
vn 0.1640 0.9804 -0.1096
vn 0.3172 0.9244 -0.2120
vn 0.4593 0.8336 -0.3069
vn 0.5848 0.7109 -0.3907
vn 0.6888 0.5602 -0.4602
vn 0.7300 0.4787 -0.4878
vn -0.0000 1.0000 -0.0000
vn 0.1822 0.9804 -0.0755
vn 0.3525 0.9244 -0.1460
vn 0.5103 0.8336 -0.2114
vn 0.6498 0.7109 -0.2691
vn 0.7653 0.5602 -0.3170
vn 0.8112 0.4787 -0.3360
vn 0.1935 0.9804 -0.0385
vn 0.3742 0.9244 -0.0744
vn 0.5417 0.8336 -0.1078
vn 0.6898 0.7109 -0.1372
vn 0.8125 0.5602 -0.1616
vn 0.8611 0.4787 -0.1713
vn 0.1973 0.9804 -0.0000
vn 0.3815 0.9244 -0.0000
vn 0.5523 0.8336 -0.0000
vn 0.7033 0.7109 -0.0000
vn 0.8284 0.5602 -0.0000
vn 0.8780 0.4787 -0.0000
vn 0.1935 0.9804 0.0385
vn 0.3742 0.9244 0.0744
vn 0.5417 0.8336 0.1078
vn 0.6898 0.7109 0.1372
vn 0.8125 0.5602 0.1616
vn 0.8611 0.4787 0.1713
vn 0.1822 0.9804 0.0755
vn 0.3525 0.9244 0.1460
vn 0.5103 0.8336 0.2114
vn 0.6498 0.7109 0.2691
vn 0.7653 0.5602 0.3170
vn 0.8112 0.4787 0.3360
vn 0.1640 0.9804 0.1096
vn 0.3172 0.9244 0.2120
vn 0.4593 0.8336 0.3069
vn 0.5848 0.7109 0.3907
vn 0.6888 0.5602 0.4602
vn 0.7300 0.4787 0.4878
vn 0.1395 0.9804 0.1395
vn 0.2698 0.9244 0.2698
vn 0.3906 0.8336 0.3906
vn 0.4973 0.7109 0.4973
vn 0.5857 0.5602 0.5857
vn 0.6208 0.4787 0.6208
vn 0.1096 0.9804 0.1640
vn 0.2120 0.9244 0.3172
vn 0.3069 0.8336 0.4593
vn 0.3907 0.7109 0.5848
vn 0.4602 0.5602 0.6888
vn 0.4878 0.4787 0.7300
vn 0.0755 0.9804 0.1822
vn 0.1460 0.9244 0.3525
vn 0.2114 0.8336 0.5103
vn 0.2691 0.7109 0.6498
vn 0.3170 0.5602 0.7653
vn 0.3360 0.4787 0.8112
vn 0.0385 0.9804 0.1935
vn 0.0744 0.9244 0.3742
vn 0.1078 0.8336 0.5417
vn 0.1372 0.7109 0.6898
vn 0.1616 0.5602 0.8125
vn 0.1713 0.4787 0.8611
vn -0.0000 0.9804 0.1973
vn -0.0000 0.9244 0.3815
vn -0.0000 0.8336 0.5523
vn -0.0000 0.7109 0.7033
vn -0.0000 0.5602 0.8284
vn -0.0000 0.4787 0.8780
vn -0.0385 0.9804 0.1935
vn -0.0744 0.9244 0.3742
vn -0.1078 0.8336 0.5417
vn -0.1372 0.7109 0.6898
vn -0.1616 0.5602 0.8125
vn -0.1713 0.4787 0.8611
vn -0.0755 0.9804 0.1822
vn -0.1460 0.9244 0.3525
vn -0.2114 0.8336 0.5103
vn -0.2691 0.7109 0.6498
vn -0.3170 0.5602 0.7653
vn -0.3360 0.4787 0.8112
vn -0.1096 0.9804 0.1640
vn -0.2120 0.9244 0.3172
vn -0.3069 0.8336 0.4593
vn -0.3907 0.7109 0.5848
vn -0.4602 0.5602 0.6888
vn -0.4878 0.4787 0.7300
vn -0.1395 0.9804 0.1395
vn -0.2698 0.9244 0.2698
vn -0.3906 0.8336 0.3906
vn -0.4973 0.7109 0.4973
vn -0.5857 0.5602 0.5857
vn -0.6208 0.4787 0.6208
vn -0.1640 0.9804 0.1096
vn -0.3172 0.9244 0.2120
vn -0.4593 0.8336 0.3069
vn -0.5848 0.7109 0.3907
vn -0.6888 0.5602 0.4602
vn -0.7300 0.4787 0.4878
vn -0.1822 0.9804 0.0755
vn -0.3525 0.9244 0.1460
vn -0.5103 0.8336 0.2114
vn -0.6498 0.7109 0.2691
vn -0.7653 0.5602 0.3170
vn -0.8112 0.4787 0.3360
vn -0.1935 0.9804 0.0385
vn -0.3742 0.9244 0.0744
vn -0.5417 0.8336 0.1078
vn -0.6898 0.7109 0.1372
vn -0.8118 0.5608 0.1625
vn -0.8599 0.4800 0.1735
vn -0.1973 0.9804 -0.0000
vn -0.3815 0.9244 -0.0000
vn -0.5523 0.8336 -0.0000
vn -0.7033 0.7109 -0.0000
vn -0.8274 0.5616 -0.0000
vn -0.8763 0.4817 -0.0000
vn -0.1935 0.9804 -0.0385
vn -0.3742 0.9244 -0.0744
vn -0.5417 0.8336 -0.1078
vn -0.6898 0.7109 -0.1372
vn -0.8118 0.5608 -0.1625
vn -0.8599 0.4800 -0.1735
vn -0.1822 0.9804 -0.0755
vn -0.3525 0.9244 -0.1460
vn -0.5103 0.8336 -0.2114
vn -0.6498 0.7109 -0.2691
vn -0.7653 0.5602 -0.3170
vn -0.8112 0.4787 -0.3360
vn -0.1640 0.9804 -0.1096
vn -0.3172 0.9244 -0.2120
vn -0.4593 0.8336 -0.3069
vn -0.5848 0.7109 -0.3907
vn -0.6888 0.5602 -0.4602
vn -0.7300 0.4787 -0.4878
vn -0.1395 0.9804 -0.1395
vn -0.2698 0.9244 -0.2698
vn -0.3906 0.8336 -0.3906
vn -0.4973 0.7109 -0.4973
vn -0.5857 0.5602 -0.5857
vn -0.6208 0.4787 -0.6208
vn -0.1096 0.9804 -0.1640
vn -0.2120 0.9244 -0.3172
vn -0.3069 0.8336 -0.4593
vn -0.3907 0.7109 -0.5848
vn -0.4602 0.5602 -0.6888
vn -0.4878 0.4787 -0.7300
vn -0.0755 0.9804 -0.1822
vn -0.1460 0.9244 -0.3525
vn -0.2114 0.8336 -0.5103
vn -0.2691 0.7109 -0.6498
vn -0.3170 0.5602 -0.7653
vn -0.3360 0.4787 -0.8112
vn -0.0385 0.9804 -0.1935
vn -0.0744 0.9244 -0.3742
vn -0.1078 0.8336 -0.5417
vn -0.1372 0.7109 -0.6898
vn -0.1616 0.5602 -0.8125
vn -0.1713 0.4787 -0.8611
vn -0.0000 0.9804 -0.1973
vn -0.0000 0.9244 -0.3815
vn -0.0000 0.7109 -0.7033
vn -0.0000 0.4787 -0.8780
vn -0.0000 -1.0000 -0.0000
vt 0.666912 0.105438
vt 0.692414 0.152946
vt 0.658135 0.111369
vt 0.642769 0.059829
vt 0.625551 0.071463
vt 0.620912 0.017872
vt 0.595916 0.034762
vt 0.055869 0.620349
vt 0.009023 0.644849
vt 0.000000 0.623070
vt 0.044385 0.592630
vt 0.106405 0.600802
vt 0.092901 0.568208
vt 0.158689 0.586959
vt 0.143685 0.550742
vt 0.650682 0.118899
vt 0.610932 0.086234
vt 0.574692 0.056206
vt 0.812087 0.615157
vt 0.767702 0.586438
vt 0.776725 0.561737
vt 0.823571 0.583718
vt 0.860603 0.639284
vt 0.874107 0.602316
vt 0.911387 0.657894
vt 0.926391 0.616817
vt 0.599473 0.103575
vt 0.558056 0.081381
vt 0.783429 0.534137
vt 0.832104 0.548590
vt 0.884141 0.561010
vt 0.937540 0.570920
vt 0.644840 0.127739
vt 0.640834 0.137550
vt 0.591614 0.122818
vt 0.546647 0.109318
vt 0.787558 0.504699
vt 0.837359 0.511122
vt 0.890320 0.516952
vt 0.944406 0.521966
vt 0.788952 0.474553
vt 0.839133 0.472754
vt 0.892406 0.471836
vt 0.946724 0.471836
vt 0.638817 0.147953
vt 0.587658 0.143225
vt 0.540904 0.138944
vt 0.638867 0.158549
vt 0.587757 0.164011
vt 0.541047 0.169120
vt 0.787558 0.444860
vt 0.837359 0.434961
vt 0.890320 0.427397
vt 0.944406 0.422457
vt 0.832104 0.399195
vt 0.884141 0.385340
vt 0.937540 0.375727
vt 0.640983 0.168932
vt 0.591906 0.184377
vt 0.547070 0.198687
vt 0.783429 0.416758
vt 0.645082 0.178702
vt 0.599946 0.203541
vt 0.558743 0.226509
vt 0.776725 0.391330
vt 0.823571 0.366831
vt 0.874107 0.347284
vt 0.926391 0.333440
vt 0.372821 0.078931
vt 0.408219 0.102581
vt 0.291733 0.054330
vt 0.687453 0.357814
vt 0.734790 0.384452
vt 0.722038 0.411611
vt 0.672458 0.389750
vt 0.637531 0.338021
vt 0.620869 0.373506
vt 0.333490 0.062639
vt 0.651007 0.187483
vt 0.611569 0.220766
vt 0.575617 0.251516
vt 0.767702 0.369551
vt 0.812087 0.339112
vt 0.658531 0.194939
vt 0.626328 0.235391
vt 0.597043 0.272748
vt 0.767702 0.438248
vt 0.759830 0.463340
vt 0.712018 0.443546
vt 0.660677 0.427302
vt 0.607779 0.415232
vt 0.207412 0.062629
vt 0.249161 0.054330
vt 0.652562 0.469028
vt 0.598761 0.461596
vt 0.132684 0.102578
vt 0.168080 0.078921
vt 0.667364 0.200782
vt 0.643655 0.246853
vt 0.622198 0.289388
vt 0.754407 0.491220
vt 0.705117 0.479031
vt 0.677167 0.204788
vt 0.662884 0.254711
vt 0.650115 0.300797
vt 0.751643 0.520818
vt 0.701599 0.516702
vt 0.648425 0.513324
vt 0.594165 0.510815
vt 0.102576 0.132682
vt 0.054331 0.249169
vt 0.438322 0.132684
vt 0.486579 0.291735
vt 0.648425 0.558488
vt 0.594165 0.560998
vt 0.078932 0.168082
vt 0.687563 0.206804
vt 0.683278 0.258665
vt 0.679722 0.306537
vt 0.751643 0.550995
vt 0.701599 0.555111
vt 0.704051 0.258561
vt 0.709880 0.306386
vt 0.754407 0.580593
vt 0.705117 0.592781
vt 0.652562 0.602784
vt 0.598761 0.610217
vt 0.062640 0.207413
vt 0.698154 0.206751
vt 0.062636 0.333496
vt 0.054331 0.291742
vt 0.708530 0.204632
vt 0.724406 0.254404
vt 0.739431 0.300351
vt 0.759830 0.608473
vt 0.712018 0.628266
vt 0.660677 0.644510
vt 0.607779 0.656580
vt 0.767702 0.633565
vt 0.722038 0.660202
vt 0.672458 0.682063
vt 0.620869 0.698306
vt 0.102573 0.408221
vt 0.078921 0.372824
vt 0.718295 0.200528
vt 0.249168 0.486577
vt 0.743560 0.246354
vt 0.767238 0.288664
vt 0.168080 0.461968
vt 0.132682 0.438317
vt 0.727073 0.194597
vt 0.760778 0.234720
vt 0.792234 0.271774
vt 0.788420 0.325833
vt 0.820234 0.304336
vt 0.734790 0.687361
vt 0.687453 0.713998
vt 0.637531 0.733791
vt 0.813458 0.250330
vt 0.847247 0.277042
vt 0.378848 0.572886
vt 0.426184 0.599523
vt 0.413432 0.626682
vt 0.363853 0.604821
vt 0.328925 0.553092
vt 0.312264 0.588577
vt 0.207414 0.478271
vt 0.734526 0.187067
vt 0.775397 0.219949
vt 0.333497 0.478261
vt 0.291742 0.486567
vt 0.740367 0.178227
vt 0.786856 0.202609
vt 0.830094 0.225156
vt 0.459096 0.653319
vt 0.451224 0.678411
vt 0.403413 0.658617
vt 0.352071 0.642374
vt 0.299173 0.630303
vt 0.396511 0.694102
vt 0.343956 0.684100
vt 0.290156 0.676667
vt 0.408221 0.438326
vt 0.372824 0.461977
vt 0.744374 0.168416
vt 0.794715 0.183365
vt 0.841503 0.197219
vt 0.445802 0.706291
vt 0.746390 0.158013
vt 0.486576 0.249168
vt 0.798671 0.162959
vt 0.847247 0.167593
vt 0.443037 0.735889
vt 0.392993 0.731773
vt 0.339819 0.728396
vt 0.285559 0.725886
vt 0.438323 0.408222
vt 0.392993 0.770182
vt 0.339819 0.773559
vt 0.285559 0.776069
vt 0.461981 0.372824
vt 0.746340 0.147417
vt 0.478262 0.207415
vt 0.798572 0.142173
vt 0.847104 0.137416
vt 0.443037 0.766066
vt 0.461971 0.168083
vt 0.744225 0.137034
vt 0.794423 0.121806
vt 0.841080 0.107849
vt 0.445802 0.795664
vt 0.396511 0.807852
vt 0.343956 0.817855
vt 0.290156 0.825288
vt 0.478273 0.333490
vt 0.352071 0.859581
vt 0.299173 0.871652
vt 0.740126 0.127264
vt 0.786383 0.102643
vt 0.829407 0.080027
vt 0.451224 0.823544
vt 0.403413 0.843337
vt 0.774760 0.085417
vt 0.812533 0.055020
vt 0.459096 0.848636
vt 0.413432 0.875273
vt 0.363853 0.897134
vt 0.312264 0.913378
vt 0.734201 0.118483
vt 0.726677 0.111027
vt 0.760001 0.070793
vt 0.791107 0.033789
vt 0.044385 0.868675
vt -0.000000 0.839957
vt 0.009023 0.815256
vt 0.055869 0.837236
vt 0.092901 0.892803
vt 0.106405 0.855835
vt 0.143685 0.911412
vt 0.158689 0.870336
vt 0.742674 0.059331
vt 0.765952 0.017149
vt 0.015727 0.787656
vt 0.064402 0.802108
vt 0.116439 0.814528
vt 0.169839 0.824439
vt 0.717844 0.105184
vt 0.708040 0.101178
vt 0.723445 0.051472
vt 0.738035 0.005740
vt 0.019856 0.758217
vt 0.069657 0.764640
vt 0.122618 0.770471
vt 0.176704 0.775484
vt 0.021250 0.728072
vt 0.071431 0.726273
vt 0.124704 0.725355
vt 0.179022 0.725355
vt 0.697644 0.099162
vt 0.703051 0.047519
vt 0.708429 0.000000
vt 0.687054 0.099215
vt 0.682278 0.047622
vt 0.678271 0.000150
vt 0.019856 0.698378
vt 0.069657 0.688480
vt 0.122618 0.680915
vt 0.176704 0.675976
vt 0.015727 0.670277
vt 0.064402 0.652714
vt 0.116439 0.638859
vt 0.169839 0.629245
vt 0.676677 0.101334
vt 0.661923 0.051779
vt 0.648720 0.006185
s 1
usemtl Material
f 190/1/190 33/2/33 3/3/3
f 191/4/191 190/1/190 3/3/3 4/5/4
f 1/6/1 191/4/191 4/5/4 5/7/5
f 192/8/192 1/9/1 5/10/5 6/11/6
f 2/12/2 192/8/192 6/11/6 7/13/7
f 193/14/193 2/12/2 7/13/7 8/15/8
f 3/3/3 33/2/33 9/16/9
f 4/5/4 3/3/3 9/16/9 10/17/10
f 5/7/5 4/5/4 10/17/10 11/18/11
f 6/19/6 5/20/5 11/21/11 12/22/12
f 7/23/7 6/19/6 12/22/12 13/24/13
f 8/25/8 7/23/7 13/24/13 14/26/14
f 11/18/11 10/17/10 16/27/16 17/28/17
f 12/22/12 11/21/11 17/29/17 18/30/18
f 13/24/13 12/22/12 18/30/18 19/31/19
f 14/26/14 13/24/13 19/31/19 20/32/20
f 9/16/9 33/2/33 15/33/15
f 10/17/10 9/16/9 15/33/15 16/27/16
f 15/33/15 33/2/33 21/34/21
f 16/27/16 15/33/15 21/34/21 22/35/22
f 17/28/17 16/27/16 22/35/22 23/36/23
f 18/30/18 17/29/17 23/37/23 24/38/24
f 19/31/19 18/30/18 24/38/24 25/39/25
f 20/32/20 19/31/19 25/39/25 26/40/26
f 24/38/24 23/37/23 29/41/29 30/42/30
f 25/39/25 24/38/24 30/42/30 31/43/31
f 26/40/26 25/39/25 31/43/31 32/44/32
f 21/34/21 33/2/33 27/45/27
f 22/35/22 21/34/21 27/45/27 28/46/28
f 23/36/23 22/35/22 28/46/28 29/47/29
f 27/45/27 33/2/33 34/48/34
f 28/46/28 27/45/27 34/48/34 35/49/35
f 29/47/29 28/46/28 35/49/35 36/50/36
f 30/42/30 29/41/29 36/51/36 37/52/37
f 31/43/31 30/42/30 37/52/37 38/53/38
f 32/44/32 31/43/31 38/53/38 39/54/39
f 38/53/38 37/52/37 43/55/43 44/56/44
f 39/54/39 38/53/38 44/56/44 45/57/45
f 34/48/34 33/2/33 40/58/40
f 35/49/35 34/48/34 40/58/40 41/59/41
f 36/50/36 35/49/35 41/59/41 42/60/42
f 37/52/37 36/51/36 42/61/42 43/55/43
f 40/58/40 33/2/33 46/62/46
f 41/59/41 40/58/40 46/62/46 47/63/47
f 42/60/42 41/59/41 47/63/47 48/64/48
f 43/55/43 42/61/42 48/65/48 49/66/49
f 44/56/44 43/55/43 49/66/49 50/67/50
f 45/57/45 44/56/44 50/67/50 51/68/51
f 215/69/194 203/70/194 216/71/194
f 50/72/50 49/73/49 55/74/55 56/75/56
f 51/76/51 50/72/50 56/75/56 57/77/57
f 216/71/194 205/78/194 215/69/194
f 46/62/46 33/2/33 52/79/52
f 47/63/47 46/62/46 52/79/52 53/80/53
f 48/64/48 47/63/47 53/80/53 54/81/54
f 49/66/49 48/65/48 54/82/54 55/83/55
f 53/80/53 52/79/52 58/84/58 59/85/59
f 54/81/54 53/80/53 59/85/59 60/86/60
f 55/74/55 54/87/54 60/88/60 61/89/61
f 56/75/56 55/74/55 61/89/61 62/90/62
f 57/77/57 56/75/56 62/90/62 63/91/63
f 217/92/194 207/93/194 216/71/194
f 52/79/52 33/2/33 58/84/58
f 63/91/63 62/90/62 68/94/68 69/95/69
f 218/96/194 209/97/194 217/92/194
f 58/84/58 33/2/33 64/98/64
f 59/85/59 58/84/58 64/98/64 65/99/65
f 60/86/60 59/85/59 65/99/65 66/100/66
f 61/89/61 60/88/60 66/101/66 67/102/67
f 62/90/62 61/89/61 67/102/67 68/94/68
f 65/99/65 64/98/64 70/103/70 71/104/71
f 66/100/66 65/99/65 71/104/71 72/105/72
f 67/102/67 66/101/66 72/106/72 73/107/73
f 68/94/68 67/102/67 73/107/73 74/108/74
f 69/95/69 68/94/68 74/108/74 75/109/75
f 219/110/194 218/96/194 221/111/194
f 64/98/64 33/2/33 70/103/70
f 216/71/194 225/112/194 223/113/194
f 75/109/75 74/108/74 80/114/80 81/115/81
f 220/116/194 219/110/194 221/111/194
f 70/103/70 33/2/33 76/117/76
f 218/96/194 216/71/194 223/113/194
f 71/104/71 70/103/70 76/117/76 77/118/77
f 72/105/72 71/104/71 77/118/77 78/119/78
f 73/107/73 72/106/72 78/120/78 79/121/79
f 74/108/74 73/107/73 79/121/79 80/114/80
f 78/119/78 77/118/77 83/122/83 84/123/84
f 79/121/79 78/120/78 84/124/84 85/125/85
f 80/114/80 79/121/79 85/125/85 86/126/86
f 81/115/81 80/114/80 86/126/86 87/127/87
f 221/111/194 213/128/194 220/116/194
f 76/117/76 33/2/33 82/129/82
f 77/118/77 76/117/76 82/129/82 83/122/83
f 211/130/194 212/131/194 221/111/194
f 82/129/82 33/2/33 88/132/88
f 218/96/194 217/92/194 216/71/194
f 83/122/83 82/129/82 88/132/88 89/133/89
f 84/123/84 83/122/83 89/133/89 90/134/90
f 85/125/85 84/124/84 90/135/90 91/136/91
f 86/126/86 85/125/85 91/136/91 92/137/92
f 87/127/87 86/126/86 92/137/92 93/138/93
f 91/136/91 90/135/90 96/139/96 97/140/97
f 92/137/92 91/136/91 97/140/97 98/141/98
f 93/138/93 92/137/92 98/141/98 99/142/99
f 208/143/194 210/144/194 211/130/194
f 88/132/88 33/2/33 94/145/94
f 211/130/194 221/111/194 201/146/194
f 89/133/89 88/132/88 94/145/94 95/147/95
f 90/134/90 89/133/89 95/147/95 96/148/96
f 204/149/194 206/150/194 208/143/194
f 94/145/94 33/2/33 100/151/100
f 208/143/194 211/130/194 201/146/194
f 95/147/95 94/145/94 100/151/100 101/152/101
f 96/148/96 95/147/95 101/152/101 102/153/102
f 97/154/97 96/148/96 102/153/102 103/155/103
f 98/141/98 97/140/97 103/156/103 104/157/104
f 99/142/99 98/141/98 104/157/104 105/158/105
f 103/155/103 102/153/102 108/159/108 109/160/109
f 104/161/104 103/162/103 109/163/109 110/164/110
f 105/165/105 104/161/104 110/164/110 111/166/111
f 201/146/194 202/167/194 204/149/194
f 100/151/100 33/2/33 106/168/106
f 201/146/194 204/149/194 208/143/194
f 101/152/101 100/151/100 106/168/106 107/169/107
f 102/153/102 101/152/101 107/169/107 108/159/108
f 199/170/194 200/171/194 201/146/194
f 106/168/106 33/2/33 112/172/112
f 199/170/194 201/146/194 223/113/194
f 107/169/107 106/168/106 112/172/112 113/173/113
f 108/159/108 107/169/107 113/173/113 114/174/114
f 109/163/109 108/175/108 114/176/114 115/177/115
f 110/164/110 109/163/109 115/177/115 116/178/116
f 111/166/111 110/164/110 116/178/116 117/179/117
f 116/178/116 115/177/115 121/180/121 122/181/122
f 117/179/117 116/178/116 122/181/122 123/182/123
f 197/183/194 198/184/194 199/170/194
f 112/172/112 33/2/33 118/185/118
f 197/183/194 199/170/194 223/113/194
f 113/173/113 112/172/112 118/185/118 119/186/119
f 114/174/114 113/173/113 119/186/119 120/187/120
f 115/177/115 114/176/114 120/188/120 121/180/121
f 118/185/118 33/2/33 124/189/124
f 222/190/194 223/113/194 225/112/194
f 119/186/119 118/185/118 124/189/124 125/191/125
f 120/187/120 119/186/119 125/191/125 126/192/126
f 121/180/121 120/188/120 126/193/126 127/194/127
f 122/181/122 121/180/121 127/194/127 128/195/128
f 123/182/123 122/181/122 128/195/128 129/196/129
f 196/197/194 197/183/194 223/113/194
f 128/195/128 127/194/127 133/198/133 134/199/134
f 129/196/129 128/195/128 134/199/134 135/200/135
f 195/201/194 196/197/194 223/113/194
f 124/189/124 33/2/33 130/202/130
f 224/203/194 222/190/194 225/112/194
f 125/191/125 124/189/124 130/202/130 131/204/131
f 126/192/126 125/191/125 131/204/131 132/205/132
f 127/194/127 126/193/126 132/206/132 133/198/133
f 225/112/194 214/207/194 224/203/194
f 131/204/131 130/202/130 136/208/136 137/209/137
f 132/205/132 131/204/131 137/209/137 138/210/138
f 133/198/133 132/206/132 138/211/138 139/212/139
f 134/199/134 133/198/133 139/212/139 140/213/140
f 135/200/135 134/199/134 140/213/140 141/214/141
f 223/113/194 194/215/194 195/201/194
f 130/202/130 33/2/33 136/208/136
f 141/214/141 140/213/140 146/216/146 147/217/147
f 136/208/136 33/2/33 142/218/142
f 203/70/194 225/112/194 216/71/194
f 137/209/137 136/208/136 142/218/142 143/219/143
f 138/210/138 137/209/137 143/219/143 144/220/144
f 139/212/139 138/211/138 144/221/144 145/222/145
f 140/213/140 139/212/139 145/222/145 146/216/146
f 144/220/144 143/219/143 149/223/149 150/224/150
f 145/222/145 144/221/144 150/225/150 151/226/151
f 146/216/146 145/222/145 151/226/151 152/227/152
f 147/217/147 146/216/146 152/227/152 153/228/153
f 142/218/142 33/2/33 148/229/148
f 143/219/143 142/218/142 148/229/148 149/223/149
f 148/229/148 33/2/33 154/230/154
f 149/223/149 148/229/148 154/230/154 155/231/155
f 150/224/150 149/223/149 155/231/155 156/232/156
f 151/233/151 150/234/150 156/235/156 157/236/157
f 152/237/152 151/233/151 157/236/157 158/238/158
f 153/239/153 152/237/152 158/238/158 159/240/159
f 156/232/156 155/231/155 161/241/161 162/242/162
f 157/236/157 156/235/156 162/243/162 163/244/163
f 158/238/158 157/236/157 163/244/163 164/245/164
f 159/240/159 158/238/158 164/245/164 165/246/165
f 154/230/154 33/2/33 160/247/160
f 155/231/155 154/230/154 160/247/160 161/241/161
f 160/247/160 33/2/33 166/248/166
f 161/241/161 160/247/160 166/248/166 167/249/167
f 162/242/162 161/241/161 167/249/167 168/250/168
f 163/244/163 162/243/162 168/251/168 169/252/169
f 164/245/164 163/244/163 169/252/169 170/253/170
f 165/246/165 164/245/164 170/253/170 171/254/171
f 169/252/169 168/251/168 174/255/174 175/256/175
f 170/253/170 169/252/169 175/256/175 176/257/176
f 171/254/171 170/253/170 176/257/176 177/258/177
f 166/248/166 33/2/33 172/259/172
f 167/249/167 166/248/166 172/259/172 173/260/173
f 168/250/168 167/249/167 173/260/173 174/261/174
f 172/259/172 33/2/33 178/262/178
f 173/260/173 172/259/172 178/262/178 179/263/179
f 174/261/174 173/260/173 179/263/179 180/264/180
f 175/256/175 174/255/174 180/265/180 181/266/181
f 176/257/176 175/256/175 181/266/181 182/267/182
f 177/258/177 176/257/176 182/267/182 183/268/183
f 181/266/181 180/265/180 186/269/186 187/270/187
f 182/267/182 181/266/181 187/270/187 188/271/188
f 183/268/183 182/267/182 188/271/188 189/272/189
f 178/262/178 33/2/33 184/273/184
f 179/263/179 178/262/178 184/273/184 185/274/185
f 180/264/180 179/263/179 185/274/185 186/275/186
f 184/273/184 33/2/33 190/1/190
f 185/274/185 184/273/184 190/1/190 191/4/191
f 186/275/186 185/274/185 191/4/191 1/6/1
f 187/270/187 186/269/186 1/9/1 192/8/192
f 188/271/188 187/270/187 192/8/192 2/12/2
f 189/272/189 188/271/188 2/12/2 193/14/193
f 223/113/194 201/146/194 221/111/194 218/96/194
o Dome2
v 0.183845 0.177783 -0.924249
v 0.360624 0.177783 -0.870624
v 0.523546 0.177783 -0.783542
v 0.666347 0.177783 -0.666347
v 0.783542 0.177783 -0.523546
v 0.870624 0.177783 -0.360624
v 0.924249 0.177783 -0.183845
v 0.942357 0.177783 -0.000000
v 0.924249 0.177783 0.183845
v 0.870624 0.177783 0.360624
v 0.783542 0.177783 0.523546
v 0.666347 0.177783 0.666347
v 0.523546 0.177783 0.783542
v 0.360624 0.177783 0.870624
v 0.183845 0.177783 0.924249
v 0.000000 0.177783 0.942357
v -0.183845 0.177783 0.924249
v -0.360624 0.177783 0.870624
v -0.523546 0.177783 0.783542
v -0.666347 0.177783 0.666347
v -0.783540 0.177783 0.523546
v -0.870624 0.177783 0.360624
v -0.924249 0.177783 0.183845
v -0.941778 0.181492 -0.000000
v -0.924249 0.177783 -0.183845
v -0.870624 0.177783 -0.360624
v -0.783540 0.177783 -0.523546
v -0.666347 0.177783 -0.666347
v -0.523546 0.177783 -0.783540
v -0.360624 0.177783 -0.870624
v -0.183845 0.177783 -0.924249
v 0.000000 0.177783 -0.942357
v 0.000001 -0.009810 -0.799433
v 0.155962 -0.009810 -0.784073
v 0.305930 -0.009810 -0.738579
v 0.444141 -0.009810 -0.664704
v 0.565284 -0.009810 -0.565284
v 0.664704 -0.009810 -0.444141
v 0.738579 -0.009810 -0.305930
v 0.784073 -0.009810 -0.155962
v 0.799433 -0.009810 0.000000
v -0.981178 -0.009810 -0.195169
v -0.738579 -0.009810 -0.305930
v 0.784073 -0.009810 0.155962
v -0.981178 -0.009810 0.195168
v -0.799433 -0.009810 -0.000000
v 0.738579 -0.009810 0.305930
v -0.831803 -0.009810 0.555793
v -0.738579 -0.009810 0.305930
v 0.664704 -0.009810 0.444141
v -0.555793 -0.009810 0.831803
v -0.565284 -0.009810 0.565284
v 0.565284 -0.009810 0.565284
v -0.382837 -0.009810 0.924249
v 0.444141 -0.009810 0.664704
v -0.195169 -0.009810 0.981178
v 0.305930 -0.009810 0.738579
v 0.195169 -0.009810 0.981178
v 0.000000 -0.009810 0.799433
v -0.382837 -0.009810 -0.924249
v -0.195168 -0.009810 -0.981178
v -0.555793 -0.009810 -0.831803
v -0.831803 -0.009810 -0.555793
v -0.565283 -0.009810 -0.565284
v 0.000000 -0.009810 -1.000401
v 0.195169 -0.009810 -0.981179
v 0.382837 -0.009810 -0.924249
v 0.555793 -0.009810 -0.831803
v 0.707390 -0.009810 -0.707390
v 0.831803 -0.009810 -0.555793
v 0.924249 -0.009810 -0.382837
v 0.981179 -0.009810 -0.195169
v 1.000401 -0.009810 0.000000
v -0.784072 -0.009810 -0.155962
v -0.924249 -0.009810 -0.382837
v 0.981179 -0.009810 0.195169
v -0.784072 -0.009810 0.155961
v -1.000401 -0.009810 0.000000
v 0.924249 -0.009810 0.382837
v -0.664704 -0.009810 0.444141
v -0.924249 -0.009810 0.382837
v 0.831803 -0.009810 0.555793
v -0.444141 -0.009810 0.664704
v -0.707390 -0.009810 0.707390
v 0.707390 -0.009810 0.707390
v -0.305930 -0.009810 0.738579
v 0.555793 -0.009810 0.831803
v -0.155962 -0.009810 0.784072
v 0.382837 -0.009810 0.924249
v 0.155962 -0.009810 0.784072
v 0.000000 -0.009810 1.000401
v -0.305930 -0.009810 -0.738579
v -0.155961 -0.009810 -0.784072
v -0.444141 -0.009810 -0.664704
v -0.664705 -0.009810 -0.444141
v -0.707389 -0.009810 -0.707390
vn -0.0000 0.2956 -0.9553
vn 0.1864 0.2956 -0.9370
vn 0.3656 0.2956 -0.8826
vn 0.5307 0.2956 -0.7943
vn 0.6755 0.2956 -0.6755
vn 0.7943 0.2956 -0.5307
vn 0.8826 0.2956 -0.3656
vn 0.9370 0.2956 -0.1864
vn 0.9553 0.2956 -0.0000
vn -0.9371 0.2949 -0.1865
vn -0.8826 0.2956 -0.3656
vn -0.9370 0.2949 -0.1871
vn 0.9370 0.2956 0.1864
vn -0.9371 0.2949 0.1865
vn -0.9557 0.2943 -0.0000
vn -0.9370 0.2949 0.1871
vn 0.8826 0.2956 0.3656
vn -0.7943 0.2956 0.5307
vn -0.8826 0.2956 0.3656
vn 0.7943 0.2956 0.5307
vn -0.5307 0.2956 0.7943
vn -0.6755 0.2956 0.6755
vn 0.6755 0.2956 0.6755
vn -0.3656 0.2956 0.8826
vn 0.5307 0.2956 0.7943
vn -0.1864 0.2956 0.9370
vn 0.3656 0.2956 0.8826
vn 0.1864 0.2956 0.9370
vn -0.0000 0.2956 0.9553
vn -0.3656 0.2956 -0.8826
vn -0.1864 0.2956 -0.9370
vn -0.5307 0.2956 -0.7943
vn -0.7943 0.2956 -0.5307
vn -0.6755 0.2956 -0.6755
vn -0.0000 -1.0000 -0.0000
vt 0.157701 0.587091
vt 0.142714 0.550918
vt 0.194784 0.540904
vt 0.210712 0.579351
vt 0.910416 0.657671
vt 0.925403 0.616643
vt 0.978414 0.626664
vt 0.962486 0.670271
vt 0.936540 0.570801
vt 0.990250 0.577940
vt 0.943400 0.521904
vt 0.997539 0.525970
vt 0.945716 0.471832
vt 1.000000 0.472753
vt 0.943402 0.422510
vt 0.997539 0.420332
vt 0.936546 0.375833
vt 0.990250 0.370723
vt 0.925403 0.333572
vt 0.978414 0.325833
vt 0.142714 0.911189
vt 0.157701 0.870162
vt 0.210712 0.880182
vt 0.194784 0.923789
vt 0.638493 0.338242
vt 0.621849 0.373684
vt 0.569253 0.363503
vt 0.586941 0.325833
vt 0.291160 0.825215
vt 0.300162 0.871500
vt 0.246750 0.879084
vt 0.237178 0.829865
vt 0.313244 0.913200
vt 0.260648 0.923380
vt 0.608774 0.415360
vt 0.555356 0.407799
vt 0.286566 0.725929
vt 0.286566 0.776026
vt 0.232298 0.777615
vt 0.232298 0.724340
vt 0.599765 0.461669
vt 0.545784 0.457018
vt 0.300162 0.630455
vt 0.291160 0.676740
vt 0.237178 0.672090
vt 0.246750 0.622871
vt 0.595173 0.510830
vt 0.540904 0.509269
vt 0.313236 0.588776
vt 0.260648 0.578574
vt 0.595172 0.560955
vt 0.540904 0.562544
vt 0.329887 0.553313
vt 0.278335 0.540904
vt 0.599761 0.610117
vt 0.545784 0.614794
vt 0.608774 0.656452
vt 0.621841 0.698107
vt 0.569253 0.708309
vt 0.555356 0.664013
vt 0.638493 0.733570
vt 0.586941 0.745980
vt 0.175698 0.676003
vt 0.168844 0.629351
vt 0.222548 0.624242
vt 0.229837 0.673851
vt 0.178014 0.725323
vt 0.232298 0.726271
vt 0.168845 0.824294
vt 0.175698 0.775422
vt 0.229837 0.779489
vt 0.222548 0.831458
vt 0.461981 0.372824
vt 0.478273 0.333490
vt 0.530510 0.349340
vt 0.510123 0.398559
vt 0.438323 0.408222
vt 0.480526 0.442855
vt 0.408221 0.438326
vt 0.442855 0.480526
vt 0.372824 0.461977
vt 0.398559 0.510123
vt 0.333497 0.478261
vt 0.349340 0.530510
vt 0.291742 0.486567
vt 0.297089 0.540904
vt 0.249168 0.486577
vt 0.243815 0.540904
vt 0.207414 0.478271
vt 0.191564 0.530510
vt 0.408219 0.102581
vt 0.372821 0.078931
vt 0.398559 0.030781
vt 0.442855 0.060378
vt 0.168080 0.461968
vt 0.142345 0.510123
vt 0.333490 0.062639
vt 0.291733 0.054330
vt 0.297089 0.000000
vt 0.349340 0.010393
vt 0.132682 0.438317
vt 0.098049 0.480526
vt 0.249161 0.054330
vt 0.207412 0.062629
vt 0.191564 0.010393
vt 0.243815 0.000000
vt 0.102573 0.408221
vt 0.060378 0.442855
vt 0.168080 0.078921
vt 0.132684 0.102578
vt 0.098049 0.060378
vt 0.142345 0.030781
vt 0.078921 0.372824
vt 0.030781 0.398559
vt 0.102576 0.132682
vt 0.060378 0.098049
vt 0.062636 0.333496
vt 0.010393 0.349340
vt 0.078932 0.168082
vt 0.030781 0.142345
vt 0.054331 0.291742
vt 0.000000 0.297089
vt 0.062640 0.207413
vt 0.054331 0.249169
vt 0.000000 0.243815
vt 0.010393 0.191564
vt 0.486579 0.291735
vt 0.486576 0.249168
vt 0.540904 0.243815
vt 0.540904 0.297089
vt 0.478262 0.207415
vt 0.530510 0.191564
vt 0.461971 0.168083
vt 0.438322 0.132684
vt 0.480525 0.098049
vt 0.510123 0.142345
s 1
usemtl Material2
f 257/276/195 226/277/196 291/278/196 290/279/195
f 226/280/196 227/281/197 292/282/197 291/283/196
f 227/281/197 228/284/198 293/285/198 292/282/197
f 228/284/198 229/286/199 294/287/199 293/285/198
f 229/286/199 230/288/200 295/289/200 294/287/199
f 230/288/200 231/290/201 296/291/201 295/289/200
f 231/290/201 232/292/202 297/293/202 296/291/201
f 232/292/202 233/294/203 298/295/203 297/293/202
f 250/296/204 251/297/205 300/298/205 267/299/206
f 233/300/203 234/301/207 301/302/207 298/303/203
f 248/304/208 249/305/209 303/306/209 270/307/210
f 249/305/209 250/308/204 267/309/206 303/306/209
f 234/301/207 235/310/211 304/311/211 301/302/207
f 246/312/212 247/313/213 306/314/213 273/315/212
f 247/313/213 248/304/208 270/307/210 306/314/213
f 235/310/211 236/316/214 307/317/214 304/311/211
f 244/318/215 245/319/216 309/320/216 276/321/215
f 245/319/216 246/312/212 273/315/212 309/320/216
f 236/316/214 237/322/217 310/323/217 307/317/214
f 243/324/218 244/318/215 276/321/215 279/325/218
f 237/322/217 238/326/219 312/327/219 310/323/217
f 242/328/220 243/324/218 279/325/218 281/329/220
f 238/326/219 239/330/221 314/331/221 312/327/219
f 240/332/222 241/333/223 316/334/223 283/335/222
f 241/333/223 242/336/220 281/337/220 316/334/223
f 239/330/221 240/332/222 283/335/222 314/331/221
f 255/338/224 256/339/225 286/340/225 285/341/224
f 254/342/226 255/338/224 285/341/224 287/343/226
f 252/344/227 253/345/228 321/346/228 288/347/227
f 253/345/228 254/342/226 287/343/226 321/346/228
f 256/339/225 257/276/195 290/279/195 286/340/225
f 251/297/205 252/344/227 288/347/227 300/298/205
f 259/348/229 258/349/229 290/350/229 291/351/229
f 260/352/229 259/348/229 291/351/229 292/353/229
f 261/354/229 260/352/229 292/353/229 293/355/229
f 262/356/229 261/354/229 293/355/229 294/357/229
f 263/358/229 262/356/229 294/357/229 295/359/229
f 264/360/229 263/358/229 295/359/229 296/361/229
f 265/362/229 264/360/229 296/361/229 297/363/229
f 266/364/229 265/362/229 297/363/229 298/365/229
f 268/366/229 299/367/229 267/368/229 300/369/229
f 269/370/229 266/364/229 298/365/229 301/371/229
f 271/372/229 302/373/229 270/374/229 303/375/229
f 299/367/229 271/372/229 303/375/229 267/368/229
f 272/376/229 269/370/229 301/371/229 304/377/229
f 274/378/229 305/379/229 273/380/229 306/381/229
f 302/373/229 274/378/229 306/381/229 270/374/229
f 275/382/229 272/376/229 304/377/229 307/383/229
f 277/384/229 308/385/229 276/386/229 309/387/229
f 305/379/229 277/384/229 309/387/229 273/380/229
f 278/388/229 275/382/229 307/383/229 310/389/229
f 308/385/229 311/390/229 279/391/229 276/386/229
f 280/392/229 278/388/229 310/389/229 312/393/229
f 311/390/229 313/394/229 281/395/229 279/391/229
f 282/396/229 280/392/229 312/393/229 314/397/229
f 284/398/229 315/399/229 283/400/229 316/401/229
f 313/394/229 284/398/229 316/401/229 281/395/229
f 315/399/229 282/396/229 314/397/229 283/400/229
f 318/402/229 317/403/229 285/404/229 286/405/229
f 317/403/229 319/406/229 287/407/229 285/404/229
f 289/408/229 320/409/229 288/410/229 321/411/229
f 319/406/229 289/408/229 321/411/229 287/407/229
f 258/349/229 318/402/229 286/405/229 290/350/229
f 320/409/229 268/366/229 300/369/229 288/410/229
