mtllib shell_gummi_inner_corner.mtl
o InnerCorner
v 1.000000 1.000000 -1.000000
v 1.000000 1.000000 1.000000
v 1.000000 -1.000000 1.000000
v 1.000000 -1.000000 -1.000000
v 1.002000 1.000000 -1.000000
v 1.002000 1.000000 1.000000
v 1.002000 -1.000000 1.000000
v 1.002000 -1.000000 -1.000000
v 1.000000 -1.000000 -1.000000
v 1.000000 -1.000000 1.000000
v -1.000000 -1.000000 1.000000
v -1.000000 -1.000000 -1.000000
v 1.000000 -1.002000 -1.000000
v 1.000000 -1.002000 1.000000
v -1.000000 -1.002000 1.000000
v -1.000000 -1.002000 -1.000000
v 1.000000 1.000000 -1.000000
v 1.000000 -1.000000 -1.000000
v -1.000000 -1.000000 -1.000000
v -1.000000 1.000000 -1.000000
v 1.000000 1.000000 -1.002000
v 1.000000 -1.000000 -1.002000
v -1.000000 -1.000000 -1.002000
v -1.000000 1.000000 -1.002000
v -1.000000 -1.000000 -1.000000
v -1.000000 -1.000000 1.000000
v -1.000000 1.000000 -1.000000
v -1.002000 -1.000000 -1.000000
v -1.002000 -0.866667 0.733333
v -1.002000 -0.866667 -0.866667
v -1.002000 -1.000000 1.000000
v -1.002000 0.733333 -0.866667
v -1.002000 -0.866667 0.733333
v -1.002000 -1.000000 -1.000000
v -1.002000 0.733333 -0.866667
v -1.002000 1.000000 -1.000000
v -1.002000 -1.000000 -1.000000
v -1.002000 -1.000000 1.000000
v -1.002000 -0.866667 0.733333
v -1.002000 -1.000000 1.000000
v -1.002000 1.000000 -1.000000
v -1.002000 0.733333 -0.866667
v -1.002000 -1.000000 -1.000000
v -1.002000 -0.866667 -0.866667
v -1.002000 0.733333 -0.866667
v -1.000000 1.000000 -1.000000
v 1.000000 1.000000 1.000000
v 1.000000 1.000000 -1.000000
v 1.000000 1.002000 -1.000000
v -0.733333 1.002000 -0.866667
v 0.866667 1.002000 -0.866667
v -1.000000 1.002000 -1.000000
v 0.866667 1.002000 0.733333
v -0.733333 1.002000 -0.866667
v 1.000000 1.002000 -1.000000
v 0.866667 1.002000 0.733333
v 1.000000 1.002000 1.000000
v 1.000000 1.002000 -1.000000
v -1.000000 1.002000 -1.000000
v -0.733333 1.002000 -0.866667
v -1.000000 1.002000 -1.000000
v 1.000000 1.002000 1.000000
v 0.866667 1.002000 0.733333
v 1.000000 1.002000 -1.000000
v 0.866667 1.002000 -0.866667
v 0.866667 1.002000 0.733333
v -1.000000 -1.000000 1.000000
v 1.000000 -1.000000 1.000000
v 1.000000 1.000000 1.000000
v 0.866667 -0.866667 1.002000
v -0.733333 -0.866667 1.002000
v 1.000000 -1.000000 1.002000
v -0.733333 -0.866667 1.002000
v 0.866667 0.733333 1.002000
v -1.000000 -1.000000 1.002000
v 1.000000 1.000000 1.002000
v 0.866667 0.733333 1.002000
v 1.000000 -1.000000 1.002000
v -0.733333 -0.866667 1.002000
v -1.000000 -1.000000 1.002000
v 1.000000 -1.000000 1.002000
v 0.866667 0.733333 1.002000
v 1.000000 1.000000 1.002000
v -1.000000 -1.000000 1.002000
v 0.866667 0.733333 1.002000
v 0.866667 -0.866667 1.002000
v 1.000000 -1.000000 1.002000
v -1.000000 1.000000 -1.000000
v -1.000000 -1.000000 1.000000
v 1.000000 1.000000 1.000000
v -1.001155 -0.998845 1.001155
v -0.867822 -0.732178 0.867822
v -0.867822 0.867822 -0.732178
v 0.998845 1.001155 1.001155
v 0.732178 0.867822 0.867822
v -0.867822 -0.732178 0.867822
v -1.001155 1.001155 -0.998845
v -1.001155 -0.998845 1.001155
v -0.867822 0.867822 -0.732178
v -1.001155 -0.998845 1.001155
v 0.998845 1.001155 1.001155
v -0.867822 -0.732178 0.867822
v -0.867822 0.867822 -0.732178
v 0.732178 0.867822 0.867822
v -1.001155 1.001155 -0.998845
v 0.732178 0.867822 0.867822
v 0.998845 1.001155 1.001155
v -1.001155 1.001155 -0.998845
vn 1.0000 0.0000 0.0000
vn 1.0000 0.0000 0.0000
vn -0.0000 -1.0000 -0.0000
vn -0.0000 -1.0000 -0.0000
vn -0.0000 -0.0000 -1.0000
vn -0.0000 -0.0000 -1.0000
vn -1.0000 -0.0000 -0.0000
vn -1.0000 -0.0000 -0.0000
vn -1.0000 -0.0000 -0.0000
vn -1.0000 -0.0000 -0.0000
vn -1.0000 -0.0000 -0.0000
vn -1.0000 -0.0000 -0.0000
vn -1.0000 -0.0000 -0.0000
vn 0.0000 1.0000 0.0000
vn 0.0000 1.0000 0.0000
vn 0.0000 1.0000 0.0000
vn 0.0000 1.0000 0.0000
vn 0.0000 1.0000 0.0000
vn 0.0000 1.0000 0.0000
vn 0.0000 1.0000 0.0000
vn 0.0000 0.0000 1.0000
vn 0.0000 0.0000 1.0000
vn 0.0000 0.0000 1.0000
vn 0.0000 0.0000 1.0000
vn 0.0000 0.0000 1.0000
vn 0.0000 0.0000 1.0000
vn 0.0000 0.0000 1.0000
vn -0.5774 0.5774 0.5774
vn -0.5774 0.5774 0.5774
vn -0.5774 0.5774 0.5774
vn -0.5774 0.5774 0.5774
vn -0.5774 0.5774 0.5774
vn -0.5774 0.5774 0.5774
vn -0.5774 0.5774 0.5774
vt 1.000000 0.000000
vt 1.000000 1.000000
vt 0.000000 1.000000
vt 0.000000 0.000000
vt 1.000000 0.000000
vt 1.000000 1.000000
vt 0.000000 1.000000
vt 0.000000 0.000000
vt 1.000000 0.000000
vt 1.000000 1.000000
vt 0.000000 1.000000
vt 0.000000 0.000000
vt 1.000000 0.000000
vt 1.000000 1.000000
vt 0.000000 1.000000
vt 0.000000 0.000000
vt 0.000000 1.000000
vt 0.000000 0.000000
vt 1.000000 0.000000
vt 1.000000 1.000000
vt 0.000000 1.000000
vt 0.000000 0.000000
vt 1.000000 0.000000
vt 1.000000 1.000000
vt 1.000000 0.000000
vt 1.000000 1.000000
vt 0.000000 0.000000
vt 1.000000 0.000000
vt 0.933334 0.866667
vt 0.933334 0.066667
vt 1.000000 1.000000
vt 0.133333 0.066667
vt 0.933334 0.866667
vt 1.000000 0.000000
vt 0.133333 0.066667
vt 0.000000 0.000000
vt 1.000000 0.000000
vt 1.000000 1.000000
vt 0.933334 0.866667
vt 1.000000 1.000000
vt 0.000000 0.000000
vt 0.133333 0.066667
vt 1.000000 0.000000
vt 0.933334 0.066667
vt 0.133333 0.066667
vt 1.000000 0.000000
vt 0.000000 1.000000
vt 0.000000 0.000000
vt 0.000000 -0.000000
vt 0.866667 0.066666
vt 0.066667 0.066666
vt 1.000000 0.000000
vt 0.066667 0.866666
vt 0.866667 0.066666
vt 0.000000 -0.000000
vt 0.066667 0.866666
vt 0.000000 1.000000
vt 0.000000 -0.000000
vt 1.000000 0.000000
vt 0.866667 0.066666
vt 1.000000 0.000000
vt 0.000000 1.000000
vt 0.066667 0.866666
vt 0.000000 -0.000000
vt 0.066667 0.066666
vt 0.066667 0.866666
vt 0.000000 0.000000
vt 1.000000 0.000000
vt 1.000000 1.000000
vt 0.933334 0.066667
vt 0.133333 0.066667
vt 1.000000 0.000000
vt 0.133333 0.066667
vt 0.933334 0.866667
vt 0.000000 0.000000
vt 1.000000 1.000000
vt 0.933334 0.866667
vt 1.000000 0.000000
vt 0.133333 0.066667
vt 0.000000 0.000000
vt 1.000000 0.000000
vt 0.933334 0.866667
vt 1.000000 1.000000
vt 0.000000 0.000000
vt 0.933334 0.866667
vt 0.933334 0.066667
vt 1.000000 0.000000
vt 0.500000 0.000000
vt 1.000000 1.000000
vt 0.000000 1.000000
vt 1.000000 1.000000
vt 0.800000 0.923077
vt 0.000000 0.000000
vt 0.000000 1.000000
vt 0.111111 0.000000
vt 1.000000 0.000000
vt 0.000000 0.000000
vt 1.000000 1.000000
vt 0.000000 0.133333
vt 1.000000 1.000000
vt 0.000000 1.000000
vt 0.900000 0.000000
vt 1.000000 0.142857
vt 0.000000 1.000000
vt 1.000000 0.000000
vt 0.200000 0.933333
vt 0.000000 1.000000
vt 1.000000 0.000000
s 0
usemtl Material
f 1/1/1 2/2/1 3/3/1
f 1/1/1 3/3/1 4/4/1
usemtl Material3
f 5/5/2 6/6/2 7/7/2
f 5/5/2 7/7/2 8/8/2
usemtl Material
f 9/9/3 10/10/3 11/11/3
f 9/9/3 11/11/3 12/12/3
usemtl Material3
f 13/13/4 14/14/4 15/15/4
f 13/13/4 15/15/4 16/16/4
usemtl Material
f 17/17/5 18/18/5 19/19/5
f 17/17/5 19/19/5 20/20/5
usemtl Material3
f 21/21/6 22/22/6 23/23/6
f 21/21/6 23/23/6 24/24/6
usemtl Material
f 25/25/7 26/26/7 27/27/7
usemtl Material2
f 28/28/8 29/29/8 30/30/8
f 31/31/9 32/32/9 33/33/9
f 34/34/10 35/35/10 36/36/10
f 37/37/11 38/38/11 39/39/11
f 40/40/12 41/41/12 42/42/12
f 43/43/13 44/44/13 45/45/13
usemtl Material
f 46/46/14 47/47/14 48/48/14
usemtl Material2
f 49/49/15 50/50/15 51/51/15
f 52/52/16 53/53/16 54/54/16
f 55/55/17 56/56/17 57/57/17
f 58/58/18 59/59/18 60/60/18
f 61/61/19 62/62/19 63/63/19
f 64/64/20 65/65/20 66/66/20
usemtl Material
f 67/67/21 68/68/21 69/69/21
usemtl Material2
f 70/70/22 71/71/22 72/72/22
f 73/73/23 74/74/23 75/75/23
f 76/76/24 77/77/24 78/78/24
f 79/79/25 80/80/25 81/81/25
f 82/82/26 83/83/26 84/84/26
f 85/85/27 86/86/27 87/87/27
usemtl Material
f 88/88/28 89/89/28 90/90/28
usemtl Material2
f 91/91/29 92/92/29 93/93/29
f 94/94/30 95/95/30 96/96/30
f 97/97/31 98/98/31 99/99/31
f 100/100/32 101/101/32 102/102/32
f 103/103/33 104/104/33 105/105/33
f 106/106/34 107/107/34 108/108/34
