mtllib shell_gummi_cone.mtl
o Cone2
v 0.000000 -0.500000 -0.799032
v 0.000000 0.500000 -0.241147
v 0.155883 -0.500000 -0.783679
v 0.047045 0.500000 -0.236513
v 0.305776 -0.500000 -0.738210
v 0.092284 0.500000 -0.222791
v 0.443918 -0.500000 -0.664371
v 0.133974 0.500000 -0.200507
v 0.565001 -0.500000 -0.565001
v 0.170516 0.500000 -0.170517
v 0.664371 -0.500000 -0.443918
v 0.200507 0.500000 -0.133974
v 0.738210 -0.500000 -0.305776
v 0.222791 0.500000 -0.092283
v 0.783679 -0.500000 -0.155883
v 0.236514 0.500000 -0.047045
v 0.799032 -0.500000 0.000000
v 0.241147 0.500000 -0.000000
v 0.783679 -0.500000 0.155883
v 0.236514 0.500000 0.047045
v 0.738210 -0.500000 0.305776
v 0.222791 0.500000 0.092283
v 0.664371 -0.500000 0.443918
v 0.200507 0.500000 0.133974
v 0.565001 -0.500000 0.565001
v 0.170516 0.500000 0.170516
v 0.443918 -0.500000 0.664371
v 0.133974 0.500000 0.200507
v 0.305776 -0.500000 0.738210
v 0.092284 0.500000 0.222791
v 0.155883 -0.500000 0.783679
v 0.047045 0.500000 0.236513
v 0.000000 -0.500000 0.799032
v 0.000000 0.500000 0.241147
v -0.155883 -0.500000 0.783679
v -0.047045 0.500000 0.236513
v -0.305776 -0.500000 0.738210
v -0.092284 0.500000 0.222791
v -0.443918 -0.500000 0.664371
v -0.133974 0.500000 0.200507
v -0.565001 -0.500000 0.565001
v -0.170516 0.500000 0.170516
v -0.664371 -0.500000 0.443918
v -0.200506 0.500000 0.133974
v -0.738210 -0.500000 0.305776
v -0.222790 0.500000 0.092284
v -0.783679 -0.500000 0.155883
v -0.236513 0.500000 0.047045
v -0.799032 -0.500000 0.000000
v -0.241146 0.500000 -0.000000
v -0.783679 -0.500000 -0.155883
v -0.236513 0.500000 -0.047045
v -0.738210 -0.500000 -0.305776
v -0.222790 0.500000 -0.092284
v -0.664371 -0.500000 -0.443918
v -0.200506 0.500000 -0.133974
v -0.565001 -0.500000 -0.565001
v -0.170516 0.500000 -0.170517
v -0.443918 -0.500000 -0.664371
v -0.133974 0.500000 -0.200507
v -0.305776 -0.500000 -0.738210
v -0.092284 0.500000 -0.222791
v -0.155883 -0.500000 -0.783679
v -0.047045 0.500000 -0.236513
v 0.000000 0.500000 -0.442115
v 0.086252 0.500000 -0.433619
v 0.169190 0.500000 -0.408461
v 0.245626 0.500000 -0.367605
v 0.312622 0.500000 -0.312622
v 0.367605 0.500000 -0.245626
v 0.408461 0.500000 -0.169190
v 0.433620 0.500000 -0.086252
v 0.442115 0.500000 -0.000000
v 0.433620 0.500000 0.086252
v 0.408461 0.500000 0.169190
v 0.367605 0.500000 0.245626
v 0.312622 0.500000 0.312622
v 0.245626 0.500000 0.367605
v 0.169190 0.500000 0.408461
v 0.086252 0.500000 0.433619
v 0.000000 0.500000 0.442115
v -0.086252 0.500000 0.433619
v -0.169190 0.500000 0.408461
v -0.245626 0.500000 0.367605
v -0.312622 0.500000 0.312622
v -0.367605 0.500000 0.245626
v -0.408460 0.500000 0.169190
v -0.433619 0.500000 0.086252
v -0.442114 0.500000 -0.000000
v -0.433619 0.500000 -0.086252
v -0.408460 0.500000 -0.169190
v -0.367605 0.500000 -0.245626
v -0.312622 0.500000 -0.312622
v -0.245626 0.500000 -0.367605
v -0.169190 0.500000 -0.408461
v -0.086252 0.500000 -0.433619
v 0.000000 -0.500000 -1.000000
v 0.195090 -0.500000 -0.980785
v 0.382683 -0.500000 -0.923880
v 0.555570 -0.500000 -0.831470
v 0.707107 -0.500000 -0.707107
v 0.831470 -0.500000 -0.555570
v 0.923880 -0.500000 -0.382683
v 0.980785 -0.500000 -0.195090
v 1.000000 -0.500000 0.000000
v 0.980785 -0.500000 0.195090
v 0.923880 -0.500000 0.382683
v 0.831470 -0.500000 0.555570
v 0.707107 -0.500000 0.707107
v 0.555570 -0.500000 0.831470
v 0.382683 -0.500000 0.923880
v 0.195090 -0.500000 0.980785
v 0.000000 -0.500000 1.000000
v -0.195090 -0.500000 0.980785
v -0.382683 -0.500000 0.923880
v -0.555570 -0.500000 0.831470
v -0.707107 -0.500000 0.707107
v -0.831470 -0.500000 0.555570
v -0.923880 -0.500000 0.382683
v -0.980785 -0.500000 0.195090
v -1.000000 -0.500000 0.000000
v -0.980785 -0.500000 -0.195090
v -0.923880 -0.500000 -0.382683
v -0.831470 -0.500000 -0.555570
v -0.707107 -0.500000 -0.707107
v -0.555570 -0.500000 -0.831470
v -0.382683 -0.500000 -0.923880
v -0.195090 -0.500000 -0.980785
v 0.000000 -0.200000 -0.832635
v 0.318635 -0.200000 -0.769254
v 0.462587 -0.200000 -0.692311
v 0.692311 -0.200000 -0.462587
v 0.769254 -0.200000 -0.318635
v 0.832635 -0.200000 0.000000
v 0.769254 -0.200000 0.318635
v 0.692311 -0.200000 0.462587
v 0.462587 -0.200000 0.692311
v 0.318635 -0.200000 0.769254
v 0.000000 -0.200000 0.832635
v -0.318635 -0.200000 0.769254
v -0.462587 -0.200000 0.692311
v -0.692311 -0.200000 0.462587
v -0.769254 -0.200000 0.318635
v -0.832634 -0.200000 0.000000
v -0.816635 -0.200000 -0.162439
v -0.692311 -0.200000 -0.462587
v -0.462587 -0.200000 -0.692311
v -0.318635 -0.200000 -0.769254
v 0.162439 -0.200000 -0.816635
v 0.588762 -0.200000 -0.588762
v 0.816635 -0.200000 -0.162439
v 0.816635 -0.200000 0.162439
v 0.588762 -0.200000 0.588762
v 0.162439 -0.200000 0.816635
v -0.162439 -0.200000 0.816635
v -0.588762 -0.200000 0.588762
v -0.816635 -0.200000 0.162439
v -0.769254 -0.200000 -0.318635
v -0.588762 -0.200000 -0.588762
v -0.162439 -0.200000 -0.816635
v 0.000000 0.290000 -0.559271
v 0.214024 0.290000 -0.516699
v 0.310714 0.290000 -0.465017
v 0.465017 0.290000 -0.310714
v 0.516699 0.290000 -0.214024
v 0.559271 0.290000 -0.000000
v 0.516699 0.290000 0.214024
v 0.465017 0.290000 0.310714
v 0.310714 0.290000 0.465017
v 0.214024 0.290000 0.516699
v 0.000000 0.290000 0.559271
v -0.214024 0.290000 0.516699
v -0.310714 0.290000 0.465017
v -0.465017 0.290000 0.310714
v -0.516698 0.290000 0.214024
v -0.559270 0.290000 -0.000000
v -0.548524 0.290000 -0.109108
v -0.465017 0.290000 -0.310714
v -0.310714 0.290000 -0.465017
v -0.214024 0.290000 -0.516699
v 0.109108 0.290000 -0.548524
v 0.395464 0.290000 -0.395464
v 0.548525 0.290000 -0.109108
v 0.548525 0.290000 0.109108
v 0.395464 0.290000 0.395464
v 0.109108 0.290000 0.548524
v -0.109108 0.290000 0.548524
v -0.395464 0.290000 0.395464
v -0.548524 0.290000 0.109108
v -0.516698 0.290000 -0.214024
v -0.395464 0.290000 -0.395464
v -0.109108 0.290000 -0.548524
vn -0.0000 0.4872 0.8733
vn -0.1704 0.4872 0.8565
vn 0.6175 0.4872 -0.6175
vn 0.7261 0.4872 -0.4852
vn -0.8733 0.4872 -0.0000
vn -0.8565 0.4872 -0.1704
vn 0.1704 0.4872 0.8565
vn 0.6175 0.4872 0.6175
vn 0.4852 0.4872 0.7261
vn 0.3342 0.4872 -0.8068
vn 0.4852 0.4872 -0.7261
vn 0.8565 0.4872 0.1704
vn 0.8068 0.4872 0.3342
vn 0.8733 0.4872 -0.0000
vn -0.8068 0.4872 -0.3342
vn 0.3342 0.4872 0.8068
vn 0.8068 0.4872 -0.3342
vn -0.4852 0.4872 0.7261
vn -0.6175 0.4872 0.6175
vn -0.7261 0.4872 -0.4852
vn -0.6175 0.4872 -0.6175
vn -0.4852 0.4872 -0.7261
vn -0.3342 0.4872 -0.8068
vn -0.1704 0.4872 -0.8565
vn -0.0000 0.4872 -0.8733
vn 0.1704 0.4872 -0.8565
vn -0.7261 0.4872 0.4852
vn -0.8565 0.4872 0.1704
vn 0.8565 0.4872 -0.1704
vn -0.8068 0.4872 0.3342
vn 0.7261 0.4872 0.4852
vn -0.3342 0.4872 0.8068
vn -0.0000 1.0000 -0.0000
vn -0.0000 -1.0000 -0.0000
vt 0.839769 0.038722
vt 0.821505 0.079104
vt 0.709263 0.048499
vt 0.731198 0.000000
vt 0.341511 0.818100
vt 0.259459 0.818335
vt 0.257961 0.788783
vt 0.339615 0.780717
vt 0.839769 0.519845
vt 0.821505 0.560227
vt 0.709263 0.529621
vt 0.731198 0.481123
vt 0.429778 0.710078
vt 0.351208 0.732942
vt 0.341511 0.708798
vt 0.417510 0.679537
vt 0.446402 0.818100
vt 0.364350 0.818335
vt 0.362852 0.788783
vt 0.444507 0.780717
vt 0.871604 0.354936
vt 0.879961 0.302961
vt 0.996611 0.313655
vt 0.986574 0.376077
vt 0.429778 0.921492
vt 0.351208 0.900068
vt 0.358415 0.875068
vt 0.438893 0.889867
vt 0.839769 0.923523
vt 0.858033 0.883142
vt 0.970274 0.913747
vt 0.948339 0.962246
vt 0.807934 0.607310
vt 0.692964 0.586168
vt 0.871604 0.619256
vt 0.858033 0.568393
vt 0.970274 0.535731
vt 0.986574 0.596818
vt 0.879961 0.192436
vt 0.871604 0.138133
vt 0.986574 0.115695
vt 0.996611 0.180913
vt 0.799576 0.178162
vt 0.796754 0.233032
vt 0.679537 0.233367
vt 0.682927 0.167468
vt 0.799576 0.659285
vt 0.796754 0.714154
vt 0.679537 0.714490
vt 0.682927 0.648591
vt 0.799576 0.769810
vt 0.807933 0.824113
vt 0.692964 0.846551
vt 0.682927 0.781332
vt 0.821505 0.874976
vt 0.709263 0.907637
vt 0.463027 0.918074
vt 0.541596 0.895211
vt 0.551294 0.919354
vt 0.475294 0.948615
vt 0.453911 0.738286
vt 0.534390 0.753085
vt 0.529952 0.780683
vt 0.448298 0.773197
vt 0.324886 0.921491
vt 0.246317 0.900068
vt 0.253523 0.875068
vt 0.334002 0.889867
vt 0.879961 0.673559
vt 0.996611 0.662036
vt -0.000000 0.811039
vt 0.081958 0.814960
vt 0.081958 0.844550
vt 0.000000 0.848471
vt 0.882783 0.248091
vt 1.000000 0.247756
vt 0.011134 0.919764
vt 0.090760 0.900909
vt 0.099223 0.925512
vt 0.021839 0.950887
vt 0.858033 0.087270
vt 0.970275 0.054608
vt 0.324886 0.710078
vt 0.246317 0.732941
vt 0.236619 0.708798
vt 0.312618 0.679537
vt 0.807934 0.342990
vt 0.821505 0.393853
vt 0.709263 0.426515
vt 0.692964 0.365428
vt 0.799576 0.288687
vt 0.682927 0.300210
vt 0.446402 0.810053
vt 0.528454 0.809818
vt 0.529952 0.839370
vt 0.448298 0.847436
vt 0.879961 0.784084
vt 0.882783 0.729214
vt 1.000000 0.728879
vt 0.996611 0.794778
vt 0.871604 0.836059
vt 0.986574 0.857200
vt 0.807933 0.126187
vt 0.692964 0.105045
vt 0.021838 0.708623
vt 0.099222 0.733997
vt 0.090759 0.758600
vt 0.011133 0.739745
vt 0.839769 0.442401
vt 0.858033 0.402019
vt 0.970275 0.432624
vt 0.948339 0.481123
vt 0.186177 0.893397
vt 0.192051 0.881984
vt 0.219355 0.925512
vt 0.208584 0.946435
vt 0.196668 0.868564
vt 0.227818 0.900908
vt 0.199847 0.853654
vt 0.233647 0.873571
vt 0.201468 0.837824
vt 0.236619 0.844549
vt 0.201468 0.821684
vt 0.236619 0.814959
vt 0.199847 0.805855
vt 0.233647 0.785937
vt 0.196667 0.790944
vt 0.227818 0.758600
vt 0.192051 0.777524
vt 0.219355 0.733996
vt 0.186176 0.766112
vt 0.208584 0.713073
vt 0.179268 0.757145
vt 0.195918 0.696634
vt 0.171592 0.750969
vt 0.181845 0.685310
vt 0.163443 0.747820
vt 0.166905 0.679538
vt 0.155134 0.747820
vt 0.151672 0.679537
vt 0.146985 0.750969
vt 0.136732 0.685310
vt 0.139309 0.757145
vt 0.122659 0.696634
vt 0.132401 0.766112
vt 0.109993 0.713073
vt 0.126526 0.777524
vt 0.121910 0.790944
vt 0.118731 0.805855
vt 0.084930 0.785938
vt 0.117110 0.821685
vt 0.117110 0.837824
vt 0.118731 0.853653
vt 0.084930 0.873571
vt 0.121910 0.868565
vt 0.126526 0.881984
vt 0.132401 0.893397
vt 0.109994 0.946435
vt 0.139310 0.902364
vt 0.122660 0.962875
vt 0.146986 0.908540
vt 0.136733 0.974199
vt 0.155135 0.911688
vt 0.151673 0.979971
vt 0.163443 0.911689
vt 0.166906 0.979971
vt 0.171592 0.908540
vt 0.181846 0.974198
vt 0.179268 0.902363
vt 0.195919 0.962874
vt 0.068283 0.313030
vt 0.068283 0.366508
vt 0.000000 0.373234
vt 0.000000 0.306305
vt 0.078715 0.260580
vt 0.013057 0.240663
vt 0.099180 0.211172
vt 0.038669 0.178828
vt 0.128891 0.166707
vt 0.075853 0.123179
vt 0.166706 0.128892
vt 0.123178 0.075853
vt 0.211171 0.099181
vt 0.178828 0.038670
vt 0.260579 0.078716
vt 0.240661 0.013057
vt 0.313029 0.068283
vt 0.306304 0.000000
vt 0.366507 0.068283
vt 0.373232 0.000000
vt 0.418958 0.078715
vt 0.438875 0.013057
vt 0.468365 0.099180
vt 0.500709 0.038669
vt 0.512831 0.128891
vt 0.556358 0.075853
vt 0.550646 0.166706
vt 0.603684 0.123178
vt 0.580357 0.211171
vt 0.640868 0.178828
vt 0.600822 0.260579
vt 0.666480 0.240661
vt 0.611255 0.313029
vt 0.679537 0.306304
vt 0.611255 0.366507
vt 0.679537 0.373232
vt 0.600822 0.418958
vt 0.666481 0.438875
vt 0.580357 0.468365
vt 0.640868 0.500709
vt 0.550646 0.512831
vt 0.603685 0.556358
vt 0.512831 0.550646
vt 0.556359 0.603684
vt 0.468366 0.580357
vt 0.500710 0.640868
vt 0.418959 0.600822
vt 0.438876 0.666480
vt 0.366508 0.611255
vt 0.373234 0.679537
vt 0.313030 0.611255
vt 0.306305 0.679537
vt 0.260580 0.600822
vt 0.240663 0.666481
vt 0.211172 0.580357
vt 0.178828 0.640868
vt 0.166707 0.550646
vt 0.123179 0.603685
vt 0.128892 0.512831
vt 0.075853 0.556359
vt 0.099181 0.468366
vt 0.038670 0.500710
vt 0.078716 0.418959
vt 0.013057 0.438876
vt 0.839769 0.041801
vt 0.948339 0.000000
vt 0.839769 0.439322
vt 0.731198 0.481123
vt 0.839769 0.920445
vt 0.731198 0.962246
vt 0.839769 0.522924
vt 0.948339 0.481123
vt 0.035464 0.682154
vt 0.551294 0.706643
vt 0.541596 0.728085
vt 0.463027 0.706661
vt 0.475294 0.679537
vt 0.257961 0.847470
vt 0.339615 0.854955
vt 0.341511 0.921510
vt 0.417510 0.948615
vt 0.358415 0.759949
vt 0.438893 0.744242
vt 0.253523 0.759949
vt 0.334002 0.744242
vt 0.003759 0.774327
vt 0.534390 0.868204
vt 0.453911 0.883910
vt 0.003760 0.885182
vt 0.362852 0.847470
vt 0.444507 0.854955
vt 0.236619 0.921510
vt 0.312618 0.948615
s 1
usemtl Material2
f 139/1/1 155/2/2 114/3/2 113/4/1
f 182/5/3 69/6/3 70/7/4 164/8/4
f 144/9/5 145/10/6 122/11/6 121/12/5
f 186/13/7 80/14/7 81/15/1 171/16/1
f 185/17/8 77/18/8 78/19/9 169/20/9
f 130/21/10 131/22/11 100/23/11 99/24/10
f 184/25/12 74/26/12 75/27/13 167/28/13
f 134/29/14 152/30/12 106/31/12 105/32/14
f 145/10/6 158/33/15 123/34/15 122/11/6
f 138/35/16 154/36/7 112/37/7 111/38/16
f 132/39/4 133/40/17 103/41/17 102/42/4
f 141/43/18 156/44/19 117/45/19 116/46/18
f 146/47/20 159/48/21 125/49/21 124/50/20
f 147/51/22 148/52/23 127/53/23 126/54/22
f 148/52/23 160/55/24 128/56/24 127/53/23
f 192/57/24 96/58/24 65/59/25 161/60/25
f 190/61/15 91/62/15 92/63/20 178/64/20
f 181/65/26 66/66/26 67/67/10 162/68/10
f 137/69/9 138/35/16 111/38/16 110/70/9
f 188/71/19 85/72/19 86/73/27 174/74/27
f 131/22/11 150/75/3 101/76/3 100/23/11
f 189/77/28 88/78/28 89/79/5 176/80/5
f 133/40/17 151/81/29 104/82/29 103/41/17
f 183/83/29 72/84/29 73/85/14 166/86/14
f 143/87/30 157/88/28 120/89/28 119/90/30
f 142/91/27 143/87/30 119/90/30 118/92/27
f 191/93/21 93/94/21 94/95/22 179/96/22
f 136/97/31 153/98/8 109/99/8 108/100/31
f 135/101/13 136/97/31 108/100/31 107/102/13
f 140/103/32 141/43/18 116/46/18 115/104/32
f 187/105/2 82/106/2 83/107/32 172/108/32
f 129/109/25 149/110/26 98/111/26 97/112/25
f 2/113/33 4/114/33 66/115/33 65/116/33
f 4/114/33 6/117/33 67/118/33 66/115/33
f 6/117/33 8/119/33 68/120/33 67/118/33
f 8/119/33 10/121/33 69/122/33 68/120/33
f 10/121/33 12/123/33 70/124/33 69/122/33
f 12/123/33 14/125/33 71/126/33 70/124/33
f 14/125/33 16/127/33 72/128/33 71/126/33
f 16/127/33 18/129/33 73/130/33 72/128/33
f 18/129/33 20/131/33 74/132/33 73/130/33
f 20/131/33 22/133/33 75/134/33 74/132/33
f 22/133/33 24/135/33 76/136/33 75/134/33
f 24/135/33 26/137/33 77/138/33 76/136/33
f 26/137/33 28/139/33 78/140/33 77/138/33
f 28/139/33 30/141/33 79/142/33 78/140/33
f 30/141/33 32/143/33 80/144/33 79/142/33
f 32/143/33 34/145/33 81/146/33 80/144/33
f 34/145/33 36/147/33 82/106/33 81/146/33
f 36/147/33 38/148/33 83/107/33 82/106/33
f 38/148/33 40/149/33 84/150/33 83/107/33
f 40/149/33 42/151/33 85/72/33 84/150/33
f 42/151/33 44/152/33 86/73/33 85/72/33
f 44/152/33 46/153/33 87/154/33 86/73/33
f 46/153/33 48/155/33 88/78/33 87/154/33
f 48/155/33 50/156/33 89/79/33 88/78/33
f 50/156/33 52/157/33 90/158/33 89/79/33
f 52/157/33 54/159/33 91/160/33 90/158/33
f 54/159/33 56/161/33 92/162/33 91/160/33
f 56/161/33 58/163/33 93/164/33 92/162/33
f 58/163/33 60/165/33 94/166/33 93/164/33
f 60/165/33 62/167/33 95/168/33 94/166/33
f 64/169/33 2/113/33 65/116/33 96/170/33
f 62/167/33 64/169/33 96/170/33 95/168/33
f 3/171/34 1/172/34 97/173/34 98/174/34
f 5/175/34 3/171/34 98/174/34 99/176/34
f 7/177/34 5/175/34 99/176/34 100/178/34
f 9/179/34 7/177/34 100/178/34 101/180/34
f 11/181/34 9/179/34 101/180/34 102/182/34
f 13/183/34 11/181/34 102/182/34 103/184/34
f 15/185/34 13/183/34 103/184/34 104/186/34
f 17/187/34 15/185/34 104/186/34 105/188/34
f 19/189/34 17/187/34 105/188/34 106/190/34
f 21/191/34 19/189/34 106/190/34 107/192/34
f 23/193/34 21/191/34 107/192/34 108/194/34
f 25/195/34 23/193/34 108/194/34 109/196/34
f 27/197/34 25/195/34 109/196/34 110/198/34
f 29/199/34 27/197/34 110/198/34 111/200/34
f 31/201/34 29/199/34 111/200/34 112/202/34
f 33/203/34 31/201/34 112/202/34 113/204/34
f 35/205/34 33/203/34 113/204/34 114/206/34
f 37/207/34 35/205/34 114/206/34 115/208/34
f 39/209/34 37/207/34 115/208/34 116/210/34
f 41/211/34 39/209/34 116/210/34 117/212/34
f 43/213/34 41/211/34 117/212/34 118/214/34
f 45/215/34 43/213/34 118/214/34 119/216/34
f 47/217/34 45/215/34 119/216/34 120/218/34
f 49/219/34 47/217/34 120/218/34 121/220/34
f 51/221/34 49/219/34 121/220/34 122/222/34
f 53/223/34 51/221/34 122/222/34 123/224/34
f 55/225/34 53/223/34 123/224/34 124/226/34
f 57/227/34 55/225/34 124/226/34 125/228/34
f 59/229/34 57/227/34 125/228/34 126/230/34
f 61/231/34 59/229/34 126/230/34 127/232/34
f 63/233/34 61/231/34 127/232/34 128/234/34
f 1/172/34 63/233/34 128/234/34 97/173/34
f 114/3/2 155/2/2 140/103/32 115/104/32
f 125/49/21 159/48/21 147/51/22 126/54/22
f 104/82/29 151/81/29 134/235/14 105/236/14
f 120/89/28 157/88/28 144/237/5 121/238/5
f 117/45/19 156/44/19 142/91/27 118/92/27
f 98/111/26 149/110/26 130/21/10 99/24/10
f 123/34/15 158/33/15 146/47/20 124/50/20
f 128/56/24 160/55/24 129/239/25 97/240/25
f 106/31/12 152/30/12 135/101/13 107/102/13
f 109/99/8 153/98/8 137/69/9 110/70/9
f 112/37/7 154/36/7 139/241/1 113/242/1
f 101/76/3 150/75/3 132/39/4 102/42/4
f 81/146/1 82/106/2 187/105/2 171/243/1
f 89/244/5 90/245/6 177/246/6 176/247/5
f 67/67/10 68/248/11 163/249/11 162/68/10
f 73/250/14 74/26/12 184/25/12 166/251/14
f 90/245/6 91/62/15 190/61/15 177/246/6
f 79/252/16 80/14/7 186/13/7 170/253/16
f 70/7/4 71/254/17 165/255/17 164/8/4
f 84/150/18 85/72/19 188/71/19 173/256/18
f 92/63/20 93/94/21 191/93/21 178/64/20
f 94/95/22 95/257/23 180/258/23 179/96/22
f 95/257/23 96/58/24 192/57/24 180/258/23
f 78/19/9 79/252/16 170/253/16 169/20/9
f 68/248/11 69/6/3 182/5/3 163/249/11
f 71/254/17 72/84/29 183/83/29 165/255/17
f 87/154/30 88/78/28 189/77/28 175/259/30
f 86/73/27 87/154/30 175/259/30 174/74/27
f 76/260/31 77/18/8 185/17/8 168/261/31
f 75/27/13 76/260/31 168/261/31 167/28/13
f 83/107/32 84/150/18 173/256/18 172/108/32
f 65/262/25 66/66/26 181/65/26 161/263/25
o Cone
v 0.744969 -0.500000 0.006760
v 0.676155 -0.500000 0.167667
v 0.579879 -0.500000 0.320653
v 0.459840 -0.500000 0.459840
v 0.320653 -0.500000 0.579879
v 0.167667 -0.500000 0.676155
v 0.006760 -0.500000 0.744969
v 0.672247 -0.500000 -0.148008
v 0.578730 -0.500000 0.013728
v 0.461251 -0.500000 0.173215
v 0.324325 -0.500000 0.324325
v 0.173215 -0.500000 0.461251
v 0.013728 -0.500000 0.578730
v -0.148008 -0.500000 0.672247
v 0.569980 -0.500000 -0.300797
v 0.452598 -0.500000 -0.147205
v 0.316734 -0.500000 0.010957
v -0.155883 -0.500000 -0.783679
v -0.305776 -0.500000 -0.738210
v -0.443918 -0.500000 -0.664371
v -0.565001 -0.500000 -0.565001
v -0.664371 -0.500000 -0.443918
v -0.738210 -0.500000 -0.305776
v -0.783679 -0.500000 -0.155883
v -0.799032 -0.500000 0.000000
v -0.783679 -0.500000 0.155883
v -0.738210 -0.500000 0.305776
v -0.664371 -0.500000 0.443918
v -0.565001 -0.500000 0.565001
v -0.443918 -0.500000 0.664371
v -0.305776 -0.500000 0.738210
v -0.155883 -0.500000 0.783679
v 0.000000 -0.500000 0.799032
v 0.155883 -0.500000 0.783679
v 0.305776 -0.500000 0.738210
v 0.443918 -0.500000 0.664371
v 0.565001 -0.500000 0.565001
v 0.664371 -0.500000 0.443918
v 0.738210 -0.500000 0.305776
v 0.783679 -0.500000 0.155883
v 0.799032 -0.500000 0.000000
v 0.783679 -0.500000 -0.155883
v 0.738210 -0.500000 -0.305776
v 0.664371 -0.500000 -0.443918
v 0.565001 -0.500000 -0.565001
v 0.443918 -0.500000 -0.664371
v 0.305776 -0.500000 -0.738210
v 0.155883 -0.500000 -0.783679
v 0.000000 -0.500000 -0.799032
v 0.224832 0.500000 -0.002040
v 0.204063 0.500000 -0.050602
v 0.175007 0.500000 -0.096772
v 0.138779 0.500000 -0.138779
v 0.096773 0.500000 -0.175007
v 0.050603 0.500000 -0.204062
v 0.002040 0.500000 -0.224830
v 0.202884 0.500000 0.044669
v 0.174660 0.500000 -0.004143
v 0.139205 0.500000 -0.052275
v 0.097880 0.500000 -0.097880
v 0.052275 0.500000 -0.139205
v 0.004144 0.500000 -0.174659
v -0.044669 0.500000 -0.202883
v 0.172020 0.500000 0.090780
v 0.136593 0.500000 0.044426
v 0.095591 0.500000 -0.003307
v -0.047045 0.500000 -0.236513
v -0.092284 0.500000 -0.222791
v -0.133974 0.500000 -0.200507
v -0.170516 0.500000 -0.170517
v -0.200506 0.500000 -0.133974
v -0.222790 0.500000 -0.092284
v -0.236513 0.500000 -0.047045
v -0.241146 0.500000 -0.000000
v -0.236513 0.500000 0.047045
v -0.222790 0.500000 0.092284
v -0.200506 0.500000 0.133974
v -0.170516 0.500000 0.170516
v -0.133974 0.500000 0.200507
v -0.092284 0.500000 0.222791
v -0.047045 0.500000 0.236513
v 0.000000 0.500000 0.241147
v 0.047045 0.500000 0.236513
v 0.092284 0.500000 0.222791
v 0.133974 0.500000 0.200507
v 0.170516 0.500000 0.170516
v 0.200507 0.500000 0.133974
v 0.222791 0.500000 0.092283
v 0.236514 0.500000 0.047045
v 0.241147 0.500000 -0.000000
v 0.236514 0.500000 -0.047045
v 0.222791 0.500000 -0.092283
v 0.200507 0.500000 -0.133974
v 0.170516 0.500000 -0.170517
v 0.133974 0.500000 -0.200507
v 0.092284 0.500000 -0.222791
v 0.047045 0.500000 -0.236513
v 0.000000 0.500000 -0.241147
v 0.167610 -0.500000 0.167610
v 0.050585 0.500000 -0.050585
v 0.010957 -0.500000 0.316734
v 0.003307 0.500000 -0.095590
v -0.147205 -0.500000 0.452598
v -0.044425 0.500000 -0.136593
v -0.300797 -0.500000 0.569980
v -0.090780 0.500000 -0.172020
v 0.443919 -0.500000 -0.443919
v 0.133974 0.500000 0.133974
v 0.305777 -0.500000 -0.305777
v 0.092282 0.500000 0.092283
v 0.155884 -0.500000 -0.155884
v 0.047046 0.500000 0.047046
v -0.000000 -0.500000 0.000000
v -0.000000 0.500000 0.000000
v -0.155884 -0.500000 0.155884
v -0.047046 0.500000 -0.047045
v -0.305777 -0.500000 0.305777
v -0.092282 0.500000 -0.092282
v -0.443919 -0.500000 0.443919
v -0.133974 0.500000 -0.133974
v 0.300797 -0.500000 -0.569980
v 0.090780 0.500000 0.172019
v 0.147205 -0.500000 -0.452598
v 0.044425 0.500000 0.136593
v -0.010957 -0.500000 -0.316734
v -0.003307 0.500000 0.095591
v -0.167610 -0.500000 -0.167610
v -0.050585 0.500000 0.050584
v -0.316734 -0.500000 -0.010957
v -0.095590 0.500000 0.003307
v -0.452598 -0.500000 0.147205
v -0.136593 0.500000 -0.044425
v -0.569980 -0.500000 0.300797
v -0.172019 0.500000 -0.090781
v 0.148008 -0.500000 -0.672247
v 0.044670 0.500000 0.202883
v -0.013728 -0.500000 -0.578730
v -0.004143 0.500000 0.174659
v -0.173215 -0.500000 -0.461251
v -0.052275 0.500000 0.139205
v -0.324325 -0.500000 -0.324325
v -0.097881 0.500000 0.097880
v -0.461251 -0.500000 -0.173215
v -0.139205 0.500000 0.052275
v -0.578730 -0.500000 -0.013728
v -0.174658 0.500000 0.004143
v -0.672247 -0.500000 0.148008
v -0.202883 0.500000 -0.044670
v -0.006760 -0.500000 -0.744969
v -0.002040 0.500000 0.224830
v -0.167667 -0.500000 -0.676155
v -0.050603 0.500000 0.204062
v -0.320653 -0.500000 -0.579878
v -0.096773 0.500000 0.175007
v -0.459840 -0.500000 -0.459840
v -0.138779 0.500000 0.138779
v -0.579879 -0.500000 -0.320653
v -0.175007 0.500000 0.096773
v -0.676155 -0.500000 -0.167667
v -0.204062 0.500000 0.050603
v -0.744969 -0.500000 -0.006760
v -0.224831 0.500000 0.002040
v 0.000000 -0.200000 -0.832635
v 0.318635 -0.200000 -0.769254
v 0.462587 -0.200000 -0.692311
v 0.692311 -0.200000 -0.462587
v 0.769254 -0.200000 -0.318635
v 0.832635 -0.200000 0.000000
v 0.769254 -0.200000 0.318635
v 0.692311 -0.200000 0.462587
v 0.462587 -0.200000 0.692311
v 0.318635 -0.200000 0.769254
v 0.000000 -0.200000 0.832635
v -0.318635 -0.200000 0.769254
v -0.462587 -0.200000 0.692311
v -0.692311 -0.200000 0.462587
v -0.769254 -0.200000 0.318635
v -0.832634 -0.200000 0.000000
v -0.816635 -0.200000 -0.162439
v -0.692311 -0.200000 -0.462587
v -0.462587 -0.200000 -0.692311
v -0.318635 -0.200000 -0.769254
v 0.162439 -0.200000 -0.816635
v 0.588762 -0.200000 -0.588762
v 0.816635 -0.200000 -0.162439
v 0.816635 -0.200000 0.162439
v 0.588762 -0.200000 0.588762
v 0.162439 -0.200000 0.816635
v -0.162439 -0.200000 0.816635
v -0.588762 -0.200000 0.588762
v -0.816635 -0.200000 0.162439
v -0.769254 -0.200000 -0.318635
v -0.588762 -0.200000 -0.588762
v -0.162439 -0.200000 -0.816635
v 0.000000 0.290000 -0.559271
v 0.214024 0.290000 -0.516699
v 0.310714 0.290000 -0.465017
v 0.465017 0.290000 -0.310714
v 0.516699 0.290000 -0.214024
v 0.559271 0.290000 -0.000000
v 0.516699 0.290000 0.214024
v 0.465017 0.290000 0.310714
v 0.310714 0.290000 0.465017
v 0.214024 0.290000 0.516699
v 0.000000 0.290000 0.559271
v -0.214024 0.290000 0.516699
v -0.310714 0.290000 0.465017
v -0.465017 0.290000 0.310714
v -0.516698 0.290000 0.214024
v -0.559270 0.290000 -0.000000
v -0.548524 0.290000 -0.109108
v -0.465017 0.290000 -0.310714
v -0.310714 0.290000 -0.465017
v -0.214024 0.290000 -0.516699
v 0.109108 0.290000 -0.548524
v 0.395464 0.290000 -0.395464
v 0.548525 0.290000 -0.109108
v 0.548525 0.290000 0.109108
v 0.395464 0.290000 0.395464
v 0.109108 0.290000 0.548524
v -0.109108 0.290000 0.548524
v -0.395464 0.290000 0.395464
v -0.548524 0.290000 0.109108
v -0.516698 0.290000 -0.214024
v -0.395464 0.290000 -0.395464
v -0.109108 0.290000 -0.548524
vn -0.0000 1.0000 -0.0000
vn -0.0000 -1.0000 -0.0000
vn -0.0000 0.4872 -0.8733
vn 0.1704 0.4872 -0.8565
vn -0.3342 0.4872 0.8068
vn -0.4852 0.4872 0.7261
vn 0.8068 0.4872 0.3342
vn 0.7261 0.4872 0.4852
vn 0.6175 0.4872 0.6175
vn -0.7261 0.4872 0.4852
vn -0.8068 0.4872 0.3342
vn -0.8565 0.4872 0.1704
vn 0.8068 0.4872 -0.3342
vn 0.8565 0.4872 -0.1704
vn 0.4852 0.4872 -0.7261
vn 0.6175 0.4872 -0.6175
vn 0.4852 0.4872 0.7261
vn 0.3342 0.4872 0.8068
vn -0.3342 0.4872 -0.8068
vn -0.1704 0.4872 -0.8565
vn -0.4852 0.4872 -0.7261
vn -0.7261 0.4872 -0.4852
vn -0.6175 0.4872 -0.6175
vn -0.6175 0.4872 0.6175
vn 0.7261 0.4872 -0.4852
vn 0.1704 0.4872 0.8565
vn -0.8565 0.4872 -0.1704
vn -0.8068 0.4872 -0.3342
vn 0.8733 0.4872 -0.0000
vn 0.8565 0.4872 0.1704
vn 0.3342 0.4872 -0.8068
vn -0.8733 0.4872 -0.0000
vn -0.0000 0.4872 0.8733
vn -0.1704 0.4872 0.8565
vt 0.106625 0.789743
vt 0.133410 0.789088
vt 0.139053 0.816091
vt 0.109363 0.817546
vt 0.104500 0.768168
vt 0.127334 0.768168
vt 0.098422 0.979080
vt 0.125207 0.978425
vt 0.127332 1.000000
vt 0.104498 1.000000
vt 0.092779 0.952077
vt 0.122469 0.950622
vt 0.087860 0.920788
vt 0.119303 0.918471
vt 0.083935 0.887233
vt 0.115916 0.884084
vt 0.081239 0.853558
vt 0.112529 0.849697
vt 0.079959 0.821910
vt 0.080227 0.794326
vt 0.082105 0.772622
vt 0.072281 0.975781
vt 0.082104 0.995545
vt 0.063944 0.950566
vt 0.057474 0.921471
vt 0.053183 0.890262
vt 0.051303 0.858816
vt 0.051973 0.829018
vt 0.055231 0.802661
vt 0.061011 0.781360
vt 0.047785 0.968654
vt 0.061008 0.986807
vt 0.037070 0.946147
vt 0.029311 0.920494
vt 0.024841 0.893053
vt 0.023872 0.865268
vt 0.026478 0.838595
vt 0.032596 0.814429
vt 0.042025 0.794046
vt 0.025878 0.957975
vt 0.042023 0.974121
vt 0.013192 0.938990
vt 0.004454 0.917895
vt -0.000000 0.895500
vt -0.000000 0.872667
vt 0.004455 0.850272
vt 0.013193 0.829176
vt 0.421914 0.768168
vt 0.346256 0.768168
vt 0.416104 0.742501
vt 0.496118 0.753408
vt 0.025879 0.810191
vt 0.301710 0.347734
vt 0.308716 0.304161
vt 0.546520 0.325962
vt 0.536089 0.390833
vt 0.238960 0.741840
vt 0.241325 0.788499
vt 0.003522 0.811988
vt 0.000000 0.742523
vt 0.311082 0.758161
vt 0.308716 0.711501
vt 0.546520 0.688012
vt 0.550042 0.757477
vt 0.301710 0.665977
vt 0.536089 0.620235
vt 0.259709 0.876665
vt 0.275021 0.914784
vt 0.053687 1.000000
vt 0.030892 0.943249
vt 0.275021 0.078940
vt 0.259709 0.112794
vt 0.030892 0.050402
vt 0.053687 -0.000000
vt 0.275021 0.921060
vt 0.290333 0.887206
vt 0.519150 0.949598
vt 0.496354 1.000000
vt 0.308716 0.211501
vt 0.301710 0.165977
vt 0.536089 0.120235
vt 0.546520 0.188012
vt 0.290333 0.623335
vt 0.275021 0.585216
vt 0.496354 0.500000
vt 0.519150 0.556751
vt 0.275021 0.421060
vt 0.290332 0.387206
vt 0.519150 0.449598
vt 0.496354 0.500000
vt 0.259709 0.376665
vt 0.275021 0.414784
vt 0.053688 0.500000
vt 0.030892 0.443249
vt 0.241325 0.288499
vt 0.248332 0.334023
vt 0.013953 0.379765
vt 0.003522 0.311988
vt 0.248332 0.834024
vt 0.013953 0.879765
vt 0.290333 0.123335
vt 0.275021 0.085216
vt 0.496354 0.000000
vt 0.519150 0.056751
vt 0.275021 0.578940
vt 0.259709 0.612794
vt 0.030892 0.550402
vt 0.053688 0.500000
vt 0.241325 0.195839
vt 0.238960 0.241840
vt 0.000000 0.242523
vt 0.003522 0.174039
vt 0.301710 0.847734
vt 0.308716 0.804161
vt 0.546520 0.825962
vt 0.536089 0.890833
vt 0.311082 0.258161
vt 0.550042 0.257477
vt 0.248332 0.152266
vt 0.013953 0.109167
vt 0.248332 0.652266
vt 0.241326 0.695840
vt 0.003522 0.674039
vt 0.013953 0.609167
vt 0.143972 0.847380
vt 0.147897 0.880934
vt 0.150594 0.914610
vt 0.151873 0.946258
vt 0.151606 0.973842
vt 0.149727 0.995546
vt 0.149728 0.772622
vt 0.159551 0.792387
vt 0.167888 0.817602
vt 0.174358 0.846697
vt 0.178649 0.877905
vt 0.180529 0.909352
vt 0.179860 0.939150
vt 0.176602 0.965507
vt 0.170822 0.986808
vt 0.170824 0.781361
vt 0.184047 0.799514
vt 0.194762 0.822021
vt 0.202521 0.847674
vt 0.206991 0.875115
vt 0.207960 0.902900
vt 0.205355 0.929574
vt 0.199237 0.953739
vt 0.189808 0.974122
vt 0.189809 0.794047
vt 0.205954 0.810192
vt 0.218640 0.829178
vt 0.227378 0.850273
vt 0.231832 0.872668
vt 0.231832 0.895502
vt 0.227377 0.917896
vt 0.218639 0.938992
vt 0.205954 0.957977
vt 0.487056 0.700217
vt 0.566016 0.724455
vt 0.555658 0.643825
vt 0.628924 0.682421
vt 0.618487 0.576453
vt 0.682422 0.628923
vt 0.672307 0.501688
vt 0.724455 0.566015
vt 0.714231 0.423402
vt 0.753408 0.496116
vt 0.741861 0.345564
vt 0.768168 0.421912
vt 0.753408 0.272050
vt 0.768168 0.346254
vt 0.272051 0.753408
vt 0.335501 0.717041
vt 0.404885 0.662921
vt 0.476271 0.594672
vt 0.545543 0.516590
vt 0.608611 0.433415
vt 0.661621 0.350086
vt 0.701164 0.271477
vt 0.724455 0.202151
vt 0.202153 0.724455
vt 0.257404 0.678005
vt 0.322659 0.614002
vt 0.393813 0.536853
vt 0.466395 0.451635
vt 0.535815 0.363821
vt 0.597600 0.278984
vt 0.647642 0.202496
vt 0.682421 0.139244
vt 0.139245 0.682422
vt 0.184816 0.626894
vt 0.243540 0.555338
vt 0.311451 0.472587
vt 0.384084 0.384084
vt 0.456717 0.295581
vt 0.524628 0.212830
vt 0.583352 0.141274
vt 0.628923 0.085746
vt 0.085747 0.628924
vt 0.120525 0.565672
vt 0.170568 0.489184
vt 0.232353 0.404346
vt 0.301772 0.316533
vt 0.374355 0.231315
vt 0.445508 0.154166
vt 0.510764 0.090163
vt 0.566015 0.043713
vt 0.043713 0.566017
vt 0.067004 0.496691
vt 0.106546 0.418082
vt 0.159557 0.334753
vt 0.222624 0.251578
vt 0.291897 0.173496
vt 0.363283 0.105247
vt 0.432667 0.051127
vt 0.496116 0.014760
vt 0.014760 0.496118
vt 0.026307 0.422604
vt 0.053937 0.344766
vt 0.095861 0.266480
vt 0.149681 0.191715
vt 0.212509 0.124343
vt 0.281112 0.067951
vt 0.352063 0.025667
vt 0.421912 0.000000
vt 0.000000 0.421914
vt 0.000000 0.346256
vt 0.014760 0.272052
vt 0.043713 0.202153
vt 0.085746 0.139245
vt 0.139244 0.085747
vt 0.202151 0.043713
vt 0.272050 0.014760
vt 0.346254 0.000000
s 1
usemtl Material
f 348/264/35 346/265/35 332/266/35 334/267/35
f 270/268/35 271/269/35 346/265/35 348/264/35
f 246/270/35 245/271/35 286/272/35 287/273/35
f 253/274/35 252/275/35 245/271/35 246/270/35
f 294/276/35 292/277/35 252/275/35 253/274/35
f 308/278/35 306/279/35 292/277/35 294/276/35
f 322/280/35 320/281/35 306/279/35 308/278/35
f 336/282/35 334/267/35 320/281/35 322/280/35
f 350/283/35 348/264/35 334/267/35 336/282/35
f 269/284/35 270/268/35 348/264/35 350/283/35
f 247/285/35 246/270/35 287/273/35 288/286/35
f 254/287/35 253/274/35 246/270/35 247/285/35
f 296/288/35 294/276/35 253/274/35 254/287/35
f 310/289/35 308/278/35 294/276/35 296/288/35
f 324/290/35 322/280/35 308/278/35 310/289/35
f 338/291/35 336/282/35 322/280/35 324/290/35
f 352/292/35 350/283/35 336/282/35 338/291/35
f 268/293/35 269/284/35 350/283/35 352/292/35
f 248/294/35 247/285/35 288/286/35 289/295/35
f 255/296/35 254/287/35 247/285/35 248/294/35
f 298/297/35 296/288/35 254/287/35 255/296/35
f 312/298/35 310/289/35 296/288/35 298/297/35
f 326/299/35 324/290/35 310/289/35 312/298/35
f 340/300/35 338/291/35 324/290/35 326/299/35
f 354/301/35 352/292/35 338/291/35 340/300/35
f 267/302/35 268/293/35 352/292/35 354/301/35
f 259/303/35 248/294/35 289/295/35 290/304/35
f 260/305/35 255/296/35 248/294/35 259/303/35
f 261/306/35 298/297/35 255/296/35 260/305/35
f 262/307/35 312/298/35 298/297/35 261/306/35
f 263/308/35 326/299/35 312/298/35 262/307/35
f 264/309/35 340/300/35 326/299/35 263/308/35
f 265/310/35 354/301/35 340/300/35 264/309/35
f 217/311/36 216/312/36 353/313/36 218/314/36
f 266/315/35 267/302/35 354/301/35 265/310/35
f 387/316/37 407/317/38 375/318/38 355/319/37
f 398/320/39 399/321/40 367/322/40 366/323/39
f 393/324/41 394/325/42 362/326/42 361/327/41
f 394/325/42 411/328/43 379/329/43 362/326/42
f 400/330/44 401/331/45 369/332/45 368/333/44
f 401/334/45 415/335/46 383/336/46 369/337/45
f 391/338/47 409/339/48 377/340/48 359/341/47
f 389/342/49 408/343/50 376/344/50 357/345/49
f 395/346/51 396/347/52 364/348/52 363/349/51
f 406/350/53 418/351/54 386/352/54 374/353/53
f 405/354/55 406/355/53 374/356/53 373/357/55
f 404/358/56 417/359/57 385/360/57 372/361/56
f 399/321/40 414/362/58 382/363/58 367/322/40
f 390/364/59 391/365/47 359/366/47 358/367/59
f 396/368/52 412/369/60 380/370/60 364/371/52
f 403/372/61 416/373/62 384/374/62 371/375/61
f 392/376/63 410/377/64 378/378/64 360/379/63
f 388/380/65 389/342/49 357/345/49 356/381/65
f 402/382/66 403/372/61 371/375/61 370/383/66
f 397/384/67 413/385/68 381/386/68 365/387/67
f 381/386/68 413/385/68 398/320/39 366/323/39
f 385/360/57 417/359/57 405/354/55 373/357/55
f 377/340/48 409/339/48 392/376/63 360/379/63
f 383/336/46 415/335/46 402/382/66 370/383/66
f 382/363/58 414/362/58 400/330/44 368/333/44
f 375/318/38 407/317/38 388/380/65 356/381/65
f 384/374/62 416/373/62 404/358/56 372/361/56
f 386/352/54 418/351/54 387/316/37 355/319/37
f 378/378/64 410/377/64 393/324/41 361/327/41
f 379/329/43 411/328/43 395/346/51 363/349/51
f 380/370/60 412/369/60 397/384/67 365/387/67
f 376/344/50 408/343/50 390/364/59 358/367/59
f 334/267/35 332/266/35 318/388/35 320/281/35
f 320/281/35 318/388/35 304/389/35 306/279/35
f 306/279/35 304/389/35 258/390/35 292/277/35
f 292/277/35 258/390/35 251/391/35 252/275/35
f 252/275/35 251/391/35 244/392/35 245/271/35
f 245/271/35 244/392/35 285/393/35 286/272/35
f 271/269/35 272/394/35 344/395/35 346/265/35
f 346/265/35 344/395/35 330/396/35 332/266/35
f 332/266/35 330/396/35 316/397/35 318/388/35
f 318/388/35 316/397/35 302/398/35 304/389/35
f 304/389/35 302/398/35 257/399/35 258/390/35
f 258/390/35 257/399/35 250/400/35 251/391/35
f 251/391/35 250/400/35 243/401/35 244/392/35
f 244/392/35 243/401/35 284/402/35 285/393/35
f 272/394/35 273/403/35 342/404/35 344/395/35
f 344/395/35 342/404/35 328/405/35 330/396/35
f 330/396/35 328/405/35 314/406/35 316/397/35
f 316/397/35 314/406/35 300/407/35 302/398/35
f 302/398/35 300/407/35 256/408/35 257/399/35
f 257/399/35 256/408/35 249/409/35 250/400/35
f 250/400/35 249/409/35 242/410/35 243/401/35
f 243/401/35 242/410/35 283/411/35 284/402/35
f 273/403/35 274/412/35 275/413/35 342/404/35
f 342/404/35 275/413/35 276/414/35 328/405/35
f 328/405/35 276/414/35 277/415/35 314/406/35
f 314/406/35 277/415/35 278/416/35 300/407/35
f 300/407/35 278/416/35 279/417/35 256/408/35
f 256/408/35 279/417/35 280/418/35 249/409/35
f 249/409/35 280/418/35 281/419/35 242/410/35
f 242/410/35 281/419/35 282/420/35 283/411/35
f 218/314/36 353/313/36 339/421/36 219/422/36
f 219/422/36 339/421/36 325/423/36 220/424/36
f 220/424/36 325/423/36 311/425/36 221/426/36
f 221/426/36 311/425/36 297/427/36 222/428/36
f 222/428/36 297/427/36 206/429/36 223/430/36
f 223/430/36 206/429/36 199/431/36 224/432/36
f 224/432/36 199/431/36 226/433/36 225/434/36
f 216/312/36 215/435/36 351/436/36 353/313/36
f 353/313/36 351/436/36 337/437/36 339/421/36
f 339/421/36 337/437/36 323/438/36 325/423/36
f 325/423/36 323/438/36 309/439/36 311/425/36
f 311/425/36 309/439/36 295/440/36 297/427/36
f 297/427/36 295/440/36 205/441/36 206/429/36
f 206/429/36 205/441/36 198/442/36 199/431/36
f 199/431/36 198/442/36 227/443/36 226/433/36
f 215/435/36 214/444/36 349/445/36 351/436/36
f 351/436/36 349/445/36 335/446/36 337/437/36
f 337/437/36 335/446/36 321/447/36 323/438/36
f 323/438/36 321/447/36 307/448/36 309/439/36
f 309/439/36 307/448/36 293/449/36 295/440/36
f 295/440/36 293/449/36 204/450/36 205/441/36
f 205/441/36 204/450/36 197/451/36 198/442/36
f 198/442/36 197/451/36 228/452/36 227/443/36
f 214/444/36 213/453/36 347/454/36 349/445/36
f 349/445/36 347/454/36 333/455/36 335/446/36
f 335/446/36 333/455/36 319/456/36 321/447/36
f 321/447/36 319/456/36 305/457/36 307/448/36
f 307/448/36 305/457/36 291/458/36 293/449/36
f 293/449/36 291/458/36 203/459/36 204/450/36
f 204/450/36 203/459/36 196/460/36 197/451/36
f 197/451/36 196/460/36 229/461/36 228/452/36
f 213/453/36 212/462/36 345/463/36 347/454/36
f 347/454/36 345/463/36 331/464/36 333/455/36
f 333/455/36 331/464/36 317/465/36 319/456/36
f 319/456/36 317/465/36 303/466/36 305/457/36
f 305/457/36 303/466/36 209/467/36 291/458/36
f 291/458/36 209/467/36 202/468/36 203/459/36
f 203/459/36 202/468/36 195/469/36 196/460/36
f 196/460/36 195/469/36 230/470/36 229/461/36
f 212/462/36 211/471/36 343/472/36 345/463/36
f 345/463/36 343/472/36 329/473/36 331/464/36
f 331/464/36 329/473/36 315/474/36 317/465/36
f 317/465/36 315/474/36 301/475/36 303/466/36
f 303/466/36 301/475/36 208/476/36 209/467/36
f 209/467/36 208/476/36 201/477/36 202/468/36
f 202/468/36 201/477/36 194/478/36 195/469/36
f 195/469/36 194/478/36 231/479/36 230/470/36
f 211/471/36 210/480/36 341/481/36 343/472/36
f 343/472/36 341/481/36 327/482/36 329/473/36
f 329/473/36 327/482/36 313/483/36 315/474/36
f 315/474/36 313/483/36 299/484/36 301/475/36
f 301/475/36 299/484/36 207/485/36 208/476/36
f 208/476/36 207/485/36 200/486/36 201/477/36
f 201/477/36 200/486/36 193/487/36 194/478/36
f 194/478/36 193/487/36 232/488/36 231/479/36
f 210/480/36 241/489/36 240/490/36 341/481/36
f 341/481/36 240/490/36 239/491/36 327/482/36
f 327/482/36 239/491/36 238/492/36 313/483/36
f 313/483/36 238/492/36 237/493/36 299/484/36
f 299/484/36 237/493/36 236/494/36 207/485/36
f 207/485/36 236/494/36 235/495/36 200/486/36
f 200/486/36 235/495/36 234/496/36 193/487/36
f 193/487/36 234/496/36 233/497/36 232/488/36
