# Blender 3.5.0
# www.blender.org
mtllib airstep_target.mtl
o Cone
v 0.000000 1.494268 0.000000
v 0.000000 0.494268 0.988536
v 0.988536 0.494268 0.000000
v 0.000000 0.494268 -0.988536
v -0.988536 0.494268 0.000000
v 0.000000 -0.494268 -0.000000
vn 0.5796 0.5729 0.5796
vn 0.5774 -0.5774 0.5774
vn 0.5796 0.5729 -0.5796
vn 0.5774 -0.5774 -0.5774
vn -0.5796 0.5729 -0.5796
vn -0.5774 -0.5774 -0.5774
vn -0.5796 0.5729 0.5796
vn -0.5774 -0.5774 0.5774
vt 0.750000 0.250000
vt 0.750000 0.490000
vt 0.250000 0.490000
vt 0.990000 0.250000
vt 0.490000 0.250000
vt 0.750000 0.010000
vt 0.250000 0.010000
vt 0.510000 0.250000
vt 0.010000 0.250000
vt 0.250000 0.250000
s 0
usemtl Material.001
f 1/1/1 2/2/1 3/4/1
f 2/3/2 6/10/2 3/5/2
f 1/1/3 3/4/3 4/6/3
f 3/5/4 6/10/4 4/7/4
f 1/1/5 4/6/5 5/8/5
f 4/7/6 6/10/6 5/9/6
f 1/1/7 5/8/7 2/2/7
f 5/9/8 6/10/8 2/3/8
