# Blender v2.83.0 OBJ File: ''
# www.blender.org
mtllib moogle_projector.mtl
o Cylinder
v 0.500000 -0.002500 -1.000000
v 0.500000 0.072500 -1.000000
v 0.597545 -0.002500 -0.990393
v 0.597545 0.072500 -0.990393
v 0.691342 -0.002500 -0.961940
v 0.691342 0.072500 -0.961940
v 0.777785 -0.002500 -0.915735
v 0.777785 0.072500 -0.915735
v 0.853553 -0.002500 -0.853553
v 0.853553 0.072500 -0.853553
v 0.915735 -0.002500 -0.777785
v 0.915735 0.072500 -0.777785
v 0.961940 -0.002500 -0.691342
v 0.961940 0.072500 -0.691342
v 0.990393 -0.002500 -0.597545
v 0.990393 0.072500 -0.597545
v 1.000000 -0.002500 -0.500000
v 1.000000 0.072500 -0.500000
v 0.990393 -0.002500 -0.402455
v 0.990393 0.072500 -0.402455
v 0.961940 -0.002500 -0.308658
v 0.961940 0.072500 -0.308658
v 0.915735 -0.002500 -0.222215
v 0.915735 0.072500 -0.222215
v 0.853553 -0.002500 -0.146447
v 0.853553 0.072500 -0.146447
v 0.777785 -0.002500 -0.084265
v 0.777785 0.072500 -0.084265
v 0.691342 -0.002500 -0.038060
v 0.691342 0.072500 -0.038060
v 0.597545 -0.002500 -0.009607
v 0.597545 0.072500 -0.009607
v 0.500000 -0.002500 0.000000
v 0.500000 0.072500 0.000000
v 0.402455 -0.002500 -0.009607
v 0.402455 0.072500 -0.009607
v 0.308658 -0.002500 -0.038060
v 0.308658 0.072500 -0.038060
v 0.222215 -0.002500 -0.084265
v 0.222215 0.072500 -0.084265
v 0.146446 -0.002500 -0.146447
v 0.146446 0.072500 -0.146447
v 0.084265 -0.002500 -0.222215
v 0.084265 0.072500 -0.222215
v 0.038060 -0.002500 -0.308659
v 0.038060 0.072500 -0.308659
v 0.009607 -0.002500 -0.402455
v 0.009607 0.072500 -0.402455
v 0.000000 -0.002500 -0.500000
v 0.000000 0.072500 -0.500000
v 0.009607 -0.002500 -0.597546
v 0.009607 0.072500 -0.597546
v 0.038060 -0.002500 -0.691342
v 0.038060 0.072500 -0.691342
v 0.084266 -0.002500 -0.777786
v 0.084266 0.072500 -0.777786
v 0.146447 -0.002500 -0.853554
v 0.146447 0.072500 -0.853554
v 0.222215 -0.002500 -0.915735
v 0.222215 0.072500 -0.915735
v 0.308659 -0.002500 -0.961940
v 0.308659 0.072500 -0.961940
v 0.402456 -0.002500 -0.990393
v 0.402456 0.072500 -0.990393
v 0.500000 -0.001471 -0.999272
v 0.500000 0.072500 -0.999000
v 0.597403 -0.001471 -0.989679
v 0.597350 0.072500 -0.989412
v 0.691063 -0.001471 -0.961267
v 0.690959 0.072500 -0.961016
v 0.777381 -0.001471 -0.915130
v 0.777230 0.072500 -0.914903
v 0.853039 -0.001471 -0.853039
v 0.852846 0.072500 -0.852846
v 0.915130 -0.001471 -0.777381
v 0.914903 0.072500 -0.777230
v 0.961267 -0.001471 -0.691063
v 0.961016 0.072500 -0.690959
v 0.989679 -0.001471 -0.597403
v 0.989412 0.072500 -0.597350
v 0.999272 -0.001471 -0.500000
v 0.999000 0.072500 -0.500000
v 0.989679 -0.001471 -0.402597
v 0.989412 0.072500 -0.402650
v 0.961267 -0.001471 -0.308937
v 0.961016 0.072500 -0.309041
v 0.915130 -0.001471 -0.222619
v 0.914903 0.072500 -0.222770
v 0.853039 -0.001471 -0.146961
v 0.852846 0.072500 -0.147154
v 0.777381 -0.001471 -0.084870
v 0.777230 0.072500 -0.085097
v 0.691063 -0.001471 -0.038733
v 0.690959 0.072500 -0.038984
v 0.597403 -0.001471 -0.010321
v 0.597350 0.072500 -0.010588
v 0.500000 -0.001471 -0.000728
v 0.500000 0.072500 -0.001000
v 0.402597 -0.001471 -0.010321
v 0.402650 0.072500 -0.010588
v 0.308937 -0.001471 -0.038733
v 0.309041 0.072500 -0.038984
v 0.222619 -0.001471 -0.084871
v 0.222770 0.072500 -0.085097
v 0.146961 -0.001471 -0.146961
v 0.147153 0.072500 -0.147154
v 0.084870 -0.001471 -0.222620
v 0.085096 0.072500 -0.222771
v 0.038733 -0.001471 -0.308937
v 0.038984 0.072500 -0.309041
v 0.010321 -0.001471 -0.402597
v 0.010588 0.072500 -0.402650
v 0.000728 -0.001471 -0.500000
v 0.001000 0.072500 -0.500000
v 0.010321 -0.001471 -0.597404
v 0.010588 0.072500 -0.597351
v 0.038733 -0.001471 -0.691064
v 0.038984 0.072500 -0.690960
v 0.084871 -0.001471 -0.777381
v 0.085097 0.072500 -0.777230
v 0.146962 -0.001471 -0.853039
v 0.147154 0.072500 -0.852847
v 0.222620 -0.001471 -0.915130
v 0.222771 0.072500 -0.914904
v 0.308937 -0.001471 -0.961268
v 0.309042 0.072500 -0.961016
v 0.402598 -0.001471 -0.989679
v 0.402651 0.072500 -0.989412
vt 0.991539 0.994093
vt 0.960715 0.932323
vt 0.991539 0.932323
vt 0.960715 0.994093
vt 0.929892 0.932323
vt 0.929892 0.994093
vt 0.899069 0.932323
vt 0.899069 0.994093
vt 0.868245 0.932323
vt 0.868245 0.994093
vt 0.837422 0.932323
vt 0.837422 0.994093
vt 0.806598 0.932323
vt 0.806598 0.994093
vt 0.775775 0.932323
vt 0.775775 0.994093
vt 0.744952 0.932323
vt 0.744952 0.994093
vt 0.714128 0.932323
vt 0.714128 0.994093
vt 0.683305 0.932323
vt 0.683305 0.994093
vt 0.652481 0.932323
vt 0.652481 0.994093
vt 0.621658 0.932323
vt 0.621658 0.994093
vt 0.590835 0.932323
vt 0.590835 0.994093
vt 0.560011 0.932323
vt 0.560011 0.994093
vt 0.529188 0.932323
vt 0.529188 0.994093
vt 0.498364 0.932323
vt 0.498364 0.994093
vt 0.467541 0.932323
vt 0.467541 0.994093
vt 0.436718 0.932323
vt 0.436718 0.994093
vt 0.405894 0.932323
vt 0.405894 0.994093
vt 0.375071 0.932323
vt 0.375071 0.994093
vt 0.344247 0.932323
vt 0.344247 0.994093
vt 0.313424 0.932323
vt 0.313424 0.994093
vt 0.282601 0.932323
vt 0.282601 0.994093
vt 0.251777 0.932323
vt 0.251777 0.994093
vt 0.220954 0.932323
vt 0.220954 0.994093
vt 0.190130 0.932323
vt 0.190130 0.994093
vt 0.159307 0.932323
vt 0.159307 0.994093
vt 0.128484 0.932323
vt 0.128484 0.994093
vt 0.097660 0.932323
vt 0.097660 0.994093
vt 0.066837 0.932323
vt 0.066837 0.994093
vt 0.036013 0.932323
vt 0.036013 0.994093
vt 0.005190 0.932323
vt 0.985388 0.296822
vt 0.796822 0.014612
vt 0.514611 0.203179
vt 0.703179 0.485389
vt 0.750000 0.490000
vt 0.796822 0.485388
vt 0.841844 0.471731
vt 0.883337 0.449553
vt 0.919706 0.419706
vt 0.949553 0.383337
vt 0.971731 0.341844
vt 0.990000 0.250000
vt 0.985388 0.203178
vt 0.971731 0.158156
vt 0.949553 0.116663
vt 0.919706 0.080294
vt 0.883337 0.050447
vt 0.841844 0.028269
vt 0.750000 0.010000
vt 0.703178 0.014612
vt 0.658156 0.028269
vt 0.616663 0.050447
vt 0.580294 0.080294
vt 0.550447 0.116663
vt 0.528269 0.158156
vt 0.510000 0.250000
vt 0.514612 0.296822
vt 0.528269 0.341844
vt 0.550447 0.383337
vt 0.580295 0.419706
vt 0.616663 0.449553
vt 0.658156 0.471731
vt 0.005190 0.994093
vt 0.991539 0.994093
vt 0.991539 0.932323
vt 0.960715 0.932323
vt 0.960715 0.994093
vt 0.929892 0.932323
vt 0.929892 0.994093
vt 0.899069 0.932323
vt 0.899069 0.994093
vt 0.868245 0.932323
vt 0.868245 0.994093
vt 0.837422 0.932323
vt 0.837422 0.994093
vt 0.806598 0.932323
vt 0.806598 0.994093
vt 0.775775 0.932323
vt 0.775775 0.994093
vt 0.744952 0.932323
vt 0.744952 0.994093
vt 0.714128 0.932323
vt 0.714128 0.994093
vt 0.683305 0.932323
vt 0.683305 0.994093
vt 0.652481 0.932323
vt 0.652481 0.994093
vt 0.621658 0.932323
vt 0.621658 0.994093
vt 0.590835 0.932323
vt 0.590835 0.994093
vt 0.560011 0.932323
vt 0.560011 0.994093
vt 0.529188 0.932323
vt 0.529188 0.994093
vt 0.498364 0.932323
vt 0.498364 0.994093
vt 0.467541 0.932323
vt 0.467541 0.994093
vt 0.436718 0.932323
vt 0.436718 0.994093
vt 0.405894 0.932323
vt 0.405894 0.994093
vt 0.375071 0.932323
vt 0.375071 0.994093
vt 0.344247 0.932323
vt 0.344247 0.994093
vt 0.313424 0.932323
vt 0.313424 0.994093
vt 0.282601 0.932323
vt 0.282601 0.994093
vt 0.251777 0.932323
vt 0.251777 0.994093
vt 0.220954 0.932323
vt 0.220954 0.994093
vt 0.190130 0.932323
vt 0.190130 0.994093
vt 0.159307 0.932323
vt 0.159307 0.994093
vt 0.128484 0.932323
vt 0.128484 0.994093
vt 0.097660 0.932323
vt 0.097660 0.994093
vt 0.066837 0.932323
vt 0.066837 0.994093
vt 0.036013 0.932323
vt 0.036013 0.994093
vt 0.005190 0.932323
vt 0.985388 0.296822
vt 0.514611 0.203179
vt 0.796822 0.014612
vt 0.703179 0.485389
vt 0.796822 0.485388
vt 0.750000 0.490000
vt 0.883337 0.449553
vt 0.841844 0.471731
vt 0.949553 0.383337
vt 0.919706 0.419706
vt 0.971731 0.341844
vt 0.985388 0.203178
vt 0.990000 0.250000
vt 0.971731 0.158156
vt 0.949553 0.116663
vt 0.919706 0.080294
vt 0.883337 0.050447
vt 0.841844 0.028269
vt 0.703178 0.014612
vt 0.750000 0.010000
vt 0.616663 0.050447
vt 0.658156 0.028269
vt 0.550447 0.116663
vt 0.580294 0.080294
vt 0.528269 0.158156
vt 0.514612 0.296822
vt 0.510000 0.250000
vt 0.550447 0.383337
vt 0.528269 0.341844
vt 0.580295 0.419706
vt 0.616663 0.449553
vt 0.658156 0.471731
vt 0.005190 0.994093
vn 0.0980 0.0000 -0.9952
vn 0.2903 0.0000 -0.9569
vn 0.4714 0.0000 -0.8819
vn 0.6344 0.0000 -0.7730
vn 0.7730 0.0000 -0.6344
vn 0.8819 0.0000 -0.4714
vn 0.9569 0.0000 -0.2903
vn 0.9952 0.0000 -0.0980
vn 0.9952 0.0000 0.0980
vn 0.9569 0.0000 0.2903
vn 0.8819 0.0000 0.4714
vn 0.7730 0.0000 0.6344
vn 0.6344 0.0000 0.7730
vn 0.4714 0.0000 0.8819
vn 0.2903 0.0000 0.9569
vn 0.0980 0.0000 0.9952
vn -0.0980 0.0000 0.9952
vn -0.2903 0.0000 0.9569
vn -0.4714 0.0000 0.8819
vn -0.6344 0.0000 0.7730
vn -0.7730 0.0000 0.6344
vn -0.8819 0.0000 0.4714
vn -0.9569 0.0000 0.2903
vn -0.9952 0.0000 0.0980
vn -0.9952 0.0000 -0.0980
vn -0.9569 0.0000 -0.2903
vn -0.8819 0.0000 -0.4714
vn -0.7730 0.0000 -0.6344
vn -0.6344 0.0000 -0.7730
vn -0.4714 0.0000 -0.8819
vn -0.2903 0.0000 -0.9569
vn -0.0980 0.0000 -0.9952
vn 0.0000 -1.0000 0.0000
vn -0.0980 -0.0037 0.9952
vn -0.2903 -0.0037 0.9569
vn -0.4714 -0.0037 0.8819
vn -0.6344 -0.0037 0.7730
vn -0.7730 -0.0037 0.6344
vn -0.8819 -0.0037 0.4714
vn -0.9569 -0.0037 0.2903
vn -0.9952 -0.0037 0.0980
vn -0.9952 -0.0037 -0.0980
vn -0.9569 -0.0037 -0.2903
vn -0.8819 -0.0037 -0.4714
vn -0.7730 -0.0037 -0.6344
vn -0.6344 -0.0037 -0.7730
vn -0.4714 -0.0037 -0.8819
vn -0.2903 -0.0037 -0.9569
vn -0.0980 -0.0037 -0.9952
vn 0.0980 -0.0037 -0.9952
vn 0.2903 -0.0037 -0.9569
vn 0.4714 -0.0037 -0.8819
vn 0.6344 -0.0037 -0.7730
vn 0.7730 -0.0037 -0.6344
vn 0.8819 -0.0037 -0.4714
vn 0.9569 -0.0037 -0.2903
vn 0.9952 -0.0037 -0.0980
vn 0.9952 -0.0037 0.0980
vn 0.9569 -0.0037 0.2903
vn 0.8819 -0.0037 0.4714
vn 0.7730 -0.0037 0.6344
vn 0.6344 -0.0037 0.7730
vn 0.4714 -0.0037 0.8819
vn 0.2903 -0.0037 0.9569
vn 0.0980 -0.0037 0.9952
vn 0.0000 1.0000 0.0000
usemtl Material.001
s off
f 2/1/1 3/2/1 1/3/1
f 4/4/2 5/5/2 3/2/2
f 6/6/3 7/7/3 5/5/3
f 8/8/4 9/9/4 7/7/4
f 10/10/5 11/11/5 9/9/5
f 12/12/6 13/13/6 11/11/6
f 14/14/7 15/15/7 13/13/7
f 16/16/8 17/17/8 15/15/8
f 18/18/9 19/19/9 17/17/9
f 20/20/10 21/21/10 19/19/10
f 22/22/11 23/23/11 21/21/11
f 24/24/12 25/25/12 23/23/12
f 26/26/13 27/27/13 25/25/13
f 28/28/14 29/29/14 27/27/14
f 30/30/15 31/31/15 29/29/15
f 32/32/16 33/33/16 31/31/16
f 34/34/17 35/35/17 33/33/17
f 36/36/18 37/37/18 35/35/18
f 38/38/19 39/39/19 37/37/19
f 40/40/20 41/41/20 39/39/20
f 42/42/21 43/43/21 41/41/21
f 44/44/22 45/45/22 43/43/22
f 46/46/23 47/47/23 45/45/23
f 48/48/24 49/49/24 47/47/24
f 50/50/25 51/51/25 49/49/25
f 52/52/26 53/53/26 51/51/26
f 54/54/27 55/55/27 53/53/27
f 56/56/28 57/57/28 55/55/28
f 58/58/29 59/59/29 57/57/29
f 60/60/30 61/61/30 59/59/30
f 62/62/31 63/63/31 61/61/31
f 64/64/32 1/65/32 63/63/32
f 15/66/33 31/67/33 47/68/33
f 63/69/33 1/70/33 3/71/33
f 3/71/33 5/72/33 7/73/33
f 7/73/33 9/74/33 11/75/33
f 11/75/33 13/76/33 7/73/33
f 13/76/33 15/66/33 7/73/33
f 15/66/33 17/77/33 19/78/33
f 19/78/33 21/79/33 15/66/33
f 21/79/33 23/80/33 15/66/33
f 23/80/33 25/81/33 31/67/33
f 25/81/33 27/82/33 31/67/33
f 27/82/33 29/83/33 31/67/33
f 31/67/33 33/84/33 35/85/33
f 35/85/33 37/86/33 39/87/33
f 39/87/33 41/88/33 43/89/33
f 43/89/33 45/90/33 47/68/33
f 47/68/33 49/91/33 51/92/33
f 51/92/33 53/93/33 55/94/33
f 55/94/33 57/95/33 63/69/33
f 57/95/33 59/96/33 63/69/33
f 59/96/33 61/97/33 63/69/33
f 63/69/33 3/71/33 7/73/33
f 31/67/33 35/85/33 47/68/33
f 35/85/33 39/87/33 47/68/33
f 39/87/33 43/89/33 47/68/33
f 47/68/33 51/92/33 63/69/33
f 51/92/33 55/94/33 63/69/33
f 63/69/33 7/73/33 15/66/33
f 15/66/33 23/80/33 31/67/33
f 63/69/33 15/66/33 47/68/33
f 2/1/1 4/4/1 3/2/1
f 4/4/2 6/6/2 5/5/2
f 6/6/3 8/8/3 7/7/3
f 8/8/4 10/10/4 9/9/4
f 10/10/5 12/12/5 11/11/5
f 12/12/6 14/14/6 13/13/6
f 14/14/7 16/16/7 15/15/7
f 16/16/8 18/18/8 17/17/8
f 18/18/9 20/20/9 19/19/9
f 20/20/10 22/22/10 21/21/10
f 22/22/11 24/24/11 23/23/11
f 24/24/12 26/26/12 25/25/12
f 26/26/13 28/28/13 27/27/13
f 28/28/14 30/30/14 29/29/14
f 30/30/15 32/32/15 31/31/15
f 32/32/16 34/34/16 33/33/16
f 34/34/17 36/36/17 35/35/17
f 36/36/18 38/38/18 37/37/18
f 38/38/19 40/40/19 39/39/19
f 40/40/20 42/42/20 41/41/20
f 42/42/21 44/44/21 43/43/21
f 44/44/22 46/46/22 45/45/22
f 46/46/23 48/48/23 47/47/23
f 48/48/24 50/50/24 49/49/24
f 50/50/25 52/52/25 51/51/25
f 52/52/26 54/54/26 53/53/26
f 54/54/27 56/56/27 55/55/27
f 56/56/28 58/58/28 57/57/28
f 58/58/29 60/60/29 59/59/29
f 60/60/30 62/62/30 61/61/30
f 62/62/31 64/64/31 63/63/31
f 64/64/32 2/98/32 1/65/32
f 66/99/34 65/100/34 67/101/34
f 68/102/35 67/101/35 69/103/35
f 70/104/36 69/103/36 71/105/36
f 72/106/37 71/105/37 73/107/37
f 74/108/38 73/107/38 75/109/38
f 76/110/39 75/109/39 77/111/39
f 78/112/40 77/111/40 79/113/40
f 80/114/41 79/113/41 81/115/41
f 82/116/42 81/115/42 83/117/42
f 84/118/43 83/117/43 85/119/43
f 86/120/44 85/119/44 87/121/44
f 88/122/45 87/121/45 89/123/45
f 90/124/46 89/123/46 91/125/46
f 92/126/47 91/125/47 93/127/47
f 94/128/48 93/127/48 95/129/48
f 96/130/49 95/129/49 97/131/49
f 98/132/50 97/131/50 99/133/50
f 100/134/51 99/133/51 101/135/51
f 102/136/52 101/135/52 103/137/52
f 104/138/53 103/137/53 105/139/53
f 106/140/54 105/139/54 107/141/54
f 108/142/55 107/141/55 109/143/55
f 110/144/56 109/143/56 111/145/56
f 112/146/57 111/145/57 113/147/57
f 114/148/58 113/147/58 115/149/58
f 116/150/59 115/149/59 117/151/59
f 118/152/60 117/151/60 119/153/60
f 120/154/61 119/153/61 121/155/61
f 122/156/62 121/155/62 123/157/62
f 124/158/63 123/157/63 125/159/63
f 126/160/64 125/159/64 127/161/64
f 128/162/65 127/161/65 65/163/65
f 79/164/66 111/165/66 95/166/66
f 127/167/66 67/168/66 65/169/66
f 67/168/66 71/170/66 69/171/66
f 71/170/66 75/172/66 73/173/66
f 75/172/66 71/170/66 77/174/66
f 77/174/66 71/170/66 79/164/66
f 79/164/66 83/175/66 81/176/66
f 83/175/66 79/164/66 85/177/66
f 85/177/66 79/164/66 87/178/66
f 87/178/66 95/166/66 89/179/66
f 89/179/66 95/166/66 91/180/66
f 91/180/66 95/166/66 93/181/66
f 95/166/66 99/182/66 97/183/66
f 99/182/66 103/184/66 101/185/66
f 103/184/66 107/186/66 105/187/66
f 107/186/66 111/165/66 109/188/66
f 111/165/66 115/189/66 113/190/66
f 115/189/66 119/191/66 117/192/66
f 119/191/66 127/167/66 121/193/66
f 121/193/66 127/167/66 123/194/66
f 123/194/66 127/167/66 125/195/66
f 127/167/66 71/170/66 67/168/66
f 95/166/66 111/165/66 99/182/66
f 99/182/66 111/165/66 103/184/66
f 103/184/66 111/165/66 107/186/66
f 111/165/66 127/167/66 115/189/66
f 115/189/66 127/167/66 119/191/66
f 127/167/66 79/164/66 71/170/66
f 79/164/66 95/166/66 87/178/66
f 127/167/66 111/165/66 79/164/66
f 66/99/34 67/101/34 68/102/34
f 68/102/35 69/103/35 70/104/35
f 70/104/36 71/105/36 72/106/36
f 72/106/37 73/107/37 74/108/37
f 74/108/38 75/109/38 76/110/38
f 76/110/39 77/111/39 78/112/39
f 78/112/40 79/113/40 80/114/40
f 80/114/41 81/115/41 82/116/41
f 82/116/42 83/117/42 84/118/42
f 84/118/43 85/119/43 86/120/43
f 86/120/44 87/121/44 88/122/44
f 88/122/45 89/123/45 90/124/45
f 90/124/46 91/125/46 92/126/46
f 92/126/47 93/127/47 94/128/47
f 94/128/48 95/129/48 96/130/48
f 96/130/49 97/131/49 98/132/49
f 98/132/50 99/133/50 100/134/50
f 100/134/51 101/135/51 102/136/51
f 102/136/52 103/137/52 104/138/52
f 104/138/53 105/139/53 106/140/53
f 106/140/54 107/141/54 108/142/54
f 108/142/55 109/143/55 110/144/55
f 110/144/56 111/145/56 112/146/56
f 112/146/57 113/147/57 114/148/57
f 114/148/58 115/149/58 116/150/58
f 116/150/59 117/151/59 118/152/59
f 118/152/60 119/153/60 120/154/60
f 120/154/61 121/155/61 122/156/61
f 122/156/62 123/157/62 124/158/62
f 124/158/63 125/159/63 126/160/63
f 126/160/64 127/161/64 128/162/64
f 128/162/65 65/163/65 66/196/65
f 4/4/66 2/1/66 66/99/66 68/102/66
f 6/6/66 4/4/66 68/102/66 70/104/66
f 8/8/66 6/6/66 70/104/66 72/106/66
f 10/10/66 8/8/66 72/106/66 74/108/66
f 12/12/66 10/10/66 74/108/66 76/110/66
f 14/14/66 12/12/66 76/110/66 78/112/66
f 16/16/66 14/14/66 78/112/66 80/114/66
f 18/18/66 16/16/66 80/114/66 82/116/66
f 20/20/66 18/18/66 82/116/66 84/118/66
f 22/22/66 20/20/66 84/118/66 86/120/66
f 24/24/66 22/22/66 86/120/66 88/122/66
f 26/26/66 24/24/66 88/122/66 90/124/66
f 28/28/66 26/26/66 90/124/66 92/126/66
f 30/30/66 28/28/66 92/126/66 94/128/66
f 32/32/66 30/30/66 94/128/66 96/130/66
f 34/34/66 32/32/66 96/130/66 98/132/66
f 36/36/66 34/34/66 98/132/66 100/134/66
f 38/38/66 36/36/66 100/134/66 102/136/66
f 40/40/66 38/38/66 102/136/66 104/138/66
f 42/42/66 40/40/66 104/138/66 106/140/66
f 44/44/66 42/42/66 106/140/66 108/142/66
f 46/46/66 44/44/66 108/142/66 110/144/66
f 48/48/66 46/46/66 110/144/66 112/146/66
f 50/50/66 48/48/66 112/146/66 114/148/66
f 52/52/66 50/50/66 114/148/66 116/150/66
f 54/54/66 52/52/66 116/150/66 118/152/66
f 56/56/66 54/54/66 118/152/66 120/154/66
f 58/58/66 56/56/66 120/154/66 122/156/66
f 60/60/66 58/58/66 122/156/66 124/158/66
f 62/62/66 60/60/66 124/158/66 126/160/66
f 64/64/66 62/62/66 126/160/66 128/162/66
f 2/98/66 64/64/66 128/162/66 66/196/66
o Cone
v 0.507205 0.457517 -0.748962
v 0.507205 0.100112 -0.482585
v 0.663777 0.457517 -0.698088
v 0.760544 0.457517 -0.564900
v 0.760544 0.457517 -0.400270
v 0.663777 0.457517 -0.267082
v 0.507205 0.457517 -0.216208
v 0.350633 0.457517 -0.267082
v 0.253866 0.457517 -0.400270
v 0.253866 0.457517 -0.564900
v 0.350633 0.457517 -0.698088
v 0.508182 0.457337 -0.747640
v 0.508182 0.532371 -0.616157
v 0.664754 0.457337 -0.696766
v 0.587471 0.532371 -0.590395
v 0.761521 0.457337 -0.563578
v 0.636474 0.532371 -0.522948
v 0.761521 0.457337 -0.398948
v 0.636474 0.532371 -0.439578
v 0.664754 0.457337 -0.265760
v 0.587471 0.532371 -0.372131
v 0.508182 0.457337 -0.214886
v 0.508182 0.532371 -0.346369
v 0.351610 0.457337 -0.265760
v 0.428893 0.532371 -0.372131
v 0.254843 0.457337 -0.398948
v 0.379890 0.532371 -0.439578
v 0.254843 0.457337 -0.563578
v 0.379890 0.532371 -0.522948
v 0.351610 0.457337 -0.696766
v 0.428893 0.532371 -0.590395
v 0.623174 0.504513 -0.639536
v 0.508182 0.504513 -0.676899
v 0.694243 0.504513 -0.541718
v 0.694243 0.504513 -0.420808
v 0.623174 0.504513 -0.322990
v 0.508182 0.504513 -0.285627
v 0.393190 0.504513 -0.322990
v 0.322121 0.504513 -0.420808
v 0.322121 0.504513 -0.541718
v 0.393190 0.504513 -0.639536
vt 0.250000 0.246094
vt 0.250000 0.486094
vt 0.391069 0.440258
vt 0.478254 0.320258
vt 0.478254 0.171930
vt 0.391069 0.051930
vt 0.250000 0.006094
vt 0.108932 0.051930
vt 0.021747 0.171930
vt 0.021747 0.320258
vt 0.250000 0.490000
vt 0.021746 0.324164
vt 0.391068 0.055836
vt 0.108932 0.440258
vt 0.478254 0.324164
vt 0.391068 0.444164
vt 0.108932 0.444164
vt 0.021746 0.175836
vt 0.108932 0.055836
vt 0.250000 0.010000
vt 0.478254 0.175836
vt 0.400000 0.835256
vt 0.500000 0.547557
vt 0.500000 0.835256
vt 0.200000 0.835256
vt 0.300000 0.547557
vt 0.300000 0.835256
vt 1.000000 0.835256
vt 0.900000 0.547557
vt 1.000000 0.547557
vt 0.800000 0.835256
vt 0.700000 0.547557
vt 0.800000 0.547557
vt 0.900000 0.835256
vt 0.600000 0.547557
vt 0.600000 0.835256
vt 0.700000 0.835256
vt 0.100000 0.835256
vt 0.200000 0.547557
vt 0.400000 0.547557
vt 0.092615 0.301138
vt 0.021746 0.175836
vt 0.092615 0.198863
vt 0.407385 0.301138
vt 0.407385 0.198862
vt 0.152731 0.383880
vt 0.250000 0.490000
vt 0.108932 0.444164
vt 0.478254 0.324164
vt 0.391068 0.055836
vt 0.478254 0.175836
vt 0.108932 0.055836
vt 0.250000 0.084516
vt 0.152731 0.116120
vt 0.347269 0.383880
vt 0.478254 0.171930
vt 0.021747 0.171930
vt 0.391069 0.440258
vt 0.250000 0.415484
vt 0.250000 0.010000
vt 0.347269 0.116120
vt 0.391068 0.444164
vt 0.021746 0.324164
vt 0.250000 0.006094
vt -0.000000 0.835256
vt -0.000000 0.547557
vt 0.108932 0.440258
vt 0.250000 0.486094
vt 0.478254 0.320258
vt 0.391069 0.051930
vt 0.108932 0.051930
vt 0.021747 0.320258
vt 0.100000 0.547557
vn 0.2521 -0.5783 -0.7759
vn 0.6600 -0.5783 -0.4795
vn 0.8158 -0.5783 0.0000
vn 0.6600 -0.5783 0.4795
vn 0.2521 -0.5783 0.7759
vn -0.2521 -0.5783 0.7759
vn -0.6600 -0.5783 0.4795
vn -0.8158 -0.5783 0.0000
vn 0.0000 1.0000 0.0000
vn -0.6600 -0.5783 -0.4795
vn -0.2521 -0.5783 -0.7759
vn -0.1774 0.8188 0.5460
vn -0.5741 0.8188 0.0000
vn 0.1774 0.8188 -0.5460
vn 0.5741 0.8188 0.0000
vn 0.4645 0.8188 -0.3375
vn 0.1774 0.8188 0.5460
vn 0.4645 0.8188 0.3375
vn -0.4645 0.8188 -0.3375
vn -0.4344 0.9007 0.0000
vn -0.4645 0.8188 0.3375
vn -0.1342 0.9007 -0.4131
vn 0.4344 0.9007 0.0000
vn 0.3514 0.9007 0.2553
vn -0.1342 0.9007 0.4131
vn 0.3514 0.9007 -0.2553
vn 0.0000 -1.0000 0.0000
vn 0.1342 0.9007 -0.4131
vn -0.3514 0.9007 0.2553
vn 0.1342 0.9007 0.4131
vn -0.3514 0.9007 -0.2553
vn -0.1774 0.8188 -0.5460
usemtl Material.002
s off
f 130/197/67 129/198/67 131/199/67
f 130/197/68 131/199/68 132/200/68
f 130/197/69 132/200/69 133/201/69
f 130/197/70 133/201/70 134/202/70
f 130/197/71 134/202/71 135/203/71
f 130/197/72 135/203/72 136/204/72
f 130/197/73 136/204/73 137/205/73
f 130/197/74 137/205/74 138/206/74
f 129/207/75 138/208/75 134/209/75
f 130/197/76 138/206/76 139/210/76
f 130/197/77 139/210/77 129/198/77
f 132/211/75 131/212/75 129/207/75
f 129/207/75 139/213/75 138/208/75
f 138/208/75 137/214/75 136/215/75
f 136/215/75 135/216/75 138/208/75
f 135/216/75 134/209/75 138/208/75
f 134/209/75 133/217/75 132/211/75
f 132/211/75 129/207/75 134/209/75
f 166/218/78 150/219/78 165/220/78
f 168/221/79 154/222/79 167/223/79
f 161/224/80 142/225/80 140/226/80
f 162/227/81 146/228/81 144/229/81
f 160/230/82 144/229/82 142/225/82
f 148/231/83 165/220/83 150/219/83
f 164/232/84 146/228/84 163/233/84
f 169/234/85 156/235/85 168/221/85
f 166/218/78 152/236/78 150/219/78
f 157/237/86 167/238/86 155/239/86
f 152/236/87 167/223/87 154/222/87
f 145/240/75 157/237/75 147/241/75
f 159/242/88 161/243/88 169/244/88
f 147/241/89 162/245/89 145/240/89
f 147/241/90 164/246/90 163/247/90
f 166/248/91 151/249/91 153/250/91
f 162/245/92 143/251/92 145/240/92
f 146/252/93 154/253/93 142/254/93
f 143/251/94 161/243/94 141/255/94
f 167/238/95 153/250/95 155/239/95
f 165/256/96 149/257/96 151/249/96
f 169/244/97 157/237/97 159/242/97
f 167/238/95 166/248/95 153/250/95
f 162/245/92 160/258/92 143/251/92
f 165/256/96 164/246/96 149/257/96
f 169/244/97 168/259/97 157/237/97
f 146/252/93 150/260/93 154/253/93
f 143/251/94 160/258/94 161/243/94
f 169/234/98 161/261/98 140/262/98
f 166/248/91 165/256/91 151/249/91
f 145/240/75 143/251/75 141/255/75
f 141/255/75 159/242/75 157/237/75
f 157/237/75 155/239/75 153/250/75
f 153/250/75 151/249/75 157/237/75
f 151/249/75 149/257/75 157/237/75
f 149/257/75 147/241/75 157/237/75
f 168/221/79 156/235/79 154/222/79
f 147/241/90 149/257/90 164/246/90
f 158/263/93 140/264/93 142/254/93
f 142/254/93 144/265/93 146/252/93
f 146/252/93 148/266/93 150/260/93
f 150/260/93 152/267/93 154/253/93
f 154/253/93 156/268/93 158/263/93
f 158/263/93 142/254/93 154/253/93
f 161/224/80 160/230/80 142/225/80
f 145/240/75 141/255/75 157/237/75
f 164/232/84 148/231/84 146/228/84
f 148/231/83 164/232/83 165/220/83
f 160/230/82 162/227/82 144/229/82
f 169/234/85 158/269/85 156/235/85
f 162/227/81 163/233/81 146/228/81
f 159/242/88 141/255/88 161/243/88
f 147/241/89 163/247/89 162/245/89
f 157/237/86 168/259/86 167/238/86
f 152/236/87 166/218/87 167/223/87
f 169/234/98 140/262/98 158/269/98
